<?xml version="1.0" encoding="UTF-8" standalone="no"?>
<!DOCTYPE svg PUBLIC "-//W3C//DTD SVG 1.1//EN"
 "http://www.w3.org/Graphics/SVG/1.1/DTD/svg11.dtd">
<!-- Generated by graphviz version 2.43.0 (0)
 -->
<!-- Title: klyqa_ctl.controller_data.ControllerData.add_devices_lock Pages: 1 -->
<svg width="701pt" height="75pt"
 viewBox="0.00 0.00 701.00 75.00" xmlns="http://www.w3.org/2000/svg" xmlns:xlink="http://www.w3.org/1999/xlink">
<g id="graph0" class="graph" transform="scale(1 1) rotate(0) translate(4 71)">
<title>klyqa_ctl.controller_data.ControllerData.add_devices_lock</title>
<polygon fill="white" stroke="transparent" points="-4,4 -4,-71 697,-71 697,4 -4,4"/>
<!-- Node1 -->
<g id="node1" class="node">
<title>Node1</title>
<g id="a_node1"><a xlink:title=" ">
<polygon fill="#bfbfbf" stroke="black" points="554,-0.5 554,-41.5 693,-41.5 693,-0.5 554,-0.5"/>
<text text-anchor="start" x="562" y="-29.5" font-family="Helvetica,sans-Serif" font-size="10.00">klyqa_ctl.controller</text>
<text text-anchor="start" x="562" y="-18.5" font-family="Helvetica,sans-Serif" font-size="10.00">_data.ControllerData.add</text>
<text text-anchor="middle" x="623.5" y="-7.5" font-family="Helvetica,sans-Serif" font-size="10.00">_devices_lock</text>
</a>
</g>
</g>
<!-- Node2 -->
<g id="node2" class="node">
<title>Node2</title>
<g id="a_node2"><a xlink:href="classklyqa__ctl_1_1controller__data_1_1ControllerData.html#adfe1a88ba5aeb04f1519e1f2119ba043" target="_top" xlink:title=" ">
<polygon fill="white" stroke="black" points="379,-25.5 379,-66.5 518,-66.5 518,-25.5 379,-25.5"/>
<text text-anchor="start" x="387" y="-54.5" font-family="Helvetica,sans-Serif" font-size="10.00">klyqa_ctl.controller</text>
<text text-anchor="start" x="387" y="-43.5" font-family="Helvetica,sans-Serif" font-size="10.00">_data.ControllerData.add</text>
<text text-anchor="middle" x="448.5" y="-32.5" font-family="Helvetica,sans-Serif" font-size="10.00">_devices_lock</text>
</a>
</g>
</g>
<!-- Node1&#45;&gt;Node2 -->
<g id="edge1" class="edge">
<title>Node1&#45;&gt;Node2</title>
<path fill="none" stroke="midnightblue" d="M543.68,-32.39C535.16,-33.62 526.53,-34.87 518.13,-36.08"/>
<polygon fill="midnightblue" stroke="midnightblue" points="544.23,-35.85 553.63,-30.95 543.23,-28.92 544.23,-35.85"/>
</g>
<!-- Node3 -->
<g id="node3" class="node">
<title>Node3</title>
<g id="a_node3"><a xlink:href="classklyqa__ctl_1_1controller__data_1_1ControllerData.html#a006615491c01ae305bbf34eb2fc47e09" target="_top" xlink:title=" ">
<polygon fill="white" stroke="black" points="206,-0.5 206,-41.5 343,-41.5 343,-0.5 206,-0.5"/>
<text text-anchor="start" x="214" y="-29.5" font-family="Helvetica,sans-Serif" font-size="10.00">klyqa_ctl.controller</text>
<text text-anchor="start" x="214" y="-18.5" font-family="Helvetica,sans-Serif" font-size="10.00">_data.ControllerData.get</text>
<text text-anchor="middle" x="274.5" y="-7.5" font-family="Helvetica,sans-Serif" font-size="10.00">_or_create_device</text>
</a>
</g>
</g>
<!-- Node1&#45;&gt;Node3 -->
<g id="edge4" class="edge">
<title>Node1&#45;&gt;Node3</title>
<path fill="none" stroke="midnightblue" d="M543.77,-16.83C535.08,-16.49 526.35,-16.2 518,-16 456.24,-14.52 440.76,-14.51 379,-16 367.4,-16.28 355.08,-16.74 343.13,-17.26"/>
<polygon fill="midnightblue" stroke="midnightblue" points="543.8,-20.33 553.94,-17.25 544.09,-13.34 543.8,-20.33"/>
</g>
<!-- Node2&#45;&gt;Node3 -->
<g id="edge2" class="edge">
<title>Node2&#45;&gt;Node3</title>
<path fill="none" stroke="midnightblue" d="M368.59,-34.53C360.07,-33.29 351.45,-32.04 343.08,-30.82"/>
<polygon fill="midnightblue" stroke="midnightblue" points="368.13,-38 378.53,-35.98 369.14,-31.07 368.13,-38"/>
</g>
<!-- Node4 -->
<g id="node4" class="node">
<title>Node4</title>
<g id="a_node4"><a xlink:href="classklyqa__ctl_1_1account_1_1Account.html#a8e93f6fe918bf32c172447d4ef439d2d" target="_top" xlink:title=" ">
<polygon fill="white" stroke="black" points="0,-6 0,-36 170,-36 170,-6 0,-6"/>
<text text-anchor="start" x="8" y="-24" font-family="Helvetica,sans-Serif" font-size="10.00">klyqa_ctl.account.Account.sync</text>
<text text-anchor="middle" x="85" y="-13" font-family="Helvetica,sans-Serif" font-size="10.00">_acc_settings_to_controller</text>
</a>
</g>
</g>
<!-- Node3&#45;&gt;Node4 -->
<g id="edge3" class="edge">
<title>Node3&#45;&gt;Node4</title>
<path fill="none" stroke="midnightblue" d="M195.68,-21C187.29,-21 178.72,-21 170.25,-21"/>
<polygon fill="midnightblue" stroke="midnightblue" points="195.81,-24.5 205.81,-21 195.81,-17.5 195.81,-24.5"/>
</g>
</g>
</svg>
