<?xml version="1.0" encoding="UTF-8" standalone="no"?>
<!DOCTYPE svg PUBLIC "-//W3C//DTD SVG 1.1//EN"
 "http://www.w3.org/Graphics/SVG/1.1/DTD/svg11.dtd">
<!-- Generated by graphviz version 2.43.0 (0)
 -->
<!-- Title: klyqa_ctl.klyqa_ctl.Client.devices Pages: 1 -->
<svg width="1234pt" height="445pt"
 viewBox="0.00 0.00 1234.00 444.50" xmlns="http://www.w3.org/2000/svg" xmlns:xlink="http://www.w3.org/1999/xlink">
<g id="graph0" class="graph" transform="scale(1 1) rotate(0) translate(4 440.5)">
<title>klyqa_ctl.klyqa_ctl.Client.devices</title>
<polygon fill="white" stroke="transparent" points="-4,4 -4,-440.5 1230,-440.5 1230,4 -4,4"/>
<!-- Node1 -->
<g id="node1" class="node">
<title>Node1</title>
<g id="a_node1"><a xlink:title=" ">
<polygon fill="#bfbfbf" stroke="black" points="1046,-219.5 1046,-238.5 1226,-238.5 1226,-219.5 1046,-219.5"/>
<text text-anchor="middle" x="1136" y="-226.5" font-family="Helvetica,sans-Serif" font-size="10.00">klyqa_ctl.klyqa_ctl.Client.devices</text>
</a>
</g>
</g>
<!-- Node2 -->
<g id="node2" class="node">
<title>Node2</title>
<g id="a_node2"><a xlink:href="classklyqa__ctl_1_1account__control_1_1AccountControl.html#a5b4b4e18362cea70b456d2ffc78467a3" target="_top" xlink:title=" ">
<polygon fill="white" stroke="black" points="847.5,-406 847.5,-436 991.5,-436 991.5,-406 847.5,-406"/>
<text text-anchor="start" x="855.5" y="-424" font-family="Helvetica,sans-Serif" font-size="10.00">klyqa_ctl.account_control.</text>
<text text-anchor="middle" x="919.5" y="-413" font-family="Helvetica,sans-Serif" font-size="10.00">AccountControl.__init__</text>
</a>
</g>
</g>
<!-- Node1&#45;&gt;Node2 -->
<g id="edge1" class="edge">
<title>Node1&#45;&gt;Node2</title>
<path fill="none" stroke="midnightblue" d="M1125.41,-247.78C1107.35,-281.35 1065.08,-351.8 1010,-391 1001.45,-397.08 991.59,-402 981.6,-405.95"/>
<polygon fill="midnightblue" stroke="midnightblue" points="1128.67,-249.1 1130.23,-238.62 1122.48,-245.84 1128.67,-249.1"/>
</g>
<!-- Node3 -->
<g id="node3" class="node">
<title>Node3</title>
<g id="a_node3"><a xlink:href="classlocal_1_1connection__handler_1_1LocalConnectionHandler.html#a0b582d0bf1523d1d0404867ab921539f" target="_top" xlink:title=" ">
<polygon fill="white" stroke="black" points="206,-334.5 206,-375.5 376,-375.5 376,-334.5 206,-334.5"/>
<text text-anchor="start" x="214" y="-363.5" font-family="Helvetica,sans-Serif" font-size="10.00">local.connection_handler.</text>
<text text-anchor="start" x="214" y="-352.5" font-family="Helvetica,sans-Serif" font-size="10.00">LocalConnectionHandler.device</text>
<text text-anchor="middle" x="291" y="-341.5" font-family="Helvetica,sans-Serif" font-size="10.00">_handle_local_tcp</text>
</a>
</g>
</g>
<!-- Node1&#45;&gt;Node3 -->
<g id="edge2" class="edge">
<title>Node1&#45;&gt;Node3</title>
<path fill="none" stroke="midnightblue" d="M1124.29,-247.21C1105.55,-277.04 1063.64,-335.29 1010,-358 898.16,-405.36 540.53,-378.88 376.12,-363.53"/>
<polygon fill="midnightblue" stroke="midnightblue" points="1127.32,-248.96 1129.55,-238.6 1121.35,-245.31 1127.32,-248.96"/>
</g>
<!-- Node5 -->
<g id="node5" class="node">
<title>Node5</title>
<g id="a_node5"><a xlink:href="classklyqa__ctl_1_1controller__data_1_1ControllerData.html#a006615491c01ae305bbf34eb2fc47e09" target="_top" xlink:title=" ">
<polygon fill="white" stroke="black" points="851,-307.5 851,-348.5 988,-348.5 988,-307.5 851,-307.5"/>
<text text-anchor="start" x="859" y="-336.5" font-family="Helvetica,sans-Serif" font-size="10.00">klyqa_ctl.controller</text>
<text text-anchor="start" x="859" y="-325.5" font-family="Helvetica,sans-Serif" font-size="10.00">_data.ControllerData.get</text>
<text text-anchor="middle" x="919.5" y="-314.5" font-family="Helvetica,sans-Serif" font-size="10.00">_or_create_device</text>
</a>
</g>
</g>
<!-- Node1&#45;&gt;Node5 -->
<g id="edge4" class="edge">
<title>Node1&#45;&gt;Node5</title>
<path fill="none" stroke="midnightblue" d="M1111,-243.96C1086.31,-258.94 1046.42,-282 1010,-298 1002.5,-301.3 994.51,-304.45 986.52,-307.39"/>
<polygon fill="midnightblue" stroke="midnightblue" points="1112.98,-246.86 1119.68,-238.65 1109.32,-240.89 1112.98,-246.86"/>
</g>
<!-- Node7 -->
<g id="node7" class="node">
<title>Node7</title>
<g id="a_node7"><a xlink:href="classklyqa__ctl_1_1account_1_1Account.html#adad4d644a9bbb3633405dac89e86edd3" target="_top" xlink:title=" ">
<polygon fill="white" stroke="black" points="838,-258 838,-288 1001,-288 1001,-258 838,-258"/>
<text text-anchor="start" x="846" y="-276" font-family="Helvetica,sans-Serif" font-size="10.00">klyqa_ctl.account.Account.get</text>
<text text-anchor="middle" x="919.5" y="-265" font-family="Helvetica,sans-Serif" font-size="10.00">_or_create_device</text>
</a>
</g>
</g>
<!-- Node1&#45;&gt;Node7 -->
<g id="edge6" class="edge">
<title>Node1&#45;&gt;Node7</title>
<path fill="none" stroke="midnightblue" d="M1078.44,-240.6C1052.57,-245.91 1021.59,-252.26 993.94,-257.93"/>
<polygon fill="midnightblue" stroke="midnightblue" points="1079.36,-243.99 1088.46,-238.55 1077.96,-237.13 1079.36,-243.99"/>
</g>
<!-- Node8 -->
<g id="node8" class="node">
<title>Node8</title>
<g id="a_node8"><a xlink:href="classklyqa__ctl_1_1account_1_1Account.html#a0b171a600e4342d035ad26c39b384b38" target="_top" xlink:title=" ">
<polygon fill="white" stroke="black" points="834,-219.5 834,-238.5 1005,-238.5 1005,-219.5 834,-219.5"/>
<text text-anchor="middle" x="919.5" y="-226.5" font-family="Helvetica,sans-Serif" font-size="10.00">klyqa_ctl.account.Account.login</text>
</a>
</g>
</g>
<!-- Node1&#45;&gt;Node8 -->
<g id="edge8" class="edge">
<title>Node1&#45;&gt;Node8</title>
<path fill="none" stroke="midnightblue" d="M1035.74,-229C1025.53,-229 1015.23,-229 1005.2,-229"/>
<polygon fill="midnightblue" stroke="midnightblue" points="1035.9,-232.5 1045.9,-229 1035.9,-225.5 1035.9,-232.5"/>
</g>
<!-- Node9 -->
<g id="node9" class="node">
<title>Node9</title>
<g id="a_node9"><a xlink:href="classlocal_1_1connection__handler_1_1LocalConnectionHandler.html#a4ce11db96280d000941a91cb37df2842" target="_top" xlink:title=" ">
<polygon fill="white" stroke="black" points="832,-159.5 832,-200.5 1007,-200.5 1007,-159.5 832,-159.5"/>
<text text-anchor="start" x="840" y="-188.5" font-family="Helvetica,sans-Serif" font-size="10.00">local.connection_handler.</text>
<text text-anchor="start" x="840" y="-177.5" font-family="Helvetica,sans-Serif" font-size="10.00">LocalConnectionHandler.process</text>
<text text-anchor="middle" x="919.5" y="-166.5" font-family="Helvetica,sans-Serif" font-size="10.00">_device_identity_package</text>
</a>
</g>
</g>
<!-- Node1&#45;&gt;Node9 -->
<g id="edge9" class="edge">
<title>Node1&#45;&gt;Node9</title>
<path fill="none" stroke="midnightblue" d="M1083.57,-217.25C1060.71,-212.03 1033.16,-205.74 1007.27,-199.82"/>
<polygon fill="midnightblue" stroke="midnightblue" points="1082.86,-220.68 1093.39,-219.49 1084.42,-213.86 1082.86,-220.68"/>
</g>
<!-- Node12 -->
<g id="node12" class="node">
<title>Node12</title>
<g id="a_node12"><a xlink:href="classklyqa__ctl_1_1klyqa__ctl_1_1Client.html#a40aba5774804e631745f63c3c91ec049" target="_top" xlink:title=" ">
<polygon fill="white" stroke="black" points="833.5,-110 833.5,-140 1005.5,-140 1005.5,-110 833.5,-110"/>
<text text-anchor="start" x="841.5" y="-128" font-family="Helvetica,sans-Serif" font-size="10.00">klyqa_ctl.klyqa_ctl.Client.select</text>
<text text-anchor="middle" x="919.5" y="-117" font-family="Helvetica,sans-Serif" font-size="10.00">_device</text>
</a>
</g>
</g>
<!-- Node1&#45;&gt;Node12 -->
<g id="edge13" class="edge">
<title>Node1&#45;&gt;Node12</title>
<path fill="none" stroke="midnightblue" d="M1114.26,-213.21C1090.29,-195.62 1049.11,-167.37 1010,-150 1001.6,-146.27 992.5,-142.96 983.43,-140.07"/>
<polygon fill="midnightblue" stroke="midnightblue" points="1112.45,-216.23 1122.56,-219.39 1116.63,-210.61 1112.45,-216.23"/>
</g>
<!-- Node15 -->
<g id="node15" class="node">
<title>Node15</title>
<g id="a_node15"><a xlink:href="classklyqa__ctl_1_1account_1_1Account.html#a4fb47c923d3a579054e8cc72480906fb" target="_top" xlink:title=" ">
<polygon fill="white" stroke="black" points="829,-61 829,-91 1010,-91 1010,-61 829,-61"/>
<text text-anchor="start" x="837" y="-79" font-family="Helvetica,sans-Serif" font-size="10.00">klyqa_ctl.account.Account.update</text>
<text text-anchor="middle" x="919.5" y="-68" font-family="Helvetica,sans-Serif" font-size="10.00">_device_configs</text>
</a>
</g>
</g>
<!-- Node1&#45;&gt;Node15 -->
<g id="edge17" class="edge">
<title>Node1&#45;&gt;Node15</title>
<path fill="none" stroke="midnightblue" d="M1122.4,-210.7C1102.06,-182.58 1059.27,-128.97 1010,-100 1004.18,-96.58 997.85,-93.63 991.35,-91.09"/>
<polygon fill="midnightblue" stroke="midnightblue" points="1119.77,-213.05 1128.41,-219.19 1125.49,-209 1119.77,-213.05"/>
</g>
<!-- Node16 -->
<g id="node16" class="node">
<title>Node16</title>
<g id="a_node16"><a xlink:href="classklyqa__ctl_1_1account__control_1_1AccountControl.html#a46d51f33622ad0e952a66d0d1b91eb12" target="_top" xlink:title=" ">
<polygon fill="white" stroke="black" points="837,-0.5 837,-41.5 1002,-41.5 1002,-0.5 837,-0.5"/>
<text text-anchor="start" x="845" y="-29.5" font-family="Helvetica,sans-Serif" font-size="10.00">klyqa_ctl.account_control.</text>
<text text-anchor="start" x="845" y="-18.5" font-family="Helvetica,sans-Serif" font-size="10.00">AccountControl.update_device</text>
<text text-anchor="middle" x="919.5" y="-7.5" font-family="Helvetica,sans-Serif" font-size="10.00">_configs</text>
</a>
</g>
</g>
<!-- Node1&#45;&gt;Node16 -->
<g id="edge18" class="edge">
<title>Node1&#45;&gt;Node16</title>
<path fill="none" stroke="midnightblue" d="M1126.62,-209.86C1109.78,-173.58 1068.4,-94.57 1010,-51 1005.27,-47.47 1000.1,-44.34 994.71,-41.57"/>
<polygon fill="midnightblue" stroke="midnightblue" points="1123.57,-211.61 1130.88,-219.28 1129.94,-208.72 1123.57,-211.61"/>
</g>
<!-- Node4 -->
<g id="node4" class="node">
<title>Node4</title>
<g id="a_node4"><a xlink:href="classlocal_1_1connection__handler_1_1LocalConnectionHandler.html#a5e9277acd0b7bfa5a1e74417e0e10d86" target="_top" xlink:title=" ">
<polygon fill="white" stroke="black" points="0,-334.5 0,-375.5 170,-375.5 170,-334.5 0,-334.5"/>
<text text-anchor="start" x="8" y="-363.5" font-family="Helvetica,sans-Serif" font-size="10.00">local.connection_handler.</text>
<text text-anchor="start" x="8" y="-352.5" font-family="Helvetica,sans-Serif" font-size="10.00">LocalConnectionHandler.handle</text>
<text text-anchor="middle" x="85" y="-341.5" font-family="Helvetica,sans-Serif" font-size="10.00">_incoming_tcp_connection</text>
</a>
</g>
</g>
<!-- Node3&#45;&gt;Node4 -->
<g id="edge3" class="edge">
<title>Node3&#45;&gt;Node4</title>
<path fill="none" stroke="midnightblue" d="M195.6,-355C187.15,-355 178.64,-355 170.29,-355"/>
<polygon fill="midnightblue" stroke="midnightblue" points="195.85,-358.5 205.85,-355 195.85,-351.5 195.85,-358.5"/>
</g>
<!-- Node6 -->
<g id="node6" class="node">
<title>Node6</title>
<g id="a_node6"><a xlink:href="classklyqa__ctl_1_1account_1_1Account.html#a8e93f6fe918bf32c172447d4ef439d2d" target="_top" xlink:title=" ">
<polygon fill="white" stroke="black" points="620.5,-279 620.5,-309 790.5,-309 790.5,-279 620.5,-279"/>
<text text-anchor="start" x="628.5" y="-297" font-family="Helvetica,sans-Serif" font-size="10.00">klyqa_ctl.account.Account.sync</text>
<text text-anchor="middle" x="705.5" y="-286" font-family="Helvetica,sans-Serif" font-size="10.00">_acc_settings_to_controller</text>
</a>
</g>
</g>
<!-- Node5&#45;&gt;Node6 -->
<g id="edge5" class="edge">
<title>Node5&#45;&gt;Node6</title>
<path fill="none" stroke="midnightblue" d="M840.81,-315.54C824.48,-312.92 807.18,-310.15 790.63,-307.49"/>
<polygon fill="midnightblue" stroke="midnightblue" points="840.41,-319.02 850.84,-317.15 841.52,-312.11 840.41,-319.02"/>
</g>
<!-- Node7&#45;&gt;Node6 -->
<g id="edge7" class="edge">
<title>Node7&#45;&gt;Node6</title>
<path fill="none" stroke="midnightblue" d="M827.52,-282.01C815.24,-283.23 802.7,-284.47 790.55,-285.67"/>
<polygon fill="midnightblue" stroke="midnightblue" points="828.14,-285.47 837.75,-281 827.45,-278.5 828.14,-285.47"/>
</g>
<!-- Node10 -->
<g id="node10" class="node">
<title>Node10</title>
<g id="a_node10"><a xlink:href="classlocal_1_1connection__handler_1_1LocalConnectionHandler.html#aaa28266e241c2e30e8acd468fab06fde" target="_top" xlink:title=" ">
<polygon fill="white" stroke="black" points="618,-208.5 618,-249.5 793,-249.5 793,-208.5 618,-208.5"/>
<text text-anchor="start" x="626" y="-237.5" font-family="Helvetica,sans-Serif" font-size="10.00">local.connection_handler.</text>
<text text-anchor="start" x="626" y="-226.5" font-family="Helvetica,sans-Serif" font-size="10.00">LocalConnectionHandler.process</text>
<text text-anchor="middle" x="705.5" y="-215.5" font-family="Helvetica,sans-Serif" font-size="10.00">_tcp_package</text>
</a>
</g>
</g>
<!-- Node9&#45;&gt;Node10 -->
<g id="edge10" class="edge">
<title>Node9&#45;&gt;Node10</title>
<path fill="none" stroke="midnightblue" d="M821.98,-202.31C812.35,-204.53 802.62,-206.78 793.1,-208.98"/>
<polygon fill="midnightblue" stroke="midnightblue" points="823.01,-205.66 831.97,-200 821.43,-198.84 823.01,-205.66"/>
</g>
<!-- Node11 -->
<g id="node11" class="node">
<title>Node11</title>
<g id="a_node11"><a xlink:href="classlocal_1_1connection__handler_1_1LocalConnectionHandler.html#a900e05554022ee9ecb3ba5621369016d" target="_top" xlink:title=" ">
<polygon fill="white" stroke="black" points="412,-250.5 412,-291.5 582,-291.5 582,-250.5 412,-250.5"/>
<text text-anchor="start" x="420" y="-279.5" font-family="Helvetica,sans-Serif" font-size="10.00">local.connection_handler.</text>
<text text-anchor="start" x="420" y="-268.5" font-family="Helvetica,sans-Serif" font-size="10.00">LocalConnectionHandler.handle</text>
<text text-anchor="middle" x="497" y="-257.5" font-family="Helvetica,sans-Serif" font-size="10.00">_connection</text>
</a>
</g>
</g>
<!-- Node10&#45;&gt;Node11 -->
<g id="edge11" class="edge">
<title>Node10&#45;&gt;Node11</title>
<path fill="none" stroke="midnightblue" d="M607.8,-248.67C599.23,-250.41 590.6,-252.17 582.14,-253.89"/>
<polygon fill="midnightblue" stroke="midnightblue" points="608.72,-252.05 617.82,-246.63 607.33,-245.19 608.72,-252.05"/>
</g>
<!-- Node11&#45;&gt;Node3 -->
<g id="edge12" class="edge">
<title>Node11&#45;&gt;Node3</title>
<path fill="none" stroke="midnightblue" d="M436.59,-295.46C406.61,-307.81 370.65,-322.61 342.1,-334.37"/>
<polygon fill="midnightblue" stroke="midnightblue" points="438.18,-298.59 446.1,-291.55 435.52,-292.12 438.18,-298.59"/>
</g>
<!-- Node13 -->
<g id="node13" class="node">
<title>Node13</title>
<g id="a_node13"><a xlink:href="classklyqa__ctl_1_1klyqa__ctl_1_1Client.html#ad5c42cd8dd34ed1d6329040e164bfc2e" target="_top" xlink:title=" ">
<polygon fill="white" stroke="black" points="622.5,-110 622.5,-140 788.5,-140 788.5,-110 622.5,-110"/>
<text text-anchor="start" x="630.5" y="-128" font-family="Helvetica,sans-Serif" font-size="10.00">klyqa_ctl.klyqa_ctl.Client.send</text>
<text text-anchor="middle" x="705.5" y="-117" font-family="Helvetica,sans-Serif" font-size="10.00">_to_devices</text>
</a>
</g>
</g>
<!-- Node12&#45;&gt;Node13 -->
<g id="edge14" class="edge">
<title>Node12&#45;&gt;Node13</title>
<path fill="none" stroke="midnightblue" d="M823.4,-125C811.84,-125 800.11,-125 788.77,-125"/>
<polygon fill="midnightblue" stroke="midnightblue" points="823.49,-128.5 833.49,-125 823.49,-121.5 823.49,-128.5"/>
</g>
<!-- Node13&#45;&gt;Node13 -->
<g id="edge15" class="edge">
<title>Node13&#45;&gt;Node13</title>
<path fill="none" stroke="midnightblue" d="M742.46,-150.46C737.87,-155.18 725.55,-158.5 705.5,-158.5 672.59,-158.5 660.51,-149.56 669.25,-140.16"/>
<polygon fill="midnightblue" stroke="midnightblue" points="745.93,-149.89 741.75,-140.16 738.95,-150.38 745.93,-149.89"/>
</g>
<!-- Node14 -->
<g id="node14" class="node">
<title>Node14</title>
<g id="a_node14"><a xlink:href="classklyqa__ctl_1_1klyqa__ctl_1_1Client.html#a7a93bda9f242d678a4208d0962837f11" target="_top" xlink:title=" ">
<polygon fill="white" stroke="black" points="414,-110 414,-140 580,-140 580,-110 414,-110"/>
<text text-anchor="start" x="422" y="-128" font-family="Helvetica,sans-Serif" font-size="10.00">klyqa_ctl.klyqa_ctl.Client.send</text>
<text text-anchor="middle" x="497" y="-117" font-family="Helvetica,sans-Serif" font-size="10.00">_to_devices_wrapped</text>
</a>
</g>
</g>
<!-- Node13&#45;&gt;Node14 -->
<g id="edge16" class="edge">
<title>Node13&#45;&gt;Node14</title>
<path fill="none" stroke="midnightblue" d="M612.16,-125C601.53,-125 590.75,-125 580.26,-125"/>
<polygon fill="midnightblue" stroke="midnightblue" points="612.29,-128.5 622.29,-125 612.29,-121.5 612.29,-128.5"/>
</g>
</g>
</svg>
