<?xml version="1.0" encoding="UTF-8" standalone="no"?>
<!DOCTYPE svg PUBLIC "-//W3C//DTD SVG 1.1//EN"
 "http://www.w3.org/Graphics/SVG/1.1/DTD/svg11.dtd">
<!-- Generated by graphviz version 2.43.0 (0)
 -->
<!-- Title: cloud.CloudBackend.request Pages: 1 -->
<svg width="510pt" height="78pt"
 viewBox="0.00 0.00 510.00 77.50" xmlns="http://www.w3.org/2000/svg" xmlns:xlink="http://www.w3.org/1999/xlink">
<g id="graph0" class="graph" transform="scale(1 1) rotate(0) translate(4 73.5)">
<title>cloud.CloudBackend.request</title>
<polygon fill="white" stroke="transparent" points="-4,4 -4,-73.5 506,-73.5 506,4 -4,4"/>
<!-- Node1 -->
<g id="node1" class="node">
<title>Node1</title>
<g id="a_node1"><a xlink:title=" ">
<polygon fill="#bfbfbf" stroke="black" points="347,-22.5 347,-41.5 502,-41.5 502,-22.5 347,-22.5"/>
<text text-anchor="middle" x="424.5" y="-29.5" font-family="Helvetica,sans-Serif" font-size="10.00">cloud.CloudBackend.request</text>
</a>
</g>
</g>
<!-- Node2 -->
<g id="node2" class="node">
<title>Node2</title>
<g id="a_node2"><a xlink:href="classcloud_1_1CloudBackend.html#a58e4bd598358583c0eb7c50fdf0c6bc1" target="_top" xlink:title=" ">
<polygon fill="white" stroke="black" points="173.5,-39 173.5,-69 307.5,-69 307.5,-39 173.5,-39"/>
<text text-anchor="start" x="181.5" y="-57" font-family="Helvetica,sans-Serif" font-size="10.00">cloud.CloudBackend.get</text>
<text text-anchor="middle" x="240.5" y="-46" font-family="Helvetica,sans-Serif" font-size="10.00">_device_config</text>
</a>
</g>
</g>
<!-- Node1&#45;&gt;Node2 -->
<g id="edge1" class="edge">
<title>Node1&#45;&gt;Node2</title>
<path fill="none" stroke="midnightblue" d="M336.71,-42.49C326.95,-43.67 317.13,-44.86 307.69,-46"/>
<polygon fill="midnightblue" stroke="midnightblue" points="337.34,-45.94 346.84,-41.27 336.5,-38.99 337.34,-45.94"/>
</g>
<!-- Node4 -->
<g id="node4" class="node">
<title>Node4</title>
<g id="a_node4"><a xlink:href="classcloud_1_1CloudBackend.html#a8db40a99748dc3cc160e5093da0f84e8" target="_top" xlink:title=" ">
<polygon fill="white" stroke="black" points="170,-0.5 170,-19.5 311,-19.5 311,-0.5 170,-0.5"/>
<text text-anchor="middle" x="240.5" y="-7.5" font-family="Helvetica,sans-Serif" font-size="10.00">cloud.CloudBackend.send</text>
</a>
</g>
</g>
<!-- Node1&#45;&gt;Node4 -->
<g id="edge3" class="edge">
<title>Node1&#45;&gt;Node4</title>
<path fill="none" stroke="midnightblue" d="M336.78,-21.52C328.18,-20.48 319.52,-19.43 311.12,-18.42"/>
<polygon fill="midnightblue" stroke="midnightblue" points="336.5,-25.01 346.84,-22.73 337.34,-18.06 336.5,-25.01"/>
</g>
<!-- Node3 -->
<g id="node3" class="node">
<title>Node3</title>
<g id="a_node3"><a xlink:href="classcloud_1_1CloudBackend.html#a566850b368080b6ff85ee2675aa9b3e2" target="_top" xlink:title=" ">
<polygon fill="white" stroke="black" points="0,-39 0,-69 134,-69 134,-39 0,-39"/>
<text text-anchor="start" x="8" y="-57" font-family="Helvetica,sans-Serif" font-size="10.00">cloud.CloudBackend.get</text>
<text text-anchor="middle" x="67" y="-46" font-family="Helvetica,sans-Serif" font-size="10.00">_device_configs</text>
</a>
</g>
</g>
<!-- Node2&#45;&gt;Node3 -->
<g id="edge2" class="edge">
<title>Node2&#45;&gt;Node3</title>
<path fill="none" stroke="midnightblue" d="M163.18,-54C153.49,-54 143.64,-54 134.13,-54"/>
<polygon fill="midnightblue" stroke="midnightblue" points="163.19,-57.5 173.19,-54 163.19,-50.5 163.19,-57.5"/>
</g>
</g>
</svg>
