<?xml version="1.0" encoding="UTF-8" standalone="no"?>
<!DOCTYPE svg PUBLIC "-//W3C//DTD SVG 1.1//EN"
 "http://www.w3.org/Graphics/SVG/1.1/DTD/svg11.dtd">
<!-- Generated by graphviz version 2.43.0 (0)
 -->
<!-- Title: local.connection_handler.LocalConnectionHandler.discover_devices Pages: 1 -->
<svg width="1694pt" height="247pt"
 viewBox="0.00 0.00 1694.00 247.27" xmlns="http://www.w3.org/2000/svg" xmlns:xlink="http://www.w3.org/1999/xlink">
<g id="graph0" class="graph" transform="scale(1 1) rotate(0) translate(4 243.27)">
<title>local.connection_handler.LocalConnectionHandler.discover_devices</title>
<polygon fill="white" stroke="transparent" points="-4,4 -4,-243.27 1690,-243.27 1690,4 -4,4"/>
<!-- Node1 -->
<g id="node1" class="node">
<title>Node1</title>
<g id="a_node1"><a xlink:title=" ">
<polygon fill="#bfbfbf" stroke="black" points="0,-113 0,-154 179,-154 179,-113 0,-113"/>
<text text-anchor="start" x="8" y="-142" font-family="Helvetica,sans-Serif" font-size="10.00">local.connection_handler.</text>
<text text-anchor="start" x="8" y="-131" font-family="Helvetica,sans-Serif" font-size="10.00">LocalConnectionHandler.discover</text>
<text text-anchor="middle" x="89.5" y="-120" font-family="Helvetica,sans-Serif" font-size="10.00">_devices</text>
</a>
</g>
</g>
<!-- Node2 -->
<g id="node2" class="node">
<title>Node2</title>
<g id="a_node2"><a xlink:href="classdevice__connection__handler_1_1DeviceConnectionHandler.html#a81415e07fb4cf5ea625a8c7d21e834b1" target="_top" xlink:title=" ">
<polygon fill="white" stroke="black" points="215,-173 215,-214 384,-214 384,-173 215,-173"/>
<text text-anchor="start" x="223" y="-202" font-family="Helvetica,sans-Serif" font-size="10.00">device_connection_handler.</text>
<text text-anchor="start" x="223" y="-191" font-family="Helvetica,sans-Serif" font-size="10.00">DeviceConnectionHandler.send</text>
<text text-anchor="middle" x="299.5" y="-180" font-family="Helvetica,sans-Serif" font-size="10.00">_message</text>
</a>
</g>
</g>
<!-- Node1&#45;&gt;Node2 -->
<g id="edge1" class="edge">
<title>Node1&#45;&gt;Node2</title>
<path fill="none" stroke="midnightblue" d="M161.79,-154.06C179.73,-159.24 199.12,-164.83 217.5,-170.14"/>
<polygon fill="midnightblue" stroke="midnightblue" points="216.72,-173.55 227.3,-172.96 218.66,-166.83 216.72,-173.55"/>
</g>
<!-- Node3 -->
<g id="node3" class="node">
<title>Node3</title>
<g id="a_node3"><a xlink:href="classlocal_1_1connection__handler_1_1LocalConnectionHandler.html#aae9d106df606f3c68a146e0af7f60bba" target="_top" xlink:title=" ">
<polygon fill="white" stroke="black" points="219,-113 219,-154 380,-154 380,-113 219,-113"/>
<text text-anchor="start" x="227" y="-142" font-family="Helvetica,sans-Serif" font-size="10.00">local.connection_handler.</text>
<text text-anchor="start" x="227" y="-131" font-family="Helvetica,sans-Serif" font-size="10.00">LocalConnectionHandler.send</text>
<text text-anchor="middle" x="299.5" y="-120" font-family="Helvetica,sans-Serif" font-size="10.00">_message</text>
</a>
</g>
</g>
<!-- Node1&#45;&gt;Node3 -->
<g id="edge2" class="edge">
<title>Node1&#45;&gt;Node3</title>
<path fill="none" stroke="midnightblue" d="M179.01,-133.5C188.86,-133.5 198.9,-133.5 208.76,-133.5"/>
<polygon fill="midnightblue" stroke="midnightblue" points="208.96,-137 218.96,-133.5 208.96,-130 208.96,-137"/>
</g>
<!-- Node9 -->
<g id="node9" class="node">
<title>Node9</title>
<g id="a_node9"><a xlink:href="namespaceklyqa__ctl_1_1general_1_1general.html#a1afe30a73cc28a3b65babeeab27e36c8" target="_top" xlink:title=" ">
<polygon fill="white" stroke="black" points="859,-0.5 859,-30.5 1023,-30.5 1023,-0.5 859,-0.5"/>
<text text-anchor="start" x="867" y="-18.5" font-family="Helvetica,sans-Serif" font-size="10.00">klyqa_ctl.general.general.task</text>
<text text-anchor="middle" x="941" y="-7.5" font-family="Helvetica,sans-Serif" font-size="10.00">_log_debug</text>
</a>
</g>
</g>
<!-- Node1&#45;&gt;Node9 -->
<g id="edge17" class="edge">
<title>Node1&#45;&gt;Node9</title>
<path fill="none" stroke="midnightblue" d="M171.67,-112.99C186.06,-109.62 200.94,-106.32 215,-103.5 396.4,-67.14 442.21,-58.65 626,-37.5 700.7,-28.9 785.8,-23.19 848.55,-19.75"/>
<polygon fill="midnightblue" stroke="midnightblue" points="849.02,-23.23 858.82,-19.19 848.65,-16.24 849.02,-23.23"/>
</g>
<!-- Node4 -->
<g id="node4" class="node">
<title>Node4</title>
<g id="a_node4"><a xlink:href="classlocal_1_1connection__handler_1_1LocalConnectionHandler.html#ae9be93d47c973e3c8afeed1b27fc7a4d" target="_top" xlink:title=" ">
<polygon fill="white" stroke="black" points="420,-143 420,-184 590,-184 590,-143 420,-143"/>
<text text-anchor="start" x="428" y="-172" font-family="Helvetica,sans-Serif" font-size="10.00">local.connection_handler.</text>
<text text-anchor="start" x="428" y="-161" font-family="Helvetica,sans-Serif" font-size="10.00">LocalConnectionHandler.search</text>
<text text-anchor="middle" x="505" y="-150" font-family="Helvetica,sans-Serif" font-size="10.00">_and_send_loop_task_alive</text>
</a>
</g>
</g>
<!-- Node3&#45;&gt;Node4 -->
<g id="edge3" class="edge">
<title>Node3&#45;&gt;Node4</title>
<path fill="none" stroke="midnightblue" d="M380.05,-145.23C389.83,-146.67 399.9,-148.15 409.88,-149.62"/>
<polygon fill="midnightblue" stroke="midnightblue" points="409.4,-153.09 419.8,-151.09 410.42,-146.17 409.4,-153.09"/>
</g>
<!-- Node5 -->
<g id="node5" class="node">
<title>Node5</title>
<g id="a_node5"><a xlink:href="classlocal_1_1connection__handler_1_1LocalConnectionHandler.html#a69a2aabf1a7bc94f925f914df5ceae10" target="_top" xlink:title=" ">
<polygon fill="white" stroke="black" points="424.5,-83 424.5,-124 585.5,-124 585.5,-83 424.5,-83"/>
<text text-anchor="start" x="432.5" y="-112" font-family="Helvetica,sans-Serif" font-size="10.00">local.connection_handler.</text>
<text text-anchor="start" x="432.5" y="-101" font-family="Helvetica,sans-Serif" font-size="10.00">LocalConnectionHandler.send</text>
<text text-anchor="middle" x="505" y="-90" font-family="Helvetica,sans-Serif" font-size="10.00">_udp_broadcast</text>
</a>
</g>
</g>
<!-- Node3&#45;&gt;Node5 -->
<g id="edge4" class="edge">
<title>Node3&#45;&gt;Node5</title>
<path fill="none" stroke="midnightblue" d="M380.05,-121.77C391.26,-120.12 402.85,-118.41 414.23,-116.73"/>
<polygon fill="midnightblue" stroke="midnightblue" points="414.79,-120.19 424.17,-115.27 413.76,-113.26 414.79,-120.19"/>
</g>
<!-- Node13 -->
<g id="node13" class="node">
<title>Node13</title>
<g id="a_node13"><a xlink:href="namespaceklyqa__ctl_1_1general_1_1general.html#ab2f9a22e98cd16d0d284d22382cfcb02" target="_top" xlink:title=" ">
<polygon fill="white" stroke="black" points="1068,-159.5 1068,-189.5 1232,-189.5 1232,-159.5 1068,-159.5"/>
<text text-anchor="start" x="1076" y="-177.5" font-family="Helvetica,sans-Serif" font-size="10.00">klyqa_ctl.general.general.task</text>
<text text-anchor="middle" x="1150" y="-166.5" font-family="Helvetica,sans-Serif" font-size="10.00">_log_trace</text>
</a>
</g>
</g>
<!-- Node3&#45;&gt;Node13 -->
<g id="edge16" class="edge">
<title>Node3&#45;&gt;Node13</title>
<path fill="none" stroke="midnightblue" d="M364.91,-154.03C371.5,-156.9 377.98,-160.06 384,-163.5 402.08,-173.85 400.47,-186.27 420,-193.5 651.16,-279.02 952.33,-223.48 1083.34,-191.97"/>
<polygon fill="midnightblue" stroke="midnightblue" points="1084.35,-195.33 1093.23,-189.56 1082.69,-188.53 1084.35,-195.33"/>
</g>
<!-- Node6 -->
<g id="node6" class="node">
<title>Node6</title>
<g id="a_node6"><a xlink:href="classlocal_1_1connection__handler_1_1LocalConnectionHandler.html#a28f05e11005dfc83e537f9e2e85f54d5" target="_top" xlink:title=" ">
<polygon fill="white" stroke="black" points="626,-88.5 626,-118.5 814,-118.5 814,-88.5 626,-88.5"/>
<text text-anchor="start" x="634" y="-106.5" font-family="Helvetica,sans-Serif" font-size="10.00">local.connection_handler.</text>
<text text-anchor="middle" x="720" y="-95.5" font-family="Helvetica,sans-Serif" font-size="10.00">LocalConnectionHandler.bind_ports</text>
</a>
</g>
</g>
<!-- Node5&#45;&gt;Node6 -->
<g id="edge5" class="edge">
<title>Node5&#45;&gt;Node6</title>
<path fill="none" stroke="midnightblue" d="M585.62,-103.5C595.45,-103.5 605.62,-103.5 615.74,-103.5"/>
<polygon fill="midnightblue" stroke="midnightblue" points="615.84,-107 625.84,-103.5 615.84,-100 615.84,-107"/>
</g>
<!-- Node5&#45;&gt;Node9 -->
<g id="edge14" class="edge">
<title>Node5&#45;&gt;Node9</title>
<path fill="none" stroke="midnightblue" d="M585.7,-86.81C599.15,-84.02 612.97,-81.16 626,-78.5 703.17,-62.72 791.09,-45.11 854.23,-32.53"/>
<polygon fill="midnightblue" stroke="midnightblue" points="855.02,-35.94 864.15,-30.56 853.66,-29.08 855.02,-35.94"/>
</g>
<!-- Node12 -->
<g id="node12" class="node">
<title>Node12</title>
<g id="a_node12"><a xlink:href="namespaceklyqa__ctl_1_1general_1_1general.html#ad6b753e482e539892c57f8144cf213cb" target="_top" xlink:title=" ">
<polygon fill="white" stroke="black" points="859,-159.5 859,-189.5 1023,-189.5 1023,-159.5 859,-159.5"/>
<text text-anchor="start" x="867" y="-177.5" font-family="Helvetica,sans-Serif" font-size="10.00">klyqa_ctl.general.general.task</text>
<text text-anchor="middle" x="941" y="-166.5" font-family="Helvetica,sans-Serif" font-size="10.00">_log_trace_ex</text>
</a>
</g>
</g>
<!-- Node5&#45;&gt;Node12 -->
<g id="edge15" class="edge">
<title>Node5&#45;&gt;Node12</title>
<path fill="none" stroke="midnightblue" d="M585.62,-119.99C599.07,-122.61 612.92,-125.21 626,-127.5 700.71,-140.55 785.82,-153.15 848.56,-162.01"/>
<polygon fill="midnightblue" stroke="midnightblue" points="848.44,-165.53 858.83,-163.46 849.41,-158.6 848.44,-165.53"/>
</g>
<!-- Node7 -->
<g id="node7" class="node">
<title>Node7</title>
<g id="a_node7"><a xlink:href="classlocal_1_1connection__handler_1_1LocalConnectionHandler.html#a159e60e3f78301ef89df33d9adaebbde" target="_top" xlink:title=" ">
<polygon fill="white" stroke="black" points="852.5,-50 852.5,-91 1029.5,-91 1029.5,-50 852.5,-50"/>
<text text-anchor="start" x="860.5" y="-79" font-family="Helvetica,sans-Serif" font-size="10.00">local.connection_handler.</text>
<text text-anchor="start" x="860.5" y="-68" font-family="Helvetica,sans-Serif" font-size="10.00">LocalConnectionHandler.network</text>
<text text-anchor="middle" x="941" y="-57" font-family="Helvetica,sans-Serif" font-size="10.00">_interface</text>
</a>
</g>
</g>
<!-- Node6&#45;&gt;Node7 -->
<g id="edge6" class="edge">
<title>Node6&#45;&gt;Node7</title>
<path fill="none" stroke="midnightblue" d="M814.19,-89.46C823.51,-88.05 832.99,-86.62 842.36,-85.21"/>
<polygon fill="midnightblue" stroke="midnightblue" points="843.09,-88.64 852.46,-83.69 842.05,-81.72 843.09,-88.64"/>
</g>
<!-- Node8 -->
<g id="node8" class="node">
<title>Node8</title>
<g id="a_node8"><a xlink:href="classlocal_1_1connection__handler_1_1LocalConnectionHandler.html#ab8a8460610614f6230bbf346fc532269" target="_top" xlink:title=" ">
<polygon fill="white" stroke="black" points="850,-110.5 850,-140.5 1032,-140.5 1032,-110.5 850,-110.5"/>
<text text-anchor="start" x="858" y="-128.5" font-family="Helvetica,sans-Serif" font-size="10.00">local.connection_handler.</text>
<text text-anchor="middle" x="941" y="-117.5" font-family="Helvetica,sans-Serif" font-size="10.00">LocalConnectionHandler.server_ip</text>
</a>
</g>
</g>
<!-- Node6&#45;&gt;Node8 -->
<g id="edge7" class="edge">
<title>Node6&#45;&gt;Node8</title>
<path fill="none" stroke="midnightblue" d="M814.19,-112.86C822.55,-113.7 831.04,-114.55 839.46,-115.4"/>
<polygon fill="midnightblue" stroke="midnightblue" points="839.38,-118.91 849.68,-116.43 840.08,-111.94 839.38,-118.91"/>
</g>
<!-- Node6&#45;&gt;Node9 -->
<g id="edge8" class="edge">
<title>Node6&#45;&gt;Node9</title>
<path fill="none" stroke="midnightblue" d="M778.65,-88.33C790.73,-84.05 803.1,-78.8 814,-72.5 832.53,-61.79 831.2,-50.74 850,-40.5 854.14,-38.24 858.51,-36.18 862.99,-34.29"/>
<polygon fill="midnightblue" stroke="midnightblue" points="864.27,-37.54 872.32,-30.65 861.73,-31.02 864.27,-37.54"/>
</g>
<!-- Node6&#45;&gt;Node12 -->
<g id="edge11" class="edge">
<title>Node6&#45;&gt;Node12</title>
<path fill="none" stroke="midnightblue" d="M760.84,-118.54C786.21,-127.91 819.85,-139.95 850,-149.5 857.58,-151.9 865.57,-154.3 873.51,-156.61"/>
<polygon fill="midnightblue" stroke="midnightblue" points="872.59,-159.99 883.17,-159.38 874.52,-153.26 872.59,-159.99"/>
</g>
<!-- Node10 -->
<g id="node10" class="node">
<title>Node10</title>
<g id="a_node10"><a xlink:href="namespaceklyqa__ctl_1_1general_1_1general.html#a9df3b50dfc0fcc7c8ec991bb9be9c5ba" target="_top" xlink:title=" ">
<polygon fill="white" stroke="black" points="1268,-86 1268,-105 1453,-105 1453,-86 1268,-86"/>
<text text-anchor="middle" x="1360.5" y="-93" font-family="Helvetica,sans-Serif" font-size="10.00">klyqa_ctl.general.general.task_log</text>
</a>
</g>
</g>
<!-- Node9&#45;&gt;Node10 -->
<g id="edge9" class="edge">
<title>Node9&#45;&gt;Node10</title>
<path fill="none" stroke="midnightblue" d="M1020.53,-30.55C1101.63,-46.09 1226.4,-70 1299.79,-84.06"/>
<polygon fill="midnightblue" stroke="midnightblue" points="1299.32,-87.53 1309.8,-85.98 1300.64,-80.66 1299.32,-87.53"/>
</g>
<!-- Node11 -->
<g id="node11" class="node">
<title>Node11</title>
<g id="a_node11"><a xlink:href="namespaceklyqa__ctl_1_1general_1_1general.html#aea905150cafee39fa2ca211f1e60f012" target="_top" xlink:title=" ">
<polygon fill="white" stroke="black" points="1489,-86 1489,-105 1686,-105 1686,-86 1489,-86"/>
<text text-anchor="middle" x="1587.5" y="-93" font-family="Helvetica,sans-Serif" font-size="10.00">klyqa_ctl.general.general.task_name</text>
</a>
</g>
</g>
<!-- Node10&#45;&gt;Node11 -->
<g id="edge10" class="edge">
<title>Node10&#45;&gt;Node11</title>
<path fill="none" stroke="midnightblue" d="M1453.02,-95.5C1461.5,-95.5 1470.15,-95.5 1478.76,-95.5"/>
<polygon fill="midnightblue" stroke="midnightblue" points="1478.83,-99 1488.83,-95.5 1478.83,-92 1478.83,-99"/>
</g>
<!-- Node12&#45;&gt;Node13 -->
<g id="edge12" class="edge">
<title>Node12&#45;&gt;Node13</title>
<path fill="none" stroke="midnightblue" d="M1023.22,-174.5C1034.52,-174.5 1046.19,-174.5 1057.66,-174.5"/>
<polygon fill="midnightblue" stroke="midnightblue" points="1057.68,-178 1067.68,-174.5 1057.68,-171 1057.68,-178"/>
</g>
<!-- Node13&#45;&gt;Node10 -->
<g id="edge13" class="edge">
<title>Node13&#45;&gt;Node10</title>
<path fill="none" stroke="midnightblue" d="M1190.71,-159.45C1229.54,-144.74 1288.06,-122.57 1325,-108.57"/>
<polygon fill="midnightblue" stroke="midnightblue" points="1326.24,-111.84 1334.35,-105.03 1323.76,-105.3 1326.24,-111.84"/>
</g>
</g>
</svg>
