<?xml version="1.0" encoding="UTF-8" standalone="no"?>
<!DOCTYPE svg PUBLIC "-//W3C//DTD SVG 1.1//EN"
 "http://www.w3.org/Graphics/SVG/1.1/DTD/svg11.dtd">
<!-- Generated by graphviz version 2.43.0 (0)
 -->
<!-- Title: klyqa_ctl.klyqa_ctl.Client.devices Pages: 1 -->
<!--zoomable 472 -->
<svg id="main" version="1.1" xmlns="http://www.w3.org/2000/svg" xmlns:xlink="http://www.w3.org/1999/xlink" xml:space="preserve" onload="init(evt)">
<style type="text/css"><![CDATA[
.edge:hover path { stroke: red; }
.edge:hover polygon { stroke: red; fill: red; }
]]></style>
<script type="text/javascript"><![CDATA[
var edges = document.getElementsByTagName('g');
if (edges && edges.length) {
  for (var i=0;i<edges.length;i++) {
    if (edges[i].id.substr(0,4)=='edge') {
      edges[i].setAttribute('class','edge');
    }
  }
}
]]></script>
        <defs>
                <circle id="rim" cx="0" cy="0" r="7"/>
                <circle id="rim2" cx="0" cy="0" r="3.5"/>
                <g id="zoomPlus">
                        <use xlink:href="#rim" fill="#404040">
                                <set attributeName="fill" to="#808080" begin="zoomplus.mouseover" end="zoomplus.mouseout"/>
                        </use>
                        <path d="M-4,0h8M0,-4v8" fill="none" stroke="white" stroke-width="1.5" pointer-events="none"/>
                </g>
                <g id="zoomMin">
                        <use xlink:href="#rim" fill="#404040">
                                <set attributeName="fill" to="#808080" begin="zoomminus.mouseover" end="zoomminus.mouseout"/>
                        </use>
                        <path d="M-4,0h8" fill="none" stroke="white" stroke-width="1.5" pointer-events="none"/>
                </g>
                <g id="dirArrow">
                        <path fill="none" stroke="white" stroke-width="1.5" d="M0,-3.0v7 M-2.5,-0.5L0,-3.0L2.5,-0.5"/>
                </g>
               <g id="resetDef">
                       <use xlink:href="#rim2" fill="#404040">
                               <set attributeName="fill" to="#808080" begin="reset.mouseover" end="reset.mouseout"/>
                       </use>
               </g>
        </defs>

<script type="text/javascript">
var viewWidth = 1450;
var viewHeight = 472;
var sectionId = 'dynsection-10';
</script>
<script xlink:href="svgpan.js"/>
<svg id="graph" class="graph">
<g id="viewport">
<title>klyqa_ctl.klyqa_ctl.Client.devices</title>
<polygon fill="white" stroke="transparent" points="-4,4 -4,-468 1446,-468 1446,4 -4,4"/>
<!-- Node1 -->
<g id="node1" class="node">
<title>Node1</title>
<g id="a_node1"><a xlink:title=" ">
<polygon fill="#bfbfbf" stroke="black" points="1262,-227.5 1262,-246.5 1442,-246.5 1442,-227.5 1262,-227.5"/>
<text text-anchor="middle" x="1352" y="-234.5" font-family="Helvetica,sans-Serif" font-size="10.00">klyqa_ctl.klyqa_ctl.Client.devices</text>
</a>
</g>
</g>
<!-- Node2 -->
<g id="node2" class="node">
<title>Node2</title>
<g id="a_node2"><a xlink:href="classklyqa__ctl_1_1account__control_1_1AccountControl.html#a5b4b4e18362cea70b456d2ffc78467a3" target="_top" xlink:title=" ">
<polygon fill="white" stroke="black" points="847.5,-405 847.5,-435 991.5,-435 991.5,-405 847.5,-405"/>
<text text-anchor="start" x="855.5" y="-423" font-family="Helvetica,sans-Serif" font-size="10.00">klyqa_ctl.account_control.</text>
<text text-anchor="middle" x="919.5" y="-412" font-family="Helvetica,sans-Serif" font-size="10.00">AccountControl.__init__</text>
</a>
</g>
</g>
<!-- Node1&#45;&gt;Node2 -->
<g id="edge1" class="edge">
<title>Node1&#45;&gt;Node2</title>
<path fill="none" stroke="midnightblue" d="M1332.73,-253.29C1309.43,-273.32 1267.2,-307.22 1226,-328 1150.08,-366.29 1055.37,-391.74 991.7,-405.98"/>
<polygon fill="midnightblue" stroke="midnightblue" points="1335.18,-255.79 1340.42,-246.58 1330.58,-250.51 1335.18,-255.79"/>
</g>
<!-- Node3 -->
<g id="node3" class="node">
<title>Node3</title>
<g id="a_node3"><a xlink:href="classlocal_1_1connection__handler_1_1LocalConnectionHandler.html#a0b582d0bf1523d1d0404867ab921539f" target="_top" xlink:title=" ">
<polygon fill="white" stroke="black" points="206,-235.5 206,-276.5 376,-276.5 376,-235.5 206,-235.5"/>
<text text-anchor="start" x="214" y="-264.5" font-family="Helvetica,sans-Serif" font-size="10.00">local.connection_handler.</text>
<text text-anchor="start" x="214" y="-253.5" font-family="Helvetica,sans-Serif" font-size="10.00">LocalConnectionHandler.device</text>
<text text-anchor="middle" x="291" y="-242.5" font-family="Helvetica,sans-Serif" font-size="10.00">_handle_local_tcp</text>
</a>
</g>
</g>
<!-- Node1&#45;&gt;Node3 -->
<g id="edge2" class="edge">
<title>Node1&#45;&gt;Node3</title>
<path fill="none" stroke="midnightblue" d="M1339.31,-254.88C1319.43,-283.96 1276.25,-341.48 1226,-374 1107.17,-450.9 1062.05,-464 920.5,-464 920.5,-464 920.5,-464 704.5,-464 539.28,-464 372.86,-329.32 314.15,-276.7"/>
<polygon fill="midnightblue" stroke="midnightblue" points="1342.26,-256.77 1344.93,-246.51 1336.45,-252.87 1342.26,-256.77"/>
</g>
<!-- Node5 -->
<g id="node5" class="node">
<title>Node5</title>
<g id="a_node5"><a xlink:href="classklyqa__ctl_1_1klyqa__ctl_1_1Client.html#a584a46b04ebd15efa4f74cdf54bbe75f" target="_top" xlink:title=" ">
<polygon fill="white" stroke="black" points="1046,-203.5 1046,-222.5 1226,-222.5 1226,-203.5 1046,-203.5"/>
<text text-anchor="middle" x="1136" y="-210.5" font-family="Helvetica,sans-Serif" font-size="10.00">klyqa_ctl.klyqa_ctl.Client.devices</text>
</a>
</g>
</g>
<!-- Node1&#45;&gt;Node5 -->
<g id="edge4" class="edge">
<title>Node1&#45;&gt;Node5</title>
<path fill="none" stroke="midnightblue" d="M1256.12,-226.36C1244.69,-225.08 1233.06,-223.77 1221.78,-222.51"/>
<polygon fill="midnightblue" stroke="midnightblue" points="1255.79,-229.84 1266.11,-227.48 1256.57,-222.89 1255.79,-229.84"/>
</g>
<!-- Node6 -->
<g id="node6" class="node">
<title>Node6</title>
<g id="a_node6"><a xlink:href="classklyqa__ctl_1_1controller__data_1_1ControllerData.html#a006615491c01ae305bbf34eb2fc47e09" target="_top" xlink:title=" ">
<polygon fill="white" stroke="black" points="851,-295.5 851,-336.5 988,-336.5 988,-295.5 851,-295.5"/>
<text text-anchor="start" x="859" y="-324.5" font-family="Helvetica,sans-Serif" font-size="10.00">klyqa_ctl.controller</text>
<text text-anchor="start" x="859" y="-313.5" font-family="Helvetica,sans-Serif" font-size="10.00">_data.ControllerData.get</text>
<text text-anchor="middle" x="919.5" y="-302.5" font-family="Helvetica,sans-Serif" font-size="10.00">_or_create_device</text>
</a>
</g>
</g>
<!-- Node1&#45;&gt;Node6 -->
<g id="edge22" class="edge">
<title>Node1&#45;&gt;Node6</title>
<path fill="none" stroke="midnightblue" d="M1289.3,-248.36C1269.13,-252.07 1246.61,-256.22 1226,-260 1144.19,-275.02 1050.06,-292.27 988.15,-303.61"/>
<polygon fill="midnightblue" stroke="midnightblue" points="1290.11,-251.77 1299.31,-246.52 1288.84,-244.89 1290.11,-251.77"/>
</g>
<!-- Node8 -->
<g id="node8" class="node">
<title>Node8</title>
<g id="a_node8"><a xlink:href="classklyqa__ctl_1_1account_1_1Account.html#adad4d644a9bbb3633405dac89e86edd3" target="_top" xlink:title=" ">
<polygon fill="white" stroke="black" points="838,-356 838,-386 1001,-386 1001,-356 838,-356"/>
<text text-anchor="start" x="846" y="-374" font-family="Helvetica,sans-Serif" font-size="10.00">klyqa_ctl.account.Account.get</text>
<text text-anchor="middle" x="919.5" y="-363" font-family="Helvetica,sans-Serif" font-size="10.00">_or_create_device</text>
</a>
</g>
</g>
<!-- Node1&#45;&gt;Node8 -->
<g id="edge23" class="edge">
<title>Node1&#45;&gt;Node8</title>
<path fill="none" stroke="midnightblue" d="M1320.77,-250.9C1295.72,-262.09 1259,-277.76 1226,-289 1144.78,-316.66 1048.89,-341.1 986.51,-355.95"/>
<polygon fill="midnightblue" stroke="midnightblue" points="1322.41,-254 1330.09,-246.7 1319.54,-247.61 1322.41,-254"/>
</g>
<!-- Node9 -->
<g id="node9" class="node">
<title>Node9</title>
<g id="a_node9"><a xlink:href="classklyqa__ctl_1_1account_1_1Account.html#a0b171a600e4342d035ad26c39b384b38" target="_top" xlink:title=" ">
<polygon fill="white" stroke="black" points="834,-159.5 834,-178.5 1005,-178.5 1005,-159.5 834,-159.5"/>
<text text-anchor="middle" x="919.5" y="-166.5" font-family="Helvetica,sans-Serif" font-size="10.00">klyqa_ctl.account.Account.login</text>
</a>
</g>
</g>
<!-- Node1&#45;&gt;Node9 -->
<g id="edge24" class="edge">
<title>Node1&#45;&gt;Node9</title>
<path fill="none" stroke="midnightblue" d="M1319.13,-223.56C1294.24,-213.67 1258.52,-200.81 1226,-194 1152.43,-178.59 1067.04,-172.57 1005.27,-170.28"/>
<polygon fill="midnightblue" stroke="midnightblue" points="1317.86,-226.82 1328.44,-227.32 1320.48,-220.33 1317.86,-226.82"/>
</g>
<!-- Node10 -->
<g id="node10" class="node">
<title>Node10</title>
<g id="a_node10"><a xlink:href="classlocal_1_1connection__handler_1_1LocalConnectionHandler.html#a4ce11db96280d000941a91cb37df2842" target="_top" xlink:title=" ">
<polygon fill="white" stroke="black" points="832,-235.5 832,-276.5 1007,-276.5 1007,-235.5 832,-235.5"/>
<text text-anchor="start" x="840" y="-264.5" font-family="Helvetica,sans-Serif" font-size="10.00">local.connection_handler.</text>
<text text-anchor="start" x="840" y="-253.5" font-family="Helvetica,sans-Serif" font-size="10.00">LocalConnectionHandler.process</text>
<text text-anchor="middle" x="919.5" y="-242.5" font-family="Helvetica,sans-Serif" font-size="10.00">_device_identity_package</text>
</a>
</g>
</g>
<!-- Node1&#45;&gt;Node10 -->
<g id="edge25" class="edge">
<title>Node1&#45;&gt;Node10</title>
<path fill="none" stroke="midnightblue" d="M1251.54,-241.39C1177.59,-244.65 1077.67,-249.06 1007.01,-252.18"/>
<polygon fill="midnightblue" stroke="midnightblue" points="1251.96,-244.87 1261.8,-240.94 1251.66,-237.88 1251.96,-244.87"/>
</g>
<!-- Node13 -->
<g id="node13" class="node">
<title>Node13</title>
<g id="a_node13"><a xlink:href="classklyqa__ctl_1_1klyqa__ctl_1_1Client.html#a40aba5774804e631745f63c3c91ec049" target="_top" xlink:title=" ">
<polygon fill="white" stroke="black" points="833.5,-110 833.5,-140 1005.5,-140 1005.5,-110 833.5,-110"/>
<text text-anchor="start" x="841.5" y="-128" font-family="Helvetica,sans-Serif" font-size="10.00">klyqa_ctl.klyqa_ctl.Client.select</text>
<text text-anchor="middle" x="919.5" y="-117" font-family="Helvetica,sans-Serif" font-size="10.00">_device</text>
</a>
</g>
</g>
<!-- Node1&#45;&gt;Node13 -->
<g id="edge26" class="edge">
<title>Node1&#45;&gt;Node13</title>
<path fill="none" stroke="midnightblue" d="M1329.13,-221.67C1305.04,-205.58 1264.57,-180.87 1226,-168 1153.98,-143.97 1068.05,-133.36 1005.7,-128.69"/>
<polygon fill="midnightblue" stroke="midnightblue" points="1327.29,-224.65 1337.53,-227.37 1331.22,-218.86 1327.29,-224.65"/>
</g>
<!-- Node16 -->
<g id="node16" class="node">
<title>Node16</title>
<g id="a_node16"><a xlink:href="classklyqa__ctl_1_1account_1_1Account.html#a4fb47c923d3a579054e8cc72480906fb" target="_top" xlink:title=" ">
<polygon fill="white" stroke="black" points="829,-61 829,-91 1010,-91 1010,-61 829,-61"/>
<text text-anchor="start" x="837" y="-79" font-family="Helvetica,sans-Serif" font-size="10.00">klyqa_ctl.account.Account.update</text>
<text text-anchor="middle" x="919.5" y="-68" font-family="Helvetica,sans-Serif" font-size="10.00">_device_configs</text>
</a>
</g>
</g>
<!-- Node1&#45;&gt;Node16 -->
<g id="edge27" class="edge">
<title>Node1&#45;&gt;Node16</title>
<path fill="none" stroke="midnightblue" d="M1336.44,-219.49C1314.98,-194.97 1272.37,-150.96 1226,-129 1158.01,-96.81 1073.21,-83.97 1010.21,-78.95"/>
<polygon fill="midnightblue" stroke="midnightblue" points="1333.95,-221.97 1343.11,-227.28 1339.26,-217.41 1333.95,-221.97"/>
</g>
<!-- Node17 -->
<g id="node17" class="node">
<title>Node17</title>
<g id="a_node17"><a xlink:href="classklyqa__ctl_1_1account__control_1_1AccountControl.html#a46d51f33622ad0e952a66d0d1b91eb12" target="_top" xlink:title=" ">
<polygon fill="white" stroke="black" points="837,-0.5 837,-41.5 1002,-41.5 1002,-0.5 837,-0.5"/>
<text text-anchor="start" x="845" y="-29.5" font-family="Helvetica,sans-Serif" font-size="10.00">klyqa_ctl.account_control.</text>
<text text-anchor="start" x="845" y="-18.5" font-family="Helvetica,sans-Serif" font-size="10.00">AccountControl.update_device</text>
<text text-anchor="middle" x="919.5" y="-7.5" font-family="Helvetica,sans-Serif" font-size="10.00">_configs</text>
</a>
</g>
</g>
<!-- Node1&#45;&gt;Node17 -->
<g id="edge28" class="edge">
<title>Node1&#45;&gt;Node17</title>
<path fill="none" stroke="midnightblue" d="M1341.78,-217.94C1324.3,-184.02 1282.94,-113.48 1226,-79 1158,-37.82 1067.16,-24.82 1002.24,-21.21"/>
<polygon fill="midnightblue" stroke="midnightblue" points="1338.82,-219.84 1346.43,-227.21 1345.08,-216.71 1338.82,-219.84"/>
</g>
<!-- Node4 -->
<g id="node4" class="node">
<title>Node4</title>
<g id="a_node4"><a xlink:href="classlocal_1_1connection__handler_1_1LocalConnectionHandler.html#a5e9277acd0b7bfa5a1e74417e0e10d86" target="_top" xlink:title=" ">
<polygon fill="white" stroke="black" points="0,-235.5 0,-276.5 170,-276.5 170,-235.5 0,-235.5"/>
<text text-anchor="start" x="8" y="-264.5" font-family="Helvetica,sans-Serif" font-size="10.00">local.connection_handler.</text>
<text text-anchor="start" x="8" y="-253.5" font-family="Helvetica,sans-Serif" font-size="10.00">LocalConnectionHandler.handle</text>
<text text-anchor="middle" x="85" y="-242.5" font-family="Helvetica,sans-Serif" font-size="10.00">_incoming_tcp_connection</text>
</a>
</g>
</g>
<!-- Node3&#45;&gt;Node4 -->
<g id="edge3" class="edge">
<title>Node3&#45;&gt;Node4</title>
<path fill="none" stroke="midnightblue" d="M195.6,-256C187.15,-256 178.64,-256 170.29,-256"/>
<polygon fill="midnightblue" stroke="midnightblue" points="195.85,-259.5 205.85,-256 195.85,-252.5 195.85,-259.5"/>
</g>
<!-- Node5&#45;&gt;Node2 -->
<g id="edge5" class="edge">
<title>Node5&#45;&gt;Node2</title>
<path fill="none" stroke="midnightblue" d="M1127.44,-232C1111.57,-269.4 1071.11,-352.67 1010,-396 1004.36,-400 998.08,-403.34 991.55,-406.11"/>
<polygon fill="midnightblue" stroke="midnightblue" points="1130.68,-233.32 1131.26,-222.74 1124.21,-230.65 1130.68,-233.32"/>
</g>
<!-- Node5&#45;&gt;Node3 -->
<g id="edge6" class="edge">
<title>Node5&#45;&gt;Node3</title>
<path fill="none" stroke="midnightblue" d="M1035.48,-207.69C895.59,-201.84 633.13,-196.76 412,-226 395.93,-228.13 378.9,-231.61 362.87,-235.46"/>
<polygon fill="midnightblue" stroke="midnightblue" points="1035.61,-211.2 1045.75,-208.13 1035.91,-204.21 1035.61,-211.2"/>
</g>
<!-- Node5&#45;&gt;Node6 -->
<g id="edge7" class="edge">
<title>Node5&#45;&gt;Node6</title>
<path fill="none" stroke="midnightblue" d="M1112.34,-228.15C1087.86,-244.06 1047.34,-269.06 1010,-286 1002.69,-289.32 994.9,-292.47 987.08,-295.39"/>
<polygon fill="midnightblue" stroke="midnightblue" points="1114.45,-230.95 1120.89,-222.54 1110.61,-225.1 1114.45,-230.95"/>
</g>
<!-- Node5&#45;&gt;Node8 -->
<g id="edge9" class="edge">
<title>Node5&#45;&gt;Node8</title>
<path fill="none" stroke="midnightblue" d="M1123.05,-231.02C1103.09,-259.71 1060.14,-315.64 1010,-346 1003.65,-349.84 996.69,-353.11 989.55,-355.89"/>
<polygon fill="midnightblue" stroke="midnightblue" points="1125.97,-232.96 1128.71,-222.73 1120.18,-229.02 1125.97,-232.96"/>
</g>
<!-- Node5&#45;&gt;Node9 -->
<g id="edge11" class="edge">
<title>Node5&#45;&gt;Node9</title>
<path fill="none" stroke="midnightblue" d="M1078.45,-201.4C1043.68,-194.27 999.68,-185.24 966.95,-178.53"/>
<polygon fill="midnightblue" stroke="midnightblue" points="1077.96,-204.87 1088.46,-203.45 1079.36,-198.01 1077.96,-204.87"/>
</g>
<!-- Node5&#45;&gt;Node10 -->
<g id="edge12" class="edge">
<title>Node5&#45;&gt;Node10</title>
<path fill="none" stroke="midnightblue" d="M1077.43,-224.54C1055.87,-228.86 1030.87,-233.87 1007.25,-238.61"/>
<polygon fill="midnightblue" stroke="midnightblue" points="1078.28,-227.94 1087.4,-222.54 1076.9,-221.08 1078.28,-227.94"/>
</g>
<!-- Node5&#45;&gt;Node13 -->
<g id="edge16" class="edge">
<title>Node5&#45;&gt;Node13</title>
<path fill="none" stroke="midnightblue" d="M1109.73,-198.43C1084.95,-184.57 1045.77,-163.86 1010,-150 1000.67,-146.39 990.61,-143.06 980.73,-140.09"/>
<polygon fill="midnightblue" stroke="midnightblue" points="1108.06,-201.5 1118.49,-203.37 1111.5,-195.41 1108.06,-201.5"/>
</g>
<!-- Node5&#45;&gt;Node16 -->
<g id="edge20" class="edge">
<title>Node5&#45;&gt;Node16</title>
<path fill="none" stroke="midnightblue" d="M1120.65,-195.61C1099.16,-170.71 1056.2,-125.15 1010,-100 1003.78,-96.62 997.06,-93.69 990.19,-91.15"/>
<polygon fill="midnightblue" stroke="midnightblue" points="1118.19,-198.12 1127.32,-203.49 1123.53,-193.59 1118.19,-198.12"/>
</g>
<!-- Node5&#45;&gt;Node17 -->
<g id="edge21" class="edge">
<title>Node5&#45;&gt;Node17</title>
<path fill="none" stroke="midnightblue" d="M1125.41,-194.22C1107.35,-160.65 1065.08,-90.2 1010,-51 1005.06,-47.48 999.68,-44.36 994.09,-41.58"/>
<polygon fill="midnightblue" stroke="midnightblue" points="1122.48,-196.16 1130.23,-203.38 1128.67,-192.9 1122.48,-196.16"/>
</g>
<!-- Node7 -->
<g id="node7" class="node">
<title>Node7</title>
<g id="a_node7"><a xlink:href="classklyqa__ctl_1_1account_1_1Account.html#a8e93f6fe918bf32c172447d4ef439d2d" target="_top" xlink:title=" ">
<polygon fill="white" stroke="black" points="620.5,-328 620.5,-358 790.5,-358 790.5,-328 620.5,-328"/>
<text text-anchor="start" x="628.5" y="-346" font-family="Helvetica,sans-Serif" font-size="10.00">klyqa_ctl.account.Account.sync</text>
<text text-anchor="middle" x="705.5" y="-335" font-family="Helvetica,sans-Serif" font-size="10.00">_acc_settings_to_controller</text>
</a>
</g>
</g>
<!-- Node6&#45;&gt;Node7 -->
<g id="edge8" class="edge">
<title>Node6&#45;&gt;Node7</title>
<path fill="none" stroke="midnightblue" d="M840.81,-325.89C824.48,-327.97 807.18,-330.18 790.63,-332.29"/>
<polygon fill="midnightblue" stroke="midnightblue" points="841.36,-329.35 850.84,-324.62 840.48,-322.41 841.36,-329.35"/>
</g>
<!-- Node8&#45;&gt;Node7 -->
<g id="edge10" class="edge">
<title>Node8&#45;&gt;Node7</title>
<path fill="none" stroke="midnightblue" d="M827.52,-358.98C815.24,-357.36 802.7,-355.71 790.55,-354.1"/>
<polygon fill="midnightblue" stroke="midnightblue" points="827.37,-362.49 837.75,-360.33 828.29,-355.56 827.37,-362.49"/>
</g>
<!-- Node11 -->
<g id="node11" class="node">
<title>Node11</title>
<g id="a_node11"><a xlink:href="classlocal_1_1connection__handler_1_1LocalConnectionHandler.html#aaa28266e241c2e30e8acd468fab06fde" target="_top" xlink:title=" ">
<polygon fill="white" stroke="black" points="618,-235.5 618,-276.5 793,-276.5 793,-235.5 618,-235.5"/>
<text text-anchor="start" x="626" y="-264.5" font-family="Helvetica,sans-Serif" font-size="10.00">local.connection_handler.</text>
<text text-anchor="start" x="626" y="-253.5" font-family="Helvetica,sans-Serif" font-size="10.00">LocalConnectionHandler.process</text>
<text text-anchor="middle" x="705.5" y="-242.5" font-family="Helvetica,sans-Serif" font-size="10.00">_tcp_package</text>
</a>
</g>
</g>
<!-- Node10&#45;&gt;Node11 -->
<g id="edge13" class="edge">
<title>Node10&#45;&gt;Node11</title>
<path fill="none" stroke="midnightblue" d="M821.68,-256C812.15,-256 802.52,-256 793.1,-256"/>
<polygon fill="midnightblue" stroke="midnightblue" points="821.97,-259.5 831.97,-256 821.97,-252.5 821.97,-259.5"/>
</g>
<!-- Node12 -->
<g id="node12" class="node">
<title>Node12</title>
<g id="a_node12"><a xlink:href="classlocal_1_1connection__handler_1_1LocalConnectionHandler.html#a900e05554022ee9ecb3ba5621369016d" target="_top" xlink:title=" ">
<polygon fill="white" stroke="black" points="412,-235.5 412,-276.5 582,-276.5 582,-235.5 412,-235.5"/>
<text text-anchor="start" x="420" y="-264.5" font-family="Helvetica,sans-Serif" font-size="10.00">local.connection_handler.</text>
<text text-anchor="start" x="420" y="-253.5" font-family="Helvetica,sans-Serif" font-size="10.00">LocalConnectionHandler.handle</text>
<text text-anchor="middle" x="497" y="-242.5" font-family="Helvetica,sans-Serif" font-size="10.00">_connection</text>
</a>
</g>
</g>
<!-- Node11&#45;&gt;Node12 -->
<g id="edge14" class="edge">
<title>Node11&#45;&gt;Node12</title>
<path fill="none" stroke="midnightblue" d="M607.8,-256C599.23,-256 590.6,-256 582.14,-256"/>
<polygon fill="midnightblue" stroke="midnightblue" points="607.82,-259.5 617.82,-256 607.82,-252.5 607.82,-259.5"/>
</g>
<!-- Node12&#45;&gt;Node3 -->
<g id="edge15" class="edge">
<title>Node12&#45;&gt;Node3</title>
<path fill="none" stroke="midnightblue" d="M401.6,-256C393.15,-256 384.64,-256 376.29,-256"/>
<polygon fill="midnightblue" stroke="midnightblue" points="401.85,-259.5 411.85,-256 401.85,-252.5 401.85,-259.5"/>
</g>
<!-- Node14 -->
<g id="node14" class="node">
<title>Node14</title>
<g id="a_node14"><a xlink:href="classklyqa__ctl_1_1klyqa__ctl_1_1Client.html#ad5c42cd8dd34ed1d6329040e164bfc2e" target="_top" xlink:title=" ">
<polygon fill="white" stroke="black" points="622.5,-110 622.5,-140 788.5,-140 788.5,-110 622.5,-110"/>
<text text-anchor="start" x="630.5" y="-128" font-family="Helvetica,sans-Serif" font-size="10.00">klyqa_ctl.klyqa_ctl.Client.send</text>
<text text-anchor="middle" x="705.5" y="-117" font-family="Helvetica,sans-Serif" font-size="10.00">_to_devices</text>
</a>
</g>
</g>
<!-- Node13&#45;&gt;Node14 -->
<g id="edge17" class="edge">
<title>Node13&#45;&gt;Node14</title>
<path fill="none" stroke="midnightblue" d="M823.4,-125C811.84,-125 800.11,-125 788.77,-125"/>
<polygon fill="midnightblue" stroke="midnightblue" points="823.49,-128.5 833.49,-125 823.49,-121.5 823.49,-128.5"/>
</g>
<!-- Node14&#45;&gt;Node14 -->
<g id="edge18" class="edge">
<title>Node14&#45;&gt;Node14</title>
<path fill="none" stroke="midnightblue" d="M742.46,-150.46C737.87,-155.18 725.55,-158.5 705.5,-158.5 672.59,-158.5 660.51,-149.56 669.25,-140.16"/>
<polygon fill="midnightblue" stroke="midnightblue" points="745.93,-149.89 741.75,-140.16 738.95,-150.38 745.93,-149.89"/>
</g>
<!-- Node15 -->
<g id="node15" class="node">
<title>Node15</title>
<g id="a_node15"><a xlink:href="classklyqa__ctl_1_1klyqa__ctl_1_1Client.html#a7a93bda9f242d678a4208d0962837f11" target="_top" xlink:title=" ">
<polygon fill="white" stroke="black" points="414,-110 414,-140 580,-140 580,-110 414,-110"/>
<text text-anchor="start" x="422" y="-128" font-family="Helvetica,sans-Serif" font-size="10.00">klyqa_ctl.klyqa_ctl.Client.send</text>
<text text-anchor="middle" x="497" y="-117" font-family="Helvetica,sans-Serif" font-size="10.00">_to_devices_wrapped</text>
</a>
</g>
</g>
<!-- Node14&#45;&gt;Node15 -->
<g id="edge19" class="edge">
<title>Node14&#45;&gt;Node15</title>
<path fill="none" stroke="midnightblue" d="M612.16,-125C601.53,-125 590.75,-125 580.26,-125"/>
<polygon fill="midnightblue" stroke="midnightblue" points="612.29,-128.5 622.29,-125 612.29,-121.5 612.29,-128.5"/>
</g>
</g>
</svg>
        <g id="navigator" transform="translate(0 0)" fill="#404254">
                <rect fill="#f2f5e9" fill-opacity="0.5" stroke="#606060" stroke-width=".5" x="0" y="0" width="60" height="60"/>
                <use id="zoomplus" xlink:href="#zoomPlus" x="17" y="9" onmousedown="handleZoom(evt,'in')"/>
                <use id="zoomminus" xlink:href="#zoomMin" x="42" y="9" onmousedown="handleZoom(evt,'out')"/>
                <use id="reset" xlink:href="#resetDef" x="30" y="36" onmousedown="handleReset()"/>
                <g id="arrowUp" xlink:href="#dirArrow" transform="translate(30 24)" onmousedown="handlePan(0,-1)">
                  <use xlink:href="#rim" fill="#404040">
                        <set attributeName="fill" to="#808080" begin="arrowUp.mouseover" end="arrowUp.mouseout"/>
                  </use>
                  <path fill="none" stroke="white" stroke-width="1.5" d="M0,-3.0v7 M-2.5,-0.5L0,-3.0L2.5,-0.5"/>
                </g>
                <g id="arrowRight" xlink:href="#dirArrow" transform="rotate(90) translate(36 -43)" onmousedown="handlePan(1,0)">
                  <use xlink:href="#rim" fill="#404040">
                        <set attributeName="fill" to="#808080" begin="arrowRight.mouseover" end="arrowRight.mouseout"/>
                  </use>
                  <path fill="none" stroke="white" stroke-width="1.5" d="M0,-3.0v7 M-2.5,-0.5L0,-3.0L2.5,-0.5"/>
                </g>
                <g id="arrowDown" xlink:href="#dirArrow" transform="rotate(180) translate(-30 -48)" onmousedown="handlePan(0,1)">
                  <use xlink:href="#rim" fill="#404040">
                        <set attributeName="fill" to="#808080" begin="arrowDown.mouseover" end="arrowDown.mouseout"/>
                  </use>
                  <path fill="none" stroke="white" stroke-width="1.5" d="M0,-3.0v7 M-2.5,-0.5L0,-3.0L2.5,-0.5"/>
                </g>
                <g id="arrowLeft" xlink:href="#dirArrow" transform="rotate(270) translate(-36 17)" onmousedown="handlePan(-1,0)">
                  <use xlink:href="#rim" fill="#404040">
                        <set attributeName="fill" to="#808080" begin="arrowLeft.mouseover" end="arrowLeft.mouseout"/>
                  </use>
                  <path fill="none" stroke="white" stroke-width="1.5" d="M0,-3.0v7 M-2.5,-0.5L0,-3.0L2.5,-0.5"/>
                </g>
        </g>
        <svg viewBox="0 0 15 15" width="100%" height="30px" preserveAspectRatio="xMaxYMin meet">
         <g id="arrow_out" transform="scale(0.3 0.3)">
          <a xlink:href="classklyqa__ctl_1_1klyqa__ctl_1_1Client_ab6e5eda10fb712850c3fb311fd1cd4a0_icgraph_org.svg" target="_base">
           <rect id="button" ry="5" rx="5" y="6" x="6" height="38" width="38"
                fill="#f2f5e9" fill-opacity="0.5" stroke="#606060" stroke-width="1.0"/>
           <path id="arrow"
             d="M 11.500037,31.436501 C 11.940474,20.09759 22.043105,11.32322 32.158766,21.979434 L 37.068811,17.246167 C 37.068811,17.246167 37.088388,32 37.088388,32 L 22.160133,31.978069 C 22.160133,31.978069 26.997745,27.140456 26.997745,27.140456 C 18.528582,18.264221 13.291696,25.230495 11.500037,31.436501 z"
             style="fill:#404040;"/>
          </a>
         </g>
        </svg>
</svg>
