<?xml version="1.0" encoding="UTF-8" standalone="no"?>
<!DOCTYPE svg PUBLIC "-//W3C//DTD SVG 1.1//EN"
 "http://www.w3.org/Graphics/SVG/1.1/DTD/svg11.dtd">
<!-- Generated by graphviz version 2.43.0 (0)
 -->
<!-- Title: klyqa_ctl.klyqa_ctl.Client.accounts Pages: 1 -->
<svg width="622pt" height="96pt"
 viewBox="0.00 0.00 622.00 95.50" xmlns="http://www.w3.org/2000/svg" xmlns:xlink="http://www.w3.org/1999/xlink">
<g id="graph0" class="graph" transform="scale(1 1) rotate(0) translate(4 91.5)">
<title>klyqa_ctl.klyqa_ctl.Client.accounts</title>
<polygon fill="white" stroke="transparent" points="-4,4 -4,-91.5 618,-91.5 618,4 -4,4"/>
<!-- Node1 -->
<g id="node1" class="node">
<title>Node1</title>
<g id="a_node1"><a xlink:title=" ">
<polygon fill="#bfbfbf" stroke="black" points="428,-22.5 428,-41.5 614,-41.5 614,-22.5 428,-22.5"/>
<text text-anchor="middle" x="521" y="-29.5" font-family="Helvetica,sans-Serif" font-size="10.00">klyqa_ctl.klyqa_ctl.Client.accounts</text>
</a>
</g>
</g>
<!-- Node2 -->
<g id="node2" class="node">
<title>Node2</title>
<g id="a_node2"><a xlink:href="classklyqa__ctl_1_1klyqa__ctl_1_1Client.html#ad5c42cd8dd34ed1d6329040e164bfc2e" target="_top" xlink:title=" ">
<polygon fill="white" stroke="black" points="214,-39 214,-69 380,-69 380,-39 214,-39"/>
<text text-anchor="start" x="222" y="-57" font-family="Helvetica,sans-Serif" font-size="10.00">klyqa_ctl.klyqa_ctl.Client.send</text>
<text text-anchor="middle" x="297" y="-46" font-family="Helvetica,sans-Serif" font-size="10.00">_to_devices</text>
</a>
</g>
</g>
<!-- Node1&#45;&gt;Node2 -->
<g id="edge1" class="edge">
<title>Node1&#45;&gt;Node2</title>
<path fill="none" stroke="midnightblue" d="M417.7,-42.14C405.07,-43.39 392.29,-44.66 380.01,-45.87"/>
<polygon fill="midnightblue" stroke="midnightblue" points="418.17,-45.61 427.78,-41.14 417.48,-38.64 418.17,-45.61"/>
</g>
<!-- Node4 -->
<g id="node4" class="node">
<title>Node4</title>
<g id="a_node4"><a xlink:href="classklyqa__ctl_1_1klyqa__ctl_1_1Client.html#ac54c4bdc0dfa3897a09efe3655741bd0" target="_top" xlink:title=" ">
<polygon fill="white" stroke="black" points="202,-0.5 202,-19.5 392,-19.5 392,-0.5 202,-0.5"/>
<text text-anchor="middle" x="297" y="-7.5" font-family="Helvetica,sans-Serif" font-size="10.00">klyqa_ctl.klyqa_ctl.Client.shutdown</text>
</a>
</g>
</g>
<!-- Node1&#45;&gt;Node4 -->
<g id="edge4" class="edge">
<title>Node1&#45;&gt;Node4</title>
<path fill="none" stroke="midnightblue" d="M417.77,-21.87C409.21,-21.02 400.58,-20.17 392.08,-19.32"/>
<polygon fill="midnightblue" stroke="midnightblue" points="417.48,-25.36 427.78,-22.86 418.17,-18.39 417.48,-25.36"/>
</g>
<!-- Node2&#45;&gt;Node2 -->
<g id="edge2" class="edge">
<title>Node2&#45;&gt;Node2</title>
<path fill="none" stroke="midnightblue" d="M335.03,-79.46C330.31,-84.18 317.63,-87.5 297,-87.5 263.14,-87.5 250.71,-78.56 259.71,-69.16"/>
<polygon fill="midnightblue" stroke="midnightblue" points="338.49,-78.89 334.29,-69.16 331.51,-79.38 338.49,-78.89"/>
</g>
<!-- Node3 -->
<g id="node3" class="node">
<title>Node3</title>
<g id="a_node3"><a xlink:href="classklyqa__ctl_1_1klyqa__ctl_1_1Client.html#a7a93bda9f242d678a4208d0962837f11" target="_top" xlink:title=" ">
<polygon fill="white" stroke="black" points="0,-17 0,-47 166,-47 166,-17 0,-17"/>
<text text-anchor="start" x="8" y="-35" font-family="Helvetica,sans-Serif" font-size="10.00">klyqa_ctl.klyqa_ctl.Client.send</text>
<text text-anchor="middle" x="83" y="-24" font-family="Helvetica,sans-Serif" font-size="10.00">_to_devices_wrapped</text>
</a>
</g>
</g>
<!-- Node2&#45;&gt;Node3 -->
<g id="edge3" class="edge">
<title>Node2&#45;&gt;Node3</title>
<path fill="none" stroke="midnightblue" d="M203.78,-44.43C191.28,-43.13 178.53,-41.81 166.22,-40.53"/>
<polygon fill="midnightblue" stroke="midnightblue" points="203.42,-47.91 213.73,-45.46 204.15,-40.95 203.42,-47.91"/>
</g>
<!-- Node4&#45;&gt;Node3 -->
<g id="edge5" class="edge">
<title>Node4&#45;&gt;Node3</title>
<path fill="none" stroke="midnightblue" d="M194.13,-20.57C184.77,-21.54 175.37,-22.52 166.22,-23.47"/>
<polygon fill="midnightblue" stroke="midnightblue" points="194.66,-24.04 204.25,-19.52 193.94,-17.07 194.66,-24.04"/>
</g>
</g>
</svg>
