<?xml version="1.0" encoding="UTF-8" standalone="no"?>
<!DOCTYPE svg PUBLIC "-//W3C//DTD SVG 1.1//EN"
 "http://www.w3.org/Graphics/SVG/1.1/DTD/svg11.dtd">
<!-- Generated by graphviz version 2.43.0 (0)
 -->
<!-- Title: klyqa_ctl.account.CLOUD_DEVICE_TARGETS Pages: 1 -->
<svg width="175pt" height="193pt"
 viewBox="0.00 0.00 175.00 193.00" xmlns="http://www.w3.org/2000/svg" xmlns:xlink="http://www.w3.org/1999/xlink">
<g id="graph0" class="graph" transform="scale(1 1) rotate(0) translate(4 189)">
<title>klyqa_ctl.account.CLOUD_DEVICE_TARGETS</title>
<polygon fill="white" stroke="transparent" points="-4,4 -4,-189 171,-189 171,4 -4,4"/>
<!-- Node1 -->
<g id="node1" class="node">
<title>Node1</title>
<g id="a_node1"><a xlink:title=" ">
<polygon fill="#bfbfbf" stroke="black" points="0,-0.5 0,-68.5 140,-68.5 140,-0.5 0,-0.5"/>
<text text-anchor="start" x="8" y="-56.5" font-family="Helvetica,sans-Serif" font-size="10.00">klyqa_ctl.account.CLOUD</text>
<text text-anchor="middle" x="70" y="-45.5" font-family="Helvetica,sans-Serif" font-size="10.00">_DEVICE_TARGETS</text>
<polyline fill="none" stroke="black" points="0,-38.5 140,-38.5 "/>
<text text-anchor="middle" x="70" y="-26.5" font-family="Helvetica,sans-Serif" font-size="10.00"> </text>
<polyline fill="none" stroke="black" points="0,-19.5 140,-19.5 "/>
<text text-anchor="middle" x="70" y="-7.5" font-family="Helvetica,sans-Serif" font-size="10.00"> </text>
</a>
</g>
</g>
<!-- Node2 -->
<g id="node2" class="node">
<title>Node2</title>
<g id="a_node2"><a xlink:href="classstr.html" target="_top" xlink:title=" ">
<polygon fill="white" stroke="black" points="0.5,-127.5 0.5,-184.5 29.5,-184.5 29.5,-127.5 0.5,-127.5"/>
<text text-anchor="middle" x="15" y="-172.5" font-family="Helvetica,sans-Serif" font-size="10.00">str</text>
<polyline fill="none" stroke="black" points="0.5,-165.5 29.5,-165.5 "/>
<text text-anchor="middle" x="15" y="-153.5" font-family="Helvetica,sans-Serif" font-size="10.00"> </text>
<polyline fill="none" stroke="black" points="0.5,-146.5 29.5,-146.5 "/>
<text text-anchor="middle" x="15" y="-134.5" font-family="Helvetica,sans-Serif" font-size="10.00"> </text>
</a>
</g>
</g>
<!-- Node2&#45;&gt;Node1 -->
<g id="edge1" class="edge">
<title>Node2&#45;&gt;Node1</title>
<path fill="none" stroke="midnightblue" d="M32.1,-117.84C39.35,-102.09 47.74,-83.87 54.77,-68.59"/>
<polygon fill="none" stroke="midnightblue" points="28.76,-116.74 27.76,-127.28 35.12,-119.66 28.76,-116.74"/>
</g>
<!-- Node3 -->
<g id="node3" class="node">
<title>Node3</title>
<g id="a_node3"><a xlink:title=" ">
<polygon fill="white" stroke="#bfbfbf" points="48,-127.5 48,-184.5 92,-184.5 92,-127.5 48,-127.5"/>
<text text-anchor="middle" x="70" y="-172.5" font-family="Helvetica,sans-Serif" font-size="10.00">Enum</text>
<polyline fill="none" stroke="#bfbfbf" points="48,-165.5 92,-165.5 "/>
<text text-anchor="middle" x="70" y="-153.5" font-family="Helvetica,sans-Serif" font-size="10.00"> </text>
<polyline fill="none" stroke="#bfbfbf" points="48,-146.5 92,-146.5 "/>
<text text-anchor="middle" x="70" y="-134.5" font-family="Helvetica,sans-Serif" font-size="10.00"> </text>
</a>
</g>
</g>
<!-- Node3&#45;&gt;Node1 -->
<g id="edge2" class="edge">
<title>Node3&#45;&gt;Node1</title>
<path fill="none" stroke="midnightblue" d="M70,-116.95C70,-101.4 70,-83.58 70,-68.59"/>
<polygon fill="none" stroke="midnightblue" points="66.5,-117.28 70,-127.28 73.5,-117.28 66.5,-117.28"/>
</g>
<!-- Node4 -->
<g id="node4" class="node">
<title>Node4</title>
<g id="a_node4"><a xlink:title=" ">
<polygon fill="white" stroke="#bfbfbf" points="110,-127.5 110,-184.5 154,-184.5 154,-127.5 110,-127.5"/>
<text text-anchor="middle" x="132" y="-172.5" font-family="Helvetica,sans-Serif" font-size="10.00">string</text>
<polyline fill="none" stroke="#bfbfbf" points="110,-165.5 154,-165.5 "/>
<text text-anchor="middle" x="132" y="-153.5" font-family="Helvetica,sans-Serif" font-size="10.00"> </text>
<polyline fill="none" stroke="#bfbfbf" points="110,-146.5 154,-146.5 "/>
<text text-anchor="middle" x="132" y="-134.5" font-family="Helvetica,sans-Serif" font-size="10.00"> </text>
</a>
</g>
</g>
<!-- Node4&#45;&gt;Node1 -->
<g id="edge3" class="edge">
<title>Node4&#45;&gt;Node1</title>
<path fill="none" stroke="#404040" d="M117.62,-127.28C110.24,-113.05 101.07,-95.38 92.76,-79.36"/>
<polygon fill="none" stroke="#404040" points="92.69,-79.24 86.38,-75.76 87.17,-68.59 93.48,-72.07 92.69,-79.24"/>
<text text-anchor="middle" x="136.5" y="-101" font-family="Helvetica,sans-Serif" font-size="10.00"> +command</text>
<text text-anchor="middle" x="136.5" y="-90" font-family="Helvetica,sans-Serif" font-size="10.00">+state</text>
</g>
</g>
</svg>
