<?xml version="1.0" encoding="UTF-8" standalone="no"?>
<!DOCTYPE svg PUBLIC "-//W3C//DTD SVG 1.1//EN"
 "http://www.w3.org/Graphics/SVG/1.1/DTD/svg11.dtd">
<!-- Generated by graphviz version 2.43.0 (0)
 -->
<!-- Title: klyqa_ctl.devices.device.Device.u_id Pages: 1 -->
<svg width="676pt" height="98pt"
 viewBox="0.00 0.00 676.00 98.00" xmlns="http://www.w3.org/2000/svg" xmlns:xlink="http://www.w3.org/1999/xlink">
<g id="graph0" class="graph" transform="scale(1 1) rotate(0) translate(4 94)">
<title>klyqa_ctl.devices.device.Device.u_id</title>
<polygon fill="white" stroke="transparent" points="-4,4 -4,-94 672,-94 672,4 -4,4"/>
<!-- Node1 -->
<g id="node1" class="node">
<title>Node1</title>
<g id="a_node1"><a xlink:title=" ">
<polygon fill="#bfbfbf" stroke="black" points="528,-25.5 528,-55.5 668,-55.5 668,-25.5 528,-25.5"/>
<text text-anchor="start" x="536" y="-43.5" font-family="Helvetica,sans-Serif" font-size="10.00">klyqa_ctl.devices.device.</text>
<text text-anchor="middle" x="598" y="-32.5" font-family="Helvetica,sans-Serif" font-size="10.00">Device.u_id</text>
</a>
</g>
</g>
<!-- Node2 -->
<g id="node2" class="node">
<title>Node2</title>
<g id="a_node2"><a xlink:href="classklyqa__ctl_1_1devices_1_1device_1_1Device.html#a7230c178c35cdd93a7242b150008b822" target="_top" xlink:title=" ">
<polygon fill="white" stroke="black" points="176,-59.5 176,-89.5 316,-89.5 316,-59.5 176,-59.5"/>
<text text-anchor="start" x="184" y="-77.5" font-family="Helvetica,sans-Serif" font-size="10.00">klyqa_ctl.devices.device.</text>
<text text-anchor="middle" x="246" y="-66.5" font-family="Helvetica,sans-Serif" font-size="10.00">Device.get_name</text>
</a>
</g>
</g>
<!-- Node1&#45;&gt;Node2 -->
<g id="edge1" class="edge">
<title>Node1&#45;&gt;Node2</title>
<path fill="none" stroke="midnightblue" d="M532.81,-57.9C519.41,-60.93 505.32,-63.69 492,-65.5 433.06,-73.52 365.46,-75.47 316.22,-75.58"/>
<polygon fill="midnightblue" stroke="midnightblue" points="533.95,-61.22 542.89,-55.53 532.35,-54.41 533.95,-61.22"/>
</g>
<!-- Node3 -->
<g id="node3" class="node">
<title>Node3</title>
<g id="a_node3"><a xlink:href="classklyqa__ctl_1_1devices_1_1device_1_1Device.html#ad36a9e20a1af6d562671110c85edf319" target="_top" xlink:title=" ">
<polygon fill="white" stroke="black" points="176,-0.5 176,-30.5 316,-30.5 316,-0.5 176,-0.5"/>
<text text-anchor="start" x="184" y="-18.5" font-family="Helvetica,sans-Serif" font-size="10.00">klyqa_ctl.devices.device.</text>
<text text-anchor="middle" x="246" y="-7.5" font-family="Helvetica,sans-Serif" font-size="10.00">Device.send_msg</text>
</a>
</g>
</g>
<!-- Node1&#45;&gt;Node3 -->
<g id="edge2" class="edge">
<title>Node1&#45;&gt;Node3</title>
<path fill="none" stroke="midnightblue" d="M534.6,-23.12C520.69,-19.95 505.93,-17.14 492,-15.5 432.96,-8.57 365.37,-9.2 316.16,-11.21"/>
<polygon fill="midnightblue" stroke="midnightblue" points="534.02,-26.58 544.55,-25.47 535.63,-19.76 534.02,-26.58"/>
</g>
<!-- Node5 -->
<g id="node5" class="node">
<title>Node5</title>
<g id="a_node5"><a xlink:href="classklyqa__ctl_1_1devices_1_1device_1_1Device.html#a285db910c65644677d9e67687b687386" target="_top" xlink:title=" ">
<polygon fill="white" stroke="black" points="352,-25.5 352,-55.5 492,-55.5 492,-25.5 352,-25.5"/>
<text text-anchor="start" x="360" y="-43.5" font-family="Helvetica,sans-Serif" font-size="10.00">klyqa_ctl.devices.device.</text>
<text text-anchor="middle" x="422" y="-32.5" font-family="Helvetica,sans-Serif" font-size="10.00">Device.u_id</text>
</a>
</g>
</g>
<!-- Node1&#45;&gt;Node5 -->
<g id="edge4" class="edge">
<title>Node1&#45;&gt;Node5</title>
<path fill="none" stroke="midnightblue" d="M517.97,-40.5C509.38,-40.5 500.68,-40.5 492.22,-40.5"/>
<polygon fill="midnightblue" stroke="midnightblue" points="517.98,-44 527.98,-40.5 517.98,-37 517.98,-44"/>
</g>
<!-- Node4 -->
<g id="node4" class="node">
<title>Node4</title>
<g id="a_node4"><a xlink:href="classklyqa__ctl_1_1devices_1_1device_1_1Device.html#ae1cc52edd0ae4a6c870314953abde498" target="_top" xlink:title=" ">
<polygon fill="white" stroke="black" points="0,-0.5 0,-30.5 140,-30.5 140,-0.5 0,-0.5"/>
<text text-anchor="start" x="8" y="-18.5" font-family="Helvetica,sans-Serif" font-size="10.00">klyqa_ctl.devices.device.</text>
<text text-anchor="middle" x="70" y="-7.5" font-family="Helvetica,sans-Serif" font-size="10.00">Device.send_msg_local</text>
</a>
</g>
</g>
<!-- Node3&#45;&gt;Node4 -->
<g id="edge3" class="edge">
<title>Node3&#45;&gt;Node4</title>
<path fill="none" stroke="midnightblue" d="M165.97,-15.5C157.38,-15.5 148.68,-15.5 140.22,-15.5"/>
<polygon fill="midnightblue" stroke="midnightblue" points="165.98,-19 175.98,-15.5 165.98,-12 165.98,-19"/>
</g>
<!-- Node5&#45;&gt;Node2 -->
<g id="edge5" class="edge">
<title>Node5&#45;&gt;Node2</title>
<path fill="none" stroke="midnightblue" d="M341.97,-55.94C333.38,-57.62 324.68,-59.32 316.22,-60.97"/>
<polygon fill="midnightblue" stroke="midnightblue" points="342.84,-59.34 351.98,-53.99 341.5,-52.47 342.84,-59.34"/>
</g>
<!-- Node5&#45;&gt;Node3 -->
<g id="edge6" class="edge">
<title>Node5&#45;&gt;Node3</title>
<path fill="none" stroke="midnightblue" d="M341.97,-29.14C333.38,-27.91 324.68,-26.66 316.22,-25.45"/>
<polygon fill="midnightblue" stroke="midnightblue" points="341.58,-32.63 351.98,-30.58 342.58,-25.7 341.58,-32.63"/>
</g>
</g>
</svg>
