<?xml version="1.0" encoding="UTF-8" standalone="no"?>
<!DOCTYPE svg PUBLIC "-//W3C//DTD SVG 1.1//EN"
 "http://www.w3.org/Graphics/SVG/1.1/DTD/svg11.dtd">
<!-- Generated by graphviz version 2.43.0 (0)
 -->
<!-- Title: klyqa_ctl.devices.device.Device.cloud Pages: 1 -->
<svg width="1251pt" height="522pt"
 viewBox="0.00 0.00 1251.00 522.40" xmlns="http://www.w3.org/2000/svg" xmlns:xlink="http://www.w3.org/1999/xlink">
<g id="graph0" class="graph" transform="scale(1 1) rotate(0) translate(4 518.4)">
<title>klyqa_ctl.devices.device.Device.cloud</title>
<polygon fill="white" stroke="transparent" points="-4,4 -4,-518.4 1247,-518.4 1247,4 -4,4"/>
<!-- Node1 -->
<g id="node1" class="node">
<title>Node1</title>
<g id="a_node1"><a xlink:title=" ">
<polygon fill="#bfbfbf" stroke="black" points="1103,-236 1103,-266 1243,-266 1243,-236 1103,-236"/>
<text text-anchor="start" x="1111" y="-254" font-family="Helvetica,sans-Serif" font-size="10.00">klyqa_ctl.devices.device.</text>
<text text-anchor="middle" x="1173" y="-243" font-family="Helvetica,sans-Serif" font-size="10.00">Device.cloud</text>
</a>
</g>
</g>
<!-- Node2 -->
<g id="node2" class="node">
<title>Node2</title>
<g id="a_node2"><a xlink:href="classklyqa__ctl_1_1account_1_1Account.html#a19bd2d6d0ae6a4e738c4d40453557606" target="_top" xlink:title=" ">
<polygon fill="white" stroke="black" points="649,-196 649,-226 837,-226 837,-196 649,-196"/>
<text text-anchor="start" x="657" y="-214" font-family="Helvetica,sans-Serif" font-size="10.00">klyqa_ctl.account.Account.backend</text>
<text text-anchor="middle" x="743" y="-203" font-family="Helvetica,sans-Serif" font-size="10.00">_connected</text>
</a>
</g>
</g>
<!-- Node1&#45;&gt;Node2 -->
<g id="edge1" class="edge">
<title>Node1&#45;&gt;Node2</title>
<path fill="none" stroke="midnightblue" d="M1092.73,-239.98C1084.05,-238.91 1075.35,-237.89 1067,-237 989.66,-228.74 901.66,-221.82 837.06,-217.2"/>
<polygon fill="midnightblue" stroke="midnightblue" points="1092.51,-243.48 1102.87,-241.26 1093.39,-236.54 1092.51,-243.48"/>
</g>
<!-- Node3 -->
<g id="node3" class="node">
<title>Node3</title>
<g id="a_node3"><a xlink:href="classklyqa__ctl_1_1account_1_1Account.html#aa78870d05cc7fa5899d61733d124e885" target="_top" xlink:title=" ">
<polygon fill="white" stroke="black" points="210.5,-209 210.5,-239 389.5,-239 389.5,-209 210.5,-209"/>
<text text-anchor="start" x="218.5" y="-227" font-family="Helvetica,sans-Serif" font-size="10.00">klyqa_ctl.account.Account.device</text>
<text text-anchor="middle" x="300" y="-216" font-family="Helvetica,sans-Serif" font-size="10.00">_request_and_print</text>
</a>
</g>
</g>
<!-- Node1&#45;&gt;Node3 -->
<g id="edge4" class="edge">
<title>Node1&#45;&gt;Node3</title>
<path fill="none" stroke="midnightblue" d="M1124.57,-232.38C1106.76,-226.02 1086.18,-219.4 1067,-215 790.63,-151.54 710.96,-179.84 429,-210 416.33,-211.36 402.96,-212.8 389.82,-214.23"/>
<polygon fill="midnightblue" stroke="midnightblue" points="1123.56,-235.74 1134.16,-235.88 1125.96,-229.17 1123.56,-235.74"/>
</g>
<!-- Node4 -->
<g id="node4" class="node">
<title>Node4</title>
<g id="a_node4"><a xlink:href="classklyqa__ctl_1_1account_1_1Account.html#a0b171a600e4342d035ad26c39b384b38" target="_top" xlink:title=" ">
<polygon fill="white" stroke="black" points="0,-459.5 0,-478.5 171,-478.5 171,-459.5 0,-459.5"/>
<text text-anchor="middle" x="85.5" y="-466.5" font-family="Helvetica,sans-Serif" font-size="10.00">klyqa_ctl.account.Account.login</text>
</a>
</g>
</g>
<!-- Node1&#45;&gt;Node4 -->
<g id="edge14" class="edge">
<title>Node1&#45;&gt;Node4</title>
<path fill="none" stroke="midnightblue" d="M1165.53,-276.08C1153.49,-317.46 1123.58,-399.67 1067,-442 949.3,-530.04 890.98,-513 744,-513 744,-513 744,-513 520,-513 380.63,-513 345.14,-512.43 207,-494 179.47,-490.33 148.82,-483.94 125.33,-478.54"/>
<polygon fill="midnightblue" stroke="midnightblue" points="1168.95,-276.83 1168.27,-266.25 1162.21,-274.94 1168.95,-276.83"/>
</g>
<!-- Node5 -->
<g id="node5" class="node">
<title>Node5</title>
<g id="a_node5"><a xlink:href="classklyqa__ctl_1_1account_1_1Account.html#ad608e3ee0ba1199f509e644a11081724" target="_top" xlink:title=" ">
<polygon fill="white" stroke="black" points="888.5,-280 888.5,-310 1051.5,-310 1051.5,-280 888.5,-280"/>
<text text-anchor="start" x="896.5" y="-298" font-family="Helvetica,sans-Serif" font-size="10.00">klyqa_ctl.account.Account.get</text>
<text text-anchor="middle" x="970" y="-287" font-family="Helvetica,sans-Serif" font-size="10.00">_beared_request_header</text>
</a>
</g>
</g>
<!-- Node1&#45;&gt;Node5 -->
<g id="edge5" class="edge">
<title>Node1&#45;&gt;Node5</title>
<path fill="none" stroke="midnightblue" d="M1093.61,-268.16C1075.8,-272.06 1057.01,-276.17 1039.64,-279.97"/>
<polygon fill="midnightblue" stroke="midnightblue" points="1094.37,-271.58 1103.39,-266.02 1092.87,-264.74 1094.37,-271.58"/>
</g>
<!-- Node6 -->
<g id="node6" class="node">
<title>Node6</title>
<g id="a_node6"><a xlink:href="classklyqa__ctl_1_1account_1_1Account.html#a73506bd234f8e819e138c2bd663179b8" target="_top" xlink:title=" ">
<polygon fill="white" stroke="black" points="651,-280 651,-310 835,-310 835,-280 651,-280"/>
<text text-anchor="start" x="659" y="-298" font-family="Helvetica,sans-Serif" font-size="10.00">klyqa_ctl.account.Account.request</text>
<text text-anchor="middle" x="743" y="-287" font-family="Helvetica,sans-Serif" font-size="10.00">_beared</text>
</a>
</g>
</g>
<!-- Node1&#45;&gt;Node6 -->
<g id="edge18" class="edge">
<title>Node1&#45;&gt;Node6</title>
<path fill="none" stroke="midnightblue" d="M1092.67,-253.77C1032.27,-256.5 947.17,-261.65 873,-271 854.58,-273.32 834.81,-276.6 816.43,-279.98"/>
<polygon fill="midnightblue" stroke="midnightblue" points="1093.06,-257.26 1102.9,-253.32 1092.76,-250.27 1093.06,-257.26"/>
</g>
<!-- Node10 -->
<g id="node10" class="node">
<title>Node10</title>
<g id="a_node10"><a xlink:href="classklyqa__ctl_1_1account_1_1Account.html#af101070a97d556e95978748475933f72" target="_top" xlink:title=" ">
<polygon fill="white" stroke="black" points="430.5,-378 430.5,-408 611.5,-408 611.5,-378 430.5,-378"/>
<text text-anchor="start" x="438.5" y="-396" font-family="Helvetica,sans-Serif" font-size="10.00">klyqa_ctl.account.Account.update</text>
<text text-anchor="middle" x="521" y="-385" font-family="Helvetica,sans-Serif" font-size="10.00">_account_settings</text>
</a>
</g>
</g>
<!-- Node1&#45;&gt;Node10 -->
<g id="edge25" class="edge">
<title>Node1&#45;&gt;Node10</title>
<path fill="none" stroke="midnightblue" d="M1146.35,-272.63C1126.13,-288.45 1096.5,-308.99 1067,-320 914.07,-377.09 722.27,-390.48 611.77,-393.08"/>
<polygon fill="midnightblue" stroke="midnightblue" points="1148.79,-275.17 1154.41,-266.19 1144.42,-269.7 1148.79,-275.17"/>
</g>
<!-- Node11 -->
<g id="node11" class="node">
<title>Node11</title>
<g id="a_node11"><a xlink:href="classklyqa__ctl_1_1account_1_1Account.html#aeca1011f6c6e2f6bcdb2136ef48bc7fd" target="_top" xlink:title=" ">
<polygon fill="white" stroke="black" points="208,-392 208,-422 392,-422 392,-392 208,-392"/>
<text text-anchor="start" x="216" y="-410" font-family="Helvetica,sans-Serif" font-size="10.00">klyqa_ctl.account.Account.request</text>
<text text-anchor="middle" x="300" y="-399" font-family="Helvetica,sans-Serif" font-size="10.00">_account_settings_eco</text>
</a>
</g>
</g>
<!-- Node1&#45;&gt;Node11 -->
<g id="edge17" class="edge">
<title>Node1&#45;&gt;Node11</title>
<path fill="none" stroke="midnightblue" d="M1155.91,-274.57C1137.49,-299.55 1104.93,-338.08 1067,-358 841.65,-476.33 526.17,-445.36 380.49,-422.01"/>
<polygon fill="midnightblue" stroke="midnightblue" points="1158.82,-276.51 1161.82,-266.35 1153.14,-272.42 1158.82,-276.51"/>
</g>
<!-- Node13 -->
<g id="node13" class="node">
<title>Node13</title>
<g id="a_node13"><a xlink:href="classklyqa__ctl_1_1account_1_1Account.html#acbc09f2b1b4cb6b7ed771b96ea79613b" target="_top" xlink:title=" ">
<polygon fill="white" stroke="black" points="207,-454 207,-484 393,-484 393,-454 207,-454"/>
<text text-anchor="start" x="215" y="-472" font-family="Helvetica,sans-Serif" font-size="10.00">klyqa_ctl.account.Account.perform</text>
<text text-anchor="middle" x="300" y="-461" font-family="Helvetica,sans-Serif" font-size="10.00">_login</text>
</a>
</g>
</g>
<!-- Node1&#45;&gt;Node13 -->
<g id="edge15" class="edge">
<title>Node1&#45;&gt;Node13</title>
<path fill="none" stroke="midnightblue" d="M1162.04,-275.71C1146.89,-310.01 1114.67,-371.36 1067,-403 958.78,-474.84 572.37,-475.59 393.31,-471.83"/>
<polygon fill="midnightblue" stroke="midnightblue" points="1165.31,-276.98 1166.03,-266.41 1158.88,-274.22 1165.31,-276.98"/>
</g>
<!-- Node14 -->
<g id="node14" class="node">
<title>Node14</title>
<g id="a_node14"><a xlink:href="classklyqa__ctl_1_1account_1_1Account.html#a6f7d45c2ee71e0c761145bea5084dda6" target="_top" xlink:title=" ">
<polygon fill="white" stroke="black" points="878,-106 878,-136 1062,-136 1062,-106 878,-106"/>
<text text-anchor="start" x="886" y="-124" font-family="Helvetica,sans-Serif" font-size="10.00">klyqa_ctl.account.Account.request</text>
<text text-anchor="middle" x="970" y="-113" font-family="Helvetica,sans-Serif" font-size="10.00">_device_configs_from_acc_sets</text>
</a>
</g>
</g>
<!-- Node1&#45;&gt;Node14 -->
<g id="edge19" class="edge">
<title>Node1&#45;&gt;Node14</title>
<path fill="none" stroke="midnightblue" d="M1153.53,-228.11C1134.18,-205.52 1101.78,-171.47 1067,-151 1056.77,-144.98 1045.2,-140.04 1033.72,-136.03"/>
<polygon fill="midnightblue" stroke="midnightblue" points="1150.94,-230.47 1160.06,-235.87 1156.3,-225.96 1150.94,-230.47"/>
</g>
<!-- Node16 -->
<g id="node16" class="node">
<title>Node16</title>
<g id="a_node16"><a xlink:href="classklyqa__ctl_1_1klyqa__ctl_1_1Client.html#ad5c42cd8dd34ed1d6329040e164bfc2e" target="_top" xlink:title=" ">
<polygon fill="white" stroke="black" points="887,-39 887,-69 1053,-69 1053,-39 887,-39"/>
<text text-anchor="start" x="895" y="-57" font-family="Helvetica,sans-Serif" font-size="10.00">klyqa_ctl.klyqa_ctl.Client.send</text>
<text text-anchor="middle" x="970" y="-46" font-family="Helvetica,sans-Serif" font-size="10.00">_to_devices</text>
</a>
</g>
</g>
<!-- Node1&#45;&gt;Node16 -->
<g id="edge21" class="edge">
<title>Node1&#45;&gt;Node16</title>
<path fill="none" stroke="midnightblue" d="M1160.64,-226.4C1144.2,-193.11 1110.86,-133.7 1067,-97 1052.85,-85.16 1034.93,-75.97 1018.4,-69.18"/>
<polygon fill="midnightblue" stroke="midnightblue" points="1157.7,-228.35 1165.2,-235.83 1164,-225.31 1157.7,-228.35"/>
</g>
<!-- Node18 -->
<g id="node18" class="node">
<title>Node18</title>
<g id="a_node18"><a xlink:href="classklyqa__ctl_1_1account_1_1Account.html#af0e05ae15ad46c4b1b3bbb69b6bb7151" target="_top" xlink:title=" ">
<polygon fill="white" stroke="black" points="873,-0.5 873,-19.5 1067,-19.5 1067,-0.5 873,-0.5"/>
<text text-anchor="middle" x="970" y="-7.5" font-family="Helvetica,sans-Serif" font-size="10.00">klyqa_ctl.account.Account.shutdown</text>
</a>
</g>
</g>
<!-- Node1&#45;&gt;Node18 -->
<g id="edge24" class="edge">
<title>Node1&#45;&gt;Node18</title>
<path fill="none" stroke="midnightblue" d="M1167.77,-226.12C1158.48,-179.57 1131.73,-79.46 1067,-29 1062.18,-25.24 1056.81,-22.16 1051.15,-19.65"/>
<polygon fill="midnightblue" stroke="midnightblue" points="1164.34,-226.8 1169.63,-235.97 1171.22,-225.5 1164.34,-226.8"/>
</g>
<!-- Node2&#45;&gt;Node3 -->
<g id="edge2" class="edge">
<title>Node2&#45;&gt;Node3</title>
<path fill="none" stroke="midnightblue" d="M638.72,-214.04C563.1,-216.27 461.55,-219.27 389.61,-221.39"/>
<polygon fill="midnightblue" stroke="midnightblue" points="638.85,-217.54 648.74,-213.75 638.65,-210.55 638.85,-217.54"/>
</g>
<!-- Node3&#45;&gt;Node4 -->
<g id="edge3" class="edge">
<title>Node3&#45;&gt;Node4</title>
<path fill="none" stroke="midnightblue" d="M276.54,-246.35C257.57,-265.49 229.9,-294 207,-320 162.14,-370.93 112.26,-435.31 93.84,-459.36"/>
<polygon fill="midnightblue" stroke="midnightblue" points="279.04,-248.81 283.61,-239.25 274.07,-243.87 279.04,-248.81"/>
</g>
<!-- Node5&#45;&gt;Node6 -->
<g id="edge6" class="edge">
<title>Node5&#45;&gt;Node6</title>
<path fill="none" stroke="midnightblue" d="M878.17,-295C863.98,-295 849.32,-295 835.12,-295"/>
<polygon fill="midnightblue" stroke="midnightblue" points="878.41,-298.5 888.41,-295 878.41,-291.5 878.41,-298.5"/>
</g>
<!-- Node7 -->
<g id="node7" class="node">
<title>Node7</title>
<g id="a_node7"><a xlink:href="classklyqa__ctl_1_1account_1_1Account.html#a748c13aed7b2a5c9c605c81234633cb8" target="_top" xlink:title=" ">
<polygon fill="white" stroke="black" points="434.5,-329 434.5,-359 607.5,-359 607.5,-329 434.5,-329"/>
<text text-anchor="start" x="442.5" y="-347" font-family="Helvetica,sans-Serif" font-size="10.00">klyqa_ctl.account.Account.cloud</text>
<text text-anchor="middle" x="521" y="-336" font-family="Helvetica,sans-Serif" font-size="10.00">_post_to_device</text>
</a>
</g>
</g>
<!-- Node6&#45;&gt;Node7 -->
<g id="edge7" class="edge">
<title>Node6&#45;&gt;Node7</title>
<path fill="none" stroke="midnightblue" d="M664.51,-312.26C640,-317.72 613.12,-323.71 589.37,-328.99"/>
<polygon fill="midnightblue" stroke="midnightblue" points="665.5,-315.62 674.5,-310.03 663.98,-308.79 665.5,-315.62"/>
</g>
<!-- Node9 -->
<g id="node9" class="node">
<title>Node9</title>
<g id="a_node9"><a xlink:href="classklyqa__ctl_1_1account_1_1Account.html#a1450d1baa029967965be433e4efb5a6d" target="_top" xlink:title=" ">
<polygon fill="white" stroke="black" points="429,-231 429,-261 613,-261 613,-231 429,-231"/>
<text text-anchor="start" x="437" y="-249" font-family="Helvetica,sans-Serif" font-size="10.00">klyqa_ctl.account.Account.request</text>
<text text-anchor="middle" x="521" y="-238" font-family="Helvetica,sans-Serif" font-size="10.00">_cloud_device_state</text>
</a>
</g>
</g>
<!-- Node6&#45;&gt;Node9 -->
<g id="edge9" class="edge">
<title>Node6&#45;&gt;Node9</title>
<path fill="none" stroke="midnightblue" d="M664.51,-277.74C640,-272.28 613.12,-266.29 589.37,-261.01"/>
<polygon fill="midnightblue" stroke="midnightblue" points="663.98,-281.21 674.5,-279.97 665.5,-274.38 663.98,-281.21"/>
</g>
<!-- Node6&#45;&gt;Node10 -->
<g id="edge11" class="edge">
<title>Node6&#45;&gt;Node10</title>
<path fill="none" stroke="midnightblue" d="M708.55,-315.53C677.05,-334.61 631.97,-361.22 613,-369 604.99,-372.29 596.39,-375.24 587.8,-377.86"/>
<polygon fill="midnightblue" stroke="midnightblue" points="710.71,-318.31 717.44,-310.12 707.08,-312.33 710.71,-318.31"/>
</g>
<!-- Node12 -->
<g id="node12" class="node">
<title>Node12</title>
<g id="a_node12"><a xlink:href="classklyqa__ctl_1_1account_1_1Account.html#a4fb47c923d3a579054e8cc72480906fb" target="_top" xlink:title=" ">
<polygon fill="white" stroke="black" points="430.5,-280 430.5,-310 611.5,-310 611.5,-280 430.5,-280"/>
<text text-anchor="start" x="438.5" y="-298" font-family="Helvetica,sans-Serif" font-size="10.00">klyqa_ctl.account.Account.update</text>
<text text-anchor="middle" x="521" y="-287" font-family="Helvetica,sans-Serif" font-size="10.00">_device_configs</text>
</a>
</g>
</g>
<!-- Node6&#45;&gt;Node12 -->
<g id="edge13" class="edge">
<title>Node6&#45;&gt;Node12</title>
<path fill="none" stroke="midnightblue" d="M640.81,-295C631.06,-295 621.21,-295 611.59,-295"/>
<polygon fill="midnightblue" stroke="midnightblue" points="640.93,-298.5 650.93,-295 640.93,-291.5 640.93,-298.5"/>
</g>
<!-- Node8 -->
<g id="node8" class="node">
<title>Node8</title>
<g id="a_node8"><a xlink:href="classklyqa__ctl_1_1account_1_1Account.html#a372d813db2141719743dfe088dbe9552" target="_top" xlink:title=" ">
<polygon fill="white" stroke="black" points="213.5,-329 213.5,-359 386.5,-359 386.5,-329 213.5,-329"/>
<text text-anchor="start" x="221.5" y="-347" font-family="Helvetica,sans-Serif" font-size="10.00">klyqa_ctl.account.Account.cloud</text>
<text text-anchor="middle" x="300" y="-336" font-family="Helvetica,sans-Serif" font-size="10.00">_post_command_to_dev</text>
</a>
</g>
</g>
<!-- Node7&#45;&gt;Node8 -->
<g id="edge8" class="edge">
<title>Node7&#45;&gt;Node8</title>
<path fill="none" stroke="midnightblue" d="M424.36,-344C411.78,-344 398.95,-344 386.55,-344"/>
<polygon fill="midnightblue" stroke="midnightblue" points="424.39,-347.5 434.39,-344 424.39,-340.5 424.39,-347.5"/>
</g>
<!-- Node9&#45;&gt;Node3 -->
<g id="edge10" class="edge">
<title>Node9&#45;&gt;Node3</title>
<path fill="none" stroke="midnightblue" d="M418.67,-235.82C408.99,-234.85 399.23,-233.87 389.68,-232.91"/>
<polygon fill="midnightblue" stroke="midnightblue" points="418.41,-239.31 428.71,-236.83 419.11,-232.35 418.41,-239.31"/>
</g>
<!-- Node10&#45;&gt;Node11 -->
<g id="edge12" class="edge">
<title>Node10&#45;&gt;Node11</title>
<path fill="none" stroke="midnightblue" d="M420.25,-399.38C410.95,-399.97 401.56,-400.57 392.34,-401.16"/>
<polygon fill="midnightblue" stroke="midnightblue" points="420.54,-402.87 430.29,-398.73 420.09,-395.88 420.54,-402.87"/>
</g>
<!-- Node13&#45;&gt;Node4 -->
<g id="edge16" class="edge">
<title>Node13&#45;&gt;Node4</title>
<path fill="none" stroke="midnightblue" d="M196.48,-469C188.06,-469 179.6,-469 171.33,-469"/>
<polygon fill="midnightblue" stroke="midnightblue" points="196.72,-472.5 206.72,-469 196.72,-465.5 196.72,-472.5"/>
</g>
<!-- Node15 -->
<g id="node15" class="node">
<title>Node15</title>
<g id="a_node15"><a xlink:href="classklyqa__ctl_1_1account_1_1Account.html#a8e93f6fe918bf32c172447d4ef439d2d" target="_top" xlink:title=" ">
<polygon fill="white" stroke="black" points="658,-106 658,-136 828,-136 828,-106 658,-106"/>
<text text-anchor="start" x="666" y="-124" font-family="Helvetica,sans-Serif" font-size="10.00">klyqa_ctl.account.Account.sync</text>
<text text-anchor="middle" x="743" y="-113" font-family="Helvetica,sans-Serif" font-size="10.00">_acc_settings_to_controller</text>
</a>
</g>
</g>
<!-- Node14&#45;&gt;Node15 -->
<g id="edge20" class="edge">
<title>Node14&#45;&gt;Node15</title>
<path fill="none" stroke="midnightblue" d="M867.72,-121C854.46,-121 840.99,-121 828.06,-121"/>
<polygon fill="midnightblue" stroke="midnightblue" points="867.81,-124.5 877.81,-121 867.81,-117.5 867.81,-124.5"/>
</g>
<!-- Node16&#45;&gt;Node16 -->
<g id="edge22" class="edge">
<title>Node16&#45;&gt;Node16</title>
<path fill="none" stroke="midnightblue" d="M1005.89,-79.46C1001.44,-84.18 989.47,-87.5 970,-87.5 938.04,-87.5 926.31,-78.56 934.8,-69.16"/>
<polygon fill="midnightblue" stroke="midnightblue" points="1009.36,-78.9 1005.2,-69.16 1002.38,-79.37 1009.36,-78.9"/>
</g>
<!-- Node17 -->
<g id="node17" class="node">
<title>Node17</title>
<g id="a_node17"><a xlink:href="classklyqa__ctl_1_1klyqa__ctl_1_1Client.html#a7a93bda9f242d678a4208d0962837f11" target="_top" xlink:title=" ">
<polygon fill="white" stroke="black" points="660,-39 660,-69 826,-69 826,-39 660,-39"/>
<text text-anchor="start" x="668" y="-57" font-family="Helvetica,sans-Serif" font-size="10.00">klyqa_ctl.klyqa_ctl.Client.send</text>
<text text-anchor="middle" x="743" y="-46" font-family="Helvetica,sans-Serif" font-size="10.00">_to_devices_wrapped</text>
</a>
</g>
</g>
<!-- Node16&#45;&gt;Node17 -->
<g id="edge23" class="edge">
<title>Node16&#45;&gt;Node17</title>
<path fill="none" stroke="midnightblue" d="M876.55,-54C859.91,-54 842.67,-54 826.34,-54"/>
<polygon fill="midnightblue" stroke="midnightblue" points="876.81,-57.5 886.81,-54 876.81,-50.5 876.81,-57.5"/>
</g>
</g>
</svg>
