<?xml version="1.0" encoding="UTF-8" standalone="no"?>
<!DOCTYPE svg PUBLIC "-//W3C//DTD SVG 1.1//EN"
 "http://www.w3.org/Graphics/SVG/1.1/DTD/svg11.dtd">
<!-- Generated by graphviz version 2.43.0 (0)
 -->
<!-- Title: klyqa_ctl.account.Account.set_settings Pages: 1 -->
<svg width="607pt" height="88pt"
 viewBox="0.00 0.00 607.00 88.00" xmlns="http://www.w3.org/2000/svg" xmlns:xlink="http://www.w3.org/1999/xlink">
<g id="graph0" class="graph" transform="scale(1 1) rotate(0) translate(4 84)">
<title>klyqa_ctl.account.Account.set_settings</title>
<polygon fill="white" stroke="transparent" points="-4,4 -4,-84 603,-84 603,4 -4,4"/>
<!-- Node1 -->
<g id="node1" class="node">
<title>Node1</title>
<g id="a_node1"><a xlink:title=" ">
<polygon fill="#bfbfbf" stroke="black" points="437,-24.5 437,-54.5 599,-54.5 599,-24.5 437,-24.5"/>
<text text-anchor="start" x="445" y="-42.5" font-family="Helvetica,sans-Serif" font-size="10.00">klyqa_ctl.account.Account.set</text>
<text text-anchor="middle" x="518" y="-31.5" font-family="Helvetica,sans-Serif" font-size="10.00">_settings</text>
</a>
</g>
</g>
<!-- Node2 -->
<g id="node2" class="node">
<title>Node2</title>
<g id="a_node2"><a xlink:href="classklyqa__ctl_1_1account_1_1Account.html#af365113f9fdd0cf5e66f6e9ab427df78" target="_top" xlink:title=" ">
<polygon fill="white" stroke="black" points="226,-49.5 226,-79.5 395,-79.5 395,-49.5 226,-49.5"/>
<text text-anchor="start" x="234" y="-67.5" font-family="Helvetica,sans-Serif" font-size="10.00">klyqa_ctl.account.Account.read</text>
<text text-anchor="middle" x="310.5" y="-56.5" font-family="Helvetica,sans-Serif" font-size="10.00">_acc_settings_cache</text>
</a>
</g>
</g>
<!-- Node1&#45;&gt;Node2 -->
<g id="edge1" class="edge">
<title>Node1&#45;&gt;Node2</title>
<path fill="none" stroke="midnightblue" d="M426.88,-50.46C416.3,-51.75 405.54,-53.06 395.05,-54.34"/>
<polygon fill="midnightblue" stroke="midnightblue" points="427.46,-53.92 436.96,-49.24 426.61,-46.97 427.46,-53.92"/>
</g>
<!-- Node3 -->
<g id="node3" class="node">
<title>Node3</title>
<g id="a_node3"><a xlink:href="classklyqa__ctl_1_1account_1_1Account.html#af101070a97d556e95978748475933f72" target="_top" xlink:title=" ">
<polygon fill="white" stroke="black" points="220,-0.5 220,-30.5 401,-30.5 401,-0.5 220,-0.5"/>
<text text-anchor="start" x="228" y="-18.5" font-family="Helvetica,sans-Serif" font-size="10.00">klyqa_ctl.account.Account.update</text>
<text text-anchor="middle" x="310.5" y="-7.5" font-family="Helvetica,sans-Serif" font-size="10.00">_account_settings</text>
</a>
</g>
</g>
<!-- Node1&#45;&gt;Node3 -->
<g id="edge2" class="edge">
<title>Node1&#45;&gt;Node3</title>
<path fill="none" stroke="midnightblue" d="M426.99,-28.99C418.43,-27.99 409.76,-26.98 401.21,-25.98"/>
<polygon fill="midnightblue" stroke="midnightblue" points="426.62,-32.47 436.96,-30.15 427.43,-25.52 426.62,-32.47"/>
</g>
<!-- Node4 -->
<g id="node4" class="node">
<title>Node4</title>
<g id="a_node4"><a xlink:href="classklyqa__ctl_1_1account_1_1Account.html#aeca1011f6c6e2f6bcdb2136ef48bc7fd" target="_top" xlink:title=" ">
<polygon fill="white" stroke="black" points="0,-0.5 0,-30.5 184,-30.5 184,-0.5 0,-0.5"/>
<text text-anchor="start" x="8" y="-18.5" font-family="Helvetica,sans-Serif" font-size="10.00">klyqa_ctl.account.Account.request</text>
<text text-anchor="middle" x="92" y="-7.5" font-family="Helvetica,sans-Serif" font-size="10.00">_account_settings_eco</text>
</a>
</g>
</g>
<!-- Node3&#45;&gt;Node4 -->
<g id="edge3" class="edge">
<title>Node3&#45;&gt;Node4</title>
<path fill="none" stroke="midnightblue" d="M209.63,-15.5C201.19,-15.5 192.67,-15.5 184.3,-15.5"/>
<polygon fill="midnightblue" stroke="midnightblue" points="209.88,-19 219.88,-15.5 209.88,-12 209.88,-19"/>
</g>
</g>
</svg>
