<?xml version="1.0" encoding="UTF-8" standalone="no"?>
<!DOCTYPE svg PUBLIC "-//W3C//DTD SVG 1.1//EN"
 "http://www.w3.org/Graphics/SVG/1.1/DTD/svg11.dtd">
<!-- Generated by graphviz version 2.43.0 (0)
 -->
<!-- Title: cloud.RequestMethod Pages: 1 -->
<svg width="162pt" height="182pt"
 viewBox="0.00 0.00 161.50 182.00" xmlns="http://www.w3.org/2000/svg" xmlns:xlink="http://www.w3.org/1999/xlink">
<g id="graph0" class="graph" transform="scale(1 1) rotate(0) translate(4 178)">
<title>cloud.RequestMethod</title>
<polygon fill="white" stroke="transparent" points="-4,4 -4,-178 157.5,-178 157.5,4 -4,4"/>
<!-- Node1 -->
<g id="node1" class="node">
<title>Node1</title>
<g id="a_node1"><a xlink:title=" ">
<polygon fill="#bfbfbf" stroke="black" points="8.5,-0.5 8.5,-57.5 130.5,-57.5 130.5,-0.5 8.5,-0.5"/>
<text text-anchor="middle" x="69.5" y="-45.5" font-family="Helvetica,sans-Serif" font-size="10.00">cloud.RequestMethod</text>
<polyline fill="none" stroke="black" points="8.5,-38.5 130.5,-38.5 "/>
<text text-anchor="middle" x="69.5" y="-26.5" font-family="Helvetica,sans-Serif" font-size="10.00"> </text>
<polyline fill="none" stroke="black" points="8.5,-19.5 130.5,-19.5 "/>
<text text-anchor="middle" x="69.5" y="-7.5" font-family="Helvetica,sans-Serif" font-size="10.00"> </text>
</a>
</g>
</g>
<!-- Node2 -->
<g id="node2" class="node">
<title>Node2</title>
<g id="a_node2"><a xlink:href="classstr.html" target="_top" xlink:title=" ">
<polygon fill="white" stroke="black" points="0,-116.5 0,-173.5 29,-173.5 29,-116.5 0,-116.5"/>
<text text-anchor="middle" x="14.5" y="-161.5" font-family="Helvetica,sans-Serif" font-size="10.00">str</text>
<polyline fill="none" stroke="black" points="0,-154.5 29,-154.5 "/>
<text text-anchor="middle" x="14.5" y="-142.5" font-family="Helvetica,sans-Serif" font-size="10.00"> </text>
<polyline fill="none" stroke="black" points="0,-135.5 29,-135.5 "/>
<text text-anchor="middle" x="14.5" y="-123.5" font-family="Helvetica,sans-Serif" font-size="10.00"> </text>
</a>
</g>
</g>
<!-- Node2&#45;&gt;Node1 -->
<g id="edge1" class="edge">
<title>Node2&#45;&gt;Node1</title>
<path fill="none" stroke="midnightblue" d="M32.22,-107.27C39.98,-91.19 48.93,-72.63 56.12,-57.74"/>
<polygon fill="none" stroke="midnightblue" points="29.01,-105.88 27.81,-116.4 35.31,-108.92 29.01,-105.88"/>
</g>
<!-- Node3 -->
<g id="node3" class="node">
<title>Node3</title>
<g id="a_node3"><a xlink:title=" ">
<polygon fill="white" stroke="#bfbfbf" points="47.5,-116.5 47.5,-173.5 91.5,-173.5 91.5,-116.5 47.5,-116.5"/>
<text text-anchor="middle" x="69.5" y="-161.5" font-family="Helvetica,sans-Serif" font-size="10.00">Enum</text>
<polyline fill="none" stroke="#bfbfbf" points="47.5,-154.5 91.5,-154.5 "/>
<text text-anchor="middle" x="69.5" y="-142.5" font-family="Helvetica,sans-Serif" font-size="10.00"> </text>
<polyline fill="none" stroke="#bfbfbf" points="47.5,-135.5 91.5,-135.5 "/>
<text text-anchor="middle" x="69.5" y="-123.5" font-family="Helvetica,sans-Serif" font-size="10.00"> </text>
</a>
</g>
</g>
<!-- Node3&#45;&gt;Node1 -->
<g id="edge2" class="edge">
<title>Node3&#45;&gt;Node1</title>
<path fill="none" stroke="midnightblue" d="M69.5,-106.36C69.5,-90.5 69.5,-72.35 69.5,-57.74"/>
<polygon fill="none" stroke="midnightblue" points="66,-106.4 69.5,-116.4 73,-106.4 66,-106.4"/>
</g>
<!-- Node4 -->
<g id="node4" class="node">
<title>Node4</title>
<g id="a_node4"><a xlink:title=" ">
<polygon fill="white" stroke="#bfbfbf" points="109.5,-116.5 109.5,-173.5 153.5,-173.5 153.5,-116.5 109.5,-116.5"/>
<text text-anchor="middle" x="131.5" y="-161.5" font-family="Helvetica,sans-Serif" font-size="10.00">string</text>
<polyline fill="none" stroke="#bfbfbf" points="109.5,-154.5 153.5,-154.5 "/>
<text text-anchor="middle" x="131.5" y="-142.5" font-family="Helvetica,sans-Serif" font-size="10.00"> </text>
<polyline fill="none" stroke="#bfbfbf" points="109.5,-135.5 153.5,-135.5 "/>
<text text-anchor="middle" x="131.5" y="-123.5" font-family="Helvetica,sans-Serif" font-size="10.00"> </text>
</a>
</g>
</g>
<!-- Node4&#45;&gt;Node1 -->
<g id="edge3" class="edge">
<title>Node4&#45;&gt;Node1</title>
<path fill="none" stroke="#404040" d="M116.49,-116.4C108.71,-102.09 99.07,-84.36 90.55,-68.7"/>
<polygon fill="none" stroke="#404040" points="90.32,-68.28 83.94,-64.92 84.59,-57.74 90.97,-61.1 90.32,-68.28"/>
<text text-anchor="middle" x="122.5" y="-90" font-family="Helvetica,sans-Serif" font-size="10.00"> +GET</text>
<text text-anchor="middle" x="122.5" y="-79" font-family="Helvetica,sans-Serif" font-size="10.00">+POST</text>
</g>
</g>
</svg>
