<?xml version="1.0" encoding="UTF-8" standalone="no"?>
<!DOCTYPE svg PUBLIC "-//W3C//DTD SVG 1.1//EN"
 "http://www.w3.org/Graphics/SVG/1.1/DTD/svg11.dtd">
<!-- Generated by graphviz version 2.43.0 (0)
 -->
<!-- Title: klyqa_ctl.account.Account.request_cloud_device_state Pages: 1 -->
<svg width="1546pt" height="676pt"
 viewBox="0.00 0.00 1546.00 676.00" xmlns="http://www.w3.org/2000/svg" xmlns:xlink="http://www.w3.org/1999/xlink">
<g id="graph0" class="graph" transform="scale(1 1) rotate(0) translate(4 672)">
<title>klyqa_ctl.account.Account.request_cloud_device_state</title>
<polygon fill="white" stroke="transparent" points="-4,4 -4,-672 1542,-672 1542,4 -4,4"/>
<!-- Node1 -->
<g id="node1" class="node">
<title>Node1</title>
<g id="a_node1"><a xlink:title=" ">
<polygon fill="#bfbfbf" stroke="black" points="0,-336.5 0,-366.5 184,-366.5 184,-336.5 0,-336.5"/>
<text text-anchor="start" x="8" y="-354.5" font-family="Helvetica,sans-Serif" font-size="10.00">klyqa_ctl.account.Account.request</text>
<text text-anchor="middle" x="92" y="-343.5" font-family="Helvetica,sans-Serif" font-size="10.00">_cloud_device_state</text>
</a>
</g>
</g>
<!-- Node2 -->
<g id="node2" class="node">
<title>Node2</title>
<g id="a_node2"><a xlink:href="classklyqa__ctl_1_1account_1_1Account.html#a73506bd234f8e819e138c2bd663179b8" target="_top" xlink:title=" ">
<polygon fill="white" stroke="black" points="220,-336.5 220,-366.5 404,-366.5 404,-336.5 220,-336.5"/>
<text text-anchor="start" x="228" y="-354.5" font-family="Helvetica,sans-Serif" font-size="10.00">klyqa_ctl.account.Account.request</text>
<text text-anchor="middle" x="312" y="-343.5" font-family="Helvetica,sans-Serif" font-size="10.00">_beared</text>
</a>
</g>
</g>
<!-- Node1&#45;&gt;Node2 -->
<g id="edge1" class="edge">
<title>Node1&#45;&gt;Node2</title>
<path fill="none" stroke="midnightblue" d="M184.19,-351.5C192.57,-351.5 201.09,-351.5 209.55,-351.5"/>
<polygon fill="midnightblue" stroke="midnightblue" points="209.83,-355 219.83,-351.5 209.83,-348 209.83,-355"/>
</g>
<!-- Node3 -->
<g id="node3" class="node">
<title>Node3</title>
<g id="a_node3"><a xlink:href="classklyqa__ctl_1_1account_1_1Account.html#aeb463ade6756bf093a809634f64c6ef6" target="_top" xlink:title=" ">
<polygon fill="white" stroke="black" points="639,-445 639,-464 812,-464 812,-445 639,-445"/>
<text text-anchor="middle" x="725.5" y="-452" font-family="Helvetica,sans-Serif" font-size="10.00">klyqa_ctl.account.Account.cloud</text>
</a>
</g>
</g>
<!-- Node2&#45;&gt;Node3 -->
<g id="edge2" class="edge">
<title>Node2&#45;&gt;Node3</title>
<path fill="none" stroke="midnightblue" d="M335.27,-366.73C359.78,-382.68 400.9,-407.1 440,-419.5 500.96,-438.83 572.4,-447.57 628.45,-451.48"/>
<polygon fill="midnightblue" stroke="midnightblue" points="628.52,-455 638.73,-452.16 628.98,-448.01 628.52,-455"/>
</g>
<!-- Node4 -->
<g id="node4" class="node">
<title>Node4</title>
<g id="a_node4"><a xlink:href="classklyqa__ctl_1_1devices_1_1device_1_1Device.html#a574647293c61d5f53e153d48ddb31f65" target="_top" xlink:title=" ">
<polygon fill="white" stroke="black" points="655.5,-394.5 655.5,-424.5 795.5,-424.5 795.5,-394.5 655.5,-394.5"/>
<text text-anchor="start" x="663.5" y="-412.5" font-family="Helvetica,sans-Serif" font-size="10.00">klyqa_ctl.devices.device.</text>
<text text-anchor="middle" x="725.5" y="-401.5" font-family="Helvetica,sans-Serif" font-size="10.00">Device.cloud</text>
</a>
</g>
</g>
<!-- Node2&#45;&gt;Node4 -->
<g id="edge3" class="edge">
<title>Node2&#45;&gt;Node4</title>
<path fill="none" stroke="midnightblue" d="M345.07,-366.59C370.26,-377.65 406.57,-391.84 440,-398.5 508.37,-412.11 587.75,-414.07 645.27,-413.07"/>
<polygon fill="midnightblue" stroke="midnightblue" points="645.46,-416.57 655.38,-412.87 645.31,-409.57 645.46,-416.57"/>
</g>
<!-- Node5 -->
<g id="node5" class="node">
<title>Node5</title>
<g id="a_node5"><a xlink:href="classklyqa__ctl_1_1general_1_1general_1_1Command.html#a4aa9e4db12aecf5520e974204c635d38" target="_top" xlink:title=" ">
<polygon fill="white" stroke="black" points="654,-294.5 654,-324.5 797,-324.5 797,-294.5 654,-294.5"/>
<text text-anchor="start" x="662" y="-312.5" font-family="Helvetica,sans-Serif" font-size="10.00">klyqa_ctl.general.general.</text>
<text text-anchor="middle" x="725.5" y="-301.5" font-family="Helvetica,sans-Serif" font-size="10.00">Command.cloud</text>
</a>
</g>
</g>
<!-- Node2&#45;&gt;Node5 -->
<g id="edge4" class="edge">
<title>Node2&#45;&gt;Node5</title>
<path fill="none" stroke="midnightblue" d="M404.07,-342.2C475.67,-334.9 574.51,-324.81 643.41,-317.78"/>
<polygon fill="midnightblue" stroke="midnightblue" points="644.18,-321.22 653.77,-316.72 643.47,-314.25 644.18,-321.22"/>
</g>
<!-- Node33 -->
<g id="node33" class="node">
<title>Node33</title>
<g id="a_node33"><a xlink:href="classklyqa__ctl_1_1general_1_1general_1_1CloudStateCommand.html#a6bbc8b1333f0a45ce38f1e81a6093bc1" target="_top" xlink:title=" ">
<polygon fill="white" stroke="black" points="651,-343.5 651,-373.5 800,-373.5 800,-343.5 651,-343.5"/>
<text text-anchor="start" x="659" y="-361.5" font-family="Helvetica,sans-Serif" font-size="10.00">klyqa_ctl.general.general.</text>
<text text-anchor="middle" x="725.5" y="-350.5" font-family="Helvetica,sans-Serif" font-size="10.00">CloudStateCommand.cloud</text>
</a>
</g>
</g>
<!-- Node2&#45;&gt;Node33 -->
<g id="edge32" class="edge">
<title>Node2&#45;&gt;Node33</title>
<path fill="none" stroke="midnightblue" d="M404.13,-348.82C461.27,-347.65 536.46,-347.04 603,-349.5 615.26,-349.95 628.2,-350.66 640.88,-351.49"/>
<polygon fill="midnightblue" stroke="midnightblue" points="640.77,-354.99 650.98,-352.18 641.24,-348.01 640.77,-354.99"/>
</g>
<!-- Node34 -->
<g id="node34" class="node">
<title>Node34</title>
<g id="a_node34"><a xlink:href="classklyqa__ctl_1_1klyqa__ctl_1_1Client.html#a7d8a302d936e8e1889f175bac259f565" target="_top" xlink:title=" ">
<polygon fill="white" stroke="black" points="641,-252 641,-271 810,-271 810,-252 641,-252"/>
<text text-anchor="middle" x="725.5" y="-259" font-family="Helvetica,sans-Serif" font-size="10.00">klyqa_ctl.klyqa_ctl.Client.cloud</text>
</a>
</g>
</g>
<!-- Node2&#45;&gt;Node34 -->
<g id="edge47" class="edge">
<title>Node2&#45;&gt;Node34</title>
<path fill="none" stroke="midnightblue" d="M368.16,-336.44C390.4,-330.56 416.36,-323.94 440,-318.5 516.18,-300.98 604.55,-283.76 662.33,-272.91"/>
<polygon fill="midnightblue" stroke="midnightblue" points="663.21,-276.3 672.4,-271.02 661.92,-269.42 663.21,-276.3"/>
</g>
<!-- Node35 -->
<g id="node35" class="node">
<title>Node35</title>
<g id="a_node35"><a xlink:href="classklyqa__ctl_1_1account_1_1Account.html#ad608e3ee0ba1199f509e644a11081724" target="_top" xlink:title=" ">
<polygon fill="white" stroke="black" points="440,-358.5 440,-388.5 603,-388.5 603,-358.5 440,-358.5"/>
<text text-anchor="start" x="448" y="-376.5" font-family="Helvetica,sans-Serif" font-size="10.00">klyqa_ctl.account.Account.get</text>
<text text-anchor="middle" x="521.5" y="-365.5" font-family="Helvetica,sans-Serif" font-size="10.00">_beared_request_header</text>
</a>
</g>
</g>
<!-- Node2&#45;&gt;Node35 -->
<g id="edge48" class="edge">
<title>Node2&#45;&gt;Node35</title>
<path fill="none" stroke="midnightblue" d="M404.01,-361.15C412.62,-362.06 421.35,-362.99 429.95,-363.9"/>
<polygon fill="midnightblue" stroke="midnightblue" points="429.67,-367.39 439.99,-364.96 430.41,-360.43 429.67,-367.39"/>
</g>
<!-- Node6 -->
<g id="node6" class="node">
<title>Node6</title>
<g id="a_node6"><a xlink:href="classklyqa__ctl_1_1devices_1_1light_1_1commands_1_1FwUpdateCommand.html#a9de3441c7fbba5f5a19ea914970a3db7" target="_top" xlink:title=" ">
<polygon fill="white" stroke="black" points="856.5,-637.5 856.5,-667.5 1042.5,-667.5 1042.5,-637.5 856.5,-637.5"/>
<text text-anchor="start" x="864.5" y="-655.5" font-family="Helvetica,sans-Serif" font-size="10.00">klyqa_ctl.devices.light.commands.</text>
<text text-anchor="middle" x="949.5" y="-644.5" font-family="Helvetica,sans-Serif" font-size="10.00">FwUpdateCommand.json</text>
</a>
</g>
</g>
<!-- Node5&#45;&gt;Node6 -->
<g id="edge5" class="edge">
<title>Node5&#45;&gt;Node6</title>
<path fill="none" stroke="midnightblue" d="M797.04,-322.32C802.67,-325.55 807.8,-329.55 812,-334.5 897.22,-434.84 760.3,-530.33 848,-628.5 848.65,-629.23 849.33,-629.94 850.01,-630.63"/>
<polygon fill="midnightblue" stroke="midnightblue" points="848.07,-633.57 857.99,-637.31 852.57,-628.21 848.07,-633.57"/>
</g>
<!-- Node8 -->
<g id="node8" class="node">
<title>Node8</title>
<g id="a_node8"><a xlink:href="classklyqa__ctl_1_1devices_1_1light_1_1commands_1_1TransitionCommand.html#aaf9d8431e346c86b9959102c2d7f3316" target="_top" xlink:title=" ">
<polygon fill="white" stroke="black" points="856.5,-294.5 856.5,-324.5 1042.5,-324.5 1042.5,-294.5 856.5,-294.5"/>
<text text-anchor="start" x="864.5" y="-312.5" font-family="Helvetica,sans-Serif" font-size="10.00">klyqa_ctl.devices.light.commands.</text>
<text text-anchor="middle" x="949.5" y="-301.5" font-family="Helvetica,sans-Serif" font-size="10.00">TransitionCommand.json</text>
</a>
</g>
</g>
<!-- Node5&#45;&gt;Node8 -->
<g id="edge7" class="edge">
<title>Node5&#45;&gt;Node8</title>
<path fill="none" stroke="midnightblue" d="M797.05,-309.5C812.61,-309.5 829.4,-309.5 845.94,-309.5"/>
<polygon fill="midnightblue" stroke="midnightblue" points="846.19,-313 856.19,-309.5 846.19,-306 846.19,-313"/>
</g>
<!-- Node9 -->
<g id="node9" class="node">
<title>Node9</title>
<g id="a_node9"><a xlink:href="classklyqa__ctl_1_1devices_1_1light_1_1commands_1_1ColorCommand.html#afa8f262e4047666707237c4dfe8615c3" target="_top" xlink:title=" ">
<polygon fill="white" stroke="black" points="856.5,-588.5 856.5,-618.5 1042.5,-618.5 1042.5,-588.5 856.5,-588.5"/>
<text text-anchor="start" x="864.5" y="-606.5" font-family="Helvetica,sans-Serif" font-size="10.00">klyqa_ctl.devices.light.commands.</text>
<text text-anchor="middle" x="949.5" y="-595.5" font-family="Helvetica,sans-Serif" font-size="10.00">ColorCommand.json</text>
</a>
</g>
</g>
<!-- Node5&#45;&gt;Node9 -->
<g id="edge8" class="edge">
<title>Node5&#45;&gt;Node9</title>
<path fill="none" stroke="midnightblue" d="M797.32,-322.66C802.82,-325.82 807.84,-329.72 812,-334.5 884.25,-417.52 773.7,-498.31 848,-579.5 848.66,-580.22 849.34,-580.93 850.04,-581.61"/>
<polygon fill="midnightblue" stroke="midnightblue" points="848.14,-584.58 858.08,-588.22 852.58,-579.17 848.14,-584.58"/>
</g>
<!-- Node12 -->
<g id="node12" class="node">
<title>Node12</title>
<g id="a_node12"><a xlink:href="classklyqa__ctl_1_1devices_1_1light_1_1commands_1_1TemperatureCommand.html#aaa297cd598227ab2f33a6d111532e5e0" target="_top" xlink:title=" ">
<polygon fill="white" stroke="black" points="856.5,-539.5 856.5,-569.5 1042.5,-569.5 1042.5,-539.5 856.5,-539.5"/>
<text text-anchor="start" x="864.5" y="-557.5" font-family="Helvetica,sans-Serif" font-size="10.00">klyqa_ctl.devices.light.commands.</text>
<text text-anchor="middle" x="949.5" y="-546.5" font-family="Helvetica,sans-Serif" font-size="10.00">TemperatureCommand.json</text>
</a>
</g>
</g>
<!-- Node5&#45;&gt;Node12 -->
<g id="edge11" class="edge">
<title>Node5&#45;&gt;Node12</title>
<path fill="none" stroke="midnightblue" d="M797.14,-322.82C802.67,-325.95 807.75,-329.79 812,-334.5 871.33,-400.26 787.05,-466.24 848,-530.5 848.8,-531.35 849.63,-532.16 850.48,-532.96"/>
<polygon fill="midnightblue" stroke="midnightblue" points="848.64,-535.97 858.67,-539.39 852.97,-530.46 848.64,-535.97"/>
</g>
<!-- Node15 -->
<g id="node15" class="node">
<title>Node15</title>
<g id="a_node15"><a xlink:href="classklyqa__ctl_1_1devices_1_1light_1_1commands_1_1BrightnessCommand.html#a946e7180dd8f3bd4621c23b24e63469a" target="_top" xlink:title=" ">
<polygon fill="white" stroke="black" points="856.5,-490.5 856.5,-520.5 1042.5,-520.5 1042.5,-490.5 856.5,-490.5"/>
<text text-anchor="start" x="864.5" y="-508.5" font-family="Helvetica,sans-Serif" font-size="10.00">klyqa_ctl.devices.light.commands.</text>
<text text-anchor="middle" x="949.5" y="-497.5" font-family="Helvetica,sans-Serif" font-size="10.00">BrightnessCommand.json</text>
</a>
</g>
</g>
<!-- Node5&#45;&gt;Node15 -->
<g id="edge14" class="edge">
<title>Node5&#45;&gt;Node15</title>
<path fill="none" stroke="midnightblue" d="M797.26,-323.31C802.7,-326.35 807.72,-330.03 812,-334.5 858.5,-383.1 800.3,-434.07 848,-481.5 848.97,-482.46 849.96,-483.39 850.99,-484.28"/>
<polygon fill="midnightblue" stroke="midnightblue" points="849.24,-487.33 859.36,-490.44 853.39,-481.69 849.24,-487.33"/>
</g>
<!-- Node18 -->
<g id="node18" class="node">
<title>Node18</title>
<g id="a_node18"><a xlink:href="classklyqa__ctl_1_1devices_1_1light_1_1commands_1_1ExternalSourceCommand.html#a393710b54f709b852bfd0f3769c39ce6" target="_top" xlink:title=" ">
<polygon fill="white" stroke="black" points="856.5,-98.5 856.5,-128.5 1042.5,-128.5 1042.5,-98.5 856.5,-98.5"/>
<text text-anchor="start" x="864.5" y="-116.5" font-family="Helvetica,sans-Serif" font-size="10.00">klyqa_ctl.devices.light.commands.</text>
<text text-anchor="middle" x="949.5" y="-105.5" font-family="Helvetica,sans-Serif" font-size="10.00">ExternalSourceCommand.json</text>
</a>
</g>
</g>
<!-- Node5&#45;&gt;Node18 -->
<g id="edge17" class="edge">
<title>Node5&#45;&gt;Node18</title>
<path fill="none" stroke="midnightblue" d="M793.59,-294.35C800.44,-290.69 806.79,-286.14 812,-280.5 856.44,-232.33 801.38,-183.56 848,-137.5 848.97,-136.54 849.97,-135.62 851,-134.73"/>
<polygon fill="midnightblue" stroke="midnightblue" points="853.39,-137.32 859.39,-128.58 849.25,-131.67 853.39,-137.32"/>
</g>
<!-- Node19 -->
<g id="node19" class="node">
<title>Node19</title>
<g id="a_node19"><a xlink:href="classklyqa__ctl_1_1devices_1_1light_1_1commands_1_1RoutineCommand.html#af3395a663a3dbdff8117ee708f80adec" target="_top" xlink:title=" ">
<polygon fill="white" stroke="black" points="856.5,-49.5 856.5,-79.5 1042.5,-79.5 1042.5,-49.5 856.5,-49.5"/>
<text text-anchor="start" x="864.5" y="-67.5" font-family="Helvetica,sans-Serif" font-size="10.00">klyqa_ctl.devices.light.commands.</text>
<text text-anchor="middle" x="949.5" y="-56.5" font-family="Helvetica,sans-Serif" font-size="10.00">RoutineCommand.json</text>
</a>
</g>
</g>
<!-- Node5&#45;&gt;Node19 -->
<g id="edge18" class="edge">
<title>Node5&#45;&gt;Node19</title>
<path fill="none" stroke="midnightblue" d="M794.35,-294.43C800.98,-290.75 807.07,-286.18 812,-280.5 868.89,-214.92 788.13,-151.38 848,-88.5 848.8,-87.66 849.63,-86.84 850.48,-86.05"/>
<polygon fill="midnightblue" stroke="midnightblue" points="852.97,-88.55 858.69,-79.63 848.65,-83.03 852.97,-88.55"/>
</g>
<!-- Node20 -->
<g id="node20" class="node">
<title>Node20</title>
<g id="a_node20"><a xlink:href="classklyqa__ctl_1_1devices_1_1vacuum_1_1commands_1_1ProductinfoCommand.html#a23d375f048835d4b0f12602764d2a6c1" target="_top" xlink:title=" ">
<polygon fill="white" stroke="black" points="848,-392.5 848,-422.5 1051,-422.5 1051,-392.5 848,-392.5"/>
<text text-anchor="start" x="856" y="-410.5" font-family="Helvetica,sans-Serif" font-size="10.00">klyqa_ctl.devices.vacuum.commands.</text>
<text text-anchor="middle" x="949.5" y="-399.5" font-family="Helvetica,sans-Serif" font-size="10.00">ProductinfoCommand.json</text>
</a>
</g>
</g>
<!-- Node5&#45;&gt;Node20 -->
<g id="edge19" class="edge">
<title>Node5&#45;&gt;Node20</title>
<path fill="none" stroke="midnightblue" d="M793.82,-324.51C800.24,-327.3 806.43,-330.6 812,-334.5 834.14,-350 825.48,-368.56 848,-383.5 850.45,-385.13 853,-386.64 855.63,-388.06"/>
<polygon fill="midnightblue" stroke="midnightblue" points="854.29,-391.3 864.82,-392.48 857.33,-384.99 854.29,-391.3"/>
</g>
<!-- Node22 -->
<g id="node22" class="node">
<title>Node22</title>
<g id="a_node22"><a xlink:href="classklyqa__ctl_1_1devices_1_1vacuum_1_1commands_1_1RequestGetCommand.html#a216966811184b718a4659bf081113f38" target="_top" xlink:title=" ">
<polygon fill="white" stroke="black" points="848,-343.5 848,-373.5 1051,-373.5 1051,-343.5 848,-343.5"/>
<text text-anchor="start" x="856" y="-361.5" font-family="Helvetica,sans-Serif" font-size="10.00">klyqa_ctl.devices.vacuum.commands.</text>
<text text-anchor="middle" x="949.5" y="-350.5" font-family="Helvetica,sans-Serif" font-size="10.00">RequestGetCommand.json</text>
</a>
</g>
</g>
<!-- Node5&#45;&gt;Node22 -->
<g id="edge21" class="edge">
<title>Node5&#45;&gt;Node22</title>
<path fill="none" stroke="midnightblue" d="M794.62,-324.53C818.59,-329.83 845.72,-335.81 870.44,-341.27"/>
<polygon fill="midnightblue" stroke="midnightblue" points="869.99,-344.76 880.51,-343.49 871.5,-337.92 869.99,-344.76"/>
</g>
<!-- Node24 -->
<g id="node24" class="node">
<title>Node24</title>
<g id="a_node24"><a xlink:href="classklyqa__ctl_1_1devices_1_1vacuum_1_1commands_1_1RequestResetCommand.html#a1ac56b80427d60d9f55079ae846ae25e" target="_top" xlink:title=" ">
<polygon fill="white" stroke="black" points="848,-245.5 848,-275.5 1051,-275.5 1051,-245.5 848,-245.5"/>
<text text-anchor="start" x="856" y="-263.5" font-family="Helvetica,sans-Serif" font-size="10.00">klyqa_ctl.devices.vacuum.commands.</text>
<text text-anchor="middle" x="949.5" y="-252.5" font-family="Helvetica,sans-Serif" font-size="10.00">RequestResetCommand.json</text>
</a>
</g>
</g>
<!-- Node5&#45;&gt;Node24 -->
<g id="edge23" class="edge">
<title>Node5&#45;&gt;Node24</title>
<path fill="none" stroke="midnightblue" d="M794.62,-294.47C818.59,-289.17 845.72,-283.19 870.44,-277.73"/>
<polygon fill="midnightblue" stroke="midnightblue" points="871.5,-281.08 880.51,-275.51 869.99,-274.24 871.5,-281.08"/>
</g>
<!-- Node26 -->
<g id="node26" class="node">
<title>Node26</title>
<g id="a_node26"><a xlink:href="classklyqa__ctl_1_1devices_1_1vacuum_1_1commands_1_1RequestSetCommand.html#a354b74be46f4b7d8a56811eaab910959" target="_top" xlink:title=" ">
<polygon fill="white" stroke="black" points="848,-196.5 848,-226.5 1051,-226.5 1051,-196.5 848,-196.5"/>
<text text-anchor="start" x="856" y="-214.5" font-family="Helvetica,sans-Serif" font-size="10.00">klyqa_ctl.devices.vacuum.commands.</text>
<text text-anchor="middle" x="949.5" y="-203.5" font-family="Helvetica,sans-Serif" font-size="10.00">RequestSetCommand.json</text>
</a>
</g>
</g>
<!-- Node5&#45;&gt;Node26 -->
<g id="edge25" class="edge">
<title>Node5&#45;&gt;Node26</title>
<path fill="none" stroke="midnightblue" d="M785.68,-294.39C794.93,-290.66 804.04,-286.08 812,-280.5 832.97,-265.8 826.37,-249.22 848,-235.5 850.64,-233.82 853.39,-232.27 856.22,-230.82"/>
<polygon fill="midnightblue" stroke="midnightblue" points="857.87,-233.91 865.49,-226.55 854.94,-227.55 857.87,-233.91"/>
</g>
<!-- Node28 -->
<g id="node28" class="node">
<title>Node28</title>
<g id="a_node28"><a xlink:href="classklyqa__ctl_1_1devices_1_1vacuum_1_1commands_1_1RoutineCommand.html#a926a94c8cc5104275078e438fb301028" target="_top" xlink:title=" ">
<polygon fill="white" stroke="black" points="848,-147.5 848,-177.5 1051,-177.5 1051,-147.5 848,-147.5"/>
<text text-anchor="start" x="856" y="-165.5" font-family="Helvetica,sans-Serif" font-size="10.00">klyqa_ctl.devices.vacuum.commands.</text>
<text text-anchor="middle" x="949.5" y="-154.5" font-family="Helvetica,sans-Serif" font-size="10.00">RoutineCommand.json</text>
</a>
</g>
</g>
<!-- Node5&#45;&gt;Node28 -->
<g id="edge27" class="edge">
<title>Node5&#45;&gt;Node28</title>
<path fill="none" stroke="midnightblue" d="M791.66,-294.37C799.11,-290.7 806.13,-286.15 812,-280.5 844.24,-249.48 814.36,-215.99 848,-186.5 849.34,-185.32 850.74,-184.2 852.17,-183.13"/>
<polygon fill="midnightblue" stroke="midnightblue" points="854.3,-185.92 860.8,-177.56 850.5,-180.04 854.3,-185.92"/>
</g>
<!-- Node30 -->
<g id="node30" class="node">
<title>Node30</title>
<g id="a_node30"><a xlink:href="classklyqa__ctl_1_1general_1_1general_1_1Command.html#a8c8ad93fedd0da0e0021f58714ec7fb5" target="_top" xlink:title=" ">
<polygon fill="white" stroke="black" points="878,-441.5 878,-471.5 1021,-471.5 1021,-441.5 878,-441.5"/>
<text text-anchor="start" x="886" y="-459.5" font-family="Helvetica,sans-Serif" font-size="10.00">klyqa_ctl.general.general.</text>
<text text-anchor="middle" x="949.5" y="-448.5" font-family="Helvetica,sans-Serif" font-size="10.00">Command.json</text>
</a>
</g>
</g>
<!-- Node5&#45;&gt;Node30 -->
<g id="edge29" class="edge">
<title>Node5&#45;&gt;Node30</title>
<path fill="none" stroke="midnightblue" d="M797.15,-324.06C802.55,-326.94 807.59,-330.38 812,-334.5 845.9,-366.18 813.32,-401.67 848,-432.5 853.99,-437.82 860.94,-442.02 868.35,-445.32"/>
<polygon fill="midnightblue" stroke="midnightblue" points="867.34,-448.68 877.93,-449.03 869.87,-442.15 867.34,-448.68"/>
</g>
<!-- Node31 -->
<g id="node31" class="node">
<title>Node31</title>
<g id="a_node31"><a xlink:href="classklyqa__ctl_1_1general_1_1general_1_1CommandTyped.html#a96dfd43912c4640f381424bdd44eebca" target="_top" xlink:title=" ">
<polygon fill="white" stroke="black" points="878,-0.5 878,-30.5 1021,-30.5 1021,-0.5 878,-0.5"/>
<text text-anchor="start" x="886" y="-18.5" font-family="Helvetica,sans-Serif" font-size="10.00">klyqa_ctl.general.general.</text>
<text text-anchor="middle" x="949.5" y="-7.5" font-family="Helvetica,sans-Serif" font-size="10.00">CommandTyped.json</text>
</a>
</g>
</g>
<!-- Node5&#45;&gt;Node31 -->
<g id="edge30" class="edge">
<title>Node5&#45;&gt;Node31</title>
<path fill="none" stroke="midnightblue" d="M794.97,-294.38C801.41,-290.71 807.28,-286.15 812,-280.5 881.44,-197.39 774.79,-119.31 848,-39.5 853.75,-33.23 860.82,-28.46 868.53,-24.85"/>
<polygon fill="midnightblue" stroke="midnightblue" points="869.84,-28.09 877.82,-21.12 867.24,-21.59 869.84,-28.09"/>
</g>
<!-- Node7 -->
<g id="node7" class="node">
<title>Node7</title>
<g id="a_node7"><a xlink:href="classklyqa__ctl_1_1devices_1_1light_1_1commands_1_1FwUpdateCommand.html#a7dc482a4e9a65d49ce0a61671ed6868e" target="_top" xlink:title=" ">
<polygon fill="white" stroke="black" points="1103,-637.5 1103,-667.5 1289,-667.5 1289,-637.5 1103,-637.5"/>
<text text-anchor="start" x="1111" y="-655.5" font-family="Helvetica,sans-Serif" font-size="10.00">klyqa_ctl.devices.light.commands.</text>
<text text-anchor="middle" x="1196" y="-644.5" font-family="Helvetica,sans-Serif" font-size="10.00">FwUpdateCommand.url_json</text>
</a>
</g>
</g>
<!-- Node6&#45;&gt;Node7 -->
<g id="edge6" class="edge">
<title>Node6&#45;&gt;Node7</title>
<path fill="none" stroke="midnightblue" d="M1042.59,-652.5C1058.95,-652.5 1076.09,-652.5 1092.72,-652.5"/>
<polygon fill="midnightblue" stroke="midnightblue" points="1093,-656 1103,-652.5 1093,-649 1093,-656"/>
</g>
<!-- Node10 -->
<g id="node10" class="node">
<title>Node10</title>
<g id="a_node10"><a xlink:href="classklyqa__ctl_1_1devices_1_1light_1_1commands_1_1ColorCommand.html#a6ce99d7f4f232fb2f11e6efb7e85e778" target="_top" xlink:title=" ">
<polygon fill="white" stroke="black" points="1103,-588.5 1103,-618.5 1289,-618.5 1289,-588.5 1103,-588.5"/>
<text text-anchor="start" x="1111" y="-606.5" font-family="Helvetica,sans-Serif" font-size="10.00">klyqa_ctl.devices.light.commands.</text>
<text text-anchor="middle" x="1196" y="-595.5" font-family="Helvetica,sans-Serif" font-size="10.00">ColorCommand.color_json</text>
</a>
</g>
</g>
<!-- Node9&#45;&gt;Node10 -->
<g id="edge9" class="edge">
<title>Node9&#45;&gt;Node10</title>
<path fill="none" stroke="midnightblue" d="M1042.59,-603.5C1058.95,-603.5 1076.09,-603.5 1092.72,-603.5"/>
<polygon fill="midnightblue" stroke="midnightblue" points="1093,-607 1103,-603.5 1093,-600 1093,-607"/>
</g>
<!-- Node11 -->
<g id="node11" class="node">
<title>Node11</title>
<g id="a_node11"><a xlink:href="classklyqa__ctl_1_1devices_1_1light_1_1response__status_1_1ResponseStatus.html#a327c18fd6f8a38e75e1bbc2f895df592" target="_top" xlink:title=" ">
<polygon fill="white" stroke="black" points="1353,-588.5 1353,-618.5 1526,-618.5 1526,-588.5 1353,-588.5"/>
<text text-anchor="start" x="1361" y="-606.5" font-family="Helvetica,sans-Serif" font-size="10.00">klyqa_ctl.devices.light.response</text>
<text text-anchor="middle" x="1439.5" y="-595.5" font-family="Helvetica,sans-Serif" font-size="10.00">_status.ResponseStatus.color</text>
</a>
</g>
</g>
<!-- Node10&#45;&gt;Node11 -->
<g id="edge10" class="edge">
<title>Node10&#45;&gt;Node11</title>
<path fill="none" stroke="midnightblue" d="M1289.33,-603.5C1306.81,-603.5 1325.13,-603.5 1342.71,-603.5"/>
<polygon fill="midnightblue" stroke="midnightblue" points="1342.96,-607 1352.96,-603.5 1342.96,-600 1342.96,-607"/>
</g>
<!-- Node13 -->
<g id="node13" class="node">
<title>Node13</title>
<g id="a_node13"><a xlink:href="classklyqa__ctl_1_1devices_1_1light_1_1commands_1_1TemperatureCommand.html#a0b45255dc9218a36450152f1118a8280" target="_top" xlink:title=" ">
<polygon fill="white" stroke="black" points="1087,-539.5 1087,-569.5 1305,-569.5 1305,-539.5 1087,-539.5"/>
<text text-anchor="start" x="1095" y="-557.5" font-family="Helvetica,sans-Serif" font-size="10.00">klyqa_ctl.devices.light.commands.</text>
<text text-anchor="middle" x="1196" y="-546.5" font-family="Helvetica,sans-Serif" font-size="10.00">TemperatureCommand.temperature_json</text>
</a>
</g>
</g>
<!-- Node12&#45;&gt;Node13 -->
<g id="edge12" class="edge">
<title>Node12&#45;&gt;Node13</title>
<path fill="none" stroke="midnightblue" d="M1042.59,-554.5C1053.79,-554.5 1065.35,-554.5 1076.87,-554.5"/>
<polygon fill="midnightblue" stroke="midnightblue" points="1076.96,-558 1086.96,-554.5 1076.96,-551 1076.96,-558"/>
</g>
<!-- Node14 -->
<g id="node14" class="node">
<title>Node14</title>
<g id="a_node14"><a xlink:href="classklyqa__ctl_1_1devices_1_1light_1_1response__status_1_1ResponseStatus.html#a2e732c44c35f39dc3d8fe269c24aef8a" target="_top" xlink:title=" ">
<polygon fill="white" stroke="black" points="1341,-539.5 1341,-569.5 1538,-569.5 1538,-539.5 1341,-539.5"/>
<text text-anchor="start" x="1349" y="-557.5" font-family="Helvetica,sans-Serif" font-size="10.00">klyqa_ctl.devices.light.response</text>
<text text-anchor="middle" x="1439.5" y="-546.5" font-family="Helvetica,sans-Serif" font-size="10.00">_status.ResponseStatus.temperature</text>
</a>
</g>
</g>
<!-- Node13&#45;&gt;Node14 -->
<g id="edge13" class="edge">
<title>Node13&#45;&gt;Node14</title>
<path fill="none" stroke="midnightblue" d="M1305.04,-554.5C1313.61,-554.5 1322.27,-554.5 1330.85,-554.5"/>
<polygon fill="midnightblue" stroke="midnightblue" points="1330.86,-558 1340.86,-554.5 1330.86,-551 1330.86,-558"/>
</g>
<!-- Node16 -->
<g id="node16" class="node">
<title>Node16</title>
<g id="a_node16"><a xlink:href="classklyqa__ctl_1_1devices_1_1light_1_1commands_1_1BrightnessCommand.html#aba34fce7f4d8d6aae6bcbaaa61c21a8c" target="_top" xlink:title=" ">
<polygon fill="white" stroke="black" points="1097,-490.5 1097,-520.5 1295,-520.5 1295,-490.5 1097,-490.5"/>
<text text-anchor="start" x="1105" y="-508.5" font-family="Helvetica,sans-Serif" font-size="10.00">klyqa_ctl.devices.light.commands.</text>
<text text-anchor="middle" x="1196" y="-497.5" font-family="Helvetica,sans-Serif" font-size="10.00">BrightnessCommand.brightness_json</text>
</a>
</g>
</g>
<!-- Node15&#45;&gt;Node16 -->
<g id="edge15" class="edge">
<title>Node15&#45;&gt;Node16</title>
<path fill="none" stroke="midnightblue" d="M1042.59,-505.5C1056.99,-505.5 1072,-505.5 1086.73,-505.5"/>
<polygon fill="midnightblue" stroke="midnightblue" points="1086.87,-509 1096.87,-505.5 1086.87,-502 1086.87,-509"/>
</g>
<!-- Node17 -->
<g id="node17" class="node">
<title>Node17</title>
<g id="a_node17"><a xlink:href="classklyqa__ctl_1_1devices_1_1light_1_1response__status_1_1ResponseStatus.html#a762787729b726f6ad8bd5a9a3ae40a67" target="_top" xlink:title=" ">
<polygon fill="white" stroke="black" points="1346,-490.5 1346,-520.5 1533,-520.5 1533,-490.5 1346,-490.5"/>
<text text-anchor="start" x="1354" y="-508.5" font-family="Helvetica,sans-Serif" font-size="10.00">klyqa_ctl.devices.light.response</text>
<text text-anchor="middle" x="1439.5" y="-497.5" font-family="Helvetica,sans-Serif" font-size="10.00">_status.ResponseStatus.brightness</text>
</a>
</g>
</g>
<!-- Node16&#45;&gt;Node17 -->
<g id="edge16" class="edge">
<title>Node16&#45;&gt;Node17</title>
<path fill="none" stroke="midnightblue" d="M1295.23,-505.5C1308.55,-505.5 1322.25,-505.5 1335.64,-505.5"/>
<polygon fill="midnightblue" stroke="midnightblue" points="1335.82,-509 1345.82,-505.5 1335.82,-502 1335.82,-509"/>
</g>
<!-- Node21 -->
<g id="node21" class="node">
<title>Node21</title>
<g id="a_node21"><a xlink:href="classklyqa__ctl_1_1devices_1_1vacuum_1_1commands_1_1ProductinfoCommand.html#a1950a810783ab6312c31fa43dd06182c" target="_top" xlink:title=" ">
<polygon fill="white" stroke="black" points="1093,-392.5 1093,-422.5 1299,-422.5 1299,-392.5 1093,-392.5"/>
<text text-anchor="start" x="1101" y="-410.5" font-family="Helvetica,sans-Serif" font-size="10.00">klyqa_ctl.devices.vacuum.commands.</text>
<text text-anchor="middle" x="1196" y="-399.5" font-family="Helvetica,sans-Serif" font-size="10.00">ProductinfoCommand.productinfo_json</text>
</a>
</g>
</g>
<!-- Node20&#45;&gt;Node21 -->
<g id="edge20" class="edge">
<title>Node20&#45;&gt;Node21</title>
<path fill="none" stroke="midnightblue" d="M1051.01,-407.5C1061.49,-407.5 1072.19,-407.5 1082.79,-407.5"/>
<polygon fill="midnightblue" stroke="midnightblue" points="1082.91,-411 1092.91,-407.5 1082.91,-404 1082.91,-411"/>
</g>
<!-- Node23 -->
<g id="node23" class="node">
<title>Node23</title>
<g id="a_node23"><a xlink:href="classklyqa__ctl_1_1devices_1_1vacuum_1_1commands_1_1RequestGetCommand.html#a71be3cb060fa2c05f2762d13267c6144" target="_top" xlink:title=" ">
<polygon fill="white" stroke="black" points="1094.5,-343.5 1094.5,-373.5 1297.5,-373.5 1297.5,-343.5 1094.5,-343.5"/>
<text text-anchor="start" x="1102.5" y="-361.5" font-family="Helvetica,sans-Serif" font-size="10.00">klyqa_ctl.devices.vacuum.commands.</text>
<text text-anchor="middle" x="1196" y="-350.5" font-family="Helvetica,sans-Serif" font-size="10.00">RequestGetCommand.get_json</text>
</a>
</g>
</g>
<!-- Node22&#45;&gt;Node23 -->
<g id="edge22" class="edge">
<title>Node22&#45;&gt;Node23</title>
<path fill="none" stroke="midnightblue" d="M1051.01,-358.5C1062,-358.5 1073.23,-358.5 1084.34,-358.5"/>
<polygon fill="midnightblue" stroke="midnightblue" points="1084.49,-362 1094.49,-358.5 1084.49,-355 1084.49,-362"/>
</g>
<!-- Node25 -->
<g id="node25" class="node">
<title>Node25</title>
<g id="a_node25"><a xlink:href="classklyqa__ctl_1_1devices_1_1vacuum_1_1commands_1_1RequestResetCommand.html#a53de7ccfeb12e1b8f4c0ea8a82410d4e" target="_top" xlink:title=" ">
<polygon fill="white" stroke="black" points="1094.5,-245.5 1094.5,-275.5 1297.5,-275.5 1297.5,-245.5 1094.5,-245.5"/>
<text text-anchor="start" x="1102.5" y="-263.5" font-family="Helvetica,sans-Serif" font-size="10.00">klyqa_ctl.devices.vacuum.commands.</text>
<text text-anchor="middle" x="1196" y="-252.5" font-family="Helvetica,sans-Serif" font-size="10.00">RequestResetCommand.reset_json</text>
</a>
</g>
</g>
<!-- Node24&#45;&gt;Node25 -->
<g id="edge24" class="edge">
<title>Node24&#45;&gt;Node25</title>
<path fill="none" stroke="midnightblue" d="M1051.01,-260.5C1062,-260.5 1073.23,-260.5 1084.34,-260.5"/>
<polygon fill="midnightblue" stroke="midnightblue" points="1084.49,-264 1094.49,-260.5 1084.49,-257 1084.49,-264"/>
</g>
<!-- Node27 -->
<g id="node27" class="node">
<title>Node27</title>
<g id="a_node27"><a xlink:href="classklyqa__ctl_1_1devices_1_1vacuum_1_1commands_1_1RequestSetCommand.html#ac327b3b919e0d1a45ebe754e546f94f8" target="_top" xlink:title=" ">
<polygon fill="white" stroke="black" points="1094.5,-196.5 1094.5,-226.5 1297.5,-226.5 1297.5,-196.5 1094.5,-196.5"/>
<text text-anchor="start" x="1102.5" y="-214.5" font-family="Helvetica,sans-Serif" font-size="10.00">klyqa_ctl.devices.vacuum.commands.</text>
<text text-anchor="middle" x="1196" y="-203.5" font-family="Helvetica,sans-Serif" font-size="10.00">RequestSetCommand.set_json</text>
</a>
</g>
</g>
<!-- Node26&#45;&gt;Node27 -->
<g id="edge26" class="edge">
<title>Node26&#45;&gt;Node27</title>
<path fill="none" stroke="midnightblue" d="M1051.01,-211.5C1062,-211.5 1073.23,-211.5 1084.34,-211.5"/>
<polygon fill="midnightblue" stroke="midnightblue" points="1084.49,-215 1094.49,-211.5 1084.49,-208 1084.49,-215"/>
</g>
<!-- Node29 -->
<g id="node29" class="node">
<title>Node29</title>
<g id="a_node29"><a xlink:href="classklyqa__ctl_1_1devices_1_1vacuum_1_1commands_1_1RoutineCommand.html#acaf3db880f88d37bb1cf8218a309e52c" target="_top" xlink:title=" ">
<polygon fill="white" stroke="black" points="1094.5,-147.5 1094.5,-177.5 1297.5,-177.5 1297.5,-147.5 1094.5,-147.5"/>
<text text-anchor="start" x="1102.5" y="-165.5" font-family="Helvetica,sans-Serif" font-size="10.00">klyqa_ctl.devices.vacuum.commands.</text>
<text text-anchor="middle" x="1196" y="-154.5" font-family="Helvetica,sans-Serif" font-size="10.00">RoutineCommand.routine_json</text>
</a>
</g>
</g>
<!-- Node28&#45;&gt;Node29 -->
<g id="edge28" class="edge">
<title>Node28&#45;&gt;Node29</title>
<path fill="none" stroke="midnightblue" d="M1051.01,-162.5C1062,-162.5 1073.23,-162.5 1084.34,-162.5"/>
<polygon fill="midnightblue" stroke="midnightblue" points="1084.49,-166 1094.49,-162.5 1084.49,-159 1084.49,-166"/>
</g>
<!-- Node32 -->
<g id="node32" class="node">
<title>Node32</title>
<g id="a_node32"><a xlink:href="classklyqa__ctl_1_1devices_1_1response__message_1_1ResponseMessage.html#a076bcd25b3f41acdc763569b279c4545" target="_top" xlink:title=" ">
<polygon fill="white" stroke="black" points="1103.5,-0.5 1103.5,-30.5 1288.5,-30.5 1288.5,-0.5 1103.5,-0.5"/>
<text text-anchor="start" x="1111.5" y="-18.5" font-family="Helvetica,sans-Serif" font-size="10.00">klyqa_ctl.devices.response</text>
<text text-anchor="middle" x="1196" y="-7.5" font-family="Helvetica,sans-Serif" font-size="10.00">_message.ResponseMessage.type</text>
</a>
</g>
</g>
<!-- Node31&#45;&gt;Node32 -->
<g id="edge31" class="edge">
<title>Node31&#45;&gt;Node32</title>
<path fill="none" stroke="midnightblue" d="M1021.22,-15.5C1043.68,-15.5 1068.98,-15.5 1093.18,-15.5"/>
<polygon fill="midnightblue" stroke="midnightblue" points="1093.47,-19 1103.47,-15.5 1093.47,-12 1093.47,-19"/>
</g>
<!-- Node33&#45;&gt;Node6 -->
<g id="edge33" class="edge">
<title>Node33&#45;&gt;Node6</title>
<path fill="none" stroke="midnightblue" d="M797.76,-373.61C803.1,-376.85 807.96,-380.76 812,-385.5 882.83,-468.58 774.24,-548 848,-628.5 848.66,-629.22 849.34,-629.93 850.04,-630.61"/>
<polygon fill="midnightblue" stroke="midnightblue" points="848.14,-633.58 858.09,-637.22 852.58,-628.17 848.14,-633.58"/>
</g>
<!-- Node33&#45;&gt;Node8 -->
<g id="edge34" class="edge">
<title>Node33&#45;&gt;Node8</title>
<path fill="none" stroke="midnightblue" d="M794.62,-343.47C818.59,-338.17 845.72,-332.19 870.44,-326.73"/>
<polygon fill="midnightblue" stroke="midnightblue" points="871.5,-330.08 880.51,-324.51 869.99,-323.24 871.5,-330.08"/>
</g>
<!-- Node33&#45;&gt;Node9 -->
<g id="edge35" class="edge">
<title>Node33&#45;&gt;Node9</title>
<path fill="none" stroke="midnightblue" d="M797.18,-373.53C802.7,-376.78 807.77,-380.72 812,-385.5 870.1,-451.19 787.59,-515.93 848,-579.5 848.8,-580.35 849.63,-581.16 850.48,-581.95"/>
<polygon fill="midnightblue" stroke="midnightblue" points="848.65,-584.97 858.68,-588.38 852.97,-579.46 848.65,-584.97"/>
</g>
<!-- Node33&#45;&gt;Node12 -->
<g id="edge36" class="edge">
<title>Node33&#45;&gt;Node12</title>
<path fill="none" stroke="midnightblue" d="M796.47,-373.57C802.21,-376.81 807.52,-380.73 812,-385.5 857.46,-433.9 800.84,-483.76 848,-530.5 848.97,-531.46 849.97,-532.38 850.99,-533.27"/>
<polygon fill="midnightblue" stroke="midnightblue" points="849.24,-536.33 859.38,-539.43 853.39,-530.69 849.24,-536.33"/>
</g>
<!-- Node33&#45;&gt;Node15 -->
<g id="edge37" class="edge">
<title>Node33&#45;&gt;Node15</title>
<path fill="none" stroke="midnightblue" d="M795.07,-373.68C801.24,-376.9 807.03,-380.79 812,-385.5 845.06,-416.86 813.84,-451.34 848,-481.5 849.34,-482.68 850.73,-483.81 852.16,-484.89"/>
<polygon fill="midnightblue" stroke="midnightblue" points="850.48,-487.97 860.78,-490.48 854.29,-482.1 850.48,-487.97"/>
</g>
<!-- Node33&#45;&gt;Node18 -->
<g id="edge38" class="edge">
<title>Node33&#45;&gt;Node18</title>
<path fill="none" stroke="midnightblue" d="M800.32,-343.27C804.62,-340.52 808.58,-337.29 812,-333.5 871.33,-267.74 787.05,-201.76 848,-137.5 848.8,-136.65 849.63,-135.84 850.48,-135.04"/>
<polygon fill="midnightblue" stroke="midnightblue" points="852.97,-137.54 858.67,-128.61 848.64,-132.03 852.97,-137.54"/>
</g>
<!-- Node33&#45;&gt;Node19 -->
<g id="edge39" class="edge">
<title>Node33&#45;&gt;Node19</title>
<path fill="none" stroke="midnightblue" d="M800.09,-343.65C804.51,-340.82 808.55,-337.47 812,-333.5 884.25,-250.48 773.7,-169.69 848,-88.5 848.66,-87.78 849.34,-87.07 850.04,-86.39"/>
<polygon fill="midnightblue" stroke="midnightblue" points="852.58,-88.83 858.08,-79.78 848.14,-83.42 852.58,-88.83"/>
</g>
<!-- Node33&#45;&gt;Node20 -->
<g id="edge40" class="edge">
<title>Node33&#45;&gt;Node20</title>
<path fill="none" stroke="midnightblue" d="M794.62,-373.53C818.59,-378.83 845.72,-384.81 870.44,-390.27"/>
<polygon fill="midnightblue" stroke="midnightblue" points="869.99,-393.76 880.51,-392.49 871.5,-386.92 869.99,-393.76"/>
</g>
<!-- Node33&#45;&gt;Node22 -->
<g id="edge41" class="edge">
<title>Node33&#45;&gt;Node22</title>
<path fill="none" stroke="midnightblue" d="M800.11,-358.5C812.17,-358.5 824.88,-358.5 837.6,-358.5"/>
<polygon fill="midnightblue" stroke="midnightblue" points="837.78,-362 847.78,-358.5 837.78,-355 837.78,-362"/>
</g>
<!-- Node33&#45;&gt;Node24 -->
<g id="edge42" class="edge">
<title>Node33&#45;&gt;Node24</title>
<path fill="none" stroke="midnightblue" d="M793.82,-343.49C800.24,-340.7 806.43,-337.4 812,-333.5 834.14,-318 825.48,-299.44 848,-284.5 850.45,-282.87 853,-281.36 855.63,-279.94"/>
<polygon fill="midnightblue" stroke="midnightblue" points="857.33,-283.01 864.82,-275.52 854.29,-276.7 857.33,-283.01"/>
</g>
<!-- Node33&#45;&gt;Node26 -->
<g id="edge43" class="edge">
<title>Node33&#45;&gt;Node26</title>
<path fill="none" stroke="midnightblue" d="M797.98,-343.49C803.06,-340.71 807.82,-337.41 812,-333.5 845.9,-301.82 813.32,-266.33 848,-235.5 849.17,-234.46 850.38,-233.46 851.63,-232.5"/>
<polygon fill="midnightblue" stroke="midnightblue" points="853.88,-235.21 860.28,-226.76 850.01,-229.37 853.88,-235.21"/>
</g>
<!-- Node33&#45;&gt;Node28 -->
<g id="edge44" class="edge">
<title>Node33&#45;&gt;Node28</title>
<path fill="none" stroke="midnightblue" d="M799.68,-343.28C804.19,-340.53 808.37,-337.3 812,-333.5 858.5,-284.9 800.3,-233.93 848,-186.5 848.97,-185.54 849.96,-184.61 850.99,-183.72"/>
<polygon fill="midnightblue" stroke="midnightblue" points="853.39,-186.31 859.36,-177.56 849.24,-180.67 853.39,-186.31"/>
</g>
<!-- Node33&#45;&gt;Node30 -->
<g id="edge45" class="edge">
<title>Node33&#45;&gt;Node30</title>
<path fill="none" stroke="midnightblue" d="M789.78,-373.57C797.62,-376.83 805.24,-380.76 812,-385.5 833.54,-400.61 825.93,-418.17 848,-432.5 854.21,-436.53 861.02,-439.88 868.09,-442.67"/>
<polygon fill="midnightblue" stroke="midnightblue" points="867.26,-446.09 877.85,-446.14 869.6,-439.5 867.26,-446.09"/>
</g>
<!-- Node33&#45;&gt;Node31 -->
<g id="edge46" class="edge">
<title>Node33&#45;&gt;Node31</title>
<path fill="none" stroke="midnightblue" d="M800.2,-343.75C804.59,-340.89 808.6,-337.51 812,-333.5 897.22,-233.16 760.3,-137.67 848,-39.5 853.71,-33.11 860.79,-28.26 868.54,-24.61"/>
<polygon fill="midnightblue" stroke="midnightblue" points="869.91,-27.83 877.89,-20.86 867.3,-21.34 869.91,-27.83"/>
</g>
<!-- Node35&#45;&gt;Node3 -->
<g id="edge49" class="edge">
<title>Node35&#45;&gt;Node3</title>
<path fill="none" stroke="midnightblue" d="M547.1,-388.73C570.12,-402.4 605.83,-422.16 639,-434.5 647.1,-437.51 655.8,-440.17 664.44,-442.48"/>
<polygon fill="midnightblue" stroke="midnightblue" points="663.59,-445.88 674.14,-444.95 665.31,-439.09 663.59,-445.88"/>
</g>
<!-- Node35&#45;&gt;Node4 -->
<g id="edge50" class="edge">
<title>Node35&#45;&gt;Node4</title>
<path fill="none" stroke="midnightblue" d="M603.21,-387.88C617.09,-390.36 631.51,-392.93 645.35,-395.39"/>
<polygon fill="midnightblue" stroke="midnightblue" points="644.85,-398.86 655.31,-397.17 646.08,-391.97 644.85,-398.86"/>
</g>
<!-- Node35&#45;&gt;Node5 -->
<g id="edge51" class="edge">
<title>Node35&#45;&gt;Node5</title>
<path fill="none" stroke="midnightblue" d="M566.07,-358.47C587.9,-351.05 614.78,-342.09 639,-334.5 646.47,-332.16 654.33,-329.76 662.13,-327.43"/>
<polygon fill="midnightblue" stroke="midnightblue" points="663.36,-330.72 671.95,-324.52 661.37,-324.01 663.36,-330.72"/>
</g>
<!-- Node35&#45;&gt;Node33 -->
<g id="edge52" class="edge">
<title>Node35&#45;&gt;Node33</title>
<path fill="none" stroke="midnightblue" d="M603.21,-367.51C615.48,-366.6 628.18,-365.65 640.52,-364.74"/>
<polygon fill="midnightblue" stroke="midnightblue" points="641.08,-368.2 650.79,-363.97 640.56,-361.22 641.08,-368.2"/>
</g>
<!-- Node35&#45;&gt;Node34 -->
<g id="edge53" class="edge">
<title>Node35&#45;&gt;Node34</title>
<path fill="none" stroke="midnightblue" d="M538.11,-358.32C559.27,-338.54 599.04,-304.18 639,-284.5 647.49,-280.32 656.85,-276.82 666.17,-273.91"/>
<polygon fill="midnightblue" stroke="midnightblue" points="667.2,-277.25 675.82,-271.09 665.24,-270.53 667.2,-277.25"/>
</g>
</g>
</svg>
