<?xml version="1.0" encoding="UTF-8" standalone="no"?>
<!DOCTYPE svg PUBLIC "-//W3C//DTD SVG 1.1//EN"
 "http://www.w3.org/Graphics/SVG/1.1/DTD/svg11.dtd">
<!-- Generated by graphviz version 2.43.0 (0)
 -->
<!-- Title: klyqa_ctl.devices.vacuum.commands.RoutineCommandActions Pages: 1 -->
<svg width="211pt" height="237pt"
 viewBox="0.00 0.00 211.00 237.00" xmlns="http://www.w3.org/2000/svg" xmlns:xlink="http://www.w3.org/1999/xlink">
<g id="graph0" class="graph" transform="scale(1 1) rotate(0) translate(4 233)">
<title>klyqa_ctl.devices.vacuum.commands.RoutineCommandActions</title>
<polygon fill="white" stroke="transparent" points="-4,4 -4,-233 207,-233 207,4 -4,4"/>
<!-- Node1 -->
<g id="node1" class="node">
<title>Node1</title>
<g id="a_node1"><a xlink:title=" ">
<polygon fill="#bfbfbf" stroke="black" points="0,-0.5 0,-68.5 203,-68.5 203,-0.5 0,-0.5"/>
<text text-anchor="start" x="8" y="-56.5" font-family="Helvetica,sans-Serif" font-size="10.00">klyqa_ctl.devices.vacuum.commands.</text>
<text text-anchor="middle" x="101.5" y="-45.5" font-family="Helvetica,sans-Serif" font-size="10.00">RoutineCommandActions</text>
<polyline fill="none" stroke="black" points="0,-38.5 203,-38.5 "/>
<text text-anchor="middle" x="101.5" y="-26.5" font-family="Helvetica,sans-Serif" font-size="10.00"> </text>
<polyline fill="none" stroke="black" points="0,-19.5 203,-19.5 "/>
<text text-anchor="middle" x="101.5" y="-7.5" font-family="Helvetica,sans-Serif" font-size="10.00"> </text>
</a>
</g>
</g>
<!-- Node2 -->
<g id="node2" class="node">
<title>Node2</title>
<g id="a_node2"><a xlink:href="classstr.html" target="_top" xlink:title=" ">
<polygon fill="white" stroke="black" points="32,-171.5 32,-228.5 61,-228.5 61,-171.5 32,-171.5"/>
<text text-anchor="middle" x="46.5" y="-216.5" font-family="Helvetica,sans-Serif" font-size="10.00">str</text>
<polyline fill="none" stroke="black" points="32,-209.5 61,-209.5 "/>
<text text-anchor="middle" x="46.5" y="-197.5" font-family="Helvetica,sans-Serif" font-size="10.00"> </text>
<polyline fill="none" stroke="black" points="32,-190.5 61,-190.5 "/>
<text text-anchor="middle" x="46.5" y="-178.5" font-family="Helvetica,sans-Serif" font-size="10.00"> </text>
</a>
</g>
</g>
<!-- Node2&#45;&gt;Node1 -->
<g id="edge1" class="edge">
<title>Node2&#45;&gt;Node1</title>
<path fill="none" stroke="midnightblue" d="M59.13,-161.44C68.54,-133.47 81.27,-95.62 90.32,-68.74"/>
<polygon fill="none" stroke="midnightblue" points="55.7,-160.67 55.83,-171.26 62.34,-162.9 55.7,-160.67"/>
</g>
<!-- Node3 -->
<g id="node3" class="node">
<title>Node3</title>
<g id="a_node3"><a xlink:title=" ">
<polygon fill="white" stroke="#bfbfbf" points="79.5,-171.5 79.5,-228.5 123.5,-228.5 123.5,-171.5 79.5,-171.5"/>
<text text-anchor="middle" x="101.5" y="-216.5" font-family="Helvetica,sans-Serif" font-size="10.00">Enum</text>
<polyline fill="none" stroke="#bfbfbf" points="79.5,-209.5 123.5,-209.5 "/>
<text text-anchor="middle" x="101.5" y="-197.5" font-family="Helvetica,sans-Serif" font-size="10.00"> </text>
<polyline fill="none" stroke="#bfbfbf" points="79.5,-190.5 123.5,-190.5 "/>
<text text-anchor="middle" x="101.5" y="-178.5" font-family="Helvetica,sans-Serif" font-size="10.00"> </text>
</a>
</g>
</g>
<!-- Node3&#45;&gt;Node1 -->
<g id="edge2" class="edge">
<title>Node3&#45;&gt;Node1</title>
<path fill="none" stroke="midnightblue" d="M101.5,-161.07C101.5,-133.14 101.5,-95.51 101.5,-68.74"/>
<polygon fill="none" stroke="midnightblue" points="98,-161.26 101.5,-171.26 105,-161.26 98,-161.26"/>
</g>
<!-- Node4 -->
<g id="node4" class="node">
<title>Node4</title>
<g id="a_node4"><a xlink:title=" ">
<polygon fill="white" stroke="#bfbfbf" points="141.5,-171.5 141.5,-228.5 185.5,-228.5 185.5,-171.5 141.5,-171.5"/>
<text text-anchor="middle" x="163.5" y="-216.5" font-family="Helvetica,sans-Serif" font-size="10.00">string</text>
<polyline fill="none" stroke="#bfbfbf" points="141.5,-209.5 185.5,-209.5 "/>
<text text-anchor="middle" x="163.5" y="-197.5" font-family="Helvetica,sans-Serif" font-size="10.00"> </text>
<polyline fill="none" stroke="#bfbfbf" points="141.5,-190.5 185.5,-190.5 "/>
<text text-anchor="middle" x="163.5" y="-178.5" font-family="Helvetica,sans-Serif" font-size="10.00"> </text>
</a>
</g>
</g>
<!-- Node4&#45;&gt;Node1 -->
<g id="edge3" class="edge">
<title>Node4&#45;&gt;Node1</title>
<path fill="none" stroke="#404040" d="M152.98,-171.26C143.54,-146.36 129.51,-109.35 118.47,-80.26"/>
<polygon fill="none" stroke="#404040" points="118.36,-79.96 112.49,-75.77 114.11,-68.74 119.97,-72.93 118.36,-79.96"/>
<text text-anchor="middle" x="169" y="-145" font-family="Helvetica,sans-Serif" font-size="10.00"> +ACTION</text>
<text text-anchor="middle" x="169" y="-134" font-family="Helvetica,sans-Serif" font-size="10.00">+COUNT</text>
<text text-anchor="middle" x="169" y="-123" font-family="Helvetica,sans-Serif" font-size="10.00">+DELETE</text>
<text text-anchor="middle" x="169" y="-112" font-family="Helvetica,sans-Serif" font-size="10.00">+LIST</text>
<text text-anchor="middle" x="169" y="-101" font-family="Helvetica,sans-Serif" font-size="10.00">+PUT</text>
<text text-anchor="middle" x="169" y="-90" font-family="Helvetica,sans-Serif" font-size="10.00">+START</text>
</g>
</g>
</svg>
