<?xml version="1.0" encoding="UTF-8" standalone="no"?>
<!DOCTYPE svg PUBLIC "-//W3C//DTD SVG 1.1//EN"
 "http://www.w3.org/Graphics/SVG/1.1/DTD/svg11.dtd">
<!-- Generated by graphviz version 2.43.0 (0)
 -->
<!-- Title: klyqa_ctl.devices.device.Device.acc_sets Pages: 1 -->
<svg width="500pt" height="61pt"
 viewBox="0.00 0.00 500.00 61.00" xmlns="http://www.w3.org/2000/svg" xmlns:xlink="http://www.w3.org/1999/xlink">
<g id="graph0" class="graph" transform="scale(1 1) rotate(0) translate(4 57)">
<title>klyqa_ctl.devices.device.Device.acc_sets</title>
<polygon fill="white" stroke="transparent" points="-4,4 -4,-57 496,-57 496,4 -4,4"/>
<!-- Node1 -->
<g id="node1" class="node">
<title>Node1</title>
<g id="a_node1"><a xlink:title=" ">
<polygon fill="#bfbfbf" stroke="black" points="352,-0.5 352,-30.5 492,-30.5 492,-0.5 352,-0.5"/>
<text text-anchor="start" x="360" y="-18.5" font-family="Helvetica,sans-Serif" font-size="10.00">klyqa_ctl.devices.device.</text>
<text text-anchor="middle" x="422" y="-7.5" font-family="Helvetica,sans-Serif" font-size="10.00">Device.acc_sets</text>
</a>
</g>
</g>
<!-- Node2 -->
<g id="node2" class="node">
<title>Node2</title>
<g id="a_node2"><a xlink:href="classklyqa__ctl_1_1devices_1_1device_1_1Device.html#abff106c1db035023ad9e80b3456bd439" target="_top" xlink:title=" ">
<polygon fill="white" stroke="black" points="176,-22.5 176,-52.5 316,-52.5 316,-22.5 176,-22.5"/>
<text text-anchor="start" x="184" y="-40.5" font-family="Helvetica,sans-Serif" font-size="10.00">klyqa_ctl.devices.device.</text>
<text text-anchor="middle" x="246" y="-29.5" font-family="Helvetica,sans-Serif" font-size="10.00">Device.acc_sets</text>
</a>
</g>
</g>
<!-- Node1&#45;&gt;Node2 -->
<g id="edge1" class="edge">
<title>Node1&#45;&gt;Node2</title>
<path fill="none" stroke="midnightblue" d="M341.97,-25.49C333.38,-26.58 324.68,-27.68 316.22,-28.75"/>
<polygon fill="midnightblue" stroke="midnightblue" points="342.5,-28.95 351.98,-24.23 341.62,-22.01 342.5,-28.95"/>
</g>
<!-- Node3 -->
<g id="node3" class="node">
<title>Node3</title>
<g id="a_node3"><a xlink:href="classklyqa__ctl_1_1devices_1_1device_1_1Device.html#a7230c178c35cdd93a7242b150008b822" target="_top" xlink:title=" ">
<polygon fill="white" stroke="black" points="0,-0.5 0,-30.5 140,-30.5 140,-0.5 0,-0.5"/>
<text text-anchor="start" x="8" y="-18.5" font-family="Helvetica,sans-Serif" font-size="10.00">klyqa_ctl.devices.device.</text>
<text text-anchor="middle" x="70" y="-7.5" font-family="Helvetica,sans-Serif" font-size="10.00">Device.get_name</text>
</a>
</g>
</g>
<!-- Node1&#45;&gt;Node3 -->
<g id="edge3" class="edge">
<title>Node1&#45;&gt;Node3</title>
<path fill="none" stroke="midnightblue" d="M341.68,-13.83C333.01,-13.69 324.32,-13.58 316,-13.5 253.78,-12.91 238.22,-12.91 176,-13.5 164.42,-13.61 152.13,-13.79 140.19,-14"/>
<polygon fill="midnightblue" stroke="midnightblue" points="341.76,-17.33 351.81,-14 341.87,-10.33 341.76,-17.33"/>
</g>
<!-- Node2&#45;&gt;Node3 -->
<g id="edge2" class="edge">
<title>Node2&#45;&gt;Node3</title>
<path fill="none" stroke="midnightblue" d="M165.97,-27.51C157.38,-26.42 148.68,-25.32 140.22,-24.25"/>
<polygon fill="midnightblue" stroke="midnightblue" points="165.62,-30.99 175.98,-28.77 166.5,-24.05 165.62,-30.99"/>
</g>
</g>
</svg>
