<?xml version="1.0" encoding="UTF-8" standalone="no"?>
<!DOCTYPE svg PUBLIC "-//W3C//DTD SVG 1.1//EN"
 "http://www.w3.org/Graphics/SVG/1.1/DTD/svg11.dtd">
<!-- Generated by graphviz version 2.43.0 (0)
 -->
<!-- Title: klyqa_ctl.devices.vacuum.general.VcWorkingMode Pages: 1 -->
<svg width="204pt" height="270pt"
 viewBox="0.00 0.00 204.00 270.00" xmlns="http://www.w3.org/2000/svg" xmlns:xlink="http://www.w3.org/1999/xlink">
<g id="graph0" class="graph" transform="scale(1 1) rotate(0) translate(4 266)">
<title>klyqa_ctl.devices.vacuum.general.VcWorkingMode</title>
<polygon fill="white" stroke="transparent" points="-4,4 -4,-266 200,-266 200,4 -4,4"/>
<!-- Node1 -->
<g id="node1" class="node">
<title>Node1</title>
<g id="a_node1"><a xlink:title=" ">
<polygon fill="#bfbfbf" stroke="black" points="0,-0.5 0,-68.5 186,-68.5 186,-0.5 0,-0.5"/>
<text text-anchor="start" x="8" y="-56.5" font-family="Helvetica,sans-Serif" font-size="10.00">klyqa_ctl.devices.vacuum.general.</text>
<text text-anchor="middle" x="93" y="-45.5" font-family="Helvetica,sans-Serif" font-size="10.00">VcWorkingMode</text>
<polyline fill="none" stroke="black" points="0,-38.5 186,-38.5 "/>
<text text-anchor="middle" x="93" y="-26.5" font-family="Helvetica,sans-Serif" font-size="10.00"> </text>
<polyline fill="none" stroke="black" points="0,-19.5 186,-19.5 "/>
<text text-anchor="middle" x="93" y="-7.5" font-family="Helvetica,sans-Serif" font-size="10.00"> </text>
</a>
</g>
</g>
<!-- Node2 -->
<g id="node2" class="node">
<title>Node2</title>
<g id="a_node2"><a xlink:title=" ">
<polygon fill="white" stroke="#bfbfbf" points="44,-204.5 44,-261.5 88,-261.5 88,-204.5 44,-204.5"/>
<text text-anchor="middle" x="66" y="-249.5" font-family="Helvetica,sans-Serif" font-size="10.00">Enum</text>
<polyline fill="none" stroke="#bfbfbf" points="44,-242.5 88,-242.5 "/>
<text text-anchor="middle" x="66" y="-230.5" font-family="Helvetica,sans-Serif" font-size="10.00"> </text>
<polyline fill="none" stroke="#bfbfbf" points="44,-223.5 88,-223.5 "/>
<text text-anchor="middle" x="66" y="-211.5" font-family="Helvetica,sans-Serif" font-size="10.00"> </text>
</a>
</g>
</g>
<!-- Node2&#45;&gt;Node1 -->
<g id="edge1" class="edge">
<title>Node2&#45;&gt;Node1</title>
<path fill="none" stroke="midnightblue" d="M71.21,-194.06C76.21,-157.69 83.68,-103.35 88.44,-68.67"/>
<polygon fill="none" stroke="midnightblue" points="67.71,-193.88 69.81,-204.26 74.64,-194.83 67.71,-193.88"/>
</g>
<!-- Node3 -->
<g id="node3" class="node">
<title>Node3</title>
<g id="a_node3"><a xlink:title=" ">
<polygon fill="white" stroke="#bfbfbf" points="106.5,-204.5 106.5,-261.5 135.5,-261.5 135.5,-204.5 106.5,-204.5"/>
<text text-anchor="middle" x="121" y="-249.5" font-family="Helvetica,sans-Serif" font-size="10.00">int</text>
<polyline fill="none" stroke="#bfbfbf" points="106.5,-242.5 135.5,-242.5 "/>
<text text-anchor="middle" x="121" y="-230.5" font-family="Helvetica,sans-Serif" font-size="10.00"> </text>
<polyline fill="none" stroke="#bfbfbf" points="106.5,-223.5 135.5,-223.5 "/>
<text text-anchor="middle" x="121" y="-211.5" font-family="Helvetica,sans-Serif" font-size="10.00"> </text>
</a>
</g>
</g>
<!-- Node3&#45;&gt;Node1 -->
<g id="edge2" class="edge">
<title>Node3&#45;&gt;Node1</title>
<path fill="none" stroke="#404040" d="M117.05,-204.26C112.48,-172.23 104.91,-119.07 99.48,-80.97"/>
<polygon fill="none" stroke="#404040" points="99.42,-80.55 94.61,-75.18 97.73,-68.67 102.53,-74.05 99.42,-80.55"/>
<text text-anchor="middle" x="155" y="-178" font-family="Helvetica,sans-Serif" font-size="10.00"> +CHARGE_GO</text>
<text text-anchor="middle" x="155" y="-167" font-family="Helvetica,sans-Serif" font-size="10.00">+MOP</text>
<text text-anchor="middle" x="155" y="-156" font-family="Helvetica,sans-Serif" font-size="10.00">+PARTIAL_BOW</text>
<text text-anchor="middle" x="155" y="-145" font-family="Helvetica,sans-Serif" font-size="10.00">+RANDOM</text>
<text text-anchor="middle" x="155" y="-134" font-family="Helvetica,sans-Serif" font-size="10.00">+SMART</text>
<text text-anchor="middle" x="155" y="-123" font-family="Helvetica,sans-Serif" font-size="10.00">+SPIRAL</text>
<text text-anchor="middle" x="155" y="-112" font-family="Helvetica,sans-Serif" font-size="10.00">+SROOM</text>
<text text-anchor="middle" x="155" y="-101" font-family="Helvetica,sans-Serif" font-size="10.00">+STANDBY</text>
<text text-anchor="middle" x="155" y="-90" font-family="Helvetica,sans-Serif" font-size="10.00">+WALL_FOLLOW</text>
</g>
</g>
</svg>
