<?xml version="1.0" encoding="UTF-8" standalone="no"?>
<!DOCTYPE svg PUBLIC "-//W3C//DTD SVG 1.1//EN"
 "http://www.w3.org/Graphics/SVG/1.1/DTD/svg11.dtd">
<!-- Generated by graphviz version 2.43.0 (0)
 -->
<!-- Title: klyqa_ctl.devices.vacuum.commands.RequestSetCommand Pages: 1 -->
<svg width="211pt" height="458pt"
 viewBox="0.00 0.00 211.00 458.00" xmlns="http://www.w3.org/2000/svg" xmlns:xlink="http://www.w3.org/1999/xlink">
<g id="graph0" class="graph" transform="scale(1 1) rotate(0) translate(4 454)">
<title>klyqa_ctl.devices.vacuum.commands.RequestSetCommand</title>
<polygon fill="white" stroke="transparent" points="-4,4 -4,-454 207,-454 207,4 -4,4"/>
<!-- Node1 -->
<g id="node1" class="node">
<title>Node1</title>
<g id="a_node1"><a xlink:title=" ">
<polygon fill="#bfbfbf" stroke="black" points="0,-0.5 0,-79.5 203,-79.5 203,-0.5 0,-0.5"/>
<text text-anchor="start" x="8" y="-67.5" font-family="Helvetica,sans-Serif" font-size="10.00">klyqa_ctl.devices.vacuum.commands.</text>
<text text-anchor="middle" x="101.5" y="-56.5" font-family="Helvetica,sans-Serif" font-size="10.00">RequestSetCommand</text>
<polyline fill="none" stroke="black" points="0,-49.5 203,-49.5 "/>
<text text-anchor="middle" x="101.5" y="-37.5" font-family="Helvetica,sans-Serif" font-size="10.00"> </text>
<polyline fill="none" stroke="black" points="0,-30.5 203,-30.5 "/>
<text text-anchor="start" x="8" y="-18.5" font-family="Helvetica,sans-Serif" font-size="10.00">+ TypeJson set_json(self)</text>
<text text-anchor="start" x="8" y="-7.5" font-family="Helvetica,sans-Serif" font-size="10.00">+ TypeJson json(self)</text>
</a>
</g>
</g>
<!-- Node2 -->
<g id="node2" class="node">
<title>Node2</title>
<g id="a_node2"><a xlink:href="classklyqa__ctl_1_1devices_1_1light_1_1commands_1_1RequestCommand.html" target="_top" xlink:title=" ">
<polygon fill="white" stroke="black" points="8.5,-116.5 8.5,-195.5 194.5,-195.5 194.5,-116.5 8.5,-116.5"/>
<text text-anchor="start" x="16.5" y="-183.5" font-family="Helvetica,sans-Serif" font-size="10.00">klyqa_ctl.devices.light.commands.</text>
<text text-anchor="middle" x="101.5" y="-172.5" font-family="Helvetica,sans-Serif" font-size="10.00">RequestCommand</text>
<polyline fill="none" stroke="black" points="8.5,-165.5 194.5,-165.5 "/>
<text text-anchor="start" x="16.5" y="-153.5" font-family="Helvetica,sans-Serif" font-size="10.00">+ type</text>
<polyline fill="none" stroke="black" points="8.5,-146.5 194.5,-146.5 "/>
<text text-anchor="start" x="16.5" y="-134.5" font-family="Helvetica,sans-Serif" font-size="10.00">+ None __post_init__</text>
<text text-anchor="start" x="16.5" y="-123.5" font-family="Helvetica,sans-Serif" font-size="10.00">(self)</text>
</a>
</g>
</g>
<!-- Node2&#45;&gt;Node1 -->
<g id="edge1" class="edge">
<title>Node2&#45;&gt;Node1</title>
<path fill="none" stroke="midnightblue" d="M101.5,-106.15C101.5,-97.26 101.5,-88.1 101.5,-79.56"/>
<polygon fill="none" stroke="midnightblue" points="98,-106.4 101.5,-116.4 105,-106.4 98,-106.4"/>
</g>
<!-- Node3 -->
<g id="node3" class="node">
<title>Node3</title>
<g id="a_node3"><a xlink:href="classklyqa__ctl_1_1general_1_1general_1_1CommandTyped.html" target="_top" xlink:title=" ">
<polygon fill="white" stroke="black" points="30,-232.5 30,-300.5 173,-300.5 173,-232.5 30,-232.5"/>
<text text-anchor="start" x="38" y="-288.5" font-family="Helvetica,sans-Serif" font-size="10.00">klyqa_ctl.general.general.</text>
<text text-anchor="middle" x="101.5" y="-277.5" font-family="Helvetica,sans-Serif" font-size="10.00">CommandTyped</text>
<polyline fill="none" stroke="black" points="30,-270.5 173,-270.5 "/>
<text text-anchor="start" x="38" y="-258.5" font-family="Helvetica,sans-Serif" font-size="10.00">+ str</text>
<polyline fill="none" stroke="black" points="30,-251.5 173,-251.5 "/>
<text text-anchor="start" x="38" y="-239.5" font-family="Helvetica,sans-Serif" font-size="10.00">+ TypeJson json(self)</text>
</a>
</g>
</g>
<!-- Node3&#45;&gt;Node2 -->
<g id="edge2" class="edge">
<title>Node3&#45;&gt;Node2</title>
<path fill="none" stroke="midnightblue" d="M101.5,-222.27C101.5,-213.48 101.5,-204.28 101.5,-195.65"/>
<polygon fill="none" stroke="midnightblue" points="98,-222.36 101.5,-232.36 105,-222.36 98,-222.36"/>
</g>
<!-- Node4 -->
<g id="node4" class="node">
<title>Node4</title>
<g id="a_node4"><a xlink:href="classklyqa__ctl_1_1general_1_1general_1_1Command.html" target="_top" xlink:title=" ">
<polygon fill="white" stroke="black" points="30,-337.5 30,-449.5 173,-449.5 173,-337.5 30,-337.5"/>
<text text-anchor="start" x="38" y="-437.5" font-family="Helvetica,sans-Serif" font-size="10.00">klyqa_ctl.general.general.</text>
<text text-anchor="middle" x="101.5" y="-426.5" font-family="Helvetica,sans-Serif" font-size="10.00">Command</text>
<polyline fill="none" stroke="black" points="30,-419.5 173,-419.5 "/>
<text text-anchor="start" x="38" y="-407.5" font-family="Helvetica,sans-Serif" font-size="10.00">+ TypeJson</text>
<text text-anchor="start" x="38" y="-396.5" font-family="Helvetica,sans-Serif" font-size="10.00">+ default_factory</text>
<polyline fill="none" stroke="black" points="30,-389.5 173,-389.5 "/>
<text text-anchor="start" x="38" y="-377.5" font-family="Helvetica,sans-Serif" font-size="10.00">+ TypeJson json(self)</text>
<text text-anchor="start" x="38" y="-366.5" font-family="Helvetica,sans-Serif" font-size="10.00">+ TypeJson cloud(self)</text>
<text text-anchor="start" x="38" y="-355.5" font-family="Helvetica,sans-Serif" font-size="10.00">+ str msg_str(self)</text>
<text text-anchor="start" x="38" y="-344.5" font-family="Helvetica,sans-Serif" font-size="10.00">+ str __str__(self)</text>
</a>
</g>
</g>
<!-- Node4&#45;&gt;Node3 -->
<g id="edge3" class="edge">
<title>Node4&#45;&gt;Node3</title>
<path fill="none" stroke="midnightblue" d="M101.5,-327.26C101.5,-317.99 101.5,-308.8 101.5,-300.51"/>
<polygon fill="none" stroke="midnightblue" points="98,-327.31 101.5,-337.31 105,-327.31 98,-327.31"/>
</g>
</g>
</svg>
