<?xml version="1.0" encoding="UTF-8" standalone="no"?>
<!DOCTYPE svg PUBLIC "-//W3C//DTD SVG 1.1//EN"
 "http://www.w3.org/Graphics/SVG/1.1/DTD/svg11.dtd">
<!-- Generated by graphviz version 2.43.0 (0)
 -->
<!-- Title: klyqa_ctl.controller_data.ControllerData.get_or_create_device Pages: 1 -->
<svg width="366pt" height="285pt"
 viewBox="0.00 0.00 366.00 285.00" xmlns="http://www.w3.org/2000/svg" xmlns:xlink="http://www.w3.org/1999/xlink">
<g id="graph0" class="graph" transform="scale(1 1) rotate(0) translate(4 281)">
<title>klyqa_ctl.controller_data.ControllerData.get_or_create_device</title>
<polygon fill="white" stroke="transparent" points="-4,4 -4,-281 362,-281 362,4 -4,4"/>
<!-- Node1 -->
<g id="node1" class="node">
<title>Node1</title>
<g id="a_node1"><a xlink:title=" ">
<polygon fill="#bfbfbf" stroke="black" points="0,-104.5 0,-145.5 137,-145.5 137,-104.5 0,-104.5"/>
<text text-anchor="start" x="8" y="-133.5" font-family="Helvetica,sans-Serif" font-size="10.00">klyqa_ctl.controller</text>
<text text-anchor="start" x="8" y="-122.5" font-family="Helvetica,sans-Serif" font-size="10.00">_data.ControllerData.get</text>
<text text-anchor="middle" x="68.5" y="-111.5" font-family="Helvetica,sans-Serif" font-size="10.00">_or_create_device</text>
</a>
</g>
</g>
<!-- Node2 -->
<g id="node2" class="node">
<title>Node2</title>
<g id="a_node2"><a xlink:href="classklyqa__ctl_1_1controller__data_1_1ControllerData.html#acf121380378cde9a2041430bac89ac97" target="_top" xlink:title=" ">
<polygon fill="white" stroke="black" points="196,-235.5 196,-276.5 335,-276.5 335,-235.5 196,-235.5"/>
<text text-anchor="start" x="204" y="-264.5" font-family="Helvetica,sans-Serif" font-size="10.00">klyqa_ctl.controller</text>
<text text-anchor="start" x="204" y="-253.5" font-family="Helvetica,sans-Serif" font-size="10.00">_data.ControllerData.add</text>
<text text-anchor="middle" x="265.5" y="-242.5" font-family="Helvetica,sans-Serif" font-size="10.00">_devices_lock</text>
</a>
</g>
</g>
<!-- Node1&#45;&gt;Node2 -->
<g id="edge1" class="edge">
<title>Node1&#45;&gt;Node2</title>
<path fill="none" stroke="midnightblue" d="M85.67,-145.66C104.42,-168.34 137.36,-204.39 173,-226 177.36,-228.64 181.97,-231.08 186.72,-233.32"/>
<polygon fill="midnightblue" stroke="midnightblue" points="185.43,-236.58 195.99,-237.4 188.25,-230.17 185.43,-236.58"/>
</g>
<!-- Node3 -->
<g id="node3" class="node">
<title>Node3</title>
<g id="a_node3"><a xlink:href="classklyqa__ctl_1_1controller__data_1_1ControllerData.html#afe5d9ecd2aec0bad65f3be2ed0ff4ce1" target="_top" xlink:title=" ">
<polygon fill="white" stroke="black" points="189.5,-175.5 189.5,-216.5 341.5,-216.5 341.5,-175.5 189.5,-175.5"/>
<text text-anchor="start" x="197.5" y="-204.5" font-family="Helvetica,sans-Serif" font-size="10.00">klyqa_ctl.controller</text>
<text text-anchor="start" x="197.5" y="-193.5" font-family="Helvetica,sans-Serif" font-size="10.00">_data.ControllerData.create</text>
<text text-anchor="middle" x="265.5" y="-182.5" font-family="Helvetica,sans-Serif" font-size="10.00">_device</text>
</a>
</g>
</g>
<!-- Node1&#45;&gt;Node3 -->
<g id="edge2" class="edge">
<title>Node1&#45;&gt;Node3</title>
<path fill="none" stroke="midnightblue" d="M119.54,-145.53C136.44,-152.27 155.46,-159.66 173,-166 178.54,-168 184.29,-170.02 190.08,-172.02"/>
<polygon fill="midnightblue" stroke="midnightblue" points="189.25,-175.43 199.85,-175.34 191.51,-168.81 189.25,-175.43"/>
</g>
<!-- Node4 -->
<g id="node4" class="node">
<title>Node4</title>
<g id="a_node4"><a xlink:href="classklyqa__ctl_1_1account_1_1Account.html#a2265c38daf6829c96c852ad4a288b42d" target="_top" xlink:title=" ">
<polygon fill="white" stroke="black" points="173,-137.5 173,-156.5 358,-156.5 358,-137.5 173,-137.5"/>
<text text-anchor="middle" x="265.5" y="-144.5" font-family="Helvetica,sans-Serif" font-size="10.00">klyqa_ctl.account.Account.devices</text>
</a>
</g>
</g>
<!-- Node1&#45;&gt;Node4 -->
<g id="edge3" class="edge">
<title>Node1&#45;&gt;Node4</title>
<path fill="none" stroke="midnightblue" d="M137.15,-132.63C147.77,-133.83 158.9,-135.09 169.98,-136.34"/>
<polygon fill="midnightblue" stroke="midnightblue" points="169.8,-139.84 180.13,-137.48 170.58,-132.88 169.8,-139.84"/>
</g>
<!-- Node5 -->
<g id="node5" class="node">
<title>Node5</title>
<g id="a_node5"><a xlink:href="classlocal_1_1connection__handler_1_1LocalConnectionHandler.html#a4d307f6bd0b66f3cb9fac3057fc87972" target="_top" xlink:title=" ">
<polygon fill="white" stroke="black" points="178,-88 178,-118 353,-118 353,-88 178,-88"/>
<text text-anchor="start" x="186" y="-106" font-family="Helvetica,sans-Serif" font-size="10.00">local.connection_handler.</text>
<text text-anchor="middle" x="265.5" y="-95" font-family="Helvetica,sans-Serif" font-size="10.00">LocalConnectionHandler.devices</text>
</a>
</g>
</g>
<!-- Node1&#45;&gt;Node5 -->
<g id="edge4" class="edge">
<title>Node1&#45;&gt;Node5</title>
<path fill="none" stroke="midnightblue" d="M137.15,-117.37C146.97,-116.26 157.24,-115.1 167.49,-113.94"/>
<polygon fill="midnightblue" stroke="midnightblue" points="168.19,-117.39 177.73,-112.79 167.4,-110.43 168.19,-117.39"/>
</g>
<!-- Node6 -->
<g id="node6" class="node">
<title>Node6</title>
<g id="a_node6"><a xlink:href="classklyqa__ctl_1_1controller__data_1_1ControllerData.html#adf7af423388a9a883c428cf71e217650" target="_top" xlink:title=" ">
<polygon fill="white" stroke="black" points="186.5,-39 186.5,-69 344.5,-69 344.5,-39 186.5,-39"/>
<text text-anchor="start" x="194.5" y="-57" font-family="Helvetica,sans-Serif" font-size="10.00">klyqa_ctl.controller</text>
<text text-anchor="middle" x="265.5" y="-46" font-family="Helvetica,sans-Serif" font-size="10.00">_data.ControllerData.devices</text>
</a>
</g>
</g>
<!-- Node1&#45;&gt;Node6 -->
<g id="edge5" class="edge">
<title>Node1&#45;&gt;Node6</title>
<path fill="none" stroke="midnightblue" d="M111.71,-104.5C130.25,-95.95 152.44,-86.33 173,-79 179.83,-76.57 187.01,-74.23 194.22,-72.03"/>
<polygon fill="midnightblue" stroke="midnightblue" points="195.45,-75.32 204.05,-69.12 193.47,-68.61 195.45,-75.32"/>
</g>
<!-- Node7 -->
<g id="node7" class="node">
<title>Node7</title>
<g id="a_node7"><a xlink:href="classklyqa__ctl_1_1klyqa__ctl_1_1Client.html#ab6e5eda10fb712850c3fb311fd1cd4a0" target="_top" xlink:title=" ">
<polygon fill="white" stroke="black" points="175.5,-0.5 175.5,-19.5 355.5,-19.5 355.5,-0.5 175.5,-0.5"/>
<text text-anchor="middle" x="265.5" y="-7.5" font-family="Helvetica,sans-Serif" font-size="10.00">klyqa_ctl.klyqa_ctl.Client.devices</text>
</a>
</g>
</g>
<!-- Node1&#45;&gt;Node7 -->
<g id="edge6" class="edge">
<title>Node1&#45;&gt;Node7</title>
<path fill="none" stroke="midnightblue" d="M86.24,-104.15C105.01,-82.24 137.5,-48.43 173,-30 178.49,-27.15 184.38,-24.7 190.41,-22.6"/>
<polygon fill="midnightblue" stroke="midnightblue" points="191.5,-25.93 199.98,-19.59 189.39,-19.25 191.5,-25.93"/>
</g>
</g>
</svg>
