<?xml version="1.0" encoding="UTF-8" standalone="no"?>
<!DOCTYPE svg PUBLIC "-//W3C//DTD SVG 1.1//EN"
 "http://www.w3.org/Graphics/SVG/1.1/DTD/svg11.dtd">
<!-- Generated by graphviz version 2.43.0 (0)
 -->
<!-- Title: klyqa_ctl.devices.light.commands.RoutineDeleteCommand Pages: 1 -->
<svg width="398pt" height="607pt"
 viewBox="0.00 0.00 398.00 607.00" xmlns="http://www.w3.org/2000/svg" xmlns:xlink="http://www.w3.org/1999/xlink">
<g id="graph0" class="graph" transform="scale(1 1) rotate(0) translate(4 603)">
<title>klyqa_ctl.devices.light.commands.RoutineDeleteCommand</title>
<polygon fill="white" stroke="transparent" points="-4,4 -4,-603 394,-603 394,4 -4,4"/>
<!-- Node1 -->
<g id="node1" class="node">
<title>Node1</title>
<g id="a_node1"><a xlink:title=" ">
<polygon fill="#bfbfbf" stroke="black" points="102,-0.5 102,-90.5 288,-90.5 288,-0.5 102,-0.5"/>
<text text-anchor="start" x="110" y="-78.5" font-family="Helvetica,sans-Serif" font-size="10.00">klyqa_ctl.devices.light.commands.</text>
<text text-anchor="middle" x="195" y="-67.5" font-family="Helvetica,sans-Serif" font-size="10.00">RoutineDeleteCommand</text>
<polyline fill="none" stroke="black" points="102,-60.5 288,-60.5 "/>
<text text-anchor="start" x="110" y="-48.5" font-family="Helvetica,sans-Serif" font-size="10.00">+ action</text>
<text text-anchor="start" x="110" y="-37.5" font-family="Helvetica,sans-Serif" font-size="10.00">+ str</text>
<polyline fill="none" stroke="black" points="102,-30.5 288,-30.5 "/>
<text text-anchor="start" x="110" y="-18.5" font-family="Helvetica,sans-Serif" font-size="10.00">+ None __post_init__</text>
<text text-anchor="start" x="110" y="-7.5" font-family="Helvetica,sans-Serif" font-size="10.00">(self)</text>
</a>
</g>
</g>
<!-- Node2 -->
<g id="node2" class="node">
<title>Node2</title>
<g id="a_node2"><a xlink:href="classklyqa__ctl_1_1devices_1_1light_1_1commands_1_1RoutineCommand.html" target="_top" xlink:title=" ">
<polygon fill="white" stroke="black" points="0,-127.5 0,-228.5 186,-228.5 186,-127.5 0,-127.5"/>
<text text-anchor="start" x="8" y="-216.5" font-family="Helvetica,sans-Serif" font-size="10.00">klyqa_ctl.devices.light.commands.</text>
<text text-anchor="middle" x="93" y="-205.5" font-family="Helvetica,sans-Serif" font-size="10.00">RoutineCommand</text>
<polyline fill="none" stroke="black" points="0,-198.5 186,-198.5 "/>
<text text-anchor="start" x="8" y="-186.5" font-family="Helvetica,sans-Serif" font-size="10.00">+ type</text>
<text text-anchor="start" x="8" y="-175.5" font-family="Helvetica,sans-Serif" font-size="10.00">+ str</text>
<polyline fill="none" stroke="black" points="0,-168.5 186,-168.5 "/>
<text text-anchor="start" x="8" y="-156.5" font-family="Helvetica,sans-Serif" font-size="10.00">+ None __post_init__</text>
<text text-anchor="start" x="8" y="-145.5" font-family="Helvetica,sans-Serif" font-size="10.00">(self)</text>
<text text-anchor="start" x="8" y="-134.5" font-family="Helvetica,sans-Serif" font-size="10.00">+ TypeJson json(self)</text>
</a>
</g>
</g>
<!-- Node2&#45;&gt;Node1 -->
<g id="edge1" class="edge">
<title>Node2&#45;&gt;Node1</title>
<path fill="none" stroke="midnightblue" d="M138.13,-119.26C145.67,-109.61 153.38,-99.75 160.6,-90.52"/>
<polygon fill="none" stroke="midnightblue" points="135.25,-117.26 131.85,-127.29 140.77,-121.57 135.25,-117.26"/>
</g>
<!-- Node3 -->
<g id="node3" class="node">
<title>Node3</title>
<g id="a_node3"><a xlink:href="classklyqa__ctl_1_1general_1_1general_1_1CommandTyped.html" target="_top" xlink:title=" ">
<polygon fill="white" stroke="black" points="122.5,-381.5 122.5,-449.5 265.5,-449.5 265.5,-381.5 122.5,-381.5"/>
<text text-anchor="start" x="130.5" y="-437.5" font-family="Helvetica,sans-Serif" font-size="10.00">klyqa_ctl.general.general.</text>
<text text-anchor="middle" x="194" y="-426.5" font-family="Helvetica,sans-Serif" font-size="10.00">CommandTyped</text>
<polyline fill="none" stroke="black" points="122.5,-419.5 265.5,-419.5 "/>
<text text-anchor="start" x="130.5" y="-407.5" font-family="Helvetica,sans-Serif" font-size="10.00">+ str</text>
<polyline fill="none" stroke="black" points="122.5,-400.5 265.5,-400.5 "/>
<text text-anchor="start" x="130.5" y="-388.5" font-family="Helvetica,sans-Serif" font-size="10.00">+ TypeJson json(self)</text>
</a>
</g>
</g>
<!-- Node3&#45;&gt;Node2 -->
<g id="edge2" class="edge">
<title>Node3&#45;&gt;Node2</title>
<path fill="none" stroke="midnightblue" d="M175.77,-371.99C158.52,-331.78 132.63,-271.41 114.41,-228.93"/>
<polygon fill="none" stroke="midnightblue" points="172.59,-373.45 179.74,-381.26 179.02,-370.69 172.59,-373.45"/>
</g>
<!-- Node6 -->
<g id="node6" class="node">
<title>Node6</title>
<g id="a_node6"><a xlink:href="classklyqa__ctl_1_1devices_1_1light_1_1commands_1_1RequestCommand.html" target="_top" xlink:title=" ">
<polygon fill="white" stroke="black" points="183,-265.5 183,-344.5 369,-344.5 369,-265.5 183,-265.5"/>
<text text-anchor="start" x="191" y="-332.5" font-family="Helvetica,sans-Serif" font-size="10.00">klyqa_ctl.devices.light.commands.</text>
<text text-anchor="middle" x="276" y="-321.5" font-family="Helvetica,sans-Serif" font-size="10.00">RequestCommand</text>
<polyline fill="none" stroke="black" points="183,-314.5 369,-314.5 "/>
<text text-anchor="start" x="191" y="-302.5" font-family="Helvetica,sans-Serif" font-size="10.00">+ type</text>
<polyline fill="none" stroke="black" points="183,-295.5 369,-295.5 "/>
<text text-anchor="start" x="191" y="-283.5" font-family="Helvetica,sans-Serif" font-size="10.00">+ None __post_init__</text>
<text text-anchor="start" x="191" y="-272.5" font-family="Helvetica,sans-Serif" font-size="10.00">(self)</text>
</a>
</g>
</g>
<!-- Node3&#45;&gt;Node6 -->
<g id="edge6" class="edge">
<title>Node3&#45;&gt;Node6</title>
<path fill="none" stroke="midnightblue" d="M225.16,-373.27C232.26,-363.88 239.78,-353.93 246.79,-344.65"/>
<polygon fill="none" stroke="midnightblue" points="222.29,-371.27 219.05,-381.36 227.87,-375.49 222.29,-371.27"/>
</g>
<!-- Node4 -->
<g id="node4" class="node">
<title>Node4</title>
<g id="a_node4"><a xlink:href="classklyqa__ctl_1_1general_1_1general_1_1Command.html" target="_top" xlink:title=" ">
<polygon fill="white" stroke="black" points="122.5,-486.5 122.5,-598.5 265.5,-598.5 265.5,-486.5 122.5,-486.5"/>
<text text-anchor="start" x="130.5" y="-586.5" font-family="Helvetica,sans-Serif" font-size="10.00">klyqa_ctl.general.general.</text>
<text text-anchor="middle" x="194" y="-575.5" font-family="Helvetica,sans-Serif" font-size="10.00">Command</text>
<polyline fill="none" stroke="black" points="122.5,-568.5 265.5,-568.5 "/>
<text text-anchor="start" x="130.5" y="-556.5" font-family="Helvetica,sans-Serif" font-size="10.00">+ TypeJson</text>
<text text-anchor="start" x="130.5" y="-545.5" font-family="Helvetica,sans-Serif" font-size="10.00">+ default_factory</text>
<polyline fill="none" stroke="black" points="122.5,-538.5 265.5,-538.5 "/>
<text text-anchor="start" x="130.5" y="-526.5" font-family="Helvetica,sans-Serif" font-size="10.00">+ TypeJson json(self)</text>
<text text-anchor="start" x="130.5" y="-515.5" font-family="Helvetica,sans-Serif" font-size="10.00">+ TypeJson cloud(self)</text>
<text text-anchor="start" x="130.5" y="-504.5" font-family="Helvetica,sans-Serif" font-size="10.00">+ str msg_str(self)</text>
<text text-anchor="start" x="130.5" y="-493.5" font-family="Helvetica,sans-Serif" font-size="10.00">+ str __str__(self)</text>
</a>
</g>
</g>
<!-- Node4&#45;&gt;Node3 -->
<g id="edge3" class="edge">
<title>Node4&#45;&gt;Node3</title>
<path fill="none" stroke="midnightblue" d="M194,-476.26C194,-466.99 194,-457.8 194,-449.51"/>
<polygon fill="none" stroke="midnightblue" points="190.5,-476.31 194,-486.31 197.5,-476.31 190.5,-476.31"/>
</g>
<!-- Node5 -->
<g id="node5" class="node">
<title>Node5</title>
<g id="a_node5"><a xlink:href="classklyqa__ctl_1_1devices_1_1light_1_1commands_1_1TransitionCommand.html" target="_top" xlink:title=" ">
<polygon fill="white" stroke="black" points="204,-144 204,-212 390,-212 390,-144 204,-144"/>
<text text-anchor="start" x="212" y="-200" font-family="Helvetica,sans-Serif" font-size="10.00">klyqa_ctl.devices.light.commands.</text>
<text text-anchor="middle" x="297" y="-189" font-family="Helvetica,sans-Serif" font-size="10.00">TransitionCommand</text>
<polyline fill="none" stroke="black" points="204,-182 390,-182 "/>
<text text-anchor="start" x="212" y="-170" font-family="Helvetica,sans-Serif" font-size="10.00">+ int</text>
<polyline fill="none" stroke="black" points="204,-163 390,-163 "/>
<text text-anchor="start" x="212" y="-151" font-family="Helvetica,sans-Serif" font-size="10.00">+ TypeJson json(self)</text>
</a>
</g>
</g>
<!-- Node5&#45;&gt;Node1 -->
<g id="edge4" class="edge">
<title>Node5&#45;&gt;Node1</title>
<path fill="none" stroke="midnightblue" d="M264.58,-135.52C253.38,-121.19 240.79,-105.08 229.43,-90.55"/>
<polygon fill="none" stroke="midnightblue" points="262.08,-138.01 271,-143.73 267.6,-133.7 262.08,-138.01"/>
</g>
<!-- Node6&#45;&gt;Node5 -->
<g id="edge5" class="edge">
<title>Node6&#45;&gt;Node5</title>
<path fill="none" stroke="midnightblue" d="M284.2,-255.2C286.62,-240.77 289.22,-225.31 291.44,-212.12"/>
<polygon fill="none" stroke="midnightblue" points="280.68,-255.03 282.47,-265.48 287.58,-256.19 280.68,-255.03"/>
</g>
</g>
</svg>
