<?xml version="1.0" encoding="UTF-8" standalone="no"?>
<!DOCTYPE svg PUBLIC "-//W3C//DTD SVG 1.1//EN"
 "http://www.w3.org/Graphics/SVG/1.1/DTD/svg11.dtd">
<!-- Generated by graphviz version 2.43.0 (0)
 -->
<!-- Title: klyqa_ctl.account_control.AccountControl.load_username_cache Pages: 1 -->
<svg width="1073pt" height="39pt"
 viewBox="0.00 0.00 1073.00 39.00" xmlns="http://www.w3.org/2000/svg" xmlns:xlink="http://www.w3.org/1999/xlink">
<g id="graph0" class="graph" transform="scale(1 1) rotate(0) translate(4 35)">
<title>klyqa_ctl.account_control.AccountControl.load_username_cache</title>
<polygon fill="white" stroke="transparent" points="-4,4 -4,-35 1069,-35 1069,4 -4,4"/>
<!-- Node1 -->
<g id="node1" class="node">
<title>Node1</title>
<g id="a_node1"><a xlink:title=" ">
<polygon fill="#bfbfbf" stroke="black" points="0,-0.5 0,-30.5 203,-30.5 203,-0.5 0,-0.5"/>
<text text-anchor="start" x="8" y="-18.5" font-family="Helvetica,sans-Serif" font-size="10.00">klyqa_ctl.account_control.</text>
<text text-anchor="middle" x="101.5" y="-7.5" font-family="Helvetica,sans-Serif" font-size="10.00">AccountControl.load_username_cache</text>
</a>
</g>
</g>
<!-- Node2 -->
<g id="node2" class="node">
<title>Node2</title>
<g id="a_node2"><a xlink:href="namespaceklyqa__ctl_1_1general_1_1general.html#aa34dc716ff5492dc4f325a2ae1a73a4f" target="_top" xlink:title=" ">
<polygon fill="white" stroke="black" points="239,-0.5 239,-30.5 411,-30.5 411,-0.5 239,-0.5"/>
<text text-anchor="start" x="247" y="-18.5" font-family="Helvetica,sans-Serif" font-size="10.00">klyqa_ctl.general.general.async</text>
<text text-anchor="middle" x="325" y="-7.5" font-family="Helvetica,sans-Serif" font-size="10.00">_json_cache</text>
</a>
</g>
</g>
<!-- Node1&#45;&gt;Node2 -->
<g id="edge1" class="edge">
<title>Node1&#45;&gt;Node2</title>
<path fill="none" stroke="midnightblue" d="M203.2,-15.5C211.65,-15.5 220.18,-15.5 228.59,-15.5"/>
<polygon fill="midnightblue" stroke="midnightblue" points="228.77,-19 238.77,-15.5 228.77,-12 228.77,-19"/>
</g>
<!-- Node3 -->
<g id="node3" class="node">
<title>Node3</title>
<g id="a_node3"><a xlink:href="namespaceklyqa__ctl_1_1general_1_1general.html#ab2f9a22e98cd16d0d284d22382cfcb02" target="_top" xlink:title=" ">
<polygon fill="white" stroke="black" points="447,-0.5 447,-30.5 611,-30.5 611,-0.5 447,-0.5"/>
<text text-anchor="start" x="455" y="-18.5" font-family="Helvetica,sans-Serif" font-size="10.00">klyqa_ctl.general.general.task</text>
<text text-anchor="middle" x="529" y="-7.5" font-family="Helvetica,sans-Serif" font-size="10.00">_log_trace</text>
</a>
</g>
</g>
<!-- Node2&#45;&gt;Node3 -->
<g id="edge2" class="edge">
<title>Node2&#45;&gt;Node3</title>
<path fill="none" stroke="midnightblue" d="M411.08,-15.5C419.61,-15.5 428.29,-15.5 436.87,-15.5"/>
<polygon fill="midnightblue" stroke="midnightblue" points="436.89,-19 446.89,-15.5 436.89,-12 436.89,-19"/>
</g>
<!-- Node4 -->
<g id="node4" class="node">
<title>Node4</title>
<g id="a_node4"><a xlink:href="namespaceklyqa__ctl_1_1general_1_1general.html#a9df3b50dfc0fcc7c8ec991bb9be9c5ba" target="_top" xlink:title=" ">
<polygon fill="white" stroke="black" points="647,-6 647,-25 832,-25 832,-6 647,-6"/>
<text text-anchor="middle" x="739.5" y="-13" font-family="Helvetica,sans-Serif" font-size="10.00">klyqa_ctl.general.general.task_log</text>
</a>
</g>
</g>
<!-- Node3&#45;&gt;Node4 -->
<g id="edge3" class="edge">
<title>Node3&#45;&gt;Node4</title>
<path fill="none" stroke="midnightblue" d="M611.21,-15.5C619.59,-15.5 628.18,-15.5 636.75,-15.5"/>
<polygon fill="midnightblue" stroke="midnightblue" points="636.79,-19 646.79,-15.5 636.79,-12 636.79,-19"/>
</g>
<!-- Node5 -->
<g id="node5" class="node">
<title>Node5</title>
<g id="a_node5"><a xlink:href="namespaceklyqa__ctl_1_1general_1_1general.html#aea905150cafee39fa2ca211f1e60f012" target="_top" xlink:title=" ">
<polygon fill="white" stroke="black" points="868,-6 868,-25 1065,-25 1065,-6 868,-6"/>
<text text-anchor="middle" x="966.5" y="-13" font-family="Helvetica,sans-Serif" font-size="10.00">klyqa_ctl.general.general.task_name</text>
</a>
</g>
</g>
<!-- Node4&#45;&gt;Node5 -->
<g id="edge4" class="edge">
<title>Node4&#45;&gt;Node5</title>
<path fill="none" stroke="midnightblue" d="M832.02,-15.5C840.5,-15.5 849.15,-15.5 857.76,-15.5"/>
<polygon fill="midnightblue" stroke="midnightblue" points="857.83,-19 867.83,-15.5 857.83,-12 857.83,-19"/>
</g>
</g>
</svg>
