<?xml version="1.0" encoding="UTF-8" standalone="no"?>
<!DOCTYPE svg PUBLIC "-//W3C//DTD SVG 1.1//EN"
 "http://www.w3.org/Graphics/SVG/1.1/DTD/svg11.dtd">
<!-- Generated by graphviz version 2.43.0 (0)
 -->
<!-- Title: klyqa_ctl.controller_data.ControllerData.aes_keys Pages: 1 -->
<svg width="578pt" height="79pt"
 viewBox="0.00 0.00 578.00 79.00" xmlns="http://www.w3.org/2000/svg" xmlns:xlink="http://www.w3.org/1999/xlink">
<g id="graph0" class="graph" transform="scale(1 1) rotate(0) translate(4 75)">
<title>klyqa_ctl.controller_data.ControllerData.aes_keys</title>
<polygon fill="white" stroke="transparent" points="-4,4 -4,-75 574,-75 574,4 -4,4"/>
<!-- Node1 -->
<g id="node1" class="node">
<title>Node1</title>
<g id="a_node1"><a xlink:title=" ">
<polygon fill="#bfbfbf" stroke="black" points="404,-0.5 404,-30.5 570,-30.5 570,-0.5 404,-0.5"/>
<text text-anchor="start" x="412" y="-18.5" font-family="Helvetica,sans-Serif" font-size="10.00">klyqa_ctl.controller</text>
<text text-anchor="middle" x="487" y="-7.5" font-family="Helvetica,sans-Serif" font-size="10.00">_data.ControllerData.aes_keys</text>
</a>
</g>
</g>
<!-- Node2 -->
<g id="node2" class="node">
<title>Node2</title>
<g id="a_node2"><a xlink:href="classklyqa__ctl_1_1klyqa__ctl_1_1Client.html#ad5c42cd8dd34ed1d6329040e164bfc2e" target="_top" xlink:title=" ">
<polygon fill="white" stroke="black" points="202,-22.5 202,-52.5 368,-52.5 368,-22.5 202,-22.5"/>
<text text-anchor="start" x="210" y="-40.5" font-family="Helvetica,sans-Serif" font-size="10.00">klyqa_ctl.klyqa_ctl.Client.send</text>
<text text-anchor="middle" x="285" y="-29.5" font-family="Helvetica,sans-Serif" font-size="10.00">_to_devices</text>
</a>
</g>
</g>
<!-- Node1&#45;&gt;Node2 -->
<g id="edge1" class="edge">
<title>Node1&#45;&gt;Node2</title>
<path fill="none" stroke="midnightblue" d="M393.81,-25.64C385.27,-26.58 376.66,-27.53 368.22,-28.46"/>
<polygon fill="midnightblue" stroke="midnightblue" points="394.23,-29.12 403.79,-24.54 393.46,-22.16 394.23,-29.12"/>
</g>
<!-- Node3 -->
<g id="node3" class="node">
<title>Node3</title>
<g id="a_node3"><a xlink:href="classklyqa__ctl_1_1klyqa__ctl_1_1Client.html#a7a93bda9f242d678a4208d0962837f11" target="_top" xlink:title=" ">
<polygon fill="white" stroke="black" points="0,-0.5 0,-30.5 166,-30.5 166,-0.5 0,-0.5"/>
<text text-anchor="start" x="8" y="-18.5" font-family="Helvetica,sans-Serif" font-size="10.00">klyqa_ctl.klyqa_ctl.Client.send</text>
<text text-anchor="middle" x="83" y="-7.5" font-family="Helvetica,sans-Serif" font-size="10.00">_to_devices_wrapped</text>
</a>
</g>
</g>
<!-- Node1&#45;&gt;Node3 -->
<g id="edge4" class="edge">
<title>Node1&#45;&gt;Node3</title>
<path fill="none" stroke="midnightblue" d="M393.64,-13.78C384.97,-13.67 376.32,-13.57 368,-13.5 294.22,-12.87 275.78,-12.87 202,-13.5 190.42,-13.6 178.21,-13.75 166.2,-13.93"/>
<polygon fill="midnightblue" stroke="midnightblue" points="393.75,-17.29 403.8,-13.93 393.85,-10.29 393.75,-17.29"/>
</g>
<!-- Node2&#45;&gt;Node2 -->
<g id="edge2" class="edge">
<title>Node2&#45;&gt;Node2</title>
<path fill="none" stroke="midnightblue" d="M320.89,-62.96C316.44,-67.68 304.47,-71 285,-71 253.04,-71 241.31,-62.06 249.8,-52.66"/>
<polygon fill="midnightblue" stroke="midnightblue" points="324.36,-62.4 320.2,-52.66 317.38,-62.87 324.36,-62.4"/>
</g>
<!-- Node2&#45;&gt;Node3 -->
<g id="edge3" class="edge">
<title>Node2&#45;&gt;Node3</title>
<path fill="none" stroke="midnightblue" d="M191.81,-27.36C183.27,-26.42 174.66,-25.47 166.22,-24.54"/>
<polygon fill="midnightblue" stroke="midnightblue" points="191.46,-30.84 201.79,-28.46 192.23,-23.88 191.46,-30.84"/>
</g>
</g>
</svg>
