<?xml version="1.0" encoding="UTF-8" standalone="no"?>
<!DOCTYPE svg PUBLIC "-//W3C//DTD SVG 1.1//EN"
 "http://www.w3.org/Graphics/SVG/1.1/DTD/svg11.dtd">
<!-- Generated by graphviz version 2.43.0 (0)
 -->
<!-- Title: klyqa_ctl.general.general.CommandTyped Pages: 1 -->
<svg width="2318pt" height="673pt"
 viewBox="0.00 0.00 2318.00 673.00" xmlns="http://www.w3.org/2000/svg" xmlns:xlink="http://www.w3.org/1999/xlink">
<g id="graph0" class="graph" transform="scale(1 1) rotate(0) translate(4 669)">
<title>klyqa_ctl.general.general.CommandTyped</title>
<polygon fill="white" stroke="transparent" points="-4,4 -4,-669 2314,-669 2314,4 -4,4"/>
<!-- Node1 -->
<g id="node1" class="node">
<title>Node1</title>
<g id="a_node1"><a xlink:title=" ">
<polygon fill="#bfbfbf" stroke="black" points="739.5,-447.5 739.5,-515.5 882.5,-515.5 882.5,-447.5 739.5,-447.5"/>
<text text-anchor="start" x="747.5" y="-503.5" font-family="Helvetica,sans-Serif" font-size="10.00">klyqa_ctl.general.general.</text>
<text text-anchor="middle" x="811" y="-492.5" font-family="Helvetica,sans-Serif" font-size="10.00">CommandTyped</text>
<polyline fill="none" stroke="black" points="739.5,-485.5 882.5,-485.5 "/>
<text text-anchor="start" x="747.5" y="-473.5" font-family="Helvetica,sans-Serif" font-size="10.00">+ str</text>
<polyline fill="none" stroke="black" points="739.5,-466.5 882.5,-466.5 "/>
<text text-anchor="start" x="747.5" y="-454.5" font-family="Helvetica,sans-Serif" font-size="10.00">+ TypeJson json(self)</text>
</a>
</g>
</g>
<!-- Node3 -->
<g id="node3" class="node">
<title>Node3</title>
<g id="a_node3"><a xlink:href="classklyqa__ctl_1_1devices_1_1device_1_1CommandWithCheckValues.html" target="_top" xlink:title=" ">
<polygon fill="white" stroke="black" points="140,-315 140,-394 292,-394 292,-315 140,-315"/>
<text text-anchor="start" x="148" y="-382" font-family="Helvetica,sans-Serif" font-size="10.00">klyqa_ctl.devices.device.</text>
<text text-anchor="middle" x="216" y="-371" font-family="Helvetica,sans-Serif" font-size="10.00">CommandWithCheckValues</text>
<polyline fill="none" stroke="black" points="140,-364 292,-364 "/>
<text text-anchor="start" x="148" y="-352" font-family="Helvetica,sans-Serif" font-size="10.00">+ bool</text>
<polyline fill="none" stroke="black" points="140,-345 292,-345 "/>
<text text-anchor="start" x="148" y="-333" font-family="Helvetica,sans-Serif" font-size="10.00">+ bool check_values(self,</text>
<text text-anchor="start" x="148" y="-322" font-family="Helvetica,sans-Serif" font-size="10.00"> Device device)</text>
</a>
</g>
</g>
<!-- Node1&#45;&gt;Node3 -->
<g id="edge2" class="edge">
<title>Node1&#45;&gt;Node3</title>
<path fill="none" stroke="midnightblue" d="M729.29,-480.32C626.28,-477.66 445.23,-464.79 301,-411 289.61,-406.75 278.18,-400.76 267.56,-394.28"/>
<polygon fill="none" stroke="midnightblue" points="729.24,-483.82 739.32,-480.55 729.41,-476.82 729.24,-483.82"/>
</g>
<!-- Node10 -->
<g id="node10" class="node">
<title>Node10</title>
<g id="a_node10"><a xlink:href="classklyqa__ctl_1_1devices_1_1light_1_1commands_1_1FactoryResetCommand.html" target="_top" xlink:title=" ">
<polygon fill="white" stroke="black" points="310,-315 310,-394 496,-394 496,-315 310,-315"/>
<text text-anchor="start" x="318" y="-382" font-family="Helvetica,sans-Serif" font-size="10.00">klyqa_ctl.devices.light.commands.</text>
<text text-anchor="middle" x="403" y="-371" font-family="Helvetica,sans-Serif" font-size="10.00">FactoryResetCommand</text>
<polyline fill="none" stroke="black" points="310,-364 496,-364 "/>
<text text-anchor="start" x="318" y="-352" font-family="Helvetica,sans-Serif" font-size="10.00">+ type</text>
<polyline fill="none" stroke="black" points="310,-345 496,-345 "/>
<text text-anchor="start" x="318" y="-333" font-family="Helvetica,sans-Serif" font-size="10.00">+ None __post_init__</text>
<text text-anchor="start" x="318" y="-322" font-family="Helvetica,sans-Serif" font-size="10.00">(self)</text>
</a>
</g>
</g>
<!-- Node1&#45;&gt;Node10 -->
<g id="edge9" class="edge">
<title>Node1&#45;&gt;Node10</title>
<path fill="none" stroke="midnightblue" d="M728.97,-468.19C666.31,-457.28 578.51,-438.74 505,-411 492.55,-406.3 479.74,-400.34 467.58,-394.07"/>
<polygon fill="none" stroke="midnightblue" points="728.75,-471.7 739.2,-469.94 729.93,-464.8 728.75,-471.7"/>
</g>
<!-- Node11 -->
<g id="node11" class="node">
<title>Node11</title>
<g id="a_node11"><a xlink:href="classklyqa__ctl_1_1devices_1_1light_1_1commands_1_1FwUpdateCommand.html" target="_top" xlink:title=" ">
<polygon fill="white" stroke="black" points="514,-298.5 514,-410.5 700,-410.5 700,-298.5 514,-298.5"/>
<text text-anchor="start" x="522" y="-398.5" font-family="Helvetica,sans-Serif" font-size="10.00">klyqa_ctl.devices.light.commands.</text>
<text text-anchor="middle" x="607" y="-387.5" font-family="Helvetica,sans-Serif" font-size="10.00">FwUpdateCommand</text>
<polyline fill="none" stroke="black" points="514,-380.5 700,-380.5 "/>
<text text-anchor="start" x="522" y="-368.5" font-family="Helvetica,sans-Serif" font-size="10.00">+ type</text>
<text text-anchor="start" x="522" y="-357.5" font-family="Helvetica,sans-Serif" font-size="10.00">+ str</text>
<polyline fill="none" stroke="black" points="514,-350.5 700,-350.5 "/>
<text text-anchor="start" x="522" y="-338.5" font-family="Helvetica,sans-Serif" font-size="10.00">+ None __post_init__</text>
<text text-anchor="start" x="522" y="-327.5" font-family="Helvetica,sans-Serif" font-size="10.00">(self)</text>
<text text-anchor="start" x="522" y="-316.5" font-family="Helvetica,sans-Serif" font-size="10.00">+ TypeJson url_json(self)</text>
<text text-anchor="start" x="522" y="-305.5" font-family="Helvetica,sans-Serif" font-size="10.00">+ TypeJson json(self)</text>
</a>
</g>
</g>
<!-- Node1&#45;&gt;Node11 -->
<g id="edge10" class="edge">
<title>Node1&#45;&gt;Node11</title>
<path fill="none" stroke="midnightblue" d="M748.32,-442.09C732.13,-432.17 714.39,-421.3 697.11,-410.71"/>
<polygon fill="none" stroke="midnightblue" points="746.78,-445.25 757.13,-447.49 750.44,-439.29 746.78,-445.25"/>
</g>
<!-- Node12 -->
<g id="node12" class="node">
<title>Node12</title>
<g id="a_node12"><a xlink:href="classklyqa__ctl_1_1devices_1_1light_1_1commands_1_1PingCommand.html" target="_top" xlink:title=" ">
<polygon fill="white" stroke="black" points="718,-315 718,-394 904,-394 904,-315 718,-315"/>
<text text-anchor="start" x="726" y="-382" font-family="Helvetica,sans-Serif" font-size="10.00">klyqa_ctl.devices.light.commands.</text>
<text text-anchor="middle" x="811" y="-371" font-family="Helvetica,sans-Serif" font-size="10.00">PingCommand</text>
<polyline fill="none" stroke="black" points="718,-364 904,-364 "/>
<text text-anchor="start" x="726" y="-352" font-family="Helvetica,sans-Serif" font-size="10.00">+ type</text>
<polyline fill="none" stroke="black" points="718,-345 904,-345 "/>
<text text-anchor="start" x="726" y="-333" font-family="Helvetica,sans-Serif" font-size="10.00">+ None __post_init__</text>
<text text-anchor="start" x="726" y="-322" font-family="Helvetica,sans-Serif" font-size="10.00">(self)</text>
</a>
</g>
</g>
<!-- Node1&#45;&gt;Node12 -->
<g id="edge11" class="edge">
<title>Node1&#45;&gt;Node12</title>
<path fill="none" stroke="midnightblue" d="M811,-436.99C811,-423.05 811,-407.72 811,-394.15"/>
<polygon fill="none" stroke="midnightblue" points="807.5,-437.33 811,-447.33 814.5,-437.33 807.5,-437.33"/>
</g>
<!-- Node13 -->
<g id="node13" class="node">
<title>Node13</title>
<g id="a_node13"><a xlink:href="classklyqa__ctl_1_1devices_1_1light_1_1commands_1_1RebootCommand.html" target="_top" xlink:title=" ">
<polygon fill="white" stroke="black" points="922,-315 922,-394 1108,-394 1108,-315 922,-315"/>
<text text-anchor="start" x="930" y="-382" font-family="Helvetica,sans-Serif" font-size="10.00">klyqa_ctl.devices.light.commands.</text>
<text text-anchor="middle" x="1015" y="-371" font-family="Helvetica,sans-Serif" font-size="10.00">RebootCommand</text>
<polyline fill="none" stroke="black" points="922,-364 1108,-364 "/>
<text text-anchor="start" x="930" y="-352" font-family="Helvetica,sans-Serif" font-size="10.00">+ type</text>
<polyline fill="none" stroke="black" points="922,-345 1108,-345 "/>
<text text-anchor="start" x="930" y="-333" font-family="Helvetica,sans-Serif" font-size="10.00">+ None __post_init__</text>
<text text-anchor="start" x="930" y="-322" font-family="Helvetica,sans-Serif" font-size="10.00">(self)</text>
</a>
</g>
</g>
<!-- Node1&#45;&gt;Node13 -->
<g id="edge12" class="edge">
<title>Node1&#45;&gt;Node13</title>
<path fill="none" stroke="midnightblue" d="M873.52,-442.19C898.48,-426.9 927.15,-409.33 952.14,-394.02"/>
<polygon fill="none" stroke="midnightblue" points="871.56,-439.29 864.87,-447.49 875.22,-445.25 871.56,-439.29"/>
</g>
<!-- Node14 -->
<g id="node14" class="node">
<title>Node14</title>
<g id="a_node14"><a xlink:href="classklyqa__ctl_1_1devices_1_1light_1_1commands_1_1RequestCommand.html" target="_top" xlink:title=" ">
<polygon fill="white" stroke="black" points="1126,-315 1126,-394 1312,-394 1312,-315 1126,-315"/>
<text text-anchor="start" x="1134" y="-382" font-family="Helvetica,sans-Serif" font-size="10.00">klyqa_ctl.devices.light.commands.</text>
<text text-anchor="middle" x="1219" y="-371" font-family="Helvetica,sans-Serif" font-size="10.00">RequestCommand</text>
<polyline fill="none" stroke="black" points="1126,-364 1312,-364 "/>
<text text-anchor="start" x="1134" y="-352" font-family="Helvetica,sans-Serif" font-size="10.00">+ type</text>
<polyline fill="none" stroke="black" points="1126,-345 1312,-345 "/>
<text text-anchor="start" x="1134" y="-333" font-family="Helvetica,sans-Serif" font-size="10.00">+ None __post_init__</text>
<text text-anchor="start" x="1134" y="-322" font-family="Helvetica,sans-Serif" font-size="10.00">(self)</text>
</a>
</g>
</g>
<!-- Node1&#45;&gt;Node14 -->
<g id="edge13" class="edge">
<title>Node1&#45;&gt;Node14</title>
<path fill="none" stroke="midnightblue" d="M893.03,-468.19C955.69,-457.28 1043.49,-438.74 1117,-411 1129.45,-406.3 1142.26,-400.34 1154.42,-394.07"/>
<polygon fill="none" stroke="midnightblue" points="892.07,-464.8 882.8,-469.94 893.25,-471.7 892.07,-464.8"/>
</g>
<!-- Node25 -->
<g id="node25" class="node">
<title>Node25</title>
<g id="a_node25"><a xlink:href="classklyqa__ctl_1_1devices_1_1light_1_1commands_1_1RoutineCommand.html" target="_top" xlink:title=" ">
<polygon fill="white" stroke="black" points="2124,-155 2124,-256 2310,-256 2310,-155 2124,-155"/>
<text text-anchor="start" x="2132" y="-244" font-family="Helvetica,sans-Serif" font-size="10.00">klyqa_ctl.devices.light.commands.</text>
<text text-anchor="middle" x="2217" y="-233" font-family="Helvetica,sans-Serif" font-size="10.00">RoutineCommand</text>
<polyline fill="none" stroke="black" points="2124,-226 2310,-226 "/>
<text text-anchor="start" x="2132" y="-214" font-family="Helvetica,sans-Serif" font-size="10.00">+ type</text>
<text text-anchor="start" x="2132" y="-203" font-family="Helvetica,sans-Serif" font-size="10.00">+ str</text>
<polyline fill="none" stroke="black" points="2124,-196 2310,-196 "/>
<text text-anchor="start" x="2132" y="-184" font-family="Helvetica,sans-Serif" font-size="10.00">+ None __post_init__</text>
<text text-anchor="start" x="2132" y="-173" font-family="Helvetica,sans-Serif" font-size="10.00">(self)</text>
<text text-anchor="start" x="2132" y="-162" font-family="Helvetica,sans-Serif" font-size="10.00">+ TypeJson json(self)</text>
</a>
</g>
</g>
<!-- Node1&#45;&gt;Node25 -->
<g id="edge29" class="edge">
<title>Node1&#45;&gt;Node25</title>
<path fill="none" stroke="midnightblue" d="M892.66,-470.65C993.52,-458.19 1170.26,-435.4 1321,-411 1675.44,-353.63 1776.73,-382.38 2115,-262 2120.03,-260.21 2125.12,-258.19 2130.19,-256.02"/>
<polygon fill="none" stroke="midnightblue" points="892.04,-467.2 882.54,-471.9 892.89,-474.15 892.04,-467.2"/>
</g>
<!-- Node2 -->
<g id="node2" class="node">
<title>Node2</title>
<g id="a_node2"><a xlink:href="classklyqa__ctl_1_1general_1_1general_1_1Command.html" target="_top" xlink:title=" ">
<polygon fill="white" stroke="black" points="739.5,-552.5 739.5,-664.5 882.5,-664.5 882.5,-552.5 739.5,-552.5"/>
<text text-anchor="start" x="747.5" y="-652.5" font-family="Helvetica,sans-Serif" font-size="10.00">klyqa_ctl.general.general.</text>
<text text-anchor="middle" x="811" y="-641.5" font-family="Helvetica,sans-Serif" font-size="10.00">Command</text>
<polyline fill="none" stroke="black" points="739.5,-634.5 882.5,-634.5 "/>
<text text-anchor="start" x="747.5" y="-622.5" font-family="Helvetica,sans-Serif" font-size="10.00">+ TypeJson</text>
<text text-anchor="start" x="747.5" y="-611.5" font-family="Helvetica,sans-Serif" font-size="10.00">+ default_factory</text>
<polyline fill="none" stroke="black" points="739.5,-604.5 882.5,-604.5 "/>
<text text-anchor="start" x="747.5" y="-592.5" font-family="Helvetica,sans-Serif" font-size="10.00">+ TypeJson json(self)</text>
<text text-anchor="start" x="747.5" y="-581.5" font-family="Helvetica,sans-Serif" font-size="10.00">+ TypeJson cloud(self)</text>
<text text-anchor="start" x="747.5" y="-570.5" font-family="Helvetica,sans-Serif" font-size="10.00">+ str msg_str(self)</text>
<text text-anchor="start" x="747.5" y="-559.5" font-family="Helvetica,sans-Serif" font-size="10.00">+ str __str__(self)</text>
</a>
</g>
</g>
<!-- Node2&#45;&gt;Node1 -->
<g id="edge1" class="edge">
<title>Node2&#45;&gt;Node1</title>
<path fill="none" stroke="midnightblue" d="M811,-542.26C811,-532.99 811,-523.8 811,-515.51"/>
<polygon fill="none" stroke="midnightblue" points="807.5,-542.31 811,-552.31 814.5,-542.31 807.5,-542.31"/>
</g>
<!-- Node4 -->
<g id="node4" class="node">
<title>Node4</title>
<g id="a_node4"><a xlink:href="classklyqa__ctl_1_1devices_1_1light_1_1commands_1_1CommandWithCheckValuesLight.html" target="_top" xlink:title=" ">
<polygon fill="white" stroke="black" points="0,-160.5 0,-250.5 186,-250.5 186,-160.5 0,-160.5"/>
<text text-anchor="start" x="8" y="-238.5" font-family="Helvetica,sans-Serif" font-size="10.00">klyqa_ctl.devices.light.commands.</text>
<text text-anchor="middle" x="93" y="-227.5" font-family="Helvetica,sans-Serif" font-size="10.00">CommandWithCheckValuesLight</text>
<polyline fill="none" stroke="black" points="0,-220.5 186,-220.5 "/>
<text text-anchor="start" x="8" y="-208.5" font-family="Helvetica,sans-Serif" font-size="10.00">+ None</text>
<text text-anchor="start" x="8" y="-197.5" font-family="Helvetica,sans-Serif" font-size="10.00">&#45; _light</text>
<polyline fill="none" stroke="black" points="0,-190.5 186,-190.5 "/>
<text text-anchor="start" x="8" y="-178.5" font-family="Helvetica,sans-Serif" font-size="10.00">+ bool check_values(self,</text>
<text text-anchor="start" x="8" y="-167.5" font-family="Helvetica,sans-Serif" font-size="10.00"> Device device)</text>
</a>
</g>
</g>
<!-- Node3&#45;&gt;Node4 -->
<g id="edge3" class="edge">
<title>Node3&#45;&gt;Node4</title>
<path fill="none" stroke="midnightblue" d="M176.93,-306.8C161.87,-288.8 144.73,-268.32 129.88,-250.58"/>
<polygon fill="none" stroke="midnightblue" points="174.58,-309.45 183.68,-314.88 179.95,-304.96 174.58,-309.45"/>
</g>
<!-- Node9 -->
<g id="node9" class="node">
<title>Node9</title>
<g id="a_node9"><a xlink:href="classklyqa__ctl_1_1devices_1_1light_1_1commands_1_1ExternalSourceCommand.html" target="_top" xlink:title=" ">
<polygon fill="white" stroke="black" points="204,-155 204,-256 390,-256 390,-155 204,-155"/>
<text text-anchor="start" x="212" y="-244" font-family="Helvetica,sans-Serif" font-size="10.00">klyqa_ctl.devices.light.commands.</text>
<text text-anchor="middle" x="297" y="-233" font-family="Helvetica,sans-Serif" font-size="10.00">ExternalSourceCommand</text>
<polyline fill="none" stroke="black" points="204,-226 390,-226 "/>
<text text-anchor="start" x="212" y="-214" font-family="Helvetica,sans-Serif" font-size="10.00">+ ExternalSourceProtocol</text>
<text text-anchor="start" x="212" y="-203" font-family="Helvetica,sans-Serif" font-size="10.00">+ int</text>
<polyline fill="none" stroke="black" points="204,-196 390,-196 "/>
<text text-anchor="start" x="212" y="-184" font-family="Helvetica,sans-Serif" font-size="10.00">+ TypeJson json(self)</text>
<text text-anchor="start" x="212" y="-173" font-family="Helvetica,sans-Serif" font-size="10.00">+ bool check_values(self,</text>
<text text-anchor="start" x="212" y="-162" font-family="Helvetica,sans-Serif" font-size="10.00"> Device device)</text>
</a>
</g>
</g>
<!-- Node3&#45;&gt;Node9 -->
<g id="edge8" class="edge">
<title>Node3&#45;&gt;Node9</title>
<path fill="none" stroke="midnightblue" d="M242.3,-305.78C251.03,-289.92 260.78,-272.23 269.6,-256.22"/>
<polygon fill="none" stroke="midnightblue" points="239.04,-304.43 237.28,-314.88 245.17,-307.81 239.04,-304.43"/>
</g>
<!-- Node5 -->
<g id="node5" class="node">
<title>Node5</title>
<g id="a_node5"><a xlink:href="classklyqa__ctl_1_1devices_1_1light_1_1commands_1_1BrightnessCommand.html" target="_top" xlink:title=" ">
<polygon fill="white" stroke="black" points="0,-0.5 0,-112.5 186,-112.5 186,-0.5 0,-0.5"/>
<text text-anchor="start" x="8" y="-100.5" font-family="Helvetica,sans-Serif" font-size="10.00">klyqa_ctl.devices.light.commands.</text>
<text text-anchor="middle" x="93" y="-89.5" font-family="Helvetica,sans-Serif" font-size="10.00">BrightnessCommand</text>
<polyline fill="none" stroke="black" points="0,-82.5 186,-82.5 "/>
<text text-anchor="start" x="8" y="-70.5" font-family="Helvetica,sans-Serif" font-size="10.00">+ int</text>
<polyline fill="none" stroke="black" points="0,-63.5 186,-63.5 "/>
<text text-anchor="start" x="8" y="-51.5" font-family="Helvetica,sans-Serif" font-size="10.00">+ TypeJson brightness</text>
<text text-anchor="start" x="8" y="-40.5" font-family="Helvetica,sans-Serif" font-size="10.00">_json(self)</text>
<text text-anchor="start" x="8" y="-29.5" font-family="Helvetica,sans-Serif" font-size="10.00">+ TypeJson json(self)</text>
<text text-anchor="start" x="8" y="-18.5" font-family="Helvetica,sans-Serif" font-size="10.00">+ bool check_values(self,</text>
<text text-anchor="start" x="8" y="-7.5" font-family="Helvetica,sans-Serif" font-size="10.00"> Device device)</text>
</a>
</g>
</g>
<!-- Node4&#45;&gt;Node5 -->
<g id="edge4" class="edge">
<title>Node4&#45;&gt;Node5</title>
<path fill="none" stroke="midnightblue" d="M93,-150.27C93,-137.95 93,-124.86 93,-112.52"/>
<polygon fill="none" stroke="midnightblue" points="89.5,-150.4 93,-160.4 96.5,-150.4 89.5,-150.4"/>
</g>
<!-- Node6 -->
<g id="node6" class="node">
<title>Node6</title>
<g id="a_node6"><a xlink:href="classklyqa__ctl_1_1devices_1_1light_1_1commands_1_1ColorCommand.html" target="_top" xlink:title=" ">
<polygon fill="white" stroke="black" points="204,-0.5 204,-112.5 390,-112.5 390,-0.5 204,-0.5"/>
<text text-anchor="start" x="212" y="-100.5" font-family="Helvetica,sans-Serif" font-size="10.00">klyqa_ctl.devices.light.commands.</text>
<text text-anchor="middle" x="297" y="-89.5" font-family="Helvetica,sans-Serif" font-size="10.00">ColorCommand</text>
<polyline fill="none" stroke="black" points="204,-82.5 390,-82.5 "/>
<text text-anchor="start" x="212" y="-70.5" font-family="Helvetica,sans-Serif" font-size="10.00">+ RgbColor</text>
<polyline fill="none" stroke="black" points="204,-63.5 390,-63.5 "/>
<text text-anchor="start" x="212" y="-51.5" font-family="Helvetica,sans-Serif" font-size="10.00">+ TypeJson color_json</text>
<text text-anchor="start" x="212" y="-40.5" font-family="Helvetica,sans-Serif" font-size="10.00">(self)</text>
<text text-anchor="start" x="212" y="-29.5" font-family="Helvetica,sans-Serif" font-size="10.00">+ TypeJson json(self)</text>
<text text-anchor="start" x="212" y="-18.5" font-family="Helvetica,sans-Serif" font-size="10.00">+ bool check_values(self,</text>
<text text-anchor="start" x="212" y="-7.5" font-family="Helvetica,sans-Serif" font-size="10.00"> Device device)</text>
</a>
</g>
</g>
<!-- Node4&#45;&gt;Node6 -->
<g id="edge5" class="edge">
<title>Node4&#45;&gt;Node6</title>
<path fill="none" stroke="midnightblue" d="M162.41,-154.48C181.16,-140.97 201.55,-126.28 220.65,-112.52"/>
<polygon fill="none" stroke="midnightblue" points="160.27,-151.71 154.21,-160.4 164.37,-157.39 160.27,-151.71"/>
</g>
<!-- Node7 -->
<g id="node7" class="node">
<title>Node7</title>
<g id="a_node7"><a xlink:href="classklyqa__ctl_1_1devices_1_1light_1_1commands_1_1RoutinePutCommand.html" target="_top" xlink:title=" ">
<polygon fill="white" stroke="black" points="612,-0.5 612,-112.5 798,-112.5 798,-0.5 612,-0.5"/>
<text text-anchor="start" x="620" y="-100.5" font-family="Helvetica,sans-Serif" font-size="10.00">klyqa_ctl.devices.light.commands.</text>
<text text-anchor="middle" x="705" y="-89.5" font-family="Helvetica,sans-Serif" font-size="10.00">RoutinePutCommand</text>
<polyline fill="none" stroke="black" points="612,-82.5 798,-82.5 "/>
<text text-anchor="start" x="620" y="-70.5" font-family="Helvetica,sans-Serif" font-size="10.00">+ action</text>
<text text-anchor="start" x="620" y="-59.5" font-family="Helvetica,sans-Serif" font-size="10.00">+ str</text>
<polyline fill="none" stroke="black" points="612,-52.5 798,-52.5 "/>
<text text-anchor="start" x="620" y="-40.5" font-family="Helvetica,sans-Serif" font-size="10.00">+ None __post_init__</text>
<text text-anchor="start" x="620" y="-29.5" font-family="Helvetica,sans-Serif" font-size="10.00">(self)</text>
<text text-anchor="start" x="620" y="-18.5" font-family="Helvetica,sans-Serif" font-size="10.00">+ bool check_values(self,</text>
<text text-anchor="start" x="620" y="-7.5" font-family="Helvetica,sans-Serif" font-size="10.00"> Device device)</text>
</a>
</g>
</g>
<!-- Node4&#45;&gt;Node7 -->
<g id="edge6" class="edge">
<title>Node4&#45;&gt;Node7</title>
<path fill="none" stroke="midnightblue" d="M175.12,-156.21C181.72,-153.45 188.39,-151 195,-149 369.27,-96.39 428.73,-165.61 603,-113 605.99,-112.1 608.99,-111.1 612,-110.02"/>
<polygon fill="none" stroke="midnightblue" points="173.27,-153.2 165.53,-160.45 176.09,-159.61 173.27,-153.2"/>
</g>
<!-- Node8 -->
<g id="node8" class="node">
<title>Node8</title>
<g id="a_node8"><a xlink:href="classklyqa__ctl_1_1devices_1_1light_1_1commands_1_1TemperatureCommand.html" target="_top" xlink:title=" ">
<polygon fill="white" stroke="black" points="408,-0.5 408,-112.5 594,-112.5 594,-0.5 408,-0.5"/>
<text text-anchor="start" x="416" y="-100.5" font-family="Helvetica,sans-Serif" font-size="10.00">klyqa_ctl.devices.light.commands.</text>
<text text-anchor="middle" x="501" y="-89.5" font-family="Helvetica,sans-Serif" font-size="10.00">TemperatureCommand</text>
<polyline fill="none" stroke="black" points="408,-82.5 594,-82.5 "/>
<text text-anchor="start" x="416" y="-70.5" font-family="Helvetica,sans-Serif" font-size="10.00">+ int</text>
<polyline fill="none" stroke="black" points="408,-63.5 594,-63.5 "/>
<text text-anchor="start" x="416" y="-51.5" font-family="Helvetica,sans-Serif" font-size="10.00">+ TypeJson temperature</text>
<text text-anchor="start" x="416" y="-40.5" font-family="Helvetica,sans-Serif" font-size="10.00">_json(self)</text>
<text text-anchor="start" x="416" y="-29.5" font-family="Helvetica,sans-Serif" font-size="10.00">+ TypeJson json(self)</text>
<text text-anchor="start" x="416" y="-18.5" font-family="Helvetica,sans-Serif" font-size="10.00">+ bool check_values(self,</text>
<text text-anchor="start" x="416" y="-7.5" font-family="Helvetica,sans-Serif" font-size="10.00"> Device device)</text>
</a>
</g>
</g>
<!-- Node4&#45;&gt;Node8 -->
<g id="edge7" class="edge">
<title>Node4&#45;&gt;Node8</title>
<path fill="none" stroke="midnightblue" d="M176.92,-156.15C182.94,-153.52 189.01,-151.1 195,-149 281.9,-118.6 312.1,-143.4 399,-113 401.95,-111.97 404.92,-110.86 407.89,-109.68"/>
<polygon fill="none" stroke="midnightblue" points="175.14,-153.11 167.5,-160.45 178.05,-159.48 175.14,-153.11"/>
</g>
<!-- Node14&#45;&gt;Node9 -->
<g id="edge14" class="edge">
<title>Node14&#45;&gt;Node9</title>
<path fill="none" stroke="midnightblue" d="M1149.45,-310.42C1138.89,-305.44 1127.88,-301.06 1117,-298 809.42,-211.48 706.58,-348.52 399,-262 393.18,-260.36 387.32,-258.35 381.51,-256.06"/>
<polygon fill="none" stroke="midnightblue" points="1148.08,-313.65 1158.6,-314.93 1151.18,-307.37 1148.08,-313.65"/>
</g>
<!-- Node15 -->
<g id="node15" class="node">
<title>Node15</title>
<g id="a_node15"><a xlink:href="classklyqa__ctl_1_1devices_1_1light_1_1commands_1_1FadeCommand.html" target="_top" xlink:title=" ">
<polygon fill="white" stroke="black" points="1920,-171.5 1920,-239.5 2106,-239.5 2106,-171.5 1920,-171.5"/>
<text text-anchor="start" x="1928" y="-227.5" font-family="Helvetica,sans-Serif" font-size="10.00">klyqa_ctl.devices.light.commands.</text>
<text text-anchor="middle" x="2013" y="-216.5" font-family="Helvetica,sans-Serif" font-size="10.00">FadeCommand</text>
<polyline fill="none" stroke="black" points="1920,-209.5 2106,-209.5 "/>
<text text-anchor="start" x="1928" y="-197.5" font-family="Helvetica,sans-Serif" font-size="10.00">+ int</text>
<polyline fill="none" stroke="black" points="1920,-190.5 2106,-190.5 "/>
<text text-anchor="middle" x="2013" y="-178.5" font-family="Helvetica,sans-Serif" font-size="10.00"> </text>
</a>
</g>
</g>
<!-- Node14&#45;&gt;Node15 -->
<g id="edge15" class="edge">
<title>Node14&#45;&gt;Node15</title>
<path fill="none" stroke="midnightblue" d="M1322.15,-351.55C1459.69,-346.35 1709.22,-327.73 1911,-262 1927.96,-256.47 1945.39,-248.14 1960.93,-239.59"/>
<polygon fill="none" stroke="midnightblue" points="1321.91,-348.06 1312.04,-351.92 1322.16,-355.05 1321.91,-348.06"/>
</g>
<!-- Node16 -->
<g id="node16" class="node">
<title>Node16</title>
<g id="a_node16"><a xlink:href="classklyqa__ctl_1_1devices_1_1light_1_1commands_1_1PowerCommand.html" target="_top" xlink:title=" ">
<polygon fill="white" stroke="black" points="408,-171.5 408,-239.5 594,-239.5 594,-171.5 408,-171.5"/>
<text text-anchor="start" x="416" y="-227.5" font-family="Helvetica,sans-Serif" font-size="10.00">klyqa_ctl.devices.light.commands.</text>
<text text-anchor="middle" x="501" y="-216.5" font-family="Helvetica,sans-Serif" font-size="10.00">PowerCommand</text>
<polyline fill="none" stroke="black" points="408,-209.5 594,-209.5 "/>
<text text-anchor="start" x="416" y="-197.5" font-family="Helvetica,sans-Serif" font-size="10.00">+ str</text>
<polyline fill="none" stroke="black" points="408,-190.5 594,-190.5 "/>
<text text-anchor="middle" x="501" y="-178.5" font-family="Helvetica,sans-Serif" font-size="10.00"> </text>
</a>
</g>
</g>
<!-- Node14&#45;&gt;Node16 -->
<g id="edge16" class="edge">
<title>Node14&#45;&gt;Node16</title>
<path fill="none" stroke="midnightblue" d="M1148.96,-310.41C1138.54,-305.49 1127.7,-301.13 1117,-298 897.18,-233.81 822.82,-326.19 603,-262 585.39,-256.86 567.41,-248.36 551.55,-239.54"/>
<polygon fill="none" stroke="midnightblue" points="1147.47,-313.58 1157.99,-314.87 1150.57,-307.3 1147.47,-313.58"/>
</g>
<!-- Node17 -->
<g id="node17" class="node">
<title>Node17</title>
<g id="a_node17"><a xlink:href="classklyqa__ctl_1_1devices_1_1light_1_1commands_1_1TransitionCommand.html" target="_top" xlink:title=" ">
<polygon fill="white" stroke="black" points="612,-171.5 612,-239.5 798,-239.5 798,-171.5 612,-171.5"/>
<text text-anchor="start" x="620" y="-227.5" font-family="Helvetica,sans-Serif" font-size="10.00">klyqa_ctl.devices.light.commands.</text>
<text text-anchor="middle" x="705" y="-216.5" font-family="Helvetica,sans-Serif" font-size="10.00">TransitionCommand</text>
<polyline fill="none" stroke="black" points="612,-209.5 798,-209.5 "/>
<text text-anchor="start" x="620" y="-197.5" font-family="Helvetica,sans-Serif" font-size="10.00">+ int</text>
<polyline fill="none" stroke="black" points="612,-190.5 798,-190.5 "/>
<text text-anchor="start" x="620" y="-178.5" font-family="Helvetica,sans-Serif" font-size="10.00">+ TypeJson json(self)</text>
</a>
</g>
</g>
<!-- Node14&#45;&gt;Node17 -->
<g id="edge17" class="edge">
<title>Node14&#45;&gt;Node17</title>
<path fill="none" stroke="midnightblue" d="M1147.86,-310.4C1137.76,-305.59 1127.3,-301.26 1117,-298 984.35,-255.98 938.56,-304.3 806,-262 789.04,-256.59 771.66,-248.23 756.21,-239.63"/>
<polygon fill="none" stroke="midnightblue" points="1146.5,-313.63 1157.01,-314.93 1149.6,-307.36 1146.5,-313.63"/>
</g>
<!-- Node20 -->
<g id="node20" class="node">
<title>Node20</title>
<g id="a_node20"><a xlink:href="classklyqa__ctl_1_1devices_1_1vacuum_1_1commands_1_1ProductinfoCommand.html" target="_top" xlink:title=" ">
<polygon fill="white" stroke="black" points="815.5,-160.5 815.5,-250.5 1018.5,-250.5 1018.5,-160.5 815.5,-160.5"/>
<text text-anchor="start" x="823.5" y="-238.5" font-family="Helvetica,sans-Serif" font-size="10.00">klyqa_ctl.devices.vacuum.commands.</text>
<text text-anchor="middle" x="917" y="-227.5" font-family="Helvetica,sans-Serif" font-size="10.00">ProductinfoCommand</text>
<polyline fill="none" stroke="black" points="815.5,-220.5 1018.5,-220.5 "/>
<text text-anchor="middle" x="917" y="-208.5" font-family="Helvetica,sans-Serif" font-size="10.00"> </text>
<polyline fill="none" stroke="black" points="815.5,-201.5 1018.5,-201.5 "/>
<text text-anchor="start" x="823.5" y="-189.5" font-family="Helvetica,sans-Serif" font-size="10.00">+ TypeJson productinfo</text>
<text text-anchor="start" x="823.5" y="-178.5" font-family="Helvetica,sans-Serif" font-size="10.00">_json(self)</text>
<text text-anchor="start" x="823.5" y="-167.5" font-family="Helvetica,sans-Serif" font-size="10.00">+ TypeJson json(self)</text>
</a>
</g>
</g>
<!-- Node14&#45;&gt;Node20 -->
<g id="edge24" class="edge">
<title>Node14&#45;&gt;Node20</title>
<path fill="none" stroke="midnightblue" d="M1141.76,-310.24C1133.47,-305.97 1125.11,-301.81 1117,-298 1078.01,-279.67 1066.27,-279.72 1027,-262 1019.01,-258.39 1010.75,-254.52 1002.52,-250.55"/>
<polygon fill="none" stroke="midnightblue" points="1140.23,-313.39 1150.71,-314.91 1143.46,-307.18 1140.23,-313.39"/>
</g>
<!-- Node21 -->
<g id="node21" class="node">
<title>Node21</title>
<g id="a_node21"><a xlink:href="classklyqa__ctl_1_1devices_1_1vacuum_1_1commands_1_1RequestGetCommand.html" target="_top" xlink:title=" ">
<polygon fill="white" stroke="black" points="1036.5,-166 1036.5,-245 1239.5,-245 1239.5,-166 1036.5,-166"/>
<text text-anchor="start" x="1044.5" y="-233" font-family="Helvetica,sans-Serif" font-size="10.00">klyqa_ctl.devices.vacuum.commands.</text>
<text text-anchor="middle" x="1138" y="-222" font-family="Helvetica,sans-Serif" font-size="10.00">RequestGetCommand</text>
<polyline fill="none" stroke="black" points="1036.5,-215 1239.5,-215 "/>
<text text-anchor="middle" x="1138" y="-203" font-family="Helvetica,sans-Serif" font-size="10.00"> </text>
<polyline fill="none" stroke="black" points="1036.5,-196 1239.5,-196 "/>
<text text-anchor="start" x="1044.5" y="-184" font-family="Helvetica,sans-Serif" font-size="10.00">+ TypeJson get_json(self)</text>
<text text-anchor="start" x="1044.5" y="-173" font-family="Helvetica,sans-Serif" font-size="10.00">+ TypeJson json(self)</text>
</a>
</g>
</g>
<!-- Node14&#45;&gt;Node21 -->
<g id="edge25" class="edge">
<title>Node14&#45;&gt;Node21</title>
<path fill="none" stroke="midnightblue" d="M1192.86,-306.05C1182,-286.35 1169.56,-263.78 1159.28,-245.12"/>
<polygon fill="none" stroke="midnightblue" points="1189.83,-307.81 1197.72,-314.88 1195.96,-304.43 1189.83,-307.81"/>
</g>
<!-- Node22 -->
<g id="node22" class="node">
<title>Node22</title>
<g id="a_node22"><a xlink:href="classklyqa__ctl_1_1devices_1_1vacuum_1_1commands_1_1RequestResetCommand.html" target="_top" xlink:title=" ">
<polygon fill="white" stroke="black" points="1257.5,-160.5 1257.5,-250.5 1460.5,-250.5 1460.5,-160.5 1257.5,-160.5"/>
<text text-anchor="start" x="1265.5" y="-238.5" font-family="Helvetica,sans-Serif" font-size="10.00">klyqa_ctl.devices.vacuum.commands.</text>
<text text-anchor="middle" x="1359" y="-227.5" font-family="Helvetica,sans-Serif" font-size="10.00">RequestResetCommand</text>
<polyline fill="none" stroke="black" points="1257.5,-220.5 1460.5,-220.5 "/>
<text text-anchor="middle" x="1359" y="-208.5" font-family="Helvetica,sans-Serif" font-size="10.00"> </text>
<polyline fill="none" stroke="black" points="1257.5,-201.5 1460.5,-201.5 "/>
<text text-anchor="start" x="1265.5" y="-189.5" font-family="Helvetica,sans-Serif" font-size="10.00">+ TypeJson reset_json</text>
<text text-anchor="start" x="1265.5" y="-178.5" font-family="Helvetica,sans-Serif" font-size="10.00">(self)</text>
<text text-anchor="start" x="1265.5" y="-167.5" font-family="Helvetica,sans-Serif" font-size="10.00">+ TypeJson json(self)</text>
</a>
</g>
</g>
<!-- Node14&#45;&gt;Node22 -->
<g id="edge26" class="edge">
<title>Node14&#45;&gt;Node22</title>
<path fill="none" stroke="midnightblue" d="M1263.01,-307.29C1280.26,-289.17 1299.97,-268.48 1317.02,-250.58"/>
<polygon fill="none" stroke="midnightblue" points="1260.15,-305.22 1255.78,-314.88 1265.21,-310.05 1260.15,-305.22"/>
</g>
<!-- Node23 -->
<g id="node23" class="node">
<title>Node23</title>
<g id="a_node23"><a xlink:href="classklyqa__ctl_1_1devices_1_1vacuum_1_1commands_1_1RequestSetCommand.html" target="_top" xlink:title=" ">
<polygon fill="white" stroke="black" points="1478.5,-166 1478.5,-245 1681.5,-245 1681.5,-166 1478.5,-166"/>
<text text-anchor="start" x="1486.5" y="-233" font-family="Helvetica,sans-Serif" font-size="10.00">klyqa_ctl.devices.vacuum.commands.</text>
<text text-anchor="middle" x="1580" y="-222" font-family="Helvetica,sans-Serif" font-size="10.00">RequestSetCommand</text>
<polyline fill="none" stroke="black" points="1478.5,-215 1681.5,-215 "/>
<text text-anchor="middle" x="1580" y="-203" font-family="Helvetica,sans-Serif" font-size="10.00"> </text>
<polyline fill="none" stroke="black" points="1478.5,-196 1681.5,-196 "/>
<text text-anchor="start" x="1486.5" y="-184" font-family="Helvetica,sans-Serif" font-size="10.00">+ TypeJson set_json(self)</text>
<text text-anchor="start" x="1486.5" y="-173" font-family="Helvetica,sans-Serif" font-size="10.00">+ TypeJson json(self)</text>
</a>
</g>
</g>
<!-- Node14&#45;&gt;Node23 -->
<g id="edge27" class="edge">
<title>Node14&#45;&gt;Node23</title>
<path fill="none" stroke="midnightblue" d="M1321.88,-318.79C1367.42,-302.67 1421.36,-282.55 1469,-262 1480.97,-256.84 1493.48,-251.01 1505.61,-245.13"/>
<polygon fill="none" stroke="midnightblue" points="1320.56,-315.55 1312.29,-322.17 1322.88,-322.15 1320.56,-315.55"/>
</g>
<!-- Node24 -->
<g id="node24" class="node">
<title>Node24</title>
<g id="a_node24"><a xlink:href="classklyqa__ctl_1_1devices_1_1vacuum_1_1commands_1_1RoutineCommand.html" target="_top" xlink:title=" ">
<polygon fill="white" stroke="black" points="1699.5,-149.5 1699.5,-261.5 1902.5,-261.5 1902.5,-149.5 1699.5,-149.5"/>
<text text-anchor="start" x="1707.5" y="-249.5" font-family="Helvetica,sans-Serif" font-size="10.00">klyqa_ctl.devices.vacuum.commands.</text>
<text text-anchor="middle" x="1801" y="-238.5" font-family="Helvetica,sans-Serif" font-size="10.00">RoutineCommand</text>
<polyline fill="none" stroke="black" points="1699.5,-231.5 1902.5,-231.5 "/>
<text text-anchor="start" x="1707.5" y="-219.5" font-family="Helvetica,sans-Serif" font-size="10.00">+ MessageCommandType</text>
<text text-anchor="start" x="1707.5" y="-208.5" font-family="Helvetica,sans-Serif" font-size="10.00">+ RoutineCommandActions</text>
<text text-anchor="start" x="1707.5" y="-197.5" font-family="Helvetica,sans-Serif" font-size="10.00">+ None</text>
<polyline fill="none" stroke="black" points="1699.5,-190.5 1902.5,-190.5 "/>
<text text-anchor="start" x="1707.5" y="-178.5" font-family="Helvetica,sans-Serif" font-size="10.00">+ TypeJson routine_json</text>
<text text-anchor="start" x="1707.5" y="-167.5" font-family="Helvetica,sans-Serif" font-size="10.00">(self)</text>
<text text-anchor="start" x="1707.5" y="-156.5" font-family="Helvetica,sans-Serif" font-size="10.00">+ TypeJson json(self)</text>
</a>
</g>
</g>
<!-- Node14&#45;&gt;Node24 -->
<g id="edge28" class="edge">
<title>Node14&#45;&gt;Node24</title>
<path fill="none" stroke="midnightblue" d="M1322.18,-341.67C1419.02,-328.65 1566.99,-303.83 1690,-262 1693.06,-260.96 1696.14,-259.85 1699.23,-258.68"/>
<polygon fill="none" stroke="midnightblue" points="1321.54,-338.22 1312.09,-343 1322.47,-345.16 1321.54,-338.22"/>
</g>
<!-- Node17&#45;&gt;Node5 -->
<g id="edge18" class="edge">
<title>Node17&#45;&gt;Node5</title>
<path fill="none" stroke="midnightblue" d="M644.82,-166.52C631.49,-159.61 617.11,-153.26 603,-149 428.73,-96.39 369.27,-165.61 195,-113 192.01,-112.1 189.01,-111.1 186,-110.02"/>
<polygon fill="none" stroke="midnightblue" points="643.4,-169.73 653.87,-171.37 646.71,-163.56 643.4,-169.73"/>
</g>
<!-- Node17&#45;&gt;Node6 -->
<g id="edge19" class="edge">
<title>Node17&#45;&gt;Node6</title>
<path fill="none" stroke="midnightblue" d="M642.81,-166.56C629.99,-159.92 616.32,-153.66 603,-149 516.1,-118.6 485.9,-143.4 399,-113 396.05,-111.97 393.08,-110.86 390.11,-109.68"/>
<polygon fill="none" stroke="midnightblue" points="641.51,-169.83 651.98,-171.44 644.8,-163.65 641.51,-169.83"/>
</g>
<!-- Node17&#45;&gt;Node7 -->
<g id="edge21" class="edge">
<title>Node17&#45;&gt;Node7</title>
<path fill="none" stroke="midnightblue" d="M705,-161.01C705,-145.85 705,-128.62 705,-112.64"/>
<polygon fill="none" stroke="midnightblue" points="701.5,-161.14 705,-171.14 708.5,-161.14 701.5,-161.14"/>
</g>
<!-- Node17&#45;&gt;Node8 -->
<g id="edge23" class="edge">
<title>Node17&#45;&gt;Node8</title>
<path fill="none" stroke="midnightblue" d="M650.6,-165.3C628.24,-149.19 601.95,-130.24 577.69,-112.76"/>
<polygon fill="none" stroke="midnightblue" points="648.8,-168.32 658.96,-171.33 652.9,-162.64 648.8,-168.32"/>
</g>
<!-- Node18 -->
<g id="node18" class="node">
<title>Node18</title>
<g id="a_node18"><a xlink:href="classklyqa__ctl_1_1devices_1_1light_1_1commands_1_1RoutineDeleteCommand.html" target="_top" xlink:title=" ">
<polygon fill="white" stroke="black" points="1695,-11.5 1695,-101.5 1881,-101.5 1881,-11.5 1695,-11.5"/>
<text text-anchor="start" x="1703" y="-89.5" font-family="Helvetica,sans-Serif" font-size="10.00">klyqa_ctl.devices.light.commands.</text>
<text text-anchor="middle" x="1788" y="-78.5" font-family="Helvetica,sans-Serif" font-size="10.00">RoutineDeleteCommand</text>
<polyline fill="none" stroke="black" points="1695,-71.5 1881,-71.5 "/>
<text text-anchor="start" x="1703" y="-59.5" font-family="Helvetica,sans-Serif" font-size="10.00">+ action</text>
<text text-anchor="start" x="1703" y="-48.5" font-family="Helvetica,sans-Serif" font-size="10.00">+ str</text>
<polyline fill="none" stroke="black" points="1695,-41.5 1881,-41.5 "/>
<text text-anchor="start" x="1703" y="-29.5" font-family="Helvetica,sans-Serif" font-size="10.00">+ None __post_init__</text>
<text text-anchor="start" x="1703" y="-18.5" font-family="Helvetica,sans-Serif" font-size="10.00">(self)</text>
</a>
</g>
</g>
<!-- Node17&#45;&gt;Node18 -->
<g id="edge20" class="edge">
<title>Node17&#45;&gt;Node18</title>
<path fill="none" stroke="midnightblue" d="M764.32,-166.58C777.59,-159.64 791.92,-153.25 806,-149 989.61,-93.61 1045.03,-130.59 1236,-113 1397.37,-98.13 1585.06,-78.84 1694.77,-67.35"/>
<polygon fill="none" stroke="midnightblue" points="762.45,-163.62 755.32,-171.46 765.78,-169.77 762.45,-163.62"/>
</g>
<!-- Node19 -->
<g id="node19" class="node">
<title>Node19</title>
<g id="a_node19"><a xlink:href="classklyqa__ctl_1_1devices_1_1light_1_1commands_1_1RoutineStartCommand.html" target="_top" xlink:title=" ">
<polygon fill="white" stroke="black" points="1041,-11.5 1041,-101.5 1227,-101.5 1227,-11.5 1041,-11.5"/>
<text text-anchor="start" x="1049" y="-89.5" font-family="Helvetica,sans-Serif" font-size="10.00">klyqa_ctl.devices.light.commands.</text>
<text text-anchor="middle" x="1134" y="-78.5" font-family="Helvetica,sans-Serif" font-size="10.00">RoutineStartCommand</text>
<polyline fill="none" stroke="black" points="1041,-71.5 1227,-71.5 "/>
<text text-anchor="start" x="1049" y="-59.5" font-family="Helvetica,sans-Serif" font-size="10.00">+ action</text>
<text text-anchor="start" x="1049" y="-48.5" font-family="Helvetica,sans-Serif" font-size="10.00">+ str</text>
<polyline fill="none" stroke="black" points="1041,-41.5 1227,-41.5 "/>
<text text-anchor="start" x="1049" y="-29.5" font-family="Helvetica,sans-Serif" font-size="10.00">+ None __post_init__</text>
<text text-anchor="start" x="1049" y="-18.5" font-family="Helvetica,sans-Serif" font-size="10.00">(self)</text>
</a>
</g>
</g>
<!-- Node17&#45;&gt;Node19 -->
<g id="edge22" class="edge">
<title>Node17&#45;&gt;Node19</title>
<path fill="none" stroke="midnightblue" d="M768.82,-166.56C780.93,-160.19 793.67,-154.03 806,-149 882.91,-117.63 974.2,-93.13 1040.91,-77.41"/>
<polygon fill="none" stroke="midnightblue" points="766.86,-163.64 759.7,-171.46 770.17,-169.81 766.86,-163.64"/>
</g>
<!-- Node25&#45;&gt;Node7 -->
<g id="edge32" class="edge">
<title>Node25&#45;&gt;Node7</title>
<path fill="none" stroke="midnightblue" d="M2123.36,-151.52C2120.57,-150.6 2117.78,-149.76 2115,-149 1882.65,-85.75 1271.58,-137.2 1032,-113 952.65,-104.98 863.45,-89.4 798.28,-76.78"/>
<polygon fill="none" stroke="midnightblue" points="2122.21,-154.83 2132.81,-154.93 2124.59,-148.25 2122.21,-154.83"/>
</g>
<!-- Node25&#45;&gt;Node18 -->
<g id="edge30" class="edge">
<title>Node25&#45;&gt;Node18</title>
<path fill="none" stroke="midnightblue" d="M2119.31,-150.78C2117.87,-150.18 2116.43,-149.58 2115,-149 2038.39,-117.9 1947.58,-93.42 1881.11,-77.63"/>
<polygon fill="none" stroke="midnightblue" points="2118.29,-154.16 2128.85,-154.98 2121.11,-147.75 2118.29,-154.16"/>
</g>
<!-- Node25&#45;&gt;Node19 -->
<g id="edge33" class="edge">
<title>Node25&#45;&gt;Node19</title>
<path fill="none" stroke="midnightblue" d="M2122.37,-151.38C2119.91,-150.53 2117.45,-149.73 2115,-149 1931.71,-94.1 1876.53,-130.57 1686,-113 1524.63,-98.12 1336.94,-78.82 1227.23,-67.35"/>
<polygon fill="none" stroke="midnightblue" points="2121.25,-154.7 2131.84,-154.93 2123.7,-148.15 2121.25,-154.7"/>
</g>
<!-- Node26 -->
<g id="node26" class="node">
<title>Node26</title>
<g id="a_node26"><a xlink:href="classklyqa__ctl_1_1devices_1_1light_1_1commands_1_1RoutineListCommand.html" target="_top" xlink:title=" ">
<polygon fill="white" stroke="black" points="2124,-17 2124,-96 2310,-96 2310,-17 2124,-17"/>
<text text-anchor="start" x="2132" y="-84" font-family="Helvetica,sans-Serif" font-size="10.00">klyqa_ctl.devices.light.commands.</text>
<text text-anchor="middle" x="2217" y="-73" font-family="Helvetica,sans-Serif" font-size="10.00">RoutineListCommand</text>
<polyline fill="none" stroke="black" points="2124,-66 2310,-66 "/>
<text text-anchor="start" x="2132" y="-54" font-family="Helvetica,sans-Serif" font-size="10.00">+ action</text>
<polyline fill="none" stroke="black" points="2124,-47 2310,-47 "/>
<text text-anchor="start" x="2132" y="-35" font-family="Helvetica,sans-Serif" font-size="10.00">+ None __post_init__</text>
<text text-anchor="start" x="2132" y="-24" font-family="Helvetica,sans-Serif" font-size="10.00">(self)</text>
</a>
</g>
</g>
<!-- Node25&#45;&gt;Node26 -->
<g id="edge31" class="edge">
<title>Node25&#45;&gt;Node26</title>
<path fill="none" stroke="midnightblue" d="M2217,-144.67C2217,-128.27 2217,-110.92 2217,-96.06"/>
<polygon fill="none" stroke="midnightblue" points="2213.5,-144.73 2217,-154.73 2220.5,-144.73 2213.5,-144.73"/>
</g>
</g>
</svg>
