<?xml version="1.0" encoding="UTF-8" standalone="no"?>
<!DOCTYPE svg PUBLIC "-//W3C//DTD SVG 1.1//EN"
 "http://www.w3.org/Graphics/SVG/1.1/DTD/svg11.dtd">
<!-- Generated by graphviz version 2.43.0 (0)
 -->
<!-- Title: klyqa_ctl.account.Account.request_device_configs_from_acc_sets Pages: 1 -->
<svg width="1140pt" height="676pt"
 viewBox="0.00 0.00 1140.00 676.00" xmlns="http://www.w3.org/2000/svg" xmlns:xlink="http://www.w3.org/1999/xlink">
<g id="graph0" class="graph" transform="scale(1 1) rotate(0) translate(4 672)">
<title>klyqa_ctl.account.Account.request_device_configs_from_acc_sets</title>
<polygon fill="white" stroke="transparent" points="-4,4 -4,-672 1136,-672 1136,4 -4,4"/>
<!-- Node1 -->
<g id="node1" class="node">
<title>Node1</title>
<g id="a_node1"><a xlink:title=" ">
<polygon fill="#bfbfbf" stroke="black" points="0,-318.5 0,-348.5 184,-348.5 184,-318.5 0,-318.5"/>
<text text-anchor="start" x="8" y="-336.5" font-family="Helvetica,sans-Serif" font-size="10.00">klyqa_ctl.account.Account.request</text>
<text text-anchor="middle" x="92" y="-325.5" font-family="Helvetica,sans-Serif" font-size="10.00">_device_configs_from_acc_sets</text>
</a>
</g>
</g>
<!-- Node2 -->
<g id="node2" class="node">
<title>Node2</title>
<g id="a_node2"><a xlink:href="classklyqa__ctl_1_1account_1_1Account.html#aeb463ade6756bf093a809634f64c6ef6" target="_top" xlink:title=" ">
<polygon fill="white" stroke="black" points="226.5,-442 226.5,-461 399.5,-461 399.5,-442 226.5,-442"/>
<text text-anchor="middle" x="313" y="-449" font-family="Helvetica,sans-Serif" font-size="10.00">klyqa_ctl.account.Account.cloud</text>
</a>
</g>
</g>
<!-- Node1&#45;&gt;Node2 -->
<g id="edge1" class="edge">
<title>Node1&#45;&gt;Node2</title>
<path fill="none" stroke="midnightblue" d="M107.49,-348.55C129.6,-370.57 174.07,-411.27 220,-432.5 225.41,-435 231.14,-437.17 237,-439.06"/>
<polygon fill="midnightblue" stroke="midnightblue" points="236.37,-442.52 246.95,-441.98 238.34,-435.8 236.37,-442.52"/>
</g>
<!-- Node3 -->
<g id="node3" class="node">
<title>Node3</title>
<g id="a_node3"><a xlink:href="classklyqa__ctl_1_1devices_1_1device_1_1Device.html#a574647293c61d5f53e153d48ddb31f65" target="_top" xlink:title=" ">
<polygon fill="white" stroke="black" points="243,-392.5 243,-422.5 383,-422.5 383,-392.5 243,-392.5"/>
<text text-anchor="start" x="251" y="-410.5" font-family="Helvetica,sans-Serif" font-size="10.00">klyqa_ctl.devices.device.</text>
<text text-anchor="middle" x="313" y="-399.5" font-family="Helvetica,sans-Serif" font-size="10.00">Device.cloud</text>
</a>
</g>
</g>
<!-- Node1&#45;&gt;Node3 -->
<g id="edge2" class="edge">
<title>Node1&#45;&gt;Node3</title>
<path fill="none" stroke="midnightblue" d="M127.9,-348.55C153.18,-359.13 188.35,-373.18 220,-383.5 226.43,-385.6 233.16,-387.64 239.93,-389.59"/>
<polygon fill="midnightblue" stroke="midnightblue" points="239.27,-393.04 249.85,-392.37 241.16,-386.3 239.27,-393.04"/>
</g>
<!-- Node4 -->
<g id="node4" class="node">
<title>Node4</title>
<g id="a_node4"><a xlink:href="classklyqa__ctl_1_1general_1_1general_1_1Command.html#a4aa9e4db12aecf5520e974204c635d38" target="_top" xlink:title=" ">
<polygon fill="white" stroke="black" points="241.5,-343.5 241.5,-373.5 384.5,-373.5 384.5,-343.5 241.5,-343.5"/>
<text text-anchor="start" x="249.5" y="-361.5" font-family="Helvetica,sans-Serif" font-size="10.00">klyqa_ctl.general.general.</text>
<text text-anchor="middle" x="313" y="-350.5" font-family="Helvetica,sans-Serif" font-size="10.00">Command.cloud</text>
</a>
</g>
</g>
<!-- Node1&#45;&gt;Node4 -->
<g id="edge3" class="edge">
<title>Node1&#45;&gt;Node4</title>
<path fill="none" stroke="midnightblue" d="M184.29,-343.92C199.74,-345.68 215.68,-347.51 230.85,-349.24"/>
<polygon fill="midnightblue" stroke="midnightblue" points="230.88,-352.76 241.21,-350.42 231.67,-345.81 230.88,-352.76"/>
</g>
<!-- Node32 -->
<g id="node32" class="node">
<title>Node32</title>
<g id="a_node32"><a xlink:href="classklyqa__ctl_1_1general_1_1general_1_1CloudStateCommand.html#a6bbc8b1333f0a45ce38f1e81a6093bc1" target="_top" xlink:title=" ">
<polygon fill="white" stroke="black" points="238.5,-294.5 238.5,-324.5 387.5,-324.5 387.5,-294.5 238.5,-294.5"/>
<text text-anchor="start" x="246.5" y="-312.5" font-family="Helvetica,sans-Serif" font-size="10.00">klyqa_ctl.general.general.</text>
<text text-anchor="middle" x="313" y="-301.5" font-family="Helvetica,sans-Serif" font-size="10.00">CloudStateCommand.cloud</text>
</a>
</g>
</g>
<!-- Node1&#45;&gt;Node32 -->
<g id="edge31" class="edge">
<title>Node1&#45;&gt;Node32</title>
<path fill="none" stroke="midnightblue" d="M184.29,-323.5C198.74,-321.91 213.62,-320.28 227.9,-318.72"/>
<polygon fill="midnightblue" stroke="midnightblue" points="228.61,-322.16 238.17,-317.59 227.85,-315.2 228.61,-322.16"/>
</g>
<!-- Node33 -->
<g id="node33" class="node">
<title>Node33</title>
<g id="a_node33"><a xlink:href="classklyqa__ctl_1_1klyqa__ctl_1_1Client.html#a7d8a302d936e8e1889f175bac259f565" target="_top" xlink:title=" ">
<polygon fill="white" stroke="black" points="228.5,-256 228.5,-275 397.5,-275 397.5,-256 228.5,-256"/>
<text text-anchor="middle" x="313" y="-263" font-family="Helvetica,sans-Serif" font-size="10.00">klyqa_ctl.klyqa_ctl.Client.cloud</text>
</a>
</g>
</g>
<!-- Node1&#45;&gt;Node33 -->
<g id="edge46" class="edge">
<title>Node1&#45;&gt;Node33</title>
<path fill="none" stroke="midnightblue" d="M128.65,-318.41C153.84,-308.15 188.58,-294.8 220,-285.5 230.1,-282.51 240.94,-279.76 251.51,-277.32"/>
<polygon fill="midnightblue" stroke="midnightblue" points="252.53,-280.68 261.52,-275.07 251,-273.85 252.53,-280.68"/>
</g>
<!-- Node34 -->
<g id="node34" class="node">
<title>Node34</title>
<g id="a_node34"><a xlink:href="classklyqa__ctl_1_1account_1_1Account.html#a3d4ca77937552eadd9f6a1d906eaf565" target="_top" xlink:title=" ">
<polygon fill="white" stroke="black" points="220,-218 220,-237 406,-237 406,-218 220,-218"/>
<text text-anchor="middle" x="313" y="-225" font-family="Helvetica,sans-Serif" font-size="10.00">klyqa_ctl.account.Account.settings</text>
</a>
</g>
</g>
<!-- Node1&#45;&gt;Node34 -->
<g id="edge47" class="edge">
<title>Node1&#45;&gt;Node34</title>
<path fill="none" stroke="midnightblue" d="M110.17,-318.38C133.42,-298.74 176.96,-264.81 220,-246.5 226.15,-243.88 232.69,-241.62 239.34,-239.66"/>
<polygon fill="midnightblue" stroke="midnightblue" points="240.39,-243 249.12,-237 238.55,-236.25 240.39,-243"/>
</g>
<!-- Node5 -->
<g id="node5" class="node">
<title>Node5</title>
<g id="a_node5"><a xlink:href="classklyqa__ctl_1_1devices_1_1light_1_1commands_1_1FwUpdateCommand.html#a9de3441c7fbba5f5a19ea914970a3db7" target="_top" xlink:title=" ">
<polygon fill="white" stroke="black" points="450.5,-637.5 450.5,-667.5 636.5,-667.5 636.5,-637.5 450.5,-637.5"/>
<text text-anchor="start" x="458.5" y="-655.5" font-family="Helvetica,sans-Serif" font-size="10.00">klyqa_ctl.devices.light.commands.</text>
<text text-anchor="middle" x="543.5" y="-644.5" font-family="Helvetica,sans-Serif" font-size="10.00">FwUpdateCommand.json</text>
</a>
</g>
</g>
<!-- Node4&#45;&gt;Node5 -->
<g id="edge4" class="edge">
<title>Node4&#45;&gt;Node5</title>
<path fill="none" stroke="midnightblue" d="M384.82,-368.35C392.82,-372.02 400.18,-376.94 406,-383.5 479.04,-465.83 367.7,-547.31 442,-628.5 442.66,-629.22 443.34,-629.93 444.04,-630.61"/>
<polygon fill="midnightblue" stroke="midnightblue" points="442.14,-633.58 452.08,-637.22 446.58,-628.17 442.14,-633.58"/>
</g>
<!-- Node7 -->
<g id="node7" class="node">
<title>Node7</title>
<g id="a_node7"><a xlink:href="classklyqa__ctl_1_1devices_1_1light_1_1commands_1_1TransitionCommand.html#aaf9d8431e346c86b9959102c2d7f3316" target="_top" xlink:title=" ">
<polygon fill="white" stroke="black" points="450.5,-294.5 450.5,-324.5 636.5,-324.5 636.5,-294.5 450.5,-294.5"/>
<text text-anchor="start" x="458.5" y="-312.5" font-family="Helvetica,sans-Serif" font-size="10.00">klyqa_ctl.devices.light.commands.</text>
<text text-anchor="middle" x="543.5" y="-301.5" font-family="Helvetica,sans-Serif" font-size="10.00">TransitionCommand.json</text>
</a>
</g>
</g>
<!-- Node4&#45;&gt;Node7 -->
<g id="edge6" class="edge">
<title>Node4&#45;&gt;Node7</title>
<path fill="none" stroke="midnightblue" d="M384.11,-343.47C408.89,-338.15 436.95,-332.13 462.5,-326.66"/>
<polygon fill="midnightblue" stroke="midnightblue" points="463.48,-330.03 472.52,-324.51 462.01,-323.18 463.48,-330.03"/>
</g>
<!-- Node8 -->
<g id="node8" class="node">
<title>Node8</title>
<g id="a_node8"><a xlink:href="classklyqa__ctl_1_1devices_1_1light_1_1commands_1_1ColorCommand.html#afa8f262e4047666707237c4dfe8615c3" target="_top" xlink:title=" ">
<polygon fill="white" stroke="black" points="450.5,-588.5 450.5,-618.5 636.5,-618.5 636.5,-588.5 450.5,-588.5"/>
<text text-anchor="start" x="458.5" y="-606.5" font-family="Helvetica,sans-Serif" font-size="10.00">klyqa_ctl.devices.light.commands.</text>
<text text-anchor="middle" x="543.5" y="-595.5" font-family="Helvetica,sans-Serif" font-size="10.00">ColorCommand.json</text>
</a>
</g>
</g>
<!-- Node4&#45;&gt;Node8 -->
<g id="edge7" class="edge">
<title>Node4&#45;&gt;Node8</title>
<path fill="none" stroke="midnightblue" d="M384.6,-368.55C392.64,-372.19 400.06,-377.04 406,-383.5 465.95,-448.69 381.05,-515.24 442,-579.5 442.8,-580.35 443.63,-581.16 444.48,-581.96"/>
<polygon fill="midnightblue" stroke="midnightblue" points="442.64,-584.97 452.67,-588.39 446.97,-579.46 442.64,-584.97"/>
</g>
<!-- Node11 -->
<g id="node11" class="node">
<title>Node11</title>
<g id="a_node11"><a xlink:href="classklyqa__ctl_1_1devices_1_1light_1_1commands_1_1TemperatureCommand.html#aaa297cd598227ab2f33a6d111532e5e0" target="_top" xlink:title=" ">
<polygon fill="white" stroke="black" points="450.5,-539.5 450.5,-569.5 636.5,-569.5 636.5,-539.5 450.5,-539.5"/>
<text text-anchor="start" x="458.5" y="-557.5" font-family="Helvetica,sans-Serif" font-size="10.00">klyqa_ctl.devices.light.commands.</text>
<text text-anchor="middle" x="543.5" y="-546.5" font-family="Helvetica,sans-Serif" font-size="10.00">TemperatureCommand.json</text>
</a>
</g>
</g>
<!-- Node4&#45;&gt;Node11 -->
<g id="edge10" class="edge">
<title>Node4&#45;&gt;Node11</title>
<path fill="none" stroke="midnightblue" d="M384.71,-369.09C392.63,-372.65 399.99,-377.34 406,-383.5 452.96,-431.66 394.3,-483.07 442,-530.5 442.97,-531.46 443.96,-532.39 444.99,-533.28"/>
<polygon fill="midnightblue" stroke="midnightblue" points="443.24,-536.33 453.36,-539.44 447.39,-530.69 443.24,-536.33"/>
</g>
<!-- Node14 -->
<g id="node14" class="node">
<title>Node14</title>
<g id="a_node14"><a xlink:href="classklyqa__ctl_1_1devices_1_1light_1_1commands_1_1BrightnessCommand.html#a946e7180dd8f3bd4621c23b24e63469a" target="_top" xlink:title=" ">
<polygon fill="white" stroke="black" points="450.5,-490.5 450.5,-520.5 636.5,-520.5 636.5,-490.5 450.5,-490.5"/>
<text text-anchor="start" x="458.5" y="-508.5" font-family="Helvetica,sans-Serif" font-size="10.00">klyqa_ctl.devices.light.commands.</text>
<text text-anchor="middle" x="543.5" y="-497.5" font-family="Helvetica,sans-Serif" font-size="10.00">BrightnessCommand.json</text>
</a>
</g>
</g>
<!-- Node4&#45;&gt;Node14 -->
<g id="edge13" class="edge">
<title>Node4&#45;&gt;Node14</title>
<path fill="none" stroke="midnightblue" d="M384.53,-369.94C392.38,-373.37 399.78,-377.8 406,-383.5 440.2,-414.86 407.32,-450.67 442,-481.5 443.17,-482.54 444.38,-483.54 445.63,-484.5"/>
<polygon fill="midnightblue" stroke="midnightblue" points="444.01,-487.63 454.28,-490.24 447.88,-481.79 444.01,-487.63"/>
</g>
<!-- Node17 -->
<g id="node17" class="node">
<title>Node17</title>
<g id="a_node17"><a xlink:href="classklyqa__ctl_1_1devices_1_1light_1_1commands_1_1ExternalSourceCommand.html#a393710b54f709b852bfd0f3769c39ce6" target="_top" xlink:title=" ">
<polygon fill="white" stroke="black" points="450.5,-98.5 450.5,-128.5 636.5,-128.5 636.5,-98.5 450.5,-98.5"/>
<text text-anchor="start" x="458.5" y="-116.5" font-family="Helvetica,sans-Serif" font-size="10.00">klyqa_ctl.devices.light.commands.</text>
<text text-anchor="middle" x="543.5" y="-105.5" font-family="Helvetica,sans-Serif" font-size="10.00">ExternalSourceCommand.json</text>
</a>
</g>
</g>
<!-- Node4&#45;&gt;Node17 -->
<g id="edge16" class="edge">
<title>Node4&#45;&gt;Node17</title>
<path fill="none" stroke="midnightblue" d="M384.57,-349.25C392.61,-345.69 400.05,-340.91 406,-334.5 466.28,-269.61 381.35,-203.04 442,-138.5 443.23,-137.19 444.51,-135.95 445.85,-134.77"/>
<polygon fill="midnightblue" stroke="midnightblue" points="448.1,-137.45 454,-128.65 443.9,-131.85 448.1,-137.45"/>
</g>
<!-- Node18 -->
<g id="node18" class="node">
<title>Node18</title>
<g id="a_node18"><a xlink:href="classklyqa__ctl_1_1devices_1_1light_1_1commands_1_1RoutineCommand.html#af3395a663a3dbdff8117ee708f80adec" target="_top" xlink:title=" ">
<polygon fill="white" stroke="black" points="450.5,-49.5 450.5,-79.5 636.5,-79.5 636.5,-49.5 450.5,-49.5"/>
<text text-anchor="start" x="458.5" y="-67.5" font-family="Helvetica,sans-Serif" font-size="10.00">klyqa_ctl.devices.light.commands.</text>
<text text-anchor="middle" x="543.5" y="-56.5" font-family="Helvetica,sans-Serif" font-size="10.00">RoutineCommand.json</text>
</a>
</g>
</g>
<!-- Node4&#45;&gt;Node18 -->
<g id="edge17" class="edge">
<title>Node4&#45;&gt;Node18</title>
<path fill="none" stroke="midnightblue" d="M384.79,-349.45C392.8,-345.86 400.16,-341.01 406,-334.5 479.46,-252.54 368.08,-171.04 442,-89.5 443.06,-88.33 444.16,-87.22 445.3,-86.15"/>
<polygon fill="midnightblue" stroke="midnightblue" points="447.69,-88.73 453.39,-79.79 443.37,-83.22 447.69,-88.73"/>
</g>
<!-- Node19 -->
<g id="node19" class="node">
<title>Node19</title>
<g id="a_node19"><a xlink:href="classklyqa__ctl_1_1devices_1_1vacuum_1_1commands_1_1ProductinfoCommand.html#a23d375f048835d4b0f12602764d2a6c1" target="_top" xlink:title=" ">
<polygon fill="white" stroke="black" points="442,-392.5 442,-422.5 645,-422.5 645,-392.5 442,-392.5"/>
<text text-anchor="start" x="450" y="-410.5" font-family="Helvetica,sans-Serif" font-size="10.00">klyqa_ctl.devices.vacuum.commands.</text>
<text text-anchor="middle" x="543.5" y="-399.5" font-family="Helvetica,sans-Serif" font-size="10.00">ProductinfoCommand.json</text>
</a>
</g>
</g>
<!-- Node4&#45;&gt;Node19 -->
<g id="edge18" class="edge">
<title>Node4&#45;&gt;Node19</title>
<path fill="none" stroke="midnightblue" d="M384.11,-373.53C408.89,-378.85 436.95,-384.87 462.5,-390.34"/>
<polygon fill="midnightblue" stroke="midnightblue" points="462.01,-393.82 472.52,-392.49 463.48,-386.97 462.01,-393.82"/>
</g>
<!-- Node21 -->
<g id="node21" class="node">
<title>Node21</title>
<g id="a_node21"><a xlink:href="classklyqa__ctl_1_1devices_1_1vacuum_1_1commands_1_1RequestGetCommand.html#a216966811184b718a4659bf081113f38" target="_top" xlink:title=" ">
<polygon fill="white" stroke="black" points="442,-343.5 442,-373.5 645,-373.5 645,-343.5 442,-343.5"/>
<text text-anchor="start" x="450" y="-361.5" font-family="Helvetica,sans-Serif" font-size="10.00">klyqa_ctl.devices.vacuum.commands.</text>
<text text-anchor="middle" x="543.5" y="-350.5" font-family="Helvetica,sans-Serif" font-size="10.00">RequestGetCommand.json</text>
</a>
</g>
</g>
<!-- Node4&#45;&gt;Node21 -->
<g id="edge20" class="edge">
<title>Node4&#45;&gt;Node21</title>
<path fill="none" stroke="midnightblue" d="M384.73,-358.5C399.57,-358.5 415.56,-358.5 431.47,-358.5"/>
<polygon fill="midnightblue" stroke="midnightblue" points="431.89,-362 441.89,-358.5 431.89,-355 431.89,-362"/>
</g>
<!-- Node23 -->
<g id="node23" class="node">
<title>Node23</title>
<g id="a_node23"><a xlink:href="classklyqa__ctl_1_1devices_1_1vacuum_1_1commands_1_1RequestResetCommand.html#a1ac56b80427d60d9f55079ae846ae25e" target="_top" xlink:title=" ">
<polygon fill="white" stroke="black" points="442,-245.5 442,-275.5 645,-275.5 645,-245.5 442,-245.5"/>
<text text-anchor="start" x="450" y="-263.5" font-family="Helvetica,sans-Serif" font-size="10.00">klyqa_ctl.devices.vacuum.commands.</text>
<text text-anchor="middle" x="543.5" y="-252.5" font-family="Helvetica,sans-Serif" font-size="10.00">RequestResetCommand.json</text>
</a>
</g>
</g>
<!-- Node4&#45;&gt;Node23 -->
<g id="edge22" class="edge">
<title>Node4&#45;&gt;Node23</title>
<path fill="none" stroke="midnightblue" d="M384.53,-345.53C392.11,-342.57 399.44,-338.95 406,-334.5 428.36,-319.33 419.55,-300.55 442,-285.5 445.09,-283.43 448.35,-281.52 451.71,-279.78"/>
<polygon fill="midnightblue" stroke="midnightblue" points="453.26,-282.92 460.84,-275.52 450.3,-276.58 453.26,-282.92"/>
</g>
<!-- Node25 -->
<g id="node25" class="node">
<title>Node25</title>
<g id="a_node25"><a xlink:href="classklyqa__ctl_1_1devices_1_1vacuum_1_1commands_1_1RequestSetCommand.html#a354b74be46f4b7d8a56811eaab910959" target="_top" xlink:title=" ">
<polygon fill="white" stroke="black" points="442,-196.5 442,-226.5 645,-226.5 645,-196.5 442,-196.5"/>
<text text-anchor="start" x="450" y="-214.5" font-family="Helvetica,sans-Serif" font-size="10.00">klyqa_ctl.devices.vacuum.commands.</text>
<text text-anchor="middle" x="543.5" y="-203.5" font-family="Helvetica,sans-Serif" font-size="10.00">RequestSetCommand.json</text>
</a>
</g>
</g>
<!-- Node4&#45;&gt;Node25 -->
<g id="edge24" class="edge">
<title>Node4&#45;&gt;Node25</title>
<path fill="none" stroke="midnightblue" d="M384.51,-347.86C392.36,-344.51 399.77,-340.16 406,-334.5 440.36,-303.32 407.46,-267.49 442,-236.5 443.74,-234.94 445.56,-233.47 447.45,-232.09"/>
<polygon fill="midnightblue" stroke="midnightblue" points="449.57,-234.9 456.15,-226.6 445.83,-228.98 449.57,-234.9"/>
</g>
<!-- Node27 -->
<g id="node27" class="node">
<title>Node27</title>
<g id="a_node27"><a xlink:href="classklyqa__ctl_1_1devices_1_1vacuum_1_1commands_1_1RoutineCommand.html#a926a94c8cc5104275078e438fb301028" target="_top" xlink:title=" ">
<polygon fill="white" stroke="black" points="442,-147.5 442,-177.5 645,-177.5 645,-147.5 442,-147.5"/>
<text text-anchor="start" x="450" y="-165.5" font-family="Helvetica,sans-Serif" font-size="10.00">klyqa_ctl.devices.vacuum.commands.</text>
<text text-anchor="middle" x="543.5" y="-154.5" font-family="Helvetica,sans-Serif" font-size="10.00">RoutineCommand.json</text>
</a>
</g>
</g>
<!-- Node4&#45;&gt;Node27 -->
<g id="edge26" class="edge">
<title>Node4&#45;&gt;Node27</title>
<path fill="none" stroke="midnightblue" d="M384.68,-348.72C392.6,-345.24 399.98,-340.61 406,-334.5 453.2,-286.58 394.52,-235.15 442,-187.5 443.43,-186.07 444.92,-184.71 446.48,-183.43"/>
<polygon fill="midnightblue" stroke="midnightblue" points="448.57,-186.24 454.72,-177.62 444.53,-180.52 448.57,-186.24"/>
</g>
<!-- Node29 -->
<g id="node29" class="node">
<title>Node29</title>
<g id="a_node29"><a xlink:href="classklyqa__ctl_1_1general_1_1general_1_1Command.html#a8c8ad93fedd0da0e0021f58714ec7fb5" target="_top" xlink:title=" ">
<polygon fill="white" stroke="black" points="472,-441.5 472,-471.5 615,-471.5 615,-441.5 472,-441.5"/>
<text text-anchor="start" x="480" y="-459.5" font-family="Helvetica,sans-Serif" font-size="10.00">klyqa_ctl.general.general.</text>
<text text-anchor="middle" x="543.5" y="-448.5" font-family="Helvetica,sans-Serif" font-size="10.00">Command.json</text>
</a>
</g>
</g>
<!-- Node4&#45;&gt;Node29 -->
<g id="edge28" class="edge">
<title>Node4&#45;&gt;Node29</title>
<path fill="none" stroke="midnightblue" d="M384.53,-372.29C392.12,-375.32 399.45,-379.01 406,-383.5 428.28,-398.79 419.48,-417.56 442,-432.5 448.17,-436.59 454.95,-439.99 462,-442.8"/>
<polygon fill="midnightblue" stroke="midnightblue" points="461.15,-446.22 471.75,-446.3 463.52,-439.63 461.15,-446.22"/>
</g>
<!-- Node30 -->
<g id="node30" class="node">
<title>Node30</title>
<g id="a_node30"><a xlink:href="classklyqa__ctl_1_1general_1_1general_1_1CommandTyped.html#a96dfd43912c4640f381424bdd44eebca" target="_top" xlink:title=" ">
<polygon fill="white" stroke="black" points="472,-0.5 472,-30.5 615,-30.5 615,-0.5 472,-0.5"/>
<text text-anchor="start" x="480" y="-18.5" font-family="Helvetica,sans-Serif" font-size="10.00">klyqa_ctl.general.general.</text>
<text text-anchor="middle" x="543.5" y="-7.5" font-family="Helvetica,sans-Serif" font-size="10.00">CommandTyped.json</text>
</a>
</g>
</g>
<!-- Node4&#45;&gt;Node30 -->
<g id="edge29" class="edge">
<title>Node4&#45;&gt;Node30</title>
<path fill="none" stroke="midnightblue" d="M384.94,-349.58C392.92,-345.97 400.24,-341.09 406,-334.5 492.95,-235.07 354.02,-138.02 442,-39.5 447.71,-33.1 454.79,-28.26 462.53,-24.61"/>
<polygon fill="midnightblue" stroke="midnightblue" points="463.91,-27.83 471.88,-20.86 461.3,-21.34 463.91,-27.83"/>
</g>
<!-- Node6 -->
<g id="node6" class="node">
<title>Node6</title>
<g id="a_node6"><a xlink:href="classklyqa__ctl_1_1devices_1_1light_1_1commands_1_1FwUpdateCommand.html#a7dc482a4e9a65d49ce0a61671ed6868e" target="_top" xlink:title=" ">
<polygon fill="white" stroke="black" points="697,-637.5 697,-667.5 883,-667.5 883,-637.5 697,-637.5"/>
<text text-anchor="start" x="705" y="-655.5" font-family="Helvetica,sans-Serif" font-size="10.00">klyqa_ctl.devices.light.commands.</text>
<text text-anchor="middle" x="790" y="-644.5" font-family="Helvetica,sans-Serif" font-size="10.00">FwUpdateCommand.url_json</text>
</a>
</g>
</g>
<!-- Node5&#45;&gt;Node6 -->
<g id="edge5" class="edge">
<title>Node5&#45;&gt;Node6</title>
<path fill="none" stroke="midnightblue" d="M636.59,-652.5C652.95,-652.5 670.09,-652.5 686.72,-652.5"/>
<polygon fill="midnightblue" stroke="midnightblue" points="687,-656 697,-652.5 687,-649 687,-656"/>
</g>
<!-- Node9 -->
<g id="node9" class="node">
<title>Node9</title>
<g id="a_node9"><a xlink:href="classklyqa__ctl_1_1devices_1_1light_1_1commands_1_1ColorCommand.html#a6ce99d7f4f232fb2f11e6efb7e85e778" target="_top" xlink:title=" ">
<polygon fill="white" stroke="black" points="697,-588.5 697,-618.5 883,-618.5 883,-588.5 697,-588.5"/>
<text text-anchor="start" x="705" y="-606.5" font-family="Helvetica,sans-Serif" font-size="10.00">klyqa_ctl.devices.light.commands.</text>
<text text-anchor="middle" x="790" y="-595.5" font-family="Helvetica,sans-Serif" font-size="10.00">ColorCommand.color_json</text>
</a>
</g>
</g>
<!-- Node8&#45;&gt;Node9 -->
<g id="edge8" class="edge">
<title>Node8&#45;&gt;Node9</title>
<path fill="none" stroke="midnightblue" d="M636.59,-603.5C652.95,-603.5 670.09,-603.5 686.72,-603.5"/>
<polygon fill="midnightblue" stroke="midnightblue" points="687,-607 697,-603.5 687,-600 687,-607"/>
</g>
<!-- Node10 -->
<g id="node10" class="node">
<title>Node10</title>
<g id="a_node10"><a xlink:href="classklyqa__ctl_1_1devices_1_1light_1_1response__status_1_1ResponseStatus.html#a327c18fd6f8a38e75e1bbc2f895df592" target="_top" xlink:title=" ">
<polygon fill="white" stroke="black" points="947,-588.5 947,-618.5 1120,-618.5 1120,-588.5 947,-588.5"/>
<text text-anchor="start" x="955" y="-606.5" font-family="Helvetica,sans-Serif" font-size="10.00">klyqa_ctl.devices.light.response</text>
<text text-anchor="middle" x="1033.5" y="-595.5" font-family="Helvetica,sans-Serif" font-size="10.00">_status.ResponseStatus.color</text>
</a>
</g>
</g>
<!-- Node9&#45;&gt;Node10 -->
<g id="edge9" class="edge">
<title>Node9&#45;&gt;Node10</title>
<path fill="none" stroke="midnightblue" d="M883.33,-603.5C900.81,-603.5 919.13,-603.5 936.71,-603.5"/>
<polygon fill="midnightblue" stroke="midnightblue" points="936.96,-607 946.96,-603.5 936.96,-600 936.96,-607"/>
</g>
<!-- Node12 -->
<g id="node12" class="node">
<title>Node12</title>
<g id="a_node12"><a xlink:href="classklyqa__ctl_1_1devices_1_1light_1_1commands_1_1TemperatureCommand.html#a0b45255dc9218a36450152f1118a8280" target="_top" xlink:title=" ">
<polygon fill="white" stroke="black" points="681,-539.5 681,-569.5 899,-569.5 899,-539.5 681,-539.5"/>
<text text-anchor="start" x="689" y="-557.5" font-family="Helvetica,sans-Serif" font-size="10.00">klyqa_ctl.devices.light.commands.</text>
<text text-anchor="middle" x="790" y="-546.5" font-family="Helvetica,sans-Serif" font-size="10.00">TemperatureCommand.temperature_json</text>
</a>
</g>
</g>
<!-- Node11&#45;&gt;Node12 -->
<g id="edge11" class="edge">
<title>Node11&#45;&gt;Node12</title>
<path fill="none" stroke="midnightblue" d="M636.59,-554.5C647.79,-554.5 659.35,-554.5 670.87,-554.5"/>
<polygon fill="midnightblue" stroke="midnightblue" points="670.96,-558 680.96,-554.5 670.96,-551 670.96,-558"/>
</g>
<!-- Node13 -->
<g id="node13" class="node">
<title>Node13</title>
<g id="a_node13"><a xlink:href="classklyqa__ctl_1_1devices_1_1light_1_1response__status_1_1ResponseStatus.html#a2e732c44c35f39dc3d8fe269c24aef8a" target="_top" xlink:title=" ">
<polygon fill="white" stroke="black" points="935,-539.5 935,-569.5 1132,-569.5 1132,-539.5 935,-539.5"/>
<text text-anchor="start" x="943" y="-557.5" font-family="Helvetica,sans-Serif" font-size="10.00">klyqa_ctl.devices.light.response</text>
<text text-anchor="middle" x="1033.5" y="-546.5" font-family="Helvetica,sans-Serif" font-size="10.00">_status.ResponseStatus.temperature</text>
</a>
</g>
</g>
<!-- Node12&#45;&gt;Node13 -->
<g id="edge12" class="edge">
<title>Node12&#45;&gt;Node13</title>
<path fill="none" stroke="midnightblue" d="M899.04,-554.5C907.61,-554.5 916.27,-554.5 924.85,-554.5"/>
<polygon fill="midnightblue" stroke="midnightblue" points="924.86,-558 934.86,-554.5 924.86,-551 924.86,-558"/>
</g>
<!-- Node15 -->
<g id="node15" class="node">
<title>Node15</title>
<g id="a_node15"><a xlink:href="classklyqa__ctl_1_1devices_1_1light_1_1commands_1_1BrightnessCommand.html#aba34fce7f4d8d6aae6bcbaaa61c21a8c" target="_top" xlink:title=" ">
<polygon fill="white" stroke="black" points="691,-490.5 691,-520.5 889,-520.5 889,-490.5 691,-490.5"/>
<text text-anchor="start" x="699" y="-508.5" font-family="Helvetica,sans-Serif" font-size="10.00">klyqa_ctl.devices.light.commands.</text>
<text text-anchor="middle" x="790" y="-497.5" font-family="Helvetica,sans-Serif" font-size="10.00">BrightnessCommand.brightness_json</text>
</a>
</g>
</g>
<!-- Node14&#45;&gt;Node15 -->
<g id="edge14" class="edge">
<title>Node14&#45;&gt;Node15</title>
<path fill="none" stroke="midnightblue" d="M636.59,-505.5C650.99,-505.5 666,-505.5 680.73,-505.5"/>
<polygon fill="midnightblue" stroke="midnightblue" points="680.87,-509 690.87,-505.5 680.87,-502 680.87,-509"/>
</g>
<!-- Node16 -->
<g id="node16" class="node">
<title>Node16</title>
<g id="a_node16"><a xlink:href="classklyqa__ctl_1_1devices_1_1light_1_1response__status_1_1ResponseStatus.html#a762787729b726f6ad8bd5a9a3ae40a67" target="_top" xlink:title=" ">
<polygon fill="white" stroke="black" points="940,-490.5 940,-520.5 1127,-520.5 1127,-490.5 940,-490.5"/>
<text text-anchor="start" x="948" y="-508.5" font-family="Helvetica,sans-Serif" font-size="10.00">klyqa_ctl.devices.light.response</text>
<text text-anchor="middle" x="1033.5" y="-497.5" font-family="Helvetica,sans-Serif" font-size="10.00">_status.ResponseStatus.brightness</text>
</a>
</g>
</g>
<!-- Node15&#45;&gt;Node16 -->
<g id="edge15" class="edge">
<title>Node15&#45;&gt;Node16</title>
<path fill="none" stroke="midnightblue" d="M889.23,-505.5C902.55,-505.5 916.25,-505.5 929.64,-505.5"/>
<polygon fill="midnightblue" stroke="midnightblue" points="929.82,-509 939.82,-505.5 929.82,-502 929.82,-509"/>
</g>
<!-- Node20 -->
<g id="node20" class="node">
<title>Node20</title>
<g id="a_node20"><a xlink:href="classklyqa__ctl_1_1devices_1_1vacuum_1_1commands_1_1ProductinfoCommand.html#a1950a810783ab6312c31fa43dd06182c" target="_top" xlink:title=" ">
<polygon fill="white" stroke="black" points="687,-392.5 687,-422.5 893,-422.5 893,-392.5 687,-392.5"/>
<text text-anchor="start" x="695" y="-410.5" font-family="Helvetica,sans-Serif" font-size="10.00">klyqa_ctl.devices.vacuum.commands.</text>
<text text-anchor="middle" x="790" y="-399.5" font-family="Helvetica,sans-Serif" font-size="10.00">ProductinfoCommand.productinfo_json</text>
</a>
</g>
</g>
<!-- Node19&#45;&gt;Node20 -->
<g id="edge19" class="edge">
<title>Node19&#45;&gt;Node20</title>
<path fill="none" stroke="midnightblue" d="M645.01,-407.5C655.49,-407.5 666.19,-407.5 676.79,-407.5"/>
<polygon fill="midnightblue" stroke="midnightblue" points="676.91,-411 686.91,-407.5 676.91,-404 676.91,-411"/>
</g>
<!-- Node22 -->
<g id="node22" class="node">
<title>Node22</title>
<g id="a_node22"><a xlink:href="classklyqa__ctl_1_1devices_1_1vacuum_1_1commands_1_1RequestGetCommand.html#a71be3cb060fa2c05f2762d13267c6144" target="_top" xlink:title=" ">
<polygon fill="white" stroke="black" points="688.5,-343.5 688.5,-373.5 891.5,-373.5 891.5,-343.5 688.5,-343.5"/>
<text text-anchor="start" x="696.5" y="-361.5" font-family="Helvetica,sans-Serif" font-size="10.00">klyqa_ctl.devices.vacuum.commands.</text>
<text text-anchor="middle" x="790" y="-350.5" font-family="Helvetica,sans-Serif" font-size="10.00">RequestGetCommand.get_json</text>
</a>
</g>
</g>
<!-- Node21&#45;&gt;Node22 -->
<g id="edge21" class="edge">
<title>Node21&#45;&gt;Node22</title>
<path fill="none" stroke="midnightblue" d="M645.01,-358.5C656,-358.5 667.23,-358.5 678.34,-358.5"/>
<polygon fill="midnightblue" stroke="midnightblue" points="678.49,-362 688.49,-358.5 678.49,-355 678.49,-362"/>
</g>
<!-- Node24 -->
<g id="node24" class="node">
<title>Node24</title>
<g id="a_node24"><a xlink:href="classklyqa__ctl_1_1devices_1_1vacuum_1_1commands_1_1RequestResetCommand.html#a53de7ccfeb12e1b8f4c0ea8a82410d4e" target="_top" xlink:title=" ">
<polygon fill="white" stroke="black" points="688.5,-245.5 688.5,-275.5 891.5,-275.5 891.5,-245.5 688.5,-245.5"/>
<text text-anchor="start" x="696.5" y="-263.5" font-family="Helvetica,sans-Serif" font-size="10.00">klyqa_ctl.devices.vacuum.commands.</text>
<text text-anchor="middle" x="790" y="-252.5" font-family="Helvetica,sans-Serif" font-size="10.00">RequestResetCommand.reset_json</text>
</a>
</g>
</g>
<!-- Node23&#45;&gt;Node24 -->
<g id="edge23" class="edge">
<title>Node23&#45;&gt;Node24</title>
<path fill="none" stroke="midnightblue" d="M645.01,-260.5C656,-260.5 667.23,-260.5 678.34,-260.5"/>
<polygon fill="midnightblue" stroke="midnightblue" points="678.49,-264 688.49,-260.5 678.49,-257 678.49,-264"/>
</g>
<!-- Node26 -->
<g id="node26" class="node">
<title>Node26</title>
<g id="a_node26"><a xlink:href="classklyqa__ctl_1_1devices_1_1vacuum_1_1commands_1_1RequestSetCommand.html#ac327b3b919e0d1a45ebe754e546f94f8" target="_top" xlink:title=" ">
<polygon fill="white" stroke="black" points="688.5,-196.5 688.5,-226.5 891.5,-226.5 891.5,-196.5 688.5,-196.5"/>
<text text-anchor="start" x="696.5" y="-214.5" font-family="Helvetica,sans-Serif" font-size="10.00">klyqa_ctl.devices.vacuum.commands.</text>
<text text-anchor="middle" x="790" y="-203.5" font-family="Helvetica,sans-Serif" font-size="10.00">RequestSetCommand.set_json</text>
</a>
</g>
</g>
<!-- Node25&#45;&gt;Node26 -->
<g id="edge25" class="edge">
<title>Node25&#45;&gt;Node26</title>
<path fill="none" stroke="midnightblue" d="M645.01,-211.5C656,-211.5 667.23,-211.5 678.34,-211.5"/>
<polygon fill="midnightblue" stroke="midnightblue" points="678.49,-215 688.49,-211.5 678.49,-208 678.49,-215"/>
</g>
<!-- Node28 -->
<g id="node28" class="node">
<title>Node28</title>
<g id="a_node28"><a xlink:href="classklyqa__ctl_1_1devices_1_1vacuum_1_1commands_1_1RoutineCommand.html#acaf3db880f88d37bb1cf8218a309e52c" target="_top" xlink:title=" ">
<polygon fill="white" stroke="black" points="688.5,-147.5 688.5,-177.5 891.5,-177.5 891.5,-147.5 688.5,-147.5"/>
<text text-anchor="start" x="696.5" y="-165.5" font-family="Helvetica,sans-Serif" font-size="10.00">klyqa_ctl.devices.vacuum.commands.</text>
<text text-anchor="middle" x="790" y="-154.5" font-family="Helvetica,sans-Serif" font-size="10.00">RoutineCommand.routine_json</text>
</a>
</g>
</g>
<!-- Node27&#45;&gt;Node28 -->
<g id="edge27" class="edge">
<title>Node27&#45;&gt;Node28</title>
<path fill="none" stroke="midnightblue" d="M645.01,-162.5C656,-162.5 667.23,-162.5 678.34,-162.5"/>
<polygon fill="midnightblue" stroke="midnightblue" points="678.49,-166 688.49,-162.5 678.49,-159 678.49,-166"/>
</g>
<!-- Node31 -->
<g id="node31" class="node">
<title>Node31</title>
<g id="a_node31"><a xlink:href="classklyqa__ctl_1_1devices_1_1response__message_1_1ResponseMessage.html#a076bcd25b3f41acdc763569b279c4545" target="_top" xlink:title=" ">
<polygon fill="white" stroke="black" points="697.5,-0.5 697.5,-30.5 882.5,-30.5 882.5,-0.5 697.5,-0.5"/>
<text text-anchor="start" x="705.5" y="-18.5" font-family="Helvetica,sans-Serif" font-size="10.00">klyqa_ctl.devices.response</text>
<text text-anchor="middle" x="790" y="-7.5" font-family="Helvetica,sans-Serif" font-size="10.00">_message.ResponseMessage.type</text>
</a>
</g>
</g>
<!-- Node30&#45;&gt;Node31 -->
<g id="edge30" class="edge">
<title>Node30&#45;&gt;Node31</title>
<path fill="none" stroke="midnightblue" d="M615.22,-15.5C637.68,-15.5 662.98,-15.5 687.18,-15.5"/>
<polygon fill="midnightblue" stroke="midnightblue" points="687.47,-19 697.47,-15.5 687.47,-12 687.47,-19"/>
</g>
<!-- Node32&#45;&gt;Node5 -->
<g id="edge32" class="edge">
<title>Node32&#45;&gt;Node5</title>
<path fill="none" stroke="midnightblue" d="M387.65,-320.52C394.58,-324.05 400.91,-328.62 406,-334.5 492.17,-434.02 354.3,-530.33 442,-628.5 442.65,-629.23 443.33,-629.94 444.01,-630.63"/>
<polygon fill="midnightblue" stroke="midnightblue" points="442.07,-633.57 451.99,-637.31 446.57,-628.21 442.07,-633.57"/>
</g>
<!-- Node32&#45;&gt;Node7 -->
<g id="edge33" class="edge">
<title>Node32&#45;&gt;Node7</title>
<path fill="none" stroke="midnightblue" d="M387.56,-309.5C404.24,-309.5 422.26,-309.5 439.9,-309.5"/>
<polygon fill="midnightblue" stroke="midnightblue" points="440.24,-313 450.24,-309.5 440.24,-306 440.24,-313"/>
</g>
<!-- Node32&#45;&gt;Node8 -->
<g id="edge34" class="edge">
<title>Node32&#45;&gt;Node8</title>
<path fill="none" stroke="midnightblue" d="M387.51,-320.65C394.47,-324.16 400.84,-328.68 406,-334.5 479.04,-416.83 367.7,-498.31 442,-579.5 442.66,-580.22 443.34,-580.93 444.04,-581.61"/>
<polygon fill="midnightblue" stroke="midnightblue" points="442.14,-584.58 452.08,-588.22 446.58,-579.17 442.14,-584.58"/>
</g>
<!-- Node32&#45;&gt;Node11 -->
<g id="edge35" class="edge">
<title>Node32&#45;&gt;Node11</title>
<path fill="none" stroke="midnightblue" d="M387.75,-321.06C394.57,-324.5 400.85,-328.9 406,-334.5 465.95,-399.69 381.05,-466.24 442,-530.5 442.8,-531.35 443.63,-532.16 444.48,-532.96"/>
<polygon fill="midnightblue" stroke="midnightblue" points="442.64,-535.97 452.67,-539.39 446.97,-530.46 442.64,-535.97"/>
</g>
<!-- Node32&#45;&gt;Node14 -->
<g id="edge36" class="edge">
<title>Node32&#45;&gt;Node14</title>
<path fill="none" stroke="midnightblue" d="M387.87,-321.59C394.59,-324.94 400.8,-329.17 406,-334.5 452.96,-382.66 394.3,-434.07 442,-481.5 442.97,-482.46 443.96,-483.39 444.99,-484.28"/>
<polygon fill="midnightblue" stroke="midnightblue" points="443.24,-487.33 453.36,-490.44 447.39,-481.69 443.24,-487.33"/>
</g>
<!-- Node32&#45;&gt;Node17 -->
<g id="edge37" class="edge">
<title>Node32&#45;&gt;Node17</title>
<path fill="none" stroke="midnightblue" d="M387.87,-297.41C394.58,-294.06 400.8,-289.83 406,-284.5 452.7,-236.69 394.79,-185.81 442,-138.5 443.43,-137.07 444.93,-135.71 446.48,-134.43"/>
<polygon fill="midnightblue" stroke="midnightblue" points="448.57,-137.25 454.73,-128.62 444.54,-131.52 448.57,-137.25"/>
</g>
<!-- Node32&#45;&gt;Node18 -->
<g id="edge38" class="edge">
<title>Node32&#45;&gt;Node18</title>
<path fill="none" stroke="midnightblue" d="M387.75,-297.94C394.57,-294.5 400.84,-290.1 406,-284.5 465.69,-219.66 381.62,-153.7 442,-89.5 443.23,-88.19 444.51,-86.95 445.85,-85.77"/>
<polygon fill="midnightblue" stroke="midnightblue" points="448.11,-88.45 454,-79.65 443.9,-82.85 448.11,-88.45"/>
</g>
<!-- Node32&#45;&gt;Node19 -->
<g id="edge39" class="edge">
<title>Node32&#45;&gt;Node19</title>
<path fill="none" stroke="midnightblue" d="M387.84,-324.66C394.24,-327.41 400.4,-330.66 406,-334.5 428.28,-349.79 419.48,-368.56 442,-383.5 444.45,-385.13 447,-386.64 449.63,-388.06"/>
<polygon fill="midnightblue" stroke="midnightblue" points="448.29,-391.3 458.82,-392.48 451.33,-384.99 448.29,-391.3"/>
</g>
<!-- Node32&#45;&gt;Node21 -->
<g id="edge40" class="edge">
<title>Node32&#45;&gt;Node21</title>
<path fill="none" stroke="midnightblue" d="M384.11,-324.53C408.89,-329.85 436.95,-335.87 462.5,-341.34"/>
<polygon fill="midnightblue" stroke="midnightblue" points="462.01,-344.82 472.52,-343.49 463.48,-337.97 462.01,-344.82"/>
</g>
<!-- Node32&#45;&gt;Node23 -->
<g id="edge41" class="edge">
<title>Node32&#45;&gt;Node23</title>
<path fill="none" stroke="midnightblue" d="M384.11,-294.47C408.89,-289.15 436.95,-283.13 462.5,-277.66"/>
<polygon fill="midnightblue" stroke="midnightblue" points="463.48,-281.03 472.52,-275.51 462.01,-274.18 463.48,-281.03"/>
</g>
<!-- Node32&#45;&gt;Node25 -->
<g id="edge42" class="edge">
<title>Node32&#45;&gt;Node25</title>
<path fill="none" stroke="midnightblue" d="M387.33,-294.48C393.91,-291.7 400.25,-288.4 406,-284.5 428.06,-269.52 419.78,-251.24 442,-236.5 445.1,-234.44 448.36,-232.55 451.74,-230.82"/>
<polygon fill="midnightblue" stroke="midnightblue" points="453.28,-233.96 460.88,-226.58 450.34,-227.61 453.28,-233.96"/>
</g>
<!-- Node32&#45;&gt;Node27 -->
<g id="edge43" class="edge">
<title>Node32&#45;&gt;Node27</title>
<path fill="none" stroke="midnightblue" d="M387.72,-296.57C394.38,-293.38 400.62,-289.41 406,-284.5 439.95,-253.48 407.72,-218.15 442,-187.5 443.74,-185.94 445.57,-184.48 447.46,-183.1"/>
<polygon fill="midnightblue" stroke="midnightblue" points="449.57,-185.91 456.17,-177.62 445.84,-179.98 449.57,-185.91"/>
</g>
<!-- Node32&#45;&gt;Node29 -->
<g id="edge44" class="edge">
<title>Node32&#45;&gt;Node29</title>
<path fill="none" stroke="midnightblue" d="M387.74,-322.41C394.39,-325.61 400.63,-329.58 406,-334.5 440.2,-365.86 407.32,-401.67 442,-432.5 447.99,-437.82 454.94,-442.02 462.35,-445.32"/>
<polygon fill="midnightblue" stroke="midnightblue" points="461.34,-448.68 471.93,-449.03 463.87,-442.15 461.34,-448.68"/>
</g>
<!-- Node32&#45;&gt;Node30 -->
<g id="edge45" class="edge">
<title>Node32&#45;&gt;Node30</title>
<path fill="none" stroke="midnightblue" d="M387.51,-298.35C394.47,-294.84 400.84,-290.32 406,-284.5 479.04,-202.17 367.7,-120.69 442,-39.5 447.75,-33.22 454.81,-28.45 462.51,-24.83"/>
<polygon fill="midnightblue" stroke="midnightblue" points="463.83,-28.08 471.8,-21.1 461.22,-21.58 463.83,-28.08"/>
</g>
</g>
</svg>
