<?xml version="1.0" encoding="UTF-8" standalone="no"?>
<!DOCTYPE svg PUBLIC "-//W3C//DTD SVG 1.1//EN"
 "http://www.w3.org/Graphics/SVG/1.1/DTD/svg11.dtd">
<!-- Generated by graphviz version 2.43.0 (0)
 -->
<!-- Title: klyqa_ctl.account.Account.perform_login Pages: 1 -->
<svg width="1147pt" height="802pt"
 viewBox="0.00 0.00 1147.00 802.00" xmlns="http://www.w3.org/2000/svg" xmlns:xlink="http://www.w3.org/1999/xlink">
<g id="graph0" class="graph" transform="scale(1 1) rotate(0) translate(4 798)">
<title>klyqa_ctl.account.Account.perform_login</title>
<polygon fill="white" stroke="transparent" points="-4,4 -4,-798 1143,-798 1143,4 -4,4"/>
<!-- Node1 -->
<g id="node1" class="node">
<title>Node1</title>
<g id="a_node1"><a xlink:title=" ">
<polygon fill="#bfbfbf" stroke="black" points="0,-444.5 0,-474.5 186,-474.5 186,-444.5 0,-444.5"/>
<text text-anchor="start" x="8" y="-462.5" font-family="Helvetica,sans-Serif" font-size="10.00">klyqa_ctl.account.Account.perform</text>
<text text-anchor="middle" x="93" y="-451.5" font-family="Helvetica,sans-Serif" font-size="10.00">_login</text>
</a>
</g>
</g>
<!-- Node2 -->
<g id="node2" class="node">
<title>Node2</title>
<g id="a_node2"><a xlink:href="classklyqa__ctl_1_1account_1_1Account.html#aeb463ade6756bf093a809634f64c6ef6" target="_top" xlink:title=" ">
<polygon fill="white" stroke="black" points="222,-568 222,-587 395,-587 395,-568 222,-568"/>
<text text-anchor="middle" x="308.5" y="-575" font-family="Helvetica,sans-Serif" font-size="10.00">klyqa_ctl.account.Account.cloud</text>
</a>
</g>
</g>
<!-- Node1&#45;&gt;Node2 -->
<g id="edge1" class="edge">
<title>Node1&#45;&gt;Node2</title>
<path fill="none" stroke="midnightblue" d="M109.04,-474.82C131.53,-496.81 176.22,-537.03 222,-558.5 227.29,-560.98 232.92,-563.15 238.67,-565.03"/>
<polygon fill="midnightblue" stroke="midnightblue" points="237.83,-568.44 248.41,-567.95 239.84,-561.73 237.83,-568.44"/>
</g>
<!-- Node3 -->
<g id="node3" class="node">
<title>Node3</title>
<g id="a_node3"><a xlink:href="classklyqa__ctl_1_1devices_1_1device_1_1Device.html#a574647293c61d5f53e153d48ddb31f65" target="_top" xlink:title=" ">
<polygon fill="white" stroke="black" points="238.5,-518.5 238.5,-548.5 378.5,-548.5 378.5,-518.5 238.5,-518.5"/>
<text text-anchor="start" x="246.5" y="-536.5" font-family="Helvetica,sans-Serif" font-size="10.00">klyqa_ctl.devices.device.</text>
<text text-anchor="middle" x="308.5" y="-525.5" font-family="Helvetica,sans-Serif" font-size="10.00">Device.cloud</text>
</a>
</g>
</g>
<!-- Node1&#45;&gt;Node3 -->
<g id="edge2" class="edge">
<title>Node1&#45;&gt;Node3</title>
<path fill="none" stroke="midnightblue" d="M129.79,-474.58C155.27,-485.04 190.44,-498.94 222,-509.5 228.04,-511.52 234.37,-513.52 240.72,-515.44"/>
<polygon fill="midnightblue" stroke="midnightblue" points="240.11,-518.91 250.69,-518.4 242.1,-512.2 240.11,-518.91"/>
</g>
<!-- Node4 -->
<g id="node4" class="node">
<title>Node4</title>
<g id="a_node4"><a xlink:href="classklyqa__ctl_1_1general_1_1general_1_1Command.html#a4aa9e4db12aecf5520e974204c635d38" target="_top" xlink:title=" ">
<polygon fill="white" stroke="black" points="237,-469.5 237,-499.5 380,-499.5 380,-469.5 237,-469.5"/>
<text text-anchor="start" x="245" y="-487.5" font-family="Helvetica,sans-Serif" font-size="10.00">klyqa_ctl.general.general.</text>
<text text-anchor="middle" x="308.5" y="-476.5" font-family="Helvetica,sans-Serif" font-size="10.00">Command.cloud</text>
</a>
</g>
</g>
<!-- Node1&#45;&gt;Node4 -->
<g id="edge3" class="edge">
<title>Node1&#45;&gt;Node4</title>
<path fill="none" stroke="midnightblue" d="M186.09,-470.28C199.67,-471.87 213.58,-473.5 226.9,-475.06"/>
<polygon fill="midnightblue" stroke="midnightblue" points="226.62,-478.55 236.96,-476.24 227.43,-471.6 226.62,-478.55"/>
</g>
<!-- Node32 -->
<g id="node32" class="node">
<title>Node32</title>
<g id="a_node32"><a xlink:href="classklyqa__ctl_1_1general_1_1general_1_1CloudStateCommand.html#a6bbc8b1333f0a45ce38f1e81a6093bc1" target="_top" xlink:title=" ">
<polygon fill="white" stroke="black" points="234,-420.5 234,-450.5 383,-450.5 383,-420.5 234,-420.5"/>
<text text-anchor="start" x="242" y="-438.5" font-family="Helvetica,sans-Serif" font-size="10.00">klyqa_ctl.general.general.</text>
<text text-anchor="middle" x="308.5" y="-427.5" font-family="Helvetica,sans-Serif" font-size="10.00">CloudStateCommand.cloud</text>
</a>
</g>
</g>
<!-- Node1&#45;&gt;Node32 -->
<g id="edge31" class="edge">
<title>Node1&#45;&gt;Node32</title>
<path fill="none" stroke="midnightblue" d="M186.09,-449.15C198.52,-447.75 211.23,-446.32 223.51,-444.94"/>
<polygon fill="midnightblue" stroke="midnightblue" points="224.16,-448.39 233.71,-443.79 223.38,-441.43 224.16,-448.39"/>
</g>
<!-- Node33 -->
<g id="node33" class="node">
<title>Node33</title>
<g id="a_node33"><a xlink:href="classklyqa__ctl_1_1klyqa__ctl_1_1Client.html#a7d8a302d936e8e1889f175bac259f565" target="_top" xlink:title=" ">
<polygon fill="white" stroke="black" points="224,-382 224,-401 393,-401 393,-382 224,-382"/>
<text text-anchor="middle" x="308.5" y="-389" font-family="Helvetica,sans-Serif" font-size="10.00">klyqa_ctl.klyqa_ctl.Client.cloud</text>
</a>
</g>
</g>
<!-- Node1&#45;&gt;Node33 -->
<g id="edge46" class="edge">
<title>Node1&#45;&gt;Node33</title>
<path fill="none" stroke="midnightblue" d="M130.26,-444.47C155.66,-434.3 190.54,-421.03 222,-411.5 231.63,-408.58 241.98,-405.84 252.03,-403.37"/>
<polygon fill="midnightblue" stroke="midnightblue" points="253.04,-406.73 261.95,-401.01 251.41,-399.92 253.04,-406.73"/>
</g>
<!-- Node34 -->
<g id="node34" class="node">
<title>Node34</title>
<g id="a_node34"><a xlink:href="classklyqa__ctl_1_1account_1_1Account.html#a5ab3a2f4382c4437255871d4296cee9a" target="_top" xlink:title=" ">
<polygon fill="white" stroke="black" points="227,-63.5 227,-93.5 390,-93.5 390,-63.5 227,-63.5"/>
<text text-anchor="start" x="235" y="-81.5" font-family="Helvetica,sans-Serif" font-size="10.00">klyqa_ctl.account.Account.run</text>
<text text-anchor="middle" x="308.5" y="-70.5" font-family="Helvetica,sans-Serif" font-size="10.00">_password_prompt</text>
</a>
</g>
</g>
<!-- Node1&#45;&gt;Node34 -->
<g id="edge47" class="edge">
<title>Node1&#45;&gt;Node34</title>
<path fill="none" stroke="midnightblue" d="M102.63,-444.09C135.63,-385.2 253.94,-174.07 294.07,-102.46"/>
<polygon fill="midnightblue" stroke="midnightblue" points="297.16,-104.12 298.99,-93.68 291.05,-100.69 297.16,-104.12"/>
</g>
<!-- Node5 -->
<g id="node5" class="node">
<title>Node5</title>
<g id="a_node5"><a xlink:href="classklyqa__ctl_1_1devices_1_1light_1_1commands_1_1FwUpdateCommand.html#a9de3441c7fbba5f5a19ea914970a3db7" target="_top" xlink:title=" ">
<polygon fill="white" stroke="black" points="448.5,-322.5 448.5,-352.5 634.5,-352.5 634.5,-322.5 448.5,-322.5"/>
<text text-anchor="start" x="456.5" y="-340.5" font-family="Helvetica,sans-Serif" font-size="10.00">klyqa_ctl.devices.light.commands.</text>
<text text-anchor="middle" x="541.5" y="-329.5" font-family="Helvetica,sans-Serif" font-size="10.00">FwUpdateCommand.json</text>
</a>
</g>
</g>
<!-- Node4&#45;&gt;Node5 -->
<g id="edge4" class="edge">
<title>Node4&#45;&gt;Node5</title>
<path fill="none" stroke="midnightblue" d="M380.15,-470.82C385.54,-467.99 390.59,-464.59 395,-460.5 429.33,-428.66 395.77,-392.33 431,-361.5 433.68,-359.15 436.54,-357.02 439.53,-355.08"/>
<polygon fill="midnightblue" stroke="midnightblue" points="441.33,-358.09 448.3,-350.12 437.88,-352 441.33,-358.09"/>
</g>
<!-- Node7 -->
<g id="node7" class="node">
<title>Node7</title>
<g id="a_node7"><a xlink:href="classklyqa__ctl_1_1devices_1_1light_1_1commands_1_1TransitionCommand.html#aaf9d8431e346c86b9959102c2d7f3316" target="_top" xlink:title=" ">
<polygon fill="white" stroke="black" points="448.5,-665.5 448.5,-695.5 634.5,-695.5 634.5,-665.5 448.5,-665.5"/>
<text text-anchor="start" x="456.5" y="-683.5" font-family="Helvetica,sans-Serif" font-size="10.00">klyqa_ctl.devices.light.commands.</text>
<text text-anchor="middle" x="541.5" y="-672.5" font-family="Helvetica,sans-Serif" font-size="10.00">TransitionCommand.json</text>
</a>
</g>
</g>
<!-- Node4&#45;&gt;Node7 -->
<g id="edge6" class="edge">
<title>Node4&#45;&gt;Node7</title>
<path fill="none" stroke="midnightblue" d="M380.26,-498.31C385.7,-501.35 390.72,-505.03 395,-509.5 441.5,-558.1 382.86,-609.52 431,-656.5 433.62,-659.06 436.45,-661.37 439.44,-663.46"/>
<polygon fill="midnightblue" stroke="midnightblue" points="437.88,-666.61 448.26,-668.77 441.49,-660.61 437.88,-666.61"/>
</g>
<!-- Node8 -->
<g id="node8" class="node">
<title>Node8</title>
<g id="a_node8"><a xlink:href="classklyqa__ctl_1_1devices_1_1light_1_1commands_1_1ColorCommand.html#afa8f262e4047666707237c4dfe8615c3" target="_top" xlink:title=" ">
<polygon fill="white" stroke="black" points="448.5,-273.5 448.5,-303.5 634.5,-303.5 634.5,-273.5 448.5,-273.5"/>
<text text-anchor="start" x="456.5" y="-291.5" font-family="Helvetica,sans-Serif" font-size="10.00">klyqa_ctl.devices.light.commands.</text>
<text text-anchor="middle" x="541.5" y="-280.5" font-family="Helvetica,sans-Serif" font-size="10.00">ColorCommand.json</text>
</a>
</g>
</g>
<!-- Node4&#45;&gt;Node8 -->
<g id="edge7" class="edge">
<title>Node4&#45;&gt;Node8</title>
<path fill="none" stroke="midnightblue" d="M380.24,-471.55C385.68,-468.57 390.72,-464.94 395,-460.5 442.02,-411.8 382.59,-359.82 431,-312.5 433.62,-309.94 436.45,-307.63 439.43,-305.54"/>
<polygon fill="midnightblue" stroke="midnightblue" points="441.49,-308.38 448.25,-300.22 437.88,-302.39 441.49,-308.38"/>
</g>
<!-- Node11 -->
<g id="node11" class="node">
<title>Node11</title>
<g id="a_node11"><a xlink:href="classklyqa__ctl_1_1devices_1_1light_1_1commands_1_1TemperatureCommand.html#aaa297cd598227ab2f33a6d111532e5e0" target="_top" xlink:title=" ">
<polygon fill="white" stroke="black" points="448.5,-224.5 448.5,-254.5 634.5,-254.5 634.5,-224.5 448.5,-224.5"/>
<text text-anchor="start" x="456.5" y="-242.5" font-family="Helvetica,sans-Serif" font-size="10.00">klyqa_ctl.devices.light.commands.</text>
<text text-anchor="middle" x="541.5" y="-231.5" font-family="Helvetica,sans-Serif" font-size="10.00">TemperatureCommand.json</text>
</a>
</g>
</g>
<!-- Node4&#45;&gt;Node11 -->
<g id="edge10" class="edge">
<title>Node4&#45;&gt;Node11</title>
<path fill="none" stroke="midnightblue" d="M380.11,-472.04C385.66,-468.96 390.74,-465.17 395,-460.5 454.95,-394.71 369.18,-327.53 431,-263.5 433.69,-260.71 436.63,-258.21 439.76,-255.97"/>
<polygon fill="midnightblue" stroke="midnightblue" points="441.75,-258.85 448.44,-250.63 438.09,-252.89 441.75,-258.85"/>
</g>
<!-- Node14 -->
<g id="node14" class="node">
<title>Node14</title>
<g id="a_node14"><a xlink:href="classklyqa__ctl_1_1devices_1_1light_1_1commands_1_1BrightnessCommand.html#a946e7180dd8f3bd4621c23b24e63469a" target="_top" xlink:title=" ">
<polygon fill="white" stroke="black" points="448.5,-175.5 448.5,-205.5 634.5,-205.5 634.5,-175.5 448.5,-175.5"/>
<text text-anchor="start" x="456.5" y="-193.5" font-family="Helvetica,sans-Serif" font-size="10.00">klyqa_ctl.devices.light.commands.</text>
<text text-anchor="middle" x="541.5" y="-182.5" font-family="Helvetica,sans-Serif" font-size="10.00">BrightnessCommand.json</text>
</a>
</g>
</g>
<!-- Node4&#45;&gt;Node14 -->
<g id="edge13" class="edge">
<title>Node4&#45;&gt;Node14</title>
<path fill="none" stroke="midnightblue" d="M380.29,-472.19C385.8,-469.09 390.83,-465.25 395,-460.5 467.96,-377.52 355.67,-295.34 431,-214.5 433.68,-211.63 436.62,-209.06 439.75,-206.76"/>
<polygon fill="midnightblue" stroke="midnightblue" points="441.86,-209.57 448.49,-201.3 438.16,-203.63 441.86,-209.57"/>
</g>
<!-- Node17 -->
<g id="node17" class="node">
<title>Node17</title>
<g id="a_node17"><a xlink:href="classklyqa__ctl_1_1devices_1_1light_1_1commands_1_1ExternalSourceCommand.html#a393710b54f709b852bfd0f3769c39ce6" target="_top" xlink:title=" ">
<polygon fill="white" stroke="black" points="448.5,-469.5 448.5,-499.5 634.5,-499.5 634.5,-469.5 448.5,-469.5"/>
<text text-anchor="start" x="456.5" y="-487.5" font-family="Helvetica,sans-Serif" font-size="10.00">klyqa_ctl.devices.light.commands.</text>
<text text-anchor="middle" x="541.5" y="-476.5" font-family="Helvetica,sans-Serif" font-size="10.00">ExternalSourceCommand.json</text>
</a>
</g>
</g>
<!-- Node4&#45;&gt;Node17 -->
<g id="edge16" class="edge">
<title>Node4&#45;&gt;Node17</title>
<path fill="none" stroke="midnightblue" d="M380.06,-484.5C398.37,-484.5 418.45,-484.5 438.04,-484.5"/>
<polygon fill="midnightblue" stroke="midnightblue" points="438.22,-488 448.22,-484.5 438.22,-481 438.22,-488"/>
</g>
<!-- Node18 -->
<g id="node18" class="node">
<title>Node18</title>
<g id="a_node18"><a xlink:href="classklyqa__ctl_1_1devices_1_1light_1_1commands_1_1RoutineCommand.html#af3395a663a3dbdff8117ee708f80adec" target="_top" xlink:title=" ">
<polygon fill="white" stroke="black" points="448.5,-420.5 448.5,-450.5 634.5,-450.5 634.5,-420.5 448.5,-420.5"/>
<text text-anchor="start" x="456.5" y="-438.5" font-family="Helvetica,sans-Serif" font-size="10.00">klyqa_ctl.devices.light.commands.</text>
<text text-anchor="middle" x="541.5" y="-427.5" font-family="Helvetica,sans-Serif" font-size="10.00">RoutineCommand.json</text>
</a>
</g>
</g>
<!-- Node4&#45;&gt;Node18 -->
<g id="edge17" class="edge">
<title>Node4&#45;&gt;Node18</title>
<path fill="none" stroke="midnightblue" d="M380.06,-469.53C405.24,-464.19 433.79,-458.13 459.76,-452.63"/>
<polygon fill="midnightblue" stroke="midnightblue" points="460.52,-456.04 469.57,-450.55 459.06,-449.2 460.52,-456.04"/>
</g>
<!-- Node19 -->
<g id="node19" class="node">
<title>Node19</title>
<g id="a_node19"><a xlink:href="classklyqa__ctl_1_1devices_1_1vacuum_1_1commands_1_1ProductinfoCommand.html#a23d375f048835d4b0f12602764d2a6c1" target="_top" xlink:title=" ">
<polygon fill="white" stroke="black" points="440,-763.5 440,-793.5 643,-793.5 643,-763.5 440,-763.5"/>
<text text-anchor="start" x="448" y="-781.5" font-family="Helvetica,sans-Serif" font-size="10.00">klyqa_ctl.devices.vacuum.commands.</text>
<text text-anchor="middle" x="541.5" y="-770.5" font-family="Helvetica,sans-Serif" font-size="10.00">ProductinfoCommand.json</text>
</a>
</g>
</g>
<!-- Node4&#45;&gt;Node19 -->
<g id="edge18" class="edge">
<title>Node4&#45;&gt;Node19</title>
<path fill="none" stroke="midnightblue" d="M380.32,-497.66C385.82,-500.82 390.84,-504.72 395,-509.5 467.25,-592.52 355.94,-674.01 431,-754.5 431.67,-755.22 432.35,-755.91 433.05,-756.59"/>
<polygon fill="midnightblue" stroke="midnightblue" points="431.13,-759.54 441.08,-763.18 435.57,-754.13 431.13,-759.54"/>
</g>
<!-- Node21 -->
<g id="node21" class="node">
<title>Node21</title>
<g id="a_node21"><a xlink:href="classklyqa__ctl_1_1devices_1_1vacuum_1_1commands_1_1RequestGetCommand.html#a216966811184b718a4659bf081113f38" target="_top" xlink:title=" ">
<polygon fill="white" stroke="black" points="440,-714.5 440,-744.5 643,-744.5 643,-714.5 440,-714.5"/>
<text text-anchor="start" x="448" y="-732.5" font-family="Helvetica,sans-Serif" font-size="10.00">klyqa_ctl.devices.vacuum.commands.</text>
<text text-anchor="middle" x="541.5" y="-721.5" font-family="Helvetica,sans-Serif" font-size="10.00">RequestGetCommand.json</text>
</a>
</g>
</g>
<!-- Node4&#45;&gt;Node21 -->
<g id="edge20" class="edge">
<title>Node4&#45;&gt;Node21</title>
<path fill="none" stroke="midnightblue" d="M380.14,-497.82C385.67,-500.95 390.75,-504.79 395,-509.5 454.33,-575.26 369.45,-641.81 431,-705.5 431.81,-706.34 432.65,-707.15 433.5,-707.94"/>
<polygon fill="midnightblue" stroke="midnightblue" points="431.67,-710.96 441.7,-714.37 435.99,-705.45 431.67,-710.96"/>
</g>
<!-- Node23 -->
<g id="node23" class="node">
<title>Node23</title>
<g id="a_node23"><a xlink:href="classklyqa__ctl_1_1devices_1_1vacuum_1_1commands_1_1RequestResetCommand.html#a1ac56b80427d60d9f55079ae846ae25e" target="_top" xlink:title=" ">
<polygon fill="white" stroke="black" points="440,-616.5 440,-646.5 643,-646.5 643,-616.5 440,-616.5"/>
<text text-anchor="start" x="448" y="-634.5" font-family="Helvetica,sans-Serif" font-size="10.00">klyqa_ctl.devices.vacuum.commands.</text>
<text text-anchor="middle" x="541.5" y="-623.5" font-family="Helvetica,sans-Serif" font-size="10.00">RequestResetCommand.json</text>
</a>
</g>
</g>
<!-- Node4&#45;&gt;Node23 -->
<g id="edge22" class="edge">
<title>Node4&#45;&gt;Node23</title>
<path fill="none" stroke="midnightblue" d="M380.15,-499.06C385.55,-501.94 390.59,-505.38 395,-509.5 428.9,-541.18 396.03,-577 431,-607.5 432.34,-608.67 433.72,-609.78 435.13,-610.84"/>
<polygon fill="midnightblue" stroke="midnightblue" points="433.36,-613.86 443.65,-616.39 437.18,-608 433.36,-613.86"/>
</g>
<!-- Node25 -->
<g id="node25" class="node">
<title>Node25</title>
<g id="a_node25"><a xlink:href="classklyqa__ctl_1_1devices_1_1vacuum_1_1commands_1_1RequestSetCommand.html#a354b74be46f4b7d8a56811eaab910959" target="_top" xlink:title=" ">
<polygon fill="white" stroke="black" points="440,-567.5 440,-597.5 643,-597.5 643,-567.5 440,-567.5"/>
<text text-anchor="start" x="448" y="-585.5" font-family="Helvetica,sans-Serif" font-size="10.00">klyqa_ctl.devices.vacuum.commands.</text>
<text text-anchor="middle" x="541.5" y="-574.5" font-family="Helvetica,sans-Serif" font-size="10.00">RequestSetCommand.json</text>
</a>
</g>
</g>
<!-- Node4&#45;&gt;Node25 -->
<g id="edge24" class="edge">
<title>Node4&#45;&gt;Node25</title>
<path fill="none" stroke="midnightblue" d="M376.82,-499.51C383.24,-502.3 389.43,-505.6 395,-509.5 417.14,-525 408.34,-543.77 431,-558.5 433.49,-560.12 436.06,-561.62 438.71,-563.03"/>
<polygon fill="midnightblue" stroke="midnightblue" points="437.44,-566.3 447.97,-567.45 440.45,-559.98 437.44,-566.3"/>
</g>
<!-- Node27 -->
<g id="node27" class="node">
<title>Node27</title>
<g id="a_node27"><a xlink:href="classklyqa__ctl_1_1devices_1_1vacuum_1_1commands_1_1RoutineCommand.html#a926a94c8cc5104275078e438fb301028" target="_top" xlink:title=" ">
<polygon fill="white" stroke="black" points="440,-518.5 440,-548.5 643,-548.5 643,-518.5 440,-518.5"/>
<text text-anchor="start" x="448" y="-536.5" font-family="Helvetica,sans-Serif" font-size="10.00">klyqa_ctl.devices.vacuum.commands.</text>
<text text-anchor="middle" x="541.5" y="-525.5" font-family="Helvetica,sans-Serif" font-size="10.00">RoutineCommand.json</text>
</a>
</g>
</g>
<!-- Node4&#45;&gt;Node27 -->
<g id="edge26" class="edge">
<title>Node4&#45;&gt;Node27</title>
<path fill="none" stroke="midnightblue" d="M380.06,-499.47C405.24,-504.81 433.79,-510.87 459.76,-516.37"/>
<polygon fill="midnightblue" stroke="midnightblue" points="459.06,-519.8 469.57,-518.45 460.52,-512.96 459.06,-519.8"/>
</g>
<!-- Node29 -->
<g id="node29" class="node">
<title>Node29</title>
<g id="a_node29"><a xlink:href="classklyqa__ctl_1_1general_1_1general_1_1Command.html#a8c8ad93fedd0da0e0021f58714ec7fb5" target="_top" xlink:title=" ">
<polygon fill="white" stroke="black" points="470,-126.5 470,-156.5 613,-156.5 613,-126.5 470,-126.5"/>
<text text-anchor="start" x="478" y="-144.5" font-family="Helvetica,sans-Serif" font-size="10.00">klyqa_ctl.general.general.</text>
<text text-anchor="middle" x="541.5" y="-133.5" font-family="Helvetica,sans-Serif" font-size="10.00">Command.json</text>
</a>
</g>
</g>
<!-- Node4&#45;&gt;Node29 -->
<g id="edge28" class="edge">
<title>Node4&#45;&gt;Node29</title>
<path fill="none" stroke="midnightblue" d="M380.01,-472.53C385.65,-469.36 390.78,-465.41 395,-460.5 481.03,-360.27 342.11,-263.2 431,-165.5 438.85,-156.87 449.03,-150.97 460.01,-146.99"/>
<polygon fill="midnightblue" stroke="midnightblue" points="461.31,-150.25 469.84,-143.96 459.25,-143.56 461.31,-150.25"/>
</g>
<!-- Node30 -->
<g id="node30" class="node">
<title>Node30</title>
<g id="a_node30"><a xlink:href="classklyqa__ctl_1_1general_1_1general_1_1CommandTyped.html#a96dfd43912c4640f381424bdd44eebca" target="_top" xlink:title=" ">
<polygon fill="white" stroke="black" points="470,-371.5 470,-401.5 613,-401.5 613,-371.5 470,-371.5"/>
<text text-anchor="start" x="478" y="-389.5" font-family="Helvetica,sans-Serif" font-size="10.00">klyqa_ctl.general.general.</text>
<text text-anchor="middle" x="541.5" y="-378.5" font-family="Helvetica,sans-Serif" font-size="10.00">CommandTyped.json</text>
</a>
</g>
</g>
<!-- Node4&#45;&gt;Node30 -->
<g id="edge29" class="edge">
<title>Node4&#45;&gt;Node30</title>
<path fill="none" stroke="midnightblue" d="M378.99,-469.38C384.63,-466.86 390.06,-463.92 395,-460.5 417.22,-445.12 408.41,-426.33 431,-411.5 439.77,-405.74 449.69,-401.3 459.89,-397.88"/>
<polygon fill="midnightblue" stroke="midnightblue" points="461.17,-401.15 469.73,-394.9 459.14,-394.45 461.17,-401.15"/>
</g>
<!-- Node6 -->
<g id="node6" class="node">
<title>Node6</title>
<g id="a_node6"><a xlink:href="classklyqa__ctl_1_1devices_1_1light_1_1commands_1_1FwUpdateCommand.html#a7dc482a4e9a65d49ce0a61671ed6868e" target="_top" xlink:title=" ">
<polygon fill="white" stroke="black" points="704,-322.5 704,-352.5 890,-352.5 890,-322.5 704,-322.5"/>
<text text-anchor="start" x="712" y="-340.5" font-family="Helvetica,sans-Serif" font-size="10.00">klyqa_ctl.devices.light.commands.</text>
<text text-anchor="middle" x="797" y="-329.5" font-family="Helvetica,sans-Serif" font-size="10.00">FwUpdateCommand.url_json</text>
</a>
</g>
</g>
<!-- Node5&#45;&gt;Node6 -->
<g id="edge5" class="edge">
<title>Node5&#45;&gt;Node6</title>
<path fill="none" stroke="midnightblue" d="M634.74,-337.5C653.9,-337.5 674.21,-337.5 693.72,-337.5"/>
<polygon fill="midnightblue" stroke="midnightblue" points="693.83,-341 703.83,-337.5 693.83,-334 693.83,-341"/>
</g>
<!-- Node9 -->
<g id="node9" class="node">
<title>Node9</title>
<g id="a_node9"><a xlink:href="classklyqa__ctl_1_1devices_1_1light_1_1commands_1_1ColorCommand.html#a6ce99d7f4f232fb2f11e6efb7e85e778" target="_top" xlink:title=" ">
<polygon fill="white" stroke="black" points="704,-273.5 704,-303.5 890,-303.5 890,-273.5 704,-273.5"/>
<text text-anchor="start" x="712" y="-291.5" font-family="Helvetica,sans-Serif" font-size="10.00">klyqa_ctl.devices.light.commands.</text>
<text text-anchor="middle" x="797" y="-280.5" font-family="Helvetica,sans-Serif" font-size="10.00">ColorCommand.color_json</text>
</a>
</g>
</g>
<!-- Node8&#45;&gt;Node9 -->
<g id="edge8" class="edge">
<title>Node8&#45;&gt;Node9</title>
<path fill="none" stroke="midnightblue" d="M634.74,-288.5C653.9,-288.5 674.21,-288.5 693.72,-288.5"/>
<polygon fill="midnightblue" stroke="midnightblue" points="693.83,-292 703.83,-288.5 693.83,-285 693.83,-292"/>
</g>
<!-- Node10 -->
<g id="node10" class="node">
<title>Node10</title>
<g id="a_node10"><a xlink:href="classklyqa__ctl_1_1devices_1_1light_1_1response__status_1_1ResponseStatus.html#a327c18fd6f8a38e75e1bbc2f895df592" target="_top" xlink:title=" ">
<polygon fill="white" stroke="black" points="954,-273.5 954,-303.5 1127,-303.5 1127,-273.5 954,-273.5"/>
<text text-anchor="start" x="962" y="-291.5" font-family="Helvetica,sans-Serif" font-size="10.00">klyqa_ctl.devices.light.response</text>
<text text-anchor="middle" x="1040.5" y="-280.5" font-family="Helvetica,sans-Serif" font-size="10.00">_status.ResponseStatus.color</text>
</a>
</g>
</g>
<!-- Node9&#45;&gt;Node10 -->
<g id="edge9" class="edge">
<title>Node9&#45;&gt;Node10</title>
<path fill="none" stroke="midnightblue" d="M890.33,-288.5C907.81,-288.5 926.13,-288.5 943.71,-288.5"/>
<polygon fill="midnightblue" stroke="midnightblue" points="943.96,-292 953.96,-288.5 943.96,-285 943.96,-292"/>
</g>
<!-- Node12 -->
<g id="node12" class="node">
<title>Node12</title>
<g id="a_node12"><a xlink:href="classklyqa__ctl_1_1devices_1_1light_1_1commands_1_1TemperatureCommand.html#a0b45255dc9218a36450152f1118a8280" target="_top" xlink:title=" ">
<polygon fill="white" stroke="black" points="688,-224.5 688,-254.5 906,-254.5 906,-224.5 688,-224.5"/>
<text text-anchor="start" x="696" y="-242.5" font-family="Helvetica,sans-Serif" font-size="10.00">klyqa_ctl.devices.light.commands.</text>
<text text-anchor="middle" x="797" y="-231.5" font-family="Helvetica,sans-Serif" font-size="10.00">TemperatureCommand.temperature_json</text>
</a>
</g>
</g>
<!-- Node11&#45;&gt;Node12 -->
<g id="edge11" class="edge">
<title>Node11&#45;&gt;Node12</title>
<path fill="none" stroke="midnightblue" d="M634.74,-239.5C648.63,-239.5 663.13,-239.5 677.49,-239.5"/>
<polygon fill="midnightblue" stroke="midnightblue" points="677.9,-243 687.9,-239.5 677.9,-236 677.9,-243"/>
</g>
<!-- Node13 -->
<g id="node13" class="node">
<title>Node13</title>
<g id="a_node13"><a xlink:href="classklyqa__ctl_1_1devices_1_1light_1_1response__status_1_1ResponseStatus.html#a2e732c44c35f39dc3d8fe269c24aef8a" target="_top" xlink:title=" ">
<polygon fill="white" stroke="black" points="942,-224.5 942,-254.5 1139,-254.5 1139,-224.5 942,-224.5"/>
<text text-anchor="start" x="950" y="-242.5" font-family="Helvetica,sans-Serif" font-size="10.00">klyqa_ctl.devices.light.response</text>
<text text-anchor="middle" x="1040.5" y="-231.5" font-family="Helvetica,sans-Serif" font-size="10.00">_status.ResponseStatus.temperature</text>
</a>
</g>
</g>
<!-- Node12&#45;&gt;Node13 -->
<g id="edge12" class="edge">
<title>Node12&#45;&gt;Node13</title>
<path fill="none" stroke="midnightblue" d="M906.04,-239.5C914.61,-239.5 923.27,-239.5 931.85,-239.5"/>
<polygon fill="midnightblue" stroke="midnightblue" points="931.86,-243 941.86,-239.5 931.86,-236 931.86,-243"/>
</g>
<!-- Node15 -->
<g id="node15" class="node">
<title>Node15</title>
<g id="a_node15"><a xlink:href="classklyqa__ctl_1_1devices_1_1light_1_1commands_1_1BrightnessCommand.html#aba34fce7f4d8d6aae6bcbaaa61c21a8c" target="_top" xlink:title=" ">
<polygon fill="white" stroke="black" points="698,-175.5 698,-205.5 896,-205.5 896,-175.5 698,-175.5"/>
<text text-anchor="start" x="706" y="-193.5" font-family="Helvetica,sans-Serif" font-size="10.00">klyqa_ctl.devices.light.commands.</text>
<text text-anchor="middle" x="797" y="-182.5" font-family="Helvetica,sans-Serif" font-size="10.00">BrightnessCommand.brightness_json</text>
</a>
</g>
</g>
<!-- Node14&#45;&gt;Node15 -->
<g id="edge14" class="edge">
<title>Node14&#45;&gt;Node15</title>
<path fill="none" stroke="midnightblue" d="M634.74,-190.5C651.9,-190.5 669.97,-190.5 687.56,-190.5"/>
<polygon fill="midnightblue" stroke="midnightblue" points="687.85,-194 697.85,-190.5 687.85,-187 687.85,-194"/>
</g>
<!-- Node16 -->
<g id="node16" class="node">
<title>Node16</title>
<g id="a_node16"><a xlink:href="classklyqa__ctl_1_1devices_1_1light_1_1response__status_1_1ResponseStatus.html#a762787729b726f6ad8bd5a9a3ae40a67" target="_top" xlink:title=" ">
<polygon fill="white" stroke="black" points="947,-175.5 947,-205.5 1134,-205.5 1134,-175.5 947,-175.5"/>
<text text-anchor="start" x="955" y="-193.5" font-family="Helvetica,sans-Serif" font-size="10.00">klyqa_ctl.devices.light.response</text>
<text text-anchor="middle" x="1040.5" y="-182.5" font-family="Helvetica,sans-Serif" font-size="10.00">_status.ResponseStatus.brightness</text>
</a>
</g>
</g>
<!-- Node15&#45;&gt;Node16 -->
<g id="edge15" class="edge">
<title>Node15&#45;&gt;Node16</title>
<path fill="none" stroke="midnightblue" d="M896.23,-190.5C909.55,-190.5 923.25,-190.5 936.64,-190.5"/>
<polygon fill="midnightblue" stroke="midnightblue" points="936.82,-194 946.82,-190.5 936.82,-187 936.82,-194"/>
</g>
<!-- Node20 -->
<g id="node20" class="node">
<title>Node20</title>
<g id="a_node20"><a xlink:href="classklyqa__ctl_1_1devices_1_1vacuum_1_1commands_1_1ProductinfoCommand.html#a1950a810783ab6312c31fa43dd06182c" target="_top" xlink:title=" ">
<polygon fill="white" stroke="black" points="694,-763.5 694,-793.5 900,-793.5 900,-763.5 694,-763.5"/>
<text text-anchor="start" x="702" y="-781.5" font-family="Helvetica,sans-Serif" font-size="10.00">klyqa_ctl.devices.vacuum.commands.</text>
<text text-anchor="middle" x="797" y="-770.5" font-family="Helvetica,sans-Serif" font-size="10.00">ProductinfoCommand.productinfo_json</text>
</a>
</g>
</g>
<!-- Node19&#45;&gt;Node20 -->
<g id="edge19" class="edge">
<title>Node19&#45;&gt;Node20</title>
<path fill="none" stroke="midnightblue" d="M643.05,-778.5C656.38,-778.5 670.12,-778.5 683.63,-778.5"/>
<polygon fill="midnightblue" stroke="midnightblue" points="683.91,-782 693.91,-778.5 683.91,-775 683.91,-782"/>
</g>
<!-- Node22 -->
<g id="node22" class="node">
<title>Node22</title>
<g id="a_node22"><a xlink:href="classklyqa__ctl_1_1devices_1_1vacuum_1_1commands_1_1RequestGetCommand.html#a71be3cb060fa2c05f2762d13267c6144" target="_top" xlink:title=" ">
<polygon fill="white" stroke="black" points="695.5,-714.5 695.5,-744.5 898.5,-744.5 898.5,-714.5 695.5,-714.5"/>
<text text-anchor="start" x="703.5" y="-732.5" font-family="Helvetica,sans-Serif" font-size="10.00">klyqa_ctl.devices.vacuum.commands.</text>
<text text-anchor="middle" x="797" y="-721.5" font-family="Helvetica,sans-Serif" font-size="10.00">RequestGetCommand.get_json</text>
</a>
</g>
</g>
<!-- Node21&#45;&gt;Node22 -->
<g id="edge21" class="edge">
<title>Node21&#45;&gt;Node22</title>
<path fill="none" stroke="midnightblue" d="M643.05,-729.5C656.85,-729.5 671.07,-729.5 685.04,-729.5"/>
<polygon fill="midnightblue" stroke="midnightblue" points="685.15,-733 695.15,-729.5 685.15,-726 685.15,-733"/>
</g>
<!-- Node24 -->
<g id="node24" class="node">
<title>Node24</title>
<g id="a_node24"><a xlink:href="classklyqa__ctl_1_1devices_1_1vacuum_1_1commands_1_1RequestResetCommand.html#a53de7ccfeb12e1b8f4c0ea8a82410d4e" target="_top" xlink:title=" ">
<polygon fill="white" stroke="black" points="695.5,-616.5 695.5,-646.5 898.5,-646.5 898.5,-616.5 695.5,-616.5"/>
<text text-anchor="start" x="703.5" y="-634.5" font-family="Helvetica,sans-Serif" font-size="10.00">klyqa_ctl.devices.vacuum.commands.</text>
<text text-anchor="middle" x="797" y="-623.5" font-family="Helvetica,sans-Serif" font-size="10.00">RequestResetCommand.reset_json</text>
</a>
</g>
</g>
<!-- Node23&#45;&gt;Node24 -->
<g id="edge23" class="edge">
<title>Node23&#45;&gt;Node24</title>
<path fill="none" stroke="midnightblue" d="M643.05,-631.5C656.85,-631.5 671.07,-631.5 685.04,-631.5"/>
<polygon fill="midnightblue" stroke="midnightblue" points="685.15,-635 695.15,-631.5 685.15,-628 685.15,-635"/>
</g>
<!-- Node26 -->
<g id="node26" class="node">
<title>Node26</title>
<g id="a_node26"><a xlink:href="classklyqa__ctl_1_1devices_1_1vacuum_1_1commands_1_1RequestSetCommand.html#ac327b3b919e0d1a45ebe754e546f94f8" target="_top" xlink:title=" ">
<polygon fill="white" stroke="black" points="695.5,-567.5 695.5,-597.5 898.5,-597.5 898.5,-567.5 695.5,-567.5"/>
<text text-anchor="start" x="703.5" y="-585.5" font-family="Helvetica,sans-Serif" font-size="10.00">klyqa_ctl.devices.vacuum.commands.</text>
<text text-anchor="middle" x="797" y="-574.5" font-family="Helvetica,sans-Serif" font-size="10.00">RequestSetCommand.set_json</text>
</a>
</g>
</g>
<!-- Node25&#45;&gt;Node26 -->
<g id="edge25" class="edge">
<title>Node25&#45;&gt;Node26</title>
<path fill="none" stroke="midnightblue" d="M643.05,-582.5C656.85,-582.5 671.07,-582.5 685.04,-582.5"/>
<polygon fill="midnightblue" stroke="midnightblue" points="685.15,-586 695.15,-582.5 685.15,-579 685.15,-586"/>
</g>
<!-- Node28 -->
<g id="node28" class="node">
<title>Node28</title>
<g id="a_node28"><a xlink:href="classklyqa__ctl_1_1devices_1_1vacuum_1_1commands_1_1RoutineCommand.html#acaf3db880f88d37bb1cf8218a309e52c" target="_top" xlink:title=" ">
<polygon fill="white" stroke="black" points="695.5,-518.5 695.5,-548.5 898.5,-548.5 898.5,-518.5 695.5,-518.5"/>
<text text-anchor="start" x="703.5" y="-536.5" font-family="Helvetica,sans-Serif" font-size="10.00">klyqa_ctl.devices.vacuum.commands.</text>
<text text-anchor="middle" x="797" y="-525.5" font-family="Helvetica,sans-Serif" font-size="10.00">RoutineCommand.routine_json</text>
</a>
</g>
</g>
<!-- Node27&#45;&gt;Node28 -->
<g id="edge27" class="edge">
<title>Node27&#45;&gt;Node28</title>
<path fill="none" stroke="midnightblue" d="M643.05,-533.5C656.85,-533.5 671.07,-533.5 685.04,-533.5"/>
<polygon fill="midnightblue" stroke="midnightblue" points="685.15,-537 695.15,-533.5 685.15,-530 685.15,-537"/>
</g>
<!-- Node31 -->
<g id="node31" class="node">
<title>Node31</title>
<g id="a_node31"><a xlink:href="classklyqa__ctl_1_1devices_1_1response__message_1_1ResponseMessage.html#a076bcd25b3f41acdc763569b279c4545" target="_top" xlink:title=" ">
<polygon fill="white" stroke="black" points="704.5,-371.5 704.5,-401.5 889.5,-401.5 889.5,-371.5 704.5,-371.5"/>
<text text-anchor="start" x="712.5" y="-389.5" font-family="Helvetica,sans-Serif" font-size="10.00">klyqa_ctl.devices.response</text>
<text text-anchor="middle" x="797" y="-378.5" font-family="Helvetica,sans-Serif" font-size="10.00">_message.ResponseMessage.type</text>
</a>
</g>
</g>
<!-- Node30&#45;&gt;Node31 -->
<g id="edge30" class="edge">
<title>Node30&#45;&gt;Node31</title>
<path fill="none" stroke="midnightblue" d="M613.11,-386.5C638.19,-386.5 666.93,-386.5 694.09,-386.5"/>
<polygon fill="midnightblue" stroke="midnightblue" points="694.41,-390 704.41,-386.5 694.41,-383 694.41,-390"/>
</g>
<!-- Node32&#45;&gt;Node5 -->
<g id="edge32" class="edge">
<title>Node32&#45;&gt;Node5</title>
<path fill="none" stroke="midnightblue" d="M376.82,-420.49C383.24,-417.7 389.43,-414.4 395,-410.5 417.14,-395 408.34,-376.23 431,-361.5 433.61,-359.8 436.32,-358.23 439.11,-356.76"/>
<polygon fill="midnightblue" stroke="midnightblue" points="440.7,-359.88 448.25,-352.44 437.71,-353.55 440.7,-359.88"/>
</g>
<!-- Node32&#45;&gt;Node7 -->
<g id="edge33" class="edge">
<title>Node32&#45;&gt;Node7</title>
<path fill="none" stroke="midnightblue" d="M383.32,-450.73C387.62,-453.48 391.58,-456.71 395,-460.5 454.33,-526.26 369.45,-592.81 431,-656.5 433.69,-659.29 436.63,-661.79 439.76,-664.03"/>
<polygon fill="midnightblue" stroke="midnightblue" points="438.09,-667.11 448.44,-669.36 441.76,-661.15 438.09,-667.11"/>
</g>
<!-- Node32&#45;&gt;Node8 -->
<g id="edge34" class="edge">
<title>Node32&#45;&gt;Node8</title>
<path fill="none" stroke="midnightblue" d="M380.98,-420.49C386.06,-417.71 390.82,-414.41 395,-410.5 428.9,-378.82 396.03,-343 431,-312.5 433.68,-310.16 436.55,-308.03 439.54,-306.09"/>
<polygon fill="midnightblue" stroke="midnightblue" points="441.33,-309.1 448.32,-301.14 437.89,-303.01 441.33,-309.1"/>
</g>
<!-- Node32&#45;&gt;Node11 -->
<g id="edge35" class="edge">
<title>Node32&#45;&gt;Node11</title>
<path fill="none" stroke="midnightblue" d="M382.68,-420.28C387.19,-417.53 391.37,-414.3 395,-410.5 441.5,-361.9 382.86,-310.48 431,-263.5 433.62,-260.94 436.45,-258.63 439.44,-256.54"/>
<polygon fill="midnightblue" stroke="midnightblue" points="441.49,-259.39 448.26,-251.23 437.88,-253.39 441.49,-259.39"/>
</g>
<!-- Node32&#45;&gt;Node14 -->
<g id="edge36" class="edge">
<title>Node32&#45;&gt;Node14</title>
<path fill="none" stroke="midnightblue" d="M383.32,-420.27C387.62,-417.52 391.58,-414.29 395,-410.5 454.33,-344.74 369.45,-278.19 431,-214.5 433.69,-211.71 436.63,-209.21 439.76,-206.97"/>
<polygon fill="midnightblue" stroke="midnightblue" points="441.76,-209.85 448.44,-201.64 438.09,-203.89 441.76,-209.85"/>
</g>
<!-- Node32&#45;&gt;Node17 -->
<g id="edge37" class="edge">
<title>Node32&#45;&gt;Node17</title>
<path fill="none" stroke="midnightblue" d="M380.38,-450.53C405.54,-455.87 434.05,-461.92 459.96,-467.42"/>
<polygon fill="midnightblue" stroke="midnightblue" points="459.25,-470.84 469.76,-469.49 460.7,-463.99 459.25,-470.84"/>
</g>
<!-- Node32&#45;&gt;Node18 -->
<g id="edge38" class="edge">
<title>Node32&#45;&gt;Node18</title>
<path fill="none" stroke="midnightblue" d="M383.22,-435.5C400.72,-435.5 419.68,-435.5 438.19,-435.5"/>
<polygon fill="midnightblue" stroke="midnightblue" points="438.42,-439 448.42,-435.5 438.42,-432 438.42,-439"/>
</g>
<!-- Node32&#45;&gt;Node19 -->
<g id="edge39" class="edge">
<title>Node32&#45;&gt;Node19</title>
<path fill="none" stroke="midnightblue" d="M383.2,-450.25C387.59,-453.11 391.6,-456.49 395,-460.5 480.22,-560.84 342.39,-657.15 431,-754.5 431.66,-755.22 432.33,-755.93 433.03,-756.62"/>
<polygon fill="midnightblue" stroke="midnightblue" points="431.07,-759.54 440.98,-763.27 435.56,-754.17 431.07,-759.54"/>
</g>
<!-- Node32&#45;&gt;Node21 -->
<g id="edge40" class="edge">
<title>Node32&#45;&gt;Node21</title>
<path fill="none" stroke="midnightblue" d="M383.09,-450.35C387.51,-453.18 391.55,-456.53 395,-460.5 467.25,-543.52 355.94,-625.01 431,-705.5 431.67,-706.22 432.35,-706.91 433.05,-707.59"/>
<polygon fill="midnightblue" stroke="midnightblue" points="431.13,-710.54 441.08,-714.18 435.57,-705.13 431.13,-710.54"/>
</g>
<!-- Node32&#45;&gt;Node23 -->
<g id="edge41" class="edge">
<title>Node32&#45;&gt;Node23</title>
<path fill="none" stroke="midnightblue" d="M382.68,-450.72C387.19,-453.47 391.37,-456.7 395,-460.5 441.5,-509.1 382.86,-560.52 431,-607.5 431.98,-608.46 432.99,-609.38 434.02,-610.27"/>
<polygon fill="midnightblue" stroke="midnightblue" points="432.3,-613.34 442.43,-616.44 436.45,-607.7 432.3,-613.34"/>
</g>
<!-- Node32&#45;&gt;Node25 -->
<g id="edge42" class="edge">
<title>Node32&#45;&gt;Node25</title>
<path fill="none" stroke="midnightblue" d="M380.98,-450.51C386.06,-453.29 390.82,-456.59 395,-460.5 428.9,-492.18 396.03,-528 431,-558.5 432.34,-559.67 433.72,-560.78 435.13,-561.84"/>
<polygon fill="midnightblue" stroke="midnightblue" points="433.36,-564.86 443.65,-567.39 437.18,-559 433.36,-564.86"/>
</g>
<!-- Node32&#45;&gt;Node27 -->
<g id="edge43" class="edge">
<title>Node32&#45;&gt;Node27</title>
<path fill="none" stroke="midnightblue" d="M376.82,-450.51C383.24,-453.3 389.43,-456.6 395,-460.5 417.14,-476 408.34,-494.77 431,-509.5 433.49,-511.12 436.06,-512.62 438.71,-514.03"/>
<polygon fill="midnightblue" stroke="midnightblue" points="437.44,-517.3 447.97,-518.45 440.45,-510.98 437.44,-517.3"/>
</g>
<!-- Node32&#45;&gt;Node29 -->
<g id="edge44" class="edge">
<title>Node32&#45;&gt;Node29</title>
<path fill="none" stroke="midnightblue" d="M383.09,-420.65C387.51,-417.82 391.55,-414.47 395,-410.5 467.25,-327.48 355.94,-245.99 431,-165.5 438.9,-157.02 449.06,-151.19 459.98,-147.23"/>
<polygon fill="midnightblue" stroke="midnightblue" points="461.23,-150.51 469.75,-144.22 459.16,-143.82 461.23,-150.51"/>
</g>
<!-- Node32&#45;&gt;Node30 -->
<g id="edge45" class="edge">
<title>Node32&#45;&gt;Node30</title>
<path fill="none" stroke="midnightblue" d="M380.38,-420.47C405.54,-415.13 434.05,-409.08 459.96,-403.58"/>
<polygon fill="midnightblue" stroke="midnightblue" points="460.7,-407.01 469.76,-401.51 459.25,-400.16 460.7,-407.01"/>
</g>
<!-- Node35 -->
<g id="node35" class="node">
<title>Node35</title>
<g id="a_node35"><a xlink:href="classklyqa__ctl_1_1account_1_1Account.html#a7bcb9ac9804621630ea08a688abecd18" target="_top" xlink:title=" ">
<polygon fill="white" stroke="black" points="431,-88 431,-107 652,-107 652,-88 431,-88"/>
<text text-anchor="middle" x="541.5" y="-95" font-family="Helvetica,sans-Serif" font-size="10.00">klyqa_ctl.account.Account.controller_data</text>
</a>
</g>
</g>
<!-- Node34&#45;&gt;Node35 -->
<g id="edge48" class="edge">
<title>Node34&#45;&gt;Node35</title>
<path fill="none" stroke="midnightblue" d="M390.29,-85.15C400.15,-85.96 410.38,-86.8 420.65,-87.64"/>
<polygon fill="midnightblue" stroke="midnightblue" points="420.67,-91.16 430.92,-88.49 421.25,-84.18 420.67,-91.16"/>
</g>
<!-- Node36 -->
<g id="node36" class="node">
<title>Node36</title>
<g id="a_node36"><a xlink:href="classcloud_1_1CloudBackend.html#aef174fe1ba95fff13c7901ff56354ec9" target="_top" xlink:title=" ">
<polygon fill="white" stroke="black" points="446,-50 446,-69 637,-69 637,-50 446,-50"/>
<text text-anchor="middle" x="541.5" y="-57" font-family="Helvetica,sans-Serif" font-size="10.00">cloud.CloudBackend.controller_data</text>
</a>
</g>
</g>
<!-- Node34&#45;&gt;Node36 -->
<g id="edge49" class="edge">
<title>Node34&#45;&gt;Node36</title>
<path fill="none" stroke="midnightblue" d="M390.29,-71.85C405.02,-70.64 420.58,-69.36 435.88,-68.11"/>
<polygon fill="midnightblue" stroke="midnightblue" points="436.21,-71.59 445.89,-67.28 435.63,-64.61 436.21,-71.59"/>
</g>
<!-- Node37 -->
<g id="node37" class="node">
<title>Node37</title>
<g id="a_node37"><a xlink:href="classlocal_1_1connection__handler_1_1LocalConnectionHandler.html#a8f938ae53b3c24bbdc02f377671cf263" target="_top" xlink:title=" ">
<polygon fill="white" stroke="black" points="436,-0.5 436,-30.5 647,-30.5 647,-0.5 436,-0.5"/>
<text text-anchor="start" x="444" y="-18.5" font-family="Helvetica,sans-Serif" font-size="10.00">local.connection_handler.</text>
<text text-anchor="middle" x="541.5" y="-7.5" font-family="Helvetica,sans-Serif" font-size="10.00">LocalConnectionHandler.controller_data</text>
</a>
</g>
</g>
<!-- Node34&#45;&gt;Node37 -->
<g id="edge50" class="edge">
<title>Node34&#45;&gt;Node37</title>
<path fill="none" stroke="midnightblue" d="M354.55,-63.48C377.33,-56.12 405.5,-47.39 431,-40.5 440.6,-37.91 450.72,-35.35 460.78,-32.93"/>
<polygon fill="midnightblue" stroke="midnightblue" points="461.86,-36.27 470.78,-30.55 460.25,-29.46 461.86,-36.27"/>
</g>
</g>
</svg>
