<?xml version="1.0" encoding="UTF-8" standalone="no"?>
<!DOCTYPE svg PUBLIC "-//W3C//DTD SVG 1.1//EN"
 "http://www.w3.org/Graphics/SVG/1.1/DTD/svg11.dtd">
<!-- Generated by graphviz version 2.43.0 (0)
 -->
<!-- Title: klyqa_ctl.account_control.AccountControl.backend_connected Pages: 1 -->
<svg width="574pt" height="50pt"
 viewBox="0.00 0.00 574.00 50.00" xmlns="http://www.w3.org/2000/svg" xmlns:xlink="http://www.w3.org/1999/xlink">
<g id="graph0" class="graph" transform="scale(1 1) rotate(0) translate(4 46)">
<title>klyqa_ctl.account_control.AccountControl.backend_connected</title>
<polygon fill="white" stroke="transparent" points="-4,4 -4,-46 570,-46 570,4 -4,4"/>
<!-- Node1 -->
<g id="node1" class="node">
<title>Node1</title>
<g id="a_node1"><a xlink:title=" ">
<polygon fill="#bfbfbf" stroke="black" points="422,-0.5 422,-41.5 566,-41.5 566,-0.5 422,-0.5"/>
<text text-anchor="start" x="430" y="-29.5" font-family="Helvetica,sans-Serif" font-size="10.00">klyqa_ctl.account_control.</text>
<text text-anchor="start" x="430" y="-18.5" font-family="Helvetica,sans-Serif" font-size="10.00">AccountControl.backend</text>
<text text-anchor="middle" x="494" y="-7.5" font-family="Helvetica,sans-Serif" font-size="10.00">_connected</text>
</a>
</g>
</g>
<!-- Node2 -->
<g id="node2" class="node">
<title>Node2</title>
<g id="a_node2"><a xlink:href="classklyqa__ctl_1_1account_1_1Account.html#aa78870d05cc7fa5899d61733d124e885" target="_top" xlink:title=" ">
<polygon fill="white" stroke="black" points="207,-6 207,-36 386,-36 386,-6 207,-6"/>
<text text-anchor="start" x="215" y="-24" font-family="Helvetica,sans-Serif" font-size="10.00">klyqa_ctl.account.Account.device</text>
<text text-anchor="middle" x="296.5" y="-13" font-family="Helvetica,sans-Serif" font-size="10.00">_request_and_print</text>
</a>
</g>
</g>
<!-- Node1&#45;&gt;Node2 -->
<g id="edge1" class="edge">
<title>Node1&#45;&gt;Node2</title>
<path fill="none" stroke="midnightblue" d="M411.71,-21C403.31,-21 394.73,-21 386.25,-21"/>
<polygon fill="midnightblue" stroke="midnightblue" points="411.87,-24.5 421.87,-21 411.87,-17.5 411.87,-24.5"/>
</g>
<!-- Node3 -->
<g id="node3" class="node">
<title>Node3</title>
<g id="a_node3"><a xlink:href="classklyqa__ctl_1_1account_1_1Account.html#a0b171a600e4342d035ad26c39b384b38" target="_top" xlink:title=" ">
<polygon fill="white" stroke="black" points="0,-11.5 0,-30.5 171,-30.5 171,-11.5 0,-11.5"/>
<text text-anchor="middle" x="85.5" y="-18.5" font-family="Helvetica,sans-Serif" font-size="10.00">klyqa_ctl.account.Account.login</text>
</a>
</g>
</g>
<!-- Node2&#45;&gt;Node3 -->
<g id="edge2" class="edge">
<title>Node2&#45;&gt;Node3</title>
<path fill="none" stroke="midnightblue" d="M196.86,-21C188.31,-21 179.71,-21 171.28,-21"/>
<polygon fill="midnightblue" stroke="midnightblue" points="196.87,-24.5 206.87,-21 196.87,-17.5 196.87,-24.5"/>
</g>
</g>
</svg>
