<?xml version="1.0" encoding="UTF-8" standalone="no"?>
<!DOCTYPE svg PUBLIC "-//W3C//DTD SVG 1.1//EN"
 "http://www.w3.org/Graphics/SVG/1.1/DTD/svg11.dtd">
<!-- Generated by graphviz version 2.43.0 (0)
 -->
<!-- Title: local.connection_handler.LocalConnectionHandler.read_incoming_tcp_con_task Pages: 1 -->
<svg width="1263pt" height="198pt"
 viewBox="0.00 0.00 1263.00 197.50" xmlns="http://www.w3.org/2000/svg" xmlns:xlink="http://www.w3.org/1999/xlink">
<g id="graph0" class="graph" transform="scale(1 1) rotate(0) translate(4 193.5)">
<title>local.connection_handler.LocalConnectionHandler.read_incoming_tcp_con_task</title>
<polygon fill="white" stroke="transparent" points="-4,4 -4,-193.5 1259,-193.5 1259,4 -4,4"/>
<!-- Node1 -->
<g id="node1" class="node">
<title>Node1</title>
<g id="a_node1"><a xlink:title=" ">
<polygon fill="#bfbfbf" stroke="black" points="0,-41 0,-82 159,-82 159,-41 0,-41"/>
<text text-anchor="start" x="8" y="-70" font-family="Helvetica,sans-Serif" font-size="10.00">local.connection_handler.</text>
<text text-anchor="start" x="8" y="-59" font-family="Helvetica,sans-Serif" font-size="10.00">LocalConnectionHandler.read</text>
<text text-anchor="middle" x="79.5" y="-48" font-family="Helvetica,sans-Serif" font-size="10.00">_incoming_tcp_con_task</text>
</a>
</g>
</g>
<!-- Node2 -->
<g id="node2" class="node">
<title>Node2</title>
<g id="a_node2"><a xlink:href="classlocal_1_1connection__handler_1_1LocalConnectionHandler.html#a28f05e11005dfc83e537f9e2e85f54d5" target="_top" xlink:title=" ">
<polygon fill="white" stroke="black" points="195,-90.5 195,-120.5 383,-120.5 383,-90.5 195,-90.5"/>
<text text-anchor="start" x="203" y="-108.5" font-family="Helvetica,sans-Serif" font-size="10.00">local.connection_handler.</text>
<text text-anchor="middle" x="289" y="-97.5" font-family="Helvetica,sans-Serif" font-size="10.00">LocalConnectionHandler.bind_ports</text>
</a>
</g>
</g>
<!-- Node1&#45;&gt;Node2 -->
<g id="edge1" class="edge">
<title>Node1&#45;&gt;Node2</title>
<path fill="none" stroke="midnightblue" d="M159.24,-78.2C174.85,-81.51 191.27,-84.99 206.96,-88.31"/>
<polygon fill="midnightblue" stroke="midnightblue" points="206.64,-91.82 217.14,-90.48 208.09,-84.98 206.64,-91.82"/>
</g>
<!-- Node5 -->
<g id="node5" class="node">
<title>Node5</title>
<g id="a_node5"><a xlink:href="namespaceklyqa__ctl_1_1general_1_1general.html#a1afe30a73cc28a3b65babeeab27e36c8" target="_top" xlink:title=" ">
<polygon fill="white" stroke="black" points="428,-49.5 428,-79.5 592,-79.5 592,-49.5 428,-49.5"/>
<text text-anchor="start" x="436" y="-67.5" font-family="Helvetica,sans-Serif" font-size="10.00">klyqa_ctl.general.general.task</text>
<text text-anchor="middle" x="510" y="-56.5" font-family="Helvetica,sans-Serif" font-size="10.00">_log_debug</text>
</a>
</g>
</g>
<!-- Node1&#45;&gt;Node5 -->
<g id="edge10" class="edge">
<title>Node1&#45;&gt;Node5</title>
<path fill="none" stroke="midnightblue" d="M159.09,-62.05C232.16,-62.56 340.99,-63.32 417.84,-63.86"/>
<polygon fill="midnightblue" stroke="midnightblue" points="417.97,-67.36 427.99,-63.93 418.02,-60.36 417.97,-67.36"/>
</g>
<!-- Node8 -->
<g id="node8" class="node">
<title>Node8</title>
<g id="a_node8"><a xlink:href="namespaceklyqa__ctl_1_1general_1_1general.html#ad6b753e482e539892c57f8144cf213cb" target="_top" xlink:title=" ">
<polygon fill="white" stroke="black" points="428,-0.5 428,-30.5 592,-30.5 592,-0.5 428,-0.5"/>
<text text-anchor="start" x="436" y="-18.5" font-family="Helvetica,sans-Serif" font-size="10.00">klyqa_ctl.general.general.task</text>
<text text-anchor="middle" x="510" y="-7.5" font-family="Helvetica,sans-Serif" font-size="10.00">_log_trace_ex</text>
</a>
</g>
</g>
<!-- Node1&#45;&gt;Node8 -->
<g id="edge11" class="edge">
<title>Node1&#45;&gt;Node8</title>
<path fill="none" stroke="midnightblue" d="M159.09,-53.06C232.16,-45.22 340.99,-33.54 417.84,-25.29"/>
<polygon fill="midnightblue" stroke="midnightblue" points="418.42,-28.74 427.99,-24.2 417.68,-21.78 418.42,-28.74"/>
</g>
<!-- Node3 -->
<g id="node3" class="node">
<title>Node3</title>
<g id="a_node3"><a xlink:href="classlocal_1_1connection__handler_1_1LocalConnectionHandler.html#a159e60e3f78301ef89df33d9adaebbde" target="_top" xlink:title=" ">
<polygon fill="white" stroke="black" points="421.5,-148 421.5,-189 598.5,-189 598.5,-148 421.5,-148"/>
<text text-anchor="start" x="429.5" y="-177" font-family="Helvetica,sans-Serif" font-size="10.00">local.connection_handler.</text>
<text text-anchor="start" x="429.5" y="-166" font-family="Helvetica,sans-Serif" font-size="10.00">LocalConnectionHandler.network</text>
<text text-anchor="middle" x="510" y="-155" font-family="Helvetica,sans-Serif" font-size="10.00">_interface</text>
</a>
</g>
</g>
<!-- Node2&#45;&gt;Node3 -->
<g id="edge2" class="edge">
<title>Node2&#45;&gt;Node3</title>
<path fill="none" stroke="midnightblue" d="M342.18,-120.51C367.64,-127.84 398.86,-136.82 427.38,-145.02"/>
<polygon fill="midnightblue" stroke="midnightblue" points="426.77,-148.49 437.35,-147.89 428.7,-141.76 426.77,-148.49"/>
</g>
<!-- Node4 -->
<g id="node4" class="node">
<title>Node4</title>
<g id="a_node4"><a xlink:href="classlocal_1_1connection__handler_1_1LocalConnectionHandler.html#ab8a8460610614f6230bbf346fc532269" target="_top" xlink:title=" ">
<polygon fill="white" stroke="black" points="419,-98.5 419,-128.5 601,-128.5 601,-98.5 419,-98.5"/>
<text text-anchor="start" x="427" y="-116.5" font-family="Helvetica,sans-Serif" font-size="10.00">local.connection_handler.</text>
<text text-anchor="middle" x="510" y="-105.5" font-family="Helvetica,sans-Serif" font-size="10.00">LocalConnectionHandler.server_ip</text>
</a>
</g>
</g>
<!-- Node2&#45;&gt;Node4 -->
<g id="edge3" class="edge">
<title>Node2&#45;&gt;Node4</title>
<path fill="none" stroke="midnightblue" d="M383.19,-108.9C391.55,-109.21 400.04,-109.52 408.46,-109.83"/>
<polygon fill="midnightblue" stroke="midnightblue" points="408.56,-113.33 418.68,-110.2 408.81,-106.34 408.56,-113.33"/>
</g>
<!-- Node2&#45;&gt;Node5 -->
<g id="edge4" class="edge">
<title>Node2&#45;&gt;Node5</title>
<path fill="none" stroke="midnightblue" d="M370.3,-90.47C386.07,-87.51 402.72,-84.4 418.79,-81.39"/>
<polygon fill="midnightblue" stroke="midnightblue" points="419.52,-84.81 428.71,-79.53 418.23,-77.93 419.52,-84.81"/>
</g>
<!-- Node2&#45;&gt;Node8 -->
<g id="edge7" class="edge">
<title>Node2&#45;&gt;Node8</title>
<path fill="none" stroke="midnightblue" d="M315.99,-90.5C341.56,-76.2 382.04,-54.79 419,-40.5 425.3,-38.06 431.93,-35.76 438.62,-33.61"/>
<polygon fill="midnightblue" stroke="midnightblue" points="439.92,-36.87 448.44,-30.57 437.85,-30.18 439.92,-36.87"/>
</g>
<!-- Node6 -->
<g id="node6" class="node">
<title>Node6</title>
<g id="a_node6"><a xlink:href="namespaceklyqa__ctl_1_1general_1_1general.html#a9df3b50dfc0fcc7c8ec991bb9be9c5ba" target="_top" xlink:title=" ">
<polygon fill="white" stroke="black" points="837,-30 837,-49 1022,-49 1022,-30 837,-30"/>
<text text-anchor="middle" x="929.5" y="-37" font-family="Helvetica,sans-Serif" font-size="10.00">klyqa_ctl.general.general.task_log</text>
</a>
</g>
</g>
<!-- Node5&#45;&gt;Node6 -->
<g id="edge5" class="edge">
<title>Node5&#45;&gt;Node6</title>
<path fill="none" stroke="midnightblue" d="M592.49,-59.62C659.46,-55.61 754.7,-49.91 826.69,-45.6"/>
<polygon fill="midnightblue" stroke="midnightblue" points="826.91,-49.09 836.69,-45 826.49,-42.1 826.91,-49.09"/>
</g>
<!-- Node7 -->
<g id="node7" class="node">
<title>Node7</title>
<g id="a_node7"><a xlink:href="namespaceklyqa__ctl_1_1general_1_1general.html#aea905150cafee39fa2ca211f1e60f012" target="_top" xlink:title=" ">
<polygon fill="white" stroke="black" points="1058,-30 1058,-49 1255,-49 1255,-30 1058,-30"/>
<text text-anchor="middle" x="1156.5" y="-37" font-family="Helvetica,sans-Serif" font-size="10.00">klyqa_ctl.general.general.task_name</text>
</a>
</g>
</g>
<!-- Node6&#45;&gt;Node7 -->
<g id="edge6" class="edge">
<title>Node6&#45;&gt;Node7</title>
<path fill="none" stroke="midnightblue" d="M1022.02,-39.5C1030.5,-39.5 1039.15,-39.5 1047.76,-39.5"/>
<polygon fill="midnightblue" stroke="midnightblue" points="1047.83,-43 1057.83,-39.5 1047.83,-36 1047.83,-43"/>
</g>
<!-- Node9 -->
<g id="node9" class="node">
<title>Node9</title>
<g id="a_node9"><a xlink:href="namespaceklyqa__ctl_1_1general_1_1general.html#ab2f9a22e98cd16d0d284d22382cfcb02" target="_top" xlink:title=" ">
<polygon fill="white" stroke="black" points="637,-2.5 637,-32.5 801,-32.5 801,-2.5 637,-2.5"/>
<text text-anchor="start" x="645" y="-20.5" font-family="Helvetica,sans-Serif" font-size="10.00">klyqa_ctl.general.general.task</text>
<text text-anchor="middle" x="719" y="-9.5" font-family="Helvetica,sans-Serif" font-size="10.00">_log_trace</text>
</a>
</g>
</g>
<!-- Node8&#45;&gt;Node9 -->
<g id="edge8" class="edge">
<title>Node8&#45;&gt;Node9</title>
<path fill="none" stroke="midnightblue" d="M592.22,-16.28C603.52,-16.39 615.19,-16.51 626.66,-16.62"/>
<polygon fill="midnightblue" stroke="midnightblue" points="626.64,-20.12 636.68,-16.71 626.71,-13.12 626.64,-20.12"/>
</g>
<!-- Node9&#45;&gt;Node6 -->
<g id="edge9" class="edge">
<title>Node9&#45;&gt;Node6</title>
<path fill="none" stroke="midnightblue" d="M801.21,-26.07C810.01,-27 819.05,-27.95 828.05,-28.9"/>
<polygon fill="midnightblue" stroke="midnightblue" points="827.87,-32.4 838.18,-29.97 828.6,-25.44 827.87,-32.4"/>
</g>
</g>
</svg>
