<?xml version="1.0" encoding="UTF-8" standalone="no"?>
<!DOCTYPE svg PUBLIC "-//W3C//DTD SVG 1.1//EN"
 "http://www.w3.org/Graphics/SVG/1.1/DTD/svg11.dtd">
<!-- Generated by graphviz version 2.43.0 (0)
 -->
<!-- Title: klyqa_ctl.general.message.Message Pages: 1 -->
<svg width="159pt" height="380pt"
 viewBox="0.00 0.00 159.00 380.00" xmlns="http://www.w3.org/2000/svg" xmlns:xlink="http://www.w3.org/1999/xlink">
<g id="graph0" class="graph" transform="scale(1 1) rotate(0) translate(4 376)">
<title>klyqa_ctl.general.message.Message</title>
<polygon fill="white" stroke="transparent" points="-4,4 -4,-376 155,-376 155,4 -4,4"/>
<!-- Node1 -->
<g id="node1" class="node">
<title>Node1</title>
<g id="a_node1"><a xlink:title=" ">
<polygon fill="#bfbfbf" stroke="black" points="0,-105.5 0,-371.5 151,-371.5 151,-105.5 0,-105.5"/>
<text text-anchor="start" x="8" y="-359.5" font-family="Helvetica,sans-Serif" font-size="10.00">klyqa_ctl.general.message.</text>
<text text-anchor="middle" x="75.5" y="-348.5" font-family="Helvetica,sans-Serif" font-size="10.00">Message</text>
<polyline fill="none" stroke="black" points="0,-341.5 151,-341.5 "/>
<text text-anchor="start" x="8" y="-329.5" font-family="Helvetica,sans-Serif" font-size="10.00">+ msg_counter</text>
<text text-anchor="start" x="8" y="-318.5" font-family="Helvetica,sans-Serif" font-size="10.00">+ cb_called</text>
<text text-anchor="start" x="8" y="-307.5" font-family="Helvetica,sans-Serif" font-size="10.00">+ default_factory</text>
<text text-anchor="start" x="8" y="-296.5" font-family="Helvetica,sans-Serif" font-size="10.00">+ MessageState</text>
<text text-anchor="start" x="8" y="-285.5" font-family="Helvetica,sans-Serif" font-size="10.00">+ None</text>
<text text-anchor="start" x="8" y="-274.5" font-family="Helvetica,sans-Serif" font-size="10.00">+ bytes</text>
<text text-anchor="start" x="8" y="-263.5" font-family="Helvetica,sans-Serif" font-size="10.00">+ str</text>
<text text-anchor="start" x="8" y="-252.5" font-family="Helvetica,sans-Serif" font-size="10.00">+ TypeJson</text>
<text text-anchor="start" x="8" y="-241.5" font-family="Helvetica,sans-Serif" font-size="10.00">+ bool</text>
<text text-anchor="start" x="8" y="-230.5" font-family="Helvetica,sans-Serif" font-size="10.00">+ float</text>
<text text-anchor="start" x="8" y="-219.5" font-family="Helvetica,sans-Serif" font-size="10.00">+ int</text>
<text text-anchor="start" x="8" y="-208.5" font-family="Helvetica,sans-Serif" font-size="10.00">&#45; _attr_target_uid</text>
<polyline fill="none" stroke="black" points="0,-201.5 151,-201.5 "/>
<text text-anchor="start" x="8" y="-189.5" font-family="Helvetica,sans-Serif" font-size="10.00">+ None __post_init__</text>
<text text-anchor="start" x="8" y="-178.5" font-family="Helvetica,sans-Serif" font-size="10.00">(self)</text>
<text text-anchor="start" x="8" y="-167.5" font-family="Helvetica,sans-Serif" font-size="10.00">+ None call_cb(self)</text>
<text text-anchor="start" x="8" y="-156.5" font-family="Helvetica,sans-Serif" font-size="10.00">+ bool check_msg_ttl</text>
<text text-anchor="start" x="8" y="-145.5" font-family="Helvetica,sans-Serif" font-size="10.00">(self)</text>
<text text-anchor="start" x="8" y="-134.5" font-family="Helvetica,sans-Serif" font-size="10.00">+ str target_uid(self)</text>
<text text-anchor="start" x="8" y="-123.5" font-family="Helvetica,sans-Serif" font-size="10.00">+ None target_uid(self,</text>
<text text-anchor="start" x="8" y="-112.5" font-family="Helvetica,sans-Serif" font-size="10.00"> str target_uid)</text>
</a>
</g>
</g>
<!-- Node2 -->
<g id="node2" class="node">
<title>Node2</title>
<g id="a_node2"><a xlink:href="classklyqa__ctl_1_1general_1_1message_1_1BroadCastMessage.html" target="_top" xlink:title=" ">
<polygon fill="white" stroke="black" points="0,-0.5 0,-68.5 151,-68.5 151,-0.5 0,-0.5"/>
<text text-anchor="start" x="8" y="-56.5" font-family="Helvetica,sans-Serif" font-size="10.00">klyqa_ctl.general.message.</text>
<text text-anchor="middle" x="75.5" y="-45.5" font-family="Helvetica,sans-Serif" font-size="10.00">BroadCastMessage</text>
<polyline fill="none" stroke="black" points="0,-38.5 151,-38.5 "/>
<text text-anchor="start" x="8" y="-26.5" font-family="Helvetica,sans-Serif" font-size="10.00">+ default_factory</text>
<polyline fill="none" stroke="black" points="0,-19.5 151,-19.5 "/>
<text text-anchor="middle" x="75.5" y="-7.5" font-family="Helvetica,sans-Serif" font-size="10.00"> </text>
</a>
</g>
</g>
<!-- Node1&#45;&gt;Node2 -->
<g id="edge1" class="edge">
<title>Node1&#45;&gt;Node2</title>
<path fill="none" stroke="midnightblue" d="M75.5,-95.09C75.5,-85.49 75.5,-76.49 75.5,-68.54"/>
<polygon fill="none" stroke="midnightblue" points="72,-95.3 75.5,-105.3 79,-95.3 72,-95.3"/>
</g>
</g>
</svg>
