<?xml version="1.0" encoding="UTF-8" standalone="no"?>
<!DOCTYPE svg PUBLIC "-//W3C//DTD SVG 1.1//EN"
 "http://www.w3.org/Graphics/SVG/1.1/DTD/svg11.dtd">
<!-- Generated by graphviz version 2.43.0 (0)
 -->
<!-- Title: klyqa_ctl.account.Account.cloud Pages: 1 -->
<svg width="1487pt" height="716pt"
 viewBox="0.00 0.00 1487.00 715.65" xmlns="http://www.w3.org/2000/svg" xmlns:xlink="http://www.w3.org/1999/xlink">
<g id="graph0" class="graph" transform="scale(1 1) rotate(0) translate(4 711.65)">
<title>klyqa_ctl.account.Account.cloud</title>
<polygon fill="white" stroke="transparent" points="-4,4 -4,-711.65 1483,-711.65 1483,4 -4,4"/>
<!-- Node1 -->
<g id="node1" class="node">
<title>Node1</title>
<g id="a_node1"><a xlink:title=" ">
<polygon fill="#bfbfbf" stroke="black" points="1306,-295.1 1306,-314.1 1479,-314.1 1479,-295.1 1306,-295.1"/>
<text text-anchor="middle" x="1392.5" y="-302.1" font-family="Helvetica,sans-Serif" font-size="10.00">klyqa_ctl.account.Account.cloud</text>
</a>
</g>
</g>
<!-- Node2 -->
<g id="node2" class="node">
<title>Node2</title>
<g id="a_node2"><a xlink:href="classklyqa__ctl_1_1account_1_1Account.html#a19bd2d6d0ae6a4e738c4d40453557606" target="_top" xlink:title=" ">
<polygon fill="white" stroke="black" points="870,-466.6 870,-496.6 1058,-496.6 1058,-466.6 870,-466.6"/>
<text text-anchor="start" x="878" y="-484.6" font-family="Helvetica,sans-Serif" font-size="10.00">klyqa_ctl.account.Account.backend</text>
<text text-anchor="middle" x="964" y="-473.6" font-family="Helvetica,sans-Serif" font-size="10.00">_connected</text>
</a>
</g>
</g>
<!-- Node1&#45;&gt;Node2 -->
<g id="edge1" class="edge">
<title>Node1&#45;&gt;Node2</title>
<path fill="none" stroke="midnightblue" d="M1363.07,-318.73C1306.49,-346.51 1175.4,-409.22 1061,-451.6 1046.75,-456.87 1031.1,-462.03 1016.65,-466.53"/>
<polygon fill="midnightblue" stroke="midnightblue" points="1364.69,-321.83 1372.12,-314.27 1361.6,-315.55 1364.69,-321.83"/>
</g>
<!-- Node3 -->
<g id="node3" class="node">
<title>Node3</title>
<g id="a_node3"><a xlink:href="classklyqa__ctl_1_1account_1_1Account.html#aa78870d05cc7fa5899d61733d124e885" target="_top" xlink:title=" ">
<polygon fill="white" stroke="black" points="209.5,-422.6 209.5,-452.6 388.5,-452.6 388.5,-422.6 209.5,-422.6"/>
<text text-anchor="start" x="217.5" y="-440.6" font-family="Helvetica,sans-Serif" font-size="10.00">klyqa_ctl.account.Account.device</text>
<text text-anchor="middle" x="299" y="-429.6" font-family="Helvetica,sans-Serif" font-size="10.00">_request_and_print</text>
</a>
</g>
</g>
<!-- Node1&#45;&gt;Node3 -->
<g id="edge28" class="edge">
<title>Node1&#45;&gt;Node3</title>
<path fill="none" stroke="midnightblue" d="M1386.43,-324.03C1374.19,-366.96 1338.81,-470.19 1270,-522.6 1193.93,-580.52 1155.5,-559.03 1061,-573.6 782.2,-616.57 678.69,-730.99 427,-603.6 402.89,-591.39 407.3,-576.15 391,-554.6 363.07,-517.65 329.43,-474.81 311.91,-452.64"/>
<polygon fill="midnightblue" stroke="midnightblue" points="1389.84,-324.84 1389.11,-314.27 1383.09,-322.98 1389.84,-324.84"/>
</g>
<!-- Node4 -->
<g id="node4" class="node">
<title>Node4</title>
<g id="a_node4"><a xlink:href="classklyqa__ctl_1_1account_1_1Account.html#a0b171a600e4342d035ad26c39b384b38" target="_top" xlink:title=" ">
<polygon fill="white" stroke="black" points="0,-390.1 0,-409.1 171,-409.1 171,-390.1 0,-390.1"/>
<text text-anchor="middle" x="85.5" y="-397.1" font-family="Helvetica,sans-Serif" font-size="10.00">klyqa_ctl.account.Account.login</text>
</a>
</g>
</g>
<!-- Node1&#45;&gt;Node4 -->
<g id="edge30" class="edge">
<title>Node1&#45;&gt;Node4</title>
<path fill="none" stroke="midnightblue" d="M1388.9,-284.78C1381.18,-234.81 1353.48,-103.47 1270,-44.6 1158.72,33.88 1101.17,-15.6 965,-15.6 965,-15.6 965,-15.6 518,-15.6 285.85,-15.6 120.7,-329.61 91.22,-389.72"/>
<polygon fill="midnightblue" stroke="midnightblue" points="1385.46,-285.5 1390.35,-294.9 1392.39,-284.51 1385.46,-285.5"/>
</g>
<!-- Node5 -->
<g id="node5" class="node">
<title>Node5</title>
<g id="a_node5"><a xlink:href="classklyqa__ctl_1_1account_1_1Account.html#aca64ae054b0be49da2e7733012961429" target="_top" xlink:title=" ">
<polygon fill="white" stroke="black" points="1097,-333.1 1097,-352.1 1270,-352.1 1270,-333.1 1097,-333.1"/>
<text text-anchor="middle" x="1183.5" y="-340.1" font-family="Helvetica,sans-Serif" font-size="10.00">klyqa_ctl.account.Account.cloud</text>
</a>
</g>
</g>
<!-- Node1&#45;&gt;Node5 -->
<g id="edge4" class="edge">
<title>Node1&#45;&gt;Node5</title>
<path fill="none" stroke="midnightblue" d="M1329.69,-315.94C1299.99,-321.39 1264.79,-327.86 1236.49,-333.05"/>
<polygon fill="midnightblue" stroke="midnightblue" points="1330.33,-319.38 1339.53,-314.14 1329.06,-312.5 1330.33,-319.38"/>
</g>
<!-- Node6 -->
<g id="node6" class="node">
<title>Node6</title>
<g id="a_node6"><a xlink:href="classklyqa__ctl_1_1account_1_1Account.html#ad608e3ee0ba1199f509e644a11081724" target="_top" xlink:title=" ">
<polygon fill="white" stroke="black" points="882.5,-515.6 882.5,-545.6 1045.5,-545.6 1045.5,-515.6 882.5,-515.6"/>
<text text-anchor="start" x="890.5" y="-533.6" font-family="Helvetica,sans-Serif" font-size="10.00">klyqa_ctl.account.Account.get</text>
<text text-anchor="middle" x="964" y="-522.6" font-family="Helvetica,sans-Serif" font-size="10.00">_beared_request_header</text>
</a>
</g>
</g>
<!-- Node1&#45;&gt;Node6 -->
<g id="edge29" class="edge">
<title>Node1&#45;&gt;Node6</title>
<path fill="none" stroke="midnightblue" d="M1376.11,-321.9C1354.36,-345.54 1312.51,-388.14 1270,-415.6 1192.99,-465.33 1091.31,-498.17 1027.02,-515.58"/>
<polygon fill="midnightblue" stroke="midnightblue" points="1378.8,-324.14 1382.93,-314.38 1373.62,-319.43 1378.8,-324.14"/>
</g>
<!-- Node7 -->
<g id="node7" class="node">
<title>Node7</title>
<g id="a_node7"><a xlink:href="classklyqa__ctl_1_1account_1_1Account.html#a73506bd234f8e819e138c2bd663179b8" target="_top" xlink:title=" ">
<polygon fill="white" stroke="black" points="647,-515.6 647,-545.6 831,-545.6 831,-515.6 647,-515.6"/>
<text text-anchor="start" x="655" y="-533.6" font-family="Helvetica,sans-Serif" font-size="10.00">klyqa_ctl.account.Account.request</text>
<text text-anchor="middle" x="739" y="-522.6" font-family="Helvetica,sans-Serif" font-size="10.00">_beared</text>
</a>
</g>
</g>
<!-- Node1&#45;&gt;Node7 -->
<g id="edge33" class="edge">
<title>Node1&#45;&gt;Node7</title>
<path fill="none" stroke="midnightblue" d="M1382.11,-323.26C1364.45,-356.69 1323.2,-427.15 1270,-468.6 1190.76,-530.32 1159.54,-535.11 1061,-554.6 973.56,-571.88 870.47,-558.31 805.17,-545.62"/>
<polygon fill="midnightblue" stroke="midnightblue" points="1385.34,-324.64 1386.83,-314.15 1379.13,-321.42 1385.34,-324.64"/>
</g>
<!-- Node11 -->
<g id="node11" class="node">
<title>Node11</title>
<g id="a_node11"><a xlink:href="classklyqa__ctl_1_1account_1_1Account.html#af101070a97d556e95978748475933f72" target="_top" xlink:title=" ">
<polygon fill="white" stroke="black" points="428.5,-302.6 428.5,-332.6 609.5,-332.6 609.5,-302.6 428.5,-302.6"/>
<text text-anchor="start" x="436.5" y="-320.6" font-family="Helvetica,sans-Serif" font-size="10.00">klyqa_ctl.account.Account.update</text>
<text text-anchor="middle" x="519" y="-309.6" font-family="Helvetica,sans-Serif" font-size="10.00">_account_settings</text>
</a>
</g>
</g>
<!-- Node1&#45;&gt;Node11 -->
<g id="edge37" class="edge">
<title>Node1&#45;&gt;Node11</title>
<path fill="none" stroke="midnightblue" d="M1295.78,-306.02C1126.09,-308.55 774.85,-313.79 609.62,-316.26"/>
<polygon fill="midnightblue" stroke="midnightblue" points="1296,-309.52 1305.95,-305.87 1295.9,-302.52 1296,-309.52"/>
</g>
<!-- Node12 -->
<g id="node12" class="node">
<title>Node12</title>
<g id="a_node12"><a xlink:href="classklyqa__ctl_1_1account_1_1Account.html#aeca1011f6c6e2f6bcdb2136ef48bc7fd" target="_top" xlink:title=" ">
<polygon fill="white" stroke="black" points="207,-258.6 207,-288.6 391,-288.6 391,-258.6 207,-258.6"/>
<text text-anchor="start" x="215" y="-276.6" font-family="Helvetica,sans-Serif" font-size="10.00">klyqa_ctl.account.Account.request</text>
<text text-anchor="middle" x="299" y="-265.6" font-family="Helvetica,sans-Serif" font-size="10.00">_account_settings_eco</text>
</a>
</g>
</g>
<!-- Node1&#45;&gt;Node12 -->
<g id="edge32" class="edge">
<title>Node1&#45;&gt;Node12</title>
<path fill="none" stroke="midnightblue" d="M1386.05,-285.24C1373.33,-243.92 1337.5,-147.16 1270,-101.6 1156.26,-24.82 1102.22,-53.6 965,-53.6 965,-53.6 965,-53.6 738,-53.6 555.05,-53.6 370.46,-208.77 316.03,-258.47"/>
<polygon fill="midnightblue" stroke="midnightblue" points="1382.72,-286.32 1388.91,-294.91 1389.43,-284.33 1382.72,-286.32"/>
</g>
<!-- Node14 -->
<g id="node14" class="node">
<title>Node14</title>
<g id="a_node14"><a xlink:href="classklyqa__ctl_1_1account_1_1Account.html#acbc09f2b1b4cb6b7ed771b96ea79613b" target="_top" xlink:title=" ">
<polygon fill="white" stroke="black" points="871,-650.6 871,-680.6 1057,-680.6 1057,-650.6 871,-650.6"/>
<text text-anchor="start" x="879" y="-668.6" font-family="Helvetica,sans-Serif" font-size="10.00">klyqa_ctl.account.Account.perform</text>
<text text-anchor="middle" x="964" y="-657.6" font-family="Helvetica,sans-Serif" font-size="10.00">_login</text>
</a>
</g>
</g>
<!-- Node1&#45;&gt;Node14 -->
<g id="edge31" class="edge">
<title>Node1&#45;&gt;Node14</title>
<path fill="none" stroke="midnightblue" d="M1391.02,-324.41C1388.44,-383.05 1372.12,-556.58 1270,-635.6 1210.24,-681.83 1122.94,-686 1057.03,-680.55"/>
<polygon fill="midnightblue" stroke="midnightblue" points="1394.53,-324.39 1391.38,-314.27 1387.53,-324.14 1394.53,-324.39"/>
</g>
<!-- Node15 -->
<g id="node15" class="node">
<title>Node15</title>
<g id="a_node15"><a xlink:href="classklyqa__ctl_1_1account_1_1Account.html#a6f7d45c2ee71e0c761145bea5084dda6" target="_top" xlink:title=" ">
<polygon fill="white" stroke="black" points="872,-188.6 872,-218.6 1056,-218.6 1056,-188.6 872,-188.6"/>
<text text-anchor="start" x="880" y="-206.6" font-family="Helvetica,sans-Serif" font-size="10.00">klyqa_ctl.account.Account.request</text>
<text text-anchor="middle" x="964" y="-195.6" font-family="Helvetica,sans-Serif" font-size="10.00">_device_configs_from_acc_sets</text>
</a>
</g>
</g>
<!-- Node1&#45;&gt;Node15 -->
<g id="edge34" class="edge">
<title>Node1&#45;&gt;Node15</title>
<path fill="none" stroke="midnightblue" d="M1370.93,-288.8C1347.78,-271.95 1308.37,-246.03 1270,-233.6 1200.53,-211.08 1117.88,-204.08 1056.15,-202.44"/>
<polygon fill="midnightblue" stroke="midnightblue" points="1369.13,-291.82 1379.25,-294.97 1373.31,-286.2 1369.13,-291.82"/>
</g>
<!-- Node17 -->
<g id="node17" class="node">
<title>Node17</title>
<g id="a_node17"><a xlink:href="classklyqa__ctl_1_1klyqa__ctl_1_1Client.html#ad5c42cd8dd34ed1d6329040e164bfc2e" target="_top" xlink:title=" ">
<polygon fill="white" stroke="black" points="881,-82.6 881,-112.6 1047,-112.6 1047,-82.6 881,-82.6"/>
<text text-anchor="start" x="889" y="-100.6" font-family="Helvetica,sans-Serif" font-size="10.00">klyqa_ctl.klyqa_ctl.Client.send</text>
<text text-anchor="middle" x="964" y="-89.6" font-family="Helvetica,sans-Serif" font-size="10.00">_to_devices</text>
</a>
</g>
</g>
<!-- Node1&#45;&gt;Node17 -->
<g id="edge35" class="edge">
<title>Node1&#45;&gt;Node17</title>
<path fill="none" stroke="midnightblue" d="M1381.57,-285.57C1363.8,-253.58 1323.39,-189.39 1270,-157.6 1201.96,-117.07 1111.7,-103.29 1047.06,-98.91"/>
<polygon fill="midnightblue" stroke="midnightblue" points="1378.69,-287.61 1386.53,-294.75 1384.85,-284.28 1378.69,-287.61"/>
</g>
<!-- Node19 -->
<g id="node19" class="node">
<title>Node19</title>
<g id="a_node19"><a xlink:href="classklyqa__ctl_1_1account_1_1Account.html#af0e05ae15ad46c4b1b3bbb69b6bb7151" target="_top" xlink:title=" ">
<polygon fill="white" stroke="black" points="867,-150.1 867,-169.1 1061,-169.1 1061,-150.1 867,-150.1"/>
<text text-anchor="middle" x="964" y="-157.1" font-family="Helvetica,sans-Serif" font-size="10.00">klyqa_ctl.account.Account.shutdown</text>
</a>
</g>
</g>
<!-- Node1&#45;&gt;Node19 -->
<g id="edge36" class="edge">
<title>Node1&#45;&gt;Node19</title>
<path fill="none" stroke="midnightblue" d="M1377.1,-287.14C1356.24,-263.18 1315.12,-220.78 1270,-200.6 1204.29,-171.19 1123.25,-161.38 1061.22,-158.68"/>
<polygon fill="midnightblue" stroke="midnightblue" points="1374.46,-289.44 1383.61,-294.78 1379.79,-284.9 1374.46,-289.44"/>
</g>
<!-- Node2&#45;&gt;Node3 -->
<g id="edge2" class="edge">
<title>Node2&#45;&gt;Node3</title>
<path fill="none" stroke="midnightblue" d="M859.47,-473.97C789.36,-468.88 694.61,-462.12 611,-456.6 536.11,-451.65 451.04,-446.48 388.83,-442.79"/>
<polygon fill="midnightblue" stroke="midnightblue" points="859.41,-477.48 869.64,-474.71 859.92,-470.5 859.41,-477.48"/>
</g>
<!-- Node3&#45;&gt;Node4 -->
<g id="edge3" class="edge">
<title>Node3&#45;&gt;Node4</title>
<path fill="none" stroke="midnightblue" d="M204.56,-420.81C182.22,-416.79 159.14,-412.65 139.38,-409.1"/>
<polygon fill="midnightblue" stroke="midnightblue" points="203.95,-424.25 214.41,-422.58 205.19,-417.36 203.95,-424.25"/>
</g>
<!-- Node5&#45;&gt;Node2 -->
<g id="edge5" class="edge">
<title>Node5&#45;&gt;Node2</title>
<path fill="none" stroke="midnightblue" d="M1165.61,-359.41C1138,-386.61 1083.98,-438.53 1061,-451.6 1050.45,-457.59 1038.55,-462.55 1026.82,-466.58"/>
<polygon fill="midnightblue" stroke="midnightblue" points="1168.31,-361.66 1172.96,-352.14 1163.39,-356.68 1168.31,-361.66"/>
</g>
<!-- Node5&#45;&gt;Node3 -->
<g id="edge6" class="edge">
<title>Node5&#45;&gt;Node3</title>
<path fill="none" stroke="midnightblue" d="M1119.87,-354.36C1112.11,-356.24 1104.33,-358.32 1097,-360.6 1080.45,-365.74 1077.84,-371.51 1061,-375.6 823.01,-433.34 532.18,-440.03 388.73,-439.28"/>
<polygon fill="midnightblue" stroke="midnightblue" points="1120.69,-357.77 1129.65,-352.1 1119.12,-350.94 1120.69,-357.77"/>
</g>
<!-- Node5&#45;&gt;Node4 -->
<g id="edge16" class="edge">
<title>Node5&#45;&gt;Node4</title>
<path fill="none" stroke="midnightblue" d="M1086.75,-349.08C997.16,-354.58 859.57,-361.6 740,-361.6 740,-361.6 740,-361.6 518,-361.6 388.46,-361.6 237.89,-378.8 153.24,-390.06"/>
<polygon fill="midnightblue" stroke="midnightblue" points="1087.13,-352.56 1096.89,-348.45 1086.69,-345.58 1087.13,-352.56"/>
</g>
<!-- Node5&#45;&gt;Node6 -->
<g id="edge7" class="edge">
<title>Node5&#45;&gt;Node6</title>
<path fill="none" stroke="midnightblue" d="M1173.61,-361.87C1156.74,-396.26 1116.72,-468.08 1061,-505.6 1055.29,-509.44 1049.01,-512.7 1042.5,-515.45"/>
<polygon fill="midnightblue" stroke="midnightblue" points="1176.95,-363.02 1178.1,-352.48 1170.63,-360 1176.95,-363.02"/>
</g>
<!-- Node5&#45;&gt;Node7 -->
<g id="edge20" class="edge">
<title>Node5&#45;&gt;Node7</title>
<path fill="none" stroke="midnightblue" d="M1104.14,-356.37C1101.67,-357.66 1099.28,-359.06 1097,-360.6 1073.35,-376.46 1084.56,-397.61 1061,-413.6 987.92,-463.18 949.25,-424.42 867,-456.6 827.55,-472.03 785.86,-498.56 761.43,-515.31"/>
<polygon fill="midnightblue" stroke="midnightblue" points="1105.7,-359.5 1113.37,-352.2 1102.82,-353.13 1105.7,-359.5"/>
</g>
<!-- Node5&#45;&gt;Node11 -->
<g id="edge27" class="edge">
<title>Node5&#45;&gt;Node11</title>
<path fill="none" stroke="midnightblue" d="M1086.74,-338.98C958.91,-334.16 734.2,-325.68 609.59,-320.98"/>
<polygon fill="midnightblue" stroke="midnightblue" points="1086.78,-342.49 1096.91,-339.37 1087.05,-335.49 1086.78,-342.49"/>
</g>
<!-- Node5&#45;&gt;Node12 -->
<g id="edge19" class="edge">
<title>Node5&#45;&gt;Node12</title>
<path fill="none" stroke="midnightblue" d="M1099.41,-331.83C1086.56,-330.31 1073.43,-328.85 1061,-327.6 819.67,-303.33 534.2,-286.15 391.23,-278.33"/>
<polygon fill="midnightblue" stroke="midnightblue" points="1099.29,-335.34 1109.64,-333.06 1100.13,-328.39 1099.29,-335.34"/>
</g>
<!-- Node5&#45;&gt;Node14 -->
<g id="edge17" class="edge">
<title>Node5&#45;&gt;Node14</title>
<path fill="none" stroke="midnightblue" d="M1173.15,-361.65C1154.16,-399.7 1108.77,-487.22 1061,-554.6 1035.06,-591.18 999.42,-629.92 979.67,-650.57"/>
<polygon fill="midnightblue" stroke="midnightblue" points="1176.49,-362.8 1177.79,-352.29 1170.22,-359.7 1176.49,-362.8"/>
</g>
<!-- Node5&#45;&gt;Node15 -->
<g id="edge21" class="edge">
<title>Node5&#45;&gt;Node15</title>
<path fill="none" stroke="midnightblue" d="M1158.87,-327.49C1117.06,-300.78 1030.53,-245.47 988.68,-218.73"/>
<polygon fill="midnightblue" stroke="midnightblue" points="1157.24,-330.61 1167.55,-333.04 1161.01,-324.71 1157.24,-330.61"/>
</g>
<!-- Node5&#45;&gt;Node17 -->
<g id="edge23" class="edge">
<title>Node5&#45;&gt;Node17</title>
<path fill="none" stroke="midnightblue" d="M1175.5,-323.29C1160.37,-283.97 1121.04,-193.81 1061,-140.6 1047.47,-128.6 1030.05,-119.46 1013.77,-112.75"/>
<polygon fill="midnightblue" stroke="midnightblue" points="1172.27,-324.62 1179.05,-332.76 1178.82,-322.17 1172.27,-324.62"/>
</g>
<!-- Node5&#45;&gt;Node19 -->
<g id="edge26" class="edge">
<title>Node5&#45;&gt;Node19</title>
<path fill="none" stroke="midnightblue" d="M1174.1,-323.37C1157.76,-288.44 1118.25,-214.83 1061,-178.6 1054.97,-174.78 1048.34,-171.7 1041.46,-169.23"/>
<polygon fill="midnightblue" stroke="midnightblue" points="1171.09,-325.22 1178.41,-332.88 1177.47,-322.33 1171.09,-325.22"/>
</g>
<!-- Node6&#45;&gt;Node7 -->
<g id="edge8" class="edge">
<title>Node6&#45;&gt;Node7</title>
<path fill="none" stroke="midnightblue" d="M872.27,-530.6C858.78,-530.6 844.87,-530.6 831.37,-530.6"/>
<polygon fill="midnightblue" stroke="midnightblue" points="872.49,-534.1 882.49,-530.6 872.49,-527.1 872.49,-534.1"/>
</g>
<!-- Node8 -->
<g id="node8" class="node">
<title>Node8</title>
<g id="a_node8"><a xlink:href="classklyqa__ctl_1_1account_1_1Account.html#a748c13aed7b2a5c9c605c81234633cb8" target="_top" xlink:title=" ">
<polygon fill="white" stroke="black" points="432.5,-564.6 432.5,-594.6 605.5,-594.6 605.5,-564.6 432.5,-564.6"/>
<text text-anchor="start" x="440.5" y="-582.6" font-family="Helvetica,sans-Serif" font-size="10.00">klyqa_ctl.account.Account.cloud</text>
<text text-anchor="middle" x="519" y="-571.6" font-family="Helvetica,sans-Serif" font-size="10.00">_post_to_device</text>
</a>
</g>
</g>
<!-- Node7&#45;&gt;Node8 -->
<g id="edge9" class="edge">
<title>Node7&#45;&gt;Node8</title>
<path fill="none" stroke="midnightblue" d="M661.22,-547.85C636.93,-553.31 610.29,-559.3 586.76,-564.59"/>
<polygon fill="midnightblue" stroke="midnightblue" points="662.12,-551.24 671.11,-545.63 660.59,-544.41 662.12,-551.24"/>
</g>
<!-- Node10 -->
<g id="node10" class="node">
<title>Node10</title>
<g id="a_node10"><a xlink:href="classklyqa__ctl_1_1account_1_1Account.html#a1450d1baa029967965be433e4efb5a6d" target="_top" xlink:title=" ">
<polygon fill="white" stroke="black" points="427,-466.6 427,-496.6 611,-496.6 611,-466.6 427,-466.6"/>
<text text-anchor="start" x="435" y="-484.6" font-family="Helvetica,sans-Serif" font-size="10.00">klyqa_ctl.account.Account.request</text>
<text text-anchor="middle" x="519" y="-473.6" font-family="Helvetica,sans-Serif" font-size="10.00">_cloud_device_state</text>
</a>
</g>
</g>
<!-- Node7&#45;&gt;Node10 -->
<g id="edge11" class="edge">
<title>Node7&#45;&gt;Node10</title>
<path fill="none" stroke="midnightblue" d="M661.22,-513.34C636.93,-507.88 610.29,-501.89 586.76,-496.6"/>
<polygon fill="midnightblue" stroke="midnightblue" points="660.59,-516.78 671.11,-515.56 662.12,-509.95 660.59,-516.78"/>
</g>
<!-- Node7&#45;&gt;Node11 -->
<g id="edge13" class="edge">
<title>Node7&#45;&gt;Node11</title>
<path fill="none" stroke="midnightblue" d="M715.15,-508.27C670.65,-464.79 573.41,-369.78 535.54,-332.77"/>
<polygon fill="midnightblue" stroke="midnightblue" points="712.72,-510.79 722.32,-515.28 717.62,-505.78 712.72,-510.79"/>
</g>
<!-- Node13 -->
<g id="node13" class="node">
<title>Node13</title>
<g id="a_node13"><a xlink:href="classklyqa__ctl_1_1account_1_1Account.html#a4fb47c923d3a579054e8cc72480906fb" target="_top" xlink:title=" ">
<polygon fill="white" stroke="black" points="428.5,-515.6 428.5,-545.6 609.5,-545.6 609.5,-515.6 428.5,-515.6"/>
<text text-anchor="start" x="436.5" y="-533.6" font-family="Helvetica,sans-Serif" font-size="10.00">klyqa_ctl.account.Account.update</text>
<text text-anchor="middle" x="519" y="-522.6" font-family="Helvetica,sans-Serif" font-size="10.00">_device_configs</text>
</a>
</g>
</g>
<!-- Node7&#45;&gt;Node13 -->
<g id="edge15" class="edge">
<title>Node7&#45;&gt;Node13</title>
<path fill="none" stroke="midnightblue" d="M636.71,-530.6C627.72,-530.6 618.66,-530.6 609.78,-530.6"/>
<polygon fill="midnightblue" stroke="midnightblue" points="636.81,-534.1 646.81,-530.6 636.81,-527.1 636.81,-534.1"/>
</g>
<!-- Node9 -->
<g id="node9" class="node">
<title>Node9</title>
<g id="a_node9"><a xlink:href="classklyqa__ctl_1_1account_1_1Account.html#a372d813db2141719743dfe088dbe9552" target="_top" xlink:title=" ">
<polygon fill="white" stroke="black" points="212.5,-564.6 212.5,-594.6 385.5,-594.6 385.5,-564.6 212.5,-564.6"/>
<text text-anchor="start" x="220.5" y="-582.6" font-family="Helvetica,sans-Serif" font-size="10.00">klyqa_ctl.account.Account.cloud</text>
<text text-anchor="middle" x="299" y="-571.6" font-family="Helvetica,sans-Serif" font-size="10.00">_post_command_to_dev</text>
</a>
</g>
</g>
<!-- Node8&#45;&gt;Node9 -->
<g id="edge10" class="edge">
<title>Node8&#45;&gt;Node9</title>
<path fill="none" stroke="midnightblue" d="M422.29,-579.6C410.09,-579.6 397.67,-579.6 385.64,-579.6"/>
<polygon fill="midnightblue" stroke="midnightblue" points="422.47,-583.1 432.47,-579.6 422.47,-576.1 422.47,-583.1"/>
</g>
<!-- Node10&#45;&gt;Node3 -->
<g id="edge12" class="edge">
<title>Node10&#45;&gt;Node3</title>
<path fill="none" stroke="midnightblue" d="M433.78,-464.6C414.23,-460.65 393.55,-456.48 374.45,-452.62"/>
<polygon fill="midnightblue" stroke="midnightblue" points="433.09,-468.03 443.59,-466.58 434.48,-461.17 433.09,-468.03"/>
</g>
<!-- Node11&#45;&gt;Node12 -->
<g id="edge14" class="edge">
<title>Node11&#45;&gt;Node12</title>
<path fill="none" stroke="midnightblue" d="M433.78,-300.6C414.23,-296.65 393.55,-292.48 374.45,-288.62"/>
<polygon fill="midnightblue" stroke="midnightblue" points="433.09,-304.03 443.59,-302.58 434.48,-297.17 433.09,-304.03"/>
</g>
<!-- Node14&#45;&gt;Node4 -->
<g id="edge18" class="edge">
<title>Node14&#45;&gt;Node4</title>
<path fill="none" stroke="midnightblue" d="M884.33,-682.46C737.21,-709.33 416.45,-745.44 207,-603.6 133.43,-553.77 98.23,-442.8 89.02,-409.33"/>
<polygon fill="midnightblue" stroke="midnightblue" points="885,-685.89 894.19,-680.62 883.72,-679.01 885,-685.89"/>
</g>
<!-- Node16 -->
<g id="node16" class="node">
<title>Node16</title>
<g id="a_node16"><a xlink:href="classklyqa__ctl_1_1account_1_1Account.html#a8e93f6fe918bf32c172447d4ef439d2d" target="_top" xlink:title=" ">
<polygon fill="white" stroke="black" points="654,-188.6 654,-218.6 824,-218.6 824,-188.6 654,-188.6"/>
<text text-anchor="start" x="662" y="-206.6" font-family="Helvetica,sans-Serif" font-size="10.00">klyqa_ctl.account.Account.sync</text>
<text text-anchor="middle" x="739" y="-195.6" font-family="Helvetica,sans-Serif" font-size="10.00">_acc_settings_to_controller</text>
</a>
</g>
</g>
<!-- Node15&#45;&gt;Node16 -->
<g id="edge22" class="edge">
<title>Node15&#45;&gt;Node16</title>
<path fill="none" stroke="midnightblue" d="M861.93,-203.6C849.34,-203.6 836.57,-203.6 824.27,-203.6"/>
<polygon fill="midnightblue" stroke="midnightblue" points="861.98,-207.1 871.98,-203.6 861.98,-200.1 861.98,-207.1"/>
</g>
<!-- Node17&#45;&gt;Node17 -->
<g id="edge24" class="edge">
<title>Node17&#45;&gt;Node17</title>
<path fill="none" stroke="midnightblue" d="M1002.74,-123.05C997.93,-127.77 985.02,-131.1 964,-131.1 929.51,-131.1 916.85,-122.15 926.01,-112.75"/>
<polygon fill="midnightblue" stroke="midnightblue" points="1006.2,-122.48 1001.99,-112.75 999.22,-122.98 1006.2,-122.48"/>
</g>
<!-- Node18 -->
<g id="node18" class="node">
<title>Node18</title>
<g id="a_node18"><a xlink:href="classklyqa__ctl_1_1klyqa__ctl_1_1Client.html#a7a93bda9f242d678a4208d0962837f11" target="_top" xlink:title=" ">
<polygon fill="white" stroke="black" points="656,-82.6 656,-112.6 822,-112.6 822,-82.6 656,-82.6"/>
<text text-anchor="start" x="664" y="-100.6" font-family="Helvetica,sans-Serif" font-size="10.00">klyqa_ctl.klyqa_ctl.Client.send</text>
<text text-anchor="middle" x="739" y="-89.6" font-family="Helvetica,sans-Serif" font-size="10.00">_to_devices_wrapped</text>
</a>
</g>
</g>
<!-- Node17&#45;&gt;Node18 -->
<g id="edge25" class="edge">
<title>Node17&#45;&gt;Node18</title>
<path fill="none" stroke="midnightblue" d="M870.5,-97.6C854.51,-97.6 837.98,-97.6 822.29,-97.6"/>
<polygon fill="midnightblue" stroke="midnightblue" points="870.91,-101.1 880.91,-97.6 870.91,-94.1 870.91,-101.1"/>
</g>
</g>
</svg>
