<?xml version="1.0" encoding="UTF-8" standalone="no"?>
<!DOCTYPE svg PUBLIC "-//W3C//DTD SVG 1.1//EN"
 "http://www.w3.org/Graphics/SVG/1.1/DTD/svg11.dtd">
<!-- Generated by graphviz version 2.43.0 (0)
 -->
<!-- Title: klyqa_ctl.devices.light.response_status.ResponseStatus.color Pages: 1 -->
<!--zoomable 777 -->
<svg id="main" version="1.1" xmlns="http://www.w3.org/2000/svg" xmlns:xlink="http://www.w3.org/1999/xlink" xml:space="preserve" onload="init(evt)">
<style type="text/css"><![CDATA[
.edge:hover path { stroke: red; }
.edge:hover polygon { stroke: red; fill: red; }
]]></style>
<script type="text/javascript"><![CDATA[
var edges = document.getElementsByTagName('g');
if (edges && edges.length) {
  for (var i=0;i<edges.length;i++) {
    if (edges[i].id.substr(0,4)=='edge') {
      edges[i].setAttribute('class','edge');
    }
  }
}
]]></script>
        <defs>
                <circle id="rim" cx="0" cy="0" r="7"/>
                <circle id="rim2" cx="0" cy="0" r="3.5"/>
                <g id="zoomPlus">
                        <use xlink:href="#rim" fill="#404040">
                                <set attributeName="fill" to="#808080" begin="zoomplus.mouseover" end="zoomplus.mouseout"/>
                        </use>
                        <path d="M-4,0h8M0,-4v8" fill="none" stroke="white" stroke-width="1.5" pointer-events="none"/>
                </g>
                <g id="zoomMin">
                        <use xlink:href="#rim" fill="#404040">
                                <set attributeName="fill" to="#808080" begin="zoomminus.mouseover" end="zoomminus.mouseout"/>
                        </use>
                        <path d="M-4,0h8" fill="none" stroke="white" stroke-width="1.5" pointer-events="none"/>
                </g>
                <g id="dirArrow">
                        <path fill="none" stroke="white" stroke-width="1.5" d="M0,-3.0v7 M-2.5,-0.5L0,-3.0L2.5,-0.5"/>
                </g>
               <g id="resetDef">
                       <use xlink:href="#rim2" fill="#404040">
                               <set attributeName="fill" to="#808080" begin="reset.mouseover" end="reset.mouseout"/>
                       </use>
               </g>
        </defs>

<script type="text/javascript">
var viewWidth = 2116;
var viewHeight = 777;
var sectionId = 'dynsection-11';
</script>
<script xlink:href="svgpan.js"/>
<svg id="graph" class="graph">
<g id="viewport">
<title>klyqa_ctl.devices.light.response_status.ResponseStatus.color</title>
<polygon fill="white" stroke="transparent" points="-4,4 -4,-772.8 2112,-772.8 2112,4 -4,4"/>
<!-- Node1 -->
<g id="node1" class="node">
<title>Node1</title>
<g id="a_node1"><a xlink:title=" ">
<polygon fill="#bfbfbf" stroke="black" points="1935,-287.5 1935,-317.5 2108,-317.5 2108,-287.5 1935,-287.5"/>
<text text-anchor="start" x="1943" y="-305.5" font-family="Helvetica,sans-Serif" font-size="10.00">klyqa_ctl.devices.light.response</text>
<text text-anchor="middle" x="2021.5" y="-294.5" font-family="Helvetica,sans-Serif" font-size="10.00">_status.ResponseStatus.color</text>
</a>
</g>
</g>
<!-- Node2 -->
<g id="node2" class="node">
<title>Node2</title>
<g id="a_node2"><a xlink:href="classklyqa__ctl_1_1devices_1_1light_1_1commands_1_1ColorCommand.html#a398df61cf2d815c4d338ef0131482c6d" target="_top" xlink:title=" ">
<polygon fill="white" stroke="black" points="1504,-321.5 1504,-351.5 1690,-351.5 1690,-321.5 1504,-321.5"/>
<text text-anchor="start" x="1512" y="-339.5" font-family="Helvetica,sans-Serif" font-size="10.00">klyqa_ctl.devices.light.commands.</text>
<text text-anchor="middle" x="1597" y="-328.5" font-family="Helvetica,sans-Serif" font-size="10.00">ColorCommand.check_values</text>
</a>
</g>
</g>
<!-- Node1&#45;&gt;Node2 -->
<g id="edge1" class="edge">
<title>Node1&#45;&gt;Node2</title>
<path fill="none" stroke="midnightblue" d="M1944.36,-319.5C1929.39,-322.28 1913.75,-324.81 1899,-326.5 1829.26,-334.49 1749.89,-336.85 1690.17,-337.29"/>
<polygon fill="midnightblue" stroke="midnightblue" points="1945.43,-322.86 1954.59,-317.53 1944.11,-315.98 1945.43,-322.86"/>
</g>
<!-- Node3 -->
<g id="node3" class="node">
<title>Node3</title>
<g id="a_node3"><a xlink:href="classklyqa__ctl_1_1devices_1_1light_1_1response__status_1_1ResponseStatus.html#af9c211f584d4733eb09a43ab8aa0fe19" target="_top" xlink:title=" ">
<polygon fill="white" stroke="black" points="1726,-287.5 1726,-317.5 1899,-317.5 1899,-287.5 1726,-287.5"/>
<text text-anchor="start" x="1734" y="-305.5" font-family="Helvetica,sans-Serif" font-size="10.00">klyqa_ctl.devices.light.response</text>
<text text-anchor="middle" x="1812.5" y="-294.5" font-family="Helvetica,sans-Serif" font-size="10.00">_status.ResponseStatus.color</text>
</a>
</g>
</g>
<!-- Node1&#45;&gt;Node3 -->
<g id="edge2" class="edge">
<title>Node1&#45;&gt;Node3</title>
<path fill="none" stroke="midnightblue" d="M1924.8,-302.5C1916.24,-302.5 1907.6,-302.5 1899.12,-302.5"/>
<polygon fill="midnightblue" stroke="midnightblue" points="1924.81,-306 1934.81,-302.5 1924.81,-299 1924.81,-306"/>
</g>
<!-- Node4 -->
<g id="node4" class="node">
<title>Node4</title>
<g id="a_node4"><a xlink:href="classklyqa__ctl_1_1devices_1_1light_1_1commands_1_1ColorCommand.html#a6ce99d7f4f232fb2f11e6efb7e85e778" target="_top" xlink:title=" ">
<polygon fill="white" stroke="black" points="1504,-262.5 1504,-292.5 1690,-292.5 1690,-262.5 1504,-262.5"/>
<text text-anchor="start" x="1512" y="-280.5" font-family="Helvetica,sans-Serif" font-size="10.00">klyqa_ctl.devices.light.commands.</text>
<text text-anchor="middle" x="1597" y="-269.5" font-family="Helvetica,sans-Serif" font-size="10.00">ColorCommand.color_json</text>
</a>
</g>
</g>
<!-- Node1&#45;&gt;Node4 -->
<g id="edge48" class="edge">
<title>Node1&#45;&gt;Node4</title>
<path fill="none" stroke="midnightblue" d="M1949.57,-285.39C1933.07,-282.11 1915.5,-279.18 1899,-277.5 1829.21,-270.39 1749.84,-270.74 1690.13,-272.68"/>
<polygon fill="midnightblue" stroke="midnightblue" points="1949.19,-288.88 1959.69,-287.47 1950.6,-282.03 1949.19,-288.88"/>
</g>
<!-- Node3&#45;&gt;Node2 -->
<g id="edge3" class="edge">
<title>Node3&#45;&gt;Node2</title>
<path fill="none" stroke="midnightblue" d="M1715.93,-317.72C1707.4,-319.08 1698.78,-320.45 1690.27,-321.81"/>
<polygon fill="midnightblue" stroke="midnightblue" points="1716.57,-321.16 1725.89,-316.13 1715.47,-314.25 1716.57,-321.16"/>
</g>
<!-- Node3&#45;&gt;Node4 -->
<g id="edge4" class="edge">
<title>Node3&#45;&gt;Node4</title>
<path fill="none" stroke="midnightblue" d="M1715.93,-291.31C1707.4,-290.31 1698.78,-289.3 1690.27,-288.3"/>
<polygon fill="midnightblue" stroke="midnightblue" points="1715.55,-294.79 1725.89,-292.48 1716.37,-287.84 1715.55,-294.79"/>
</g>
<!-- Node5 -->
<g id="node5" class="node">
<title>Node5</title>
<g id="a_node5"><a xlink:href="classklyqa__ctl_1_1devices_1_1light_1_1commands_1_1ColorCommand.html#afa8f262e4047666707237c4dfe8615c3" target="_top" xlink:title=" ">
<polygon fill="white" stroke="black" points="1282,-262.5 1282,-292.5 1468,-292.5 1468,-262.5 1282,-262.5"/>
<text text-anchor="start" x="1290" y="-280.5" font-family="Helvetica,sans-Serif" font-size="10.00">klyqa_ctl.devices.light.commands.</text>
<text text-anchor="middle" x="1375" y="-269.5" font-family="Helvetica,sans-Serif" font-size="10.00">ColorCommand.json</text>
</a>
</g>
</g>
<!-- Node4&#45;&gt;Node5 -->
<g id="edge5" class="edge">
<title>Node4&#45;&gt;Node5</title>
<path fill="none" stroke="midnightblue" d="M1493.89,-277.5C1485.25,-277.5 1476.56,-277.5 1468.01,-277.5"/>
<polygon fill="midnightblue" stroke="midnightblue" points="1493.97,-281 1503.97,-277.5 1493.97,-274 1493.97,-281"/>
</g>
<!-- Node6 -->
<g id="node6" class="node">
<title>Node6</title>
<g id="a_node6"><a xlink:href="classklyqa__ctl_1_1general_1_1general_1_1Command.html#a4aa9e4db12aecf5520e974204c635d38" target="_top" xlink:title=" ">
<polygon fill="white" stroke="black" points="1100,-262.5 1100,-292.5 1243,-292.5 1243,-262.5 1100,-262.5"/>
<text text-anchor="start" x="1108" y="-280.5" font-family="Helvetica,sans-Serif" font-size="10.00">klyqa_ctl.general.general.</text>
<text text-anchor="middle" x="1171.5" y="-269.5" font-family="Helvetica,sans-Serif" font-size="10.00">Command.cloud</text>
</a>
</g>
</g>
<!-- Node5&#45;&gt;Node6 -->
<g id="edge6" class="edge">
<title>Node5&#45;&gt;Node6</title>
<path fill="none" stroke="midnightblue" d="M1271.76,-277.5C1262.11,-277.5 1252.49,-277.5 1243.24,-277.5"/>
<polygon fill="midnightblue" stroke="midnightblue" points="1271.8,-281 1281.8,-277.5 1271.8,-274 1271.8,-281"/>
</g>
<!-- Node25 -->
<g id="node25" class="node">
<title>Node25</title>
<g id="a_node25"><a xlink:href="classklyqa__ctl_1_1general_1_1general_1_1CloudStateCommand.html#a6bbc8b1333f0a45ce38f1e81a6093bc1" target="_top" xlink:title=" ">
<polygon fill="white" stroke="black" points="1097,-493.5 1097,-523.5 1246,-523.5 1246,-493.5 1097,-493.5"/>
<text text-anchor="start" x="1105" y="-511.5" font-family="Helvetica,sans-Serif" font-size="10.00">klyqa_ctl.general.general.</text>
<text text-anchor="middle" x="1171.5" y="-500.5" font-family="Helvetica,sans-Serif" font-size="10.00">CloudStateCommand.cloud</text>
</a>
</g>
</g>
<!-- Node5&#45;&gt;Node25 -->
<g id="edge33" class="edge">
<title>Node5&#45;&gt;Node25</title>
<path fill="none" stroke="midnightblue" d="M1353.97,-300.46C1312.93,-347.51 1220.27,-453.74 1185.77,-493.29"/>
<polygon fill="midnightblue" stroke="midnightblue" points="1356.84,-302.49 1360.78,-292.66 1351.57,-297.89 1356.84,-302.49"/>
</g>
<!-- Node26 -->
<g id="node26" class="node">
<title>Node26</title>
<g id="a_node26"><a xlink:href="classklyqa__ctl_1_1general_1_1general_1_1Command.html#a282b2ced7b14ae00b8315e33082108ab" target="_top" xlink:title=" ">
<polygon fill="white" stroke="black" points="1100,-118.5 1100,-148.5 1243,-148.5 1243,-118.5 1100,-118.5"/>
<text text-anchor="start" x="1108" y="-136.5" font-family="Helvetica,sans-Serif" font-size="10.00">klyqa_ctl.general.general.</text>
<text text-anchor="middle" x="1171.5" y="-125.5" font-family="Helvetica,sans-Serif" font-size="10.00">Command.msg_str</text>
</a>
</g>
</g>
<!-- Node5&#45;&gt;Node26 -->
<g id="edge46" class="edge">
<title>Node5&#45;&gt;Node26</title>
<path fill="none" stroke="midnightblue" d="M1344.56,-256.46C1303.46,-227.09 1229.84,-174.48 1193.7,-148.65"/>
<polygon fill="midnightblue" stroke="midnightblue" points="1342.65,-259.39 1352.82,-262.36 1346.72,-253.7 1342.65,-259.39"/>
</g>
<!-- Node7 -->
<g id="node7" class="node">
<title>Node7</title>
<g id="a_node7"><a xlink:href="classklyqa__ctl_1_1klyqa__ctl_1_1Client.html#ab129f0608f5651109b893aed3671e00e" target="_top" xlink:title=" ">
<polygon fill="white" stroke="black" points="883.5,-444.5 883.5,-474.5 1044.5,-474.5 1044.5,-444.5 883.5,-444.5"/>
<text text-anchor="start" x="891.5" y="-462.5" font-family="Helvetica,sans-Serif" font-size="10.00">klyqa_ctl.klyqa_ctl.Client.add</text>
<text text-anchor="middle" x="964" y="-451.5" font-family="Helvetica,sans-Serif" font-size="10.00">_account</text>
</a>
</g>
</g>
<!-- Node6&#45;&gt;Node7 -->
<g id="edge7" class="edge">
<title>Node6&#45;&gt;Node7</title>
<path fill="none" stroke="midnightblue" d="M1160.07,-302.16C1144.02,-337.08 1109.9,-400.45 1061,-434.5 1055.49,-438.34 1049.43,-441.59 1043.11,-444.34"/>
<polygon fill="midnightblue" stroke="midnightblue" points="1163.41,-303.27 1164.29,-292.71 1157.02,-300.41 1163.41,-303.27"/>
</g>
<!-- Node8 -->
<g id="node8" class="node">
<title>Node8</title>
<g id="a_node8"><a xlink:href="classklyqa__ctl_1_1account_1_1Account.html#a19bd2d6d0ae6a4e738c4d40453557606" target="_top" xlink:title=" ">
<polygon fill="white" stroke="black" points="870,-240.5 870,-270.5 1058,-270.5 1058,-240.5 870,-240.5"/>
<text text-anchor="start" x="878" y="-258.5" font-family="Helvetica,sans-Serif" font-size="10.00">klyqa_ctl.account.Account.backend</text>
<text text-anchor="middle" x="964" y="-247.5" font-family="Helvetica,sans-Serif" font-size="10.00">_connected</text>
</a>
</g>
</g>
<!-- Node6&#45;&gt;Node8 -->
<g id="edge8" class="edge">
<title>Node6&#45;&gt;Node8</title>
<path fill="none" stroke="midnightblue" d="M1089.63,-268.84C1079.36,-267.74 1068.79,-266.61 1058.35,-265.49"/>
<polygon fill="midnightblue" stroke="midnightblue" points="1089.46,-272.34 1099.78,-269.93 1090.21,-265.38 1089.46,-272.34"/>
</g>
<!-- Node9 -->
<g id="node9" class="node">
<title>Node9</title>
<g id="a_node9"><a xlink:href="classklyqa__ctl_1_1account_1_1Account.html#aa78870d05cc7fa5899d61733d124e885" target="_top" xlink:title=" ">
<polygon fill="white" stroke="black" points="209.5,-312.5 209.5,-342.5 388.5,-342.5 388.5,-312.5 209.5,-312.5"/>
<text text-anchor="start" x="217.5" y="-330.5" font-family="Helvetica,sans-Serif" font-size="10.00">klyqa_ctl.account.Account.device</text>
<text text-anchor="middle" x="299" y="-319.5" font-family="Helvetica,sans-Serif" font-size="10.00">_request_and_print</text>
</a>
</g>
</g>
<!-- Node6&#45;&gt;Node9 -->
<g id="edge11" class="edge">
<title>Node6&#45;&gt;Node9</title>
<path fill="none" stroke="midnightblue" d="M1157.41,-253.62C1134.91,-213.58 1088.66,-135.88 1061,-121.5 998.5,-89.01 488.51,-87.16 427,-121.5 351.06,-163.89 314.89,-272.42 303.83,-312.41"/>
<polygon fill="midnightblue" stroke="midnightblue" points="1154.42,-255.44 1162.34,-262.47 1160.53,-252.03 1154.42,-255.44"/>
</g>
<!-- Node10 -->
<g id="node10" class="node">
<title>Node10</title>
<g id="a_node10"><a xlink:href="classklyqa__ctl_1_1account_1_1Account.html#a0b171a600e4342d035ad26c39b384b38" target="_top" xlink:title=" ">
<polygon fill="white" stroke="black" points="0,-514 0,-533 171,-533 171,-514 0,-514"/>
<text text-anchor="middle" x="85.5" y="-521" font-family="Helvetica,sans-Serif" font-size="10.00">klyqa_ctl.account.Account.login</text>
</a>
</g>
</g>
<!-- Node6&#45;&gt;Node10 -->
<g id="edge21" class="edge">
<title>Node6&#45;&gt;Node10</title>
<path fill="none" stroke="midnightblue" d="M1155.63,-253.6C1140.67,-229.45 1117,-191.03 1097,-157.5 1080.68,-130.13 1087.68,-112.91 1061,-95.5 940.78,-17.04 883.56,-59.5 740,-59.5 740,-59.5 740,-59.5 518,-59.5 260.59,-59.5 113.23,-447.18 89.81,-513.81"/>
<polygon fill="midnightblue" stroke="midnightblue" points="1152.86,-255.76 1161.1,-262.41 1158.8,-252.07 1152.86,-255.76"/>
</g>
<!-- Node11 -->
<g id="node11" class="node">
<title>Node11</title>
<g id="a_node11"><a xlink:href="classklyqa__ctl_1_1account_1_1Account.html#ad608e3ee0ba1199f509e644a11081724" target="_top" xlink:title=" ">
<polygon fill="white" stroke="black" points="882.5,-395.5 882.5,-425.5 1045.5,-425.5 1045.5,-395.5 882.5,-395.5"/>
<text text-anchor="start" x="890.5" y="-413.5" font-family="Helvetica,sans-Serif" font-size="10.00">klyqa_ctl.account.Account.get</text>
<text text-anchor="middle" x="964" y="-402.5" font-family="Helvetica,sans-Serif" font-size="10.00">_beared_request_header</text>
</a>
</g>
</g>
<!-- Node6&#45;&gt;Node11 -->
<g id="edge12" class="edge">
<title>Node6&#45;&gt;Node11</title>
<path fill="none" stroke="midnightblue" d="M1153.2,-300.67C1133.55,-325.35 1099.21,-363.79 1061,-385.5 1054.19,-389.37 1046.76,-392.66 1039.16,-395.44"/>
<polygon fill="midnightblue" stroke="midnightblue" points="1156.14,-302.6 1159.52,-292.56 1150.62,-298.3 1156.14,-302.6"/>
</g>
<!-- Node12 -->
<g id="node12" class="node">
<title>Node12</title>
<g id="a_node12"><a xlink:href="classklyqa__ctl_1_1account_1_1Account.html#a73506bd234f8e819e138c2bd663179b8" target="_top" xlink:title=" ">
<polygon fill="white" stroke="black" points="647,-395.5 647,-425.5 831,-425.5 831,-395.5 647,-395.5"/>
<text text-anchor="start" x="655" y="-413.5" font-family="Helvetica,sans-Serif" font-size="10.00">klyqa_ctl.account.Account.request</text>
<text text-anchor="middle" x="739" y="-402.5" font-family="Helvetica,sans-Serif" font-size="10.00">_beared</text>
</a>
</g>
</g>
<!-- Node6&#45;&gt;Node12 -->
<g id="edge25" class="edge">
<title>Node6&#45;&gt;Node12</title>
<path fill="none" stroke="midnightblue" d="M1136.6,-257.52C1075.86,-224.63 947.32,-168.56 867,-230.5 817.15,-268.95 871.23,-319.07 831,-367.5 820.73,-379.87 806.09,-388.9 791.54,-395.39"/>
<polygon fill="midnightblue" stroke="midnightblue" points="1134.96,-260.62 1145.41,-262.39 1138.35,-254.49 1134.96,-260.62"/>
</g>
<!-- Node16 -->
<g id="node16" class="node">
<title>Node16</title>
<g id="a_node16"><a xlink:href="classklyqa__ctl_1_1account_1_1Account.html#af101070a97d556e95978748475933f72" target="_top" xlink:title=" ">
<polygon fill="white" stroke="black" points="428.5,-459.5 428.5,-489.5 609.5,-489.5 609.5,-459.5 428.5,-459.5"/>
<text text-anchor="start" x="436.5" y="-477.5" font-family="Helvetica,sans-Serif" font-size="10.00">klyqa_ctl.account.Account.update</text>
<text text-anchor="middle" x="519" y="-466.5" font-family="Helvetica,sans-Serif" font-size="10.00">_account_settings</text>
</a>
</g>
</g>
<!-- Node6&#45;&gt;Node16 -->
<g id="edge32" class="edge">
<title>Node6&#45;&gt;Node16</title>
<path fill="none" stroke="midnightblue" d="M1148.62,-255.54C1128.03,-236.55 1095.3,-210.47 1061,-199.5 978.87,-173.24 950.59,-178.34 867,-199.5 759.23,-226.78 716.17,-231.47 647,-318.5 609.43,-365.77 653.7,-406.81 611,-449.5 607.18,-453.32 602.83,-456.58 598.15,-459.34"/>
<polygon fill="midnightblue" stroke="midnightblue" points="1146.23,-258.09 1155.9,-262.43 1151.04,-253.01 1146.23,-258.09"/>
</g>
<!-- Node17 -->
<g id="node17" class="node">
<title>Node17</title>
<g id="a_node17"><a xlink:href="classklyqa__ctl_1_1account_1_1Account.html#aeca1011f6c6e2f6bcdb2136ef48bc7fd" target="_top" xlink:title=" ">
<polygon fill="white" stroke="black" points="207,-459.5 207,-489.5 391,-489.5 391,-459.5 207,-459.5"/>
<text text-anchor="start" x="215" y="-477.5" font-family="Helvetica,sans-Serif" font-size="10.00">klyqa_ctl.account.Account.request</text>
<text text-anchor="middle" x="299" y="-466.5" font-family="Helvetica,sans-Serif" font-size="10.00">_account_settings_eco</text>
</a>
</g>
</g>
<!-- Node6&#45;&gt;Node17 -->
<g id="edge24" class="edge">
<title>Node6&#45;&gt;Node17</title>
<path fill="none" stroke="midnightblue" d="M1153.64,-254.45C1134.38,-230.25 1100.37,-193.66 1061,-178.5 888.92,-112.24 824.77,-156.55 647,-205.5 543.97,-233.87 500.14,-224.59 427,-302.5 395.24,-336.33 417.96,-362.74 391,-400.5 373.37,-425.19 345.43,-446.21 325.16,-459.47"/>
<polygon fill="midnightblue" stroke="midnightblue" points="1150.94,-256.67 1159.83,-262.43 1156.47,-252.38 1150.94,-256.67"/>
</g>
<!-- Node19 -->
<g id="node19" class="node">
<title>Node19</title>
<g id="a_node19"><a xlink:href="classklyqa__ctl_1_1account_1_1Account.html#acbc09f2b1b4cb6b7ed771b96ea79613b" target="_top" xlink:title=" ">
<polygon fill="white" stroke="black" points="871,-657.5 871,-687.5 1057,-687.5 1057,-657.5 871,-657.5"/>
<text text-anchor="start" x="879" y="-675.5" font-family="Helvetica,sans-Serif" font-size="10.00">klyqa_ctl.account.Account.perform</text>
<text text-anchor="middle" x="964" y="-664.5" font-family="Helvetica,sans-Serif" font-size="10.00">_login</text>
</a>
</g>
</g>
<!-- Node6&#45;&gt;Node19 -->
<g id="edge22" class="edge">
<title>Node6&#45;&gt;Node19</title>
<path fill="none" stroke="midnightblue" d="M1161.79,-302.28C1145.01,-348.89 1105.84,-452.25 1061,-533.5 1034.78,-581 996.32,-632.44 977.01,-657.32"/>
<polygon fill="midnightblue" stroke="midnightblue" points="1165.14,-303.3 1165.21,-292.71 1158.55,-300.95 1165.14,-303.3"/>
</g>
<!-- Node20 -->
<g id="node20" class="node">
<title>Node20</title>
<g id="a_node20"><a xlink:href="classklyqa__ctl_1_1account_1_1Account.html#a6f7d45c2ee71e0c761145bea5084dda6" target="_top" xlink:title=" ">
<polygon fill="white" stroke="black" points="872,-493.5 872,-523.5 1056,-523.5 1056,-493.5 872,-493.5"/>
<text text-anchor="start" x="880" y="-511.5" font-family="Helvetica,sans-Serif" font-size="10.00">klyqa_ctl.account.Account.request</text>
<text text-anchor="middle" x="964" y="-500.5" font-family="Helvetica,sans-Serif" font-size="10.00">_device_configs_from_acc_sets</text>
</a>
</g>
</g>
<!-- Node6&#45;&gt;Node20 -->
<g id="edge26" class="edge">
<title>Node6&#45;&gt;Node20</title>
<path fill="none" stroke="midnightblue" d="M1164.34,-302.43C1152.25,-346.02 1121.2,-435.96 1061,-483.5 1056.13,-487.34 1050.74,-490.6 1045.06,-493.36"/>
<polygon fill="midnightblue" stroke="midnightblue" points="1167.76,-303.21 1166.95,-292.64 1160.99,-301.4 1167.76,-303.21"/>
</g>
<!-- Node22 -->
<g id="node22" class="node">
<title>Node22</title>
<g id="a_node22"><a xlink:href="classklyqa__ctl_1_1klyqa__ctl_1_1Client.html#ad5c42cd8dd34ed1d6329040e164bfc2e" target="_top" xlink:title=" ">
<polygon fill="white" stroke="black" points="881,-328.5 881,-358.5 1047,-358.5 1047,-328.5 881,-328.5"/>
<text text-anchor="start" x="889" y="-346.5" font-family="Helvetica,sans-Serif" font-size="10.00">klyqa_ctl.klyqa_ctl.Client.send</text>
<text text-anchor="middle" x="964" y="-335.5" font-family="Helvetica,sans-Serif" font-size="10.00">_to_devices</text>
</a>
</g>
</g>
<!-- Node6&#45;&gt;Node22 -->
<g id="edge28" class="edge">
<title>Node6&#45;&gt;Node22</title>
<path fill="none" stroke="midnightblue" d="M1123.87,-296.18C1104.57,-303.59 1081.86,-311.9 1061,-318.5 1050,-321.98 1038.18,-325.35 1026.73,-328.43"/>
<polygon fill="midnightblue" stroke="midnightblue" points="1125.27,-299.39 1133.33,-292.51 1122.74,-292.86 1125.27,-299.39"/>
</g>
<!-- Node24 -->
<g id="node24" class="node">
<title>Node24</title>
<g id="a_node24"><a xlink:href="classklyqa__ctl_1_1account_1_1Account.html#af0e05ae15ad46c4b1b3bbb69b6bb7151" target="_top" xlink:title=" ">
<polygon fill="white" stroke="black" points="867,-290 867,-309 1061,-309 1061,-290 867,-290"/>
<text text-anchor="middle" x="964" y="-297" font-family="Helvetica,sans-Serif" font-size="10.00">klyqa_ctl.account.Account.shutdown</text>
</a>
</g>
</g>
<!-- Node6&#45;&gt;Node24 -->
<g id="edge31" class="edge">
<title>Node6&#45;&gt;Node24</title>
<path fill="none" stroke="midnightblue" d="M1089.62,-286.16C1077.93,-287.41 1065.84,-288.7 1054,-289.97"/>
<polygon fill="midnightblue" stroke="midnightblue" points="1090.21,-289.62 1099.78,-285.07 1089.46,-282.66 1090.21,-289.62"/>
</g>
<!-- Node8&#45;&gt;Node9 -->
<g id="edge9" class="edge">
<title>Node8&#45;&gt;Node9</title>
<path fill="none" stroke="midnightblue" d="M859.43,-261.29C751.2,-268.11 576.63,-281.27 427,-302.5 408.2,-305.17 387.97,-308.8 369.31,-312.46"/>
<polygon fill="midnightblue" stroke="midnightblue" points="859.94,-264.76 869.7,-260.65 859.5,-257.78 859.94,-264.76"/>
</g>
<!-- Node9&#45;&gt;Node10 -->
<g id="edge10" class="edge">
<title>Node9&#45;&gt;Node10</title>
<path fill="none" stroke="midnightblue" d="M214.01,-347.1C211.59,-348.47 209.25,-349.93 207,-351.5 143.59,-395.7 102.57,-484.65 90.34,-513.92"/>
<polygon fill="midnightblue" stroke="midnightblue" points="215.68,-350.17 223.04,-342.55 212.54,-343.92 215.68,-350.17"/>
</g>
<!-- Node11&#45;&gt;Node12 -->
<g id="edge13" class="edge">
<title>Node11&#45;&gt;Node12</title>
<path fill="none" stroke="midnightblue" d="M872.27,-410.5C858.78,-410.5 844.87,-410.5 831.37,-410.5"/>
<polygon fill="midnightblue" stroke="midnightblue" points="872.49,-414 882.49,-410.5 872.49,-407 872.49,-414"/>
</g>
<!-- Node13 -->
<g id="node13" class="node">
<title>Node13</title>
<g id="a_node13"><a xlink:href="classklyqa__ctl_1_1account_1_1Account.html#a748c13aed7b2a5c9c605c81234633cb8" target="_top" xlink:title=" ">
<polygon fill="white" stroke="black" points="432.5,-361.5 432.5,-391.5 605.5,-391.5 605.5,-361.5 432.5,-361.5"/>
<text text-anchor="start" x="440.5" y="-379.5" font-family="Helvetica,sans-Serif" font-size="10.00">klyqa_ctl.account.Account.cloud</text>
<text text-anchor="middle" x="519" y="-368.5" font-family="Helvetica,sans-Serif" font-size="10.00">_post_to_device</text>
</a>
</g>
</g>
<!-- Node12&#45;&gt;Node13 -->
<g id="edge14" class="edge">
<title>Node12&#45;&gt;Node13</title>
<path fill="none" stroke="midnightblue" d="M636.84,-394.72C626.39,-393.09 615.85,-391.45 605.6,-389.85"/>
<polygon fill="midnightblue" stroke="midnightblue" points="636.39,-398.2 646.81,-396.28 637.47,-391.28 636.39,-398.2"/>
</g>
<!-- Node15 -->
<g id="node15" class="node">
<title>Node15</title>
<g id="a_node15"><a xlink:href="classklyqa__ctl_1_1account_1_1Account.html#a1450d1baa029967965be433e4efb5a6d" target="_top" xlink:title=" ">
<polygon fill="white" stroke="black" points="427,-312.5 427,-342.5 611,-342.5 611,-312.5 427,-312.5"/>
<text text-anchor="start" x="435" y="-330.5" font-family="Helvetica,sans-Serif" font-size="10.00">klyqa_ctl.account.Account.request</text>
<text text-anchor="middle" x="519" y="-319.5" font-family="Helvetica,sans-Serif" font-size="10.00">_cloud_device_state</text>
</a>
</g>
</g>
<!-- Node12&#45;&gt;Node15 -->
<g id="edge16" class="edge">
<title>Node12&#45;&gt;Node15</title>
<path fill="none" stroke="midnightblue" d="M697.18,-391.1C663.46,-375.14 619.75,-354.66 611,-351.5 602.09,-348.28 592.54,-345.29 583.11,-342.59"/>
<polygon fill="midnightblue" stroke="midnightblue" points="695.86,-394.34 706.39,-395.46 698.85,-388.02 695.86,-394.34"/>
</g>
<!-- Node12&#45;&gt;Node16 -->
<g id="edge18" class="edge">
<title>Node12&#45;&gt;Node16</title>
<path fill="none" stroke="midnightblue" d="M680.43,-428.58C658.71,-435.29 633.76,-442.88 611,-449.5 599.67,-452.79 587.52,-456.21 575.9,-459.43"/>
<polygon fill="midnightblue" stroke="midnightblue" points="681.64,-431.87 690.16,-425.56 679.57,-425.18 681.64,-431.87"/>
</g>
<!-- Node18 -->
<g id="node18" class="node">
<title>Node18</title>
<g id="a_node18"><a xlink:href="classklyqa__ctl_1_1account_1_1Account.html#a4fb47c923d3a579054e8cc72480906fb" target="_top" xlink:title=" ">
<polygon fill="white" stroke="black" points="428.5,-410.5 428.5,-440.5 609.5,-440.5 609.5,-410.5 428.5,-410.5"/>
<text text-anchor="start" x="436.5" y="-428.5" font-family="Helvetica,sans-Serif" font-size="10.00">klyqa_ctl.account.Account.update</text>
<text text-anchor="middle" x="519" y="-417.5" font-family="Helvetica,sans-Serif" font-size="10.00">_device_configs</text>
</a>
</g>
</g>
<!-- Node12&#45;&gt;Node18 -->
<g id="edge20" class="edge">
<title>Node12&#45;&gt;Node18</title>
<path fill="none" stroke="midnightblue" d="M636.71,-417.47C627.72,-418.09 618.66,-418.71 609.78,-419.32"/>
<polygon fill="midnightblue" stroke="midnightblue" points="637.08,-420.95 646.81,-416.77 636.59,-413.97 637.08,-420.95"/>
</g>
<!-- Node14 -->
<g id="node14" class="node">
<title>Node14</title>
<g id="a_node14"><a xlink:href="classklyqa__ctl_1_1account_1_1Account.html#a372d813db2141719743dfe088dbe9552" target="_top" xlink:title=" ">
<polygon fill="white" stroke="black" points="212.5,-361.5 212.5,-391.5 385.5,-391.5 385.5,-361.5 212.5,-361.5"/>
<text text-anchor="start" x="220.5" y="-379.5" font-family="Helvetica,sans-Serif" font-size="10.00">klyqa_ctl.account.Account.cloud</text>
<text text-anchor="middle" x="299" y="-368.5" font-family="Helvetica,sans-Serif" font-size="10.00">_post_command_to_dev</text>
</a>
</g>
</g>
<!-- Node13&#45;&gt;Node14 -->
<g id="edge15" class="edge">
<title>Node13&#45;&gt;Node14</title>
<path fill="none" stroke="midnightblue" d="M422.29,-376.5C410.09,-376.5 397.67,-376.5 385.64,-376.5"/>
<polygon fill="midnightblue" stroke="midnightblue" points="422.47,-380 432.47,-376.5 422.47,-373 422.47,-380"/>
</g>
<!-- Node15&#45;&gt;Node9 -->
<g id="edge17" class="edge">
<title>Node15&#45;&gt;Node9</title>
<path fill="none" stroke="midnightblue" d="M416.71,-327.5C407.37,-327.5 397.95,-327.5 388.73,-327.5"/>
<polygon fill="midnightblue" stroke="midnightblue" points="416.81,-331 426.81,-327.5 416.81,-324 416.81,-331"/>
</g>
<!-- Node16&#45;&gt;Node17 -->
<g id="edge19" class="edge">
<title>Node16&#45;&gt;Node17</title>
<path fill="none" stroke="midnightblue" d="M418.21,-474.5C409.15,-474.5 400.01,-474.5 391.03,-474.5"/>
<polygon fill="midnightblue" stroke="midnightblue" points="418.39,-478 428.39,-474.5 418.39,-471 418.39,-478"/>
</g>
<!-- Node19&#45;&gt;Node10 -->
<g id="edge23" class="edge">
<title>Node19&#45;&gt;Node10</title>
<path fill="none" stroke="midnightblue" d="M860.68,-675.22C752.02,-676.15 575.78,-672.05 427,-642.5 301.7,-617.61 159.88,-556.82 107.43,-533.15"/>
<polygon fill="midnightblue" stroke="midnightblue" points="861.01,-678.72 870.98,-675.12 860.94,-671.72 861.01,-678.72"/>
</g>
<!-- Node21 -->
<g id="node21" class="node">
<title>Node21</title>
<g id="a_node21"><a xlink:href="classklyqa__ctl_1_1account_1_1Account.html#a8e93f6fe918bf32c172447d4ef439d2d" target="_top" xlink:title=" ">
<polygon fill="white" stroke="black" points="654,-493.5 654,-523.5 824,-523.5 824,-493.5 654,-493.5"/>
<text text-anchor="start" x="662" y="-511.5" font-family="Helvetica,sans-Serif" font-size="10.00">klyqa_ctl.account.Account.sync</text>
<text text-anchor="middle" x="739" y="-500.5" font-family="Helvetica,sans-Serif" font-size="10.00">_acc_settings_to_controller</text>
</a>
</g>
</g>
<!-- Node20&#45;&gt;Node21 -->
<g id="edge27" class="edge">
<title>Node20&#45;&gt;Node21</title>
<path fill="none" stroke="midnightblue" d="M861.93,-508.5C849.34,-508.5 836.57,-508.5 824.27,-508.5"/>
<polygon fill="midnightblue" stroke="midnightblue" points="861.98,-512 871.98,-508.5 861.98,-505 861.98,-512"/>
</g>
<!-- Node22&#45;&gt;Node22 -->
<g id="edge29" class="edge">
<title>Node22&#45;&gt;Node22</title>
<path fill="none" stroke="midnightblue" d="M1000.6,-368.96C996.06,-373.68 983.86,-377 964,-377 931.41,-377 919.44,-368.06 928.1,-358.66"/>
<polygon fill="midnightblue" stroke="midnightblue" points="1004.07,-368.4 999.9,-358.66 997.09,-368.87 1004.07,-368.4"/>
</g>
<!-- Node23 -->
<g id="node23" class="node">
<title>Node23</title>
<g id="a_node23"><a xlink:href="classklyqa__ctl_1_1klyqa__ctl_1_1Client.html#a7a93bda9f242d678a4208d0962837f11" target="_top" xlink:title=" ">
<polygon fill="white" stroke="black" points="656,-328.5 656,-358.5 822,-358.5 822,-328.5 656,-328.5"/>
<text text-anchor="start" x="664" y="-346.5" font-family="Helvetica,sans-Serif" font-size="10.00">klyqa_ctl.klyqa_ctl.Client.send</text>
<text text-anchor="middle" x="739" y="-335.5" font-family="Helvetica,sans-Serif" font-size="10.00">_to_devices_wrapped</text>
</a>
</g>
</g>
<!-- Node22&#45;&gt;Node23 -->
<g id="edge30" class="edge">
<title>Node22&#45;&gt;Node23</title>
<path fill="none" stroke="midnightblue" d="M870.5,-343.5C854.51,-343.5 837.98,-343.5 822.29,-343.5"/>
<polygon fill="midnightblue" stroke="midnightblue" points="870.91,-347 880.91,-343.5 870.91,-340 870.91,-347"/>
</g>
<!-- Node25&#45;&gt;Node7 -->
<g id="edge34" class="edge">
<title>Node25&#45;&gt;Node7</title>
<path fill="none" stroke="midnightblue" d="M1097.51,-491.1C1074.78,-485.68 1049.92,-479.75 1027.93,-474.51"/>
<polygon fill="midnightblue" stroke="midnightblue" points="1096.91,-494.55 1107.45,-493.47 1098.53,-487.74 1096.91,-494.55"/>
</g>
<!-- Node25&#45;&gt;Node8 -->
<g id="edge35" class="edge">
<title>Node25&#45;&gt;Node8</title>
<path fill="none" stroke="midnightblue" d="M1165.68,-483.3C1155.29,-436.08 1126.25,-334.24 1061,-280.5 1056.35,-276.67 1051.17,-273.42 1045.7,-270.66"/>
<polygon fill="midnightblue" stroke="midnightblue" points="1162.29,-484.22 1167.77,-493.29 1169.14,-482.78 1162.29,-484.22"/>
</g>
<!-- Node25&#45;&gt;Node9 -->
<g id="edge36" class="edge">
<title>Node25&#45;&gt;Node9</title>
<path fill="none" stroke="midnightblue" d="M1147.05,-530.53C1126.26,-548.45 1094.12,-572.36 1061,-582.5 884.96,-636.41 827.94,-602.51 647,-568.5 546.16,-549.54 497.05,-573.48 427,-498.5 381.08,-449.35 438.14,-399.48 391,-351.5 387.68,-348.12 383.94,-345.2 379.93,-342.67"/>
<polygon fill="midnightblue" stroke="midnightblue" points="1149.54,-533 1154.71,-523.76 1144.9,-527.76 1149.54,-533"/>
</g>
<!-- Node25&#45;&gt;Node10 -->
<g id="edge38" class="edge">
<title>Node25&#45;&gt;Node10</title>
<path fill="none" stroke="midnightblue" d="M1165.69,-533.6C1155.45,-579.54 1126.8,-676.56 1061,-721.5 942.57,-802.38 883.42,-754.5 740,-754.5 740,-754.5 740,-754.5 518,-754.5 327.24,-754.5 139.21,-576.85 95.83,-533.13"/>
<polygon fill="midnightblue" stroke="midnightblue" points="1169.17,-534.1 1167.81,-523.59 1162.32,-532.65 1169.17,-534.1"/>
</g>
<!-- Node25&#45;&gt;Node11 -->
<g id="edge37" class="edge">
<title>Node25&#45;&gt;Node11</title>
<path fill="none" stroke="midnightblue" d="M1144.41,-487C1123.14,-470.46 1091.71,-448.2 1061,-434.5 1053.39,-431.11 1045.22,-428.14 1036.97,-425.55"/>
<polygon fill="midnightblue" stroke="midnightblue" points="1142.3,-489.79 1152.31,-493.25 1146.64,-484.3 1142.3,-489.79"/>
</g>
<!-- Node25&#45;&gt;Node12 -->
<g id="edge41" class="edge">
<title>Node25&#45;&gt;Node12</title>
<path fill="none" stroke="midnightblue" d="M1123.51,-526.93C1061.23,-548.22 949.61,-575.32 867,-533.5 842.89,-521.3 849.63,-504.07 831,-484.5 809.38,-461.79 780.84,-439.62 761.53,-425.57"/>
<polygon fill="midnightblue" stroke="midnightblue" points="1124.79,-530.19 1133.07,-523.57 1122.47,-523.58 1124.79,-530.19"/>
</g>
<!-- Node25&#45;&gt;Node16 -->
<g id="edge45" class="edge">
<title>Node25&#45;&gt;Node16</title>
<path fill="none" stroke="midnightblue" d="M1136.18,-528.37C1115.21,-539.34 1087.44,-551.85 1061,-557.5 880.75,-595.99 824.54,-582.98 647,-533.5 610.23,-523.25 570.8,-503.38 545.79,-489.55"/>
<polygon fill="midnightblue" stroke="midnightblue" points="1137.85,-531.44 1145.01,-523.63 1134.54,-525.27 1137.85,-531.44"/>
</g>
<!-- Node25&#45;&gt;Node17 -->
<g id="edge40" class="edge">
<title>Node25&#45;&gt;Node17</title>
<path fill="none" stroke="midnightblue" d="M1164.6,-533.53C1153.04,-576.18 1122.94,-661.8 1061,-697.5 986.3,-740.55 953.06,-702.86 867,-697.5 670.3,-685.25 597.64,-741.09 427,-642.5 363.53,-605.83 321.57,-523.55 306.37,-489.59"/>
<polygon fill="midnightblue" stroke="midnightblue" points="1168.03,-534.23 1167.15,-523.67 1161.26,-532.47 1168.03,-534.23"/>
</g>
<!-- Node25&#45;&gt;Node19 -->
<g id="edge39" class="edge">
<title>Node25&#45;&gt;Node19</title>
<path fill="none" stroke="midnightblue" d="M1156.81,-532.79C1138.67,-562.82 1103.9,-613.51 1061,-642.5 1051.96,-648.61 1041.61,-653.53 1031.13,-657.46"/>
<polygon fill="midnightblue" stroke="midnightblue" points="1160.03,-534.21 1162.1,-523.82 1154.01,-530.65 1160.03,-534.21"/>
</g>
<!-- Node25&#45;&gt;Node20 -->
<g id="edge42" class="edge">
<title>Node25&#45;&gt;Node20</title>
<path fill="none" stroke="midnightblue" d="M1086.84,-508.5C1076.69,-508.5 1066.28,-508.5 1056.03,-508.5"/>
<polygon fill="midnightblue" stroke="midnightblue" points="1086.89,-512 1096.89,-508.5 1086.89,-505 1086.89,-512"/>
</g>
<!-- Node25&#45;&gt;Node22 -->
<g id="edge43" class="edge">
<title>Node25&#45;&gt;Node22</title>
<path fill="none" stroke="midnightblue" d="M1154.36,-484.9C1134.88,-457.87 1099.87,-413.72 1061,-385.5 1045.69,-374.39 1026.97,-365.37 1010.15,-358.58"/>
<polygon fill="midnightblue" stroke="midnightblue" points="1151.72,-487.22 1160.35,-493.35 1157.43,-483.17 1151.72,-487.22"/>
</g>
<!-- Node25&#45;&gt;Node24 -->
<g id="edge44" class="edge">
<title>Node25&#45;&gt;Node24</title>
<path fill="none" stroke="midnightblue" d="M1163.58,-483.7C1150.69,-442.41 1118.94,-360.01 1061,-318.5 1055.75,-314.74 1049.95,-311.68 1043.86,-309.19"/>
<polygon fill="midnightblue" stroke="midnightblue" points="1160.29,-484.93 1166.52,-493.5 1167,-482.91 1160.29,-484.93"/>
</g>
<!-- Node27 -->
<g id="node27" class="node">
<title>Node27</title>
<g id="a_node27"><a xlink:href="classklyqa__ctl_1_1general_1_1general_1_1Command.html#a86ac6b91392108a0e640037ab271bbb8" target="_top" xlink:title=" ">
<polygon fill="white" stroke="black" points="892.5,-0.5 892.5,-30.5 1035.5,-30.5 1035.5,-0.5 892.5,-0.5"/>
<text text-anchor="start" x="900.5" y="-18.5" font-family="Helvetica,sans-Serif" font-size="10.00">klyqa_ctl.general.general.</text>
<text text-anchor="middle" x="964" y="-7.5" font-family="Helvetica,sans-Serif" font-size="10.00">Command.__str__</text>
</a>
</g>
</g>
<!-- Node26&#45;&gt;Node27 -->
<g id="edge47" class="edge">
<title>Node26&#45;&gt;Node27</title>
<path fill="none" stroke="midnightblue" d="M1148.1,-111.25C1127.16,-91.53 1094.2,-63.21 1061,-45.5 1049.91,-39.58 1037.46,-34.62 1025.3,-30.55"/>
<polygon fill="midnightblue" stroke="midnightblue" points="1145.87,-113.96 1155.52,-118.34 1150.71,-108.9 1145.87,-113.96"/>
</g>
</g>
</svg>
        <g id="navigator" transform="translate(0 0)" fill="#404254">
                <rect fill="#f2f5e9" fill-opacity="0.5" stroke="#606060" stroke-width=".5" x="0" y="0" width="60" height="60"/>
                <use id="zoomplus" xlink:href="#zoomPlus" x="17" y="9" onmousedown="handleZoom(evt,'in')"/>
                <use id="zoomminus" xlink:href="#zoomMin" x="42" y="9" onmousedown="handleZoom(evt,'out')"/>
                <use id="reset" xlink:href="#resetDef" x="30" y="36" onmousedown="handleReset()"/>
                <g id="arrowUp" xlink:href="#dirArrow" transform="translate(30 24)" onmousedown="handlePan(0,-1)">
                  <use xlink:href="#rim" fill="#404040">
                        <set attributeName="fill" to="#808080" begin="arrowUp.mouseover" end="arrowUp.mouseout"/>
                  </use>
                  <path fill="none" stroke="white" stroke-width="1.5" d="M0,-3.0v7 M-2.5,-0.5L0,-3.0L2.5,-0.5"/>
                </g>
                <g id="arrowRight" xlink:href="#dirArrow" transform="rotate(90) translate(36 -43)" onmousedown="handlePan(1,0)">
                  <use xlink:href="#rim" fill="#404040">
                        <set attributeName="fill" to="#808080" begin="arrowRight.mouseover" end="arrowRight.mouseout"/>
                  </use>
                  <path fill="none" stroke="white" stroke-width="1.5" d="M0,-3.0v7 M-2.5,-0.5L0,-3.0L2.5,-0.5"/>
                </g>
                <g id="arrowDown" xlink:href="#dirArrow" transform="rotate(180) translate(-30 -48)" onmousedown="handlePan(0,1)">
                  <use xlink:href="#rim" fill="#404040">
                        <set attributeName="fill" to="#808080" begin="arrowDown.mouseover" end="arrowDown.mouseout"/>
                  </use>
                  <path fill="none" stroke="white" stroke-width="1.5" d="M0,-3.0v7 M-2.5,-0.5L0,-3.0L2.5,-0.5"/>
                </g>
                <g id="arrowLeft" xlink:href="#dirArrow" transform="rotate(270) translate(-36 17)" onmousedown="handlePan(-1,0)">
                  <use xlink:href="#rim" fill="#404040">
                        <set attributeName="fill" to="#808080" begin="arrowLeft.mouseover" end="arrowLeft.mouseout"/>
                  </use>
                  <path fill="none" stroke="white" stroke-width="1.5" d="M0,-3.0v7 M-2.5,-0.5L0,-3.0L2.5,-0.5"/>
                </g>
        </g>
        <svg viewBox="0 0 15 15" width="100%" height="30px" preserveAspectRatio="xMaxYMin meet">
         <g id="arrow_out" transform="scale(0.3 0.3)">
          <a xlink:href="classklyqa__ctl_1_1devices_1_1light_1_1response__status_1_1ResponseStatus_a327c18fd6f8a38e75e1bbc2f895df592_icgraph_org.svg" target="_base">
           <rect id="button" ry="5" rx="5" y="6" x="6" height="38" width="38"
                fill="#f2f5e9" fill-opacity="0.5" stroke="#606060" stroke-width="1.0"/>
           <path id="arrow"
             d="M 11.500037,31.436501 C 11.940474,20.09759 22.043105,11.32322 32.158766,21.979434 L 37.068811,17.246167 C 37.068811,17.246167 37.088388,32 37.088388,32 L 22.160133,31.978069 C 22.160133,31.978069 26.997745,27.140456 26.997745,27.140456 C 18.528582,18.264221 13.291696,25.230495 11.500037,31.436501 z"
             style="fill:#404040;"/>
          </a>
         </g>
        </svg>
</svg>
