<?xml version="1.0" encoding="UTF-8" standalone="no"?>
<!DOCTYPE svg PUBLIC "-//W3C//DTD SVG 1.1//EN"
 "http://www.w3.org/Graphics/SVG/1.1/DTD/svg11.dtd">
<!-- Generated by graphviz version 2.43.0 (0)
 -->
<!-- Title: klyqa_ctl.account.Account.update_account_settings Pages: 1 -->
<svg width="1558pt" height="715pt"
 viewBox="0.00 0.00 1558.00 714.50" xmlns="http://www.w3.org/2000/svg" xmlns:xlink="http://www.w3.org/1999/xlink">
<g id="graph0" class="graph" transform="scale(1 1) rotate(0) translate(4 710.5)">
<title>klyqa_ctl.account.Account.update_account_settings</title>
<polygon fill="white" stroke="transparent" points="-4,4 -4,-710.5 1554,-710.5 1554,4 -4,4"/>
<!-- Node1 -->
<g id="node1" class="node">
<title>Node1</title>
<g id="a_node1"><a xlink:title=" ">
<polygon fill="#bfbfbf" stroke="black" points="0,-332.5 0,-362.5 181,-362.5 181,-332.5 0,-332.5"/>
<text text-anchor="start" x="8" y="-350.5" font-family="Helvetica,sans-Serif" font-size="10.00">klyqa_ctl.account.Account.update</text>
<text text-anchor="middle" x="90.5" y="-339.5" font-family="Helvetica,sans-Serif" font-size="10.00">_account_settings</text>
</a>
</g>
</g>
<!-- Node2 -->
<g id="node2" class="node">
<title>Node2</title>
<g id="a_node2"><a xlink:href="namespaceklyqa__ctl_1_1general_1_1general.html#aa34dc716ff5492dc4f325a2ae1a73a4f" target="_top" xlink:title=" ">
<polygon fill="white" stroke="black" points="224,-661.5 224,-691.5 396,-691.5 396,-661.5 224,-661.5"/>
<text text-anchor="start" x="232" y="-679.5" font-family="Helvetica,sans-Serif" font-size="10.00">klyqa_ctl.general.general.async</text>
<text text-anchor="middle" x="310" y="-668.5" font-family="Helvetica,sans-Serif" font-size="10.00">_json_cache</text>
</a>
</g>
</g>
<!-- Node1&#45;&gt;Node2 -->
<g id="edge1" class="edge">
<title>Node1&#45;&gt;Node2</title>
<path fill="none" stroke="midnightblue" d="M93.87,-362.83C102.02,-410.46 133.12,-557.57 217,-639.5 224.2,-646.54 232.92,-652.29 242.08,-656.98"/>
<polygon fill="midnightblue" stroke="midnightblue" points="240.81,-660.25 251.35,-661.32 243.78,-653.91 240.81,-660.25"/>
</g>
<!-- Node6 -->
<g id="node6" class="node">
<title>Node6</title>
<g id="a_node6"><a xlink:href="classklyqa__ctl_1_1account_1_1Account.html#aeb463ade6756bf093a809634f64c6ef6" target="_top" xlink:title=" ">
<polygon fill="white" stroke="black" points="645,-499 645,-518 818,-518 818,-499 645,-499"/>
<text text-anchor="middle" x="731.5" y="-506" font-family="Helvetica,sans-Serif" font-size="10.00">klyqa_ctl.account.Account.cloud</text>
</a>
</g>
</g>
<!-- Node1&#45;&gt;Node6 -->
<g id="edge5" class="edge">
<title>Node1&#45;&gt;Node6</title>
<path fill="none" stroke="midnightblue" d="M104.42,-362.73C125.44,-386.43 169.48,-431.75 217,-454.5 351.33,-518.81 527.58,-522.39 634.76,-516.98"/>
<polygon fill="midnightblue" stroke="midnightblue" points="635.12,-520.47 644.92,-516.43 634.74,-513.48 635.12,-520.47"/>
</g>
<!-- Node7 -->
<g id="node7" class="node">
<title>Node7</title>
<g id="a_node7"><a xlink:href="classklyqa__ctl_1_1devices_1_1device_1_1Device.html#a574647293c61d5f53e153d48ddb31f65" target="_top" xlink:title=" ">
<polygon fill="white" stroke="black" points="661.5,-537.5 661.5,-567.5 801.5,-567.5 801.5,-537.5 661.5,-537.5"/>
<text text-anchor="start" x="669.5" y="-555.5" font-family="Helvetica,sans-Serif" font-size="10.00">klyqa_ctl.devices.device.</text>
<text text-anchor="middle" x="731.5" y="-544.5" font-family="Helvetica,sans-Serif" font-size="10.00">Device.cloud</text>
</a>
</g>
</g>
<!-- Node1&#45;&gt;Node7 -->
<g id="edge6" class="edge">
<title>Node1&#45;&gt;Node7</title>
<path fill="none" stroke="midnightblue" d="M99.49,-362.65C116.53,-393.27 159.61,-462.38 217,-494.5 354.65,-571.54 545.45,-570.12 651.46,-561.67"/>
<polygon fill="midnightblue" stroke="midnightblue" points="651.78,-565.15 661.45,-560.83 651.19,-558.18 651.78,-565.15"/>
</g>
<!-- Node8 -->
<g id="node8" class="node">
<title>Node8</title>
<g id="a_node8"><a xlink:href="classklyqa__ctl_1_1general_1_1general_1_1Command.html#a4aa9e4db12aecf5520e974204c635d38" target="_top" xlink:title=" ">
<polygon fill="white" stroke="black" points="660,-343.5 660,-373.5 803,-373.5 803,-343.5 660,-343.5"/>
<text text-anchor="start" x="668" y="-361.5" font-family="Helvetica,sans-Serif" font-size="10.00">klyqa_ctl.general.general.</text>
<text text-anchor="middle" x="731.5" y="-350.5" font-family="Helvetica,sans-Serif" font-size="10.00">Command.cloud</text>
</a>
</g>
</g>
<!-- Node1&#45;&gt;Node8 -->
<g id="edge7" class="edge">
<title>Node1&#45;&gt;Node8</title>
<path fill="none" stroke="midnightblue" d="M181.2,-336.27C193.22,-335.12 205.4,-334.15 217,-333.5 388.29,-323.98 432.25,-316.92 603,-333.5 620.45,-335.2 639.07,-338.17 656.52,-341.48"/>
<polygon fill="midnightblue" stroke="midnightblue" points="656.16,-344.98 666.65,-343.47 657.51,-338.11 656.16,-344.98"/>
</g>
<!-- Node36 -->
<g id="node36" class="node">
<title>Node36</title>
<g id="a_node36"><a xlink:href="classklyqa__ctl_1_1general_1_1general_1_1CloudStateCommand.html#a6bbc8b1333f0a45ce38f1e81a6093bc1" target="_top" xlink:title=" ">
<polygon fill="white" stroke="black" points="657,-294.5 657,-324.5 806,-324.5 806,-294.5 657,-294.5"/>
<text text-anchor="start" x="665" y="-312.5" font-family="Helvetica,sans-Serif" font-size="10.00">klyqa_ctl.general.general.</text>
<text text-anchor="middle" x="731.5" y="-301.5" font-family="Helvetica,sans-Serif" font-size="10.00">CloudStateCommand.cloud</text>
</a>
</g>
</g>
<!-- Node1&#45;&gt;Node36 -->
<g id="edge35" class="edge">
<title>Node1&#45;&gt;Node36</title>
<path fill="none" stroke="midnightblue" d="M150.17,-332.46C171.11,-327.73 194.98,-323.08 217,-320.5 367.48,-302.86 544.42,-303.79 646.4,-306.41"/>
<polygon fill="midnightblue" stroke="midnightblue" points="646.55,-309.92 656.64,-306.69 646.74,-302.92 646.55,-309.92"/>
</g>
<!-- Node37 -->
<g id="node37" class="node">
<title>Node37</title>
<g id="a_node37"><a xlink:href="classklyqa__ctl_1_1klyqa__ctl_1_1Client.html#a7d8a302d936e8e1889f175bac259f565" target="_top" xlink:title=" ">
<polygon fill="white" stroke="black" points="647,-420 647,-439 816,-439 816,-420 647,-420"/>
<text text-anchor="middle" x="731.5" y="-427" font-family="Helvetica,sans-Serif" font-size="10.00">klyqa_ctl.klyqa_ctl.Client.cloud</text>
</a>
</g>
</g>
<!-- Node1&#45;&gt;Node37 -->
<g id="edge50" class="edge">
<title>Node1&#45;&gt;Node37</title>
<path fill="none" stroke="midnightblue" d="M181.39,-355.68C283.75,-365.47 455.86,-383.34 603,-405.5 626.47,-409.03 652.22,-413.72 674.39,-418.02"/>
<polygon fill="midnightblue" stroke="midnightblue" points="673.82,-421.48 684.31,-419.96 675.17,-414.61 673.82,-421.48"/>
</g>
<!-- Node38 -->
<g id="node38" class="node">
<title>Node38</title>
<g id="a_node38"><a xlink:href="classklyqa__ctl_1_1account_1_1Account.html#a73506bd234f8e819e138c2bd663179b8" target="_top" xlink:title=" ">
<polygon fill="white" stroke="black" points="218,-414.5 218,-444.5 402,-444.5 402,-414.5 218,-414.5"/>
<text text-anchor="start" x="226" y="-432.5" font-family="Helvetica,sans-Serif" font-size="10.00">klyqa_ctl.account.Account.request</text>
<text text-anchor="middle" x="310" y="-421.5" font-family="Helvetica,sans-Serif" font-size="10.00">_beared</text>
</a>
</g>
</g>
<!-- Node1&#45;&gt;Node38 -->
<g id="edge51" class="edge">
<title>Node1&#45;&gt;Node38</title>
<path fill="none" stroke="midnightblue" d="M131.39,-362.54C167.46,-376.14 220.69,-396.2 259.46,-410.82"/>
<polygon fill="midnightblue" stroke="midnightblue" points="258.4,-414.16 268.99,-414.42 260.87,-407.61 258.4,-414.16"/>
</g>
<!-- Node40 -->
<g id="node40" class="node">
<title>Node40</title>
<g id="a_node40"><a xlink:href="classklyqa__ctl_1_1account_1_1Account.html#a769e052989dfe17d0420b0a73128f309" target="_top" xlink:title=" ">
<polygon fill="white" stroke="black" points="229,-174.5 229,-204.5 391,-204.5 391,-174.5 229,-174.5"/>
<text text-anchor="start" x="237" y="-192.5" font-family="Helvetica,sans-Serif" font-size="10.00">klyqa_ctl.account.Account.set</text>
<text text-anchor="middle" x="310" y="-181.5" font-family="Helvetica,sans-Serif" font-size="10.00">_settings</text>
</a>
</g>
</g>
<!-- Node1&#45;&gt;Node40 -->
<g id="edge63" class="edge">
<title>Node1&#45;&gt;Node40</title>
<path fill="none" stroke="midnightblue" d="M102.52,-332.16C122.43,-305.5 167.02,-250.51 217,-219.5 223.9,-215.22 231.48,-211.48 239.23,-208.24"/>
<polygon fill="midnightblue" stroke="midnightblue" points="240.69,-211.43 248.73,-204.53 238.14,-204.91 240.69,-211.43"/>
</g>
<!-- Node41 -->
<g id="node41" class="node">
<title>Node41</title>
<g id="a_node41"><a xlink:href="classklyqa__ctl_1_1account_1_1Account.html#a3d4ca77937552eadd9f6a1d906eaf565" target="_top" xlink:title=" ">
<polygon fill="white" stroke="black" points="217,-136 217,-155 403,-155 403,-136 217,-136"/>
<text text-anchor="middle" x="310" y="-143" font-family="Helvetica,sans-Serif" font-size="10.00">klyqa_ctl.account.Account.settings</text>
</a>
</g>
</g>
<!-- Node1&#45;&gt;Node41 -->
<g id="edge64" class="edge">
<title>Node1&#45;&gt;Node41</title>
<path fill="none" stroke="midnightblue" d="M97.25,-332.26C111.52,-296.61 152.19,-207.58 217,-164.5 220.1,-162.44 223.38,-160.59 226.79,-158.94"/>
<polygon fill="midnightblue" stroke="midnightblue" points="228.21,-162.14 236.04,-155.01 225.47,-155.7 228.21,-162.14"/>
</g>
<!-- Node3 -->
<g id="node3" class="node">
<title>Node3</title>
<g id="a_node3"><a xlink:href="namespaceklyqa__ctl_1_1general_1_1general.html#ab2f9a22e98cd16d0d284d22382cfcb02" target="_top" xlink:title=" ">
<polygon fill="white" stroke="black" points="439,-674.5 439,-704.5 603,-704.5 603,-674.5 439,-674.5"/>
<text text-anchor="start" x="447" y="-692.5" font-family="Helvetica,sans-Serif" font-size="10.00">klyqa_ctl.general.general.task</text>
<text text-anchor="middle" x="521" y="-681.5" font-family="Helvetica,sans-Serif" font-size="10.00">_log_trace</text>
</a>
</g>
</g>
<!-- Node2&#45;&gt;Node3 -->
<g id="edge2" class="edge">
<title>Node2&#45;&gt;Node3</title>
<path fill="none" stroke="midnightblue" d="M396.01,-681.79C406.71,-682.45 417.7,-683.14 428.5,-683.81"/>
<polygon fill="midnightblue" stroke="midnightblue" points="428.59,-687.32 438.78,-684.45 429.02,-680.33 428.59,-687.32"/>
</g>
<!-- Node4 -->
<g id="node4" class="node">
<title>Node4</title>
<g id="a_node4"><a xlink:href="namespaceklyqa__ctl_1_1general_1_1general.html#a9df3b50dfc0fcc7c8ec991bb9be9c5ba" target="_top" xlink:title=" ">
<polygon fill="white" stroke="black" points="639,-683 639,-702 824,-702 824,-683 639,-683"/>
<text text-anchor="middle" x="731.5" y="-690" font-family="Helvetica,sans-Serif" font-size="10.00">klyqa_ctl.general.general.task_log</text>
</a>
</g>
</g>
<!-- Node3&#45;&gt;Node4 -->
<g id="edge3" class="edge">
<title>Node3&#45;&gt;Node4</title>
<path fill="none" stroke="midnightblue" d="M603.21,-690.67C611.59,-690.79 620.18,-690.91 628.75,-691.04"/>
<polygon fill="midnightblue" stroke="midnightblue" points="628.74,-694.54 638.79,-691.18 628.84,-687.54 628.74,-694.54"/>
</g>
<!-- Node5 -->
<g id="node5" class="node">
<title>Node5</title>
<g id="a_node5"><a xlink:href="namespaceklyqa__ctl_1_1general_1_1general.html#aea905150cafee39fa2ca211f1e60f012" target="_top" xlink:title=" ">
<polygon fill="white" stroke="black" points="863,-687 863,-706 1060,-706 1060,-687 863,-687"/>
<text text-anchor="middle" x="961.5" y="-694" font-family="Helvetica,sans-Serif" font-size="10.00">klyqa_ctl.general.general.task_name</text>
</a>
</g>
</g>
<!-- Node4&#45;&gt;Node5 -->
<g id="edge4" class="edge">
<title>Node4&#45;&gt;Node5</title>
<path fill="none" stroke="midnightblue" d="M824.25,-694.11C833.61,-694.27 843.18,-694.44 852.69,-694.61"/>
<polygon fill="midnightblue" stroke="midnightblue" points="852.91,-698.11 862.97,-694.79 853.04,-691.11 852.91,-698.11"/>
</g>
<!-- Node9 -->
<g id="node9" class="node">
<title>Node9</title>
<g id="a_node9"><a xlink:href="classklyqa__ctl_1_1devices_1_1light_1_1commands_1_1FwUpdateCommand.html#a9de3441c7fbba5f5a19ea914970a3db7" target="_top" xlink:title=" ">
<polygon fill="white" stroke="black" points="868.5,-392.5 868.5,-422.5 1054.5,-422.5 1054.5,-392.5 868.5,-392.5"/>
<text text-anchor="start" x="876.5" y="-410.5" font-family="Helvetica,sans-Serif" font-size="10.00">klyqa_ctl.devices.light.commands.</text>
<text text-anchor="middle" x="961.5" y="-399.5" font-family="Helvetica,sans-Serif" font-size="10.00">FwUpdateCommand.json</text>
</a>
</g>
</g>
<!-- Node8&#45;&gt;Node9 -->
<g id="edge8" class="edge">
<title>Node8&#45;&gt;Node9</title>
<path fill="none" stroke="midnightblue" d="M802.46,-373.53C827.19,-378.85 855.18,-384.87 880.67,-390.34"/>
<polygon fill="midnightblue" stroke="midnightblue" points="880.16,-393.81 890.68,-392.49 881.63,-386.97 880.16,-393.81"/>
</g>
<!-- Node11 -->
<g id="node11" class="node">
<title>Node11</title>
<g id="a_node11"><a xlink:href="classklyqa__ctl_1_1devices_1_1light_1_1commands_1_1TransitionCommand.html#aaf9d8431e346c86b9959102c2d7f3316" target="_top" xlink:title=" ">
<polygon fill="white" stroke="black" points="868.5,-147.5 868.5,-177.5 1054.5,-177.5 1054.5,-147.5 868.5,-147.5"/>
<text text-anchor="start" x="876.5" y="-165.5" font-family="Helvetica,sans-Serif" font-size="10.00">klyqa_ctl.devices.light.commands.</text>
<text text-anchor="middle" x="961.5" y="-154.5" font-family="Helvetica,sans-Serif" font-size="10.00">TransitionCommand.json</text>
</a>
</g>
</g>
<!-- Node8&#45;&gt;Node11 -->
<g id="edge10" class="edge">
<title>Node8&#45;&gt;Node11</title>
<path fill="none" stroke="midnightblue" d="M803.28,-347.66C810.98,-344.13 818.14,-339.52 824,-333.5 870.93,-285.31 812.3,-233.93 860,-186.5 860.97,-185.54 861.96,-184.61 862.99,-183.72"/>
<polygon fill="midnightblue" stroke="midnightblue" points="865.39,-186.31 871.36,-177.56 861.24,-180.67 865.39,-186.31"/>
</g>
<!-- Node12 -->
<g id="node12" class="node">
<title>Node12</title>
<g id="a_node12"><a xlink:href="classklyqa__ctl_1_1devices_1_1light_1_1commands_1_1ColorCommand.html#afa8f262e4047666707237c4dfe8615c3" target="_top" xlink:title=" ">
<polygon fill="white" stroke="black" points="868.5,-343.5 868.5,-373.5 1054.5,-373.5 1054.5,-343.5 868.5,-343.5"/>
<text text-anchor="start" x="876.5" y="-361.5" font-family="Helvetica,sans-Serif" font-size="10.00">klyqa_ctl.devices.light.commands.</text>
<text text-anchor="middle" x="961.5" y="-350.5" font-family="Helvetica,sans-Serif" font-size="10.00">ColorCommand.json</text>
</a>
</g>
</g>
<!-- Node8&#45;&gt;Node12 -->
<g id="edge11" class="edge">
<title>Node8&#45;&gt;Node12</title>
<path fill="none" stroke="midnightblue" d="M803.08,-358.5C820.6,-358.5 839.72,-358.5 858.41,-358.5"/>
<polygon fill="midnightblue" stroke="midnightblue" points="858.44,-362 868.43,-358.5 858.43,-355 858.44,-362"/>
</g>
<!-- Node15 -->
<g id="node15" class="node">
<title>Node15</title>
<g id="a_node15"><a xlink:href="classklyqa__ctl_1_1devices_1_1light_1_1commands_1_1TemperatureCommand.html#aaa297cd598227ab2f33a6d111532e5e0" target="_top" xlink:title=" ">
<polygon fill="white" stroke="black" points="868.5,-245.5 868.5,-275.5 1054.5,-275.5 1054.5,-245.5 868.5,-245.5"/>
<text text-anchor="start" x="876.5" y="-263.5" font-family="Helvetica,sans-Serif" font-size="10.00">klyqa_ctl.devices.light.commands.</text>
<text text-anchor="middle" x="961.5" y="-252.5" font-family="Helvetica,sans-Serif" font-size="10.00">TemperatureCommand.json</text>
</a>
</g>
</g>
<!-- Node8&#45;&gt;Node15 -->
<g id="edge14" class="edge">
<title>Node8&#45;&gt;Node15</title>
<path fill="none" stroke="midnightblue" d="M803.12,-344.48C810.5,-341.5 817.62,-337.88 824,-333.5 846.27,-318.2 837.48,-299.44 860,-284.5 862.45,-282.87 865,-281.36 867.63,-279.94"/>
<polygon fill="midnightblue" stroke="midnightblue" points="869.33,-283.01 876.82,-275.52 866.29,-276.7 869.33,-283.01"/>
</g>
<!-- Node18 -->
<g id="node18" class="node">
<title>Node18</title>
<g id="a_node18"><a xlink:href="classklyqa__ctl_1_1devices_1_1light_1_1commands_1_1BrightnessCommand.html#a946e7180dd8f3bd4621c23b24e63469a" target="_top" xlink:title=" ">
<polygon fill="white" stroke="black" points="868.5,-196.5 868.5,-226.5 1054.5,-226.5 1054.5,-196.5 868.5,-196.5"/>
<text text-anchor="start" x="876.5" y="-214.5" font-family="Helvetica,sans-Serif" font-size="10.00">klyqa_ctl.devices.light.commands.</text>
<text text-anchor="middle" x="961.5" y="-203.5" font-family="Helvetica,sans-Serif" font-size="10.00">BrightnessCommand.json</text>
</a>
</g>
</g>
<!-- Node8&#45;&gt;Node18 -->
<g id="edge17" class="edge">
<title>Node8&#45;&gt;Node18</title>
<path fill="none" stroke="midnightblue" d="M803.11,-346.81C810.75,-343.42 817.93,-339.07 824,-333.5 858.18,-302.12 825.32,-266.33 860,-235.5 861.17,-234.46 862.38,-233.46 863.63,-232.5"/>
<polygon fill="midnightblue" stroke="midnightblue" points="865.88,-235.21 872.28,-226.76 862.01,-229.37 865.88,-235.21"/>
</g>
<!-- Node21 -->
<g id="node21" class="node">
<title>Node21</title>
<g id="a_node21"><a xlink:href="classklyqa__ctl_1_1devices_1_1light_1_1commands_1_1ExternalSourceCommand.html#a393710b54f709b852bfd0f3769c39ce6" target="_top" xlink:title=" ">
<polygon fill="white" stroke="black" points="868.5,-637.5 868.5,-667.5 1054.5,-667.5 1054.5,-637.5 868.5,-637.5"/>
<text text-anchor="start" x="876.5" y="-655.5" font-family="Helvetica,sans-Serif" font-size="10.00">klyqa_ctl.devices.light.commands.</text>
<text text-anchor="middle" x="961.5" y="-644.5" font-family="Helvetica,sans-Serif" font-size="10.00">ExternalSourceCommand.json</text>
</a>
</g>
</g>
<!-- Node8&#45;&gt;Node21 -->
<g id="edge20" class="edge">
<title>Node8&#45;&gt;Node21</title>
<path fill="none" stroke="midnightblue" d="M776.15,-373.64C793.66,-381.88 812.4,-393.86 824,-410.5 880.16,-491.06 793.06,-556.65 860,-628.5 860.79,-629.35 861.61,-630.18 862.46,-630.98"/>
<polygon fill="midnightblue" stroke="midnightblue" points="860.59,-633.97 870.6,-637.46 864.95,-628.49 860.59,-633.97"/>
</g>
<!-- Node22 -->
<g id="node22" class="node">
<title>Node22</title>
<g id="a_node22"><a xlink:href="classklyqa__ctl_1_1devices_1_1light_1_1commands_1_1RoutineCommand.html#af3395a663a3dbdff8117ee708f80adec" target="_top" xlink:title=" ">
<polygon fill="white" stroke="black" points="868.5,-588.5 868.5,-618.5 1054.5,-618.5 1054.5,-588.5 868.5,-588.5"/>
<text text-anchor="start" x="876.5" y="-606.5" font-family="Helvetica,sans-Serif" font-size="10.00">klyqa_ctl.devices.light.commands.</text>
<text text-anchor="middle" x="961.5" y="-595.5" font-family="Helvetica,sans-Serif" font-size="10.00">RoutineCommand.json</text>
</a>
</g>
</g>
<!-- Node8&#45;&gt;Node22 -->
<g id="edge21" class="edge">
<title>Node8&#45;&gt;Node22</title>
<path fill="none" stroke="midnightblue" d="M775.31,-373.68C792.89,-381.97 811.91,-393.99 824,-410.5 869.36,-472.47 806.37,-524.53 860,-579.5 860.81,-580.33 861.65,-581.14 862.51,-581.92"/>
<polygon fill="midnightblue" stroke="midnightblue" points="860.72,-584.96 870.79,-588.28 864.99,-579.41 860.72,-584.96"/>
</g>
<!-- Node23 -->
<g id="node23" class="node">
<title>Node23</title>
<g id="a_node23"><a xlink:href="classklyqa__ctl_1_1devices_1_1vacuum_1_1commands_1_1ProductinfoCommand.html#a23d375f048835d4b0f12602764d2a6c1" target="_top" xlink:title=" ">
<polygon fill="white" stroke="black" points="860,-98.5 860,-128.5 1063,-128.5 1063,-98.5 860,-98.5"/>
<text text-anchor="start" x="868" y="-116.5" font-family="Helvetica,sans-Serif" font-size="10.00">klyqa_ctl.devices.vacuum.commands.</text>
<text text-anchor="middle" x="961.5" y="-105.5" font-family="Helvetica,sans-Serif" font-size="10.00">ProductinfoCommand.json</text>
</a>
</g>
</g>
<!-- Node8&#45;&gt;Node23 -->
<g id="edge22" class="edge">
<title>Node8&#45;&gt;Node23</title>
<path fill="none" stroke="midnightblue" d="M803.17,-348.19C810.99,-344.58 818.21,-339.81 824,-333.5 883.91,-268.27 799.05,-201.76 860,-137.5 860.8,-136.65 861.63,-135.84 862.48,-135.04"/>
<polygon fill="midnightblue" stroke="midnightblue" points="864.97,-137.54 870.67,-128.61 860.64,-132.03 864.97,-137.54"/>
</g>
<!-- Node25 -->
<g id="node25" class="node">
<title>Node25</title>
<g id="a_node25"><a xlink:href="classklyqa__ctl_1_1devices_1_1vacuum_1_1commands_1_1RequestGetCommand.html#a216966811184b718a4659bf081113f38" target="_top" xlink:title=" ">
<polygon fill="white" stroke="black" points="860,-49.5 860,-79.5 1063,-79.5 1063,-49.5 860,-49.5"/>
<text text-anchor="start" x="868" y="-67.5" font-family="Helvetica,sans-Serif" font-size="10.00">klyqa_ctl.devices.vacuum.commands.</text>
<text text-anchor="middle" x="961.5" y="-56.5" font-family="Helvetica,sans-Serif" font-size="10.00">RequestGetCommand.json</text>
</a>
</g>
</g>
<!-- Node8&#45;&gt;Node25 -->
<g id="edge24" class="edge">
<title>Node8&#45;&gt;Node25</title>
<path fill="none" stroke="midnightblue" d="M803.39,-348.39C811.17,-344.75 818.32,-339.91 824,-333.5 896.98,-251.12 785.7,-169.69 860,-88.5 860.66,-87.78 861.34,-87.07 862.04,-86.39"/>
<polygon fill="midnightblue" stroke="midnightblue" points="864.58,-88.83 870.08,-79.78 860.14,-83.42 864.58,-88.83"/>
</g>
<!-- Node27 -->
<g id="node27" class="node">
<title>Node27</title>
<g id="a_node27"><a xlink:href="classklyqa__ctl_1_1devices_1_1vacuum_1_1commands_1_1RequestResetCommand.html#a1ac56b80427d60d9f55079ae846ae25e" target="_top" xlink:title=" ">
<polygon fill="white" stroke="black" points="860,-0.5 860,-30.5 1063,-30.5 1063,-0.5 860,-0.5"/>
<text text-anchor="start" x="868" y="-18.5" font-family="Helvetica,sans-Serif" font-size="10.00">klyqa_ctl.devices.vacuum.commands.</text>
<text text-anchor="middle" x="961.5" y="-7.5" font-family="Helvetica,sans-Serif" font-size="10.00">RequestResetCommand.json</text>
</a>
</g>
</g>
<!-- Node8&#45;&gt;Node27 -->
<g id="edge26" class="edge">
<title>Node8&#45;&gt;Node27</title>
<path fill="none" stroke="midnightblue" d="M803.09,-348.72C811.02,-345.04 818.29,-340.1 824,-333.5 910.1,-233.92 772.3,-137.67 860,-39.5 860.65,-38.77 861.33,-38.06 862.01,-37.37"/>
<polygon fill="midnightblue" stroke="midnightblue" points="864.57,-39.79 869.99,-30.69 860.07,-34.43 864.57,-39.79"/>
</g>
<!-- Node29 -->
<g id="node29" class="node">
<title>Node29</title>
<g id="a_node29"><a xlink:href="classklyqa__ctl_1_1devices_1_1vacuum_1_1commands_1_1RequestSetCommand.html#a354b74be46f4b7d8a56811eaab910959" target="_top" xlink:title=" ">
<polygon fill="white" stroke="black" points="860,-539.5 860,-569.5 1063,-569.5 1063,-539.5 860,-539.5"/>
<text text-anchor="start" x="868" y="-557.5" font-family="Helvetica,sans-Serif" font-size="10.00">klyqa_ctl.devices.vacuum.commands.</text>
<text text-anchor="middle" x="961.5" y="-546.5" font-family="Helvetica,sans-Serif" font-size="10.00">RequestSetCommand.json</text>
</a>
</g>
</g>
<!-- Node8&#45;&gt;Node29 -->
<g id="edge28" class="edge">
<title>Node8&#45;&gt;Node29</title>
<path fill="none" stroke="midnightblue" d="M773.75,-373.71C791.46,-382.12 811.02,-394.21 824,-410.5 858.7,-454.05 819.52,-492.27 860,-530.5 860.99,-531.44 862.01,-532.34 863.06,-533.2"/>
<polygon fill="midnightblue" stroke="midnightblue" points="861.39,-536.31 871.57,-539.23 865.43,-530.59 861.39,-536.31"/>
</g>
<!-- Node31 -->
<g id="node31" class="node">
<title>Node31</title>
<g id="a_node31"><a xlink:href="classklyqa__ctl_1_1devices_1_1vacuum_1_1commands_1_1RoutineCommand.html#a926a94c8cc5104275078e438fb301028" target="_top" xlink:title=" ">
<polygon fill="white" stroke="black" points="860,-490.5 860,-520.5 1063,-520.5 1063,-490.5 860,-490.5"/>
<text text-anchor="start" x="868" y="-508.5" font-family="Helvetica,sans-Serif" font-size="10.00">klyqa_ctl.devices.vacuum.commands.</text>
<text text-anchor="middle" x="961.5" y="-497.5" font-family="Helvetica,sans-Serif" font-size="10.00">RoutineCommand.json</text>
</a>
</g>
</g>
<!-- Node8&#45;&gt;Node31 -->
<g id="edge30" class="edge">
<title>Node8&#45;&gt;Node31</title>
<path fill="none" stroke="midnightblue" d="M770.18,-373.72C788.17,-382.42 808.99,-394.76 824,-410.5 848.42,-436.1 832.22,-459.59 860,-481.5 861.64,-482.79 863.33,-484.02 865.08,-485.18"/>
<polygon fill="midnightblue" stroke="midnightblue" points="863.77,-488.46 874.18,-490.45 867.29,-482.41 863.77,-488.46"/>
</g>
<!-- Node33 -->
<g id="node33" class="node">
<title>Node33</title>
<g id="a_node33"><a xlink:href="classklyqa__ctl_1_1general_1_1general_1_1Command.html#a8c8ad93fedd0da0e0021f58714ec7fb5" target="_top" xlink:title=" ">
<polygon fill="white" stroke="black" points="890,-294.5 890,-324.5 1033,-324.5 1033,-294.5 890,-294.5"/>
<text text-anchor="start" x="898" y="-312.5" font-family="Helvetica,sans-Serif" font-size="10.00">klyqa_ctl.general.general.</text>
<text text-anchor="middle" x="961.5" y="-301.5" font-family="Helvetica,sans-Serif" font-size="10.00">Command.json</text>
</a>
</g>
</g>
<!-- Node8&#45;&gt;Node33 -->
<g id="edge32" class="edge">
<title>Node8&#45;&gt;Node33</title>
<path fill="none" stroke="midnightblue" d="M802.46,-343.47C827.19,-338.15 855.18,-332.13 880.67,-326.66"/>
<polygon fill="midnightblue" stroke="midnightblue" points="881.63,-330.03 890.68,-324.51 880.16,-323.19 881.63,-330.03"/>
</g>
<!-- Node34 -->
<g id="node34" class="node">
<title>Node34</title>
<g id="a_node34"><a xlink:href="classklyqa__ctl_1_1general_1_1general_1_1CommandTyped.html#a96dfd43912c4640f381424bdd44eebca" target="_top" xlink:title=" ">
<polygon fill="white" stroke="black" points="890,-441.5 890,-471.5 1033,-471.5 1033,-441.5 890,-441.5"/>
<text text-anchor="start" x="898" y="-459.5" font-family="Helvetica,sans-Serif" font-size="10.00">klyqa_ctl.general.general.</text>
<text text-anchor="middle" x="961.5" y="-448.5" font-family="Helvetica,sans-Serif" font-size="10.00">CommandTyped.json</text>
</a>
</g>
</g>
<!-- Node8&#45;&gt;Node34 -->
<g id="edge33" class="edge">
<title>Node8&#45;&gt;Node34</title>
<path fill="none" stroke="midnightblue" d="M759.45,-373.52C777.75,-383.79 802.44,-397.79 824,-410.5 840.15,-420.02 842.67,-425.35 860,-432.5 866.35,-435.12 873.05,-437.5 879.85,-439.64"/>
<polygon fill="midnightblue" stroke="midnightblue" points="879.28,-443.12 889.86,-442.61 881.27,-436.41 879.28,-443.12"/>
</g>
<!-- Node10 -->
<g id="node10" class="node">
<title>Node10</title>
<g id="a_node10"><a xlink:href="classklyqa__ctl_1_1devices_1_1light_1_1commands_1_1FwUpdateCommand.html#a7dc482a4e9a65d49ce0a61671ed6868e" target="_top" xlink:title=" ">
<polygon fill="white" stroke="black" points="1115,-392.5 1115,-422.5 1301,-422.5 1301,-392.5 1115,-392.5"/>
<text text-anchor="start" x="1123" y="-410.5" font-family="Helvetica,sans-Serif" font-size="10.00">klyqa_ctl.devices.light.commands.</text>
<text text-anchor="middle" x="1208" y="-399.5" font-family="Helvetica,sans-Serif" font-size="10.00">FwUpdateCommand.url_json</text>
</a>
</g>
</g>
<!-- Node9&#45;&gt;Node10 -->
<g id="edge9" class="edge">
<title>Node9&#45;&gt;Node10</title>
<path fill="none" stroke="midnightblue" d="M1054.59,-407.5C1070.95,-407.5 1088.09,-407.5 1104.72,-407.5"/>
<polygon fill="midnightblue" stroke="midnightblue" points="1105,-411 1115,-407.5 1105,-404 1105,-411"/>
</g>
<!-- Node13 -->
<g id="node13" class="node">
<title>Node13</title>
<g id="a_node13"><a xlink:href="classklyqa__ctl_1_1devices_1_1light_1_1commands_1_1ColorCommand.html#a6ce99d7f4f232fb2f11e6efb7e85e778" target="_top" xlink:title=" ">
<polygon fill="white" stroke="black" points="1115,-343.5 1115,-373.5 1301,-373.5 1301,-343.5 1115,-343.5"/>
<text text-anchor="start" x="1123" y="-361.5" font-family="Helvetica,sans-Serif" font-size="10.00">klyqa_ctl.devices.light.commands.</text>
<text text-anchor="middle" x="1208" y="-350.5" font-family="Helvetica,sans-Serif" font-size="10.00">ColorCommand.color_json</text>
</a>
</g>
</g>
<!-- Node12&#45;&gt;Node13 -->
<g id="edge12" class="edge">
<title>Node12&#45;&gt;Node13</title>
<path fill="none" stroke="midnightblue" d="M1054.59,-358.5C1070.95,-358.5 1088.09,-358.5 1104.72,-358.5"/>
<polygon fill="midnightblue" stroke="midnightblue" points="1105,-362 1115,-358.5 1105,-355 1105,-362"/>
</g>
<!-- Node14 -->
<g id="node14" class="node">
<title>Node14</title>
<g id="a_node14"><a xlink:href="classklyqa__ctl_1_1devices_1_1light_1_1response__status_1_1ResponseStatus.html#a327c18fd6f8a38e75e1bbc2f895df592" target="_top" xlink:title=" ">
<polygon fill="white" stroke="black" points="1365,-343.5 1365,-373.5 1538,-373.5 1538,-343.5 1365,-343.5"/>
<text text-anchor="start" x="1373" y="-361.5" font-family="Helvetica,sans-Serif" font-size="10.00">klyqa_ctl.devices.light.response</text>
<text text-anchor="middle" x="1451.5" y="-350.5" font-family="Helvetica,sans-Serif" font-size="10.00">_status.ResponseStatus.color</text>
</a>
</g>
</g>
<!-- Node13&#45;&gt;Node14 -->
<g id="edge13" class="edge">
<title>Node13&#45;&gt;Node14</title>
<path fill="none" stroke="midnightblue" d="M1301.33,-358.5C1318.81,-358.5 1337.13,-358.5 1354.71,-358.5"/>
<polygon fill="midnightblue" stroke="midnightblue" points="1354.96,-362 1364.96,-358.5 1354.96,-355 1354.96,-362"/>
</g>
<!-- Node16 -->
<g id="node16" class="node">
<title>Node16</title>
<g id="a_node16"><a xlink:href="classklyqa__ctl_1_1devices_1_1light_1_1commands_1_1TemperatureCommand.html#a0b45255dc9218a36450152f1118a8280" target="_top" xlink:title=" ">
<polygon fill="white" stroke="black" points="1099,-245.5 1099,-275.5 1317,-275.5 1317,-245.5 1099,-245.5"/>
<text text-anchor="start" x="1107" y="-263.5" font-family="Helvetica,sans-Serif" font-size="10.00">klyqa_ctl.devices.light.commands.</text>
<text text-anchor="middle" x="1208" y="-252.5" font-family="Helvetica,sans-Serif" font-size="10.00">TemperatureCommand.temperature_json</text>
</a>
</g>
</g>
<!-- Node15&#45;&gt;Node16 -->
<g id="edge15" class="edge">
<title>Node15&#45;&gt;Node16</title>
<path fill="none" stroke="midnightblue" d="M1054.59,-260.5C1065.79,-260.5 1077.35,-260.5 1088.87,-260.5"/>
<polygon fill="midnightblue" stroke="midnightblue" points="1088.96,-264 1098.96,-260.5 1088.96,-257 1088.96,-264"/>
</g>
<!-- Node17 -->
<g id="node17" class="node">
<title>Node17</title>
<g id="a_node17"><a xlink:href="classklyqa__ctl_1_1devices_1_1light_1_1response__status_1_1ResponseStatus.html#a2e732c44c35f39dc3d8fe269c24aef8a" target="_top" xlink:title=" ">
<polygon fill="white" stroke="black" points="1353,-245.5 1353,-275.5 1550,-275.5 1550,-245.5 1353,-245.5"/>
<text text-anchor="start" x="1361" y="-263.5" font-family="Helvetica,sans-Serif" font-size="10.00">klyqa_ctl.devices.light.response</text>
<text text-anchor="middle" x="1451.5" y="-252.5" font-family="Helvetica,sans-Serif" font-size="10.00">_status.ResponseStatus.temperature</text>
</a>
</g>
</g>
<!-- Node16&#45;&gt;Node17 -->
<g id="edge16" class="edge">
<title>Node16&#45;&gt;Node17</title>
<path fill="none" stroke="midnightblue" d="M1317.04,-260.5C1325.61,-260.5 1334.27,-260.5 1342.85,-260.5"/>
<polygon fill="midnightblue" stroke="midnightblue" points="1342.86,-264 1352.86,-260.5 1342.86,-257 1342.86,-264"/>
</g>
<!-- Node19 -->
<g id="node19" class="node">
<title>Node19</title>
<g id="a_node19"><a xlink:href="classklyqa__ctl_1_1devices_1_1light_1_1commands_1_1BrightnessCommand.html#aba34fce7f4d8d6aae6bcbaaa61c21a8c" target="_top" xlink:title=" ">
<polygon fill="white" stroke="black" points="1109,-196.5 1109,-226.5 1307,-226.5 1307,-196.5 1109,-196.5"/>
<text text-anchor="start" x="1117" y="-214.5" font-family="Helvetica,sans-Serif" font-size="10.00">klyqa_ctl.devices.light.commands.</text>
<text text-anchor="middle" x="1208" y="-203.5" font-family="Helvetica,sans-Serif" font-size="10.00">BrightnessCommand.brightness_json</text>
</a>
</g>
</g>
<!-- Node18&#45;&gt;Node19 -->
<g id="edge18" class="edge">
<title>Node18&#45;&gt;Node19</title>
<path fill="none" stroke="midnightblue" d="M1054.59,-211.5C1068.99,-211.5 1084,-211.5 1098.73,-211.5"/>
<polygon fill="midnightblue" stroke="midnightblue" points="1098.87,-215 1108.87,-211.5 1098.87,-208 1098.87,-215"/>
</g>
<!-- Node20 -->
<g id="node20" class="node">
<title>Node20</title>
<g id="a_node20"><a xlink:href="classklyqa__ctl_1_1devices_1_1light_1_1response__status_1_1ResponseStatus.html#a762787729b726f6ad8bd5a9a3ae40a67" target="_top" xlink:title=" ">
<polygon fill="white" stroke="black" points="1358,-196.5 1358,-226.5 1545,-226.5 1545,-196.5 1358,-196.5"/>
<text text-anchor="start" x="1366" y="-214.5" font-family="Helvetica,sans-Serif" font-size="10.00">klyqa_ctl.devices.light.response</text>
<text text-anchor="middle" x="1451.5" y="-203.5" font-family="Helvetica,sans-Serif" font-size="10.00">_status.ResponseStatus.brightness</text>
</a>
</g>
</g>
<!-- Node19&#45;&gt;Node20 -->
<g id="edge19" class="edge">
<title>Node19&#45;&gt;Node20</title>
<path fill="none" stroke="midnightblue" d="M1307.23,-211.5C1320.55,-211.5 1334.25,-211.5 1347.64,-211.5"/>
<polygon fill="midnightblue" stroke="midnightblue" points="1347.82,-215 1357.82,-211.5 1347.82,-208 1347.82,-215"/>
</g>
<!-- Node24 -->
<g id="node24" class="node">
<title>Node24</title>
<g id="a_node24"><a xlink:href="classklyqa__ctl_1_1devices_1_1vacuum_1_1commands_1_1ProductinfoCommand.html#a1950a810783ab6312c31fa43dd06182c" target="_top" xlink:title=" ">
<polygon fill="white" stroke="black" points="1105,-98.5 1105,-128.5 1311,-128.5 1311,-98.5 1105,-98.5"/>
<text text-anchor="start" x="1113" y="-116.5" font-family="Helvetica,sans-Serif" font-size="10.00">klyqa_ctl.devices.vacuum.commands.</text>
<text text-anchor="middle" x="1208" y="-105.5" font-family="Helvetica,sans-Serif" font-size="10.00">ProductinfoCommand.productinfo_json</text>
</a>
</g>
</g>
<!-- Node23&#45;&gt;Node24 -->
<g id="edge23" class="edge">
<title>Node23&#45;&gt;Node24</title>
<path fill="none" stroke="midnightblue" d="M1063.01,-113.5C1073.49,-113.5 1084.19,-113.5 1094.79,-113.5"/>
<polygon fill="midnightblue" stroke="midnightblue" points="1094.91,-117 1104.91,-113.5 1094.91,-110 1094.91,-117"/>
</g>
<!-- Node26 -->
<g id="node26" class="node">
<title>Node26</title>
<g id="a_node26"><a xlink:href="classklyqa__ctl_1_1devices_1_1vacuum_1_1commands_1_1RequestGetCommand.html#a71be3cb060fa2c05f2762d13267c6144" target="_top" xlink:title=" ">
<polygon fill="white" stroke="black" points="1106.5,-49.5 1106.5,-79.5 1309.5,-79.5 1309.5,-49.5 1106.5,-49.5"/>
<text text-anchor="start" x="1114.5" y="-67.5" font-family="Helvetica,sans-Serif" font-size="10.00">klyqa_ctl.devices.vacuum.commands.</text>
<text text-anchor="middle" x="1208" y="-56.5" font-family="Helvetica,sans-Serif" font-size="10.00">RequestGetCommand.get_json</text>
</a>
</g>
</g>
<!-- Node25&#45;&gt;Node26 -->
<g id="edge25" class="edge">
<title>Node25&#45;&gt;Node26</title>
<path fill="none" stroke="midnightblue" d="M1063.01,-64.5C1074,-64.5 1085.23,-64.5 1096.34,-64.5"/>
<polygon fill="midnightblue" stroke="midnightblue" points="1096.49,-68 1106.49,-64.5 1096.49,-61 1096.49,-68"/>
</g>
<!-- Node28 -->
<g id="node28" class="node">
<title>Node28</title>
<g id="a_node28"><a xlink:href="classklyqa__ctl_1_1devices_1_1vacuum_1_1commands_1_1RequestResetCommand.html#a53de7ccfeb12e1b8f4c0ea8a82410d4e" target="_top" xlink:title=" ">
<polygon fill="white" stroke="black" points="1106.5,-0.5 1106.5,-30.5 1309.5,-30.5 1309.5,-0.5 1106.5,-0.5"/>
<text text-anchor="start" x="1114.5" y="-18.5" font-family="Helvetica,sans-Serif" font-size="10.00">klyqa_ctl.devices.vacuum.commands.</text>
<text text-anchor="middle" x="1208" y="-7.5" font-family="Helvetica,sans-Serif" font-size="10.00">RequestResetCommand.reset_json</text>
</a>
</g>
</g>
<!-- Node27&#45;&gt;Node28 -->
<g id="edge27" class="edge">
<title>Node27&#45;&gt;Node28</title>
<path fill="none" stroke="midnightblue" d="M1063.01,-15.5C1074,-15.5 1085.23,-15.5 1096.34,-15.5"/>
<polygon fill="midnightblue" stroke="midnightblue" points="1096.49,-19 1106.49,-15.5 1096.49,-12 1096.49,-19"/>
</g>
<!-- Node30 -->
<g id="node30" class="node">
<title>Node30</title>
<g id="a_node30"><a xlink:href="classklyqa__ctl_1_1devices_1_1vacuum_1_1commands_1_1RequestSetCommand.html#ac327b3b919e0d1a45ebe754e546f94f8" target="_top" xlink:title=" ">
<polygon fill="white" stroke="black" points="1106.5,-539.5 1106.5,-569.5 1309.5,-569.5 1309.5,-539.5 1106.5,-539.5"/>
<text text-anchor="start" x="1114.5" y="-557.5" font-family="Helvetica,sans-Serif" font-size="10.00">klyqa_ctl.devices.vacuum.commands.</text>
<text text-anchor="middle" x="1208" y="-546.5" font-family="Helvetica,sans-Serif" font-size="10.00">RequestSetCommand.set_json</text>
</a>
</g>
</g>
<!-- Node29&#45;&gt;Node30 -->
<g id="edge29" class="edge">
<title>Node29&#45;&gt;Node30</title>
<path fill="none" stroke="midnightblue" d="M1063.01,-554.5C1074,-554.5 1085.23,-554.5 1096.34,-554.5"/>
<polygon fill="midnightblue" stroke="midnightblue" points="1096.49,-558 1106.49,-554.5 1096.49,-551 1096.49,-558"/>
</g>
<!-- Node32 -->
<g id="node32" class="node">
<title>Node32</title>
<g id="a_node32"><a xlink:href="classklyqa__ctl_1_1devices_1_1vacuum_1_1commands_1_1RoutineCommand.html#acaf3db880f88d37bb1cf8218a309e52c" target="_top" xlink:title=" ">
<polygon fill="white" stroke="black" points="1106.5,-490.5 1106.5,-520.5 1309.5,-520.5 1309.5,-490.5 1106.5,-490.5"/>
<text text-anchor="start" x="1114.5" y="-508.5" font-family="Helvetica,sans-Serif" font-size="10.00">klyqa_ctl.devices.vacuum.commands.</text>
<text text-anchor="middle" x="1208" y="-497.5" font-family="Helvetica,sans-Serif" font-size="10.00">RoutineCommand.routine_json</text>
</a>
</g>
</g>
<!-- Node31&#45;&gt;Node32 -->
<g id="edge31" class="edge">
<title>Node31&#45;&gt;Node32</title>
<path fill="none" stroke="midnightblue" d="M1063.01,-505.5C1074,-505.5 1085.23,-505.5 1096.34,-505.5"/>
<polygon fill="midnightblue" stroke="midnightblue" points="1096.49,-509 1106.49,-505.5 1096.49,-502 1096.49,-509"/>
</g>
<!-- Node35 -->
<g id="node35" class="node">
<title>Node35</title>
<g id="a_node35"><a xlink:href="classklyqa__ctl_1_1devices_1_1response__message_1_1ResponseMessage.html#a076bcd25b3f41acdc763569b279c4545" target="_top" xlink:title=" ">
<polygon fill="white" stroke="black" points="1115.5,-441.5 1115.5,-471.5 1300.5,-471.5 1300.5,-441.5 1115.5,-441.5"/>
<text text-anchor="start" x="1123.5" y="-459.5" font-family="Helvetica,sans-Serif" font-size="10.00">klyqa_ctl.devices.response</text>
<text text-anchor="middle" x="1208" y="-448.5" font-family="Helvetica,sans-Serif" font-size="10.00">_message.ResponseMessage.type</text>
</a>
</g>
</g>
<!-- Node34&#45;&gt;Node35 -->
<g id="edge34" class="edge">
<title>Node34&#45;&gt;Node35</title>
<path fill="none" stroke="midnightblue" d="M1033.22,-456.5C1055.68,-456.5 1080.98,-456.5 1105.18,-456.5"/>
<polygon fill="midnightblue" stroke="midnightblue" points="1105.47,-460 1115.47,-456.5 1105.47,-453 1105.47,-460"/>
</g>
<!-- Node36&#45;&gt;Node9 -->
<g id="edge36" class="edge">
<title>Node36&#45;&gt;Node9</title>
<path fill="none" stroke="midnightblue" d="M806.39,-324.04C812.6,-326.68 818.57,-329.81 824,-333.5 846.35,-348.69 837.55,-367.45 860,-382.5 863.09,-384.57 866.35,-386.48 869.71,-388.22"/>
<polygon fill="midnightblue" stroke="midnightblue" points="868.3,-391.42 878.84,-392.48 871.26,-385.08 868.3,-391.42"/>
</g>
<!-- Node36&#45;&gt;Node11 -->
<g id="edge37" class="edge">
<title>Node36&#45;&gt;Node11</title>
<path fill="none" stroke="midnightblue" d="M743.65,-294.37C763.82,-268.15 809.01,-214.42 860,-186.5 863.44,-184.62 867.03,-182.88 870.71,-181.28"/>
<polygon fill="midnightblue" stroke="midnightblue" points="872.04,-184.51 880.04,-177.57 869.45,-178.01 872.04,-184.51"/>
</g>
<!-- Node36&#45;&gt;Node12 -->
<g id="edge38" class="edge">
<title>Node36&#45;&gt;Node12</title>
<path fill="none" stroke="midnightblue" d="M802.46,-324.53C827.19,-329.85 855.18,-335.87 880.67,-341.34"/>
<polygon fill="midnightblue" stroke="midnightblue" points="880.16,-344.81 890.68,-343.49 881.63,-337.97 880.16,-344.81"/>
</g>
<!-- Node36&#45;&gt;Node15 -->
<g id="edge39" class="edge">
<title>Node36&#45;&gt;Node15</title>
<path fill="none" stroke="midnightblue" d="M802.46,-294.47C827.19,-289.15 855.18,-283.13 880.67,-277.66"/>
<polygon fill="midnightblue" stroke="midnightblue" points="881.63,-281.03 890.68,-275.51 880.16,-274.19 881.63,-281.03"/>
</g>
<!-- Node36&#45;&gt;Node18 -->
<g id="edge40" class="edge">
<title>Node36&#45;&gt;Node18</title>
<path fill="none" stroke="midnightblue" d="M754.07,-294.34C778.65,-277.7 820.55,-251.26 860,-235.5 865.39,-233.35 871.02,-231.35 876.75,-229.52"/>
<polygon fill="midnightblue" stroke="midnightblue" points="877.9,-232.82 886.45,-226.57 875.87,-226.13 877.9,-232.82"/>
</g>
<!-- Node36&#45;&gt;Node21 -->
<g id="edge41" class="edge">
<title>Node36&#45;&gt;Node21</title>
<path fill="none" stroke="midnightblue" d="M806.17,-319.97C812.89,-323.39 819.03,-327.81 824,-333.5 910.88,-432.99 772.02,-529.98 860,-628.5 860.65,-629.23 861.32,-629.94 862.01,-630.63"/>
<polygon fill="midnightblue" stroke="midnightblue" points="860.07,-633.57 869.98,-637.31 864.57,-628.21 860.07,-633.57"/>
</g>
<!-- Node36&#45;&gt;Node22 -->
<g id="edge42" class="edge">
<title>Node36&#45;&gt;Node22</title>
<path fill="none" stroke="midnightblue" d="M806.03,-320.09C812.78,-323.49 818.96,-327.87 824,-333.5 897.67,-415.86 785.42,-497.96 860,-579.5 860.66,-580.22 861.34,-580.93 862.04,-581.61"/>
<polygon fill="midnightblue" stroke="midnightblue" points="860.13,-584.58 870.08,-588.23 864.58,-579.17 860.13,-584.58"/>
</g>
<!-- Node36&#45;&gt;Node23 -->
<g id="edge43" class="edge">
<title>Node36&#45;&gt;Node23</title>
<path fill="none" stroke="midnightblue" d="M739.23,-294.29C755.04,-260.4 797.97,-178.47 860,-137.5 862.46,-135.88 865.01,-134.37 867.64,-132.96"/>
<polygon fill="midnightblue" stroke="midnightblue" points="869.33,-136.02 876.84,-128.54 866.31,-129.71 869.33,-136.02"/>
</g>
<!-- Node36&#45;&gt;Node25 -->
<g id="edge44" class="edge">
<title>Node36&#45;&gt;Node25</title>
<path fill="none" stroke="midnightblue" d="M736.65,-294.34C748.5,-253.98 786.51,-143.33 860,-88.5 861.87,-87.11 863.81,-85.79 865.8,-84.55"/>
<polygon fill="midnightblue" stroke="midnightblue" points="867.79,-87.45 874.89,-79.58 864.43,-81.31 867.79,-87.45"/>
</g>
<!-- Node36&#45;&gt;Node27 -->
<g id="edge45" class="edge">
<title>Node36&#45;&gt;Node27</title>
<path fill="none" stroke="midnightblue" d="M734.94,-294.45C743.23,-248.48 774.69,-108.78 860,-39.5 861.57,-38.23 863.19,-37.02 864.86,-35.88"/>
<polygon fill="midnightblue" stroke="midnightblue" points="866.8,-38.79 873.58,-30.66 863.21,-32.79 866.8,-38.79"/>
</g>
<!-- Node36&#45;&gt;Node29 -->
<g id="edge46" class="edge">
<title>Node36&#45;&gt;Node29</title>
<path fill="none" stroke="midnightblue" d="M806.27,-320.49C812.89,-323.82 818.98,-328.08 824,-333.5 884.51,-398.77 798.77,-465.9 860,-530.5 860.8,-531.35 861.63,-532.17 862.48,-532.96"/>
<polygon fill="midnightblue" stroke="midnightblue" points="860.64,-535.97 870.67,-539.39 864.97,-530.46 860.64,-535.97"/>
</g>
<!-- Node36&#45;&gt;Node31 -->
<g id="edge47" class="edge">
<title>Node36&#45;&gt;Node31</title>
<path fill="none" stroke="midnightblue" d="M806.4,-321.01C812.91,-324.25 818.94,-328.34 824,-333.5 871.44,-381.79 812.03,-433.73 860,-481.5 860.97,-482.46 861.96,-483.39 862.99,-484.28"/>
<polygon fill="midnightblue" stroke="midnightblue" points="861.23,-487.33 871.36,-490.45 865.39,-481.7 861.23,-487.33"/>
</g>
<!-- Node36&#45;&gt;Node33 -->
<g id="edge48" class="edge">
<title>Node36&#45;&gt;Node33</title>
<path fill="none" stroke="midnightblue" d="M806.21,-309.5C829.66,-309.5 855.72,-309.5 879.65,-309.5"/>
<polygon fill="midnightblue" stroke="midnightblue" points="879.76,-313 889.76,-309.5 879.76,-306 879.76,-313"/>
</g>
<!-- Node36&#45;&gt;Node34 -->
<g id="edge49" class="edge">
<title>Node36&#45;&gt;Node34</title>
<path fill="none" stroke="midnightblue" d="M806.28,-321.81C812.73,-324.91 818.78,-328.74 824,-333.5 858.6,-365.04 825.06,-401.34 860,-432.5 865.98,-437.83 872.93,-442.03 880.33,-445.34"/>
<polygon fill="midnightblue" stroke="midnightblue" points="879.32,-448.7 889.9,-449.06 881.85,-442.17 879.32,-448.7"/>
</g>
<!-- Node38&#45;&gt;Node6 -->
<g id="edge52" class="edge">
<title>Node38&#45;&gt;Node6</title>
<path fill="none" stroke="midnightblue" d="M351.41,-444.51C376.35,-453.25 409.17,-463.83 439,-470.5 503.61,-484.93 577.58,-494.5 634.84,-500.42"/>
<polygon fill="midnightblue" stroke="midnightblue" points="634.67,-503.92 644.97,-501.45 635.37,-496.96 634.67,-503.92"/>
</g>
<!-- Node38&#45;&gt;Node7 -->
<g id="edge53" class="edge">
<title>Node38&#45;&gt;Node7</title>
<path fill="none" stroke="midnightblue" d="M334.58,-444.55C359.57,-459.83 400.64,-483.1 439,-496.5 508.68,-520.83 591.62,-535.47 651.19,-543.64"/>
<polygon fill="midnightblue" stroke="midnightblue" points="650.91,-547.13 661.28,-544.99 651.84,-540.19 650.91,-547.13"/>
</g>
<!-- Node38&#45;&gt;Node8 -->
<g id="edge54" class="edge">
<title>Node38&#45;&gt;Node8</title>
<path fill="none" stroke="midnightblue" d="M389.47,-414.46C405.82,-411.42 422.96,-408.3 439,-405.5 510.13,-393.1 591.23,-380.12 649.8,-370.95"/>
<polygon fill="midnightblue" stroke="midnightblue" points="650.39,-374.4 659.73,-369.39 649.31,-367.48 650.39,-374.4"/>
</g>
<!-- Node38&#45;&gt;Node36 -->
<g id="edge55" class="edge">
<title>Node38&#45;&gt;Node36</title>
<path fill="none" stroke="midnightblue" d="M342.24,-414.49C367.8,-402.65 405.13,-386.38 439,-375.5 507.76,-353.4 587.93,-335.82 646.77,-324.38"/>
<polygon fill="midnightblue" stroke="midnightblue" points="647.6,-327.78 656.76,-322.46 646.28,-320.91 647.6,-327.78"/>
</g>
<!-- Node38&#45;&gt;Node37 -->
<g id="edge56" class="edge">
<title>Node38&#45;&gt;Node37</title>
<path fill="none" stroke="midnightblue" d="M375.1,-444.53C395.42,-448.62 418.04,-452.47 439,-454.5 511.55,-461.52 530.45,-461.55 603,-454.5 629.52,-451.92 658.71,-446.4 682.47,-441.2"/>
<polygon fill="midnightblue" stroke="midnightblue" points="683.29,-444.6 692.29,-439 681.76,-437.77 683.29,-444.6"/>
</g>
<!-- Node39 -->
<g id="node39" class="node">
<title>Node39</title>
<g id="a_node39"><a xlink:href="classklyqa__ctl_1_1account_1_1Account.html#ad608e3ee0ba1199f509e644a11081724" target="_top" xlink:title=" ">
<polygon fill="white" stroke="black" points="439.5,-414.5 439.5,-444.5 602.5,-444.5 602.5,-414.5 439.5,-414.5"/>
<text text-anchor="start" x="447.5" y="-432.5" font-family="Helvetica,sans-Serif" font-size="10.00">klyqa_ctl.account.Account.get</text>
<text text-anchor="middle" x="521" y="-421.5" font-family="Helvetica,sans-Serif" font-size="10.00">_beared_request_header</text>
</a>
</g>
</g>
<!-- Node38&#45;&gt;Node39 -->
<g id="edge57" class="edge">
<title>Node38&#45;&gt;Node39</title>
<path fill="none" stroke="midnightblue" d="M402.06,-429.5C411.09,-429.5 420.26,-429.5 429.29,-429.5"/>
<polygon fill="midnightblue" stroke="midnightblue" points="429.41,-433 439.41,-429.5 429.41,-426 429.41,-433"/>
</g>
<!-- Node39&#45;&gt;Node6 -->
<g id="edge58" class="edge">
<title>Node39&#45;&gt;Node6</title>
<path fill="none" stroke="midnightblue" d="M561.71,-444.55C600.54,-459.26 659.06,-481.43 696,-495.43"/>
<polygon fill="midnightblue" stroke="midnightblue" points="694.76,-498.7 705.35,-498.97 697.24,-492.16 694.76,-498.7"/>
</g>
<!-- Node39&#45;&gt;Node7 -->
<g id="edge59" class="edge">
<title>Node39&#45;&gt;Node7</title>
<path fill="none" stroke="midnightblue" d="M535.98,-444.8C556.52,-466.36 596.97,-505.51 639,-527.5 643.33,-529.77 647.89,-531.84 652.56,-533.74"/>
<polygon fill="midnightblue" stroke="midnightblue" points="651.69,-537.15 662.28,-537.4 654.16,-530.6 651.69,-537.15"/>
</g>
<!-- Node39&#45;&gt;Node8 -->
<g id="edge60" class="edge">
<title>Node39&#45;&gt;Node8</title>
<path fill="none" stroke="midnightblue" d="M566.22,-414.44C598.42,-403.48 642.22,-388.56 676.49,-376.89"/>
<polygon fill="midnightblue" stroke="midnightblue" points="678.01,-380.07 686.35,-373.54 675.75,-373.45 678.01,-380.07"/>
</g>
<!-- Node39&#45;&gt;Node36 -->
<g id="edge61" class="edge">
<title>Node39&#45;&gt;Node36</title>
<path fill="none" stroke="midnightblue" d="M536.02,-414.47C556.6,-393.29 597.11,-354.88 639,-333.5 642.79,-331.57 646.74,-329.78 650.79,-328.13"/>
<polygon fill="midnightblue" stroke="midnightblue" points="652.26,-331.32 660.39,-324.52 649.79,-324.77 652.26,-331.32"/>
</g>
<!-- Node39&#45;&gt;Node37 -->
<g id="edge62" class="edge">
<title>Node39&#45;&gt;Node37</title>
<path fill="none" stroke="midnightblue" d="M602.61,-429.5C613.67,-429.5 625.1,-429.5 636.37,-429.5"/>
<polygon fill="midnightblue" stroke="midnightblue" points="636.65,-433 646.65,-429.5 636.65,-426 636.65,-433"/>
</g>
</g>
</svg>
