<?xml version="1.0" encoding="UTF-8" standalone="no"?>
<!DOCTYPE svg PUBLIC "-//W3C//DTD SVG 1.1//EN"
 "http://www.w3.org/Graphics/SVG/1.1/DTD/svg11.dtd">
<!-- Generated by graphviz version 2.43.0 (0)
 -->
<!-- Title: klyqa_ctl.general.general.AsyncIoLock.release_within_task Pages: 1 -->
<!--zoomable 132 -->
<svg id="main" version="1.1" xmlns="http://www.w3.org/2000/svg" xmlns:xlink="http://www.w3.org/1999/xlink" xml:space="preserve" onload="init(evt)">
<style type="text/css"><![CDATA[
.edge:hover path { stroke: red; }
.edge:hover polygon { stroke: red; fill: red; }
]]></style>
<script type="text/javascript"><![CDATA[
var edges = document.getElementsByTagName('g');
if (edges && edges.length) {
  for (var i=0;i<edges.length;i++) {
    if (edges[i].id.substr(0,4)=='edge') {
      edges[i].setAttribute('class','edge');
    }
  }
}
]]></script>
        <defs>
                <circle id="rim" cx="0" cy="0" r="7"/>
                <circle id="rim2" cx="0" cy="0" r="3.5"/>
                <g id="zoomPlus">
                        <use xlink:href="#rim" fill="#404040">
                                <set attributeName="fill" to="#808080" begin="zoomplus.mouseover" end="zoomplus.mouseout"/>
                        </use>
                        <path d="M-4,0h8M0,-4v8" fill="none" stroke="white" stroke-width="1.5" pointer-events="none"/>
                </g>
                <g id="zoomMin">
                        <use xlink:href="#rim" fill="#404040">
                                <set attributeName="fill" to="#808080" begin="zoomminus.mouseover" end="zoomminus.mouseout"/>
                        </use>
                        <path d="M-4,0h8" fill="none" stroke="white" stroke-width="1.5" pointer-events="none"/>
                </g>
                <g id="dirArrow">
                        <path fill="none" stroke="white" stroke-width="1.5" d="M0,-3.0v7 M-2.5,-0.5L0,-3.0L2.5,-0.5"/>
                </g>
               <g id="resetDef">
                       <use xlink:href="#rim2" fill="#404040">
                               <set attributeName="fill" to="#808080" begin="reset.mouseover" end="reset.mouseout"/>
                       </use>
               </g>
        </defs>

<script type="text/javascript">
var viewWidth = 1040;
var viewHeight = 132;
var sectionId = 'dynsection-3';
</script>
<script xlink:href="svgpan.js"/>
<svg id="graph" class="graph">
<g id="viewport">
<title>klyqa_ctl.general.general.AsyncIoLock.release_within_task</title>
<polygon fill="white" stroke="transparent" points="-4,4 -4,-128 1036,-128 1036,4 -4,4"/>
<!-- Node1 -->
<g id="node1" class="node">
<title>Node1</title>
<g id="a_node1"><a xlink:title=" ">
<polygon fill="#bfbfbf" stroke="black" points="0,-49.5 0,-79.5 178,-79.5 178,-49.5 0,-49.5"/>
<text text-anchor="start" x="8" y="-67.5" font-family="Helvetica,sans-Serif" font-size="10.00">klyqa_ctl.general.general.</text>
<text text-anchor="middle" x="89" y="-56.5" font-family="Helvetica,sans-Serif" font-size="10.00">AsyncIoLock.release_within_task</text>
</a>
</g>
</g>
<!-- Node2 -->
<g id="node2" class="node">
<title>Node2</title>
<g id="a_node2"><a xlink:href="namespaceklyqa__ctl_1_1general_1_1general.html#a1afe30a73cc28a3b65babeeab27e36c8" target="_top" xlink:title=" ">
<polygon fill="white" stroke="black" points="414,-93.5 414,-123.5 578,-123.5 578,-93.5 414,-93.5"/>
<text text-anchor="start" x="422" y="-111.5" font-family="Helvetica,sans-Serif" font-size="10.00">klyqa_ctl.general.general.task</text>
<text text-anchor="middle" x="496" y="-100.5" font-family="Helvetica,sans-Serif" font-size="10.00">_log_debug</text>
</a>
</g>
</g>
<!-- Node1&#45;&gt;Node2 -->
<g id="edge1" class="edge">
<title>Node1&#45;&gt;Node2</title>
<path fill="none" stroke="midnightblue" d="M156.33,-79.55C174.91,-83.3 195.17,-86.98 214,-89.5 277.07,-97.95 348.64,-102.72 403.77,-105.37"/>
<polygon fill="midnightblue" stroke="midnightblue" points="403.71,-108.87 413.86,-105.84 404.04,-101.88 403.71,-108.87"/>
</g>
<!-- Node5 -->
<g id="node5" class="node">
<title>Node5</title>
<g id="a_node5"><a xlink:href="namespaceklyqa__ctl_1_1general_1_1general.html#abab49b300927a080244615ee3ab494e3" target="_top" xlink:title=" ">
<polygon fill="white" stroke="black" points="214,-49.5 214,-79.5 378,-79.5 378,-49.5 214,-49.5"/>
<text text-anchor="start" x="222" y="-67.5" font-family="Helvetica,sans-Serif" font-size="10.00">klyqa_ctl.general.general.task</text>
<text text-anchor="middle" x="296" y="-56.5" font-family="Helvetica,sans-Serif" font-size="10.00">_log_error</text>
</a>
</g>
</g>
<!-- Node1&#45;&gt;Node5 -->
<g id="edge4" class="edge">
<title>Node1&#45;&gt;Node5</title>
<path fill="none" stroke="midnightblue" d="M178.13,-64.5C186.54,-64.5 195.08,-64.5 203.52,-64.5"/>
<polygon fill="midnightblue" stroke="midnightblue" points="203.75,-68 213.75,-64.5 203.75,-61 203.75,-68"/>
</g>
<!-- Node6 -->
<g id="node6" class="node">
<title>Node6</title>
<g id="a_node6"><a xlink:href="namespaceklyqa__ctl_1_1general_1_1general.html#ad6b753e482e539892c57f8144cf213cb" target="_top" xlink:title=" ">
<polygon fill="white" stroke="black" points="214,-0.5 214,-30.5 378,-30.5 378,-0.5 214,-0.5"/>
<text text-anchor="start" x="222" y="-18.5" font-family="Helvetica,sans-Serif" font-size="10.00">klyqa_ctl.general.general.task</text>
<text text-anchor="middle" x="296" y="-7.5" font-family="Helvetica,sans-Serif" font-size="10.00">_log_trace_ex</text>
</a>
</g>
</g>
<!-- Node1&#45;&gt;Node6 -->
<g id="edge6" class="edge">
<title>Node1&#45;&gt;Node6</title>
<path fill="none" stroke="midnightblue" d="M152.9,-49.47C174.84,-44.22 199.64,-38.29 222.31,-32.87"/>
<polygon fill="midnightblue" stroke="midnightblue" points="223.31,-36.24 232.22,-30.51 221.68,-29.43 223.31,-36.24"/>
</g>
<!-- Node3 -->
<g id="node3" class="node">
<title>Node3</title>
<g id="a_node3"><a xlink:href="namespaceklyqa__ctl_1_1general_1_1general.html#a9df3b50dfc0fcc7c8ec991bb9be9c5ba" target="_top" xlink:title=" ">
<polygon fill="white" stroke="black" points="614,-55 614,-74 799,-74 799,-55 614,-55"/>
<text text-anchor="middle" x="706.5" y="-62" font-family="Helvetica,sans-Serif" font-size="10.00">klyqa_ctl.general.general.task_log</text>
</a>
</g>
</g>
<!-- Node2&#45;&gt;Node3 -->
<g id="edge2" class="edge">
<title>Node2&#45;&gt;Node3</title>
<path fill="none" stroke="midnightblue" d="M568.17,-93.48C595.03,-87.81 625.15,-81.46 650.32,-76.14"/>
<polygon fill="midnightblue" stroke="midnightblue" points="651.36,-79.5 660.42,-74.01 649.92,-72.65 651.36,-79.5"/>
</g>
<!-- Node4 -->
<g id="node4" class="node">
<title>Node4</title>
<g id="a_node4"><a xlink:href="namespaceklyqa__ctl_1_1general_1_1general.html#aea905150cafee39fa2ca211f1e60f012" target="_top" xlink:title=" ">
<polygon fill="white" stroke="black" points="835,-55 835,-74 1032,-74 1032,-55 835,-55"/>
<text text-anchor="middle" x="933.5" y="-62" font-family="Helvetica,sans-Serif" font-size="10.00">klyqa_ctl.general.general.task_name</text>
</a>
</g>
</g>
<!-- Node3&#45;&gt;Node4 -->
<g id="edge3" class="edge">
<title>Node3&#45;&gt;Node4</title>
<path fill="none" stroke="midnightblue" d="M799.02,-64.5C807.5,-64.5 816.15,-64.5 824.76,-64.5"/>
<polygon fill="midnightblue" stroke="midnightblue" points="824.83,-68 834.83,-64.5 824.83,-61 824.83,-68"/>
</g>
<!-- Node5&#45;&gt;Node3 -->
<g id="edge5" class="edge">
<title>Node5&#45;&gt;Node3</title>
<path fill="none" stroke="midnightblue" d="M378.19,-64.5C442.95,-64.5 534.02,-64.5 603.66,-64.5"/>
<polygon fill="midnightblue" stroke="midnightblue" points="603.77,-68 613.77,-64.5 603.77,-61 603.77,-68"/>
</g>
<!-- Node7 -->
<g id="node7" class="node">
<title>Node7</title>
<g id="a_node7"><a xlink:href="namespaceklyqa__ctl_1_1general_1_1general.html#ab2f9a22e98cd16d0d284d22382cfcb02" target="_top" xlink:title=" ">
<polygon fill="white" stroke="black" points="414,-3.5 414,-33.5 578,-33.5 578,-3.5 414,-3.5"/>
<text text-anchor="start" x="422" y="-21.5" font-family="Helvetica,sans-Serif" font-size="10.00">klyqa_ctl.general.general.task</text>
<text text-anchor="middle" x="496" y="-10.5" font-family="Helvetica,sans-Serif" font-size="10.00">_log_trace</text>
</a>
</g>
</g>
<!-- Node6&#45;&gt;Node7 -->
<g id="edge7" class="edge">
<title>Node6&#45;&gt;Node7</title>
<path fill="none" stroke="midnightblue" d="M378.11,-16.73C386.46,-16.86 394.99,-16.98 403.44,-17.11"/>
<polygon fill="midnightblue" stroke="midnightblue" points="403.65,-20.62 413.7,-17.27 403.75,-13.62 403.65,-20.62"/>
</g>
<!-- Node7&#45;&gt;Node3 -->
<g id="edge8" class="edge">
<title>Node7&#45;&gt;Node3</title>
<path fill="none" stroke="midnightblue" d="M565.27,-33.56C593.6,-39.81 625.97,-46.95 652.46,-52.8"/>
<polygon fill="midnightblue" stroke="midnightblue" points="651.79,-56.23 662.31,-54.97 653.3,-49.4 651.79,-56.23"/>
</g>
</g>
</svg>
        <g id="navigator" transform="translate(0 0)" fill="#404254">
                <rect fill="#f2f5e9" fill-opacity="0.5" stroke="#606060" stroke-width=".5" x="0" y="0" width="60" height="60"/>
                <use id="zoomplus" xlink:href="#zoomPlus" x="17" y="9" onmousedown="handleZoom(evt,'in')"/>
                <use id="zoomminus" xlink:href="#zoomMin" x="42" y="9" onmousedown="handleZoom(evt,'out')"/>
                <use id="reset" xlink:href="#resetDef" x="30" y="36" onmousedown="handleReset()"/>
                <g id="arrowUp" xlink:href="#dirArrow" transform="translate(30 24)" onmousedown="handlePan(0,-1)">
                  <use xlink:href="#rim" fill="#404040">
                        <set attributeName="fill" to="#808080" begin="arrowUp.mouseover" end="arrowUp.mouseout"/>
                  </use>
                  <path fill="none" stroke="white" stroke-width="1.5" d="M0,-3.0v7 M-2.5,-0.5L0,-3.0L2.5,-0.5"/>
                </g>
                <g id="arrowRight" xlink:href="#dirArrow" transform="rotate(90) translate(36 -43)" onmousedown="handlePan(1,0)">
                  <use xlink:href="#rim" fill="#404040">
                        <set attributeName="fill" to="#808080" begin="arrowRight.mouseover" end="arrowRight.mouseout"/>
                  </use>
                  <path fill="none" stroke="white" stroke-width="1.5" d="M0,-3.0v7 M-2.5,-0.5L0,-3.0L2.5,-0.5"/>
                </g>
                <g id="arrowDown" xlink:href="#dirArrow" transform="rotate(180) translate(-30 -48)" onmousedown="handlePan(0,1)">
                  <use xlink:href="#rim" fill="#404040">
                        <set attributeName="fill" to="#808080" begin="arrowDown.mouseover" end="arrowDown.mouseout"/>
                  </use>
                  <path fill="none" stroke="white" stroke-width="1.5" d="M0,-3.0v7 M-2.5,-0.5L0,-3.0L2.5,-0.5"/>
                </g>
                <g id="arrowLeft" xlink:href="#dirArrow" transform="rotate(270) translate(-36 17)" onmousedown="handlePan(-1,0)">
                  <use xlink:href="#rim" fill="#404040">
                        <set attributeName="fill" to="#808080" begin="arrowLeft.mouseover" end="arrowLeft.mouseout"/>
                  </use>
                  <path fill="none" stroke="white" stroke-width="1.5" d="M0,-3.0v7 M-2.5,-0.5L0,-3.0L2.5,-0.5"/>
                </g>
        </g>
        <svg viewBox="0 0 15 15" width="100%" height="30px" preserveAspectRatio="xMaxYMin meet">
         <g id="arrow_out" transform="scale(0.3 0.3)">
          <a xlink:href="classklyqa__ctl_1_1general_1_1general_1_1AsyncIoLock_a25fbc33880c976000ef3b6e70c7691c9_cgraph_org.svg" target="_base">
           <rect id="button" ry="5" rx="5" y="6" x="6" height="38" width="38"
                fill="#f2f5e9" fill-opacity="0.5" stroke="#606060" stroke-width="1.0"/>
           <path id="arrow"
             d="M 11.500037,31.436501 C 11.940474,20.09759 22.043105,11.32322 32.158766,21.979434 L 37.068811,17.246167 C 37.068811,17.246167 37.088388,32 37.088388,32 L 22.160133,31.978069 C 22.160133,31.978069 26.997745,27.140456 26.997745,27.140456 C 18.528582,18.264221 13.291696,25.230495 11.500037,31.436501 z"
             style="fill:#404040;"/>
          </a>
         </g>
        </svg>
</svg>
