<?xml version="1.0" encoding="UTF-8" standalone="no"?>
<!DOCTYPE svg PUBLIC "-//W3C//DTD SVG 1.1//EN"
 "http://www.w3.org/Graphics/SVG/1.1/DTD/svg11.dtd">
<!-- Generated by graphviz version 2.43.0 (0)
 -->
<!-- Title: klyqa_ctl.devices.light.commands.ExternalSourceCommand Pages: 1 -->
<!--zoomable 480 -->
<svg id="main" version="1.1" xmlns="http://www.w3.org/2000/svg" xmlns:xlink="http://www.w3.org/1999/xlink" xml:space="preserve" onload="init(evt)">
<style type="text/css"><![CDATA[
.edge:hover path { stroke: red; }
.edge:hover polygon { stroke: red; fill: red; }
]]></style>
<script type="text/javascript"><![CDATA[
var edges = document.getElementsByTagName('g');
if (edges && edges.length) {
  for (var i=0;i<edges.length;i++) {
    if (edges[i].id.substr(0,4)=='edge') {
      edges[i].setAttribute('class','edge');
    }
  }
}
]]></script>
        <defs>
                <circle id="rim" cx="0" cy="0" r="7"/>
                <circle id="rim2" cx="0" cy="0" r="3.5"/>
                <g id="zoomPlus">
                        <use xlink:href="#rim" fill="#404040">
                                <set attributeName="fill" to="#808080" begin="zoomplus.mouseover" end="zoomplus.mouseout"/>
                        </use>
                        <path d="M-4,0h8M0,-4v8" fill="none" stroke="white" stroke-width="1.5" pointer-events="none"/>
                </g>
                <g id="zoomMin">
                        <use xlink:href="#rim" fill="#404040">
                                <set attributeName="fill" to="#808080" begin="zoomminus.mouseover" end="zoomminus.mouseout"/>
                        </use>
                        <path d="M-4,0h8" fill="none" stroke="white" stroke-width="1.5" pointer-events="none"/>
                </g>
                <g id="dirArrow">
                        <path fill="none" stroke="white" stroke-width="1.5" d="M0,-3.0v7 M-2.5,-0.5L0,-3.0L2.5,-0.5"/>
                </g>
               <g id="resetDef">
                       <use xlink:href="#rim2" fill="#404040">
                               <set attributeName="fill" to="#808080" begin="reset.mouseover" end="reset.mouseout"/>
                       </use>
               </g>
        </defs>

<script type="text/javascript">
var viewWidth = 364;
var viewHeight = 480;
var sectionId = 'dynsection-1';
</script>
<script xlink:href="svgpan.js"/>
<svg id="graph" class="graph">
<g id="viewport">
<title>klyqa_ctl.devices.light.commands.ExternalSourceCommand</title>
<polygon fill="white" stroke="transparent" points="-4,4 -4,-476 360,-476 360,4 -4,4"/>
<!-- Node1 -->
<g id="node1" class="node">
<title>Node1</title>
<g id="a_node1"><a xlink:title=" ">
<polygon fill="#bfbfbf" stroke="black" points="76,-0.5 76,-101.5 262,-101.5 262,-0.5 76,-0.5"/>
<text text-anchor="start" x="84" y="-89.5" font-family="Helvetica,sans-Serif" font-size="10.00">klyqa_ctl.devices.light.commands.</text>
<text text-anchor="middle" x="169" y="-78.5" font-family="Helvetica,sans-Serif" font-size="10.00">ExternalSourceCommand</text>
<polyline fill="none" stroke="black" points="76,-71.5 262,-71.5 "/>
<text text-anchor="start" x="84" y="-59.5" font-family="Helvetica,sans-Serif" font-size="10.00">+ ExternalSourceProtocol</text>
<text text-anchor="start" x="84" y="-48.5" font-family="Helvetica,sans-Serif" font-size="10.00">+ int</text>
<polyline fill="none" stroke="black" points="76,-41.5 262,-41.5 "/>
<text text-anchor="start" x="84" y="-29.5" font-family="Helvetica,sans-Serif" font-size="10.00">+ TypeJson json(self)</text>
<text text-anchor="start" x="84" y="-18.5" font-family="Helvetica,sans-Serif" font-size="10.00">+ bool check_values(self,</text>
<text text-anchor="start" x="84" y="-7.5" font-family="Helvetica,sans-Serif" font-size="10.00"> Device device)</text>
</a>
</g>
</g>
<!-- Node2 -->
<g id="node2" class="node">
<title>Node2</title>
<g id="a_node2"><a xlink:href="classklyqa__ctl_1_1devices_1_1device_1_1CommandWithCheckValues.html" target="_top" xlink:title=" ">
<polygon fill="white" stroke="black" points="0,-138.5 0,-217.5 152,-217.5 152,-138.5 0,-138.5"/>
<text text-anchor="start" x="8" y="-205.5" font-family="Helvetica,sans-Serif" font-size="10.00">klyqa_ctl.devices.device.</text>
<text text-anchor="middle" x="76" y="-194.5" font-family="Helvetica,sans-Serif" font-size="10.00">CommandWithCheckValues</text>
<polyline fill="none" stroke="black" points="0,-187.5 152,-187.5 "/>
<text text-anchor="start" x="8" y="-175.5" font-family="Helvetica,sans-Serif" font-size="10.00">+ bool</text>
<polyline fill="none" stroke="black" points="0,-168.5 152,-168.5 "/>
<text text-anchor="start" x="8" y="-156.5" font-family="Helvetica,sans-Serif" font-size="10.00">+ bool check_values(self,</text>
<text text-anchor="start" x="8" y="-145.5" font-family="Helvetica,sans-Serif" font-size="10.00"> Device device)</text>
</a>
</g>
</g>
<!-- Node2&#45;&gt;Node1 -->
<g id="edge1" class="edge">
<title>Node2&#45;&gt;Node1</title>
<path fill="none" stroke="midnightblue" d="M110.67,-130.4C117.64,-121.03 124.99,-111.16 132.03,-101.69"/>
<polygon fill="none" stroke="midnightblue" points="107.82,-128.36 104.66,-138.48 113.44,-132.54 107.82,-128.36"/>
</g>
<!-- Node3 -->
<g id="node3" class="node">
<title>Node3</title>
<g id="a_node3"><a xlink:href="classklyqa__ctl_1_1general_1_1general_1_1CommandTyped.html" target="_top" xlink:title=" ">
<polygon fill="white" stroke="black" points="97.5,-254.5 97.5,-322.5 240.5,-322.5 240.5,-254.5 97.5,-254.5"/>
<text text-anchor="start" x="105.5" y="-310.5" font-family="Helvetica,sans-Serif" font-size="10.00">klyqa_ctl.general.general.</text>
<text text-anchor="middle" x="169" y="-299.5" font-family="Helvetica,sans-Serif" font-size="10.00">CommandTyped</text>
<polyline fill="none" stroke="black" points="97.5,-292.5 240.5,-292.5 "/>
<text text-anchor="start" x="105.5" y="-280.5" font-family="Helvetica,sans-Serif" font-size="10.00">+ str</text>
<polyline fill="none" stroke="black" points="97.5,-273.5 240.5,-273.5 "/>
<text text-anchor="start" x="105.5" y="-261.5" font-family="Helvetica,sans-Serif" font-size="10.00">+ TypeJson json(self)</text>
</a>
</g>
</g>
<!-- Node3&#45;&gt;Node2 -->
<g id="edge2" class="edge">
<title>Node3&#45;&gt;Node2</title>
<path fill="none" stroke="midnightblue" d="M133.91,-246.56C125.78,-237.08 117.16,-227.03 109.13,-217.65"/>
<polygon fill="none" stroke="midnightblue" points="131.43,-249.04 140.59,-254.36 136.74,-244.49 131.43,-249.04"/>
</g>
<!-- Node5 -->
<g id="node5" class="node">
<title>Node5</title>
<g id="a_node5"><a xlink:href="classklyqa__ctl_1_1devices_1_1light_1_1commands_1_1RequestCommand.html" target="_top" xlink:title=" ">
<polygon fill="white" stroke="black" points="170,-138.5 170,-217.5 356,-217.5 356,-138.5 170,-138.5"/>
<text text-anchor="start" x="178" y="-205.5" font-family="Helvetica,sans-Serif" font-size="10.00">klyqa_ctl.devices.light.commands.</text>
<text text-anchor="middle" x="263" y="-194.5" font-family="Helvetica,sans-Serif" font-size="10.00">RequestCommand</text>
<polyline fill="none" stroke="black" points="170,-187.5 356,-187.5 "/>
<text text-anchor="start" x="178" y="-175.5" font-family="Helvetica,sans-Serif" font-size="10.00">+ type</text>
<polyline fill="none" stroke="black" points="170,-168.5 356,-168.5 "/>
<text text-anchor="start" x="178" y="-156.5" font-family="Helvetica,sans-Serif" font-size="10.00">+ None __post_init__</text>
<text text-anchor="start" x="178" y="-145.5" font-family="Helvetica,sans-Serif" font-size="10.00">(self)</text>
</a>
</g>
</g>
<!-- Node3&#45;&gt;Node5 -->
<g id="edge5" class="edge">
<title>Node3&#45;&gt;Node5</title>
<path fill="none" stroke="midnightblue" d="M204.47,-246.56C212.68,-237.08 221.39,-227.03 229.52,-217.65"/>
<polygon fill="none" stroke="midnightblue" points="201.62,-244.51 197.71,-254.36 206.91,-249.09 201.62,-244.51"/>
</g>
<!-- Node4 -->
<g id="node4" class="node">
<title>Node4</title>
<g id="a_node4"><a xlink:href="classklyqa__ctl_1_1general_1_1general_1_1Command.html" target="_top" xlink:title=" ">
<polygon fill="white" stroke="black" points="97.5,-359.5 97.5,-471.5 240.5,-471.5 240.5,-359.5 97.5,-359.5"/>
<text text-anchor="start" x="105.5" y="-459.5" font-family="Helvetica,sans-Serif" font-size="10.00">klyqa_ctl.general.general.</text>
<text text-anchor="middle" x="169" y="-448.5" font-family="Helvetica,sans-Serif" font-size="10.00">Command</text>
<polyline fill="none" stroke="black" points="97.5,-441.5 240.5,-441.5 "/>
<text text-anchor="start" x="105.5" y="-429.5" font-family="Helvetica,sans-Serif" font-size="10.00">+ TypeJson</text>
<text text-anchor="start" x="105.5" y="-418.5" font-family="Helvetica,sans-Serif" font-size="10.00">+ default_factory</text>
<polyline fill="none" stroke="black" points="97.5,-411.5 240.5,-411.5 "/>
<text text-anchor="start" x="105.5" y="-399.5" font-family="Helvetica,sans-Serif" font-size="10.00">+ TypeJson json(self)</text>
<text text-anchor="start" x="105.5" y="-388.5" font-family="Helvetica,sans-Serif" font-size="10.00">+ TypeJson cloud(self)</text>
<text text-anchor="start" x="105.5" y="-377.5" font-family="Helvetica,sans-Serif" font-size="10.00">+ str msg_str(self)</text>
<text text-anchor="start" x="105.5" y="-366.5" font-family="Helvetica,sans-Serif" font-size="10.00">+ str __str__(self)</text>
</a>
</g>
</g>
<!-- Node4&#45;&gt;Node3 -->
<g id="edge3" class="edge">
<title>Node4&#45;&gt;Node3</title>
<path fill="none" stroke="midnightblue" d="M169,-349.26C169,-339.99 169,-330.8 169,-322.51"/>
<polygon fill="none" stroke="midnightblue" points="165.5,-349.31 169,-359.31 172.5,-349.31 165.5,-349.31"/>
</g>
<!-- Node5&#45;&gt;Node1 -->
<g id="edge4" class="edge">
<title>Node5&#45;&gt;Node1</title>
<path fill="none" stroke="midnightblue" d="M227.96,-130.4C220.91,-121.03 213.49,-111.16 206.37,-101.69"/>
<polygon fill="none" stroke="midnightblue" points="225.22,-132.59 234.03,-138.48 230.82,-128.38 225.22,-132.59"/>
</g>
</g>
</svg>
        <g id="navigator" transform="translate(0 0)" fill="#404254">
                <rect fill="#f2f5e9" fill-opacity="0.5" stroke="#606060" stroke-width=".5" x="0" y="0" width="60" height="60"/>
                <use id="zoomplus" xlink:href="#zoomPlus" x="17" y="9" onmousedown="handleZoom(evt,'in')"/>
                <use id="zoomminus" xlink:href="#zoomMin" x="42" y="9" onmousedown="handleZoom(evt,'out')"/>
                <use id="reset" xlink:href="#resetDef" x="30" y="36" onmousedown="handleReset()"/>
                <g id="arrowUp" xlink:href="#dirArrow" transform="translate(30 24)" onmousedown="handlePan(0,-1)">
                  <use xlink:href="#rim" fill="#404040">
                        <set attributeName="fill" to="#808080" begin="arrowUp.mouseover" end="arrowUp.mouseout"/>
                  </use>
                  <path fill="none" stroke="white" stroke-width="1.5" d="M0,-3.0v7 M-2.5,-0.5L0,-3.0L2.5,-0.5"/>
                </g>
                <g id="arrowRight" xlink:href="#dirArrow" transform="rotate(90) translate(36 -43)" onmousedown="handlePan(1,0)">
                  <use xlink:href="#rim" fill="#404040">
                        <set attributeName="fill" to="#808080" begin="arrowRight.mouseover" end="arrowRight.mouseout"/>
                  </use>
                  <path fill="none" stroke="white" stroke-width="1.5" d="M0,-3.0v7 M-2.5,-0.5L0,-3.0L2.5,-0.5"/>
                </g>
                <g id="arrowDown" xlink:href="#dirArrow" transform="rotate(180) translate(-30 -48)" onmousedown="handlePan(0,1)">
                  <use xlink:href="#rim" fill="#404040">
                        <set attributeName="fill" to="#808080" begin="arrowDown.mouseover" end="arrowDown.mouseout"/>
                  </use>
                  <path fill="none" stroke="white" stroke-width="1.5" d="M0,-3.0v7 M-2.5,-0.5L0,-3.0L2.5,-0.5"/>
                </g>
                <g id="arrowLeft" xlink:href="#dirArrow" transform="rotate(270) translate(-36 17)" onmousedown="handlePan(-1,0)">
                  <use xlink:href="#rim" fill="#404040">
                        <set attributeName="fill" to="#808080" begin="arrowLeft.mouseover" end="arrowLeft.mouseout"/>
                  </use>
                  <path fill="none" stroke="white" stroke-width="1.5" d="M0,-3.0v7 M-2.5,-0.5L0,-3.0L2.5,-0.5"/>
                </g>
        </g>
        <svg viewBox="0 0 15 15" width="100%" height="30px" preserveAspectRatio="xMaxYMin meet">
         <g id="arrow_out" transform="scale(0.3 0.3)">
          <a xlink:href="classklyqa__ctl_1_1devices_1_1light_1_1commands_1_1ExternalSourceCommand__coll__graph_org.svg" target="_base">
           <rect id="button" ry="5" rx="5" y="6" x="6" height="38" width="38"
                fill="#f2f5e9" fill-opacity="0.5" stroke="#606060" stroke-width="1.0"/>
           <path id="arrow"
             d="M 11.500037,31.436501 C 11.940474,20.09759 22.043105,11.32322 32.158766,21.979434 L 37.068811,17.246167 C 37.068811,17.246167 37.088388,32 37.088388,32 L 22.160133,31.978069 C 22.160133,31.978069 26.997745,27.140456 26.997745,27.140456 C 18.528582,18.264221 13.291696,25.230495 11.500037,31.436501 z"
             style="fill:#404040;"/>
          </a>
         </g>
        </svg>
</svg>
