<?xml version="1.0" encoding="UTF-8" standalone="no"?>
<!DOCTYPE svg PUBLIC "-//W3C//DTD SVG 1.1//EN"
 "http://www.w3.org/Graphics/SVG/1.1/DTD/svg11.dtd">
<!-- Generated by graphviz version 2.43.0 (0)
 -->
<!-- Title: local.connection_handler.LocalConnectionHandler.handle_connection Pages: 1 -->
<svg width="1311pt" height="557pt"
 viewBox="0.00 0.00 1311.00 556.64" xmlns="http://www.w3.org/2000/svg" xmlns:xlink="http://www.w3.org/1999/xlink">
<g id="graph0" class="graph" transform="scale(1 1) rotate(0) translate(4 552.64)">
<title>local.connection_handler.LocalConnectionHandler.handle_connection</title>
<polygon fill="white" stroke="transparent" points="-4,4 -4,-552.64 1307,-552.64 1307,4 -4,4"/>
<!-- Node1 -->
<g id="node1" class="node">
<title>Node1</title>
<g id="a_node1"><a xlink:title=" ">
<polygon fill="#bfbfbf" stroke="black" points="0,-102.27 0,-143.27 170,-143.27 170,-102.27 0,-102.27"/>
<text text-anchor="start" x="8" y="-131.27" font-family="Helvetica,sans-Serif" font-size="10.00">local.connection_handler.</text>
<text text-anchor="start" x="8" y="-120.27" font-family="Helvetica,sans-Serif" font-size="10.00">LocalConnectionHandler.handle</text>
<text text-anchor="middle" x="85" y="-109.27" font-family="Helvetica,sans-Serif" font-size="10.00">_connection</text>
</a>
</g>
</g>
<!-- Node2 -->
<g id="node2" class="node">
<title>Node2</title>
<g id="a_node2"><a xlink:href="classlocal_1_1connection__handler_1_1LocalConnectionHandler.html#aaa28266e241c2e30e8acd468fab06fde" target="_top" xlink:title=" ">
<polygon fill="white" stroke="black" points="206,-131.27 206,-172.27 381,-172.27 381,-131.27 206,-131.27"/>
<text text-anchor="start" x="214" y="-160.27" font-family="Helvetica,sans-Serif" font-size="10.00">local.connection_handler.</text>
<text text-anchor="start" x="214" y="-149.27" font-family="Helvetica,sans-Serif" font-size="10.00">LocalConnectionHandler.process</text>
<text text-anchor="middle" x="293.5" y="-138.27" font-family="Helvetica,sans-Serif" font-size="10.00">_tcp_package</text>
</a>
</g>
</g>
<!-- Node1&#45;&gt;Node2 -->
<g id="edge1" class="edge">
<title>Node1&#45;&gt;Node2</title>
<path fill="none" stroke="midnightblue" d="M170.29,-134.61C178.71,-135.79 187.3,-137 195.83,-138.2"/>
<polygon fill="midnightblue" stroke="midnightblue" points="195.41,-141.67 205.8,-139.6 196.38,-134.74 195.41,-141.67"/>
</g>
<!-- Node4 -->
<g id="node4" class="node">
<title>Node4</title>
<g id="a_node4"><a xlink:href="namespaceklyqa__ctl_1_1general_1_1general.html#a9df3b50dfc0fcc7c8ec991bb9be9c5ba" target="_top" xlink:title=" ">
<polygon fill="white" stroke="black" points="885,-119.27 885,-138.27 1070,-138.27 1070,-119.27 885,-119.27"/>
<text text-anchor="middle" x="977.5" y="-126.27" font-family="Helvetica,sans-Serif" font-size="10.00">klyqa_ctl.general.general.task_log</text>
</a>
</g>
</g>
<!-- Node1&#45;&gt;Node4 -->
<g id="edge22" class="edge">
<title>Node1&#45;&gt;Node4</title>
<path fill="none" stroke="midnightblue" d="M109.44,-102.16C132.38,-83.2 169.17,-55.95 206,-41.77 294.4,-7.74 322.52,-18.46 417,-11.77 609.26,1.83 667.99,16.46 849,-49.77 890.38,-64.91 932.77,-94.56 956.74,-112.91"/>
<polygon fill="midnightblue" stroke="midnightblue" points="954.67,-115.73 964.71,-119.12 958.97,-110.21 954.67,-115.73"/>
</g>
<!-- Node15 -->
<g id="node15" class="node">
<title>Node15</title>
<g id="a_node15"><a xlink:href="classlocal_1_1connection__handler_1_1LocalConnectionHandler.html#a34b95b45332382bb830a3f1277878268" target="_top" xlink:title=" ">
<polygon fill="white" stroke="black" points="206,-351.27 206,-392.27 381,-392.27 381,-351.27 206,-351.27"/>
<text text-anchor="start" x="214" y="-380.27" font-family="Helvetica,sans-Serif" font-size="10.00">local.connection_handler.</text>
<text text-anchor="start" x="214" y="-369.27" font-family="Helvetica,sans-Serif" font-size="10.00">LocalConnectionHandler.remove</text>
<text text-anchor="middle" x="293.5" y="-358.27" font-family="Helvetica,sans-Serif" font-size="10.00">_msg_from_queue</text>
</a>
</g>
</g>
<!-- Node1&#45;&gt;Node15 -->
<g id="edge20" class="edge">
<title>Node1&#45;&gt;Node15</title>
<path fill="none" stroke="midnightblue" d="M103.25,-143.57C140.16,-188.08 226.85,-292.62 268.86,-343.27"/>
<polygon fill="midnightblue" stroke="midnightblue" points="266.37,-345.74 275.44,-351.21 271.75,-341.27 266.37,-345.74"/>
</g>
<!-- Node16 -->
<g id="node16" class="node">
<title>Node16</title>
<g id="a_node16"><a xlink:href="namespaceklyqa__ctl_1_1general_1_1general.html#ad6b753e482e539892c57f8144cf213cb" target="_top" xlink:title=" ">
<polygon fill="white" stroke="black" points="211.5,-50.77 211.5,-80.77 375.5,-80.77 375.5,-50.77 211.5,-50.77"/>
<text text-anchor="start" x="219.5" y="-68.77" font-family="Helvetica,sans-Serif" font-size="10.00">klyqa_ctl.general.general.task</text>
<text text-anchor="middle" x="293.5" y="-57.77" font-family="Helvetica,sans-Serif" font-size="10.00">_log_trace_ex</text>
</a>
</g>
</g>
<!-- Node1&#45;&gt;Node16 -->
<g id="edge23" class="edge">
<title>Node1&#45;&gt;Node16</title>
<path fill="none" stroke="midnightblue" d="M160.55,-102.19C182.79,-96.05 206.96,-89.38 228.47,-83.45"/>
<polygon fill="midnightblue" stroke="midnightblue" points="229.44,-86.81 238.14,-80.78 227.57,-80.06 229.44,-86.81"/>
</g>
<!-- Node3 -->
<g id="node3" class="node">
<title>Node3</title>
<g id="a_node3"><a xlink:href="classlocal_1_1connection__handler_1_1LocalConnectionHandler.html#ad1b4bfaedd513acfccbf1b12e36d5469" target="_top" xlink:title=" ">
<polygon fill="white" stroke="black" points="417,-131.27 417,-172.27 592,-172.27 592,-131.27 417,-131.27"/>
<text text-anchor="start" x="425" y="-160.27" font-family="Helvetica,sans-Serif" font-size="10.00">local.connection_handler.</text>
<text text-anchor="start" x="425" y="-149.27" font-family="Helvetica,sans-Serif" font-size="10.00">LocalConnectionHandler.process</text>
<text text-anchor="middle" x="504.5" y="-138.27" font-family="Helvetica,sans-Serif" font-size="10.00">_aes_initial_vector_package</text>
</a>
</g>
</g>
<!-- Node2&#45;&gt;Node3 -->
<g id="edge2" class="edge">
<title>Node2&#45;&gt;Node3</title>
<path fill="none" stroke="midnightblue" d="M381.02,-151.77C389.49,-151.77 398.13,-151.77 406.7,-151.77"/>
<polygon fill="midnightblue" stroke="midnightblue" points="406.71,-155.27 416.71,-151.77 406.71,-148.27 406.71,-155.27"/>
</g>
<!-- Node2&#45;&gt;Node4 -->
<g id="edge19" class="edge">
<title>Node2&#45;&gt;Node4</title>
<path fill="none" stroke="midnightblue" d="M307.6,-172.4C328.45,-204.33 371.49,-266.74 417,-311.77 562.33,-455.56 681.02,-586.3 849,-469.77 959.26,-393.28 974.33,-209.11 976.26,-148.49"/>
<polygon fill="midnightblue" stroke="midnightblue" points="979.76,-148.45 976.49,-138.37 972.76,-148.29 979.76,-148.45"/>
</g>
<!-- Node7 -->
<g id="node7" class="node">
<title>Node7</title>
<g id="a_node7"><a xlink:href="classlocal_1_1connection__handler_1_1LocalConnectionHandler.html#a4ce11db96280d000941a91cb37df2842" target="_top" xlink:title=" ">
<polygon fill="white" stroke="black" points="417,-261.27 417,-302.27 592,-302.27 592,-261.27 417,-261.27"/>
<text text-anchor="start" x="425" y="-290.27" font-family="Helvetica,sans-Serif" font-size="10.00">local.connection_handler.</text>
<text text-anchor="start" x="425" y="-279.27" font-family="Helvetica,sans-Serif" font-size="10.00">LocalConnectionHandler.process</text>
<text text-anchor="middle" x="504.5" y="-268.27" font-family="Helvetica,sans-Serif" font-size="10.00">_device_identity_package</text>
</a>
</g>
</g>
<!-- Node2&#45;&gt;Node7 -->
<g id="edge7" class="edge">
<title>Node2&#45;&gt;Node7</title>
<path fill="none" stroke="midnightblue" d="M327.62,-172.37C364,-195 422.5,-231.39 461.93,-255.92"/>
<polygon fill="midnightblue" stroke="midnightblue" points="460.2,-258.96 470.54,-261.27 463.9,-253.02 460.2,-258.96"/>
</g>
<!-- Node14 -->
<g id="node14" class="node">
<title>Node14</title>
<g id="a_node14"><a xlink:href="classlocal_1_1connection__handler_1_1LocalConnectionHandler.html#a46f68728bc59f0e5991bc390f67f2685" target="_top" xlink:title=" ">
<polygon fill="white" stroke="black" points="417,-71.27 417,-112.27 592,-112.27 592,-71.27 417,-71.27"/>
<text text-anchor="start" x="425" y="-100.27" font-family="Helvetica,sans-Serif" font-size="10.00">local.connection_handler.</text>
<text text-anchor="start" x="425" y="-89.27" font-family="Helvetica,sans-Serif" font-size="10.00">LocalConnectionHandler.process</text>
<text text-anchor="middle" x="504.5" y="-78.27" font-family="Helvetica,sans-Serif" font-size="10.00">_message_answer_package</text>
</a>
</g>
</g>
<!-- Node2&#45;&gt;Node14 -->
<g id="edge16" class="edge">
<title>Node2&#45;&gt;Node14</title>
<path fill="none" stroke="midnightblue" d="M366.13,-131.21C384.16,-126.03 403.65,-120.44 422.11,-115.14"/>
<polygon fill="midnightblue" stroke="midnightblue" points="423.31,-118.43 431.96,-112.31 421.38,-111.71 423.31,-118.43"/>
</g>
<!-- Node3&#45;&gt;Node4 -->
<g id="edge3" class="edge">
<title>Node3&#45;&gt;Node4</title>
<path fill="none" stroke="midnightblue" d="M592.17,-131.84C604.15,-129.74 616.34,-127.95 628,-126.77 710.77,-118.41 805.15,-119.61 874.8,-122.51"/>
<polygon fill="midnightblue" stroke="midnightblue" points="874.75,-126.01 884.89,-122.95 875.06,-119.02 874.75,-126.01"/>
</g>
<!-- Node6 -->
<g id="node6" class="node">
<title>Node6</title>
<g id="a_node6"><a xlink:href="namespaceklyqa__ctl_1_1general_1_1general.html#a1afe30a73cc28a3b65babeeab27e36c8" target="_top" xlink:title=" ">
<polygon fill="white" stroke="black" points="656.5,-135.77 656.5,-165.77 820.5,-165.77 820.5,-135.77 656.5,-135.77"/>
<text text-anchor="start" x="664.5" y="-153.77" font-family="Helvetica,sans-Serif" font-size="10.00">klyqa_ctl.general.general.task</text>
<text text-anchor="middle" x="738.5" y="-142.77" font-family="Helvetica,sans-Serif" font-size="10.00">_log_debug</text>
</a>
</g>
</g>
<!-- Node3&#45;&gt;Node6 -->
<g id="edge5" class="edge">
<title>Node3&#45;&gt;Node6</title>
<path fill="none" stroke="midnightblue" d="M592.22,-151.4C609.76,-151.32 628.25,-151.24 645.94,-151.17"/>
<polygon fill="midnightblue" stroke="midnightblue" points="646.27,-154.67 656.26,-151.12 646.24,-147.67 646.27,-154.67"/>
</g>
<!-- Node5 -->
<g id="node5" class="node">
<title>Node5</title>
<g id="a_node5"><a xlink:href="namespaceklyqa__ctl_1_1general_1_1general.html#aea905150cafee39fa2ca211f1e60f012" target="_top" xlink:title=" ">
<polygon fill="white" stroke="black" points="1106,-119.27 1106,-138.27 1303,-138.27 1303,-119.27 1106,-119.27"/>
<text text-anchor="middle" x="1204.5" y="-126.27" font-family="Helvetica,sans-Serif" font-size="10.00">klyqa_ctl.general.general.task_name</text>
</a>
</g>
</g>
<!-- Node4&#45;&gt;Node5 -->
<g id="edge4" class="edge">
<title>Node4&#45;&gt;Node5</title>
<path fill="none" stroke="midnightblue" d="M1070.02,-128.77C1078.5,-128.77 1087.15,-128.77 1095.76,-128.77"/>
<polygon fill="midnightblue" stroke="midnightblue" points="1095.83,-132.27 1105.83,-128.77 1095.83,-125.27 1095.83,-132.27"/>
</g>
<!-- Node6&#45;&gt;Node4 -->
<g id="edge6" class="edge">
<title>Node6&#45;&gt;Node4</title>
<path fill="none" stroke="midnightblue" d="M820.73,-143.23C838.14,-141.62 856.75,-139.89 874.82,-138.21"/>
<polygon fill="midnightblue" stroke="midnightblue" points="875.16,-141.69 884.8,-137.28 874.52,-134.72 875.16,-141.69"/>
</g>
<!-- Node7&#45;&gt;Node4 -->
<g id="edge14" class="edge">
<title>Node7&#45;&gt;Node4</title>
<path fill="none" stroke="midnightblue" d="M514.25,-302.39C530.59,-337.85 569.47,-409.31 628,-437.77 716.33,-480.72 767.37,-492.4 849,-437.77 950.3,-369.99 971.2,-205.44 975.44,-148.53"/>
<polygon fill="midnightblue" stroke="midnightblue" points="978.95,-148.57 976.1,-138.36 971.96,-148.12 978.95,-148.57"/>
</g>
<!-- Node7&#45;&gt;Node6 -->
<g id="edge15" class="edge">
<title>Node7&#45;&gt;Node6</title>
<path fill="none" stroke="midnightblue" d="M523.25,-261.24C545.32,-237.03 585.35,-197.38 628,-175.77 633.96,-172.75 640.29,-170.09 646.78,-167.75"/>
<polygon fill="midnightblue" stroke="midnightblue" points="648,-171.03 656.37,-164.55 645.78,-164.4 648,-171.03"/>
</g>
<!-- Node8 -->
<g id="node8" class="node">
<title>Node8</title>
<g id="a_node8"><a xlink:href="classklyqa__ctl_1_1account_1_1Account.html#a7bcb9ac9804621630ea08a688abecd18" target="_top" xlink:title=" ">
<polygon fill="white" stroke="black" points="628,-272.27 628,-291.27 849,-291.27 849,-272.27 628,-272.27"/>
<text text-anchor="middle" x="738.5" y="-279.27" font-family="Helvetica,sans-Serif" font-size="10.00">klyqa_ctl.account.Account.controller_data</text>
</a>
</g>
</g>
<!-- Node7&#45;&gt;Node8 -->
<g id="edge8" class="edge">
<title>Node7&#45;&gt;Node8</title>
<path fill="none" stroke="midnightblue" d="M592.22,-281.77C600.54,-281.77 609.08,-281.77 617.65,-281.77"/>
<polygon fill="midnightblue" stroke="midnightblue" points="617.71,-285.27 627.71,-281.77 617.71,-278.27 617.71,-285.27"/>
</g>
<!-- Node9 -->
<g id="node9" class="node">
<title>Node9</title>
<g id="a_node9"><a xlink:href="classcloud_1_1CloudBackend.html#aef174fe1ba95fff13c7901ff56354ec9" target="_top" xlink:title=" ">
<polygon fill="white" stroke="black" points="643,-234.27 643,-253.27 834,-253.27 834,-234.27 643,-234.27"/>
<text text-anchor="middle" x="738.5" y="-241.27" font-family="Helvetica,sans-Serif" font-size="10.00">cloud.CloudBackend.controller_data</text>
</a>
</g>
</g>
<!-- Node7&#45;&gt;Node9 -->
<g id="edge9" class="edge">
<title>Node7&#45;&gt;Node9</title>
<path fill="none" stroke="midnightblue" d="M592.22,-267.57C617.67,-263.4 645.13,-258.9 669.26,-254.95"/>
<polygon fill="midnightblue" stroke="midnightblue" points="670.07,-258.36 679.38,-253.29 668.94,-251.45 670.07,-258.36"/>
</g>
<!-- Node10 -->
<g id="node10" class="node">
<title>Node10</title>
<g id="a_node10"><a xlink:href="classlocal_1_1connection__handler_1_1LocalConnectionHandler.html#a8f938ae53b3c24bbdc02f377671cf263" target="_top" xlink:title=" ">
<polygon fill="white" stroke="black" points="633,-184.77 633,-214.77 844,-214.77 844,-184.77 633,-184.77"/>
<text text-anchor="start" x="641" y="-202.77" font-family="Helvetica,sans-Serif" font-size="10.00">local.connection_handler.</text>
<text text-anchor="middle" x="738.5" y="-191.77" font-family="Helvetica,sans-Serif" font-size="10.00">LocalConnectionHandler.controller_data</text>
</a>
</g>
</g>
<!-- Node7&#45;&gt;Node10 -->
<g id="edge10" class="edge">
<title>Node7&#45;&gt;Node10</title>
<path fill="none" stroke="midnightblue" d="M544.08,-261.26C567.77,-249.31 599.04,-234.69 628,-224.77 635.82,-222.09 644.06,-219.61 652.36,-217.35"/>
<polygon fill="midnightblue" stroke="midnightblue" points="653.33,-220.71 662.1,-214.78 651.54,-213.94 653.33,-220.71"/>
</g>
<!-- Node11 -->
<g id="node11" class="node">
<title>Node11</title>
<g id="a_node11"><a xlink:href="classklyqa__ctl_1_1account_1_1Account.html#a2265c38daf6829c96c852ad4a288b42d" target="_top" xlink:title=" ">
<polygon fill="white" stroke="black" points="646,-409.27 646,-428.27 831,-428.27 831,-409.27 646,-409.27"/>
<text text-anchor="middle" x="738.5" y="-416.27" font-family="Helvetica,sans-Serif" font-size="10.00">klyqa_ctl.account.Account.devices</text>
</a>
</g>
</g>
<!-- Node7&#45;&gt;Node11 -->
<g id="edge11" class="edge">
<title>Node7&#45;&gt;Node11</title>
<path fill="none" stroke="midnightblue" d="M520.69,-302.72C541.59,-329.84 581.91,-376.4 628,-399.77 632.67,-402.14 637.57,-404.22 642.62,-406.04"/>
<polygon fill="midnightblue" stroke="midnightblue" points="641.86,-409.48 652.46,-409.25 644.03,-402.82 641.86,-409.48"/>
</g>
<!-- Node12 -->
<g id="node12" class="node">
<title>Node12</title>
<g id="a_node12"><a xlink:href="classlocal_1_1connection__handler_1_1LocalConnectionHandler.html#a4d307f6bd0b66f3cb9fac3057fc87972" target="_top" xlink:title=" ">
<polygon fill="white" stroke="black" points="651,-359.77 651,-389.77 826,-389.77 826,-359.77 651,-359.77"/>
<text text-anchor="start" x="659" y="-377.77" font-family="Helvetica,sans-Serif" font-size="10.00">local.connection_handler.</text>
<text text-anchor="middle" x="738.5" y="-366.77" font-family="Helvetica,sans-Serif" font-size="10.00">LocalConnectionHandler.devices</text>
</a>
</g>
</g>
<!-- Node7&#45;&gt;Node12 -->
<g id="edge12" class="edge">
<title>Node7&#45;&gt;Node12</title>
<path fill="none" stroke="midnightblue" d="M535.97,-302.33C560.02,-317.7 594.93,-338.16 628,-350.77 633.85,-353 639.95,-355.05 646.16,-356.93"/>
<polygon fill="midnightblue" stroke="midnightblue" points="645.4,-360.35 655.98,-359.74 647.33,-353.62 645.4,-360.35"/>
</g>
<!-- Node13 -->
<g id="node13" class="node">
<title>Node13</title>
<g id="a_node13"><a xlink:href="classklyqa__ctl_1_1controller__data_1_1ControllerData.html#adf7af423388a9a883c428cf71e217650" target="_top" xlink:title=" ">
<polygon fill="white" stroke="black" points="659.5,-310.77 659.5,-340.77 817.5,-340.77 817.5,-310.77 659.5,-310.77"/>
<text text-anchor="start" x="667.5" y="-328.77" font-family="Helvetica,sans-Serif" font-size="10.00">klyqa_ctl.controller</text>
<text text-anchor="middle" x="738.5" y="-317.77" font-family="Helvetica,sans-Serif" font-size="10.00">_data.ControllerData.devices</text>
</a>
</g>
</g>
<!-- Node7&#45;&gt;Node13 -->
<g id="edge13" class="edge">
<title>Node7&#45;&gt;Node13</title>
<path fill="none" stroke="midnightblue" d="M592.22,-298.22C610.87,-301.76 630.61,-305.5 649.32,-309.05"/>
<polygon fill="midnightblue" stroke="midnightblue" points="648.82,-312.52 659.3,-310.94 650.12,-305.64 648.82,-312.52"/>
</g>
<!-- Node14&#45;&gt;Node4 -->
<g id="edge17" class="edge">
<title>Node14&#45;&gt;Node4</title>
<path fill="none" stroke="midnightblue" d="M592.03,-97.05C661.52,-101.48 761.59,-108.26 849,-115.77 857.95,-116.54 867.26,-117.39 876.57,-118.28"/>
<polygon fill="midnightblue" stroke="midnightblue" points="876.39,-121.78 886.68,-119.25 877.06,-114.81 876.39,-121.78"/>
</g>
<!-- Node14&#45;&gt;Node6 -->
<g id="edge18" class="edge">
<title>Node14&#45;&gt;Node6</title>
<path fill="none" stroke="midnightblue" d="M586.32,-112.32C613.1,-119.14 642.65,-126.65 668.47,-133.22"/>
<polygon fill="midnightblue" stroke="midnightblue" points="667.61,-136.61 678.17,-135.68 669.34,-129.83 667.61,-136.61"/>
</g>
<!-- Node15&#45;&gt;Node4 -->
<g id="edge21" class="edge">
<title>Node15&#45;&gt;Node4</title>
<path fill="none" stroke="midnightblue" d="M321.97,-392.47C408.19,-454.73 677.8,-628.6 849,-505.77 969.48,-419.33 977.56,-212.86 977.03,-148.37"/>
<polygon fill="midnightblue" stroke="midnightblue" points="980.53,-148.28 976.86,-138.34 973.53,-148.4 980.53,-148.28"/>
</g>
<!-- Node17 -->
<g id="node17" class="node">
<title>Node17</title>
<g id="a_node17"><a xlink:href="namespaceklyqa__ctl_1_1general_1_1general.html#ab2f9a22e98cd16d0d284d22382cfcb02" target="_top" xlink:title=" ">
<polygon fill="white" stroke="black" points="422.5,-21.77 422.5,-51.77 586.5,-51.77 586.5,-21.77 422.5,-21.77"/>
<text text-anchor="start" x="430.5" y="-39.77" font-family="Helvetica,sans-Serif" font-size="10.00">klyqa_ctl.general.general.task</text>
<text text-anchor="middle" x="504.5" y="-28.77" font-family="Helvetica,sans-Serif" font-size="10.00">_log_trace</text>
</a>
</g>
</g>
<!-- Node16&#45;&gt;Node17 -->
<g id="edge24" class="edge">
<title>Node16&#45;&gt;Node17</title>
<path fill="none" stroke="midnightblue" d="M375.6,-54.52C387.62,-52.85 400.06,-51.12 412.26,-49.43"/>
<polygon fill="midnightblue" stroke="midnightblue" points="413.02,-52.86 422.44,-48.02 412.06,-45.93 413.02,-52.86"/>
</g>
<!-- Node17&#45;&gt;Node4 -->
<g id="edge25" class="edge">
<title>Node17&#45;&gt;Node4</title>
<path fill="none" stroke="midnightblue" d="M586.76,-48.31C656.63,-58.74 759.91,-75.42 849,-94.77 877.73,-101.01 909.69,-109.54 934.43,-116.49"/>
<polygon fill="midnightblue" stroke="midnightblue" points="933.64,-119.91 944.21,-119.27 935.55,-113.17 933.64,-119.91"/>
</g>
</g>
</svg>
