<?xml version="1.0" encoding="UTF-8" standalone="no"?>
<!DOCTYPE svg PUBLIC "-//W3C//DTD SVG 1.1//EN"
 "http://www.w3.org/Graphics/SVG/1.1/DTD/svg11.dtd">
<!-- Generated by graphviz version 2.43.0 (0)
 -->
<!-- Title: klyqa_ctl.general.general.DeviceType Pages: 1 -->
<svg width="173pt" height="193pt"
 viewBox="0.00 0.00 172.50 193.00" xmlns="http://www.w3.org/2000/svg" xmlns:xlink="http://www.w3.org/1999/xlink">
<g id="graph0" class="graph" transform="scale(1 1) rotate(0) translate(4 189)">
<title>klyqa_ctl.general.general.DeviceType</title>
<polygon fill="white" stroke="transparent" points="-4,4 -4,-189 168.5,-189 168.5,4 -4,4"/>
<!-- Node1 -->
<g id="node1" class="node">
<title>Node1</title>
<g id="a_node1"><a xlink:title=" ">
<polygon fill="#bfbfbf" stroke="black" points="0,-0.5 0,-68.5 143,-68.5 143,-0.5 0,-0.5"/>
<text text-anchor="start" x="8" y="-56.5" font-family="Helvetica,sans-Serif" font-size="10.00">klyqa_ctl.general.general.</text>
<text text-anchor="middle" x="71.5" y="-45.5" font-family="Helvetica,sans-Serif" font-size="10.00">DeviceType</text>
<polyline fill="none" stroke="black" points="0,-38.5 143,-38.5 "/>
<text text-anchor="start" x="8" y="-26.5" font-family="Helvetica,sans-Serif" font-size="10.00">+ bytes</text>
<polyline fill="none" stroke="black" points="0,-19.5 143,-19.5 "/>
<text text-anchor="middle" x="71.5" y="-7.5" font-family="Helvetica,sans-Serif" font-size="10.00"> </text>
</a>
</g>
</g>
<!-- Node2 -->
<g id="node2" class="node">
<title>Node2</title>
<g id="a_node2"><a xlink:href="classstr.html" target="_top" xlink:title=" ">
<polygon fill="white" stroke="black" points="2,-127.5 2,-184.5 31,-184.5 31,-127.5 2,-127.5"/>
<text text-anchor="middle" x="16.5" y="-172.5" font-family="Helvetica,sans-Serif" font-size="10.00">str</text>
<polyline fill="none" stroke="black" points="2,-165.5 31,-165.5 "/>
<text text-anchor="middle" x="16.5" y="-153.5" font-family="Helvetica,sans-Serif" font-size="10.00"> </text>
<polyline fill="none" stroke="black" points="2,-146.5 31,-146.5 "/>
<text text-anchor="middle" x="16.5" y="-134.5" font-family="Helvetica,sans-Serif" font-size="10.00"> </text>
</a>
</g>
</g>
<!-- Node2&#45;&gt;Node1 -->
<g id="edge1" class="edge">
<title>Node2&#45;&gt;Node1</title>
<path fill="none" stroke="midnightblue" d="M33.6,-117.84C40.85,-102.09 49.24,-83.87 56.27,-68.59"/>
<polygon fill="none" stroke="midnightblue" points="30.26,-116.74 29.26,-127.28 36.62,-119.66 30.26,-116.74"/>
</g>
<!-- Node3 -->
<g id="node3" class="node">
<title>Node3</title>
<g id="a_node3"><a xlink:title=" ">
<polygon fill="white" stroke="#bfbfbf" points="49.5,-127.5 49.5,-184.5 93.5,-184.5 93.5,-127.5 49.5,-127.5"/>
<text text-anchor="middle" x="71.5" y="-172.5" font-family="Helvetica,sans-Serif" font-size="10.00">Enum</text>
<polyline fill="none" stroke="#bfbfbf" points="49.5,-165.5 93.5,-165.5 "/>
<text text-anchor="middle" x="71.5" y="-153.5" font-family="Helvetica,sans-Serif" font-size="10.00"> </text>
<polyline fill="none" stroke="#bfbfbf" points="49.5,-146.5 93.5,-146.5 "/>
<text text-anchor="middle" x="71.5" y="-134.5" font-family="Helvetica,sans-Serif" font-size="10.00"> </text>
</a>
</g>
</g>
<!-- Node3&#45;&gt;Node1 -->
<g id="edge2" class="edge">
<title>Node3&#45;&gt;Node1</title>
<path fill="none" stroke="midnightblue" d="M71.5,-116.95C71.5,-101.4 71.5,-83.58 71.5,-68.59"/>
<polygon fill="none" stroke="midnightblue" points="68,-117.28 71.5,-127.28 75,-117.28 68,-117.28"/>
</g>
<!-- Node4 -->
<g id="node4" class="node">
<title>Node4</title>
<g id="a_node4"><a xlink:title=" ">
<polygon fill="white" stroke="#bfbfbf" points="111.5,-127.5 111.5,-184.5 155.5,-184.5 155.5,-127.5 111.5,-127.5"/>
<text text-anchor="middle" x="133.5" y="-172.5" font-family="Helvetica,sans-Serif" font-size="10.00">string</text>
<polyline fill="none" stroke="#bfbfbf" points="111.5,-165.5 155.5,-165.5 "/>
<text text-anchor="middle" x="133.5" y="-153.5" font-family="Helvetica,sans-Serif" font-size="10.00"> </text>
<polyline fill="none" stroke="#bfbfbf" points="111.5,-146.5 155.5,-146.5 "/>
<text text-anchor="middle" x="133.5" y="-134.5" font-family="Helvetica,sans-Serif" font-size="10.00"> </text>
</a>
</g>
</g>
<!-- Node4&#45;&gt;Node1 -->
<g id="edge3" class="edge">
<title>Node4&#45;&gt;Node1</title>
<path fill="none" stroke="#404040" d="M119.12,-127.28C111.74,-113.05 102.57,-95.38 94.26,-79.36"/>
<polygon fill="none" stroke="#404040" points="94.19,-79.24 87.88,-75.76 88.67,-68.59 94.98,-72.07 94.19,-79.24"/>
<text text-anchor="middle" x="136" y="-101" font-family="Helvetica,sans-Serif" font-size="10.00"> +CLEANER</text>
<text text-anchor="middle" x="136" y="-90" font-family="Helvetica,sans-Serif" font-size="10.00">+LIGHTING</text>
</g>
</g>
</svg>
