<?xml version="1.0" encoding="UTF-8" standalone="no"?>
<!DOCTYPE svg PUBLIC "-//W3C//DTD SVG 1.1//EN"
 "http://www.w3.org/Graphics/SVG/1.1/DTD/svg11.dtd">
<!-- Generated by graphviz version 2.43.0 (0)
 -->
<!-- Title: local.connection_handler.LocalConnectionHandler.handle_incoming_tcp_connection Pages: 1 -->
<svg width="1725pt" height="702pt"
 viewBox="0.00 0.00 1725.00 702.32" xmlns="http://www.w3.org/2000/svg" xmlns:xlink="http://www.w3.org/1999/xlink">
<g id="graph0" class="graph" transform="scale(1 1) rotate(0) translate(4 698.32)">
<title>local.connection_handler.LocalConnectionHandler.handle_incoming_tcp_connection</title>
<polygon fill="white" stroke="transparent" points="-4,4 -4,-698.32 1721,-698.32 1721,4 -4,4"/>
<!-- Node1 -->
<g id="node1" class="node">
<title>Node1</title>
<g id="a_node1"><a xlink:title=" ">
<polygon fill="#bfbfbf" stroke="black" points="0,-520.23 0,-561.23 170,-561.23 170,-520.23 0,-520.23"/>
<text text-anchor="start" x="8" y="-549.23" font-family="Helvetica,sans-Serif" font-size="10.00">local.connection_handler.</text>
<text text-anchor="start" x="8" y="-538.23" font-family="Helvetica,sans-Serif" font-size="10.00">LocalConnectionHandler.handle</text>
<text text-anchor="middle" x="85" y="-527.23" font-family="Helvetica,sans-Serif" font-size="10.00">_incoming_tcp_connection</text>
</a>
</g>
</g>
<!-- Node2 -->
<g id="node2" class="node">
<title>Node2</title>
<g id="a_node2"><a xlink:href="classlocal_1_1connection__handler_1_1LocalConnectionHandler.html#a7e5e94d8da70d86c87eba78bcde9ff42" target="_top" xlink:title=" ">
<polygon fill="white" stroke="black" points="412,-520.23 412,-561.23 584,-561.23 584,-520.23 412,-520.23"/>
<text text-anchor="start" x="420" y="-549.23" font-family="Helvetica,sans-Serif" font-size="10.00">local.connection_handler.</text>
<text text-anchor="start" x="420" y="-538.23" font-family="Helvetica,sans-Serif" font-size="10.00">LocalConnectionHandler.current</text>
<text text-anchor="middle" x="498" y="-527.23" font-family="Helvetica,sans-Serif" font-size="10.00">_addr_connections</text>
</a>
</g>
</g>
<!-- Node1&#45;&gt;Node2 -->
<g id="edge1" class="edge">
<title>Node1&#45;&gt;Node2</title>
<path fill="none" stroke="midnightblue" d="M170.16,-540.73C237.43,-540.73 331.71,-540.73 401.74,-540.73"/>
<polygon fill="midnightblue" stroke="midnightblue" points="401.89,-544.23 411.89,-540.73 401.89,-537.23 401.89,-544.23"/>
</g>
<!-- Node3 -->
<g id="node3" class="node">
<title>Node3</title>
<g id="a_node3"><a xlink:href="classlocal_1_1connection__handler_1_1LocalConnectionHandler.html#a0b582d0bf1523d1d0404867ab921539f" target="_top" xlink:title=" ">
<polygon fill="white" stroke="black" points="206,-308.23 206,-349.23 376,-349.23 376,-308.23 206,-308.23"/>
<text text-anchor="start" x="214" y="-337.23" font-family="Helvetica,sans-Serif" font-size="10.00">local.connection_handler.</text>
<text text-anchor="start" x="214" y="-326.23" font-family="Helvetica,sans-Serif" font-size="10.00">LocalConnectionHandler.device</text>
<text text-anchor="middle" x="291" y="-315.23" font-family="Helvetica,sans-Serif" font-size="10.00">_handle_local_tcp</text>
</a>
</g>
</g>
<!-- Node1&#45;&gt;Node3 -->
<g id="edge2" class="edge">
<title>Node1&#45;&gt;Node3</title>
<path fill="none" stroke="midnightblue" d="M105.93,-520.02C142.72,-481.78 221.33,-400.09 262.91,-356.88"/>
<polygon fill="midnightblue" stroke="midnightblue" points="265.58,-359.16 269.99,-349.53 260.53,-354.31 265.58,-359.16"/>
</g>
<!-- Node13 -->
<g id="node13" class="node">
<title>Node13</title>
<g id="a_node13"><a xlink:href="namespaceklyqa__ctl_1_1general_1_1general.html#a1afe30a73cc28a3b65babeeab27e36c8" target="_top" xlink:title=" ">
<polygon fill="white" stroke="black" points="1070.5,-473.73 1070.5,-503.73 1234.5,-503.73 1234.5,-473.73 1070.5,-473.73"/>
<text text-anchor="start" x="1078.5" y="-491.73" font-family="Helvetica,sans-Serif" font-size="10.00">klyqa_ctl.general.general.task</text>
<text text-anchor="middle" x="1152.5" y="-480.73" font-family="Helvetica,sans-Serif" font-size="10.00">_log_debug</text>
</a>
</g>
</g>
<!-- Node1&#45;&gt;Node13 -->
<g id="edge40" class="edge">
<title>Node1&#45;&gt;Node13</title>
<path fill="none" stroke="midnightblue" d="M170.27,-550.96C236,-558.34 329.65,-567.54 412,-570.73 488.39,-573.69 508.24,-580.97 584,-570.73 696.84,-555.48 718.52,-520.44 831,-502.73 907.64,-490.66 995.77,-487.58 1060.19,-487.28"/>
<polygon fill="midnightblue" stroke="midnightblue" points="1060.33,-490.78 1070.32,-487.26 1060.31,-483.78 1060.33,-490.78"/>
</g>
<!-- Node3&#45;&gt;Node2 -->
<g id="edge3" class="edge">
<title>Node3&#45;&gt;Node2</title>
<path fill="none" stroke="midnightblue" d="M301.04,-349.37C317.89,-385.68 357.42,-461.34 412,-505.73 416.26,-509.19 420.9,-512.35 425.76,-515.24"/>
<polygon fill="midnightblue" stroke="midnightblue" points="424.23,-518.39 434.68,-520.12 427.59,-512.25 424.23,-518.39"/>
</g>
<!-- Node4 -->
<g id="node4" class="node">
<title>Node4</title>
<g id="a_node4"><a xlink:href="classklyqa__ctl_1_1account_1_1Account.html#a2265c38daf6829c96c852ad4a288b42d" target="_top" xlink:title=" ">
<polygon fill="white" stroke="black" points="1060,-397.23 1060,-416.23 1245,-416.23 1245,-397.23 1060,-397.23"/>
<text text-anchor="middle" x="1152.5" y="-404.23" font-family="Helvetica,sans-Serif" font-size="10.00">klyqa_ctl.account.Account.devices</text>
</a>
</g>
</g>
<!-- Node3&#45;&gt;Node4 -->
<g id="edge4" class="edge">
<title>Node3&#45;&gt;Node4</title>
<path fill="none" stroke="midnightblue" d="M376.02,-332.71C561.55,-341.55 991.05,-362.43 1006,-366.73 1023.59,-371.79 1024.77,-380.56 1042,-386.73 1050.98,-389.94 1060.57,-392.66 1070.19,-394.96"/>
<polygon fill="midnightblue" stroke="midnightblue" points="1069.69,-398.43 1080.22,-397.2 1071.22,-391.6 1069.69,-398.43"/>
</g>
<!-- Node5 -->
<g id="node5" class="node">
<title>Node5</title>
<g id="a_node5"><a xlink:href="classlocal_1_1connection__handler_1_1LocalConnectionHandler.html#a4d307f6bd0b66f3cb9fac3057fc87972" target="_top" xlink:title=" ">
<polygon fill="white" stroke="black" points="1065,-347.73 1065,-377.73 1240,-377.73 1240,-347.73 1065,-347.73"/>
<text text-anchor="start" x="1073" y="-365.73" font-family="Helvetica,sans-Serif" font-size="10.00">local.connection_handler.</text>
<text text-anchor="middle" x="1152.5" y="-354.73" font-family="Helvetica,sans-Serif" font-size="10.00">LocalConnectionHandler.devices</text>
</a>
</g>
</g>
<!-- Node3&#45;&gt;Node5 -->
<g id="edge5" class="edge">
<title>Node3&#45;&gt;Node5</title>
<path fill="none" stroke="midnightblue" d="M376.09,-324.18C509.88,-318.09 779.25,-310.55 1006,-333.73 1030.21,-336.2 1056.38,-340.8 1079.75,-345.62"/>
<polygon fill="midnightblue" stroke="midnightblue" points="1079.08,-349.06 1089.59,-347.69 1080.52,-342.21 1079.08,-349.06"/>
</g>
<!-- Node6 -->
<g id="node6" class="node">
<title>Node6</title>
<g id="a_node6"><a xlink:href="classklyqa__ctl_1_1controller__data_1_1ControllerData.html#adf7af423388a9a883c428cf71e217650" target="_top" xlink:title=" ">
<polygon fill="white" stroke="black" points="1073.5,-133.73 1073.5,-163.73 1231.5,-163.73 1231.5,-133.73 1073.5,-133.73"/>
<text text-anchor="start" x="1081.5" y="-151.73" font-family="Helvetica,sans-Serif" font-size="10.00">klyqa_ctl.controller</text>
<text text-anchor="middle" x="1152.5" y="-140.73" font-family="Helvetica,sans-Serif" font-size="10.00">_data.ControllerData.devices</text>
</a>
</g>
</g>
<!-- Node3&#45;&gt;Node6 -->
<g id="edge6" class="edge">
<title>Node3&#45;&gt;Node6</title>
<path fill="none" stroke="midnightblue" d="M309.99,-308.07C331.61,-284.8 370.24,-247.99 412,-230.73 570.09,-165.4 624.99,-211.65 795,-192.73 886.6,-182.53 991.26,-169.44 1063.37,-160.2"/>
<polygon fill="midnightblue" stroke="midnightblue" points="1063.85,-163.67 1073.32,-158.92 1062.96,-156.72 1063.85,-163.67"/>
</g>
<!-- Node7 -->
<g id="node7" class="node">
<title>Node7</title>
<g id="a_node7"><a xlink:href="classconnection__handler_1_1ConnectionHandler.html#aace4dd2e9f17d3fbb198e81fbf2019dd" target="_top" xlink:title=" ">
<polygon fill="white" stroke="black" points="413.5,-114.73 413.5,-144.73 582.5,-144.73 582.5,-114.73 413.5,-114.73"/>
<text text-anchor="start" x="421.5" y="-132.73" font-family="Helvetica,sans-Serif" font-size="10.00">connection_handler.Connection</text>
<text text-anchor="middle" x="498" y="-121.73" font-family="Helvetica,sans-Serif" font-size="10.00">Handler.handle_connection</text>
</a>
</g>
</g>
<!-- Node3&#45;&gt;Node7 -->
<g id="edge7" class="edge">
<title>Node3&#45;&gt;Node7</title>
<path fill="none" stroke="midnightblue" d="M301.33,-308.2C318.38,-272.9 357.85,-200.58 412,-159.73 417.37,-155.68 423.34,-152.14 429.55,-149.06"/>
<polygon fill="midnightblue" stroke="midnightblue" points="431.12,-152.19 438.77,-144.86 428.22,-145.81 431.12,-152.19"/>
</g>
<!-- Node8 -->
<g id="node8" class="node">
<title>Node8</title>
<g id="a_node8"><a xlink:href="classlocal_1_1connection__handler_1_1LocalConnectionHandler.html#a900e05554022ee9ecb3ba5621369016d" target="_top" xlink:title=" ">
<polygon fill="white" stroke="black" points="413,-240.23 413,-281.23 583,-281.23 583,-240.23 413,-240.23"/>
<text text-anchor="start" x="421" y="-269.23" font-family="Helvetica,sans-Serif" font-size="10.00">local.connection_handler.</text>
<text text-anchor="start" x="421" y="-258.23" font-family="Helvetica,sans-Serif" font-size="10.00">LocalConnectionHandler.handle</text>
<text text-anchor="middle" x="498" y="-247.23" font-family="Helvetica,sans-Serif" font-size="10.00">_connection</text>
</a>
</g>
</g>
<!-- Node3&#45;&gt;Node8 -->
<g id="edge8" class="edge">
<title>Node3&#45;&gt;Node8</title>
<path fill="none" stroke="midnightblue" d="M354.06,-308.14C376.54,-300.69 402.11,-292.2 425.35,-284.5"/>
<polygon fill="midnightblue" stroke="midnightblue" points="426.76,-287.72 435.15,-281.25 424.55,-281.07 426.76,-287.72"/>
</g>
<!-- Node11 -->
<g id="node11" class="node">
<title>Node11</title>
<g id="a_node11"><a xlink:href="namespaceklyqa__ctl_1_1general_1_1general.html#a9df3b50dfc0fcc7c8ec991bb9be9c5ba" target="_top" xlink:title=" ">
<polygon fill="white" stroke="black" points="1299,-457.23 1299,-476.23 1484,-476.23 1484,-457.23 1299,-457.23"/>
<text text-anchor="middle" x="1391.5" y="-464.23" font-family="Helvetica,sans-Serif" font-size="10.00">klyqa_ctl.general.general.task_log</text>
</a>
</g>
</g>
<!-- Node3&#45;&gt;Node11 -->
<g id="edge35" class="edge">
<title>Node3&#45;&gt;Node11</title>
<path fill="none" stroke="midnightblue" d="M337.75,-349.28C408.16,-381.11 539.56,-441.4 584,-467.73 600.98,-477.79 603.03,-483.65 620,-493.73 709.39,-546.82 729.61,-571.71 831,-594.73 1018.32,-637.25 1085.5,-655.15 1263,-581.73 1313.24,-560.95 1356.61,-511.41 1377.4,-484.63"/>
<polygon fill="midnightblue" stroke="midnightblue" points="1380.31,-486.59 1383.56,-476.5 1374.73,-482.36 1380.31,-486.59"/>
</g>
<!-- Node3&#45;&gt;Node13 -->
<g id="edge36" class="edge">
<title>Node3&#45;&gt;Node13</title>
<path fill="none" stroke="midnightblue" d="M376.22,-345.74C388.22,-348.12 400.42,-350.51 412,-352.73 645.25,-397.5 920.49,-447.33 1060.22,-472.41"/>
<polygon fill="midnightblue" stroke="midnightblue" points="1059.99,-475.93 1070.45,-474.25 1061.22,-469.04 1059.99,-475.93"/>
</g>
<!-- Node19 -->
<g id="node19" class="node">
<title>Node19</title>
<g id="a_node19"><a xlink:href="classlocal_1_1connection__handler_1_1LocalConnectionHandler.html#a34b95b45332382bb830a3f1277878268" target="_top" xlink:title=" ">
<polygon fill="white" stroke="black" points="620,-142.23 620,-183.23 795,-183.23 795,-142.23 620,-142.23"/>
<text text-anchor="start" x="628" y="-171.23" font-family="Helvetica,sans-Serif" font-size="10.00">local.connection_handler.</text>
<text text-anchor="start" x="628" y="-160.23" font-family="Helvetica,sans-Serif" font-size="10.00">LocalConnectionHandler.remove</text>
<text text-anchor="middle" x="707.5" y="-149.23" font-family="Helvetica,sans-Serif" font-size="10.00">_msg_from_queue</text>
</a>
</g>
</g>
<!-- Node3&#45;&gt;Node19 -->
<g id="edge34" class="edge">
<title>Node3&#45;&gt;Node19</title>
<path fill="none" stroke="midnightblue" d="M304.07,-308.14C322.91,-278.14 362.32,-223.2 412,-197.73 472.75,-166.59 549.56,-158.31 609.51,-157.57"/>
<polygon fill="midnightblue" stroke="midnightblue" points="609.75,-161.07 619.74,-157.52 609.72,-154.07 609.75,-161.07"/>
</g>
<!-- Node20 -->
<g id="node20" class="node">
<title>Node20</title>
<g id="a_node20"><a xlink:href="namespaceklyqa__ctl_1_1general_1_1general.html#ad6b753e482e539892c57f8144cf213cb" target="_top" xlink:title=" ">
<polygon fill="white" stroke="black" points="625.5,-70.73 625.5,-100.73 789.5,-100.73 789.5,-70.73 625.5,-70.73"/>
<text text-anchor="start" x="633.5" y="-88.73" font-family="Helvetica,sans-Serif" font-size="10.00">klyqa_ctl.general.general.task</text>
<text text-anchor="middle" x="707.5" y="-77.73" font-family="Helvetica,sans-Serif" font-size="10.00">_log_trace_ex</text>
</a>
</g>
</g>
<!-- Node3&#45;&gt;Node20 -->
<g id="edge39" class="edge">
<title>Node3&#45;&gt;Node20</title>
<path fill="none" stroke="midnightblue" d="M296.06,-308.12C306.29,-262.33 337.8,-152.47 412,-104.73 471.69,-66.32 553.02,-63.92 615.09,-69.8"/>
<polygon fill="midnightblue" stroke="midnightblue" points="614.97,-73.31 625.27,-70.86 615.69,-66.34 614.97,-73.31"/>
</g>
<!-- Node22 -->
<g id="node22" class="node">
<title>Node22</title>
<g id="a_node22"><a xlink:href="namespaceklyqa__ctl_1_1general_1_1general.html#abab49b300927a080244615ee3ab494e3" target="_top" xlink:title=" ">
<polygon fill="white" stroke="black" points="625.5,-648.73 625.5,-678.73 789.5,-678.73 789.5,-648.73 625.5,-648.73"/>
<text text-anchor="start" x="633.5" y="-666.73" font-family="Helvetica,sans-Serif" font-size="10.00">klyqa_ctl.general.general.task</text>
<text text-anchor="middle" x="707.5" y="-655.73" font-family="Helvetica,sans-Serif" font-size="10.00">_log_error</text>
</a>
</g>
</g>
<!-- Node3&#45;&gt;Node22 -->
<g id="edge37" class="edge">
<title>Node3&#45;&gt;Node22</title>
<path fill="none" stroke="midnightblue" d="M303.9,-349.23C322.78,-379.89 362.59,-437.31 412,-467.73 479.1,-509.04 527.19,-456.13 584,-510.73 625.07,-550.2 580.72,-592.48 620,-633.73 623.45,-637.35 627.36,-640.54 631.56,-643.34"/>
<polygon fill="midnightblue" stroke="midnightblue" points="630.14,-646.56 640.55,-648.56 633.66,-640.51 630.14,-646.56"/>
</g>
<!-- Node9 -->
<g id="node9" class="node">
<title>Node9</title>
<g id="a_node9"><a xlink:href="classlocal_1_1connection__handler_1_1LocalConnectionHandler.html#aaa28266e241c2e30e8acd468fab06fde" target="_top" xlink:title=" ">
<polygon fill="white" stroke="black" points="620,-240.23 620,-281.23 795,-281.23 795,-240.23 620,-240.23"/>
<text text-anchor="start" x="628" y="-269.23" font-family="Helvetica,sans-Serif" font-size="10.00">local.connection_handler.</text>
<text text-anchor="start" x="628" y="-258.23" font-family="Helvetica,sans-Serif" font-size="10.00">LocalConnectionHandler.process</text>
<text text-anchor="middle" x="707.5" y="-247.23" font-family="Helvetica,sans-Serif" font-size="10.00">_tcp_package</text>
</a>
</g>
</g>
<!-- Node8&#45;&gt;Node9 -->
<g id="edge9" class="edge">
<title>Node8&#45;&gt;Node9</title>
<path fill="none" stroke="midnightblue" d="M583.1,-260.73C591.91,-260.73 600.93,-260.73 609.87,-260.73"/>
<polygon fill="midnightblue" stroke="midnightblue" points="609.92,-264.23 619.92,-260.73 609.92,-257.23 609.92,-264.23"/>
</g>
<!-- Node8&#45;&gt;Node11 -->
<g id="edge30" class="edge">
<title>Node8&#45;&gt;Node11</title>
<path fill="none" stroke="midnightblue" d="M513.1,-281.59C553.95,-339.87 679.12,-503.98 831,-562.73 1010.37,-632.11 1079.41,-595.03 1263,-537.73 1303.1,-525.21 1344.75,-499.12 1369.11,-482.29"/>
<polygon fill="midnightblue" stroke="midnightblue" points="1371.4,-484.96 1377.56,-476.35 1367.37,-479.24 1371.4,-484.96"/>
</g>
<!-- Node8&#45;&gt;Node19 -->
<g id="edge28" class="edge">
<title>Node8&#45;&gt;Node19</title>
<path fill="none" stroke="midnightblue" d="M542.5,-240.18C574.87,-224.9 619.22,-203.95 653.63,-187.7"/>
<polygon fill="midnightblue" stroke="midnightblue" points="655.51,-190.68 663.06,-183.25 652.52,-184.35 655.51,-190.68"/>
</g>
<!-- Node8&#45;&gt;Node20 -->
<g id="edge31" class="edge">
<title>Node8&#45;&gt;Node20</title>
<path fill="none" stroke="midnightblue" d="M514.94,-240.19C536.61,-213.19 577.58,-165.35 620,-132.73 633.34,-122.47 649.21,-113.15 663.69,-105.57"/>
<polygon fill="midnightblue" stroke="midnightblue" points="665.64,-108.5 672.97,-100.84 662.47,-102.26 665.64,-108.5"/>
</g>
<!-- Node10 -->
<g id="node10" class="node">
<title>Node10</title>
<g id="a_node10"><a xlink:href="classlocal_1_1connection__handler_1_1LocalConnectionHandler.html#ad1b4bfaedd513acfccbf1b12e36d5469" target="_top" xlink:title=" ">
<polygon fill="white" stroke="black" points="831,-376.23 831,-417.23 1006,-417.23 1006,-376.23 831,-376.23"/>
<text text-anchor="start" x="839" y="-405.23" font-family="Helvetica,sans-Serif" font-size="10.00">local.connection_handler.</text>
<text text-anchor="start" x="839" y="-394.23" font-family="Helvetica,sans-Serif" font-size="10.00">LocalConnectionHandler.process</text>
<text text-anchor="middle" x="918.5" y="-383.23" font-family="Helvetica,sans-Serif" font-size="10.00">_aes_initial_vector_package</text>
</a>
</g>
</g>
<!-- Node9&#45;&gt;Node10 -->
<g id="edge10" class="edge">
<title>Node9&#45;&gt;Node10</title>
<path fill="none" stroke="midnightblue" d="M740.24,-281.38C776.95,-305.27 837.42,-344.62 877.36,-370.61"/>
<polygon fill="midnightblue" stroke="midnightblue" points="875.51,-373.58 885.8,-376.1 879.33,-367.71 875.51,-373.58"/>
</g>
<!-- Node9&#45;&gt;Node11 -->
<g id="edge27" class="edge">
<title>Node9&#45;&gt;Node11</title>
<path fill="none" stroke="midnightblue" d="M735.5,-240.23C820.87,-178.07 1089.57,-3.17 1263,-123.73 1373.75,-200.72 1388.5,-385.93 1390.3,-446.9"/>
<polygon fill="midnightblue" stroke="midnightblue" points="1386.81,-447.15 1390.51,-457.08 1393.81,-447.01 1386.81,-447.15"/>
</g>
<!-- Node14 -->
<g id="node14" class="node">
<title>Node14</title>
<g id="a_node14"><a xlink:href="classlocal_1_1connection__handler_1_1LocalConnectionHandler.html#a4ce11db96280d000941a91cb37df2842" target="_top" xlink:title=" ">
<polygon fill="white" stroke="black" points="831,-240.23 831,-281.23 1006,-281.23 1006,-240.23 831,-240.23"/>
<text text-anchor="start" x="839" y="-269.23" font-family="Helvetica,sans-Serif" font-size="10.00">local.connection_handler.</text>
<text text-anchor="start" x="839" y="-258.23" font-family="Helvetica,sans-Serif" font-size="10.00">LocalConnectionHandler.process</text>
<text text-anchor="middle" x="918.5" y="-247.23" font-family="Helvetica,sans-Serif" font-size="10.00">_device_identity_package</text>
</a>
</g>
</g>
<!-- Node9&#45;&gt;Node14 -->
<g id="edge15" class="edge">
<title>Node9&#45;&gt;Node14</title>
<path fill="none" stroke="midnightblue" d="M795.02,-260.73C803.49,-260.73 812.13,-260.73 820.7,-260.73"/>
<polygon fill="midnightblue" stroke="midnightblue" points="820.71,-264.23 830.71,-260.73 820.71,-257.23 820.71,-264.23"/>
</g>
<!-- Node18 -->
<g id="node18" class="node">
<title>Node18</title>
<g id="a_node18"><a xlink:href="classlocal_1_1connection__handler_1_1LocalConnectionHandler.html#a46f68728bc59f0e5991bc390f67f2685" target="_top" xlink:title=" ">
<polygon fill="white" stroke="black" points="831,-512.23 831,-553.23 1006,-553.23 1006,-512.23 831,-512.23"/>
<text text-anchor="start" x="839" y="-541.23" font-family="Helvetica,sans-Serif" font-size="10.00">local.connection_handler.</text>
<text text-anchor="start" x="839" y="-530.23" font-family="Helvetica,sans-Serif" font-size="10.00">LocalConnectionHandler.process</text>
<text text-anchor="middle" x="918.5" y="-519.23" font-family="Helvetica,sans-Serif" font-size="10.00">_message_answer_package</text>
</a>
</g>
</g>
<!-- Node9&#45;&gt;Node18 -->
<g id="edge24" class="edge">
<title>Node9&#45;&gt;Node18</title>
<path fill="none" stroke="midnightblue" d="M723.27,-281.41C745.98,-313.06 791.03,-375.24 831,-426.73 851.57,-453.23 875.78,-482.76 893.34,-503.9"/>
<polygon fill="midnightblue" stroke="midnightblue" points="890.87,-506.41 899.96,-511.85 896.25,-501.93 890.87,-506.41"/>
</g>
<!-- Node10&#45;&gt;Node11 -->
<g id="edge11" class="edge">
<title>Node10&#45;&gt;Node11</title>
<path fill="none" stroke="midnightblue" d="M1000.28,-417.24C1014.14,-420.36 1028.44,-423.33 1042,-425.73 1124.48,-440.29 1218.89,-451.04 1288.62,-457.87"/>
<polygon fill="midnightblue" stroke="midnightblue" points="1288.43,-461.37 1298.73,-458.85 1289.11,-454.4 1288.43,-461.37"/>
</g>
<!-- Node10&#45;&gt;Node13 -->
<g id="edge13" class="edge">
<title>Node10&#45;&gt;Node13</title>
<path fill="none" stroke="midnightblue" d="M976.33,-417.26C986.43,-421.6 996.69,-426.47 1006,-431.73 1023.42,-441.56 1024.04,-449.93 1042,-458.73 1051.26,-463.26 1061.3,-467.2 1071.42,-470.58"/>
<polygon fill="midnightblue" stroke="midnightblue" points="1070.54,-473.98 1081.13,-473.67 1072.66,-467.3 1070.54,-473.98"/>
</g>
<!-- Node12 -->
<g id="node12" class="node">
<title>Node12</title>
<g id="a_node12"><a xlink:href="namespaceklyqa__ctl_1_1general_1_1general.html#aea905150cafee39fa2ca211f1e60f012" target="_top" xlink:title=" ">
<polygon fill="white" stroke="black" points="1520,-457.23 1520,-476.23 1717,-476.23 1717,-457.23 1520,-457.23"/>
<text text-anchor="middle" x="1618.5" y="-464.23" font-family="Helvetica,sans-Serif" font-size="10.00">klyqa_ctl.general.general.task_name</text>
</a>
</g>
</g>
<!-- Node11&#45;&gt;Node12 -->
<g id="edge12" class="edge">
<title>Node11&#45;&gt;Node12</title>
<path fill="none" stroke="midnightblue" d="M1484.02,-466.73C1492.5,-466.73 1501.15,-466.73 1509.76,-466.73"/>
<polygon fill="midnightblue" stroke="midnightblue" points="1509.83,-470.23 1519.83,-466.73 1509.83,-463.23 1509.83,-470.23"/>
</g>
<!-- Node13&#45;&gt;Node11 -->
<g id="edge14" class="edge">
<title>Node13&#45;&gt;Node11</title>
<path fill="none" stroke="midnightblue" d="M1234.73,-481.19C1252.14,-479.57 1270.75,-477.84 1288.82,-476.17"/>
<polygon fill="midnightblue" stroke="midnightblue" points="1289.16,-479.65 1298.8,-475.24 1288.52,-472.68 1289.16,-479.65"/>
</g>
<!-- Node14&#45;&gt;Node4 -->
<g id="edge19" class="edge">
<title>Node14&#45;&gt;Node4</title>
<path fill="none" stroke="midnightblue" d="M947.7,-281.33C965.5,-295.08 988.38,-314.16 1006,-333.73 1025.06,-354.89 1018.14,-371.19 1042,-386.73 1045.79,-389.2 1049.8,-391.38 1053.97,-393.32"/>
<polygon fill="midnightblue" stroke="midnightblue" points="1052.72,-396.59 1063.3,-397.15 1055.38,-390.11 1052.72,-396.59"/>
</g>
<!-- Node14&#45;&gt;Node5 -->
<g id="edge20" class="edge">
<title>Node14&#45;&gt;Node5</title>
<path fill="none" stroke="midnightblue" d="M979.79,-281.33C988.9,-285.5 997.93,-290.31 1006,-295.73 1025.04,-308.53 1022.24,-321.07 1042,-332.73 1049.52,-337.17 1057.72,-340.97 1066.14,-344.22"/>
<polygon fill="midnightblue" stroke="midnightblue" points="1065.12,-347.58 1075.71,-347.67 1067.49,-340.99 1065.12,-347.58"/>
</g>
<!-- Node14&#45;&gt;Node6 -->
<g id="edge21" class="edge">
<title>Node14&#45;&gt;Node6</title>
<path fill="none" stroke="midnightblue" d="M982.87,-240.18C991.08,-236.09 999.04,-231.3 1006,-225.73 1027.95,-208.17 1018.72,-189.48 1042,-173.73 1048.72,-169.18 1056.14,-165.46 1063.87,-162.4"/>
<polygon fill="midnightblue" stroke="midnightblue" points="1065.17,-165.65 1073.41,-158.99 1062.82,-159.06 1065.17,-165.65"/>
</g>
<!-- Node14&#45;&gt;Node11 -->
<g id="edge22" class="edge">
<title>Node14&#45;&gt;Node11</title>
<path fill="none" stroke="midnightblue" d="M978.23,-281.24C998.29,-287.76 1020.97,-294.6 1042,-299.73 1138.82,-323.35 1174.63,-291.64 1263,-337.73 1314.65,-364.67 1358.23,-420.03 1378.43,-448.67"/>
<polygon fill="midnightblue" stroke="midnightblue" points="1375.59,-450.72 1384.15,-456.96 1381.35,-446.74 1375.59,-450.72"/>
</g>
<!-- Node14&#45;&gt;Node13 -->
<g id="edge23" class="edge">
<title>Node14&#45;&gt;Node13</title>
<path fill="none" stroke="midnightblue" d="M937.94,-281.58C956.09,-302.48 984.17,-335.91 1006,-366.73 1023.75,-391.8 1020,-404.29 1042,-425.73 1060.47,-443.73 1085.08,-458.49 1106.29,-469.18"/>
<polygon fill="midnightblue" stroke="midnightblue" points="1104.93,-472.41 1115.45,-473.66 1108,-466.12 1104.93,-472.41"/>
</g>
<!-- Node15 -->
<g id="node15" class="node">
<title>Node15</title>
<g id="a_node15"><a xlink:href="classklyqa__ctl_1_1account_1_1Account.html#a7bcb9ac9804621630ea08a688abecd18" target="_top" xlink:title=" ">
<polygon fill="white" stroke="black" points="1042,-183.23 1042,-202.23 1263,-202.23 1263,-183.23 1042,-183.23"/>
<text text-anchor="middle" x="1152.5" y="-190.23" font-family="Helvetica,sans-Serif" font-size="10.00">klyqa_ctl.account.Account.controller_data</text>
</a>
</g>
</g>
<!-- Node14&#45;&gt;Node15 -->
<g id="edge16" class="edge">
<title>Node14&#45;&gt;Node15</title>
<path fill="none" stroke="midnightblue" d="M970.13,-240.2C1002.13,-227.27 1038.16,-212.82 1042,-211.73 1052.06,-208.88 1062.76,-206.38 1073.39,-204.22"/>
<polygon fill="midnightblue" stroke="midnightblue" points="1074.39,-207.59 1083.54,-202.25 1073.05,-200.72 1074.39,-207.59"/>
</g>
<!-- Node16 -->
<g id="node16" class="node">
<title>Node16</title>
<g id="a_node16"><a xlink:href="classcloud_1_1CloudBackend.html#aef174fe1ba95fff13c7901ff56354ec9" target="_top" xlink:title=" ">
<polygon fill="white" stroke="black" points="1057,-271.23 1057,-290.23 1248,-290.23 1248,-271.23 1057,-271.23"/>
<text text-anchor="middle" x="1152.5" y="-278.23" font-family="Helvetica,sans-Serif" font-size="10.00">cloud.CloudBackend.controller_data</text>
</a>
</g>
</g>
<!-- Node14&#45;&gt;Node16 -->
<g id="edge17" class="edge">
<title>Node14&#45;&gt;Node16</title>
<path fill="none" stroke="midnightblue" d="M1006.22,-268.2C1019.35,-269.34 1033.01,-270.51 1046.47,-271.67"/>
<polygon fill="midnightblue" stroke="midnightblue" points="1046.45,-275.19 1056.72,-272.56 1047.06,-268.21 1046.45,-275.19"/>
</g>
<!-- Node17 -->
<g id="node17" class="node">
<title>Node17</title>
<g id="a_node17"><a xlink:href="classlocal_1_1connection__handler_1_1LocalConnectionHandler.html#a8f938ae53b3c24bbdc02f377671cf263" target="_top" xlink:title=" ">
<polygon fill="white" stroke="black" points="1047,-221.73 1047,-251.73 1258,-251.73 1258,-221.73 1047,-221.73"/>
<text text-anchor="start" x="1055" y="-239.73" font-family="Helvetica,sans-Serif" font-size="10.00">local.connection_handler.</text>
<text text-anchor="middle" x="1152.5" y="-228.73" font-family="Helvetica,sans-Serif" font-size="10.00">LocalConnectionHandler.controller_data</text>
</a>
</g>
</g>
<!-- Node14&#45;&gt;Node17 -->
<g id="edge18" class="edge">
<title>Node14&#45;&gt;Node17</title>
<path fill="none" stroke="midnightblue" d="M1006.22,-251.76C1016.16,-250.73 1026.41,-249.67 1036.65,-248.61"/>
<polygon fill="midnightblue" stroke="midnightblue" points="1037.28,-252.06 1046.87,-247.55 1036.56,-245.1 1037.28,-252.06"/>
</g>
<!-- Node18&#45;&gt;Node11 -->
<g id="edge25" class="edge">
<title>Node18&#45;&gt;Node11</title>
<path fill="none" stroke="midnightblue" d="M1006.15,-534.53C1076.14,-534.35 1176.83,-530.39 1263,-512.73 1297.39,-505.68 1335,-491.22 1360.4,-480.39"/>
<polygon fill="midnightblue" stroke="midnightblue" points="1362.05,-483.48 1369.83,-476.29 1359.26,-477.06 1362.05,-483.48"/>
</g>
<!-- Node18&#45;&gt;Node13 -->
<g id="edge26" class="edge">
<title>Node18&#45;&gt;Node13</title>
<path fill="none" stroke="midnightblue" d="M1006.22,-516.28C1024.55,-512.81 1043.92,-509.13 1062.34,-505.64"/>
<polygon fill="midnightblue" stroke="midnightblue" points="1062.99,-509.08 1072.16,-503.78 1061.68,-502.2 1062.99,-509.08"/>
</g>
<!-- Node19&#45;&gt;Node11 -->
<g id="edge29" class="edge">
<title>Node19&#45;&gt;Node11</title>
<path fill="none" stroke="midnightblue" d="M739.53,-142.09C763.45,-127.3 797.94,-108.35 831,-98.73 923.25,-71.87 1185.13,-24.44 1263,-80.73 1385.75,-169.46 1392.3,-380.7 1391.21,-446.68"/>
<polygon fill="midnightblue" stroke="midnightblue" points="1387.7,-446.85 1390.95,-456.94 1394.7,-447.03 1387.7,-446.85"/>
</g>
<!-- Node21 -->
<g id="node21" class="node">
<title>Node21</title>
<g id="a_node21"><a xlink:href="namespaceklyqa__ctl_1_1general_1_1general.html#ab2f9a22e98cd16d0d284d22382cfcb02" target="_top" xlink:title=" ">
<polygon fill="white" stroke="black" points="836.5,-7.73 836.5,-37.73 1000.5,-37.73 1000.5,-7.73 836.5,-7.73"/>
<text text-anchor="start" x="844.5" y="-25.73" font-family="Helvetica,sans-Serif" font-size="10.00">klyqa_ctl.general.general.task</text>
<text text-anchor="middle" x="918.5" y="-14.73" font-family="Helvetica,sans-Serif" font-size="10.00">_log_trace</text>
</a>
</g>
</g>
<!-- Node20&#45;&gt;Node21 -->
<g id="edge32" class="edge">
<title>Node20&#45;&gt;Node21</title>
<path fill="none" stroke="midnightblue" d="M758.3,-70.72C788.15,-61.72 826.29,-50.22 857.76,-40.74"/>
<polygon fill="midnightblue" stroke="midnightblue" points="859.16,-43.97 867.72,-37.73 857.14,-37.27 859.16,-43.97"/>
</g>
<!-- Node21&#45;&gt;Node11 -->
<g id="edge33" class="edge">
<title>Node21&#45;&gt;Node11</title>
<path fill="none" stroke="midnightblue" d="M990.77,-7.72C1066.78,3.91 1186.52,9.06 1263,-52.73 1327.27,-104.65 1375.14,-372.42 1387.42,-447.27"/>
<polygon fill="midnightblue" stroke="midnightblue" points="1383.97,-447.9 1389.02,-457.22 1390.88,-446.79 1383.97,-447.9"/>
</g>
<!-- Node22&#45;&gt;Node11 -->
<g id="edge38" class="edge">
<title>Node22&#45;&gt;Node11</title>
<path fill="none" stroke="midnightblue" d="M785.07,-678.74C897.19,-696.67 1109.38,-714.96 1263,-633.73 1325.22,-600.83 1366.08,-522.65 1382.43,-486.14"/>
<polygon fill="midnightblue" stroke="midnightblue" points="1385.79,-487.2 1386.55,-476.63 1379.37,-484.41 1385.79,-487.2"/>
</g>
</g>
</svg>
