<?xml version="1.0" encoding="UTF-8" standalone="no"?>
<!DOCTYPE svg PUBLIC "-//W3C//DTD SVG 1.1//EN"
 "http://www.w3.org/Graphics/SVG/1.1/DTD/svg11.dtd">
<!-- Generated by graphviz version 2.43.0 (0)
 -->
<!-- Title: klyqa_ctl.account.Account.devices Pages: 1 -->
<!--zoomable 472 -->
<svg id="main" version="1.1" xmlns="http://www.w3.org/2000/svg" xmlns:xlink="http://www.w3.org/1999/xlink" xml:space="preserve" onload="init(evt)">
<style type="text/css"><![CDATA[
.edge:hover path { stroke: red; }
.edge:hover polygon { stroke: red; fill: red; }
]]></style>
<script type="text/javascript"><![CDATA[
var edges = document.getElementsByTagName('g');
if (edges && edges.length) {
  for (var i=0;i<edges.length;i++) {
    if (edges[i].id.substr(0,4)=='edge') {
      edges[i].setAttribute('class','edge');
    }
  }
}
]]></script>
        <defs>
                <circle id="rim" cx="0" cy="0" r="7"/>
                <circle id="rim2" cx="0" cy="0" r="3.5"/>
                <g id="zoomPlus">
                        <use xlink:href="#rim" fill="#404040">
                                <set attributeName="fill" to="#808080" begin="zoomplus.mouseover" end="zoomplus.mouseout"/>
                        </use>
                        <path d="M-4,0h8M0,-4v8" fill="none" stroke="white" stroke-width="1.5" pointer-events="none"/>
                </g>
                <g id="zoomMin">
                        <use xlink:href="#rim" fill="#404040">
                                <set attributeName="fill" to="#808080" begin="zoomminus.mouseover" end="zoomminus.mouseout"/>
                        </use>
                        <path d="M-4,0h8" fill="none" stroke="white" stroke-width="1.5" pointer-events="none"/>
                </g>
                <g id="dirArrow">
                        <path fill="none" stroke="white" stroke-width="1.5" d="M0,-3.0v7 M-2.5,-0.5L0,-3.0L2.5,-0.5"/>
                </g>
               <g id="resetDef">
                       <use xlink:href="#rim2" fill="#404040">
                               <set attributeName="fill" to="#808080" begin="reset.mouseover" end="reset.mouseout"/>
                       </use>
               </g>
        </defs>

<script type="text/javascript">
var viewWidth = 1460;
var viewHeight = 472;
var sectionId = 'dynsection-17';
</script>
<script xlink:href="svgpan.js"/>
<svg id="graph" class="graph">
<g id="viewport">
<title>klyqa_ctl.account.Account.devices</title>
<polygon fill="white" stroke="transparent" points="-4,4 -4,-468 1456,-468 1456,4 -4,4"/>
<!-- Node1 -->
<g id="node1" class="node">
<title>Node1</title>
<g id="a_node1"><a xlink:title=" ">
<polygon fill="#bfbfbf" stroke="black" points="1267,-227.5 1267,-246.5 1452,-246.5 1452,-227.5 1267,-227.5"/>
<text text-anchor="middle" x="1359.5" y="-234.5" font-family="Helvetica,sans-Serif" font-size="10.00">klyqa_ctl.account.Account.devices</text>
</a>
</g>
</g>
<!-- Node2 -->
<g id="node2" class="node">
<title>Node2</title>
<g id="a_node2"><a xlink:href="classklyqa__ctl_1_1account__control_1_1AccountControl.html#a5b4b4e18362cea70b456d2ffc78467a3" target="_top" xlink:title=" ">
<polygon fill="white" stroke="black" points="847.5,-405 847.5,-435 991.5,-435 991.5,-405 847.5,-405"/>
<text text-anchor="start" x="855.5" y="-423" font-family="Helvetica,sans-Serif" font-size="10.00">klyqa_ctl.account_control.</text>
<text text-anchor="middle" x="919.5" y="-412" font-family="Helvetica,sans-Serif" font-size="10.00">AccountControl.__init__</text>
</a>
</g>
</g>
<!-- Node1&#45;&gt;Node2 -->
<g id="edge1" class="edge">
<title>Node1&#45;&gt;Node2</title>
<path fill="none" stroke="midnightblue" d="M1340.29,-253.43C1316.65,-273.97 1273.41,-308.98 1231,-330 1153.31,-368.51 1056.3,-393.32 991.59,-406.94"/>
<polygon fill="midnightblue" stroke="midnightblue" points="1342.88,-255.81 1348.07,-246.57 1338.25,-250.56 1342.88,-255.81"/>
</g>
<!-- Node3 -->
<g id="node3" class="node">
<title>Node3</title>
<g id="a_node3"><a xlink:href="classlocal_1_1connection__handler_1_1LocalConnectionHandler.html#a0b582d0bf1523d1d0404867ab921539f" target="_top" xlink:title=" ">
<polygon fill="white" stroke="black" points="206,-235.5 206,-276.5 376,-276.5 376,-235.5 206,-235.5"/>
<text text-anchor="start" x="214" y="-264.5" font-family="Helvetica,sans-Serif" font-size="10.00">local.connection_handler.</text>
<text text-anchor="start" x="214" y="-253.5" font-family="Helvetica,sans-Serif" font-size="10.00">LocalConnectionHandler.device</text>
<text text-anchor="middle" x="291" y="-242.5" font-family="Helvetica,sans-Serif" font-size="10.00">_handle_local_tcp</text>
</a>
</g>
</g>
<!-- Node1&#45;&gt;Node3 -->
<g id="edge2" class="edge">
<title>Node1&#45;&gt;Node3</title>
<path fill="none" stroke="midnightblue" d="M1346.56,-255.07C1326.26,-284.44 1282.18,-342.49 1231,-375 1109.82,-451.96 1064.06,-464 920.5,-464 920.5,-464 920.5,-464 704.5,-464 539.28,-464 372.86,-329.32 314.15,-276.7"/>
<polygon fill="midnightblue" stroke="midnightblue" points="1349.58,-256.85 1352.3,-246.61 1343.79,-252.93 1349.58,-256.85"/>
</g>
<!-- Node5 -->
<g id="node5" class="node">
<title>Node5</title>
<g id="a_node5"><a xlink:href="classklyqa__ctl_1_1account_1_1Account.html#aaa16efea1dd2cf549168e5d8702fc670" target="_top" xlink:title=" ">
<polygon fill="white" stroke="black" points="1046,-203.5 1046,-222.5 1231,-222.5 1231,-203.5 1046,-203.5"/>
<text text-anchor="middle" x="1138.5" y="-210.5" font-family="Helvetica,sans-Serif" font-size="10.00">klyqa_ctl.account.Account.devices</text>
</a>
</g>
</g>
<!-- Node1&#45;&gt;Node5 -->
<g id="edge4" class="edge">
<title>Node1&#45;&gt;Node5</title>
<path fill="none" stroke="midnightblue" d="M1261.41,-226.36C1249.7,-225.08 1237.81,-223.77 1226.26,-222.51"/>
<polygon fill="midnightblue" stroke="midnightblue" points="1261.31,-229.87 1271.63,-227.48 1262.07,-222.91 1261.31,-229.87"/>
</g>
<!-- Node6 -->
<g id="node6" class="node">
<title>Node6</title>
<g id="a_node6"><a xlink:href="classklyqa__ctl_1_1controller__data_1_1ControllerData.html#a006615491c01ae305bbf34eb2fc47e09" target="_top" xlink:title=" ">
<polygon fill="white" stroke="black" points="851,-295.5 851,-336.5 988,-336.5 988,-295.5 851,-295.5"/>
<text text-anchor="start" x="859" y="-324.5" font-family="Helvetica,sans-Serif" font-size="10.00">klyqa_ctl.controller</text>
<text text-anchor="start" x="859" y="-313.5" font-family="Helvetica,sans-Serif" font-size="10.00">_data.ControllerData.get</text>
<text text-anchor="middle" x="919.5" y="-302.5" font-family="Helvetica,sans-Serif" font-size="10.00">_or_create_device</text>
</a>
</g>
</g>
<!-- Node1&#45;&gt;Node6 -->
<g id="edge22" class="edge">
<title>Node1&#45;&gt;Node6</title>
<path fill="none" stroke="midnightblue" d="M1295.53,-248.36C1213.91,-263.08 1072.13,-288.65 988.24,-303.78"/>
<polygon fill="midnightblue" stroke="midnightblue" points="1296.45,-251.75 1305.67,-246.53 1295.2,-244.86 1296.45,-251.75"/>
</g>
<!-- Node8 -->
<g id="node8" class="node">
<title>Node8</title>
<g id="a_node8"><a xlink:href="classklyqa__ctl_1_1account_1_1Account.html#adad4d644a9bbb3633405dac89e86edd3" target="_top" xlink:title=" ">
<polygon fill="white" stroke="black" points="838,-356 838,-386 1001,-386 1001,-356 838,-356"/>
<text text-anchor="start" x="846" y="-374" font-family="Helvetica,sans-Serif" font-size="10.00">klyqa_ctl.account.Account.get</text>
<text text-anchor="middle" x="919.5" y="-363" font-family="Helvetica,sans-Serif" font-size="10.00">_or_create_device</text>
</a>
</g>
</g>
<!-- Node1&#45;&gt;Node8 -->
<g id="edge23" class="edge">
<title>Node1&#45;&gt;Node8</title>
<path fill="none" stroke="midnightblue" d="M1328.93,-250.67C1303.37,-262.15 1265.25,-278.48 1231,-290 1149.16,-317.54 1052.59,-341.42 989.14,-355.98"/>
<polygon fill="midnightblue" stroke="midnightblue" points="1330.41,-253.84 1338.08,-246.53 1327.52,-247.46 1330.41,-253.84"/>
</g>
<!-- Node9 -->
<g id="node9" class="node">
<title>Node9</title>
<g id="a_node9"><a xlink:href="classklyqa__ctl_1_1account_1_1Account.html#a0b171a600e4342d035ad26c39b384b38" target="_top" xlink:title=" ">
<polygon fill="white" stroke="black" points="834,-159.5 834,-178.5 1005,-178.5 1005,-159.5 834,-159.5"/>
<text text-anchor="middle" x="919.5" y="-166.5" font-family="Helvetica,sans-Serif" font-size="10.00">klyqa_ctl.account.Account.login</text>
</a>
</g>
</g>
<!-- Node1&#45;&gt;Node9 -->
<g id="edge24" class="edge">
<title>Node1&#45;&gt;Node9</title>
<path fill="none" stroke="midnightblue" d="M1325.97,-223.56C1300.57,-213.67 1264.13,-200.81 1231,-194 1155.65,-178.5 1068.17,-172.51 1005.3,-170.24"/>
<polygon fill="midnightblue" stroke="midnightblue" points="1324.89,-226.9 1335.47,-227.32 1327.46,-220.39 1324.89,-226.9"/>
</g>
<!-- Node10 -->
<g id="node10" class="node">
<title>Node10</title>
<g id="a_node10"><a xlink:href="classlocal_1_1connection__handler_1_1LocalConnectionHandler.html#a4ce11db96280d000941a91cb37df2842" target="_top" xlink:title=" ">
<polygon fill="white" stroke="black" points="832,-235.5 832,-276.5 1007,-276.5 1007,-235.5 832,-235.5"/>
<text text-anchor="start" x="840" y="-264.5" font-family="Helvetica,sans-Serif" font-size="10.00">local.connection_handler.</text>
<text text-anchor="start" x="840" y="-253.5" font-family="Helvetica,sans-Serif" font-size="10.00">LocalConnectionHandler.process</text>
<text text-anchor="middle" x="919.5" y="-242.5" font-family="Helvetica,sans-Serif" font-size="10.00">_device_identity_package</text>
</a>
</g>
</g>
<!-- Node1&#45;&gt;Node10 -->
<g id="edge25" class="edge">
<title>Node1&#45;&gt;Node10</title>
<path fill="none" stroke="midnightblue" d="M1256.92,-241.41C1181.21,-244.69 1078.93,-249.13 1007.09,-252.24"/>
<polygon fill="midnightblue" stroke="midnightblue" points="1257.11,-244.9 1266.95,-240.97 1256.81,-237.91 1257.11,-244.9"/>
</g>
<!-- Node13 -->
<g id="node13" class="node">
<title>Node13</title>
<g id="a_node13"><a xlink:href="classklyqa__ctl_1_1klyqa__ctl_1_1Client.html#a40aba5774804e631745f63c3c91ec049" target="_top" xlink:title=" ">
<polygon fill="white" stroke="black" points="833.5,-110 833.5,-140 1005.5,-140 1005.5,-110 833.5,-110"/>
<text text-anchor="start" x="841.5" y="-128" font-family="Helvetica,sans-Serif" font-size="10.00">klyqa_ctl.klyqa_ctl.Client.select</text>
<text text-anchor="middle" x="919.5" y="-117" font-family="Helvetica,sans-Serif" font-size="10.00">_device</text>
</a>
</g>
</g>
<!-- Node1&#45;&gt;Node13 -->
<g id="edge26" class="edge">
<title>Node1&#45;&gt;Node13</title>
<path fill="none" stroke="midnightblue" d="M1336.15,-221.67C1311.54,-205.57 1270.23,-180.86 1231,-168 1157.18,-143.8 1069.14,-133.22 1005.69,-128.59"/>
<polygon fill="midnightblue" stroke="midnightblue" points="1334.46,-224.75 1344.73,-227.37 1338.34,-218.92 1334.46,-224.75"/>
</g>
<!-- Node16 -->
<g id="node16" class="node">
<title>Node16</title>
<g id="a_node16"><a xlink:href="classklyqa__ctl_1_1account_1_1Account.html#a4fb47c923d3a579054e8cc72480906fb" target="_top" xlink:title=" ">
<polygon fill="white" stroke="black" points="829,-61 829,-91 1010,-91 1010,-61 829,-61"/>
<text text-anchor="start" x="837" y="-79" font-family="Helvetica,sans-Serif" font-size="10.00">klyqa_ctl.account.Account.update</text>
<text text-anchor="middle" x="919.5" y="-68" font-family="Helvetica,sans-Serif" font-size="10.00">_device_configs</text>
</a>
</g>
</g>
<!-- Node1&#45;&gt;Node16 -->
<g id="edge27" class="edge">
<title>Node1&#45;&gt;Node16</title>
<path fill="none" stroke="midnightblue" d="M1343.58,-219.48C1321.61,-194.95 1278.05,-150.91 1231,-129 1161.23,-96.5 1074.32,-83.72 1010.21,-78.79"/>
<polygon fill="midnightblue" stroke="midnightblue" points="1341.19,-222.07 1350.42,-227.27 1346.45,-217.45 1341.19,-222.07"/>
</g>
<!-- Node17 -->
<g id="node17" class="node">
<title>Node17</title>
<g id="a_node17"><a xlink:href="classklyqa__ctl_1_1account__control_1_1AccountControl.html#a46d51f33622ad0e952a66d0d1b91eb12" target="_top" xlink:title=" ">
<polygon fill="white" stroke="black" points="837,-0.5 837,-41.5 1002,-41.5 1002,-0.5 837,-0.5"/>
<text text-anchor="start" x="845" y="-29.5" font-family="Helvetica,sans-Serif" font-size="10.00">klyqa_ctl.account_control.</text>
<text text-anchor="start" x="845" y="-18.5" font-family="Helvetica,sans-Serif" font-size="10.00">AccountControl.update_device</text>
<text text-anchor="middle" x="919.5" y="-7.5" font-family="Helvetica,sans-Serif" font-size="10.00">_configs</text>
</a>
</g>
</g>
<!-- Node1&#45;&gt;Node17 -->
<g id="edge28" class="edge">
<title>Node1&#45;&gt;Node17</title>
<path fill="none" stroke="midnightblue" d="M1349,-217.92C1331.02,-183.97 1288.6,-113.39 1231,-79 1161.2,-37.32 1068.11,-24.47 1002.12,-21.03"/>
<polygon fill="midnightblue" stroke="midnightblue" points="1346.09,-219.92 1353.79,-227.2 1352.31,-216.71 1346.09,-219.92"/>
</g>
<!-- Node4 -->
<g id="node4" class="node">
<title>Node4</title>
<g id="a_node4"><a xlink:href="classlocal_1_1connection__handler_1_1LocalConnectionHandler.html#a5e9277acd0b7bfa5a1e74417e0e10d86" target="_top" xlink:title=" ">
<polygon fill="white" stroke="black" points="0,-235.5 0,-276.5 170,-276.5 170,-235.5 0,-235.5"/>
<text text-anchor="start" x="8" y="-264.5" font-family="Helvetica,sans-Serif" font-size="10.00">local.connection_handler.</text>
<text text-anchor="start" x="8" y="-253.5" font-family="Helvetica,sans-Serif" font-size="10.00">LocalConnectionHandler.handle</text>
<text text-anchor="middle" x="85" y="-242.5" font-family="Helvetica,sans-Serif" font-size="10.00">_incoming_tcp_connection</text>
</a>
</g>
</g>
<!-- Node3&#45;&gt;Node4 -->
<g id="edge3" class="edge">
<title>Node3&#45;&gt;Node4</title>
<path fill="none" stroke="midnightblue" d="M195.6,-256C187.15,-256 178.64,-256 170.29,-256"/>
<polygon fill="midnightblue" stroke="midnightblue" points="195.85,-259.5 205.85,-256 195.85,-252.5 195.85,-259.5"/>
</g>
<!-- Node5&#45;&gt;Node2 -->
<g id="edge5" class="edge">
<title>Node5&#45;&gt;Node2</title>
<path fill="none" stroke="midnightblue" d="M1129.68,-232C1113.3,-269.4 1071.7,-352.68 1010,-396 1004.34,-399.97 998.05,-403.29 991.52,-406.06"/>
<polygon fill="midnightblue" stroke="midnightblue" points="1132.93,-233.31 1133.63,-222.74 1126.49,-230.57 1132.93,-233.31"/>
</g>
<!-- Node5&#45;&gt;Node3 -->
<g id="edge6" class="edge">
<title>Node5&#45;&gt;Node3</title>
<path fill="none" stroke="midnightblue" d="M1035.61,-207.58C894.73,-201.74 632.83,-196.8 412,-226 395.93,-228.13 378.9,-231.61 362.87,-235.46"/>
<polygon fill="midnightblue" stroke="midnightblue" points="1035.81,-211.1 1045.95,-208.02 1036.11,-204.1 1035.81,-211.1"/>
</g>
<!-- Node5&#45;&gt;Node6 -->
<g id="edge7" class="edge">
<title>Node5&#45;&gt;Node6</title>
<path fill="none" stroke="midnightblue" d="M1114.34,-228.12C1089.33,-243.99 1047.97,-268.97 1010,-286 1002.67,-289.29 994.87,-292.41 987.05,-295.32"/>
<polygon fill="midnightblue" stroke="midnightblue" points="1116.55,-230.86 1123.08,-222.52 1112.77,-224.97 1116.55,-230.86"/>
</g>
<!-- Node5&#45;&gt;Node8 -->
<g id="edge9" class="edge">
<title>Node5&#45;&gt;Node8</title>
<path fill="none" stroke="midnightblue" d="M1125.23,-231.01C1104.74,-259.69 1060.77,-315.61 1010,-346 1003.63,-349.81 996.66,-353.06 989.52,-355.83"/>
<polygon fill="midnightblue" stroke="midnightblue" points="1128.16,-232.92 1131.03,-222.72 1122.43,-228.9 1128.16,-232.92"/>
</g>
<!-- Node5&#45;&gt;Node9 -->
<g id="edge11" class="edge">
<title>Node5&#45;&gt;Node9</title>
<path fill="none" stroke="midnightblue" d="M1080.29,-201.4C1045.12,-194.27 1000.6,-185.24 967.49,-178.53"/>
<polygon fill="midnightblue" stroke="midnightblue" points="1079.92,-204.9 1090.41,-203.45 1081.31,-198.04 1079.92,-204.9"/>
</g>
<!-- Node5&#45;&gt;Node10 -->
<g id="edge12" class="edge">
<title>Node5&#45;&gt;Node10</title>
<path fill="none" stroke="midnightblue" d="M1079.45,-224.5C1057.33,-228.89 1031.61,-233.98 1007.39,-238.78"/>
<polygon fill="midnightblue" stroke="midnightblue" points="1080.21,-227.92 1089.34,-222.54 1078.85,-221.05 1080.21,-227.92"/>
</g>
<!-- Node5&#45;&gt;Node13 -->
<g id="edge16" class="edge">
<title>Node5&#45;&gt;Node13</title>
<path fill="none" stroke="midnightblue" d="M1111.69,-198.46C1086.38,-184.63 1046.39,-163.93 1010,-150 1000.51,-146.37 990.27,-143.01 980.22,-140.01"/>
<polygon fill="midnightblue" stroke="midnightblue" points="1110.19,-201.63 1120.63,-203.39 1113.57,-195.5 1110.19,-201.63"/>
</g>
<!-- Node5&#45;&gt;Node16 -->
<g id="edge20" class="edge">
<title>Node5&#45;&gt;Node16</title>
<path fill="none" stroke="midnightblue" d="M1122.78,-195.62C1100.77,-170.74 1056.83,-125.2 1010,-100 1003.62,-96.57 996.73,-93.6 989.68,-91.05"/>
<polygon fill="midnightblue" stroke="midnightblue" points="1120.42,-198.24 1129.62,-203.49 1125.71,-193.65 1120.42,-198.24"/>
</g>
<!-- Node5&#45;&gt;Node17 -->
<g id="edge21" class="edge">
<title>Node5&#45;&gt;Node17</title>
<path fill="none" stroke="midnightblue" d="M1127.62,-194.22C1109.04,-160.66 1065.68,-90.23 1010,-51 1005.04,-47.51 999.65,-44.4 994.05,-41.63"/>
<polygon fill="midnightblue" stroke="midnightblue" points="1124.74,-196.25 1132.58,-203.38 1130.9,-192.92 1124.74,-196.25"/>
</g>
<!-- Node7 -->
<g id="node7" class="node">
<title>Node7</title>
<g id="a_node7"><a xlink:href="classklyqa__ctl_1_1account_1_1Account.html#a8e93f6fe918bf32c172447d4ef439d2d" target="_top" xlink:title=" ">
<polygon fill="white" stroke="black" points="620.5,-328 620.5,-358 790.5,-358 790.5,-328 620.5,-328"/>
<text text-anchor="start" x="628.5" y="-346" font-family="Helvetica,sans-Serif" font-size="10.00">klyqa_ctl.account.Account.sync</text>
<text text-anchor="middle" x="705.5" y="-335" font-family="Helvetica,sans-Serif" font-size="10.00">_acc_settings_to_controller</text>
</a>
</g>
</g>
<!-- Node6&#45;&gt;Node7 -->
<g id="edge8" class="edge">
<title>Node6&#45;&gt;Node7</title>
<path fill="none" stroke="midnightblue" d="M840.81,-325.89C824.48,-327.97 807.18,-330.18 790.63,-332.29"/>
<polygon fill="midnightblue" stroke="midnightblue" points="841.36,-329.35 850.84,-324.62 840.48,-322.41 841.36,-329.35"/>
</g>
<!-- Node8&#45;&gt;Node7 -->
<g id="edge10" class="edge">
<title>Node8&#45;&gt;Node7</title>
<path fill="none" stroke="midnightblue" d="M827.52,-358.98C815.24,-357.36 802.7,-355.71 790.55,-354.1"/>
<polygon fill="midnightblue" stroke="midnightblue" points="827.37,-362.49 837.75,-360.33 828.29,-355.56 827.37,-362.49"/>
</g>
<!-- Node11 -->
<g id="node11" class="node">
<title>Node11</title>
<g id="a_node11"><a xlink:href="classlocal_1_1connection__handler_1_1LocalConnectionHandler.html#aaa28266e241c2e30e8acd468fab06fde" target="_top" xlink:title=" ">
<polygon fill="white" stroke="black" points="618,-235.5 618,-276.5 793,-276.5 793,-235.5 618,-235.5"/>
<text text-anchor="start" x="626" y="-264.5" font-family="Helvetica,sans-Serif" font-size="10.00">local.connection_handler.</text>
<text text-anchor="start" x="626" y="-253.5" font-family="Helvetica,sans-Serif" font-size="10.00">LocalConnectionHandler.process</text>
<text text-anchor="middle" x="705.5" y="-242.5" font-family="Helvetica,sans-Serif" font-size="10.00">_tcp_package</text>
</a>
</g>
</g>
<!-- Node10&#45;&gt;Node11 -->
<g id="edge13" class="edge">
<title>Node10&#45;&gt;Node11</title>
<path fill="none" stroke="midnightblue" d="M821.68,-256C812.15,-256 802.52,-256 793.1,-256"/>
<polygon fill="midnightblue" stroke="midnightblue" points="821.97,-259.5 831.97,-256 821.97,-252.5 821.97,-259.5"/>
</g>
<!-- Node12 -->
<g id="node12" class="node">
<title>Node12</title>
<g id="a_node12"><a xlink:href="classlocal_1_1connection__handler_1_1LocalConnectionHandler.html#a900e05554022ee9ecb3ba5621369016d" target="_top" xlink:title=" ">
<polygon fill="white" stroke="black" points="412,-235.5 412,-276.5 582,-276.5 582,-235.5 412,-235.5"/>
<text text-anchor="start" x="420" y="-264.5" font-family="Helvetica,sans-Serif" font-size="10.00">local.connection_handler.</text>
<text text-anchor="start" x="420" y="-253.5" font-family="Helvetica,sans-Serif" font-size="10.00">LocalConnectionHandler.handle</text>
<text text-anchor="middle" x="497" y="-242.5" font-family="Helvetica,sans-Serif" font-size="10.00">_connection</text>
</a>
</g>
</g>
<!-- Node11&#45;&gt;Node12 -->
<g id="edge14" class="edge">
<title>Node11&#45;&gt;Node12</title>
<path fill="none" stroke="midnightblue" d="M607.8,-256C599.23,-256 590.6,-256 582.14,-256"/>
<polygon fill="midnightblue" stroke="midnightblue" points="607.82,-259.5 617.82,-256 607.82,-252.5 607.82,-259.5"/>
</g>
<!-- Node12&#45;&gt;Node3 -->
<g id="edge15" class="edge">
<title>Node12&#45;&gt;Node3</title>
<path fill="none" stroke="midnightblue" d="M401.6,-256C393.15,-256 384.64,-256 376.29,-256"/>
<polygon fill="midnightblue" stroke="midnightblue" points="401.85,-259.5 411.85,-256 401.85,-252.5 401.85,-259.5"/>
</g>
<!-- Node14 -->
<g id="node14" class="node">
<title>Node14</title>
<g id="a_node14"><a xlink:href="classklyqa__ctl_1_1klyqa__ctl_1_1Client.html#ad5c42cd8dd34ed1d6329040e164bfc2e" target="_top" xlink:title=" ">
<polygon fill="white" stroke="black" points="622.5,-110 622.5,-140 788.5,-140 788.5,-110 622.5,-110"/>
<text text-anchor="start" x="630.5" y="-128" font-family="Helvetica,sans-Serif" font-size="10.00">klyqa_ctl.klyqa_ctl.Client.send</text>
<text text-anchor="middle" x="705.5" y="-117" font-family="Helvetica,sans-Serif" font-size="10.00">_to_devices</text>
</a>
</g>
</g>
<!-- Node13&#45;&gt;Node14 -->
<g id="edge17" class="edge">
<title>Node13&#45;&gt;Node14</title>
<path fill="none" stroke="midnightblue" d="M823.4,-125C811.84,-125 800.11,-125 788.77,-125"/>
<polygon fill="midnightblue" stroke="midnightblue" points="823.49,-128.5 833.49,-125 823.49,-121.5 823.49,-128.5"/>
</g>
<!-- Node14&#45;&gt;Node14 -->
<g id="edge18" class="edge">
<title>Node14&#45;&gt;Node14</title>
<path fill="none" stroke="midnightblue" d="M742.46,-150.46C737.87,-155.18 725.55,-158.5 705.5,-158.5 672.59,-158.5 660.51,-149.56 669.25,-140.16"/>
<polygon fill="midnightblue" stroke="midnightblue" points="745.93,-149.89 741.75,-140.16 738.95,-150.38 745.93,-149.89"/>
</g>
<!-- Node15 -->
<g id="node15" class="node">
<title>Node15</title>
<g id="a_node15"><a xlink:href="classklyqa__ctl_1_1klyqa__ctl_1_1Client.html#a7a93bda9f242d678a4208d0962837f11" target="_top" xlink:title=" ">
<polygon fill="white" stroke="black" points="414,-110 414,-140 580,-140 580,-110 414,-110"/>
<text text-anchor="start" x="422" y="-128" font-family="Helvetica,sans-Serif" font-size="10.00">klyqa_ctl.klyqa_ctl.Client.send</text>
<text text-anchor="middle" x="497" y="-117" font-family="Helvetica,sans-Serif" font-size="10.00">_to_devices_wrapped</text>
</a>
</g>
</g>
<!-- Node14&#45;&gt;Node15 -->
<g id="edge19" class="edge">
<title>Node14&#45;&gt;Node15</title>
<path fill="none" stroke="midnightblue" d="M612.16,-125C601.53,-125 590.75,-125 580.26,-125"/>
<polygon fill="midnightblue" stroke="midnightblue" points="612.29,-128.5 622.29,-125 612.29,-121.5 612.29,-128.5"/>
</g>
</g>
</svg>
        <g id="navigator" transform="translate(0 0)" fill="#404254">
                <rect fill="#f2f5e9" fill-opacity="0.5" stroke="#606060" stroke-width=".5" x="0" y="0" width="60" height="60"/>
                <use id="zoomplus" xlink:href="#zoomPlus" x="17" y="9" onmousedown="handleZoom(evt,'in')"/>
                <use id="zoomminus" xlink:href="#zoomMin" x="42" y="9" onmousedown="handleZoom(evt,'out')"/>
                <use id="reset" xlink:href="#resetDef" x="30" y="36" onmousedown="handleReset()"/>
                <g id="arrowUp" xlink:href="#dirArrow" transform="translate(30 24)" onmousedown="handlePan(0,-1)">
                  <use xlink:href="#rim" fill="#404040">
                        <set attributeName="fill" to="#808080" begin="arrowUp.mouseover" end="arrowUp.mouseout"/>
                  </use>
                  <path fill="none" stroke="white" stroke-width="1.5" d="M0,-3.0v7 M-2.5,-0.5L0,-3.0L2.5,-0.5"/>
                </g>
                <g id="arrowRight" xlink:href="#dirArrow" transform="rotate(90) translate(36 -43)" onmousedown="handlePan(1,0)">
                  <use xlink:href="#rim" fill="#404040">
                        <set attributeName="fill" to="#808080" begin="arrowRight.mouseover" end="arrowRight.mouseout"/>
                  </use>
                  <path fill="none" stroke="white" stroke-width="1.5" d="M0,-3.0v7 M-2.5,-0.5L0,-3.0L2.5,-0.5"/>
                </g>
                <g id="arrowDown" xlink:href="#dirArrow" transform="rotate(180) translate(-30 -48)" onmousedown="handlePan(0,1)">
                  <use xlink:href="#rim" fill="#404040">
                        <set attributeName="fill" to="#808080" begin="arrowDown.mouseover" end="arrowDown.mouseout"/>
                  </use>
                  <path fill="none" stroke="white" stroke-width="1.5" d="M0,-3.0v7 M-2.5,-0.5L0,-3.0L2.5,-0.5"/>
                </g>
                <g id="arrowLeft" xlink:href="#dirArrow" transform="rotate(270) translate(-36 17)" onmousedown="handlePan(-1,0)">
                  <use xlink:href="#rim" fill="#404040">
                        <set attributeName="fill" to="#808080" begin="arrowLeft.mouseover" end="arrowLeft.mouseout"/>
                  </use>
                  <path fill="none" stroke="white" stroke-width="1.5" d="M0,-3.0v7 M-2.5,-0.5L0,-3.0L2.5,-0.5"/>
                </g>
        </g>
        <svg viewBox="0 0 15 15" width="100%" height="30px" preserveAspectRatio="xMaxYMin meet">
         <g id="arrow_out" transform="scale(0.3 0.3)">
          <a xlink:href="classklyqa__ctl_1_1account_1_1Account_a2265c38daf6829c96c852ad4a288b42d_icgraph_org.svg" target="_base">
           <rect id="button" ry="5" rx="5" y="6" x="6" height="38" width="38"
                fill="#f2f5e9" fill-opacity="0.5" stroke="#606060" stroke-width="1.0"/>
           <path id="arrow"
             d="M 11.500037,31.436501 C 11.940474,20.09759 22.043105,11.32322 32.158766,21.979434 L 37.068811,17.246167 C 37.068811,17.246167 37.088388,32 37.088388,32 L 22.160133,31.978069 C 22.160133,31.978069 26.997745,27.140456 26.997745,27.140456 C 18.528582,18.264221 13.291696,25.230495 11.500037,31.436501 z"
             style="fill:#404040;"/>
          </a>
         </g>
        </svg>
</svg>
