<?xml version="1.0" encoding="UTF-8" standalone="no"?>
<!DOCTYPE svg PUBLIC "-//W3C//DTD SVG 1.1//EN"
 "http://www.w3.org/Graphics/SVG/1.1/DTD/svg11.dtd">
<!-- Generated by graphviz version 2.43.0 (0)
 -->
<!-- Title: cloud.CloudBackend.host Pages: 1 -->
<svg width="938pt" height="130pt"
 viewBox="0.00 0.00 938.00 129.50" xmlns="http://www.w3.org/2000/svg" xmlns:xlink="http://www.w3.org/1999/xlink">
<g id="graph0" class="graph" transform="scale(1 1) rotate(0) translate(4 125.5)">
<title>cloud.CloudBackend.host</title>
<polygon fill="white" stroke="transparent" points="-4,4 -4,-125.5 934,-125.5 934,4 -4,4"/>
<!-- Node1 -->
<g id="node1" class="node">
<title>Node1</title>
<g id="a_node1"><a xlink:title=" ">
<polygon fill="#bfbfbf" stroke="black" points="791,-62.5 791,-81.5 930,-81.5 930,-62.5 791,-62.5"/>
<text text-anchor="middle" x="860.5" y="-69.5" font-family="Helvetica,sans-Serif" font-size="10.00">cloud.CloudBackend.host</text>
</a>
</g>
</g>
<!-- Node2 -->
<g id="node2" class="node">
<title>Node2</title>
<g id="a_node2"><a xlink:href="classcloud_1_1CloudBackend.html#a2aa84632596a773fb8d2f979138b2bda" target="_top" xlink:title=" ">
<polygon fill="white" stroke="black" points="422,-91 422,-121 580,-121 580,-91 422,-91"/>
<text text-anchor="start" x="430" y="-109" font-family="Helvetica,sans-Serif" font-size="10.00">cloud.CloudBackend.backend</text>
<text text-anchor="middle" x="501" y="-98" font-family="Helvetica,sans-Serif" font-size="10.00">_connected</text>
</a>
</g>
</g>
<!-- Node1&#45;&gt;Node2 -->
<g id="edge1" class="edge">
<title>Node1&#45;&gt;Node2</title>
<path fill="none" stroke="midnightblue" d="M803.8,-83.41C788.08,-86.28 770.92,-89.09 755,-91 696.57,-98.02 630.13,-101.8 580.01,-103.81"/>
<polygon fill="midnightblue" stroke="midnightblue" points="804.71,-86.8 813.9,-81.52 803.43,-79.92 804.71,-86.8"/>
</g>
<!-- Node5 -->
<g id="node5" class="node">
<title>Node5</title>
<g id="a_node5"><a xlink:href="classcloud_1_1CloudBackend.html#abe810e894a06b18f0e875603f2d8b4e1" target="_top" xlink:title=" ">
<polygon fill="white" stroke="black" points="616,-62.5 616,-81.5 755,-81.5 755,-62.5 616,-62.5"/>
<text text-anchor="middle" x="685.5" y="-69.5" font-family="Helvetica,sans-Serif" font-size="10.00">cloud.CloudBackend.host</text>
</a>
</g>
</g>
<!-- Node1&#45;&gt;Node5 -->
<g id="edge4" class="edge">
<title>Node1&#45;&gt;Node5</title>
<path fill="none" stroke="midnightblue" d="M780.41,-72C771.97,-72 763.44,-72 755.13,-72"/>
<polygon fill="midnightblue" stroke="midnightblue" points="780.63,-75.5 790.63,-72 780.63,-68.5 780.63,-75.5"/>
</g>
<!-- Node6 -->
<g id="node6" class="node">
<title>Node6</title>
<g id="a_node6"><a xlink:href="classcloud_1_1CloudBackend.html#a890d2669fa6b9550af8e14a17413aea2" target="_top" xlink:title=" ">
<polygon fill="white" stroke="black" points="423.5,-37.5 423.5,-56.5 578.5,-56.5 578.5,-37.5 423.5,-37.5"/>
<text text-anchor="middle" x="501" y="-44.5" font-family="Helvetica,sans-Serif" font-size="10.00">cloud.CloudBackend.request</text>
</a>
</g>
</g>
<!-- Node1&#45;&gt;Node6 -->
<g id="edge10" class="edge">
<title>Node1&#45;&gt;Node6</title>
<path fill="none" stroke="midnightblue" d="M805.86,-60.59C789.6,-57.58 771.63,-54.7 755,-53 695.99,-46.97 628.86,-45.63 578.59,-45.72"/>
<polygon fill="midnightblue" stroke="midnightblue" points="805.26,-64.04 815.74,-62.47 806.57,-57.16 805.26,-64.04"/>
</g>
<!-- Node3 -->
<g id="node3" class="node">
<title>Node3</title>
<g id="a_node3"><a xlink:href="classklyqa__ctl_1_1account_1_1Account.html#aa78870d05cc7fa5899d61733d124e885" target="_top" xlink:title=" ">
<polygon fill="white" stroke="black" points="207,-91 207,-121 386,-121 386,-91 207,-91"/>
<text text-anchor="start" x="215" y="-109" font-family="Helvetica,sans-Serif" font-size="10.00">klyqa_ctl.account.Account.device</text>
<text text-anchor="middle" x="296.5" y="-98" font-family="Helvetica,sans-Serif" font-size="10.00">_request_and_print</text>
</a>
</g>
</g>
<!-- Node2&#45;&gt;Node3 -->
<g id="edge2" class="edge">
<title>Node2&#45;&gt;Node3</title>
<path fill="none" stroke="midnightblue" d="M411.76,-106C403.3,-106 394.72,-106 386.26,-106"/>
<polygon fill="midnightblue" stroke="midnightblue" points="412,-109.5 422,-106 412,-102.5 412,-109.5"/>
</g>
<!-- Node4 -->
<g id="node4" class="node">
<title>Node4</title>
<g id="a_node4"><a xlink:href="classklyqa__ctl_1_1account_1_1Account.html#a0b171a600e4342d035ad26c39b384b38" target="_top" xlink:title=" ">
<polygon fill="white" stroke="black" points="0,-96.5 0,-115.5 171,-115.5 171,-96.5 0,-96.5"/>
<text text-anchor="middle" x="85.5" y="-103.5" font-family="Helvetica,sans-Serif" font-size="10.00">klyqa_ctl.account.Account.login</text>
</a>
</g>
</g>
<!-- Node3&#45;&gt;Node4 -->
<g id="edge3" class="edge">
<title>Node3&#45;&gt;Node4</title>
<path fill="none" stroke="midnightblue" d="M196.86,-106C188.31,-106 179.71,-106 171.28,-106"/>
<polygon fill="midnightblue" stroke="midnightblue" points="196.87,-109.5 206.87,-106 196.87,-102.5 196.87,-109.5"/>
</g>
<!-- Node5&#45;&gt;Node2 -->
<g id="edge5" class="edge">
<title>Node5&#45;&gt;Node2</title>
<path fill="none" stroke="midnightblue" d="M623.32,-83.4C609.49,-85.97 594.63,-88.74 580.21,-91.43"/>
<polygon fill="midnightblue" stroke="midnightblue" points="623.99,-86.83 633.18,-81.56 622.71,-79.95 623.99,-86.83"/>
</g>
<!-- Node5&#45;&gt;Node6 -->
<g id="edge6" class="edge">
<title>Node5&#45;&gt;Node6</title>
<path fill="none" stroke="midnightblue" d="M605.84,-61.22C594.44,-59.66 582.78,-58.07 571.58,-56.53"/>
<polygon fill="midnightblue" stroke="midnightblue" points="605.38,-64.69 615.76,-62.58 606.33,-57.76 605.38,-64.69"/>
</g>
<!-- Node7 -->
<g id="node7" class="node">
<title>Node7</title>
<g id="a_node7"><a xlink:href="classcloud_1_1CloudBackend.html#a58e4bd598358583c0eb7c50fdf0c6bc1" target="_top" xlink:title=" ">
<polygon fill="white" stroke="black" points="229.5,-39 229.5,-69 363.5,-69 363.5,-39 229.5,-39"/>
<text text-anchor="start" x="237.5" y="-57" font-family="Helvetica,sans-Serif" font-size="10.00">cloud.CloudBackend.get</text>
<text text-anchor="middle" x="296.5" y="-46" font-family="Helvetica,sans-Serif" font-size="10.00">_device_config</text>
</a>
</g>
</g>
<!-- Node6&#45;&gt;Node7 -->
<g id="edge7" class="edge">
<title>Node6&#45;&gt;Node7</title>
<path fill="none" stroke="midnightblue" d="M413.18,-50C396.55,-50.58 379.4,-51.17 363.56,-51.72"/>
<polygon fill="midnightblue" stroke="midnightblue" points="413.57,-53.49 423.44,-49.65 413.33,-46.49 413.57,-53.49"/>
</g>
<!-- Node9 -->
<g id="node9" class="node">
<title>Node9</title>
<g id="a_node9"><a xlink:href="classcloud_1_1CloudBackend.html#a8db40a99748dc3cc160e5093da0f84e8" target="_top" xlink:title=" ">
<polygon fill="white" stroke="black" points="226,-0.5 226,-19.5 367,-19.5 367,-0.5 226,-0.5"/>
<text text-anchor="middle" x="296.5" y="-7.5" font-family="Helvetica,sans-Serif" font-size="10.00">cloud.CloudBackend.send</text>
</a>
</g>
</g>
<!-- Node6&#45;&gt;Node9 -->
<g id="edge9" class="edge">
<title>Node6&#45;&gt;Node9</title>
<path fill="none" stroke="midnightblue" d="M437.71,-35.62C409.56,-30.48 376.67,-24.47 349.82,-19.56"/>
<polygon fill="midnightblue" stroke="midnightblue" points="437.38,-39.12 447.85,-37.47 438.64,-32.23 437.38,-39.12"/>
</g>
<!-- Node8 -->
<g id="node8" class="node">
<title>Node8</title>
<g id="a_node8"><a xlink:href="classcloud_1_1CloudBackend.html#a566850b368080b6ff85ee2675aa9b3e2" target="_top" xlink:title=" ">
<polygon fill="white" stroke="black" points="18.5,-39 18.5,-69 152.5,-69 152.5,-39 18.5,-39"/>
<text text-anchor="start" x="26.5" y="-57" font-family="Helvetica,sans-Serif" font-size="10.00">cloud.CloudBackend.get</text>
<text text-anchor="middle" x="85.5" y="-46" font-family="Helvetica,sans-Serif" font-size="10.00">_device_configs</text>
</a>
</g>
</g>
<!-- Node7&#45;&gt;Node8 -->
<g id="edge8" class="edge">
<title>Node7&#45;&gt;Node8</title>
<path fill="none" stroke="midnightblue" d="M219.15,-54C197.32,-54 173.72,-54 152.56,-54"/>
<polygon fill="midnightblue" stroke="midnightblue" points="219.37,-57.5 229.37,-54 219.37,-50.5 219.37,-57.5"/>
</g>
</g>
</svg>
