<?xml version="1.0" encoding="UTF-8" standalone="no"?>
<!DOCTYPE svg PUBLIC "-//W3C//DTD SVG 1.1//EN"
 "http://www.w3.org/Graphics/SVG/1.1/DTD/svg11.dtd">
<!-- Generated by graphviz version 2.43.0 (0)
 -->
<!-- Title: klyqa_ctl.devices.device.Device.cloud Pages: 1 -->
<!--zoomable 751 -->
<svg id="main" version="1.1" xmlns="http://www.w3.org/2000/svg" xmlns:xlink="http://www.w3.org/1999/xlink" xml:space="preserve" onload="init(evt)">
<style type="text/css"><![CDATA[
.edge:hover path { stroke: red; }
.edge:hover polygon { stroke: red; fill: red; }
]]></style>
<script type="text/javascript"><![CDATA[
var edges = document.getElementsByTagName('g');
if (edges && edges.length) {
  for (var i=0;i<edges.length;i++) {
    if (edges[i].id.substr(0,4)=='edge') {
      edges[i].setAttribute('class','edge');
    }
  }
}
]]></script>
        <defs>
                <circle id="rim" cx="0" cy="0" r="7"/>
                <circle id="rim2" cx="0" cy="0" r="3.5"/>
                <g id="zoomPlus">
                        <use xlink:href="#rim" fill="#404040">
                                <set attributeName="fill" to="#808080" begin="zoomplus.mouseover" end="zoomplus.mouseout"/>
                        </use>
                        <path d="M-4,0h8M0,-4v8" fill="none" stroke="white" stroke-width="1.5" pointer-events="none"/>
                </g>
                <g id="zoomMin">
                        <use xlink:href="#rim" fill="#404040">
                                <set attributeName="fill" to="#808080" begin="zoomminus.mouseover" end="zoomminus.mouseout"/>
                        </use>
                        <path d="M-4,0h8" fill="none" stroke="white" stroke-width="1.5" pointer-events="none"/>
                </g>
                <g id="dirArrow">
                        <path fill="none" stroke="white" stroke-width="1.5" d="M0,-3.0v7 M-2.5,-0.5L0,-3.0L2.5,-0.5"/>
                </g>
               <g id="resetDef">
                       <use xlink:href="#rim2" fill="#404040">
                               <set attributeName="fill" to="#808080" begin="reset.mouseover" end="reset.mouseout"/>
                       </use>
               </g>
        </defs>

<script type="text/javascript">
var viewWidth = 1421;
var viewHeight = 751;
var sectionId = 'dynsection-9';
</script>
<script xlink:href="svgpan.js"/>
<svg id="graph" class="graph">
<g id="viewport">
<title>klyqa_ctl.devices.device.Device.cloud</title>
<polygon fill="white" stroke="transparent" points="-4,4 -4,-747.45 1417,-747.45 1417,4 -4,4"/>
<!-- Node1 -->
<g id="node1" class="node">
<title>Node1</title>
<g id="a_node1"><a xlink:title=" ">
<polygon fill="#bfbfbf" stroke="black" points="1273,-395.45 1273,-425.45 1413,-425.45 1413,-395.45 1273,-395.45"/>
<text text-anchor="start" x="1281" y="-413.45" font-family="Helvetica,sans-Serif" font-size="10.00">klyqa_ctl.devices.device.</text>
<text text-anchor="middle" x="1343" y="-402.45" font-family="Helvetica,sans-Serif" font-size="10.00">Device.cloud</text>
</a>
</g>
</g>
<!-- Node2 -->
<g id="node2" class="node">
<title>Node2</title>
<g id="a_node2"><a xlink:href="classklyqa__ctl_1_1klyqa__ctl_1_1Client.html#ab129f0608f5651109b893aed3671e00e" target="_top" xlink:title=" ">
<polygon fill="white" stroke="black" points="883.5,-570.45 883.5,-600.45 1044.5,-600.45 1044.5,-570.45 883.5,-570.45"/>
<text text-anchor="start" x="891.5" y="-588.45" font-family="Helvetica,sans-Serif" font-size="10.00">klyqa_ctl.klyqa_ctl.Client.add</text>
<text text-anchor="middle" x="964" y="-577.45" font-family="Helvetica,sans-Serif" font-size="10.00">_account</text>
</a>
</g>
</g>
<!-- Node1&#45;&gt;Node2 -->
<g id="edge1" class="edge">
<title>Node1&#45;&gt;Node2</title>
<path fill="none" stroke="midnightblue" d="M1321.48,-432.95C1301.63,-453.55 1269.8,-483.6 1237,-502.45 1176.96,-536.94 1101.07,-558.55 1044.71,-571.04"/>
<polygon fill="midnightblue" stroke="midnightblue" points="1324.15,-435.23 1328.48,-425.56 1319.06,-430.41 1324.15,-435.23"/>
</g>
<!-- Node3 -->
<g id="node3" class="node">
<title>Node3</title>
<g id="a_node3"><a xlink:href="classklyqa__ctl_1_1account_1_1Account.html#a19bd2d6d0ae6a4e738c4d40453557606" target="_top" xlink:title=" ">
<polygon fill="white" stroke="black" points="870,-38.45 870,-68.45 1058,-68.45 1058,-38.45 870,-38.45"/>
<text text-anchor="start" x="878" y="-56.45" font-family="Helvetica,sans-Serif" font-size="10.00">klyqa_ctl.account.Account.backend</text>
<text text-anchor="middle" x="964" y="-45.45" font-family="Helvetica,sans-Serif" font-size="10.00">_connected</text>
</a>
</g>
</g>
<!-- Node1&#45;&gt;Node3 -->
<g id="edge2" class="edge">
<title>Node1&#45;&gt;Node3</title>
<path fill="none" stroke="midnightblue" d="M1341.09,-385.02C1337.56,-326.89 1320.38,-183.63 1237,-110.45 1188.32,-67.72 1115.89,-54.13 1058.01,-50.87"/>
<polygon fill="midnightblue" stroke="midnightblue" points="1337.6,-385.36 1341.62,-395.16 1344.59,-384.99 1337.6,-385.36"/>
</g>
<!-- Node4 -->
<g id="node4" class="node">
<title>Node4</title>
<g id="a_node4"><a xlink:href="classklyqa__ctl_1_1account_1_1Account.html#aa78870d05cc7fa5899d61733d124e885" target="_top" xlink:title=" ">
<polygon fill="white" stroke="black" points="209.5,-231.45 209.5,-261.45 388.5,-261.45 388.5,-231.45 209.5,-231.45"/>
<text text-anchor="start" x="217.5" y="-249.45" font-family="Helvetica,sans-Serif" font-size="10.00">klyqa_ctl.account.Account.device</text>
<text text-anchor="middle" x="299" y="-238.45" font-family="Helvetica,sans-Serif" font-size="10.00">_request_and_print</text>
</a>
</g>
</g>
<!-- Node1&#45;&gt;Node4 -->
<g id="edge30" class="edge">
<title>Node1&#45;&gt;Node4</title>
<path fill="none" stroke="midnightblue" d="M1338.13,-384.92C1326.33,-310.56 1288.44,-96.54 1237,-51.45 1145.02,29.18 1087.32,-9.45 965,-9.45 965,-9.45 965,-9.45 738,-9.45 595.5,-9.45 546.88,-10.39 427,-87.45 368.45,-125.08 324.81,-198.95 307.8,-231"/>
<polygon fill="midnightblue" stroke="midnightblue" points="1334.74,-385.89 1339.74,-395.23 1341.65,-384.81 1334.74,-385.89"/>
</g>
<!-- Node5 -->
<g id="node5" class="node">
<title>Node5</title>
<g id="a_node5"><a xlink:href="classklyqa__ctl_1_1account_1_1Account.html#a0b171a600e4342d035ad26c39b384b38" target="_top" xlink:title=" ">
<polygon fill="white" stroke="black" points="0,-487.95 0,-506.95 171,-506.95 171,-487.95 0,-487.95"/>
<text text-anchor="middle" x="85.5" y="-494.95" font-family="Helvetica,sans-Serif" font-size="10.00">klyqa_ctl.account.Account.login</text>
</a>
</g>
</g>
<!-- Node1&#45;&gt;Node5 -->
<g id="edge32" class="edge">
<title>Node1&#45;&gt;Node5</title>
<path fill="none" stroke="midnightblue" d="M1336.79,-435.68C1326.05,-481.7 1297.22,-579.75 1237,-636.45 1142.42,-725.5 1094.91,-743.45 965,-743.45 965,-743.45 965,-743.45 518,-743.45 323.55,-743.45 136.86,-552.57 95.13,-507.09"/>
<polygon fill="midnightblue" stroke="midnightblue" points="1340.27,-436.18 1339.04,-425.66 1333.44,-434.65 1340.27,-436.18"/>
</g>
<!-- Node6 -->
<g id="node6" class="node">
<title>Node6</title>
<g id="a_node6"><a xlink:href="classklyqa__ctl_1_1devices_1_1device_1_1Device.html#a620bcc2824886b4d9063e3bfe39ab27b" target="_top" xlink:title=" ">
<polygon fill="white" stroke="black" points="1097,-313.45 1097,-343.45 1237,-343.45 1237,-313.45 1097,-313.45"/>
<text text-anchor="start" x="1105" y="-331.45" font-family="Helvetica,sans-Serif" font-size="10.00">klyqa_ctl.devices.device.</text>
<text text-anchor="middle" x="1167" y="-320.45" font-family="Helvetica,sans-Serif" font-size="10.00">Device.cloud</text>
</a>
</g>
</g>
<!-- Node1&#45;&gt;Node6 -->
<g id="edge5" class="edge">
<title>Node1&#45;&gt;Node6</title>
<path fill="none" stroke="midnightblue" d="M1300.88,-391.07C1270.03,-376.53 1228.4,-356.91 1200.01,-343.53"/>
<polygon fill="midnightblue" stroke="midnightblue" points="1299.55,-394.31 1310.09,-395.41 1302.53,-387.98 1299.55,-394.31"/>
</g>
<!-- Node7 -->
<g id="node7" class="node">
<title>Node7</title>
<g id="a_node7"><a xlink:href="classklyqa__ctl_1_1account_1_1Account.html#ad608e3ee0ba1199f509e644a11081724" target="_top" xlink:title=" ">
<polygon fill="white" stroke="black" points="882.5,-395.45 882.5,-425.45 1045.5,-425.45 1045.5,-395.45 882.5,-395.45"/>
<text text-anchor="start" x="890.5" y="-413.45" font-family="Helvetica,sans-Serif" font-size="10.00">klyqa_ctl.account.Account.get</text>
<text text-anchor="middle" x="964" y="-402.45" font-family="Helvetica,sans-Serif" font-size="10.00">_beared_request_header</text>
</a>
</g>
</g>
<!-- Node1&#45;&gt;Node7 -->
<g id="edge31" class="edge">
<title>Node1&#45;&gt;Node7</title>
<path fill="none" stroke="midnightblue" d="M1262.46,-410.45C1198.78,-410.45 1109.84,-410.45 1045.82,-410.45"/>
<polygon fill="midnightblue" stroke="midnightblue" points="1262.85,-413.95 1272.85,-410.45 1262.85,-406.95 1262.85,-413.95"/>
</g>
<!-- Node8 -->
<g id="node8" class="node">
<title>Node8</title>
<g id="a_node8"><a xlink:href="classklyqa__ctl_1_1account_1_1Account.html#a73506bd234f8e819e138c2bd663179b8" target="_top" xlink:title=" ">
<polygon fill="white" stroke="black" points="647,-406.45 647,-436.45 831,-436.45 831,-406.45 647,-406.45"/>
<text text-anchor="start" x="655" y="-424.45" font-family="Helvetica,sans-Serif" font-size="10.00">klyqa_ctl.account.Account.request</text>
<text text-anchor="middle" x="739" y="-413.45" font-family="Helvetica,sans-Serif" font-size="10.00">_beared</text>
</a>
</g>
</g>
<!-- Node1&#45;&gt;Node8 -->
<g id="edge35" class="edge">
<title>Node1&#45;&gt;Node8</title>
<path fill="none" stroke="midnightblue" d="M1262.74,-421.62C1254.07,-422.66 1245.35,-423.63 1237,-424.45 1073.26,-440.46 1031.27,-444.47 867,-435.45 855.37,-434.81 843.17,-433.84 831.12,-432.71"/>
<polygon fill="midnightblue" stroke="midnightblue" points="1263.4,-425.06 1272.89,-420.36 1262.54,-418.12 1263.4,-425.06"/>
</g>
<!-- Node12 -->
<g id="node12" class="node">
<title>Node12</title>
<g id="a_node12"><a xlink:href="classklyqa__ctl_1_1account_1_1Account.html#af101070a97d556e95978748475933f72" target="_top" xlink:title=" ">
<polygon fill="white" stroke="black" points="428.5,-504.45 428.5,-534.45 609.5,-534.45 609.5,-504.45 428.5,-504.45"/>
<text text-anchor="start" x="436.5" y="-522.45" font-family="Helvetica,sans-Serif" font-size="10.00">klyqa_ctl.account.Account.update</text>
<text text-anchor="middle" x="519" y="-511.45" font-family="Helvetica,sans-Serif" font-size="10.00">_account_settings</text>
</a>
</g>
</g>
<!-- Node1&#45;&gt;Node12 -->
<g id="edge39" class="edge">
<title>Node1&#45;&gt;Node12</title>
<path fill="none" stroke="midnightblue" d="M1328.51,-434.62C1310.95,-464.08 1277.66,-513.61 1237,-543.45 1169.52,-592.97 1143.32,-595.31 1061,-610.45 871.78,-645.25 644.34,-568.47 556.8,-534.53"/>
<polygon fill="midnightblue" stroke="midnightblue" points="1331.63,-436.22 1333.65,-425.82 1325.59,-432.69 1331.63,-436.22"/>
</g>
<!-- Node13 -->
<g id="node13" class="node">
<title>Node13</title>
<g id="a_node13"><a xlink:href="classklyqa__ctl_1_1account_1_1Account.html#aeca1011f6c6e2f6bcdb2136ef48bc7fd" target="_top" xlink:title=" ">
<polygon fill="white" stroke="black" points="207,-504.45 207,-534.45 391,-534.45 391,-504.45 207,-504.45"/>
<text text-anchor="start" x="215" y="-522.45" font-family="Helvetica,sans-Serif" font-size="10.00">klyqa_ctl.account.Account.request</text>
<text text-anchor="middle" x="299" y="-511.45" font-family="Helvetica,sans-Serif" font-size="10.00">_account_settings_eco</text>
</a>
</g>
</g>
<!-- Node1&#45;&gt;Node13 -->
<g id="edge34" class="edge">
<title>Node1&#45;&gt;Node13</title>
<path fill="none" stroke="midnightblue" d="M1333.91,-435.46C1320.19,-473.9 1288.7,-547.26 1237,-587.45 1137.51,-664.78 1091.01,-667.45 965,-667.45 965,-667.45 965,-667.45 738,-667.45 573.77,-667.45 548.42,-587.22 391,-540.45 384.01,-538.37 376.66,-536.37 369.3,-534.49"/>
<polygon fill="midnightblue" stroke="midnightblue" points="1337.36,-436.19 1337.31,-425.6 1330.74,-433.91 1337.36,-436.19"/>
</g>
<!-- Node15 -->
<g id="node15" class="node">
<title>Node15</title>
<g id="a_node15"><a xlink:href="classklyqa__ctl_1_1account_1_1Account.html#acbc09f2b1b4cb6b7ed771b96ea79613b" target="_top" xlink:title=" ">
<polygon fill="white" stroke="black" points="871,-521.45 871,-551.45 1057,-551.45 1057,-521.45 871,-521.45"/>
<text text-anchor="start" x="879" y="-539.45" font-family="Helvetica,sans-Serif" font-size="10.00">klyqa_ctl.account.Account.perform</text>
<text text-anchor="middle" x="964" y="-528.45" font-family="Helvetica,sans-Serif" font-size="10.00">_login</text>
</a>
</g>
</g>
<!-- Node1&#45;&gt;Node15 -->
<g id="edge33" class="edge">
<title>Node1&#45;&gt;Node15</title>
<path fill="none" stroke="midnightblue" d="M1310.15,-430.89C1289.86,-443.18 1262.66,-458.35 1237,-468.45 1175.74,-492.55 1103.29,-510.16 1048.57,-521.42"/>
<polygon fill="midnightblue" stroke="midnightblue" points="1311.99,-433.87 1318.68,-425.65 1308.33,-427.91 1311.99,-433.87"/>
</g>
<!-- Node16 -->
<g id="node16" class="node">
<title>Node16</title>
<g id="a_node16"><a xlink:href="classklyqa__ctl_1_1account_1_1Account.html#a6f7d45c2ee71e0c761145bea5084dda6" target="_top" xlink:title=" ">
<polygon fill="white" stroke="black" points="872,-193.45 872,-223.45 1056,-223.45 1056,-193.45 872,-193.45"/>
<text text-anchor="start" x="880" y="-211.45" font-family="Helvetica,sans-Serif" font-size="10.00">klyqa_ctl.account.Account.request</text>
<text text-anchor="middle" x="964" y="-200.45" font-family="Helvetica,sans-Serif" font-size="10.00">_device_configs_from_acc_sets</text>
</a>
</g>
</g>
<!-- Node1&#45;&gt;Node16 -->
<g id="edge36" class="edge">
<title>Node1&#45;&gt;Node16</title>
<path fill="none" stroke="midnightblue" d="M1324.21,-387.33C1304.96,-363.68 1272.25,-327.26 1237,-304.45 1174.36,-263.9 1092.5,-238.03 1035,-223.49"/>
<polygon fill="midnightblue" stroke="midnightblue" points="1321.69,-389.79 1330.67,-395.42 1327.16,-385.42 1321.69,-389.79"/>
</g>
<!-- Node18 -->
<g id="node18" class="node">
<title>Node18</title>
<g id="a_node18"><a xlink:href="classklyqa__ctl_1_1klyqa__ctl_1_1Client.html#ad5c42cd8dd34ed1d6329040e164bfc2e" target="_top" xlink:title=" ">
<polygon fill="white" stroke="black" points="881,-87.45 881,-117.45 1047,-117.45 1047,-87.45 881,-87.45"/>
<text text-anchor="start" x="889" y="-105.45" font-family="Helvetica,sans-Serif" font-size="10.00">klyqa_ctl.klyqa_ctl.Client.send</text>
<text text-anchor="middle" x="964" y="-94.45" font-family="Helvetica,sans-Serif" font-size="10.00">_to_devices</text>
</a>
</g>
</g>
<!-- Node1&#45;&gt;Node18 -->
<g id="edge37" class="edge">
<title>Node1&#45;&gt;Node18</title>
<path fill="none" stroke="midnightblue" d="M1338.14,-385.43C1329.34,-337.13 1303.18,-230.81 1237,-174.45 1184.1,-129.39 1106.01,-112.18 1047.05,-105.77"/>
<polygon fill="midnightblue" stroke="midnightblue" points="1334.7,-386.09 1339.85,-395.35 1341.6,-384.9 1334.7,-386.09"/>
</g>
<!-- Node20 -->
<g id="node20" class="node">
<title>Node20</title>
<g id="a_node20"><a xlink:href="classklyqa__ctl_1_1account_1_1Account.html#af0e05ae15ad46c4b1b3bbb69b6bb7151" target="_top" xlink:title=" ">
<polygon fill="white" stroke="black" points="867,-154.95 867,-173.95 1061,-173.95 1061,-154.95 867,-154.95"/>
<text text-anchor="middle" x="964" y="-161.95" font-family="Helvetica,sans-Serif" font-size="10.00">klyqa_ctl.account.Account.shutdown</text>
</a>
</g>
</g>
<!-- Node1&#45;&gt;Node20 -->
<g id="edge38" class="edge">
<title>Node1&#45;&gt;Node20</title>
<path fill="none" stroke="midnightblue" d="M1333.44,-385.65C1319.27,-348.23 1287.39,-277.57 1237,-238.45 1186.75,-199.43 1117.39,-180.96 1061.29,-172.22"/>
<polygon fill="midnightblue" stroke="midnightblue" points="1330.24,-387.08 1336.97,-395.27 1336.81,-384.67 1330.24,-387.08"/>
</g>
<!-- Node3&#45;&gt;Node4 -->
<g id="edge3" class="edge">
<title>Node3&#45;&gt;Node4</title>
<path fill="none" stroke="midnightblue" d="M859.57,-51.56C797.05,-52.81 716.3,-58.68 647,-77.45 517,-112.66 377.22,-196.76 323.17,-231.27"/>
<polygon fill="midnightblue" stroke="midnightblue" points="859.9,-55.06 869.84,-51.4 859.79,-48.06 859.9,-55.06"/>
</g>
<!-- Node4&#45;&gt;Node5 -->
<g id="edge4" class="edge">
<title>Node4&#45;&gt;Node5</title>
<path fill="none" stroke="midnightblue" d="M222.71,-266C217.1,-269 211.78,-272.46 207,-276.45 134.17,-337.18 98.23,-453.74 88.97,-487.85"/>
<polygon fill="midnightblue" stroke="midnightblue" points="224.25,-269.14 231.73,-261.64 221.2,-262.84 224.25,-269.14"/>
</g>
<!-- Node6&#45;&gt;Node2 -->
<g id="edge6" class="edge">
<title>Node6&#45;&gt;Node2</title>
<path fill="none" stroke="midnightblue" d="M1162.04,-353.58C1153.12,-401.58 1126.83,-506.42 1061,-561.45 1056.12,-565.52 1050.65,-568.92 1044.86,-571.76"/>
<polygon fill="midnightblue" stroke="midnightblue" points="1165.49,-354.16 1163.78,-343.71 1158.6,-352.95 1165.49,-354.16"/>
</g>
<!-- Node6&#45;&gt;Node3 -->
<g id="edge7" class="edge">
<title>Node6&#45;&gt;Node3</title>
<path fill="none" stroke="midnightblue" d="M1162.93,-303.21C1155.38,-252.44 1131.1,-137.67 1061,-77.45 1057.09,-74.09 1052.78,-71.19 1048.21,-68.68"/>
<polygon fill="midnightblue" stroke="midnightblue" points="1159.49,-303.89 1164.34,-313.31 1166.42,-302.92 1159.49,-303.89"/>
</g>
<!-- Node6&#45;&gt;Node4 -->
<g id="edge8" class="edge">
<title>Node6&#45;&gt;Node4</title>
<path fill="none" stroke="midnightblue" d="M1133.79,-308.06C1113.69,-296.48 1086.81,-283.03 1061,-276.45 936.32,-244.66 561.37,-243.87 388.75,-245.31"/>
<polygon fill="midnightblue" stroke="midnightblue" points="1132.13,-311.14 1142.52,-313.21 1135.69,-305.11 1132.13,-311.14"/>
</g>
<!-- Node6&#45;&gt;Node5 -->
<g id="edge18" class="edge">
<title>Node6&#45;&gt;Node5</title>
<path fill="none" stroke="midnightblue" d="M1086.67,-317.12C1001.26,-305.92 861.3,-290.45 740,-290.45 740,-290.45 740,-290.45 518,-290.45 333.13,-290.45 143.66,-446.82 97.24,-487.74"/>
<polygon fill="midnightblue" stroke="midnightblue" points="1086.44,-320.62 1096.81,-318.46 1087.36,-313.68 1086.44,-320.62"/>
</g>
<!-- Node6&#45;&gt;Node7 -->
<g id="edge9" class="edge">
<title>Node6&#45;&gt;Node7</title>
<path fill="none" stroke="midnightblue" d="M1129.45,-348.32C1109.55,-358.68 1084.31,-371.1 1061,-380.45 1047.39,-385.91 1032.37,-391.01 1018.34,-395.41"/>
<polygon fill="midnightblue" stroke="midnightblue" points="1131.25,-351.32 1138.47,-343.57 1127.99,-345.13 1131.25,-351.32"/>
</g>
<!-- Node6&#45;&gt;Node8 -->
<g id="edge22" class="edge">
<title>Node6&#45;&gt;Node8</title>
<path fill="none" stroke="midnightblue" d="M1086.93,-342.06C1026.45,-352.89 941.13,-369.07 867,-386.45 841.84,-392.35 814.15,-399.86 791.06,-406.41"/>
<polygon fill="midnightblue" stroke="midnightblue" points="1087.57,-345.51 1096.8,-340.3 1086.34,-338.61 1087.57,-345.51"/>
</g>
<!-- Node6&#45;&gt;Node12 -->
<g id="edge29" class="edge">
<title>Node6&#45;&gt;Node12</title>
<path fill="none" stroke="midnightblue" d="M1150.27,-351.74C1131.97,-376.82 1099.31,-415.77 1061,-435.45 915.57,-510.13 721.35,-522.38 609.54,-522.37"/>
<polygon fill="midnightblue" stroke="midnightblue" points="1153.19,-353.68 1156.13,-343.5 1147.49,-349.62 1153.19,-353.68"/>
</g>
<!-- Node6&#45;&gt;Node13 -->
<g id="edge21" class="edge">
<title>Node6&#45;&gt;Node13</title>
<path fill="none" stroke="midnightblue" d="M1086.53,-325.26C906.11,-318.77 477.31,-307.86 427,-348.45 374.65,-390.68 438.14,-447.47 391,-495.45 387.68,-498.83 383.94,-501.75 379.93,-504.27"/>
<polygon fill="midnightblue" stroke="midnightblue" points="1086.63,-328.76 1096.75,-325.63 1086.88,-321.77 1086.63,-328.76"/>
</g>
<!-- Node6&#45;&gt;Node15 -->
<g id="edge19" class="edge">
<title>Node6&#45;&gt;Node15</title>
<path fill="none" stroke="midnightblue" d="M1157.87,-353.49C1144.09,-392.01 1112.53,-465.6 1061,-506.45 1053.34,-512.52 1044.43,-517.38 1035.2,-521.25"/>
<polygon fill="midnightblue" stroke="midnightblue" points="1161.32,-354.21 1161.28,-343.62 1154.71,-351.92 1161.32,-354.21"/>
</g>
<!-- Node6&#45;&gt;Node16 -->
<g id="edge23" class="edge">
<title>Node6&#45;&gt;Node16</title>
<path fill="none" stroke="midnightblue" d="M1123.6,-308.4C1114.3,-302.96 1104.89,-296.58 1097,-289.45 1076.42,-270.84 1083.43,-254.78 1061,-238.45 1052.67,-232.38 1043.08,-227.52 1033.26,-223.63"/>
<polygon fill="midnightblue" stroke="midnightblue" points="1121.99,-311.51 1132.43,-313.31 1125.4,-305.39 1121.99,-311.51"/>
</g>
<!-- Node6&#45;&gt;Node18 -->
<g id="edge25" class="edge">
<title>Node6&#45;&gt;Node18</title>
<path fill="none" stroke="midnightblue" d="M1157.44,-303.43C1143.1,-264.83 1110.78,-190.49 1061,-145.45 1047.73,-133.44 1030.55,-124.32 1014.4,-117.65"/>
<polygon fill="midnightblue" stroke="midnightblue" points="1154.33,-305.1 1161.01,-313.32 1160.91,-302.73 1154.33,-305.1"/>
</g>
<!-- Node6&#45;&gt;Node20 -->
<g id="edge28" class="edge">
<title>Node6&#45;&gt;Node20</title>
<path fill="none" stroke="midnightblue" d="M1155.24,-304.1C1139.49,-271.43 1106.94,-214.09 1061,-184.45 1054.28,-180.11 1046.79,-176.69 1039.04,-174"/>
<polygon fill="midnightblue" stroke="midnightblue" points="1152.18,-305.81 1159.59,-313.39 1158.52,-302.85 1152.18,-305.81"/>
</g>
<!-- Node7&#45;&gt;Node8 -->
<g id="edge10" class="edge">
<title>Node7&#45;&gt;Node8</title>
<path fill="none" stroke="midnightblue" d="M872.27,-414.92C858.78,-415.59 844.87,-416.27 831.37,-416.94"/>
<polygon fill="midnightblue" stroke="midnightblue" points="872.68,-418.41 882.49,-414.42 872.33,-411.42 872.68,-418.41"/>
</g>
<!-- Node9 -->
<g id="node9" class="node">
<title>Node9</title>
<g id="a_node9"><a xlink:href="classklyqa__ctl_1_1account_1_1Account.html#a748c13aed7b2a5c9c605c81234633cb8" target="_top" xlink:title=" ">
<polygon fill="white" stroke="black" points="432.5,-455.45 432.5,-485.45 605.5,-485.45 605.5,-455.45 432.5,-455.45"/>
<text text-anchor="start" x="440.5" y="-473.45" font-family="Helvetica,sans-Serif" font-size="10.00">klyqa_ctl.account.Account.cloud</text>
<text text-anchor="middle" x="519" y="-462.45" font-family="Helvetica,sans-Serif" font-size="10.00">_post_to_device</text>
</a>
</g>
</g>
<!-- Node8&#45;&gt;Node9 -->
<g id="edge11" class="edge">
<title>Node8&#45;&gt;Node9</title>
<path fill="none" stroke="midnightblue" d="M661.22,-438.71C636.93,-444.17 610.29,-450.15 586.76,-455.44"/>
<polygon fill="midnightblue" stroke="midnightblue" points="662.12,-442.09 671.11,-436.48 660.59,-435.26 662.12,-442.09"/>
</g>
<!-- Node11 -->
<g id="node11" class="node">
<title>Node11</title>
<g id="a_node11"><a xlink:href="classklyqa__ctl_1_1account_1_1Account.html#a1450d1baa029967965be433e4efb5a6d" target="_top" xlink:title=" ">
<polygon fill="white" stroke="black" points="427,-406.45 427,-436.45 611,-436.45 611,-406.45 427,-406.45"/>
<text text-anchor="start" x="435" y="-424.45" font-family="Helvetica,sans-Serif" font-size="10.00">klyqa_ctl.account.Account.request</text>
<text text-anchor="middle" x="519" y="-413.45" font-family="Helvetica,sans-Serif" font-size="10.00">_cloud_device_state</text>
</a>
</g>
</g>
<!-- Node8&#45;&gt;Node11 -->
<g id="edge13" class="edge">
<title>Node8&#45;&gt;Node11</title>
<path fill="none" stroke="midnightblue" d="M636.53,-421.45C628.07,-421.45 619.55,-421.45 611.17,-421.45"/>
<polygon fill="midnightblue" stroke="midnightblue" points="636.81,-424.95 646.81,-421.45 636.81,-417.95 636.81,-424.95"/>
</g>
<!-- Node8&#45;&gt;Node12 -->
<g id="edge15" class="edge">
<title>Node8&#45;&gt;Node12</title>
<path fill="none" stroke="midnightblue" d="M707.36,-442.48C682.36,-458.84 645.65,-481.1 611,-495.45 603,-498.76 594.41,-501.73 585.82,-504.36"/>
<polygon fill="midnightblue" stroke="midnightblue" points="709.61,-445.18 716.01,-436.74 705.74,-439.35 709.61,-445.18"/>
</g>
<!-- Node14 -->
<g id="node14" class="node">
<title>Node14</title>
<g id="a_node14"><a xlink:href="classklyqa__ctl_1_1account_1_1Account.html#a4fb47c923d3a579054e8cc72480906fb" target="_top" xlink:title=" ">
<polygon fill="white" stroke="black" points="428.5,-357.45 428.5,-387.45 609.5,-387.45 609.5,-357.45 428.5,-357.45"/>
<text text-anchor="start" x="436.5" y="-375.45" font-family="Helvetica,sans-Serif" font-size="10.00">klyqa_ctl.account.Account.update</text>
<text text-anchor="middle" x="519" y="-364.45" font-family="Helvetica,sans-Serif" font-size="10.00">_device_configs</text>
</a>
</g>
</g>
<!-- Node8&#45;&gt;Node14 -->
<g id="edge17" class="edge">
<title>Node8&#45;&gt;Node14</title>
<path fill="none" stroke="midnightblue" d="M661.22,-404.19C636.93,-398.73 610.29,-392.74 586.76,-387.45"/>
<polygon fill="midnightblue" stroke="midnightblue" points="660.59,-407.63 671.11,-406.41 662.12,-400.8 660.59,-407.63"/>
</g>
<!-- Node10 -->
<g id="node10" class="node">
<title>Node10</title>
<g id="a_node10"><a xlink:href="classklyqa__ctl_1_1account_1_1Account.html#a372d813db2141719743dfe088dbe9552" target="_top" xlink:title=" ">
<polygon fill="white" stroke="black" points="212.5,-455.45 212.5,-485.45 385.5,-485.45 385.5,-455.45 212.5,-455.45"/>
<text text-anchor="start" x="220.5" y="-473.45" font-family="Helvetica,sans-Serif" font-size="10.00">klyqa_ctl.account.Account.cloud</text>
<text text-anchor="middle" x="299" y="-462.45" font-family="Helvetica,sans-Serif" font-size="10.00">_post_command_to_dev</text>
</a>
</g>
</g>
<!-- Node9&#45;&gt;Node10 -->
<g id="edge12" class="edge">
<title>Node9&#45;&gt;Node10</title>
<path fill="none" stroke="midnightblue" d="M422.29,-470.45C410.09,-470.45 397.67,-470.45 385.64,-470.45"/>
<polygon fill="midnightblue" stroke="midnightblue" points="422.47,-473.95 432.47,-470.45 422.47,-466.95 422.47,-473.95"/>
</g>
<!-- Node11&#45;&gt;Node4 -->
<g id="edge14" class="edge">
<title>Node11&#45;&gt;Node4</title>
<path fill="none" stroke="midnightblue" d="M435.12,-402.07C432.33,-400.64 429.61,-399.1 427,-397.45 370.28,-361.52 325.97,-292.09 308.31,-261.52"/>
<polygon fill="midnightblue" stroke="midnightblue" points="433.75,-405.29 444.3,-406.3 436.68,-398.93 433.75,-405.29"/>
</g>
<!-- Node12&#45;&gt;Node13 -->
<g id="edge16" class="edge">
<title>Node12&#45;&gt;Node13</title>
<path fill="none" stroke="midnightblue" d="M418.21,-519.45C409.15,-519.45 400.01,-519.45 391.03,-519.45"/>
<polygon fill="midnightblue" stroke="midnightblue" points="418.39,-522.95 428.39,-519.45 418.39,-515.95 418.39,-522.95"/>
</g>
<!-- Node15&#45;&gt;Node5 -->
<g id="edge20" class="edge">
<title>Node15&#45;&gt;Node5</title>
<path fill="none" stroke="midnightblue" d="M860.62,-550.09C714.24,-566.76 437.37,-587.78 207,-544.45 169.04,-537.31 127.7,-518.55 104.65,-507"/>
<polygon fill="midnightblue" stroke="midnightblue" points="861.4,-553.52 870.93,-548.9 860.59,-546.57 861.4,-553.52"/>
</g>
<!-- Node17 -->
<g id="node17" class="node">
<title>Node17</title>
<g id="a_node17"><a xlink:href="classklyqa__ctl_1_1account_1_1Account.html#a8e93f6fe918bf32c172447d4ef439d2d" target="_top" xlink:title=" ">
<polygon fill="white" stroke="black" points="654,-193.45 654,-223.45 824,-223.45 824,-193.45 654,-193.45"/>
<text text-anchor="start" x="662" y="-211.45" font-family="Helvetica,sans-Serif" font-size="10.00">klyqa_ctl.account.Account.sync</text>
<text text-anchor="middle" x="739" y="-200.45" font-family="Helvetica,sans-Serif" font-size="10.00">_acc_settings_to_controller</text>
</a>
</g>
</g>
<!-- Node16&#45;&gt;Node17 -->
<g id="edge24" class="edge">
<title>Node16&#45;&gt;Node17</title>
<path fill="none" stroke="midnightblue" d="M861.93,-208.45C849.34,-208.45 836.57,-208.45 824.27,-208.45"/>
<polygon fill="midnightblue" stroke="midnightblue" points="861.98,-211.95 871.98,-208.45 861.98,-204.95 861.98,-211.95"/>
</g>
<!-- Node18&#45;&gt;Node18 -->
<g id="edge26" class="edge">
<title>Node18&#45;&gt;Node18</title>
<path fill="none" stroke="midnightblue" d="M999.89,-127.91C995.44,-132.63 983.47,-135.95 964,-135.95 932.04,-135.95 920.31,-127 928.8,-117.61"/>
<polygon fill="midnightblue" stroke="midnightblue" points="1003.36,-127.35 999.2,-117.61 996.38,-127.82 1003.36,-127.35"/>
</g>
<!-- Node19 -->
<g id="node19" class="node">
<title>Node19</title>
<g id="a_node19"><a xlink:href="classklyqa__ctl_1_1klyqa__ctl_1_1Client.html#a7a93bda9f242d678a4208d0962837f11" target="_top" xlink:title=" ">
<polygon fill="white" stroke="black" points="656,-87.45 656,-117.45 822,-117.45 822,-87.45 656,-87.45"/>
<text text-anchor="start" x="664" y="-105.45" font-family="Helvetica,sans-Serif" font-size="10.00">klyqa_ctl.klyqa_ctl.Client.send</text>
<text text-anchor="middle" x="739" y="-94.45" font-family="Helvetica,sans-Serif" font-size="10.00">_to_devices_wrapped</text>
</a>
</g>
</g>
<!-- Node18&#45;&gt;Node19 -->
<g id="edge27" class="edge">
<title>Node18&#45;&gt;Node19</title>
<path fill="none" stroke="midnightblue" d="M870.5,-102.45C854.51,-102.45 837.98,-102.45 822.29,-102.45"/>
<polygon fill="midnightblue" stroke="midnightblue" points="870.91,-105.95 880.91,-102.45 870.91,-98.95 870.91,-105.95"/>
</g>
</g>
</svg>
        <g id="navigator" transform="translate(0 0)" fill="#404254">
                <rect fill="#f2f5e9" fill-opacity="0.5" stroke="#606060" stroke-width=".5" x="0" y="0" width="60" height="60"/>
                <use id="zoomplus" xlink:href="#zoomPlus" x="17" y="9" onmousedown="handleZoom(evt,'in')"/>
                <use id="zoomminus" xlink:href="#zoomMin" x="42" y="9" onmousedown="handleZoom(evt,'out')"/>
                <use id="reset" xlink:href="#resetDef" x="30" y="36" onmousedown="handleReset()"/>
                <g id="arrowUp" xlink:href="#dirArrow" transform="translate(30 24)" onmousedown="handlePan(0,-1)">
                  <use xlink:href="#rim" fill="#404040">
                        <set attributeName="fill" to="#808080" begin="arrowUp.mouseover" end="arrowUp.mouseout"/>
                  </use>
                  <path fill="none" stroke="white" stroke-width="1.5" d="M0,-3.0v7 M-2.5,-0.5L0,-3.0L2.5,-0.5"/>
                </g>
                <g id="arrowRight" xlink:href="#dirArrow" transform="rotate(90) translate(36 -43)" onmousedown="handlePan(1,0)">
                  <use xlink:href="#rim" fill="#404040">
                        <set attributeName="fill" to="#808080" begin="arrowRight.mouseover" end="arrowRight.mouseout"/>
                  </use>
                  <path fill="none" stroke="white" stroke-width="1.5" d="M0,-3.0v7 M-2.5,-0.5L0,-3.0L2.5,-0.5"/>
                </g>
                <g id="arrowDown" xlink:href="#dirArrow" transform="rotate(180) translate(-30 -48)" onmousedown="handlePan(0,1)">
                  <use xlink:href="#rim" fill="#404040">
                        <set attributeName="fill" to="#808080" begin="arrowDown.mouseover" end="arrowDown.mouseout"/>
                  </use>
                  <path fill="none" stroke="white" stroke-width="1.5" d="M0,-3.0v7 M-2.5,-0.5L0,-3.0L2.5,-0.5"/>
                </g>
                <g id="arrowLeft" xlink:href="#dirArrow" transform="rotate(270) translate(-36 17)" onmousedown="handlePan(-1,0)">
                  <use xlink:href="#rim" fill="#404040">
                        <set attributeName="fill" to="#808080" begin="arrowLeft.mouseover" end="arrowLeft.mouseout"/>
                  </use>
                  <path fill="none" stroke="white" stroke-width="1.5" d="M0,-3.0v7 M-2.5,-0.5L0,-3.0L2.5,-0.5"/>
                </g>
        </g>
        <svg viewBox="0 0 15 15" width="100%" height="30px" preserveAspectRatio="xMaxYMin meet">
         <g id="arrow_out" transform="scale(0.3 0.3)">
          <a xlink:href="classklyqa__ctl_1_1devices_1_1device_1_1Device_a574647293c61d5f53e153d48ddb31f65_icgraph_org.svg" target="_base">
           <rect id="button" ry="5" rx="5" y="6" x="6" height="38" width="38"
                fill="#f2f5e9" fill-opacity="0.5" stroke="#606060" stroke-width="1.0"/>
           <path id="arrow"
             d="M 11.500037,31.436501 C 11.940474,20.09759 22.043105,11.32322 32.158766,21.979434 L 37.068811,17.246167 C 37.068811,17.246167 37.088388,32 37.088388,32 L 22.160133,31.978069 C 22.160133,31.978069 26.997745,27.140456 26.997745,27.140456 C 18.528582,18.264221 13.291696,25.230495 11.500037,31.436501 z"
             style="fill:#404040;"/>
          </a>
         </g>
        </svg>
</svg>
