<?xml version="1.0" encoding="UTF-8" standalone="no"?>
<!DOCTYPE svg PUBLIC "-//W3C//DTD SVG 1.1//EN"
 "http://www.w3.org/Graphics/SVG/1.1/DTD/svg11.dtd">
<!-- Generated by graphviz version 2.43.0 (0)
 -->
<!-- Title: cloud.CloudBackend.controller_data Pages: 1 -->
<svg width="1257pt" height="373pt"
 viewBox="0.00 0.00 1257.00 373.00" xmlns="http://www.w3.org/2000/svg" xmlns:xlink="http://www.w3.org/1999/xlink">
<g id="graph0" class="graph" transform="scale(1 1) rotate(0) translate(4 369)">
<title>cloud.CloudBackend.controller_data</title>
<polygon fill="white" stroke="transparent" points="-4,4 -4,-369 1253,-369 1253,4 -4,4"/>
<!-- Node1 -->
<g id="node1" class="node">
<title>Node1</title>
<g id="a_node1"><a xlink:title=" ">
<polygon fill="#bfbfbf" stroke="black" points="1058,-181 1058,-200 1249,-200 1249,-181 1058,-181"/>
<text text-anchor="middle" x="1153.5" y="-188" font-family="Helvetica,sans-Serif" font-size="10.00">cloud.CloudBackend.controller_data</text>
</a>
</g>
</g>
<!-- Node2 -->
<g id="node2" class="node">
<title>Node2</title>
<g id="a_node2"><a xlink:href="classklyqa__ctl_1_1local__controller_1_1LocalController.html#ad820bb0d181aeb158a3177323ee35cdf" target="_top" xlink:title=" ">
<polygon fill="white" stroke="black" points="861,-334.5 861,-364.5 1002,-364.5 1002,-334.5 861,-334.5"/>
<text text-anchor="start" x="869" y="-352.5" font-family="Helvetica,sans-Serif" font-size="10.00">klyqa_ctl.local_controller.</text>
<text text-anchor="middle" x="931.5" y="-341.5" font-family="Helvetica,sans-Serif" font-size="10.00">LocalController.__init__</text>
</a>
</g>
</g>
<!-- Node1&#45;&gt;Node2 -->
<g id="edge1" class="edge">
<title>Node1&#45;&gt;Node2</title>
<path fill="none" stroke="midnightblue" d="M1139.87,-208.64C1118.8,-237.53 1073.66,-293.85 1022,-324.5 1015.48,-328.37 1008.34,-331.66 1001.02,-334.46"/>
<polygon fill="midnightblue" stroke="midnightblue" points="1142.87,-210.46 1145.84,-200.29 1137.18,-206.39 1142.87,-210.46"/>
</g>
<!-- Node3 -->
<g id="node3" class="node">
<title>Node3</title>
<g id="a_node3"><a xlink:href="classcloud_1_1CloudBackend.html#a55182bd23ebf03d54d1754fffe7ca101" target="_top" xlink:title=" ">
<polygon fill="white" stroke="black" points="845,-296 845,-315 1018,-315 1018,-296 845,-296"/>
<text text-anchor="middle" x="931.5" y="-303" font-family="Helvetica,sans-Serif" font-size="10.00">cloud.CloudBackend.cloud_send</text>
</a>
</g>
</g>
<!-- Node1&#45;&gt;Node3 -->
<g id="edge2" class="edge">
<title>Node1&#45;&gt;Node3</title>
<path fill="none" stroke="midnightblue" d="M1135.19,-207.08C1111.57,-228.75 1066.99,-266.31 1022,-286.5 1013.45,-290.34 1004.09,-293.41 994.74,-295.88"/>
<polygon fill="midnightblue" stroke="midnightblue" points="1137.72,-209.51 1142.64,-200.13 1132.94,-204.39 1137.72,-209.51"/>
</g>
<!-- Node4 -->
<g id="node4" class="node">
<title>Node4</title>
<g id="a_node4"><a xlink:href="classcloud_1_1CloudBackend.html#a566850b368080b6ff85ee2675aa9b3e2" target="_top" xlink:title=" ">
<polygon fill="white" stroke="black" points="864.5,-246.5 864.5,-276.5 998.5,-276.5 998.5,-246.5 864.5,-246.5"/>
<text text-anchor="start" x="872.5" y="-264.5" font-family="Helvetica,sans-Serif" font-size="10.00">cloud.CloudBackend.get</text>
<text text-anchor="middle" x="931.5" y="-253.5" font-family="Helvetica,sans-Serif" font-size="10.00">_device_configs</text>
</a>
</g>
</g>
<!-- Node1&#45;&gt;Node4 -->
<g id="edge3" class="edge">
<title>Node1&#45;&gt;Node4</title>
<path fill="none" stroke="midnightblue" d="M1118.23,-203.73C1092.06,-213.62 1055.01,-227.15 1022,-237.5 1012.18,-240.58 1001.67,-243.62 991.44,-246.45"/>
<polygon fill="midnightblue" stroke="midnightblue" points="1119.59,-206.96 1127.69,-200.14 1117.1,-200.42 1119.59,-206.96"/>
</g>
<!-- Node5 -->
<g id="node5" class="node">
<title>Node5</title>
<g id="a_node5"><a xlink:href="classklyqa__ctl_1_1account_1_1Account.html#adad4d644a9bbb3633405dac89e86edd3" target="_top" xlink:title=" ">
<polygon fill="white" stroke="black" points="850,-197.5 850,-227.5 1013,-227.5 1013,-197.5 850,-197.5"/>
<text text-anchor="start" x="858" y="-215.5" font-family="Helvetica,sans-Serif" font-size="10.00">klyqa_ctl.account.Account.get</text>
<text text-anchor="middle" x="931.5" y="-204.5" font-family="Helvetica,sans-Serif" font-size="10.00">_or_create_device</text>
</a>
</g>
</g>
<!-- Node1&#45;&gt;Node5 -->
<g id="edge4" class="edge">
<title>Node1&#45;&gt;Node5</title>
<path fill="none" stroke="midnightblue" d="M1047.75,-200.98C1036.13,-202.14 1024.43,-203.31 1013.17,-204.43"/>
<polygon fill="midnightblue" stroke="midnightblue" points="1048.32,-204.44 1057.92,-199.96 1047.62,-197.47 1048.32,-204.44"/>
</g>
<!-- Node6 -->
<g id="node6" class="node">
<title>Node6</title>
<g id="a_node6"><a xlink:href="classklyqa__ctl_1_1account_1_1Account.html#a8e93f6fe918bf32c172447d4ef439d2d" target="_top" xlink:title=" ">
<polygon fill="white" stroke="black" points="627,-178.5 627,-208.5 797,-208.5 797,-178.5 627,-178.5"/>
<text text-anchor="start" x="635" y="-196.5" font-family="Helvetica,sans-Serif" font-size="10.00">klyqa_ctl.account.Account.sync</text>
<text text-anchor="middle" x="712" y="-185.5" font-family="Helvetica,sans-Serif" font-size="10.00">_acc_settings_to_controller</text>
</a>
</g>
</g>
<!-- Node1&#45;&gt;Node6 -->
<g id="edge14" class="edge">
<title>Node1&#45;&gt;Node6</title>
<path fill="none" stroke="midnightblue" d="M1047.44,-188.47C987.04,-187.64 909.75,-187.16 841,-188.5 826.88,-188.78 811.89,-189.22 797.33,-189.74"/>
<polygon fill="midnightblue" stroke="midnightblue" points="1047.7,-191.97 1057.75,-188.62 1047.8,-184.97 1047.7,-191.97"/>
</g>
<!-- Node7 -->
<g id="node7" class="node">
<title>Node7</title>
<g id="a_node7"><a xlink:href="classlocal_1_1connection__handler_1_1LocalConnectionHandler.html#a4ce11db96280d000941a91cb37df2842" target="_top" xlink:title=" ">
<polygon fill="white" stroke="black" points="844,-99 844,-140 1019,-140 1019,-99 844,-99"/>
<text text-anchor="start" x="852" y="-128" font-family="Helvetica,sans-Serif" font-size="10.00">local.connection_handler.</text>
<text text-anchor="start" x="852" y="-117" font-family="Helvetica,sans-Serif" font-size="10.00">LocalConnectionHandler.process</text>
<text text-anchor="middle" x="931.5" y="-106" font-family="Helvetica,sans-Serif" font-size="10.00">_device_identity_package</text>
</a>
</g>
</g>
<!-- Node1&#45;&gt;Node7 -->
<g id="edge6" class="edge">
<title>Node1&#45;&gt;Node7</title>
<path fill="none" stroke="midnightblue" d="M1113.25,-177.83C1080.82,-167.37 1034.15,-152.31 996.36,-140.11"/>
<polygon fill="midnightblue" stroke="midnightblue" points="1112.24,-181.18 1122.83,-180.92 1114.39,-174.52 1112.24,-181.18"/>
</g>
<!-- Node12 -->
<g id="node12" class="node">
<title>Node12</title>
<g id="a_node12"><a xlink:href="classklyqa__ctl_1_1account_1_1Account.html#a5ab3a2f4382c4437255871d4296cee9a" target="_top" xlink:title=" ">
<polygon fill="white" stroke="black" points="850,-49.5 850,-79.5 1013,-79.5 1013,-49.5 850,-49.5"/>
<text text-anchor="start" x="858" y="-67.5" font-family="Helvetica,sans-Serif" font-size="10.00">klyqa_ctl.account.Account.run</text>
<text text-anchor="middle" x="931.5" y="-56.5" font-family="Helvetica,sans-Serif" font-size="10.00">_password_prompt</text>
</a>
</g>
</g>
<!-- Node1&#45;&gt;Node12 -->
<g id="edge11" class="edge">
<title>Node1&#45;&gt;Node12</title>
<path fill="none" stroke="midnightblue" d="M1135.52,-173.79C1111.96,-151.48 1067.11,-112.16 1022,-89.5 1014.5,-85.73 1006.36,-82.47 998.14,-79.65"/>
<polygon fill="midnightblue" stroke="midnightblue" points="1133.3,-176.51 1142.94,-180.92 1138.15,-171.46 1133.3,-176.51"/>
</g>
<!-- Node15 -->
<g id="node15" class="node">
<title>Node15</title>
<g id="a_node15"><a xlink:href="classklyqa__ctl_1_1account_1_1Account.html#a4fb47c923d3a579054e8cc72480906fb" target="_top" xlink:title=" ">
<polygon fill="white" stroke="black" points="841,-0.5 841,-30.5 1022,-30.5 1022,-0.5 841,-0.5"/>
<text text-anchor="start" x="849" y="-18.5" font-family="Helvetica,sans-Serif" font-size="10.00">klyqa_ctl.account.Account.update</text>
<text text-anchor="middle" x="931.5" y="-7.5" font-family="Helvetica,sans-Serif" font-size="10.00">_device_configs</text>
</a>
</g>
</g>
<!-- Node1&#45;&gt;Node15 -->
<g id="edge15" class="edge">
<title>Node1&#45;&gt;Node15</title>
<path fill="none" stroke="midnightblue" d="M1141.89,-172.24C1122.36,-140.3 1077.6,-74.36 1022,-39.5 1016.55,-36.08 1010.61,-33.15 1004.48,-30.62"/>
<polygon fill="midnightblue" stroke="midnightblue" points="1138.99,-174.2 1147.12,-180.99 1144.99,-170.61 1138.99,-174.2"/>
</g>
<!-- Node5&#45;&gt;Node6 -->
<g id="edge5" class="edge">
<title>Node5&#45;&gt;Node6</title>
<path fill="none" stroke="midnightblue" d="M839.66,-204.56C825.59,-203.34 811.11,-202.07 797.19,-200.85"/>
<polygon fill="midnightblue" stroke="midnightblue" points="839.55,-208.07 849.82,-205.45 840.16,-201.1 839.55,-208.07"/>
</g>
<!-- Node8 -->
<g id="node8" class="node">
<title>Node8</title>
<g id="a_node8"><a xlink:href="classlocal_1_1connection__handler_1_1LocalConnectionHandler.html#aaa28266e241c2e30e8acd468fab06fde" target="_top" xlink:title=" ">
<polygon fill="white" stroke="black" points="624.5,-99 624.5,-140 799.5,-140 799.5,-99 624.5,-99"/>
<text text-anchor="start" x="632.5" y="-128" font-family="Helvetica,sans-Serif" font-size="10.00">local.connection_handler.</text>
<text text-anchor="start" x="632.5" y="-117" font-family="Helvetica,sans-Serif" font-size="10.00">LocalConnectionHandler.process</text>
<text text-anchor="middle" x="712" y="-106" font-family="Helvetica,sans-Serif" font-size="10.00">_tcp_package</text>
</a>
</g>
</g>
<!-- Node7&#45;&gt;Node8 -->
<g id="edge7" class="edge">
<title>Node7&#45;&gt;Node8</title>
<path fill="none" stroke="midnightblue" d="M833.59,-119.5C822.28,-119.5 810.8,-119.5 799.64,-119.5"/>
<polygon fill="midnightblue" stroke="midnightblue" points="833.91,-123 843.91,-119.5 833.91,-116 833.91,-123"/>
</g>
<!-- Node9 -->
<g id="node9" class="node">
<title>Node9</title>
<g id="a_node9"><a xlink:href="classlocal_1_1connection__handler_1_1LocalConnectionHandler.html#a900e05554022ee9ecb3ba5621369016d" target="_top" xlink:title=" ">
<polygon fill="white" stroke="black" points="412.5,-99 412.5,-140 582.5,-140 582.5,-99 412.5,-99"/>
<text text-anchor="start" x="420.5" y="-128" font-family="Helvetica,sans-Serif" font-size="10.00">local.connection_handler.</text>
<text text-anchor="start" x="420.5" y="-117" font-family="Helvetica,sans-Serif" font-size="10.00">LocalConnectionHandler.handle</text>
<text text-anchor="middle" x="497.5" y="-106" font-family="Helvetica,sans-Serif" font-size="10.00">_connection</text>
</a>
</g>
</g>
<!-- Node8&#45;&gt;Node9 -->
<g id="edge8" class="edge">
<title>Node8&#45;&gt;Node9</title>
<path fill="none" stroke="midnightblue" d="M614.19,-119.5C603.63,-119.5 592.95,-119.5 582.56,-119.5"/>
<polygon fill="midnightblue" stroke="midnightblue" points="614.26,-123 624.26,-119.5 614.26,-116 614.26,-123"/>
</g>
<!-- Node10 -->
<g id="node10" class="node">
<title>Node10</title>
<g id="a_node10"><a xlink:href="classlocal_1_1connection__handler_1_1LocalConnectionHandler.html#a0b582d0bf1523d1d0404867ab921539f" target="_top" xlink:title=" ">
<polygon fill="white" stroke="black" points="206,-99 206,-140 376,-140 376,-99 206,-99"/>
<text text-anchor="start" x="214" y="-128" font-family="Helvetica,sans-Serif" font-size="10.00">local.connection_handler.</text>
<text text-anchor="start" x="214" y="-117" font-family="Helvetica,sans-Serif" font-size="10.00">LocalConnectionHandler.device</text>
<text text-anchor="middle" x="291" y="-106" font-family="Helvetica,sans-Serif" font-size="10.00">_handle_local_tcp</text>
</a>
</g>
</g>
<!-- Node9&#45;&gt;Node10 -->
<g id="edge9" class="edge">
<title>Node9&#45;&gt;Node10</title>
<path fill="none" stroke="midnightblue" d="M402.24,-119.5C393.51,-119.5 384.7,-119.5 376.07,-119.5"/>
<polygon fill="midnightblue" stroke="midnightblue" points="402.44,-123 412.44,-119.5 402.44,-116 402.44,-123"/>
</g>
<!-- Node11 -->
<g id="node11" class="node">
<title>Node11</title>
<g id="a_node11"><a xlink:href="classlocal_1_1connection__handler_1_1LocalConnectionHandler.html#a5e9277acd0b7bfa5a1e74417e0e10d86" target="_top" xlink:title=" ">
<polygon fill="white" stroke="black" points="0,-99 0,-140 170,-140 170,-99 0,-99"/>
<text text-anchor="start" x="8" y="-128" font-family="Helvetica,sans-Serif" font-size="10.00">local.connection_handler.</text>
<text text-anchor="start" x="8" y="-117" font-family="Helvetica,sans-Serif" font-size="10.00">LocalConnectionHandler.handle</text>
<text text-anchor="middle" x="85" y="-106" font-family="Helvetica,sans-Serif" font-size="10.00">_incoming_tcp_connection</text>
</a>
</g>
</g>
<!-- Node10&#45;&gt;Node11 -->
<g id="edge10" class="edge">
<title>Node10&#45;&gt;Node11</title>
<path fill="none" stroke="midnightblue" d="M195.6,-119.5C187.15,-119.5 178.64,-119.5 170.29,-119.5"/>
<polygon fill="midnightblue" stroke="midnightblue" points="195.85,-123 205.85,-119.5 195.85,-116 195.85,-123"/>
</g>
<!-- Node13 -->
<g id="node13" class="node">
<title>Node13</title>
<g id="a_node13"><a xlink:href="classklyqa__ctl_1_1account_1_1Account.html#acbc09f2b1b4cb6b7ed771b96ea79613b" target="_top" xlink:title=" ">
<polygon fill="white" stroke="black" points="619,-49.5 619,-79.5 805,-79.5 805,-49.5 619,-49.5"/>
<text text-anchor="start" x="627" y="-67.5" font-family="Helvetica,sans-Serif" font-size="10.00">klyqa_ctl.account.Account.perform</text>
<text text-anchor="middle" x="712" y="-56.5" font-family="Helvetica,sans-Serif" font-size="10.00">_login</text>
</a>
</g>
</g>
<!-- Node12&#45;&gt;Node13 -->
<g id="edge12" class="edge">
<title>Node12&#45;&gt;Node13</title>
<path fill="none" stroke="midnightblue" d="M839.52,-64.5C828.2,-64.5 816.62,-64.5 805.28,-64.5"/>
<polygon fill="midnightblue" stroke="midnightblue" points="839.82,-68 849.82,-64.5 839.82,-61 839.82,-68"/>
</g>
<!-- Node14 -->
<g id="node14" class="node">
<title>Node14</title>
<g id="a_node14"><a xlink:href="classklyqa__ctl_1_1account_1_1Account.html#a0b171a600e4342d035ad26c39b384b38" target="_top" xlink:title=" ">
<polygon fill="white" stroke="black" points="412,-55 412,-74 583,-74 583,-55 412,-55"/>
<text text-anchor="middle" x="497.5" y="-62" font-family="Helvetica,sans-Serif" font-size="10.00">klyqa_ctl.account.Account.login</text>
</a>
</g>
</g>
<!-- Node13&#45;&gt;Node14 -->
<g id="edge13" class="edge">
<title>Node13&#45;&gt;Node14</title>
<path fill="none" stroke="midnightblue" d="M608.48,-64.5C600.06,-64.5 591.6,-64.5 583.33,-64.5"/>
<polygon fill="midnightblue" stroke="midnightblue" points="608.72,-68 618.72,-64.5 608.72,-61 608.72,-68"/>
</g>
</g>
</svg>
