<?xml version="1.0" encoding="UTF-8" standalone="no"?>
<!DOCTYPE svg PUBLIC "-//W3C//DTD SVG 1.1//EN"
 "http://www.w3.org/Graphics/SVG/1.1/DTD/svg11.dtd">
<!-- Generated by graphviz version 2.43.0 (0)
 -->
<!-- Title: klyqa_ctl.account.Account.access_token Pages: 1 -->
<svg width="1289pt" height="228pt"
 viewBox="0.00 0.00 1289.00 228.00" xmlns="http://www.w3.org/2000/svg" xmlns:xlink="http://www.w3.org/1999/xlink">
<g id="graph0" class="graph" transform="scale(1 1) rotate(0) translate(4 224)">
<title>klyqa_ctl.account.Account.access_token</title>
<polygon fill="white" stroke="transparent" points="-4,4 -4,-224 1285,-224 1285,4 -4,4"/>
<!-- Node1 -->
<g id="node1" class="node">
<title>Node1</title>
<g id="a_node1"><a xlink:title=" ">
<polygon fill="#bfbfbf" stroke="black" points="1101,-120.5 1101,-150.5 1281,-150.5 1281,-120.5 1101,-120.5"/>
<text text-anchor="start" x="1109" y="-138.5" font-family="Helvetica,sans-Serif" font-size="10.00">klyqa_ctl.account.Account.access</text>
<text text-anchor="middle" x="1191" y="-127.5" font-family="Helvetica,sans-Serif" font-size="10.00">_token</text>
</a>
</g>
</g>
<!-- Node2 -->
<g id="node2" class="node">
<title>Node2</title>
<g id="a_node2"><a xlink:href="classklyqa__ctl_1_1account_1_1Account.html#a19bd2d6d0ae6a4e738c4d40453557606" target="_top" xlink:title=" ">
<polygon fill="white" stroke="black" points="647,-189.5 647,-219.5 835,-219.5 835,-189.5 647,-189.5"/>
<text text-anchor="start" x="655" y="-207.5" font-family="Helvetica,sans-Serif" font-size="10.00">klyqa_ctl.account.Account.backend</text>
<text text-anchor="middle" x="741" y="-196.5" font-family="Helvetica,sans-Serif" font-size="10.00">_connected</text>
</a>
</g>
</g>
<!-- Node1&#45;&gt;Node2 -->
<g id="edge1" class="edge">
<title>Node1&#45;&gt;Node2</title>
<path fill="none" stroke="midnightblue" d="M1148.44,-154.62C1124.55,-164.72 1093.67,-176.27 1065,-182.5 988.79,-199.05 900.31,-204.12 835.24,-205.3"/>
<polygon fill="midnightblue" stroke="midnightblue" points="1150.09,-157.72 1157.89,-150.55 1147.32,-151.29 1150.09,-157.72"/>
</g>
<!-- Node5 -->
<g id="node5" class="node">
<title>Node5</title>
<g id="a_node5"><a xlink:href="classklyqa__ctl_1_1account_1_1Account.html#ad608e3ee0ba1199f509e644a11081724" target="_top" xlink:title=" ">
<polygon fill="white" stroke="black" points="886.5,-142.5 886.5,-172.5 1049.5,-172.5 1049.5,-142.5 886.5,-142.5"/>
<text text-anchor="start" x="894.5" y="-160.5" font-family="Helvetica,sans-Serif" font-size="10.00">klyqa_ctl.account.Account.get</text>
<text text-anchor="middle" x="968" y="-149.5" font-family="Helvetica,sans-Serif" font-size="10.00">_beared_request_header</text>
</a>
</g>
</g>
<!-- Node1&#45;&gt;Node5 -->
<g id="edge4" class="edge">
<title>Node1&#45;&gt;Node5</title>
<path fill="none" stroke="midnightblue" d="M1090.78,-145.38C1077.03,-146.75 1063.03,-148.14 1049.67,-149.47"/>
<polygon fill="midnightblue" stroke="midnightblue" points="1091.14,-148.86 1100.75,-144.38 1090.45,-141.89 1091.14,-148.86"/>
</g>
<!-- Node6 -->
<g id="node6" class="node">
<title>Node6</title>
<g id="a_node6"><a xlink:href="classklyqa__ctl_1_1account_1_1Account.html#a73506bd234f8e819e138c2bd663179b8" target="_top" xlink:title=" ">
<polygon fill="white" stroke="black" points="649,-98.5 649,-128.5 833,-128.5 833,-98.5 649,-98.5"/>
<text text-anchor="start" x="657" y="-116.5" font-family="Helvetica,sans-Serif" font-size="10.00">klyqa_ctl.account.Account.request</text>
<text text-anchor="middle" x="741" y="-105.5" font-family="Helvetica,sans-Serif" font-size="10.00">_beared</text>
</a>
</g>
</g>
<!-- Node1&#45;&gt;Node6 -->
<g id="edge13" class="edge">
<title>Node1&#45;&gt;Node6</title>
<path fill="none" stroke="midnightblue" d="M1090.77,-130.63C1013.82,-126.85 908.02,-121.65 833.18,-117.98"/>
<polygon fill="midnightblue" stroke="midnightblue" points="1090.79,-134.13 1100.95,-131.13 1091.14,-127.14 1090.79,-134.13"/>
</g>
<!-- Node13 -->
<g id="node13" class="node">
<title>Node13</title>
<g id="a_node13"><a xlink:href="classklyqa__ctl_1_1account_1_1Account.html#af0e05ae15ad46c4b1b3bbb69b6bb7151" target="_top" xlink:title=" ">
<polygon fill="white" stroke="black" points="871,-66 871,-85 1065,-85 1065,-66 871,-66"/>
<text text-anchor="middle" x="968" y="-73" font-family="Helvetica,sans-Serif" font-size="10.00">klyqa_ctl.account.Account.shutdown</text>
</a>
</g>
</g>
<!-- Node1&#45;&gt;Node13 -->
<g id="edge14" class="edge">
<title>Node1&#45;&gt;Node13</title>
<path fill="none" stroke="midnightblue" d="M1129.52,-117.61C1109.07,-111.69 1086.08,-105.17 1065,-99.5 1046.58,-94.55 1026.09,-89.38 1008.78,-85.11"/>
<polygon fill="midnightblue" stroke="midnightblue" points="1128.75,-121.04 1139.33,-120.47 1130.7,-114.31 1128.75,-121.04"/>
</g>
<!-- Node3 -->
<g id="node3" class="node">
<title>Node3</title>
<g id="a_node3"><a xlink:href="classklyqa__ctl_1_1account_1_1Account.html#aa78870d05cc7fa5899d61733d124e885" target="_top" xlink:title=" ">
<polygon fill="white" stroke="black" points="209.5,-169.5 209.5,-199.5 388.5,-199.5 388.5,-169.5 209.5,-169.5"/>
<text text-anchor="start" x="217.5" y="-187.5" font-family="Helvetica,sans-Serif" font-size="10.00">klyqa_ctl.account.Account.device</text>
<text text-anchor="middle" x="299" y="-176.5" font-family="Helvetica,sans-Serif" font-size="10.00">_request_and_print</text>
</a>
</g>
</g>
<!-- Node2&#45;&gt;Node3 -->
<g id="edge2" class="edge">
<title>Node2&#45;&gt;Node3</title>
<path fill="none" stroke="midnightblue" d="M636.51,-199.8C561.24,-196.37 460.4,-191.79 388.79,-188.54"/>
<polygon fill="midnightblue" stroke="midnightblue" points="636.81,-203.31 646.96,-200.27 637.13,-196.32 636.81,-203.31"/>
</g>
<!-- Node4 -->
<g id="node4" class="node">
<title>Node4</title>
<g id="a_node4"><a xlink:href="classklyqa__ctl_1_1account_1_1Account.html#a0b171a600e4342d035ad26c39b384b38" target="_top" xlink:title=" ">
<polygon fill="white" stroke="black" points="0,-175 0,-194 171,-194 171,-175 0,-175"/>
<text text-anchor="middle" x="85.5" y="-182" font-family="Helvetica,sans-Serif" font-size="10.00">klyqa_ctl.account.Account.login</text>
</a>
</g>
</g>
<!-- Node3&#45;&gt;Node4 -->
<g id="edge3" class="edge">
<title>Node3&#45;&gt;Node4</title>
<path fill="none" stroke="midnightblue" d="M199.17,-184.5C189.86,-184.5 180.49,-184.5 171.33,-184.5"/>
<polygon fill="midnightblue" stroke="midnightblue" points="199.22,-188 209.22,-184.5 199.22,-181 199.22,-188"/>
</g>
<!-- Node5&#45;&gt;Node6 -->
<g id="edge5" class="edge">
<title>Node5&#45;&gt;Node6</title>
<path fill="none" stroke="midnightblue" d="M880.36,-140.56C860.09,-136.59 838.64,-132.4 818.84,-128.53"/>
<polygon fill="midnightblue" stroke="midnightblue" points="879.71,-144 890.2,-142.48 881.05,-137.13 879.71,-144"/>
</g>
<!-- Node7 -->
<g id="node7" class="node">
<title>Node7</title>
<g id="a_node7"><a xlink:href="classklyqa__ctl_1_1account_1_1Account.html#a748c13aed7b2a5c9c605c81234633cb8" target="_top" xlink:title=" ">
<polygon fill="white" stroke="black" points="432.5,-98.5 432.5,-128.5 605.5,-128.5 605.5,-98.5 432.5,-98.5"/>
<text text-anchor="start" x="440.5" y="-116.5" font-family="Helvetica,sans-Serif" font-size="10.00">klyqa_ctl.account.Account.cloud</text>
<text text-anchor="middle" x="519" y="-105.5" font-family="Helvetica,sans-Serif" font-size="10.00">_post_to_device</text>
</a>
</g>
</g>
<!-- Node6&#45;&gt;Node7 -->
<g id="edge6" class="edge">
<title>Node6&#45;&gt;Node7</title>
<path fill="none" stroke="midnightblue" d="M638.81,-113.5C627.75,-113.5 616.56,-113.5 605.71,-113.5"/>
<polygon fill="midnightblue" stroke="midnightblue" points="638.93,-117 648.93,-113.5 638.93,-110 638.93,-117"/>
</g>
<!-- Node9 -->
<g id="node9" class="node">
<title>Node9</title>
<g id="a_node9"><a xlink:href="classklyqa__ctl_1_1account_1_1Account.html#a1450d1baa029967965be433e4efb5a6d" target="_top" xlink:title=" ">
<polygon fill="white" stroke="black" points="427,-147.5 427,-177.5 611,-177.5 611,-147.5 427,-147.5"/>
<text text-anchor="start" x="435" y="-165.5" font-family="Helvetica,sans-Serif" font-size="10.00">klyqa_ctl.account.Account.request</text>
<text text-anchor="middle" x="519" y="-154.5" font-family="Helvetica,sans-Serif" font-size="10.00">_cloud_device_state</text>
</a>
</g>
</g>
<!-- Node6&#45;&gt;Node9 -->
<g id="edge8" class="edge">
<title>Node6&#45;&gt;Node9</title>
<path fill="none" stroke="midnightblue" d="M662.51,-130.76C638,-136.22 611.12,-142.21 587.37,-147.49"/>
<polygon fill="midnightblue" stroke="midnightblue" points="663.5,-134.12 672.5,-128.53 661.98,-127.29 663.5,-134.12"/>
</g>
<!-- Node10 -->
<g id="node10" class="node">
<title>Node10</title>
<g id="a_node10"><a xlink:href="classklyqa__ctl_1_1account_1_1Account.html#af101070a97d556e95978748475933f72" target="_top" xlink:title=" ">
<polygon fill="white" stroke="black" points="428.5,-49.5 428.5,-79.5 609.5,-79.5 609.5,-49.5 428.5,-49.5"/>
<text text-anchor="start" x="436.5" y="-67.5" font-family="Helvetica,sans-Serif" font-size="10.00">klyqa_ctl.account.Account.update</text>
<text text-anchor="middle" x="519" y="-56.5" font-family="Helvetica,sans-Serif" font-size="10.00">_account_settings</text>
</a>
</g>
</g>
<!-- Node6&#45;&gt;Node10 -->
<g id="edge10" class="edge">
<title>Node6&#45;&gt;Node10</title>
<path fill="none" stroke="midnightblue" d="M662.51,-96.24C638,-90.78 611.12,-84.79 587.37,-79.51"/>
<polygon fill="midnightblue" stroke="midnightblue" points="661.98,-99.71 672.5,-98.47 663.5,-92.88 661.98,-99.71"/>
</g>
<!-- Node12 -->
<g id="node12" class="node">
<title>Node12</title>
<g id="a_node12"><a xlink:href="classklyqa__ctl_1_1account_1_1Account.html#a4fb47c923d3a579054e8cc72480906fb" target="_top" xlink:title=" ">
<polygon fill="white" stroke="black" points="428.5,-0.5 428.5,-30.5 609.5,-30.5 609.5,-0.5 428.5,-0.5"/>
<text text-anchor="start" x="436.5" y="-18.5" font-family="Helvetica,sans-Serif" font-size="10.00">klyqa_ctl.account.Account.update</text>
<text text-anchor="middle" x="519" y="-7.5" font-family="Helvetica,sans-Serif" font-size="10.00">_device_configs</text>
</a>
</g>
</g>
<!-- Node6&#45;&gt;Node12 -->
<g id="edge12" class="edge">
<title>Node6&#45;&gt;Node12</title>
<path fill="none" stroke="midnightblue" d="M709.16,-92.71C683.74,-76.35 646.26,-53.97 611,-39.5 602.99,-36.21 594.39,-33.26 585.8,-30.64"/>
<polygon fill="midnightblue" stroke="midnightblue" points="707.34,-95.7 717.63,-98.23 711.16,-89.84 707.34,-95.7"/>
</g>
<!-- Node8 -->
<g id="node8" class="node">
<title>Node8</title>
<g id="a_node8"><a xlink:href="classklyqa__ctl_1_1account_1_1Account.html#a372d813db2141719743dfe088dbe9552" target="_top" xlink:title=" ">
<polygon fill="white" stroke="black" points="212.5,-98.5 212.5,-128.5 385.5,-128.5 385.5,-98.5 212.5,-98.5"/>
<text text-anchor="start" x="220.5" y="-116.5" font-family="Helvetica,sans-Serif" font-size="10.00">klyqa_ctl.account.Account.cloud</text>
<text text-anchor="middle" x="299" y="-105.5" font-family="Helvetica,sans-Serif" font-size="10.00">_post_command_to_dev</text>
</a>
</g>
</g>
<!-- Node7&#45;&gt;Node8 -->
<g id="edge7" class="edge">
<title>Node7&#45;&gt;Node8</title>
<path fill="none" stroke="midnightblue" d="M422.29,-113.5C410.09,-113.5 397.67,-113.5 385.64,-113.5"/>
<polygon fill="midnightblue" stroke="midnightblue" points="422.47,-117 432.47,-113.5 422.47,-110 422.47,-117"/>
</g>
<!-- Node9&#45;&gt;Node3 -->
<g id="edge9" class="edge">
<title>Node9&#45;&gt;Node3</title>
<path fill="none" stroke="midnightblue" d="M416.71,-172.72C407.37,-173.66 397.95,-174.62 388.73,-175.55"/>
<polygon fill="midnightblue" stroke="midnightblue" points="417.21,-176.19 426.81,-171.7 416.51,-169.22 417.21,-176.19"/>
</g>
<!-- Node11 -->
<g id="node11" class="node">
<title>Node11</title>
<g id="a_node11"><a xlink:href="classklyqa__ctl_1_1account_1_1Account.html#aeca1011f6c6e2f6bcdb2136ef48bc7fd" target="_top" xlink:title=" ">
<polygon fill="white" stroke="black" points="207,-49.5 207,-79.5 391,-79.5 391,-49.5 207,-49.5"/>
<text text-anchor="start" x="215" y="-67.5" font-family="Helvetica,sans-Serif" font-size="10.00">klyqa_ctl.account.Account.request</text>
<text text-anchor="middle" x="299" y="-56.5" font-family="Helvetica,sans-Serif" font-size="10.00">_account_settings_eco</text>
</a>
</g>
</g>
<!-- Node10&#45;&gt;Node11 -->
<g id="edge11" class="edge">
<title>Node10&#45;&gt;Node11</title>
<path fill="none" stroke="midnightblue" d="M418.21,-64.5C409.15,-64.5 400.01,-64.5 391.03,-64.5"/>
<polygon fill="midnightblue" stroke="midnightblue" points="418.39,-68 428.39,-64.5 418.39,-61 418.39,-68"/>
</g>
</g>
</svg>
