<?xml version="1.0" encoding="UTF-8" standalone="no"?>
<!DOCTYPE svg PUBLIC "-//W3C//DTD SVG 1.1//EN"
 "http://www.w3.org/Graphics/SVG/1.1/DTD/svg11.dtd">
<!-- Generated by graphviz version 2.43.0 (0)
 -->
<!-- Title: klyqa_ctl.devices.device.Device.cloud Pages: 1 -->
<!--zoomable 711 -->
<svg id="main" version="1.1" xmlns="http://www.w3.org/2000/svg" xmlns:xlink="http://www.w3.org/1999/xlink" xml:space="preserve" onload="init(evt)">
<style type="text/css"><![CDATA[
.edge:hover path { stroke: red; }
.edge:hover polygon { stroke: red; fill: red; }
]]></style>
<script type="text/javascript"><![CDATA[
var edges = document.getElementsByTagName('g');
if (edges && edges.length) {
  for (var i=0;i<edges.length;i++) {
    if (edges[i].id.substr(0,4)=='edge') {
      edges[i].setAttribute('class','edge');
    }
  }
}
]]></script>
        <defs>
                <circle id="rim" cx="0" cy="0" r="7"/>
                <circle id="rim2" cx="0" cy="0" r="3.5"/>
                <g id="zoomPlus">
                        <use xlink:href="#rim" fill="#404040">
                                <set attributeName="fill" to="#808080" begin="zoomplus.mouseover" end="zoomplus.mouseout"/>
                        </use>
                        <path d="M-4,0h8M0,-4v8" fill="none" stroke="white" stroke-width="1.5" pointer-events="none"/>
                </g>
                <g id="zoomMin">
                        <use xlink:href="#rim" fill="#404040">
                                <set attributeName="fill" to="#808080" begin="zoomminus.mouseover" end="zoomminus.mouseout"/>
                        </use>
                        <path d="M-4,0h8" fill="none" stroke="white" stroke-width="1.5" pointer-events="none"/>
                </g>
                <g id="dirArrow">
                        <path fill="none" stroke="white" stroke-width="1.5" d="M0,-3.0v7 M-2.5,-0.5L0,-3.0L2.5,-0.5"/>
                </g>
               <g id="resetDef">
                       <use xlink:href="#rim2" fill="#404040">
                               <set attributeName="fill" to="#808080" begin="reset.mouseover" end="reset.mouseout"/>
                       </use>
               </g>
        </defs>

<script type="text/javascript">
var viewWidth = 1421;
var viewHeight = 711;
var sectionId = 'dynsection-9';
</script>
<script xlink:href="svgpan.js"/>
<svg id="graph" class="graph">
<g id="viewport">
<title>klyqa_ctl.devices.device.Device.cloud</title>
<polygon fill="white" stroke="transparent" points="-4,4 -4,-707.48 1417,-707.48 1417,4 -4,4"/>
<!-- Node1 -->
<g id="node1" class="node">
<title>Node1</title>
<g id="a_node1"><a xlink:title=" ">
<polygon fill="#bfbfbf" stroke="black" points="1273,-285.42 1273,-315.42 1413,-315.42 1413,-285.42 1273,-285.42"/>
<text text-anchor="start" x="1281" y="-303.42" font-family="Helvetica,sans-Serif" font-size="10.00">klyqa_ctl.devices.device.</text>
<text text-anchor="middle" x="1343" y="-292.42" font-family="Helvetica,sans-Serif" font-size="10.00">Device.cloud</text>
</a>
</g>
</g>
<!-- Node2 -->
<g id="node2" class="node">
<title>Node2</title>
<g id="a_node2"><a xlink:href="classklyqa__ctl_1_1account_1_1Account.html#a19bd2d6d0ae6a4e738c4d40453557606" target="_top" xlink:title=" ">
<polygon fill="white" stroke="black" points="870,-462.42 870,-492.42 1058,-492.42 1058,-462.42 870,-462.42"/>
<text text-anchor="start" x="878" y="-480.42" font-family="Helvetica,sans-Serif" font-size="10.00">klyqa_ctl.account.Account.backend</text>
<text text-anchor="middle" x="964" y="-469.42" font-family="Helvetica,sans-Serif" font-size="10.00">_connected</text>
</a>
</g>
</g>
<!-- Node1&#45;&gt;Node2 -->
<g id="edge1" class="edge">
<title>Node1&#45;&gt;Node2</title>
<path fill="none" stroke="midnightblue" d="M1309.08,-320.82C1288.59,-333.27 1261.55,-349.28 1237,-362.42 1160.42,-403.43 1141.79,-415.49 1061,-447.42 1047.36,-452.81 1032.33,-457.9 1018.3,-462.29"/>
<polygon fill="midnightblue" stroke="midnightblue" points="1311.01,-323.74 1317.72,-315.54 1307.36,-317.77 1311.01,-323.74"/>
</g>
<!-- Node3 -->
<g id="node3" class="node">
<title>Node3</title>
<g id="a_node3"><a xlink:href="classklyqa__ctl_1_1account_1_1Account.html#aa78870d05cc7fa5899d61733d124e885" target="_top" xlink:title=" ">
<polygon fill="white" stroke="black" points="209.5,-418.42 209.5,-448.42 388.5,-448.42 388.5,-418.42 209.5,-418.42"/>
<text text-anchor="start" x="217.5" y="-436.42" font-family="Helvetica,sans-Serif" font-size="10.00">klyqa_ctl.account.Account.device</text>
<text text-anchor="middle" x="299" y="-425.42" font-family="Helvetica,sans-Serif" font-size="10.00">_request_and_print</text>
</a>
</g>
</g>
<!-- Node1&#45;&gt;Node3 -->
<g id="edge28" class="edge">
<title>Node1&#45;&gt;Node3</title>
<path fill="none" stroke="midnightblue" d="M1336.84,-325.46C1326.24,-370.57 1297.72,-465.62 1237,-517.42 1174.85,-570.44 1141.4,-555.92 1061,-570.42 783.41,-620.48 678.67,-726.81 427,-599.42 402.89,-587.22 407.3,-571.98 391,-550.42 363.07,-513.47 329.43,-470.64 311.91,-448.47"/>
<polygon fill="midnightblue" stroke="midnightblue" points="1340.28,-326.14 1339.05,-315.62 1333.45,-324.61 1340.28,-326.14"/>
</g>
<!-- Node4 -->
<g id="node4" class="node">
<title>Node4</title>
<g id="a_node4"><a xlink:href="classklyqa__ctl_1_1account_1_1Account.html#a0b171a600e4342d035ad26c39b384b38" target="_top" xlink:title=" ">
<polygon fill="white" stroke="black" points="0,-385.92 0,-404.92 171,-404.92 171,-385.92 0,-385.92"/>
<text text-anchor="middle" x="85.5" y="-392.92" font-family="Helvetica,sans-Serif" font-size="10.00">klyqa_ctl.account.Account.login</text>
</a>
</g>
</g>
<!-- Node1&#45;&gt;Node4 -->
<g id="edge30" class="edge">
<title>Node1&#45;&gt;Node4</title>
<path fill="none" stroke="midnightblue" d="M1339.83,-275.03C1333.87,-222.44 1312.27,-101.78 1237,-44.42 1140.14,29.39 1086.78,-11.42 965,-11.42 965,-11.42 965,-11.42 518,-11.42 285.85,-11.42 120.7,-325.44 91.22,-385.54"/>
<polygon fill="midnightblue" stroke="midnightblue" points="1336.37,-275.58 1340.88,-285.17 1343.33,-274.86 1336.37,-275.58"/>
</g>
<!-- Node5 -->
<g id="node5" class="node">
<title>Node5</title>
<g id="a_node5"><a xlink:href="classklyqa__ctl_1_1devices_1_1device_1_1Device.html#a620bcc2824886b4d9063e3bfe39ab27b" target="_top" xlink:title=" ">
<polygon fill="white" stroke="black" points="1097,-323.42 1097,-353.42 1237,-353.42 1237,-323.42 1097,-323.42"/>
<text text-anchor="start" x="1105" y="-341.42" font-family="Helvetica,sans-Serif" font-size="10.00">klyqa_ctl.devices.device.</text>
<text text-anchor="middle" x="1167" y="-330.42" font-family="Helvetica,sans-Serif" font-size="10.00">Device.cloud</text>
</a>
</g>
</g>
<!-- Node1&#45;&gt;Node5 -->
<g id="edge4" class="edge">
<title>Node1&#45;&gt;Node5</title>
<path fill="none" stroke="midnightblue" d="M1263.32,-317.6C1254.49,-319.53 1245.54,-321.49 1236.84,-323.39"/>
<polygon fill="midnightblue" stroke="midnightblue" points="1264.21,-320.99 1273.23,-315.44 1262.71,-314.15 1264.21,-320.99"/>
</g>
<!-- Node6 -->
<g id="node6" class="node">
<title>Node6</title>
<g id="a_node6"><a xlink:href="classklyqa__ctl_1_1account_1_1Account.html#ad608e3ee0ba1199f509e644a11081724" target="_top" xlink:title=" ">
<polygon fill="white" stroke="black" points="882.5,-511.42 882.5,-541.42 1045.5,-541.42 1045.5,-511.42 882.5,-511.42"/>
<text text-anchor="start" x="890.5" y="-529.42" font-family="Helvetica,sans-Serif" font-size="10.00">klyqa_ctl.account.Account.get</text>
<text text-anchor="middle" x="964" y="-518.42" font-family="Helvetica,sans-Serif" font-size="10.00">_beared_request_header</text>
</a>
</g>
</g>
<!-- Node1&#45;&gt;Node6 -->
<g id="edge29" class="edge">
<title>Node1&#45;&gt;Node6</title>
<path fill="none" stroke="midnightblue" d="M1324.13,-323.55C1304.63,-347.68 1271.56,-385.53 1237,-411.42 1166.69,-464.1 1143.11,-470.17 1061,-501.42 1051.34,-505.1 1040.94,-508.42 1030.67,-511.36"/>
<polygon fill="midnightblue" stroke="midnightblue" points="1326.94,-325.63 1330.44,-315.63 1321.47,-321.27 1326.94,-325.63"/>
</g>
<!-- Node7 -->
<g id="node7" class="node">
<title>Node7</title>
<g id="a_node7"><a xlink:href="classklyqa__ctl_1_1account_1_1Account.html#a73506bd234f8e819e138c2bd663179b8" target="_top" xlink:title=" ">
<polygon fill="white" stroke="black" points="647,-511.42 647,-541.42 831,-541.42 831,-511.42 647,-511.42"/>
<text text-anchor="start" x="655" y="-529.42" font-family="Helvetica,sans-Serif" font-size="10.00">klyqa_ctl.account.Account.request</text>
<text text-anchor="middle" x="739" y="-518.42" font-family="Helvetica,sans-Serif" font-size="10.00">_beared</text>
</a>
</g>
</g>
<!-- Node1&#45;&gt;Node7 -->
<g id="edge33" class="edge">
<title>Node1&#45;&gt;Node7</title>
<path fill="none" stroke="midnightblue" d="M1331.25,-325.25C1315.15,-360.02 1281.79,-423.43 1237,-463.42 1171.91,-521.53 1145.97,-530.57 1061,-550.42 971.48,-571.34 864.46,-555.46 799.4,-541.44"/>
<polygon fill="midnightblue" stroke="midnightblue" points="1334.58,-326.4 1335.51,-315.85 1328.2,-323.51 1334.58,-326.4"/>
</g>
<!-- Node11 -->
<g id="node11" class="node">
<title>Node11</title>
<g id="a_node11"><a xlink:href="classklyqa__ctl_1_1account_1_1Account.html#af101070a97d556e95978748475933f72" target="_top" xlink:title=" ">
<polygon fill="white" stroke="black" points="428.5,-298.42 428.5,-328.42 609.5,-328.42 609.5,-298.42 428.5,-298.42"/>
<text text-anchor="start" x="436.5" y="-316.42" font-family="Helvetica,sans-Serif" font-size="10.00">klyqa_ctl.account.Account.update</text>
<text text-anchor="middle" x="519" y="-305.42" font-family="Helvetica,sans-Serif" font-size="10.00">_account_settings</text>
</a>
</g>
</g>
<!-- Node1&#45;&gt;Node11 -->
<g id="edge37" class="edge">
<title>Node1&#45;&gt;Node11</title>
<path fill="none" stroke="midnightblue" d="M1262.67,-301.68C1108.86,-304.11 771.06,-309.45 609.51,-312.01"/>
<polygon fill="midnightblue" stroke="midnightblue" points="1263.03,-305.17 1272.98,-301.51 1262.92,-298.17 1263.03,-305.17"/>
</g>
<!-- Node12 -->
<g id="node12" class="node">
<title>Node12</title>
<g id="a_node12"><a xlink:href="classklyqa__ctl_1_1account_1_1Account.html#aeca1011f6c6e2f6bcdb2136ef48bc7fd" target="_top" xlink:title=" ">
<polygon fill="white" stroke="black" points="207,-254.42 207,-284.42 391,-284.42 391,-254.42 207,-254.42"/>
<text text-anchor="start" x="215" y="-272.42" font-family="Helvetica,sans-Serif" font-size="10.00">klyqa_ctl.account.Account.request</text>
<text text-anchor="middle" x="299" y="-261.42" font-family="Helvetica,sans-Serif" font-size="10.00">_account_settings_eco</text>
</a>
</g>
</g>
<!-- Node1&#45;&gt;Node12 -->
<g id="edge32" class="edge">
<title>Node1&#45;&gt;Node12</title>
<path fill="none" stroke="midnightblue" d="M1336.24,-275.51C1325.01,-232.83 1295.93,-146.1 1237,-102.42 1138.05,-29.09 1088.16,-49.42 965,-49.42 965,-49.42 965,-49.42 738,-49.42 555.05,-49.42 370.46,-204.6 316.03,-254.3"/>
<polygon fill="midnightblue" stroke="midnightblue" points="1332.89,-276.52 1338.72,-285.36 1339.68,-274.81 1332.89,-276.52"/>
</g>
<!-- Node14 -->
<g id="node14" class="node">
<title>Node14</title>
<g id="a_node14"><a xlink:href="classklyqa__ctl_1_1account_1_1Account.html#acbc09f2b1b4cb6b7ed771b96ea79613b" target="_top" xlink:title=" ">
<polygon fill="white" stroke="black" points="871,-646.42 871,-676.42 1057,-676.42 1057,-646.42 871,-646.42"/>
<text text-anchor="start" x="879" y="-664.42" font-family="Helvetica,sans-Serif" font-size="10.00">klyqa_ctl.account.Account.perform</text>
<text text-anchor="middle" x="964" y="-653.42" font-family="Helvetica,sans-Serif" font-size="10.00">_login</text>
</a>
</g>
</g>
<!-- Node1&#45;&gt;Node14 -->
<g id="edge31" class="edge">
<title>Node1&#45;&gt;Node14</title>
<path fill="none" stroke="midnightblue" d="M1342.54,-325.97C1342.34,-389.18 1332.22,-553.36 1237,-631.42 1187.59,-671.93 1115.01,-678.16 1057.26,-674.94"/>
<polygon fill="midnightblue" stroke="midnightblue" points="1346.03,-325.7 1342.48,-315.72 1339.04,-325.74 1346.03,-325.7"/>
</g>
<!-- Node15 -->
<g id="node15" class="node">
<title>Node15</title>
<g id="a_node15"><a xlink:href="classklyqa__ctl_1_1account_1_1Account.html#a6f7d45c2ee71e0c761145bea5084dda6" target="_top" xlink:title=" ">
<polygon fill="white" stroke="black" points="872,-184.42 872,-214.42 1056,-214.42 1056,-184.42 872,-184.42"/>
<text text-anchor="start" x="880" y="-202.42" font-family="Helvetica,sans-Serif" font-size="10.00">klyqa_ctl.account.Account.request</text>
<text text-anchor="middle" x="964" y="-191.42" font-family="Helvetica,sans-Serif" font-size="10.00">_device_configs_from_acc_sets</text>
</a>
</g>
</g>
<!-- Node1&#45;&gt;Node15 -->
<g id="edge34" class="edge">
<title>Node1&#45;&gt;Node15</title>
<path fill="none" stroke="midnightblue" d="M1317.53,-278.76C1297.39,-262.27 1267.32,-240.56 1237,-229.42 1179.25,-208.2 1110.33,-200.77 1056.31,-198.61"/>
<polygon fill="midnightblue" stroke="midnightblue" points="1315.35,-281.5 1325.26,-285.24 1319.84,-276.14 1315.35,-281.5"/>
</g>
<!-- Node17 -->
<g id="node17" class="node">
<title>Node17</title>
<g id="a_node17"><a xlink:href="classklyqa__ctl_1_1klyqa__ctl_1_1Client.html#ad5c42cd8dd34ed1d6329040e164bfc2e" target="_top" xlink:title=" ">
<polygon fill="white" stroke="black" points="881,-78.42 881,-108.42 1047,-108.42 1047,-78.42 881,-78.42"/>
<text text-anchor="start" x="889" y="-96.42" font-family="Helvetica,sans-Serif" font-size="10.00">klyqa_ctl.klyqa_ctl.Client.send</text>
<text text-anchor="middle" x="964" y="-85.42" font-family="Helvetica,sans-Serif" font-size="10.00">_to_devices</text>
</a>
</g>
</g>
<!-- Node1&#45;&gt;Node17 -->
<g id="edge35" class="edge">
<title>Node1&#45;&gt;Node17</title>
<path fill="none" stroke="midnightblue" d="M1330.9,-275.72C1314.95,-243.13 1282.38,-186.42 1237,-156.42 1180.39,-119 1104.35,-103.66 1047.06,-97.45"/>
<polygon fill="midnightblue" stroke="midnightblue" points="1327.86,-277.47 1335.32,-285 1334.18,-274.47 1327.86,-277.47"/>
</g>
<!-- Node19 -->
<g id="node19" class="node">
<title>Node19</title>
<g id="a_node19"><a xlink:href="classklyqa__ctl_1_1account_1_1Account.html#af0e05ae15ad46c4b1b3bbb69b6bb7151" target="_top" xlink:title=" ">
<polygon fill="white" stroke="black" points="867,-145.92 867,-164.92 1061,-164.92 1061,-145.92 867,-145.92"/>
<text text-anchor="middle" x="964" y="-152.92" font-family="Helvetica,sans-Serif" font-size="10.00">klyqa_ctl.account.Account.shutdown</text>
</a>
</g>
</g>
<!-- Node1&#45;&gt;Node19 -->
<g id="edge36" class="edge">
<title>Node1&#45;&gt;Node19</title>
<path fill="none" stroke="midnightblue" d="M1325.22,-276.89C1306.6,-252.72 1274.21,-216.07 1237,-197.42 1182.75,-170.24 1115.38,-159.69 1061.27,-155.96"/>
<polygon fill="midnightblue" stroke="midnightblue" points="1322.64,-279.29 1331.45,-285.18 1328.24,-275.08 1322.64,-279.29"/>
</g>
<!-- Node2&#45;&gt;Node3 -->
<g id="edge2" class="edge">
<title>Node2&#45;&gt;Node3</title>
<path fill="none" stroke="midnightblue" d="M859.47,-469.8C789.36,-464.7 694.61,-457.95 611,-452.42 536.11,-447.47 451.04,-442.31 388.83,-438.61"/>
<polygon fill="midnightblue" stroke="midnightblue" points="859.41,-473.3 869.64,-470.54 859.92,-466.32 859.41,-473.3"/>
</g>
<!-- Node3&#45;&gt;Node4 -->
<g id="edge3" class="edge">
<title>Node3&#45;&gt;Node4</title>
<path fill="none" stroke="midnightblue" d="M204.56,-416.63C182.22,-412.62 159.14,-408.47 139.38,-404.92"/>
<polygon fill="midnightblue" stroke="midnightblue" points="203.95,-420.08 214.41,-418.4 205.19,-413.19 203.95,-420.08"/>
</g>
<!-- Node5&#45;&gt;Node2 -->
<g id="edge5" class="edge">
<title>Node5&#45;&gt;Node2</title>
<path fill="none" stroke="midnightblue" d="M1149.16,-361.9C1130.32,-386.55 1097.59,-424.81 1061,-447.42 1051.2,-453.48 1040.07,-458.41 1028.95,-462.39"/>
<polygon fill="midnightblue" stroke="midnightblue" points="1152.04,-363.89 1155.23,-353.79 1146.44,-359.7 1152.04,-363.89"/>
</g>
<!-- Node5&#45;&gt;Node3 -->
<g id="edge6" class="edge">
<title>Node5&#45;&gt;Node3</title>
<path fill="none" stroke="midnightblue" d="M1102.82,-356.56C1100.86,-357.18 1098.91,-357.8 1097,-358.42 1080.82,-363.68 1077.62,-367.81 1061,-371.42 821.85,-423.38 531.84,-432.64 388.71,-433.77"/>
<polygon fill="midnightblue" stroke="midnightblue" points="1104.26,-359.78 1112.78,-353.48 1102.19,-353.09 1104.26,-359.78"/>
</g>
<!-- Node5&#45;&gt;Node4 -->
<g id="edge16" class="edge">
<title>Node5&#45;&gt;Node4</title>
<path fill="none" stroke="midnightblue" d="M1086.53,-344.09C1001,-349.69 860.94,-357.42 740,-357.42 740,-357.42 740,-357.42 518,-357.42 388.46,-357.42 237.89,-374.63 153.24,-385.88"/>
<polygon fill="midnightblue" stroke="midnightblue" points="1086.94,-347.57 1096.68,-343.41 1086.47,-340.58 1086.94,-347.57"/>
</g>
<!-- Node5&#45;&gt;Node6 -->
<g id="edge7" class="edge">
<title>Node5&#45;&gt;Node6</title>
<path fill="none" stroke="midnightblue" d="M1156.76,-363.47C1142.13,-399.58 1110.14,-465.85 1061,-501.42 1055.7,-505.26 1049.86,-508.51 1043.75,-511.26"/>
<polygon fill="midnightblue" stroke="midnightblue" points="1160.19,-364.3 1160.59,-353.71 1153.68,-361.74 1160.19,-364.3"/>
</g>
<!-- Node5&#45;&gt;Node7 -->
<g id="edge20" class="edge">
<title>Node5&#45;&gt;Node7</title>
<path fill="none" stroke="midnightblue" d="M1096.88,-359.83C1076.04,-378.45 1081.75,-395.61 1061,-409.42 987.47,-458.35 949.25,-420.25 867,-452.42 827.55,-467.85 785.86,-494.39 761.43,-511.14"/>
<polygon fill="midnightblue" stroke="midnightblue" points="1099.31,-362.38 1105.05,-353.47 1095.01,-356.86 1099.31,-362.38"/>
</g>
<!-- Node5&#45;&gt;Node11 -->
<g id="edge27" class="edge">
<title>Node5&#45;&gt;Node11</title>
<path fill="none" stroke="midnightblue" d="M1086.58,-335.35C965.75,-330.67 736.42,-321.8 609.73,-316.89"/>
<polygon fill="midnightblue" stroke="midnightblue" points="1086.74,-338.86 1096.87,-335.75 1087.01,-331.86 1086.74,-338.86"/>
</g>
<!-- Node5&#45;&gt;Node12 -->
<g id="edge19" class="edge">
<title>Node5&#45;&gt;Node12</title>
<path fill="none" stroke="midnightblue" d="M1086.74,-326.55C1078.07,-325.41 1069.35,-324.34 1061,-323.42 819.91,-296.85 534.34,-280.66 391.28,-273.6"/>
<polygon fill="midnightblue" stroke="midnightblue" points="1086.52,-330.05 1096.89,-327.91 1087.44,-323.11 1086.52,-330.05"/>
</g>
<!-- Node5&#45;&gt;Node14 -->
<g id="edge17" class="edge">
<title>Node5&#45;&gt;Node14</title>
<path fill="none" stroke="midnightblue" d="M1156.28,-362.89C1139.64,-403.52 1103.33,-486.72 1061,-550.42 1036.32,-587.56 1000.52,-625.79 980.34,-646.27"/>
<polygon fill="midnightblue" stroke="midnightblue" points="1159.57,-364.1 1160.08,-353.52 1153.08,-361.47 1159.57,-364.1"/>
</g>
<!-- Node5&#45;&gt;Node15 -->
<g id="edge21" class="edge">
<title>Node5&#45;&gt;Node15</title>
<path fill="none" stroke="midnightblue" d="M1135.63,-317.42C1094.71,-289.12 1022.87,-239.44 986.87,-214.54"/>
<polygon fill="midnightblue" stroke="midnightblue" points="1133.89,-320.47 1144.11,-323.28 1137.87,-314.72 1133.89,-320.47"/>
</g>
<!-- Node5&#45;&gt;Node17 -->
<g id="edge23" class="edge">
<title>Node5&#45;&gt;Node17</title>
<path fill="none" stroke="midnightblue" d="M1159.07,-313.76C1146.21,-272.09 1114.94,-187.3 1061,-136.42 1048.11,-124.27 1031.21,-115.15 1015.18,-108.51"/>
<polygon fill="midnightblue" stroke="midnightblue" points="1155.73,-314.81 1161.95,-323.38 1162.43,-312.8 1155.73,-314.81"/>
</g>
<!-- Node5&#45;&gt;Node19 -->
<g id="edge26" class="edge">
<title>Node5&#45;&gt;Node19</title>
<path fill="none" stroke="midnightblue" d="M1157.47,-313.86C1143.43,-277.27 1111.81,-209.06 1061,-174.42 1055.38,-170.59 1049.18,-167.5 1042.71,-165"/>
<polygon fill="midnightblue" stroke="midnightblue" points="1154.21,-315.13 1160.97,-323.29 1160.77,-312.69 1154.21,-315.13"/>
</g>
<!-- Node6&#45;&gt;Node7 -->
<g id="edge8" class="edge">
<title>Node6&#45;&gt;Node7</title>
<path fill="none" stroke="midnightblue" d="M872.27,-526.42C858.78,-526.42 844.87,-526.42 831.37,-526.42"/>
<polygon fill="midnightblue" stroke="midnightblue" points="872.49,-529.92 882.49,-526.42 872.49,-522.92 872.49,-529.92"/>
</g>
<!-- Node8 -->
<g id="node8" class="node">
<title>Node8</title>
<g id="a_node8"><a xlink:href="classklyqa__ctl_1_1account_1_1Account.html#a748c13aed7b2a5c9c605c81234633cb8" target="_top" xlink:title=" ">
<polygon fill="white" stroke="black" points="432.5,-560.42 432.5,-590.42 605.5,-590.42 605.5,-560.42 432.5,-560.42"/>
<text text-anchor="start" x="440.5" y="-578.42" font-family="Helvetica,sans-Serif" font-size="10.00">klyqa_ctl.account.Account.cloud</text>
<text text-anchor="middle" x="519" y="-567.42" font-family="Helvetica,sans-Serif" font-size="10.00">_post_to_device</text>
</a>
</g>
</g>
<!-- Node7&#45;&gt;Node8 -->
<g id="edge9" class="edge">
<title>Node7&#45;&gt;Node8</title>
<path fill="none" stroke="midnightblue" d="M661.22,-543.68C636.93,-549.14 610.29,-555.13 586.76,-560.42"/>
<polygon fill="midnightblue" stroke="midnightblue" points="662.12,-547.06 671.11,-541.46 660.59,-540.23 662.12,-547.06"/>
</g>
<!-- Node10 -->
<g id="node10" class="node">
<title>Node10</title>
<g id="a_node10"><a xlink:href="classklyqa__ctl_1_1account_1_1Account.html#a1450d1baa029967965be433e4efb5a6d" target="_top" xlink:title=" ">
<polygon fill="white" stroke="black" points="427,-462.42 427,-492.42 611,-492.42 611,-462.42 427,-462.42"/>
<text text-anchor="start" x="435" y="-480.42" font-family="Helvetica,sans-Serif" font-size="10.00">klyqa_ctl.account.Account.request</text>
<text text-anchor="middle" x="519" y="-469.42" font-family="Helvetica,sans-Serif" font-size="10.00">_cloud_device_state</text>
</a>
</g>
</g>
<!-- Node7&#45;&gt;Node10 -->
<g id="edge11" class="edge">
<title>Node7&#45;&gt;Node10</title>
<path fill="none" stroke="midnightblue" d="M661.22,-509.16C636.93,-503.7 610.29,-497.72 586.76,-492.43"/>
<polygon fill="midnightblue" stroke="midnightblue" points="660.59,-512.61 671.11,-511.39 662.12,-505.78 660.59,-512.61"/>
</g>
<!-- Node7&#45;&gt;Node11 -->
<g id="edge13" class="edge">
<title>Node7&#45;&gt;Node11</title>
<path fill="none" stroke="midnightblue" d="M715.15,-504.1C670.65,-460.62 573.41,-365.61 535.54,-328.6"/>
<polygon fill="midnightblue" stroke="midnightblue" points="712.72,-506.62 722.32,-511.1 717.62,-501.61 712.72,-506.62"/>
</g>
<!-- Node13 -->
<g id="node13" class="node">
<title>Node13</title>
<g id="a_node13"><a xlink:href="classklyqa__ctl_1_1account_1_1Account.html#a4fb47c923d3a579054e8cc72480906fb" target="_top" xlink:title=" ">
<polygon fill="white" stroke="black" points="428.5,-511.42 428.5,-541.42 609.5,-541.42 609.5,-511.42 428.5,-511.42"/>
<text text-anchor="start" x="436.5" y="-529.42" font-family="Helvetica,sans-Serif" font-size="10.00">klyqa_ctl.account.Account.update</text>
<text text-anchor="middle" x="519" y="-518.42" font-family="Helvetica,sans-Serif" font-size="10.00">_device_configs</text>
</a>
</g>
</g>
<!-- Node7&#45;&gt;Node13 -->
<g id="edge15" class="edge">
<title>Node7&#45;&gt;Node13</title>
<path fill="none" stroke="midnightblue" d="M636.71,-526.42C627.72,-526.42 618.66,-526.42 609.78,-526.42"/>
<polygon fill="midnightblue" stroke="midnightblue" points="636.81,-529.92 646.81,-526.42 636.81,-522.92 636.81,-529.92"/>
</g>
<!-- Node9 -->
<g id="node9" class="node">
<title>Node9</title>
<g id="a_node9"><a xlink:href="classklyqa__ctl_1_1account_1_1Account.html#a372d813db2141719743dfe088dbe9552" target="_top" xlink:title=" ">
<polygon fill="white" stroke="black" points="212.5,-560.42 212.5,-590.42 385.5,-590.42 385.5,-560.42 212.5,-560.42"/>
<text text-anchor="start" x="220.5" y="-578.42" font-family="Helvetica,sans-Serif" font-size="10.00">klyqa_ctl.account.Account.cloud</text>
<text text-anchor="middle" x="299" y="-567.42" font-family="Helvetica,sans-Serif" font-size="10.00">_post_command_to_dev</text>
</a>
</g>
</g>
<!-- Node8&#45;&gt;Node9 -->
<g id="edge10" class="edge">
<title>Node8&#45;&gt;Node9</title>
<path fill="none" stroke="midnightblue" d="M422.29,-575.42C410.09,-575.42 397.67,-575.42 385.64,-575.42"/>
<polygon fill="midnightblue" stroke="midnightblue" points="422.47,-578.92 432.47,-575.42 422.47,-571.92 422.47,-578.92"/>
</g>
<!-- Node10&#45;&gt;Node3 -->
<g id="edge12" class="edge">
<title>Node10&#45;&gt;Node3</title>
<path fill="none" stroke="midnightblue" d="M433.78,-460.42C414.23,-456.48 393.55,-452.3 374.45,-448.45"/>
<polygon fill="midnightblue" stroke="midnightblue" points="433.09,-463.86 443.59,-462.4 434.48,-456.99 433.09,-463.86"/>
</g>
<!-- Node11&#45;&gt;Node12 -->
<g id="edge14" class="edge">
<title>Node11&#45;&gt;Node12</title>
<path fill="none" stroke="midnightblue" d="M433.78,-296.42C414.23,-292.48 393.55,-288.3 374.45,-284.45"/>
<polygon fill="midnightblue" stroke="midnightblue" points="433.09,-299.86 443.59,-298.4 434.48,-292.99 433.09,-299.86"/>
</g>
<!-- Node14&#45;&gt;Node4 -->
<g id="edge18" class="edge">
<title>Node14&#45;&gt;Node4</title>
<path fill="none" stroke="midnightblue" d="M884.33,-678.28C737.21,-705.16 416.45,-741.27 207,-599.42 133.43,-549.6 98.23,-438.62 89.02,-405.16"/>
<polygon fill="midnightblue" stroke="midnightblue" points="885,-681.72 894.19,-676.45 883.72,-674.84 885,-681.72"/>
</g>
<!-- Node16 -->
<g id="node16" class="node">
<title>Node16</title>
<g id="a_node16"><a xlink:href="classklyqa__ctl_1_1account_1_1Account.html#a8e93f6fe918bf32c172447d4ef439d2d" target="_top" xlink:title=" ">
<polygon fill="white" stroke="black" points="654,-184.42 654,-214.42 824,-214.42 824,-184.42 654,-184.42"/>
<text text-anchor="start" x="662" y="-202.42" font-family="Helvetica,sans-Serif" font-size="10.00">klyqa_ctl.account.Account.sync</text>
<text text-anchor="middle" x="739" y="-191.42" font-family="Helvetica,sans-Serif" font-size="10.00">_acc_settings_to_controller</text>
</a>
</g>
</g>
<!-- Node15&#45;&gt;Node16 -->
<g id="edge22" class="edge">
<title>Node15&#45;&gt;Node16</title>
<path fill="none" stroke="midnightblue" d="M861.93,-199.42C849.34,-199.42 836.57,-199.42 824.27,-199.42"/>
<polygon fill="midnightblue" stroke="midnightblue" points="861.98,-202.92 871.98,-199.42 861.98,-195.92 861.98,-202.92"/>
</g>
<!-- Node17&#45;&gt;Node17 -->
<g id="edge24" class="edge">
<title>Node17&#45;&gt;Node17</title>
<path fill="none" stroke="midnightblue" d="M999.89,-118.88C995.44,-123.6 983.47,-126.92 964,-126.92 932.04,-126.92 920.31,-117.98 928.8,-108.58"/>
<polygon fill="midnightblue" stroke="midnightblue" points="1003.36,-118.32 999.2,-108.58 996.38,-118.79 1003.36,-118.32"/>
</g>
<!-- Node18 -->
<g id="node18" class="node">
<title>Node18</title>
<g id="a_node18"><a xlink:href="classklyqa__ctl_1_1klyqa__ctl_1_1Client.html#a7a93bda9f242d678a4208d0962837f11" target="_top" xlink:title=" ">
<polygon fill="white" stroke="black" points="656,-78.42 656,-108.42 822,-108.42 822,-78.42 656,-78.42"/>
<text text-anchor="start" x="664" y="-96.42" font-family="Helvetica,sans-Serif" font-size="10.00">klyqa_ctl.klyqa_ctl.Client.send</text>
<text text-anchor="middle" x="739" y="-85.42" font-family="Helvetica,sans-Serif" font-size="10.00">_to_devices_wrapped</text>
</a>
</g>
</g>
<!-- Node17&#45;&gt;Node18 -->
<g id="edge25" class="edge">
<title>Node17&#45;&gt;Node18</title>
<path fill="none" stroke="midnightblue" d="M870.5,-93.42C854.51,-93.42 837.98,-93.42 822.29,-93.42"/>
<polygon fill="midnightblue" stroke="midnightblue" points="870.91,-96.92 880.91,-93.42 870.91,-89.92 870.91,-96.92"/>
</g>
</g>
</svg>
        <g id="navigator" transform="translate(0 0)" fill="#404254">
                <rect fill="#f2f5e9" fill-opacity="0.5" stroke="#606060" stroke-width=".5" x="0" y="0" width="60" height="60"/>
                <use id="zoomplus" xlink:href="#zoomPlus" x="17" y="9" onmousedown="handleZoom(evt,'in')"/>
                <use id="zoomminus" xlink:href="#zoomMin" x="42" y="9" onmousedown="handleZoom(evt,'out')"/>
                <use id="reset" xlink:href="#resetDef" x="30" y="36" onmousedown="handleReset()"/>
                <g id="arrowUp" xlink:href="#dirArrow" transform="translate(30 24)" onmousedown="handlePan(0,-1)">
                  <use xlink:href="#rim" fill="#404040">
                        <set attributeName="fill" to="#808080" begin="arrowUp.mouseover" end="arrowUp.mouseout"/>
                  </use>
                  <path fill="none" stroke="white" stroke-width="1.5" d="M0,-3.0v7 M-2.5,-0.5L0,-3.0L2.5,-0.5"/>
                </g>
                <g id="arrowRight" xlink:href="#dirArrow" transform="rotate(90) translate(36 -43)" onmousedown="handlePan(1,0)">
                  <use xlink:href="#rim" fill="#404040">
                        <set attributeName="fill" to="#808080" begin="arrowRight.mouseover" end="arrowRight.mouseout"/>
                  </use>
                  <path fill="none" stroke="white" stroke-width="1.5" d="M0,-3.0v7 M-2.5,-0.5L0,-3.0L2.5,-0.5"/>
                </g>
                <g id="arrowDown" xlink:href="#dirArrow" transform="rotate(180) translate(-30 -48)" onmousedown="handlePan(0,1)">
                  <use xlink:href="#rim" fill="#404040">
                        <set attributeName="fill" to="#808080" begin="arrowDown.mouseover" end="arrowDown.mouseout"/>
                  </use>
                  <path fill="none" stroke="white" stroke-width="1.5" d="M0,-3.0v7 M-2.5,-0.5L0,-3.0L2.5,-0.5"/>
                </g>
                <g id="arrowLeft" xlink:href="#dirArrow" transform="rotate(270) translate(-36 17)" onmousedown="handlePan(-1,0)">
                  <use xlink:href="#rim" fill="#404040">
                        <set attributeName="fill" to="#808080" begin="arrowLeft.mouseover" end="arrowLeft.mouseout"/>
                  </use>
                  <path fill="none" stroke="white" stroke-width="1.5" d="M0,-3.0v7 M-2.5,-0.5L0,-3.0L2.5,-0.5"/>
                </g>
        </g>
        <svg viewBox="0 0 15 15" width="100%" height="30px" preserveAspectRatio="xMaxYMin meet">
         <g id="arrow_out" transform="scale(0.3 0.3)">
          <a xlink:href="classklyqa__ctl_1_1devices_1_1device_1_1Device_a574647293c61d5f53e153d48ddb31f65_icgraph_org.svg" target="_base">
           <rect id="button" ry="5" rx="5" y="6" x="6" height="38" width="38"
                fill="#f2f5e9" fill-opacity="0.5" stroke="#606060" stroke-width="1.0"/>
           <path id="arrow"
             d="M 11.500037,31.436501 C 11.940474,20.09759 22.043105,11.32322 32.158766,21.979434 L 37.068811,17.246167 C 37.068811,17.246167 37.088388,32 37.088388,32 L 22.160133,31.978069 C 22.160133,31.978069 26.997745,27.140456 26.997745,27.140456 C 18.528582,18.264221 13.291696,25.230495 11.500037,31.436501 z"
             style="fill:#404040;"/>
          </a>
         </g>
        </svg>
</svg>
