<?xml version="1.0" encoding="UTF-8" standalone="no"?>
<!DOCTYPE svg PUBLIC "-//W3C//DTD SVG 1.1//EN"
 "http://www.w3.org/Graphics/SVG/1.1/DTD/svg11.dtd">
<!-- Generated by graphviz version 2.43.0 (0)
 -->
<!-- Title: cloud.CloudBackend.host Pages: 1 -->
<svg width="938pt" height="131pt"
 viewBox="0.00 0.00 938.00 131.00" xmlns="http://www.w3.org/2000/svg" xmlns:xlink="http://www.w3.org/1999/xlink">
<g id="graph0" class="graph" transform="scale(1 1) rotate(0) translate(4 127)">
<title>cloud.CloudBackend.host</title>
<polygon fill="white" stroke="transparent" points="-4,4 -4,-127 934,-127 934,4 -4,4"/>
<!-- Node1 -->
<g id="node1" class="node">
<title>Node1</title>
<g id="a_node1"><a xlink:title=" ">
<polygon fill="#bfbfbf" stroke="black" points="791,-64 791,-83 930,-83 930,-64 791,-64"/>
<text text-anchor="middle" x="860.5" y="-71" font-family="Helvetica,sans-Serif" font-size="10.00">cloud.CloudBackend.host</text>
</a>
</g>
</g>
<!-- Node2 -->
<g id="node2" class="node">
<title>Node2</title>
<g id="a_node2"><a xlink:href="classcloud_1_1CloudBackend.html#a2aa84632596a773fb8d2f979138b2bda" target="_top" xlink:title=" ">
<polygon fill="white" stroke="black" points="422,-92.5 422,-122.5 580,-122.5 580,-92.5 422,-92.5"/>
<text text-anchor="start" x="430" y="-110.5" font-family="Helvetica,sans-Serif" font-size="10.00">cloud.CloudBackend.backend</text>
<text text-anchor="middle" x="501" y="-99.5" font-family="Helvetica,sans-Serif" font-size="10.00">_connected</text>
</a>
</g>
</g>
<!-- Node1&#45;&gt;Node2 -->
<g id="edge1" class="edge">
<title>Node1&#45;&gt;Node2</title>
<path fill="none" stroke="midnightblue" d="M803.8,-84.91C788.08,-87.78 770.92,-90.59 755,-92.5 696.57,-99.52 630.13,-103.3 580.01,-105.31"/>
<polygon fill="midnightblue" stroke="midnightblue" points="804.71,-88.3 813.9,-83.02 803.43,-81.42 804.71,-88.3"/>
</g>
<!-- Node5 -->
<g id="node5" class="node">
<title>Node5</title>
<g id="a_node5"><a xlink:href="classcloud_1_1CloudBackend.html#abe810e894a06b18f0e875603f2d8b4e1" target="_top" xlink:title=" ">
<polygon fill="white" stroke="black" points="616,-64 616,-83 755,-83 755,-64 616,-64"/>
<text text-anchor="middle" x="685.5" y="-71" font-family="Helvetica,sans-Serif" font-size="10.00">cloud.CloudBackend.host</text>
</a>
</g>
</g>
<!-- Node1&#45;&gt;Node5 -->
<g id="edge4" class="edge">
<title>Node1&#45;&gt;Node5</title>
<path fill="none" stroke="midnightblue" d="M780.41,-73.5C771.97,-73.5 763.44,-73.5 755.13,-73.5"/>
<polygon fill="midnightblue" stroke="midnightblue" points="780.63,-77 790.63,-73.5 780.63,-70 780.63,-77"/>
</g>
<!-- Node6 -->
<g id="node6" class="node">
<title>Node6</title>
<g id="a_node6"><a xlink:href="classcloud_1_1CloudBackend.html#a890d2669fa6b9550af8e14a17413aea2" target="_top" xlink:title=" ">
<polygon fill="white" stroke="black" points="423.5,-42 423.5,-61 578.5,-61 578.5,-42 423.5,-42"/>
<text text-anchor="middle" x="501" y="-49" font-family="Helvetica,sans-Serif" font-size="10.00">cloud.CloudBackend.request</text>
</a>
</g>
</g>
<!-- Node1&#45;&gt;Node6 -->
<g id="edge10" class="edge">
<title>Node1&#45;&gt;Node6</title>
<path fill="none" stroke="midnightblue" d="M806.32,-62.05C789.94,-59 771.8,-56.11 755,-54.5 695.97,-48.82 628.84,-48.3 578.57,-49.07"/>
<polygon fill="midnightblue" stroke="midnightblue" points="805.78,-65.51 816.26,-63.95 807.09,-58.63 805.78,-65.51"/>
</g>
<!-- Node3 -->
<g id="node3" class="node">
<title>Node3</title>
<g id="a_node3"><a xlink:href="classklyqa__ctl_1_1account_1_1Account.html#aa78870d05cc7fa5899d61733d124e885" target="_top" xlink:title=" ">
<polygon fill="white" stroke="black" points="207,-92.5 207,-122.5 386,-122.5 386,-92.5 207,-92.5"/>
<text text-anchor="start" x="215" y="-110.5" font-family="Helvetica,sans-Serif" font-size="10.00">klyqa_ctl.account.Account.device</text>
<text text-anchor="middle" x="296.5" y="-99.5" font-family="Helvetica,sans-Serif" font-size="10.00">_request_and_print</text>
</a>
</g>
</g>
<!-- Node2&#45;&gt;Node3 -->
<g id="edge2" class="edge">
<title>Node2&#45;&gt;Node3</title>
<path fill="none" stroke="midnightblue" d="M411.76,-107.5C403.3,-107.5 394.72,-107.5 386.26,-107.5"/>
<polygon fill="midnightblue" stroke="midnightblue" points="412,-111 422,-107.5 412,-104 412,-111"/>
</g>
<!-- Node4 -->
<g id="node4" class="node">
<title>Node4</title>
<g id="a_node4"><a xlink:href="classklyqa__ctl_1_1account_1_1Account.html#a0b171a600e4342d035ad26c39b384b38" target="_top" xlink:title=" ">
<polygon fill="white" stroke="black" points="0,-98 0,-117 171,-117 171,-98 0,-98"/>
<text text-anchor="middle" x="85.5" y="-105" font-family="Helvetica,sans-Serif" font-size="10.00">klyqa_ctl.account.Account.login</text>
</a>
</g>
</g>
<!-- Node3&#45;&gt;Node4 -->
<g id="edge3" class="edge">
<title>Node3&#45;&gt;Node4</title>
<path fill="none" stroke="midnightblue" d="M196.86,-107.5C188.31,-107.5 179.71,-107.5 171.28,-107.5"/>
<polygon fill="midnightblue" stroke="midnightblue" points="196.87,-111 206.87,-107.5 196.87,-104 196.87,-111"/>
</g>
<!-- Node5&#45;&gt;Node2 -->
<g id="edge5" class="edge">
<title>Node5&#45;&gt;Node2</title>
<path fill="none" stroke="midnightblue" d="M623.32,-84.9C609.49,-87.47 594.63,-90.24 580.21,-92.93"/>
<polygon fill="midnightblue" stroke="midnightblue" points="623.99,-88.33 633.18,-83.06 622.71,-81.45 623.99,-88.33"/>
</g>
<!-- Node5&#45;&gt;Node6 -->
<g id="edge6" class="edge">
<title>Node5&#45;&gt;Node6</title>
<path fill="none" stroke="midnightblue" d="M605.71,-64C596.73,-62.92 587.58,-61.82 578.62,-60.74"/>
<polygon fill="midnightblue" stroke="midnightblue" points="605.42,-67.49 615.76,-65.21 606.26,-60.54 605.42,-67.49"/>
</g>
<!-- Node7 -->
<g id="node7" class="node">
<title>Node7</title>
<g id="a_node7"><a xlink:href="classcloud_1_1CloudBackend.html#a55182bd23ebf03d54d1754fffe7ca101" target="_top" xlink:title=" ">
<polygon fill="white" stroke="black" points="210,-50 210,-69 383,-69 383,-50 210,-50"/>
<text text-anchor="middle" x="296.5" y="-57" font-family="Helvetica,sans-Serif" font-size="10.00">cloud.CloudBackend.cloud_send</text>
</a>
</g>
</g>
<!-- Node6&#45;&gt;Node7 -->
<g id="edge7" class="edge">
<title>Node6&#45;&gt;Node7</title>
<path fill="none" stroke="midnightblue" d="M413.21,-54.93C403.3,-55.32 393.21,-55.72 383.32,-56.11"/>
<polygon fill="midnightblue" stroke="midnightblue" points="413.59,-58.42 423.44,-54.52 413.31,-51.42 413.59,-58.42"/>
</g>
<!-- Node8 -->
<g id="node8" class="node">
<title>Node8</title>
<g id="a_node8"><a xlink:href="classcloud_1_1CloudBackend.html#a58e4bd598358583c0eb7c50fdf0c6bc1" target="_top" xlink:title=" ">
<polygon fill="white" stroke="black" points="229.5,-0.5 229.5,-30.5 363.5,-30.5 363.5,-0.5 229.5,-0.5"/>
<text text-anchor="start" x="237.5" y="-18.5" font-family="Helvetica,sans-Serif" font-size="10.00">cloud.CloudBackend.get</text>
<text text-anchor="middle" x="296.5" y="-7.5" font-family="Helvetica,sans-Serif" font-size="10.00">_device_config</text>
</a>
</g>
</g>
<!-- Node6&#45;&gt;Node8 -->
<g id="edge8" class="edge">
<title>Node6&#45;&gt;Node8</title>
<path fill="none" stroke="midnightblue" d="M436.46,-40.2C413.27,-36.08 387,-31.41 363.59,-27.25"/>
<polygon fill="midnightblue" stroke="midnightblue" points="436.07,-43.69 446.53,-41.99 437.3,-36.8 436.07,-43.69"/>
</g>
<!-- Node9 -->
<g id="node9" class="node">
<title>Node9</title>
<g id="a_node9"><a xlink:href="classcloud_1_1CloudBackend.html#a566850b368080b6ff85ee2675aa9b3e2" target="_top" xlink:title=" ">
<polygon fill="white" stroke="black" points="18.5,-0.5 18.5,-30.5 152.5,-30.5 152.5,-0.5 18.5,-0.5"/>
<text text-anchor="start" x="26.5" y="-18.5" font-family="Helvetica,sans-Serif" font-size="10.00">cloud.CloudBackend.get</text>
<text text-anchor="middle" x="85.5" y="-7.5" font-family="Helvetica,sans-Serif" font-size="10.00">_device_configs</text>
</a>
</g>
</g>
<!-- Node8&#45;&gt;Node9 -->
<g id="edge9" class="edge">
<title>Node8&#45;&gt;Node9</title>
<path fill="none" stroke="midnightblue" d="M219.15,-15.5C197.32,-15.5 173.72,-15.5 152.56,-15.5"/>
<polygon fill="midnightblue" stroke="midnightblue" points="219.37,-19 229.37,-15.5 219.37,-12 219.37,-19"/>
</g>
</g>
</svg>
