<?xml version="1.0" encoding="UTF-8" standalone="no"?>
<!DOCTYPE svg PUBLIC "-//W3C//DTD SVG 1.1//EN"
 "http://www.w3.org/Graphics/SVG/1.1/DTD/svg11.dtd">
<!-- Generated by graphviz version 2.43.0 (0)
 -->
<!-- Title: klyqa_ctl.account.Account.settings Pages: 1 -->
<svg width="856pt" height="201pt"
 viewBox="0.00 0.00 856.00 201.14" xmlns="http://www.w3.org/2000/svg" xmlns:xlink="http://www.w3.org/1999/xlink">
<g id="graph0" class="graph" transform="scale(1 1) rotate(0) translate(4 197.14)">
<title>klyqa_ctl.account.Account.settings</title>
<polygon fill="white" stroke="transparent" points="-4,4 -4,-197.14 852,-197.14 852,4 -4,4"/>
<!-- Node1 -->
<g id="node1" class="node">
<title>Node1</title>
<g id="a_node1"><a xlink:title=" ">
<polygon fill="#bfbfbf" stroke="black" points="662,-97 662,-116 848,-116 848,-97 662,-97"/>
<text text-anchor="middle" x="755" y="-104" font-family="Helvetica,sans-Serif" font-size="10.00">klyqa_ctl.account.Account.settings</text>
</a>
</g>
</g>
<!-- Node2 -->
<g id="node2" class="node">
<title>Node2</title>
<g id="a_node2"><a xlink:href="classklyqa__ctl_1_1account_1_1Account.html#af365113f9fdd0cf5e66f6e9ab427df78" target="_top" xlink:title=" ">
<polygon fill="white" stroke="black" points="227.5,-137.5 227.5,-167.5 396.5,-167.5 396.5,-137.5 227.5,-137.5"/>
<text text-anchor="start" x="235.5" y="-155.5" font-family="Helvetica,sans-Serif" font-size="10.00">klyqa_ctl.account.Account.read</text>
<text text-anchor="middle" x="312" y="-144.5" font-family="Helvetica,sans-Serif" font-size="10.00">_acc_settings_cache</text>
</a>
</g>
</g>
<!-- Node1&#45;&gt;Node2 -->
<g id="edge1" class="edge">
<title>Node1&#45;&gt;Node2</title>
<path fill="none" stroke="midnightblue" d="M685.04,-117.53C665.95,-120.37 645.2,-123.25 626,-125.5 548.4,-134.6 459.64,-141.97 396.51,-146.7"/>
<polygon fill="midnightblue" stroke="midnightblue" points="685.79,-120.96 695.16,-116.01 684.75,-114.03 685.79,-120.96"/>
</g>
<!-- Node3 -->
<g id="node3" class="node">
<title>Node3</title>
<g id="a_node3"><a xlink:href="classklyqa__ctl_1_1account_1_1Account.html#a6f7d45c2ee71e0c761145bea5084dda6" target="_top" xlink:title=" ">
<polygon fill="white" stroke="black" points="220,-49.5 220,-79.5 404,-79.5 404,-49.5 220,-49.5"/>
<text text-anchor="start" x="228" y="-67.5" font-family="Helvetica,sans-Serif" font-size="10.00">klyqa_ctl.account.Account.request</text>
<text text-anchor="middle" x="312" y="-56.5" font-family="Helvetica,sans-Serif" font-size="10.00">_device_configs_from_acc_sets</text>
</a>
</g>
</g>
<!-- Node1&#45;&gt;Node3 -->
<g id="edge2" class="edge">
<title>Node1&#45;&gt;Node3</title>
<path fill="none" stroke="midnightblue" d="M686.17,-95.48C666.78,-92.58 645.59,-89.67 626,-87.5 551.54,-79.25 466.77,-73.23 404.24,-69.42"/>
<polygon fill="midnightblue" stroke="midnightblue" points="685.72,-98.95 696.13,-96.98 686.77,-92.03 685.72,-98.95"/>
</g>
<!-- Node4 -->
<g id="node4" class="node">
<title>Node4</title>
<g id="a_node4"><a xlink:href="classklyqa__ctl_1_1account_1_1Account.html#a8e93f6fe918bf32c172447d4ef439d2d" target="_top" xlink:title=" ">
<polygon fill="white" stroke="black" points="7,-93.5 7,-123.5 177,-123.5 177,-93.5 7,-93.5"/>
<text text-anchor="start" x="15" y="-111.5" font-family="Helvetica,sans-Serif" font-size="10.00">klyqa_ctl.account.Account.sync</text>
<text text-anchor="middle" x="92" y="-100.5" font-family="Helvetica,sans-Serif" font-size="10.00">_acc_settings_to_controller</text>
</a>
</g>
</g>
<!-- Node1&#45;&gt;Node4 -->
<g id="edge10" class="edge">
<title>Node1&#45;&gt;Node4</title>
<path fill="none" stroke="midnightblue" d="M720.55,-119.62C635.67,-151.04 405.5,-224.64 220,-177.5 179.14,-167.12 137.22,-140.65 113.22,-123.67"/>
<polygon fill="midnightblue" stroke="midnightblue" points="721.81,-122.88 729.94,-116.09 719.35,-116.33 721.81,-122.88"/>
</g>
<!-- Node5 -->
<g id="node5" class="node">
<title>Node5</title>
<g id="a_node5"><a xlink:href="classklyqa__ctl_1_1account_1_1Account.html#a5579a3240709174c5dc7c501e3c5cd2f" target="_top" xlink:title=" ">
<polygon fill="white" stroke="black" points="440,-97 440,-116 626,-116 626,-97 440,-97"/>
<text text-anchor="middle" x="533" y="-104" font-family="Helvetica,sans-Serif" font-size="10.00">klyqa_ctl.account.Account.settings</text>
</a>
</g>
</g>
<!-- Node1&#45;&gt;Node5 -->
<g id="edge4" class="edge">
<title>Node1&#45;&gt;Node5</title>
<path fill="none" stroke="midnightblue" d="M651.89,-106.5C643.25,-106.5 634.56,-106.5 626.01,-106.5"/>
<polygon fill="midnightblue" stroke="midnightblue" points="651.97,-110 661.97,-106.5 651.97,-103 651.97,-110"/>
</g>
<!-- Node6 -->
<g id="node6" class="node">
<title>Node6</title>
<g id="a_node6"><a xlink:href="classklyqa__ctl_1_1account_1_1Account.html#af101070a97d556e95978748475933f72" target="_top" xlink:title=" ">
<polygon fill="white" stroke="black" points="221.5,-0.5 221.5,-30.5 402.5,-30.5 402.5,-0.5 221.5,-0.5"/>
<text text-anchor="start" x="229.5" y="-18.5" font-family="Helvetica,sans-Serif" font-size="10.00">klyqa_ctl.account.Account.update</text>
<text text-anchor="middle" x="312" y="-7.5" font-family="Helvetica,sans-Serif" font-size="10.00">_account_settings</text>
</a>
</g>
</g>
<!-- Node1&#45;&gt;Node6 -->
<g id="edge11" class="edge">
<title>Node1&#45;&gt;Node6</title>
<path fill="none" stroke="midnightblue" d="M716.73,-93.73C691.38,-85.39 656.95,-74.75 626,-67.5 551.45,-50.03 465.58,-36.2 402.66,-27.21"/>
<polygon fill="midnightblue" stroke="midnightblue" points="715.73,-97.08 726.32,-96.91 717.93,-90.44 715.73,-97.08"/>
</g>
<!-- Node3&#45;&gt;Node4 -->
<g id="edge3" class="edge">
<title>Node3&#45;&gt;Node4</title>
<path fill="none" stroke="midnightblue" d="M226.78,-81.5C207.23,-85.44 186.55,-89.62 167.45,-93.47"/>
<polygon fill="midnightblue" stroke="midnightblue" points="227.48,-84.93 236.59,-79.52 226.09,-78.07 227.48,-84.93"/>
</g>
<!-- Node5&#45;&gt;Node2 -->
<g id="edge5" class="edge">
<title>Node5&#45;&gt;Node2</title>
<path fill="none" stroke="midnightblue" d="M476.64,-118.13C448.72,-123.99 414.52,-131.18 384.62,-137.46"/>
<polygon fill="midnightblue" stroke="midnightblue" points="477.56,-121.51 486.62,-116.03 476.12,-114.66 477.56,-121.51"/>
</g>
<!-- Node5&#45;&gt;Node3 -->
<g id="edge6" class="edge">
<title>Node5&#45;&gt;Node3</title>
<path fill="none" stroke="midnightblue" d="M472.25,-95.04C447.29,-90.25 417.94,-84.62 391.28,-79.51"/>
<polygon fill="midnightblue" stroke="midnightblue" points="471.83,-98.52 482.31,-96.97 473.14,-91.65 471.83,-98.52"/>
</g>
<!-- Node5&#45;&gt;Node4 -->
<g id="edge7" class="edge">
<title>Node5&#45;&gt;Node4</title>
<path fill="none" stroke="midnightblue" d="M429.8,-106.97C353.01,-107.32 249.11,-107.79 177.11,-108.12"/>
<polygon fill="midnightblue" stroke="midnightblue" points="429.99,-110.46 439.97,-106.92 429.96,-103.46 429.99,-110.46"/>
</g>
<!-- Node5&#45;&gt;Node6 -->
<g id="edge8" class="edge">
<title>Node5&#45;&gt;Node6</title>
<path fill="none" stroke="midnightblue" d="M507.04,-91.65C481.75,-77.08 441.18,-55.01 404,-40.5 394.69,-36.87 384.65,-33.55 374.76,-30.59"/>
<polygon fill="midnightblue" stroke="midnightblue" points="505.54,-94.82 515.94,-96.83 509.06,-88.77 505.54,-94.82"/>
</g>
<!-- Node7 -->
<g id="node7" class="node">
<title>Node7</title>
<g id="a_node7"><a xlink:href="classklyqa__ctl_1_1account_1_1Account.html#aeca1011f6c6e2f6bcdb2136ef48bc7fd" target="_top" xlink:title=" ">
<polygon fill="white" stroke="black" points="0,-0.5 0,-30.5 184,-30.5 184,-0.5 0,-0.5"/>
<text text-anchor="start" x="8" y="-18.5" font-family="Helvetica,sans-Serif" font-size="10.00">klyqa_ctl.account.Account.request</text>
<text text-anchor="middle" x="92" y="-7.5" font-family="Helvetica,sans-Serif" font-size="10.00">_account_settings_eco</text>
</a>
</g>
</g>
<!-- Node6&#45;&gt;Node7 -->
<g id="edge9" class="edge">
<title>Node6&#45;&gt;Node7</title>
<path fill="none" stroke="midnightblue" d="M211.21,-15.5C202.15,-15.5 193.01,-15.5 184.03,-15.5"/>
<polygon fill="midnightblue" stroke="midnightblue" points="211.39,-19 221.39,-15.5 211.39,-12 211.39,-19"/>
</g>
</g>
</svg>
