<?xml version="1.0" encoding="UTF-8" standalone="no"?>
<!DOCTYPE svg PUBLIC "-//W3C//DTD SVG 1.1//EN"
 "http://www.w3.org/Graphics/SVG/1.1/DTD/svg11.dtd">
<!-- Generated by graphviz version 2.43.0 (0)
 -->
<!-- Title: klyqa_ctl.devices.light.commands.ExternalSourceCommand Pages: 1 -->
<svg width="364pt" height="480pt"
 viewBox="0.00 0.00 364.00 480.00" xmlns="http://www.w3.org/2000/svg" xmlns:xlink="http://www.w3.org/1999/xlink">
<g id="graph0" class="graph" transform="scale(1 1) rotate(0) translate(4 476)">
<title>klyqa_ctl.devices.light.commands.ExternalSourceCommand</title>
<polygon fill="white" stroke="transparent" points="-4,4 -4,-476 360,-476 360,4 -4,4"/>
<!-- Node1 -->
<g id="node1" class="node">
<title>Node1</title>
<g id="a_node1"><a xlink:title=" ">
<polygon fill="#bfbfbf" stroke="black" points="76,-0.5 76,-101.5 262,-101.5 262,-0.5 76,-0.5"/>
<text text-anchor="start" x="84" y="-89.5" font-family="Helvetica,sans-Serif" font-size="10.00">klyqa_ctl.devices.light.commands.</text>
<text text-anchor="middle" x="169" y="-78.5" font-family="Helvetica,sans-Serif" font-size="10.00">ExternalSourceCommand</text>
<polyline fill="none" stroke="black" points="76,-71.5 262,-71.5 "/>
<text text-anchor="start" x="84" y="-59.5" font-family="Helvetica,sans-Serif" font-size="10.00">+ ExternalSourceProtocol</text>
<text text-anchor="start" x="84" y="-48.5" font-family="Helvetica,sans-Serif" font-size="10.00">+ int</text>
<polyline fill="none" stroke="black" points="76,-41.5 262,-41.5 "/>
<text text-anchor="start" x="84" y="-29.5" font-family="Helvetica,sans-Serif" font-size="10.00">+ TypeJson json(self)</text>
<text text-anchor="start" x="84" y="-18.5" font-family="Helvetica,sans-Serif" font-size="10.00">+ bool check_values(self,</text>
<text text-anchor="start" x="84" y="-7.5" font-family="Helvetica,sans-Serif" font-size="10.00"> Device device)</text>
</a>
</g>
</g>
<!-- Node2 -->
<g id="node2" class="node">
<title>Node2</title>
<g id="a_node2"><a xlink:href="classklyqa__ctl_1_1devices_1_1device_1_1CommandWithCheckValues.html" target="_top" xlink:title=" ">
<polygon fill="white" stroke="black" points="0,-138.5 0,-217.5 152,-217.5 152,-138.5 0,-138.5"/>
<text text-anchor="start" x="8" y="-205.5" font-family="Helvetica,sans-Serif" font-size="10.00">klyqa_ctl.devices.device.</text>
<text text-anchor="middle" x="76" y="-194.5" font-family="Helvetica,sans-Serif" font-size="10.00">CommandWithCheckValues</text>
<polyline fill="none" stroke="black" points="0,-187.5 152,-187.5 "/>
<text text-anchor="start" x="8" y="-175.5" font-family="Helvetica,sans-Serif" font-size="10.00">+ bool</text>
<polyline fill="none" stroke="black" points="0,-168.5 152,-168.5 "/>
<text text-anchor="start" x="8" y="-156.5" font-family="Helvetica,sans-Serif" font-size="10.00">+ bool check_values(self,</text>
<text text-anchor="start" x="8" y="-145.5" font-family="Helvetica,sans-Serif" font-size="10.00"> Device device)</text>
</a>
</g>
</g>
<!-- Node2&#45;&gt;Node1 -->
<g id="edge1" class="edge">
<title>Node2&#45;&gt;Node1</title>
<path fill="none" stroke="midnightblue" d="M110.67,-130.4C117.64,-121.03 124.99,-111.16 132.03,-101.69"/>
<polygon fill="none" stroke="midnightblue" points="107.82,-128.36 104.66,-138.48 113.44,-132.54 107.82,-128.36"/>
</g>
<!-- Node3 -->
<g id="node3" class="node">
<title>Node3</title>
<g id="a_node3"><a xlink:href="classklyqa__ctl_1_1general_1_1general_1_1CommandTyped.html" target="_top" xlink:title=" ">
<polygon fill="white" stroke="black" points="97.5,-254.5 97.5,-322.5 240.5,-322.5 240.5,-254.5 97.5,-254.5"/>
<text text-anchor="start" x="105.5" y="-310.5" font-family="Helvetica,sans-Serif" font-size="10.00">klyqa_ctl.general.general.</text>
<text text-anchor="middle" x="169" y="-299.5" font-family="Helvetica,sans-Serif" font-size="10.00">CommandTyped</text>
<polyline fill="none" stroke="black" points="97.5,-292.5 240.5,-292.5 "/>
<text text-anchor="start" x="105.5" y="-280.5" font-family="Helvetica,sans-Serif" font-size="10.00">+ str</text>
<polyline fill="none" stroke="black" points="97.5,-273.5 240.5,-273.5 "/>
<text text-anchor="start" x="105.5" y="-261.5" font-family="Helvetica,sans-Serif" font-size="10.00">+ TypeJson json(self)</text>
</a>
</g>
</g>
<!-- Node3&#45;&gt;Node2 -->
<g id="edge2" class="edge">
<title>Node3&#45;&gt;Node2</title>
<path fill="none" stroke="midnightblue" d="M133.91,-246.56C125.78,-237.08 117.16,-227.03 109.13,-217.65"/>
<polygon fill="none" stroke="midnightblue" points="131.43,-249.04 140.59,-254.36 136.74,-244.49 131.43,-249.04"/>
</g>
<!-- Node5 -->
<g id="node5" class="node">
<title>Node5</title>
<g id="a_node5"><a xlink:href="classklyqa__ctl_1_1devices_1_1light_1_1commands_1_1RequestCommand.html" target="_top" xlink:title=" ">
<polygon fill="white" stroke="black" points="170,-138.5 170,-217.5 356,-217.5 356,-138.5 170,-138.5"/>
<text text-anchor="start" x="178" y="-205.5" font-family="Helvetica,sans-Serif" font-size="10.00">klyqa_ctl.devices.light.commands.</text>
<text text-anchor="middle" x="263" y="-194.5" font-family="Helvetica,sans-Serif" font-size="10.00">RequestCommand</text>
<polyline fill="none" stroke="black" points="170,-187.5 356,-187.5 "/>
<text text-anchor="start" x="178" y="-175.5" font-family="Helvetica,sans-Serif" font-size="10.00">+ type</text>
<polyline fill="none" stroke="black" points="170,-168.5 356,-168.5 "/>
<text text-anchor="start" x="178" y="-156.5" font-family="Helvetica,sans-Serif" font-size="10.00">+ None __post_init__</text>
<text text-anchor="start" x="178" y="-145.5" font-family="Helvetica,sans-Serif" font-size="10.00">(self)</text>
</a>
</g>
</g>
<!-- Node3&#45;&gt;Node5 -->
<g id="edge5" class="edge">
<title>Node3&#45;&gt;Node5</title>
<path fill="none" stroke="midnightblue" d="M204.47,-246.56C212.68,-237.08 221.39,-227.03 229.52,-217.65"/>
<polygon fill="none" stroke="midnightblue" points="201.62,-244.51 197.71,-254.36 206.91,-249.09 201.62,-244.51"/>
</g>
<!-- Node4 -->
<g id="node4" class="node">
<title>Node4</title>
<g id="a_node4"><a xlink:href="classklyqa__ctl_1_1general_1_1general_1_1Command.html" target="_top" xlink:title=" ">
<polygon fill="white" stroke="black" points="97.5,-359.5 97.5,-471.5 240.5,-471.5 240.5,-359.5 97.5,-359.5"/>
<text text-anchor="start" x="105.5" y="-459.5" font-family="Helvetica,sans-Serif" font-size="10.00">klyqa_ctl.general.general.</text>
<text text-anchor="middle" x="169" y="-448.5" font-family="Helvetica,sans-Serif" font-size="10.00">Command</text>
<polyline fill="none" stroke="black" points="97.5,-441.5 240.5,-441.5 "/>
<text text-anchor="start" x="105.5" y="-429.5" font-family="Helvetica,sans-Serif" font-size="10.00">+ TypeJson</text>
<text text-anchor="start" x="105.5" y="-418.5" font-family="Helvetica,sans-Serif" font-size="10.00">+ default_factory</text>
<polyline fill="none" stroke="black" points="97.5,-411.5 240.5,-411.5 "/>
<text text-anchor="start" x="105.5" y="-399.5" font-family="Helvetica,sans-Serif" font-size="10.00">+ TypeJson json(self)</text>
<text text-anchor="start" x="105.5" y="-388.5" font-family="Helvetica,sans-Serif" font-size="10.00">+ TypeJson cloud(self)</text>
<text text-anchor="start" x="105.5" y="-377.5" font-family="Helvetica,sans-Serif" font-size="10.00">+ str msg_str(self)</text>
<text text-anchor="start" x="105.5" y="-366.5" font-family="Helvetica,sans-Serif" font-size="10.00">+ str __str__(self)</text>
</a>
</g>
</g>
<!-- Node4&#45;&gt;Node3 -->
<g id="edge3" class="edge">
<title>Node4&#45;&gt;Node3</title>
<path fill="none" stroke="midnightblue" d="M169,-349.26C169,-339.99 169,-330.8 169,-322.51"/>
<polygon fill="none" stroke="midnightblue" points="165.5,-349.31 169,-359.31 172.5,-349.31 165.5,-349.31"/>
</g>
<!-- Node5&#45;&gt;Node1 -->
<g id="edge4" class="edge">
<title>Node5&#45;&gt;Node1</title>
<path fill="none" stroke="midnightblue" d="M227.96,-130.4C220.91,-121.03 213.49,-111.16 206.37,-101.69"/>
<polygon fill="none" stroke="midnightblue" points="225.22,-132.59 234.03,-138.48 230.82,-128.38 225.22,-132.59"/>
</g>
</g>
</svg>
