<?xml version="1.0" encoding="UTF-8" standalone="no"?>
<!DOCTYPE svg PUBLIC "-//W3C//DTD SVG 1.1//EN"
 "http://www.w3.org/Graphics/SVG/1.1/DTD/svg11.dtd">
<!-- Generated by graphviz version 2.43.0 (0)
 -->
<!-- Title: local.connection_handler.LocalConnectionHandler.process_device_identity_package Pages: 1 -->
<svg width="894pt" height="341pt"
 viewBox="0.00 0.00 894.00 340.50" xmlns="http://www.w3.org/2000/svg" xmlns:xlink="http://www.w3.org/1999/xlink">
<g id="graph0" class="graph" transform="scale(1 1) rotate(0) translate(4 336.5)">
<title>local.connection_handler.LocalConnectionHandler.process_device_identity_package</title>
<polygon fill="white" stroke="transparent" points="-4,4 -4,-336.5 890,-336.5 890,4 -4,4"/>
<!-- Node1 -->
<g id="node1" class="node">
<title>Node1</title>
<g id="a_node1"><a xlink:title=" ">
<polygon fill="#bfbfbf" stroke="black" points="0,-154 0,-195 175,-195 175,-154 0,-154"/>
<text text-anchor="start" x="8" y="-183" font-family="Helvetica,sans-Serif" font-size="10.00">local.connection_handler.</text>
<text text-anchor="start" x="8" y="-172" font-family="Helvetica,sans-Serif" font-size="10.00">LocalConnectionHandler.process</text>
<text text-anchor="middle" x="87.5" y="-161" font-family="Helvetica,sans-Serif" font-size="10.00">_device_identity_package</text>
</a>
</g>
</g>
<!-- Node2 -->
<g id="node2" class="node">
<title>Node2</title>
<g id="a_node2"><a xlink:href="classklyqa__ctl_1_1account_1_1Account.html#a7bcb9ac9804621630ea08a688abecd18" target="_top" xlink:title=" ">
<polygon fill="white" stroke="black" points="211,-313 211,-332 432,-332 432,-313 211,-313"/>
<text text-anchor="middle" x="321.5" y="-320" font-family="Helvetica,sans-Serif" font-size="10.00">klyqa_ctl.account.Account.controller_data</text>
</a>
</g>
</g>
<!-- Node1&#45;&gt;Node2 -->
<g id="edge1" class="edge">
<title>Node1&#45;&gt;Node2</title>
<path fill="none" stroke="midnightblue" d="M101.85,-195.41C121.79,-224.73 162.26,-277.41 211,-303.5 215.29,-305.8 219.8,-307.83 224.45,-309.62"/>
<polygon fill="midnightblue" stroke="midnightblue" points="223.54,-313.01 234.14,-312.97 225.83,-306.39 223.54,-313.01"/>
</g>
<!-- Node3 -->
<g id="node3" class="node">
<title>Node3</title>
<g id="a_node3"><a xlink:href="classcloud_1_1CloudBackend.html#aef174fe1ba95fff13c7901ff56354ec9" target="_top" xlink:title=" ">
<polygon fill="white" stroke="black" points="226,-275 226,-294 417,-294 417,-275 226,-275"/>
<text text-anchor="middle" x="321.5" y="-282" font-family="Helvetica,sans-Serif" font-size="10.00">cloud.CloudBackend.controller_data</text>
</a>
</g>
</g>
<!-- Node1&#45;&gt;Node3 -->
<g id="edge2" class="edge">
<title>Node1&#45;&gt;Node3</title>
<path fill="none" stroke="midnightblue" d="M109.54,-195.06C132.5,-216.23 171.32,-248.47 211,-265.5 217.14,-268.13 223.61,-270.4 230.23,-272.35"/>
<polygon fill="midnightblue" stroke="midnightblue" points="229.43,-275.76 239.99,-275 231.25,-269.01 229.43,-275.76"/>
</g>
<!-- Node4 -->
<g id="node4" class="node">
<title>Node4</title>
<g id="a_node4"><a xlink:href="classlocal_1_1connection__handler_1_1LocalConnectionHandler.html#a8f938ae53b3c24bbdc02f377671cf263" target="_top" xlink:title=" ">
<polygon fill="white" stroke="black" points="216,-225.5 216,-255.5 427,-255.5 427,-225.5 216,-225.5"/>
<text text-anchor="start" x="224" y="-243.5" font-family="Helvetica,sans-Serif" font-size="10.00">local.connection_handler.</text>
<text text-anchor="middle" x="321.5" y="-232.5" font-family="Helvetica,sans-Serif" font-size="10.00">LocalConnectionHandler.controller_data</text>
</a>
</g>
</g>
<!-- Node1&#45;&gt;Node4 -->
<g id="edge3" class="edge">
<title>Node1&#45;&gt;Node4</title>
<path fill="none" stroke="midnightblue" d="M146.09,-195.08C166.46,-202.01 189.62,-209.5 211,-215.5 220.36,-218.13 230.23,-220.68 240.06,-223.09"/>
<polygon fill="midnightblue" stroke="midnightblue" points="239.31,-226.51 249.85,-225.45 240.95,-219.7 239.31,-226.51"/>
</g>
<!-- Node5 -->
<g id="node5" class="node">
<title>Node5</title>
<g id="a_node5"><a xlink:href="classklyqa__ctl_1_1account_1_1Account.html#a2265c38daf6829c96c852ad4a288b42d" target="_top" xlink:title=" ">
<polygon fill="white" stroke="black" points="229,-187 229,-206 414,-206 414,-187 229,-187"/>
<text text-anchor="middle" x="321.5" y="-194" font-family="Helvetica,sans-Serif" font-size="10.00">klyqa_ctl.account.Account.devices</text>
</a>
</g>
</g>
<!-- Node1&#45;&gt;Node5 -->
<g id="edge4" class="edge">
<title>Node1&#45;&gt;Node5</title>
<path fill="none" stroke="midnightblue" d="M175.22,-182.72C189.44,-184.07 204.29,-185.48 218.83,-186.86"/>
<polygon fill="midnightblue" stroke="midnightblue" points="218.56,-190.35 228.84,-187.81 219.22,-183.38 218.56,-190.35"/>
</g>
<!-- Node6 -->
<g id="node6" class="node">
<title>Node6</title>
<g id="a_node6"><a xlink:href="classlocal_1_1connection__handler_1_1LocalConnectionHandler.html#a4d307f6bd0b66f3cb9fac3057fc87972" target="_top" xlink:title=" ">
<polygon fill="white" stroke="black" points="234,-137.5 234,-167.5 409,-167.5 409,-137.5 234,-137.5"/>
<text text-anchor="start" x="242" y="-155.5" font-family="Helvetica,sans-Serif" font-size="10.00">local.connection_handler.</text>
<text text-anchor="middle" x="321.5" y="-144.5" font-family="Helvetica,sans-Serif" font-size="10.00">LocalConnectionHandler.devices</text>
</a>
</g>
</g>
<!-- Node1&#45;&gt;Node6 -->
<g id="edge5" class="edge">
<title>Node1&#45;&gt;Node6</title>
<path fill="none" stroke="midnightblue" d="M175.22,-166.28C191.1,-164.77 207.76,-163.19 223.91,-161.66"/>
<polygon fill="midnightblue" stroke="midnightblue" points="224.26,-165.14 233.89,-160.71 223.6,-158.17 224.26,-165.14"/>
</g>
<!-- Node7 -->
<g id="node7" class="node">
<title>Node7</title>
<g id="a_node7"><a xlink:href="classklyqa__ctl_1_1controller__data_1_1ControllerData.html#adf7af423388a9a883c428cf71e217650" target="_top" xlink:title=" ">
<polygon fill="white" stroke="black" points="242.5,-88.5 242.5,-118.5 400.5,-118.5 400.5,-88.5 242.5,-88.5"/>
<text text-anchor="start" x="250.5" y="-106.5" font-family="Helvetica,sans-Serif" font-size="10.00">klyqa_ctl.controller</text>
<text text-anchor="middle" x="321.5" y="-95.5" font-family="Helvetica,sans-Serif" font-size="10.00">_data.ControllerData.devices</text>
</a>
</g>
</g>
<!-- Node1&#45;&gt;Node7 -->
<g id="edge6" class="edge">
<title>Node1&#45;&gt;Node7</title>
<path fill="none" stroke="midnightblue" d="M138.64,-153.93C160.61,-145.37 186.85,-135.76 211,-128.5 219.87,-125.84 229.22,-123.3 238.56,-120.93"/>
<polygon fill="midnightblue" stroke="midnightblue" points="239.41,-124.33 248.28,-118.53 237.73,-117.53 239.41,-124.33"/>
</g>
<!-- Node8 -->
<g id="node8" class="node">
<title>Node8</title>
<g id="a_node8"><a xlink:href="namespaceklyqa__ctl_1_1general_1_1general.html#a9df3b50dfc0fcc7c8ec991bb9be9c5ba" target="_top" xlink:title=" ">
<polygon fill="white" stroke="black" points="468,-28 468,-47 653,-47 653,-28 468,-28"/>
<text text-anchor="middle" x="560.5" y="-35" font-family="Helvetica,sans-Serif" font-size="10.00">klyqa_ctl.general.general.task_log</text>
</a>
</g>
</g>
<!-- Node1&#45;&gt;Node8 -->
<g id="edge7" class="edge">
<title>Node1&#45;&gt;Node8</title>
<path fill="none" stroke="midnightblue" d="M107.95,-153.83C130.44,-131.38 169.68,-96.48 211,-79.5 254.31,-61.71 371.19,-50.14 457.72,-43.74"/>
<polygon fill="midnightblue" stroke="midnightblue" points="458.13,-47.22 467.85,-43 457.62,-40.24 458.13,-47.22"/>
</g>
<!-- Node10 -->
<g id="node10" class="node">
<title>Node10</title>
<g id="a_node10"><a xlink:href="namespaceklyqa__ctl_1_1general_1_1general.html#a1afe30a73cc28a3b65babeeab27e36c8" target="_top" xlink:title=" ">
<polygon fill="white" stroke="black" points="239.5,-0.5 239.5,-30.5 403.5,-30.5 403.5,-0.5 239.5,-0.5"/>
<text text-anchor="start" x="247.5" y="-18.5" font-family="Helvetica,sans-Serif" font-size="10.00">klyqa_ctl.general.general.task</text>
<text text-anchor="middle" x="321.5" y="-7.5" font-family="Helvetica,sans-Serif" font-size="10.00">_log_debug</text>
</a>
</g>
</g>
<!-- Node1&#45;&gt;Node10 -->
<g id="edge9" class="edge">
<title>Node1&#45;&gt;Node10</title>
<path fill="none" stroke="midnightblue" d="M102.55,-153.73C123.03,-125.07 163.83,-73.73 211,-45.5 218.43,-41.05 226.54,-37.24 234.88,-33.99"/>
<polygon fill="midnightblue" stroke="midnightblue" points="236.15,-37.25 244.36,-30.55 233.76,-30.67 236.15,-37.25"/>
</g>
<!-- Node9 -->
<g id="node9" class="node">
<title>Node9</title>
<g id="a_node9"><a xlink:href="namespaceklyqa__ctl_1_1general_1_1general.html#aea905150cafee39fa2ca211f1e60f012" target="_top" xlink:title=" ">
<polygon fill="white" stroke="black" points="689,-28 689,-47 886,-47 886,-28 689,-28"/>
<text text-anchor="middle" x="787.5" y="-35" font-family="Helvetica,sans-Serif" font-size="10.00">klyqa_ctl.general.general.task_name</text>
</a>
</g>
</g>
<!-- Node8&#45;&gt;Node9 -->
<g id="edge8" class="edge">
<title>Node8&#45;&gt;Node9</title>
<path fill="none" stroke="midnightblue" d="M653.02,-37.5C661.5,-37.5 670.15,-37.5 678.76,-37.5"/>
<polygon fill="midnightblue" stroke="midnightblue" points="678.83,-41 688.83,-37.5 678.83,-34 678.83,-41"/>
</g>
<!-- Node10&#45;&gt;Node8 -->
<g id="edge10" class="edge">
<title>Node10&#45;&gt;Node8</title>
<path fill="none" stroke="midnightblue" d="M403.73,-23.04C421.14,-24.66 439.75,-26.38 457.82,-28.06"/>
<polygon fill="midnightblue" stroke="midnightblue" points="457.52,-31.55 467.8,-28.99 458.16,-24.58 457.52,-31.55"/>
</g>
</g>
</svg>
