<?xml version="1.0" encoding="UTF-8" standalone="no"?>
<!DOCTYPE svg PUBLIC "-//W3C//DTD SVG 1.1//EN"
 "http://www.w3.org/Graphics/SVG/1.1/DTD/svg11.dtd">
<!-- Generated by graphviz version 2.43.0 (0)
 -->
<!-- Title: klyqa_ctl.devices.onboard.Onboard.onboarding_device Pages: 1 -->
<svg width="824pt" height="176pt"
 viewBox="0.00 0.00 824.00 176.00" xmlns="http://www.w3.org/2000/svg" xmlns:xlink="http://www.w3.org/1999/xlink">
<g id="graph0" class="graph" transform="scale(1 1) rotate(0) translate(4 172)">
<title>klyqa_ctl.devices.onboard.Onboard.onboarding_device</title>
<polygon fill="white" stroke="transparent" points="-4,4 -4,-172 820,-172 820,4 -4,4"/>
<!-- Node1 -->
<g id="node1" class="node">
<title>Node1</title>
<g id="a_node1"><a xlink:title=" ">
<polygon fill="#bfbfbf" stroke="black" points="0,-71.5 0,-101.5 153,-101.5 153,-71.5 0,-71.5"/>
<text text-anchor="start" x="8" y="-89.5" font-family="Helvetica,sans-Serif" font-size="10.00">klyqa_ctl.devices.onboard.</text>
<text text-anchor="middle" x="76.5" y="-78.5" font-family="Helvetica,sans-Serif" font-size="10.00">Onboard.onboarding_device</text>
</a>
</g>
</g>
<!-- Node2 -->
<g id="node2" class="node">
<title>Node2</title>
<g id="a_node2"><a xlink:href="namespaceklyqa__ctl_1_1devices_1_1onboard.html#a9a08fdcf65db848da6d9e4bec9ed2cc0" target="_top" xlink:title=" ">
<polygon fill="white" stroke="black" points="189,-137.5 189,-167.5 362,-167.5 362,-137.5 189,-137.5"/>
<text text-anchor="start" x="197" y="-155.5" font-family="Helvetica,sans-Serif" font-size="10.00">klyqa_ctl.devices.onboard.build</text>
<text text-anchor="middle" x="275.5" y="-144.5" font-family="Helvetica,sans-Serif" font-size="10.00">_configuration_and_backend_url</text>
</a>
</g>
</g>
<!-- Node1&#45;&gt;Node2 -->
<g id="edge1" class="edge">
<title>Node1&#45;&gt;Node2</title>
<path fill="none" stroke="midnightblue" d="M122.7,-101.64C151.6,-111.33 189.27,-123.95 219.85,-134.19"/>
<polygon fill="midnightblue" stroke="midnightblue" points="218.92,-137.57 229.51,-137.43 221.14,-130.93 218.92,-137.57"/>
</g>
<!-- Node3 -->
<g id="node3" class="node">
<title>Node3</title>
<g id="a_node3"><a xlink:href="namespaceklyqa__ctl_1_1general_1_1general.html#a9df3b50dfc0fcc7c8ec991bb9be9c5ba" target="_top" xlink:title=" ">
<polygon fill="white" stroke="black" points="398,-55 398,-74 583,-74 583,-55 398,-55"/>
<text text-anchor="middle" x="490.5" y="-62" font-family="Helvetica,sans-Serif" font-size="10.00">klyqa_ctl.general.general.task_log</text>
</a>
</g>
</g>
<!-- Node1&#45;&gt;Node3 -->
<g id="edge2" class="edge">
<title>Node1&#45;&gt;Node3</title>
<path fill="none" stroke="midnightblue" d="M153.07,-88.81C165.09,-89.1 177.38,-89.34 189,-89.5 265.88,-90.53 285.47,-96.93 362,-89.5 388.52,-86.92 417.71,-81.4 441.47,-76.2"/>
<polygon fill="midnightblue" stroke="midnightblue" points="442.29,-79.6 451.29,-74 440.76,-72.77 442.29,-79.6"/>
</g>
<!-- Node5 -->
<g id="node5" class="node">
<title>Node5</title>
<g id="a_node5"><a xlink:href="namespaceklyqa__ctl_1_1general_1_1general.html#a1afe30a73cc28a3b65babeeab27e36c8" target="_top" xlink:title=" ">
<polygon fill="white" stroke="black" points="193.5,-49.5 193.5,-79.5 357.5,-79.5 357.5,-49.5 193.5,-49.5"/>
<text text-anchor="start" x="201.5" y="-67.5" font-family="Helvetica,sans-Serif" font-size="10.00">klyqa_ctl.general.general.task</text>
<text text-anchor="middle" x="275.5" y="-56.5" font-family="Helvetica,sans-Serif" font-size="10.00">_log_debug</text>
</a>
</g>
</g>
<!-- Node1&#45;&gt;Node5 -->
<g id="edge4" class="edge">
<title>Node1&#45;&gt;Node5</title>
<path fill="none" stroke="midnightblue" d="M153.1,-78.06C162.95,-76.96 173.12,-75.82 183.19,-74.7"/>
<polygon fill="midnightblue" stroke="midnightblue" points="183.66,-78.17 193.21,-73.58 182.88,-71.21 183.66,-78.17"/>
</g>
<!-- Node6 -->
<g id="node6" class="node">
<title>Node6</title>
<g id="a_node6"><a xlink:href="namespaceklyqa__ctl_1_1general_1_1general.html#abab49b300927a080244615ee3ab494e3" target="_top" xlink:title=" ">
<polygon fill="white" stroke="black" points="193.5,-0.5 193.5,-30.5 357.5,-30.5 357.5,-0.5 193.5,-0.5"/>
<text text-anchor="start" x="201.5" y="-18.5" font-family="Helvetica,sans-Serif" font-size="10.00">klyqa_ctl.general.general.task</text>
<text text-anchor="middle" x="275.5" y="-7.5" font-family="Helvetica,sans-Serif" font-size="10.00">_log_error</text>
</a>
</g>
</g>
<!-- Node1&#45;&gt;Node6 -->
<g id="edge6" class="edge">
<title>Node1&#45;&gt;Node6</title>
<path fill="none" stroke="midnightblue" d="M111.3,-71.45C133.22,-61.97 162.53,-49.8 189,-40.5 195.82,-38.1 203,-35.75 210.18,-33.5"/>
<polygon fill="midnightblue" stroke="midnightblue" points="211.41,-36.78 219.95,-30.51 209.36,-30.09 211.41,-36.78"/>
</g>
<!-- Node4 -->
<g id="node4" class="node">
<title>Node4</title>
<g id="a_node4"><a xlink:href="namespaceklyqa__ctl_1_1general_1_1general.html#aea905150cafee39fa2ca211f1e60f012" target="_top" xlink:title=" ">
<polygon fill="white" stroke="black" points="619,-55 619,-74 816,-74 816,-55 619,-55"/>
<text text-anchor="middle" x="717.5" y="-62" font-family="Helvetica,sans-Serif" font-size="10.00">klyqa_ctl.general.general.task_name</text>
</a>
</g>
</g>
<!-- Node3&#45;&gt;Node4 -->
<g id="edge3" class="edge">
<title>Node3&#45;&gt;Node4</title>
<path fill="none" stroke="midnightblue" d="M583.02,-64.5C591.5,-64.5 600.15,-64.5 608.76,-64.5"/>
<polygon fill="midnightblue" stroke="midnightblue" points="608.83,-68 618.83,-64.5 608.83,-61 608.83,-68"/>
</g>
<!-- Node5&#45;&gt;Node3 -->
<g id="edge5" class="edge">
<title>Node5&#45;&gt;Node3</title>
<path fill="none" stroke="midnightblue" d="M357.63,-64.5C367.51,-64.5 377.69,-64.5 387.82,-64.5"/>
<polygon fill="midnightblue" stroke="midnightblue" points="387.91,-68 397.91,-64.5 387.91,-61 387.91,-68"/>
</g>
<!-- Node6&#45;&gt;Node3 -->
<g id="edge7" class="edge">
<title>Node6&#45;&gt;Node3</title>
<path fill="none" stroke="midnightblue" d="M341.85,-30.53C372.81,-37.66 409.25,-46.04 438.18,-52.69"/>
<polygon fill="midnightblue" stroke="midnightblue" points="437.55,-56.14 448.08,-54.97 439.12,-49.32 437.55,-56.14"/>
</g>
</g>
</svg>
