<?xml version="1.0" encoding="UTF-8" standalone="no"?>
<!DOCTYPE svg PUBLIC "-//W3C//DTD SVG 1.1//EN"
 "http://www.w3.org/Graphics/SVG/1.1/DTD/svg11.dtd">
<!-- Generated by graphviz version 2.43.0 (0)
 -->
<!-- Title: local.connection.TcpConnection.socket Pages: 1 -->
<svg width="457pt" height="88pt"
 viewBox="0.00 0.00 457.00 88.00" xmlns="http://www.w3.org/2000/svg" xmlns:xlink="http://www.w3.org/1999/xlink">
<g id="graph0" class="graph" transform="scale(1 1) rotate(0) translate(4 84)">
<title>local.connection.TcpConnection.socket</title>
<polygon fill="white" stroke="transparent" points="-4,4 -4,-84 453,-84 453,4 -4,4"/>
<!-- Node1 -->
<g id="node1" class="node">
<title>Node1</title>
<g id="a_node1"><a xlink:title=" ">
<polygon fill="#bfbfbf" stroke="black" points="245,-30 245,-49 449,-49 449,-30 245,-30"/>
<text text-anchor="middle" x="347" y="-37" font-family="Helvetica,sans-Serif" font-size="10.00">local.connection.TcpConnection.socket</text>
</a>
</g>
</g>
<!-- Node2 -->
<g id="node2" class="node">
<title>Node2</title>
<g id="a_node2"><a xlink:href="classlocal_1_1connection_1_1TcpConnection.html#a305b3adb5bd8041bbaa53f47d1c23e81" target="_top" xlink:title=" ">
<polygon fill="white" stroke="black" points="0,-49.5 0,-79.5 209,-79.5 209,-49.5 0,-49.5"/>
<text text-anchor="start" x="8" y="-67.5" font-family="Helvetica,sans-Serif" font-size="10.00">local.connection.TcpConnection.encrypt</text>
<text text-anchor="middle" x="104.5" y="-56.5" font-family="Helvetica,sans-Serif" font-size="10.00">_and_send_msg</text>
</a>
</g>
</g>
<!-- Node1&#45;&gt;Node2 -->
<g id="edge1" class="edge">
<title>Node1&#45;&gt;Node2</title>
<path fill="none" stroke="midnightblue" d="M244.29,-50.07C232.72,-51.28 220.92,-52.5 209.32,-53.71"/>
<polygon fill="midnightblue" stroke="midnightblue" points="244.81,-53.54 254.39,-49.02 244.08,-46.58 244.81,-53.54"/>
</g>
<!-- Node3 -->
<g id="node3" class="node">
<title>Node3</title>
<g id="a_node3"><a xlink:href="classlocal_1_1connection_1_1TcpConnection.html#a65ab7164f0d09f1380e3837905a602b7" target="_top" xlink:title=" ">
<polygon fill="white" stroke="black" points="7.5,-0.5 7.5,-30.5 201.5,-30.5 201.5,-0.5 7.5,-0.5"/>
<text text-anchor="start" x="15.5" y="-18.5" font-family="Helvetica,sans-Serif" font-size="10.00">local.connection.TcpConnection.read</text>
<text text-anchor="middle" x="104.5" y="-7.5" font-family="Helvetica,sans-Serif" font-size="10.00">_local_tcp_socket</text>
</a>
</g>
</g>
<!-- Node1&#45;&gt;Node3 -->
<g id="edge2" class="edge">
<title>Node1&#45;&gt;Node3</title>
<path fill="none" stroke="midnightblue" d="M240.32,-28.95C227.43,-27.67 214.31,-26.36 201.57,-25.09"/>
<polygon fill="midnightblue" stroke="midnightblue" points="240.3,-32.47 250.6,-29.98 241,-25.5 240.3,-32.47"/>
</g>
</g>
</svg>
