<?xml version="1.0" encoding="UTF-8" standalone="no"?>
<!DOCTYPE svg PUBLIC "-//W3C//DTD SVG 1.1//EN"
 "http://www.w3.org/Graphics/SVG/1.1/DTD/svg11.dtd">
<!-- Generated by graphviz version 2.43.0 (0)
 -->
<!-- Title: klyqa_ctl.account_control.AccountControl.__init__ Pages: 1 -->
<svg width="373pt" height="225pt"
 viewBox="0.00 0.00 373.00 225.00" xmlns="http://www.w3.org/2000/svg" xmlns:xlink="http://www.w3.org/1999/xlink">
<g id="graph0" class="graph" transform="scale(1 1) rotate(0) translate(4 221)">
<title>klyqa_ctl.account_control.AccountControl.__init__</title>
<polygon fill="white" stroke="transparent" points="-4,4 -4,-221 369,-221 369,4 -4,4"/>
<!-- Node1 -->
<g id="node1" class="node">
<title>Node1</title>
<g id="a_node1"><a xlink:title=" ">
<polygon fill="#bfbfbf" stroke="black" points="0,-99 0,-129 144,-129 144,-99 0,-99"/>
<text text-anchor="start" x="8" y="-117" font-family="Helvetica,sans-Serif" font-size="10.00">klyqa_ctl.account_control.</text>
<text text-anchor="middle" x="72" y="-106" font-family="Helvetica,sans-Serif" font-size="10.00">AccountControl.__init__</text>
</a>
</g>
</g>
<!-- Node2 -->
<g id="node2" class="node">
<title>Node2</title>
<g id="a_node2"><a xlink:href="classklyqa__ctl_1_1account_1_1Account.html#a2265c38daf6829c96c852ad4a288b42d" target="_top" xlink:title=" ">
<polygon fill="white" stroke="black" points="180,-197.5 180,-216.5 365,-216.5 365,-197.5 180,-197.5"/>
<text text-anchor="middle" x="272.5" y="-204.5" font-family="Helvetica,sans-Serif" font-size="10.00">klyqa_ctl.account.Account.devices</text>
</a>
</g>
</g>
<!-- Node1&#45;&gt;Node2 -->
<g id="edge1" class="edge">
<title>Node1&#45;&gt;Node2</title>
<path fill="none" stroke="midnightblue" d="M90.23,-129.23C110.36,-146.18 145.33,-173.14 180,-188 185.87,-190.52 192.1,-192.71 198.44,-194.62"/>
<polygon fill="midnightblue" stroke="midnightblue" points="197.89,-198.09 208.46,-197.39 199.75,-191.35 197.89,-198.09"/>
</g>
<!-- Node3 -->
<g id="node3" class="node">
<title>Node3</title>
<g id="a_node3"><a xlink:href="classlocal_1_1connection__handler_1_1LocalConnectionHandler.html#a4d307f6bd0b66f3cb9fac3057fc87972" target="_top" xlink:title=" ">
<polygon fill="white" stroke="black" points="185,-148 185,-178 360,-178 360,-148 185,-148"/>
<text text-anchor="start" x="193" y="-166" font-family="Helvetica,sans-Serif" font-size="10.00">local.connection_handler.</text>
<text text-anchor="middle" x="272.5" y="-155" font-family="Helvetica,sans-Serif" font-size="10.00">LocalConnectionHandler.devices</text>
</a>
</g>
</g>
<!-- Node1&#45;&gt;Node3 -->
<g id="edge2" class="edge">
<title>Node1&#45;&gt;Node3</title>
<path fill="none" stroke="midnightblue" d="M133.91,-129.03C155.05,-134.26 178.95,-140.15 200.82,-145.55"/>
<polygon fill="midnightblue" stroke="midnightblue" points="200.16,-149 210.71,-147.99 201.84,-142.2 200.16,-149"/>
</g>
<!-- Node4 -->
<g id="node4" class="node">
<title>Node4</title>
<g id="a_node4"><a xlink:href="classklyqa__ctl_1_1controller__data_1_1ControllerData.html#adf7af423388a9a883c428cf71e217650" target="_top" xlink:title=" ">
<polygon fill="white" stroke="black" points="193.5,-99 193.5,-129 351.5,-129 351.5,-99 193.5,-99"/>
<text text-anchor="start" x="201.5" y="-117" font-family="Helvetica,sans-Serif" font-size="10.00">klyqa_ctl.controller</text>
<text text-anchor="middle" x="272.5" y="-106" font-family="Helvetica,sans-Serif" font-size="10.00">_data.ControllerData.devices</text>
</a>
</g>
</g>
<!-- Node1&#45;&gt;Node4 -->
<g id="edge3" class="edge">
<title>Node1&#45;&gt;Node4</title>
<path fill="none" stroke="midnightblue" d="M144.1,-114C156.87,-114 170.31,-114 183.49,-114"/>
<polygon fill="midnightblue" stroke="midnightblue" points="183.49,-117.5 193.49,-114 183.49,-110.5 183.49,-117.5"/>
</g>
<!-- Node5 -->
<g id="node5" class="node">
<title>Node5</title>
<g id="a_node5"><a xlink:href="classklyqa__ctl_1_1klyqa__ctl_1_1Client.html#ab6e5eda10fb712850c3fb311fd1cd4a0" target="_top" xlink:title=" ">
<polygon fill="white" stroke="black" points="182.5,-60.5 182.5,-79.5 362.5,-79.5 362.5,-60.5 182.5,-60.5"/>
<text text-anchor="middle" x="272.5" y="-67.5" font-family="Helvetica,sans-Serif" font-size="10.00">klyqa_ctl.klyqa_ctl.Client.devices</text>
</a>
</g>
</g>
<!-- Node1&#45;&gt;Node5 -->
<g id="edge4" class="edge">
<title>Node1&#45;&gt;Node5</title>
<path fill="none" stroke="midnightblue" d="M139.77,-98.96C153.09,-95.98 166.99,-92.88 180,-90 192.28,-87.28 205.49,-84.38 217.94,-81.66"/>
<polygon fill="midnightblue" stroke="midnightblue" points="218.72,-85.07 227.74,-79.51 217.22,-78.23 218.72,-85.07"/>
</g>
<!-- Node6 -->
<g id="node6" class="node">
<title>Node6</title>
<g id="a_node6"><a xlink:href="classklyqa__ctl_1_1controller__data_1_1ControllerData.html#a4db20468ab1574d0198a02bf2e05b1ec" target="_top" xlink:title=" ">
<polygon fill="white" stroke="black" points="186,-0.5 186,-41.5 359,-41.5 359,-0.5 186,-0.5"/>
<text text-anchor="start" x="194" y="-29.5" font-family="Helvetica,sans-Serif" font-size="10.00">klyqa_ctl.controller</text>
<text text-anchor="start" x="194" y="-18.5" font-family="Helvetica,sans-Serif" font-size="10.00">_data.ControllerData.interactive</text>
<text text-anchor="middle" x="272.5" y="-7.5" font-family="Helvetica,sans-Serif" font-size="10.00">_prompts</text>
</a>
</g>
</g>
<!-- Node1&#45;&gt;Node6 -->
<g id="edge5" class="edge">
<title>Node1&#45;&gt;Node6</title>
<path fill="none" stroke="midnightblue" d="M95.61,-98.74C116.75,-84.95 149.55,-64.76 180,-51 184.43,-49 189.04,-47.06 193.72,-45.2"/>
<polygon fill="midnightblue" stroke="midnightblue" points="195.32,-48.34 203.41,-41.51 192.82,-41.8 195.32,-48.34"/>
</g>
</g>
</svg>
