<?xml version="1.0" encoding="UTF-8" standalone="no"?>
<!DOCTYPE svg PUBLIC "-//W3C//DTD SVG 1.1//EN"
 "http://www.w3.org/Graphics/SVG/1.1/DTD/svg11.dtd">
<!-- Generated by graphviz version 2.43.0 (0)
 -->
<!-- Title: klyqa_ctl.devices.vacuum.general.VcWorkingStatus Pages: 1 -->
<svg width="231pt" height="325pt"
 viewBox="0.00 0.00 231.00 325.00" xmlns="http://www.w3.org/2000/svg" xmlns:xlink="http://www.w3.org/1999/xlink">
<g id="graph0" class="graph" transform="scale(1 1) rotate(0) translate(4 321)">
<title>klyqa_ctl.devices.vacuum.general.VcWorkingStatus</title>
<polygon fill="white" stroke="transparent" points="-4,4 -4,-321 227,-321 227,4 -4,4"/>
<!-- Node1 -->
<g id="node1" class="node">
<title>Node1</title>
<g id="a_node1"><a xlink:title=" ">
<polygon fill="#bfbfbf" stroke="black" points="0,-0.5 0,-101.5 186,-101.5 186,-0.5 0,-0.5"/>
<text text-anchor="start" x="8" y="-89.5" font-family="Helvetica,sans-Serif" font-size="10.00">klyqa_ctl.devices.vacuum.general.</text>
<text text-anchor="middle" x="93" y="-78.5" font-family="Helvetica,sans-Serif" font-size="10.00">VcWorkingStatus</text>
<polyline fill="none" stroke="black" points="0,-71.5 186,-71.5 "/>
<text text-anchor="start" x="8" y="-59.5" font-family="Helvetica,sans-Serif" font-size="10.00">+ int SLEEP</text>
<text text-anchor="start" x="8" y="-48.5" font-family="Helvetica,sans-Serif" font-size="10.00">+ int STANDBY</text>
<text text-anchor="start" x="8" y="-37.5" font-family="Helvetica,sans-Serif" font-size="10.00">+ int DOCKING</text>
<text text-anchor="start" x="8" y="-26.5" font-family="Helvetica,sans-Serif" font-size="10.00">+ int ERROR</text>
<polyline fill="none" stroke="black" points="0,-19.5 186,-19.5 "/>
<text text-anchor="middle" x="93" y="-7.5" font-family="Helvetica,sans-Serif" font-size="10.00"> </text>
</a>
</g>
</g>
<!-- Node2 -->
<g id="node2" class="node">
<title>Node2</title>
<g id="a_node2"><a xlink:title=" ">
<polygon fill="white" stroke="#bfbfbf" points="44,-259.5 44,-316.5 88,-316.5 88,-259.5 44,-259.5"/>
<text text-anchor="middle" x="66" y="-304.5" font-family="Helvetica,sans-Serif" font-size="10.00">Enum</text>
<polyline fill="none" stroke="#bfbfbf" points="44,-297.5 88,-297.5 "/>
<text text-anchor="middle" x="66" y="-285.5" font-family="Helvetica,sans-Serif" font-size="10.00"> </text>
<polyline fill="none" stroke="#bfbfbf" points="44,-278.5 88,-278.5 "/>
<text text-anchor="middle" x="66" y="-266.5" font-family="Helvetica,sans-Serif" font-size="10.00"> </text>
</a>
</g>
</g>
<!-- Node2&#45;&gt;Node1 -->
<g id="edge1" class="edge">
<title>Node2&#45;&gt;Node1</title>
<path fill="none" stroke="midnightblue" d="M70.37,-248.96C74.98,-208.87 82.25,-145.55 87.3,-101.57"/>
<polygon fill="none" stroke="midnightblue" points="66.87,-248.79 69.2,-259.12 73.82,-249.58 66.87,-248.79"/>
</g>
<!-- Node3 -->
<g id="node3" class="node">
<title>Node3</title>
<g id="a_node3"><a xlink:title=" ">
<polygon fill="white" stroke="#bfbfbf" points="106.5,-259.5 106.5,-316.5 135.5,-316.5 135.5,-259.5 106.5,-259.5"/>
<text text-anchor="middle" x="121" y="-304.5" font-family="Helvetica,sans-Serif" font-size="10.00">int</text>
<polyline fill="none" stroke="#bfbfbf" points="106.5,-297.5 135.5,-297.5 "/>
<text text-anchor="middle" x="121" y="-285.5" font-family="Helvetica,sans-Serif" font-size="10.00"> </text>
<polyline fill="none" stroke="#bfbfbf" points="106.5,-278.5 135.5,-278.5 "/>
<text text-anchor="middle" x="121" y="-266.5" font-family="Helvetica,sans-Serif" font-size="10.00"> </text>
</a>
</g>
</g>
<!-- Node3&#45;&gt;Node1 -->
<g id="edge2" class="edge">
<title>Node3&#45;&gt;Node1</title>
<path fill="none" stroke="#404040" d="M117.68,-259.12C113.43,-223.44 105.94,-160.62 100.33,-113.49"/>
<polygon fill="none" stroke="#404040" points="100.33,-113.49 95.64,-108 98.91,-101.57 103.59,-107.06 100.33,-113.49"/>
<text text-anchor="middle" x="168.5" y="-233" font-family="Helvetica,sans-Serif" font-size="10.00"> +CHARGING</text>
<text text-anchor="middle" x="168.5" y="-222" font-family="Helvetica,sans-Serif" font-size="10.00">+CHARGING_COMP</text>
<text text-anchor="middle" x="168.5" y="-211" font-family="Helvetica,sans-Serif" font-size="10.00">+CHARGING_DC</text>
<text text-anchor="middle" x="168.5" y="-200" font-family="Helvetica,sans-Serif" font-size="10.00">+CLEANING</text>
<text text-anchor="middle" x="168.5" y="-189" font-family="Helvetica,sans-Serif" font-size="10.00">+CLEANING_AUTO</text>
<text text-anchor="middle" x="168.5" y="-178" font-family="Helvetica,sans-Serif" font-size="10.00">+CLEANING_COMP</text>
<text text-anchor="middle" x="168.5" y="-167" font-family="Helvetica,sans-Serif" font-size="10.00">+CLEANING_EDGE</text>
<text text-anchor="middle" x="168.5" y="-156" font-family="Helvetica,sans-Serif" font-size="10.00">+CLEANING_RANDOM</text>
<text text-anchor="middle" x="168.5" y="-145" font-family="Helvetica,sans-Serif" font-size="10.00">+CLEANING_SPOT</text>
<text text-anchor="middle" x="168.5" y="-134" font-family="Helvetica,sans-Serif" font-size="10.00">+CLEANING_SROOM</text>
<text text-anchor="middle" x="168.5" y="-123" font-family="Helvetica,sans-Serif" font-size="10.00">...</text>
</g>
</g>
</svg>
