<?xml version="1.0" encoding="UTF-8" standalone="no"?>
<!DOCTYPE svg PUBLIC "-//W3C//DTD SVG 1.1//EN"
 "http://www.w3.org/Graphics/SVG/1.1/DTD/svg11.dtd">
<!-- Generated by graphviz version 2.43.0 (0)
 -->
<!-- Title: local.connection.TcpConnection.sending_aes Pages: 1 -->
<svg width="755pt" height="53pt"
 viewBox="0.00 0.00 755.00 52.50" xmlns="http://www.w3.org/2000/svg" xmlns:xlink="http://www.w3.org/1999/xlink">
<g id="graph0" class="graph" transform="scale(1 1) rotate(0) translate(4 48.5)">
<title>local.connection.TcpConnection.sending_aes</title>
<polygon fill="white" stroke="transparent" points="-4,4 -4,-48.5 751,-48.5 751,4 -4,4"/>
<!-- Node1 -->
<g id="node1" class="node">
<title>Node1</title>
<g id="a_node1"><a xlink:title=" ">
<polygon fill="#bfbfbf" stroke="black" points="514,-19.5 514,-38.5 747,-38.5 747,-19.5 514,-19.5"/>
<text text-anchor="middle" x="630.5" y="-26.5" font-family="Helvetica,sans-Serif" font-size="10.00">local.connection.TcpConnection.sending_aes</text>
</a>
</g>
</g>
<!-- Node2 -->
<g id="node2" class="node">
<title>Node2</title>
<g id="a_node2"><a xlink:href="classlocal_1_1connection_1_1TcpConnection.html#a305b3adb5bd8041bbaa53f47d1c23e81" target="_top" xlink:title=" ">
<polygon fill="white" stroke="black" points="0,-14 0,-44 209,-44 209,-14 0,-14"/>
<text text-anchor="start" x="8" y="-32" font-family="Helvetica,sans-Serif" font-size="10.00">local.connection.TcpConnection.encrypt</text>
<text text-anchor="middle" x="104.5" y="-21" font-family="Helvetica,sans-Serif" font-size="10.00">_and_send_msg</text>
</a>
</g>
</g>
<!-- Node1&#45;&gt;Node2 -->
<g id="edge1" class="edge">
<title>Node1&#45;&gt;Node2</title>
<path fill="none" stroke="midnightblue" d="M503.58,-29C413.56,-29 293.86,-29 209.3,-29"/>
<polygon fill="midnightblue" stroke="midnightblue" points="503.86,-32.5 513.86,-29 503.86,-25.5 503.86,-32.5"/>
</g>
<!-- Node3 -->
<g id="node3" class="node">
<title>Node3</title>
<g id="a_node3"><a xlink:href="classlocal_1_1connection_1_1TcpConnection.html#ad3cd8182c4e0eb009a296d47a2ae969e" target="_top" xlink:title=" ">
<polygon fill="white" stroke="black" points="245,-0.5 245,-19.5 478,-19.5 478,-0.5 245,-0.5"/>
<text text-anchor="middle" x="361.5" y="-7.5" font-family="Helvetica,sans-Serif" font-size="10.00">local.connection.TcpConnection.sending_aes</text>
</a>
</g>
</g>
<!-- Node1&#45;&gt;Node3 -->
<g id="edge2" class="edge">
<title>Node1&#45;&gt;Node3</title>
<path fill="none" stroke="midnightblue" d="M503.92,-20.06C495.35,-19.45 486.74,-18.84 478.23,-18.24"/>
<polygon fill="midnightblue" stroke="midnightblue" points="503.72,-23.56 513.94,-20.78 504.22,-16.58 503.72,-23.56"/>
</g>
<!-- Node3&#45;&gt;Node2 -->
<g id="edge3" class="edge">
<title>Node3&#45;&gt;Node2</title>
<path fill="none" stroke="midnightblue" d="M234.91,-19.36C226.35,-20 217.78,-20.63 209.36,-21.26"/>
<polygon fill="midnightblue" stroke="midnightblue" points="235.23,-22.84 244.94,-18.61 234.71,-15.86 235.23,-22.84"/>
</g>
</g>
</svg>
