<?xml version="1.0" encoding="UTF-8" standalone="no"?>
<!DOCTYPE svg PUBLIC "-//W3C//DTD SVG 1.1//EN"
 "http://www.w3.org/Graphics/SVG/1.1/DTD/svg11.dtd">
<!-- Generated by graphviz version 2.43.0 (0)
 -->
<!-- Title: klyqa_ctl.account.Account.cloud Pages: 1 -->
<!--zoomable 522 -->
<svg id="main" version="1.1" xmlns="http://www.w3.org/2000/svg" xmlns:xlink="http://www.w3.org/1999/xlink" xml:space="preserve" onload="init(evt)">
<style type="text/css"><![CDATA[
.edge:hover path { stroke: red; }
.edge:hover polygon { stroke: red; fill: red; }
]]></style>
<script type="text/javascript"><![CDATA[
var edges = document.getElementsByTagName('g');
if (edges && edges.length) {
  for (var i=0;i<edges.length;i++) {
    if (edges[i].id.substr(0,4)=='edge') {
      edges[i].setAttribute('class','edge');
    }
  }
}
]]></script>
        <defs>
                <circle id="rim" cx="0" cy="0" r="7"/>
                <circle id="rim2" cx="0" cy="0" r="3.5"/>
                <g id="zoomPlus">
                        <use xlink:href="#rim" fill="#404040">
                                <set attributeName="fill" to="#808080" begin="zoomplus.mouseover" end="zoomplus.mouseout"/>
                        </use>
                        <path d="M-4,0h8M0,-4v8" fill="none" stroke="white" stroke-width="1.5" pointer-events="none"/>
                </g>
                <g id="zoomMin">
                        <use xlink:href="#rim" fill="#404040">
                                <set attributeName="fill" to="#808080" begin="zoomminus.mouseover" end="zoomminus.mouseout"/>
                        </use>
                        <path d="M-4,0h8" fill="none" stroke="white" stroke-width="1.5" pointer-events="none"/>
                </g>
                <g id="dirArrow">
                        <path fill="none" stroke="white" stroke-width="1.5" d="M0,-3.0v7 M-2.5,-0.5L0,-3.0L2.5,-0.5"/>
                </g>
               <g id="resetDef">
                       <use xlink:href="#rim2" fill="#404040">
                               <set attributeName="fill" to="#808080" begin="reset.mouseover" end="reset.mouseout"/>
                       </use>
               </g>
        </defs>

<script type="text/javascript">
var viewWidth = 1284;
var viewHeight = 522;
var sectionId = 'dynsection-10';
</script>
<script xlink:href="svgpan.js"/>
<svg id="graph" class="graph">
<g id="viewport">
<title>klyqa_ctl.account.Account.cloud</title>
<polygon fill="white" stroke="transparent" points="-4,4 -4,-517.54 1280,-517.54 1280,4 -4,4"/>
<!-- Node1 -->
<g id="node1" class="node">
<title>Node1</title>
<g id="a_node1"><a xlink:title=" ">
<polygon fill="#bfbfbf" stroke="black" points="1103,-241.5 1103,-260.5 1276,-260.5 1276,-241.5 1103,-241.5"/>
<text text-anchor="middle" x="1189.5" y="-248.5" font-family="Helvetica,sans-Serif" font-size="10.00">klyqa_ctl.account.Account.cloud</text>
</a>
</g>
</g>
<!-- Node2 -->
<g id="node2" class="node">
<title>Node2</title>
<g id="a_node2"><a xlink:href="classklyqa__ctl_1_1account_1_1Account.html#a19bd2d6d0ae6a4e738c4d40453557606" target="_top" xlink:title=" ">
<polygon fill="white" stroke="black" points="649,-196 649,-226 837,-226 837,-196 649,-196"/>
<text text-anchor="start" x="657" y="-214" font-family="Helvetica,sans-Serif" font-size="10.00">klyqa_ctl.account.Account.backend</text>
<text text-anchor="middle" x="743" y="-203" font-family="Helvetica,sans-Serif" font-size="10.00">_connected</text>
</a>
</g>
</g>
<!-- Node1&#45;&gt;Node2 -->
<g id="edge1" class="edge">
<title>Node1&#45;&gt;Node2</title>
<path fill="none" stroke="midnightblue" d="M1099.47,-240.38C1088.54,-239.19 1077.52,-238.03 1067,-237 989.59,-229.43 901.59,-222.45 837.01,-217.64"/>
<polygon fill="midnightblue" stroke="midnightblue" points="1099.13,-243.87 1109.46,-241.49 1099.91,-236.91 1099.13,-243.87"/>
</g>
<!-- Node3 -->
<g id="node3" class="node">
<title>Node3</title>
<g id="a_node3"><a xlink:href="classklyqa__ctl_1_1account_1_1Account.html#aa78870d05cc7fa5899d61733d124e885" target="_top" xlink:title=" ">
<polygon fill="white" stroke="black" points="210.5,-209 210.5,-239 389.5,-239 389.5,-209 210.5,-209"/>
<text text-anchor="start" x="218.5" y="-227" font-family="Helvetica,sans-Serif" font-size="10.00">klyqa_ctl.account.Account.device</text>
<text text-anchor="middle" x="300" y="-216" font-family="Helvetica,sans-Serif" font-size="10.00">_request_and_print</text>
</a>
</g>
</g>
<!-- Node1&#45;&gt;Node3 -->
<g id="edge4" class="edge">
<title>Node1&#45;&gt;Node3</title>
<path fill="none" stroke="midnightblue" d="M1150.17,-238.3C1126.44,-230.86 1095.22,-221.81 1067,-216 789.25,-158.84 710.96,-179.84 429,-210 416.33,-211.36 402.96,-212.8 389.82,-214.23"/>
<polygon fill="midnightblue" stroke="midnightblue" points="1149.26,-241.69 1159.85,-241.38 1151.38,-235.02 1149.26,-241.69"/>
</g>
<!-- Node4 -->
<g id="node4" class="node">
<title>Node4</title>
<g id="a_node4"><a xlink:href="classklyqa__ctl_1_1account_1_1Account.html#a0b171a600e4342d035ad26c39b384b38" target="_top" xlink:title=" ">
<polygon fill="white" stroke="black" points="0,-459.5 0,-478.5 171,-478.5 171,-459.5 0,-459.5"/>
<text text-anchor="middle" x="85.5" y="-466.5" font-family="Helvetica,sans-Serif" font-size="10.00">klyqa_ctl.account.Account.login</text>
</a>
</g>
</g>
<!-- Node1&#45;&gt;Node4 -->
<g id="edge14" class="edge">
<title>Node1&#45;&gt;Node4</title>
<path fill="none" stroke="midnightblue" d="M1181.72,-269.94C1167.08,-307.96 1128.77,-393.68 1067,-437 946.26,-521.68 891.48,-513 744,-513 744,-513 744,-513 520,-513 380.63,-513 345.14,-512.43 207,-494 179.47,-490.33 148.82,-483.94 125.33,-478.54"/>
<polygon fill="midnightblue" stroke="midnightblue" points="1185,-271.14 1185.22,-260.55 1178.45,-268.7 1185,-271.14"/>
</g>
<!-- Node5 -->
<g id="node5" class="node">
<title>Node5</title>
<g id="a_node5"><a xlink:href="classklyqa__ctl_1_1account_1_1Account.html#ad608e3ee0ba1199f509e644a11081724" target="_top" xlink:title=" ">
<polygon fill="white" stroke="black" points="888.5,-280 888.5,-310 1051.5,-310 1051.5,-280 888.5,-280"/>
<text text-anchor="start" x="896.5" y="-298" font-family="Helvetica,sans-Serif" font-size="10.00">klyqa_ctl.account.Account.get</text>
<text text-anchor="middle" x="970" y="-287" font-family="Helvetica,sans-Serif" font-size="10.00">_beared_request_header</text>
</a>
</g>
</g>
<!-- Node1&#45;&gt;Node5 -->
<g id="edge5" class="edge">
<title>Node1&#45;&gt;Node5</title>
<path fill="none" stroke="midnightblue" d="M1131.5,-262.53C1105.2,-267.85 1073.63,-274.24 1045.47,-279.93"/>
<polygon fill="midnightblue" stroke="midnightblue" points="1132.2,-265.96 1141.31,-260.55 1130.81,-259.1 1132.2,-265.96"/>
</g>
<!-- Node6 -->
<g id="node6" class="node">
<title>Node6</title>
<g id="a_node6"><a xlink:href="classklyqa__ctl_1_1account_1_1Account.html#a73506bd234f8e819e138c2bd663179b8" target="_top" xlink:title=" ">
<polygon fill="white" stroke="black" points="651,-280 651,-310 835,-310 835,-280 651,-280"/>
<text text-anchor="start" x="659" y="-298" font-family="Helvetica,sans-Serif" font-size="10.00">klyqa_ctl.account.Account.request</text>
<text text-anchor="middle" x="743" y="-287" font-family="Helvetica,sans-Serif" font-size="10.00">_beared</text>
</a>
</g>
</g>
<!-- Node1&#45;&gt;Node6 -->
<g id="edge18" class="edge">
<title>Node1&#45;&gt;Node6</title>
<path fill="none" stroke="midnightblue" d="M1092.61,-254.07C1029.93,-256.82 946.39,-261.88 873,-271 854.58,-273.29 834.81,-276.55 816.42,-279.94"/>
<polygon fill="midnightblue" stroke="midnightblue" points="1093.03,-257.56 1102.87,-253.63 1092.73,-250.56 1093.03,-257.56"/>
</g>
<!-- Node10 -->
<g id="node10" class="node">
<title>Node10</title>
<g id="a_node10"><a xlink:href="classklyqa__ctl_1_1account_1_1Account.html#af101070a97d556e95978748475933f72" target="_top" xlink:title=" ">
<polygon fill="white" stroke="black" points="430.5,-378 430.5,-408 611.5,-408 611.5,-378 430.5,-378"/>
<text text-anchor="start" x="438.5" y="-396" font-family="Helvetica,sans-Serif" font-size="10.00">klyqa_ctl.account.Account.update</text>
<text text-anchor="middle" x="521" y="-385" font-family="Helvetica,sans-Serif" font-size="10.00">_account_settings</text>
</a>
</g>
</g>
<!-- Node1&#45;&gt;Node10 -->
<g id="edge25" class="edge">
<title>Node1&#45;&gt;Node10</title>
<path fill="none" stroke="midnightblue" d="M1167.02,-266.61C1143.64,-282.76 1104.55,-307.36 1067,-320 912.52,-372.02 721.66,-387.12 611.67,-391.41"/>
<polygon fill="midnightblue" stroke="midnightblue" points="1169.3,-269.29 1175.46,-260.67 1165.27,-263.56 1169.3,-269.29"/>
</g>
<!-- Node11 -->
<g id="node11" class="node">
<title>Node11</title>
<g id="a_node11"><a xlink:href="classklyqa__ctl_1_1account_1_1Account.html#aeca1011f6c6e2f6bcdb2136ef48bc7fd" target="_top" xlink:title=" ">
<polygon fill="white" stroke="black" points="208,-392 208,-422 392,-422 392,-392 208,-392"/>
<text text-anchor="start" x="216" y="-410" font-family="Helvetica,sans-Serif" font-size="10.00">klyqa_ctl.account.Account.request</text>
<text text-anchor="middle" x="300" y="-399" font-family="Helvetica,sans-Serif" font-size="10.00">_account_settings_eco</text>
</a>
</g>
</g>
<!-- Node1&#45;&gt;Node11 -->
<g id="edge17" class="edge">
<title>Node1&#45;&gt;Node11</title>
<path fill="none" stroke="midnightblue" d="M1174.05,-268.43C1153.13,-292.4 1111.94,-334.94 1067,-356 842.97,-460.98 541.09,-440.53 392.05,-421.36"/>
<polygon fill="midnightblue" stroke="midnightblue" points="1176.75,-270.67 1180.58,-260.8 1171.42,-266.12 1176.75,-270.67"/>
</g>
<!-- Node13 -->
<g id="node13" class="node">
<title>Node13</title>
<g id="a_node13"><a xlink:href="classklyqa__ctl_1_1account_1_1Account.html#acbc09f2b1b4cb6b7ed771b96ea79613b" target="_top" xlink:title=" ">
<polygon fill="white" stroke="black" points="207,-454 207,-484 393,-484 393,-454 207,-454"/>
<text text-anchor="start" x="215" y="-472" font-family="Helvetica,sans-Serif" font-size="10.00">klyqa_ctl.account.Account.perform</text>
<text text-anchor="middle" x="300" y="-461" font-family="Helvetica,sans-Serif" font-size="10.00">_login</text>
</a>
</g>
</g>
<!-- Node1&#45;&gt;Node13 -->
<g id="edge15" class="edge">
<title>Node1&#45;&gt;Node13</title>
<path fill="none" stroke="midnightblue" d="M1178.87,-269.72C1161.32,-301.81 1120.9,-366.97 1067,-399 955.36,-465.35 571.19,-471.29 393.05,-470.31"/>
<polygon fill="midnightblue" stroke="midnightblue" points="1182.15,-271.02 1183.76,-260.54 1175.97,-267.73 1182.15,-271.02"/>
</g>
<!-- Node14 -->
<g id="node14" class="node">
<title>Node14</title>
<g id="a_node14"><a xlink:href="classklyqa__ctl_1_1account_1_1Account.html#a6f7d45c2ee71e0c761145bea5084dda6" target="_top" xlink:title=" ">
<polygon fill="white" stroke="black" points="878,-106 878,-136 1062,-136 1062,-106 878,-106"/>
<text text-anchor="start" x="886" y="-124" font-family="Helvetica,sans-Serif" font-size="10.00">klyqa_ctl.account.Account.request</text>
<text text-anchor="middle" x="970" y="-113" font-family="Helvetica,sans-Serif" font-size="10.00">_device_configs_from_acc_sets</text>
</a>
</g>
</g>
<!-- Node1&#45;&gt;Node14 -->
<g id="edge19" class="edge">
<title>Node1&#45;&gt;Node14</title>
<path fill="none" stroke="midnightblue" d="M1172.17,-233.97C1150.18,-211.93 1108.95,-173.69 1067,-151 1056.02,-145.06 1043.68,-140.1 1031.6,-136.03"/>
<polygon fill="midnightblue" stroke="midnightblue" points="1169.86,-236.61 1179.37,-241.29 1174.86,-231.71 1169.86,-236.61"/>
</g>
<!-- Node16 -->
<g id="node16" class="node">
<title>Node16</title>
<g id="a_node16"><a xlink:href="classklyqa__ctl_1_1klyqa__ctl_1_1Client.html#ad5c42cd8dd34ed1d6329040e164bfc2e" target="_top" xlink:title=" ">
<polygon fill="white" stroke="black" points="887,-39 887,-69 1053,-69 1053,-39 887,-39"/>
<text text-anchor="start" x="895" y="-57" font-family="Helvetica,sans-Serif" font-size="10.00">klyqa_ctl.klyqa_ctl.Client.send</text>
<text text-anchor="middle" x="970" y="-46" font-family="Helvetica,sans-Serif" font-size="10.00">_to_devices</text>
</a>
</g>
</g>
<!-- Node1&#45;&gt;Node16 -->
<g id="edge21" class="edge">
<title>Node1&#45;&gt;Node16</title>
<path fill="none" stroke="midnightblue" d="M1177.93,-232.35C1159.22,-200.75 1117.42,-136.29 1067,-97 1052.02,-85.33 1033.37,-76.04 1016.5,-69.13"/>
<polygon fill="midnightblue" stroke="midnightblue" points="1175.13,-234.49 1183.18,-241.38 1181.18,-230.98 1175.13,-234.49"/>
</g>
<!-- Node18 -->
<g id="node18" class="node">
<title>Node18</title>
<g id="a_node18"><a xlink:href="classklyqa__ctl_1_1account_1_1Account.html#af0e05ae15ad46c4b1b3bbb69b6bb7151" target="_top" xlink:title=" ">
<polygon fill="white" stroke="black" points="873,-0.5 873,-19.5 1067,-19.5 1067,-0.5 873,-0.5"/>
<text text-anchor="middle" x="970" y="-7.5" font-family="Helvetica,sans-Serif" font-size="10.00">klyqa_ctl.account.Account.shutdown</text>
</a>
</g>
</g>
<!-- Node1&#45;&gt;Node18 -->
<g id="edge24" class="edge">
<title>Node1&#45;&gt;Node18</title>
<path fill="none" stroke="midnightblue" d="M1183.78,-231.27C1172.18,-187.28 1137.88,-80.97 1067,-29 1061.79,-25.18 1056.02,-22.08 1049.96,-19.56"/>
<polygon fill="midnightblue" stroke="midnightblue" points="1180.41,-232.2 1186.25,-241.04 1187.19,-230.49 1180.41,-232.2"/>
</g>
<!-- Node2&#45;&gt;Node3 -->
<g id="edge2" class="edge">
<title>Node2&#45;&gt;Node3</title>
<path fill="none" stroke="midnightblue" d="M638.72,-214.04C563.1,-216.27 461.55,-219.27 389.61,-221.39"/>
<polygon fill="midnightblue" stroke="midnightblue" points="638.85,-217.54 648.74,-213.75 638.65,-210.55 638.85,-217.54"/>
</g>
<!-- Node3&#45;&gt;Node4 -->
<g id="edge3" class="edge">
<title>Node3&#45;&gt;Node4</title>
<path fill="none" stroke="midnightblue" d="M276.54,-246.35C257.57,-265.49 229.9,-294 207,-320 162.14,-370.93 112.26,-435.31 93.84,-459.36"/>
<polygon fill="midnightblue" stroke="midnightblue" points="279.04,-248.81 283.61,-239.25 274.07,-243.87 279.04,-248.81"/>
</g>
<!-- Node5&#45;&gt;Node6 -->
<g id="edge6" class="edge">
<title>Node5&#45;&gt;Node6</title>
<path fill="none" stroke="midnightblue" d="M878.17,-295C863.98,-295 849.32,-295 835.12,-295"/>
<polygon fill="midnightblue" stroke="midnightblue" points="878.41,-298.5 888.41,-295 878.41,-291.5 878.41,-298.5"/>
</g>
<!-- Node7 -->
<g id="node7" class="node">
<title>Node7</title>
<g id="a_node7"><a xlink:href="classklyqa__ctl_1_1account_1_1Account.html#a748c13aed7b2a5c9c605c81234633cb8" target="_top" xlink:title=" ">
<polygon fill="white" stroke="black" points="434.5,-329 434.5,-359 607.5,-359 607.5,-329 434.5,-329"/>
<text text-anchor="start" x="442.5" y="-347" font-family="Helvetica,sans-Serif" font-size="10.00">klyqa_ctl.account.Account.cloud</text>
<text text-anchor="middle" x="521" y="-336" font-family="Helvetica,sans-Serif" font-size="10.00">_post_to_device</text>
</a>
</g>
</g>
<!-- Node6&#45;&gt;Node7 -->
<g id="edge7" class="edge">
<title>Node6&#45;&gt;Node7</title>
<path fill="none" stroke="midnightblue" d="M664.51,-312.26C640,-317.72 613.12,-323.71 589.37,-328.99"/>
<polygon fill="midnightblue" stroke="midnightblue" points="665.5,-315.62 674.5,-310.03 663.98,-308.79 665.5,-315.62"/>
</g>
<!-- Node9 -->
<g id="node9" class="node">
<title>Node9</title>
<g id="a_node9"><a xlink:href="classklyqa__ctl_1_1account_1_1Account.html#a1450d1baa029967965be433e4efb5a6d" target="_top" xlink:title=" ">
<polygon fill="white" stroke="black" points="429,-231 429,-261 613,-261 613,-231 429,-231"/>
<text text-anchor="start" x="437" y="-249" font-family="Helvetica,sans-Serif" font-size="10.00">klyqa_ctl.account.Account.request</text>
<text text-anchor="middle" x="521" y="-238" font-family="Helvetica,sans-Serif" font-size="10.00">_cloud_device_state</text>
</a>
</g>
</g>
<!-- Node6&#45;&gt;Node9 -->
<g id="edge9" class="edge">
<title>Node6&#45;&gt;Node9</title>
<path fill="none" stroke="midnightblue" d="M664.51,-277.74C640,-272.28 613.12,-266.29 589.37,-261.01"/>
<polygon fill="midnightblue" stroke="midnightblue" points="663.98,-281.21 674.5,-279.97 665.5,-274.38 663.98,-281.21"/>
</g>
<!-- Node6&#45;&gt;Node10 -->
<g id="edge11" class="edge">
<title>Node6&#45;&gt;Node10</title>
<path fill="none" stroke="midnightblue" d="M708.55,-315.53C677.05,-334.61 631.97,-361.22 613,-369 604.99,-372.29 596.39,-375.24 587.8,-377.86"/>
<polygon fill="midnightblue" stroke="midnightblue" points="710.71,-318.31 717.44,-310.12 707.08,-312.33 710.71,-318.31"/>
</g>
<!-- Node12 -->
<g id="node12" class="node">
<title>Node12</title>
<g id="a_node12"><a xlink:href="classklyqa__ctl_1_1account_1_1Account.html#a4fb47c923d3a579054e8cc72480906fb" target="_top" xlink:title=" ">
<polygon fill="white" stroke="black" points="430.5,-280 430.5,-310 611.5,-310 611.5,-280 430.5,-280"/>
<text text-anchor="start" x="438.5" y="-298" font-family="Helvetica,sans-Serif" font-size="10.00">klyqa_ctl.account.Account.update</text>
<text text-anchor="middle" x="521" y="-287" font-family="Helvetica,sans-Serif" font-size="10.00">_device_configs</text>
</a>
</g>
</g>
<!-- Node6&#45;&gt;Node12 -->
<g id="edge13" class="edge">
<title>Node6&#45;&gt;Node12</title>
<path fill="none" stroke="midnightblue" d="M640.81,-295C631.06,-295 621.21,-295 611.59,-295"/>
<polygon fill="midnightblue" stroke="midnightblue" points="640.93,-298.5 650.93,-295 640.93,-291.5 640.93,-298.5"/>
</g>
<!-- Node8 -->
<g id="node8" class="node">
<title>Node8</title>
<g id="a_node8"><a xlink:href="classklyqa__ctl_1_1account_1_1Account.html#a372d813db2141719743dfe088dbe9552" target="_top" xlink:title=" ">
<polygon fill="white" stroke="black" points="213.5,-329 213.5,-359 386.5,-359 386.5,-329 213.5,-329"/>
<text text-anchor="start" x="221.5" y="-347" font-family="Helvetica,sans-Serif" font-size="10.00">klyqa_ctl.account.Account.cloud</text>
<text text-anchor="middle" x="300" y="-336" font-family="Helvetica,sans-Serif" font-size="10.00">_post_command_to_dev</text>
</a>
</g>
</g>
<!-- Node7&#45;&gt;Node8 -->
<g id="edge8" class="edge">
<title>Node7&#45;&gt;Node8</title>
<path fill="none" stroke="midnightblue" d="M424.36,-344C411.78,-344 398.95,-344 386.55,-344"/>
<polygon fill="midnightblue" stroke="midnightblue" points="424.39,-347.5 434.39,-344 424.39,-340.5 424.39,-347.5"/>
</g>
<!-- Node9&#45;&gt;Node3 -->
<g id="edge10" class="edge">
<title>Node9&#45;&gt;Node3</title>
<path fill="none" stroke="midnightblue" d="M418.67,-235.82C408.99,-234.85 399.23,-233.87 389.68,-232.91"/>
<polygon fill="midnightblue" stroke="midnightblue" points="418.41,-239.31 428.71,-236.83 419.11,-232.35 418.41,-239.31"/>
</g>
<!-- Node10&#45;&gt;Node11 -->
<g id="edge12" class="edge">
<title>Node10&#45;&gt;Node11</title>
<path fill="none" stroke="midnightblue" d="M420.25,-399.38C410.95,-399.97 401.56,-400.57 392.34,-401.16"/>
<polygon fill="midnightblue" stroke="midnightblue" points="420.54,-402.87 430.29,-398.73 420.09,-395.88 420.54,-402.87"/>
</g>
<!-- Node13&#45;&gt;Node4 -->
<g id="edge16" class="edge">
<title>Node13&#45;&gt;Node4</title>
<path fill="none" stroke="midnightblue" d="M196.48,-469C188.06,-469 179.6,-469 171.33,-469"/>
<polygon fill="midnightblue" stroke="midnightblue" points="196.72,-472.5 206.72,-469 196.72,-465.5 196.72,-472.5"/>
</g>
<!-- Node15 -->
<g id="node15" class="node">
<title>Node15</title>
<g id="a_node15"><a xlink:href="classklyqa__ctl_1_1account_1_1Account.html#a8e93f6fe918bf32c172447d4ef439d2d" target="_top" xlink:title=" ">
<polygon fill="white" stroke="black" points="658,-106 658,-136 828,-136 828,-106 658,-106"/>
<text text-anchor="start" x="666" y="-124" font-family="Helvetica,sans-Serif" font-size="10.00">klyqa_ctl.account.Account.sync</text>
<text text-anchor="middle" x="743" y="-113" font-family="Helvetica,sans-Serif" font-size="10.00">_acc_settings_to_controller</text>
</a>
</g>
</g>
<!-- Node14&#45;&gt;Node15 -->
<g id="edge20" class="edge">
<title>Node14&#45;&gt;Node15</title>
<path fill="none" stroke="midnightblue" d="M867.72,-121C854.46,-121 840.99,-121 828.06,-121"/>
<polygon fill="midnightblue" stroke="midnightblue" points="867.81,-124.5 877.81,-121 867.81,-117.5 867.81,-124.5"/>
</g>
<!-- Node16&#45;&gt;Node16 -->
<g id="edge22" class="edge">
<title>Node16&#45;&gt;Node16</title>
<path fill="none" stroke="midnightblue" d="M1008.74,-79.46C1003.93,-84.18 991.02,-87.5 970,-87.5 935.51,-87.5 922.85,-78.56 932.01,-69.16"/>
<polygon fill="midnightblue" stroke="midnightblue" points="1012.2,-78.88 1007.99,-69.16 1005.22,-79.39 1012.2,-78.88"/>
</g>
<!-- Node17 -->
<g id="node17" class="node">
<title>Node17</title>
<g id="a_node17"><a xlink:href="classklyqa__ctl_1_1klyqa__ctl_1_1Client.html#a7a93bda9f242d678a4208d0962837f11" target="_top" xlink:title=" ">
<polygon fill="white" stroke="black" points="660,-39 660,-69 826,-69 826,-39 660,-39"/>
<text text-anchor="start" x="668" y="-57" font-family="Helvetica,sans-Serif" font-size="10.00">klyqa_ctl.klyqa_ctl.Client.send</text>
<text text-anchor="middle" x="743" y="-46" font-family="Helvetica,sans-Serif" font-size="10.00">_to_devices_wrapped</text>
</a>
</g>
</g>
<!-- Node16&#45;&gt;Node17 -->
<g id="edge23" class="edge">
<title>Node16&#45;&gt;Node17</title>
<path fill="none" stroke="midnightblue" d="M876.55,-54C859.91,-54 842.67,-54 826.34,-54"/>
<polygon fill="midnightblue" stroke="midnightblue" points="876.81,-57.5 886.81,-54 876.81,-50.5 876.81,-57.5"/>
</g>
</g>
</svg>
        <g id="navigator" transform="translate(0 0)" fill="#404254">
                <rect fill="#f2f5e9" fill-opacity="0.5" stroke="#606060" stroke-width=".5" x="0" y="0" width="60" height="60"/>
                <use id="zoomplus" xlink:href="#zoomPlus" x="17" y="9" onmousedown="handleZoom(evt,'in')"/>
                <use id="zoomminus" xlink:href="#zoomMin" x="42" y="9" onmousedown="handleZoom(evt,'out')"/>
                <use id="reset" xlink:href="#resetDef" x="30" y="36" onmousedown="handleReset()"/>
                <g id="arrowUp" xlink:href="#dirArrow" transform="translate(30 24)" onmousedown="handlePan(0,-1)">
                  <use xlink:href="#rim" fill="#404040">
                        <set attributeName="fill" to="#808080" begin="arrowUp.mouseover" end="arrowUp.mouseout"/>
                  </use>
                  <path fill="none" stroke="white" stroke-width="1.5" d="M0,-3.0v7 M-2.5,-0.5L0,-3.0L2.5,-0.5"/>
                </g>
                <g id="arrowRight" xlink:href="#dirArrow" transform="rotate(90) translate(36 -43)" onmousedown="handlePan(1,0)">
                  <use xlink:href="#rim" fill="#404040">
                        <set attributeName="fill" to="#808080" begin="arrowRight.mouseover" end="arrowRight.mouseout"/>
                  </use>
                  <path fill="none" stroke="white" stroke-width="1.5" d="M0,-3.0v7 M-2.5,-0.5L0,-3.0L2.5,-0.5"/>
                </g>
                <g id="arrowDown" xlink:href="#dirArrow" transform="rotate(180) translate(-30 -48)" onmousedown="handlePan(0,1)">
                  <use xlink:href="#rim" fill="#404040">
                        <set attributeName="fill" to="#808080" begin="arrowDown.mouseover" end="arrowDown.mouseout"/>
                  </use>
                  <path fill="none" stroke="white" stroke-width="1.5" d="M0,-3.0v7 M-2.5,-0.5L0,-3.0L2.5,-0.5"/>
                </g>
                <g id="arrowLeft" xlink:href="#dirArrow" transform="rotate(270) translate(-36 17)" onmousedown="handlePan(-1,0)">
                  <use xlink:href="#rim" fill="#404040">
                        <set attributeName="fill" to="#808080" begin="arrowLeft.mouseover" end="arrowLeft.mouseout"/>
                  </use>
                  <path fill="none" stroke="white" stroke-width="1.5" d="M0,-3.0v7 M-2.5,-0.5L0,-3.0L2.5,-0.5"/>
                </g>
        </g>
        <svg viewBox="0 0 15 15" width="100%" height="30px" preserveAspectRatio="xMaxYMin meet">
         <g id="arrow_out" transform="scale(0.3 0.3)">
          <a xlink:href="classklyqa__ctl_1_1account_1_1Account_aca64ae054b0be49da2e7733012961429_icgraph_org.svg" target="_base">
           <rect id="button" ry="5" rx="5" y="6" x="6" height="38" width="38"
                fill="#f2f5e9" fill-opacity="0.5" stroke="#606060" stroke-width="1.0"/>
           <path id="arrow"
             d="M 11.500037,31.436501 C 11.940474,20.09759 22.043105,11.32322 32.158766,21.979434 L 37.068811,17.246167 C 37.068811,17.246167 37.088388,32 37.088388,32 L 22.160133,31.978069 C 22.160133,31.978069 26.997745,27.140456 26.997745,27.140456 C 18.528582,18.264221 13.291696,25.230495 11.500037,31.436501 z"
             style="fill:#404040;"/>
          </a>
         </g>
        </svg>
</svg>
