<?xml version="1.0" encoding="UTF-8" standalone="no"?>
<!DOCTYPE svg PUBLIC "-//W3C//DTD SVG 1.1//EN"
 "http://www.w3.org/Graphics/SVG/1.1/DTD/svg11.dtd">
<!-- Generated by graphviz version 2.43.0 (0)
 -->
<!-- Title: local.data_package.PackageType Pages: 1 -->
<svg width="184pt" height="193pt"
 viewBox="0.00 0.00 184.00 193.00" xmlns="http://www.w3.org/2000/svg" xmlns:xlink="http://www.w3.org/1999/xlink">
<g id="graph0" class="graph" transform="scale(1 1) rotate(0) translate(4 189)">
<title>local.data_package.PackageType</title>
<polygon fill="white" stroke="transparent" points="-4,4 -4,-189 180,-189 180,4 -4,4"/>
<!-- Node1 -->
<g id="node1" class="node">
<title>Node1</title>
<g id="a_node1"><a xlink:title=" ">
<polygon fill="#bfbfbf" stroke="black" points="0,-0.5 0,-57.5 176,-57.5 176,-0.5 0,-0.5"/>
<text text-anchor="middle" x="88" y="-45.5" font-family="Helvetica,sans-Serif" font-size="10.00">local.data_package.PackageType</text>
<polyline fill="none" stroke="black" points="0,-38.5 176,-38.5 "/>
<text text-anchor="middle" x="88" y="-26.5" font-family="Helvetica,sans-Serif" font-size="10.00"> </text>
<polyline fill="none" stroke="black" points="0,-19.5 176,-19.5 "/>
<text text-anchor="middle" x="88" y="-7.5" font-family="Helvetica,sans-Serif" font-size="10.00"> </text>
</a>
</g>
</g>
<!-- Node2 -->
<g id="node2" class="node">
<title>Node2</title>
<g id="a_node2"><a xlink:title=" ">
<polygon fill="white" stroke="#bfbfbf" points="39,-127.5 39,-184.5 83,-184.5 83,-127.5 39,-127.5"/>
<text text-anchor="middle" x="61" y="-172.5" font-family="Helvetica,sans-Serif" font-size="10.00">Enum</text>
<polyline fill="none" stroke="#bfbfbf" points="39,-165.5 83,-165.5 "/>
<text text-anchor="middle" x="61" y="-153.5" font-family="Helvetica,sans-Serif" font-size="10.00"> </text>
<polyline fill="none" stroke="#bfbfbf" points="39,-146.5 83,-146.5 "/>
<text text-anchor="middle" x="61" y="-134.5" font-family="Helvetica,sans-Serif" font-size="10.00"> </text>
</a>
</g>
</g>
<!-- Node2&#45;&gt;Node1 -->
<g id="edge1" class="edge">
<title>Node2&#45;&gt;Node1</title>
<path fill="none" stroke="midnightblue" d="M69.14,-117.32C73.28,-98.13 78.24,-75.21 82.02,-57.66"/>
<polygon fill="none" stroke="midnightblue" points="65.68,-116.74 66.99,-127.26 72.52,-118.22 65.68,-116.74"/>
</g>
<!-- Node3 -->
<g id="node3" class="node">
<title>Node3</title>
<g id="a_node3"><a xlink:title=" ">
<polygon fill="white" stroke="#bfbfbf" points="101.5,-127.5 101.5,-184.5 130.5,-184.5 130.5,-127.5 101.5,-127.5"/>
<text text-anchor="middle" x="116" y="-172.5" font-family="Helvetica,sans-Serif" font-size="10.00">int</text>
<polyline fill="none" stroke="#bfbfbf" points="101.5,-165.5 130.5,-165.5 "/>
<text text-anchor="middle" x="116" y="-153.5" font-family="Helvetica,sans-Serif" font-size="10.00"> </text>
<polyline fill="none" stroke="#bfbfbf" points="101.5,-146.5 130.5,-146.5 "/>
<text text-anchor="middle" x="116" y="-134.5" font-family="Helvetica,sans-Serif" font-size="10.00"> </text>
</a>
</g>
</g>
<!-- Node3&#45;&gt;Node1 -->
<g id="edge2" class="edge">
<title>Node3&#45;&gt;Node1</title>
<path fill="none" stroke="#404040" d="M109.79,-127.26C105.98,-110.27 101.05,-88.25 96.84,-69.46"/>
<polygon fill="none" stroke="#404040" points="96.82,-69.37 91.61,-64.39 94.2,-57.66 99.41,-62.64 96.82,-69.37"/>
<text text-anchor="middle" x="124" y="-101" font-family="Helvetica,sans-Serif" font-size="10.00"> +ENC</text>
<text text-anchor="middle" x="124" y="-90" font-family="Helvetica,sans-Serif" font-size="10.00">+IV</text>
<text text-anchor="middle" x="124" y="-79" font-family="Helvetica,sans-Serif" font-size="10.00">+PLAIN</text>
</g>
</g>
</svg>
