<?xml version="1.0" encoding="UTF-8" standalone="no"?>
<!DOCTYPE svg PUBLIC "-//W3C//DTD SVG 1.1//EN"
 "http://www.w3.org/Graphics/SVG/1.1/DTD/svg11.dtd">
<!-- Generated by graphviz version 2.43.0 (0)
 -->
<!-- Title: klyqa_ctl.devices.light.response_status.ResponseStatus.active_command Pages: 1 -->
<svg width="711pt" height="61pt"
 viewBox="0.00 0.00 711.00 61.00" xmlns="http://www.w3.org/2000/svg" xmlns:xlink="http://www.w3.org/1999/xlink">
<g id="graph0" class="graph" transform="scale(1 1) rotate(0) translate(4 57)">
<title>klyqa_ctl.devices.light.response_status.ResponseStatus.active_command</title>
<polygon fill="white" stroke="transparent" points="-4,4 -4,-57 707,-57 707,4 -4,4"/>
<!-- Node1 -->
<g id="node1" class="node">
<title>Node1</title>
<g id="a_node1"><a xlink:title=" ">
<polygon fill="#bfbfbf" stroke="black" points="483,-22.5 483,-52.5 703,-52.5 703,-22.5 483,-22.5"/>
<text text-anchor="start" x="491" y="-40.5" font-family="Helvetica,sans-Serif" font-size="10.00">klyqa_ctl.devices.light.response</text>
<text text-anchor="middle" x="593" y="-29.5" font-family="Helvetica,sans-Serif" font-size="10.00">_status.ResponseStatus.active_command</text>
</a>
</g>
</g>
<!-- Node2 -->
<g id="node2" class="node">
<title>Node2</title>
<g id="a_node2"><a xlink:href="classklyqa__ctl_1_1devices_1_1vacuum_1_1response__status_1_1ResponseStatus.html#ae51c559746d7c53de2920374a1d8e7df" target="_top" xlink:title=" ">
<polygon fill="white" stroke="black" points="0,-22.5 0,-52.5 191,-52.5 191,-22.5 0,-22.5"/>
<text text-anchor="start" x="8" y="-40.5" font-family="Helvetica,sans-Serif" font-size="10.00">klyqa_ctl.devices.vacuum.response</text>
<text text-anchor="middle" x="95.5" y="-29.5" font-family="Helvetica,sans-Serif" font-size="10.00">_status.ResponseStatus.__init__</text>
</a>
</g>
</g>
<!-- Node1&#45;&gt;Node2 -->
<g id="edge1" class="edge">
<title>Node1&#45;&gt;Node2</title>
<path fill="none" stroke="midnightblue" d="M472.57,-40.17C463.92,-40.3 455.32,-40.41 447,-40.5 349.23,-41.51 324.77,-41.62 227,-40.5 215.44,-40.37 203.31,-40.17 191.29,-39.93"/>
<polygon fill="midnightblue" stroke="midnightblue" points="472.8,-43.66 482.74,-40 472.69,-36.66 472.8,-43.66"/>
</g>
<!-- Node3 -->
<g id="node3" class="node">
<title>Node3</title>
<g id="a_node3"><a xlink:href="classklyqa__ctl_1_1devices_1_1light_1_1response__status_1_1ResponseStatus.html#a42ac42fed01c4bbb025087cbc1801f83" target="_top" xlink:title=" ">
<polygon fill="white" stroke="black" points="227,-0.5 227,-30.5 447,-30.5 447,-0.5 227,-0.5"/>
<text text-anchor="start" x="235" y="-18.5" font-family="Helvetica,sans-Serif" font-size="10.00">klyqa_ctl.devices.light.response</text>
<text text-anchor="middle" x="337" y="-7.5" font-family="Helvetica,sans-Serif" font-size="10.00">_status.ResponseStatus.active_command</text>
</a>
</g>
</g>
<!-- Node1&#45;&gt;Node3 -->
<g id="edge2" class="edge">
<title>Node1&#45;&gt;Node3</title>
<path fill="none" stroke="midnightblue" d="M472.78,-27.17C464.22,-26.43 455.6,-25.69 447.1,-24.95"/>
<polygon fill="midnightblue" stroke="midnightblue" points="472.54,-30.67 482.81,-28.04 473.15,-23.69 472.54,-30.67"/>
</g>
<!-- Node3&#45;&gt;Node2 -->
<g id="edge3" class="edge">
<title>Node3&#45;&gt;Node2</title>
<path fill="none" stroke="midnightblue" d="M216.75,-26.45C208.21,-27.24 199.66,-28.02 191.29,-28.79"/>
<polygon fill="midnightblue" stroke="midnightblue" points="217.12,-29.93 226.76,-25.53 216.48,-22.96 217.12,-29.93"/>
</g>
</g>
</svg>
