<?xml version="1.0" encoding="UTF-8" standalone="no"?>
<!DOCTYPE svg PUBLIC "-//W3C//DTD SVG 1.1//EN"
 "http://www.w3.org/Graphics/SVG/1.1/DTD/svg11.dtd">
<!-- Generated by graphviz version 2.43.0 (0)
 -->
<!-- Title: klyqa_ctl.devices.device.Device.save_device_message Pages: 1 -->
<svg width="835pt" height="137pt"
 viewBox="0.00 0.00 835.00 137.00" xmlns="http://www.w3.org/2000/svg" xmlns:xlink="http://www.w3.org/1999/xlink">
<g id="graph0" class="graph" transform="scale(1 1) rotate(0) translate(4 133)">
<title>klyqa_ctl.devices.device.Device.save_device_message</title>
<polygon fill="white" stroke="transparent" points="-4,4 -4,-133 831,-133 831,4 -4,4"/>
<!-- Node1 -->
<g id="node1" class="node">
<title>Node1</title>
<g id="a_node1"><a xlink:title=" ">
<polygon fill="#bfbfbf" stroke="black" points="0,-49.5 0,-79.5 164,-79.5 164,-49.5 0,-49.5"/>
<text text-anchor="start" x="8" y="-67.5" font-family="Helvetica,sans-Serif" font-size="10.00">klyqa_ctl.devices.device.</text>
<text text-anchor="middle" x="82" y="-56.5" font-family="Helvetica,sans-Serif" font-size="10.00">Device.save_device_message</text>
</a>
</g>
</g>
<!-- Node2 -->
<g id="node2" class="node">
<title>Node2</title>
<g id="a_node2"><a xlink:href="classklyqa__ctl_1_1devices_1_1device_1_1Device.html#a70445a28c25aad39023b0b7304a5c732" target="_top" xlink:title=" ">
<polygon fill="white" stroke="black" points="216.5,-98.5 216.5,-128.5 356.5,-128.5 356.5,-98.5 216.5,-98.5"/>
<text text-anchor="start" x="224.5" y="-116.5" font-family="Helvetica,sans-Serif" font-size="10.00">klyqa_ctl.devices.device.</text>
<text text-anchor="middle" x="286.5" y="-105.5" font-family="Helvetica,sans-Serif" font-size="10.00">Device.ident</text>
</a>
</g>
</g>
<!-- Node1&#45;&gt;Node2 -->
<g id="edge1" class="edge">
<title>Node1&#45;&gt;Node2</title>
<path fill="none" stroke="midnightblue" d="M145.13,-79.53C166.81,-84.78 191.3,-90.71 213.7,-96.13"/>
<polygon fill="midnightblue" stroke="midnightblue" points="212.94,-99.54 223.48,-98.49 214.59,-92.74 212.94,-99.54"/>
</g>
<!-- Node3 -->
<g id="node3" class="node">
<title>Node3</title>
<g id="a_node3"><a xlink:href="classklyqa__ctl_1_1devices_1_1light_1_1response__status_1_1ResponseStatus.html#ab4d647813db11363f0624feeff0ec1cc" target="_top" xlink:title=" ">
<polygon fill="white" stroke="black" points="200,-49.5 200,-79.5 373,-79.5 373,-49.5 200,-49.5"/>
<text text-anchor="start" x="208" y="-67.5" font-family="Helvetica,sans-Serif" font-size="10.00">klyqa_ctl.devices.light.response</text>
<text text-anchor="middle" x="286.5" y="-56.5" font-family="Helvetica,sans-Serif" font-size="10.00">_status.ResponseStatus.status</text>
</a>
</g>
</g>
<!-- Node1&#45;&gt;Node3 -->
<g id="edge2" class="edge">
<title>Node1&#45;&gt;Node3</title>
<path fill="none" stroke="midnightblue" d="M164.2,-64.5C172.66,-64.5 181.32,-64.5 189.92,-64.5"/>
<polygon fill="midnightblue" stroke="midnightblue" points="189.98,-68 199.98,-64.5 189.98,-61 189.98,-68"/>
</g>
<!-- Node4 -->
<g id="node4" class="node">
<title>Node4</title>
<g id="a_node4"><a xlink:href="namespaceklyqa__ctl_1_1general_1_1general.html#a1afe30a73cc28a3b65babeeab27e36c8" target="_top" xlink:title=" ">
<polygon fill="white" stroke="black" points="204.5,-0.5 204.5,-30.5 368.5,-30.5 368.5,-0.5 204.5,-0.5"/>
<text text-anchor="start" x="212.5" y="-18.5" font-family="Helvetica,sans-Serif" font-size="10.00">klyqa_ctl.general.general.task</text>
<text text-anchor="middle" x="286.5" y="-7.5" font-family="Helvetica,sans-Serif" font-size="10.00">_log_debug</text>
</a>
</g>
</g>
<!-- Node1&#45;&gt;Node4 -->
<g id="edge3" class="edge">
<title>Node1&#45;&gt;Node4</title>
<path fill="none" stroke="midnightblue" d="M145.13,-49.47C166.81,-44.22 191.3,-38.29 213.7,-32.87"/>
<polygon fill="midnightblue" stroke="midnightblue" points="214.59,-36.26 223.48,-30.51 212.94,-29.46 214.59,-36.26"/>
</g>
<!-- Node5 -->
<g id="node5" class="node">
<title>Node5</title>
<g id="a_node5"><a xlink:href="namespaceklyqa__ctl_1_1general_1_1general.html#a9df3b50dfc0fcc7c8ec991bb9be9c5ba" target="_top" xlink:title=" ">
<polygon fill="white" stroke="black" points="409,-6 409,-25 594,-25 594,-6 409,-6"/>
<text text-anchor="middle" x="501.5" y="-13" font-family="Helvetica,sans-Serif" font-size="10.00">klyqa_ctl.general.general.task_log</text>
</a>
</g>
</g>
<!-- Node4&#45;&gt;Node5 -->
<g id="edge4" class="edge">
<title>Node4&#45;&gt;Node5</title>
<path fill="none" stroke="midnightblue" d="M368.63,-15.5C378.51,-15.5 388.69,-15.5 398.82,-15.5"/>
<polygon fill="midnightblue" stroke="midnightblue" points="398.91,-19 408.91,-15.5 398.91,-12 398.91,-19"/>
</g>
<!-- Node6 -->
<g id="node6" class="node">
<title>Node6</title>
<g id="a_node6"><a xlink:href="namespaceklyqa__ctl_1_1general_1_1general.html#aea905150cafee39fa2ca211f1e60f012" target="_top" xlink:title=" ">
<polygon fill="white" stroke="black" points="630,-6 630,-25 827,-25 827,-6 630,-6"/>
<text text-anchor="middle" x="728.5" y="-13" font-family="Helvetica,sans-Serif" font-size="10.00">klyqa_ctl.general.general.task_name</text>
</a>
</g>
</g>
<!-- Node5&#45;&gt;Node6 -->
<g id="edge5" class="edge">
<title>Node5&#45;&gt;Node6</title>
<path fill="none" stroke="midnightblue" d="M594.02,-15.5C602.5,-15.5 611.15,-15.5 619.76,-15.5"/>
<polygon fill="midnightblue" stroke="midnightblue" points="619.83,-19 629.83,-15.5 619.83,-12 619.83,-19"/>
</g>
</g>
</svg>
