<?xml version="1.0" encoding="UTF-8" standalone="no"?>
<!DOCTYPE svg PUBLIC "-//W3C//DTD SVG 1.1//EN"
 "http://www.w3.org/Graphics/SVG/1.1/DTD/svg11.dtd">
<!-- Generated by graphviz version 2.43.0 (0)
 -->
<!-- Title: cloud.CloudBackend.get_device_configs Pages: 1 -->
<svg width="1461pt" height="225pt"
 viewBox="0.00 0.00 1461.00 225.00" xmlns="http://www.w3.org/2000/svg" xmlns:xlink="http://www.w3.org/1999/xlink">
<g id="graph0" class="graph" transform="scale(1 1) rotate(0) translate(4 221)">
<title>cloud.CloudBackend.get_device_configs</title>
<polygon fill="white" stroke="transparent" points="-4,4 -4,-221 1457,-221 1457,4 -4,4"/>
<!-- Node1 -->
<g id="node1" class="node">
<title>Node1</title>
<g id="a_node1"><a xlink:title=" ">
<polygon fill="#bfbfbf" stroke="black" points="0,-118.5 0,-148.5 134,-148.5 134,-118.5 0,-118.5"/>
<text text-anchor="start" x="8" y="-136.5" font-family="Helvetica,sans-Serif" font-size="10.00">cloud.CloudBackend.get</text>
<text text-anchor="middle" x="67" y="-125.5" font-family="Helvetica,sans-Serif" font-size="10.00">_device_configs</text>
</a>
</g>
</g>
<!-- Node2 -->
<g id="node2" class="node">
<title>Node2</title>
<g id="a_node2"><a xlink:href="namespaceklyqa__ctl_1_1general_1_1general.html#aa34dc716ff5492dc4f325a2ae1a73a4f" target="_top" xlink:title=" ">
<polygon fill="white" stroke="black" points="427,-186.5 427,-216.5 599,-216.5 599,-186.5 427,-186.5"/>
<text text-anchor="start" x="435" y="-204.5" font-family="Helvetica,sans-Serif" font-size="10.00">klyqa_ctl.general.general.async</text>
<text text-anchor="middle" x="513" y="-193.5" font-family="Helvetica,sans-Serif" font-size="10.00">_json_cache</text>
</a>
</g>
</g>
<!-- Node1&#45;&gt;Node2 -->
<g id="edge1" class="edge">
<title>Node1&#45;&gt;Node2</title>
<path fill="none" stroke="midnightblue" d="M88.2,-148.66C107.9,-162.47 139.31,-181.98 170,-190.5 251.02,-213 346.99,-213.98 416.62,-210.36"/>
<polygon fill="midnightblue" stroke="midnightblue" points="416.91,-213.85 426.69,-209.8 416.51,-206.86 416.91,-213.85"/>
</g>
<!-- Node6 -->
<g id="node6" class="node">
<title>Node6</title>
<g id="a_node6"><a xlink:href="classklyqa__ctl_1_1account_1_1Account.html#a7bcb9ac9804621630ea08a688abecd18" target="_top" xlink:title=" ">
<polygon fill="white" stroke="black" points="170,-162 170,-181 391,-181 391,-162 170,-162"/>
<text text-anchor="middle" x="280.5" y="-169" font-family="Helvetica,sans-Serif" font-size="10.00">klyqa_ctl.account.Account.controller_data</text>
</a>
</g>
</g>
<!-- Node1&#45;&gt;Node6 -->
<g id="edge5" class="edge">
<title>Node1&#45;&gt;Node6</title>
<path fill="none" stroke="midnightblue" d="M134.09,-145.93C146.04,-148.15 158.39,-150.41 170,-152.5 184.19,-155.05 199.44,-157.74 213.9,-160.25"/>
<polygon fill="midnightblue" stroke="midnightblue" points="213.32,-163.7 223.77,-161.97 214.52,-156.81 213.32,-163.7"/>
</g>
<!-- Node7 -->
<g id="node7" class="node">
<title>Node7</title>
<g id="a_node7"><a xlink:href="classcloud_1_1CloudBackend.html#aef174fe1ba95fff13c7901ff56354ec9" target="_top" xlink:title=" ">
<polygon fill="white" stroke="black" points="185,-124 185,-143 376,-143 376,-124 185,-124"/>
<text text-anchor="middle" x="280.5" y="-131" font-family="Helvetica,sans-Serif" font-size="10.00">cloud.CloudBackend.controller_data</text>
</a>
</g>
</g>
<!-- Node1&#45;&gt;Node7 -->
<g id="edge6" class="edge">
<title>Node1&#45;&gt;Node7</title>
<path fill="none" stroke="midnightblue" d="M134.05,-133.5C147.02,-133.5 160.93,-133.5 174.81,-133.5"/>
<polygon fill="midnightblue" stroke="midnightblue" points="174.89,-137 184.89,-133.5 174.89,-130 174.89,-137"/>
</g>
<!-- Node8 -->
<g id="node8" class="node">
<title>Node8</title>
<g id="a_node8"><a xlink:href="classlocal_1_1connection__handler_1_1LocalConnectionHandler.html#a8f938ae53b3c24bbdc02f377671cf263" target="_top" xlink:title=" ">
<polygon fill="white" stroke="black" points="175,-74.5 175,-104.5 386,-104.5 386,-74.5 175,-74.5"/>
<text text-anchor="start" x="183" y="-92.5" font-family="Helvetica,sans-Serif" font-size="10.00">local.connection_handler.</text>
<text text-anchor="middle" x="280.5" y="-81.5" font-family="Helvetica,sans-Serif" font-size="10.00">LocalConnectionHandler.controller_data</text>
</a>
</g>
</g>
<!-- Node1&#45;&gt;Node8 -->
<g id="edge7" class="edge">
<title>Node1&#45;&gt;Node8</title>
<path fill="none" stroke="midnightblue" d="M134.05,-119.76C154.14,-115.58 176.47,-110.94 197.47,-106.56"/>
<polygon fill="midnightblue" stroke="midnightblue" points="198.26,-109.98 207.34,-104.51 196.84,-103.12 198.26,-109.98"/>
</g>
<!-- Node9 -->
<g id="node9" class="node">
<title>Node9</title>
<g id="a_node9"><a xlink:href="classcloud_1_1CloudBackend.html#a58e4bd598358583c0eb7c50fdf0c6bc1" target="_top" xlink:title=" ">
<polygon fill="white" stroke="black" points="213.5,-25.5 213.5,-55.5 347.5,-55.5 347.5,-25.5 213.5,-25.5"/>
<text text-anchor="start" x="221.5" y="-43.5" font-family="Helvetica,sans-Serif" font-size="10.00">cloud.CloudBackend.get</text>
<text text-anchor="middle" x="280.5" y="-32.5" font-family="Helvetica,sans-Serif" font-size="10.00">_device_config</text>
</a>
</g>
</g>
<!-- Node1&#45;&gt;Node9 -->
<g id="edge8" class="edge">
<title>Node1&#45;&gt;Node9</title>
<path fill="none" stroke="midnightblue" d="M85.92,-118.24C105.38,-102.46 137.97,-78.24 170,-64.5 180.51,-59.99 191.97,-56.29 203.39,-53.25"/>
<polygon fill="midnightblue" stroke="midnightblue" points="204.53,-56.58 213.38,-50.76 202.83,-49.79 204.53,-56.58"/>
</g>
<!-- Node3 -->
<g id="node3" class="node">
<title>Node3</title>
<g id="a_node3"><a xlink:href="namespaceklyqa__ctl_1_1general_1_1general.html#ab2f9a22e98cd16d0d284d22382cfcb02" target="_top" xlink:title=" ">
<polygon fill="white" stroke="black" points="835,-98.5 835,-128.5 999,-128.5 999,-98.5 835,-98.5"/>
<text text-anchor="start" x="843" y="-116.5" font-family="Helvetica,sans-Serif" font-size="10.00">klyqa_ctl.general.general.task</text>
<text text-anchor="middle" x="917" y="-105.5" font-family="Helvetica,sans-Serif" font-size="10.00">_log_trace</text>
</a>
</g>
</g>
<!-- Node2&#45;&gt;Node3 -->
<g id="edge2" class="edge">
<title>Node2&#45;&gt;Node3</title>
<path fill="none" stroke="midnightblue" d="M599.24,-202.96C656.77,-201.79 733.81,-196 799,-176.5 830.41,-167.1 863.01,-148.72 885.79,-134.23"/>
<polygon fill="midnightblue" stroke="midnightblue" points="887.84,-137.07 894.32,-128.69 884.03,-131.2 887.84,-137.07"/>
</g>
<!-- Node4 -->
<g id="node4" class="node">
<title>Node4</title>
<g id="a_node4"><a xlink:href="namespaceklyqa__ctl_1_1general_1_1general.html#a9df3b50dfc0fcc7c8ec991bb9be9c5ba" target="_top" xlink:title=" ">
<polygon fill="white" stroke="black" points="1035,-55 1035,-74 1220,-74 1220,-55 1035,-55"/>
<text text-anchor="middle" x="1127.5" y="-62" font-family="Helvetica,sans-Serif" font-size="10.00">klyqa_ctl.general.general.task_log</text>
</a>
</g>
</g>
<!-- Node3&#45;&gt;Node4 -->
<g id="edge3" class="edge">
<title>Node3&#45;&gt;Node4</title>
<path fill="none" stroke="midnightblue" d="M981.97,-98.47C1012.15,-91.37 1047.64,-83.03 1075.9,-76.39"/>
<polygon fill="midnightblue" stroke="midnightblue" points="1077.02,-79.72 1085.96,-74.03 1075.42,-72.91 1077.02,-79.72"/>
</g>
<!-- Node5 -->
<g id="node5" class="node">
<title>Node5</title>
<g id="a_node5"><a xlink:href="namespaceklyqa__ctl_1_1general_1_1general.html#aea905150cafee39fa2ca211f1e60f012" target="_top" xlink:title=" ">
<polygon fill="white" stroke="black" points="1256,-55 1256,-74 1453,-74 1453,-55 1256,-55"/>
<text text-anchor="middle" x="1354.5" y="-62" font-family="Helvetica,sans-Serif" font-size="10.00">klyqa_ctl.general.general.task_name</text>
</a>
</g>
</g>
<!-- Node4&#45;&gt;Node5 -->
<g id="edge4" class="edge">
<title>Node4&#45;&gt;Node5</title>
<path fill="none" stroke="midnightblue" d="M1220.02,-64.5C1228.5,-64.5 1237.15,-64.5 1245.76,-64.5"/>
<polygon fill="midnightblue" stroke="midnightblue" points="1245.83,-68 1255.83,-64.5 1245.83,-61 1245.83,-68"/>
</g>
<!-- Node10 -->
<g id="node10" class="node">
<title>Node10</title>
<g id="a_node10"><a xlink:href="classcloud_1_1CloudBackend.html#a85f7e46764602842576d0a96ca804ea4" target="_top" xlink:title=" ">
<polygon fill="white" stroke="black" points="443.5,-28.5 443.5,-58.5 582.5,-58.5 582.5,-28.5 443.5,-28.5"/>
<text text-anchor="start" x="451.5" y="-46.5" font-family="Helvetica,sans-Serif" font-size="10.00">cloud.CloudBackend.load</text>
<text text-anchor="middle" x="513" y="-35.5" font-family="Helvetica,sans-Serif" font-size="10.00">_http_response</text>
</a>
</g>
</g>
<!-- Node9&#45;&gt;Node10 -->
<g id="edge9" class="edge">
<title>Node9&#45;&gt;Node10</title>
<path fill="none" stroke="midnightblue" d="M347.55,-41.36C374.21,-41.71 405.19,-42.11 433.03,-42.47"/>
<polygon fill="midnightblue" stroke="midnightblue" points="433.08,-45.97 443.13,-42.6 433.18,-38.97 433.08,-45.97"/>
</g>
<!-- Node11 -->
<g id="node11" class="node">
<title>Node11</title>
<g id="a_node11"><a xlink:href="namespaceklyqa__ctl_1_1general_1_1general.html#a1afe30a73cc28a3b65babeeab27e36c8" target="_top" xlink:title=" ">
<polygon fill="white" stroke="black" points="635,-0.5 635,-30.5 799,-30.5 799,-0.5 635,-0.5"/>
<text text-anchor="start" x="643" y="-18.5" font-family="Helvetica,sans-Serif" font-size="10.00">klyqa_ctl.general.general.task</text>
<text text-anchor="middle" x="717" y="-7.5" font-family="Helvetica,sans-Serif" font-size="10.00">_log_debug</text>
</a>
</g>
</g>
<!-- Node9&#45;&gt;Node11 -->
<g id="edge17" class="edge">
<title>Node9&#45;&gt;Node11</title>
<path fill="none" stroke="midnightblue" d="M347.55,-28.52C372.37,-24.54 400.9,-20.6 427,-18.5 493.05,-13.19 567.87,-12.56 624.83,-13.19"/>
<polygon fill="midnightblue" stroke="midnightblue" points="624.85,-16.7 634.89,-13.32 624.94,-9.7 624.85,-16.7"/>
</g>
<!-- Node12 -->
<g id="node12" class="node">
<title>Node12</title>
<g id="a_node12"><a xlink:href="classcloud_1_1CloudBackend.html#a890d2669fa6b9550af8e14a17413aea2" target="_top" xlink:title=" ">
<polygon fill="white" stroke="black" points="435.5,-91 435.5,-110 590.5,-110 590.5,-91 435.5,-91"/>
<text text-anchor="middle" x="513" y="-98" font-family="Helvetica,sans-Serif" font-size="10.00">cloud.CloudBackend.request</text>
</a>
</g>
</g>
<!-- Node9&#45;&gt;Node12 -->
<g id="edge12" class="edge">
<title>Node9&#45;&gt;Node12</title>
<path fill="none" stroke="midnightblue" d="M347.7,-54.19C362.02,-57.38 377.05,-60.9 391,-64.5 418.3,-71.54 448.71,-80.6 472.22,-87.86"/>
<polygon fill="midnightblue" stroke="midnightblue" points="471.25,-91.23 481.84,-90.86 473.33,-84.54 471.25,-91.23"/>
</g>
<!-- Node10&#45;&gt;Node11 -->
<g id="edge10" class="edge">
<title>Node10&#45;&gt;Node11</title>
<path fill="none" stroke="midnightblue" d="M582.67,-33.98C596.2,-32.11 610.59,-30.11 624.73,-28.15"/>
<polygon fill="midnightblue" stroke="midnightblue" points="625.54,-31.57 634.96,-26.73 624.58,-24.64 625.54,-31.57"/>
</g>
<!-- Node11&#45;&gt;Node4 -->
<g id="edge11" class="edge">
<title>Node11&#45;&gt;Node4</title>
<path fill="none" stroke="midnightblue" d="M799.19,-25.24C867.83,-33.47 966.03,-45.25 1036.94,-53.76"/>
<polygon fill="midnightblue" stroke="midnightblue" points="1036.85,-57.27 1047.2,-54.99 1037.68,-50.32 1036.85,-57.27"/>
</g>
<!-- Node13 -->
<g id="node13" class="node">
<title>Node13</title>
<g id="a_node13"><a xlink:href="classcloud_1_1CloudBackend.html#af39d1bfe4ff58db5af7f373b7ca965a0" target="_top" xlink:title=" ">
<polygon fill="white" stroke="black" points="650,-49.5 650,-79.5 784,-79.5 784,-49.5 650,-49.5"/>
<text text-anchor="start" x="658" y="-67.5" font-family="Helvetica,sans-Serif" font-size="10.00">cloud.CloudBackend.get</text>
<text text-anchor="middle" x="717" y="-56.5" font-family="Helvetica,sans-Serif" font-size="10.00">_header_default</text>
</a>
</g>
</g>
<!-- Node12&#45;&gt;Node13 -->
<g id="edge13" class="edge">
<title>Node12&#45;&gt;Node13</title>
<path fill="none" stroke="midnightblue" d="M567.34,-90.99C589.53,-87.04 615.7,-82.38 639.85,-78.07"/>
<polygon fill="midnightblue" stroke="midnightblue" points="640.47,-81.52 649.7,-76.32 639.25,-74.62 640.47,-81.52"/>
</g>
<!-- Node14 -->
<g id="node14" class="node">
<title>Node14</title>
<g id="a_node14"><a xlink:href="classcloud_1_1CloudBackend.html#ac4e934fc6667245f1a6fde13e5ab089e" target="_top" xlink:title=" ">
<polygon fill="white" stroke="black" points="647.5,-148 647.5,-167 786.5,-167 786.5,-148 647.5,-148"/>
<text text-anchor="middle" x="717" y="-155" font-family="Helvetica,sans-Serif" font-size="10.00">cloud.CloudBackend.host</text>
</a>
</g>
</g>
<!-- Node12&#45;&gt;Node14 -->
<g id="edge14" class="edge">
<title>Node12&#45;&gt;Node14</title>
<path fill="none" stroke="midnightblue" d="M543.7,-110.08C568.12,-117.83 603.66,-128.85 635,-137.5 644.84,-140.22 655.41,-142.96 665.55,-145.5"/>
<polygon fill="midnightblue" stroke="midnightblue" points="664.96,-148.96 675.51,-147.96 666.64,-142.16 664.96,-148.96"/>
</g>
<!-- Node15 -->
<g id="node15" class="node">
<title>Node15</title>
<g id="a_node15"><a xlink:href="namespaceklyqa__ctl_1_1general_1_1general.html#ad6b753e482e539892c57f8144cf213cb" target="_top" xlink:title=" ">
<polygon fill="white" stroke="black" points="635,-98.5 635,-128.5 799,-128.5 799,-98.5 635,-98.5"/>
<text text-anchor="start" x="643" y="-116.5" font-family="Helvetica,sans-Serif" font-size="10.00">klyqa_ctl.general.general.task</text>
<text text-anchor="middle" x="717" y="-105.5" font-family="Helvetica,sans-Serif" font-size="10.00">_log_trace_ex</text>
</a>
</g>
</g>
<!-- Node12&#45;&gt;Node15 -->
<g id="edge15" class="edge">
<title>Node12&#45;&gt;Node15</title>
<path fill="none" stroke="midnightblue" d="M590.66,-105.43C601.68,-106.14 613.11,-106.88 624.39,-107.6"/>
<polygon fill="midnightblue" stroke="midnightblue" points="624.48,-111.12 634.69,-108.27 624.93,-104.13 624.48,-111.12"/>
</g>
<!-- Node15&#45;&gt;Node3 -->
<g id="edge16" class="edge">
<title>Node15&#45;&gt;Node3</title>
<path fill="none" stroke="midnightblue" d="M799.11,-113.5C807.46,-113.5 815.99,-113.5 824.44,-113.5"/>
<polygon fill="midnightblue" stroke="midnightblue" points="824.7,-117 834.7,-113.5 824.7,-110 824.7,-117"/>
</g>
</g>
</svg>
