<?xml version="1.0" encoding="UTF-8" standalone="no"?>
<!DOCTYPE svg PUBLIC "-//W3C//DTD SVG 1.1//EN"
 "http://www.w3.org/Graphics/SVG/1.1/DTD/svg11.dtd">
<!-- Generated by graphviz version 2.43.0 (0)
 -->
<!-- Title: klyqa_ctl.account.Account.cloud Pages: 1 -->
<!--zoomable 757 -->
<svg id="main" version="1.1" xmlns="http://www.w3.org/2000/svg" xmlns:xlink="http://www.w3.org/1999/xlink" xml:space="preserve" onload="init(evt)">
<style type="text/css"><![CDATA[
.edge:hover path { stroke: red; }
.edge:hover polygon { stroke: red; fill: red; }
]]></style>
<script type="text/javascript"><![CDATA[
var edges = document.getElementsByTagName('g');
if (edges && edges.length) {
  for (var i=0;i<edges.length;i++) {
    if (edges[i].id.substr(0,4)=='edge') {
      edges[i].setAttribute('class','edge');
    }
  }
}
]]></script>
        <defs>
                <circle id="rim" cx="0" cy="0" r="7"/>
                <circle id="rim2" cx="0" cy="0" r="3.5"/>
                <g id="zoomPlus">
                        <use xlink:href="#rim" fill="#404040">
                                <set attributeName="fill" to="#808080" begin="zoomplus.mouseover" end="zoomplus.mouseout"/>
                        </use>
                        <path d="M-4,0h8M0,-4v8" fill="none" stroke="white" stroke-width="1.5" pointer-events="none"/>
                </g>
                <g id="zoomMin">
                        <use xlink:href="#rim" fill="#404040">
                                <set attributeName="fill" to="#808080" begin="zoomminus.mouseover" end="zoomminus.mouseout"/>
                        </use>
                        <path d="M-4,0h8" fill="none" stroke="white" stroke-width="1.5" pointer-events="none"/>
                </g>
                <g id="dirArrow">
                        <path fill="none" stroke="white" stroke-width="1.5" d="M0,-3.0v7 M-2.5,-0.5L0,-3.0L2.5,-0.5"/>
                </g>
               <g id="resetDef">
                       <use xlink:href="#rim2" fill="#404040">
                               <set attributeName="fill" to="#808080" begin="reset.mouseover" end="reset.mouseout"/>
                       </use>
               </g>
        </defs>

<script type="text/javascript">
var viewWidth = 1487;
var viewHeight = 757;
var sectionId = 'dynsection-8';
</script>
<script xlink:href="svgpan.js"/>
<svg id="graph" class="graph">
<g id="viewport">
<title>klyqa_ctl.account.Account.cloud</title>
<polygon fill="white" stroke="transparent" points="-4,4 -4,-753.26 1483,-753.26 1483,4 -4,4"/>
<!-- Node1 -->
<g id="node1" class="node">
<title>Node1</title>
<g id="a_node1"><a xlink:title=" ">
<polygon fill="#bfbfbf" stroke="black" points="1306,-406.76 1306,-425.76 1479,-425.76 1479,-406.76 1306,-406.76"/>
<text text-anchor="middle" x="1392.5" y="-413.76" font-family="Helvetica,sans-Serif" font-size="10.00">klyqa_ctl.account.Account.cloud</text>
</a>
</g>
</g>
<!-- Node2 -->
<g id="node2" class="node">
<title>Node2</title>
<g id="a_node2"><a xlink:href="classklyqa__ctl_1_1klyqa__ctl_1_1Client.html#ab129f0608f5651109b893aed3671e00e" target="_top" xlink:title=" ">
<polygon fill="white" stroke="black" points="883.5,-576.26 883.5,-606.26 1044.5,-606.26 1044.5,-576.26 883.5,-576.26"/>
<text text-anchor="start" x="891.5" y="-594.26" font-family="Helvetica,sans-Serif" font-size="10.00">klyqa_ctl.klyqa_ctl.Client.add</text>
<text text-anchor="middle" x="964" y="-583.26" font-family="Helvetica,sans-Serif" font-size="10.00">_account</text>
</a>
</g>
</g>
<!-- Node1&#45;&gt;Node2 -->
<g id="edge1" class="edge">
<title>Node1&#45;&gt;Node2</title>
<path fill="none" stroke="midnightblue" d="M1374.75,-432.77C1352.58,-453.71 1311.45,-489.6 1270,-510.26 1197.92,-546.19 1108.05,-567.56 1044.59,-579.25"/>
<polygon fill="midnightblue" stroke="midnightblue" points="1377.23,-435.23 1382.02,-425.78 1372.38,-430.18 1377.23,-435.23"/>
</g>
<!-- Node3 -->
<g id="node3" class="node">
<title>Node3</title>
<g id="a_node3"><a xlink:href="classklyqa__ctl_1_1account_1_1Account.html#a19bd2d6d0ae6a4e738c4d40453557606" target="_top" xlink:title=" ">
<polygon fill="white" stroke="black" points="870,-44.26 870,-74.26 1058,-74.26 1058,-44.26 870,-44.26"/>
<text text-anchor="start" x="878" y="-62.26" font-family="Helvetica,sans-Serif" font-size="10.00">klyqa_ctl.account.Account.backend</text>
<text text-anchor="middle" x="964" y="-51.26" font-family="Helvetica,sans-Serif" font-size="10.00">_connected</text>
</a>
</g>
</g>
<!-- Node1&#45;&gt;Node3 -->
<g id="edge2" class="edge">
<title>Node1&#45;&gt;Node3</title>
<path fill="none" stroke="midnightblue" d="M1390.06,-396.51C1384.91,-341.56 1362.46,-186.07 1270,-111.26 1210.91,-63.45 1123.96,-52.61 1058,-52.47"/>
<polygon fill="midnightblue" stroke="midnightblue" points="1386.58,-396.97 1390.91,-406.64 1393.56,-396.38 1386.58,-396.97"/>
</g>
<!-- Node4 -->
<g id="node4" class="node">
<title>Node4</title>
<g id="a_node4"><a xlink:href="classklyqa__ctl_1_1account_1_1Account.html#aa78870d05cc7fa5899d61733d124e885" target="_top" xlink:title=" ">
<polygon fill="white" stroke="black" points="209.5,-237.26 209.5,-267.26 388.5,-267.26 388.5,-237.26 209.5,-237.26"/>
<text text-anchor="start" x="217.5" y="-255.26" font-family="Helvetica,sans-Serif" font-size="10.00">klyqa_ctl.account.Account.device</text>
<text text-anchor="middle" x="299" y="-244.26" font-family="Helvetica,sans-Serif" font-size="10.00">_request_and_print</text>
</a>
</g>
</g>
<!-- Node1&#45;&gt;Node4 -->
<g id="edge30" class="edge">
<title>Node1&#45;&gt;Node4</title>
<path fill="none" stroke="midnightblue" d="M1391.74,-396.57C1391.32,-334.26 1380.8,-140.28 1270,-50.26 1164.1,35.77 1101.45,-15.26 965,-15.26 965,-15.26 965,-15.26 738,-15.26 595.5,-15.26 546.88,-16.21 427,-93.26 368.45,-130.9 324.81,-204.77 307.8,-236.82"/>
<polygon fill="midnightblue" stroke="midnightblue" points="1388.24,-396.61 1391.72,-406.61 1395.24,-396.62 1388.24,-396.61"/>
</g>
<!-- Node5 -->
<g id="node5" class="node">
<title>Node5</title>
<g id="a_node5"><a xlink:href="classklyqa__ctl_1_1account_1_1Account.html#a0b171a600e4342d035ad26c39b384b38" target="_top" xlink:title=" ">
<polygon fill="white" stroke="black" points="0,-493.76 0,-512.76 171,-512.76 171,-493.76 0,-493.76"/>
<text text-anchor="middle" x="85.5" y="-500.76" font-family="Helvetica,sans-Serif" font-size="10.00">klyqa_ctl.account.Account.login</text>
</a>
</g>
</g>
<!-- Node1&#45;&gt;Node5 -->
<g id="edge32" class="edge">
<title>Node1&#45;&gt;Node5</title>
<path fill="none" stroke="midnightblue" d="M1386.44,-435.93C1374.15,-479.9 1338.52,-586.86 1270,-645.26 1161,-738.16 1108.22,-749.26 965,-749.26 965,-749.26 965,-749.26 518,-749.26 323.55,-749.26 136.86,-558.39 95.13,-512.91"/>
<polygon fill="midnightblue" stroke="midnightblue" points="1389.85,-436.75 1389.07,-426.18 1383.09,-434.92 1389.85,-436.75"/>
</g>
<!-- Node6 -->
<g id="node6" class="node">
<title>Node6</title>
<g id="a_node6"><a xlink:href="classklyqa__ctl_1_1account_1_1Account.html#aca64ae054b0be49da2e7733012961429" target="_top" xlink:title=" ">
<polygon fill="white" stroke="black" points="1097,-324.76 1097,-343.76 1270,-343.76 1270,-324.76 1097,-324.76"/>
<text text-anchor="middle" x="1183.5" y="-331.76" font-family="Helvetica,sans-Serif" font-size="10.00">klyqa_ctl.account.Account.cloud</text>
</a>
</g>
</g>
<!-- Node1&#45;&gt;Node6 -->
<g id="edge5" class="edge">
<title>Node1&#45;&gt;Node6</title>
<path fill="none" stroke="midnightblue" d="M1357.85,-402.94C1315.93,-386.33 1245.33,-358.36 1208.5,-343.77"/>
<polygon fill="midnightblue" stroke="midnightblue" points="1356.76,-406.27 1367.35,-406.7 1359.34,-399.76 1356.76,-406.27"/>
</g>
<!-- Node7 -->
<g id="node7" class="node">
<title>Node7</title>
<g id="a_node7"><a xlink:href="classklyqa__ctl_1_1account_1_1Account.html#ad608e3ee0ba1199f509e644a11081724" target="_top" xlink:title=" ">
<polygon fill="white" stroke="black" points="882.5,-401.26 882.5,-431.26 1045.5,-431.26 1045.5,-401.26 882.5,-401.26"/>
<text text-anchor="start" x="890.5" y="-419.26" font-family="Helvetica,sans-Serif" font-size="10.00">klyqa_ctl.account.Account.get</text>
<text text-anchor="middle" x="964" y="-408.26" font-family="Helvetica,sans-Serif" font-size="10.00">_beared_request_header</text>
</a>
</g>
</g>
<!-- Node1&#45;&gt;Node7 -->
<g id="edge31" class="edge">
<title>Node1&#45;&gt;Node7</title>
<path fill="none" stroke="midnightblue" d="M1295.54,-416.26C1220.28,-416.26 1116.73,-416.26 1045.7,-416.26"/>
<polygon fill="midnightblue" stroke="midnightblue" points="1295.96,-419.76 1305.96,-416.26 1295.96,-412.76 1295.96,-419.76"/>
</g>
<!-- Node8 -->
<g id="node8" class="node">
<title>Node8</title>
<g id="a_node8"><a xlink:href="classklyqa__ctl_1_1account_1_1Account.html#a73506bd234f8e819e138c2bd663179b8" target="_top" xlink:title=" ">
<polygon fill="white" stroke="black" points="647,-412.26 647,-442.26 831,-442.26 831,-412.26 647,-412.26"/>
<text text-anchor="start" x="655" y="-430.26" font-family="Helvetica,sans-Serif" font-size="10.00">klyqa_ctl.account.Account.request</text>
<text text-anchor="middle" x="739" y="-419.26" font-family="Helvetica,sans-Serif" font-size="10.00">_beared</text>
</a>
</g>
</g>
<!-- Node1&#45;&gt;Node8 -->
<g id="edge35" class="edge">
<title>Node1&#45;&gt;Node8</title>
<path fill="none" stroke="midnightblue" d="M1305.47,-426.85C1293.57,-428.12 1281.49,-429.3 1270,-430.26 1091.45,-445.24 1045.91,-451.1 867,-441.26 855.37,-440.63 843.17,-439.66 831.12,-438.53"/>
<polygon fill="midnightblue" stroke="midnightblue" points="1305.85,-430.33 1315.42,-425.77 1305.1,-423.37 1305.85,-430.33"/>
</g>
<!-- Node12 -->
<g id="node12" class="node">
<title>Node12</title>
<g id="a_node12"><a xlink:href="classklyqa__ctl_1_1account_1_1Account.html#af101070a97d556e95978748475933f72" target="_top" xlink:title=" ">
<polygon fill="white" stroke="black" points="428.5,-510.26 428.5,-540.26 609.5,-540.26 609.5,-510.26 428.5,-510.26"/>
<text text-anchor="start" x="436.5" y="-528.26" font-family="Helvetica,sans-Serif" font-size="10.00">klyqa_ctl.account.Account.update</text>
<text text-anchor="middle" x="519" y="-517.26" font-family="Helvetica,sans-Serif" font-size="10.00">_account_settings</text>
</a>
</g>
</g>
<!-- Node1&#45;&gt;Node12 -->
<g id="edge39" class="edge">
<title>Node1&#45;&gt;Node12</title>
<path fill="none" stroke="midnightblue" d="M1380.05,-434.52C1360.85,-463.68 1319.35,-520.67 1270,-552.26 1188.18,-604.64 1157.08,-601.88 1061,-616.26 872.38,-644.5 647.82,-572.88 558.96,-540.35"/>
<polygon fill="midnightblue" stroke="midnightblue" points="1383.21,-436.08 1385.69,-425.78 1377.33,-432.29 1383.21,-436.08"/>
</g>
<!-- Node13 -->
<g id="node13" class="node">
<title>Node13</title>
<g id="a_node13"><a xlink:href="classklyqa__ctl_1_1account_1_1Account.html#aeca1011f6c6e2f6bcdb2136ef48bc7fd" target="_top" xlink:title=" ">
<polygon fill="white" stroke="black" points="207,-510.26 207,-540.26 391,-540.26 391,-510.26 207,-510.26"/>
<text text-anchor="start" x="215" y="-528.26" font-family="Helvetica,sans-Serif" font-size="10.00">klyqa_ctl.account.Account.request</text>
<text text-anchor="middle" x="299" y="-517.26" font-family="Helvetica,sans-Serif" font-size="10.00">_account_settings_eco</text>
</a>
</g>
</g>
<!-- Node1&#45;&gt;Node13 -->
<g id="edge34" class="edge">
<title>Node1&#45;&gt;Node13</title>
<path fill="none" stroke="midnightblue" d="M1384.03,-435.38C1368.6,-472.29 1329.58,-553.41 1270,-595.26 1155.51,-675.7 1104.92,-673.26 965,-673.26 965,-673.26 965,-673.26 738,-673.26 573.77,-673.26 548.42,-593.04 391,-546.26 384.01,-544.19 376.66,-542.19 369.3,-540.31"/>
<polygon fill="midnightblue" stroke="midnightblue" points="1387.39,-436.41 1387.91,-425.83 1380.91,-433.78 1387.39,-436.41"/>
</g>
<!-- Node15 -->
<g id="node15" class="node">
<title>Node15</title>
<g id="a_node15"><a xlink:href="classklyqa__ctl_1_1account_1_1Account.html#acbc09f2b1b4cb6b7ed771b96ea79613b" target="_top" xlink:title=" ">
<polygon fill="white" stroke="black" points="871,-527.26 871,-557.26 1057,-557.26 1057,-527.26 871,-527.26"/>
<text text-anchor="start" x="879" y="-545.26" font-family="Helvetica,sans-Serif" font-size="10.00">klyqa_ctl.account.Account.perform</text>
<text text-anchor="middle" x="964" y="-534.26" font-family="Helvetica,sans-Serif" font-size="10.00">_login</text>
</a>
</g>
</g>
<!-- Node1&#45;&gt;Node15 -->
<g id="edge33" class="edge">
<title>Node1&#45;&gt;Node15</title>
<path fill="none" stroke="midnightblue" d="M1365.85,-430.61C1341.74,-443.58 1304.33,-462.41 1270,-474.26 1200.26,-498.34 1118.54,-516.03 1057.25,-527.32"/>
<polygon fill="midnightblue" stroke="midnightblue" points="1367.61,-433.64 1374.71,-425.78 1364.26,-427.49 1367.61,-433.64"/>
</g>
<!-- Node16 -->
<g id="node16" class="node">
<title>Node16</title>
<g id="a_node16"><a xlink:href="classklyqa__ctl_1_1account_1_1Account.html#a6f7d45c2ee71e0c761145bea5084dda6" target="_top" xlink:title=" ">
<polygon fill="white" stroke="black" points="872,-199.26 872,-229.26 1056,-229.26 1056,-199.26 872,-199.26"/>
<text text-anchor="start" x="880" y="-217.26" font-family="Helvetica,sans-Serif" font-size="10.00">klyqa_ctl.account.Account.request</text>
<text text-anchor="middle" x="964" y="-206.26" font-family="Helvetica,sans-Serif" font-size="10.00">_device_configs_from_acc_sets</text>
</a>
</g>
</g>
<!-- Node1&#45;&gt;Node16 -->
<g id="edge36" class="edge">
<title>Node1&#45;&gt;Node16</title>
<path fill="none" stroke="midnightblue" d="M1375.12,-399.21C1353.07,-377.11 1311.78,-338.66 1270,-315.26 1226.26,-290.77 1093.58,-250.88 1018.41,-229.29"/>
<polygon fill="midnightblue" stroke="midnightblue" points="1372.83,-401.87 1382.34,-406.55 1377.82,-396.96 1372.83,-401.87"/>
</g>
<!-- Node18 -->
<g id="node18" class="node">
<title>Node18</title>
<g id="a_node18"><a xlink:href="classklyqa__ctl_1_1klyqa__ctl_1_1Client.html#ad5c42cd8dd34ed1d6329040e164bfc2e" target="_top" xlink:title=" ">
<polygon fill="white" stroke="black" points="881,-93.26 881,-123.26 1047,-123.26 1047,-93.26 881,-93.26"/>
<text text-anchor="start" x="889" y="-111.26" font-family="Helvetica,sans-Serif" font-size="10.00">klyqa_ctl.klyqa_ctl.Client.send</text>
<text text-anchor="middle" x="964" y="-100.26" font-family="Helvetica,sans-Serif" font-size="10.00">_to_devices</text>
</a>
</g>
</g>
<!-- Node1&#45;&gt;Node18 -->
<g id="edge37" class="edge">
<title>Node1&#45;&gt;Node18</title>
<path fill="none" stroke="midnightblue" d="M1387.25,-396.44C1376.39,-350.71 1343.11,-237.43 1270,-180.26 1206.24,-130.42 1113.6,-114.19 1047.17,-109.34"/>
<polygon fill="midnightblue" stroke="midnightblue" points="1383.87,-397.32 1389.49,-406.3 1390.69,-395.77 1383.87,-397.32"/>
</g>
<!-- Node20 -->
<g id="node20" class="node">
<title>Node20</title>
<g id="a_node20"><a xlink:href="classklyqa__ctl_1_1account_1_1Account.html#af0e05ae15ad46c4b1b3bbb69b6bb7151" target="_top" xlink:title=" ">
<polygon fill="white" stroke="black" points="867,-160.76 867,-179.76 1061,-179.76 1061,-160.76 867,-160.76"/>
<text text-anchor="middle" x="964" y="-167.76" font-family="Helvetica,sans-Serif" font-size="10.00">klyqa_ctl.account.Account.shutdown</text>
</a>
</g>
</g>
<!-- Node1&#45;&gt;Node20 -->
<g id="edge38" class="edge">
<title>Node1&#45;&gt;Node20</title>
<path fill="none" stroke="midnightblue" d="M1382.9,-397.12C1366.26,-362.27 1326.26,-288.46 1270,-249.26 1208.4,-206.35 1125.18,-186.74 1061.23,-177.79"/>
<polygon fill="midnightblue" stroke="midnightblue" points="1379.92,-399.01 1387.31,-406.61 1386.27,-396.06 1379.92,-399.01"/>
</g>
<!-- Node3&#45;&gt;Node4 -->
<g id="edge3" class="edge">
<title>Node3&#45;&gt;Node4</title>
<path fill="none" stroke="midnightblue" d="M859.57,-57.38C797.05,-58.62 716.3,-64.5 647,-83.26 517,-118.48 377.22,-202.58 323.17,-237.09"/>
<polygon fill="midnightblue" stroke="midnightblue" points="859.9,-60.87 869.84,-57.21 859.79,-53.88 859.9,-60.87"/>
</g>
<!-- Node4&#45;&gt;Node5 -->
<g id="edge4" class="edge">
<title>Node4&#45;&gt;Node5</title>
<path fill="none" stroke="midnightblue" d="M222.71,-271.81C217.1,-274.82 211.78,-278.28 207,-282.26 134.17,-342.99 98.23,-459.56 88.97,-493.67"/>
<polygon fill="midnightblue" stroke="midnightblue" points="224.25,-274.96 231.73,-267.46 221.2,-268.66 224.25,-274.96"/>
</g>
<!-- Node6&#45;&gt;Node2 -->
<g id="edge6" class="edge">
<title>Node6&#45;&gt;Node2</title>
<path fill="none" stroke="midnightblue" d="M1178.05,-354.07C1166.83,-399.27 1133,-510.51 1061,-567.26 1056.01,-571.2 1050.45,-574.5 1044.6,-577.26"/>
<polygon fill="midnightblue" stroke="midnightblue" points="1181.52,-354.61 1180.43,-344.07 1174.71,-352.99 1181.52,-354.61"/>
</g>
<!-- Node6&#45;&gt;Node3 -->
<g id="edge7" class="edge">
<title>Node6&#45;&gt;Node3</title>
<path fill="none" stroke="midnightblue" d="M1178.94,-314.89C1169.19,-267.56 1137.52,-145.46 1061,-83.26 1056.73,-79.8 1052.03,-76.82 1047.08,-74.27"/>
<polygon fill="midnightblue" stroke="midnightblue" points="1175.51,-315.61 1180.87,-324.76 1182.38,-314.27 1175.51,-315.61"/>
</g>
<!-- Node6&#45;&gt;Node4 -->
<g id="edge8" class="edge">
<title>Node6&#45;&gt;Node4</title>
<path fill="none" stroke="midnightblue" d="M1150.13,-320.81C1134.11,-314.11 1114.5,-305.84 1097,-298.26 1080.93,-291.31 1078.05,-286.24 1061,-282.26 935.69,-253.08 561.07,-250.93 388.64,-251.58"/>
<polygon fill="midnightblue" stroke="midnightblue" points="1149.01,-324.14 1159.59,-324.76 1151.71,-317.68 1149.01,-324.14"/>
</g>
<!-- Node6&#45;&gt;Node5 -->
<g id="edge18" class="edge">
<title>Node6&#45;&gt;Node5</title>
<path fill="none" stroke="midnightblue" d="M1104.11,-323.45C1015.8,-312.22 867.89,-296.26 740,-296.26 740,-296.26 740,-296.26 518,-296.26 333.13,-296.26 143.66,-452.63 97.24,-493.56"/>
<polygon fill="midnightblue" stroke="midnightblue" points="1103.69,-326.92 1114.05,-324.72 1104.58,-319.98 1103.69,-326.92"/>
</g>
<!-- Node6&#45;&gt;Node7 -->
<g id="edge9" class="edge">
<title>Node6&#45;&gt;Node7</title>
<path fill="none" stroke="midnightblue" d="M1152.27,-348.22C1127.9,-359.22 1092.59,-374.6 1061,-386.26 1046.75,-391.53 1031.1,-396.68 1016.64,-401.18"/>
<polygon fill="midnightblue" stroke="midnightblue" points="1154.03,-351.26 1161.69,-343.94 1151.14,-344.89 1154.03,-351.26"/>
</g>
<!-- Node6&#45;&gt;Node8 -->
<g id="edge22" class="edge">
<title>Node6&#45;&gt;Node8</title>
<path fill="none" stroke="midnightblue" d="M1111.98,-345.42C1047.8,-356 950.6,-373.1 867,-392.26 841.7,-398.07 813.87,-405.6 790.72,-412.2"/>
<polygon fill="midnightblue" stroke="midnightblue" points="1112.69,-348.85 1121.99,-343.78 1111.56,-341.94 1112.69,-348.85"/>
</g>
<!-- Node6&#45;&gt;Node12 -->
<g id="edge29" class="edge">
<title>Node6&#45;&gt;Node12</title>
<path fill="none" stroke="midnightblue" d="M1168.47,-351.73C1147.77,-376.16 1106.54,-419.94 1061,-441.26 913.38,-510.41 720.75,-524.61 609.67,-526.45"/>
<polygon fill="midnightblue" stroke="midnightblue" points="1171.22,-353.89 1174.91,-343.96 1165.83,-349.43 1171.22,-353.89"/>
</g>
<!-- Node6&#45;&gt;Node13 -->
<g id="edge21" class="edge">
<title>Node6&#45;&gt;Node13</title>
<path fill="none" stroke="midnightblue" d="M1086.76,-330.43C894.86,-323.66 477.14,-313.84 427,-354.26 374.64,-396.48 438.14,-453.28 391,-501.26 387.68,-504.64 383.94,-507.57 379.93,-510.09"/>
<polygon fill="midnightblue" stroke="midnightblue" points="1086.72,-333.93 1096.84,-330.79 1086.97,-326.94 1086.72,-333.93"/>
</g>
<!-- Node6&#45;&gt;Node15 -->
<g id="edge19" class="edge">
<title>Node6&#45;&gt;Node15</title>
<path fill="none" stroke="midnightblue" d="M1174.58,-353.52C1158.6,-389.98 1119.02,-469.3 1061,-512.26 1052.72,-518.4 1043.16,-523.29 1033.34,-527.2"/>
<polygon fill="midnightblue" stroke="midnightblue" points="1177.91,-354.62 1178.62,-344.05 1171.47,-351.88 1177.91,-354.62"/>
</g>
<!-- Node6&#45;&gt;Node16 -->
<g id="edge23" class="edge">
<title>Node6&#45;&gt;Node16</title>
<path fill="none" stroke="midnightblue" d="M1131.3,-321.31C1119.22,-316.64 1106.96,-310.43 1097,-302.26 1073.54,-283.03 1084.98,-262.84 1061,-244.26 1053.13,-238.17 1044.01,-233.3 1034.58,-229.42"/>
<polygon fill="midnightblue" stroke="midnightblue" points="1130.32,-324.67 1140.91,-324.73 1132.67,-318.08 1130.32,-324.67"/>
</g>
<!-- Node6&#45;&gt;Node18 -->
<g id="edge25" class="edge">
<title>Node6&#45;&gt;Node18</title>
<path fill="none" stroke="midnightblue" d="M1174.24,-315.09C1157.68,-278.66 1117.14,-198.83 1061,-151.26 1046.93,-139.34 1029.02,-130.13 1012.49,-123.35"/>
<polygon fill="midnightblue" stroke="midnightblue" points="1171.18,-316.82 1178.43,-324.54 1177.57,-313.98 1171.18,-316.82"/>
</g>
<!-- Node6&#45;&gt;Node20 -->
<g id="edge28" class="edge">
<title>Node6&#45;&gt;Node20</title>
<path fill="none" stroke="midnightblue" d="M1163.45,-317.79C1145.19,-301.46 1117.46,-275.2 1097,-249.26 1077.97,-225.15 1086.1,-207.97 1061,-190.26 1054.88,-185.95 1048.02,-182.52 1040.87,-179.81"/>
<polygon fill="midnightblue" stroke="midnightblue" points="1161.3,-320.56 1171.11,-324.56 1165.94,-315.32 1161.3,-320.56"/>
</g>
<!-- Node7&#45;&gt;Node8 -->
<g id="edge10" class="edge">
<title>Node7&#45;&gt;Node8</title>
<path fill="none" stroke="midnightblue" d="M872.27,-420.74C858.78,-421.41 844.87,-422.09 831.37,-422.76"/>
<polygon fill="midnightblue" stroke="midnightblue" points="872.68,-424.22 882.49,-420.24 872.33,-417.23 872.68,-424.22"/>
</g>
<!-- Node9 -->
<g id="node9" class="node">
<title>Node9</title>
<g id="a_node9"><a xlink:href="classklyqa__ctl_1_1account_1_1Account.html#a748c13aed7b2a5c9c605c81234633cb8" target="_top" xlink:title=" ">
<polygon fill="white" stroke="black" points="432.5,-461.26 432.5,-491.26 605.5,-491.26 605.5,-461.26 432.5,-461.26"/>
<text text-anchor="start" x="440.5" y="-479.26" font-family="Helvetica,sans-Serif" font-size="10.00">klyqa_ctl.account.Account.cloud</text>
<text text-anchor="middle" x="519" y="-468.26" font-family="Helvetica,sans-Serif" font-size="10.00">_post_to_device</text>
</a>
</g>
</g>
<!-- Node8&#45;&gt;Node9 -->
<g id="edge11" class="edge">
<title>Node8&#45;&gt;Node9</title>
<path fill="none" stroke="midnightblue" d="M661.22,-444.52C636.93,-449.98 610.29,-455.97 586.76,-461.26"/>
<polygon fill="midnightblue" stroke="midnightblue" points="662.12,-447.91 671.11,-442.3 660.59,-441.08 662.12,-447.91"/>
</g>
<!-- Node11 -->
<g id="node11" class="node">
<title>Node11</title>
<g id="a_node11"><a xlink:href="classklyqa__ctl_1_1account_1_1Account.html#a1450d1baa029967965be433e4efb5a6d" target="_top" xlink:title=" ">
<polygon fill="white" stroke="black" points="427,-412.26 427,-442.26 611,-442.26 611,-412.26 427,-412.26"/>
<text text-anchor="start" x="435" y="-430.26" font-family="Helvetica,sans-Serif" font-size="10.00">klyqa_ctl.account.Account.request</text>
<text text-anchor="middle" x="519" y="-419.26" font-family="Helvetica,sans-Serif" font-size="10.00">_cloud_device_state</text>
</a>
</g>
</g>
<!-- Node8&#45;&gt;Node11 -->
<g id="edge13" class="edge">
<title>Node8&#45;&gt;Node11</title>
<path fill="none" stroke="midnightblue" d="M636.53,-427.26C628.07,-427.26 619.55,-427.26 611.17,-427.26"/>
<polygon fill="midnightblue" stroke="midnightblue" points="636.81,-430.76 646.81,-427.26 636.81,-423.76 636.81,-430.76"/>
</g>
<!-- Node8&#45;&gt;Node12 -->
<g id="edge15" class="edge">
<title>Node8&#45;&gt;Node12</title>
<path fill="none" stroke="midnightblue" d="M707.36,-448.29C682.36,-464.65 645.65,-486.91 611,-501.26 603,-504.58 594.41,-507.55 585.82,-510.18"/>
<polygon fill="midnightblue" stroke="midnightblue" points="709.61,-451 716.01,-442.56 705.74,-445.17 709.61,-451"/>
</g>
<!-- Node14 -->
<g id="node14" class="node">
<title>Node14</title>
<g id="a_node14"><a xlink:href="classklyqa__ctl_1_1account_1_1Account.html#a4fb47c923d3a579054e8cc72480906fb" target="_top" xlink:title=" ">
<polygon fill="white" stroke="black" points="428.5,-363.26 428.5,-393.26 609.5,-393.26 609.5,-363.26 428.5,-363.26"/>
<text text-anchor="start" x="436.5" y="-381.26" font-family="Helvetica,sans-Serif" font-size="10.00">klyqa_ctl.account.Account.update</text>
<text text-anchor="middle" x="519" y="-370.26" font-family="Helvetica,sans-Serif" font-size="10.00">_device_configs</text>
</a>
</g>
</g>
<!-- Node8&#45;&gt;Node14 -->
<g id="edge17" class="edge">
<title>Node8&#45;&gt;Node14</title>
<path fill="none" stroke="midnightblue" d="M661.22,-410.01C636.93,-404.55 610.29,-398.56 586.76,-393.27"/>
<polygon fill="midnightblue" stroke="midnightblue" points="660.59,-413.45 671.11,-412.23 662.12,-406.62 660.59,-413.45"/>
</g>
<!-- Node10 -->
<g id="node10" class="node">
<title>Node10</title>
<g id="a_node10"><a xlink:href="classklyqa__ctl_1_1account_1_1Account.html#a372d813db2141719743dfe088dbe9552" target="_top" xlink:title=" ">
<polygon fill="white" stroke="black" points="212.5,-461.26 212.5,-491.26 385.5,-491.26 385.5,-461.26 212.5,-461.26"/>
<text text-anchor="start" x="220.5" y="-479.26" font-family="Helvetica,sans-Serif" font-size="10.00">klyqa_ctl.account.Account.cloud</text>
<text text-anchor="middle" x="299" y="-468.26" font-family="Helvetica,sans-Serif" font-size="10.00">_post_command_to_dev</text>
</a>
</g>
</g>
<!-- Node9&#45;&gt;Node10 -->
<g id="edge12" class="edge">
<title>Node9&#45;&gt;Node10</title>
<path fill="none" stroke="midnightblue" d="M422.29,-476.26C410.09,-476.26 397.67,-476.26 385.64,-476.26"/>
<polygon fill="midnightblue" stroke="midnightblue" points="422.47,-479.76 432.47,-476.26 422.47,-472.76 422.47,-479.76"/>
</g>
<!-- Node11&#45;&gt;Node4 -->
<g id="edge14" class="edge">
<title>Node11&#45;&gt;Node4</title>
<path fill="none" stroke="midnightblue" d="M435.12,-407.89C432.33,-406.45 429.61,-404.92 427,-403.26 370.28,-367.33 325.97,-297.91 308.31,-267.34"/>
<polygon fill="midnightblue" stroke="midnightblue" points="433.75,-411.11 444.3,-412.12 436.68,-404.75 433.75,-411.11"/>
</g>
<!-- Node12&#45;&gt;Node13 -->
<g id="edge16" class="edge">
<title>Node12&#45;&gt;Node13</title>
<path fill="none" stroke="midnightblue" d="M418.21,-525.26C409.15,-525.26 400.01,-525.26 391.03,-525.26"/>
<polygon fill="midnightblue" stroke="midnightblue" points="418.39,-528.76 428.39,-525.26 418.39,-521.76 418.39,-528.76"/>
</g>
<!-- Node15&#45;&gt;Node5 -->
<g id="edge20" class="edge">
<title>Node15&#45;&gt;Node5</title>
<path fill="none" stroke="midnightblue" d="M860.62,-555.9C714.24,-572.58 437.37,-593.6 207,-550.26 169.04,-543.12 127.7,-524.36 104.65,-512.82"/>
<polygon fill="midnightblue" stroke="midnightblue" points="861.4,-559.34 870.93,-554.71 860.59,-552.38 861.4,-559.34"/>
</g>
<!-- Node17 -->
<g id="node17" class="node">
<title>Node17</title>
<g id="a_node17"><a xlink:href="classklyqa__ctl_1_1account_1_1Account.html#a8e93f6fe918bf32c172447d4ef439d2d" target="_top" xlink:title=" ">
<polygon fill="white" stroke="black" points="654,-199.26 654,-229.26 824,-229.26 824,-199.26 654,-199.26"/>
<text text-anchor="start" x="662" y="-217.26" font-family="Helvetica,sans-Serif" font-size="10.00">klyqa_ctl.account.Account.sync</text>
<text text-anchor="middle" x="739" y="-206.26" font-family="Helvetica,sans-Serif" font-size="10.00">_acc_settings_to_controller</text>
</a>
</g>
</g>
<!-- Node16&#45;&gt;Node17 -->
<g id="edge24" class="edge">
<title>Node16&#45;&gt;Node17</title>
<path fill="none" stroke="midnightblue" d="M861.93,-214.26C849.34,-214.26 836.57,-214.26 824.27,-214.26"/>
<polygon fill="midnightblue" stroke="midnightblue" points="861.98,-217.76 871.98,-214.26 861.98,-210.76 861.98,-217.76"/>
</g>
<!-- Node18&#45;&gt;Node18 -->
<g id="edge26" class="edge">
<title>Node18&#45;&gt;Node18</title>
<path fill="none" stroke="midnightblue" d="M1002.74,-133.72C997.93,-138.44 985.02,-141.76 964,-141.76 929.51,-141.76 916.85,-132.82 926.01,-123.42"/>
<polygon fill="midnightblue" stroke="midnightblue" points="1006.2,-133.14 1001.99,-123.42 999.22,-133.65 1006.2,-133.14"/>
</g>
<!-- Node19 -->
<g id="node19" class="node">
<title>Node19</title>
<g id="a_node19"><a xlink:href="classklyqa__ctl_1_1klyqa__ctl_1_1Client.html#a7a93bda9f242d678a4208d0962837f11" target="_top" xlink:title=" ">
<polygon fill="white" stroke="black" points="656,-93.26 656,-123.26 822,-123.26 822,-93.26 656,-93.26"/>
<text text-anchor="start" x="664" y="-111.26" font-family="Helvetica,sans-Serif" font-size="10.00">klyqa_ctl.klyqa_ctl.Client.send</text>
<text text-anchor="middle" x="739" y="-100.26" font-family="Helvetica,sans-Serif" font-size="10.00">_to_devices_wrapped</text>
</a>
</g>
</g>
<!-- Node18&#45;&gt;Node19 -->
<g id="edge27" class="edge">
<title>Node18&#45;&gt;Node19</title>
<path fill="none" stroke="midnightblue" d="M870.5,-108.26C854.51,-108.26 837.98,-108.26 822.29,-108.26"/>
<polygon fill="midnightblue" stroke="midnightblue" points="870.91,-111.76 880.91,-108.26 870.91,-104.76 870.91,-111.76"/>
</g>
</g>
</svg>
        <g id="navigator" transform="translate(0 0)" fill="#404254">
                <rect fill="#f2f5e9" fill-opacity="0.5" stroke="#606060" stroke-width=".5" x="0" y="0" width="60" height="60"/>
                <use id="zoomplus" xlink:href="#zoomPlus" x="17" y="9" onmousedown="handleZoom(evt,'in')"/>
                <use id="zoomminus" xlink:href="#zoomMin" x="42" y="9" onmousedown="handleZoom(evt,'out')"/>
                <use id="reset" xlink:href="#resetDef" x="30" y="36" onmousedown="handleReset()"/>
                <g id="arrowUp" xlink:href="#dirArrow" transform="translate(30 24)" onmousedown="handlePan(0,-1)">
                  <use xlink:href="#rim" fill="#404040">
                        <set attributeName="fill" to="#808080" begin="arrowUp.mouseover" end="arrowUp.mouseout"/>
                  </use>
                  <path fill="none" stroke="white" stroke-width="1.5" d="M0,-3.0v7 M-2.5,-0.5L0,-3.0L2.5,-0.5"/>
                </g>
                <g id="arrowRight" xlink:href="#dirArrow" transform="rotate(90) translate(36 -43)" onmousedown="handlePan(1,0)">
                  <use xlink:href="#rim" fill="#404040">
                        <set attributeName="fill" to="#808080" begin="arrowRight.mouseover" end="arrowRight.mouseout"/>
                  </use>
                  <path fill="none" stroke="white" stroke-width="1.5" d="M0,-3.0v7 M-2.5,-0.5L0,-3.0L2.5,-0.5"/>
                </g>
                <g id="arrowDown" xlink:href="#dirArrow" transform="rotate(180) translate(-30 -48)" onmousedown="handlePan(0,1)">
                  <use xlink:href="#rim" fill="#404040">
                        <set attributeName="fill" to="#808080" begin="arrowDown.mouseover" end="arrowDown.mouseout"/>
                  </use>
                  <path fill="none" stroke="white" stroke-width="1.5" d="M0,-3.0v7 M-2.5,-0.5L0,-3.0L2.5,-0.5"/>
                </g>
                <g id="arrowLeft" xlink:href="#dirArrow" transform="rotate(270) translate(-36 17)" onmousedown="handlePan(-1,0)">
                  <use xlink:href="#rim" fill="#404040">
                        <set attributeName="fill" to="#808080" begin="arrowLeft.mouseover" end="arrowLeft.mouseout"/>
                  </use>
                  <path fill="none" stroke="white" stroke-width="1.5" d="M0,-3.0v7 M-2.5,-0.5L0,-3.0L2.5,-0.5"/>
                </g>
        </g>
        <svg viewBox="0 0 15 15" width="100%" height="30px" preserveAspectRatio="xMaxYMin meet">
         <g id="arrow_out" transform="scale(0.3 0.3)">
          <a xlink:href="classklyqa__ctl_1_1account_1_1Account_aeb463ade6756bf093a809634f64c6ef6_icgraph_org.svg" target="_base">
           <rect id="button" ry="5" rx="5" y="6" x="6" height="38" width="38"
                fill="#f2f5e9" fill-opacity="0.5" stroke="#606060" stroke-width="1.0"/>
           <path id="arrow"
             d="M 11.500037,31.436501 C 11.940474,20.09759 22.043105,11.32322 32.158766,21.979434 L 37.068811,17.246167 C 37.068811,17.246167 37.088388,32 37.088388,32 L 22.160133,31.978069 C 22.160133,31.978069 26.997745,27.140456 26.997745,27.140456 C 18.528582,18.264221 13.291696,25.230495 11.500037,31.436501 z"
             style="fill:#404040;"/>
          </a>
         </g>
        </svg>
</svg>
