<?xml version="1.0" encoding="UTF-8" standalone="no"?>
<!DOCTYPE svg PUBLIC "-//W3C//DTD SVG 1.1//EN"
 "http://www.w3.org/Graphics/SVG/1.1/DTD/svg11.dtd">
<!-- Generated by graphviz version 2.43.0 (0)
 -->
<!-- Title: cloud.CloudBackend.get_device_config Pages: 1 -->
<svg width="1187pt" height="176pt"
 viewBox="0.00 0.00 1187.00 176.00" xmlns="http://www.w3.org/2000/svg" xmlns:xlink="http://www.w3.org/1999/xlink">
<g id="graph0" class="graph" transform="scale(1 1) rotate(0) translate(4 172)">
<title>cloud.CloudBackend.get_device_config</title>
<polygon fill="white" stroke="transparent" points="-4,4 -4,-172 1183,-172 1183,4 -4,4"/>
<!-- Node1 -->
<g id="node1" class="node">
<title>Node1</title>
<g id="a_node1"><a xlink:title=" ">
<polygon fill="#bfbfbf" stroke="black" points="0,-93.5 0,-123.5 134,-123.5 134,-93.5 0,-93.5"/>
<text text-anchor="start" x="8" y="-111.5" font-family="Helvetica,sans-Serif" font-size="10.00">cloud.CloudBackend.get</text>
<text text-anchor="middle" x="67" y="-100.5" font-family="Helvetica,sans-Serif" font-size="10.00">_device_config</text>
</a>
</g>
</g>
<!-- Node2 -->
<g id="node2" class="node">
<title>Node2</title>
<g id="a_node2"><a xlink:href="classcloud_1_1CloudBackend.html#a85f7e46764602842576d0a96ca804ea4" target="_top" xlink:title=" ">
<polygon fill="white" stroke="black" points="178,-137.5 178,-167.5 317,-167.5 317,-137.5 178,-137.5"/>
<text text-anchor="start" x="186" y="-155.5" font-family="Helvetica,sans-Serif" font-size="10.00">cloud.CloudBackend.load</text>
<text text-anchor="middle" x="247.5" y="-144.5" font-family="Helvetica,sans-Serif" font-size="10.00">_http_response</text>
</a>
</g>
</g>
<!-- Node1&#45;&gt;Node2 -->
<g id="edge1" class="edge">
<title>Node1&#45;&gt;Node2</title>
<path fill="none" stroke="midnightblue" d="M128.93,-123.52C143.93,-127.22 160.11,-131.21 175.54,-135.01"/>
<polygon fill="midnightblue" stroke="midnightblue" points="174.99,-138.48 185.54,-137.47 176.67,-131.68 174.99,-138.48"/>
</g>
<!-- Node3 -->
<g id="node3" class="node">
<title>Node3</title>
<g id="a_node3"><a xlink:href="namespaceklyqa__ctl_1_1general_1_1general.html#a1afe30a73cc28a3b65babeeab27e36c8" target="_top" xlink:title=" ">
<polygon fill="white" stroke="black" points="361,-137.5 361,-167.5 525,-167.5 525,-137.5 361,-137.5"/>
<text text-anchor="start" x="369" y="-155.5" font-family="Helvetica,sans-Serif" font-size="10.00">klyqa_ctl.general.general.task</text>
<text text-anchor="middle" x="443" y="-144.5" font-family="Helvetica,sans-Serif" font-size="10.00">_log_debug</text>
</a>
</g>
</g>
<!-- Node1&#45;&gt;Node3 -->
<g id="edge11" class="edge">
<title>Node1&#45;&gt;Node3</title>
<path fill="none" stroke="midnightblue" d="M134,-111.37C186.06,-114.18 260.41,-119.4 325,-128.5 338.38,-130.39 352.54,-132.87 366.2,-135.52"/>
<polygon fill="midnightblue" stroke="midnightblue" points="365.55,-138.96 376.04,-137.47 366.92,-132.09 365.55,-138.96"/>
</g>
<!-- Node6 -->
<g id="node6" class="node">
<title>Node6</title>
<g id="a_node6"><a xlink:href="classcloud_1_1CloudBackend.html#a890d2669fa6b9550af8e14a17413aea2" target="_top" xlink:title=" ">
<polygon fill="white" stroke="black" points="170,-56 170,-75 325,-75 325,-56 170,-56"/>
<text text-anchor="middle" x="247.5" y="-63" font-family="Helvetica,sans-Serif" font-size="10.00">cloud.CloudBackend.request</text>
</a>
</g>
</g>
<!-- Node1&#45;&gt;Node6 -->
<g id="edge5" class="edge">
<title>Node1&#45;&gt;Node6</title>
<path fill="none" stroke="midnightblue" d="M130.43,-93.46C152.29,-88.2 176.51,-82.36 197.15,-77.39"/>
<polygon fill="midnightblue" stroke="midnightblue" points="198.07,-80.77 206.97,-75.02 196.43,-73.96 198.07,-80.77"/>
</g>
<!-- Node2&#45;&gt;Node3 -->
<g id="edge2" class="edge">
<title>Node2&#45;&gt;Node3</title>
<path fill="none" stroke="midnightblue" d="M317.27,-152.5C328.08,-152.5 339.4,-152.5 350.62,-152.5"/>
<polygon fill="midnightblue" stroke="midnightblue" points="350.89,-156 360.89,-152.5 350.89,-149 350.89,-156"/>
</g>
<!-- Node4 -->
<g id="node4" class="node">
<title>Node4</title>
<g id="a_node4"><a xlink:href="namespaceklyqa__ctl_1_1general_1_1general.html#a9df3b50dfc0fcc7c8ec991bb9be9c5ba" target="_top" xlink:title=" ">
<polygon fill="white" stroke="black" points="761,-74 761,-93 946,-93 946,-74 761,-74"/>
<text text-anchor="middle" x="853.5" y="-81" font-family="Helvetica,sans-Serif" font-size="10.00">klyqa_ctl.general.general.task_log</text>
</a>
</g>
</g>
<!-- Node3&#45;&gt;Node4 -->
<g id="edge3" class="edge">
<title>Node3&#45;&gt;Node4</title>
<path fill="none" stroke="midnightblue" d="M525.19,-138.79C601.59,-125.88 714.62,-106.79 785.87,-94.76"/>
<polygon fill="midnightblue" stroke="midnightblue" points="786.79,-98.15 796.07,-93.03 785.62,-91.25 786.79,-98.15"/>
</g>
<!-- Node5 -->
<g id="node5" class="node">
<title>Node5</title>
<g id="a_node5"><a xlink:href="namespaceklyqa__ctl_1_1general_1_1general.html#aea905150cafee39fa2ca211f1e60f012" target="_top" xlink:title=" ">
<polygon fill="white" stroke="black" points="982,-74 982,-93 1179,-93 1179,-74 982,-74"/>
<text text-anchor="middle" x="1080.5" y="-81" font-family="Helvetica,sans-Serif" font-size="10.00">klyqa_ctl.general.general.task_name</text>
</a>
</g>
</g>
<!-- Node4&#45;&gt;Node5 -->
<g id="edge4" class="edge">
<title>Node4&#45;&gt;Node5</title>
<path fill="none" stroke="midnightblue" d="M946.02,-83.5C954.5,-83.5 963.15,-83.5 971.76,-83.5"/>
<polygon fill="midnightblue" stroke="midnightblue" points="971.83,-87 981.83,-83.5 971.83,-80 971.83,-87"/>
</g>
<!-- Node7 -->
<g id="node7" class="node">
<title>Node7</title>
<g id="a_node7"><a xlink:href="classcloud_1_1CloudBackend.html#af39d1bfe4ff58db5af7f373b7ca965a0" target="_top" xlink:title=" ">
<polygon fill="white" stroke="black" points="376,-88.5 376,-118.5 510,-118.5 510,-88.5 376,-88.5"/>
<text text-anchor="start" x="384" y="-106.5" font-family="Helvetica,sans-Serif" font-size="10.00">cloud.CloudBackend.get</text>
<text text-anchor="middle" x="443" y="-95.5" font-family="Helvetica,sans-Serif" font-size="10.00">_header_default</text>
</a>
</g>
</g>
<!-- Node6&#45;&gt;Node7 -->
<g id="edge6" class="edge">
<title>Node6&#45;&gt;Node7</title>
<path fill="none" stroke="midnightblue" d="M297.33,-75.09C318,-79.15 342.59,-83.98 365.57,-88.49"/>
<polygon fill="midnightblue" stroke="midnightblue" points="365.16,-91.98 375.65,-90.47 366.51,-85.11 365.16,-91.98"/>
</g>
<!-- Node8 -->
<g id="node8" class="node">
<title>Node8</title>
<g id="a_node8"><a xlink:href="classcloud_1_1CloudBackend.html#ac4e934fc6667245f1a6fde13e5ab089e" target="_top" xlink:title=" ">
<polygon fill="white" stroke="black" points="373.5,-50 373.5,-69 512.5,-69 512.5,-50 373.5,-50"/>
<text text-anchor="middle" x="443" y="-57" font-family="Helvetica,sans-Serif" font-size="10.00">cloud.CloudBackend.host</text>
</a>
</g>
</g>
<!-- Node6&#45;&gt;Node8 -->
<g id="edge7" class="edge">
<title>Node6&#45;&gt;Node8</title>
<path fill="none" stroke="midnightblue" d="M325.25,-63.12C337.83,-62.73 350.87,-62.33 363.48,-61.93"/>
<polygon fill="midnightblue" stroke="midnightblue" points="363.6,-65.43 373.49,-61.62 363.39,-58.44 363.6,-65.43"/>
</g>
<!-- Node9 -->
<g id="node9" class="node">
<title>Node9</title>
<g id="a_node9"><a xlink:href="namespaceklyqa__ctl_1_1general_1_1general.html#ad6b753e482e539892c57f8144cf213cb" target="_top" xlink:title=" ">
<polygon fill="white" stroke="black" points="361,-0.5 361,-30.5 525,-30.5 525,-0.5 361,-0.5"/>
<text text-anchor="start" x="369" y="-18.5" font-family="Helvetica,sans-Serif" font-size="10.00">klyqa_ctl.general.general.task</text>
<text text-anchor="middle" x="443" y="-7.5" font-family="Helvetica,sans-Serif" font-size="10.00">_log_trace_ex</text>
</a>
</g>
</g>
<!-- Node6&#45;&gt;Node9 -->
<g id="edge8" class="edge">
<title>Node6&#45;&gt;Node9</title>
<path fill="none" stroke="midnightblue" d="M285.35,-55.98C310.28,-49.54 343.94,-40.84 373.68,-33.15"/>
<polygon fill="midnightblue" stroke="midnightblue" points="374.79,-36.48 383.6,-30.59 373.04,-29.7 374.79,-36.48"/>
</g>
<!-- Node10 -->
<g id="node10" class="node">
<title>Node10</title>
<g id="a_node10"><a xlink:href="namespaceklyqa__ctl_1_1general_1_1general.html#ab2f9a22e98cd16d0d284d22382cfcb02" target="_top" xlink:title=" ">
<polygon fill="white" stroke="black" points="561,-46.5 561,-76.5 725,-76.5 725,-46.5 561,-46.5"/>
<text text-anchor="start" x="569" y="-64.5" font-family="Helvetica,sans-Serif" font-size="10.00">klyqa_ctl.general.general.task</text>
<text text-anchor="middle" x="643" y="-53.5" font-family="Helvetica,sans-Serif" font-size="10.00">_log_trace</text>
</a>
</g>
</g>
<!-- Node9&#45;&gt;Node10 -->
<g id="edge9" class="edge">
<title>Node9&#45;&gt;Node10</title>
<path fill="none" stroke="midnightblue" d="M508.83,-30.56C527.56,-34.91 548.15,-39.7 567.42,-44.17"/>
<polygon fill="midnightblue" stroke="midnightblue" points="566.83,-47.63 577.36,-46.48 568.41,-40.81 566.83,-47.63"/>
</g>
<!-- Node10&#45;&gt;Node4 -->
<g id="edge10" class="edge">
<title>Node10&#45;&gt;Node4</title>
<path fill="none" stroke="midnightblue" d="M725.21,-70.07C734.01,-71 743.05,-71.95 752.05,-72.9"/>
<polygon fill="midnightblue" stroke="midnightblue" points="751.87,-76.4 762.18,-73.97 752.6,-69.44 751.87,-76.4"/>
</g>
</g>
</svg>
