<?xml version="1.0" encoding="UTF-8" standalone="no"?>
<!DOCTYPE svg PUBLIC "-//W3C//DTD SVG 1.1//EN"
 "http://www.w3.org/Graphics/SVG/1.1/DTD/svg11.dtd">
<!-- Generated by graphviz version 2.43.0 (0)
 -->
<!-- Title: klyqa_ctl.devices.light.commands.ExternalSourceProtocol Pages: 1 -->
<svg width="201pt" height="215pt"
 viewBox="0.00 0.00 201.00 215.00" xmlns="http://www.w3.org/2000/svg" xmlns:xlink="http://www.w3.org/1999/xlink">
<g id="graph0" class="graph" transform="scale(1 1) rotate(0) translate(4 211)">
<title>klyqa_ctl.devices.light.commands.ExternalSourceProtocol</title>
<polygon fill="white" stroke="transparent" points="-4,4 -4,-211 197,-211 197,4 -4,4"/>
<!-- Node1 -->
<g id="node1" class="node">
<title>Node1</title>
<g id="a_node1"><a xlink:title=" ">
<polygon fill="#bfbfbf" stroke="black" points="0,-0.5 0,-68.5 186,-68.5 186,-0.5 0,-0.5"/>
<text text-anchor="start" x="8" y="-56.5" font-family="Helvetica,sans-Serif" font-size="10.00">klyqa_ctl.devices.light.commands.</text>
<text text-anchor="middle" x="93" y="-45.5" font-family="Helvetica,sans-Serif" font-size="10.00">ExternalSourceProtocol</text>
<polyline fill="none" stroke="black" points="0,-38.5 186,-38.5 "/>
<text text-anchor="middle" x="93" y="-26.5" font-family="Helvetica,sans-Serif" font-size="10.00"> </text>
<polyline fill="none" stroke="black" points="0,-19.5 186,-19.5 "/>
<text text-anchor="middle" x="93" y="-7.5" font-family="Helvetica,sans-Serif" font-size="10.00"> </text>
</a>
</g>
</g>
<!-- Node2 -->
<g id="node2" class="node">
<title>Node2</title>
<g id="a_node2"><a xlink:href="classstr.html" target="_top" xlink:title=" ">
<polygon fill="white" stroke="black" points="23.5,-149.5 23.5,-206.5 52.5,-206.5 52.5,-149.5 23.5,-149.5"/>
<text text-anchor="middle" x="38" y="-194.5" font-family="Helvetica,sans-Serif" font-size="10.00">str</text>
<polyline fill="none" stroke="black" points="23.5,-187.5 52.5,-187.5 "/>
<text text-anchor="middle" x="38" y="-175.5" font-family="Helvetica,sans-Serif" font-size="10.00"> </text>
<polyline fill="none" stroke="black" points="23.5,-168.5 52.5,-168.5 "/>
<text text-anchor="middle" x="38" y="-156.5" font-family="Helvetica,sans-Serif" font-size="10.00"> </text>
</a>
</g>
</g>
<!-- Node2&#45;&gt;Node1 -->
<g id="edge1" class="edge">
<title>Node2&#45;&gt;Node1</title>
<path fill="none" stroke="midnightblue" d="M52.39,-139.97C61,-117.82 71.85,-89.91 80.17,-68.52"/>
<polygon fill="none" stroke="midnightblue" points="49.1,-138.79 48.74,-149.38 55.62,-141.33 49.1,-138.79"/>
</g>
<!-- Node3 -->
<g id="node3" class="node">
<title>Node3</title>
<g id="a_node3"><a xlink:title=" ">
<polygon fill="white" stroke="#bfbfbf" points="71,-149.5 71,-206.5 115,-206.5 115,-149.5 71,-149.5"/>
<text text-anchor="middle" x="93" y="-194.5" font-family="Helvetica,sans-Serif" font-size="10.00">Enum</text>
<polyline fill="none" stroke="#bfbfbf" points="71,-187.5 115,-187.5 "/>
<text text-anchor="middle" x="93" y="-175.5" font-family="Helvetica,sans-Serif" font-size="10.00"> </text>
<polyline fill="none" stroke="#bfbfbf" points="71,-168.5 115,-168.5 "/>
<text text-anchor="middle" x="93" y="-156.5" font-family="Helvetica,sans-Serif" font-size="10.00"> </text>
</a>
</g>
</g>
<!-- Node3&#45;&gt;Node1 -->
<g id="edge2" class="edge">
<title>Node3&#45;&gt;Node1</title>
<path fill="none" stroke="midnightblue" d="M93,-139.37C93,-117.32 93,-89.72 93,-68.52"/>
<polygon fill="none" stroke="midnightblue" points="89.5,-139.38 93,-149.38 96.5,-139.38 89.5,-139.38"/>
</g>
<!-- Node4 -->
<g id="node4" class="node">
<title>Node4</title>
<g id="a_node4"><a xlink:title=" ">
<polygon fill="white" stroke="#bfbfbf" points="133,-149.5 133,-206.5 177,-206.5 177,-149.5 133,-149.5"/>
<text text-anchor="middle" x="155" y="-194.5" font-family="Helvetica,sans-Serif" font-size="10.00">string</text>
<polyline fill="none" stroke="#bfbfbf" points="133,-187.5 177,-187.5 "/>
<text text-anchor="middle" x="155" y="-175.5" font-family="Helvetica,sans-Serif" font-size="10.00"> </text>
<polyline fill="none" stroke="#bfbfbf" points="133,-168.5 177,-168.5 "/>
<text text-anchor="middle" x="155" y="-156.5" font-family="Helvetica,sans-Serif" font-size="10.00"> </text>
</a>
</g>
</g>
<!-- Node4&#45;&gt;Node1 -->
<g id="edge3" class="edge">
<title>Node4&#45;&gt;Node1</title>
<path fill="none" stroke="#404040" d="M142.9,-149.38C134.22,-129.57 122.34,-102.45 112.35,-79.65"/>
<polygon fill="none" stroke="#404040" points="112.28,-79.51 106.21,-75.62 107.47,-68.52 113.54,-72.41 112.28,-79.51"/>
<text text-anchor="middle" x="163" y="-123" font-family="Helvetica,sans-Serif" font-size="10.00"> +EXT_E131</text>
<text text-anchor="middle" x="163" y="-112" font-family="Helvetica,sans-Serif" font-size="10.00">+EXT_OFF</text>
<text text-anchor="middle" x="163" y="-101" font-family="Helvetica,sans-Serif" font-size="10.00">+EXT_TPM2</text>
<text text-anchor="middle" x="163" y="-90" font-family="Helvetica,sans-Serif" font-size="10.00">+EXT_UDP</text>
</g>
</g>
</svg>
