<?xml version="1.0" encoding="UTF-8" standalone="no"?>
<!DOCTYPE svg PUBLIC "-//W3C//DTD SVG 1.1//EN"
 "http://www.w3.org/Graphics/SVG/1.1/DTD/svg11.dtd">
<!-- Generated by graphviz version 2.43.0 (0)
 -->
<!-- Title: klyqa_ctl.devices.light.response_status.ResponseStatus.sdkversion Pages: 1 -->
<svg width="649pt" height="61pt"
 viewBox="0.00 0.00 649.00 61.00" xmlns="http://www.w3.org/2000/svg" xmlns:xlink="http://www.w3.org/1999/xlink">
<g id="graph0" class="graph" transform="scale(1 1) rotate(0) translate(4 57)">
<title>klyqa_ctl.devices.light.response_status.ResponseStatus.sdkversion</title>
<polygon fill="white" stroke="transparent" points="-4,4 -4,-57 645,-57 645,4 -4,4"/>
<!-- Node1 -->
<g id="node1" class="node">
<title>Node1</title>
<g id="a_node1"><a xlink:title=" ">
<polygon fill="#bfbfbf" stroke="black" points="452,-22.5 452,-52.5 641,-52.5 641,-22.5 452,-22.5"/>
<text text-anchor="start" x="460" y="-40.5" font-family="Helvetica,sans-Serif" font-size="10.00">klyqa_ctl.devices.light.response</text>
<text text-anchor="middle" x="546.5" y="-29.5" font-family="Helvetica,sans-Serif" font-size="10.00">_status.ResponseStatus.sdkversion</text>
</a>
</g>
</g>
<!-- Node2 -->
<g id="node2" class="node">
<title>Node2</title>
<g id="a_node2"><a xlink:href="classklyqa__ctl_1_1devices_1_1vacuum_1_1response__status_1_1ResponseStatus.html#ae51c559746d7c53de2920374a1d8e7df" target="_top" xlink:title=" ">
<polygon fill="white" stroke="black" points="0,-22.5 0,-52.5 191,-52.5 191,-22.5 0,-22.5"/>
<text text-anchor="start" x="8" y="-40.5" font-family="Helvetica,sans-Serif" font-size="10.00">klyqa_ctl.devices.vacuum.response</text>
<text text-anchor="middle" x="95.5" y="-29.5" font-family="Helvetica,sans-Serif" font-size="10.00">_status.ResponseStatus.__init__</text>
</a>
</g>
</g>
<!-- Node1&#45;&gt;Node2 -->
<g id="edge1" class="edge">
<title>Node1&#45;&gt;Node2</title>
<path fill="none" stroke="midnightblue" d="M441.61,-40.12C432.95,-40.27 424.32,-40.4 416,-40.5 332.01,-41.47 310.99,-41.47 227,-40.5 215.44,-40.37 203.31,-40.17 191.29,-39.93"/>
<polygon fill="midnightblue" stroke="midnightblue" points="441.85,-43.61 451.78,-39.93 441.72,-36.62 441.85,-43.61"/>
</g>
<!-- Node3 -->
<g id="node3" class="node">
<title>Node3</title>
<g id="a_node3"><a xlink:href="classklyqa__ctl_1_1devices_1_1light_1_1response__status_1_1ResponseStatus.html#a8dc1603f80a4c97f0df41bda10aa9b76" target="_top" xlink:title=" ">
<polygon fill="white" stroke="black" points="227,-0.5 227,-30.5 416,-30.5 416,-0.5 227,-0.5"/>
<text text-anchor="start" x="235" y="-18.5" font-family="Helvetica,sans-Serif" font-size="10.00">klyqa_ctl.devices.light.response</text>
<text text-anchor="middle" x="321.5" y="-7.5" font-family="Helvetica,sans-Serif" font-size="10.00">_status.ResponseStatus.sdkversion</text>
</a>
</g>
</g>
<!-- Node1&#45;&gt;Node3 -->
<g id="edge2" class="edge">
<title>Node1&#45;&gt;Node3</title>
<path fill="none" stroke="midnightblue" d="M441.89,-27.28C433.33,-26.43 424.7,-25.58 416.22,-24.75"/>
<polygon fill="midnightblue" stroke="midnightblue" points="441.6,-30.77 451.9,-28.27 442.29,-23.8 441.6,-30.77"/>
</g>
<!-- Node3&#45;&gt;Node2 -->
<g id="edge3" class="edge">
<title>Node3&#45;&gt;Node2</title>
<path fill="none" stroke="midnightblue" d="M216.84,-25.68C208.31,-26.52 199.72,-27.36 191.26,-28.19"/>
<polygon fill="midnightblue" stroke="midnightblue" points="217.19,-29.16 226.8,-24.7 216.51,-22.2 217.19,-29.16"/>
</g>
</g>
</svg>
