<?xml version="1.0" encoding="UTF-8" standalone="no"?>
<!DOCTYPE svg PUBLIC "-//W3C//DTD SVG 1.1//EN"
 "http://www.w3.org/Graphics/SVG/1.1/DTD/svg11.dtd">
<!-- Generated by graphviz version 2.43.0 (0)
 -->
<!-- Title: klyqa_ctl.klyqa_ctl.Client.cloud Pages: 1 -->
<!--zoomable 715 -->
<svg id="main" version="1.1" xmlns="http://www.w3.org/2000/svg" xmlns:xlink="http://www.w3.org/1999/xlink" xml:space="preserve" onload="init(evt)">
<style type="text/css"><![CDATA[
.edge:hover path { stroke: red; }
.edge:hover polygon { stroke: red; fill: red; }
]]></style>
<script type="text/javascript"><![CDATA[
var edges = document.getElementsByTagName('g');
if (edges && edges.length) {
  for (var i=0;i<edges.length;i++) {
    if (edges[i].id.substr(0,4)=='edge') {
      edges[i].setAttribute('class','edge');
    }
  }
}
]]></script>
        <defs>
                <circle id="rim" cx="0" cy="0" r="7"/>
                <circle id="rim2" cx="0" cy="0" r="3.5"/>
                <g id="zoomPlus">
                        <use xlink:href="#rim" fill="#404040">
                                <set attributeName="fill" to="#808080" begin="zoomplus.mouseover" end="zoomplus.mouseout"/>
                        </use>
                        <path d="M-4,0h8M0,-4v8" fill="none" stroke="white" stroke-width="1.5" pointer-events="none"/>
                </g>
                <g id="zoomMin">
                        <use xlink:href="#rim" fill="#404040">
                                <set attributeName="fill" to="#808080" begin="zoomminus.mouseover" end="zoomminus.mouseout"/>
                        </use>
                        <path d="M-4,0h8" fill="none" stroke="white" stroke-width="1.5" pointer-events="none"/>
                </g>
                <g id="dirArrow">
                        <path fill="none" stroke="white" stroke-width="1.5" d="M0,-3.0v7 M-2.5,-0.5L0,-3.0L2.5,-0.5"/>
                </g>
               <g id="resetDef">
                       <use xlink:href="#rim2" fill="#404040">
                               <set attributeName="fill" to="#808080" begin="reset.mouseover" end="reset.mouseout"/>
                       </use>
               </g>
        </defs>

<script type="text/javascript">
var viewWidth = 1479;
var viewHeight = 715;
var sectionId = 'dynsection-4';
</script>
<script xlink:href="svgpan.js"/>
<svg id="graph" class="graph">
<g id="viewport">
<title>klyqa_ctl.klyqa_ctl.Client.cloud</title>
<polygon fill="white" stroke="transparent" points="-4,4 -4,-711.39 1475,-711.39 1475,4 -4,4"/>
<!-- Node1 -->
<g id="node1" class="node">
<title>Node1</title>
<g id="a_node1"><a xlink:title=" ">
<polygon fill="#bfbfbf" stroke="black" points="1302,-294.84 1302,-313.84 1471,-313.84 1471,-294.84 1302,-294.84"/>
<text text-anchor="middle" x="1386.5" y="-301.84" font-family="Helvetica,sans-Serif" font-size="10.00">klyqa_ctl.klyqa_ctl.Client.cloud</text>
</a>
</g>
</g>
<!-- Node2 -->
<g id="node2" class="node">
<title>Node2</title>
<g id="a_node2"><a xlink:href="classklyqa__ctl_1_1account_1_1Account.html#a19bd2d6d0ae6a4e738c4d40453557606" target="_top" xlink:title=" ">
<polygon fill="white" stroke="black" points="870,-466.34 870,-496.34 1058,-496.34 1058,-466.34 870,-466.34"/>
<text text-anchor="start" x="878" y="-484.34" font-family="Helvetica,sans-Serif" font-size="10.00">klyqa_ctl.account.Account.backend</text>
<text text-anchor="middle" x="964" y="-473.34" font-family="Helvetica,sans-Serif" font-size="10.00">_connected</text>
</a>
</g>
</g>
<!-- Node1&#45;&gt;Node2 -->
<g id="edge1" class="edge">
<title>Node1&#45;&gt;Node2</title>
<path fill="none" stroke="midnightblue" d="M1357.68,-318.48C1302.22,-346.32 1173.56,-409.19 1061,-451.34 1046.94,-456.6 1031.49,-461.72 1017.17,-466.18"/>
<polygon fill="midnightblue" stroke="midnightblue" points="1359.5,-321.48 1366.85,-313.85 1356.35,-315.23 1359.5,-321.48"/>
</g>
<!-- Node3 -->
<g id="node3" class="node">
<title>Node3</title>
<g id="a_node3"><a xlink:href="classklyqa__ctl_1_1account_1_1Account.html#aa78870d05cc7fa5899d61733d124e885" target="_top" xlink:title=" ">
<polygon fill="white" stroke="black" points="209.5,-422.34 209.5,-452.34 388.5,-452.34 388.5,-422.34 209.5,-422.34"/>
<text text-anchor="start" x="217.5" y="-440.34" font-family="Helvetica,sans-Serif" font-size="10.00">klyqa_ctl.account.Account.device</text>
<text text-anchor="middle" x="299" y="-429.34" font-family="Helvetica,sans-Serif" font-size="10.00">_request_and_print</text>
</a>
</g>
</g>
<!-- Node1&#45;&gt;Node3 -->
<g id="edge28" class="edge">
<title>Node1&#45;&gt;Node3</title>
<path fill="none" stroke="midnightblue" d="M1380.6,-323.74C1368.72,-366.62 1334.24,-469.74 1266,-522.34 1191.63,-579.65 1153.76,-558.82 1061,-573.34 782.3,-616.94 678.69,-730.73 427,-603.34 402.89,-591.13 407.3,-575.89 391,-554.34 363.07,-517.39 329.43,-474.55 311.91,-452.38"/>
<polygon fill="midnightblue" stroke="midnightblue" points="1384,-324.56 1383.19,-313.99 1377.24,-322.76 1384,-324.56"/>
</g>
<!-- Node4 -->
<g id="node4" class="node">
<title>Node4</title>
<g id="a_node4"><a xlink:href="classklyqa__ctl_1_1account_1_1Account.html#a0b171a600e4342d035ad26c39b384b38" target="_top" xlink:title=" ">
<polygon fill="white" stroke="black" points="0,-389.84 0,-408.84 171,-408.84 171,-389.84 0,-389.84"/>
<text text-anchor="middle" x="85.5" y="-396.84" font-family="Helvetica,sans-Serif" font-size="10.00">klyqa_ctl.account.Account.login</text>
</a>
</g>
</g>
<!-- Node1&#45;&gt;Node4 -->
<g id="edge30" class="edge">
<title>Node1&#45;&gt;Node4</title>
<path fill="none" stroke="midnightblue" d="M1383.05,-284.54C1375.71,-234.61 1349.02,-103.35 1266,-44.34 1156.46,33.54 1099.4,-15.34 965,-15.34 965,-15.34 965,-15.34 518,-15.34 285.85,-15.34 120.7,-329.35 91.22,-389.46"/>
<polygon fill="midnightblue" stroke="midnightblue" points="1379.61,-285.22 1384.43,-294.65 1386.54,-284.27 1379.61,-285.22"/>
</g>
<!-- Node5 -->
<g id="node5" class="node">
<title>Node5</title>
<g id="a_node5"><a xlink:href="classklyqa__ctl_1_1klyqa__ctl_1_1Client.html#a74e8c8e307949b86d7d49356ec8cd9b8" target="_top" xlink:title=" ">
<polygon fill="white" stroke="black" points="1097,-332.84 1097,-351.84 1266,-351.84 1266,-332.84 1097,-332.84"/>
<text text-anchor="middle" x="1181.5" y="-339.84" font-family="Helvetica,sans-Serif" font-size="10.00">klyqa_ctl.klyqa_ctl.Client.cloud</text>
</a>
</g>
</g>
<!-- Node1&#45;&gt;Node5 -->
<g id="edge4" class="edge">
<title>Node1&#45;&gt;Node5</title>
<path fill="none" stroke="midnightblue" d="M1324.5,-315.75C1295.46,-321.19 1261.12,-327.62 1233.48,-332.79"/>
<polygon fill="midnightblue" stroke="midnightblue" points="1325.35,-319.16 1334.54,-313.88 1324.06,-312.28 1325.35,-319.16"/>
</g>
<!-- Node6 -->
<g id="node6" class="node">
<title>Node6</title>
<g id="a_node6"><a xlink:href="classklyqa__ctl_1_1account_1_1Account.html#ad608e3ee0ba1199f509e644a11081724" target="_top" xlink:title=" ">
<polygon fill="white" stroke="black" points="882.5,-515.34 882.5,-545.34 1045.5,-545.34 1045.5,-515.34 882.5,-515.34"/>
<text text-anchor="start" x="890.5" y="-533.34" font-family="Helvetica,sans-Serif" font-size="10.00">klyqa_ctl.account.Account.get</text>
<text text-anchor="middle" x="964" y="-522.34" font-family="Helvetica,sans-Serif" font-size="10.00">_beared_request_header</text>
</a>
</g>
</g>
<!-- Node1&#45;&gt;Node6 -->
<g id="edge29" class="edge">
<title>Node1&#45;&gt;Node6</title>
<path fill="none" stroke="midnightblue" d="M1370.39,-321.62C1349.04,-345.24 1307.92,-387.8 1266,-415.34 1182.83,-469.96 1155,-472.69 1061,-505.34 1050.67,-508.92 1039.56,-512.27 1028.69,-515.27"/>
<polygon fill="midnightblue" stroke="midnightblue" points="1373.05,-323.9 1377.09,-314.11 1367.82,-319.24 1373.05,-323.9"/>
</g>
<!-- Node7 -->
<g id="node7" class="node">
<title>Node7</title>
<g id="a_node7"><a xlink:href="classklyqa__ctl_1_1account_1_1Account.html#a73506bd234f8e819e138c2bd663179b8" target="_top" xlink:title=" ">
<polygon fill="white" stroke="black" points="647,-515.34 647,-545.34 831,-545.34 831,-515.34 647,-515.34"/>
<text text-anchor="start" x="655" y="-533.34" font-family="Helvetica,sans-Serif" font-size="10.00">klyqa_ctl.account.Account.request</text>
<text text-anchor="middle" x="739" y="-522.34" font-family="Helvetica,sans-Serif" font-size="10.00">_beared</text>
</a>
</g>
</g>
<!-- Node1&#45;&gt;Node7 -->
<g id="edge33" class="edge">
<title>Node1&#45;&gt;Node7</title>
<path fill="none" stroke="midnightblue" d="M1376.32,-322.97C1359.03,-356.36 1318.59,-426.75 1266,-468.34 1188.5,-529.63 1157.86,-534.84 1061,-554.34 973.34,-571.98 869.87,-558.19 804.59,-545.37"/>
<polygon fill="midnightblue" stroke="midnightblue" points="1379.53,-324.38 1380.93,-313.87 1373.29,-321.21 1379.53,-324.38"/>
</g>
<!-- Node11 -->
<g id="node11" class="node">
<title>Node11</title>
<g id="a_node11"><a xlink:href="classklyqa__ctl_1_1account_1_1Account.html#af101070a97d556e95978748475933f72" target="_top" xlink:title=" ">
<polygon fill="white" stroke="black" points="428.5,-302.34 428.5,-332.34 609.5,-332.34 609.5,-302.34 428.5,-302.34"/>
<text text-anchor="start" x="436.5" y="-320.34" font-family="Helvetica,sans-Serif" font-size="10.00">klyqa_ctl.account.Account.update</text>
<text text-anchor="middle" x="519" y="-309.34" font-family="Helvetica,sans-Serif" font-size="10.00">_account_settings</text>
</a>
</g>
</g>
<!-- Node1&#45;&gt;Node11 -->
<g id="edge37" class="edge">
<title>Node1&#45;&gt;Node11</title>
<path fill="none" stroke="midnightblue" d="M1291.67,-305.74C1123.83,-308.27 774.38,-313.51 609.63,-315.99"/>
<polygon fill="midnightblue" stroke="midnightblue" points="1291.78,-309.24 1301.73,-305.59 1291.67,-302.24 1291.78,-309.24"/>
</g>
<!-- Node12 -->
<g id="node12" class="node">
<title>Node12</title>
<g id="a_node12"><a xlink:href="classklyqa__ctl_1_1account_1_1Account.html#aeca1011f6c6e2f6bcdb2136ef48bc7fd" target="_top" xlink:title=" ">
<polygon fill="white" stroke="black" points="207,-258.34 207,-288.34 391,-288.34 391,-258.34 207,-258.34"/>
<text text-anchor="start" x="215" y="-276.34" font-family="Helvetica,sans-Serif" font-size="10.00">klyqa_ctl.account.Account.request</text>
<text text-anchor="middle" x="299" y="-265.34" font-family="Helvetica,sans-Serif" font-size="10.00">_account_settings_eco</text>
</a>
</g>
</g>
<!-- Node1&#45;&gt;Node12 -->
<g id="edge32" class="edge">
<title>Node1&#45;&gt;Node12</title>
<path fill="none" stroke="midnightblue" d="M1380.23,-285C1367.9,-243.72 1333,-147.02 1266,-101.34 1154.07,-25.02 1100.47,-53.34 965,-53.34 965,-53.34 965,-53.34 738,-53.34 555.05,-53.34 370.46,-208.51 316.03,-258.21"/>
<polygon fill="midnightblue" stroke="midnightblue" points="1376.88,-286.01 1383,-294.66 1383.61,-284.08 1376.88,-286.01"/>
</g>
<!-- Node14 -->
<g id="node14" class="node">
<title>Node14</title>
<g id="a_node14"><a xlink:href="classklyqa__ctl_1_1account_1_1Account.html#acbc09f2b1b4cb6b7ed771b96ea79613b" target="_top" xlink:title=" ">
<polygon fill="white" stroke="black" points="871,-650.34 871,-680.34 1057,-680.34 1057,-650.34 871,-650.34"/>
<text text-anchor="start" x="879" y="-668.34" font-family="Helvetica,sans-Serif" font-size="10.00">klyqa_ctl.account.Account.perform</text>
<text text-anchor="middle" x="964" y="-657.34" font-family="Helvetica,sans-Serif" font-size="10.00">_login</text>
</a>
</g>
</g>
<!-- Node1&#45;&gt;Node14 -->
<g id="edge31" class="edge">
<title>Node1&#45;&gt;Node14</title>
<path fill="none" stroke="midnightblue" d="M1385.15,-324.13C1382.92,-382.73 1367.66,-556.13 1266,-635.34 1207.59,-680.84 1122.21,-685.32 1057.29,-680.16"/>
<polygon fill="midnightblue" stroke="midnightblue" points="1388.65,-324.1 1385.44,-314 1381.65,-323.9 1388.65,-324.1"/>
</g>
<!-- Node15 -->
<g id="node15" class="node">
<title>Node15</title>
<g id="a_node15"><a xlink:href="classklyqa__ctl_1_1account_1_1Account.html#a6f7d45c2ee71e0c761145bea5084dda6" target="_top" xlink:title=" ">
<polygon fill="white" stroke="black" points="872,-188.34 872,-218.34 1056,-218.34 1056,-188.34 872,-188.34"/>
<text text-anchor="start" x="880" y="-206.34" font-family="Helvetica,sans-Serif" font-size="10.00">klyqa_ctl.account.Account.request</text>
<text text-anchor="middle" x="964" y="-195.34" font-family="Helvetica,sans-Serif" font-size="10.00">_device_configs_from_acc_sets</text>
</a>
</g>
</g>
<!-- Node1&#45;&gt;Node15 -->
<g id="edge34" class="edge">
<title>Node1&#45;&gt;Node15</title>
<path fill="none" stroke="midnightblue" d="M1365.31,-288.54C1342.57,-271.7 1303.84,-245.78 1266,-233.34 1197.9,-210.94 1116.85,-203.9 1056.02,-202.2"/>
<polygon fill="midnightblue" stroke="midnightblue" points="1363.39,-291.48 1373.48,-294.71 1367.61,-285.89 1363.39,-291.48"/>
</g>
<!-- Node17 -->
<g id="node17" class="node">
<title>Node17</title>
<g id="a_node17"><a xlink:href="classklyqa__ctl_1_1klyqa__ctl_1_1Client.html#ad5c42cd8dd34ed1d6329040e164bfc2e" target="_top" xlink:title=" ">
<polygon fill="white" stroke="black" points="881,-82.34 881,-112.34 1047,-112.34 1047,-82.34 881,-82.34"/>
<text text-anchor="start" x="889" y="-100.34" font-family="Helvetica,sans-Serif" font-size="10.00">klyqa_ctl.klyqa_ctl.Client.send</text>
<text text-anchor="middle" x="964" y="-89.34" font-family="Helvetica,sans-Serif" font-size="10.00">_to_devices</text>
</a>
</g>
</g>
<!-- Node1&#45;&gt;Node17 -->
<g id="edge35" class="edge">
<title>Node1&#45;&gt;Node17</title>
<path fill="none" stroke="midnightblue" d="M1375.81,-285.33C1358.45,-253.36 1318.87,-189.2 1266,-157.34 1199.37,-117.17 1110.84,-103.3 1047.06,-98.8"/>
<polygon fill="midnightblue" stroke="midnightblue" points="1372.88,-287.29 1380.65,-294.49 1379.07,-284.02 1372.88,-287.29"/>
</g>
<!-- Node19 -->
<g id="node19" class="node">
<title>Node19</title>
<g id="a_node19"><a xlink:href="classklyqa__ctl_1_1account_1_1Account.html#af0e05ae15ad46c4b1b3bbb69b6bb7151" target="_top" xlink:title=" ">
<polygon fill="white" stroke="black" points="867,-149.84 867,-168.84 1061,-168.84 1061,-149.84 867,-149.84"/>
<text text-anchor="middle" x="964" y="-156.84" font-family="Helvetica,sans-Serif" font-size="10.00">klyqa_ctl.account.Account.shutdown</text>
</a>
</g>
</g>
<!-- Node1&#45;&gt;Node19 -->
<g id="edge36" class="edge">
<title>Node1&#45;&gt;Node19</title>
<path fill="none" stroke="midnightblue" d="M1371.13,-286.58C1350.6,-262.57 1310.39,-220.47 1266,-200.34 1201.64,-171.15 1122.19,-161.28 1061.07,-158.51"/>
<polygon fill="midnightblue" stroke="midnightblue" points="1368.68,-289.1 1377.78,-294.53 1374.05,-284.61 1368.68,-289.1"/>
</g>
<!-- Node2&#45;&gt;Node3 -->
<g id="edge2" class="edge">
<title>Node2&#45;&gt;Node3</title>
<path fill="none" stroke="midnightblue" d="M859.47,-473.71C789.36,-468.62 694.61,-461.86 611,-456.34 536.11,-451.39 451.04,-446.22 388.83,-442.53"/>
<polygon fill="midnightblue" stroke="midnightblue" points="859.41,-477.22 869.64,-474.45 859.92,-470.24 859.41,-477.22"/>
</g>
<!-- Node3&#45;&gt;Node4 -->
<g id="edge3" class="edge">
<title>Node3&#45;&gt;Node4</title>
<path fill="none" stroke="midnightblue" d="M204.56,-420.55C182.22,-416.53 159.14,-412.39 139.38,-408.84"/>
<polygon fill="midnightblue" stroke="midnightblue" points="203.95,-423.99 214.41,-422.32 205.19,-417.1 203.95,-423.99"/>
</g>
<!-- Node5&#45;&gt;Node2 -->
<g id="edge5" class="edge">
<title>Node5&#45;&gt;Node2</title>
<path fill="none" stroke="midnightblue" d="M1163.92,-359.16C1136.8,-386.36 1083.72,-438.29 1061,-451.34 1050.55,-457.33 1038.76,-462.28 1027.11,-466.3"/>
<polygon fill="midnightblue" stroke="midnightblue" points="1166.57,-361.45 1171.13,-351.88 1161.61,-356.52 1166.57,-361.45"/>
</g>
<!-- Node5&#45;&gt;Node3 -->
<g id="edge6" class="edge">
<title>Node5&#45;&gt;Node3</title>
<path fill="none" stroke="midnightblue" d="M1119.08,-354.23C1111.59,-356.08 1104.08,-358.12 1097,-360.34 1080.46,-365.52 1077.84,-371.25 1061,-375.34 823.01,-433.08 532.18,-439.77 388.73,-439.02"/>
<polygon fill="midnightblue" stroke="midnightblue" points="1119.96,-357.62 1128.89,-351.92 1118.35,-350.81 1119.96,-357.62"/>
</g>
<!-- Node5&#45;&gt;Node4 -->
<g id="edge16" class="edge">
<title>Node5&#45;&gt;Node4</title>
<path fill="none" stroke="midnightblue" d="M1086.83,-348.72C997.69,-354.24 859.77,-361.34 740,-361.34 740,-361.34 740,-361.34 518,-361.34 388.46,-361.34 237.89,-378.54 153.24,-389.8"/>
<polygon fill="midnightblue" stroke="midnightblue" points="1087.16,-352.21 1096.92,-348.09 1086.72,-345.22 1087.16,-352.21"/>
</g>
<!-- Node5&#45;&gt;Node6 -->
<g id="edge7" class="edge">
<title>Node5&#45;&gt;Node6</title>
<path fill="none" stroke="midnightblue" d="M1171.85,-361.61C1155.39,-396 1116.25,-467.82 1061,-505.34 1055.3,-509.21 1049.04,-512.48 1042.53,-515.24"/>
<polygon fill="midnightblue" stroke="midnightblue" points="1175.17,-362.77 1176.22,-352.22 1168.82,-359.81 1175.17,-362.77"/>
</g>
<!-- Node5&#45;&gt;Node7 -->
<g id="edge20" class="edge">
<title>Node5&#45;&gt;Node7</title>
<path fill="none" stroke="midnightblue" d="M1104.15,-356.09C1101.68,-357.38 1099.28,-358.8 1097,-360.34 1073.39,-376.25 1084.56,-397.35 1061,-413.34 987.92,-462.92 949.25,-424.16 867,-456.34 827.55,-471.77 785.86,-498.3 761.43,-515.05"/>
<polygon fill="midnightblue" stroke="midnightblue" points="1105.74,-359.21 1113.41,-351.91 1102.85,-352.84 1105.74,-359.21"/>
</g>
<!-- Node5&#45;&gt;Node11 -->
<g id="edge27" class="edge">
<title>Node5&#45;&gt;Node11</title>
<path fill="none" stroke="midnightblue" d="M1086.74,-338.79C959.69,-333.98 734.41,-325.45 609.56,-320.73"/>
<polygon fill="midnightblue" stroke="midnightblue" points="1086.72,-342.29 1096.85,-339.17 1086.99,-335.29 1086.72,-342.29"/>
</g>
<!-- Node5&#45;&gt;Node12 -->
<g id="edge19" class="edge">
<title>Node5&#45;&gt;Node12</title>
<path fill="none" stroke="midnightblue" d="M1099.04,-331.59C1086.32,-330.06 1073.31,-328.59 1061,-327.34 819.69,-302.82 534.21,-285.75 391.23,-278.01"/>
<polygon fill="midnightblue" stroke="midnightblue" points="1098.81,-335.09 1109.16,-332.82 1099.65,-328.14 1098.81,-335.09"/>
</g>
<!-- Node5&#45;&gt;Node14 -->
<g id="edge17" class="edge">
<title>Node5&#45;&gt;Node14</title>
<path fill="none" stroke="midnightblue" d="M1171.37,-361.41C1152.79,-399.49 1108.34,-487.06 1061,-554.34 1035.2,-591.01 999.5,-629.72 979.71,-650.33"/>
<polygon fill="midnightblue" stroke="midnightblue" points="1174.7,-362.57 1175.9,-352.04 1168.4,-359.52 1174.7,-362.57"/>
</g>
<!-- Node5&#45;&gt;Node15 -->
<g id="edge21" class="edge">
<title>Node5&#45;&gt;Node15</title>
<path fill="none" stroke="midnightblue" d="M1157.09,-327.23C1115.66,-300.52 1029.93,-245.21 988.46,-218.47"/>
<polygon fill="midnightblue" stroke="midnightblue" points="1155.39,-330.3 1165.69,-332.78 1159.18,-324.42 1155.39,-330.3"/>
</g>
<!-- Node5&#45;&gt;Node17 -->
<g id="edge23" class="edge">
<title>Node5&#45;&gt;Node17</title>
<path fill="none" stroke="midnightblue" d="M1173.71,-323.03C1158.98,-283.7 1120.58,-193.53 1061,-140.34 1047.51,-128.29 1030.1,-119.14 1013.82,-112.43"/>
<polygon fill="midnightblue" stroke="midnightblue" points="1170.45,-324.3 1177.16,-332.5 1177.02,-321.9 1170.45,-324.3"/>
</g>
<!-- Node5&#45;&gt;Node19 -->
<g id="edge26" class="edge">
<title>Node5&#45;&gt;Node19</title>
<path fill="none" stroke="midnightblue" d="M1172.32,-323.11C1156.41,-288.18 1117.78,-214.59 1061,-178.34 1054.99,-174.5 1048.36,-171.4 1041.49,-168.92"/>
<polygon fill="midnightblue" stroke="midnightblue" points="1169.28,-324.89 1176.53,-332.62 1175.69,-322.06 1169.28,-324.89"/>
</g>
<!-- Node6&#45;&gt;Node7 -->
<g id="edge8" class="edge">
<title>Node6&#45;&gt;Node7</title>
<path fill="none" stroke="midnightblue" d="M872.27,-530.34C858.78,-530.34 844.87,-530.34 831.37,-530.34"/>
<polygon fill="midnightblue" stroke="midnightblue" points="872.49,-533.84 882.49,-530.34 872.49,-526.84 872.49,-533.84"/>
</g>
<!-- Node8 -->
<g id="node8" class="node">
<title>Node8</title>
<g id="a_node8"><a xlink:href="classklyqa__ctl_1_1account_1_1Account.html#a748c13aed7b2a5c9c605c81234633cb8" target="_top" xlink:title=" ">
<polygon fill="white" stroke="black" points="432.5,-564.34 432.5,-594.34 605.5,-594.34 605.5,-564.34 432.5,-564.34"/>
<text text-anchor="start" x="440.5" y="-582.34" font-family="Helvetica,sans-Serif" font-size="10.00">klyqa_ctl.account.Account.cloud</text>
<text text-anchor="middle" x="519" y="-571.34" font-family="Helvetica,sans-Serif" font-size="10.00">_post_to_device</text>
</a>
</g>
</g>
<!-- Node7&#45;&gt;Node8 -->
<g id="edge9" class="edge">
<title>Node7&#45;&gt;Node8</title>
<path fill="none" stroke="midnightblue" d="M661.22,-547.59C636.93,-553.05 610.29,-559.04 586.76,-564.33"/>
<polygon fill="midnightblue" stroke="midnightblue" points="662.12,-550.98 671.11,-545.37 660.59,-544.15 662.12,-550.98"/>
</g>
<!-- Node10 -->
<g id="node10" class="node">
<title>Node10</title>
<g id="a_node10"><a xlink:href="classklyqa__ctl_1_1account_1_1Account.html#a1450d1baa029967965be433e4efb5a6d" target="_top" xlink:title=" ">
<polygon fill="white" stroke="black" points="427,-466.34 427,-496.34 611,-496.34 611,-466.34 427,-466.34"/>
<text text-anchor="start" x="435" y="-484.34" font-family="Helvetica,sans-Serif" font-size="10.00">klyqa_ctl.account.Account.request</text>
<text text-anchor="middle" x="519" y="-473.34" font-family="Helvetica,sans-Serif" font-size="10.00">_cloud_device_state</text>
</a>
</g>
</g>
<!-- Node7&#45;&gt;Node10 -->
<g id="edge11" class="edge">
<title>Node7&#45;&gt;Node10</title>
<path fill="none" stroke="midnightblue" d="M661.22,-513.08C636.93,-507.62 610.29,-501.63 586.76,-496.34"/>
<polygon fill="midnightblue" stroke="midnightblue" points="660.59,-516.52 671.11,-515.3 662.12,-509.69 660.59,-516.52"/>
</g>
<!-- Node7&#45;&gt;Node11 -->
<g id="edge13" class="edge">
<title>Node7&#45;&gt;Node11</title>
<path fill="none" stroke="midnightblue" d="M715.15,-508.01C670.65,-464.53 573.41,-369.52 535.54,-332.52"/>
<polygon fill="midnightblue" stroke="midnightblue" points="712.72,-510.53 722.32,-515.02 717.62,-505.53 712.72,-510.53"/>
</g>
<!-- Node13 -->
<g id="node13" class="node">
<title>Node13</title>
<g id="a_node13"><a xlink:href="classklyqa__ctl_1_1account_1_1Account.html#a4fb47c923d3a579054e8cc72480906fb" target="_top" xlink:title=" ">
<polygon fill="white" stroke="black" points="428.5,-515.34 428.5,-545.34 609.5,-545.34 609.5,-515.34 428.5,-515.34"/>
<text text-anchor="start" x="436.5" y="-533.34" font-family="Helvetica,sans-Serif" font-size="10.00">klyqa_ctl.account.Account.update</text>
<text text-anchor="middle" x="519" y="-522.34" font-family="Helvetica,sans-Serif" font-size="10.00">_device_configs</text>
</a>
</g>
</g>
<!-- Node7&#45;&gt;Node13 -->
<g id="edge15" class="edge">
<title>Node7&#45;&gt;Node13</title>
<path fill="none" stroke="midnightblue" d="M636.71,-530.34C627.72,-530.34 618.66,-530.34 609.78,-530.34"/>
<polygon fill="midnightblue" stroke="midnightblue" points="636.81,-533.84 646.81,-530.34 636.81,-526.84 636.81,-533.84"/>
</g>
<!-- Node9 -->
<g id="node9" class="node">
<title>Node9</title>
<g id="a_node9"><a xlink:href="classklyqa__ctl_1_1account_1_1Account.html#a372d813db2141719743dfe088dbe9552" target="_top" xlink:title=" ">
<polygon fill="white" stroke="black" points="212.5,-564.34 212.5,-594.34 385.5,-594.34 385.5,-564.34 212.5,-564.34"/>
<text text-anchor="start" x="220.5" y="-582.34" font-family="Helvetica,sans-Serif" font-size="10.00">klyqa_ctl.account.Account.cloud</text>
<text text-anchor="middle" x="299" y="-571.34" font-family="Helvetica,sans-Serif" font-size="10.00">_post_command_to_dev</text>
</a>
</g>
</g>
<!-- Node8&#45;&gt;Node9 -->
<g id="edge10" class="edge">
<title>Node8&#45;&gt;Node9</title>
<path fill="none" stroke="midnightblue" d="M422.29,-579.34C410.09,-579.34 397.67,-579.34 385.64,-579.34"/>
<polygon fill="midnightblue" stroke="midnightblue" points="422.47,-582.84 432.47,-579.34 422.47,-575.84 422.47,-582.84"/>
</g>
<!-- Node10&#45;&gt;Node3 -->
<g id="edge12" class="edge">
<title>Node10&#45;&gt;Node3</title>
<path fill="none" stroke="midnightblue" d="M433.78,-464.34C414.23,-460.39 393.55,-456.22 374.45,-452.36"/>
<polygon fill="midnightblue" stroke="midnightblue" points="433.09,-467.77 443.59,-466.32 434.48,-460.91 433.09,-467.77"/>
</g>
<!-- Node11&#45;&gt;Node12 -->
<g id="edge14" class="edge">
<title>Node11&#45;&gt;Node12</title>
<path fill="none" stroke="midnightblue" d="M433.78,-300.34C414.23,-296.39 393.55,-292.22 374.45,-288.36"/>
<polygon fill="midnightblue" stroke="midnightblue" points="433.09,-303.77 443.59,-302.32 434.48,-296.91 433.09,-303.77"/>
</g>
<!-- Node14&#45;&gt;Node4 -->
<g id="edge18" class="edge">
<title>Node14&#45;&gt;Node4</title>
<path fill="none" stroke="midnightblue" d="M884.33,-682.2C737.21,-709.07 416.45,-745.18 207,-603.34 133.43,-553.51 98.23,-442.54 89.02,-409.07"/>
<polygon fill="midnightblue" stroke="midnightblue" points="885,-685.63 894.19,-680.36 883.72,-678.75 885,-685.63"/>
</g>
<!-- Node16 -->
<g id="node16" class="node">
<title>Node16</title>
<g id="a_node16"><a xlink:href="classklyqa__ctl_1_1account_1_1Account.html#a8e93f6fe918bf32c172447d4ef439d2d" target="_top" xlink:title=" ">
<polygon fill="white" stroke="black" points="654,-188.34 654,-218.34 824,-218.34 824,-188.34 654,-188.34"/>
<text text-anchor="start" x="662" y="-206.34" font-family="Helvetica,sans-Serif" font-size="10.00">klyqa_ctl.account.Account.sync</text>
<text text-anchor="middle" x="739" y="-195.34" font-family="Helvetica,sans-Serif" font-size="10.00">_acc_settings_to_controller</text>
</a>
</g>
</g>
<!-- Node15&#45;&gt;Node16 -->
<g id="edge22" class="edge">
<title>Node15&#45;&gt;Node16</title>
<path fill="none" stroke="midnightblue" d="M861.93,-203.34C849.34,-203.34 836.57,-203.34 824.27,-203.34"/>
<polygon fill="midnightblue" stroke="midnightblue" points="861.98,-206.84 871.98,-203.34 861.98,-199.84 861.98,-206.84"/>
</g>
<!-- Node17&#45;&gt;Node17 -->
<g id="edge24" class="edge">
<title>Node17&#45;&gt;Node17</title>
<path fill="none" stroke="midnightblue" d="M1002.38,-122.79C997.62,-127.51 984.82,-130.84 964,-130.84 929.83,-130.84 917.28,-121.89 926.36,-112.49"/>
<polygon fill="midnightblue" stroke="midnightblue" points="1005.85,-122.22 1001.64,-112.49 998.87,-122.72 1005.85,-122.22"/>
</g>
<!-- Node18 -->
<g id="node18" class="node">
<title>Node18</title>
<g id="a_node18"><a xlink:href="classklyqa__ctl_1_1klyqa__ctl_1_1Client.html#a7a93bda9f242d678a4208d0962837f11" target="_top" xlink:title=" ">
<polygon fill="white" stroke="black" points="656,-82.34 656,-112.34 822,-112.34 822,-82.34 656,-82.34"/>
<text text-anchor="start" x="664" y="-100.34" font-family="Helvetica,sans-Serif" font-size="10.00">klyqa_ctl.klyqa_ctl.Client.send</text>
<text text-anchor="middle" x="739" y="-89.34" font-family="Helvetica,sans-Serif" font-size="10.00">_to_devices_wrapped</text>
</a>
</g>
</g>
<!-- Node17&#45;&gt;Node18 -->
<g id="edge25" class="edge">
<title>Node17&#45;&gt;Node18</title>
<path fill="none" stroke="midnightblue" d="M870.5,-97.34C854.51,-97.34 837.98,-97.34 822.29,-97.34"/>
<polygon fill="midnightblue" stroke="midnightblue" points="870.91,-100.84 880.91,-97.34 870.91,-93.84 870.91,-100.84"/>
</g>
</g>
</svg>
        <g id="navigator" transform="translate(0 0)" fill="#404254">
                <rect fill="#f2f5e9" fill-opacity="0.5" stroke="#606060" stroke-width=".5" x="0" y="0" width="60" height="60"/>
                <use id="zoomplus" xlink:href="#zoomPlus" x="17" y="9" onmousedown="handleZoom(evt,'in')"/>
                <use id="zoomminus" xlink:href="#zoomMin" x="42" y="9" onmousedown="handleZoom(evt,'out')"/>
                <use id="reset" xlink:href="#resetDef" x="30" y="36" onmousedown="handleReset()"/>
                <g id="arrowUp" xlink:href="#dirArrow" transform="translate(30 24)" onmousedown="handlePan(0,-1)">
                  <use xlink:href="#rim" fill="#404040">
                        <set attributeName="fill" to="#808080" begin="arrowUp.mouseover" end="arrowUp.mouseout"/>
                  </use>
                  <path fill="none" stroke="white" stroke-width="1.5" d="M0,-3.0v7 M-2.5,-0.5L0,-3.0L2.5,-0.5"/>
                </g>
                <g id="arrowRight" xlink:href="#dirArrow" transform="rotate(90) translate(36 -43)" onmousedown="handlePan(1,0)">
                  <use xlink:href="#rim" fill="#404040">
                        <set attributeName="fill" to="#808080" begin="arrowRight.mouseover" end="arrowRight.mouseout"/>
                  </use>
                  <path fill="none" stroke="white" stroke-width="1.5" d="M0,-3.0v7 M-2.5,-0.5L0,-3.0L2.5,-0.5"/>
                </g>
                <g id="arrowDown" xlink:href="#dirArrow" transform="rotate(180) translate(-30 -48)" onmousedown="handlePan(0,1)">
                  <use xlink:href="#rim" fill="#404040">
                        <set attributeName="fill" to="#808080" begin="arrowDown.mouseover" end="arrowDown.mouseout"/>
                  </use>
                  <path fill="none" stroke="white" stroke-width="1.5" d="M0,-3.0v7 M-2.5,-0.5L0,-3.0L2.5,-0.5"/>
                </g>
                <g id="arrowLeft" xlink:href="#dirArrow" transform="rotate(270) translate(-36 17)" onmousedown="handlePan(-1,0)">
                  <use xlink:href="#rim" fill="#404040">
                        <set attributeName="fill" to="#808080" begin="arrowLeft.mouseover" end="arrowLeft.mouseout"/>
                  </use>
                  <path fill="none" stroke="white" stroke-width="1.5" d="M0,-3.0v7 M-2.5,-0.5L0,-3.0L2.5,-0.5"/>
                </g>
        </g>
        <svg viewBox="0 0 15 15" width="100%" height="30px" preserveAspectRatio="xMaxYMin meet">
         <g id="arrow_out" transform="scale(0.3 0.3)">
          <a xlink:href="classklyqa__ctl_1_1klyqa__ctl_1_1Client_a7d8a302d936e8e1889f175bac259f565_icgraph_org.svg" target="_base">
           <rect id="button" ry="5" rx="5" y="6" x="6" height="38" width="38"
                fill="#f2f5e9" fill-opacity="0.5" stroke="#606060" stroke-width="1.0"/>
           <path id="arrow"
             d="M 11.500037,31.436501 C 11.940474,20.09759 22.043105,11.32322 32.158766,21.979434 L 37.068811,17.246167 C 37.068811,17.246167 37.088388,32 37.088388,32 L 22.160133,31.978069 C 22.160133,31.978069 26.997745,27.140456 26.997745,27.140456 C 18.528582,18.264221 13.291696,25.230495 11.500037,31.436501 z"
             style="fill:#404040;"/>
          </a>
         </g>
        </svg>
</svg>
