<?xml version="1.0" encoding="UTF-8" standalone="no"?>
<!DOCTYPE svg PUBLIC "-//W3C//DTD SVG 1.1//EN"
 "http://www.w3.org/Graphics/SVG/1.1/DTD/svg11.dtd">
<!-- Generated by graphviz version 2.43.0 (0)
 -->
<!-- Title: klyqa_ctl.devices.device.Device.response_classes Pages: 1 -->
<svg width="372pt" height="88pt"
 viewBox="0.00 0.00 372.00 88.00" xmlns="http://www.w3.org/2000/svg" xmlns:xlink="http://www.w3.org/1999/xlink">
<g id="graph0" class="graph" transform="scale(1 1) rotate(0) translate(4 84)">
<title>klyqa_ctl.devices.device.Device.response_classes</title>
<polygon fill="white" stroke="transparent" points="-4,4 -4,-84 368,-84 368,4 -4,4"/>
<!-- Node1 -->
<g id="node1" class="node">
<title>Node1</title>
<g id="a_node1"><a xlink:title=" ">
<polygon fill="#bfbfbf" stroke="black" points="224,-24.5 224,-54.5 364,-54.5 364,-24.5 224,-24.5"/>
<text text-anchor="start" x="232" y="-42.5" font-family="Helvetica,sans-Serif" font-size="10.00">klyqa_ctl.devices.device.</text>
<text text-anchor="middle" x="294" y="-31.5" font-family="Helvetica,sans-Serif" font-size="10.00">Device.response_classes</text>
</a>
</g>
</g>
<!-- Node2 -->
<g id="node2" class="node">
<title>Node2</title>
<g id="a_node2"><a xlink:href="classklyqa__ctl_1_1devices_1_1light_1_1light_1_1Light.html#ac51199422c5adf0d77d34b9a2842ba8f" target="_top" xlink:title=" ">
<polygon fill="white" stroke="black" points="17,-49.5 17,-79.5 171,-79.5 171,-49.5 17,-49.5"/>
<text text-anchor="start" x="25" y="-67.5" font-family="Helvetica,sans-Serif" font-size="10.00">klyqa_ctl.devices.light.light.</text>
<text text-anchor="middle" x="94" y="-56.5" font-family="Helvetica,sans-Serif" font-size="10.00">Light.__init__</text>
</a>
</g>
</g>
<!-- Node1&#45;&gt;Node2 -->
<g id="edge1" class="edge">
<title>Node1&#45;&gt;Node2</title>
<path fill="none" stroke="midnightblue" d="M213.69,-49.51C199.71,-51.28 185.19,-53.11 171.3,-54.87"/>
<polygon fill="midnightblue" stroke="midnightblue" points="214.27,-52.97 223.75,-48.24 213.39,-46.02 214.27,-52.97"/>
</g>
<!-- Node3 -->
<g id="node3" class="node">
<title>Node3</title>
<g id="a_node3"><a xlink:href="classklyqa__ctl_1_1devices_1_1vacuum_1_1vacuum_1_1VacuumCleaner.html#a61d6b100df4a5302d5934ed21bbe05bb" target="_top" xlink:title=" ">
<polygon fill="white" stroke="black" points="0,-0.5 0,-30.5 188,-30.5 188,-0.5 0,-0.5"/>
<text text-anchor="start" x="8" y="-18.5" font-family="Helvetica,sans-Serif" font-size="10.00">klyqa_ctl.devices.vacuum.vacuum.</text>
<text text-anchor="middle" x="94" y="-7.5" font-family="Helvetica,sans-Serif" font-size="10.00">VacuumCleaner.__init__</text>
</a>
</g>
</g>
<!-- Node1&#45;&gt;Node3 -->
<g id="edge2" class="edge">
<title>Node1&#45;&gt;Node3</title>
<path fill="none" stroke="midnightblue" d="M213.66,-29.88C205.29,-28.87 196.73,-27.83 188.22,-26.8"/>
<polygon fill="midnightblue" stroke="midnightblue" points="213.4,-33.38 223.75,-31.11 214.24,-26.43 213.4,-33.38"/>
</g>
</g>
</svg>
