<?xml version="1.0" encoding="UTF-8" standalone="no"?>
<!DOCTYPE svg PUBLIC "-//W3C//DTD SVG 1.1//EN"
 "http://www.w3.org/Graphics/SVG/1.1/DTD/svg11.dtd">
<!-- Generated by graphviz version 2.43.0 (0)
 -->
<!-- Title: local.connection.AesConnectionState Pages: 1 -->
<svg width="203pt" height="193pt"
 viewBox="0.00 0.00 203.00 193.00" xmlns="http://www.w3.org/2000/svg" xmlns:xlink="http://www.w3.org/1999/xlink">
<g id="graph0" class="graph" transform="scale(1 1) rotate(0) translate(4 189)">
<title>local.connection.AesConnectionState</title>
<polygon fill="white" stroke="transparent" points="-4,4 -4,-189 199,-189 199,4 -4,4"/>
<!-- Node1 -->
<g id="node1" class="node">
<title>Node1</title>
<g id="a_node1"><a xlink:title=" ">
<polygon fill="#bfbfbf" stroke="black" points="0,-0.5 0,-68.5 172,-68.5 172,-0.5 0,-0.5"/>
<text text-anchor="start" x="8" y="-56.5" font-family="Helvetica,sans-Serif" font-size="10.00">local.connection.AesConnection</text>
<text text-anchor="middle" x="86" y="-45.5" font-family="Helvetica,sans-Serif" font-size="10.00">State</text>
<polyline fill="none" stroke="black" points="0,-38.5 172,-38.5 "/>
<text text-anchor="middle" x="86" y="-26.5" font-family="Helvetica,sans-Serif" font-size="10.00"> </text>
<polyline fill="none" stroke="black" points="0,-19.5 172,-19.5 "/>
<text text-anchor="middle" x="86" y="-7.5" font-family="Helvetica,sans-Serif" font-size="10.00"> </text>
</a>
</g>
</g>
<!-- Node2 -->
<g id="node2" class="node">
<title>Node2</title>
<g id="a_node2"><a xlink:href="classstr.html" target="_top" xlink:title=" ">
<polygon fill="white" stroke="black" points="16.5,-127.5 16.5,-184.5 45.5,-184.5 45.5,-127.5 16.5,-127.5"/>
<text text-anchor="middle" x="31" y="-172.5" font-family="Helvetica,sans-Serif" font-size="10.00">str</text>
<polyline fill="none" stroke="black" points="16.5,-165.5 45.5,-165.5 "/>
<text text-anchor="middle" x="31" y="-153.5" font-family="Helvetica,sans-Serif" font-size="10.00"> </text>
<polyline fill="none" stroke="black" points="16.5,-146.5 45.5,-146.5 "/>
<text text-anchor="middle" x="31" y="-134.5" font-family="Helvetica,sans-Serif" font-size="10.00"> </text>
</a>
</g>
</g>
<!-- Node2&#45;&gt;Node1 -->
<g id="edge1" class="edge">
<title>Node2&#45;&gt;Node1</title>
<path fill="none" stroke="midnightblue" d="M48.1,-117.84C55.35,-102.09 63.74,-83.87 70.77,-68.59"/>
<polygon fill="none" stroke="midnightblue" points="44.76,-116.74 43.76,-127.28 51.12,-119.66 44.76,-116.74"/>
</g>
<!-- Node3 -->
<g id="node3" class="node">
<title>Node3</title>
<g id="a_node3"><a xlink:title=" ">
<polygon fill="white" stroke="#bfbfbf" points="64,-127.5 64,-184.5 108,-184.5 108,-127.5 64,-127.5"/>
<text text-anchor="middle" x="86" y="-172.5" font-family="Helvetica,sans-Serif" font-size="10.00">Enum</text>
<polyline fill="none" stroke="#bfbfbf" points="64,-165.5 108,-165.5 "/>
<text text-anchor="middle" x="86" y="-153.5" font-family="Helvetica,sans-Serif" font-size="10.00"> </text>
<polyline fill="none" stroke="#bfbfbf" points="64,-146.5 108,-146.5 "/>
<text text-anchor="middle" x="86" y="-134.5" font-family="Helvetica,sans-Serif" font-size="10.00"> </text>
</a>
</g>
</g>
<!-- Node3&#45;&gt;Node1 -->
<g id="edge2" class="edge">
<title>Node3&#45;&gt;Node1</title>
<path fill="none" stroke="midnightblue" d="M86,-116.95C86,-101.4 86,-83.58 86,-68.59"/>
<polygon fill="none" stroke="midnightblue" points="82.5,-117.28 86,-127.28 89.5,-117.28 82.5,-117.28"/>
</g>
<!-- Node4 -->
<g id="node4" class="node">
<title>Node4</title>
<g id="a_node4"><a xlink:title=" ">
<polygon fill="white" stroke="#bfbfbf" points="126,-127.5 126,-184.5 170,-184.5 170,-127.5 126,-127.5"/>
<text text-anchor="middle" x="148" y="-172.5" font-family="Helvetica,sans-Serif" font-size="10.00">string</text>
<polyline fill="none" stroke="#bfbfbf" points="126,-165.5 170,-165.5 "/>
<text text-anchor="middle" x="148" y="-153.5" font-family="Helvetica,sans-Serif" font-size="10.00"> </text>
<polyline fill="none" stroke="#bfbfbf" points="126,-146.5 170,-146.5 "/>
<text text-anchor="middle" x="148" y="-134.5" font-family="Helvetica,sans-Serif" font-size="10.00"> </text>
</a>
</g>
</g>
<!-- Node4&#45;&gt;Node1 -->
<g id="edge3" class="edge">
<title>Node4&#45;&gt;Node1</title>
<path fill="none" stroke="#404040" d="M133.62,-127.28C126.24,-113.05 117.07,-95.38 108.76,-79.36"/>
<polygon fill="none" stroke="#404040" points="108.69,-79.24 102.38,-75.76 103.17,-68.59 109.48,-72.07 108.69,-79.24"/>
<text text-anchor="middle" x="158.5" y="-101" font-family="Helvetica,sans-Serif" font-size="10.00"> +CONNECTED</text>
<text text-anchor="middle" x="158.5" y="-90" font-family="Helvetica,sans-Serif" font-size="10.00">+WAIT_IV</text>
</g>
</g>
</svg>
