<?xml version="1.0" encoding="UTF-8" standalone="no"?>
<!DOCTYPE svg PUBLIC "-//W3C//DTD SVG 1.1//EN"
 "http://www.w3.org/Graphics/SVG/1.1/DTD/svg11.dtd">
<!-- Generated by graphviz version 2.43.0 (0)
 -->
<!-- Title: klyqa_ctl.account_control.AccountControl.update_device_configs Pages: 1 -->
<svg width="1048pt" height="218pt"
 viewBox="0.00 0.00 1048.00 217.50" xmlns="http://www.w3.org/2000/svg" xmlns:xlink="http://www.w3.org/1999/xlink">
<g id="graph0" class="graph" transform="scale(1 1) rotate(0) translate(4 213.5)">
<title>klyqa_ctl.account_control.AccountControl.update_device_configs</title>
<polygon fill="white" stroke="transparent" points="-4,4 -4,-213.5 1044,-213.5 1044,4 -4,4"/>
<!-- Node1 -->
<g id="node1" class="node">
<title>Node1</title>
<g id="a_node1"><a xlink:title=" ">
<polygon fill="#bfbfbf" stroke="black" points="0,-86 0,-127 165,-127 165,-86 0,-86"/>
<text text-anchor="start" x="8" y="-115" font-family="Helvetica,sans-Serif" font-size="10.00">klyqa_ctl.account_control.</text>
<text text-anchor="start" x="8" y="-104" font-family="Helvetica,sans-Serif" font-size="10.00">AccountControl.update_device</text>
<text text-anchor="middle" x="82.5" y="-93" font-family="Helvetica,sans-Serif" font-size="10.00">_configs</text>
</a>
</g>
</g>
<!-- Node2 -->
<g id="node2" class="node">
<title>Node2</title>
<g id="a_node2"><a xlink:href="classklyqa__ctl_1_1account_1_1Account.html#a2265c38daf6829c96c852ad4a288b42d" target="_top" xlink:title=" ">
<polygon fill="white" stroke="black" points="201,-190 201,-209 386,-209 386,-190 201,-190"/>
<text text-anchor="middle" x="293.5" y="-197" font-family="Helvetica,sans-Serif" font-size="10.00">klyqa_ctl.account.Account.devices</text>
</a>
</g>
</g>
<!-- Node1&#45;&gt;Node2 -->
<g id="edge1" class="edge">
<title>Node1&#45;&gt;Node2</title>
<path fill="none" stroke="midnightblue" d="M110,-127.1C132.89,-143.89 167.46,-166.97 201,-180.5 207.37,-183.07 214.13,-185.31 220.99,-187.26"/>
<polygon fill="midnightblue" stroke="midnightblue" points="220.5,-190.75 231.06,-189.91 222.28,-183.98 220.5,-190.75"/>
</g>
<!-- Node3 -->
<g id="node3" class="node">
<title>Node3</title>
<g id="a_node3"><a xlink:href="classlocal_1_1connection__handler_1_1LocalConnectionHandler.html#a4d307f6bd0b66f3cb9fac3057fc87972" target="_top" xlink:title=" ">
<polygon fill="white" stroke="black" points="206,-140.5 206,-170.5 381,-170.5 381,-140.5 206,-140.5"/>
<text text-anchor="start" x="214" y="-158.5" font-family="Helvetica,sans-Serif" font-size="10.00">local.connection_handler.</text>
<text text-anchor="middle" x="293.5" y="-147.5" font-family="Helvetica,sans-Serif" font-size="10.00">LocalConnectionHandler.devices</text>
</a>
</g>
</g>
<!-- Node1&#45;&gt;Node3 -->
<g id="edge2" class="edge">
<title>Node1&#45;&gt;Node3</title>
<path fill="none" stroke="midnightblue" d="M165.2,-125.66C182.72,-129.76 201.13,-134.08 218.34,-138.11"/>
<polygon fill="midnightblue" stroke="midnightblue" points="217.78,-141.58 228.32,-140.45 219.38,-134.76 217.78,-141.58"/>
</g>
<!-- Node4 -->
<g id="node4" class="node">
<title>Node4</title>
<g id="a_node4"><a xlink:href="classklyqa__ctl_1_1controller__data_1_1ControllerData.html#adf7af423388a9a883c428cf71e217650" target="_top" xlink:title=" ">
<polygon fill="white" stroke="black" points="214.5,-91.5 214.5,-121.5 372.5,-121.5 372.5,-91.5 214.5,-91.5"/>
<text text-anchor="start" x="222.5" y="-109.5" font-family="Helvetica,sans-Serif" font-size="10.00">klyqa_ctl.controller</text>
<text text-anchor="middle" x="293.5" y="-98.5" font-family="Helvetica,sans-Serif" font-size="10.00">_data.ControllerData.devices</text>
</a>
</g>
</g>
<!-- Node1&#45;&gt;Node4 -->
<g id="edge3" class="edge">
<title>Node1&#45;&gt;Node4</title>
<path fill="none" stroke="midnightblue" d="M165.2,-106.5C177.94,-106.5 191.15,-106.5 204.03,-106.5"/>
<polygon fill="midnightblue" stroke="midnightblue" points="204.28,-110 214.28,-106.5 204.28,-103 204.28,-110"/>
</g>
<!-- Node5 -->
<g id="node5" class="node">
<title>Node5</title>
<g id="a_node5"><a xlink:href="namespaceklyqa__ctl_1_1general_1_1general.html#a1afe30a73cc28a3b65babeeab27e36c8" target="_top" xlink:title=" ">
<polygon fill="white" stroke="black" points="422,-49.5 422,-79.5 586,-79.5 586,-49.5 422,-49.5"/>
<text text-anchor="start" x="430" y="-67.5" font-family="Helvetica,sans-Serif" font-size="10.00">klyqa_ctl.general.general.task</text>
<text text-anchor="middle" x="504" y="-56.5" font-family="Helvetica,sans-Serif" font-size="10.00">_log_debug</text>
</a>
</g>
</g>
<!-- Node1&#45;&gt;Node5 -->
<g id="edge4" class="edge">
<title>Node1&#45;&gt;Node5</title>
<path fill="none" stroke="midnightblue" d="M165.11,-88.28C177.1,-86.06 189.34,-84.03 201,-82.5 271.4,-73.26 351.66,-68.76 411.73,-66.57"/>
<polygon fill="midnightblue" stroke="midnightblue" points="412.08,-70.06 421.95,-66.21 411.83,-63.06 412.08,-70.06"/>
</g>
<!-- Node8 -->
<g id="node8" class="node">
<title>Node8</title>
<g id="a_node8"><a xlink:href="namespaceklyqa__ctl_1_1general_1_1general.html#ad6b753e482e539892c57f8144cf213cb" target="_top" xlink:title=" ">
<polygon fill="white" stroke="black" points="211.5,-2.5 211.5,-32.5 375.5,-32.5 375.5,-2.5 211.5,-2.5"/>
<text text-anchor="start" x="219.5" y="-20.5" font-family="Helvetica,sans-Serif" font-size="10.00">klyqa_ctl.general.general.task</text>
<text text-anchor="middle" x="293.5" y="-9.5" font-family="Helvetica,sans-Serif" font-size="10.00">_log_trace_ex</text>
</a>
</g>
</g>
<!-- Node1&#45;&gt;Node8 -->
<g id="edge7" class="edge">
<title>Node1&#45;&gt;Node8</title>
<path fill="none" stroke="midnightblue" d="M121.81,-85.99C144.49,-74.25 173.99,-59.68 201,-48.5 211.67,-44.08 223.21,-39.8 234.39,-35.9"/>
<polygon fill="midnightblue" stroke="midnightblue" points="235.77,-39.13 244.1,-32.57 233.5,-32.5 235.77,-39.13"/>
</g>
<!-- Node6 -->
<g id="node6" class="node">
<title>Node6</title>
<g id="a_node6"><a xlink:href="namespaceklyqa__ctl_1_1general_1_1general.html#a9df3b50dfc0fcc7c8ec991bb9be9c5ba" target="_top" xlink:title=" ">
<polygon fill="white" stroke="black" points="622,-30 622,-49 807,-49 807,-30 622,-30"/>
<text text-anchor="middle" x="714.5" y="-37" font-family="Helvetica,sans-Serif" font-size="10.00">klyqa_ctl.general.general.task_log</text>
</a>
</g>
</g>
<!-- Node5&#45;&gt;Node6 -->
<g id="edge5" class="edge">
<title>Node5&#45;&gt;Node6</title>
<path fill="none" stroke="midnightblue" d="M586.21,-54.76C598.66,-53.27 611.57,-51.72 624.19,-50.21"/>
<polygon fill="midnightblue" stroke="midnightblue" points="624.71,-53.67 634.22,-49.01 623.88,-46.72 624.71,-53.67"/>
</g>
<!-- Node7 -->
<g id="node7" class="node">
<title>Node7</title>
<g id="a_node7"><a xlink:href="namespaceklyqa__ctl_1_1general_1_1general.html#aea905150cafee39fa2ca211f1e60f012" target="_top" xlink:title=" ">
<polygon fill="white" stroke="black" points="843,-30 843,-49 1040,-49 1040,-30 843,-30"/>
<text text-anchor="middle" x="941.5" y="-37" font-family="Helvetica,sans-Serif" font-size="10.00">klyqa_ctl.general.general.task_name</text>
</a>
</g>
</g>
<!-- Node6&#45;&gt;Node7 -->
<g id="edge6" class="edge">
<title>Node6&#45;&gt;Node7</title>
<path fill="none" stroke="midnightblue" d="M807.02,-39.5C815.5,-39.5 824.15,-39.5 832.76,-39.5"/>
<polygon fill="midnightblue" stroke="midnightblue" points="832.83,-43 842.83,-39.5 832.83,-36 832.83,-43"/>
</g>
<!-- Node9 -->
<g id="node9" class="node">
<title>Node9</title>
<g id="a_node9"><a xlink:href="namespaceklyqa__ctl_1_1general_1_1general.html#ab2f9a22e98cd16d0d284d22382cfcb02" target="_top" xlink:title=" ">
<polygon fill="white" stroke="black" points="422,-0.5 422,-30.5 586,-30.5 586,-0.5 422,-0.5"/>
<text text-anchor="start" x="430" y="-18.5" font-family="Helvetica,sans-Serif" font-size="10.00">klyqa_ctl.general.general.task</text>
<text text-anchor="middle" x="504" y="-7.5" font-family="Helvetica,sans-Serif" font-size="10.00">_log_trace</text>
</a>
</g>
</g>
<!-- Node8&#45;&gt;Node9 -->
<g id="edge8" class="edge">
<title>Node8&#45;&gt;Node9</title>
<path fill="none" stroke="midnightblue" d="M375.71,-16.72C387.38,-16.61 399.46,-16.49 411.32,-16.38"/>
<polygon fill="midnightblue" stroke="midnightblue" points="411.7,-19.88 421.67,-16.28 411.64,-12.88 411.7,-19.88"/>
</g>
<!-- Node9&#45;&gt;Node6 -->
<g id="edge9" class="edge">
<title>Node9&#45;&gt;Node6</title>
<path fill="none" stroke="midnightblue" d="M586.21,-24.85C597.53,-26.15 609.23,-27.5 620.74,-28.82"/>
<polygon fill="midnightblue" stroke="midnightblue" points="620.46,-32.31 630.8,-29.98 621.26,-25.36 620.46,-32.31"/>
</g>
</g>
</svg>
