<?xml version="1.0" encoding="UTF-8" standalone="no"?>
<!DOCTYPE svg PUBLIC "-//W3C//DTD SVG 1.1//EN"
 "http://www.w3.org/Graphics/SVG/1.1/DTD/svg11.dtd">
<!-- Generated by graphviz version 2.43.0 (0)
 -->
<!-- Title: cloud.CloudBackend.backend_connected Pages: 1 -->
<svg width="354pt" height="116pt"
 viewBox="0.00 0.00 354.00 115.50" xmlns="http://www.w3.org/2000/svg" xmlns:xlink="http://www.w3.org/1999/xlink">
<g id="graph0" class="graph" transform="scale(1 1) rotate(0) translate(4 111.5)">
<title>cloud.CloudBackend.backend_connected</title>
<polygon fill="white" stroke="transparent" points="-4,4 -4,-111.5 350,-111.5 350,4 -4,4"/>
<!-- Node1 -->
<g id="node1" class="node">
<title>Node1</title>
<g id="a_node1"><a xlink:title=" ">
<polygon fill="#bfbfbf" stroke="black" points="0,-44.5 0,-74.5 158,-74.5 158,-44.5 0,-44.5"/>
<text text-anchor="start" x="8" y="-62.5" font-family="Helvetica,sans-Serif" font-size="10.00">cloud.CloudBackend.backend</text>
<text text-anchor="middle" x="79" y="-51.5" font-family="Helvetica,sans-Serif" font-size="10.00">_connected</text>
</a>
</g>
</g>
<!-- Node2 -->
<g id="node2" class="node">
<title>Node2</title>
<g id="a_node2"><a xlink:href="classcloud_1_1CloudBackend.html#ac4e934fc6667245f1a6fde13e5ab089e" target="_top" xlink:title=" ">
<polygon fill="white" stroke="black" points="200.5,-88 200.5,-107 339.5,-107 339.5,-88 200.5,-88"/>
<text text-anchor="middle" x="270" y="-95" font-family="Helvetica,sans-Serif" font-size="10.00">cloud.CloudBackend.host</text>
</a>
</g>
</g>
<!-- Node1&#45;&gt;Node2 -->
<g id="edge1" class="edge">
<title>Node1&#45;&gt;Node2</title>
<path fill="none" stroke="midnightblue" d="M154.7,-74.52C173.68,-78.33 193.77,-82.37 211.73,-85.98"/>
<polygon fill="midnightblue" stroke="midnightblue" points="211.25,-89.46 221.75,-88 212.63,-82.6 211.25,-89.46"/>
</g>
<!-- Node3 -->
<g id="node3" class="node">
<title>Node3</title>
<g id="a_node3"><a xlink:href="classcloud_1_1CloudBackend.html#adf95478dcc03f91d222b6cc3c5317175" target="_top" xlink:title=" ">
<polygon fill="white" stroke="black" points="195.5,-50 195.5,-69 344.5,-69 344.5,-50 195.5,-50"/>
<text text-anchor="middle" x="270" y="-57" font-family="Helvetica,sans-Serif" font-size="10.00">cloud.CloudBackend.offline</text>
</a>
</g>
</g>
<!-- Node1&#45;&gt;Node3 -->
<g id="edge2" class="edge">
<title>Node1&#45;&gt;Node3</title>
<path fill="none" stroke="midnightblue" d="M158.24,-59.5C167.17,-59.5 176.29,-59.5 185.29,-59.5"/>
<polygon fill="midnightblue" stroke="midnightblue" points="185.37,-63 195.37,-59.5 185.37,-56 185.37,-63"/>
</g>
<!-- Node4 -->
<g id="node4" class="node">
<title>Node4</title>
<g id="a_node4"><a xlink:href="classklyqa__ctl_1_1controller__data_1_1ControllerData.html#acb31c4dc35406e234e75902d1972ae7a" target="_top" xlink:title=" ">
<polygon fill="white" stroke="black" points="194,-0.5 194,-30.5 346,-30.5 346,-0.5 194,-0.5"/>
<text text-anchor="start" x="202" y="-18.5" font-family="Helvetica,sans-Serif" font-size="10.00">klyqa_ctl.controller</text>
<text text-anchor="middle" x="270" y="-7.5" font-family="Helvetica,sans-Serif" font-size="10.00">_data.ControllerData.offline</text>
</a>
</g>
</g>
<!-- Node1&#45;&gt;Node4 -->
<g id="edge3" class="edge">
<title>Node1&#45;&gt;Node4</title>
<path fill="none" stroke="midnightblue" d="M144.51,-44.48C160.54,-40.75 177.86,-36.72 194.33,-32.88"/>
<polygon fill="midnightblue" stroke="midnightblue" points="195.51,-36.2 204.46,-30.53 193.92,-29.38 195.51,-36.2"/>
</g>
</g>
</svg>
