<?xml version="1.0" encoding="UTF-8" standalone="no"?>
<!DOCTYPE svg PUBLIC "-//W3C//DTD SVG 1.1//EN"
 "http://www.w3.org/Graphics/SVG/1.1/DTD/svg11.dtd">
<!-- Generated by graphviz version 2.43.0 (0)
 -->
<!-- Title: klyqa_ctl.account.Account.username Pages: 1 -->
<svg width="633pt" height="105pt"
 viewBox="0.00 0.00 633.00 104.50" xmlns="http://www.w3.org/2000/svg" xmlns:xlink="http://www.w3.org/1999/xlink">
<g id="graph0" class="graph" transform="scale(1 1) rotate(0) translate(4 100.5)">
<title>klyqa_ctl.account.Account.username</title>
<polygon fill="white" stroke="transparent" points="-4,4 -4,-100.5 629,-100.5 629,4 -4,4"/>
<!-- Node1 -->
<g id="node1" class="node">
<title>Node1</title>
<g id="a_node1"><a xlink:title=" ">
<polygon fill="#bfbfbf" stroke="black" points="429,-55 429,-74 625,-74 625,-55 429,-55"/>
<text text-anchor="middle" x="527" y="-62" font-family="Helvetica,sans-Serif" font-size="10.00">klyqa_ctl.account.Account.username</text>
</a>
</g>
</g>
<!-- Node2 -->
<g id="node2" class="node">
<title>Node2</title>
<g id="a_node2"><a xlink:href="classklyqa__ctl_1_1account_1_1Account.html#a0b171a600e4342d035ad26c39b384b38" target="_top" xlink:title=" ">
<polygon fill="white" stroke="black" points="0,-77 0,-96 171,-96 171,-77 0,-77"/>
<text text-anchor="middle" x="85.5" y="-84" font-family="Helvetica,sans-Serif" font-size="10.00">klyqa_ctl.account.Account.login</text>
</a>
</g>
</g>
<!-- Node1&#45;&gt;Node2 -->
<g id="edge1" class="edge">
<title>Node1&#45;&gt;Node2</title>
<path fill="none" stroke="midnightblue" d="M476.2,-76.13C451.35,-81.35 420.76,-86.91 393,-89.5 310.69,-97.17 289.66,-90.53 207,-89.5 195.39,-89.36 183.15,-89.13 171.09,-88.87"/>
<polygon fill="midnightblue" stroke="midnightblue" points="477.07,-79.53 486.12,-74 475.6,-72.68 477.07,-79.53"/>
</g>
<!-- Node3 -->
<g id="node3" class="node">
<title>Node3</title>
<g id="a_node3"><a xlink:href="classklyqa__ctl_1_1account_1_1Account.html#acbc09f2b1b4cb6b7ed771b96ea79613b" target="_top" xlink:title=" ">
<polygon fill="white" stroke="black" points="207,-49.5 207,-79.5 393,-79.5 393,-49.5 207,-49.5"/>
<text text-anchor="start" x="215" y="-67.5" font-family="Helvetica,sans-Serif" font-size="10.00">klyqa_ctl.account.Account.perform</text>
<text text-anchor="middle" x="300" y="-56.5" font-family="Helvetica,sans-Serif" font-size="10.00">_login</text>
</a>
</g>
</g>
<!-- Node1&#45;&gt;Node3 -->
<g id="edge2" class="edge">
<title>Node1&#45;&gt;Node3</title>
<path fill="none" stroke="midnightblue" d="M418.87,-64.5C410.26,-64.5 401.6,-64.5 393.11,-64.5"/>
<polygon fill="midnightblue" stroke="midnightblue" points="418.95,-68 428.95,-64.5 418.95,-61 418.95,-68"/>
</g>
<!-- Node4 -->
<g id="node4" class="node">
<title>Node4</title>
<g id="a_node4"><a xlink:href="classklyqa__ctl_1_1account_1_1Account.html#acba85b49678b6d37567985738f7becf3" target="_top" xlink:title=" ">
<polygon fill="white" stroke="black" points="215.5,-0.5 215.5,-30.5 384.5,-30.5 384.5,-0.5 215.5,-0.5"/>
<text text-anchor="start" x="223.5" y="-18.5" font-family="Helvetica,sans-Serif" font-size="10.00">klyqa_ctl.account.Account.read</text>
<text text-anchor="middle" x="300" y="-7.5" font-family="Helvetica,sans-Serif" font-size="10.00">_username_cache</text>
</a>
</g>
</g>
<!-- Node1&#45;&gt;Node4 -->
<g id="edge4" class="edge">
<title>Node1&#45;&gt;Node4</title>
<path fill="none" stroke="midnightblue" d="M472.31,-52.81C441.71,-46.14 403.05,-37.73 370.2,-30.57"/>
<polygon fill="midnightblue" stroke="midnightblue" points="471.84,-56.29 482.35,-54.99 473.32,-49.45 471.84,-56.29"/>
</g>
<!-- Node3&#45;&gt;Node2 -->
<g id="edge3" class="edge">
<title>Node3&#45;&gt;Node2</title>
<path fill="none" stroke="midnightblue" d="M196.76,-75.09C188.24,-75.97 179.7,-76.85 171.33,-77.72"/>
<polygon fill="midnightblue" stroke="midnightblue" points="197.14,-78.56 206.72,-74.05 196.41,-71.6 197.14,-78.56"/>
</g>
</g>
</svg>
