<?xml version="1.0" encoding="UTF-8" standalone="no"?>
<!DOCTYPE svg PUBLIC "-//W3C//DTD SVG 1.1//EN"
 "http://www.w3.org/Graphics/SVG/1.1/DTD/svg11.dtd">
<!-- Generated by graphviz version 2.43.0 (0)
 -->
<!-- Title: connection_handler.ConnectionHandler Pages: 1 -->
<svg width="214pt" height="204pt"
 viewBox="0.00 0.00 214.00 204.00" xmlns="http://www.w3.org/2000/svg" xmlns:xlink="http://www.w3.org/1999/xlink">
<g id="graph0" class="graph" transform="scale(1 1) rotate(0) translate(4 200)">
<title>connection_handler.ConnectionHandler</title>
<polygon fill="white" stroke="transparent" points="-4,4 -4,-200 210,-200 210,4 -4,4"/>
<!-- Node1 -->
<g id="node1" class="node">
<title>Node1</title>
<g id="a_node1"><a xlink:title=" ">
<polygon fill="#bfbfbf" stroke="black" points="0,-0.5 0,-101.5 206,-101.5 206,-0.5 0,-0.5"/>
<text text-anchor="start" x="8" y="-89.5" font-family="Helvetica,sans-Serif" font-size="10.00">connection_handler.Connection</text>
<text text-anchor="middle" x="103" y="-78.5" font-family="Helvetica,sans-Serif" font-size="10.00">Handler</text>
<polyline fill="none" stroke="black" points="0,-71.5 206,-71.5 "/>
<text text-anchor="middle" x="103" y="-59.5" font-family="Helvetica,sans-Serif" font-size="10.00"> </text>
<polyline fill="none" stroke="black" points="0,-52.5 206,-52.5 "/>
<text text-anchor="start" x="8" y="-40.5" font-family="Helvetica,sans-Serif" font-size="10.00">+ DeviceTcpReturn handle</text>
<text text-anchor="start" x="8" y="-29.5" font-family="Helvetica,sans-Serif" font-size="10.00">_connection(self, ReferencePass</text>
<text text-anchor="start" x="8" y="-18.5" font-family="Helvetica,sans-Serif" font-size="10.00"> device_ref, TcpConnection connection,</text>
<text text-anchor="start" x="8" y="-7.5" font-family="Helvetica,sans-Serif" font-size="10.00"> ReferencePass msg_sent_r)</text>
</a>
</g>
</g>
<!-- Node2 -->
<g id="node2" class="node">
<title>Node2</title>
<g id="a_node2"><a xlink:title=" ">
<polygon fill="white" stroke="#bfbfbf" points="31.5,-138.5 31.5,-195.5 174.5,-195.5 174.5,-138.5 31.5,-138.5"/>
<text text-anchor="middle" x="103" y="-183.5" font-family="Helvetica,sans-Serif" font-size="10.00">DeviceConnectionHandler</text>
<polyline fill="none" stroke="#bfbfbf" points="31.5,-176.5 174.5,-176.5 "/>
<text text-anchor="middle" x="103" y="-164.5" font-family="Helvetica,sans-Serif" font-size="10.00"> </text>
<polyline fill="none" stroke="#bfbfbf" points="31.5,-157.5 174.5,-157.5 "/>
<text text-anchor="middle" x="103" y="-145.5" font-family="Helvetica,sans-Serif" font-size="10.00"> </text>
</a>
</g>
</g>
<!-- Node2&#45;&gt;Node1 -->
<g id="edge1" class="edge">
<title>Node2&#45;&gt;Node1</title>
<path fill="none" stroke="midnightblue" d="M103,-128.35C103,-119.8 103,-110.58 103,-101.61"/>
<polygon fill="none" stroke="midnightblue" points="99.5,-128.4 103,-138.4 106.5,-128.4 99.5,-128.4"/>
</g>
</g>
</svg>
