<?xml version="1.0" encoding="UTF-8" standalone="no"?>
<!DOCTYPE svg PUBLIC "-//W3C//DTD SVG 1.1//EN"
 "http://www.w3.org/Graphics/SVG/1.1/DTD/svg11.dtd">
<!-- Generated by graphviz version 2.43.0 (0)
 -->
<!-- Title: local.connection_handler.LocalConnectionHandler.device_handle_local_tcp Pages: 1 -->
<svg width="1519pt" height="706pt"
 viewBox="0.00 0.00 1519.00 705.57" xmlns="http://www.w3.org/2000/svg" xmlns:xlink="http://www.w3.org/1999/xlink">
<g id="graph0" class="graph" transform="scale(1 1) rotate(0) translate(4 701.57)">
<title>local.connection_handler.LocalConnectionHandler.device_handle_local_tcp</title>
<polygon fill="white" stroke="transparent" points="-4,4 -4,-701.57 1515,-701.57 1515,4 -4,4"/>
<!-- Node1 -->
<g id="node1" class="node">
<title>Node1</title>
<g id="a_node1"><a xlink:title=" ">
<polygon fill="#bfbfbf" stroke="black" points="0,-241.07 0,-282.07 170,-282.07 170,-241.07 0,-241.07"/>
<text text-anchor="start" x="8" y="-270.07" font-family="Helvetica,sans-Serif" font-size="10.00">local.connection_handler.</text>
<text text-anchor="start" x="8" y="-259.07" font-family="Helvetica,sans-Serif" font-size="10.00">LocalConnectionHandler.device</text>
<text text-anchor="middle" x="85" y="-248.07" font-family="Helvetica,sans-Serif" font-size="10.00">_handle_local_tcp</text>
</a>
</g>
</g>
<!-- Node2 -->
<g id="node2" class="node">
<title>Node2</title>
<g id="a_node2"><a xlink:href="classlocal_1_1connection__handler_1_1LocalConnectionHandler.html#a7e5e94d8da70d86c87eba78bcde9ff42" target="_top" xlink:title=" ">
<polygon fill="white" stroke="black" points="206,-647.07 206,-688.07 378,-688.07 378,-647.07 206,-647.07"/>
<text text-anchor="start" x="214" y="-676.07" font-family="Helvetica,sans-Serif" font-size="10.00">local.connection_handler.</text>
<text text-anchor="start" x="214" y="-665.07" font-family="Helvetica,sans-Serif" font-size="10.00">LocalConnectionHandler.current</text>
<text text-anchor="middle" x="292" y="-654.07" font-family="Helvetica,sans-Serif" font-size="10.00">_addr_connections</text>
</a>
</g>
</g>
<!-- Node1&#45;&gt;Node2 -->
<g id="edge1" class="edge">
<title>Node1&#45;&gt;Node2</title>
<path fill="none" stroke="midnightblue" d="M86.83,-282.21C90.38,-343.67 109,-527.72 206,-632.57 208.93,-635.73 212.18,-638.62 215.66,-641.25"/>
<polygon fill="midnightblue" stroke="midnightblue" points="213.89,-644.27 224.15,-646.93 217.79,-638.46 213.89,-644.27"/>
</g>
<!-- Node3 -->
<g id="node3" class="node">
<title>Node3</title>
<g id="a_node3"><a xlink:href="classklyqa__ctl_1_1account_1_1Account.html#a2265c38daf6829c96c852ad4a288b42d" target="_top" xlink:title=" ">
<polygon fill="white" stroke="black" points="854,-678.07 854,-697.07 1039,-697.07 1039,-678.07 854,-678.07"/>
<text text-anchor="middle" x="946.5" y="-685.07" font-family="Helvetica,sans-Serif" font-size="10.00">klyqa_ctl.account.Account.devices</text>
</a>
</g>
</g>
<!-- Node1&#45;&gt;Node3 -->
<g id="edge2" class="edge">
<title>Node1&#45;&gt;Node3</title>
<path fill="none" stroke="midnightblue" d="M90.81,-282.39C102.4,-327.74 136.19,-435.87 206,-492.57 393.78,-645.06 688.83,-679.26 843.35,-686.31"/>
<polygon fill="midnightblue" stroke="midnightblue" points="843.64,-689.83 853.78,-686.76 843.94,-682.83 843.64,-689.83"/>
</g>
<!-- Node4 -->
<g id="node4" class="node">
<title>Node4</title>
<g id="a_node4"><a xlink:href="classlocal_1_1connection__handler_1_1LocalConnectionHandler.html#a4d307f6bd0b66f3cb9fac3057fc87972" target="_top" xlink:title=" ">
<polygon fill="white" stroke="black" points="859,-628.57 859,-658.57 1034,-658.57 1034,-628.57 859,-628.57"/>
<text text-anchor="start" x="867" y="-646.57" font-family="Helvetica,sans-Serif" font-size="10.00">local.connection_handler.</text>
<text text-anchor="middle" x="946.5" y="-635.57" font-family="Helvetica,sans-Serif" font-size="10.00">LocalConnectionHandler.devices</text>
</a>
</g>
</g>
<!-- Node1&#45;&gt;Node4 -->
<g id="edge3" class="edge">
<title>Node1&#45;&gt;Node4</title>
<path fill="none" stroke="midnightblue" d="M93.27,-282.29C108.13,-321.57 145.72,-406.97 206,-452.57 282.84,-510.68 320.86,-488.95 414,-513.57 584.41,-558.61 632.31,-550.27 800,-604.57 816.49,-609.91 819.47,-614.36 836,-619.57 843.31,-621.87 850.96,-624.03 858.67,-626.04"/>
<polygon fill="midnightblue" stroke="midnightblue" points="857.91,-629.46 868.46,-628.51 859.62,-622.67 857.91,-629.46"/>
</g>
<!-- Node5 -->
<g id="node5" class="node">
<title>Node5</title>
<g id="a_node5"><a xlink:href="classklyqa__ctl_1_1controller__data_1_1ControllerData.html#adf7af423388a9a883c428cf71e217650" target="_top" xlink:title=" ">
<polygon fill="white" stroke="black" points="867.5,-579.57 867.5,-609.57 1025.5,-609.57 1025.5,-579.57 867.5,-579.57"/>
<text text-anchor="start" x="875.5" y="-597.57" font-family="Helvetica,sans-Serif" font-size="10.00">klyqa_ctl.controller</text>
<text text-anchor="middle" x="946.5" y="-586.57" font-family="Helvetica,sans-Serif" font-size="10.00">_data.ControllerData.devices</text>
</a>
</g>
</g>
<!-- Node1&#45;&gt;Node5 -->
<g id="edge4" class="edge">
<title>Node1&#45;&gt;Node5</title>
<path fill="none" stroke="midnightblue" d="M98.21,-282.07C117.36,-312.46 157.35,-369.24 206,-400.57 369.18,-505.64 437.04,-475.22 625,-523.57 704.5,-544.02 796.01,-563.93 860.84,-577.44"/>
<polygon fill="midnightblue" stroke="midnightblue" points="860.51,-580.95 871.01,-579.55 861.93,-574.09 860.51,-580.95"/>
</g>
<!-- Node6 -->
<g id="node6" class="node">
<title>Node6</title>
<g id="a_node6"><a xlink:href="classconnection__handler_1_1ConnectionHandler.html#aace4dd2e9f17d3fbb198e81fbf2019dd" target="_top" xlink:title=" ">
<polygon fill="white" stroke="black" points="207.5,-39.57 207.5,-69.57 376.5,-69.57 376.5,-39.57 207.5,-39.57"/>
<text text-anchor="start" x="215.5" y="-57.57" font-family="Helvetica,sans-Serif" font-size="10.00">connection_handler.Connection</text>
<text text-anchor="middle" x="292" y="-46.57" font-family="Helvetica,sans-Serif" font-size="10.00">Handler.handle_connection</text>
</a>
</g>
</g>
<!-- Node1&#45;&gt;Node6 -->
<g id="edge5" class="edge">
<title>Node1&#45;&gt;Node6</title>
<path fill="none" stroke="midnightblue" d="M94.68,-240.93C111.1,-204.28 150.15,-127.66 206,-84.57 211.12,-80.61 216.81,-77.16 222.74,-74.14"/>
<polygon fill="midnightblue" stroke="midnightblue" points="224.62,-77.12 232.22,-69.74 221.67,-70.77 224.62,-77.12"/>
</g>
<!-- Node7 -->
<g id="node7" class="node">
<title>Node7</title>
<g id="a_node7"><a xlink:href="classlocal_1_1connection__handler_1_1LocalConnectionHandler.html#a900e05554022ee9ecb3ba5621369016d" target="_top" xlink:title=" ">
<polygon fill="white" stroke="black" points="207,-241.07 207,-282.07 377,-282.07 377,-241.07 207,-241.07"/>
<text text-anchor="start" x="215" y="-270.07" font-family="Helvetica,sans-Serif" font-size="10.00">local.connection_handler.</text>
<text text-anchor="start" x="215" y="-259.07" font-family="Helvetica,sans-Serif" font-size="10.00">LocalConnectionHandler.handle</text>
<text text-anchor="middle" x="292" y="-248.07" font-family="Helvetica,sans-Serif" font-size="10.00">_connection</text>
</a>
</g>
</g>
<!-- Node1&#45;&gt;Node7 -->
<g id="edge6" class="edge">
<title>Node1&#45;&gt;Node7</title>
<path fill="none" stroke="midnightblue" d="M170.27,-261.57C178.92,-261.57 187.75,-261.57 196.5,-261.57"/>
<polygon fill="midnightblue" stroke="midnightblue" points="196.73,-265.07 206.73,-261.57 196.73,-258.07 196.73,-265.07"/>
</g>
<!-- Node10 -->
<g id="node10" class="node">
<title>Node10</title>
<g id="a_node10"><a xlink:href="namespaceklyqa__ctl_1_1general_1_1general.html#a9df3b50dfc0fcc7c8ec991bb9be9c5ba" target="_top" xlink:title=" ">
<polygon fill="white" stroke="black" points="1093,-230.07 1093,-249.07 1278,-249.07 1278,-230.07 1093,-230.07"/>
<text text-anchor="middle" x="1185.5" y="-237.07" font-family="Helvetica,sans-Serif" font-size="10.00">klyqa_ctl.general.general.task_log</text>
</a>
</g>
</g>
<!-- Node1&#45;&gt;Node10 -->
<g id="edge33" class="edge">
<title>Node1&#45;&gt;Node10</title>
<path fill="none" stroke="midnightblue" d="M125.68,-282.07C198.12,-317.53 357.5,-386.57 500.5,-386.57 500.5,-386.57 500.5,-386.57 713.5,-386.57 868.48,-386.57 913.42,-384.89 1057,-326.57 1099.68,-309.23 1142.52,-275.95 1166.07,-255.96"/>
<polygon fill="midnightblue" stroke="midnightblue" points="1168.56,-258.43 1173.84,-249.24 1163.99,-253.13 1168.56,-258.43"/>
</g>
<!-- Node12 -->
<g id="node12" class="node">
<title>Node12</title>
<g id="a_node12"><a xlink:href="namespaceklyqa__ctl_1_1general_1_1general.html#a1afe30a73cc28a3b65babeeab27e36c8" target="_top" xlink:title=" ">
<polygon fill="white" stroke="black" points="864.5,-202.57 864.5,-232.57 1028.5,-232.57 1028.5,-202.57 864.5,-202.57"/>
<text text-anchor="start" x="872.5" y="-220.57" font-family="Helvetica,sans-Serif" font-size="10.00">klyqa_ctl.general.general.task</text>
<text text-anchor="middle" x="946.5" y="-209.57" font-family="Helvetica,sans-Serif" font-size="10.00">_log_debug</text>
</a>
</g>
</g>
<!-- Node1&#45;&gt;Node12 -->
<g id="edge34" class="edge">
<title>Node1&#45;&gt;Node12</title>
<path fill="none" stroke="midnightblue" d="M156.87,-241.04C172.9,-237.18 189.93,-233.7 206,-231.57 437.76,-200.81 713.91,-206.72 854.08,-212.7"/>
<polygon fill="midnightblue" stroke="midnightblue" points="854.21,-216.21 864.35,-213.15 854.51,-209.21 854.21,-216.21"/>
</g>
<!-- Node18 -->
<g id="node18" class="node">
<title>Node18</title>
<g id="a_node18"><a xlink:href="classlocal_1_1connection__handler_1_1LocalConnectionHandler.html#a34b95b45332382bb830a3f1277878268" target="_top" xlink:title=" ">
<polygon fill="white" stroke="black" points="414,-143.07 414,-184.07 589,-184.07 589,-143.07 414,-143.07"/>
<text text-anchor="start" x="422" y="-172.07" font-family="Helvetica,sans-Serif" font-size="10.00">local.connection_handler.</text>
<text text-anchor="start" x="422" y="-161.07" font-family="Helvetica,sans-Serif" font-size="10.00">LocalConnectionHandler.remove</text>
<text text-anchor="middle" x="501.5" y="-150.07" font-family="Helvetica,sans-Serif" font-size="10.00">_msg_from_queue</text>
</a>
</g>
</g>
<!-- Node1&#45;&gt;Node18 -->
<g id="edge32" class="edge">
<title>Node1&#45;&gt;Node18</title>
<path fill="none" stroke="midnightblue" d="M117.71,-240.8C141.13,-226.51 174.31,-208.4 206,-198.57 270.02,-178.7 345.08,-169.99 403.41,-166.23"/>
<polygon fill="midnightblue" stroke="midnightblue" points="403.96,-169.7 413.73,-165.6 403.53,-162.71 403.96,-169.7"/>
</g>
<!-- Node19 -->
<g id="node19" class="node">
<title>Node19</title>
<g id="a_node19"><a xlink:href="namespaceklyqa__ctl_1_1general_1_1general.html#ad6b753e482e539892c57f8144cf213cb" target="_top" xlink:title=" ">
<polygon fill="white" stroke="black" points="419.5,-93.57 419.5,-123.57 583.5,-123.57 583.5,-93.57 419.5,-93.57"/>
<text text-anchor="start" x="427.5" y="-111.57" font-family="Helvetica,sans-Serif" font-size="10.00">klyqa_ctl.general.general.task</text>
<text text-anchor="middle" x="501.5" y="-100.57" font-family="Helvetica,sans-Serif" font-size="10.00">_log_trace_ex</text>
</a>
</g>
</g>
<!-- Node1&#45;&gt;Node19 -->
<g id="edge37" class="edge">
<title>Node1&#45;&gt;Node19</title>
<path fill="none" stroke="midnightblue" d="M105.11,-240.96C127.17,-218.5 165.65,-183.26 206,-164.57 270.17,-134.84 349.2,-120.89 409.22,-114.35"/>
<polygon fill="midnightblue" stroke="midnightblue" points="409.86,-117.8 419.44,-113.29 409.14,-110.84 409.86,-117.8"/>
</g>
<!-- Node21 -->
<g id="node21" class="node">
<title>Node21</title>
<g id="a_node21"><a xlink:href="namespaceklyqa__ctl_1_1general_1_1general.html#abab49b300927a080244615ee3ab494e3" target="_top" xlink:title=" ">
<polygon fill="white" stroke="black" points="419.5,-28.57 419.5,-58.57 583.5,-58.57 583.5,-28.57 419.5,-28.57"/>
<text text-anchor="start" x="427.5" y="-46.57" font-family="Helvetica,sans-Serif" font-size="10.00">klyqa_ctl.general.general.task</text>
<text text-anchor="middle" x="501.5" y="-35.57" font-family="Helvetica,sans-Serif" font-size="10.00">_log_error</text>
</a>
</g>
</g>
<!-- Node1&#45;&gt;Node21 -->
<g id="edge35" class="edge">
<title>Node1&#45;&gt;Node21</title>
<path fill="none" stroke="midnightblue" d="M96.5,-241.05C114.31,-208.46 153.67,-145.3 206,-113.57 272.7,-73.12 302.22,-97.07 378,-78.57 398.87,-73.47 421.53,-67.21 441.62,-61.39"/>
<polygon fill="midnightblue" stroke="midnightblue" points="442.64,-64.74 451.26,-58.58 440.68,-58.02 442.64,-64.74"/>
</g>
<!-- Node8 -->
<g id="node8" class="node">
<title>Node8</title>
<g id="a_node8"><a xlink:href="classlocal_1_1connection__handler_1_1LocalConnectionHandler.html#aaa28266e241c2e30e8acd468fab06fde" target="_top" xlink:title=" ">
<polygon fill="white" stroke="black" points="414,-241.07 414,-282.07 589,-282.07 589,-241.07 414,-241.07"/>
<text text-anchor="start" x="422" y="-270.07" font-family="Helvetica,sans-Serif" font-size="10.00">local.connection_handler.</text>
<text text-anchor="start" x="422" y="-259.07" font-family="Helvetica,sans-Serif" font-size="10.00">LocalConnectionHandler.process</text>
<text text-anchor="middle" x="501.5" y="-248.07" font-family="Helvetica,sans-Serif" font-size="10.00">_tcp_package</text>
</a>
</g>
</g>
<!-- Node7&#45;&gt;Node8 -->
<g id="edge7" class="edge">
<title>Node7&#45;&gt;Node8</title>
<path fill="none" stroke="midnightblue" d="M377.1,-261.57C385.91,-261.57 394.93,-261.57 403.87,-261.57"/>
<polygon fill="midnightblue" stroke="midnightblue" points="403.92,-265.07 413.92,-261.57 403.92,-258.07 403.92,-265.07"/>
</g>
<!-- Node7&#45;&gt;Node10 -->
<g id="edge28" class="edge">
<title>Node7&#45;&gt;Node10</title>
<path fill="none" stroke="midnightblue" d="M367.8,-282.12C383,-285.73 398.94,-289.11 414,-291.57 696.05,-337.58 778.8,-359.95 1057,-294.57 1093.83,-285.91 1133.43,-267.2 1158.55,-254.01"/>
<polygon fill="midnightblue" stroke="midnightblue" points="1160.27,-257.06 1167.44,-249.26 1156.97,-250.89 1160.27,-257.06"/>
</g>
<!-- Node7&#45;&gt;Node18 -->
<g id="edge26" class="edge">
<title>Node7&#45;&gt;Node18</title>
<path fill="none" stroke="midnightblue" d="M336.5,-241.02C368.87,-225.73 413.22,-204.79 447.63,-188.54"/>
<polygon fill="midnightblue" stroke="midnightblue" points="449.51,-191.52 457.06,-184.08 446.52,-185.19 449.51,-191.52"/>
</g>
<!-- Node7&#45;&gt;Node19 -->
<g id="edge29" class="edge">
<title>Node7&#45;&gt;Node19</title>
<path fill="none" stroke="midnightblue" d="M306.91,-241.05C327.18,-212.71 367.52,-161.9 414,-133.57 417.43,-131.48 421.04,-129.55 424.77,-127.78"/>
<polygon fill="midnightblue" stroke="midnightblue" points="426.43,-130.88 434.22,-123.7 423.65,-124.45 426.43,-130.88"/>
</g>
<!-- Node9 -->
<g id="node9" class="node">
<title>Node9</title>
<g id="a_node9"><a xlink:href="classlocal_1_1connection__handler_1_1LocalConnectionHandler.html#ad1b4bfaedd513acfccbf1b12e36d5469" target="_top" xlink:title=" ">
<polygon fill="white" stroke="black" points="625,-241.07 625,-282.07 800,-282.07 800,-241.07 625,-241.07"/>
<text text-anchor="start" x="633" y="-270.07" font-family="Helvetica,sans-Serif" font-size="10.00">local.connection_handler.</text>
<text text-anchor="start" x="633" y="-259.07" font-family="Helvetica,sans-Serif" font-size="10.00">LocalConnectionHandler.process</text>
<text text-anchor="middle" x="712.5" y="-248.07" font-family="Helvetica,sans-Serif" font-size="10.00">_aes_initial_vector_package</text>
</a>
</g>
</g>
<!-- Node8&#45;&gt;Node9 -->
<g id="edge8" class="edge">
<title>Node8&#45;&gt;Node9</title>
<path fill="none" stroke="midnightblue" d="M589.02,-261.57C597.49,-261.57 606.13,-261.57 614.7,-261.57"/>
<polygon fill="midnightblue" stroke="midnightblue" points="614.71,-265.07 624.71,-261.57 614.71,-258.07 614.71,-265.07"/>
</g>
<!-- Node8&#45;&gt;Node10 -->
<g id="edge25" class="edge">
<title>Node8&#45;&gt;Node10</title>
<path fill="none" stroke="midnightblue" d="M573.87,-282.1C590.51,-286.03 608.26,-289.55 625,-291.57 812.55,-314.2 1036.5,-272.84 1134.47,-251.35"/>
<polygon fill="midnightblue" stroke="midnightblue" points="1135.39,-254.73 1144.39,-249.14 1133.87,-247.89 1135.39,-254.73"/>
</g>
<!-- Node13 -->
<g id="node13" class="node">
<title>Node13</title>
<g id="a_node13"><a xlink:href="classlocal_1_1connection__handler_1_1LocalConnectionHandler.html#a4ce11db96280d000941a91cb37df2842" target="_top" xlink:title=" ">
<polygon fill="white" stroke="black" points="625,-473.07 625,-514.07 800,-514.07 800,-473.07 625,-473.07"/>
<text text-anchor="start" x="633" y="-502.07" font-family="Helvetica,sans-Serif" font-size="10.00">local.connection_handler.</text>
<text text-anchor="start" x="633" y="-491.07" font-family="Helvetica,sans-Serif" font-size="10.00">LocalConnectionHandler.process</text>
<text text-anchor="middle" x="712.5" y="-480.07" font-family="Helvetica,sans-Serif" font-size="10.00">_device_identity_package</text>
</a>
</g>
</g>
<!-- Node8&#45;&gt;Node13 -->
<g id="edge13" class="edge">
<title>Node8&#45;&gt;Node13</title>
<path fill="none" stroke="midnightblue" d="M521.05,-282.16C558.62,-323.86 643.74,-418.36 686.3,-465.59"/>
<polygon fill="midnightblue" stroke="midnightblue" points="683.7,-467.94 692.99,-473.02 688.9,-463.25 683.7,-467.94"/>
</g>
<!-- Node17 -->
<g id="node17" class="node">
<title>Node17</title>
<g id="a_node17"><a xlink:href="classlocal_1_1connection__handler_1_1LocalConnectionHandler.html#a46f68728bc59f0e5991bc390f67f2685" target="_top" xlink:title=" ">
<polygon fill="white" stroke="black" points="625,-143.07 625,-184.07 800,-184.07 800,-143.07 625,-143.07"/>
<text text-anchor="start" x="633" y="-172.07" font-family="Helvetica,sans-Serif" font-size="10.00">local.connection_handler.</text>
<text text-anchor="start" x="633" y="-161.07" font-family="Helvetica,sans-Serif" font-size="10.00">LocalConnectionHandler.process</text>
<text text-anchor="middle" x="712.5" y="-150.07" font-family="Helvetica,sans-Serif" font-size="10.00">_message_answer_package</text>
</a>
</g>
</g>
<!-- Node8&#45;&gt;Node17 -->
<g id="edge22" class="edge">
<title>Node8&#45;&gt;Node17</title>
<path fill="none" stroke="midnightblue" d="M546.31,-241.02C578.92,-225.73 623.58,-204.79 658.25,-188.54"/>
<polygon fill="midnightblue" stroke="midnightblue" points="660.18,-191.5 667.74,-184.08 657.2,-185.16 660.18,-191.5"/>
</g>
<!-- Node9&#45;&gt;Node10 -->
<g id="edge9" class="edge">
<title>Node9&#45;&gt;Node10</title>
<path fill="none" stroke="midnightblue" d="M800.16,-257.52C879.95,-253.79 998.35,-248.26 1082.63,-244.33"/>
<polygon fill="midnightblue" stroke="midnightblue" points="1082.91,-247.82 1092.73,-243.85 1082.58,-240.82 1082.91,-247.82"/>
</g>
<!-- Node9&#45;&gt;Node12 -->
<g id="edge11" class="edge">
<title>Node9&#45;&gt;Node12</title>
<path fill="none" stroke="midnightblue" d="M800.22,-245.12C818.55,-241.64 837.92,-237.97 856.34,-234.48"/>
<polygon fill="midnightblue" stroke="midnightblue" points="856.99,-237.92 866.16,-232.61 855.68,-231.04 856.99,-237.92"/>
</g>
<!-- Node11 -->
<g id="node11" class="node">
<title>Node11</title>
<g id="a_node11"><a xlink:href="namespaceklyqa__ctl_1_1general_1_1general.html#aea905150cafee39fa2ca211f1e60f012" target="_top" xlink:title=" ">
<polygon fill="white" stroke="black" points="1314,-230.07 1314,-249.07 1511,-249.07 1511,-230.07 1314,-230.07"/>
<text text-anchor="middle" x="1412.5" y="-237.07" font-family="Helvetica,sans-Serif" font-size="10.00">klyqa_ctl.general.general.task_name</text>
</a>
</g>
</g>
<!-- Node10&#45;&gt;Node11 -->
<g id="edge10" class="edge">
<title>Node10&#45;&gt;Node11</title>
<path fill="none" stroke="midnightblue" d="M1278.02,-239.57C1286.5,-239.57 1295.15,-239.57 1303.76,-239.57"/>
<polygon fill="midnightblue" stroke="midnightblue" points="1303.83,-243.07 1313.83,-239.57 1303.83,-236.07 1303.83,-243.07"/>
</g>
<!-- Node12&#45;&gt;Node10 -->
<g id="edge12" class="edge">
<title>Node12&#45;&gt;Node10</title>
<path fill="none" stroke="midnightblue" d="M1028.73,-225.11C1046.14,-226.72 1064.75,-228.45 1082.82,-230.13"/>
<polygon fill="midnightblue" stroke="midnightblue" points="1082.52,-233.62 1092.8,-231.05 1083.16,-226.65 1082.52,-233.62"/>
</g>
<!-- Node13&#45;&gt;Node3 -->
<g id="edge17" class="edge">
<title>Node13&#45;&gt;Node3</title>
<path fill="none" stroke="midnightblue" d="M731.05,-514.15C749.26,-535.92 778.07,-571.62 800,-604.57 818.08,-631.74 809.35,-649.73 836,-668.57 838.76,-670.52 841.65,-672.29 844.65,-673.89"/>
<polygon fill="midnightblue" stroke="midnightblue" points="843.37,-677.16 853.91,-678.25 846.35,-670.83 843.37,-677.16"/>
</g>
<!-- Node13&#45;&gt;Node4 -->
<g id="edge18" class="edge">
<title>Node13&#45;&gt;Node4</title>
<path fill="none" stroke="midnightblue" d="M741.7,-514.17C759.5,-527.92 782.38,-547 800,-566.57 819.06,-587.72 812.42,-603.61 836,-619.57 840.27,-622.46 844.83,-625.01 849.58,-627.26"/>
<polygon fill="midnightblue" stroke="midnightblue" points="848.33,-630.53 858.9,-631.22 851.07,-624.09 848.33,-630.53"/>
</g>
<!-- Node13&#45;&gt;Node5 -->
<g id="edge19" class="edge">
<title>Node13&#45;&gt;Node5</title>
<path fill="none" stroke="midnightblue" d="M773.72,-514.26C782.84,-518.43 791.9,-523.2 800,-528.57 818.87,-541.06 816.44,-553.2 836,-564.57 843.62,-568.99 851.91,-572.79 860.41,-576.04"/>
<polygon fill="midnightblue" stroke="midnightblue" points="859.48,-579.42 870.07,-579.48 861.83,-572.82 859.48,-579.42"/>
</g>
<!-- Node13&#45;&gt;Node10 -->
<g id="edge20" class="edge">
<title>Node13&#45;&gt;Node10</title>
<path fill="none" stroke="midnightblue" d="M767.26,-514.08C788.36,-521.11 812.99,-528.08 836,-531.57 933.11,-546.28 974.82,-585.36 1057,-531.57 1153.57,-468.36 1177.42,-314.2 1182.94,-259.35"/>
<polygon fill="midnightblue" stroke="midnightblue" points="1186.44,-259.49 1183.86,-249.22 1179.47,-258.86 1186.44,-259.49"/>
</g>
<!-- Node13&#45;&gt;Node12 -->
<g id="edge21" class="edge">
<title>Node13&#45;&gt;Node12</title>
<path fill="none" stroke="midnightblue" d="M730.94,-472.82C773.35,-422.37 881.66,-293.51 926.07,-240.69"/>
<polygon fill="midnightblue" stroke="midnightblue" points="928.87,-242.79 932.62,-232.89 923.51,-238.29 928.87,-242.79"/>
</g>
<!-- Node14 -->
<g id="node14" class="node">
<title>Node14</title>
<g id="a_node14"><a xlink:href="classklyqa__ctl_1_1account_1_1Account.html#a7bcb9ac9804621630ea08a688abecd18" target="_top" xlink:title=" ">
<polygon fill="white" stroke="black" points="836,-503.07 836,-522.07 1057,-522.07 1057,-503.07 836,-503.07"/>
<text text-anchor="middle" x="946.5" y="-510.07" font-family="Helvetica,sans-Serif" font-size="10.00">klyqa_ctl.account.Account.controller_data</text>
</a>
</g>
</g>
<!-- Node13&#45;&gt;Node14 -->
<g id="edge14" class="edge">
<title>Node13&#45;&gt;Node14</title>
<path fill="none" stroke="midnightblue" d="M800.22,-500.67C808.54,-501.35 817.08,-502.05 825.65,-502.75"/>
<polygon fill="midnightblue" stroke="midnightblue" points="825.46,-506.25 835.71,-503.58 826.03,-499.27 825.46,-506.25"/>
</g>
<!-- Node15 -->
<g id="node15" class="node">
<title>Node15</title>
<g id="a_node15"><a xlink:href="classcloud_1_1CloudBackend.html#aef174fe1ba95fff13c7901ff56354ec9" target="_top" xlink:title=" ">
<polygon fill="white" stroke="black" points="851,-465.07 851,-484.07 1042,-484.07 1042,-465.07 851,-465.07"/>
<text text-anchor="middle" x="946.5" y="-472.07" font-family="Helvetica,sans-Serif" font-size="10.00">cloud.CloudBackend.controller_data</text>
</a>
</g>
</g>
<!-- Node13&#45;&gt;Node15 -->
<g id="edge15" class="edge">
<title>Node13&#45;&gt;Node15</title>
<path fill="none" stroke="midnightblue" d="M800.22,-486.47C813.35,-485.39 827.01,-484.27 840.47,-483.17"/>
<polygon fill="midnightblue" stroke="midnightblue" points="841.04,-486.63 850.72,-482.33 840.47,-479.66 841.04,-486.63"/>
</g>
<!-- Node16 -->
<g id="node16" class="node">
<title>Node16</title>
<g id="a_node16"><a xlink:href="classlocal_1_1connection__handler_1_1LocalConnectionHandler.html#a8f938ae53b3c24bbdc02f377671cf263" target="_top" xlink:title=" ">
<polygon fill="white" stroke="black" points="841,-415.57 841,-445.57 1052,-445.57 1052,-415.57 841,-415.57"/>
<text text-anchor="start" x="849" y="-433.57" font-family="Helvetica,sans-Serif" font-size="10.00">local.connection_handler.</text>
<text text-anchor="middle" x="946.5" y="-422.57" font-family="Helvetica,sans-Serif" font-size="10.00">LocalConnectionHandler.controller_data</text>
</a>
</g>
</g>
<!-- Node13&#45;&gt;Node16 -->
<g id="edge16" class="edge">
<title>Node13&#45;&gt;Node16</title>
<path fill="none" stroke="midnightblue" d="M776.5,-473.02C795.53,-467.08 816.54,-460.8 836,-455.57 845.78,-452.94 856.09,-450.35 866.32,-447.89"/>
<polygon fill="midnightblue" stroke="midnightblue" points="867.16,-451.29 876.08,-445.57 865.55,-444.48 867.16,-451.29"/>
</g>
<!-- Node17&#45;&gt;Node10 -->
<g id="edge23" class="edge">
<title>Node17&#45;&gt;Node10</title>
<path fill="none" stroke="midnightblue" d="M800.19,-164.95C870.21,-167.54 970.91,-174.62 1057,-193.57 1091.08,-201.07 1128.47,-215.32 1153.89,-225.98"/>
<polygon fill="midnightblue" stroke="midnightblue" points="1152.78,-229.31 1163.35,-230.01 1155.52,-222.87 1152.78,-229.31"/>
</g>
<!-- Node17&#45;&gt;Node12 -->
<g id="edge24" class="edge">
<title>Node17&#45;&gt;Node12</title>
<path fill="none" stroke="midnightblue" d="M800.22,-183.75C823.54,-189.18 848.55,-195 871.13,-200.26"/>
<polygon fill="midnightblue" stroke="midnightblue" points="870.45,-203.69 880.98,-202.55 872.03,-196.87 870.45,-203.69"/>
</g>
<!-- Node18&#45;&gt;Node10 -->
<g id="edge27" class="edge">
<title>Node18&#45;&gt;Node10</title>
<path fill="none" stroke="midnightblue" d="M573.87,-143.04C590.51,-139.11 608.26,-135.59 625,-133.57 816.05,-110.51 874.82,-100.61 1057,-162.57 1098.43,-176.66 1140.8,-205.76 1164.76,-223.88"/>
<polygon fill="midnightblue" stroke="midnightblue" points="1162.66,-226.68 1172.72,-230.01 1166.93,-221.13 1162.66,-226.68"/>
</g>
<!-- Node20 -->
<g id="node20" class="node">
<title>Node20</title>
<g id="a_node20"><a xlink:href="namespaceklyqa__ctl_1_1general_1_1general.html#ab2f9a22e98cd16d0d284d22382cfcb02" target="_top" xlink:title=" ">
<polygon fill="white" stroke="black" points="630.5,-55.57 630.5,-85.57 794.5,-85.57 794.5,-55.57 630.5,-55.57"/>
<text text-anchor="start" x="638.5" y="-73.57" font-family="Helvetica,sans-Serif" font-size="10.00">klyqa_ctl.general.general.task</text>
<text text-anchor="middle" x="712.5" y="-62.57" font-family="Helvetica,sans-Serif" font-size="10.00">_log_trace</text>
</a>
</g>
</g>
<!-- Node19&#45;&gt;Node20 -->
<g id="edge30" class="edge">
<title>Node19&#45;&gt;Node20</title>
<path fill="none" stroke="midnightblue" d="M583.6,-93.82C595.62,-91.64 608.06,-89.37 620.26,-87.16"/>
<polygon fill="midnightblue" stroke="midnightblue" points="621.23,-90.54 630.44,-85.3 619.98,-83.65 621.23,-90.54"/>
</g>
<!-- Node20&#45;&gt;Node10 -->
<g id="edge31" class="edge">
<title>Node20&#45;&gt;Node10</title>
<path fill="none" stroke="midnightblue" d="M794.61,-61.63C867.15,-57.25 974.44,-59.89 1057,-100.57 1112.13,-127.73 1154.96,-189.78 1173.89,-220.96"/>
<polygon fill="midnightblue" stroke="midnightblue" points="1171.08,-223.09 1179.18,-229.91 1177.1,-219.52 1171.08,-223.09"/>
</g>
<!-- Node21&#45;&gt;Node10 -->
<g id="edge36" class="edge">
<title>Node21&#45;&gt;Node10</title>
<path fill="none" stroke="midnightblue" d="M560.42,-28.52C666.48,-4.35 895.82,32.02 1057,-56.57 1123.52,-93.13 1162.93,-181 1177.74,-220.16"/>
<polygon fill="midnightblue" stroke="midnightblue" points="1174.48,-221.44 1181.19,-229.63 1181.05,-219.04 1174.48,-221.44"/>
</g>
</g>
</svg>
