<?xml version="1.0" encoding="UTF-8" standalone="no"?>
<!DOCTYPE svg PUBLIC "-//W3C//DTD SVG 1.1//EN"
 "http://www.w3.org/Graphics/SVG/1.1/DTD/svg11.dtd">
<!-- Generated by graphviz version 2.43.0 (0)
 -->
<!-- Title: klyqa_ctl.account.Account.request_beared Pages: 1 -->
<!--zoomable 676 -->
<svg id="main" version="1.1" xmlns="http://www.w3.org/2000/svg" xmlns:xlink="http://www.w3.org/1999/xlink" xml:space="preserve" onload="init(evt)">
<style type="text/css"><![CDATA[
.edge:hover path { stroke: red; }
.edge:hover polygon { stroke: red; fill: red; }
]]></style>
<script type="text/javascript"><![CDATA[
var edges = document.getElementsByTagName('g');
if (edges && edges.length) {
  for (var i=0;i<edges.length;i++) {
    if (edges[i].id.substr(0,4)=='edge') {
      edges[i].setAttribute('class','edge');
    }
  }
}
]]></script>
        <defs>
                <circle id="rim" cx="0" cy="0" r="7"/>
                <circle id="rim2" cx="0" cy="0" r="3.5"/>
                <g id="zoomPlus">
                        <use xlink:href="#rim" fill="#404040">
                                <set attributeName="fill" to="#808080" begin="zoomplus.mouseover" end="zoomplus.mouseout"/>
                        </use>
                        <path d="M-4,0h8M0,-4v8" fill="none" stroke="white" stroke-width="1.5" pointer-events="none"/>
                </g>
                <g id="zoomMin">
                        <use xlink:href="#rim" fill="#404040">
                                <set attributeName="fill" to="#808080" begin="zoomminus.mouseover" end="zoomminus.mouseout"/>
                        </use>
                        <path d="M-4,0h8" fill="none" stroke="white" stroke-width="1.5" pointer-events="none"/>
                </g>
                <g id="dirArrow">
                        <path fill="none" stroke="white" stroke-width="1.5" d="M0,-3.0v7 M-2.5,-0.5L0,-3.0L2.5,-0.5"/>
                </g>
               <g id="resetDef">
                       <use xlink:href="#rim2" fill="#404040">
                               <set attributeName="fill" to="#808080" begin="reset.mouseover" end="reset.mouseout"/>
                       </use>
               </g>
        </defs>

<script type="text/javascript">
var viewWidth = 1326;
var viewHeight = 676;
var sectionId = 'dynsection-34';
</script>
<script xlink:href="svgpan.js"/>
<svg id="graph" class="graph">
<g id="viewport">
<title>klyqa_ctl.account.Account.request_beared</title>
<polygon fill="white" stroke="transparent" points="-4,4 -4,-672 1322,-672 1322,4 -4,4"/>
<!-- Node1 -->
<g id="node1" class="node">
<title>Node1</title>
<g id="a_node1"><a xlink:title=" ">
<polygon fill="#bfbfbf" stroke="black" points="0,-336.5 0,-366.5 184,-366.5 184,-336.5 0,-336.5"/>
<text text-anchor="start" x="8" y="-354.5" font-family="Helvetica,sans-Serif" font-size="10.00">klyqa_ctl.account.Account.request</text>
<text text-anchor="middle" x="92" y="-343.5" font-family="Helvetica,sans-Serif" font-size="10.00">_beared</text>
</a>
</g>
</g>
<!-- Node2 -->
<g id="node2" class="node">
<title>Node2</title>
<g id="a_node2"><a xlink:href="classklyqa__ctl_1_1account_1_1Account.html#aeb463ade6756bf093a809634f64c6ef6" target="_top" xlink:title=" ">
<polygon fill="white" stroke="black" points="419,-445 419,-464 592,-464 592,-445 419,-445"/>
<text text-anchor="middle" x="505.5" y="-452" font-family="Helvetica,sans-Serif" font-size="10.00">klyqa_ctl.account.Account.cloud</text>
</a>
</g>
</g>
<!-- Node1&#45;&gt;Node2 -->
<g id="edge1" class="edge">
<title>Node1&#45;&gt;Node2</title>
<path fill="none" stroke="midnightblue" d="M115.27,-366.73C139.78,-382.68 180.9,-407.1 220,-419.5 280.96,-438.83 352.4,-447.57 408.45,-451.48"/>
<polygon fill="midnightblue" stroke="midnightblue" points="408.52,-455 418.73,-452.16 408.98,-448.01 408.52,-455"/>
</g>
<!-- Node3 -->
<g id="node3" class="node">
<title>Node3</title>
<g id="a_node3"><a xlink:href="classklyqa__ctl_1_1devices_1_1device_1_1Device.html#a574647293c61d5f53e153d48ddb31f65" target="_top" xlink:title=" ">
<polygon fill="white" stroke="black" points="435.5,-394.5 435.5,-424.5 575.5,-424.5 575.5,-394.5 435.5,-394.5"/>
<text text-anchor="start" x="443.5" y="-412.5" font-family="Helvetica,sans-Serif" font-size="10.00">klyqa_ctl.devices.device.</text>
<text text-anchor="middle" x="505.5" y="-401.5" font-family="Helvetica,sans-Serif" font-size="10.00">Device.cloud</text>
</a>
</g>
</g>
<!-- Node1&#45;&gt;Node3 -->
<g id="edge2" class="edge">
<title>Node1&#45;&gt;Node3</title>
<path fill="none" stroke="midnightblue" d="M125.07,-366.59C150.26,-377.65 186.57,-391.84 220,-398.5 288.37,-412.11 367.75,-414.07 425.27,-413.07"/>
<polygon fill="midnightblue" stroke="midnightblue" points="425.46,-416.57 435.38,-412.87 425.31,-409.57 425.46,-416.57"/>
</g>
<!-- Node4 -->
<g id="node4" class="node">
<title>Node4</title>
<g id="a_node4"><a xlink:href="classklyqa__ctl_1_1general_1_1general_1_1Command.html#a4aa9e4db12aecf5520e974204c635d38" target="_top" xlink:title=" ">
<polygon fill="white" stroke="black" points="434,-294.5 434,-324.5 577,-324.5 577,-294.5 434,-294.5"/>
<text text-anchor="start" x="442" y="-312.5" font-family="Helvetica,sans-Serif" font-size="10.00">klyqa_ctl.general.general.</text>
<text text-anchor="middle" x="505.5" y="-301.5" font-family="Helvetica,sans-Serif" font-size="10.00">Command.cloud</text>
</a>
</g>
</g>
<!-- Node1&#45;&gt;Node4 -->
<g id="edge3" class="edge">
<title>Node1&#45;&gt;Node4</title>
<path fill="none" stroke="midnightblue" d="M184.07,-342.2C255.67,-334.9 354.51,-324.81 423.41,-317.78"/>
<polygon fill="midnightblue" stroke="midnightblue" points="424.18,-321.22 433.77,-316.72 423.47,-314.25 424.18,-321.22"/>
</g>
<!-- Node32 -->
<g id="node32" class="node">
<title>Node32</title>
<g id="a_node32"><a xlink:href="classklyqa__ctl_1_1general_1_1general_1_1CloudStateCommand.html#a6bbc8b1333f0a45ce38f1e81a6093bc1" target="_top" xlink:title=" ">
<polygon fill="white" stroke="black" points="431,-343.5 431,-373.5 580,-373.5 580,-343.5 431,-343.5"/>
<text text-anchor="start" x="439" y="-361.5" font-family="Helvetica,sans-Serif" font-size="10.00">klyqa_ctl.general.general.</text>
<text text-anchor="middle" x="505.5" y="-350.5" font-family="Helvetica,sans-Serif" font-size="10.00">CloudStateCommand.cloud</text>
</a>
</g>
</g>
<!-- Node1&#45;&gt;Node32 -->
<g id="edge31" class="edge">
<title>Node1&#45;&gt;Node32</title>
<path fill="none" stroke="midnightblue" d="M184.13,-348.82C241.27,-347.65 316.46,-347.04 383,-349.5 395.26,-349.95 408.2,-350.66 420.88,-351.49"/>
<polygon fill="midnightblue" stroke="midnightblue" points="420.77,-354.99 430.98,-352.18 421.24,-348.01 420.77,-354.99"/>
</g>
<!-- Node33 -->
<g id="node33" class="node">
<title>Node33</title>
<g id="a_node33"><a xlink:href="classklyqa__ctl_1_1klyqa__ctl_1_1Client.html#a7d8a302d936e8e1889f175bac259f565" target="_top" xlink:title=" ">
<polygon fill="white" stroke="black" points="421,-252 421,-271 590,-271 590,-252 421,-252"/>
<text text-anchor="middle" x="505.5" y="-259" font-family="Helvetica,sans-Serif" font-size="10.00">klyqa_ctl.klyqa_ctl.Client.cloud</text>
</a>
</g>
</g>
<!-- Node1&#45;&gt;Node33 -->
<g id="edge46" class="edge">
<title>Node1&#45;&gt;Node33</title>
<path fill="none" stroke="midnightblue" d="M148.16,-336.44C170.4,-330.56 196.36,-323.94 220,-318.5 296.18,-300.98 384.55,-283.76 442.33,-272.91"/>
<polygon fill="midnightblue" stroke="midnightblue" points="443.21,-276.3 452.4,-271.02 441.92,-269.42 443.21,-276.3"/>
</g>
<!-- Node34 -->
<g id="node34" class="node">
<title>Node34</title>
<g id="a_node34"><a xlink:href="classklyqa__ctl_1_1account_1_1Account.html#ad608e3ee0ba1199f509e644a11081724" target="_top" xlink:title=" ">
<polygon fill="white" stroke="black" points="220,-358.5 220,-388.5 383,-388.5 383,-358.5 220,-358.5"/>
<text text-anchor="start" x="228" y="-376.5" font-family="Helvetica,sans-Serif" font-size="10.00">klyqa_ctl.account.Account.get</text>
<text text-anchor="middle" x="301.5" y="-365.5" font-family="Helvetica,sans-Serif" font-size="10.00">_beared_request_header</text>
</a>
</g>
</g>
<!-- Node1&#45;&gt;Node34 -->
<g id="edge47" class="edge">
<title>Node1&#45;&gt;Node34</title>
<path fill="none" stroke="midnightblue" d="M184.01,-361.15C192.62,-362.06 201.35,-362.99 209.95,-363.9"/>
<polygon fill="midnightblue" stroke="midnightblue" points="209.67,-367.39 219.99,-364.96 210.41,-360.43 209.67,-367.39"/>
</g>
<!-- Node5 -->
<g id="node5" class="node">
<title>Node5</title>
<g id="a_node5"><a xlink:href="classklyqa__ctl_1_1devices_1_1light_1_1commands_1_1FwUpdateCommand.html#a9de3441c7fbba5f5a19ea914970a3db7" target="_top" xlink:title=" ">
<polygon fill="white" stroke="black" points="636.5,-637.5 636.5,-667.5 822.5,-667.5 822.5,-637.5 636.5,-637.5"/>
<text text-anchor="start" x="644.5" y="-655.5" font-family="Helvetica,sans-Serif" font-size="10.00">klyqa_ctl.devices.light.commands.</text>
<text text-anchor="middle" x="729.5" y="-644.5" font-family="Helvetica,sans-Serif" font-size="10.00">FwUpdateCommand.json</text>
</a>
</g>
</g>
<!-- Node4&#45;&gt;Node5 -->
<g id="edge4" class="edge">
<title>Node4&#45;&gt;Node5</title>
<path fill="none" stroke="midnightblue" d="M577.04,-322.32C582.67,-325.55 587.8,-329.55 592,-334.5 677.22,-434.84 540.3,-530.33 628,-628.5 628.65,-629.23 629.33,-629.94 630.01,-630.63"/>
<polygon fill="midnightblue" stroke="midnightblue" points="628.07,-633.57 637.99,-637.31 632.57,-628.21 628.07,-633.57"/>
</g>
<!-- Node7 -->
<g id="node7" class="node">
<title>Node7</title>
<g id="a_node7"><a xlink:href="classklyqa__ctl_1_1devices_1_1light_1_1commands_1_1TransitionCommand.html#aaf9d8431e346c86b9959102c2d7f3316" target="_top" xlink:title=" ">
<polygon fill="white" stroke="black" points="636.5,-294.5 636.5,-324.5 822.5,-324.5 822.5,-294.5 636.5,-294.5"/>
<text text-anchor="start" x="644.5" y="-312.5" font-family="Helvetica,sans-Serif" font-size="10.00">klyqa_ctl.devices.light.commands.</text>
<text text-anchor="middle" x="729.5" y="-301.5" font-family="Helvetica,sans-Serif" font-size="10.00">TransitionCommand.json</text>
</a>
</g>
</g>
<!-- Node4&#45;&gt;Node7 -->
<g id="edge6" class="edge">
<title>Node4&#45;&gt;Node7</title>
<path fill="none" stroke="midnightblue" d="M577.05,-309.5C592.61,-309.5 609.4,-309.5 625.94,-309.5"/>
<polygon fill="midnightblue" stroke="midnightblue" points="626.19,-313 636.19,-309.5 626.19,-306 626.19,-313"/>
</g>
<!-- Node8 -->
<g id="node8" class="node">
<title>Node8</title>
<g id="a_node8"><a xlink:href="classklyqa__ctl_1_1devices_1_1light_1_1commands_1_1ColorCommand.html#afa8f262e4047666707237c4dfe8615c3" target="_top" xlink:title=" ">
<polygon fill="white" stroke="black" points="636.5,-588.5 636.5,-618.5 822.5,-618.5 822.5,-588.5 636.5,-588.5"/>
<text text-anchor="start" x="644.5" y="-606.5" font-family="Helvetica,sans-Serif" font-size="10.00">klyqa_ctl.devices.light.commands.</text>
<text text-anchor="middle" x="729.5" y="-595.5" font-family="Helvetica,sans-Serif" font-size="10.00">ColorCommand.json</text>
</a>
</g>
</g>
<!-- Node4&#45;&gt;Node8 -->
<g id="edge7" class="edge">
<title>Node4&#45;&gt;Node8</title>
<path fill="none" stroke="midnightblue" d="M577.32,-322.66C582.82,-325.82 587.84,-329.72 592,-334.5 664.25,-417.52 553.7,-498.31 628,-579.5 628.66,-580.22 629.34,-580.93 630.04,-581.61"/>
<polygon fill="midnightblue" stroke="midnightblue" points="628.14,-584.58 638.08,-588.22 632.58,-579.17 628.14,-584.58"/>
</g>
<!-- Node11 -->
<g id="node11" class="node">
<title>Node11</title>
<g id="a_node11"><a xlink:href="classklyqa__ctl_1_1devices_1_1light_1_1commands_1_1TemperatureCommand.html#aaa297cd598227ab2f33a6d111532e5e0" target="_top" xlink:title=" ">
<polygon fill="white" stroke="black" points="636.5,-539.5 636.5,-569.5 822.5,-569.5 822.5,-539.5 636.5,-539.5"/>
<text text-anchor="start" x="644.5" y="-557.5" font-family="Helvetica,sans-Serif" font-size="10.00">klyqa_ctl.devices.light.commands.</text>
<text text-anchor="middle" x="729.5" y="-546.5" font-family="Helvetica,sans-Serif" font-size="10.00">TemperatureCommand.json</text>
</a>
</g>
</g>
<!-- Node4&#45;&gt;Node11 -->
<g id="edge10" class="edge">
<title>Node4&#45;&gt;Node11</title>
<path fill="none" stroke="midnightblue" d="M577.14,-322.82C582.67,-325.95 587.75,-329.79 592,-334.5 651.33,-400.26 567.05,-466.24 628,-530.5 628.8,-531.35 629.63,-532.16 630.48,-532.96"/>
<polygon fill="midnightblue" stroke="midnightblue" points="628.64,-535.97 638.67,-539.39 632.97,-530.46 628.64,-535.97"/>
</g>
<!-- Node14 -->
<g id="node14" class="node">
<title>Node14</title>
<g id="a_node14"><a xlink:href="classklyqa__ctl_1_1devices_1_1light_1_1commands_1_1BrightnessCommand.html#a946e7180dd8f3bd4621c23b24e63469a" target="_top" xlink:title=" ">
<polygon fill="white" stroke="black" points="636.5,-490.5 636.5,-520.5 822.5,-520.5 822.5,-490.5 636.5,-490.5"/>
<text text-anchor="start" x="644.5" y="-508.5" font-family="Helvetica,sans-Serif" font-size="10.00">klyqa_ctl.devices.light.commands.</text>
<text text-anchor="middle" x="729.5" y="-497.5" font-family="Helvetica,sans-Serif" font-size="10.00">BrightnessCommand.json</text>
</a>
</g>
</g>
<!-- Node4&#45;&gt;Node14 -->
<g id="edge13" class="edge">
<title>Node4&#45;&gt;Node14</title>
<path fill="none" stroke="midnightblue" d="M577.26,-323.31C582.7,-326.35 587.72,-330.03 592,-334.5 638.5,-383.1 580.3,-434.07 628,-481.5 628.97,-482.46 629.96,-483.39 630.99,-484.28"/>
<polygon fill="midnightblue" stroke="midnightblue" points="629.24,-487.33 639.36,-490.44 633.39,-481.69 629.24,-487.33"/>
</g>
<!-- Node17 -->
<g id="node17" class="node">
<title>Node17</title>
<g id="a_node17"><a xlink:href="classklyqa__ctl_1_1devices_1_1light_1_1commands_1_1ExternalSourceCommand.html#a393710b54f709b852bfd0f3769c39ce6" target="_top" xlink:title=" ">
<polygon fill="white" stroke="black" points="636.5,-98.5 636.5,-128.5 822.5,-128.5 822.5,-98.5 636.5,-98.5"/>
<text text-anchor="start" x="644.5" y="-116.5" font-family="Helvetica,sans-Serif" font-size="10.00">klyqa_ctl.devices.light.commands.</text>
<text text-anchor="middle" x="729.5" y="-105.5" font-family="Helvetica,sans-Serif" font-size="10.00">ExternalSourceCommand.json</text>
</a>
</g>
</g>
<!-- Node4&#45;&gt;Node17 -->
<g id="edge16" class="edge">
<title>Node4&#45;&gt;Node17</title>
<path fill="none" stroke="midnightblue" d="M573.59,-294.35C580.44,-290.69 586.79,-286.14 592,-280.5 636.44,-232.33 581.38,-183.56 628,-137.5 628.97,-136.54 629.97,-135.62 631,-134.73"/>
<polygon fill="midnightblue" stroke="midnightblue" points="633.39,-137.32 639.39,-128.58 629.25,-131.67 633.39,-137.32"/>
</g>
<!-- Node18 -->
<g id="node18" class="node">
<title>Node18</title>
<g id="a_node18"><a xlink:href="classklyqa__ctl_1_1devices_1_1light_1_1commands_1_1RoutineCommand.html#af3395a663a3dbdff8117ee708f80adec" target="_top" xlink:title=" ">
<polygon fill="white" stroke="black" points="636.5,-49.5 636.5,-79.5 822.5,-79.5 822.5,-49.5 636.5,-49.5"/>
<text text-anchor="start" x="644.5" y="-67.5" font-family="Helvetica,sans-Serif" font-size="10.00">klyqa_ctl.devices.light.commands.</text>
<text text-anchor="middle" x="729.5" y="-56.5" font-family="Helvetica,sans-Serif" font-size="10.00">RoutineCommand.json</text>
</a>
</g>
</g>
<!-- Node4&#45;&gt;Node18 -->
<g id="edge17" class="edge">
<title>Node4&#45;&gt;Node18</title>
<path fill="none" stroke="midnightblue" d="M574.35,-294.43C580.98,-290.75 587.07,-286.18 592,-280.5 648.89,-214.92 568.13,-151.38 628,-88.5 628.8,-87.66 629.63,-86.84 630.48,-86.05"/>
<polygon fill="midnightblue" stroke="midnightblue" points="632.97,-88.55 638.69,-79.63 628.65,-83.03 632.97,-88.55"/>
</g>
<!-- Node19 -->
<g id="node19" class="node">
<title>Node19</title>
<g id="a_node19"><a xlink:href="classklyqa__ctl_1_1devices_1_1vacuum_1_1commands_1_1ProductinfoCommand.html#a23d375f048835d4b0f12602764d2a6c1" target="_top" xlink:title=" ">
<polygon fill="white" stroke="black" points="628,-392.5 628,-422.5 831,-422.5 831,-392.5 628,-392.5"/>
<text text-anchor="start" x="636" y="-410.5" font-family="Helvetica,sans-Serif" font-size="10.00">klyqa_ctl.devices.vacuum.commands.</text>
<text text-anchor="middle" x="729.5" y="-399.5" font-family="Helvetica,sans-Serif" font-size="10.00">ProductinfoCommand.json</text>
</a>
</g>
</g>
<!-- Node4&#45;&gt;Node19 -->
<g id="edge18" class="edge">
<title>Node4&#45;&gt;Node19</title>
<path fill="none" stroke="midnightblue" d="M573.82,-324.51C580.24,-327.3 586.43,-330.6 592,-334.5 614.14,-350 605.48,-368.56 628,-383.5 630.45,-385.13 633,-386.64 635.63,-388.06"/>
<polygon fill="midnightblue" stroke="midnightblue" points="634.29,-391.3 644.82,-392.48 637.33,-384.99 634.29,-391.3"/>
</g>
<!-- Node21 -->
<g id="node21" class="node">
<title>Node21</title>
<g id="a_node21"><a xlink:href="classklyqa__ctl_1_1devices_1_1vacuum_1_1commands_1_1RequestGetCommand.html#a216966811184b718a4659bf081113f38" target="_top" xlink:title=" ">
<polygon fill="white" stroke="black" points="628,-343.5 628,-373.5 831,-373.5 831,-343.5 628,-343.5"/>
<text text-anchor="start" x="636" y="-361.5" font-family="Helvetica,sans-Serif" font-size="10.00">klyqa_ctl.devices.vacuum.commands.</text>
<text text-anchor="middle" x="729.5" y="-350.5" font-family="Helvetica,sans-Serif" font-size="10.00">RequestGetCommand.json</text>
</a>
</g>
</g>
<!-- Node4&#45;&gt;Node21 -->
<g id="edge20" class="edge">
<title>Node4&#45;&gt;Node21</title>
<path fill="none" stroke="midnightblue" d="M574.62,-324.53C598.59,-329.83 625.72,-335.81 650.44,-341.27"/>
<polygon fill="midnightblue" stroke="midnightblue" points="649.99,-344.76 660.51,-343.49 651.5,-337.92 649.99,-344.76"/>
</g>
<!-- Node23 -->
<g id="node23" class="node">
<title>Node23</title>
<g id="a_node23"><a xlink:href="classklyqa__ctl_1_1devices_1_1vacuum_1_1commands_1_1RequestResetCommand.html#a1ac56b80427d60d9f55079ae846ae25e" target="_top" xlink:title=" ">
<polygon fill="white" stroke="black" points="628,-245.5 628,-275.5 831,-275.5 831,-245.5 628,-245.5"/>
<text text-anchor="start" x="636" y="-263.5" font-family="Helvetica,sans-Serif" font-size="10.00">klyqa_ctl.devices.vacuum.commands.</text>
<text text-anchor="middle" x="729.5" y="-252.5" font-family="Helvetica,sans-Serif" font-size="10.00">RequestResetCommand.json</text>
</a>
</g>
</g>
<!-- Node4&#45;&gt;Node23 -->
<g id="edge22" class="edge">
<title>Node4&#45;&gt;Node23</title>
<path fill="none" stroke="midnightblue" d="M574.62,-294.47C598.59,-289.17 625.72,-283.19 650.44,-277.73"/>
<polygon fill="midnightblue" stroke="midnightblue" points="651.5,-281.08 660.51,-275.51 649.99,-274.24 651.5,-281.08"/>
</g>
<!-- Node25 -->
<g id="node25" class="node">
<title>Node25</title>
<g id="a_node25"><a xlink:href="classklyqa__ctl_1_1devices_1_1vacuum_1_1commands_1_1RequestSetCommand.html#a354b74be46f4b7d8a56811eaab910959" target="_top" xlink:title=" ">
<polygon fill="white" stroke="black" points="628,-196.5 628,-226.5 831,-226.5 831,-196.5 628,-196.5"/>
<text text-anchor="start" x="636" y="-214.5" font-family="Helvetica,sans-Serif" font-size="10.00">klyqa_ctl.devices.vacuum.commands.</text>
<text text-anchor="middle" x="729.5" y="-203.5" font-family="Helvetica,sans-Serif" font-size="10.00">RequestSetCommand.json</text>
</a>
</g>
</g>
<!-- Node4&#45;&gt;Node25 -->
<g id="edge24" class="edge">
<title>Node4&#45;&gt;Node25</title>
<path fill="none" stroke="midnightblue" d="M565.68,-294.39C574.93,-290.66 584.04,-286.08 592,-280.5 612.97,-265.8 606.37,-249.22 628,-235.5 630.64,-233.82 633.39,-232.27 636.22,-230.82"/>
<polygon fill="midnightblue" stroke="midnightblue" points="637.87,-233.91 645.49,-226.55 634.94,-227.55 637.87,-233.91"/>
</g>
<!-- Node27 -->
<g id="node27" class="node">
<title>Node27</title>
<g id="a_node27"><a xlink:href="classklyqa__ctl_1_1devices_1_1vacuum_1_1commands_1_1RoutineCommand.html#a926a94c8cc5104275078e438fb301028" target="_top" xlink:title=" ">
<polygon fill="white" stroke="black" points="628,-147.5 628,-177.5 831,-177.5 831,-147.5 628,-147.5"/>
<text text-anchor="start" x="636" y="-165.5" font-family="Helvetica,sans-Serif" font-size="10.00">klyqa_ctl.devices.vacuum.commands.</text>
<text text-anchor="middle" x="729.5" y="-154.5" font-family="Helvetica,sans-Serif" font-size="10.00">RoutineCommand.json</text>
</a>
</g>
</g>
<!-- Node4&#45;&gt;Node27 -->
<g id="edge26" class="edge">
<title>Node4&#45;&gt;Node27</title>
<path fill="none" stroke="midnightblue" d="M571.66,-294.37C579.11,-290.7 586.13,-286.15 592,-280.5 624.24,-249.48 594.36,-215.99 628,-186.5 629.34,-185.32 630.74,-184.2 632.17,-183.13"/>
<polygon fill="midnightblue" stroke="midnightblue" points="634.3,-185.92 640.8,-177.56 630.5,-180.04 634.3,-185.92"/>
</g>
<!-- Node29 -->
<g id="node29" class="node">
<title>Node29</title>
<g id="a_node29"><a xlink:href="classklyqa__ctl_1_1general_1_1general_1_1Command.html#a8c8ad93fedd0da0e0021f58714ec7fb5" target="_top" xlink:title=" ">
<polygon fill="white" stroke="black" points="658,-441.5 658,-471.5 801,-471.5 801,-441.5 658,-441.5"/>
<text text-anchor="start" x="666" y="-459.5" font-family="Helvetica,sans-Serif" font-size="10.00">klyqa_ctl.general.general.</text>
<text text-anchor="middle" x="729.5" y="-448.5" font-family="Helvetica,sans-Serif" font-size="10.00">Command.json</text>
</a>
</g>
</g>
<!-- Node4&#45;&gt;Node29 -->
<g id="edge28" class="edge">
<title>Node4&#45;&gt;Node29</title>
<path fill="none" stroke="midnightblue" d="M577.15,-324.06C582.55,-326.94 587.59,-330.38 592,-334.5 625.9,-366.18 593.32,-401.67 628,-432.5 633.99,-437.82 640.94,-442.02 648.35,-445.32"/>
<polygon fill="midnightblue" stroke="midnightblue" points="647.34,-448.68 657.93,-449.03 649.87,-442.15 647.34,-448.68"/>
</g>
<!-- Node30 -->
<g id="node30" class="node">
<title>Node30</title>
<g id="a_node30"><a xlink:href="classklyqa__ctl_1_1general_1_1general_1_1CommandTyped.html#a96dfd43912c4640f381424bdd44eebca" target="_top" xlink:title=" ">
<polygon fill="white" stroke="black" points="658,-0.5 658,-30.5 801,-30.5 801,-0.5 658,-0.5"/>
<text text-anchor="start" x="666" y="-18.5" font-family="Helvetica,sans-Serif" font-size="10.00">klyqa_ctl.general.general.</text>
<text text-anchor="middle" x="729.5" y="-7.5" font-family="Helvetica,sans-Serif" font-size="10.00">CommandTyped.json</text>
</a>
</g>
</g>
<!-- Node4&#45;&gt;Node30 -->
<g id="edge29" class="edge">
<title>Node4&#45;&gt;Node30</title>
<path fill="none" stroke="midnightblue" d="M574.97,-294.38C581.41,-290.71 587.28,-286.15 592,-280.5 661.44,-197.39 554.79,-119.31 628,-39.5 633.75,-33.23 640.82,-28.46 648.53,-24.85"/>
<polygon fill="midnightblue" stroke="midnightblue" points="649.84,-28.09 657.82,-21.12 647.24,-21.59 649.84,-28.09"/>
</g>
<!-- Node6 -->
<g id="node6" class="node">
<title>Node6</title>
<g id="a_node6"><a xlink:href="classklyqa__ctl_1_1devices_1_1light_1_1commands_1_1FwUpdateCommand.html#a7dc482a4e9a65d49ce0a61671ed6868e" target="_top" xlink:title=" ">
<polygon fill="white" stroke="black" points="883,-637.5 883,-667.5 1069,-667.5 1069,-637.5 883,-637.5"/>
<text text-anchor="start" x="891" y="-655.5" font-family="Helvetica,sans-Serif" font-size="10.00">klyqa_ctl.devices.light.commands.</text>
<text text-anchor="middle" x="976" y="-644.5" font-family="Helvetica,sans-Serif" font-size="10.00">FwUpdateCommand.url_json</text>
</a>
</g>
</g>
<!-- Node5&#45;&gt;Node6 -->
<g id="edge5" class="edge">
<title>Node5&#45;&gt;Node6</title>
<path fill="none" stroke="midnightblue" d="M822.59,-652.5C838.95,-652.5 856.09,-652.5 872.72,-652.5"/>
<polygon fill="midnightblue" stroke="midnightblue" points="873,-656 883,-652.5 873,-649 873,-656"/>
</g>
<!-- Node9 -->
<g id="node9" class="node">
<title>Node9</title>
<g id="a_node9"><a xlink:href="classklyqa__ctl_1_1devices_1_1light_1_1commands_1_1ColorCommand.html#a6ce99d7f4f232fb2f11e6efb7e85e778" target="_top" xlink:title=" ">
<polygon fill="white" stroke="black" points="883,-588.5 883,-618.5 1069,-618.5 1069,-588.5 883,-588.5"/>
<text text-anchor="start" x="891" y="-606.5" font-family="Helvetica,sans-Serif" font-size="10.00">klyqa_ctl.devices.light.commands.</text>
<text text-anchor="middle" x="976" y="-595.5" font-family="Helvetica,sans-Serif" font-size="10.00">ColorCommand.color_json</text>
</a>
</g>
</g>
<!-- Node8&#45;&gt;Node9 -->
<g id="edge8" class="edge">
<title>Node8&#45;&gt;Node9</title>
<path fill="none" stroke="midnightblue" d="M822.59,-603.5C838.95,-603.5 856.09,-603.5 872.72,-603.5"/>
<polygon fill="midnightblue" stroke="midnightblue" points="873,-607 883,-603.5 873,-600 873,-607"/>
</g>
<!-- Node10 -->
<g id="node10" class="node">
<title>Node10</title>
<g id="a_node10"><a xlink:href="classklyqa__ctl_1_1devices_1_1light_1_1response__status_1_1ResponseStatus.html#a327c18fd6f8a38e75e1bbc2f895df592" target="_top" xlink:title=" ">
<polygon fill="white" stroke="black" points="1133,-588.5 1133,-618.5 1306,-618.5 1306,-588.5 1133,-588.5"/>
<text text-anchor="start" x="1141" y="-606.5" font-family="Helvetica,sans-Serif" font-size="10.00">klyqa_ctl.devices.light.response</text>
<text text-anchor="middle" x="1219.5" y="-595.5" font-family="Helvetica,sans-Serif" font-size="10.00">_status.ResponseStatus.color</text>
</a>
</g>
</g>
<!-- Node9&#45;&gt;Node10 -->
<g id="edge9" class="edge">
<title>Node9&#45;&gt;Node10</title>
<path fill="none" stroke="midnightblue" d="M1069.33,-603.5C1086.81,-603.5 1105.13,-603.5 1122.71,-603.5"/>
<polygon fill="midnightblue" stroke="midnightblue" points="1122.96,-607 1132.96,-603.5 1122.96,-600 1122.96,-607"/>
</g>
<!-- Node12 -->
<g id="node12" class="node">
<title>Node12</title>
<g id="a_node12"><a xlink:href="classklyqa__ctl_1_1devices_1_1light_1_1commands_1_1TemperatureCommand.html#a0b45255dc9218a36450152f1118a8280" target="_top" xlink:title=" ">
<polygon fill="white" stroke="black" points="867,-539.5 867,-569.5 1085,-569.5 1085,-539.5 867,-539.5"/>
<text text-anchor="start" x="875" y="-557.5" font-family="Helvetica,sans-Serif" font-size="10.00">klyqa_ctl.devices.light.commands.</text>
<text text-anchor="middle" x="976" y="-546.5" font-family="Helvetica,sans-Serif" font-size="10.00">TemperatureCommand.temperature_json</text>
</a>
</g>
</g>
<!-- Node11&#45;&gt;Node12 -->
<g id="edge11" class="edge">
<title>Node11&#45;&gt;Node12</title>
<path fill="none" stroke="midnightblue" d="M822.59,-554.5C833.79,-554.5 845.35,-554.5 856.87,-554.5"/>
<polygon fill="midnightblue" stroke="midnightblue" points="856.96,-558 866.96,-554.5 856.96,-551 856.96,-558"/>
</g>
<!-- Node13 -->
<g id="node13" class="node">
<title>Node13</title>
<g id="a_node13"><a xlink:href="classklyqa__ctl_1_1devices_1_1light_1_1response__status_1_1ResponseStatus.html#a2e732c44c35f39dc3d8fe269c24aef8a" target="_top" xlink:title=" ">
<polygon fill="white" stroke="black" points="1121,-539.5 1121,-569.5 1318,-569.5 1318,-539.5 1121,-539.5"/>
<text text-anchor="start" x="1129" y="-557.5" font-family="Helvetica,sans-Serif" font-size="10.00">klyqa_ctl.devices.light.response</text>
<text text-anchor="middle" x="1219.5" y="-546.5" font-family="Helvetica,sans-Serif" font-size="10.00">_status.ResponseStatus.temperature</text>
</a>
</g>
</g>
<!-- Node12&#45;&gt;Node13 -->
<g id="edge12" class="edge">
<title>Node12&#45;&gt;Node13</title>
<path fill="none" stroke="midnightblue" d="M1085.04,-554.5C1093.61,-554.5 1102.27,-554.5 1110.85,-554.5"/>
<polygon fill="midnightblue" stroke="midnightblue" points="1110.86,-558 1120.86,-554.5 1110.86,-551 1110.86,-558"/>
</g>
<!-- Node15 -->
<g id="node15" class="node">
<title>Node15</title>
<g id="a_node15"><a xlink:href="classklyqa__ctl_1_1devices_1_1light_1_1commands_1_1BrightnessCommand.html#aba34fce7f4d8d6aae6bcbaaa61c21a8c" target="_top" xlink:title=" ">
<polygon fill="white" stroke="black" points="877,-490.5 877,-520.5 1075,-520.5 1075,-490.5 877,-490.5"/>
<text text-anchor="start" x="885" y="-508.5" font-family="Helvetica,sans-Serif" font-size="10.00">klyqa_ctl.devices.light.commands.</text>
<text text-anchor="middle" x="976" y="-497.5" font-family="Helvetica,sans-Serif" font-size="10.00">BrightnessCommand.brightness_json</text>
</a>
</g>
</g>
<!-- Node14&#45;&gt;Node15 -->
<g id="edge14" class="edge">
<title>Node14&#45;&gt;Node15</title>
<path fill="none" stroke="midnightblue" d="M822.59,-505.5C836.99,-505.5 852,-505.5 866.73,-505.5"/>
<polygon fill="midnightblue" stroke="midnightblue" points="866.87,-509 876.87,-505.5 866.87,-502 866.87,-509"/>
</g>
<!-- Node16 -->
<g id="node16" class="node">
<title>Node16</title>
<g id="a_node16"><a xlink:href="classklyqa__ctl_1_1devices_1_1light_1_1response__status_1_1ResponseStatus.html#a762787729b726f6ad8bd5a9a3ae40a67" target="_top" xlink:title=" ">
<polygon fill="white" stroke="black" points="1126,-490.5 1126,-520.5 1313,-520.5 1313,-490.5 1126,-490.5"/>
<text text-anchor="start" x="1134" y="-508.5" font-family="Helvetica,sans-Serif" font-size="10.00">klyqa_ctl.devices.light.response</text>
<text text-anchor="middle" x="1219.5" y="-497.5" font-family="Helvetica,sans-Serif" font-size="10.00">_status.ResponseStatus.brightness</text>
</a>
</g>
</g>
<!-- Node15&#45;&gt;Node16 -->
<g id="edge15" class="edge">
<title>Node15&#45;&gt;Node16</title>
<path fill="none" stroke="midnightblue" d="M1075.23,-505.5C1088.55,-505.5 1102.25,-505.5 1115.64,-505.5"/>
<polygon fill="midnightblue" stroke="midnightblue" points="1115.82,-509 1125.82,-505.5 1115.82,-502 1115.82,-509"/>
</g>
<!-- Node20 -->
<g id="node20" class="node">
<title>Node20</title>
<g id="a_node20"><a xlink:href="classklyqa__ctl_1_1devices_1_1vacuum_1_1commands_1_1ProductinfoCommand.html#a1950a810783ab6312c31fa43dd06182c" target="_top" xlink:title=" ">
<polygon fill="white" stroke="black" points="873,-392.5 873,-422.5 1079,-422.5 1079,-392.5 873,-392.5"/>
<text text-anchor="start" x="881" y="-410.5" font-family="Helvetica,sans-Serif" font-size="10.00">klyqa_ctl.devices.vacuum.commands.</text>
<text text-anchor="middle" x="976" y="-399.5" font-family="Helvetica,sans-Serif" font-size="10.00">ProductinfoCommand.productinfo_json</text>
</a>
</g>
</g>
<!-- Node19&#45;&gt;Node20 -->
<g id="edge19" class="edge">
<title>Node19&#45;&gt;Node20</title>
<path fill="none" stroke="midnightblue" d="M831.01,-407.5C841.49,-407.5 852.19,-407.5 862.79,-407.5"/>
<polygon fill="midnightblue" stroke="midnightblue" points="862.91,-411 872.91,-407.5 862.91,-404 862.91,-411"/>
</g>
<!-- Node22 -->
<g id="node22" class="node">
<title>Node22</title>
<g id="a_node22"><a xlink:href="classklyqa__ctl_1_1devices_1_1vacuum_1_1commands_1_1RequestGetCommand.html#a71be3cb060fa2c05f2762d13267c6144" target="_top" xlink:title=" ">
<polygon fill="white" stroke="black" points="874.5,-343.5 874.5,-373.5 1077.5,-373.5 1077.5,-343.5 874.5,-343.5"/>
<text text-anchor="start" x="882.5" y="-361.5" font-family="Helvetica,sans-Serif" font-size="10.00">klyqa_ctl.devices.vacuum.commands.</text>
<text text-anchor="middle" x="976" y="-350.5" font-family="Helvetica,sans-Serif" font-size="10.00">RequestGetCommand.get_json</text>
</a>
</g>
</g>
<!-- Node21&#45;&gt;Node22 -->
<g id="edge21" class="edge">
<title>Node21&#45;&gt;Node22</title>
<path fill="none" stroke="midnightblue" d="M831.01,-358.5C842,-358.5 853.23,-358.5 864.34,-358.5"/>
<polygon fill="midnightblue" stroke="midnightblue" points="864.49,-362 874.49,-358.5 864.49,-355 864.49,-362"/>
</g>
<!-- Node24 -->
<g id="node24" class="node">
<title>Node24</title>
<g id="a_node24"><a xlink:href="classklyqa__ctl_1_1devices_1_1vacuum_1_1commands_1_1RequestResetCommand.html#a53de7ccfeb12e1b8f4c0ea8a82410d4e" target="_top" xlink:title=" ">
<polygon fill="white" stroke="black" points="874.5,-245.5 874.5,-275.5 1077.5,-275.5 1077.5,-245.5 874.5,-245.5"/>
<text text-anchor="start" x="882.5" y="-263.5" font-family="Helvetica,sans-Serif" font-size="10.00">klyqa_ctl.devices.vacuum.commands.</text>
<text text-anchor="middle" x="976" y="-252.5" font-family="Helvetica,sans-Serif" font-size="10.00">RequestResetCommand.reset_json</text>
</a>
</g>
</g>
<!-- Node23&#45;&gt;Node24 -->
<g id="edge23" class="edge">
<title>Node23&#45;&gt;Node24</title>
<path fill="none" stroke="midnightblue" d="M831.01,-260.5C842,-260.5 853.23,-260.5 864.34,-260.5"/>
<polygon fill="midnightblue" stroke="midnightblue" points="864.49,-264 874.49,-260.5 864.49,-257 864.49,-264"/>
</g>
<!-- Node26 -->
<g id="node26" class="node">
<title>Node26</title>
<g id="a_node26"><a xlink:href="classklyqa__ctl_1_1devices_1_1vacuum_1_1commands_1_1RequestSetCommand.html#ac327b3b919e0d1a45ebe754e546f94f8" target="_top" xlink:title=" ">
<polygon fill="white" stroke="black" points="874.5,-196.5 874.5,-226.5 1077.5,-226.5 1077.5,-196.5 874.5,-196.5"/>
<text text-anchor="start" x="882.5" y="-214.5" font-family="Helvetica,sans-Serif" font-size="10.00">klyqa_ctl.devices.vacuum.commands.</text>
<text text-anchor="middle" x="976" y="-203.5" font-family="Helvetica,sans-Serif" font-size="10.00">RequestSetCommand.set_json</text>
</a>
</g>
</g>
<!-- Node25&#45;&gt;Node26 -->
<g id="edge25" class="edge">
<title>Node25&#45;&gt;Node26</title>
<path fill="none" stroke="midnightblue" d="M831.01,-211.5C842,-211.5 853.23,-211.5 864.34,-211.5"/>
<polygon fill="midnightblue" stroke="midnightblue" points="864.49,-215 874.49,-211.5 864.49,-208 864.49,-215"/>
</g>
<!-- Node28 -->
<g id="node28" class="node">
<title>Node28</title>
<g id="a_node28"><a xlink:href="classklyqa__ctl_1_1devices_1_1vacuum_1_1commands_1_1RoutineCommand.html#acaf3db880f88d37bb1cf8218a309e52c" target="_top" xlink:title=" ">
<polygon fill="white" stroke="black" points="874.5,-147.5 874.5,-177.5 1077.5,-177.5 1077.5,-147.5 874.5,-147.5"/>
<text text-anchor="start" x="882.5" y="-165.5" font-family="Helvetica,sans-Serif" font-size="10.00">klyqa_ctl.devices.vacuum.commands.</text>
<text text-anchor="middle" x="976" y="-154.5" font-family="Helvetica,sans-Serif" font-size="10.00">RoutineCommand.routine_json</text>
</a>
</g>
</g>
<!-- Node27&#45;&gt;Node28 -->
<g id="edge27" class="edge">
<title>Node27&#45;&gt;Node28</title>
<path fill="none" stroke="midnightblue" d="M831.01,-162.5C842,-162.5 853.23,-162.5 864.34,-162.5"/>
<polygon fill="midnightblue" stroke="midnightblue" points="864.49,-166 874.49,-162.5 864.49,-159 864.49,-166"/>
</g>
<!-- Node31 -->
<g id="node31" class="node">
<title>Node31</title>
<g id="a_node31"><a xlink:href="classklyqa__ctl_1_1devices_1_1response__message_1_1ResponseMessage.html#a076bcd25b3f41acdc763569b279c4545" target="_top" xlink:title=" ">
<polygon fill="white" stroke="black" points="883.5,-0.5 883.5,-30.5 1068.5,-30.5 1068.5,-0.5 883.5,-0.5"/>
<text text-anchor="start" x="891.5" y="-18.5" font-family="Helvetica,sans-Serif" font-size="10.00">klyqa_ctl.devices.response</text>
<text text-anchor="middle" x="976" y="-7.5" font-family="Helvetica,sans-Serif" font-size="10.00">_message.ResponseMessage.type</text>
</a>
</g>
</g>
<!-- Node30&#45;&gt;Node31 -->
<g id="edge30" class="edge">
<title>Node30&#45;&gt;Node31</title>
<path fill="none" stroke="midnightblue" d="M801.22,-15.5C823.68,-15.5 848.98,-15.5 873.18,-15.5"/>
<polygon fill="midnightblue" stroke="midnightblue" points="873.47,-19 883.47,-15.5 873.47,-12 873.47,-19"/>
</g>
<!-- Node32&#45;&gt;Node5 -->
<g id="edge32" class="edge">
<title>Node32&#45;&gt;Node5</title>
<path fill="none" stroke="midnightblue" d="M577.76,-373.61C583.1,-376.85 587.96,-380.76 592,-385.5 662.83,-468.58 554.24,-548 628,-628.5 628.66,-629.22 629.34,-629.93 630.04,-630.61"/>
<polygon fill="midnightblue" stroke="midnightblue" points="628.14,-633.58 638.09,-637.22 632.58,-628.17 628.14,-633.58"/>
</g>
<!-- Node32&#45;&gt;Node7 -->
<g id="edge33" class="edge">
<title>Node32&#45;&gt;Node7</title>
<path fill="none" stroke="midnightblue" d="M574.62,-343.47C598.59,-338.17 625.72,-332.19 650.44,-326.73"/>
<polygon fill="midnightblue" stroke="midnightblue" points="651.5,-330.08 660.51,-324.51 649.99,-323.24 651.5,-330.08"/>
</g>
<!-- Node32&#45;&gt;Node8 -->
<g id="edge34" class="edge">
<title>Node32&#45;&gt;Node8</title>
<path fill="none" stroke="midnightblue" d="M577.18,-373.53C582.7,-376.78 587.77,-380.72 592,-385.5 650.1,-451.19 567.59,-515.93 628,-579.5 628.8,-580.35 629.63,-581.16 630.48,-581.95"/>
<polygon fill="midnightblue" stroke="midnightblue" points="628.65,-584.97 638.68,-588.38 632.97,-579.46 628.65,-584.97"/>
</g>
<!-- Node32&#45;&gt;Node11 -->
<g id="edge35" class="edge">
<title>Node32&#45;&gt;Node11</title>
<path fill="none" stroke="midnightblue" d="M576.47,-373.57C582.21,-376.81 587.52,-380.73 592,-385.5 637.46,-433.9 580.84,-483.76 628,-530.5 628.97,-531.46 629.97,-532.38 630.99,-533.27"/>
<polygon fill="midnightblue" stroke="midnightblue" points="629.24,-536.33 639.38,-539.43 633.39,-530.69 629.24,-536.33"/>
</g>
<!-- Node32&#45;&gt;Node14 -->
<g id="edge36" class="edge">
<title>Node32&#45;&gt;Node14</title>
<path fill="none" stroke="midnightblue" d="M575.07,-373.68C581.24,-376.9 587.03,-380.79 592,-385.5 625.06,-416.86 593.84,-451.34 628,-481.5 629.34,-482.68 630.73,-483.81 632.16,-484.89"/>
<polygon fill="midnightblue" stroke="midnightblue" points="630.48,-487.97 640.78,-490.48 634.29,-482.1 630.48,-487.97"/>
</g>
<!-- Node32&#45;&gt;Node17 -->
<g id="edge37" class="edge">
<title>Node32&#45;&gt;Node17</title>
<path fill="none" stroke="midnightblue" d="M580.32,-343.27C584.62,-340.52 588.58,-337.29 592,-333.5 651.33,-267.74 567.05,-201.76 628,-137.5 628.8,-136.65 629.63,-135.84 630.48,-135.04"/>
<polygon fill="midnightblue" stroke="midnightblue" points="632.97,-137.54 638.67,-128.61 628.64,-132.03 632.97,-137.54"/>
</g>
<!-- Node32&#45;&gt;Node18 -->
<g id="edge38" class="edge">
<title>Node32&#45;&gt;Node18</title>
<path fill="none" stroke="midnightblue" d="M580.09,-343.65C584.51,-340.82 588.55,-337.47 592,-333.5 664.25,-250.48 553.7,-169.69 628,-88.5 628.66,-87.78 629.34,-87.07 630.04,-86.39"/>
<polygon fill="midnightblue" stroke="midnightblue" points="632.58,-88.83 638.08,-79.78 628.14,-83.42 632.58,-88.83"/>
</g>
<!-- Node32&#45;&gt;Node19 -->
<g id="edge39" class="edge">
<title>Node32&#45;&gt;Node19</title>
<path fill="none" stroke="midnightblue" d="M574.62,-373.53C598.59,-378.83 625.72,-384.81 650.44,-390.27"/>
<polygon fill="midnightblue" stroke="midnightblue" points="649.99,-393.76 660.51,-392.49 651.5,-386.92 649.99,-393.76"/>
</g>
<!-- Node32&#45;&gt;Node21 -->
<g id="edge40" class="edge">
<title>Node32&#45;&gt;Node21</title>
<path fill="none" stroke="midnightblue" d="M580.11,-358.5C592.17,-358.5 604.88,-358.5 617.6,-358.5"/>
<polygon fill="midnightblue" stroke="midnightblue" points="617.78,-362 627.78,-358.5 617.78,-355 617.78,-362"/>
</g>
<!-- Node32&#45;&gt;Node23 -->
<g id="edge41" class="edge">
<title>Node32&#45;&gt;Node23</title>
<path fill="none" stroke="midnightblue" d="M573.82,-343.49C580.24,-340.7 586.43,-337.4 592,-333.5 614.14,-318 605.48,-299.44 628,-284.5 630.45,-282.87 633,-281.36 635.63,-279.94"/>
<polygon fill="midnightblue" stroke="midnightblue" points="637.33,-283.01 644.82,-275.52 634.29,-276.7 637.33,-283.01"/>
</g>
<!-- Node32&#45;&gt;Node25 -->
<g id="edge42" class="edge">
<title>Node32&#45;&gt;Node25</title>
<path fill="none" stroke="midnightblue" d="M577.98,-343.49C583.06,-340.71 587.82,-337.41 592,-333.5 625.9,-301.82 593.32,-266.33 628,-235.5 629.17,-234.46 630.38,-233.46 631.63,-232.5"/>
<polygon fill="midnightblue" stroke="midnightblue" points="633.88,-235.21 640.28,-226.76 630.01,-229.37 633.88,-235.21"/>
</g>
<!-- Node32&#45;&gt;Node27 -->
<g id="edge43" class="edge">
<title>Node32&#45;&gt;Node27</title>
<path fill="none" stroke="midnightblue" d="M579.68,-343.28C584.19,-340.53 588.37,-337.3 592,-333.5 638.5,-284.9 580.3,-233.93 628,-186.5 628.97,-185.54 629.96,-184.61 630.99,-183.72"/>
<polygon fill="midnightblue" stroke="midnightblue" points="633.39,-186.31 639.36,-177.56 629.24,-180.67 633.39,-186.31"/>
</g>
<!-- Node32&#45;&gt;Node29 -->
<g id="edge44" class="edge">
<title>Node32&#45;&gt;Node29</title>
<path fill="none" stroke="midnightblue" d="M569.78,-373.57C577.62,-376.83 585.24,-380.76 592,-385.5 613.54,-400.61 605.93,-418.17 628,-432.5 634.21,-436.53 641.02,-439.88 648.09,-442.67"/>
<polygon fill="midnightblue" stroke="midnightblue" points="647.26,-446.09 657.85,-446.14 649.6,-439.5 647.26,-446.09"/>
</g>
<!-- Node32&#45;&gt;Node30 -->
<g id="edge45" class="edge">
<title>Node32&#45;&gt;Node30</title>
<path fill="none" stroke="midnightblue" d="M580.2,-343.75C584.59,-340.89 588.6,-337.51 592,-333.5 677.22,-233.16 540.3,-137.67 628,-39.5 633.71,-33.11 640.79,-28.26 648.54,-24.61"/>
<polygon fill="midnightblue" stroke="midnightblue" points="649.91,-27.83 657.89,-20.86 647.3,-21.34 649.91,-27.83"/>
</g>
<!-- Node34&#45;&gt;Node2 -->
<g id="edge48" class="edge">
<title>Node34&#45;&gt;Node2</title>
<path fill="none" stroke="midnightblue" d="M327.1,-388.73C350.12,-402.4 385.83,-422.16 419,-434.5 427.1,-437.51 435.8,-440.17 444.44,-442.48"/>
<polygon fill="midnightblue" stroke="midnightblue" points="443.59,-445.88 454.14,-444.95 445.31,-439.09 443.59,-445.88"/>
</g>
<!-- Node34&#45;&gt;Node3 -->
<g id="edge49" class="edge">
<title>Node34&#45;&gt;Node3</title>
<path fill="none" stroke="midnightblue" d="M383.21,-387.88C397.09,-390.36 411.51,-392.93 425.35,-395.39"/>
<polygon fill="midnightblue" stroke="midnightblue" points="424.85,-398.86 435.31,-397.17 426.08,-391.97 424.85,-398.86"/>
</g>
<!-- Node34&#45;&gt;Node4 -->
<g id="edge50" class="edge">
<title>Node34&#45;&gt;Node4</title>
<path fill="none" stroke="midnightblue" d="M346.07,-358.47C367.9,-351.05 394.78,-342.09 419,-334.5 426.47,-332.16 434.33,-329.76 442.13,-327.43"/>
<polygon fill="midnightblue" stroke="midnightblue" points="443.36,-330.72 451.95,-324.52 441.37,-324.01 443.36,-330.72"/>
</g>
<!-- Node34&#45;&gt;Node32 -->
<g id="edge51" class="edge">
<title>Node34&#45;&gt;Node32</title>
<path fill="none" stroke="midnightblue" d="M383.21,-367.51C395.48,-366.6 408.18,-365.65 420.52,-364.74"/>
<polygon fill="midnightblue" stroke="midnightblue" points="421.08,-368.2 430.79,-363.97 420.56,-361.22 421.08,-368.2"/>
</g>
<!-- Node34&#45;&gt;Node33 -->
<g id="edge52" class="edge">
<title>Node34&#45;&gt;Node33</title>
<path fill="none" stroke="midnightblue" d="M318.11,-358.32C339.27,-338.54 379.04,-304.18 419,-284.5 427.49,-280.32 436.85,-276.82 446.17,-273.91"/>
<polygon fill="midnightblue" stroke="midnightblue" points="447.2,-277.25 455.82,-271.09 445.24,-270.53 447.2,-277.25"/>
</g>
</g>
</svg>
        <g id="navigator" transform="translate(0 0)" fill="#404254">
                <rect fill="#f2f5e9" fill-opacity="0.5" stroke="#606060" stroke-width=".5" x="0" y="0" width="60" height="60"/>
                <use id="zoomplus" xlink:href="#zoomPlus" x="17" y="9" onmousedown="handleZoom(evt,'in')"/>
                <use id="zoomminus" xlink:href="#zoomMin" x="42" y="9" onmousedown="handleZoom(evt,'out')"/>
                <use id="reset" xlink:href="#resetDef" x="30" y="36" onmousedown="handleReset()"/>
                <g id="arrowUp" xlink:href="#dirArrow" transform="translate(30 24)" onmousedown="handlePan(0,-1)">
                  <use xlink:href="#rim" fill="#404040">
                        <set attributeName="fill" to="#808080" begin="arrowUp.mouseover" end="arrowUp.mouseout"/>
                  </use>
                  <path fill="none" stroke="white" stroke-width="1.5" d="M0,-3.0v7 M-2.5,-0.5L0,-3.0L2.5,-0.5"/>
                </g>
                <g id="arrowRight" xlink:href="#dirArrow" transform="rotate(90) translate(36 -43)" onmousedown="handlePan(1,0)">
                  <use xlink:href="#rim" fill="#404040">
                        <set attributeName="fill" to="#808080" begin="arrowRight.mouseover" end="arrowRight.mouseout"/>
                  </use>
                  <path fill="none" stroke="white" stroke-width="1.5" d="M0,-3.0v7 M-2.5,-0.5L0,-3.0L2.5,-0.5"/>
                </g>
                <g id="arrowDown" xlink:href="#dirArrow" transform="rotate(180) translate(-30 -48)" onmousedown="handlePan(0,1)">
                  <use xlink:href="#rim" fill="#404040">
                        <set attributeName="fill" to="#808080" begin="arrowDown.mouseover" end="arrowDown.mouseout"/>
                  </use>
                  <path fill="none" stroke="white" stroke-width="1.5" d="M0,-3.0v7 M-2.5,-0.5L0,-3.0L2.5,-0.5"/>
                </g>
                <g id="arrowLeft" xlink:href="#dirArrow" transform="rotate(270) translate(-36 17)" onmousedown="handlePan(-1,0)">
                  <use xlink:href="#rim" fill="#404040">
                        <set attributeName="fill" to="#808080" begin="arrowLeft.mouseover" end="arrowLeft.mouseout"/>
                  </use>
                  <path fill="none" stroke="white" stroke-width="1.5" d="M0,-3.0v7 M-2.5,-0.5L0,-3.0L2.5,-0.5"/>
                </g>
        </g>
        <svg viewBox="0 0 15 15" width="100%" height="30px" preserveAspectRatio="xMaxYMin meet">
         <g id="arrow_out" transform="scale(0.3 0.3)">
          <a xlink:href="classklyqa__ctl_1_1account_1_1Account_a73506bd234f8e819e138c2bd663179b8_cgraph_org.svg" target="_base">
           <rect id="button" ry="5" rx="5" y="6" x="6" height="38" width="38"
                fill="#f2f5e9" fill-opacity="0.5" stroke="#606060" stroke-width="1.0"/>
           <path id="arrow"
             d="M 11.500037,31.436501 C 11.940474,20.09759 22.043105,11.32322 32.158766,21.979434 L 37.068811,17.246167 C 37.068811,17.246167 37.088388,32 37.088388,32 L 22.160133,31.978069 C 22.160133,31.978069 26.997745,27.140456 26.997745,27.140456 C 18.528582,18.264221 13.291696,25.230495 11.500037,31.436501 z"
             style="fill:#404040;"/>
          </a>
         </g>
        </svg>
</svg>
