<?xml version="1.0" encoding="UTF-8" standalone="no"?>
<!DOCTYPE svg PUBLIC "-//W3C//DTD SVG 1.1//EN"
 "http://www.w3.org/Graphics/SVG/1.1/DTD/svg11.dtd">
<!-- Generated by graphviz version 2.43.0 (0)
 -->
<!-- Title: klyqa_ctl.account.Account.backend_connected Pages: 1 -->
<!--zoomable 676 -->
<svg id="main" version="1.1" xmlns="http://www.w3.org/2000/svg" xmlns:xlink="http://www.w3.org/1999/xlink" xml:space="preserve" onload="init(evt)">
<style type="text/css"><![CDATA[
.edge:hover path { stroke: red; }
.edge:hover polygon { stroke: red; fill: red; }
]]></style>
<script type="text/javascript"><![CDATA[
var edges = document.getElementsByTagName('g');
if (edges && edges.length) {
  for (var i=0;i<edges.length;i++) {
    if (edges[i].id.substr(0,4)=='edge') {
      edges[i].setAttribute('class','edge');
    }
  }
}
]]></script>
        <defs>
                <circle id="rim" cx="0" cy="0" r="7"/>
                <circle id="rim2" cx="0" cy="0" r="3.5"/>
                <g id="zoomPlus">
                        <use xlink:href="#rim" fill="#404040">
                                <set attributeName="fill" to="#808080" begin="zoomplus.mouseover" end="zoomplus.mouseout"/>
                        </use>
                        <path d="M-4,0h8M0,-4v8" fill="none" stroke="white" stroke-width="1.5" pointer-events="none"/>
                </g>
                <g id="zoomMin">
                        <use xlink:href="#rim" fill="#404040">
                                <set attributeName="fill" to="#808080" begin="zoomminus.mouseover" end="zoomminus.mouseout"/>
                        </use>
                        <path d="M-4,0h8" fill="none" stroke="white" stroke-width="1.5" pointer-events="none"/>
                </g>
                <g id="dirArrow">
                        <path fill="none" stroke="white" stroke-width="1.5" d="M0,-3.0v7 M-2.5,-0.5L0,-3.0L2.5,-0.5"/>
                </g>
               <g id="resetDef">
                       <use xlink:href="#rim2" fill="#404040">
                               <set attributeName="fill" to="#808080" begin="reset.mouseover" end="reset.mouseout"/>
                       </use>
               </g>
        </defs>

<script type="text/javascript">
var viewWidth = 1131;
var viewHeight = 676;
var sectionId = 'dynsection-6';
</script>
<script xlink:href="svgpan.js"/>
<svg id="graph" class="graph">
<g id="viewport">
<title>klyqa_ctl.account.Account.backend_connected</title>
<polygon fill="white" stroke="transparent" points="-4,4 -4,-672 1127,-672 1127,4 -4,4"/>
<!-- Node1 -->
<g id="node1" class="node">
<title>Node1</title>
<g id="a_node1"><a xlink:title=" ">
<polygon fill="#bfbfbf" stroke="black" points="0,-343.5 0,-373.5 188,-373.5 188,-343.5 0,-343.5"/>
<text text-anchor="start" x="8" y="-361.5" font-family="Helvetica,sans-Serif" font-size="10.00">klyqa_ctl.account.Account.backend</text>
<text text-anchor="middle" x="94" y="-350.5" font-family="Helvetica,sans-Serif" font-size="10.00">_connected</text>
</a>
</g>
</g>
<!-- Node2 -->
<g id="node2" class="node">
<title>Node2</title>
<g id="a_node2"><a xlink:href="classklyqa__ctl_1_1account_1_1Account.html#aeb463ade6756bf093a809634f64c6ef6" target="_top" xlink:title=" ">
<polygon fill="white" stroke="black" points="224,-442 224,-461 397,-461 397,-442 224,-442"/>
<text text-anchor="middle" x="310.5" y="-449" font-family="Helvetica,sans-Serif" font-size="10.00">klyqa_ctl.account.Account.cloud</text>
</a>
</g>
</g>
<!-- Node1&#45;&gt;Node2 -->
<g id="edge1" class="edge">
<title>Node1&#45;&gt;Node2</title>
<path fill="none" stroke="midnightblue" d="M116.8,-373.76C141.66,-390.49 184.04,-417.01 224,-432.5 230.73,-435.11 237.89,-437.4 245.11,-439.41"/>
<polygon fill="midnightblue" stroke="midnightblue" points="244.39,-442.83 254.95,-441.97 246.15,-436.06 244.39,-442.83"/>
</g>
<!-- Node3 -->
<g id="node3" class="node">
<title>Node3</title>
<g id="a_node3"><a xlink:href="classklyqa__ctl_1_1devices_1_1device_1_1Device.html#a574647293c61d5f53e153d48ddb31f65" target="_top" xlink:title=" ">
<polygon fill="white" stroke="black" points="240.5,-392.5 240.5,-422.5 380.5,-422.5 380.5,-392.5 240.5,-392.5"/>
<text text-anchor="start" x="248.5" y="-410.5" font-family="Helvetica,sans-Serif" font-size="10.00">klyqa_ctl.devices.device.</text>
<text text-anchor="middle" x="310.5" y="-399.5" font-family="Helvetica,sans-Serif" font-size="10.00">Device.cloud</text>
</a>
</g>
</g>
<!-- Node1&#45;&gt;Node3 -->
<g id="edge2" class="edge">
<title>Node1&#45;&gt;Node3</title>
<path fill="none" stroke="midnightblue" d="M160.81,-373.53C183.87,-378.8 209.95,-384.76 233.76,-390.2"/>
<polygon fill="midnightblue" stroke="midnightblue" points="233.28,-393.68 243.81,-392.49 234.84,-386.85 233.28,-393.68"/>
</g>
<!-- Node4 -->
<g id="node4" class="node">
<title>Node4</title>
<g id="a_node4"><a xlink:href="classklyqa__ctl_1_1general_1_1general_1_1Command.html#a4aa9e4db12aecf5520e974204c635d38" target="_top" xlink:title=" ">
<polygon fill="white" stroke="black" points="239,-294.5 239,-324.5 382,-324.5 382,-294.5 239,-294.5"/>
<text text-anchor="start" x="247" y="-312.5" font-family="Helvetica,sans-Serif" font-size="10.00">klyqa_ctl.general.general.</text>
<text text-anchor="middle" x="310.5" y="-301.5" font-family="Helvetica,sans-Serif" font-size="10.00">Command.cloud</text>
</a>
</g>
</g>
<!-- Node1&#45;&gt;Node4 -->
<g id="edge3" class="edge">
<title>Node1&#45;&gt;Node4</title>
<path fill="none" stroke="midnightblue" d="M160.81,-343.47C183.87,-338.2 209.95,-332.24 233.76,-326.8"/>
<polygon fill="midnightblue" stroke="midnightblue" points="234.84,-330.15 243.81,-324.51 233.28,-323.32 234.84,-330.15"/>
</g>
<!-- Node32 -->
<g id="node32" class="node">
<title>Node32</title>
<g id="a_node32"><a xlink:href="classklyqa__ctl_1_1general_1_1general_1_1CloudStateCommand.html#a6bbc8b1333f0a45ce38f1e81a6093bc1" target="_top" xlink:title=" ">
<polygon fill="white" stroke="black" points="236,-343.5 236,-373.5 385,-373.5 385,-343.5 236,-343.5"/>
<text text-anchor="start" x="244" y="-361.5" font-family="Helvetica,sans-Serif" font-size="10.00">klyqa_ctl.general.general.</text>
<text text-anchor="middle" x="310.5" y="-350.5" font-family="Helvetica,sans-Serif" font-size="10.00">CloudStateCommand.cloud</text>
</a>
</g>
</g>
<!-- Node1&#45;&gt;Node32 -->
<g id="edge31" class="edge">
<title>Node1&#45;&gt;Node32</title>
<path fill="none" stroke="midnightblue" d="M188.15,-358.5C200.6,-358.5 213.31,-358.5 225.6,-358.5"/>
<polygon fill="midnightblue" stroke="midnightblue" points="225.8,-362 235.8,-358.5 225.8,-355 225.8,-362"/>
</g>
<!-- Node33 -->
<g id="node33" class="node">
<title>Node33</title>
<g id="a_node33"><a xlink:href="classklyqa__ctl_1_1klyqa__ctl_1_1Client.html#a7d8a302d936e8e1889f175bac259f565" target="_top" xlink:title=" ">
<polygon fill="white" stroke="black" points="226,-256 226,-275 395,-275 395,-256 226,-256"/>
<text text-anchor="middle" x="310.5" y="-263" font-family="Helvetica,sans-Serif" font-size="10.00">klyqa_ctl.klyqa_ctl.Client.cloud</text>
</a>
</g>
</g>
<!-- Node1&#45;&gt;Node33 -->
<g id="edge46" class="edge">
<title>Node1&#45;&gt;Node33</title>
<path fill="none" stroke="midnightblue" d="M117.32,-343.24C142.29,-326.81 184.45,-300.95 224,-285.5 231.76,-282.47 240.1,-279.82 248.42,-277.53"/>
<polygon fill="midnightblue" stroke="midnightblue" points="249.34,-280.91 258.14,-275.01 247.58,-274.13 249.34,-280.91"/>
</g>
<!-- Node5 -->
<g id="node5" class="node">
<title>Node5</title>
<g id="a_node5"><a xlink:href="classklyqa__ctl_1_1devices_1_1light_1_1commands_1_1FwUpdateCommand.html#a9de3441c7fbba5f5a19ea914970a3db7" target="_top" xlink:title=" ">
<polygon fill="white" stroke="black" points="441.5,-637.5 441.5,-667.5 627.5,-667.5 627.5,-637.5 441.5,-637.5"/>
<text text-anchor="start" x="449.5" y="-655.5" font-family="Helvetica,sans-Serif" font-size="10.00">klyqa_ctl.devices.light.commands.</text>
<text text-anchor="middle" x="534.5" y="-644.5" font-family="Helvetica,sans-Serif" font-size="10.00">FwUpdateCommand.json</text>
</a>
</g>
</g>
<!-- Node4&#45;&gt;Node5 -->
<g id="edge4" class="edge">
<title>Node4&#45;&gt;Node5</title>
<path fill="none" stroke="midnightblue" d="M382.04,-322.32C387.67,-325.55 392.8,-329.55 397,-334.5 482.22,-434.84 345.3,-530.33 433,-628.5 433.65,-629.23 434.33,-629.94 435.01,-630.63"/>
<polygon fill="midnightblue" stroke="midnightblue" points="433.07,-633.57 442.99,-637.31 437.57,-628.21 433.07,-633.57"/>
</g>
<!-- Node7 -->
<g id="node7" class="node">
<title>Node7</title>
<g id="a_node7"><a xlink:href="classklyqa__ctl_1_1devices_1_1light_1_1commands_1_1TransitionCommand.html#aaf9d8431e346c86b9959102c2d7f3316" target="_top" xlink:title=" ">
<polygon fill="white" stroke="black" points="441.5,-294.5 441.5,-324.5 627.5,-324.5 627.5,-294.5 441.5,-294.5"/>
<text text-anchor="start" x="449.5" y="-312.5" font-family="Helvetica,sans-Serif" font-size="10.00">klyqa_ctl.devices.light.commands.</text>
<text text-anchor="middle" x="534.5" y="-301.5" font-family="Helvetica,sans-Serif" font-size="10.00">TransitionCommand.json</text>
</a>
</g>
</g>
<!-- Node4&#45;&gt;Node7 -->
<g id="edge6" class="edge">
<title>Node4&#45;&gt;Node7</title>
<path fill="none" stroke="midnightblue" d="M382.05,-309.5C397.61,-309.5 414.4,-309.5 430.94,-309.5"/>
<polygon fill="midnightblue" stroke="midnightblue" points="431.19,-313 441.19,-309.5 431.19,-306 431.19,-313"/>
</g>
<!-- Node8 -->
<g id="node8" class="node">
<title>Node8</title>
<g id="a_node8"><a xlink:href="classklyqa__ctl_1_1devices_1_1light_1_1commands_1_1ColorCommand.html#afa8f262e4047666707237c4dfe8615c3" target="_top" xlink:title=" ">
<polygon fill="white" stroke="black" points="441.5,-588.5 441.5,-618.5 627.5,-618.5 627.5,-588.5 441.5,-588.5"/>
<text text-anchor="start" x="449.5" y="-606.5" font-family="Helvetica,sans-Serif" font-size="10.00">klyqa_ctl.devices.light.commands.</text>
<text text-anchor="middle" x="534.5" y="-595.5" font-family="Helvetica,sans-Serif" font-size="10.00">ColorCommand.json</text>
</a>
</g>
</g>
<!-- Node4&#45;&gt;Node8 -->
<g id="edge7" class="edge">
<title>Node4&#45;&gt;Node8</title>
<path fill="none" stroke="midnightblue" d="M382.32,-322.66C387.82,-325.82 392.84,-329.72 397,-334.5 469.25,-417.52 358.7,-498.31 433,-579.5 433.66,-580.22 434.34,-580.93 435.04,-581.61"/>
<polygon fill="midnightblue" stroke="midnightblue" points="433.14,-584.58 443.08,-588.22 437.58,-579.17 433.14,-584.58"/>
</g>
<!-- Node11 -->
<g id="node11" class="node">
<title>Node11</title>
<g id="a_node11"><a xlink:href="classklyqa__ctl_1_1devices_1_1light_1_1commands_1_1TemperatureCommand.html#aaa297cd598227ab2f33a6d111532e5e0" target="_top" xlink:title=" ">
<polygon fill="white" stroke="black" points="441.5,-539.5 441.5,-569.5 627.5,-569.5 627.5,-539.5 441.5,-539.5"/>
<text text-anchor="start" x="449.5" y="-557.5" font-family="Helvetica,sans-Serif" font-size="10.00">klyqa_ctl.devices.light.commands.</text>
<text text-anchor="middle" x="534.5" y="-546.5" font-family="Helvetica,sans-Serif" font-size="10.00">TemperatureCommand.json</text>
</a>
</g>
</g>
<!-- Node4&#45;&gt;Node11 -->
<g id="edge10" class="edge">
<title>Node4&#45;&gt;Node11</title>
<path fill="none" stroke="midnightblue" d="M382.14,-322.82C387.67,-325.95 392.75,-329.79 397,-334.5 456.33,-400.26 372.05,-466.24 433,-530.5 433.8,-531.35 434.63,-532.16 435.48,-532.96"/>
<polygon fill="midnightblue" stroke="midnightblue" points="433.64,-535.97 443.67,-539.39 437.97,-530.46 433.64,-535.97"/>
</g>
<!-- Node14 -->
<g id="node14" class="node">
<title>Node14</title>
<g id="a_node14"><a xlink:href="classklyqa__ctl_1_1devices_1_1light_1_1commands_1_1BrightnessCommand.html#a946e7180dd8f3bd4621c23b24e63469a" target="_top" xlink:title=" ">
<polygon fill="white" stroke="black" points="441.5,-490.5 441.5,-520.5 627.5,-520.5 627.5,-490.5 441.5,-490.5"/>
<text text-anchor="start" x="449.5" y="-508.5" font-family="Helvetica,sans-Serif" font-size="10.00">klyqa_ctl.devices.light.commands.</text>
<text text-anchor="middle" x="534.5" y="-497.5" font-family="Helvetica,sans-Serif" font-size="10.00">BrightnessCommand.json</text>
</a>
</g>
</g>
<!-- Node4&#45;&gt;Node14 -->
<g id="edge13" class="edge">
<title>Node4&#45;&gt;Node14</title>
<path fill="none" stroke="midnightblue" d="M382.26,-323.31C387.7,-326.35 392.72,-330.03 397,-334.5 443.5,-383.1 385.3,-434.07 433,-481.5 433.97,-482.46 434.96,-483.39 435.99,-484.28"/>
<polygon fill="midnightblue" stroke="midnightblue" points="434.24,-487.33 444.36,-490.44 438.39,-481.69 434.24,-487.33"/>
</g>
<!-- Node17 -->
<g id="node17" class="node">
<title>Node17</title>
<g id="a_node17"><a xlink:href="classklyqa__ctl_1_1devices_1_1light_1_1commands_1_1ExternalSourceCommand.html#a393710b54f709b852bfd0f3769c39ce6" target="_top" xlink:title=" ">
<polygon fill="white" stroke="black" points="441.5,-98.5 441.5,-128.5 627.5,-128.5 627.5,-98.5 441.5,-98.5"/>
<text text-anchor="start" x="449.5" y="-116.5" font-family="Helvetica,sans-Serif" font-size="10.00">klyqa_ctl.devices.light.commands.</text>
<text text-anchor="middle" x="534.5" y="-105.5" font-family="Helvetica,sans-Serif" font-size="10.00">ExternalSourceCommand.json</text>
</a>
</g>
</g>
<!-- Node4&#45;&gt;Node17 -->
<g id="edge16" class="edge">
<title>Node4&#45;&gt;Node17</title>
<path fill="none" stroke="midnightblue" d="M382.25,-295.68C387.69,-292.65 392.72,-288.97 397,-284.5 443.24,-236.24 385.79,-185.81 433,-138.5 434.43,-137.07 435.93,-135.71 437.48,-134.43"/>
<polygon fill="midnightblue" stroke="midnightblue" points="439.57,-137.25 445.73,-128.62 435.54,-131.52 439.57,-137.25"/>
</g>
<!-- Node18 -->
<g id="node18" class="node">
<title>Node18</title>
<g id="a_node18"><a xlink:href="classklyqa__ctl_1_1devices_1_1light_1_1commands_1_1RoutineCommand.html#af3395a663a3dbdff8117ee708f80adec" target="_top" xlink:title=" ">
<polygon fill="white" stroke="black" points="441.5,-49.5 441.5,-79.5 627.5,-79.5 627.5,-49.5 441.5,-49.5"/>
<text text-anchor="start" x="449.5" y="-67.5" font-family="Helvetica,sans-Serif" font-size="10.00">klyqa_ctl.devices.light.commands.</text>
<text text-anchor="middle" x="534.5" y="-56.5" font-family="Helvetica,sans-Serif" font-size="10.00">RoutineCommand.json</text>
</a>
</g>
</g>
<!-- Node4&#45;&gt;Node18 -->
<g id="edge17" class="edge">
<title>Node4&#45;&gt;Node18</title>
<path fill="none" stroke="midnightblue" d="M382.13,-296.18C387.67,-293.05 392.75,-289.21 397,-284.5 456.06,-219.09 372.62,-153.7 433,-89.5 434.23,-88.19 435.51,-86.95 436.85,-85.77"/>
<polygon fill="midnightblue" stroke="midnightblue" points="439.11,-88.45 445,-79.65 434.9,-82.85 439.11,-88.45"/>
</g>
<!-- Node19 -->
<g id="node19" class="node">
<title>Node19</title>
<g id="a_node19"><a xlink:href="classklyqa__ctl_1_1devices_1_1vacuum_1_1commands_1_1ProductinfoCommand.html#a23d375f048835d4b0f12602764d2a6c1" target="_top" xlink:title=" ">
<polygon fill="white" stroke="black" points="433,-392.5 433,-422.5 636,-422.5 636,-392.5 433,-392.5"/>
<text text-anchor="start" x="441" y="-410.5" font-family="Helvetica,sans-Serif" font-size="10.00">klyqa_ctl.devices.vacuum.commands.</text>
<text text-anchor="middle" x="534.5" y="-399.5" font-family="Helvetica,sans-Serif" font-size="10.00">ProductinfoCommand.json</text>
</a>
</g>
</g>
<!-- Node4&#45;&gt;Node19 -->
<g id="edge18" class="edge">
<title>Node4&#45;&gt;Node19</title>
<path fill="none" stroke="midnightblue" d="M378.82,-324.51C385.24,-327.3 391.43,-330.6 397,-334.5 419.14,-350 410.48,-368.56 433,-383.5 435.45,-385.13 438,-386.64 440.63,-388.06"/>
<polygon fill="midnightblue" stroke="midnightblue" points="439.29,-391.3 449.82,-392.48 442.33,-384.99 439.29,-391.3"/>
</g>
<!-- Node21 -->
<g id="node21" class="node">
<title>Node21</title>
<g id="a_node21"><a xlink:href="classklyqa__ctl_1_1devices_1_1vacuum_1_1commands_1_1RequestGetCommand.html#a216966811184b718a4659bf081113f38" target="_top" xlink:title=" ">
<polygon fill="white" stroke="black" points="433,-343.5 433,-373.5 636,-373.5 636,-343.5 433,-343.5"/>
<text text-anchor="start" x="441" y="-361.5" font-family="Helvetica,sans-Serif" font-size="10.00">klyqa_ctl.devices.vacuum.commands.</text>
<text text-anchor="middle" x="534.5" y="-350.5" font-family="Helvetica,sans-Serif" font-size="10.00">RequestGetCommand.json</text>
</a>
</g>
</g>
<!-- Node4&#45;&gt;Node21 -->
<g id="edge20" class="edge">
<title>Node4&#45;&gt;Node21</title>
<path fill="none" stroke="midnightblue" d="M379.62,-324.53C403.59,-329.83 430.72,-335.81 455.44,-341.27"/>
<polygon fill="midnightblue" stroke="midnightblue" points="454.99,-344.76 465.51,-343.49 456.5,-337.92 454.99,-344.76"/>
</g>
<!-- Node23 -->
<g id="node23" class="node">
<title>Node23</title>
<g id="a_node23"><a xlink:href="classklyqa__ctl_1_1devices_1_1vacuum_1_1commands_1_1RequestResetCommand.html#a1ac56b80427d60d9f55079ae846ae25e" target="_top" xlink:title=" ">
<polygon fill="white" stroke="black" points="433,-245.5 433,-275.5 636,-275.5 636,-245.5 433,-245.5"/>
<text text-anchor="start" x="441" y="-263.5" font-family="Helvetica,sans-Serif" font-size="10.00">klyqa_ctl.devices.vacuum.commands.</text>
<text text-anchor="middle" x="534.5" y="-252.5" font-family="Helvetica,sans-Serif" font-size="10.00">RequestResetCommand.json</text>
</a>
</g>
</g>
<!-- Node4&#45;&gt;Node23 -->
<g id="edge22" class="edge">
<title>Node4&#45;&gt;Node23</title>
<path fill="none" stroke="midnightblue" d="M379.62,-294.47C403.59,-289.17 430.72,-283.19 455.44,-277.73"/>
<polygon fill="midnightblue" stroke="midnightblue" points="456.5,-281.08 465.51,-275.51 454.99,-274.24 456.5,-281.08"/>
</g>
<!-- Node25 -->
<g id="node25" class="node">
<title>Node25</title>
<g id="a_node25"><a xlink:href="classklyqa__ctl_1_1devices_1_1vacuum_1_1commands_1_1RequestSetCommand.html#a354b74be46f4b7d8a56811eaab910959" target="_top" xlink:title=" ">
<polygon fill="white" stroke="black" points="433,-196.5 433,-226.5 636,-226.5 636,-196.5 433,-196.5"/>
<text text-anchor="start" x="441" y="-214.5" font-family="Helvetica,sans-Serif" font-size="10.00">klyqa_ctl.devices.vacuum.commands.</text>
<text text-anchor="middle" x="534.5" y="-203.5" font-family="Helvetica,sans-Serif" font-size="10.00">RequestSetCommand.json</text>
</a>
</g>
</g>
<!-- Node4&#45;&gt;Node25 -->
<g id="edge24" class="edge">
<title>Node4&#45;&gt;Node25</title>
<path fill="none" stroke="midnightblue" d="M378.78,-294.43C385.21,-291.66 391.41,-288.38 397,-284.5 418.92,-269.31 410.78,-251.24 433,-236.5 436.1,-234.44 439.36,-232.55 442.74,-230.82"/>
<polygon fill="midnightblue" stroke="midnightblue" points="444.28,-233.96 451.88,-226.58 441.34,-227.61 444.28,-233.96"/>
</g>
<!-- Node27 -->
<g id="node27" class="node">
<title>Node27</title>
<g id="a_node27"><a xlink:href="classklyqa__ctl_1_1devices_1_1vacuum_1_1commands_1_1RoutineCommand.html#a926a94c8cc5104275078e438fb301028" target="_top" xlink:title=" ">
<polygon fill="white" stroke="black" points="433,-147.5 433,-177.5 636,-177.5 636,-147.5 433,-147.5"/>
<text text-anchor="start" x="441" y="-165.5" font-family="Helvetica,sans-Serif" font-size="10.00">klyqa_ctl.devices.vacuum.commands.</text>
<text text-anchor="middle" x="534.5" y="-154.5" font-family="Helvetica,sans-Serif" font-size="10.00">RoutineCommand.json</text>
</a>
</g>
</g>
<!-- Node4&#45;&gt;Node27 -->
<g id="edge26" class="edge">
<title>Node4&#45;&gt;Node27</title>
<path fill="none" stroke="midnightblue" d="M382.14,-294.93C387.53,-292.05 392.59,-288.61 397,-284.5 430.65,-253.16 398.72,-218.15 433,-187.5 434.74,-185.94 436.57,-184.48 438.46,-183.1"/>
<polygon fill="midnightblue" stroke="midnightblue" points="440.57,-185.91 447.17,-177.62 436.84,-179.98 440.57,-185.91"/>
</g>
<!-- Node29 -->
<g id="node29" class="node">
<title>Node29</title>
<g id="a_node29"><a xlink:href="classklyqa__ctl_1_1general_1_1general_1_1Command.html#a8c8ad93fedd0da0e0021f58714ec7fb5" target="_top" xlink:title=" ">
<polygon fill="white" stroke="black" points="463,-441.5 463,-471.5 606,-471.5 606,-441.5 463,-441.5"/>
<text text-anchor="start" x="471" y="-459.5" font-family="Helvetica,sans-Serif" font-size="10.00">klyqa_ctl.general.general.</text>
<text text-anchor="middle" x="534.5" y="-448.5" font-family="Helvetica,sans-Serif" font-size="10.00">Command.json</text>
</a>
</g>
</g>
<!-- Node4&#45;&gt;Node29 -->
<g id="edge28" class="edge">
<title>Node4&#45;&gt;Node29</title>
<path fill="none" stroke="midnightblue" d="M382.15,-324.06C387.55,-326.94 392.59,-330.38 397,-334.5 430.9,-366.18 398.32,-401.67 433,-432.5 438.99,-437.82 445.94,-442.02 453.35,-445.32"/>
<polygon fill="midnightblue" stroke="midnightblue" points="452.34,-448.68 462.93,-449.03 454.87,-442.15 452.34,-448.68"/>
</g>
<!-- Node30 -->
<g id="node30" class="node">
<title>Node30</title>
<g id="a_node30"><a xlink:href="classklyqa__ctl_1_1general_1_1general_1_1CommandTyped.html#a96dfd43912c4640f381424bdd44eebca" target="_top" xlink:title=" ">
<polygon fill="white" stroke="black" points="463,-0.5 463,-30.5 606,-30.5 606,-0.5 463,-0.5"/>
<text text-anchor="start" x="471" y="-18.5" font-family="Helvetica,sans-Serif" font-size="10.00">klyqa_ctl.general.general.</text>
<text text-anchor="middle" x="534.5" y="-7.5" font-family="Helvetica,sans-Serif" font-size="10.00">CommandTyped.json</text>
</a>
</g>
</g>
<!-- Node4&#45;&gt;Node30 -->
<g id="edge29" class="edge">
<title>Node4&#45;&gt;Node30</title>
<path fill="none" stroke="midnightblue" d="M382.32,-296.34C387.82,-293.18 392.84,-289.28 397,-284.5 469.25,-201.48 358.7,-120.69 433,-39.5 438.75,-33.22 445.81,-28.45 453.51,-24.83"/>
<polygon fill="midnightblue" stroke="midnightblue" points="454.83,-28.08 462.8,-21.1 452.22,-21.58 454.83,-28.08"/>
</g>
<!-- Node6 -->
<g id="node6" class="node">
<title>Node6</title>
<g id="a_node6"><a xlink:href="classklyqa__ctl_1_1devices_1_1light_1_1commands_1_1FwUpdateCommand.html#a7dc482a4e9a65d49ce0a61671ed6868e" target="_top" xlink:title=" ">
<polygon fill="white" stroke="black" points="688,-637.5 688,-667.5 874,-667.5 874,-637.5 688,-637.5"/>
<text text-anchor="start" x="696" y="-655.5" font-family="Helvetica,sans-Serif" font-size="10.00">klyqa_ctl.devices.light.commands.</text>
<text text-anchor="middle" x="781" y="-644.5" font-family="Helvetica,sans-Serif" font-size="10.00">FwUpdateCommand.url_json</text>
</a>
</g>
</g>
<!-- Node5&#45;&gt;Node6 -->
<g id="edge5" class="edge">
<title>Node5&#45;&gt;Node6</title>
<path fill="none" stroke="midnightblue" d="M627.59,-652.5C643.95,-652.5 661.09,-652.5 677.72,-652.5"/>
<polygon fill="midnightblue" stroke="midnightblue" points="678,-656 688,-652.5 678,-649 678,-656"/>
</g>
<!-- Node9 -->
<g id="node9" class="node">
<title>Node9</title>
<g id="a_node9"><a xlink:href="classklyqa__ctl_1_1devices_1_1light_1_1commands_1_1ColorCommand.html#a6ce99d7f4f232fb2f11e6efb7e85e778" target="_top" xlink:title=" ">
<polygon fill="white" stroke="black" points="688,-588.5 688,-618.5 874,-618.5 874,-588.5 688,-588.5"/>
<text text-anchor="start" x="696" y="-606.5" font-family="Helvetica,sans-Serif" font-size="10.00">klyqa_ctl.devices.light.commands.</text>
<text text-anchor="middle" x="781" y="-595.5" font-family="Helvetica,sans-Serif" font-size="10.00">ColorCommand.color_json</text>
</a>
</g>
</g>
<!-- Node8&#45;&gt;Node9 -->
<g id="edge8" class="edge">
<title>Node8&#45;&gt;Node9</title>
<path fill="none" stroke="midnightblue" d="M627.59,-603.5C643.95,-603.5 661.09,-603.5 677.72,-603.5"/>
<polygon fill="midnightblue" stroke="midnightblue" points="678,-607 688,-603.5 678,-600 678,-607"/>
</g>
<!-- Node10 -->
<g id="node10" class="node">
<title>Node10</title>
<g id="a_node10"><a xlink:href="classklyqa__ctl_1_1devices_1_1light_1_1response__status_1_1ResponseStatus.html#a327c18fd6f8a38e75e1bbc2f895df592" target="_top" xlink:title=" ">
<polygon fill="white" stroke="black" points="938,-588.5 938,-618.5 1111,-618.5 1111,-588.5 938,-588.5"/>
<text text-anchor="start" x="946" y="-606.5" font-family="Helvetica,sans-Serif" font-size="10.00">klyqa_ctl.devices.light.response</text>
<text text-anchor="middle" x="1024.5" y="-595.5" font-family="Helvetica,sans-Serif" font-size="10.00">_status.ResponseStatus.color</text>
</a>
</g>
</g>
<!-- Node9&#45;&gt;Node10 -->
<g id="edge9" class="edge">
<title>Node9&#45;&gt;Node10</title>
<path fill="none" stroke="midnightblue" d="M874.33,-603.5C891.81,-603.5 910.13,-603.5 927.71,-603.5"/>
<polygon fill="midnightblue" stroke="midnightblue" points="927.96,-607 937.96,-603.5 927.96,-600 927.96,-607"/>
</g>
<!-- Node12 -->
<g id="node12" class="node">
<title>Node12</title>
<g id="a_node12"><a xlink:href="classklyqa__ctl_1_1devices_1_1light_1_1commands_1_1TemperatureCommand.html#a0b45255dc9218a36450152f1118a8280" target="_top" xlink:title=" ">
<polygon fill="white" stroke="black" points="672,-539.5 672,-569.5 890,-569.5 890,-539.5 672,-539.5"/>
<text text-anchor="start" x="680" y="-557.5" font-family="Helvetica,sans-Serif" font-size="10.00">klyqa_ctl.devices.light.commands.</text>
<text text-anchor="middle" x="781" y="-546.5" font-family="Helvetica,sans-Serif" font-size="10.00">TemperatureCommand.temperature_json</text>
</a>
</g>
</g>
<!-- Node11&#45;&gt;Node12 -->
<g id="edge11" class="edge">
<title>Node11&#45;&gt;Node12</title>
<path fill="none" stroke="midnightblue" d="M627.59,-554.5C638.79,-554.5 650.35,-554.5 661.87,-554.5"/>
<polygon fill="midnightblue" stroke="midnightblue" points="661.96,-558 671.96,-554.5 661.96,-551 661.96,-558"/>
</g>
<!-- Node13 -->
<g id="node13" class="node">
<title>Node13</title>
<g id="a_node13"><a xlink:href="classklyqa__ctl_1_1devices_1_1light_1_1response__status_1_1ResponseStatus.html#a2e732c44c35f39dc3d8fe269c24aef8a" target="_top" xlink:title=" ">
<polygon fill="white" stroke="black" points="926,-539.5 926,-569.5 1123,-569.5 1123,-539.5 926,-539.5"/>
<text text-anchor="start" x="934" y="-557.5" font-family="Helvetica,sans-Serif" font-size="10.00">klyqa_ctl.devices.light.response</text>
<text text-anchor="middle" x="1024.5" y="-546.5" font-family="Helvetica,sans-Serif" font-size="10.00">_status.ResponseStatus.temperature</text>
</a>
</g>
</g>
<!-- Node12&#45;&gt;Node13 -->
<g id="edge12" class="edge">
<title>Node12&#45;&gt;Node13</title>
<path fill="none" stroke="midnightblue" d="M890.04,-554.5C898.61,-554.5 907.27,-554.5 915.85,-554.5"/>
<polygon fill="midnightblue" stroke="midnightblue" points="915.86,-558 925.86,-554.5 915.86,-551 915.86,-558"/>
</g>
<!-- Node15 -->
<g id="node15" class="node">
<title>Node15</title>
<g id="a_node15"><a xlink:href="classklyqa__ctl_1_1devices_1_1light_1_1commands_1_1BrightnessCommand.html#aba34fce7f4d8d6aae6bcbaaa61c21a8c" target="_top" xlink:title=" ">
<polygon fill="white" stroke="black" points="682,-490.5 682,-520.5 880,-520.5 880,-490.5 682,-490.5"/>
<text text-anchor="start" x="690" y="-508.5" font-family="Helvetica,sans-Serif" font-size="10.00">klyqa_ctl.devices.light.commands.</text>
<text text-anchor="middle" x="781" y="-497.5" font-family="Helvetica,sans-Serif" font-size="10.00">BrightnessCommand.brightness_json</text>
</a>
</g>
</g>
<!-- Node14&#45;&gt;Node15 -->
<g id="edge14" class="edge">
<title>Node14&#45;&gt;Node15</title>
<path fill="none" stroke="midnightblue" d="M627.59,-505.5C641.99,-505.5 657,-505.5 671.73,-505.5"/>
<polygon fill="midnightblue" stroke="midnightblue" points="671.87,-509 681.87,-505.5 671.87,-502 671.87,-509"/>
</g>
<!-- Node16 -->
<g id="node16" class="node">
<title>Node16</title>
<g id="a_node16"><a xlink:href="classklyqa__ctl_1_1devices_1_1light_1_1response__status_1_1ResponseStatus.html#a762787729b726f6ad8bd5a9a3ae40a67" target="_top" xlink:title=" ">
<polygon fill="white" stroke="black" points="931,-490.5 931,-520.5 1118,-520.5 1118,-490.5 931,-490.5"/>
<text text-anchor="start" x="939" y="-508.5" font-family="Helvetica,sans-Serif" font-size="10.00">klyqa_ctl.devices.light.response</text>
<text text-anchor="middle" x="1024.5" y="-497.5" font-family="Helvetica,sans-Serif" font-size="10.00">_status.ResponseStatus.brightness</text>
</a>
</g>
</g>
<!-- Node15&#45;&gt;Node16 -->
<g id="edge15" class="edge">
<title>Node15&#45;&gt;Node16</title>
<path fill="none" stroke="midnightblue" d="M880.23,-505.5C893.55,-505.5 907.25,-505.5 920.64,-505.5"/>
<polygon fill="midnightblue" stroke="midnightblue" points="920.82,-509 930.82,-505.5 920.82,-502 920.82,-509"/>
</g>
<!-- Node20 -->
<g id="node20" class="node">
<title>Node20</title>
<g id="a_node20"><a xlink:href="classklyqa__ctl_1_1devices_1_1vacuum_1_1commands_1_1ProductinfoCommand.html#a1950a810783ab6312c31fa43dd06182c" target="_top" xlink:title=" ">
<polygon fill="white" stroke="black" points="678,-392.5 678,-422.5 884,-422.5 884,-392.5 678,-392.5"/>
<text text-anchor="start" x="686" y="-410.5" font-family="Helvetica,sans-Serif" font-size="10.00">klyqa_ctl.devices.vacuum.commands.</text>
<text text-anchor="middle" x="781" y="-399.5" font-family="Helvetica,sans-Serif" font-size="10.00">ProductinfoCommand.productinfo_json</text>
</a>
</g>
</g>
<!-- Node19&#45;&gt;Node20 -->
<g id="edge19" class="edge">
<title>Node19&#45;&gt;Node20</title>
<path fill="none" stroke="midnightblue" d="M636.01,-407.5C646.49,-407.5 657.19,-407.5 667.79,-407.5"/>
<polygon fill="midnightblue" stroke="midnightblue" points="667.91,-411 677.91,-407.5 667.91,-404 667.91,-411"/>
</g>
<!-- Node22 -->
<g id="node22" class="node">
<title>Node22</title>
<g id="a_node22"><a xlink:href="classklyqa__ctl_1_1devices_1_1vacuum_1_1commands_1_1RequestGetCommand.html#a71be3cb060fa2c05f2762d13267c6144" target="_top" xlink:title=" ">
<polygon fill="white" stroke="black" points="679.5,-343.5 679.5,-373.5 882.5,-373.5 882.5,-343.5 679.5,-343.5"/>
<text text-anchor="start" x="687.5" y="-361.5" font-family="Helvetica,sans-Serif" font-size="10.00">klyqa_ctl.devices.vacuum.commands.</text>
<text text-anchor="middle" x="781" y="-350.5" font-family="Helvetica,sans-Serif" font-size="10.00">RequestGetCommand.get_json</text>
</a>
</g>
</g>
<!-- Node21&#45;&gt;Node22 -->
<g id="edge21" class="edge">
<title>Node21&#45;&gt;Node22</title>
<path fill="none" stroke="midnightblue" d="M636.01,-358.5C647,-358.5 658.23,-358.5 669.34,-358.5"/>
<polygon fill="midnightblue" stroke="midnightblue" points="669.49,-362 679.49,-358.5 669.49,-355 669.49,-362"/>
</g>
<!-- Node24 -->
<g id="node24" class="node">
<title>Node24</title>
<g id="a_node24"><a xlink:href="classklyqa__ctl_1_1devices_1_1vacuum_1_1commands_1_1RequestResetCommand.html#a53de7ccfeb12e1b8f4c0ea8a82410d4e" target="_top" xlink:title=" ">
<polygon fill="white" stroke="black" points="679.5,-245.5 679.5,-275.5 882.5,-275.5 882.5,-245.5 679.5,-245.5"/>
<text text-anchor="start" x="687.5" y="-263.5" font-family="Helvetica,sans-Serif" font-size="10.00">klyqa_ctl.devices.vacuum.commands.</text>
<text text-anchor="middle" x="781" y="-252.5" font-family="Helvetica,sans-Serif" font-size="10.00">RequestResetCommand.reset_json</text>
</a>
</g>
</g>
<!-- Node23&#45;&gt;Node24 -->
<g id="edge23" class="edge">
<title>Node23&#45;&gt;Node24</title>
<path fill="none" stroke="midnightblue" d="M636.01,-260.5C647,-260.5 658.23,-260.5 669.34,-260.5"/>
<polygon fill="midnightblue" stroke="midnightblue" points="669.49,-264 679.49,-260.5 669.49,-257 669.49,-264"/>
</g>
<!-- Node26 -->
<g id="node26" class="node">
<title>Node26</title>
<g id="a_node26"><a xlink:href="classklyqa__ctl_1_1devices_1_1vacuum_1_1commands_1_1RequestSetCommand.html#ac327b3b919e0d1a45ebe754e546f94f8" target="_top" xlink:title=" ">
<polygon fill="white" stroke="black" points="679.5,-196.5 679.5,-226.5 882.5,-226.5 882.5,-196.5 679.5,-196.5"/>
<text text-anchor="start" x="687.5" y="-214.5" font-family="Helvetica,sans-Serif" font-size="10.00">klyqa_ctl.devices.vacuum.commands.</text>
<text text-anchor="middle" x="781" y="-203.5" font-family="Helvetica,sans-Serif" font-size="10.00">RequestSetCommand.set_json</text>
</a>
</g>
</g>
<!-- Node25&#45;&gt;Node26 -->
<g id="edge25" class="edge">
<title>Node25&#45;&gt;Node26</title>
<path fill="none" stroke="midnightblue" d="M636.01,-211.5C647,-211.5 658.23,-211.5 669.34,-211.5"/>
<polygon fill="midnightblue" stroke="midnightblue" points="669.49,-215 679.49,-211.5 669.49,-208 669.49,-215"/>
</g>
<!-- Node28 -->
<g id="node28" class="node">
<title>Node28</title>
<g id="a_node28"><a xlink:href="classklyqa__ctl_1_1devices_1_1vacuum_1_1commands_1_1RoutineCommand.html#acaf3db880f88d37bb1cf8218a309e52c" target="_top" xlink:title=" ">
<polygon fill="white" stroke="black" points="679.5,-147.5 679.5,-177.5 882.5,-177.5 882.5,-147.5 679.5,-147.5"/>
<text text-anchor="start" x="687.5" y="-165.5" font-family="Helvetica,sans-Serif" font-size="10.00">klyqa_ctl.devices.vacuum.commands.</text>
<text text-anchor="middle" x="781" y="-154.5" font-family="Helvetica,sans-Serif" font-size="10.00">RoutineCommand.routine_json</text>
</a>
</g>
</g>
<!-- Node27&#45;&gt;Node28 -->
<g id="edge27" class="edge">
<title>Node27&#45;&gt;Node28</title>
<path fill="none" stroke="midnightblue" d="M636.01,-162.5C647,-162.5 658.23,-162.5 669.34,-162.5"/>
<polygon fill="midnightblue" stroke="midnightblue" points="669.49,-166 679.49,-162.5 669.49,-159 669.49,-166"/>
</g>
<!-- Node31 -->
<g id="node31" class="node">
<title>Node31</title>
<g id="a_node31"><a xlink:href="classklyqa__ctl_1_1devices_1_1response__message_1_1ResponseMessage.html#a076bcd25b3f41acdc763569b279c4545" target="_top" xlink:title=" ">
<polygon fill="white" stroke="black" points="688.5,-0.5 688.5,-30.5 873.5,-30.5 873.5,-0.5 688.5,-0.5"/>
<text text-anchor="start" x="696.5" y="-18.5" font-family="Helvetica,sans-Serif" font-size="10.00">klyqa_ctl.devices.response</text>
<text text-anchor="middle" x="781" y="-7.5" font-family="Helvetica,sans-Serif" font-size="10.00">_message.ResponseMessage.type</text>
</a>
</g>
</g>
<!-- Node30&#45;&gt;Node31 -->
<g id="edge30" class="edge">
<title>Node30&#45;&gt;Node31</title>
<path fill="none" stroke="midnightblue" d="M606.22,-15.5C628.68,-15.5 653.98,-15.5 678.18,-15.5"/>
<polygon fill="midnightblue" stroke="midnightblue" points="678.47,-19 688.47,-15.5 678.47,-12 678.47,-19"/>
</g>
<!-- Node32&#45;&gt;Node5 -->
<g id="edge32" class="edge">
<title>Node32&#45;&gt;Node5</title>
<path fill="none" stroke="midnightblue" d="M385.09,-373.35C389.51,-376.18 393.55,-379.53 397,-383.5 469.25,-466.52 358.7,-547.31 433,-628.5 433.66,-629.22 434.34,-629.93 435.04,-630.61"/>
<polygon fill="midnightblue" stroke="midnightblue" points="433.14,-633.58 443.08,-637.22 437.58,-628.17 433.14,-633.58"/>
</g>
<!-- Node32&#45;&gt;Node7 -->
<g id="edge33" class="edge">
<title>Node32&#45;&gt;Node7</title>
<path fill="none" stroke="midnightblue" d="M379.62,-343.47C403.59,-338.17 430.72,-332.19 455.44,-326.73"/>
<polygon fill="midnightblue" stroke="midnightblue" points="456.5,-330.08 465.51,-324.51 454.99,-323.24 456.5,-330.08"/>
</g>
<!-- Node32&#45;&gt;Node8 -->
<g id="edge34" class="edge">
<title>Node32&#45;&gt;Node8</title>
<path fill="none" stroke="midnightblue" d="M385.32,-373.73C389.62,-376.48 393.58,-379.71 397,-383.5 456.33,-449.26 372.05,-515.24 433,-579.5 433.8,-580.35 434.63,-581.16 435.48,-581.96"/>
<polygon fill="midnightblue" stroke="midnightblue" points="433.64,-584.97 443.67,-588.39 437.97,-579.46 433.64,-584.97"/>
</g>
<!-- Node32&#45;&gt;Node11 -->
<g id="edge35" class="edge">
<title>Node32&#45;&gt;Node11</title>
<path fill="none" stroke="midnightblue" d="M384.68,-373.72C389.19,-376.47 393.37,-379.7 397,-383.5 443.5,-432.1 385.3,-483.07 433,-530.5 433.97,-531.46 434.96,-532.39 435.99,-533.28"/>
<polygon fill="midnightblue" stroke="midnightblue" points="434.24,-536.33 444.36,-539.44 438.39,-530.69 434.24,-536.33"/>
</g>
<!-- Node32&#45;&gt;Node14 -->
<g id="edge36" class="edge">
<title>Node32&#45;&gt;Node14</title>
<path fill="none" stroke="midnightblue" d="M382.98,-373.51C388.06,-376.29 392.82,-379.59 397,-383.5 430.9,-415.18 398.32,-450.67 433,-481.5 434.17,-482.54 435.38,-483.54 436.63,-484.5"/>
<polygon fill="midnightblue" stroke="midnightblue" points="435.01,-487.63 445.28,-490.24 438.88,-481.79 435.01,-487.63"/>
</g>
<!-- Node32&#45;&gt;Node17 -->
<g id="edge37" class="edge">
<title>Node32&#45;&gt;Node17</title>
<path fill="none" stroke="midnightblue" d="M385.3,-344.15C389.61,-341.45 393.57,-338.26 397,-334.5 456.68,-269.06 372.35,-203.04 433,-138.5 434.23,-137.19 435.51,-135.95 436.85,-134.77"/>
<polygon fill="midnightblue" stroke="midnightblue" points="439.1,-137.45 445,-128.65 434.9,-131.85 439.1,-137.45"/>
</g>
<!-- Node32&#45;&gt;Node18 -->
<g id="edge38" class="edge">
<title>Node32&#45;&gt;Node18</title>
<path fill="none" stroke="midnightblue" d="M385.06,-344.54C389.49,-341.75 393.54,-338.44 397,-334.5 469.7,-251.87 359.08,-171.04 433,-89.5 434.06,-88.33 435.16,-87.22 436.3,-86.15"/>
<polygon fill="midnightblue" stroke="midnightblue" points="438.69,-88.73 444.39,-79.79 434.37,-83.22 438.69,-88.73"/>
</g>
<!-- Node32&#45;&gt;Node19 -->
<g id="edge39" class="edge">
<title>Node32&#45;&gt;Node19</title>
<path fill="none" stroke="midnightblue" d="M379.62,-373.53C403.59,-378.83 430.72,-384.81 455.44,-390.27"/>
<polygon fill="midnightblue" stroke="midnightblue" points="454.99,-393.76 465.51,-392.49 456.5,-386.92 454.99,-393.76"/>
</g>
<!-- Node32&#45;&gt;Node21 -->
<g id="edge40" class="edge">
<title>Node32&#45;&gt;Node21</title>
<path fill="none" stroke="midnightblue" d="M385.11,-358.5C397.17,-358.5 409.88,-358.5 422.6,-358.5"/>
<polygon fill="midnightblue" stroke="midnightblue" points="422.78,-362 432.78,-358.5 422.78,-355 422.78,-362"/>
</g>
<!-- Node32&#45;&gt;Node23 -->
<g id="edge41" class="edge">
<title>Node32&#45;&gt;Node23</title>
<path fill="none" stroke="midnightblue" d="M380.99,-343.38C386.63,-340.86 392.06,-337.92 397,-334.5 419.22,-319.12 410.55,-300.55 433,-285.5 436.09,-283.43 439.35,-281.52 442.71,-279.78"/>
<polygon fill="midnightblue" stroke="midnightblue" points="444.26,-282.92 451.84,-275.52 441.3,-276.58 444.26,-282.92"/>
</g>
<!-- Node32&#45;&gt;Node25 -->
<g id="edge42" class="edge">
<title>Node32&#45;&gt;Node25</title>
<path fill="none" stroke="midnightblue" d="M384.6,-343.46C389.07,-340.92 393.26,-337.95 397,-334.5 431.07,-303 398.46,-267.49 433,-236.5 434.74,-234.94 436.56,-233.47 438.45,-232.09"/>
<polygon fill="midnightblue" stroke="midnightblue" points="440.57,-234.9 447.15,-226.6 436.83,-228.98 440.57,-234.9"/>
</g>
<!-- Node32&#45;&gt;Node27 -->
<g id="edge43" class="edge">
<title>Node32&#45;&gt;Node27</title>
<path fill="none" stroke="midnightblue" d="M385.05,-343.92C389.42,-341.27 393.46,-338.16 397,-334.5 443.76,-286.15 385.52,-235.15 433,-187.5 434.43,-186.07 435.92,-184.71 437.48,-183.43"/>
<polygon fill="midnightblue" stroke="midnightblue" points="439.57,-186.24 445.72,-177.62 435.53,-180.52 439.57,-186.24"/>
</g>
<!-- Node32&#45;&gt;Node29 -->
<g id="edge44" class="edge">
<title>Node32&#45;&gt;Node29</title>
<path fill="none" stroke="midnightblue" d="M378.82,-373.51C385.24,-376.3 391.43,-379.6 397,-383.5 419.14,-399 410.48,-417.56 433,-432.5 439.17,-436.59 445.95,-439.99 453,-442.8"/>
<polygon fill="midnightblue" stroke="midnightblue" points="452.15,-446.22 462.75,-446.3 454.52,-439.63 452.15,-446.22"/>
</g>
<!-- Node32&#45;&gt;Node30 -->
<g id="edge45" class="edge">
<title>Node32&#45;&gt;Node30</title>
<path fill="none" stroke="midnightblue" d="M385.17,-344.63C389.57,-341.82 393.59,-338.48 397,-334.5 483.03,-234.27 345.02,-138.02 433,-39.5 438.71,-33.1 445.79,-28.26 453.53,-24.61"/>
<polygon fill="midnightblue" stroke="midnightblue" points="454.91,-27.83 462.88,-20.86 452.3,-21.34 454.91,-27.83"/>
</g>
</g>
</svg>
        <g id="navigator" transform="translate(0 0)" fill="#404254">
                <rect fill="#f2f5e9" fill-opacity="0.5" stroke="#606060" stroke-width=".5" x="0" y="0" width="60" height="60"/>
                <use id="zoomplus" xlink:href="#zoomPlus" x="17" y="9" onmousedown="handleZoom(evt,'in')"/>
                <use id="zoomminus" xlink:href="#zoomMin" x="42" y="9" onmousedown="handleZoom(evt,'out')"/>
                <use id="reset" xlink:href="#resetDef" x="30" y="36" onmousedown="handleReset()"/>
                <g id="arrowUp" xlink:href="#dirArrow" transform="translate(30 24)" onmousedown="handlePan(0,-1)">
                  <use xlink:href="#rim" fill="#404040">
                        <set attributeName="fill" to="#808080" begin="arrowUp.mouseover" end="arrowUp.mouseout"/>
                  </use>
                  <path fill="none" stroke="white" stroke-width="1.5" d="M0,-3.0v7 M-2.5,-0.5L0,-3.0L2.5,-0.5"/>
                </g>
                <g id="arrowRight" xlink:href="#dirArrow" transform="rotate(90) translate(36 -43)" onmousedown="handlePan(1,0)">
                  <use xlink:href="#rim" fill="#404040">
                        <set attributeName="fill" to="#808080" begin="arrowRight.mouseover" end="arrowRight.mouseout"/>
                  </use>
                  <path fill="none" stroke="white" stroke-width="1.5" d="M0,-3.0v7 M-2.5,-0.5L0,-3.0L2.5,-0.5"/>
                </g>
                <g id="arrowDown" xlink:href="#dirArrow" transform="rotate(180) translate(-30 -48)" onmousedown="handlePan(0,1)">
                  <use xlink:href="#rim" fill="#404040">
                        <set attributeName="fill" to="#808080" begin="arrowDown.mouseover" end="arrowDown.mouseout"/>
                  </use>
                  <path fill="none" stroke="white" stroke-width="1.5" d="M0,-3.0v7 M-2.5,-0.5L0,-3.0L2.5,-0.5"/>
                </g>
                <g id="arrowLeft" xlink:href="#dirArrow" transform="rotate(270) translate(-36 17)" onmousedown="handlePan(-1,0)">
                  <use xlink:href="#rim" fill="#404040">
                        <set attributeName="fill" to="#808080" begin="arrowLeft.mouseover" end="arrowLeft.mouseout"/>
                  </use>
                  <path fill="none" stroke="white" stroke-width="1.5" d="M0,-3.0v7 M-2.5,-0.5L0,-3.0L2.5,-0.5"/>
                </g>
        </g>
        <svg viewBox="0 0 15 15" width="100%" height="30px" preserveAspectRatio="xMaxYMin meet">
         <g id="arrow_out" transform="scale(0.3 0.3)">
          <a xlink:href="classklyqa__ctl_1_1account_1_1Account_a19bd2d6d0ae6a4e738c4d40453557606_cgraph_org.svg" target="_base">
           <rect id="button" ry="5" rx="5" y="6" x="6" height="38" width="38"
                fill="#f2f5e9" fill-opacity="0.5" stroke="#606060" stroke-width="1.0"/>
           <path id="arrow"
             d="M 11.500037,31.436501 C 11.940474,20.09759 22.043105,11.32322 32.158766,21.979434 L 37.068811,17.246167 C 37.068811,17.246167 37.088388,32 37.088388,32 L 22.160133,31.978069 C 22.160133,31.978069 26.997745,27.140456 26.997745,27.140456 C 18.528582,18.264221 13.291696,25.230495 11.500037,31.436501 z"
             style="fill:#404040;"/>
          </a>
         </g>
        </svg>
</svg>
