<?xml version="1.0" encoding="UTF-8" standalone="no"?>
<!DOCTYPE svg PUBLIC "-//W3C//DTD SVG 1.1//EN"
 "http://www.w3.org/Graphics/SVG/1.1/DTD/svg11.dtd">
<!-- Generated by graphviz version 2.43.0 (0)
 -->
<!-- Title: klyqa_ctl.devices.cloud_state.DeviceCloudState.received_packages Pages: 1 -->
<svg width="408pt" height="50pt"
 viewBox="0.00 0.00 408.00 50.00" xmlns="http://www.w3.org/2000/svg" xmlns:xlink="http://www.w3.org/1999/xlink">
<g id="graph0" class="graph" transform="scale(1 1) rotate(0) translate(4 46)">
<title>klyqa_ctl.devices.cloud_state.DeviceCloudState.received_packages</title>
<polygon fill="white" stroke="transparent" points="-4,4 -4,-46 404,-46 404,4 -4,4"/>
<!-- Node1 -->
<g id="node1" class="node">
<title>Node1</title>
<g id="a_node1"><a xlink:title=" ">
<polygon fill="#bfbfbf" stroke="black" points="0,-0.5 0,-41.5 182,-41.5 182,-0.5 0,-0.5"/>
<text text-anchor="start" x="8" y="-29.5" font-family="Helvetica,sans-Serif" font-size="10.00">klyqa_ctl.devices.cloud</text>
<text text-anchor="start" x="8" y="-18.5" font-family="Helvetica,sans-Serif" font-size="10.00">_state.DeviceCloudState.received</text>
<text text-anchor="middle" x="91" y="-7.5" font-family="Helvetica,sans-Serif" font-size="10.00">_packages</text>
</a>
</g>
</g>
<!-- Node2 -->
<g id="node2" class="node">
<title>Node2</title>
<g id="a_node2"><a xlink:href="classklyqa__ctl_1_1devices_1_1cloud__state_1_1DeviceCloudState.html#a9260902f5035a4dd1795d0419d1dd073" target="_top" xlink:title=" ">
<polygon fill="white" stroke="black" points="218,-0.5 218,-41.5 400,-41.5 400,-0.5 218,-0.5"/>
<text text-anchor="start" x="226" y="-29.5" font-family="Helvetica,sans-Serif" font-size="10.00">klyqa_ctl.devices.cloud</text>
<text text-anchor="start" x="226" y="-18.5" font-family="Helvetica,sans-Serif" font-size="10.00">_state.DeviceCloudState.received</text>
<text text-anchor="middle" x="309" y="-7.5" font-family="Helvetica,sans-Serif" font-size="10.00">_packages</text>
</a>
</g>
</g>
<!-- Node1&#45;&gt;Node2 -->
<g id="edge1" class="edge">
<title>Node1&#45;&gt;Node2</title>
<path fill="none" stroke="midnightblue" d="M182.04,-21C190.53,-21 199.16,-21 207.74,-21"/>
<polygon fill="midnightblue" stroke="midnightblue" points="207.76,-24.5 217.76,-21 207.76,-17.5 207.76,-24.5"/>
</g>
</g>
</svg>
