<?xml version="1.0" encoding="UTF-8" standalone="no"?>
<!DOCTYPE svg PUBLIC "-//W3C//DTD SVG 1.1//EN"
 "http://www.w3.org/Graphics/SVG/1.1/DTD/svg11.dtd">
<!-- Generated by graphviz version 2.43.0 (0)
 -->
<!-- Title: klyqa_ctl.klyqa_ctl.Client.cloud Pages: 1 -->
<svg width="1479pt" height="756pt"
 viewBox="0.00 0.00 1479.00 756.45" xmlns="http://www.w3.org/2000/svg" xmlns:xlink="http://www.w3.org/1999/xlink">
<g id="graph0" class="graph" transform="scale(1 1) rotate(0) translate(4 752.45)">
<title>klyqa_ctl.klyqa_ctl.Client.cloud</title>
<polygon fill="white" stroke="transparent" points="-4,4 -4,-752.45 1475,-752.45 1475,4 -4,4"/>
<!-- Node1 -->
<g id="node1" class="node">
<title>Node1</title>
<g id="a_node1"><a xlink:title=" ">
<polygon fill="#bfbfbf" stroke="black" points="1302,-405.95 1302,-424.95 1471,-424.95 1471,-405.95 1302,-405.95"/>
<text text-anchor="middle" x="1386.5" y="-412.95" font-family="Helvetica,sans-Serif" font-size="10.00">klyqa_ctl.klyqa_ctl.Client.cloud</text>
</a>
</g>
</g>
<!-- Node2 -->
<g id="node2" class="node">
<title>Node2</title>
<g id="a_node2"><a xlink:href="classklyqa__ctl_1_1klyqa__ctl_1_1Client.html#ab129f0608f5651109b893aed3671e00e" target="_top" xlink:title=" ">
<polygon fill="white" stroke="black" points="883.5,-575.45 883.5,-605.45 1044.5,-605.45 1044.5,-575.45 883.5,-575.45"/>
<text text-anchor="start" x="891.5" y="-593.45" font-family="Helvetica,sans-Serif" font-size="10.00">klyqa_ctl.klyqa_ctl.Client.add</text>
<text text-anchor="middle" x="964" y="-582.45" font-family="Helvetica,sans-Serif" font-size="10.00">_account</text>
</a>
</g>
</g>
<!-- Node1&#45;&gt;Node2 -->
<g id="edge1" class="edge">
<title>Node1&#45;&gt;Node2</title>
<path fill="none" stroke="midnightblue" d="M1368.39,-432.32C1346.43,-453.06 1306.35,-488.03 1266,-508.45 1195.33,-544.22 1107.16,-565.88 1044.56,-577.88"/>
<polygon fill="midnightblue" stroke="midnightblue" points="1371.09,-434.57 1375.87,-425.12 1366.24,-429.53 1371.09,-434.57"/>
</g>
<!-- Node3 -->
<g id="node3" class="node">
<title>Node3</title>
<g id="a_node3"><a xlink:href="classklyqa__ctl_1_1account_1_1Account.html#a19bd2d6d0ae6a4e738c4d40453557606" target="_top" xlink:title=" ">
<polygon fill="white" stroke="black" points="870,-43.45 870,-73.45 1058,-73.45 1058,-43.45 870,-43.45"/>
<text text-anchor="start" x="878" y="-61.45" font-family="Helvetica,sans-Serif" font-size="10.00">klyqa_ctl.account.Account.backend</text>
<text text-anchor="middle" x="964" y="-50.45" font-family="Helvetica,sans-Serif" font-size="10.00">_connected</text>
</a>
</g>
</g>
<!-- Node1&#45;&gt;Node3 -->
<g id="edge2" class="edge">
<title>Node1&#45;&gt;Node3</title>
<path fill="none" stroke="midnightblue" d="M1384.15,-395.79C1379.27,-341.11 1357.61,-186.34 1266,-111.45 1208.28,-64.27 1123.25,-52.91 1058.28,-52.27"/>
<polygon fill="midnightblue" stroke="midnightblue" points="1380.67,-396.19 1384.96,-405.88 1387.65,-395.63 1380.67,-396.19"/>
</g>
<!-- Node4 -->
<g id="node4" class="node">
<title>Node4</title>
<g id="a_node4"><a xlink:href="classklyqa__ctl_1_1account_1_1Account.html#aa78870d05cc7fa5899d61733d124e885" target="_top" xlink:title=" ">
<polygon fill="white" stroke="black" points="209.5,-236.45 209.5,-266.45 388.5,-266.45 388.5,-236.45 209.5,-236.45"/>
<text text-anchor="start" x="217.5" y="-254.45" font-family="Helvetica,sans-Serif" font-size="10.00">klyqa_ctl.account.Account.device</text>
<text text-anchor="middle" x="299" y="-243.45" font-family="Helvetica,sans-Serif" font-size="10.00">_request_and_print</text>
</a>
</g>
</g>
<!-- Node1&#45;&gt;Node4 -->
<g id="edge30" class="edge">
<title>Node1&#45;&gt;Node4</title>
<path fill="none" stroke="midnightblue" d="M1385.81,-395.84C1385.64,-333.8 1375.95,-140.59 1266,-50.45 1161.81,34.97 1099.73,-14.45 965,-14.45 965,-14.45 965,-14.45 738,-14.45 595.5,-14.45 546.88,-15.4 427,-92.45 368.45,-130.08 324.81,-203.95 307.8,-236"/>
<polygon fill="midnightblue" stroke="midnightblue" points="1382.31,-395.82 1385.76,-405.84 1389.31,-395.86 1382.31,-395.82"/>
</g>
<!-- Node5 -->
<g id="node5" class="node">
<title>Node5</title>
<g id="a_node5"><a xlink:href="classklyqa__ctl_1_1account_1_1Account.html#a0b171a600e4342d035ad26c39b384b38" target="_top" xlink:title=" ">
<polygon fill="white" stroke="black" points="0,-492.95 0,-511.95 171,-511.95 171,-492.95 0,-492.95"/>
<text text-anchor="middle" x="85.5" y="-499.95" font-family="Helvetica,sans-Serif" font-size="10.00">klyqa_ctl.account.Account.login</text>
</a>
</g>
</g>
<!-- Node1&#45;&gt;Node5 -->
<g id="edge32" class="edge">
<title>Node1&#45;&gt;Node5</title>
<path fill="none" stroke="midnightblue" d="M1380.61,-435.1C1368.68,-479.02 1333.96,-585.89 1266,-644.45 1158.78,-736.85 1106.54,-748.45 965,-748.45 965,-748.45 965,-748.45 518,-748.45 323.55,-748.45 136.86,-557.58 95.13,-512.1"/>
<polygon fill="midnightblue" stroke="midnightblue" points="1384.01,-435.91 1383.16,-425.35 1377.24,-434.14 1384.01,-435.91"/>
</g>
<!-- Node6 -->
<g id="node6" class="node">
<title>Node6</title>
<g id="a_node6"><a xlink:href="classklyqa__ctl_1_1klyqa__ctl_1_1Client.html#a74e8c8e307949b86d7d49356ec8cd9b8" target="_top" xlink:title=" ">
<polygon fill="white" stroke="black" points="1097,-323.95 1097,-342.95 1266,-342.95 1266,-323.95 1097,-323.95"/>
<text text-anchor="middle" x="1181.5" y="-330.95" font-family="Helvetica,sans-Serif" font-size="10.00">klyqa_ctl.klyqa_ctl.Client.cloud</text>
</a>
</g>
</g>
<!-- Node1&#45;&gt;Node6 -->
<g id="edge5" class="edge">
<title>Node1&#45;&gt;Node6</title>
<path fill="none" stroke="midnightblue" d="M1352.5,-402.12C1311.39,-385.51 1242.15,-357.55 1206.03,-342.96"/>
<polygon fill="midnightblue" stroke="midnightblue" points="1351.23,-405.38 1361.82,-405.88 1353.85,-398.89 1351.23,-405.38"/>
</g>
<!-- Node7 -->
<g id="node7" class="node">
<title>Node7</title>
<g id="a_node7"><a xlink:href="classklyqa__ctl_1_1account_1_1Account.html#ad608e3ee0ba1199f509e644a11081724" target="_top" xlink:title=" ">
<polygon fill="white" stroke="black" points="882.5,-400.45 882.5,-430.45 1045.5,-430.45 1045.5,-400.45 882.5,-400.45"/>
<text text-anchor="start" x="890.5" y="-418.45" font-family="Helvetica,sans-Serif" font-size="10.00">klyqa_ctl.account.Account.get</text>
<text text-anchor="middle" x="964" y="-407.45" font-family="Helvetica,sans-Serif" font-size="10.00">_beared_request_header</text>
</a>
</g>
</g>
<!-- Node1&#45;&gt;Node7 -->
<g id="edge31" class="edge">
<title>Node1&#45;&gt;Node7</title>
<path fill="none" stroke="midnightblue" d="M1291.68,-415.45C1217.77,-415.45 1115.82,-415.45 1045.57,-415.45"/>
<polygon fill="midnightblue" stroke="midnightblue" points="1291.92,-418.95 1301.92,-415.45 1291.92,-411.95 1291.92,-418.95"/>
</g>
<!-- Node8 -->
<g id="node8" class="node">
<title>Node8</title>
<g id="a_node8"><a xlink:href="classklyqa__ctl_1_1account_1_1Account.html#a73506bd234f8e819e138c2bd663179b8" target="_top" xlink:title=" ">
<polygon fill="white" stroke="black" points="647,-411.45 647,-441.45 831,-441.45 831,-411.45 647,-411.45"/>
<text text-anchor="start" x="655" y="-429.45" font-family="Helvetica,sans-Serif" font-size="10.00">klyqa_ctl.account.Account.request</text>
<text text-anchor="middle" x="739" y="-418.45" font-family="Helvetica,sans-Serif" font-size="10.00">_beared</text>
</a>
</g>
</g>
<!-- Node1&#45;&gt;Node8 -->
<g id="edge35" class="edge">
<title>Node1&#45;&gt;Node8</title>
<path fill="none" stroke="midnightblue" d="M1300.29,-426.1C1288.78,-427.34 1277.11,-428.5 1266,-429.45 1089.24,-444.53 1044.13,-450.19 867,-440.45 855.37,-439.81 843.17,-438.85 831.12,-437.72"/>
<polygon fill="midnightblue" stroke="midnightblue" points="1300.8,-429.56 1310.35,-424.99 1300.03,-422.61 1300.8,-429.56"/>
</g>
<!-- Node12 -->
<g id="node12" class="node">
<title>Node12</title>
<g id="a_node12"><a xlink:href="classklyqa__ctl_1_1account_1_1Account.html#af101070a97d556e95978748475933f72" target="_top" xlink:title=" ">
<polygon fill="white" stroke="black" points="428.5,-509.45 428.5,-539.45 609.5,-539.45 609.5,-509.45 428.5,-509.45"/>
<text text-anchor="start" x="436.5" y="-527.45" font-family="Helvetica,sans-Serif" font-size="10.00">klyqa_ctl.account.Account.update</text>
<text text-anchor="middle" x="519" y="-516.45" font-family="Helvetica,sans-Serif" font-size="10.00">_account_settings</text>
</a>
</g>
</g>
<!-- Node1&#45;&gt;Node12 -->
<g id="edge39" class="edge">
<title>Node1&#45;&gt;Node12</title>
<path fill="none" stroke="midnightblue" d="M1373.97,-433.94C1354.97,-462.94 1314.33,-519.02 1266,-550.45 1185.87,-602.56 1155.46,-600.84 1061,-615.45 872.28,-644.65 647.32,-572.29 558.65,-539.55"/>
<polygon fill="midnightblue" stroke="midnightblue" points="1377.11,-435.53 1379.57,-425.23 1371.22,-431.75 1377.11,-435.53"/>
</g>
<!-- Node13 -->
<g id="node13" class="node">
<title>Node13</title>
<g id="a_node13"><a xlink:href="classklyqa__ctl_1_1account_1_1Account.html#aeca1011f6c6e2f6bcdb2136ef48bc7fd" target="_top" xlink:title=" ">
<polygon fill="white" stroke="black" points="207,-509.45 207,-539.45 391,-539.45 391,-509.45 207,-509.45"/>
<text text-anchor="start" x="215" y="-527.45" font-family="Helvetica,sans-Serif" font-size="10.00">klyqa_ctl.account.Account.request</text>
<text text-anchor="middle" x="299" y="-516.45" font-family="Helvetica,sans-Serif" font-size="10.00">_account_settings_eco</text>
</a>
</g>
</g>
<!-- Node1&#45;&gt;Node13 -->
<g id="edge34" class="edge">
<title>Node1&#45;&gt;Node13</title>
<path fill="none" stroke="midnightblue" d="M1377.98,-434.95C1362.72,-471.83 1324.53,-551.83 1266,-593.45 1153.28,-673.6 1103.31,-672.45 965,-672.45 965,-672.45 965,-672.45 738,-672.45 573.77,-672.45 548.42,-592.23 391,-545.45 384.01,-543.37 376.66,-541.38 369.3,-539.5"/>
<polygon fill="midnightblue" stroke="midnightblue" points="1381.35,-435.95 1381.82,-425.37 1374.85,-433.34 1381.35,-435.95"/>
</g>
<!-- Node15 -->
<g id="node15" class="node">
<title>Node15</title>
<g id="a_node15"><a xlink:href="classklyqa__ctl_1_1account_1_1Account.html#acbc09f2b1b4cb6b7ed771b96ea79613b" target="_top" xlink:title=" ">
<polygon fill="white" stroke="black" points="871,-526.45 871,-556.45 1057,-556.45 1057,-526.45 871,-526.45"/>
<text text-anchor="start" x="879" y="-544.45" font-family="Helvetica,sans-Serif" font-size="10.00">klyqa_ctl.account.Account.perform</text>
<text text-anchor="middle" x="964" y="-533.45" font-family="Helvetica,sans-Serif" font-size="10.00">_login</text>
</a>
</g>
</g>
<!-- Node1&#45;&gt;Node15 -->
<g id="edge33" class="edge">
<title>Node1&#45;&gt;Node15</title>
<path fill="none" stroke="midnightblue" d="M1359.98,-429.97C1336.28,-442.94 1299.67,-461.66 1266,-473.45 1197.49,-497.46 1117.18,-515.1 1056.75,-526.39"/>
<polygon fill="midnightblue" stroke="midnightblue" points="1361.96,-432.88 1369.01,-424.97 1358.56,-426.76 1361.96,-432.88"/>
</g>
<!-- Node16 -->
<g id="node16" class="node">
<title>Node16</title>
<g id="a_node16"><a xlink:href="classklyqa__ctl_1_1account_1_1Account.html#a6f7d45c2ee71e0c761145bea5084dda6" target="_top" xlink:title=" ">
<polygon fill="white" stroke="black" points="872,-198.45 872,-228.45 1056,-228.45 1056,-198.45 872,-198.45"/>
<text text-anchor="start" x="880" y="-216.45" font-family="Helvetica,sans-Serif" font-size="10.00">klyqa_ctl.account.Account.request</text>
<text text-anchor="middle" x="964" y="-205.45" font-family="Helvetica,sans-Serif" font-size="10.00">_device_configs_from_acc_sets</text>
</a>
</g>
</g>
<!-- Node1&#45;&gt;Node16 -->
<g id="edge36" class="edge">
<title>Node1&#45;&gt;Node16</title>
<path fill="none" stroke="midnightblue" d="M1369.43,-398.41C1347.78,-376.34 1307.21,-337.91 1266,-314.45 1222.95,-289.94 1091.96,-250.06 1017.74,-228.47"/>
<polygon fill="midnightblue" stroke="midnightblue" points="1367.04,-400.99 1376.51,-405.75 1372.08,-396.12 1367.04,-400.99"/>
</g>
<!-- Node18 -->
<g id="node18" class="node">
<title>Node18</title>
<g id="a_node18"><a xlink:href="classklyqa__ctl_1_1klyqa__ctl_1_1Client.html#ad5c42cd8dd34ed1d6329040e164bfc2e" target="_top" xlink:title=" ">
<polygon fill="white" stroke="black" points="881,-92.45 881,-122.45 1047,-122.45 1047,-92.45 881,-92.45"/>
<text text-anchor="start" x="889" y="-110.45" font-family="Helvetica,sans-Serif" font-size="10.00">klyqa_ctl.klyqa_ctl.Client.send</text>
<text text-anchor="middle" x="964" y="-99.45" font-family="Helvetica,sans-Serif" font-size="10.00">_to_devices</text>
</a>
</g>
</g>
<!-- Node1&#45;&gt;Node18 -->
<g id="edge37" class="edge">
<title>Node1&#45;&gt;Node18</title>
<path fill="none" stroke="midnightblue" d="M1381.38,-395.74C1370.8,-350.29 1338.3,-237.63 1266,-180.45 1203.58,-131.09 1112.73,-114.4 1047.19,-109.11"/>
<polygon fill="midnightblue" stroke="midnightblue" points="1377.97,-396.54 1383.56,-405.55 1384.8,-395.03 1377.97,-396.54"/>
</g>
<!-- Node20 -->
<g id="node20" class="node">
<title>Node20</title>
<g id="a_node20"><a xlink:href="classklyqa__ctl_1_1account_1_1Account.html#af0e05ae15ad46c4b1b3bbb69b6bb7151" target="_top" xlink:title=" ">
<polygon fill="white" stroke="black" points="867,-159.95 867,-178.95 1061,-178.95 1061,-159.95 867,-159.95"/>
<text text-anchor="middle" x="964" y="-166.95" font-family="Helvetica,sans-Serif" font-size="10.00">klyqa_ctl.account.Account.shutdown</text>
</a>
</g>
</g>
<!-- Node1&#45;&gt;Node20 -->
<g id="edge38" class="edge">
<title>Node1&#45;&gt;Node20</title>
<path fill="none" stroke="midnightblue" d="M1377.11,-396.34C1360.85,-361.53 1321.68,-287.78 1266,-248.45 1205.76,-205.91 1124.19,-186.27 1061.15,-177.21"/>
<polygon fill="midnightblue" stroke="midnightblue" points="1374.09,-398.15 1381.42,-405.81 1380.47,-395.26 1374.09,-398.15"/>
</g>
<!-- Node3&#45;&gt;Node4 -->
<g id="edge3" class="edge">
<title>Node3&#45;&gt;Node4</title>
<path fill="none" stroke="midnightblue" d="M859.57,-56.57C797.05,-57.81 716.3,-63.68 647,-82.45 517,-117.66 377.22,-201.77 323.17,-236.28"/>
<polygon fill="midnightblue" stroke="midnightblue" points="859.9,-60.06 869.84,-56.4 859.79,-53.06 859.9,-60.06"/>
</g>
<!-- Node4&#45;&gt;Node5 -->
<g id="edge4" class="edge">
<title>Node4&#45;&gt;Node5</title>
<path fill="none" stroke="midnightblue" d="M222.71,-271C217.1,-274.01 211.78,-277.47 207,-281.45 134.17,-342.18 98.23,-458.75 88.97,-492.86"/>
<polygon fill="midnightblue" stroke="midnightblue" points="224.25,-274.15 231.73,-266.64 221.2,-267.85 224.25,-274.15"/>
</g>
<!-- Node6&#45;&gt;Node2 -->
<g id="edge6" class="edge">
<title>Node6&#45;&gt;Node2</title>
<path fill="none" stroke="midnightblue" d="M1176.23,-353.25C1165.41,-398.44 1132.56,-509.65 1061,-566.45 1056.02,-570.4 1050.48,-573.71 1044.63,-576.49"/>
<polygon fill="midnightblue" stroke="midnightblue" points="1179.7,-353.78 1178.51,-343.26 1172.87,-352.22 1179.7,-353.78"/>
</g>
<!-- Node6&#45;&gt;Node3 -->
<g id="edge7" class="edge">
<title>Node6&#45;&gt;Node3</title>
<path fill="none" stroke="midnightblue" d="M1177.1,-314.08C1167.74,-266.77 1137.08,-144.7 1061,-82.45 1056.88,-79.08 1052.35,-76.17 1047.57,-73.67"/>
<polygon fill="midnightblue" stroke="midnightblue" points="1173.67,-314.76 1178.95,-323.95 1180.55,-313.47 1173.67,-314.76"/>
</g>
<!-- Node6&#45;&gt;Node4 -->
<g id="edge8" class="edge">
<title>Node6&#45;&gt;Node4</title>
<path fill="none" stroke="midnightblue" d="M1148.91,-319.93C1133.27,-313.21 1114.13,-304.95 1097,-297.45 1080.96,-290.43 1078.05,-285.42 1061,-281.45 935.69,-252.27 561.07,-250.12 388.64,-250.77"/>
<polygon fill="midnightblue" stroke="midnightblue" points="1147.57,-323.17 1158.14,-323.89 1150.33,-316.73 1147.57,-323.17"/>
</g>
<!-- Node6&#45;&gt;Node5 -->
<g id="edge18" class="edge">
<title>Node6&#45;&gt;Node5</title>
<path fill="none" stroke="midnightblue" d="M1102.2,-322.6C1014.26,-311.37 867.18,-295.45 740,-295.45 740,-295.45 740,-295.45 518,-295.45 333.13,-295.45 143.66,-451.82 97.24,-492.75"/>
<polygon fill="midnightblue" stroke="midnightblue" points="1102,-326.1 1112.36,-323.91 1102.89,-319.16 1102,-326.1"/>
</g>
<!-- Node6&#45;&gt;Node7 -->
<g id="edge9" class="edge">
<title>Node6&#45;&gt;Node7</title>
<path fill="none" stroke="midnightblue" d="M1151.23,-347.24C1127.25,-358.28 1092.31,-373.79 1061,-385.45 1046.76,-390.76 1031.12,-395.92 1016.66,-400.43"/>
<polygon fill="midnightblue" stroke="midnightblue" points="1152.87,-350.34 1160.47,-342.96 1149.93,-343.99 1152.87,-350.34"/>
</g>
<!-- Node6&#45;&gt;Node8 -->
<g id="edge22" class="edge">
<title>Node6&#45;&gt;Node8</title>
<path fill="none" stroke="midnightblue" d="M1110.43,-344.64C1046.66,-355.24 950.08,-372.36 867,-391.45 841.7,-397.27 813.87,-404.81 790.73,-411.4"/>
<polygon fill="midnightblue" stroke="midnightblue" points="1111.08,-348.08 1120.38,-343 1109.94,-341.17 1111.08,-348.08"/>
</g>
<!-- Node6&#45;&gt;Node12 -->
<g id="edge29" class="edge">
<title>Node6&#45;&gt;Node12</title>
<path fill="none" stroke="midnightblue" d="M1166.77,-350.92C1146.48,-375.35 1106.03,-419.13 1061,-440.45 913.67,-510.2 720.94,-524.2 609.76,-525.84"/>
<polygon fill="midnightblue" stroke="midnightblue" points="1169.49,-353.12 1173.07,-343.15 1164.05,-348.71 1169.49,-353.12"/>
</g>
<!-- Node6&#45;&gt;Node13 -->
<g id="edge21" class="edge">
<title>Node6&#45;&gt;Node13</title>
<path fill="none" stroke="midnightblue" d="M1086.8,-329.7C896.23,-322.96 477.17,-313 427,-353.45 374.64,-395.67 438.14,-452.47 391,-500.45 387.68,-503.83 383.94,-506.75 379.93,-509.28"/>
<polygon fill="midnightblue" stroke="midnightblue" points="1086.69,-333.2 1096.81,-330.06 1086.94,-326.2 1086.69,-333.2"/>
</g>
<!-- Node6&#45;&gt;Node15 -->
<g id="edge19" class="edge">
<title>Node6&#45;&gt;Node15</title>
<path fill="none" stroke="midnightblue" d="M1172.8,-352.71C1157.24,-389.17 1118.55,-468.49 1061,-511.45 1052.74,-517.61 1043.19,-522.53 1033.39,-526.45"/>
<polygon fill="midnightblue" stroke="midnightblue" points="1176.13,-353.81 1176.73,-343.24 1169.66,-351.13 1176.13,-353.81"/>
</g>
<!-- Node6&#45;&gt;Node16 -->
<g id="edge23" class="edge">
<title>Node6&#45;&gt;Node16</title>
<path fill="none" stroke="midnightblue" d="M1130.84,-320.45C1118.93,-315.77 1106.82,-309.57 1097,-301.45 1073.61,-282.12 1084.98,-262.03 1061,-243.45 1053.13,-237.36 1044.01,-232.49 1034.58,-228.6"/>
<polygon fill="midnightblue" stroke="midnightblue" points="1129.71,-323.76 1140.31,-323.88 1132.1,-317.18 1129.71,-323.76"/>
</g>
<!-- Node6&#45;&gt;Node18 -->
<g id="edge25" class="edge">
<title>Node6&#45;&gt;Node18</title>
<path fill="none" stroke="midnightblue" d="M1172.46,-314.27C1156.31,-277.83 1116.68,-197.99 1061,-150.45 1046.97,-138.47 1029.07,-129.26 1012.54,-122.48"/>
<polygon fill="midnightblue" stroke="midnightblue" points="1169.36,-315.93 1176.54,-323.72 1175.79,-313.15 1169.36,-315.93"/>
</g>
<!-- Node6&#45;&gt;Node20 -->
<g id="edge28" class="edge">
<title>Node6&#45;&gt;Node20</title>
<path fill="none" stroke="midnightblue" d="M1162.23,-317.17C1144.43,-300.8 1117.18,-274.34 1097,-248.45 1078.11,-224.23 1086.1,-207.15 1061,-189.45 1054.88,-185.14 1048.02,-181.71 1040.87,-179"/>
<polygon fill="midnightblue" stroke="midnightblue" points="1159.93,-319.81 1169.68,-323.94 1164.63,-314.63 1159.93,-319.81"/>
</g>
<!-- Node7&#45;&gt;Node8 -->
<g id="edge10" class="edge">
<title>Node7&#45;&gt;Node8</title>
<path fill="none" stroke="midnightblue" d="M872.27,-419.93C858.78,-420.59 844.87,-421.28 831.37,-421.94"/>
<polygon fill="midnightblue" stroke="midnightblue" points="872.68,-423.41 882.49,-419.42 872.33,-416.42 872.68,-423.41"/>
</g>
<!-- Node9 -->
<g id="node9" class="node">
<title>Node9</title>
<g id="a_node9"><a xlink:href="classklyqa__ctl_1_1account_1_1Account.html#a748c13aed7b2a5c9c605c81234633cb8" target="_top" xlink:title=" ">
<polygon fill="white" stroke="black" points="432.5,-460.45 432.5,-490.45 605.5,-490.45 605.5,-460.45 432.5,-460.45"/>
<text text-anchor="start" x="440.5" y="-478.45" font-family="Helvetica,sans-Serif" font-size="10.00">klyqa_ctl.account.Account.cloud</text>
<text text-anchor="middle" x="519" y="-467.45" font-family="Helvetica,sans-Serif" font-size="10.00">_post_to_device</text>
</a>
</g>
</g>
<!-- Node8&#45;&gt;Node9 -->
<g id="edge11" class="edge">
<title>Node8&#45;&gt;Node9</title>
<path fill="none" stroke="midnightblue" d="M661.22,-443.71C636.93,-449.17 610.29,-455.16 586.76,-460.45"/>
<polygon fill="midnightblue" stroke="midnightblue" points="662.12,-447.09 671.11,-441.49 660.59,-440.26 662.12,-447.09"/>
</g>
<!-- Node11 -->
<g id="node11" class="node">
<title>Node11</title>
<g id="a_node11"><a xlink:href="classklyqa__ctl_1_1account_1_1Account.html#a1450d1baa029967965be433e4efb5a6d" target="_top" xlink:title=" ">
<polygon fill="white" stroke="black" points="427,-411.45 427,-441.45 611,-441.45 611,-411.45 427,-411.45"/>
<text text-anchor="start" x="435" y="-429.45" font-family="Helvetica,sans-Serif" font-size="10.00">klyqa_ctl.account.Account.request</text>
<text text-anchor="middle" x="519" y="-418.45" font-family="Helvetica,sans-Serif" font-size="10.00">_cloud_device_state</text>
</a>
</g>
</g>
<!-- Node8&#45;&gt;Node11 -->
<g id="edge13" class="edge">
<title>Node8&#45;&gt;Node11</title>
<path fill="none" stroke="midnightblue" d="M636.53,-426.45C628.07,-426.45 619.55,-426.45 611.17,-426.45"/>
<polygon fill="midnightblue" stroke="midnightblue" points="636.81,-429.95 646.81,-426.45 636.81,-422.95 636.81,-429.95"/>
</g>
<!-- Node8&#45;&gt;Node12 -->
<g id="edge15" class="edge">
<title>Node8&#45;&gt;Node12</title>
<path fill="none" stroke="midnightblue" d="M707.36,-447.48C682.36,-463.84 645.65,-486.1 611,-500.45 603,-503.77 594.41,-506.74 585.82,-509.36"/>
<polygon fill="midnightblue" stroke="midnightblue" points="709.61,-450.19 716.01,-441.75 705.74,-444.35 709.61,-450.19"/>
</g>
<!-- Node14 -->
<g id="node14" class="node">
<title>Node14</title>
<g id="a_node14"><a xlink:href="classklyqa__ctl_1_1account_1_1Account.html#a4fb47c923d3a579054e8cc72480906fb" target="_top" xlink:title=" ">
<polygon fill="white" stroke="black" points="428.5,-362.45 428.5,-392.45 609.5,-392.45 609.5,-362.45 428.5,-362.45"/>
<text text-anchor="start" x="436.5" y="-380.45" font-family="Helvetica,sans-Serif" font-size="10.00">klyqa_ctl.account.Account.update</text>
<text text-anchor="middle" x="519" y="-369.45" font-family="Helvetica,sans-Serif" font-size="10.00">_device_configs</text>
</a>
</g>
</g>
<!-- Node8&#45;&gt;Node14 -->
<g id="edge17" class="edge">
<title>Node8&#45;&gt;Node14</title>
<path fill="none" stroke="midnightblue" d="M661.22,-409.19C636.93,-403.73 610.29,-397.75 586.76,-392.46"/>
<polygon fill="midnightblue" stroke="midnightblue" points="660.59,-412.64 671.11,-411.42 662.12,-405.81 660.59,-412.64"/>
</g>
<!-- Node10 -->
<g id="node10" class="node">
<title>Node10</title>
<g id="a_node10"><a xlink:href="classklyqa__ctl_1_1account_1_1Account.html#a372d813db2141719743dfe088dbe9552" target="_top" xlink:title=" ">
<polygon fill="white" stroke="black" points="212.5,-460.45 212.5,-490.45 385.5,-490.45 385.5,-460.45 212.5,-460.45"/>
<text text-anchor="start" x="220.5" y="-478.45" font-family="Helvetica,sans-Serif" font-size="10.00">klyqa_ctl.account.Account.cloud</text>
<text text-anchor="middle" x="299" y="-467.45" font-family="Helvetica,sans-Serif" font-size="10.00">_post_command_to_dev</text>
</a>
</g>
</g>
<!-- Node9&#45;&gt;Node10 -->
<g id="edge12" class="edge">
<title>Node9&#45;&gt;Node10</title>
<path fill="none" stroke="midnightblue" d="M422.29,-475.45C410.09,-475.45 397.67,-475.45 385.64,-475.45"/>
<polygon fill="midnightblue" stroke="midnightblue" points="422.47,-478.95 432.47,-475.45 422.47,-471.95 422.47,-478.95"/>
</g>
<!-- Node11&#45;&gt;Node4 -->
<g id="edge14" class="edge">
<title>Node11&#45;&gt;Node4</title>
<path fill="none" stroke="midnightblue" d="M435.12,-407.08C432.33,-405.64 429.61,-404.1 427,-402.45 370.28,-366.52 325.97,-297.1 308.31,-266.53"/>
<polygon fill="midnightblue" stroke="midnightblue" points="433.75,-410.3 444.3,-411.3 436.68,-403.94 433.75,-410.3"/>
</g>
<!-- Node12&#45;&gt;Node13 -->
<g id="edge16" class="edge">
<title>Node12&#45;&gt;Node13</title>
<path fill="none" stroke="midnightblue" d="M418.21,-524.45C409.15,-524.45 400.01,-524.45 391.03,-524.45"/>
<polygon fill="midnightblue" stroke="midnightblue" points="418.39,-527.95 428.39,-524.45 418.39,-520.95 418.39,-527.95"/>
</g>
<!-- Node15&#45;&gt;Node5 -->
<g id="edge20" class="edge">
<title>Node15&#45;&gt;Node5</title>
<path fill="none" stroke="midnightblue" d="M860.62,-555.09C714.24,-571.77 437.37,-592.79 207,-549.45 169.04,-542.31 127.7,-523.55 104.65,-512.01"/>
<polygon fill="midnightblue" stroke="midnightblue" points="861.4,-558.53 870.93,-553.9 860.59,-551.57 861.4,-558.53"/>
</g>
<!-- Node17 -->
<g id="node17" class="node">
<title>Node17</title>
<g id="a_node17"><a xlink:href="classklyqa__ctl_1_1account_1_1Account.html#a8e93f6fe918bf32c172447d4ef439d2d" target="_top" xlink:title=" ">
<polygon fill="white" stroke="black" points="654,-198.45 654,-228.45 824,-228.45 824,-198.45 654,-198.45"/>
<text text-anchor="start" x="662" y="-216.45" font-family="Helvetica,sans-Serif" font-size="10.00">klyqa_ctl.account.Account.sync</text>
<text text-anchor="middle" x="739" y="-205.45" font-family="Helvetica,sans-Serif" font-size="10.00">_acc_settings_to_controller</text>
</a>
</g>
</g>
<!-- Node16&#45;&gt;Node17 -->
<g id="edge24" class="edge">
<title>Node16&#45;&gt;Node17</title>
<path fill="none" stroke="midnightblue" d="M861.93,-213.45C849.34,-213.45 836.57,-213.45 824.27,-213.45"/>
<polygon fill="midnightblue" stroke="midnightblue" points="861.98,-216.95 871.98,-213.45 861.98,-209.95 861.98,-216.95"/>
</g>
<!-- Node18&#45;&gt;Node18 -->
<g id="edge26" class="edge">
<title>Node18&#45;&gt;Node18</title>
<path fill="none" stroke="midnightblue" d="M1002.38,-132.91C997.62,-137.63 984.82,-140.95 964,-140.95 929.83,-140.95 917.28,-132.01 926.36,-122.61"/>
<polygon fill="midnightblue" stroke="midnightblue" points="1005.85,-132.33 1001.64,-122.61 998.87,-132.84 1005.85,-132.33"/>
</g>
<!-- Node19 -->
<g id="node19" class="node">
<title>Node19</title>
<g id="a_node19"><a xlink:href="classklyqa__ctl_1_1klyqa__ctl_1_1Client.html#a7a93bda9f242d678a4208d0962837f11" target="_top" xlink:title=" ">
<polygon fill="white" stroke="black" points="656,-92.45 656,-122.45 822,-122.45 822,-92.45 656,-92.45"/>
<text text-anchor="start" x="664" y="-110.45" font-family="Helvetica,sans-Serif" font-size="10.00">klyqa_ctl.klyqa_ctl.Client.send</text>
<text text-anchor="middle" x="739" y="-99.45" font-family="Helvetica,sans-Serif" font-size="10.00">_to_devices_wrapped</text>
</a>
</g>
</g>
<!-- Node18&#45;&gt;Node19 -->
<g id="edge27" class="edge">
<title>Node18&#45;&gt;Node19</title>
<path fill="none" stroke="midnightblue" d="M870.5,-107.45C854.51,-107.45 837.98,-107.45 822.29,-107.45"/>
<polygon fill="midnightblue" stroke="midnightblue" points="870.91,-110.95 880.91,-107.45 870.91,-103.95 870.91,-110.95"/>
</g>
</g>
</svg>
