<?xml version="1.0" encoding="UTF-8" standalone="no"?>
<!DOCTYPE svg PUBLIC "-//W3C//DTD SVG 1.1//EN"
 "http://www.w3.org/Graphics/SVG/1.1/DTD/svg11.dtd">
<!-- Generated by graphviz version 2.43.0 (0)
 -->
<!-- Title: klyqa_ctl.general.general.CommandType Pages: 1 -->
<svg width="151pt" height="226pt"
 viewBox="0.00 0.00 151.00 226.00" xmlns="http://www.w3.org/2000/svg" xmlns:xlink="http://www.w3.org/1999/xlink">
<g id="graph0" class="graph" transform="scale(1 1) rotate(0) translate(4 222)">
<title>klyqa_ctl.general.general.CommandType</title>
<polygon fill="white" stroke="transparent" points="-4,4 -4,-222 147,-222 147,4 -4,4"/>
<!-- Node1 -->
<g id="node1" class="node">
<title>Node1</title>
<g id="a_node1"><a xlink:title=" ">
<polygon fill="#bfbfbf" stroke="black" points="0,-0.5 0,-123.5 143,-123.5 143,-0.5 0,-0.5"/>
<text text-anchor="start" x="8" y="-111.5" font-family="Helvetica,sans-Serif" font-size="10.00">klyqa_ctl.general.general.</text>
<text text-anchor="middle" x="71.5" y="-100.5" font-family="Helvetica,sans-Serif" font-size="10.00">CommandType</text>
<polyline fill="none" stroke="black" points="0,-93.5 143,-93.5 "/>
<text text-anchor="start" x="8" y="-81.5" font-family="Helvetica,sans-Serif" font-size="10.00">+ string PING</text>
<text text-anchor="start" x="8" y="-70.5" font-family="Helvetica,sans-Serif" font-size="10.00">+ string REQUEST</text>
<text text-anchor="start" x="8" y="-59.5" font-family="Helvetica,sans-Serif" font-size="10.00">+ string FACTORY_RESET</text>
<text text-anchor="start" x="8" y="-48.5" font-family="Helvetica,sans-Serif" font-size="10.00">+ string ROUTINE</text>
<text text-anchor="start" x="8" y="-37.5" font-family="Helvetica,sans-Serif" font-size="10.00">+ string REBOOT</text>
<text text-anchor="start" x="8" y="-26.5" font-family="Helvetica,sans-Serif" font-size="10.00">+ string FW_UPDATE</text>
<polyline fill="none" stroke="black" points="0,-19.5 143,-19.5 "/>
<text text-anchor="middle" x="71.5" y="-7.5" font-family="Helvetica,sans-Serif" font-size="10.00"> </text>
</a>
</g>
</g>
<!-- Node2 -->
<g id="node2" class="node">
<title>Node2</title>
<g id="a_node2"><a xlink:href="classstr.html" target="_top" xlink:title=" ">
<polygon fill="white" stroke="black" points="30,-160.5 30,-217.5 59,-217.5 59,-160.5 30,-160.5"/>
<text text-anchor="middle" x="44.5" y="-205.5" font-family="Helvetica,sans-Serif" font-size="10.00">str</text>
<polyline fill="none" stroke="black" points="30,-198.5 59,-198.5 "/>
<text text-anchor="middle" x="44.5" y="-186.5" font-family="Helvetica,sans-Serif" font-size="10.00"> </text>
<polyline fill="none" stroke="black" points="30,-179.5 59,-179.5 "/>
<text text-anchor="middle" x="44.5" y="-167.5" font-family="Helvetica,sans-Serif" font-size="10.00"> </text>
</a>
</g>
</g>
<!-- Node2&#45;&gt;Node1 -->
<g id="edge1" class="edge">
<title>Node2&#45;&gt;Node1</title>
<path fill="none" stroke="midnightblue" d="M52.63,-150.38C54.45,-141.94 56.43,-132.78 58.39,-123.67"/>
<polygon fill="none" stroke="midnightblue" points="49.18,-149.74 50.49,-160.26 56.02,-151.22 49.18,-149.74"/>
</g>
<!-- Node3 -->
<g id="node3" class="node">
<title>Node3</title>
<g id="a_node3"><a xlink:title=" ">
<polygon fill="white" stroke="#bfbfbf" points="77.5,-160.5 77.5,-217.5 121.5,-217.5 121.5,-160.5 77.5,-160.5"/>
<text text-anchor="middle" x="99.5" y="-205.5" font-family="Helvetica,sans-Serif" font-size="10.00">Enum</text>
<polyline fill="none" stroke="#bfbfbf" points="77.5,-198.5 121.5,-198.5 "/>
<text text-anchor="middle" x="99.5" y="-186.5" font-family="Helvetica,sans-Serif" font-size="10.00"> </text>
<polyline fill="none" stroke="#bfbfbf" points="77.5,-179.5 121.5,-179.5 "/>
<text text-anchor="middle" x="99.5" y="-167.5" font-family="Helvetica,sans-Serif" font-size="10.00"> </text>
</a>
</g>
</g>
<!-- Node3&#45;&gt;Node1 -->
<g id="edge2" class="edge">
<title>Node3&#45;&gt;Node1</title>
<path fill="none" stroke="midnightblue" d="M91.07,-150.38C89.18,-141.94 87.13,-132.78 85.09,-123.67"/>
<polygon fill="none" stroke="midnightblue" points="87.68,-151.27 93.29,-160.26 94.52,-149.74 87.68,-151.27"/>
</g>
</g>
</svg>
