<?xml version="1.0" encoding="UTF-8" standalone="no"?>
<!DOCTYPE svg PUBLIC "-//W3C//DTD SVG 1.1//EN"
 "http://www.w3.org/Graphics/SVG/1.1/DTD/svg11.dtd">
<!-- Generated by graphviz version 2.43.0 (0)
 -->
<!-- Title: klyqa_ctl.devices.light.commands.RoutineAction Pages: 1 -->
<svg width="194pt" height="204pt"
 viewBox="0.00 0.00 194.00 204.00" xmlns="http://www.w3.org/2000/svg" xmlns:xlink="http://www.w3.org/1999/xlink">
<g id="graph0" class="graph" transform="scale(1 1) rotate(0) translate(4 200)">
<title>klyqa_ctl.devices.light.commands.RoutineAction</title>
<polygon fill="white" stroke="transparent" points="-4,4 -4,-200 190,-200 190,4 -4,4"/>
<!-- Node1 -->
<g id="node1" class="node">
<title>Node1</title>
<g id="a_node1"><a xlink:title=" ">
<polygon fill="#bfbfbf" stroke="black" points="0,-0.5 0,-101.5 186,-101.5 186,-0.5 0,-0.5"/>
<text text-anchor="start" x="8" y="-89.5" font-family="Helvetica,sans-Serif" font-size="10.00">klyqa_ctl.devices.light.commands.</text>
<text text-anchor="middle" x="93" y="-78.5" font-family="Helvetica,sans-Serif" font-size="10.00">RoutineAction</text>
<polyline fill="none" stroke="black" points="0,-71.5 186,-71.5 "/>
<text text-anchor="start" x="8" y="-59.5" font-family="Helvetica,sans-Serif" font-size="10.00">+ string LIST</text>
<text text-anchor="start" x="8" y="-48.5" font-family="Helvetica,sans-Serif" font-size="10.00">+ string PUT</text>
<text text-anchor="start" x="8" y="-37.5" font-family="Helvetica,sans-Serif" font-size="10.00">+ string START</text>
<text text-anchor="start" x="8" y="-26.5" font-family="Helvetica,sans-Serif" font-size="10.00">+ string DELETE</text>
<polyline fill="none" stroke="black" points="0,-19.5 186,-19.5 "/>
<text text-anchor="middle" x="93" y="-7.5" font-family="Helvetica,sans-Serif" font-size="10.00"> </text>
</a>
</g>
</g>
<!-- Node2 -->
<g id="node2" class="node">
<title>Node2</title>
<g id="a_node2"><a xlink:href="classstr.html" target="_top" xlink:title=" ">
<polygon fill="white" stroke="black" points="51.5,-138.5 51.5,-195.5 80.5,-195.5 80.5,-138.5 51.5,-138.5"/>
<text text-anchor="middle" x="66" y="-183.5" font-family="Helvetica,sans-Serif" font-size="10.00">str</text>
<polyline fill="none" stroke="black" points="51.5,-176.5 80.5,-176.5 "/>
<text text-anchor="middle" x="66" y="-164.5" font-family="Helvetica,sans-Serif" font-size="10.00"> </text>
<polyline fill="none" stroke="black" points="51.5,-157.5 80.5,-157.5 "/>
<text text-anchor="middle" x="66" y="-145.5" font-family="Helvetica,sans-Serif" font-size="10.00"> </text>
</a>
</g>
</g>
<!-- Node2&#45;&gt;Node1 -->
<g id="edge1" class="edge">
<title>Node2&#45;&gt;Node1</title>
<path fill="none" stroke="midnightblue" d="M74.85,-128.64C76.9,-120 79.1,-110.68 81.25,-101.61"/>
<polygon fill="none" stroke="midnightblue" points="71.43,-127.87 72.54,-138.4 78.25,-129.48 71.43,-127.87"/>
</g>
<!-- Node3 -->
<g id="node3" class="node">
<title>Node3</title>
<g id="a_node3"><a xlink:title=" ">
<polygon fill="white" stroke="#bfbfbf" points="99,-138.5 99,-195.5 143,-195.5 143,-138.5 99,-138.5"/>
<text text-anchor="middle" x="121" y="-183.5" font-family="Helvetica,sans-Serif" font-size="10.00">Enum</text>
<polyline fill="none" stroke="#bfbfbf" points="99,-176.5 143,-176.5 "/>
<text text-anchor="middle" x="121" y="-164.5" font-family="Helvetica,sans-Serif" font-size="10.00"> </text>
<polyline fill="none" stroke="#bfbfbf" points="99,-157.5 143,-157.5 "/>
<text text-anchor="middle" x="121" y="-145.5" font-family="Helvetica,sans-Serif" font-size="10.00"> </text>
</a>
</g>
</g>
<!-- Node3&#45;&gt;Node1 -->
<g id="edge2" class="edge">
<title>Node3&#45;&gt;Node1</title>
<path fill="none" stroke="midnightblue" d="M111.82,-128.64C109.7,-120 107.41,-110.68 105.18,-101.61"/>
<polygon fill="none" stroke="midnightblue" points="108.44,-129.53 114.22,-138.4 115.24,-127.86 108.44,-129.53"/>
</g>
</g>
</svg>
