<?xml version="1.0" encoding="UTF-8" standalone="no"?>
<!DOCTYPE svg PUBLIC "-//W3C//DTD SVG 1.1//EN"
 "http://www.w3.org/Graphics/SVG/1.1/DTD/svg11.dtd">
<!-- Generated by graphviz version 2.43.0 (0)
 -->
<!-- Title: klyqa_ctl.account.Account.shutdown Pages: 1 -->
<!--zoomable 715 -->
<svg id="main" version="1.1" xmlns="http://www.w3.org/2000/svg" xmlns:xlink="http://www.w3.org/1999/xlink" xml:space="preserve" onload="init(evt)">
<style type="text/css"><![CDATA[
.edge:hover path { stroke: red; }
.edge:hover polygon { stroke: red; fill: red; }
]]></style>
<script type="text/javascript"><![CDATA[
var edges = document.getElementsByTagName('g');
if (edges && edges.length) {
  for (var i=0;i<edges.length;i++) {
    if (edges[i].id.substr(0,4)=='edge') {
      edges[i].setAttribute('class','edge');
    }
  }
}
]]></script>
        <defs>
                <circle id="rim" cx="0" cy="0" r="7"/>
                <circle id="rim2" cx="0" cy="0" r="3.5"/>
                <g id="zoomPlus">
                        <use xlink:href="#rim" fill="#404040">
                                <set attributeName="fill" to="#808080" begin="zoomplus.mouseover" end="zoomplus.mouseout"/>
                        </use>
                        <path d="M-4,0h8M0,-4v8" fill="none" stroke="white" stroke-width="1.5" pointer-events="none"/>
                </g>
                <g id="zoomMin">
                        <use xlink:href="#rim" fill="#404040">
                                <set attributeName="fill" to="#808080" begin="zoomminus.mouseover" end="zoomminus.mouseout"/>
                        </use>
                        <path d="M-4,0h8" fill="none" stroke="white" stroke-width="1.5" pointer-events="none"/>
                </g>
                <g id="dirArrow">
                        <path fill="none" stroke="white" stroke-width="1.5" d="M0,-3.0v7 M-2.5,-0.5L0,-3.0L2.5,-0.5"/>
                </g>
               <g id="resetDef">
                       <use xlink:href="#rim2" fill="#404040">
                               <set attributeName="fill" to="#808080" begin="reset.mouseover" end="reset.mouseout"/>
                       </use>
               </g>
        </defs>

<script type="text/javascript">
var viewWidth = 1137;
var viewHeight = 715;
var sectionId = 'dynsection-47';
</script>
<script xlink:href="svgpan.js"/>
<svg id="graph" class="graph">
<g id="viewport">
<title>klyqa_ctl.account.Account.shutdown</title>
<polygon fill="white" stroke="transparent" points="-4,4 -4,-710.5 1133,-710.5 1133,4 -4,4"/>
<!-- Node1 -->
<g id="node1" class="node">
<title>Node1</title>
<g id="a_node1"><a xlink:title=" ">
<polygon fill="#bfbfbf" stroke="black" points="0,-362.5 0,-381.5 194,-381.5 194,-362.5 0,-362.5"/>
<text text-anchor="middle" x="97" y="-369.5" font-family="Helvetica,sans-Serif" font-size="10.00">klyqa_ctl.account.Account.shutdown</text>
</a>
</g>
</g>
<!-- Node2 -->
<g id="node2" class="node">
<title>Node2</title>
<g id="a_node2"><a xlink:href="classklyqa__ctl_1_1account_1_1Account.html#aeb463ade6756bf093a809634f64c6ef6" target="_top" xlink:title=" ">
<polygon fill="white" stroke="black" points="230,-480.5 230,-499.5 403,-499.5 403,-480.5 230,-480.5"/>
<text text-anchor="middle" x="316.5" y="-487.5" font-family="Helvetica,sans-Serif" font-size="10.00">klyqa_ctl.account.Account.cloud</text>
</a>
</g>
</g>
<!-- Node1&#45;&gt;Node2 -->
<g id="edge1" class="edge">
<title>Node1&#45;&gt;Node2</title>
<path fill="none" stroke="midnightblue" d="M107.63,-381.59C128.2,-401.51 178.73,-447.42 230,-471 235.4,-473.48 241.14,-475.65 247,-477.54"/>
<polygon fill="midnightblue" stroke="midnightblue" points="246.34,-481 256.92,-480.47 248.32,-474.28 246.34,-481"/>
</g>
<!-- Node3 -->
<g id="node3" class="node">
<title>Node3</title>
<g id="a_node3"><a xlink:href="classklyqa__ctl_1_1devices_1_1device_1_1Device.html#a574647293c61d5f53e153d48ddb31f65" target="_top" xlink:title=" ">
<polygon fill="white" stroke="black" points="246.5,-431 246.5,-461 386.5,-461 386.5,-431 246.5,-431"/>
<text text-anchor="start" x="254.5" y="-449" font-family="Helvetica,sans-Serif" font-size="10.00">klyqa_ctl.devices.device.</text>
<text text-anchor="middle" x="316.5" y="-438" font-family="Helvetica,sans-Serif" font-size="10.00">Device.cloud</text>
</a>
</g>
</g>
<!-- Node1&#45;&gt;Node3 -->
<g id="edge2" class="edge">
<title>Node1&#45;&gt;Node3</title>
<path fill="none" stroke="midnightblue" d="M121.62,-381.67C147.86,-392.24 191.59,-409.36 230,-422 236.3,-424.07 242.89,-426.13 249.5,-428.11"/>
<polygon fill="midnightblue" stroke="midnightblue" points="248.59,-431.49 259.18,-430.95 250.57,-424.77 248.59,-431.49"/>
</g>
<!-- Node4 -->
<g id="node4" class="node">
<title>Node4</title>
<g id="a_node4"><a xlink:href="classklyqa__ctl_1_1general_1_1general_1_1Command.html#a4aa9e4db12aecf5520e974204c635d38" target="_top" xlink:title=" ">
<polygon fill="white" stroke="black" points="245,-382 245,-412 388,-412 388,-382 245,-382"/>
<text text-anchor="start" x="253" y="-400" font-family="Helvetica,sans-Serif" font-size="10.00">klyqa_ctl.general.general.</text>
<text text-anchor="middle" x="316.5" y="-389" font-family="Helvetica,sans-Serif" font-size="10.00">Command.cloud</text>
</a>
</g>
</g>
<!-- Node1&#45;&gt;Node4 -->
<g id="edge3" class="edge">
<title>Node1&#45;&gt;Node4</title>
<path fill="none" stroke="midnightblue" d="M180.85,-381.52C198.51,-383.55 217.14,-385.69 234.72,-387.72"/>
<polygon fill="midnightblue" stroke="midnightblue" points="234.61,-391.22 244.94,-388.89 235.41,-384.27 234.61,-391.22"/>
</g>
<!-- Node32 -->
<g id="node32" class="node">
<title>Node32</title>
<g id="a_node32"><a xlink:href="classklyqa__ctl_1_1general_1_1general_1_1CloudStateCommand.html#a6bbc8b1333f0a45ce38f1e81a6093bc1" target="_top" xlink:title=" ">
<polygon fill="white" stroke="black" points="242,-333 242,-363 391,-363 391,-333 242,-333"/>
<text text-anchor="start" x="250" y="-351" font-family="Helvetica,sans-Serif" font-size="10.00">klyqa_ctl.general.general.</text>
<text text-anchor="middle" x="316.5" y="-340" font-family="Helvetica,sans-Serif" font-size="10.00">CloudStateCommand.cloud</text>
</a>
</g>
</g>
<!-- Node1&#45;&gt;Node32 -->
<g id="edge31" class="edge">
<title>Node1&#45;&gt;Node32</title>
<path fill="none" stroke="midnightblue" d="M184.27,-362.48C199.94,-360.75 216.25,-358.95 231.84,-357.23"/>
<polygon fill="midnightblue" stroke="midnightblue" points="232.41,-360.69 241.96,-356.11 231.64,-353.73 232.41,-360.69"/>
</g>
<!-- Node33 -->
<g id="node33" class="node">
<title>Node33</title>
<g id="a_node33"><a xlink:href="classklyqa__ctl_1_1klyqa__ctl_1_1Client.html#a7d8a302d936e8e1889f175bac259f565" target="_top" xlink:title=" ">
<polygon fill="white" stroke="black" points="232,-294.5 232,-313.5 401,-313.5 401,-294.5 232,-294.5"/>
<text text-anchor="middle" x="316.5" y="-301.5" font-family="Helvetica,sans-Serif" font-size="10.00">klyqa_ctl.klyqa_ctl.Client.cloud</text>
</a>
</g>
</g>
<!-- Node1&#45;&gt;Node33 -->
<g id="edge46" class="edge">
<title>Node1&#45;&gt;Node33</title>
<path fill="none" stroke="midnightblue" d="M121.04,-362.35C147.13,-351.68 191.08,-334.49 230,-323 238.78,-320.41 248.16,-317.98 257.38,-315.79"/>
<polygon fill="midnightblue" stroke="midnightblue" points="258.31,-319.17 267.27,-313.51 256.74,-312.35 258.31,-319.17"/>
</g>
<!-- Node34 -->
<g id="node34" class="node">
<title>Node34</title>
<g id="a_node34"><a xlink:href="namespaceklyqa__ctl_1_1general_1_1general.html#a1afe30a73cc28a3b65babeeab27e36c8" target="_top" xlink:title=" ">
<polygon fill="white" stroke="black" points="234.5,-120 234.5,-150 398.5,-150 398.5,-120 234.5,-120"/>
<text text-anchor="start" x="242.5" y="-138" font-family="Helvetica,sans-Serif" font-size="10.00">klyqa_ctl.general.general.task</text>
<text text-anchor="middle" x="316.5" y="-127" font-family="Helvetica,sans-Serif" font-size="10.00">_log_debug</text>
</a>
</g>
</g>
<!-- Node1&#45;&gt;Node34 -->
<g id="edge47" class="edge">
<title>Node1&#45;&gt;Node34</title>
<path fill="none" stroke="midnightblue" d="M106.8,-362.42C138.63,-327.73 248.4,-208.12 294.67,-157.7"/>
<polygon fill="midnightblue" stroke="midnightblue" points="297.35,-159.96 301.53,-150.22 292.19,-155.22 297.35,-159.96"/>
</g>
<!-- Node5 -->
<g id="node5" class="node">
<title>Node5</title>
<g id="a_node5"><a xlink:href="classklyqa__ctl_1_1devices_1_1light_1_1commands_1_1FwUpdateCommand.html#a9de3441c7fbba5f5a19ea914970a3db7" target="_top" xlink:title=" ">
<polygon fill="white" stroke="black" points="447.5,-431 447.5,-461 633.5,-461 633.5,-431 447.5,-431"/>
<text text-anchor="start" x="455.5" y="-449" font-family="Helvetica,sans-Serif" font-size="10.00">klyqa_ctl.devices.light.commands.</text>
<text text-anchor="middle" x="540.5" y="-438" font-family="Helvetica,sans-Serif" font-size="10.00">FwUpdateCommand.json</text>
</a>
</g>
</g>
<!-- Node4&#45;&gt;Node5 -->
<g id="edge4" class="edge">
<title>Node4&#45;&gt;Node5</title>
<path fill="none" stroke="midnightblue" d="M385.62,-412.03C409.59,-417.33 436.72,-423.31 461.44,-428.77"/>
<polygon fill="midnightblue" stroke="midnightblue" points="460.99,-432.26 471.51,-430.99 462.5,-425.42 460.99,-432.26"/>
</g>
<!-- Node7 -->
<g id="node7" class="node">
<title>Node7</title>
<g id="a_node7"><a xlink:href="classklyqa__ctl_1_1devices_1_1light_1_1commands_1_1TransitionCommand.html#aaf9d8431e346c86b9959102c2d7f3316" target="_top" xlink:title=" ">
<polygon fill="white" stroke="black" points="447.5,-186 447.5,-216 633.5,-216 633.5,-186 447.5,-186"/>
<text text-anchor="start" x="455.5" y="-204" font-family="Helvetica,sans-Serif" font-size="10.00">klyqa_ctl.devices.light.commands.</text>
<text text-anchor="middle" x="540.5" y="-193" font-family="Helvetica,sans-Serif" font-size="10.00">TransitionCommand.json</text>
</a>
</g>
</g>
<!-- Node4&#45;&gt;Node7 -->
<g id="edge6" class="edge">
<title>Node4&#45;&gt;Node7</title>
<path fill="none" stroke="midnightblue" d="M388.26,-383.19C393.7,-380.15 398.72,-376.47 403,-372 449.5,-323.4 391.3,-272.43 439,-225 439.97,-224.04 440.96,-223.11 441.99,-222.22"/>
<polygon fill="midnightblue" stroke="midnightblue" points="444.39,-224.81 450.36,-216.06 440.24,-219.17 444.39,-224.81"/>
</g>
<!-- Node8 -->
<g id="node8" class="node">
<title>Node8</title>
<g id="a_node8"><a xlink:href="classklyqa__ctl_1_1devices_1_1light_1_1commands_1_1ColorCommand.html#afa8f262e4047666707237c4dfe8615c3" target="_top" xlink:title=" ">
<polygon fill="white" stroke="black" points="447.5,-382 447.5,-412 633.5,-412 633.5,-382 447.5,-382"/>
<text text-anchor="start" x="455.5" y="-400" font-family="Helvetica,sans-Serif" font-size="10.00">klyqa_ctl.devices.light.commands.</text>
<text text-anchor="middle" x="540.5" y="-389" font-family="Helvetica,sans-Serif" font-size="10.00">ColorCommand.json</text>
</a>
</g>
</g>
<!-- Node4&#45;&gt;Node8 -->
<g id="edge7" class="edge">
<title>Node4&#45;&gt;Node8</title>
<path fill="none" stroke="midnightblue" d="M388.05,-397C403.61,-397 420.4,-397 436.94,-397"/>
<polygon fill="midnightblue" stroke="midnightblue" points="437.19,-400.5 447.19,-397 437.19,-393.5 437.19,-400.5"/>
</g>
<!-- Node11 -->
<g id="node11" class="node">
<title>Node11</title>
<g id="a_node11"><a xlink:href="classklyqa__ctl_1_1devices_1_1light_1_1commands_1_1TemperatureCommand.html#aaa297cd598227ab2f33a6d111532e5e0" target="_top" xlink:title=" ">
<polygon fill="white" stroke="black" points="447.5,-284 447.5,-314 633.5,-314 633.5,-284 447.5,-284"/>
<text text-anchor="start" x="455.5" y="-302" font-family="Helvetica,sans-Serif" font-size="10.00">klyqa_ctl.devices.light.commands.</text>
<text text-anchor="middle" x="540.5" y="-291" font-family="Helvetica,sans-Serif" font-size="10.00">TemperatureCommand.json</text>
</a>
</g>
</g>
<!-- Node4&#45;&gt;Node11 -->
<g id="edge10" class="edge">
<title>Node4&#45;&gt;Node11</title>
<path fill="none" stroke="midnightblue" d="M384.82,-381.99C391.24,-379.2 397.43,-375.9 403,-372 425.14,-356.5 416.48,-337.94 439,-323 441.45,-321.37 444,-319.86 446.63,-318.44"/>
<polygon fill="midnightblue" stroke="midnightblue" points="448.33,-321.51 455.82,-314.02 445.29,-315.2 448.33,-321.51"/>
</g>
<!-- Node14 -->
<g id="node14" class="node">
<title>Node14</title>
<g id="a_node14"><a xlink:href="classklyqa__ctl_1_1devices_1_1light_1_1commands_1_1BrightnessCommand.html#a946e7180dd8f3bd4621c23b24e63469a" target="_top" xlink:title=" ">
<polygon fill="white" stroke="black" points="447.5,-235 447.5,-265 633.5,-265 633.5,-235 447.5,-235"/>
<text text-anchor="start" x="455.5" y="-253" font-family="Helvetica,sans-Serif" font-size="10.00">klyqa_ctl.devices.light.commands.</text>
<text text-anchor="middle" x="540.5" y="-242" font-family="Helvetica,sans-Serif" font-size="10.00">BrightnessCommand.json</text>
</a>
</g>
</g>
<!-- Node4&#45;&gt;Node14 -->
<g id="edge13" class="edge">
<title>Node4&#45;&gt;Node14</title>
<path fill="none" stroke="midnightblue" d="M388.15,-382.44C393.55,-379.56 398.59,-376.12 403,-372 436.9,-340.32 404.32,-304.83 439,-274 440.17,-272.96 441.38,-271.96 442.63,-271"/>
<polygon fill="midnightblue" stroke="midnightblue" points="444.88,-273.71 451.28,-265.26 441.01,-267.87 444.88,-273.71"/>
</g>
<!-- Node17 -->
<g id="node17" class="node">
<title>Node17</title>
<g id="a_node17"><a xlink:href="classklyqa__ctl_1_1devices_1_1light_1_1commands_1_1ExternalSourceCommand.html#a393710b54f709b852bfd0f3769c39ce6" target="_top" xlink:title=" ">
<polygon fill="white" stroke="black" points="447.5,-676 447.5,-706 633.5,-706 633.5,-676 447.5,-676"/>
<text text-anchor="start" x="455.5" y="-694" font-family="Helvetica,sans-Serif" font-size="10.00">klyqa_ctl.devices.light.commands.</text>
<text text-anchor="middle" x="540.5" y="-683" font-family="Helvetica,sans-Serif" font-size="10.00">ExternalSourceCommand.json</text>
</a>
</g>
</g>
<!-- Node4&#45;&gt;Node17 -->
<g id="edge16" class="edge">
<title>Node4&#45;&gt;Node17</title>
<path fill="none" stroke="midnightblue" d="M388.32,-410.16C393.82,-413.32 398.84,-417.22 403,-422 475.25,-505.02 364.7,-585.81 439,-667 439.66,-667.72 440.34,-668.43 441.04,-669.11"/>
<polygon fill="midnightblue" stroke="midnightblue" points="439.14,-672.08 449.08,-675.72 443.58,-666.67 439.14,-672.08"/>
</g>
<!-- Node18 -->
<g id="node18" class="node">
<title>Node18</title>
<g id="a_node18"><a xlink:href="classklyqa__ctl_1_1devices_1_1light_1_1commands_1_1RoutineCommand.html#af3395a663a3dbdff8117ee708f80adec" target="_top" xlink:title=" ">
<polygon fill="white" stroke="black" points="447.5,-627 447.5,-657 633.5,-657 633.5,-627 447.5,-627"/>
<text text-anchor="start" x="455.5" y="-645" font-family="Helvetica,sans-Serif" font-size="10.00">klyqa_ctl.devices.light.commands.</text>
<text text-anchor="middle" x="540.5" y="-634" font-family="Helvetica,sans-Serif" font-size="10.00">RoutineCommand.json</text>
</a>
</g>
</g>
<!-- Node4&#45;&gt;Node18 -->
<g id="edge17" class="edge">
<title>Node4&#45;&gt;Node18</title>
<path fill="none" stroke="midnightblue" d="M388.14,-410.32C393.67,-413.45 398.75,-417.29 403,-422 462.33,-487.76 378.05,-553.74 439,-618 439.8,-618.85 440.63,-619.66 441.48,-620.46"/>
<polygon fill="midnightblue" stroke="midnightblue" points="439.64,-623.47 449.67,-626.89 443.97,-617.96 439.64,-623.47"/>
</g>
<!-- Node19 -->
<g id="node19" class="node">
<title>Node19</title>
<g id="a_node19"><a xlink:href="classklyqa__ctl_1_1devices_1_1vacuum_1_1commands_1_1ProductinfoCommand.html#a23d375f048835d4b0f12602764d2a6c1" target="_top" xlink:title=" ">
<polygon fill="white" stroke="black" points="439,-137 439,-167 642,-167 642,-137 439,-137"/>
<text text-anchor="start" x="447" y="-155" font-family="Helvetica,sans-Serif" font-size="10.00">klyqa_ctl.devices.vacuum.commands.</text>
<text text-anchor="middle" x="540.5" y="-144" font-family="Helvetica,sans-Serif" font-size="10.00">ProductinfoCommand.json</text>
</a>
</g>
</g>
<!-- Node4&#45;&gt;Node19 -->
<g id="edge18" class="edge">
<title>Node4&#45;&gt;Node19</title>
<path fill="none" stroke="midnightblue" d="M388.14,-383.68C393.67,-380.55 398.75,-376.71 403,-372 462.33,-306.24 378.05,-240.26 439,-176 439.8,-175.15 440.63,-174.34 441.48,-173.54"/>
<polygon fill="midnightblue" stroke="midnightblue" points="443.97,-176.04 449.67,-167.11 439.64,-170.53 443.97,-176.04"/>
</g>
<!-- Node21 -->
<g id="node21" class="node">
<title>Node21</title>
<g id="a_node21"><a xlink:href="classklyqa__ctl_1_1devices_1_1vacuum_1_1commands_1_1RequestGetCommand.html#a216966811184b718a4659bf081113f38" target="_top" xlink:title=" ">
<polygon fill="white" stroke="black" points="439,-88 439,-118 642,-118 642,-88 439,-88"/>
<text text-anchor="start" x="447" y="-106" font-family="Helvetica,sans-Serif" font-size="10.00">klyqa_ctl.devices.vacuum.commands.</text>
<text text-anchor="middle" x="540.5" y="-95" font-family="Helvetica,sans-Serif" font-size="10.00">RequestGetCommand.json</text>
</a>
</g>
</g>
<!-- Node4&#45;&gt;Node21 -->
<g id="edge20" class="edge">
<title>Node4&#45;&gt;Node21</title>
<path fill="none" stroke="midnightblue" d="M388.32,-383.84C393.82,-380.68 398.84,-376.78 403,-372 475.25,-288.98 364.7,-208.19 439,-127 439.66,-126.28 440.34,-125.57 441.04,-124.89"/>
<polygon fill="midnightblue" stroke="midnightblue" points="443.58,-127.33 449.08,-118.28 439.14,-121.92 443.58,-127.33"/>
</g>
<!-- Node23 -->
<g id="node23" class="node">
<title>Node23</title>
<g id="a_node23"><a xlink:href="classklyqa__ctl_1_1devices_1_1vacuum_1_1commands_1_1RequestResetCommand.html#a1ac56b80427d60d9f55079ae846ae25e" target="_top" xlink:title=" ">
<polygon fill="white" stroke="black" points="439,-39 439,-69 642,-69 642,-39 439,-39"/>
<text text-anchor="start" x="447" y="-57" font-family="Helvetica,sans-Serif" font-size="10.00">klyqa_ctl.devices.vacuum.commands.</text>
<text text-anchor="middle" x="540.5" y="-46" font-family="Helvetica,sans-Serif" font-size="10.00">RequestResetCommand.json</text>
</a>
</g>
</g>
<!-- Node4&#45;&gt;Node23 -->
<g id="edge22" class="edge">
<title>Node4&#45;&gt;Node23</title>
<path fill="none" stroke="midnightblue" d="M388.04,-384.18C393.67,-380.95 398.8,-376.95 403,-372 488.22,-271.66 351.3,-176.17 439,-78 439.65,-77.27 440.33,-76.56 441.01,-75.87"/>
<polygon fill="midnightblue" stroke="midnightblue" points="443.57,-78.29 448.99,-69.19 439.07,-72.93 443.57,-78.29"/>
</g>
<!-- Node25 -->
<g id="node25" class="node">
<title>Node25</title>
<g id="a_node25"><a xlink:href="classklyqa__ctl_1_1devices_1_1vacuum_1_1commands_1_1RequestSetCommand.html#a354b74be46f4b7d8a56811eaab910959" target="_top" xlink:title=" ">
<polygon fill="white" stroke="black" points="439,-578 439,-608 642,-608 642,-578 439,-578"/>
<text text-anchor="start" x="447" y="-596" font-family="Helvetica,sans-Serif" font-size="10.00">klyqa_ctl.devices.vacuum.commands.</text>
<text text-anchor="middle" x="540.5" y="-585" font-family="Helvetica,sans-Serif" font-size="10.00">RequestSetCommand.json</text>
</a>
</g>
</g>
<!-- Node4&#45;&gt;Node25 -->
<g id="edge24" class="edge">
<title>Node4&#45;&gt;Node25</title>
<path fill="none" stroke="midnightblue" d="M388.26,-410.81C393.7,-413.85 398.72,-417.53 403,-422 449.5,-470.6 391.3,-521.57 439,-569 439.97,-569.96 440.96,-570.89 441.99,-571.78"/>
<polygon fill="midnightblue" stroke="midnightblue" points="440.24,-574.83 450.36,-577.94 444.39,-569.19 440.24,-574.83"/>
</g>
<!-- Node27 -->
<g id="node27" class="node">
<title>Node27</title>
<g id="a_node27"><a xlink:href="classklyqa__ctl_1_1devices_1_1vacuum_1_1commands_1_1RoutineCommand.html#a926a94c8cc5104275078e438fb301028" target="_top" xlink:title=" ">
<polygon fill="white" stroke="black" points="439,-529 439,-559 642,-559 642,-529 439,-529"/>
<text text-anchor="start" x="447" y="-547" font-family="Helvetica,sans-Serif" font-size="10.00">klyqa_ctl.devices.vacuum.commands.</text>
<text text-anchor="middle" x="540.5" y="-536" font-family="Helvetica,sans-Serif" font-size="10.00">RoutineCommand.json</text>
</a>
</g>
</g>
<!-- Node4&#45;&gt;Node27 -->
<g id="edge26" class="edge">
<title>Node4&#45;&gt;Node27</title>
<path fill="none" stroke="midnightblue" d="M388.15,-411.56C393.55,-414.44 398.59,-417.88 403,-422 436.9,-453.68 404.32,-489.17 439,-520 440.17,-521.04 441.38,-522.04 442.63,-523"/>
<polygon fill="midnightblue" stroke="midnightblue" points="441.01,-526.13 451.28,-528.74 444.88,-520.29 441.01,-526.13"/>
</g>
<!-- Node29 -->
<g id="node29" class="node">
<title>Node29</title>
<g id="a_node29"><a xlink:href="classklyqa__ctl_1_1general_1_1general_1_1Command.html#a8c8ad93fedd0da0e0021f58714ec7fb5" target="_top" xlink:title=" ">
<polygon fill="white" stroke="black" points="469,-333 469,-363 612,-363 612,-333 469,-333"/>
<text text-anchor="start" x="477" y="-351" font-family="Helvetica,sans-Serif" font-size="10.00">klyqa_ctl.general.general.</text>
<text text-anchor="middle" x="540.5" y="-340" font-family="Helvetica,sans-Serif" font-size="10.00">Command.json</text>
</a>
</g>
</g>
<!-- Node4&#45;&gt;Node29 -->
<g id="edge28" class="edge">
<title>Node4&#45;&gt;Node29</title>
<path fill="none" stroke="midnightblue" d="M385.62,-381.97C409.59,-376.67 436.72,-370.69 461.44,-365.23"/>
<polygon fill="midnightblue" stroke="midnightblue" points="462.5,-368.58 471.51,-363.01 460.99,-361.74 462.5,-368.58"/>
</g>
<!-- Node30 -->
<g id="node30" class="node">
<title>Node30</title>
<g id="a_node30"><a xlink:href="classklyqa__ctl_1_1general_1_1general_1_1CommandTyped.html#a96dfd43912c4640f381424bdd44eebca" target="_top" xlink:title=" ">
<polygon fill="white" stroke="black" points="469,-480 469,-510 612,-510 612,-480 469,-480"/>
<text text-anchor="start" x="477" y="-498" font-family="Helvetica,sans-Serif" font-size="10.00">klyqa_ctl.general.general.</text>
<text text-anchor="middle" x="540.5" y="-487" font-family="Helvetica,sans-Serif" font-size="10.00">CommandTyped.json</text>
</a>
</g>
</g>
<!-- Node4&#45;&gt;Node30 -->
<g id="edge29" class="edge">
<title>Node4&#45;&gt;Node30</title>
<path fill="none" stroke="midnightblue" d="M384.82,-412.01C391.24,-414.8 397.43,-418.1 403,-422 425.14,-437.5 416.48,-456.06 439,-471 445.17,-475.09 451.95,-478.49 459,-481.3"/>
<polygon fill="midnightblue" stroke="midnightblue" points="458.15,-484.72 468.75,-484.8 460.52,-478.13 458.15,-484.72"/>
</g>
<!-- Node6 -->
<g id="node6" class="node">
<title>Node6</title>
<g id="a_node6"><a xlink:href="classklyqa__ctl_1_1devices_1_1light_1_1commands_1_1FwUpdateCommand.html#a7dc482a4e9a65d49ce0a61671ed6868e" target="_top" xlink:title=" ">
<polygon fill="white" stroke="black" points="694,-431 694,-461 880,-461 880,-431 694,-431"/>
<text text-anchor="start" x="702" y="-449" font-family="Helvetica,sans-Serif" font-size="10.00">klyqa_ctl.devices.light.commands.</text>
<text text-anchor="middle" x="787" y="-438" font-family="Helvetica,sans-Serif" font-size="10.00">FwUpdateCommand.url_json</text>
</a>
</g>
</g>
<!-- Node5&#45;&gt;Node6 -->
<g id="edge5" class="edge">
<title>Node5&#45;&gt;Node6</title>
<path fill="none" stroke="midnightblue" d="M633.59,-446C649.95,-446 667.09,-446 683.72,-446"/>
<polygon fill="midnightblue" stroke="midnightblue" points="684,-449.5 694,-446 684,-442.5 684,-449.5"/>
</g>
<!-- Node9 -->
<g id="node9" class="node">
<title>Node9</title>
<g id="a_node9"><a xlink:href="classklyqa__ctl_1_1devices_1_1light_1_1commands_1_1ColorCommand.html#a6ce99d7f4f232fb2f11e6efb7e85e778" target="_top" xlink:title=" ">
<polygon fill="white" stroke="black" points="694,-382 694,-412 880,-412 880,-382 694,-382"/>
<text text-anchor="start" x="702" y="-400" font-family="Helvetica,sans-Serif" font-size="10.00">klyqa_ctl.devices.light.commands.</text>
<text text-anchor="middle" x="787" y="-389" font-family="Helvetica,sans-Serif" font-size="10.00">ColorCommand.color_json</text>
</a>
</g>
</g>
<!-- Node8&#45;&gt;Node9 -->
<g id="edge8" class="edge">
<title>Node8&#45;&gt;Node9</title>
<path fill="none" stroke="midnightblue" d="M633.59,-397C649.95,-397 667.09,-397 683.72,-397"/>
<polygon fill="midnightblue" stroke="midnightblue" points="684,-400.5 694,-397 684,-393.5 684,-400.5"/>
</g>
<!-- Node10 -->
<g id="node10" class="node">
<title>Node10</title>
<g id="a_node10"><a xlink:href="classklyqa__ctl_1_1devices_1_1light_1_1response__status_1_1ResponseStatus.html#a327c18fd6f8a38e75e1bbc2f895df592" target="_top" xlink:title=" ">
<polygon fill="white" stroke="black" points="944,-382 944,-412 1117,-412 1117,-382 944,-382"/>
<text text-anchor="start" x="952" y="-400" font-family="Helvetica,sans-Serif" font-size="10.00">klyqa_ctl.devices.light.response</text>
<text text-anchor="middle" x="1030.5" y="-389" font-family="Helvetica,sans-Serif" font-size="10.00">_status.ResponseStatus.color</text>
</a>
</g>
</g>
<!-- Node9&#45;&gt;Node10 -->
<g id="edge9" class="edge">
<title>Node9&#45;&gt;Node10</title>
<path fill="none" stroke="midnightblue" d="M880.33,-397C897.81,-397 916.13,-397 933.71,-397"/>
<polygon fill="midnightblue" stroke="midnightblue" points="933.96,-400.5 943.96,-397 933.96,-393.5 933.96,-400.5"/>
</g>
<!-- Node12 -->
<g id="node12" class="node">
<title>Node12</title>
<g id="a_node12"><a xlink:href="classklyqa__ctl_1_1devices_1_1light_1_1commands_1_1TemperatureCommand.html#a0b45255dc9218a36450152f1118a8280" target="_top" xlink:title=" ">
<polygon fill="white" stroke="black" points="678,-284 678,-314 896,-314 896,-284 678,-284"/>
<text text-anchor="start" x="686" y="-302" font-family="Helvetica,sans-Serif" font-size="10.00">klyqa_ctl.devices.light.commands.</text>
<text text-anchor="middle" x="787" y="-291" font-family="Helvetica,sans-Serif" font-size="10.00">TemperatureCommand.temperature_json</text>
</a>
</g>
</g>
<!-- Node11&#45;&gt;Node12 -->
<g id="edge11" class="edge">
<title>Node11&#45;&gt;Node12</title>
<path fill="none" stroke="midnightblue" d="M633.59,-299C644.79,-299 656.35,-299 667.87,-299"/>
<polygon fill="midnightblue" stroke="midnightblue" points="667.96,-302.5 677.96,-299 667.96,-295.5 667.96,-302.5"/>
</g>
<!-- Node13 -->
<g id="node13" class="node">
<title>Node13</title>
<g id="a_node13"><a xlink:href="classklyqa__ctl_1_1devices_1_1light_1_1response__status_1_1ResponseStatus.html#a2e732c44c35f39dc3d8fe269c24aef8a" target="_top" xlink:title=" ">
<polygon fill="white" stroke="black" points="932,-284 932,-314 1129,-314 1129,-284 932,-284"/>
<text text-anchor="start" x="940" y="-302" font-family="Helvetica,sans-Serif" font-size="10.00">klyqa_ctl.devices.light.response</text>
<text text-anchor="middle" x="1030.5" y="-291" font-family="Helvetica,sans-Serif" font-size="10.00">_status.ResponseStatus.temperature</text>
</a>
</g>
</g>
<!-- Node12&#45;&gt;Node13 -->
<g id="edge12" class="edge">
<title>Node12&#45;&gt;Node13</title>
<path fill="none" stroke="midnightblue" d="M896.04,-299C904.61,-299 913.27,-299 921.85,-299"/>
<polygon fill="midnightblue" stroke="midnightblue" points="921.86,-302.5 931.86,-299 921.86,-295.5 921.86,-302.5"/>
</g>
<!-- Node15 -->
<g id="node15" class="node">
<title>Node15</title>
<g id="a_node15"><a xlink:href="classklyqa__ctl_1_1devices_1_1light_1_1commands_1_1BrightnessCommand.html#aba34fce7f4d8d6aae6bcbaaa61c21a8c" target="_top" xlink:title=" ">
<polygon fill="white" stroke="black" points="688,-235 688,-265 886,-265 886,-235 688,-235"/>
<text text-anchor="start" x="696" y="-253" font-family="Helvetica,sans-Serif" font-size="10.00">klyqa_ctl.devices.light.commands.</text>
<text text-anchor="middle" x="787" y="-242" font-family="Helvetica,sans-Serif" font-size="10.00">BrightnessCommand.brightness_json</text>
</a>
</g>
</g>
<!-- Node14&#45;&gt;Node15 -->
<g id="edge14" class="edge">
<title>Node14&#45;&gt;Node15</title>
<path fill="none" stroke="midnightblue" d="M633.59,-250C647.99,-250 663,-250 677.73,-250"/>
<polygon fill="midnightblue" stroke="midnightblue" points="677.87,-253.5 687.87,-250 677.87,-246.5 677.87,-253.5"/>
</g>
<!-- Node16 -->
<g id="node16" class="node">
<title>Node16</title>
<g id="a_node16"><a xlink:href="classklyqa__ctl_1_1devices_1_1light_1_1response__status_1_1ResponseStatus.html#a762787729b726f6ad8bd5a9a3ae40a67" target="_top" xlink:title=" ">
<polygon fill="white" stroke="black" points="937,-235 937,-265 1124,-265 1124,-235 937,-235"/>
<text text-anchor="start" x="945" y="-253" font-family="Helvetica,sans-Serif" font-size="10.00">klyqa_ctl.devices.light.response</text>
<text text-anchor="middle" x="1030.5" y="-242" font-family="Helvetica,sans-Serif" font-size="10.00">_status.ResponseStatus.brightness</text>
</a>
</g>
</g>
<!-- Node15&#45;&gt;Node16 -->
<g id="edge15" class="edge">
<title>Node15&#45;&gt;Node16</title>
<path fill="none" stroke="midnightblue" d="M886.23,-250C899.55,-250 913.25,-250 926.64,-250"/>
<polygon fill="midnightblue" stroke="midnightblue" points="926.82,-253.5 936.82,-250 926.82,-246.5 926.82,-253.5"/>
</g>
<!-- Node20 -->
<g id="node20" class="node">
<title>Node20</title>
<g id="a_node20"><a xlink:href="classklyqa__ctl_1_1devices_1_1vacuum_1_1commands_1_1ProductinfoCommand.html#a1950a810783ab6312c31fa43dd06182c" target="_top" xlink:title=" ">
<polygon fill="white" stroke="black" points="684,-137 684,-167 890,-167 890,-137 684,-137"/>
<text text-anchor="start" x="692" y="-155" font-family="Helvetica,sans-Serif" font-size="10.00">klyqa_ctl.devices.vacuum.commands.</text>
<text text-anchor="middle" x="787" y="-144" font-family="Helvetica,sans-Serif" font-size="10.00">ProductinfoCommand.productinfo_json</text>
</a>
</g>
</g>
<!-- Node19&#45;&gt;Node20 -->
<g id="edge19" class="edge">
<title>Node19&#45;&gt;Node20</title>
<path fill="none" stroke="midnightblue" d="M642.01,-152C652.49,-152 663.19,-152 673.79,-152"/>
<polygon fill="midnightblue" stroke="midnightblue" points="673.91,-155.5 683.91,-152 673.91,-148.5 673.91,-155.5"/>
</g>
<!-- Node22 -->
<g id="node22" class="node">
<title>Node22</title>
<g id="a_node22"><a xlink:href="classklyqa__ctl_1_1devices_1_1vacuum_1_1commands_1_1RequestGetCommand.html#a71be3cb060fa2c05f2762d13267c6144" target="_top" xlink:title=" ">
<polygon fill="white" stroke="black" points="685.5,-88 685.5,-118 888.5,-118 888.5,-88 685.5,-88"/>
<text text-anchor="start" x="693.5" y="-106" font-family="Helvetica,sans-Serif" font-size="10.00">klyqa_ctl.devices.vacuum.commands.</text>
<text text-anchor="middle" x="787" y="-95" font-family="Helvetica,sans-Serif" font-size="10.00">RequestGetCommand.get_json</text>
</a>
</g>
</g>
<!-- Node21&#45;&gt;Node22 -->
<g id="edge21" class="edge">
<title>Node21&#45;&gt;Node22</title>
<path fill="none" stroke="midnightblue" d="M642.01,-103C653,-103 664.23,-103 675.34,-103"/>
<polygon fill="midnightblue" stroke="midnightblue" points="675.49,-106.5 685.49,-103 675.49,-99.5 675.49,-106.5"/>
</g>
<!-- Node24 -->
<g id="node24" class="node">
<title>Node24</title>
<g id="a_node24"><a xlink:href="classklyqa__ctl_1_1devices_1_1vacuum_1_1commands_1_1RequestResetCommand.html#a53de7ccfeb12e1b8f4c0ea8a82410d4e" target="_top" xlink:title=" ">
<polygon fill="white" stroke="black" points="685.5,-39 685.5,-69 888.5,-69 888.5,-39 685.5,-39"/>
<text text-anchor="start" x="693.5" y="-57" font-family="Helvetica,sans-Serif" font-size="10.00">klyqa_ctl.devices.vacuum.commands.</text>
<text text-anchor="middle" x="787" y="-46" font-family="Helvetica,sans-Serif" font-size="10.00">RequestResetCommand.reset_json</text>
</a>
</g>
</g>
<!-- Node23&#45;&gt;Node24 -->
<g id="edge23" class="edge">
<title>Node23&#45;&gt;Node24</title>
<path fill="none" stroke="midnightblue" d="M642.01,-54C653,-54 664.23,-54 675.34,-54"/>
<polygon fill="midnightblue" stroke="midnightblue" points="675.49,-57.5 685.49,-54 675.49,-50.5 675.49,-57.5"/>
</g>
<!-- Node26 -->
<g id="node26" class="node">
<title>Node26</title>
<g id="a_node26"><a xlink:href="classklyqa__ctl_1_1devices_1_1vacuum_1_1commands_1_1RequestSetCommand.html#ac327b3b919e0d1a45ebe754e546f94f8" target="_top" xlink:title=" ">
<polygon fill="white" stroke="black" points="685.5,-578 685.5,-608 888.5,-608 888.5,-578 685.5,-578"/>
<text text-anchor="start" x="693.5" y="-596" font-family="Helvetica,sans-Serif" font-size="10.00">klyqa_ctl.devices.vacuum.commands.</text>
<text text-anchor="middle" x="787" y="-585" font-family="Helvetica,sans-Serif" font-size="10.00">RequestSetCommand.set_json</text>
</a>
</g>
</g>
<!-- Node25&#45;&gt;Node26 -->
<g id="edge25" class="edge">
<title>Node25&#45;&gt;Node26</title>
<path fill="none" stroke="midnightblue" d="M642.01,-593C653,-593 664.23,-593 675.34,-593"/>
<polygon fill="midnightblue" stroke="midnightblue" points="675.49,-596.5 685.49,-593 675.49,-589.5 675.49,-596.5"/>
</g>
<!-- Node28 -->
<g id="node28" class="node">
<title>Node28</title>
<g id="a_node28"><a xlink:href="classklyqa__ctl_1_1devices_1_1vacuum_1_1commands_1_1RoutineCommand.html#acaf3db880f88d37bb1cf8218a309e52c" target="_top" xlink:title=" ">
<polygon fill="white" stroke="black" points="685.5,-529 685.5,-559 888.5,-559 888.5,-529 685.5,-529"/>
<text text-anchor="start" x="693.5" y="-547" font-family="Helvetica,sans-Serif" font-size="10.00">klyqa_ctl.devices.vacuum.commands.</text>
<text text-anchor="middle" x="787" y="-536" font-family="Helvetica,sans-Serif" font-size="10.00">RoutineCommand.routine_json</text>
</a>
</g>
</g>
<!-- Node27&#45;&gt;Node28 -->
<g id="edge27" class="edge">
<title>Node27&#45;&gt;Node28</title>
<path fill="none" stroke="midnightblue" d="M642.01,-544C653,-544 664.23,-544 675.34,-544"/>
<polygon fill="midnightblue" stroke="midnightblue" points="675.49,-547.5 685.49,-544 675.49,-540.5 675.49,-547.5"/>
</g>
<!-- Node31 -->
<g id="node31" class="node">
<title>Node31</title>
<g id="a_node31"><a xlink:href="classklyqa__ctl_1_1devices_1_1response__message_1_1ResponseMessage.html#a076bcd25b3f41acdc763569b279c4545" target="_top" xlink:title=" ">
<polygon fill="white" stroke="black" points="694.5,-480 694.5,-510 879.5,-510 879.5,-480 694.5,-480"/>
<text text-anchor="start" x="702.5" y="-498" font-family="Helvetica,sans-Serif" font-size="10.00">klyqa_ctl.devices.response</text>
<text text-anchor="middle" x="787" y="-487" font-family="Helvetica,sans-Serif" font-size="10.00">_message.ResponseMessage.type</text>
</a>
</g>
</g>
<!-- Node30&#45;&gt;Node31 -->
<g id="edge30" class="edge">
<title>Node30&#45;&gt;Node31</title>
<path fill="none" stroke="midnightblue" d="M612.22,-495C634.68,-495 659.98,-495 684.18,-495"/>
<polygon fill="midnightblue" stroke="midnightblue" points="684.47,-498.5 694.47,-495 684.47,-491.5 684.47,-498.5"/>
</g>
<!-- Node32&#45;&gt;Node5 -->
<g id="edge32" class="edge">
<title>Node32&#45;&gt;Node5</title>
<path fill="none" stroke="midnightblue" d="M387.03,-363.07C392.66,-365.6 398.07,-368.55 403,-372 425.44,-387.69 416.26,-406.75 439,-422 441.41,-423.62 443.92,-425.12 446.5,-426.53"/>
<polygon fill="midnightblue" stroke="midnightblue" points="445.01,-429.7 455.53,-430.93 448.07,-423.4 445.01,-429.7"/>
</g>
<!-- Node32&#45;&gt;Node7 -->
<g id="edge33" class="edge">
<title>Node32&#45;&gt;Node7</title>
<path fill="none" stroke="midnightblue" d="M388.98,-332.99C394.06,-330.21 398.82,-326.91 403,-323 436.9,-291.32 404.32,-255.83 439,-225 440.17,-223.96 441.38,-222.96 442.63,-222"/>
<polygon fill="midnightblue" stroke="midnightblue" points="444.88,-224.71 451.28,-216.26 441.01,-218.87 444.88,-224.71"/>
</g>
<!-- Node32&#45;&gt;Node8 -->
<g id="edge34" class="edge">
<title>Node32&#45;&gt;Node8</title>
<path fill="none" stroke="midnightblue" d="M385.62,-363.03C409.59,-368.33 436.72,-374.31 461.44,-379.77"/>
<polygon fill="midnightblue" stroke="midnightblue" points="460.99,-383.26 471.51,-381.99 462.5,-376.42 460.99,-383.26"/>
</g>
<!-- Node32&#45;&gt;Node11 -->
<g id="edge35" class="edge">
<title>Node32&#45;&gt;Node11</title>
<path fill="none" stroke="midnightblue" d="M385.62,-332.97C409.59,-327.67 436.72,-321.69 461.44,-316.23"/>
<polygon fill="midnightblue" stroke="midnightblue" points="462.5,-319.58 471.51,-314.01 460.99,-312.74 462.5,-319.58"/>
</g>
<!-- Node32&#45;&gt;Node14 -->
<g id="edge36" class="edge">
<title>Node32&#45;&gt;Node14</title>
<path fill="none" stroke="midnightblue" d="M384.82,-332.99C391.24,-330.2 397.43,-326.9 403,-323 425.14,-307.5 416.48,-288.94 439,-274 441.45,-272.37 444,-270.86 446.63,-269.44"/>
<polygon fill="midnightblue" stroke="midnightblue" points="448.33,-272.51 455.82,-265.02 445.29,-266.2 448.33,-272.51"/>
</g>
<!-- Node32&#45;&gt;Node17 -->
<g id="edge37" class="edge">
<title>Node32&#45;&gt;Node17</title>
<path fill="none" stroke="midnightblue" d="M391.17,-361.87C395.57,-364.68 399.59,-368.02 403,-372 489.03,-472.23 351.02,-568.48 439,-667 439.65,-667.73 440.32,-668.44 441.01,-669.13"/>
<polygon fill="midnightblue" stroke="midnightblue" points="439.07,-672.07 448.98,-675.81 443.57,-666.71 439.07,-672.07"/>
</g>
<!-- Node32&#45;&gt;Node18 -->
<g id="edge38" class="edge">
<title>Node32&#45;&gt;Node18</title>
<path fill="none" stroke="midnightblue" d="M391.07,-361.96C395.49,-364.75 399.54,-368.06 403,-372 475.96,-454.98 364.42,-536.46 439,-618 439.66,-618.72 440.34,-619.43 441.04,-620.11"/>
<polygon fill="midnightblue" stroke="midnightblue" points="439.13,-623.08 449.08,-626.73 443.58,-617.67 439.13,-623.08"/>
</g>
<!-- Node32&#45;&gt;Node19 -->
<g id="edge39" class="edge">
<title>Node32&#45;&gt;Node19</title>
<path fill="none" stroke="midnightblue" d="M390.68,-332.78C395.19,-330.03 399.37,-326.8 403,-323 449.5,-274.4 391.3,-223.43 439,-176 439.97,-175.04 440.96,-174.11 441.99,-173.22"/>
<polygon fill="midnightblue" stroke="midnightblue" points="444.39,-175.81 450.36,-167.06 440.24,-170.17 444.39,-175.81"/>
</g>
<!-- Node32&#45;&gt;Node21 -->
<g id="edge40" class="edge">
<title>Node32&#45;&gt;Node21</title>
<path fill="none" stroke="midnightblue" d="M391.32,-332.77C395.62,-330.02 399.58,-326.79 403,-323 462.33,-257.24 378.05,-191.26 439,-127 439.8,-126.15 440.63,-125.34 441.48,-124.54"/>
<polygon fill="midnightblue" stroke="midnightblue" points="443.97,-127.04 449.67,-118.11 439.64,-121.53 443.97,-127.04"/>
</g>
<!-- Node32&#45;&gt;Node23 -->
<g id="edge41" class="edge">
<title>Node32&#45;&gt;Node23</title>
<path fill="none" stroke="midnightblue" d="M391.09,-333.15C395.51,-330.32 399.55,-326.97 403,-323 475.25,-239.98 364.7,-159.19 439,-78 439.66,-77.28 440.34,-76.57 441.04,-75.89"/>
<polygon fill="midnightblue" stroke="midnightblue" points="443.58,-78.33 449.08,-69.28 439.14,-72.92 443.58,-78.33"/>
</g>
<!-- Node32&#45;&gt;Node25 -->
<g id="edge42" class="edge">
<title>Node32&#45;&gt;Node25</title>
<path fill="none" stroke="midnightblue" d="M391.3,-362.35C395.61,-365.05 399.57,-368.24 403,-372 462.95,-437.79 377.77,-504.4 439,-569 439.8,-569.85 440.63,-570.67 441.48,-571.46"/>
<polygon fill="midnightblue" stroke="midnightblue" points="439.64,-574.47 449.67,-577.89 443.97,-568.96 439.64,-574.47"/>
</g>
<!-- Node32&#45;&gt;Node27 -->
<g id="edge43" class="edge">
<title>Node32&#45;&gt;Node27</title>
<path fill="none" stroke="midnightblue" d="M391.06,-362.57C395.42,-365.22 399.47,-368.34 403,-372 450.02,-420.7 391.03,-472.23 439,-520 439.97,-520.96 440.96,-521.89 441.99,-522.78"/>
<polygon fill="midnightblue" stroke="midnightblue" points="440.23,-525.83 450.36,-528.95 444.39,-520.2 440.23,-525.83"/>
</g>
<!-- Node32&#45;&gt;Node29 -->
<g id="edge44" class="edge">
<title>Node32&#45;&gt;Node29</title>
<path fill="none" stroke="midnightblue" d="M391.11,-348C412.79,-348 436.61,-348 458.71,-348"/>
<polygon fill="midnightblue" stroke="midnightblue" points="458.72,-351.5 468.72,-348 458.72,-344.5 458.72,-351.5"/>
</g>
<!-- Node32&#45;&gt;Node30 -->
<g id="edge45" class="edge">
<title>Node32&#45;&gt;Node30</title>
<path fill="none" stroke="midnightblue" d="M390.61,-363.03C395.08,-365.57 399.27,-368.54 403,-372 437.33,-403.84 404.06,-439.84 439,-471 444.98,-476.33 451.93,-480.53 459.33,-483.84"/>
<polygon fill="midnightblue" stroke="midnightblue" points="458.32,-487.2 468.9,-487.56 460.85,-480.67 458.32,-487.2"/>
</g>
<!-- Node35 -->
<g id="node35" class="node">
<title>Node35</title>
<g id="a_node35"><a xlink:href="namespaceklyqa__ctl_1_1general_1_1general.html#a9df3b50dfc0fcc7c8ec991bb9be9c5ba" target="_top" xlink:title=" ">
<polygon fill="white" stroke="black" points="448,-0.5 448,-19.5 633,-19.5 633,-0.5 448,-0.5"/>
<text text-anchor="middle" x="540.5" y="-7.5" font-family="Helvetica,sans-Serif" font-size="10.00">klyqa_ctl.general.general.task_log</text>
</a>
</g>
</g>
<!-- Node34&#45;&gt;Node35 -->
<g id="edge48" class="edge">
<title>Node34&#45;&gt;Node35</title>
<path fill="none" stroke="midnightblue" d="M329.93,-119.9C350.17,-96.42 392.67,-51.5 439,-29 444.04,-26.55 449.37,-24.42 454.83,-22.56"/>
<polygon fill="midnightblue" stroke="midnightblue" points="456.25,-25.78 464.78,-19.5 454.2,-19.09 456.25,-25.78"/>
</g>
<!-- Node36 -->
<g id="node36" class="node">
<title>Node36</title>
<g id="a_node36"><a xlink:href="namespaceklyqa__ctl_1_1general_1_1general.html#aea905150cafee39fa2ca211f1e60f012" target="_top" xlink:title=" ">
<polygon fill="white" stroke="black" points="688.5,-0.5 688.5,-19.5 885.5,-19.5 885.5,-0.5 688.5,-0.5"/>
<text text-anchor="middle" x="787" y="-7.5" font-family="Helvetica,sans-Serif" font-size="10.00">klyqa_ctl.general.general.task_name</text>
</a>
</g>
</g>
<!-- Node35&#45;&gt;Node36 -->
<g id="edge49" class="edge">
<title>Node35&#45;&gt;Node36</title>
<path fill="none" stroke="midnightblue" d="M633.24,-10C647.88,-10 663.15,-10 678.12,-10"/>
<polygon fill="midnightblue" stroke="midnightblue" points="678.43,-13.5 688.43,-10 678.43,-6.5 678.43,-13.5"/>
</g>
</g>
</svg>
        <g id="navigator" transform="translate(0 0)" fill="#404254">
                <rect fill="#f2f5e9" fill-opacity="0.5" stroke="#606060" stroke-width=".5" x="0" y="0" width="60" height="60"/>
                <use id="zoomplus" xlink:href="#zoomPlus" x="17" y="9" onmousedown="handleZoom(evt,'in')"/>
                <use id="zoomminus" xlink:href="#zoomMin" x="42" y="9" onmousedown="handleZoom(evt,'out')"/>
                <use id="reset" xlink:href="#resetDef" x="30" y="36" onmousedown="handleReset()"/>
                <g id="arrowUp" xlink:href="#dirArrow" transform="translate(30 24)" onmousedown="handlePan(0,-1)">
                  <use xlink:href="#rim" fill="#404040">
                        <set attributeName="fill" to="#808080" begin="arrowUp.mouseover" end="arrowUp.mouseout"/>
                  </use>
                  <path fill="none" stroke="white" stroke-width="1.5" d="M0,-3.0v7 M-2.5,-0.5L0,-3.0L2.5,-0.5"/>
                </g>
                <g id="arrowRight" xlink:href="#dirArrow" transform="rotate(90) translate(36 -43)" onmousedown="handlePan(1,0)">
                  <use xlink:href="#rim" fill="#404040">
                        <set attributeName="fill" to="#808080" begin="arrowRight.mouseover" end="arrowRight.mouseout"/>
                  </use>
                  <path fill="none" stroke="white" stroke-width="1.5" d="M0,-3.0v7 M-2.5,-0.5L0,-3.0L2.5,-0.5"/>
                </g>
                <g id="arrowDown" xlink:href="#dirArrow" transform="rotate(180) translate(-30 -48)" onmousedown="handlePan(0,1)">
                  <use xlink:href="#rim" fill="#404040">
                        <set attributeName="fill" to="#808080" begin="arrowDown.mouseover" end="arrowDown.mouseout"/>
                  </use>
                  <path fill="none" stroke="white" stroke-width="1.5" d="M0,-3.0v7 M-2.5,-0.5L0,-3.0L2.5,-0.5"/>
                </g>
                <g id="arrowLeft" xlink:href="#dirArrow" transform="rotate(270) translate(-36 17)" onmousedown="handlePan(-1,0)">
                  <use xlink:href="#rim" fill="#404040">
                        <set attributeName="fill" to="#808080" begin="arrowLeft.mouseover" end="arrowLeft.mouseout"/>
                  </use>
                  <path fill="none" stroke="white" stroke-width="1.5" d="M0,-3.0v7 M-2.5,-0.5L0,-3.0L2.5,-0.5"/>
                </g>
        </g>
        <svg viewBox="0 0 15 15" width="100%" height="30px" preserveAspectRatio="xMaxYMin meet">
         <g id="arrow_out" transform="scale(0.3 0.3)">
          <a xlink:href="classklyqa__ctl_1_1account_1_1Account_af0e05ae15ad46c4b1b3bbb69b6bb7151_cgraph_org.svg" target="_base">
           <rect id="button" ry="5" rx="5" y="6" x="6" height="38" width="38"
                fill="#f2f5e9" fill-opacity="0.5" stroke="#606060" stroke-width="1.0"/>
           <path id="arrow"
             d="M 11.500037,31.436501 C 11.940474,20.09759 22.043105,11.32322 32.158766,21.979434 L 37.068811,17.246167 C 37.068811,17.246167 37.088388,32 37.088388,32 L 22.160133,31.978069 C 22.160133,31.978069 26.997745,27.140456 26.997745,27.140456 C 18.528582,18.264221 13.291696,25.230495 11.500037,31.436501 z"
             style="fill:#404040;"/>
          </a>
         </g>
        </svg>
</svg>
