<?xml version="1.0" encoding="UTF-8" standalone="no"?>
<!DOCTYPE svg PUBLIC "-//W3C//DTD SVG 1.1//EN"
 "http://www.w3.org/Graphics/SVG/1.1/DTD/svg11.dtd">
<!-- Generated by graphviz version 2.43.0 (0)
 -->
<!-- Title: klyqa_ctl.general.message.Message.target_uid Pages: 1 -->
<svg width="720pt" height="61pt"
 viewBox="0.00 0.00 720.00 61.00" xmlns="http://www.w3.org/2000/svg" xmlns:xlink="http://www.w3.org/1999/xlink">
<g id="graph0" class="graph" transform="scale(1 1) rotate(0) translate(4 57)">
<title>klyqa_ctl.general.message.Message.target_uid</title>
<polygon fill="white" stroke="transparent" points="-4,4 -4,-57 716,-57 716,4 -4,4"/>
<!-- Node1 -->
<g id="node1" class="node">
<title>Node1</title>
<g id="a_node1"><a xlink:title=" ">
<polygon fill="#bfbfbf" stroke="black" points="561,-22.5 561,-52.5 712,-52.5 712,-22.5 561,-22.5"/>
<text text-anchor="start" x="569" y="-40.5" font-family="Helvetica,sans-Serif" font-size="10.00">klyqa_ctl.general.message.</text>
<text text-anchor="middle" x="636.5" y="-29.5" font-family="Helvetica,sans-Serif" font-size="10.00">Message.target_uid</text>
</a>
</g>
</g>
<!-- Node2 -->
<g id="node2" class="node">
<title>Node2</title>
<g id="a_node2"><a xlink:href="classklyqa__ctl_1_1general_1_1message_1_1Message.html#a26f0da6e41fb9da0612f7ffdb5b94c5b" target="_top" xlink:title=" ">
<polygon fill="white" stroke="black" points="187,-22.5 187,-52.5 338,-52.5 338,-22.5 187,-22.5"/>
<text text-anchor="start" x="195" y="-40.5" font-family="Helvetica,sans-Serif" font-size="10.00">klyqa_ctl.general.message.</text>
<text text-anchor="middle" x="262.5" y="-29.5" font-family="Helvetica,sans-Serif" font-size="10.00">Message.call_cb</text>
</a>
</g>
</g>
<!-- Node1&#45;&gt;Node2 -->
<g id="edge1" class="edge">
<title>Node1&#45;&gt;Node2</title>
<path fill="none" stroke="midnightblue" d="M550.73,-40.04C542.04,-40.23 533.34,-40.39 525,-40.5 457.9,-41.41 441.1,-41.41 374,-40.5 362.39,-40.34 350.1,-40.09 338.09,-39.8"/>
<polygon fill="midnightblue" stroke="midnightblue" points="550.99,-43.53 560.91,-39.8 550.83,-36.53 550.99,-43.53"/>
</g>
<!-- Node4 -->
<g id="node4" class="node">
<title>Node4</title>
<g id="a_node4"><a xlink:href="classklyqa__ctl_1_1general_1_1message_1_1Message.html#a7ce6ef4fadad18a090eb588d6c586413" target="_top" xlink:title=" ">
<polygon fill="white" stroke="black" points="374,-0.5 374,-30.5 525,-30.5 525,-0.5 374,-0.5"/>
<text text-anchor="start" x="382" y="-18.5" font-family="Helvetica,sans-Serif" font-size="10.00">klyqa_ctl.general.message.</text>
<text text-anchor="middle" x="449.5" y="-7.5" font-family="Helvetica,sans-Serif" font-size="10.00">Message.target_uid</text>
</a>
</g>
</g>
<!-- Node1&#45;&gt;Node4 -->
<g id="edge3" class="edge">
<title>Node1&#45;&gt;Node4</title>
<path fill="none" stroke="midnightblue" d="M550.81,-27.43C542.26,-26.41 533.62,-25.39 525.19,-24.38"/>
<polygon fill="midnightblue" stroke="midnightblue" points="550.44,-30.91 560.79,-28.62 551.27,-23.96 550.44,-30.91"/>
</g>
<!-- Node3 -->
<g id="node3" class="node">
<title>Node3</title>
<g id="a_node3"><a xlink:href="classklyqa__ctl_1_1general_1_1message_1_1Message.html#a670561cf07691d77ef03db5705ddea75" target="_top" xlink:title=" ">
<polygon fill="white" stroke="black" points="0,-22.5 0,-52.5 151,-52.5 151,-22.5 0,-22.5"/>
<text text-anchor="start" x="8" y="-40.5" font-family="Helvetica,sans-Serif" font-size="10.00">klyqa_ctl.general.message.</text>
<text text-anchor="middle" x="75.5" y="-29.5" font-family="Helvetica,sans-Serif" font-size="10.00">Message.check_msg_ttl</text>
</a>
</g>
</g>
<!-- Node2&#45;&gt;Node3 -->
<g id="edge2" class="edge">
<title>Node2&#45;&gt;Node3</title>
<path fill="none" stroke="midnightblue" d="M176.53,-37.5C168.07,-37.5 159.53,-37.5 151.19,-37.5"/>
<polygon fill="midnightblue" stroke="midnightblue" points="176.79,-41 186.79,-37.5 176.79,-34 176.79,-41"/>
</g>
<!-- Node4&#45;&gt;Node2 -->
<g id="edge4" class="edge">
<title>Node4&#45;&gt;Node2</title>
<path fill="none" stroke="midnightblue" d="M363.81,-25.57C355.26,-26.59 346.62,-27.61 338.19,-28.62"/>
<polygon fill="midnightblue" stroke="midnightblue" points="364.27,-29.04 373.79,-24.38 363.44,-22.09 364.27,-29.04"/>
</g>
</g>
</svg>
