<?xml version="1.0" encoding="UTF-8" standalone="no"?>
<!DOCTYPE svg PUBLIC "-//W3C//DTD SVG 1.1//EN"
 "http://www.w3.org/Graphics/SVG/1.1/DTD/svg11.dtd">
<!-- Generated by graphviz version 2.43.0 (0)
 -->
<!-- Title: klyqa_ctl.general.message.Message.check_msg_ttl Pages: 1 -->
<svg width="856pt" height="127pt"
 viewBox="0.00 0.00 856.00 127.00" xmlns="http://www.w3.org/2000/svg" xmlns:xlink="http://www.w3.org/1999/xlink">
<g id="graph0" class="graph" transform="scale(1 1) rotate(0) translate(4 123)">
<title>klyqa_ctl.general.message.Message.check_msg_ttl</title>
<polygon fill="white" stroke="transparent" points="-4,4 -4,-123 852,-123 852,4 -4,4"/>
<!-- Node1 -->
<g id="node1" class="node">
<title>Node1</title>
<g id="a_node1"><a xlink:title=" ">
<polygon fill="#bfbfbf" stroke="black" points="0,-44.5 0,-74.5 151,-74.5 151,-44.5 0,-44.5"/>
<text text-anchor="start" x="8" y="-62.5" font-family="Helvetica,sans-Serif" font-size="10.00">klyqa_ctl.general.message.</text>
<text text-anchor="middle" x="75.5" y="-51.5" font-family="Helvetica,sans-Serif" font-size="10.00">Message.check_msg_ttl</text>
</a>
</g>
</g>
<!-- Node2 -->
<g id="node2" class="node">
<title>Node2</title>
<g id="a_node2"><a xlink:href="classklyqa__ctl_1_1general_1_1message_1_1Message.html#a26f0da6e41fb9da0612f7ffdb5b94c5b" target="_top" xlink:title=" ">
<polygon fill="white" stroke="black" points="215,-88.5 215,-118.5 366,-118.5 366,-88.5 215,-88.5"/>
<text text-anchor="start" x="223" y="-106.5" font-family="Helvetica,sans-Serif" font-size="10.00">klyqa_ctl.general.message.</text>
<text text-anchor="middle" x="290.5" y="-95.5" font-family="Helvetica,sans-Serif" font-size="10.00">Message.call_cb</text>
</a>
</g>
</g>
<!-- Node1&#45;&gt;Node2 -->
<g id="edge1" class="edge">
<title>Node1&#45;&gt;Node2</title>
<path fill="none" stroke="midnightblue" d="M149.21,-74.52C167.78,-78.36 187.89,-82.51 206.92,-86.44"/>
<polygon fill="midnightblue" stroke="midnightblue" points="206.26,-89.88 216.76,-88.47 207.67,-83.02 206.26,-89.88"/>
</g>
<!-- Node4 -->
<g id="node4" class="node">
<title>Node4</title>
<g id="a_node4"><a xlink:href="classlocal_1_1connection_1_1TcpConnection.html#a47f1fe8d61f1bb165008723a321e376b" target="_top" xlink:title=" ">
<polygon fill="white" stroke="black" points="187,-50 187,-69 394,-69 394,-50 187,-50"/>
<text text-anchor="middle" x="290.5" y="-57" font-family="Helvetica,sans-Serif" font-size="10.00">local.connection.TcpConnection.started</text>
</a>
</g>
</g>
<!-- Node1&#45;&gt;Node4 -->
<g id="edge3" class="edge">
<title>Node1&#45;&gt;Node4</title>
<path fill="none" stroke="midnightblue" d="M151.3,-59.5C159.57,-59.5 168.12,-59.5 176.73,-59.5"/>
<polygon fill="midnightblue" stroke="midnightblue" points="176.84,-63 186.84,-59.5 176.84,-56 176.84,-63"/>
</g>
<!-- Node5 -->
<g id="node5" class="node">
<title>Node5</title>
<g id="a_node5"><a xlink:href="namespaceklyqa__ctl_1_1general_1_1general.html#a1afe30a73cc28a3b65babeeab27e36c8" target="_top" xlink:title=" ">
<polygon fill="white" stroke="black" points="208.5,-0.5 208.5,-30.5 372.5,-30.5 372.5,-0.5 208.5,-0.5"/>
<text text-anchor="start" x="216.5" y="-18.5" font-family="Helvetica,sans-Serif" font-size="10.00">klyqa_ctl.general.general.task</text>
<text text-anchor="middle" x="290.5" y="-7.5" font-family="Helvetica,sans-Serif" font-size="10.00">_log_debug</text>
</a>
</g>
</g>
<!-- Node1&#45;&gt;Node5 -->
<g id="edge4" class="edge">
<title>Node1&#45;&gt;Node5</title>
<path fill="none" stroke="midnightblue" d="M149.21,-44.48C167.78,-40.64 187.89,-36.49 206.92,-32.56"/>
<polygon fill="midnightblue" stroke="midnightblue" points="207.67,-35.98 216.76,-30.53 206.26,-29.12 207.67,-35.98"/>
</g>
<!-- Node3 -->
<g id="node3" class="node">
<title>Node3</title>
<g id="a_node3"><a xlink:href="classklyqa__ctl_1_1general_1_1message_1_1Message.html#aac78e76d46b64b9bf9cb1d9737544585" target="_top" xlink:title=" ">
<polygon fill="white" stroke="black" points="447,-88.5 447,-118.5 598,-118.5 598,-88.5 447,-88.5"/>
<text text-anchor="start" x="455" y="-106.5" font-family="Helvetica,sans-Serif" font-size="10.00">klyqa_ctl.general.message.</text>
<text text-anchor="middle" x="522.5" y="-95.5" font-family="Helvetica,sans-Serif" font-size="10.00">Message.target_uid</text>
</a>
</g>
</g>
<!-- Node2&#45;&gt;Node3 -->
<g id="edge2" class="edge">
<title>Node2&#45;&gt;Node3</title>
<path fill="none" stroke="midnightblue" d="M366.17,-103.5C388.68,-103.5 413.55,-103.5 436.67,-103.5"/>
<polygon fill="midnightblue" stroke="midnightblue" points="436.81,-107 446.81,-103.5 436.81,-100 436.81,-107"/>
</g>
<!-- Node6 -->
<g id="node6" class="node">
<title>Node6</title>
<g id="a_node6"><a xlink:href="namespaceklyqa__ctl_1_1general_1_1general.html#a9df3b50dfc0fcc7c8ec991bb9be9c5ba" target="_top" xlink:title=" ">
<polygon fill="white" stroke="black" points="430,-6 430,-25 615,-25 615,-6 430,-6"/>
<text text-anchor="middle" x="522.5" y="-13" font-family="Helvetica,sans-Serif" font-size="10.00">klyqa_ctl.general.general.task_log</text>
</a>
</g>
</g>
<!-- Node5&#45;&gt;Node6 -->
<g id="edge5" class="edge">
<title>Node5&#45;&gt;Node6</title>
<path fill="none" stroke="midnightblue" d="M372.59,-15.5C387.76,-15.5 403.8,-15.5 419.51,-15.5"/>
<polygon fill="midnightblue" stroke="midnightblue" points="419.77,-19 429.77,-15.5 419.77,-12 419.77,-19"/>
</g>
<!-- Node7 -->
<g id="node7" class="node">
<title>Node7</title>
<g id="a_node7"><a xlink:href="namespaceklyqa__ctl_1_1general_1_1general.html#aea905150cafee39fa2ca211f1e60f012" target="_top" xlink:title=" ">
<polygon fill="white" stroke="black" points="651,-6 651,-25 848,-25 848,-6 651,-6"/>
<text text-anchor="middle" x="749.5" y="-13" font-family="Helvetica,sans-Serif" font-size="10.00">klyqa_ctl.general.general.task_name</text>
</a>
</g>
</g>
<!-- Node6&#45;&gt;Node7 -->
<g id="edge6" class="edge">
<title>Node6&#45;&gt;Node7</title>
<path fill="none" stroke="midnightblue" d="M615.02,-15.5C623.5,-15.5 632.15,-15.5 640.76,-15.5"/>
<polygon fill="midnightblue" stroke="midnightblue" points="640.83,-19 650.83,-15.5 640.83,-12 640.83,-19"/>
</g>
</g>
</svg>
