<?xml version="1.0" encoding="UTF-8" standalone="no"?>
<!DOCTYPE svg PUBLIC "-//W3C//DTD SVG 1.1//EN"
 "http://www.w3.org/Graphics/SVG/1.1/DTD/svg11.dtd">
<!-- Generated by graphviz version 2.43.0 (0)
 -->
<!-- Title: klyqa_ctl.devices.device.Device.response_classes Pages: 1 -->
<svg width="548pt" height="98pt"
 viewBox="0.00 0.00 548.00 98.00" xmlns="http://www.w3.org/2000/svg" xmlns:xlink="http://www.w3.org/1999/xlink">
<g id="graph0" class="graph" transform="scale(1 1) rotate(0) translate(4 94)">
<title>klyqa_ctl.devices.device.Device.response_classes</title>
<polygon fill="white" stroke="transparent" points="-4,4 -4,-94 544,-94 544,4 -4,4"/>
<!-- Node1 -->
<g id="node1" class="node">
<title>Node1</title>
<g id="a_node1"><a xlink:title=" ">
<polygon fill="#bfbfbf" stroke="black" points="400,-25.5 400,-55.5 540,-55.5 540,-25.5 400,-25.5"/>
<text text-anchor="start" x="408" y="-43.5" font-family="Helvetica,sans-Serif" font-size="10.00">klyqa_ctl.devices.device.</text>
<text text-anchor="middle" x="470" y="-32.5" font-family="Helvetica,sans-Serif" font-size="10.00">Device.response_classes</text>
</a>
</g>
</g>
<!-- Node2 -->
<g id="node2" class="node">
<title>Node2</title>
<g id="a_node2"><a xlink:href="classklyqa__ctl_1_1devices_1_1light_1_1light_1_1Light.html#ac51199422c5adf0d77d34b9a2842ba8f" target="_top" xlink:title=" ">
<polygon fill="white" stroke="black" points="17,-59.5 17,-89.5 171,-89.5 171,-59.5 17,-59.5"/>
<text text-anchor="start" x="25" y="-77.5" font-family="Helvetica,sans-Serif" font-size="10.00">klyqa_ctl.devices.light.light.</text>
<text text-anchor="middle" x="94" y="-66.5" font-family="Helvetica,sans-Serif" font-size="10.00">Light.__init__</text>
</a>
</g>
</g>
<!-- Node1&#45;&gt;Node2 -->
<g id="edge1" class="edge">
<title>Node1&#45;&gt;Node2</title>
<path fill="none" stroke="midnightblue" d="M405.03,-57.88C391.57,-60.93 377.39,-63.7 364,-65.5 299.4,-74.18 225.32,-76.07 171.29,-76"/>
<polygon fill="midnightblue" stroke="midnightblue" points="406.23,-61.2 415.16,-55.5 404.63,-54.38 406.23,-61.2"/>
</g>
<!-- Node3 -->
<g id="node3" class="node">
<title>Node3</title>
<g id="a_node3"><a xlink:href="classklyqa__ctl_1_1devices_1_1vacuum_1_1vacuum_1_1VacuumCleaner.html#a61d6b100df4a5302d5934ed21bbe05bb" target="_top" xlink:title=" ">
<polygon fill="white" stroke="black" points="0,-0.5 0,-30.5 188,-30.5 188,-0.5 0,-0.5"/>
<text text-anchor="start" x="8" y="-18.5" font-family="Helvetica,sans-Serif" font-size="10.00">klyqa_ctl.devices.vacuum.vacuum.</text>
<text text-anchor="middle" x="94" y="-7.5" font-family="Helvetica,sans-Serif" font-size="10.00">VacuumCleaner.__init__</text>
</a>
</g>
</g>
<!-- Node1&#45;&gt;Node3 -->
<g id="edge2" class="edge">
<title>Node1&#45;&gt;Node3</title>
<path fill="none" stroke="midnightblue" d="M406.6,-23.12C392.69,-19.95 377.93,-17.14 364,-15.5 305.79,-8.67 240,-8.53 188.06,-10.17"/>
<polygon fill="midnightblue" stroke="midnightblue" points="406.02,-26.58 416.55,-25.47 407.63,-19.76 406.02,-26.58"/>
</g>
<!-- Node4 -->
<g id="node4" class="node">
<title>Node4</title>
<g id="a_node4"><a xlink:href="classklyqa__ctl_1_1devices_1_1device_1_1Device.html#a9d41ed646f02bd9a096dc1df524a4387" target="_top" xlink:title=" ">
<polygon fill="white" stroke="black" points="224,-25.5 224,-55.5 364,-55.5 364,-25.5 224,-25.5"/>
<text text-anchor="start" x="232" y="-43.5" font-family="Helvetica,sans-Serif" font-size="10.00">klyqa_ctl.devices.device.</text>
<text text-anchor="middle" x="294" y="-32.5" font-family="Helvetica,sans-Serif" font-size="10.00">Device.response_classes</text>
</a>
</g>
</g>
<!-- Node1&#45;&gt;Node4 -->
<g id="edge3" class="edge">
<title>Node1&#45;&gt;Node4</title>
<path fill="none" stroke="midnightblue" d="M389.97,-40.5C381.38,-40.5 372.68,-40.5 364.22,-40.5"/>
<polygon fill="midnightblue" stroke="midnightblue" points="389.98,-44 399.98,-40.5 389.98,-37 389.98,-44"/>
</g>
<!-- Node4&#45;&gt;Node2 -->
<g id="edge4" class="edge">
<title>Node4&#45;&gt;Node2</title>
<path fill="none" stroke="midnightblue" d="M213.69,-54.12C199.71,-56.52 185.19,-59.01 171.3,-61.4"/>
<polygon fill="midnightblue" stroke="midnightblue" points="214.49,-57.53 223.75,-52.39 213.3,-50.63 214.49,-57.53"/>
</g>
<!-- Node4&#45;&gt;Node3 -->
<g id="edge5" class="edge">
<title>Node4&#45;&gt;Node3</title>
<path fill="none" stroke="midnightblue" d="M213.66,-30.48C205.29,-29.43 196.73,-28.34 188.22,-27.27"/>
<polygon fill="midnightblue" stroke="midnightblue" points="213.39,-33.98 223.75,-31.76 214.27,-27.03 213.39,-33.98"/>
</g>
</g>
</svg>
