<?xml version="1.0" encoding="UTF-8" standalone="no"?>
<!DOCTYPE svg PUBLIC "-//W3C//DTD SVG 1.1//EN"
 "http://www.w3.org/Graphics/SVG/1.1/DTD/svg11.dtd">
<!-- Generated by graphviz version 2.43.0 (0)
 -->
<!-- Title: local.connection_handler.LocalConnectionHandler.process_aes_initial_vector_package Pages: 1 -->
<svg width="837pt" height="67pt"
 viewBox="0.00 0.00 837.00 66.50" xmlns="http://www.w3.org/2000/svg" xmlns:xlink="http://www.w3.org/1999/xlink">
<g id="graph0" class="graph" transform="scale(1 1) rotate(0) translate(4 62.5)">
<title>local.connection_handler.LocalConnectionHandler.process_aes_initial_vector_package</title>
<polygon fill="white" stroke="transparent" points="-4,4 -4,-62.5 833,-62.5 833,4 -4,4"/>
<!-- Node1 -->
<g id="node1" class="node">
<title>Node1</title>
<g id="a_node1"><a xlink:title=" ">
<polygon fill="#bfbfbf" stroke="black" points="0,-17 0,-58 175,-58 175,-17 0,-17"/>
<text text-anchor="start" x="8" y="-46" font-family="Helvetica,sans-Serif" font-size="10.00">local.connection_handler.</text>
<text text-anchor="start" x="8" y="-35" font-family="Helvetica,sans-Serif" font-size="10.00">LocalConnectionHandler.process</text>
<text text-anchor="middle" x="87.5" y="-24" font-family="Helvetica,sans-Serif" font-size="10.00">_aes_initial_vector_package</text>
</a>
</g>
</g>
<!-- Node2 -->
<g id="node2" class="node">
<title>Node2</title>
<g id="a_node2"><a xlink:href="namespaceklyqa__ctl_1_1general_1_1general.html#a9df3b50dfc0fcc7c8ec991bb9be9c5ba" target="_top" xlink:title=" ">
<polygon fill="white" stroke="black" points="411,-28 411,-47 596,-47 596,-28 411,-28"/>
<text text-anchor="middle" x="503.5" y="-35" font-family="Helvetica,sans-Serif" font-size="10.00">klyqa_ctl.general.general.task_log</text>
</a>
</g>
</g>
<!-- Node1&#45;&gt;Node2 -->
<g id="edge1" class="edge">
<title>Node1&#45;&gt;Node2</title>
<path fill="none" stroke="midnightblue" d="M175.16,-39.89C187.2,-40.14 199.41,-40.36 211,-40.5 283.88,-41.39 302.12,-41.36 375,-40.5 383.35,-40.4 392.02,-40.27 400.71,-40.11"/>
<polygon fill="midnightblue" stroke="midnightblue" points="400.99,-43.6 410.92,-39.91 400.86,-36.61 400.99,-43.6"/>
</g>
<!-- Node4 -->
<g id="node4" class="node">
<title>Node4</title>
<g id="a_node4"><a xlink:href="namespaceklyqa__ctl_1_1general_1_1general.html#a1afe30a73cc28a3b65babeeab27e36c8" target="_top" xlink:title=" ">
<polygon fill="white" stroke="black" points="211,-0.5 211,-30.5 375,-30.5 375,-0.5 211,-0.5"/>
<text text-anchor="start" x="219" y="-18.5" font-family="Helvetica,sans-Serif" font-size="10.00">klyqa_ctl.general.general.task</text>
<text text-anchor="middle" x="293" y="-7.5" font-family="Helvetica,sans-Serif" font-size="10.00">_log_debug</text>
</a>
</g>
</g>
<!-- Node1&#45;&gt;Node4 -->
<g id="edge3" class="edge">
<title>Node1&#45;&gt;Node4</title>
<path fill="none" stroke="midnightblue" d="M175.1,-28.14C183.65,-27.21 192.35,-26.27 200.95,-25.34"/>
<polygon fill="midnightblue" stroke="midnightblue" points="201.41,-28.81 210.97,-24.26 200.66,-21.85 201.41,-28.81"/>
</g>
<!-- Node3 -->
<g id="node3" class="node">
<title>Node3</title>
<g id="a_node3"><a xlink:href="namespaceklyqa__ctl_1_1general_1_1general.html#aea905150cafee39fa2ca211f1e60f012" target="_top" xlink:title=" ">
<polygon fill="white" stroke="black" points="632,-28 632,-47 829,-47 829,-28 632,-28"/>
<text text-anchor="middle" x="730.5" y="-35" font-family="Helvetica,sans-Serif" font-size="10.00">klyqa_ctl.general.general.task_name</text>
</a>
</g>
</g>
<!-- Node2&#45;&gt;Node3 -->
<g id="edge2" class="edge">
<title>Node2&#45;&gt;Node3</title>
<path fill="none" stroke="midnightblue" d="M596.02,-37.5C604.5,-37.5 613.15,-37.5 621.76,-37.5"/>
<polygon fill="midnightblue" stroke="midnightblue" points="621.83,-41 631.83,-37.5 621.83,-34 621.83,-41"/>
</g>
<!-- Node4&#45;&gt;Node2 -->
<g id="edge4" class="edge">
<title>Node4&#45;&gt;Node2</title>
<path fill="none" stroke="midnightblue" d="M375.21,-24.07C384.01,-25 393.05,-25.95 402.05,-26.9"/>
<polygon fill="midnightblue" stroke="midnightblue" points="401.87,-30.4 412.18,-27.97 402.6,-23.44 401.87,-30.4"/>
</g>
</g>
</svg>
