<?xml version="1.0" encoding="UTF-8" standalone="no"?>
<!DOCTYPE svg PUBLIC "-//W3C//DTD SVG 1.1//EN"
 "http://www.w3.org/Graphics/SVG/1.1/DTD/svg11.dtd">
<!-- Generated by graphviz version 2.43.0 (0)
 -->
<!-- Title: local.connection.TcpConnection.encrypt_and_send_msg Pages: 1 -->
<svg width="940pt" height="116pt"
 viewBox="0.00 0.00 940.00 115.50" xmlns="http://www.w3.org/2000/svg" xmlns:xlink="http://www.w3.org/1999/xlink">
<g id="graph0" class="graph" transform="scale(1 1) rotate(0) translate(4 111.5)">
<title>local.connection.TcpConnection.encrypt_and_send_msg</title>
<polygon fill="white" stroke="transparent" points="-4,4 -4,-111.5 936,-111.5 936,4 -4,4"/>
<!-- Node1 -->
<g id="node1" class="node">
<title>Node1</title>
<g id="a_node1"><a xlink:title=" ">
<polygon fill="#bfbfbf" stroke="black" points="0,-44.5 0,-74.5 209,-74.5 209,-44.5 0,-44.5"/>
<text text-anchor="start" x="8" y="-62.5" font-family="Helvetica,sans-Serif" font-size="10.00">local.connection.TcpConnection.encrypt</text>
<text text-anchor="middle" x="104.5" y="-51.5" font-family="Helvetica,sans-Serif" font-size="10.00">_and_send_msg</text>
</a>
</g>
</g>
<!-- Node2 -->
<g id="node2" class="node">
<title>Node2</title>
<g id="a_node2"><a xlink:href="classlocal_1_1connection_1_1TcpConnection.html#a4f160b2ac07e3eb3d4ed420723d272ed" target="_top" xlink:title=" ">
<polygon fill="white" stroke="black" points="245,-88 245,-107 478,-107 478,-88 245,-88"/>
<text text-anchor="middle" x="361.5" y="-95" font-family="Helvetica,sans-Serif" font-size="10.00">local.connection.TcpConnection.sending_aes</text>
</a>
</g>
</g>
<!-- Node1&#45;&gt;Node2 -->
<g id="edge1" class="edge">
<title>Node1&#45;&gt;Node2</title>
<path fill="none" stroke="midnightblue" d="M206.28,-74.52C233.08,-78.51 261.52,-82.75 286.59,-86.49"/>
<polygon fill="midnightblue" stroke="midnightblue" points="286.34,-89.99 296.74,-88 287.37,-83.06 286.34,-89.99"/>
</g>
<!-- Node3 -->
<g id="node3" class="node">
<title>Node3</title>
<g id="a_node3"><a xlink:href="classlocal_1_1connection_1_1TcpConnection.html#abbbb7415b2c8a01af2e84d618895f855" target="_top" xlink:title=" ">
<polygon fill="white" stroke="black" points="259.5,-50 259.5,-69 463.5,-69 463.5,-50 259.5,-50"/>
<text text-anchor="middle" x="361.5" y="-57" font-family="Helvetica,sans-Serif" font-size="10.00">local.connection.TcpConnection.socket</text>
</a>
</g>
</g>
<!-- Node1&#45;&gt;Node3 -->
<g id="edge2" class="edge">
<title>Node1&#45;&gt;Node3</title>
<path fill="none" stroke="midnightblue" d="M209.22,-59.5C222.4,-59.5 235.94,-59.5 249.24,-59.5"/>
<polygon fill="midnightblue" stroke="midnightblue" points="249.35,-63 259.35,-59.5 249.35,-56 249.35,-63"/>
</g>
<!-- Node4 -->
<g id="node4" class="node">
<title>Node4</title>
<g id="a_node4"><a xlink:href="namespaceklyqa__ctl_1_1general_1_1general.html#a1afe30a73cc28a3b65babeeab27e36c8" target="_top" xlink:title=" ">
<polygon fill="white" stroke="black" points="279.5,-0.5 279.5,-30.5 443.5,-30.5 443.5,-0.5 279.5,-0.5"/>
<text text-anchor="start" x="287.5" y="-18.5" font-family="Helvetica,sans-Serif" font-size="10.00">klyqa_ctl.general.general.task</text>
<text text-anchor="middle" x="361.5" y="-7.5" font-family="Helvetica,sans-Serif" font-size="10.00">_log_debug</text>
</a>
</g>
</g>
<!-- Node1&#45;&gt;Node4 -->
<g id="edge3" class="edge">
<title>Node1&#45;&gt;Node4</title>
<path fill="none" stroke="midnightblue" d="M192.54,-44.48C217.38,-40.2 244.5,-35.52 269.57,-31.19"/>
<polygon fill="midnightblue" stroke="midnightblue" points="270.17,-34.64 279.43,-29.49 268.98,-27.74 270.17,-34.64"/>
</g>
<!-- Node5 -->
<g id="node5" class="node">
<title>Node5</title>
<g id="a_node5"><a xlink:href="namespaceklyqa__ctl_1_1general_1_1general.html#a9df3b50dfc0fcc7c8ec991bb9be9c5ba" target="_top" xlink:title=" ">
<polygon fill="white" stroke="black" points="514,-6 514,-25 699,-25 699,-6 514,-6"/>
<text text-anchor="middle" x="606.5" y="-13" font-family="Helvetica,sans-Serif" font-size="10.00">klyqa_ctl.general.general.task_log</text>
</a>
</g>
</g>
<!-- Node4&#45;&gt;Node5 -->
<g id="edge4" class="edge">
<title>Node4&#45;&gt;Node5</title>
<path fill="none" stroke="midnightblue" d="M443.75,-15.5C462.99,-15.5 483.75,-15.5 503.77,-15.5"/>
<polygon fill="midnightblue" stroke="midnightblue" points="503.84,-19 513.84,-15.5 503.84,-12 503.84,-19"/>
</g>
<!-- Node6 -->
<g id="node6" class="node">
<title>Node6</title>
<g id="a_node6"><a xlink:href="namespaceklyqa__ctl_1_1general_1_1general.html#aea905150cafee39fa2ca211f1e60f012" target="_top" xlink:title=" ">
<polygon fill="white" stroke="black" points="735,-6 735,-25 932,-25 932,-6 735,-6"/>
<text text-anchor="middle" x="833.5" y="-13" font-family="Helvetica,sans-Serif" font-size="10.00">klyqa_ctl.general.general.task_name</text>
</a>
</g>
</g>
<!-- Node5&#45;&gt;Node6 -->
<g id="edge5" class="edge">
<title>Node5&#45;&gt;Node6</title>
<path fill="none" stroke="midnightblue" d="M699.02,-15.5C707.5,-15.5 716.15,-15.5 724.76,-15.5"/>
<polygon fill="midnightblue" stroke="midnightblue" points="724.83,-19 734.83,-15.5 724.83,-12 724.83,-19"/>
</g>
</g>
</svg>
