<?xml version="1.0" encoding="UTF-8" standalone="no"?>
<!DOCTYPE svg PUBLIC "-//W3C//DTD SVG 1.1//EN"
 "http://www.w3.org/Graphics/SVG/1.1/DTD/svg11.dtd">
<!-- Generated by graphviz version 2.43.0 (0)
 -->
<!-- Title: klyqa_ctl.devices.light.commands.RequestCommand Pages: 1 -->
<!--zoomable 640 -->
<svg id="main" version="1.1" xmlns="http://www.w3.org/2000/svg" xmlns:xlink="http://www.w3.org/1999/xlink" xml:space="preserve" onload="init(evt)">
<style type="text/css"><![CDATA[
.edge:hover path { stroke: red; }
.edge:hover polygon { stroke: red; fill: red; }
]]></style>
<script type="text/javascript"><![CDATA[
var edges = document.getElementsByTagName('g');
if (edges && edges.length) {
  for (var i=0;i<edges.length;i++) {
    if (edges[i].id.substr(0,4)=='edge') {
      edges[i].setAttribute('class','edge');
    }
  }
}
]]></script>
        <defs>
                <circle id="rim" cx="0" cy="0" r="7"/>
                <circle id="rim2" cx="0" cy="0" r="3.5"/>
                <g id="zoomPlus">
                        <use xlink:href="#rim" fill="#404040">
                                <set attributeName="fill" to="#808080" begin="zoomplus.mouseover" end="zoomplus.mouseout"/>
                        </use>
                        <path d="M-4,0h8M0,-4v8" fill="none" stroke="white" stroke-width="1.5" pointer-events="none"/>
                </g>
                <g id="zoomMin">
                        <use xlink:href="#rim" fill="#404040">
                                <set attributeName="fill" to="#808080" begin="zoomminus.mouseover" end="zoomminus.mouseout"/>
                        </use>
                        <path d="M-4,0h8" fill="none" stroke="white" stroke-width="1.5" pointer-events="none"/>
                </g>
                <g id="dirArrow">
                        <path fill="none" stroke="white" stroke-width="1.5" d="M0,-3.0v7 M-2.5,-0.5L0,-3.0L2.5,-0.5"/>
                </g>
               <g id="resetDef">
                       <use xlink:href="#rim2" fill="#404040">
                               <set attributeName="fill" to="#808080" begin="reset.mouseover" end="reset.mouseout"/>
                       </use>
               </g>
        </defs>

<script type="text/javascript">
var viewWidth = 1911;
var viewHeight = 640;
var sectionId = 'dynsection-0';
</script>
<script xlink:href="svgpan.js"/>
<svg id="graph" class="graph">
<g id="viewport">
<title>klyqa_ctl.devices.light.commands.RequestCommand</title>
<polygon fill="white" stroke="transparent" points="-4,4 -4,-636 1906.5,-636 1906.5,4 -4,4"/>
<!-- Node1 -->
<g id="node1" class="node">
<title>Node1</title>
<g id="a_node1"><a xlink:title=" ">
<polygon fill="#bfbfbf" stroke="black" points="824,-298.5 824,-377.5 1010,-377.5 1010,-298.5 824,-298.5"/>
<text text-anchor="start" x="832" y="-365.5" font-family="Helvetica,sans-Serif" font-size="10.00">klyqa_ctl.devices.light.commands.</text>
<text text-anchor="middle" x="917" y="-354.5" font-family="Helvetica,sans-Serif" font-size="10.00">RequestCommand</text>
<polyline fill="none" stroke="black" points="824,-347.5 1010,-347.5 "/>
<text text-anchor="start" x="832" y="-335.5" font-family="Helvetica,sans-Serif" font-size="10.00">+ type</text>
<polyline fill="none" stroke="black" points="824,-328.5 1010,-328.5 "/>
<text text-anchor="start" x="832" y="-316.5" font-family="Helvetica,sans-Serif" font-size="10.00">+ None __post_init__</text>
<text text-anchor="start" x="832" y="-305.5" font-family="Helvetica,sans-Serif" font-size="10.00">(self)</text>
</a>
</g>
</g>
<!-- Node4 -->
<g id="node4" class="node">
<title>Node4</title>
<g id="a_node4"><a xlink:href="classklyqa__ctl_1_1devices_1_1light_1_1commands_1_1ExternalSourceCommand.html" target="_top" xlink:title=" ">
<polygon fill="white" stroke="black" points="0,-155 0,-256 186,-256 186,-155 0,-155"/>
<text text-anchor="start" x="8" y="-244" font-family="Helvetica,sans-Serif" font-size="10.00">klyqa_ctl.devices.light.commands.</text>
<text text-anchor="middle" x="93" y="-233" font-family="Helvetica,sans-Serif" font-size="10.00">ExternalSourceCommand</text>
<polyline fill="none" stroke="black" points="0,-226 186,-226 "/>
<text text-anchor="start" x="8" y="-214" font-family="Helvetica,sans-Serif" font-size="10.00">+ ExternalSourceProtocol</text>
<text text-anchor="start" x="8" y="-203" font-family="Helvetica,sans-Serif" font-size="10.00">+ int</text>
<polyline fill="none" stroke="black" points="0,-196 186,-196 "/>
<text text-anchor="start" x="8" y="-184" font-family="Helvetica,sans-Serif" font-size="10.00">+ TypeJson json(self)</text>
<text text-anchor="start" x="8" y="-173" font-family="Helvetica,sans-Serif" font-size="10.00">+ bool check_values(self,</text>
<text text-anchor="start" x="8" y="-162" font-family="Helvetica,sans-Serif" font-size="10.00"> Device device)</text>
</a>
</g>
</g>
<!-- Node1&#45;&gt;Node4 -->
<g id="edge3" class="edge">
<title>Node1&#45;&gt;Node4</title>
<path fill="none" stroke="midnightblue" d="M813.86,-331.29C642.75,-320.98 307.85,-297.02 195,-262 189.51,-260.3 183.98,-258.29 178.49,-256.05"/>
<polygon fill="none" stroke="midnightblue" points="813.7,-334.78 823.89,-331.89 814.11,-327.8 813.7,-334.78"/>
</g>
<!-- Node5 -->
<g id="node5" class="node">
<title>Node5</title>
<g id="a_node5"><a xlink:href="classklyqa__ctl_1_1devices_1_1light_1_1commands_1_1FadeCommand.html" target="_top" xlink:title=" ">
<polygon fill="white" stroke="black" points="204,-171.5 204,-239.5 390,-239.5 390,-171.5 204,-171.5"/>
<text text-anchor="start" x="212" y="-227.5" font-family="Helvetica,sans-Serif" font-size="10.00">klyqa_ctl.devices.light.commands.</text>
<text text-anchor="middle" x="297" y="-216.5" font-family="Helvetica,sans-Serif" font-size="10.00">FadeCommand</text>
<polyline fill="none" stroke="black" points="204,-209.5 390,-209.5 "/>
<text text-anchor="start" x="212" y="-197.5" font-family="Helvetica,sans-Serif" font-size="10.00">+ int</text>
<polyline fill="none" stroke="black" points="204,-190.5 390,-190.5 "/>
<text text-anchor="middle" x="297" y="-178.5" font-family="Helvetica,sans-Serif" font-size="10.00"> </text>
</a>
</g>
</g>
<!-- Node1&#45;&gt;Node5 -->
<g id="edge4" class="edge">
<title>Node1&#45;&gt;Node5</title>
<path fill="none" stroke="midnightblue" d="M813.88,-332.79C707.54,-325.99 538.08,-308.25 399,-262 382.17,-256.4 364.85,-248.09 349.38,-239.6"/>
<polygon fill="none" stroke="midnightblue" points="813.78,-336.29 823.97,-333.42 814.21,-329.3 813.78,-336.29"/>
</g>
<!-- Node6 -->
<g id="node6" class="node">
<title>Node6</title>
<g id="a_node6"><a xlink:href="classklyqa__ctl_1_1devices_1_1light_1_1commands_1_1PowerCommand.html" target="_top" xlink:title=" ">
<polygon fill="white" stroke="black" points="408,-171.5 408,-239.5 594,-239.5 594,-171.5 408,-171.5"/>
<text text-anchor="start" x="416" y="-227.5" font-family="Helvetica,sans-Serif" font-size="10.00">klyqa_ctl.devices.light.commands.</text>
<text text-anchor="middle" x="501" y="-216.5" font-family="Helvetica,sans-Serif" font-size="10.00">PowerCommand</text>
<polyline fill="none" stroke="black" points="408,-209.5 594,-209.5 "/>
<text text-anchor="start" x="416" y="-197.5" font-family="Helvetica,sans-Serif" font-size="10.00">+ str</text>
<polyline fill="none" stroke="black" points="408,-190.5 594,-190.5 "/>
<text text-anchor="middle" x="501" y="-178.5" font-family="Helvetica,sans-Serif" font-size="10.00"> </text>
</a>
</g>
</g>
<!-- Node1&#45;&gt;Node6 -->
<g id="edge5" class="edge">
<title>Node1&#45;&gt;Node6</title>
<path fill="none" stroke="midnightblue" d="M813.86,-319.5C751.57,-307.19 671.3,-288.21 603,-262 587.1,-255.9 570.58,-247.78 555.58,-239.63"/>
<polygon fill="none" stroke="midnightblue" points="813.21,-322.93 823.7,-321.41 814.55,-316.06 813.21,-322.93"/>
</g>
<!-- Node7 -->
<g id="node7" class="node">
<title>Node7</title>
<g id="a_node7"><a xlink:href="classklyqa__ctl_1_1devices_1_1light_1_1commands_1_1TransitionCommand.html" target="_top" xlink:title=" ">
<polygon fill="white" stroke="black" points="612,-171.5 612,-239.5 798,-239.5 798,-171.5 612,-171.5"/>
<text text-anchor="start" x="620" y="-227.5" font-family="Helvetica,sans-Serif" font-size="10.00">klyqa_ctl.devices.light.commands.</text>
<text text-anchor="middle" x="705" y="-216.5" font-family="Helvetica,sans-Serif" font-size="10.00">TransitionCommand</text>
<polyline fill="none" stroke="black" points="612,-209.5 798,-209.5 "/>
<text text-anchor="start" x="620" y="-197.5" font-family="Helvetica,sans-Serif" font-size="10.00">+ int</text>
<polyline fill="none" stroke="black" points="612,-190.5 798,-190.5 "/>
<text text-anchor="start" x="620" y="-178.5" font-family="Helvetica,sans-Serif" font-size="10.00">+ TypeJson json(self)</text>
</a>
</g>
</g>
<!-- Node1&#45;&gt;Node7 -->
<g id="edge6" class="edge">
<title>Node1&#45;&gt;Node7</title>
<path fill="none" stroke="midnightblue" d="M845.56,-293.03C817.14,-275.53 784.99,-255.74 758.62,-239.51"/>
<polygon fill="none" stroke="midnightblue" points="843.9,-296.11 854.25,-298.38 847.57,-290.15 843.9,-296.11"/>
</g>
<!-- Node14 -->
<g id="node14" class="node">
<title>Node14</title>
<g id="a_node14"><a xlink:href="classklyqa__ctl_1_1devices_1_1vacuum_1_1commands_1_1ProductinfoCommand.html" target="_top" xlink:title=" ">
<polygon fill="white" stroke="black" points="815.5,-160.5 815.5,-250.5 1018.5,-250.5 1018.5,-160.5 815.5,-160.5"/>
<text text-anchor="start" x="823.5" y="-238.5" font-family="Helvetica,sans-Serif" font-size="10.00">klyqa_ctl.devices.vacuum.commands.</text>
<text text-anchor="middle" x="917" y="-227.5" font-family="Helvetica,sans-Serif" font-size="10.00">ProductinfoCommand</text>
<polyline fill="none" stroke="black" points="815.5,-220.5 1018.5,-220.5 "/>
<text text-anchor="middle" x="917" y="-208.5" font-family="Helvetica,sans-Serif" font-size="10.00"> </text>
<polyline fill="none" stroke="black" points="815.5,-201.5 1018.5,-201.5 "/>
<text text-anchor="start" x="823.5" y="-189.5" font-family="Helvetica,sans-Serif" font-size="10.00">+ TypeJson productinfo</text>
<text text-anchor="start" x="823.5" y="-178.5" font-family="Helvetica,sans-Serif" font-size="10.00">_json(self)</text>
<text text-anchor="start" x="823.5" y="-167.5" font-family="Helvetica,sans-Serif" font-size="10.00">+ TypeJson json(self)</text>
</a>
</g>
</g>
<!-- Node1&#45;&gt;Node14 -->
<g id="edge13" class="edge">
<title>Node1&#45;&gt;Node14</title>
<path fill="none" stroke="midnightblue" d="M917,-288.16C917,-275.93 917,-262.88 917,-250.88"/>
<polygon fill="none" stroke="midnightblue" points="913.5,-288.2 917,-298.2 920.5,-288.2 913.5,-288.2"/>
</g>
<!-- Node15 -->
<g id="node15" class="node">
<title>Node15</title>
<g id="a_node15"><a xlink:href="classklyqa__ctl_1_1devices_1_1vacuum_1_1commands_1_1RequestGetCommand.html" target="_top" xlink:title=" ">
<polygon fill="white" stroke="black" points="1036.5,-166 1036.5,-245 1239.5,-245 1239.5,-166 1036.5,-166"/>
<text text-anchor="start" x="1044.5" y="-233" font-family="Helvetica,sans-Serif" font-size="10.00">klyqa_ctl.devices.vacuum.commands.</text>
<text text-anchor="middle" x="1138" y="-222" font-family="Helvetica,sans-Serif" font-size="10.00">RequestGetCommand</text>
<polyline fill="none" stroke="black" points="1036.5,-215 1239.5,-215 "/>
<text text-anchor="middle" x="1138" y="-203" font-family="Helvetica,sans-Serif" font-size="10.00"> </text>
<polyline fill="none" stroke="black" points="1036.5,-196 1239.5,-196 "/>
<text text-anchor="start" x="1044.5" y="-184" font-family="Helvetica,sans-Serif" font-size="10.00">+ TypeJson get_json(self)</text>
<text text-anchor="start" x="1044.5" y="-173" font-family="Helvetica,sans-Serif" font-size="10.00">+ TypeJson json(self)</text>
</a>
</g>
</g>
<!-- Node1&#45;&gt;Node15 -->
<g id="edge14" class="edge">
<title>Node1&#45;&gt;Node15</title>
<path fill="none" stroke="midnightblue" d="M991.24,-293.16C1017.64,-277.57 1047.16,-260.14 1072.76,-245.03"/>
<polygon fill="none" stroke="midnightblue" points="989.24,-290.28 982.41,-298.38 992.8,-296.3 989.24,-290.28"/>
</g>
<!-- Node16 -->
<g id="node16" class="node">
<title>Node16</title>
<g id="a_node16"><a xlink:href="classklyqa__ctl_1_1devices_1_1vacuum_1_1commands_1_1RequestResetCommand.html" target="_top" xlink:title=" ">
<polygon fill="white" stroke="black" points="1257.5,-160.5 1257.5,-250.5 1460.5,-250.5 1460.5,-160.5 1257.5,-160.5"/>
<text text-anchor="start" x="1265.5" y="-238.5" font-family="Helvetica,sans-Serif" font-size="10.00">klyqa_ctl.devices.vacuum.commands.</text>
<text text-anchor="middle" x="1359" y="-227.5" font-family="Helvetica,sans-Serif" font-size="10.00">RequestResetCommand</text>
<polyline fill="none" stroke="black" points="1257.5,-220.5 1460.5,-220.5 "/>
<text text-anchor="middle" x="1359" y="-208.5" font-family="Helvetica,sans-Serif" font-size="10.00"> </text>
<polyline fill="none" stroke="black" points="1257.5,-201.5 1460.5,-201.5 "/>
<text text-anchor="start" x="1265.5" y="-189.5" font-family="Helvetica,sans-Serif" font-size="10.00">+ TypeJson reset_json</text>
<text text-anchor="start" x="1265.5" y="-178.5" font-family="Helvetica,sans-Serif" font-size="10.00">(self)</text>
<text text-anchor="start" x="1265.5" y="-167.5" font-family="Helvetica,sans-Serif" font-size="10.00">+ TypeJson json(self)</text>
</a>
</g>
</g>
<!-- Node1&#45;&gt;Node16 -->
<g id="edge15" class="edge">
<title>Node1&#45;&gt;Node16</title>
<path fill="none" stroke="midnightblue" d="M1020.04,-320.27C1086.3,-307.91 1173.59,-288.59 1248,-262 1257.33,-258.66 1266.9,-254.74 1276.3,-250.53"/>
<polygon fill="none" stroke="midnightblue" points="1019.21,-316.87 1010.01,-322.12 1020.48,-323.75 1019.21,-316.87"/>
</g>
<!-- Node17 -->
<g id="node17" class="node">
<title>Node17</title>
<g id="a_node17"><a xlink:href="classklyqa__ctl_1_1devices_1_1vacuum_1_1commands_1_1RequestSetCommand.html" target="_top" xlink:title=" ">
<polygon fill="white" stroke="black" points="1478.5,-166 1478.5,-245 1681.5,-245 1681.5,-166 1478.5,-166"/>
<text text-anchor="start" x="1486.5" y="-233" font-family="Helvetica,sans-Serif" font-size="10.00">klyqa_ctl.devices.vacuum.commands.</text>
<text text-anchor="middle" x="1580" y="-222" font-family="Helvetica,sans-Serif" font-size="10.00">RequestSetCommand</text>
<polyline fill="none" stroke="black" points="1478.5,-215 1681.5,-215 "/>
<text text-anchor="middle" x="1580" y="-203" font-family="Helvetica,sans-Serif" font-size="10.00"> </text>
<polyline fill="none" stroke="black" points="1478.5,-196 1681.5,-196 "/>
<text text-anchor="start" x="1486.5" y="-184" font-family="Helvetica,sans-Serif" font-size="10.00">+ TypeJson set_json(self)</text>
<text text-anchor="start" x="1486.5" y="-173" font-family="Helvetica,sans-Serif" font-size="10.00">+ TypeJson json(self)</text>
</a>
</g>
</g>
<!-- Node1&#45;&gt;Node17 -->
<g id="edge16" class="edge">
<title>Node1&#45;&gt;Node17</title>
<path fill="none" stroke="midnightblue" d="M1020.31,-333.06C1132.87,-326.46 1317.17,-308.86 1469,-262 1483.21,-257.62 1497.82,-251.56 1511.58,-245.06"/>
<polygon fill="none" stroke="midnightblue" points="1020.1,-329.57 1010.32,-333.63 1020.5,-336.56 1020.1,-329.57"/>
</g>
<!-- Node18 -->
<g id="node18" class="node">
<title>Node18</title>
<g id="a_node18"><a xlink:href="classklyqa__ctl_1_1devices_1_1vacuum_1_1commands_1_1RoutineCommand.html" target="_top" xlink:title=" ">
<polygon fill="white" stroke="black" points="1699.5,-149.5 1699.5,-261.5 1902.5,-261.5 1902.5,-149.5 1699.5,-149.5"/>
<text text-anchor="start" x="1707.5" y="-249.5" font-family="Helvetica,sans-Serif" font-size="10.00">klyqa_ctl.devices.vacuum.commands.</text>
<text text-anchor="middle" x="1801" y="-238.5" font-family="Helvetica,sans-Serif" font-size="10.00">RoutineCommand</text>
<polyline fill="none" stroke="black" points="1699.5,-231.5 1902.5,-231.5 "/>
<text text-anchor="start" x="1707.5" y="-219.5" font-family="Helvetica,sans-Serif" font-size="10.00">+ MessageCommandType</text>
<text text-anchor="start" x="1707.5" y="-208.5" font-family="Helvetica,sans-Serif" font-size="10.00">+ RoutineCommandActions</text>
<text text-anchor="start" x="1707.5" y="-197.5" font-family="Helvetica,sans-Serif" font-size="10.00">+ None</text>
<polyline fill="none" stroke="black" points="1699.5,-190.5 1902.5,-190.5 "/>
<text text-anchor="start" x="1707.5" y="-178.5" font-family="Helvetica,sans-Serif" font-size="10.00">+ TypeJson routine_json</text>
<text text-anchor="start" x="1707.5" y="-167.5" font-family="Helvetica,sans-Serif" font-size="10.00">(self)</text>
<text text-anchor="start" x="1707.5" y="-156.5" font-family="Helvetica,sans-Serif" font-size="10.00">+ TypeJson json(self)</text>
</a>
</g>
</g>
<!-- Node1&#45;&gt;Node18 -->
<g id="edge17" class="edge">
<title>Node1&#45;&gt;Node18</title>
<path fill="none" stroke="midnightblue" d="M1020.15,-331.74C1201,-321.72 1567.79,-297.69 1691,-262 1693.77,-261.2 1696.56,-260.32 1699.35,-259.39"/>
<polygon fill="none" stroke="midnightblue" points="1019.89,-328.24 1010.1,-332.29 1020.28,-335.23 1019.89,-328.24"/>
</g>
<!-- Node2 -->
<g id="node2" class="node">
<title>Node2</title>
<g id="a_node2"><a xlink:href="classklyqa__ctl_1_1general_1_1general_1_1CommandTyped.html" target="_top" xlink:title=" ">
<polygon fill="white" stroke="black" points="845.5,-414.5 845.5,-482.5 988.5,-482.5 988.5,-414.5 845.5,-414.5"/>
<text text-anchor="start" x="853.5" y="-470.5" font-family="Helvetica,sans-Serif" font-size="10.00">klyqa_ctl.general.general.</text>
<text text-anchor="middle" x="917" y="-459.5" font-family="Helvetica,sans-Serif" font-size="10.00">CommandTyped</text>
<polyline fill="none" stroke="black" points="845.5,-452.5 988.5,-452.5 "/>
<text text-anchor="start" x="853.5" y="-440.5" font-family="Helvetica,sans-Serif" font-size="10.00">+ str</text>
<polyline fill="none" stroke="black" points="845.5,-433.5 988.5,-433.5 "/>
<text text-anchor="start" x="853.5" y="-421.5" font-family="Helvetica,sans-Serif" font-size="10.00">+ TypeJson json(self)</text>
</a>
</g>
</g>
<!-- Node2&#45;&gt;Node1 -->
<g id="edge1" class="edge">
<title>Node2&#45;&gt;Node1</title>
<path fill="none" stroke="midnightblue" d="M917,-404.27C917,-395.48 917,-386.28 917,-377.65"/>
<polygon fill="none" stroke="midnightblue" points="913.5,-404.36 917,-414.36 920.5,-404.36 913.5,-404.36"/>
</g>
<!-- Node3 -->
<g id="node3" class="node">
<title>Node3</title>
<g id="a_node3"><a xlink:href="classklyqa__ctl_1_1general_1_1general_1_1Command.html" target="_top" xlink:title=" ">
<polygon fill="white" stroke="black" points="845.5,-519.5 845.5,-631.5 988.5,-631.5 988.5,-519.5 845.5,-519.5"/>
<text text-anchor="start" x="853.5" y="-619.5" font-family="Helvetica,sans-Serif" font-size="10.00">klyqa_ctl.general.general.</text>
<text text-anchor="middle" x="917" y="-608.5" font-family="Helvetica,sans-Serif" font-size="10.00">Command</text>
<polyline fill="none" stroke="black" points="845.5,-601.5 988.5,-601.5 "/>
<text text-anchor="start" x="853.5" y="-589.5" font-family="Helvetica,sans-Serif" font-size="10.00">+ TypeJson</text>
<text text-anchor="start" x="853.5" y="-578.5" font-family="Helvetica,sans-Serif" font-size="10.00">+ default_factory</text>
<polyline fill="none" stroke="black" points="845.5,-571.5 988.5,-571.5 "/>
<text text-anchor="start" x="853.5" y="-559.5" font-family="Helvetica,sans-Serif" font-size="10.00">+ TypeJson json(self)</text>
<text text-anchor="start" x="853.5" y="-548.5" font-family="Helvetica,sans-Serif" font-size="10.00">+ TypeJson cloud(self)</text>
<text text-anchor="start" x="853.5" y="-537.5" font-family="Helvetica,sans-Serif" font-size="10.00">+ str msg_str(self)</text>
<text text-anchor="start" x="853.5" y="-526.5" font-family="Helvetica,sans-Serif" font-size="10.00">+ str __str__(self)</text>
</a>
</g>
</g>
<!-- Node3&#45;&gt;Node2 -->
<g id="edge2" class="edge">
<title>Node3&#45;&gt;Node2</title>
<path fill="none" stroke="midnightblue" d="M917,-509.26C917,-499.99 917,-490.8 917,-482.51"/>
<polygon fill="none" stroke="midnightblue" points="913.5,-509.31 917,-519.31 920.5,-509.31 913.5,-509.31"/>
</g>
<!-- Node8 -->
<g id="node8" class="node">
<title>Node8</title>
<g id="a_node8"><a xlink:href="classklyqa__ctl_1_1devices_1_1light_1_1commands_1_1BrightnessCommand.html" target="_top" xlink:title=" ">
<polygon fill="white" stroke="black" points="102,-0.5 102,-112.5 288,-112.5 288,-0.5 102,-0.5"/>
<text text-anchor="start" x="110" y="-100.5" font-family="Helvetica,sans-Serif" font-size="10.00">klyqa_ctl.devices.light.commands.</text>
<text text-anchor="middle" x="195" y="-89.5" font-family="Helvetica,sans-Serif" font-size="10.00">BrightnessCommand</text>
<polyline fill="none" stroke="black" points="102,-82.5 288,-82.5 "/>
<text text-anchor="start" x="110" y="-70.5" font-family="Helvetica,sans-Serif" font-size="10.00">+ int</text>
<polyline fill="none" stroke="black" points="102,-63.5 288,-63.5 "/>
<text text-anchor="start" x="110" y="-51.5" font-family="Helvetica,sans-Serif" font-size="10.00">+ TypeJson brightness</text>
<text text-anchor="start" x="110" y="-40.5" font-family="Helvetica,sans-Serif" font-size="10.00">_json(self)</text>
<text text-anchor="start" x="110" y="-29.5" font-family="Helvetica,sans-Serif" font-size="10.00">+ TypeJson json(self)</text>
<text text-anchor="start" x="110" y="-18.5" font-family="Helvetica,sans-Serif" font-size="10.00">+ bool check_values(self,</text>
<text text-anchor="start" x="110" y="-7.5" font-family="Helvetica,sans-Serif" font-size="10.00"> Device device)</text>
</a>
</g>
</g>
<!-- Node7&#45;&gt;Node8 -->
<g id="edge7" class="edge">
<title>Node7&#45;&gt;Node8</title>
<path fill="none" stroke="midnightblue" d="M644.28,-166.6C631.08,-159.76 616.89,-153.42 603,-149 472.49,-107.52 427.51,-154.48 297,-113 294.02,-112.05 291.03,-111.02 288.04,-109.91"/>
<polygon fill="none" stroke="midnightblue" points="642.77,-169.77 653.24,-171.4 646.08,-163.6 642.77,-169.77"/>
</g>
<!-- Node9 -->
<g id="node9" class="node">
<title>Node9</title>
<g id="a_node9"><a xlink:href="classklyqa__ctl_1_1devices_1_1light_1_1commands_1_1ColorCommand.html" target="_top" xlink:title=" ">
<polygon fill="white" stroke="black" points="306,-0.5 306,-112.5 492,-112.5 492,-0.5 306,-0.5"/>
<text text-anchor="start" x="314" y="-100.5" font-family="Helvetica,sans-Serif" font-size="10.00">klyqa_ctl.devices.light.commands.</text>
<text text-anchor="middle" x="399" y="-89.5" font-family="Helvetica,sans-Serif" font-size="10.00">ColorCommand</text>
<polyline fill="none" stroke="black" points="306,-82.5 492,-82.5 "/>
<text text-anchor="start" x="314" y="-70.5" font-family="Helvetica,sans-Serif" font-size="10.00">+ RgbColor</text>
<polyline fill="none" stroke="black" points="306,-63.5 492,-63.5 "/>
<text text-anchor="start" x="314" y="-51.5" font-family="Helvetica,sans-Serif" font-size="10.00">+ TypeJson color_json</text>
<text text-anchor="start" x="314" y="-40.5" font-family="Helvetica,sans-Serif" font-size="10.00">(self)</text>
<text text-anchor="start" x="314" y="-29.5" font-family="Helvetica,sans-Serif" font-size="10.00">+ TypeJson json(self)</text>
<text text-anchor="start" x="314" y="-18.5" font-family="Helvetica,sans-Serif" font-size="10.00">+ bool check_values(self,</text>
<text text-anchor="start" x="314" y="-7.5" font-family="Helvetica,sans-Serif" font-size="10.00"> Device device)</text>
</a>
</g>
</g>
<!-- Node7&#45;&gt;Node9 -->
<g id="edge8" class="edge">
<title>Node7&#45;&gt;Node9</title>
<path fill="none" stroke="midnightblue" d="M639.13,-166.68C627.27,-160.44 614.89,-154.29 603,-149 559.08,-129.45 544.92,-132.55 501,-113 498.05,-111.69 495.08,-110.32 492.08,-108.92"/>
<polygon fill="none" stroke="midnightblue" points="637.62,-169.84 648.09,-171.46 640.91,-163.67 637.62,-169.84"/>
</g>
<!-- Node10 -->
<g id="node10" class="node">
<title>Node10</title>
<g id="a_node10"><a xlink:href="classklyqa__ctl_1_1devices_1_1light_1_1commands_1_1RoutineDeleteCommand.html" target="_top" xlink:title=" ">
<polygon fill="white" stroke="black" points="510,-11.5 510,-101.5 696,-101.5 696,-11.5 510,-11.5"/>
<text text-anchor="start" x="518" y="-89.5" font-family="Helvetica,sans-Serif" font-size="10.00">klyqa_ctl.devices.light.commands.</text>
<text text-anchor="middle" x="603" y="-78.5" font-family="Helvetica,sans-Serif" font-size="10.00">RoutineDeleteCommand</text>
<polyline fill="none" stroke="black" points="510,-71.5 696,-71.5 "/>
<text text-anchor="start" x="518" y="-59.5" font-family="Helvetica,sans-Serif" font-size="10.00">+ action</text>
<text text-anchor="start" x="518" y="-48.5" font-family="Helvetica,sans-Serif" font-size="10.00">+ str</text>
<polyline fill="none" stroke="black" points="510,-41.5 696,-41.5 "/>
<text text-anchor="start" x="518" y="-29.5" font-family="Helvetica,sans-Serif" font-size="10.00">+ None __post_init__</text>
<text text-anchor="start" x="518" y="-18.5" font-family="Helvetica,sans-Serif" font-size="10.00">(self)</text>
</a>
</g>
</g>
<!-- Node7&#45;&gt;Node10 -->
<g id="edge9" class="edge">
<title>Node7&#45;&gt;Node10</title>
<path fill="none" stroke="midnightblue" d="M676.14,-162.9C662.86,-143.76 647.09,-121.04 633.6,-101.6"/>
<polygon fill="none" stroke="midnightblue" points="673.28,-164.92 681.85,-171.14 679.03,-160.93 673.28,-164.92"/>
</g>
<!-- Node11 -->
<g id="node11" class="node">
<title>Node11</title>
<g id="a_node11"><a xlink:href="classklyqa__ctl_1_1devices_1_1light_1_1commands_1_1RoutinePutCommand.html" target="_top" xlink:title=" ">
<polygon fill="white" stroke="black" points="714,-0.5 714,-112.5 900,-112.5 900,-0.5 714,-0.5"/>
<text text-anchor="start" x="722" y="-100.5" font-family="Helvetica,sans-Serif" font-size="10.00">klyqa_ctl.devices.light.commands.</text>
<text text-anchor="middle" x="807" y="-89.5" font-family="Helvetica,sans-Serif" font-size="10.00">RoutinePutCommand</text>
<polyline fill="none" stroke="black" points="714,-82.5 900,-82.5 "/>
<text text-anchor="start" x="722" y="-70.5" font-family="Helvetica,sans-Serif" font-size="10.00">+ action</text>
<text text-anchor="start" x="722" y="-59.5" font-family="Helvetica,sans-Serif" font-size="10.00">+ str</text>
<polyline fill="none" stroke="black" points="714,-52.5 900,-52.5 "/>
<text text-anchor="start" x="722" y="-40.5" font-family="Helvetica,sans-Serif" font-size="10.00">+ None __post_init__</text>
<text text-anchor="start" x="722" y="-29.5" font-family="Helvetica,sans-Serif" font-size="10.00">(self)</text>
<text text-anchor="start" x="722" y="-18.5" font-family="Helvetica,sans-Serif" font-size="10.00">+ bool check_values(self,</text>
<text text-anchor="start" x="722" y="-7.5" font-family="Helvetica,sans-Serif" font-size="10.00"> Device device)</text>
</a>
</g>
</g>
<!-- Node7&#45;&gt;Node11 -->
<g id="edge10" class="edge">
<title>Node7&#45;&gt;Node11</title>
<path fill="none" stroke="midnightblue" d="M733.97,-162.75C744.78,-147.17 757.22,-129.24 768.74,-112.64"/>
<polygon fill="none" stroke="midnightblue" points="730.97,-160.93 728.15,-171.14 736.72,-164.92 730.97,-160.93"/>
</g>
<!-- Node12 -->
<g id="node12" class="node">
<title>Node12</title>
<g id="a_node12"><a xlink:href="classklyqa__ctl_1_1devices_1_1light_1_1commands_1_1RoutineStartCommand.html" target="_top" xlink:title=" ">
<polygon fill="white" stroke="black" points="918,-11.5 918,-101.5 1104,-101.5 1104,-11.5 918,-11.5"/>
<text text-anchor="start" x="926" y="-89.5" font-family="Helvetica,sans-Serif" font-size="10.00">klyqa_ctl.devices.light.commands.</text>
<text text-anchor="middle" x="1011" y="-78.5" font-family="Helvetica,sans-Serif" font-size="10.00">RoutineStartCommand</text>
<polyline fill="none" stroke="black" points="918,-71.5 1104,-71.5 "/>
<text text-anchor="start" x="926" y="-59.5" font-family="Helvetica,sans-Serif" font-size="10.00">+ action</text>
<text text-anchor="start" x="926" y="-48.5" font-family="Helvetica,sans-Serif" font-size="10.00">+ str</text>
<polyline fill="none" stroke="black" points="918,-41.5 1104,-41.5 "/>
<text text-anchor="start" x="926" y="-29.5" font-family="Helvetica,sans-Serif" font-size="10.00">+ None __post_init__</text>
<text text-anchor="start" x="926" y="-18.5" font-family="Helvetica,sans-Serif" font-size="10.00">(self)</text>
</a>
</g>
</g>
<!-- Node7&#45;&gt;Node12 -->
<g id="edge11" class="edge">
<title>Node7&#45;&gt;Node12</title>
<path fill="none" stroke="midnightblue" d="M770.18,-166.63C781.94,-160.39 794.2,-154.26 806,-149 850.29,-129.25 864.67,-132.65 909,-113 916.92,-109.49 925.07,-105.59 933.13,-101.53"/>
<polygon fill="none" stroke="midnightblue" points="768.46,-163.58 761.31,-171.4 771.78,-169.75 768.46,-163.58"/>
</g>
<!-- Node13 -->
<g id="node13" class="node">
<title>Node13</title>
<g id="a_node13"><a xlink:href="classklyqa__ctl_1_1devices_1_1light_1_1commands_1_1TemperatureCommand.html" target="_top" xlink:title=" ">
<polygon fill="white" stroke="black" points="1122,-0.5 1122,-112.5 1308,-112.5 1308,-0.5 1122,-0.5"/>
<text text-anchor="start" x="1130" y="-100.5" font-family="Helvetica,sans-Serif" font-size="10.00">klyqa_ctl.devices.light.commands.</text>
<text text-anchor="middle" x="1215" y="-89.5" font-family="Helvetica,sans-Serif" font-size="10.00">TemperatureCommand</text>
<polyline fill="none" stroke="black" points="1122,-82.5 1308,-82.5 "/>
<text text-anchor="start" x="1130" y="-70.5" font-family="Helvetica,sans-Serif" font-size="10.00">+ int</text>
<polyline fill="none" stroke="black" points="1122,-63.5 1308,-63.5 "/>
<text text-anchor="start" x="1130" y="-51.5" font-family="Helvetica,sans-Serif" font-size="10.00">+ TypeJson temperature</text>
<text text-anchor="start" x="1130" y="-40.5" font-family="Helvetica,sans-Serif" font-size="10.00">_json(self)</text>
<text text-anchor="start" x="1130" y="-29.5" font-family="Helvetica,sans-Serif" font-size="10.00">+ TypeJson json(self)</text>
<text text-anchor="start" x="1130" y="-18.5" font-family="Helvetica,sans-Serif" font-size="10.00">+ bool check_values(self,</text>
<text text-anchor="start" x="1130" y="-7.5" font-family="Helvetica,sans-Serif" font-size="10.00"> Device device)</text>
</a>
</g>
</g>
<!-- Node7&#45;&gt;Node13 -->
<g id="edge12" class="edge">
<title>Node7&#45;&gt;Node13</title>
<path fill="none" stroke="midnightblue" d="M765.09,-166.59C778.17,-159.75 792.22,-153.41 806,-149 936.85,-107.14 982.07,-154.58 1113,-113 1115.98,-112.05 1118.97,-111.02 1121.96,-109.91"/>
<polygon fill="none" stroke="midnightblue" points="763.35,-163.55 756.21,-171.39 766.68,-169.71 763.35,-163.55"/>
</g>
</g>
</svg>
        <g id="navigator" transform="translate(0 0)" fill="#404254">
                <rect fill="#f2f5e9" fill-opacity="0.5" stroke="#606060" stroke-width=".5" x="0" y="0" width="60" height="60"/>
                <use id="zoomplus" xlink:href="#zoomPlus" x="17" y="9" onmousedown="handleZoom(evt,'in')"/>
                <use id="zoomminus" xlink:href="#zoomMin" x="42" y="9" onmousedown="handleZoom(evt,'out')"/>
                <use id="reset" xlink:href="#resetDef" x="30" y="36" onmousedown="handleReset()"/>
                <g id="arrowUp" xlink:href="#dirArrow" transform="translate(30 24)" onmousedown="handlePan(0,-1)">
                  <use xlink:href="#rim" fill="#404040">
                        <set attributeName="fill" to="#808080" begin="arrowUp.mouseover" end="arrowUp.mouseout"/>
                  </use>
                  <path fill="none" stroke="white" stroke-width="1.5" d="M0,-3.0v7 M-2.5,-0.5L0,-3.0L2.5,-0.5"/>
                </g>
                <g id="arrowRight" xlink:href="#dirArrow" transform="rotate(90) translate(36 -43)" onmousedown="handlePan(1,0)">
                  <use xlink:href="#rim" fill="#404040">
                        <set attributeName="fill" to="#808080" begin="arrowRight.mouseover" end="arrowRight.mouseout"/>
                  </use>
                  <path fill="none" stroke="white" stroke-width="1.5" d="M0,-3.0v7 M-2.5,-0.5L0,-3.0L2.5,-0.5"/>
                </g>
                <g id="arrowDown" xlink:href="#dirArrow" transform="rotate(180) translate(-30 -48)" onmousedown="handlePan(0,1)">
                  <use xlink:href="#rim" fill="#404040">
                        <set attributeName="fill" to="#808080" begin="arrowDown.mouseover" end="arrowDown.mouseout"/>
                  </use>
                  <path fill="none" stroke="white" stroke-width="1.5" d="M0,-3.0v7 M-2.5,-0.5L0,-3.0L2.5,-0.5"/>
                </g>
                <g id="arrowLeft" xlink:href="#dirArrow" transform="rotate(270) translate(-36 17)" onmousedown="handlePan(-1,0)">
                  <use xlink:href="#rim" fill="#404040">
                        <set attributeName="fill" to="#808080" begin="arrowLeft.mouseover" end="arrowLeft.mouseout"/>
                  </use>
                  <path fill="none" stroke="white" stroke-width="1.5" d="M0,-3.0v7 M-2.5,-0.5L0,-3.0L2.5,-0.5"/>
                </g>
        </g>
        <svg viewBox="0 0 15 15" width="100%" height="30px" preserveAspectRatio="xMaxYMin meet">
         <g id="arrow_out" transform="scale(0.3 0.3)">
          <a xlink:href="classklyqa__ctl_1_1devices_1_1light_1_1commands_1_1RequestCommand__inherit__graph_org.svg" target="_base">
           <rect id="button" ry="5" rx="5" y="6" x="6" height="38" width="38"
                fill="#f2f5e9" fill-opacity="0.5" stroke="#606060" stroke-width="1.0"/>
           <path id="arrow"
             d="M 11.500037,31.436501 C 11.940474,20.09759 22.043105,11.32322 32.158766,21.979434 L 37.068811,17.246167 C 37.068811,17.246167 37.088388,32 37.088388,32 L 22.160133,31.978069 C 22.160133,31.978069 26.997745,27.140456 26.997745,27.140456 C 18.528582,18.264221 13.291696,25.230495 11.500037,31.436501 z"
             style="fill:#404040;"/>
          </a>
         </g>
        </svg>
</svg>
