<?xml version="1.0" encoding="UTF-8" standalone="no"?>
<!DOCTYPE svg PUBLIC "-//W3C//DTD SVG 1.1//EN"
 "http://www.w3.org/Graphics/SVG/1.1/DTD/svg11.dtd">
<!-- Generated by graphviz version 2.43.0 (0)
 -->
<!-- Title: klyqa_ctl.devices.device.CommandWithCheckValues Pages: 1 -->
<!--zoomable 629 -->
<svg id="main" version="1.1" xmlns="http://www.w3.org/2000/svg" xmlns:xlink="http://www.w3.org/1999/xlink" xml:space="preserve" onload="init(evt)">
<style type="text/css"><![CDATA[
.edge:hover path { stroke: red; }
.edge:hover polygon { stroke: red; fill: red; }
]]></style>
<script type="text/javascript"><![CDATA[
var edges = document.getElementsByTagName('g');
if (edges && edges.length) {
  for (var i=0;i<edges.length;i++) {
    if (edges[i].id.substr(0,4)=='edge') {
      edges[i].setAttribute('class','edge');
    }
  }
}
]]></script>
        <defs>
                <circle id="rim" cx="0" cy="0" r="7"/>
                <circle id="rim2" cx="0" cy="0" r="3.5"/>
                <g id="zoomPlus">
                        <use xlink:href="#rim" fill="#404040">
                                <set attributeName="fill" to="#808080" begin="zoomplus.mouseover" end="zoomplus.mouseout"/>
                        </use>
                        <path d="M-4,0h8M0,-4v8" fill="none" stroke="white" stroke-width="1.5" pointer-events="none"/>
                </g>
                <g id="zoomMin">
                        <use xlink:href="#rim" fill="#404040">
                                <set attributeName="fill" to="#808080" begin="zoomminus.mouseover" end="zoomminus.mouseout"/>
                        </use>
                        <path d="M-4,0h8" fill="none" stroke="white" stroke-width="1.5" pointer-events="none"/>
                </g>
                <g id="dirArrow">
                        <path fill="none" stroke="white" stroke-width="1.5" d="M0,-3.0v7 M-2.5,-0.5L0,-3.0L2.5,-0.5"/>
                </g>
               <g id="resetDef">
                       <use xlink:href="#rim2" fill="#404040">
                               <set attributeName="fill" to="#808080" begin="reset.mouseover" end="reset.mouseout"/>
                       </use>
               </g>
        </defs>

<script type="text/javascript">
var viewWidth = 806;
var viewHeight = 629;
var sectionId = 'dynsection-0';
</script>
<script xlink:href="svgpan.js"/>
<svg id="graph" class="graph">
<g id="viewport">
<title>klyqa_ctl.devices.device.CommandWithCheckValues</title>
<polygon fill="white" stroke="transparent" points="-4,4 -4,-625 802,-625 802,4 -4,4"/>
<!-- Node1 -->
<g id="node1" class="node">
<title>Node1</title>
<g id="a_node1"><a xlink:title=" ">
<polygon fill="#bfbfbf" stroke="black" points="425,-287.5 425,-366.5 577,-366.5 577,-287.5 425,-287.5"/>
<text text-anchor="start" x="433" y="-354.5" font-family="Helvetica,sans-Serif" font-size="10.00">klyqa_ctl.devices.device.</text>
<text text-anchor="middle" x="501" y="-343.5" font-family="Helvetica,sans-Serif" font-size="10.00">CommandWithCheckValues</text>
<polyline fill="none" stroke="black" points="425,-336.5 577,-336.5 "/>
<text text-anchor="start" x="433" y="-324.5" font-family="Helvetica,sans-Serif" font-size="10.00">+ bool</text>
<polyline fill="none" stroke="black" points="425,-317.5 577,-317.5 "/>
<text text-anchor="start" x="433" y="-305.5" font-family="Helvetica,sans-Serif" font-size="10.00">+ bool check_values(self,</text>
<text text-anchor="start" x="433" y="-294.5" font-family="Helvetica,sans-Serif" font-size="10.00"> Device device)</text>
</a>
</g>
</g>
<!-- Node4 -->
<g id="node4" class="node">
<title>Node4</title>
<g id="a_node4"><a xlink:href="classklyqa__ctl_1_1devices_1_1light_1_1commands_1_1CommandWithCheckValuesLight.html" target="_top" xlink:title=" ">
<polygon fill="white" stroke="black" points="306,-155 306,-245 492,-245 492,-155 306,-155"/>
<text text-anchor="start" x="314" y="-233" font-family="Helvetica,sans-Serif" font-size="10.00">klyqa_ctl.devices.light.commands.</text>
<text text-anchor="middle" x="399" y="-222" font-family="Helvetica,sans-Serif" font-size="10.00">CommandWithCheckValuesLight</text>
<polyline fill="none" stroke="black" points="306,-215 492,-215 "/>
<text text-anchor="start" x="314" y="-203" font-family="Helvetica,sans-Serif" font-size="10.00">+ None</text>
<text text-anchor="start" x="314" y="-192" font-family="Helvetica,sans-Serif" font-size="10.00">&#45; _light</text>
<polyline fill="none" stroke="black" points="306,-185 492,-185 "/>
<text text-anchor="start" x="314" y="-173" font-family="Helvetica,sans-Serif" font-size="10.00">+ bool check_values(self,</text>
<text text-anchor="start" x="314" y="-162" font-family="Helvetica,sans-Serif" font-size="10.00"> Device device)</text>
</a>
</g>
</g>
<!-- Node1&#45;&gt;Node4 -->
<g id="edge3" class="edge">
<title>Node1&#45;&gt;Node4</title>
<path fill="none" stroke="midnightblue" d="M463.04,-279.48C453.92,-268.3 444.19,-256.38 435.15,-245.3"/>
<polygon fill="none" stroke="midnightblue" points="460.53,-281.94 469.56,-287.48 465.95,-277.52 460.53,-281.94"/>
</g>
<!-- Node9 -->
<g id="node9" class="node">
<title>Node9</title>
<g id="a_node9"><a xlink:href="classklyqa__ctl_1_1devices_1_1light_1_1commands_1_1ExternalSourceCommand.html" target="_top" xlink:title=" ">
<polygon fill="white" stroke="black" points="510,-149.5 510,-250.5 696,-250.5 696,-149.5 510,-149.5"/>
<text text-anchor="start" x="518" y="-238.5" font-family="Helvetica,sans-Serif" font-size="10.00">klyqa_ctl.devices.light.commands.</text>
<text text-anchor="middle" x="603" y="-227.5" font-family="Helvetica,sans-Serif" font-size="10.00">ExternalSourceCommand</text>
<polyline fill="none" stroke="black" points="510,-220.5 696,-220.5 "/>
<text text-anchor="start" x="518" y="-208.5" font-family="Helvetica,sans-Serif" font-size="10.00">+ ExternalSourceProtocol</text>
<text text-anchor="start" x="518" y="-197.5" font-family="Helvetica,sans-Serif" font-size="10.00">+ int</text>
<polyline fill="none" stroke="black" points="510,-190.5 696,-190.5 "/>
<text text-anchor="start" x="518" y="-178.5" font-family="Helvetica,sans-Serif" font-size="10.00">+ TypeJson json(self)</text>
<text text-anchor="start" x="518" y="-167.5" font-family="Helvetica,sans-Serif" font-size="10.00">+ bool check_values(self,</text>
<text text-anchor="start" x="518" y="-156.5" font-family="Helvetica,sans-Serif" font-size="10.00"> Device device)</text>
</a>
</g>
</g>
<!-- Node1&#45;&gt;Node9 -->
<g id="edge8" class="edge">
<title>Node1&#45;&gt;Node9</title>
<path fill="none" stroke="midnightblue" d="M538.79,-279.68C546.51,-270.23 554.65,-260.25 562.45,-250.69"/>
<polygon fill="none" stroke="midnightblue" points="536.05,-277.52 532.44,-287.48 541.47,-281.94 536.05,-277.52"/>
</g>
<!-- Node2 -->
<g id="node2" class="node">
<title>Node2</title>
<g id="a_node2"><a xlink:href="classklyqa__ctl_1_1general_1_1general_1_1CommandTyped.html" target="_top" xlink:title=" ">
<polygon fill="white" stroke="black" points="429.5,-403.5 429.5,-471.5 572.5,-471.5 572.5,-403.5 429.5,-403.5"/>
<text text-anchor="start" x="437.5" y="-459.5" font-family="Helvetica,sans-Serif" font-size="10.00">klyqa_ctl.general.general.</text>
<text text-anchor="middle" x="501" y="-448.5" font-family="Helvetica,sans-Serif" font-size="10.00">CommandTyped</text>
<polyline fill="none" stroke="black" points="429.5,-441.5 572.5,-441.5 "/>
<text text-anchor="start" x="437.5" y="-429.5" font-family="Helvetica,sans-Serif" font-size="10.00">+ str</text>
<polyline fill="none" stroke="black" points="429.5,-422.5 572.5,-422.5 "/>
<text text-anchor="start" x="437.5" y="-410.5" font-family="Helvetica,sans-Serif" font-size="10.00">+ TypeJson json(self)</text>
</a>
</g>
</g>
<!-- Node2&#45;&gt;Node1 -->
<g id="edge1" class="edge">
<title>Node2&#45;&gt;Node1</title>
<path fill="none" stroke="midnightblue" d="M501,-393.27C501,-384.48 501,-375.28 501,-366.65"/>
<polygon fill="none" stroke="midnightblue" points="497.5,-393.36 501,-403.36 504.5,-393.36 497.5,-393.36"/>
</g>
<!-- Node3 -->
<g id="node3" class="node">
<title>Node3</title>
<g id="a_node3"><a xlink:href="classklyqa__ctl_1_1general_1_1general_1_1Command.html" target="_top" xlink:title=" ">
<polygon fill="white" stroke="black" points="429.5,-508.5 429.5,-620.5 572.5,-620.5 572.5,-508.5 429.5,-508.5"/>
<text text-anchor="start" x="437.5" y="-608.5" font-family="Helvetica,sans-Serif" font-size="10.00">klyqa_ctl.general.general.</text>
<text text-anchor="middle" x="501" y="-597.5" font-family="Helvetica,sans-Serif" font-size="10.00">Command</text>
<polyline fill="none" stroke="black" points="429.5,-590.5 572.5,-590.5 "/>
<text text-anchor="start" x="437.5" y="-578.5" font-family="Helvetica,sans-Serif" font-size="10.00">+ TypeJson</text>
<text text-anchor="start" x="437.5" y="-567.5" font-family="Helvetica,sans-Serif" font-size="10.00">+ default_factory</text>
<polyline fill="none" stroke="black" points="429.5,-560.5 572.5,-560.5 "/>
<text text-anchor="start" x="437.5" y="-548.5" font-family="Helvetica,sans-Serif" font-size="10.00">+ TypeJson json(self)</text>
<text text-anchor="start" x="437.5" y="-537.5" font-family="Helvetica,sans-Serif" font-size="10.00">+ TypeJson cloud(self)</text>
<text text-anchor="start" x="437.5" y="-526.5" font-family="Helvetica,sans-Serif" font-size="10.00">+ str msg_str(self)</text>
<text text-anchor="start" x="437.5" y="-515.5" font-family="Helvetica,sans-Serif" font-size="10.00">+ str __str__(self)</text>
</a>
</g>
</g>
<!-- Node3&#45;&gt;Node2 -->
<g id="edge2" class="edge">
<title>Node3&#45;&gt;Node2</title>
<path fill="none" stroke="midnightblue" d="M501,-498.26C501,-488.99 501,-479.8 501,-471.51"/>
<polygon fill="none" stroke="midnightblue" points="497.5,-498.31 501,-508.31 504.5,-498.31 497.5,-498.31"/>
</g>
<!-- Node5 -->
<g id="node5" class="node">
<title>Node5</title>
<g id="a_node5"><a xlink:href="classklyqa__ctl_1_1devices_1_1light_1_1commands_1_1BrightnessCommand.html" target="_top" xlink:title=" ">
<polygon fill="white" stroke="black" points="0,-0.5 0,-112.5 186,-112.5 186,-0.5 0,-0.5"/>
<text text-anchor="start" x="8" y="-100.5" font-family="Helvetica,sans-Serif" font-size="10.00">klyqa_ctl.devices.light.commands.</text>
<text text-anchor="middle" x="93" y="-89.5" font-family="Helvetica,sans-Serif" font-size="10.00">BrightnessCommand</text>
<polyline fill="none" stroke="black" points="0,-82.5 186,-82.5 "/>
<text text-anchor="start" x="8" y="-70.5" font-family="Helvetica,sans-Serif" font-size="10.00">+ int</text>
<polyline fill="none" stroke="black" points="0,-63.5 186,-63.5 "/>
<text text-anchor="start" x="8" y="-51.5" font-family="Helvetica,sans-Serif" font-size="10.00">+ TypeJson brightness</text>
<text text-anchor="start" x="8" y="-40.5" font-family="Helvetica,sans-Serif" font-size="10.00">_json(self)</text>
<text text-anchor="start" x="8" y="-29.5" font-family="Helvetica,sans-Serif" font-size="10.00">+ TypeJson json(self)</text>
<text text-anchor="start" x="8" y="-18.5" font-family="Helvetica,sans-Serif" font-size="10.00">+ bool check_values(self,</text>
<text text-anchor="start" x="8" y="-7.5" font-family="Helvetica,sans-Serif" font-size="10.00"> Device device)</text>
</a>
</g>
</g>
<!-- Node4&#45;&gt;Node5 -->
<g id="edge4" class="edge">
<title>Node4&#45;&gt;Node5</title>
<path fill="none" stroke="midnightblue" d="M296.4,-158.08C263.69,-144.42 227.54,-128.67 195,-113 192.09,-111.6 189.15,-110.16 186.19,-108.69"/>
<polygon fill="none" stroke="midnightblue" points="295.4,-161.46 305.98,-162.07 298.09,-155 295.4,-161.46"/>
</g>
<!-- Node6 -->
<g id="node6" class="node">
<title>Node6</title>
<g id="a_node6"><a xlink:href="classklyqa__ctl_1_1devices_1_1light_1_1commands_1_1ColorCommand.html" target="_top" xlink:title=" ">
<polygon fill="white" stroke="black" points="204,-0.5 204,-112.5 390,-112.5 390,-0.5 204,-0.5"/>
<text text-anchor="start" x="212" y="-100.5" font-family="Helvetica,sans-Serif" font-size="10.00">klyqa_ctl.devices.light.commands.</text>
<text text-anchor="middle" x="297" y="-89.5" font-family="Helvetica,sans-Serif" font-size="10.00">ColorCommand</text>
<polyline fill="none" stroke="black" points="204,-82.5 390,-82.5 "/>
<text text-anchor="start" x="212" y="-70.5" font-family="Helvetica,sans-Serif" font-size="10.00">+ RgbColor</text>
<polyline fill="none" stroke="black" points="204,-63.5 390,-63.5 "/>
<text text-anchor="start" x="212" y="-51.5" font-family="Helvetica,sans-Serif" font-size="10.00">+ TypeJson color_json</text>
<text text-anchor="start" x="212" y="-40.5" font-family="Helvetica,sans-Serif" font-size="10.00">(self)</text>
<text text-anchor="start" x="212" y="-29.5" font-family="Helvetica,sans-Serif" font-size="10.00">+ TypeJson json(self)</text>
<text text-anchor="start" x="212" y="-18.5" font-family="Helvetica,sans-Serif" font-size="10.00">+ bool check_values(self,</text>
<text text-anchor="start" x="212" y="-7.5" font-family="Helvetica,sans-Serif" font-size="10.00"> Device device)</text>
</a>
</g>
</g>
<!-- Node4&#45;&gt;Node6 -->
<g id="edge5" class="edge">
<title>Node4&#45;&gt;Node6</title>
<path fill="none" stroke="midnightblue" d="M361.05,-146.36C353.13,-135.37 344.76,-123.76 336.78,-112.69"/>
<polygon fill="none" stroke="midnightblue" points="358.32,-148.55 367.01,-154.62 364,-144.46 358.32,-148.55"/>
</g>
<!-- Node7 -->
<g id="node7" class="node">
<title>Node7</title>
<g id="a_node7"><a xlink:href="classklyqa__ctl_1_1devices_1_1light_1_1commands_1_1RoutinePutCommand.html" target="_top" xlink:title=" ">
<polygon fill="white" stroke="black" points="408,-0.5 408,-112.5 594,-112.5 594,-0.5 408,-0.5"/>
<text text-anchor="start" x="416" y="-100.5" font-family="Helvetica,sans-Serif" font-size="10.00">klyqa_ctl.devices.light.commands.</text>
<text text-anchor="middle" x="501" y="-89.5" font-family="Helvetica,sans-Serif" font-size="10.00">RoutinePutCommand</text>
<polyline fill="none" stroke="black" points="408,-82.5 594,-82.5 "/>
<text text-anchor="start" x="416" y="-70.5" font-family="Helvetica,sans-Serif" font-size="10.00">+ action</text>
<text text-anchor="start" x="416" y="-59.5" font-family="Helvetica,sans-Serif" font-size="10.00">+ str</text>
<polyline fill="none" stroke="black" points="408,-52.5 594,-52.5 "/>
<text text-anchor="start" x="416" y="-40.5" font-family="Helvetica,sans-Serif" font-size="10.00">+ None __post_init__</text>
<text text-anchor="start" x="416" y="-29.5" font-family="Helvetica,sans-Serif" font-size="10.00">(self)</text>
<text text-anchor="start" x="416" y="-18.5" font-family="Helvetica,sans-Serif" font-size="10.00">+ bool check_values(self,</text>
<text text-anchor="start" x="416" y="-7.5" font-family="Helvetica,sans-Serif" font-size="10.00"> Device device)</text>
</a>
</g>
</g>
<!-- Node4&#45;&gt;Node7 -->
<g id="edge6" class="edge">
<title>Node4&#45;&gt;Node7</title>
<path fill="none" stroke="midnightblue" d="M436.95,-146.36C444.87,-135.37 453.24,-123.76 461.22,-112.69"/>
<polygon fill="none" stroke="midnightblue" points="434,-144.46 430.99,-154.62 439.68,-148.55 434,-144.46"/>
</g>
<!-- Node8 -->
<g id="node8" class="node">
<title>Node8</title>
<g id="a_node8"><a xlink:href="classklyqa__ctl_1_1devices_1_1light_1_1commands_1_1TemperatureCommand.html" target="_top" xlink:title=" ">
<polygon fill="white" stroke="black" points="612,-0.5 612,-112.5 798,-112.5 798,-0.5 612,-0.5"/>
<text text-anchor="start" x="620" y="-100.5" font-family="Helvetica,sans-Serif" font-size="10.00">klyqa_ctl.devices.light.commands.</text>
<text text-anchor="middle" x="705" y="-89.5" font-family="Helvetica,sans-Serif" font-size="10.00">TemperatureCommand</text>
<polyline fill="none" stroke="black" points="612,-82.5 798,-82.5 "/>
<text text-anchor="start" x="620" y="-70.5" font-family="Helvetica,sans-Serif" font-size="10.00">+ int</text>
<polyline fill="none" stroke="black" points="612,-63.5 798,-63.5 "/>
<text text-anchor="start" x="620" y="-51.5" font-family="Helvetica,sans-Serif" font-size="10.00">+ TypeJson temperature</text>
<text text-anchor="start" x="620" y="-40.5" font-family="Helvetica,sans-Serif" font-size="10.00">_json(self)</text>
<text text-anchor="start" x="620" y="-29.5" font-family="Helvetica,sans-Serif" font-size="10.00">+ TypeJson json(self)</text>
<text text-anchor="start" x="620" y="-18.5" font-family="Helvetica,sans-Serif" font-size="10.00">+ bool check_values(self,</text>
<text text-anchor="start" x="620" y="-7.5" font-family="Helvetica,sans-Serif" font-size="10.00"> Device device)</text>
</a>
</g>
</g>
<!-- Node4&#45;&gt;Node8 -->
<g id="edge7" class="edge">
<title>Node4&#45;&gt;Node8</title>
<path fill="none" stroke="midnightblue" d="M496.72,-150.82C498.15,-150.2 499.58,-149.6 501,-149 545.33,-130.39 559.08,-132.55 603,-113 605.95,-111.69 608.92,-110.32 611.92,-108.92"/>
<polygon fill="none" stroke="midnightblue" points="494.92,-147.78 487.17,-155 497.73,-154.19 494.92,-147.78"/>
</g>
</g>
</svg>
        <g id="navigator" transform="translate(0 0)" fill="#404254">
                <rect fill="#f2f5e9" fill-opacity="0.5" stroke="#606060" stroke-width=".5" x="0" y="0" width="60" height="60"/>
                <use id="zoomplus" xlink:href="#zoomPlus" x="17" y="9" onmousedown="handleZoom(evt,'in')"/>
                <use id="zoomminus" xlink:href="#zoomMin" x="42" y="9" onmousedown="handleZoom(evt,'out')"/>
                <use id="reset" xlink:href="#resetDef" x="30" y="36" onmousedown="handleReset()"/>
                <g id="arrowUp" xlink:href="#dirArrow" transform="translate(30 24)" onmousedown="handlePan(0,-1)">
                  <use xlink:href="#rim" fill="#404040">
                        <set attributeName="fill" to="#808080" begin="arrowUp.mouseover" end="arrowUp.mouseout"/>
                  </use>
                  <path fill="none" stroke="white" stroke-width="1.5" d="M0,-3.0v7 M-2.5,-0.5L0,-3.0L2.5,-0.5"/>
                </g>
                <g id="arrowRight" xlink:href="#dirArrow" transform="rotate(90) translate(36 -43)" onmousedown="handlePan(1,0)">
                  <use xlink:href="#rim" fill="#404040">
                        <set attributeName="fill" to="#808080" begin="arrowRight.mouseover" end="arrowRight.mouseout"/>
                  </use>
                  <path fill="none" stroke="white" stroke-width="1.5" d="M0,-3.0v7 M-2.5,-0.5L0,-3.0L2.5,-0.5"/>
                </g>
                <g id="arrowDown" xlink:href="#dirArrow" transform="rotate(180) translate(-30 -48)" onmousedown="handlePan(0,1)">
                  <use xlink:href="#rim" fill="#404040">
                        <set attributeName="fill" to="#808080" begin="arrowDown.mouseover" end="arrowDown.mouseout"/>
                  </use>
                  <path fill="none" stroke="white" stroke-width="1.5" d="M0,-3.0v7 M-2.5,-0.5L0,-3.0L2.5,-0.5"/>
                </g>
                <g id="arrowLeft" xlink:href="#dirArrow" transform="rotate(270) translate(-36 17)" onmousedown="handlePan(-1,0)">
                  <use xlink:href="#rim" fill="#404040">
                        <set attributeName="fill" to="#808080" begin="arrowLeft.mouseover" end="arrowLeft.mouseout"/>
                  </use>
                  <path fill="none" stroke="white" stroke-width="1.5" d="M0,-3.0v7 M-2.5,-0.5L0,-3.0L2.5,-0.5"/>
                </g>
        </g>
        <svg viewBox="0 0 15 15" width="100%" height="30px" preserveAspectRatio="xMaxYMin meet">
         <g id="arrow_out" transform="scale(0.3 0.3)">
          <a xlink:href="classklyqa__ctl_1_1devices_1_1device_1_1CommandWithCheckValues__inherit__graph_org.svg" target="_base">
           <rect id="button" ry="5" rx="5" y="6" x="6" height="38" width="38"
                fill="#f2f5e9" fill-opacity="0.5" stroke="#606060" stroke-width="1.0"/>
           <path id="arrow"
             d="M 11.500037,31.436501 C 11.940474,20.09759 22.043105,11.32322 32.158766,21.979434 L 37.068811,17.246167 C 37.068811,17.246167 37.088388,32 37.088388,32 L 22.160133,31.978069 C 22.160133,31.978069 26.997745,27.140456 26.997745,27.140456 C 18.528582,18.264221 13.291696,25.230495 11.500037,31.436501 z"
             style="fill:#404040;"/>
          </a>
         </g>
        </svg>
</svg>
