<?xml version="1.0" encoding="UTF-8" standalone="no"?>
<!DOCTYPE svg PUBLIC "-//W3C//DTD SVG 1.1//EN"
 "http://www.w3.org/Graphics/SVG/1.1/DTD/svg11.dtd">
<!-- Generated by graphviz version 2.43.0 (0)
 -->
<!-- Title: klyqa_ctl.controller_data.ControllerData.get_or_create_device Pages: 1 -->
<svg width="366pt" height="187pt"
 viewBox="0.00 0.00 366.00 186.50" xmlns="http://www.w3.org/2000/svg" xmlns:xlink="http://www.w3.org/1999/xlink">
<g id="graph0" class="graph" transform="scale(1 1) rotate(0) translate(4 182.5)">
<title>klyqa_ctl.controller_data.ControllerData.get_or_create_device</title>
<polygon fill="white" stroke="transparent" points="-4,4 -4,-182.5 362,-182.5 362,4 -4,4"/>
<!-- Node1 -->
<g id="node1" class="node">
<title>Node1</title>
<g id="a_node1"><a xlink:title=" ">
<polygon fill="#bfbfbf" stroke="black" points="0,-66 0,-107 137,-107 137,-66 0,-66"/>
<text text-anchor="start" x="8" y="-95" font-family="Helvetica,sans-Serif" font-size="10.00">klyqa_ctl.controller</text>
<text text-anchor="start" x="8" y="-84" font-family="Helvetica,sans-Serif" font-size="10.00">_data.ControllerData.get</text>
<text text-anchor="middle" x="68.5" y="-73" font-family="Helvetica,sans-Serif" font-size="10.00">_or_create_device</text>
</a>
</g>
</g>
<!-- Node2 -->
<g id="node2" class="node">
<title>Node2</title>
<g id="a_node2"><a xlink:href="classklyqa__ctl_1_1controller__data_1_1ControllerData.html#afe5d9ecd2aec0bad65f3be2ed0ff4ce1" target="_top" xlink:title=" ">
<polygon fill="white" stroke="black" points="189.5,-137 189.5,-178 341.5,-178 341.5,-137 189.5,-137"/>
<text text-anchor="start" x="197.5" y="-166" font-family="Helvetica,sans-Serif" font-size="10.00">klyqa_ctl.controller</text>
<text text-anchor="start" x="197.5" y="-155" font-family="Helvetica,sans-Serif" font-size="10.00">_data.ControllerData.create</text>
<text text-anchor="middle" x="265.5" y="-144" font-family="Helvetica,sans-Serif" font-size="10.00">_device</text>
</a>
</g>
</g>
<!-- Node1&#45;&gt;Node2 -->
<g id="edge1" class="edge">
<title>Node1&#45;&gt;Node2</title>
<path fill="none" stroke="midnightblue" d="M119.54,-107.03C136.44,-113.77 155.46,-121.16 173,-127.5 178.54,-129.5 184.29,-131.52 190.08,-133.52"/>
<polygon fill="midnightblue" stroke="midnightblue" points="189.25,-136.93 199.85,-136.84 191.51,-130.31 189.25,-136.93"/>
</g>
<!-- Node3 -->
<g id="node3" class="node">
<title>Node3</title>
<g id="a_node3"><a xlink:href="classklyqa__ctl_1_1account_1_1Account.html#a2265c38daf6829c96c852ad4a288b42d" target="_top" xlink:title=" ">
<polygon fill="white" stroke="black" points="173,-99 173,-118 358,-118 358,-99 173,-99"/>
<text text-anchor="middle" x="265.5" y="-106" font-family="Helvetica,sans-Serif" font-size="10.00">klyqa_ctl.account.Account.devices</text>
</a>
</g>
</g>
<!-- Node1&#45;&gt;Node3 -->
<g id="edge2" class="edge">
<title>Node1&#45;&gt;Node3</title>
<path fill="none" stroke="midnightblue" d="M137.15,-94.13C147.77,-95.33 158.9,-96.59 169.98,-97.84"/>
<polygon fill="midnightblue" stroke="midnightblue" points="169.8,-101.34 180.13,-98.98 170.58,-94.38 169.8,-101.34"/>
</g>
<!-- Node4 -->
<g id="node4" class="node">
<title>Node4</title>
<g id="a_node4"><a xlink:href="classlocal_1_1connection__handler_1_1LocalConnectionHandler.html#a4d307f6bd0b66f3cb9fac3057fc87972" target="_top" xlink:title=" ">
<polygon fill="white" stroke="black" points="178,-49.5 178,-79.5 353,-79.5 353,-49.5 178,-49.5"/>
<text text-anchor="start" x="186" y="-67.5" font-family="Helvetica,sans-Serif" font-size="10.00">local.connection_handler.</text>
<text text-anchor="middle" x="265.5" y="-56.5" font-family="Helvetica,sans-Serif" font-size="10.00">LocalConnectionHandler.devices</text>
</a>
</g>
</g>
<!-- Node1&#45;&gt;Node4 -->
<g id="edge3" class="edge">
<title>Node1&#45;&gt;Node4</title>
<path fill="none" stroke="midnightblue" d="M137.15,-78.87C146.97,-77.76 157.24,-76.6 167.49,-75.44"/>
<polygon fill="midnightblue" stroke="midnightblue" points="168.19,-78.89 177.73,-74.29 167.4,-71.93 168.19,-78.89"/>
</g>
<!-- Node5 -->
<g id="node5" class="node">
<title>Node5</title>
<g id="a_node5"><a xlink:href="classklyqa__ctl_1_1controller__data_1_1ControllerData.html#adf7af423388a9a883c428cf71e217650" target="_top" xlink:title=" ">
<polygon fill="white" stroke="black" points="186.5,-0.5 186.5,-30.5 344.5,-30.5 344.5,-0.5 186.5,-0.5"/>
<text text-anchor="start" x="194.5" y="-18.5" font-family="Helvetica,sans-Serif" font-size="10.00">klyqa_ctl.controller</text>
<text text-anchor="middle" x="265.5" y="-7.5" font-family="Helvetica,sans-Serif" font-size="10.00">_data.ControllerData.devices</text>
</a>
</g>
</g>
<!-- Node1&#45;&gt;Node5 -->
<g id="edge4" class="edge">
<title>Node1&#45;&gt;Node5</title>
<path fill="none" stroke="midnightblue" d="M111.71,-66C130.25,-57.45 152.44,-47.83 173,-40.5 179.83,-38.07 187.01,-35.73 194.22,-33.53"/>
<polygon fill="midnightblue" stroke="midnightblue" points="195.45,-36.82 204.05,-30.62 193.47,-30.11 195.45,-36.82"/>
</g>
</g>
</svg>
