<?xml version="1.0" encoding="UTF-8" standalone="no"?>
<!DOCTYPE svg PUBLIC "-//W3C//DTD SVG 1.1//EN"
 "http://www.w3.org/Graphics/SVG/1.1/DTD/svg11.dtd">
<!-- Generated by graphviz version 2.43.0 (0)
 -->
<!-- Title: local.connection_handler.LocalConnectionHandler.devices Pages: 1 -->
<svg width="1440pt" height="472pt"
 viewBox="0.00 0.00 1440.00 472.00" xmlns="http://www.w3.org/2000/svg" xmlns:xlink="http://www.w3.org/1999/xlink">
<g id="graph0" class="graph" transform="scale(1 1) rotate(0) translate(4 468)">
<title>local.connection_handler.LocalConnectionHandler.devices</title>
<polygon fill="white" stroke="transparent" points="-4,4 -4,-468 1436,-468 1436,4 -4,4"/>
<!-- Node1 -->
<g id="node1" class="node">
<title>Node1</title>
<g id="a_node1"><a xlink:title=" ">
<polygon fill="#bfbfbf" stroke="black" points="1257,-219 1257,-249 1432,-249 1432,-219 1257,-219"/>
<text text-anchor="start" x="1265" y="-237" font-family="Helvetica,sans-Serif" font-size="10.00">local.connection_handler.</text>
<text text-anchor="middle" x="1344.5" y="-226" font-family="Helvetica,sans-Serif" font-size="10.00">LocalConnectionHandler.devices</text>
</a>
</g>
</g>
<!-- Node2 -->
<g id="node2" class="node">
<title>Node2</title>
<g id="a_node2"><a xlink:href="classklyqa__ctl_1_1account__control_1_1AccountControl.html#a5b4b4e18362cea70b456d2ffc78467a3" target="_top" xlink:title=" ">
<polygon fill="white" stroke="black" points="847.5,-405 847.5,-435 991.5,-435 991.5,-405 847.5,-405"/>
<text text-anchor="start" x="855.5" y="-423" font-family="Helvetica,sans-Serif" font-size="10.00">klyqa_ctl.account_control.</text>
<text text-anchor="middle" x="919.5" y="-412" font-family="Helvetica,sans-Serif" font-size="10.00">AccountControl.__init__</text>
</a>
</g>
</g>
<!-- Node1&#45;&gt;Node2 -->
<g id="edge1" class="edge">
<title>Node1&#45;&gt;Node2</title>
<path fill="none" stroke="midnightblue" d="M1319.57,-256.06C1296,-276.8 1258.24,-307.49 1221,-327 1147.11,-365.72 1054.41,-391.34 991.66,-405.71"/>
<polygon fill="midnightblue" stroke="midnightblue" points="1322.15,-258.45 1327.28,-249.18 1317.49,-253.22 1322.15,-258.45"/>
</g>
<!-- Node3 -->
<g id="node3" class="node">
<title>Node3</title>
<g id="a_node3"><a xlink:href="classlocal_1_1connection__handler_1_1LocalConnectionHandler.html#a0b582d0bf1523d1d0404867ab921539f" target="_top" xlink:title=" ">
<polygon fill="white" stroke="black" points="206,-235.5 206,-276.5 376,-276.5 376,-235.5 206,-235.5"/>
<text text-anchor="start" x="214" y="-264.5" font-family="Helvetica,sans-Serif" font-size="10.00">local.connection_handler.</text>
<text text-anchor="start" x="214" y="-253.5" font-family="Helvetica,sans-Serif" font-size="10.00">LocalConnectionHandler.device</text>
<text text-anchor="middle" x="291" y="-242.5" font-family="Helvetica,sans-Serif" font-size="10.00">_handle_local_tcp</text>
</a>
</g>
</g>
<!-- Node1&#45;&gt;Node3 -->
<g id="edge2" class="edge">
<title>Node1&#45;&gt;Node3</title>
<path fill="none" stroke="midnightblue" d="M1328.44,-257.69C1307.76,-288.42 1267.75,-341.79 1221,-373 1104.94,-450.48 1060.05,-464 920.5,-464 920.5,-464 920.5,-464 704.5,-464 539.28,-464 372.86,-329.32 314.15,-276.7"/>
<polygon fill="midnightblue" stroke="midnightblue" points="1331.4,-259.56 1333.99,-249.29 1325.56,-255.7 1331.4,-259.56"/>
</g>
<!-- Node5 -->
<g id="node5" class="node">
<title>Node5</title>
<g id="a_node5"><a xlink:href="classlocal_1_1connection__handler_1_1LocalConnectionHandler.html#a8d7418a9f89b4622dd814bd1c9ea4028" target="_top" xlink:title=" ">
<polygon fill="white" stroke="black" points="1046,-197 1046,-227 1221,-227 1221,-197 1046,-197"/>
<text text-anchor="start" x="1054" y="-215" font-family="Helvetica,sans-Serif" font-size="10.00">local.connection_handler.</text>
<text text-anchor="middle" x="1133.5" y="-204" font-family="Helvetica,sans-Serif" font-size="10.00">LocalConnectionHandler.devices</text>
</a>
</g>
</g>
<!-- Node1&#45;&gt;Node5 -->
<g id="edge4" class="edge">
<title>Node1&#45;&gt;Node5</title>
<path fill="none" stroke="midnightblue" d="M1246.97,-223.84C1238.41,-222.94 1229.77,-222.03 1221.29,-221.14"/>
<polygon fill="midnightblue" stroke="midnightblue" points="1246.67,-227.33 1256.98,-224.89 1247.4,-220.37 1246.67,-227.33"/>
</g>
<!-- Node6 -->
<g id="node6" class="node">
<title>Node6</title>
<g id="a_node6"><a xlink:href="classklyqa__ctl_1_1controller__data_1_1ControllerData.html#a006615491c01ae305bbf34eb2fc47e09" target="_top" xlink:title=" ">
<polygon fill="white" stroke="black" points="851,-295.5 851,-336.5 988,-336.5 988,-295.5 851,-295.5"/>
<text text-anchor="start" x="859" y="-324.5" font-family="Helvetica,sans-Serif" font-size="10.00">klyqa_ctl.controller</text>
<text text-anchor="start" x="859" y="-313.5" font-family="Helvetica,sans-Serif" font-size="10.00">_data.ControllerData.get</text>
<text text-anchor="middle" x="919.5" y="-302.5" font-family="Helvetica,sans-Serif" font-size="10.00">_or_create_device</text>
</a>
</g>
</g>
<!-- Node1&#45;&gt;Node6 -->
<g id="edge22" class="edge">
<title>Node1&#45;&gt;Node6</title>
<path fill="none" stroke="midnightblue" d="M1256.96,-250.99C1244.89,-253.35 1232.63,-255.74 1221,-258 1141.07,-273.54 1049.15,-291.26 988.24,-302.98"/>
<polygon fill="midnightblue" stroke="midnightblue" points="1257.91,-254.37 1267.05,-249.01 1256.57,-247.5 1257.91,-254.37"/>
</g>
<!-- Node8 -->
<g id="node8" class="node">
<title>Node8</title>
<g id="a_node8"><a xlink:href="classklyqa__ctl_1_1account_1_1Account.html#adad4d644a9bbb3633405dac89e86edd3" target="_top" xlink:title=" ">
<polygon fill="white" stroke="black" points="838,-356 838,-386 1001,-386 1001,-356 838,-356"/>
<text text-anchor="start" x="846" y="-374" font-family="Helvetica,sans-Serif" font-size="10.00">klyqa_ctl.account.Account.get</text>
<text text-anchor="middle" x="919.5" y="-363" font-family="Helvetica,sans-Serif" font-size="10.00">_or_create_device</text>
</a>
</g>
</g>
<!-- Node1&#45;&gt;Node8 -->
<g id="edge23" class="edge">
<title>Node1&#45;&gt;Node8</title>
<path fill="none" stroke="midnightblue" d="M1303.44,-253.43C1279.8,-264.45 1249.09,-277.99 1221,-288 1141.34,-316.39 1046.98,-341.04 985.53,-355.95"/>
<polygon fill="midnightblue" stroke="midnightblue" points="1305.23,-256.46 1312.79,-249.03 1302.25,-250.12 1305.23,-256.46"/>
</g>
<!-- Node9 -->
<g id="node9" class="node">
<title>Node9</title>
<g id="a_node9"><a xlink:href="classklyqa__ctl_1_1account_1_1Account.html#a0b171a600e4342d035ad26c39b384b38" target="_top" xlink:title=" ">
<polygon fill="white" stroke="black" points="834,-159.5 834,-178.5 1005,-178.5 1005,-159.5 834,-159.5"/>
<text text-anchor="middle" x="919.5" y="-166.5" font-family="Helvetica,sans-Serif" font-size="10.00">klyqa_ctl.account.Account.login</text>
</a>
</g>
</g>
<!-- Node1&#45;&gt;Node9 -->
<g id="edge24" class="edge">
<title>Node1&#45;&gt;Node9</title>
<path fill="none" stroke="midnightblue" d="M1302.05,-214.93C1278.74,-205.1 1248.82,-193.96 1221,-188 1149.31,-172.63 1065.98,-168.4 1005.28,-167.72"/>
<polygon fill="midnightblue" stroke="midnightblue" points="1300.71,-218.16 1311.28,-218.89 1303.47,-211.73 1300.71,-218.16"/>
</g>
<!-- Node10 -->
<g id="node10" class="node">
<title>Node10</title>
<g id="a_node10"><a xlink:href="classlocal_1_1connection__handler_1_1LocalConnectionHandler.html#a4ce11db96280d000941a91cb37df2842" target="_top" xlink:title=" ">
<polygon fill="white" stroke="black" points="832,-235.5 832,-276.5 1007,-276.5 1007,-235.5 832,-235.5"/>
<text text-anchor="start" x="840" y="-264.5" font-family="Helvetica,sans-Serif" font-size="10.00">local.connection_handler.</text>
<text text-anchor="start" x="840" y="-253.5" font-family="Helvetica,sans-Serif" font-size="10.00">LocalConnectionHandler.process</text>
<text text-anchor="middle" x="919.5" y="-242.5" font-family="Helvetica,sans-Serif" font-size="10.00">_device_identity_package</text>
</a>
</g>
</g>
<!-- Node1&#45;&gt;Node10 -->
<g id="edge25" class="edge">
<title>Node1&#45;&gt;Node10</title>
<path fill="none" stroke="midnightblue" d="M1246.86,-239.03C1174.61,-242.78 1076.69,-247.88 1007.01,-251.5"/>
<polygon fill="midnightblue" stroke="midnightblue" points="1247.07,-242.52 1256.88,-238.51 1246.71,-235.53 1247.07,-242.52"/>
</g>
<!-- Node13 -->
<g id="node13" class="node">
<title>Node13</title>
<g id="a_node13"><a xlink:href="classklyqa__ctl_1_1klyqa__ctl_1_1Client.html#a40aba5774804e631745f63c3c91ec049" target="_top" xlink:title=" ">
<polygon fill="white" stroke="black" points="833.5,-110 833.5,-140 1005.5,-140 1005.5,-110 833.5,-110"/>
<text text-anchor="start" x="841.5" y="-128" font-family="Helvetica,sans-Serif" font-size="10.00">klyqa_ctl.klyqa_ctl.Client.select</text>
<text text-anchor="middle" x="919.5" y="-117" font-family="Helvetica,sans-Serif" font-size="10.00">_device</text>
</a>
</g>
</g>
<!-- Node1&#45;&gt;Node13 -->
<g id="edge26" class="edge">
<title>Node1&#45;&gt;Node13</title>
<path fill="none" stroke="midnightblue" d="M1314.76,-213.25C1290.86,-197.09 1255.33,-175.53 1221,-164 1150.81,-140.42 1066.96,-130.98 1005.7,-127.26"/>
<polygon fill="midnightblue" stroke="midnightblue" points="1312.79,-216.14 1323.02,-218.93 1316.76,-210.38 1312.79,-216.14"/>
</g>
<!-- Node16 -->
<g id="node16" class="node">
<title>Node16</title>
<g id="a_node16"><a xlink:href="classklyqa__ctl_1_1account_1_1Account.html#a4fb47c923d3a579054e8cc72480906fb" target="_top" xlink:title=" ">
<polygon fill="white" stroke="black" points="829,-61 829,-91 1010,-91 1010,-61 829,-61"/>
<text text-anchor="start" x="837" y="-79" font-family="Helvetica,sans-Serif" font-size="10.00">klyqa_ctl.account.Account.update</text>
<text text-anchor="middle" x="919.5" y="-68" font-family="Helvetica,sans-Serif" font-size="10.00">_device_configs</text>
</a>
</g>
</g>
<!-- Node1&#45;&gt;Node16 -->
<g id="edge27" class="edge">
<title>Node1&#45;&gt;Node16</title>
<path fill="none" stroke="midnightblue" d="M1324.44,-211.09C1302.3,-186.13 1263.36,-147.1 1221,-127 1154.67,-95.53 1071.96,-83.19 1010.12,-78.49"/>
<polygon fill="midnightblue" stroke="midnightblue" points="1321.82,-213.41 1331.02,-218.65 1327.1,-208.81 1321.82,-213.41"/>
</g>
<!-- Node17 -->
<g id="node17" class="node">
<title>Node17</title>
<g id="a_node17"><a xlink:href="classklyqa__ctl_1_1account__control_1_1AccountControl.html#a46d51f33622ad0e952a66d0d1b91eb12" target="_top" xlink:title=" ">
<polygon fill="white" stroke="black" points="837,-0.5 837,-41.5 1002,-41.5 1002,-0.5 837,-0.5"/>
<text text-anchor="start" x="845" y="-29.5" font-family="Helvetica,sans-Serif" font-size="10.00">klyqa_ctl.account_control.</text>
<text text-anchor="start" x="845" y="-18.5" font-family="Helvetica,sans-Serif" font-size="10.00">AccountControl.update_device</text>
<text text-anchor="middle" x="919.5" y="-7.5" font-family="Helvetica,sans-Serif" font-size="10.00">_configs</text>
</a>
</g>
</g>
<!-- Node1&#45;&gt;Node17 -->
<g id="edge28" class="edge">
<title>Node1&#45;&gt;Node17</title>
<path fill="none" stroke="midnightblue" d="M1331.49,-209.65C1312.91,-174.72 1273.77,-111.09 1221,-79 1154.6,-38.63 1066,-25.45 1002.22,-21.58"/>
<polygon fill="midnightblue" stroke="midnightblue" points="1328.47,-211.42 1336.18,-218.69 1334.68,-208.2 1328.47,-211.42"/>
</g>
<!-- Node4 -->
<g id="node4" class="node">
<title>Node4</title>
<g id="a_node4"><a xlink:href="classlocal_1_1connection__handler_1_1LocalConnectionHandler.html#a5e9277acd0b7bfa5a1e74417e0e10d86" target="_top" xlink:title=" ">
<polygon fill="white" stroke="black" points="0,-235.5 0,-276.5 170,-276.5 170,-235.5 0,-235.5"/>
<text text-anchor="start" x="8" y="-264.5" font-family="Helvetica,sans-Serif" font-size="10.00">local.connection_handler.</text>
<text text-anchor="start" x="8" y="-253.5" font-family="Helvetica,sans-Serif" font-size="10.00">LocalConnectionHandler.handle</text>
<text text-anchor="middle" x="85" y="-242.5" font-family="Helvetica,sans-Serif" font-size="10.00">_incoming_tcp_connection</text>
</a>
</g>
</g>
<!-- Node3&#45;&gt;Node4 -->
<g id="edge3" class="edge">
<title>Node3&#45;&gt;Node4</title>
<path fill="none" stroke="midnightblue" d="M195.6,-256C187.15,-256 178.64,-256 170.29,-256"/>
<polygon fill="midnightblue" stroke="midnightblue" points="195.85,-259.5 205.85,-256 195.85,-252.5 195.85,-259.5"/>
</g>
<!-- Node5&#45;&gt;Node2 -->
<g id="edge5" class="edge">
<title>Node5&#45;&gt;Node2</title>
<path fill="none" stroke="midnightblue" d="M1122.99,-236.52C1106.3,-276.25 1067.93,-354.41 1010,-396 1004.38,-400.03 998.12,-403.39 991.6,-406.18"/>
<polygon fill="midnightblue" stroke="midnightblue" points="1126.31,-237.65 1126.85,-227.07 1119.83,-235 1126.31,-237.65"/>
</g>
<!-- Node5&#45;&gt;Node3 -->
<g id="edge6" class="edge">
<title>Node5&#45;&gt;Node3</title>
<path fill="none" stroke="midnightblue" d="M1035.61,-206.99C896.78,-201.38 633.56,-196.54 412,-226 395.93,-228.14 378.9,-231.62 362.87,-235.48"/>
<polygon fill="midnightblue" stroke="midnightblue" points="1035.66,-210.5 1045.79,-207.42 1035.95,-203.5 1035.66,-210.5"/>
</g>
<!-- Node5&#45;&gt;Node6 -->
<g id="edge7" class="edge">
<title>Node5&#45;&gt;Node6</title>
<path fill="none" stroke="midnightblue" d="M1102.35,-232.79C1078.17,-248.82 1042.94,-270.76 1010,-286 1002.71,-289.37 994.94,-292.55 987.12,-295.49"/>
<polygon fill="midnightblue" stroke="midnightblue" points="1104.38,-235.64 1110.74,-227.17 1100.48,-229.83 1104.38,-235.64"/>
</g>
<!-- Node5&#45;&gt;Node8 -->
<g id="edge9" class="edge">
<title>Node5&#45;&gt;Node8</title>
<path fill="none" stroke="midnightblue" d="M1116.9,-236.07C1096.11,-266.23 1056.48,-317.42 1010,-346 1003.68,-349.89 996.74,-353.18 989.61,-355.98"/>
<polygon fill="midnightblue" stroke="midnightblue" points="1120.04,-237.68 1122.74,-227.43 1114.24,-233.76 1120.04,-237.68"/>
</g>
<!-- Node5&#45;&gt;Node9 -->
<g id="edge11" class="edge">
<title>Node5&#45;&gt;Node9</title>
<path fill="none" stroke="midnightblue" d="M1048.32,-194.93C1020.79,-189.34 991.21,-183.34 967.45,-178.52"/>
<polygon fill="midnightblue" stroke="midnightblue" points="1047.86,-198.4 1058.35,-196.96 1049.25,-191.54 1047.86,-198.4"/>
</g>
<!-- Node5&#45;&gt;Node10 -->
<g id="edge12" class="edge">
<title>Node5&#45;&gt;Node10</title>
<path fill="none" stroke="midnightblue" d="M1050.02,-229.12C1035.97,-232.03 1021.34,-235.07 1007.18,-238.01"/>
<polygon fill="midnightblue" stroke="midnightblue" points="1051.05,-232.48 1060.13,-227.02 1049.63,-225.62 1051.05,-232.48"/>
</g>
<!-- Node5&#45;&gt;Node13 -->
<g id="edge16" class="edge">
<title>Node5&#45;&gt;Node13</title>
<path fill="none" stroke="midnightblue" d="M1097.66,-192.06C1073.6,-178.86 1040.54,-161.86 1010,-150 1000.68,-146.38 990.62,-143.05 980.73,-140.07"/>
<polygon fill="midnightblue" stroke="midnightblue" points="1095.98,-195.12 1106.42,-196.91 1099.37,-189 1095.98,-195.12"/>
</g>
<!-- Node5&#45;&gt;Node16 -->
<g id="edge20" class="edge">
<title>Node5&#45;&gt;Node16</title>
<path fill="none" stroke="midnightblue" d="M1113.65,-189.16C1091.44,-163.71 1052.18,-123.12 1010,-100 1003.79,-96.6 997.08,-93.66 990.21,-91.12"/>
<polygon fill="midnightblue" stroke="midnightblue" points="1111.08,-191.53 1120.25,-196.85 1116.39,-186.98 1111.08,-191.53"/>
</g>
<!-- Node5&#45;&gt;Node17 -->
<g id="edge21" class="edge">
<title>Node5&#45;&gt;Node17</title>
<path fill="none" stroke="midnightblue" d="M1120.13,-187.64C1101.1,-152.51 1061.4,-87.85 1010,-51 1005.07,-47.47 999.7,-44.33 994.11,-41.55"/>
<polygon fill="midnightblue" stroke="midnightblue" points="1117.16,-189.51 1124.94,-196.71 1123.35,-186.24 1117.16,-189.51"/>
</g>
<!-- Node7 -->
<g id="node7" class="node">
<title>Node7</title>
<g id="a_node7"><a xlink:href="classklyqa__ctl_1_1account_1_1Account.html#a8e93f6fe918bf32c172447d4ef439d2d" target="_top" xlink:title=" ">
<polygon fill="white" stroke="black" points="620.5,-328 620.5,-358 790.5,-358 790.5,-328 620.5,-328"/>
<text text-anchor="start" x="628.5" y="-346" font-family="Helvetica,sans-Serif" font-size="10.00">klyqa_ctl.account.Account.sync</text>
<text text-anchor="middle" x="705.5" y="-335" font-family="Helvetica,sans-Serif" font-size="10.00">_acc_settings_to_controller</text>
</a>
</g>
</g>
<!-- Node6&#45;&gt;Node7 -->
<g id="edge8" class="edge">
<title>Node6&#45;&gt;Node7</title>
<path fill="none" stroke="midnightblue" d="M840.81,-325.89C824.48,-327.97 807.18,-330.18 790.63,-332.29"/>
<polygon fill="midnightblue" stroke="midnightblue" points="841.36,-329.35 850.84,-324.62 840.48,-322.41 841.36,-329.35"/>
</g>
<!-- Node8&#45;&gt;Node7 -->
<g id="edge10" class="edge">
<title>Node8&#45;&gt;Node7</title>
<path fill="none" stroke="midnightblue" d="M827.52,-358.98C815.24,-357.36 802.7,-355.71 790.55,-354.1"/>
<polygon fill="midnightblue" stroke="midnightblue" points="827.37,-362.49 837.75,-360.33 828.29,-355.56 827.37,-362.49"/>
</g>
<!-- Node11 -->
<g id="node11" class="node">
<title>Node11</title>
<g id="a_node11"><a xlink:href="classlocal_1_1connection__handler_1_1LocalConnectionHandler.html#aaa28266e241c2e30e8acd468fab06fde" target="_top" xlink:title=" ">
<polygon fill="white" stroke="black" points="618,-235.5 618,-276.5 793,-276.5 793,-235.5 618,-235.5"/>
<text text-anchor="start" x="626" y="-264.5" font-family="Helvetica,sans-Serif" font-size="10.00">local.connection_handler.</text>
<text text-anchor="start" x="626" y="-253.5" font-family="Helvetica,sans-Serif" font-size="10.00">LocalConnectionHandler.process</text>
<text text-anchor="middle" x="705.5" y="-242.5" font-family="Helvetica,sans-Serif" font-size="10.00">_tcp_package</text>
</a>
</g>
</g>
<!-- Node10&#45;&gt;Node11 -->
<g id="edge13" class="edge">
<title>Node10&#45;&gt;Node11</title>
<path fill="none" stroke="midnightblue" d="M821.68,-256C812.15,-256 802.52,-256 793.1,-256"/>
<polygon fill="midnightblue" stroke="midnightblue" points="821.97,-259.5 831.97,-256 821.97,-252.5 821.97,-259.5"/>
</g>
<!-- Node12 -->
<g id="node12" class="node">
<title>Node12</title>
<g id="a_node12"><a xlink:href="classlocal_1_1connection__handler_1_1LocalConnectionHandler.html#a900e05554022ee9ecb3ba5621369016d" target="_top" xlink:title=" ">
<polygon fill="white" stroke="black" points="412,-235.5 412,-276.5 582,-276.5 582,-235.5 412,-235.5"/>
<text text-anchor="start" x="420" y="-264.5" font-family="Helvetica,sans-Serif" font-size="10.00">local.connection_handler.</text>
<text text-anchor="start" x="420" y="-253.5" font-family="Helvetica,sans-Serif" font-size="10.00">LocalConnectionHandler.handle</text>
<text text-anchor="middle" x="497" y="-242.5" font-family="Helvetica,sans-Serif" font-size="10.00">_connection</text>
</a>
</g>
</g>
<!-- Node11&#45;&gt;Node12 -->
<g id="edge14" class="edge">
<title>Node11&#45;&gt;Node12</title>
<path fill="none" stroke="midnightblue" d="M607.8,-256C599.23,-256 590.6,-256 582.14,-256"/>
<polygon fill="midnightblue" stroke="midnightblue" points="607.82,-259.5 617.82,-256 607.82,-252.5 607.82,-259.5"/>
</g>
<!-- Node12&#45;&gt;Node3 -->
<g id="edge15" class="edge">
<title>Node12&#45;&gt;Node3</title>
<path fill="none" stroke="midnightblue" d="M401.6,-256C393.15,-256 384.64,-256 376.29,-256"/>
<polygon fill="midnightblue" stroke="midnightblue" points="401.85,-259.5 411.85,-256 401.85,-252.5 401.85,-259.5"/>
</g>
<!-- Node14 -->
<g id="node14" class="node">
<title>Node14</title>
<g id="a_node14"><a xlink:href="classklyqa__ctl_1_1klyqa__ctl_1_1Client.html#ad5c42cd8dd34ed1d6329040e164bfc2e" target="_top" xlink:title=" ">
<polygon fill="white" stroke="black" points="622.5,-110 622.5,-140 788.5,-140 788.5,-110 622.5,-110"/>
<text text-anchor="start" x="630.5" y="-128" font-family="Helvetica,sans-Serif" font-size="10.00">klyqa_ctl.klyqa_ctl.Client.send</text>
<text text-anchor="middle" x="705.5" y="-117" font-family="Helvetica,sans-Serif" font-size="10.00">_to_devices</text>
</a>
</g>
</g>
<!-- Node13&#45;&gt;Node14 -->
<g id="edge17" class="edge">
<title>Node13&#45;&gt;Node14</title>
<path fill="none" stroke="midnightblue" d="M823.4,-125C811.84,-125 800.11,-125 788.77,-125"/>
<polygon fill="midnightblue" stroke="midnightblue" points="823.49,-128.5 833.49,-125 823.49,-121.5 823.49,-128.5"/>
</g>
<!-- Node14&#45;&gt;Node14 -->
<g id="edge18" class="edge">
<title>Node14&#45;&gt;Node14</title>
<path fill="none" stroke="midnightblue" d="M742.46,-150.46C737.87,-155.18 725.55,-158.5 705.5,-158.5 672.59,-158.5 660.51,-149.56 669.25,-140.16"/>
<polygon fill="midnightblue" stroke="midnightblue" points="745.93,-149.89 741.75,-140.16 738.95,-150.38 745.93,-149.89"/>
</g>
<!-- Node15 -->
<g id="node15" class="node">
<title>Node15</title>
<g id="a_node15"><a xlink:href="classklyqa__ctl_1_1klyqa__ctl_1_1Client.html#a7a93bda9f242d678a4208d0962837f11" target="_top" xlink:title=" ">
<polygon fill="white" stroke="black" points="414,-110 414,-140 580,-140 580,-110 414,-110"/>
<text text-anchor="start" x="422" y="-128" font-family="Helvetica,sans-Serif" font-size="10.00">klyqa_ctl.klyqa_ctl.Client.send</text>
<text text-anchor="middle" x="497" y="-117" font-family="Helvetica,sans-Serif" font-size="10.00">_to_devices_wrapped</text>
</a>
</g>
</g>
<!-- Node14&#45;&gt;Node15 -->
<g id="edge19" class="edge">
<title>Node14&#45;&gt;Node15</title>
<path fill="none" stroke="midnightblue" d="M612.16,-125C601.53,-125 590.75,-125 580.26,-125"/>
<polygon fill="midnightblue" stroke="midnightblue" points="612.29,-128.5 622.29,-125 612.29,-121.5 612.29,-128.5"/>
</g>
</g>
</svg>
