<?xml version="1.0" encoding="UTF-8" standalone="no"?>
<!DOCTYPE svg PUBLIC "-//W3C//DTD SVG 1.1//EN"
 "http://www.w3.org/Graphics/SVG/1.1/DTD/svg11.dtd">
<!-- Generated by graphviz version 2.43.0 (0)
 -->
<!-- Title: klyqa_ctl.devices.light.commands.ColorCommand.check_values Pages: 1 -->
<svg width="707pt" height="127pt"
 viewBox="0.00 0.00 707.00 127.00" xmlns="http://www.w3.org/2000/svg" xmlns:xlink="http://www.w3.org/1999/xlink">
<g id="graph0" class="graph" transform="scale(1 1) rotate(0) translate(4 123)">
<title>klyqa_ctl.devices.light.commands.ColorCommand.check_values</title>
<polygon fill="white" stroke="transparent" points="-4,4 -4,-123 703,-123 703,4 -4,4"/>
<!-- Node1 -->
<g id="node1" class="node">
<title>Node1</title>
<g id="a_node1"><a xlink:title=" ">
<polygon fill="#bfbfbf" stroke="black" points="0,-44.5 0,-74.5 186,-74.5 186,-44.5 0,-44.5"/>
<text text-anchor="start" x="8" y="-62.5" font-family="Helvetica,sans-Serif" font-size="10.00">klyqa_ctl.devices.light.commands.</text>
<text text-anchor="middle" x="93" y="-51.5" font-family="Helvetica,sans-Serif" font-size="10.00">ColorCommand.check_values</text>
</a>
</g>
</g>
<!-- Node2 -->
<g id="node2" class="node">
<title>Node2</title>
<g id="a_node2"><a xlink:href="classklyqa__ctl_1_1devices_1_1light_1_1response__status_1_1ResponseStatus.html#a327c18fd6f8a38e75e1bbc2f895df592" target="_top" xlink:title=" ">
<polygon fill="white" stroke="black" points="247.5,-88.5 247.5,-118.5 420.5,-118.5 420.5,-88.5 247.5,-88.5"/>
<text text-anchor="start" x="255.5" y="-106.5" font-family="Helvetica,sans-Serif" font-size="10.00">klyqa_ctl.devices.light.response</text>
<text text-anchor="middle" x="334" y="-95.5" font-family="Helvetica,sans-Serif" font-size="10.00">_status.ResponseStatus.color</text>
</a>
</g>
</g>
<!-- Node1&#45;&gt;Node2 -->
<g id="edge1" class="edge">
<title>Node1&#45;&gt;Node2</title>
<path fill="none" stroke="midnightblue" d="M175.58,-74.52C196.81,-78.43 219.81,-82.66 241.51,-86.66"/>
<polygon fill="midnightblue" stroke="midnightblue" points="240.91,-90.11 251.38,-88.47 242.18,-83.22 240.91,-90.11"/>
</g>
<!-- Node3 -->
<g id="node3" class="node">
<title>Node3</title>
<g id="a_node3"><a xlink:href="namespaceklyqa__ctl_1_1devices_1_1light_1_1commands.html#abb5f7e9390b622da97654771e70c196d" target="_top" xlink:title=" ">
<polygon fill="white" stroke="black" points="482,-22.5 482,-52.5 699,-52.5 699,-22.5 482,-22.5"/>
<text text-anchor="start" x="490" y="-40.5" font-family="Helvetica,sans-Serif" font-size="10.00">klyqa_ctl.devices.light.commands.forced</text>
<text text-anchor="middle" x="590.5" y="-29.5" font-family="Helvetica,sans-Serif" font-size="10.00">_continue</text>
</a>
</g>
</g>
<!-- Node1&#45;&gt;Node3 -->
<g id="edge2" class="edge">
<title>Node1&#45;&gt;Node3</title>
<path fill="none" stroke="midnightblue" d="M186.04,-55.41C266.53,-51.84 383.91,-46.63 471.33,-42.75"/>
<polygon fill="midnightblue" stroke="midnightblue" points="471.73,-46.23 481.57,-42.29 471.42,-39.24 471.73,-46.23"/>
</g>
<!-- Node4 -->
<g id="node4" class="node">
<title>Node4</title>
<g id="a_node4"><a xlink:href="namespaceklyqa__ctl_1_1devices_1_1light_1_1commands.html#ae8e079eb20d1dc31176135131c4161f5" target="_top" xlink:title=" ">
<polygon fill="white" stroke="black" points="222,-0.5 222,-30.5 446,-30.5 446,-0.5 222,-0.5"/>
<text text-anchor="start" x="230" y="-18.5" font-family="Helvetica,sans-Serif" font-size="10.00">klyqa_ctl.devices.light.commands.missing</text>
<text text-anchor="middle" x="334" y="-7.5" font-family="Helvetica,sans-Serif" font-size="10.00">_config</text>
</a>
</g>
</g>
<!-- Node1&#45;&gt;Node4 -->
<g id="edge3" class="edge">
<title>Node1&#45;&gt;Node4</title>
<path fill="none" stroke="midnightblue" d="M175.58,-44.48C196.81,-40.57 219.81,-36.34 241.51,-32.34"/>
<polygon fill="midnightblue" stroke="midnightblue" points="242.18,-35.78 251.38,-30.53 240.91,-28.89 242.18,-35.78"/>
</g>
<!-- Node4&#45;&gt;Node3 -->
<g id="edge4" class="edge">
<title>Node4&#45;&gt;Node3</title>
<path fill="none" stroke="midnightblue" d="M446.26,-25.12C454.63,-25.84 463.09,-26.57 471.49,-27.3"/>
<polygon fill="midnightblue" stroke="midnightblue" points="471.45,-30.81 481.71,-28.18 472.05,-23.83 471.45,-30.81"/>
</g>
</g>
</svg>
