<?xml version="1.0" encoding="UTF-8" standalone="no"?>
<!DOCTYPE svg PUBLIC "-//W3C//DTD SVG 1.1//EN"
 "http://www.w3.org/Graphics/SVG/1.1/DTD/svg11.dtd">
<!-- Generated by graphviz version 2.43.0 (0)
 -->
<!-- Title: klyqa_ctl.devices.vacuum.general.VcSuctionStrengths Pages: 1 -->
<svg width="194pt" height="215pt"
 viewBox="0.00 0.00 194.00 215.00" xmlns="http://www.w3.org/2000/svg" xmlns:xlink="http://www.w3.org/1999/xlink">
<g id="graph0" class="graph" transform="scale(1 1) rotate(0) translate(4 211)">
<title>klyqa_ctl.devices.vacuum.general.VcSuctionStrengths</title>
<polygon fill="white" stroke="transparent" points="-4,4 -4,-211 190,-211 190,4 -4,4"/>
<!-- Node1 -->
<g id="node1" class="node">
<title>Node1</title>
<g id="a_node1"><a xlink:title=" ">
<polygon fill="#bfbfbf" stroke="black" points="0,-0.5 0,-112.5 186,-112.5 186,-0.5 0,-0.5"/>
<text text-anchor="start" x="8" y="-100.5" font-family="Helvetica,sans-Serif" font-size="10.00">klyqa_ctl.devices.vacuum.general.</text>
<text text-anchor="middle" x="93" y="-89.5" font-family="Helvetica,sans-Serif" font-size="10.00">VcSuctionStrengths</text>
<polyline fill="none" stroke="black" points="0,-82.5 186,-82.5 "/>
<text text-anchor="start" x="8" y="-70.5" font-family="Helvetica,sans-Serif" font-size="10.00">+ int NULL</text>
<text text-anchor="start" x="8" y="-59.5" font-family="Helvetica,sans-Serif" font-size="10.00">+ int STRONG</text>
<text text-anchor="start" x="8" y="-48.5" font-family="Helvetica,sans-Serif" font-size="10.00">+ int SMALL</text>
<text text-anchor="start" x="8" y="-37.5" font-family="Helvetica,sans-Serif" font-size="10.00">+ int NORMAL</text>
<text text-anchor="start" x="8" y="-26.5" font-family="Helvetica,sans-Serif" font-size="10.00">+ int MAX</text>
<polyline fill="none" stroke="black" points="0,-19.5 186,-19.5 "/>
<text text-anchor="middle" x="93" y="-7.5" font-family="Helvetica,sans-Serif" font-size="10.00"> </text>
</a>
</g>
</g>
<!-- Node2 -->
<g id="node2" class="node">
<title>Node2</title>
<g id="a_node2"><a xlink:title=" ">
<polygon fill="white" stroke="#bfbfbf" points="71,-149.5 71,-206.5 115,-206.5 115,-149.5 71,-149.5"/>
<text text-anchor="middle" x="93" y="-194.5" font-family="Helvetica,sans-Serif" font-size="10.00">Enum</text>
<polyline fill="none" stroke="#bfbfbf" points="71,-187.5 115,-187.5 "/>
<text text-anchor="middle" x="93" y="-175.5" font-family="Helvetica,sans-Serif" font-size="10.00"> </text>
<polyline fill="none" stroke="#bfbfbf" points="71,-168.5 115,-168.5 "/>
<text text-anchor="middle" x="93" y="-156.5" font-family="Helvetica,sans-Serif" font-size="10.00"> </text>
</a>
</g>
</g>
<!-- Node2&#45;&gt;Node1 -->
<g id="edge1" class="edge">
<title>Node2&#45;&gt;Node1</title>
<path fill="none" stroke="midnightblue" d="M93,-139.11C93,-130.75 93,-121.73 93,-112.83"/>
<polygon fill="none" stroke="midnightblue" points="89.5,-139.28 93,-149.28 96.5,-139.28 89.5,-139.28"/>
</g>
</g>
</svg>
