<?xml version="1.0" encoding="UTF-8" standalone="no"?>
<!DOCTYPE svg PUBLIC "-//W3C//DTD SVG 1.1//EN"
 "http://www.w3.org/Graphics/SVG/1.1/DTD/svg11.dtd">
<!-- Generated by graphviz version 2.43.0 (0)
 -->
<!-- Title: klyqa_ctl.general.message.MessageState Pages: 1 -->
<svg width="169pt" height="204pt"
 viewBox="0.00 0.00 168.50 204.00" xmlns="http://www.w3.org/2000/svg" xmlns:xlink="http://www.w3.org/1999/xlink">
<g id="graph0" class="graph" transform="scale(1 1) rotate(0) translate(4 200)">
<title>klyqa_ctl.general.message.MessageState</title>
<polygon fill="white" stroke="transparent" points="-4,4 -4,-200 164.5,-200 164.5,4 -4,4"/>
<!-- Node1 -->
<g id="node1" class="node">
<title>Node1</title>
<g id="a_node1"><a xlink:title=" ">
<polygon fill="#bfbfbf" stroke="black" points="0,-0.5 0,-68.5 151,-68.5 151,-0.5 0,-0.5"/>
<text text-anchor="start" x="8" y="-56.5" font-family="Helvetica,sans-Serif" font-size="10.00">klyqa_ctl.general.message.</text>
<text text-anchor="middle" x="75.5" y="-45.5" font-family="Helvetica,sans-Serif" font-size="10.00">MessageState</text>
<polyline fill="none" stroke="black" points="0,-38.5 151,-38.5 "/>
<text text-anchor="middle" x="75.5" y="-26.5" font-family="Helvetica,sans-Serif" font-size="10.00"> </text>
<polyline fill="none" stroke="black" points="0,-19.5 151,-19.5 "/>
<text text-anchor="middle" x="75.5" y="-7.5" font-family="Helvetica,sans-Serif" font-size="10.00"> </text>
</a>
</g>
</g>
<!-- Node2 -->
<g id="node2" class="node">
<title>Node2</title>
<g id="a_node2"><a xlink:title=" ">
<polygon fill="white" stroke="#bfbfbf" points="26.5,-138.5 26.5,-195.5 70.5,-195.5 70.5,-138.5 26.5,-138.5"/>
<text text-anchor="middle" x="48.5" y="-183.5" font-family="Helvetica,sans-Serif" font-size="10.00">Enum</text>
<polyline fill="none" stroke="#bfbfbf" points="26.5,-176.5 70.5,-176.5 "/>
<text text-anchor="middle" x="48.5" y="-164.5" font-family="Helvetica,sans-Serif" font-size="10.00"> </text>
<polyline fill="none" stroke="#bfbfbf" points="26.5,-157.5 70.5,-157.5 "/>
<text text-anchor="middle" x="48.5" y="-145.5" font-family="Helvetica,sans-Serif" font-size="10.00"> </text>
</a>
</g>
</g>
<!-- Node2&#45;&gt;Node1 -->
<g id="edge1" class="edge">
<title>Node2&#45;&gt;Node1</title>
<path fill="none" stroke="midnightblue" d="M56.3,-128.3C60.2,-109.45 64.87,-86.86 68.63,-68.68"/>
<polygon fill="none" stroke="midnightblue" points="52.82,-127.82 54.23,-138.32 59.68,-129.24 52.82,-127.82"/>
</g>
<!-- Node3 -->
<g id="node3" class="node">
<title>Node3</title>
<g id="a_node3"><a xlink:title=" ">
<polygon fill="white" stroke="#bfbfbf" points="89,-138.5 89,-195.5 118,-195.5 118,-138.5 89,-138.5"/>
<text text-anchor="middle" x="103.5" y="-183.5" font-family="Helvetica,sans-Serif" font-size="10.00">int</text>
<polyline fill="none" stroke="#bfbfbf" points="89,-176.5 118,-176.5 "/>
<text text-anchor="middle" x="103.5" y="-164.5" font-family="Helvetica,sans-Serif" font-size="10.00"> </text>
<polyline fill="none" stroke="#bfbfbf" points="89,-157.5 118,-157.5 "/>
<text text-anchor="middle" x="103.5" y="-145.5" font-family="Helvetica,sans-Serif" font-size="10.00"> </text>
</a>
</g>
</g>
<!-- Node3&#45;&gt;Node1 -->
<g id="edge2" class="edge">
<title>Node3&#45;&gt;Node1</title>
<path fill="none" stroke="#404040" d="M97.56,-138.32C93.96,-121.55 89.29,-99.75 85.16,-80.55"/>
<polygon fill="none" stroke="#404040" points="85.14,-80.42 79.97,-75.39 82.62,-68.68 87.79,-73.71 85.14,-80.42"/>
<text text-anchor="middle" x="126.5" y="-112" font-family="Helvetica,sans-Serif" font-size="10.00"> +ANSWERED</text>
<text text-anchor="middle" x="126.5" y="-101" font-family="Helvetica,sans-Serif" font-size="10.00">+SENT</text>
<text text-anchor="middle" x="126.5" y="-90" font-family="Helvetica,sans-Serif" font-size="10.00">+UNSENT</text>
</g>
</g>
</svg>
