<?xml version="1.0" encoding="UTF-8" standalone="no"?>
<!DOCTYPE svg PUBLIC "-//W3C//DTD SVG 1.1//EN"
 "http://www.w3.org/Graphics/SVG/1.1/DTD/svg11.dtd">
<!-- Generated by graphviz version 2.43.0 (0)
 -->
<!-- Title: local.connection_handler.LocalConnectionHandler.__tasks_done Pages: 1 -->
<svg width="551pt" height="75pt"
 viewBox="0.00 0.00 551.00 75.00" xmlns="http://www.w3.org/2000/svg" xmlns:xlink="http://www.w3.org/1999/xlink">
<g id="graph0" class="graph" transform="scale(1 1) rotate(0) translate(4 71)">
<title>local.connection_handler.LocalConnectionHandler.__tasks_done</title>
<polygon fill="white" stroke="transparent" points="-4,4 -4,-71 547,-71 547,4 -4,4"/>
<!-- Node1 -->
<g id="node1" class="node">
<title>Node1</title>
<g id="a_node1"><a xlink:title=" ">
<polygon fill="#bfbfbf" stroke="black" points="403,-0.5 403,-41.5 543,-41.5 543,-0.5 403,-0.5"/>
<text text-anchor="start" x="411" y="-29.5" font-family="Helvetica,sans-Serif" font-size="10.00">local.connection_handler.</text>
<text text-anchor="start" x="411" y="-18.5" font-family="Helvetica,sans-Serif" font-size="10.00">LocalConnectionHandler.</text>
<text text-anchor="middle" x="473" y="-7.5" font-family="Helvetica,sans-Serif" font-size="10.00">__tasks_done</text>
</a>
</g>
</g>
<!-- Node2 -->
<g id="node2" class="node">
<title>Node2</title>
<g id="a_node2"><a xlink:href="classlocal_1_1connection__handler_1_1LocalConnectionHandler.html#ac9063fb97f6994d217bbf2de54e52284" target="_top" xlink:title=" ">
<polygon fill="white" stroke="black" points="227,-25.5 227,-66.5 367,-66.5 367,-25.5 227,-25.5"/>
<text text-anchor="start" x="235" y="-54.5" font-family="Helvetica,sans-Serif" font-size="10.00">local.connection_handler.</text>
<text text-anchor="start" x="235" y="-43.5" font-family="Helvetica,sans-Serif" font-size="10.00">LocalConnectionHandler.</text>
<text text-anchor="middle" x="297" y="-32.5" font-family="Helvetica,sans-Serif" font-size="10.00">__tasks_done</text>
</a>
</g>
</g>
<!-- Node1&#45;&gt;Node2 -->
<g id="edge1" class="edge">
<title>Node1&#45;&gt;Node2</title>
<path fill="none" stroke="midnightblue" d="M392.97,-32.36C384.38,-33.59 375.68,-34.84 367.22,-36.05"/>
<polygon fill="midnightblue" stroke="midnightblue" points="393.58,-35.8 402.98,-30.92 392.58,-28.87 393.58,-35.8"/>
</g>
<!-- Node3 -->
<g id="node3" class="node">
<title>Node3</title>
<g id="a_node3"><a xlink:href="classlocal_1_1connection__handler_1_1LocalConnectionHandler.html#aefd29b1e670e7076b749f7f21b0dc290" target="_top" xlink:title=" ">
<polygon fill="white" stroke="black" points="0,-0.5 0,-41.5 191,-41.5 191,-0.5 0,-0.5"/>
<text text-anchor="start" x="8" y="-29.5" font-family="Helvetica,sans-Serif" font-size="10.00">local.connection_handler.</text>
<text text-anchor="start" x="8" y="-18.5" font-family="Helvetica,sans-Serif" font-size="10.00">LocalConnectionHandler.connection</text>
<text text-anchor="middle" x="95.5" y="-7.5" font-family="Helvetica,sans-Serif" font-size="10.00">_tasks_time_to_live</text>
</a>
</g>
</g>
<!-- Node1&#45;&gt;Node3 -->
<g id="edge3" class="edge">
<title>Node1&#45;&gt;Node3</title>
<path fill="none" stroke="midnightblue" d="M392.69,-16.82C384.02,-16.48 375.33,-16.2 367,-16 304.8,-14.52 289.21,-14.81 227,-16 215.44,-16.22 203.3,-16.55 191.29,-16.94"/>
<polygon fill="midnightblue" stroke="midnightblue" points="392.69,-20.32 402.83,-17.24 392.98,-13.33 392.69,-20.32"/>
</g>
<!-- Node2&#45;&gt;Node3 -->
<g id="edge2" class="edge">
<title>Node2&#45;&gt;Node3</title>
<path fill="none" stroke="midnightblue" d="M216.7,-36.06C208.33,-35.01 199.77,-33.94 191.25,-32.87"/>
<polygon fill="midnightblue" stroke="midnightblue" points="216.43,-39.56 226.78,-37.33 217.3,-32.61 216.43,-39.56"/>
</g>
</g>
</svg>
