<?xml version="1.0" encoding="UTF-8" standalone="no"?>
<!DOCTYPE svg PUBLIC "-//W3C//DTD SVG 1.1//EN"
 "http://www.w3.org/Graphics/SVG/1.1/DTD/svg11.dtd">
<!-- Generated by graphviz version 2.43.0 (0)
 -->
<!-- Title: klyqa_ctl.account.Account.cloud Pages: 1 -->
<!--zoomable 567 -->
<svg id="main" version="1.1" xmlns="http://www.w3.org/2000/svg" xmlns:xlink="http://www.w3.org/1999/xlink" xml:space="preserve" onload="init(evt)">
<style type="text/css"><![CDATA[
.edge:hover path { stroke: red; }
.edge:hover polygon { stroke: red; fill: red; }
]]></style>
<script type="text/javascript"><![CDATA[
var edges = document.getElementsByTagName('g');
if (edges && edges.length) {
  for (var i=0;i<edges.length;i++) {
    if (edges[i].id.substr(0,4)=='edge') {
      edges[i].setAttribute('class','edge');
    }
  }
}
]]></script>
        <defs>
                <circle id="rim" cx="0" cy="0" r="7"/>
                <circle id="rim2" cx="0" cy="0" r="3.5"/>
                <g id="zoomPlus">
                        <use xlink:href="#rim" fill="#404040">
                                <set attributeName="fill" to="#808080" begin="zoomplus.mouseover" end="zoomplus.mouseout"/>
                        </use>
                        <path d="M-4,0h8M0,-4v8" fill="none" stroke="white" stroke-width="1.5" pointer-events="none"/>
                </g>
                <g id="zoomMin">
                        <use xlink:href="#rim" fill="#404040">
                                <set attributeName="fill" to="#808080" begin="zoomminus.mouseover" end="zoomminus.mouseout"/>
                        </use>
                        <path d="M-4,0h8" fill="none" stroke="white" stroke-width="1.5" pointer-events="none"/>
                </g>
                <g id="dirArrow">
                        <path fill="none" stroke="white" stroke-width="1.5" d="M0,-3.0v7 M-2.5,-0.5L0,-3.0L2.5,-0.5"/>
                </g>
               <g id="resetDef">
                       <use xlink:href="#rim2" fill="#404040">
                               <set attributeName="fill" to="#808080" begin="reset.mouseover" end="reset.mouseout"/>
                       </use>
               </g>
        </defs>

<script type="text/javascript">
var viewWidth = 1284;
var viewHeight = 567;
var sectionId = 'dynsection-10';
</script>
<script xlink:href="svgpan.js"/>
<svg id="graph" class="graph">
<g id="viewport">
<title>klyqa_ctl.account.Account.cloud</title>
<polygon fill="white" stroke="transparent" points="-4,4 -4,-562.5 1280,-562.5 1280,4 -4,4"/>
<!-- Node1 -->
<g id="node1" class="node">
<title>Node1</title>
<g id="a_node1"><a xlink:title=" ">
<polygon fill="#bfbfbf" stroke="black" points="1103,-295.5 1103,-314.5 1276,-314.5 1276,-295.5 1103,-295.5"/>
<text text-anchor="middle" x="1189.5" y="-302.5" font-family="Helvetica,sans-Serif" font-size="10.00">klyqa_ctl.account.Account.cloud</text>
</a>
</g>
</g>
<!-- Node2 -->
<g id="node2" class="node">
<title>Node2</title>
<g id="a_node2"><a xlink:href="classklyqa__ctl_1_1klyqa__ctl_1_1Client.html#ab129f0608f5651109b893aed3671e00e" target="_top" xlink:title=" ">
<polygon fill="white" stroke="black" points="889.5,-528 889.5,-558 1050.5,-558 1050.5,-528 889.5,-528"/>
<text text-anchor="start" x="897.5" y="-546" font-family="Helvetica,sans-Serif" font-size="10.00">klyqa_ctl.klyqa_ctl.Client.add</text>
<text text-anchor="middle" x="970" y="-535" font-family="Helvetica,sans-Serif" font-size="10.00">_account</text>
</a>
</g>
</g>
<!-- Node1&#45;&gt;Node2 -->
<g id="edge1" class="edge">
<title>Node1&#45;&gt;Node2</title>
<path fill="none" stroke="midnightblue" d="M1182.65,-324.07C1169.14,-364.93 1131.87,-461.34 1067,-513 1059.35,-519.09 1050.45,-523.95 1041.22,-527.83"/>
<polygon fill="midnightblue" stroke="midnightblue" points="1185.99,-325.12 1185.7,-314.53 1179.32,-322.98 1185.99,-325.12"/>
</g>
<!-- Node3 -->
<g id="node3" class="node">
<title>Node3</title>
<g id="a_node3"><a xlink:href="classklyqa__ctl_1_1account_1_1Account.html#a19bd2d6d0ae6a4e738c4d40453557606" target="_top" xlink:title=" ">
<polygon fill="white" stroke="black" points="649,-213 649,-243 837,-243 837,-213 649,-213"/>
<text text-anchor="start" x="657" y="-231" font-family="Helvetica,sans-Serif" font-size="10.00">klyqa_ctl.account.Account.backend</text>
<text text-anchor="middle" x="743" y="-220" font-family="Helvetica,sans-Serif" font-size="10.00">_connected</text>
</a>
</g>
</g>
<!-- Node1&#45;&gt;Node3 -->
<g id="edge2" class="edge">
<title>Node1&#45;&gt;Node3</title>
<path fill="none" stroke="midnightblue" d="M1159.06,-291.32C1134.88,-280.7 1099.44,-266.55 1067,-259 990.87,-241.27 902.38,-233.65 837.3,-230.4"/>
<polygon fill="midnightblue" stroke="midnightblue" points="1157.82,-294.6 1168.38,-295.48 1160.68,-288.2 1157.82,-294.6"/>
</g>
<!-- Node4 -->
<g id="node4" class="node">
<title>Node4</title>
<g id="a_node4"><a xlink:href="classklyqa__ctl_1_1account_1_1Account.html#aa78870d05cc7fa5899d61733d124e885" target="_top" xlink:title=" ">
<polygon fill="white" stroke="black" points="210.5,-195 210.5,-225 389.5,-225 389.5,-195 210.5,-195"/>
<text text-anchor="start" x="218.5" y="-213" font-family="Helvetica,sans-Serif" font-size="10.00">klyqa_ctl.account.Account.device</text>
<text text-anchor="middle" x="300" y="-202" font-family="Helvetica,sans-Serif" font-size="10.00">_request_and_print</text>
</a>
</g>
</g>
<!-- Node1&#45;&gt;Node4 -->
<g id="edge5" class="edge">
<title>Node1&#45;&gt;Node4</title>
<path fill="none" stroke="midnightblue" d="M1169.54,-289C1146.8,-270.79 1106.74,-241.81 1067,-228 833.6,-146.9 535.62,-174.01 389.66,-195"/>
<polygon fill="midnightblue" stroke="midnightblue" points="1167.41,-291.78 1177.37,-295.39 1171.84,-286.35 1167.41,-291.78"/>
</g>
<!-- Node5 -->
<g id="node5" class="node">
<title>Node5</title>
<g id="a_node5"><a xlink:href="classklyqa__ctl_1_1account_1_1Account.html#a0b171a600e4342d035ad26c39b384b38" target="_top" xlink:title=" ">
<polygon fill="white" stroke="black" points="0,-445.5 0,-464.5 171,-464.5 171,-445.5 0,-445.5"/>
<text text-anchor="middle" x="85.5" y="-452.5" font-family="Helvetica,sans-Serif" font-size="10.00">klyqa_ctl.account.Account.login</text>
</a>
</g>
</g>
<!-- Node1&#45;&gt;Node5 -->
<g id="edge15" class="edge">
<title>Node1&#45;&gt;Node5</title>
<path fill="none" stroke="midnightblue" d="M1175.15,-322.65C1154.75,-348.35 1113.26,-395.75 1067,-421 937.37,-491.75 891.68,-499 744,-499 744,-499 744,-499 520,-499 380.63,-499 345.14,-498.43 207,-480 179.47,-476.33 148.82,-469.94 125.33,-464.54"/>
<polygon fill="midnightblue" stroke="midnightblue" points="1178.09,-324.58 1181.46,-314.54 1172.56,-320.28 1178.09,-324.58"/>
</g>
<!-- Node6 -->
<g id="node6" class="node">
<title>Node6</title>
<g id="a_node6"><a xlink:href="classklyqa__ctl_1_1account_1_1Account.html#ad608e3ee0ba1199f509e644a11081724" target="_top" xlink:title=" ">
<polygon fill="white" stroke="black" points="888.5,-268 888.5,-298 1051.5,-298 1051.5,-268 888.5,-268"/>
<text text-anchor="start" x="896.5" y="-286" font-family="Helvetica,sans-Serif" font-size="10.00">klyqa_ctl.account.Account.get</text>
<text text-anchor="middle" x="970" y="-275" font-family="Helvetica,sans-Serif" font-size="10.00">_beared_request_header</text>
</a>
</g>
</g>
<!-- Node1&#45;&gt;Node6 -->
<g id="edge6" class="edge">
<title>Node1&#45;&gt;Node6</title>
<path fill="none" stroke="midnightblue" d="M1092.88,-295.33C1079.11,-293.94 1065.05,-292.51 1051.6,-291.15"/>
<polygon fill="midnightblue" stroke="midnightblue" points="1092.55,-298.81 1102.85,-296.34 1093.25,-291.85 1092.55,-298.81"/>
</g>
<!-- Node7 -->
<g id="node7" class="node">
<title>Node7</title>
<g id="a_node7"><a xlink:href="classklyqa__ctl_1_1account_1_1Account.html#a73506bd234f8e819e138c2bd663179b8" target="_top" xlink:title=" ">
<polygon fill="white" stroke="black" points="651,-271 651,-301 835,-301 835,-271 651,-271"/>
<text text-anchor="start" x="659" y="-289" font-family="Helvetica,sans-Serif" font-size="10.00">klyqa_ctl.account.Account.request</text>
<text text-anchor="middle" x="743" y="-278" font-family="Helvetica,sans-Serif" font-size="10.00">_beared</text>
</a>
</g>
</g>
<!-- Node1&#45;&gt;Node7 -->
<g id="edge19" class="edge">
<title>Node1&#45;&gt;Node7</title>
<path fill="none" stroke="midnightblue" d="M1092.69,-307.59C1084,-307.75 1075.34,-307.9 1067,-308 980.78,-309.06 958.91,-315.27 873,-308 855.46,-306.51 836.71,-303.91 819.1,-301.01"/>
<polygon fill="midnightblue" stroke="midnightblue" points="1092.95,-311.08 1102.88,-307.38 1092.81,-304.08 1092.95,-311.08"/>
</g>
<!-- Node11 -->
<g id="node11" class="node">
<title>Node11</title>
<g id="a_node11"><a xlink:href="classklyqa__ctl_1_1account_1_1Account.html#af101070a97d556e95978748475933f72" target="_top" xlink:title=" ">
<polygon fill="white" stroke="black" points="430.5,-364 430.5,-394 611.5,-394 611.5,-364 430.5,-364"/>
<text text-anchor="start" x="438.5" y="-382" font-family="Helvetica,sans-Serif" font-size="10.00">klyqa_ctl.account.Account.update</text>
<text text-anchor="middle" x="521" y="-371" font-family="Helvetica,sans-Serif" font-size="10.00">_account_settings</text>
</a>
</g>
</g>
<!-- Node1&#45;&gt;Node11 -->
<g id="edge26" class="edge">
<title>Node1&#45;&gt;Node11</title>
<path fill="none" stroke="midnightblue" d="M1117.8,-316.02C1101.16,-318.46 1083.47,-320.93 1067,-323 907.03,-343.06 719.97,-361.1 611.83,-371.01"/>
<polygon fill="midnightblue" stroke="midnightblue" points="1118.63,-319.43 1128.01,-314.51 1117.6,-312.51 1118.63,-319.43"/>
</g>
<!-- Node12 -->
<g id="node12" class="node">
<title>Node12</title>
<g id="a_node12"><a xlink:href="classklyqa__ctl_1_1account_1_1Account.html#aeca1011f6c6e2f6bcdb2136ef48bc7fd" target="_top" xlink:title=" ">
<polygon fill="white" stroke="black" points="208,-378 208,-408 392,-408 392,-378 208,-378"/>
<text text-anchor="start" x="216" y="-396" font-family="Helvetica,sans-Serif" font-size="10.00">klyqa_ctl.account.Account.request</text>
<text text-anchor="middle" x="300" y="-385" font-family="Helvetica,sans-Serif" font-size="10.00">_account_settings_eco</text>
</a>
</g>
</g>
<!-- Node1&#45;&gt;Node12 -->
<g id="edge18" class="edge">
<title>Node1&#45;&gt;Node12</title>
<path fill="none" stroke="midnightblue" d="M1156.72,-318.39C1132.53,-328.06 1098.2,-340.65 1067,-348 789.94,-413.29 713.38,-416.2 429,-404 417.08,-403.49 404.55,-402.71 392.19,-401.8"/>
<polygon fill="midnightblue" stroke="midnightblue" points="1158.15,-321.59 1166.1,-314.59 1155.52,-315.1 1158.15,-321.59"/>
</g>
<!-- Node14 -->
<g id="node14" class="node">
<title>Node14</title>
<g id="a_node14"><a xlink:href="classklyqa__ctl_1_1account_1_1Account.html#acbc09f2b1b4cb6b7ed771b96ea79613b" target="_top" xlink:title=" ">
<polygon fill="white" stroke="black" points="207,-440 207,-470 393,-470 393,-440 207,-440"/>
<text text-anchor="start" x="215" y="-458" font-family="Helvetica,sans-Serif" font-size="10.00">klyqa_ctl.account.Account.perform</text>
<text text-anchor="middle" x="300" y="-447" font-family="Helvetica,sans-Serif" font-size="10.00">_login</text>
</a>
</g>
</g>
<!-- Node1&#45;&gt;Node14 -->
<g id="edge16" class="edge">
<title>Node1&#45;&gt;Node14</title>
<path fill="none" stroke="midnightblue" d="M1169.07,-320.99C1146.17,-338.93 1106.23,-367.42 1067,-382 836.12,-467.8 540.48,-467.88 393.11,-461.2"/>
<polygon fill="midnightblue" stroke="midnightblue" points="1171.35,-323.66 1176.98,-314.68 1166.98,-318.18 1171.35,-323.66"/>
</g>
<!-- Node15 -->
<g id="node15" class="node">
<title>Node15</title>
<g id="a_node15"><a xlink:href="classklyqa__ctl_1_1account_1_1Account.html#a6f7d45c2ee71e0c761145bea5084dda6" target="_top" xlink:title=" ">
<polygon fill="white" stroke="black" points="878,-106 878,-136 1062,-136 1062,-106 878,-106"/>
<text text-anchor="start" x="886" y="-124" font-family="Helvetica,sans-Serif" font-size="10.00">klyqa_ctl.account.Account.request</text>
<text text-anchor="middle" x="970" y="-113" font-family="Helvetica,sans-Serif" font-size="10.00">_device_configs_from_acc_sets</text>
</a>
</g>
</g>
<!-- Node1&#45;&gt;Node15 -->
<g id="edge20" class="edge">
<title>Node1&#45;&gt;Node15</title>
<path fill="none" stroke="midnightblue" d="M1178.9,-286.58C1161.15,-254.33 1120.13,-187.57 1067,-151 1058.15,-144.91 1048.02,-140.02 1037.72,-136.09"/>
<polygon fill="midnightblue" stroke="midnightblue" points="1175.83,-288.26 1183.65,-295.41 1181.99,-284.95 1175.83,-288.26"/>
</g>
<!-- Node17 -->
<g id="node17" class="node">
<title>Node17</title>
<g id="a_node17"><a xlink:href="classklyqa__ctl_1_1klyqa__ctl_1_1Client.html#ad5c42cd8dd34ed1d6329040e164bfc2e" target="_top" xlink:title=" ">
<polygon fill="white" stroke="black" points="887,-39 887,-69 1053,-69 1053,-39 887,-39"/>
<text text-anchor="start" x="895" y="-57" font-family="Helvetica,sans-Serif" font-size="10.00">klyqa_ctl.klyqa_ctl.Client.send</text>
<text text-anchor="middle" x="970" y="-46" font-family="Helvetica,sans-Serif" font-size="10.00">_to_devices</text>
</a>
</g>
</g>
<!-- Node1&#45;&gt;Node17 -->
<g id="edge22" class="edge">
<title>Node1&#45;&gt;Node17</title>
<path fill="none" stroke="midnightblue" d="M1181.87,-285.68C1167.18,-245.49 1128.29,-152.02 1067,-97 1053.55,-84.92 1036.14,-75.75 1019.85,-69.05"/>
<polygon fill="midnightblue" stroke="midnightblue" points="1178.65,-287.08 1185.3,-295.33 1185.25,-284.73 1178.65,-287.08"/>
</g>
<!-- Node19 -->
<g id="node19" class="node">
<title>Node19</title>
<g id="a_node19"><a xlink:href="classklyqa__ctl_1_1account_1_1Account.html#af0e05ae15ad46c4b1b3bbb69b6bb7151" target="_top" xlink:title=" ">
<polygon fill="white" stroke="black" points="873,-0.5 873,-19.5 1067,-19.5 1067,-0.5 873,-0.5"/>
<text text-anchor="middle" x="970" y="-7.5" font-family="Helvetica,sans-Serif" font-size="10.00">klyqa_ctl.account.Account.shutdown</text>
</a>
</g>
</g>
<!-- Node1&#45;&gt;Node19 -->
<g id="edge25" class="edge">
<title>Node1&#45;&gt;Node19</title>
<path fill="none" stroke="midnightblue" d="M1186.03,-285.19C1178.52,-233.97 1151.12,-96.43 1067,-29 1062.23,-25.17 1056.9,-22.05 1051.27,-19.5"/>
<polygon fill="midnightblue" stroke="midnightblue" points="1182.58,-285.83 1187.4,-295.27 1189.52,-284.88 1182.58,-285.83"/>
</g>
<!-- Node3&#45;&gt;Node4 -->
<g id="edge3" class="edge">
<title>Node3&#45;&gt;Node4</title>
<path fill="none" stroke="midnightblue" d="M647.17,-211.6C635.69,-210.12 624.1,-208.86 613,-208 537.79,-202.2 452.09,-203.31 389.56,-205.52"/>
<polygon fill="midnightblue" stroke="midnightblue" points="646.84,-215.09 657.21,-212.96 647.77,-208.15 646.84,-215.09"/>
</g>
<!-- Node4&#45;&gt;Node5 -->
<g id="edge4" class="edge">
<title>Node4&#45;&gt;Node5</title>
<path fill="none" stroke="midnightblue" d="M276.54,-232.35C257.57,-251.49 229.9,-280 207,-306 162.14,-356.93 112.26,-421.31 93.84,-445.36"/>
<polygon fill="midnightblue" stroke="midnightblue" points="279.04,-234.81 283.61,-225.25 274.07,-229.87 279.04,-234.81"/>
</g>
<!-- Node6&#45;&gt;Node7 -->
<g id="edge7" class="edge">
<title>Node6&#45;&gt;Node7</title>
<path fill="none" stroke="midnightblue" d="M878.17,-284.21C863.98,-284.4 849.32,-284.6 835.12,-284.79"/>
<polygon fill="midnightblue" stroke="midnightblue" points="878.45,-287.71 888.41,-284.07 878.36,-280.71 878.45,-287.71"/>
</g>
<!-- Node8 -->
<g id="node8" class="node">
<title>Node8</title>
<g id="a_node8"><a xlink:href="classklyqa__ctl_1_1account_1_1Account.html#a748c13aed7b2a5c9c605c81234633cb8" target="_top" xlink:title=" ">
<polygon fill="white" stroke="black" points="434.5,-315 434.5,-345 607.5,-345 607.5,-315 434.5,-315"/>
<text text-anchor="start" x="442.5" y="-333" font-family="Helvetica,sans-Serif" font-size="10.00">klyqa_ctl.account.Account.cloud</text>
<text text-anchor="middle" x="521" y="-322" font-family="Helvetica,sans-Serif" font-size="10.00">_post_to_device</text>
</a>
</g>
</g>
<!-- Node7&#45;&gt;Node8 -->
<g id="edge8" class="edge">
<title>Node7&#45;&gt;Node8</title>
<path fill="none" stroke="midnightblue" d="M657.01,-303C637.28,-306.94 616.41,-311.12 597.13,-314.97"/>
<polygon fill="midnightblue" stroke="midnightblue" points="657.78,-306.41 666.9,-301.02 656.41,-299.55 657.78,-306.41"/>
</g>
<!-- Node10 -->
<g id="node10" class="node">
<title>Node10</title>
<g id="a_node10"><a xlink:href="classklyqa__ctl_1_1account_1_1Account.html#a1450d1baa029967965be433e4efb5a6d" target="_top" xlink:title=" ">
<polygon fill="white" stroke="black" points="429,-217 429,-247 613,-247 613,-217 429,-217"/>
<text text-anchor="start" x="437" y="-235" font-family="Helvetica,sans-Serif" font-size="10.00">klyqa_ctl.account.Account.request</text>
<text text-anchor="middle" x="521" y="-224" font-family="Helvetica,sans-Serif" font-size="10.00">_cloud_device_state</text>
</a>
</g>
</g>
<!-- Node7&#45;&gt;Node10 -->
<g id="edge10" class="edge">
<title>Node7&#45;&gt;Node10</title>
<path fill="none" stroke="midnightblue" d="M670.91,-268.55C642.68,-261.62 610.52,-253.73 583.33,-247.05"/>
<polygon fill="midnightblue" stroke="midnightblue" points="670.17,-271.97 680.72,-270.96 671.84,-265.18 670.17,-271.97"/>
</g>
<!-- Node7&#45;&gt;Node11 -->
<g id="edge12" class="edge">
<title>Node7&#45;&gt;Node11</title>
<path fill="none" stroke="midnightblue" d="M708.75,-306.57C683.29,-321.63 646.89,-341.68 613,-355 604.64,-358.29 595.67,-361.27 586.74,-363.93"/>
<polygon fill="midnightblue" stroke="midnightblue" points="710.83,-309.41 717.61,-301.27 707.23,-303.4 710.83,-309.41"/>
</g>
<!-- Node13 -->
<g id="node13" class="node">
<title>Node13</title>
<g id="a_node13"><a xlink:href="classklyqa__ctl_1_1account_1_1Account.html#a4fb47c923d3a579054e8cc72480906fb" target="_top" xlink:title=" ">
<polygon fill="white" stroke="black" points="430.5,-266 430.5,-296 611.5,-296 611.5,-266 430.5,-266"/>
<text text-anchor="start" x="438.5" y="-284" font-family="Helvetica,sans-Serif" font-size="10.00">klyqa_ctl.account.Account.update</text>
<text text-anchor="middle" x="521" y="-273" font-family="Helvetica,sans-Serif" font-size="10.00">_device_configs</text>
</a>
</g>
</g>
<!-- Node7&#45;&gt;Node13 -->
<g id="edge14" class="edge">
<title>Node7&#45;&gt;Node13</title>
<path fill="none" stroke="midnightblue" d="M640.81,-283.7C631.06,-283.48 621.21,-283.25 611.59,-283.04"/>
<polygon fill="midnightblue" stroke="midnightblue" points="640.85,-287.2 650.93,-283.93 641.01,-280.2 640.85,-287.2"/>
</g>
<!-- Node9 -->
<g id="node9" class="node">
<title>Node9</title>
<g id="a_node9"><a xlink:href="classklyqa__ctl_1_1account_1_1Account.html#a372d813db2141719743dfe088dbe9552" target="_top" xlink:title=" ">
<polygon fill="white" stroke="black" points="213.5,-315 213.5,-345 386.5,-345 386.5,-315 213.5,-315"/>
<text text-anchor="start" x="221.5" y="-333" font-family="Helvetica,sans-Serif" font-size="10.00">klyqa_ctl.account.Account.cloud</text>
<text text-anchor="middle" x="300" y="-322" font-family="Helvetica,sans-Serif" font-size="10.00">_post_command_to_dev</text>
</a>
</g>
</g>
<!-- Node8&#45;&gt;Node9 -->
<g id="edge9" class="edge">
<title>Node8&#45;&gt;Node9</title>
<path fill="none" stroke="midnightblue" d="M424.36,-330C411.78,-330 398.95,-330 386.55,-330"/>
<polygon fill="midnightblue" stroke="midnightblue" points="424.39,-333.5 434.39,-330 424.39,-326.5 424.39,-333.5"/>
</g>
<!-- Node10&#45;&gt;Node4 -->
<g id="edge11" class="edge">
<title>Node10&#45;&gt;Node4</title>
<path fill="none" stroke="midnightblue" d="M418.67,-221.82C408.99,-220.85 399.23,-219.87 389.68,-218.91"/>
<polygon fill="midnightblue" stroke="midnightblue" points="418.41,-225.31 428.71,-222.83 419.11,-218.35 418.41,-225.31"/>
</g>
<!-- Node11&#45;&gt;Node12 -->
<g id="edge13" class="edge">
<title>Node11&#45;&gt;Node12</title>
<path fill="none" stroke="midnightblue" d="M420.25,-385.38C410.95,-385.97 401.56,-386.57 392.34,-387.16"/>
<polygon fill="midnightblue" stroke="midnightblue" points="420.54,-388.87 430.29,-384.73 420.09,-381.88 420.54,-388.87"/>
</g>
<!-- Node14&#45;&gt;Node5 -->
<g id="edge17" class="edge">
<title>Node14&#45;&gt;Node5</title>
<path fill="none" stroke="midnightblue" d="M196.48,-455C188.06,-455 179.6,-455 171.33,-455"/>
<polygon fill="midnightblue" stroke="midnightblue" points="196.72,-458.5 206.72,-455 196.72,-451.5 196.72,-458.5"/>
</g>
<!-- Node16 -->
<g id="node16" class="node">
<title>Node16</title>
<g id="a_node16"><a xlink:href="classklyqa__ctl_1_1account_1_1Account.html#a8e93f6fe918bf32c172447d4ef439d2d" target="_top" xlink:title=" ">
<polygon fill="white" stroke="black" points="658,-106 658,-136 828,-136 828,-106 658,-106"/>
<text text-anchor="start" x="666" y="-124" font-family="Helvetica,sans-Serif" font-size="10.00">klyqa_ctl.account.Account.sync</text>
<text text-anchor="middle" x="743" y="-113" font-family="Helvetica,sans-Serif" font-size="10.00">_acc_settings_to_controller</text>
</a>
</g>
</g>
<!-- Node15&#45;&gt;Node16 -->
<g id="edge21" class="edge">
<title>Node15&#45;&gt;Node16</title>
<path fill="none" stroke="midnightblue" d="M867.72,-121C854.46,-121 840.99,-121 828.06,-121"/>
<polygon fill="midnightblue" stroke="midnightblue" points="867.81,-124.5 877.81,-121 867.81,-117.5 867.81,-124.5"/>
</g>
<!-- Node17&#45;&gt;Node17 -->
<g id="edge23" class="edge">
<title>Node17&#45;&gt;Node17</title>
<path fill="none" stroke="midnightblue" d="M1008.74,-79.46C1003.93,-84.18 991.02,-87.5 970,-87.5 935.51,-87.5 922.85,-78.56 932.01,-69.16"/>
<polygon fill="midnightblue" stroke="midnightblue" points="1012.2,-78.88 1007.99,-69.16 1005.22,-79.39 1012.2,-78.88"/>
</g>
<!-- Node18 -->
<g id="node18" class="node">
<title>Node18</title>
<g id="a_node18"><a xlink:href="classklyqa__ctl_1_1klyqa__ctl_1_1Client.html#a7a93bda9f242d678a4208d0962837f11" target="_top" xlink:title=" ">
<polygon fill="white" stroke="black" points="660,-39 660,-69 826,-69 826,-39 660,-39"/>
<text text-anchor="start" x="668" y="-57" font-family="Helvetica,sans-Serif" font-size="10.00">klyqa_ctl.klyqa_ctl.Client.send</text>
<text text-anchor="middle" x="743" y="-46" font-family="Helvetica,sans-Serif" font-size="10.00">_to_devices_wrapped</text>
</a>
</g>
</g>
<!-- Node17&#45;&gt;Node18 -->
<g id="edge24" class="edge">
<title>Node17&#45;&gt;Node18</title>
<path fill="none" stroke="midnightblue" d="M876.55,-54C859.91,-54 842.67,-54 826.34,-54"/>
<polygon fill="midnightblue" stroke="midnightblue" points="876.81,-57.5 886.81,-54 876.81,-50.5 876.81,-57.5"/>
</g>
</g>
</svg>
        <g id="navigator" transform="translate(0 0)" fill="#404254">
                <rect fill="#f2f5e9" fill-opacity="0.5" stroke="#606060" stroke-width=".5" x="0" y="0" width="60" height="60"/>
                <use id="zoomplus" xlink:href="#zoomPlus" x="17" y="9" onmousedown="handleZoom(evt,'in')"/>
                <use id="zoomminus" xlink:href="#zoomMin" x="42" y="9" onmousedown="handleZoom(evt,'out')"/>
                <use id="reset" xlink:href="#resetDef" x="30" y="36" onmousedown="handleReset()"/>
                <g id="arrowUp" xlink:href="#dirArrow" transform="translate(30 24)" onmousedown="handlePan(0,-1)">
                  <use xlink:href="#rim" fill="#404040">
                        <set attributeName="fill" to="#808080" begin="arrowUp.mouseover" end="arrowUp.mouseout"/>
                  </use>
                  <path fill="none" stroke="white" stroke-width="1.5" d="M0,-3.0v7 M-2.5,-0.5L0,-3.0L2.5,-0.5"/>
                </g>
                <g id="arrowRight" xlink:href="#dirArrow" transform="rotate(90) translate(36 -43)" onmousedown="handlePan(1,0)">
                  <use xlink:href="#rim" fill="#404040">
                        <set attributeName="fill" to="#808080" begin="arrowRight.mouseover" end="arrowRight.mouseout"/>
                  </use>
                  <path fill="none" stroke="white" stroke-width="1.5" d="M0,-3.0v7 M-2.5,-0.5L0,-3.0L2.5,-0.5"/>
                </g>
                <g id="arrowDown" xlink:href="#dirArrow" transform="rotate(180) translate(-30 -48)" onmousedown="handlePan(0,1)">
                  <use xlink:href="#rim" fill="#404040">
                        <set attributeName="fill" to="#808080" begin="arrowDown.mouseover" end="arrowDown.mouseout"/>
                  </use>
                  <path fill="none" stroke="white" stroke-width="1.5" d="M0,-3.0v7 M-2.5,-0.5L0,-3.0L2.5,-0.5"/>
                </g>
                <g id="arrowLeft" xlink:href="#dirArrow" transform="rotate(270) translate(-36 17)" onmousedown="handlePan(-1,0)">
                  <use xlink:href="#rim" fill="#404040">
                        <set attributeName="fill" to="#808080" begin="arrowLeft.mouseover" end="arrowLeft.mouseout"/>
                  </use>
                  <path fill="none" stroke="white" stroke-width="1.5" d="M0,-3.0v7 M-2.5,-0.5L0,-3.0L2.5,-0.5"/>
                </g>
        </g>
        <svg viewBox="0 0 15 15" width="100%" height="30px" preserveAspectRatio="xMaxYMin meet">
         <g id="arrow_out" transform="scale(0.3 0.3)">
          <a xlink:href="classklyqa__ctl_1_1account_1_1Account_aca64ae054b0be49da2e7733012961429_icgraph_org.svg" target="_base">
           <rect id="button" ry="5" rx="5" y="6" x="6" height="38" width="38"
                fill="#f2f5e9" fill-opacity="0.5" stroke="#606060" stroke-width="1.0"/>
           <path id="arrow"
             d="M 11.500037,31.436501 C 11.940474,20.09759 22.043105,11.32322 32.158766,21.979434 L 37.068811,17.246167 C 37.068811,17.246167 37.088388,32 37.088388,32 L 22.160133,31.978069 C 22.160133,31.978069 26.997745,27.140456 26.997745,27.140456 C 18.528582,18.264221 13.291696,25.230495 11.500037,31.436501 z"
             style="fill:#404040;"/>
          </a>
         </g>
        </svg>
</svg>
