<?xml version="1.0" encoding="UTF-8" standalone="no"?>
<!DOCTYPE svg PUBLIC "-//W3C//DTD SVG 1.1//EN"
 "http://www.w3.org/Graphics/SVG/1.1/DTD/svg11.dtd">
<!-- Generated by graphviz version 2.43.0 (0)
 -->
<!-- Title: klyqa_ctl.account.Account.settings Pages: 1 -->
<svg width="634pt" height="176pt"
 viewBox="0.00 0.00 634.00 176.00" xmlns="http://www.w3.org/2000/svg" xmlns:xlink="http://www.w3.org/1999/xlink">
<g id="graph0" class="graph" transform="scale(1 1) rotate(0) translate(4 172)">
<title>klyqa_ctl.account.Account.settings</title>
<polygon fill="white" stroke="transparent" points="-4,4 -4,-172 630,-172 630,4 -4,4"/>
<!-- Node1 -->
<g id="node1" class="node">
<title>Node1</title>
<g id="a_node1"><a xlink:title=" ">
<polygon fill="#bfbfbf" stroke="black" points="440,-72 440,-91 626,-91 626,-72 440,-72"/>
<text text-anchor="middle" x="533" y="-79" font-family="Helvetica,sans-Serif" font-size="10.00">klyqa_ctl.account.Account.settings</text>
</a>
</g>
</g>
<!-- Node2 -->
<g id="node2" class="node">
<title>Node2</title>
<g id="a_node2"><a xlink:href="classklyqa__ctl_1_1account_1_1Account.html#af365113f9fdd0cf5e66f6e9ab427df78" target="_top" xlink:title=" ">
<polygon fill="white" stroke="black" points="227.5,-137.5 227.5,-167.5 396.5,-167.5 396.5,-137.5 227.5,-137.5"/>
<text text-anchor="start" x="235.5" y="-155.5" font-family="Helvetica,sans-Serif" font-size="10.00">klyqa_ctl.account.Account.read</text>
<text text-anchor="middle" x="312" y="-144.5" font-family="Helvetica,sans-Serif" font-size="10.00">_acc_settings_cache</text>
</a>
</g>
</g>
<!-- Node1&#45;&gt;Node2 -->
<g id="edge1" class="edge">
<title>Node1&#45;&gt;Node2</title>
<path fill="none" stroke="midnightblue" d="M498.56,-94.76C472.9,-104.69 436.49,-118.27 404,-128.5 394.18,-131.59 383.68,-134.61 373.44,-137.41"/>
<polygon fill="midnightblue" stroke="midnightblue" points="500.12,-97.91 508.17,-91.02 497.58,-91.39 500.12,-97.91"/>
</g>
<!-- Node3 -->
<g id="node3" class="node">
<title>Node3</title>
<g id="a_node3"><a xlink:href="classklyqa__ctl_1_1account_1_1Account.html#a6f7d45c2ee71e0c761145bea5084dda6" target="_top" xlink:title=" ">
<polygon fill="white" stroke="black" points="220,-88.5 220,-118.5 404,-118.5 404,-88.5 220,-88.5"/>
<text text-anchor="start" x="228" y="-106.5" font-family="Helvetica,sans-Serif" font-size="10.00">klyqa_ctl.account.Account.request</text>
<text text-anchor="middle" x="312" y="-95.5" font-family="Helvetica,sans-Serif" font-size="10.00">_device_configs_from_acc_sets</text>
</a>
</g>
</g>
<!-- Node1&#45;&gt;Node3 -->
<g id="edge2" class="edge">
<title>Node1&#45;&gt;Node3</title>
<path fill="none" stroke="midnightblue" d="M429.74,-91.77C421.18,-92.63 412.56,-93.5 404.08,-94.35"/>
<polygon fill="midnightblue" stroke="midnightblue" points="430.16,-95.25 439.76,-90.77 429.46,-88.28 430.16,-95.25"/>
</g>
<!-- Node4 -->
<g id="node4" class="node">
<title>Node4</title>
<g id="a_node4"><a xlink:href="classklyqa__ctl_1_1account_1_1Account.html#a8e93f6fe918bf32c172447d4ef439d2d" target="_top" xlink:title=" ">
<polygon fill="white" stroke="black" points="7,-68.5 7,-98.5 177,-98.5 177,-68.5 7,-68.5"/>
<text text-anchor="start" x="15" y="-86.5" font-family="Helvetica,sans-Serif" font-size="10.00">klyqa_ctl.account.Account.sync</text>
<text text-anchor="middle" x="92" y="-75.5" font-family="Helvetica,sans-Serif" font-size="10.00">_acc_settings_to_controller</text>
</a>
</g>
</g>
<!-- Node1&#45;&gt;Node4 -->
<g id="edge4" class="edge">
<title>Node1&#45;&gt;Node4</title>
<path fill="none" stroke="midnightblue" d="M429.84,-79.71C368.91,-78.92 290.03,-78.4 220,-79.5 206.1,-79.72 191.36,-80.07 177.02,-80.48"/>
<polygon fill="midnightblue" stroke="midnightblue" points="429.8,-83.2 439.84,-79.84 429.89,-76.21 429.8,-83.2"/>
</g>
<!-- Node5 -->
<g id="node5" class="node">
<title>Node5</title>
<g id="a_node5"><a xlink:href="classklyqa__ctl_1_1account_1_1Account.html#af101070a97d556e95978748475933f72" target="_top" xlink:title=" ">
<polygon fill="white" stroke="black" points="221.5,-0.5 221.5,-30.5 402.5,-30.5 402.5,-0.5 221.5,-0.5"/>
<text text-anchor="start" x="229.5" y="-18.5" font-family="Helvetica,sans-Serif" font-size="10.00">klyqa_ctl.account.Account.update</text>
<text text-anchor="middle" x="312" y="-7.5" font-family="Helvetica,sans-Serif" font-size="10.00">_account_settings</text>
</a>
</g>
</g>
<!-- Node1&#45;&gt;Node5 -->
<g id="edge5" class="edge">
<title>Node1&#45;&gt;Node5</title>
<path fill="none" stroke="midnightblue" d="M490.4,-68.96C454.2,-58.05 401.64,-42.21 363.13,-30.61"/>
<polygon fill="midnightblue" stroke="midnightblue" points="489.57,-72.37 500.16,-71.9 491.59,-65.67 489.57,-72.37"/>
</g>
<!-- Node3&#45;&gt;Node4 -->
<g id="edge3" class="edge">
<title>Node3&#45;&gt;Node4</title>
<path fill="none" stroke="midnightblue" d="M209.83,-94.22C198.92,-93.22 187.9,-92.21 177.21,-91.23"/>
<polygon fill="midnightblue" stroke="midnightblue" points="209.53,-97.71 219.81,-95.13 210.17,-90.74 209.53,-97.71"/>
</g>
<!-- Node6 -->
<g id="node6" class="node">
<title>Node6</title>
<g id="a_node6"><a xlink:href="classklyqa__ctl_1_1account_1_1Account.html#aeca1011f6c6e2f6bcdb2136ef48bc7fd" target="_top" xlink:title=" ">
<polygon fill="white" stroke="black" points="0,-0.5 0,-30.5 184,-30.5 184,-0.5 0,-0.5"/>
<text text-anchor="start" x="8" y="-18.5" font-family="Helvetica,sans-Serif" font-size="10.00">klyqa_ctl.account.Account.request</text>
<text text-anchor="middle" x="92" y="-7.5" font-family="Helvetica,sans-Serif" font-size="10.00">_account_settings_eco</text>
</a>
</g>
</g>
<!-- Node5&#45;&gt;Node6 -->
<g id="edge6" class="edge">
<title>Node5&#45;&gt;Node6</title>
<path fill="none" stroke="midnightblue" d="M211.21,-15.5C202.15,-15.5 193.01,-15.5 184.03,-15.5"/>
<polygon fill="midnightblue" stroke="midnightblue" points="211.39,-19 221.39,-15.5 211.39,-12 211.39,-19"/>
</g>
</g>
</svg>
