<?xml version="1.0" encoding="UTF-8" standalone="no"?>
<!DOCTYPE svg PUBLIC "-//W3C//DTD SVG 1.1//EN"
 "http://www.w3.org/Graphics/SVG/1.1/DTD/svg11.dtd">
<!-- Generated by graphviz version 2.43.0 (0)
 -->
<!-- Title: local.connection_handler.LocalConnectionHandler.bind_ports Pages: 1 -->
<svg width="814pt" height="134pt"
 viewBox="0.00 0.00 814.00 134.00" xmlns="http://www.w3.org/2000/svg" xmlns:xlink="http://www.w3.org/1999/xlink">
<g id="graph0" class="graph" transform="scale(1 1) rotate(0) translate(4 130)">
<title>local.connection_handler.LocalConnectionHandler.bind_ports</title>
<polygon fill="white" stroke="transparent" points="-4,4 -4,-130 810,-130 810,4 -4,4"/>
<!-- Node1 -->
<g id="node1" class="node">
<title>Node1</title>
<g id="a_node1"><a xlink:title=" ">
<polygon fill="#bfbfbf" stroke="black" points="618,-66 618,-96 806,-96 806,-66 618,-66"/>
<text text-anchor="start" x="626" y="-84" font-family="Helvetica,sans-Serif" font-size="10.00">local.connection_handler.</text>
<text text-anchor="middle" x="712" y="-73" font-family="Helvetica,sans-Serif" font-size="10.00">LocalConnectionHandler.bind_ports</text>
</a>
</g>
</g>
<!-- Node2 -->
<g id="node2" class="node">
<title>Node2</title>
<g id="a_node2"><a xlink:href="classlocal_1_1connection__handler_1_1LocalConnectionHandler.html#aa5d34422c7cb1784e408fef186a0b585" target="_top" xlink:title=" ">
<polygon fill="white" stroke="black" points="215,-84.5 215,-125.5 385,-125.5 385,-84.5 215,-84.5"/>
<text text-anchor="start" x="223" y="-113.5" font-family="Helvetica,sans-Serif" font-size="10.00">local.connection_handler.</text>
<text text-anchor="start" x="223" y="-102.5" font-family="Helvetica,sans-Serif" font-size="10.00">LocalConnectionHandler.handle</text>
<text text-anchor="middle" x="300" y="-91.5" font-family="Helvetica,sans-Serif" font-size="10.00">_connections</text>
</a>
</g>
</g>
<!-- Node1&#45;&gt;Node2 -->
<g id="edge1" class="edge">
<title>Node1&#45;&gt;Node2</title>
<path fill="none" stroke="midnightblue" d="M648.97,-98.45C627.89,-103.57 604.09,-108.47 582,-111 516.19,-118.55 441.16,-116.41 385.19,-112.73"/>
<polygon fill="midnightblue" stroke="midnightblue" points="649.9,-101.82 658.75,-96.01 648.21,-95.03 649.9,-101.82"/>
</g>
<!-- Node3 -->
<g id="node3" class="node">
<title>Node3</title>
<g id="a_node3"><a xlink:href="classlocal_1_1connection__handler_1_1LocalConnectionHandler.html#aa6b6ea4bb56f4c18b6906bab38c971a7" target="_top" xlink:title=" ">
<polygon fill="white" stroke="black" points="422,-60.5 422,-101.5 581,-101.5 581,-60.5 422,-60.5"/>
<text text-anchor="start" x="430" y="-89.5" font-family="Helvetica,sans-Serif" font-size="10.00">local.connection_handler.</text>
<text text-anchor="start" x="430" y="-78.5" font-family="Helvetica,sans-Serif" font-size="10.00">LocalConnectionHandler.read</text>
<text text-anchor="middle" x="501.5" y="-67.5" font-family="Helvetica,sans-Serif" font-size="10.00">_incoming_tcp_con_task</text>
</a>
</g>
</g>
<!-- Node1&#45;&gt;Node3 -->
<g id="edge2" class="edge">
<title>Node1&#45;&gt;Node3</title>
<path fill="none" stroke="midnightblue" d="M607.64,-81C598.7,-81 589.74,-81 581.04,-81"/>
<polygon fill="midnightblue" stroke="midnightblue" points="607.73,-84.5 617.73,-81 607.73,-77.5 607.73,-84.5"/>
</g>
<!-- Node4 -->
<g id="node4" class="node">
<title>Node4</title>
<g id="a_node4"><a xlink:href="classlocal_1_1connection__handler_1_1LocalConnectionHandler.html#a69a2aabf1a7bc94f925f914df5ceae10" target="_top" xlink:title=" ">
<polygon fill="white" stroke="black" points="421,-0.5 421,-41.5 582,-41.5 582,-0.5 421,-0.5"/>
<text text-anchor="start" x="429" y="-29.5" font-family="Helvetica,sans-Serif" font-size="10.00">local.connection_handler.</text>
<text text-anchor="start" x="429" y="-18.5" font-family="Helvetica,sans-Serif" font-size="10.00">LocalConnectionHandler.send</text>
<text text-anchor="middle" x="501.5" y="-7.5" font-family="Helvetica,sans-Serif" font-size="10.00">_udp_broadcast</text>
</a>
</g>
</g>
<!-- Node1&#45;&gt;Node4 -->
<g id="edge3" class="edge">
<title>Node1&#45;&gt;Node4</title>
<path fill="none" stroke="midnightblue" d="M648.77,-63.09C625.18,-56.3 598.14,-48.52 573.78,-41.51"/>
<polygon fill="midnightblue" stroke="midnightblue" points="648.08,-66.53 658.66,-65.94 650.01,-59.81 648.08,-66.53"/>
</g>
<!-- Node4&#45;&gt;Node2 -->
<g id="edge4" class="edge">
<title>Node4&#45;&gt;Node2</title>
<path fill="none" stroke="midnightblue" d="M435.35,-45.21C430.48,-47.13 425.65,-49.08 421,-51 395.56,-61.51 367.48,-74.09 344.88,-84.47"/>
<polygon fill="midnightblue" stroke="midnightblue" points="436.69,-48.44 444.73,-41.54 434.14,-41.92 436.69,-48.44"/>
</g>
<!-- Node5 -->
<g id="node5" class="node">
<title>Node5</title>
<g id="a_node5"><a xlink:href="classlocal_1_1connection__handler_1_1LocalConnectionHandler.html#aae9d106df606f3c68a146e0af7f60bba" target="_top" xlink:title=" ">
<polygon fill="white" stroke="black" points="219.5,-0.5 219.5,-41.5 380.5,-41.5 380.5,-0.5 219.5,-0.5"/>
<text text-anchor="start" x="227.5" y="-29.5" font-family="Helvetica,sans-Serif" font-size="10.00">local.connection_handler.</text>
<text text-anchor="start" x="227.5" y="-18.5" font-family="Helvetica,sans-Serif" font-size="10.00">LocalConnectionHandler.send</text>
<text text-anchor="middle" x="300" y="-7.5" font-family="Helvetica,sans-Serif" font-size="10.00">_message</text>
</a>
</g>
</g>
<!-- Node4&#45;&gt;Node5 -->
<g id="edge5" class="edge">
<title>Node4&#45;&gt;Node5</title>
<path fill="none" stroke="midnightblue" d="M410.78,-21C400.72,-21 390.51,-21 380.58,-21"/>
<polygon fill="midnightblue" stroke="midnightblue" points="410.79,-24.5 420.79,-21 410.79,-17.5 410.79,-24.5"/>
</g>
<!-- Node6 -->
<g id="node6" class="node">
<title>Node6</title>
<g id="a_node6"><a xlink:href="classlocal_1_1connection__handler_1_1LocalConnectionHandler.html#af714f4a1c0791c62d2d3990990a42cf4" target="_top" xlink:title=" ">
<polygon fill="white" stroke="black" points="0,-0.5 0,-41.5 179,-41.5 179,-0.5 0,-0.5"/>
<text text-anchor="start" x="8" y="-29.5" font-family="Helvetica,sans-Serif" font-size="10.00">local.connection_handler.</text>
<text text-anchor="start" x="8" y="-18.5" font-family="Helvetica,sans-Serif" font-size="10.00">LocalConnectionHandler.discover</text>
<text text-anchor="middle" x="89.5" y="-7.5" font-family="Helvetica,sans-Serif" font-size="10.00">_devices</text>
</a>
</g>
</g>
<!-- Node5&#45;&gt;Node6 -->
<g id="edge6" class="edge">
<title>Node5&#45;&gt;Node6</title>
<path fill="none" stroke="midnightblue" d="M209.05,-21C199.16,-21 189.09,-21 179.21,-21"/>
<polygon fill="midnightblue" stroke="midnightblue" points="209.28,-24.5 219.28,-21 209.28,-17.5 209.28,-24.5"/>
</g>
</g>
</svg>
