<?xml version="1.0" encoding="UTF-8" standalone="no"?>
<!DOCTYPE svg PUBLIC "-//W3C//DTD SVG 1.1//EN"
 "http://www.w3.org/Graphics/SVG/1.1/DTD/svg11.dtd">
<!-- Generated by graphviz version 2.43.0 (0)
 -->
<!-- Title: local.connection_handler.LocalConnectionHandler.controller_data Pages: 1 -->
<svg width="1524pt" height="412pt"
 viewBox="0.00 0.00 1524.00 412.00" xmlns="http://www.w3.org/2000/svg" xmlns:xlink="http://www.w3.org/1999/xlink">
<g id="graph0" class="graph" transform="scale(1 1) rotate(0) translate(4 408)">
<title>local.connection_handler.LocalConnectionHandler.controller_data</title>
<polygon fill="white" stroke="transparent" points="-4,4 -4,-408 1520,-408 1520,4 -4,4"/>
<!-- Node1 -->
<g id="node1" class="node">
<title>Node1</title>
<g id="a_node1"><a xlink:title=" ">
<polygon fill="#bfbfbf" stroke="black" points="1305,-192.5 1305,-222.5 1516,-222.5 1516,-192.5 1305,-192.5"/>
<text text-anchor="start" x="1313" y="-210.5" font-family="Helvetica,sans-Serif" font-size="10.00">local.connection_handler.</text>
<text text-anchor="middle" x="1410.5" y="-199.5" font-family="Helvetica,sans-Serif" font-size="10.00">LocalConnectionHandler.controller_data</text>
</a>
</g>
</g>
<!-- Node2 -->
<g id="node2" class="node">
<title>Node2</title>
<g id="a_node2"><a xlink:href="classklyqa__ctl_1_1local__controller_1_1LocalController.html#ad820bb0d181aeb158a3177323ee35cdf" target="_top" xlink:title=" ">
<polygon fill="white" stroke="black" points="861,-373.5 861,-403.5 1002,-403.5 1002,-373.5 861,-373.5"/>
<text text-anchor="start" x="869" y="-391.5" font-family="Helvetica,sans-Serif" font-size="10.00">klyqa_ctl.local_controller.</text>
<text text-anchor="middle" x="931.5" y="-380.5" font-family="Helvetica,sans-Serif" font-size="10.00">LocalController.__init__</text>
</a>
</g>
</g>
<!-- Node1&#45;&gt;Node2 -->
<g id="edge1" class="edge">
<title>Node1&#45;&gt;Node2</title>
<path fill="none" stroke="midnightblue" d="M1391.41,-231.13C1367.09,-261.01 1320.88,-311.56 1269,-336.5 1183.35,-377.66 1072.59,-387.64 1002.02,-389.36"/>
<polygon fill="midnightblue" stroke="midnightblue" points="1394.45,-232.93 1397.95,-222.93 1388.98,-228.56 1394.45,-232.93"/>
</g>
<!-- Node3 -->
<g id="node3" class="node">
<title>Node3</title>
<g id="a_node3"><a xlink:href="classcloud_1_1CloudBackend.html#a55182bd23ebf03d54d1754fffe7ca101" target="_top" xlink:title=" ">
<polygon fill="white" stroke="black" points="845,-335 845,-354 1018,-354 1018,-335 845,-335"/>
<text text-anchor="middle" x="931.5" y="-342" font-family="Helvetica,sans-Serif" font-size="10.00">cloud.CloudBackend.cloud_send</text>
</a>
</g>
</g>
<!-- Node1&#45;&gt;Node3 -->
<g id="edge2" class="edge">
<title>Node1&#45;&gt;Node3</title>
<path fill="none" stroke="midnightblue" d="M1385.69,-229.15C1359.27,-251.81 1314.35,-286.41 1269,-303.5 1187.49,-334.21 1087.76,-343.12 1018.12,-345.16"/>
<polygon fill="midnightblue" stroke="midnightblue" points="1388.04,-231.75 1393.27,-222.54 1383.44,-226.47 1388.04,-231.75"/>
</g>
<!-- Node4 -->
<g id="node4" class="node">
<title>Node4</title>
<g id="a_node4"><a xlink:href="classlocal_1_1connection__handler_1_1LocalConnectionHandler.html#ac7312a0c1fbe8ad9bcbd585e66e9e74c" target="_top" xlink:title=" ">
<polygon fill="white" stroke="black" points="1058,-236.5 1058,-266.5 1269,-266.5 1269,-236.5 1058,-236.5"/>
<text text-anchor="start" x="1066" y="-254.5" font-family="Helvetica,sans-Serif" font-size="10.00">local.connection_handler.</text>
<text text-anchor="middle" x="1163.5" y="-243.5" font-family="Helvetica,sans-Serif" font-size="10.00">LocalConnectionHandler.controller_data</text>
</a>
</g>
</g>
<!-- Node1&#45;&gt;Node4 -->
<g id="edge3" class="edge">
<title>Node1&#45;&gt;Node4</title>
<path fill="none" stroke="midnightblue" d="M1315.76,-224.34C1293.51,-228.33 1269.93,-232.57 1248.17,-236.47"/>
<polygon fill="midnightblue" stroke="midnightblue" points="1316.65,-227.73 1325.87,-222.52 1315.41,-220.84 1316.65,-227.73"/>
</g>
<!-- Node5 -->
<g id="node5" class="node">
<title>Node5</title>
<g id="a_node5"><a xlink:href="classcloud_1_1CloudBackend.html#a566850b368080b6ff85ee2675aa9b3e2" target="_top" xlink:title=" ">
<polygon fill="white" stroke="black" points="864.5,-285.5 864.5,-315.5 998.5,-315.5 998.5,-285.5 864.5,-285.5"/>
<text text-anchor="start" x="872.5" y="-303.5" font-family="Helvetica,sans-Serif" font-size="10.00">cloud.CloudBackend.get</text>
<text text-anchor="middle" x="931.5" y="-292.5" font-family="Helvetica,sans-Serif" font-size="10.00">_device_configs</text>
</a>
</g>
</g>
<!-- Node1&#45;&gt;Node5 -->
<g id="edge19" class="edge">
<title>Node1&#45;&gt;Node5</title>
<path fill="none" stroke="midnightblue" d="M1376.95,-228.01C1349.35,-244.26 1308.13,-265.93 1269,-276.5 1177.54,-301.21 1067.32,-304.27 998.56,-303.18"/>
<polygon fill="midnightblue" stroke="midnightblue" points="1378.98,-230.87 1385.76,-222.73 1375.38,-224.86 1378.98,-230.87"/>
</g>
<!-- Node6 -->
<g id="node6" class="node">
<title>Node6</title>
<g id="a_node6"><a xlink:href="classklyqa__ctl_1_1account_1_1Account.html#adad4d644a9bbb3633405dac89e86edd3" target="_top" xlink:title=" ">
<polygon fill="white" stroke="black" points="850,-197.5 850,-227.5 1013,-227.5 1013,-197.5 850,-197.5"/>
<text text-anchor="start" x="858" y="-215.5" font-family="Helvetica,sans-Serif" font-size="10.00">klyqa_ctl.account.Account.get</text>
<text text-anchor="middle" x="931.5" y="-204.5" font-family="Helvetica,sans-Serif" font-size="10.00">_or_create_device</text>
</a>
</g>
</g>
<!-- Node1&#45;&gt;Node6 -->
<g id="edge20" class="edge">
<title>Node1&#45;&gt;Node6</title>
<path fill="none" stroke="midnightblue" d="M1294.64,-208.7C1207.72,-209.62 1090.51,-210.84 1013.28,-211.65"/>
<polygon fill="midnightblue" stroke="midnightblue" points="1294.86,-212.2 1304.82,-208.6 1294.78,-205.2 1294.86,-212.2"/>
</g>
<!-- Node7 -->
<g id="node7" class="node">
<title>Node7</title>
<g id="a_node7"><a xlink:href="classklyqa__ctl_1_1account_1_1Account.html#a8e93f6fe918bf32c172447d4ef439d2d" target="_top" xlink:title=" ">
<polygon fill="white" stroke="black" points="627,-197.5 627,-227.5 797,-227.5 797,-197.5 627,-197.5"/>
<text text-anchor="start" x="635" y="-215.5" font-family="Helvetica,sans-Serif" font-size="10.00">klyqa_ctl.account.Account.sync</text>
<text text-anchor="middle" x="712" y="-204.5" font-family="Helvetica,sans-Serif" font-size="10.00">_acc_settings_to_controller</text>
</a>
</g>
</g>
<!-- Node1&#45;&gt;Node7 -->
<g id="edge23" class="edge">
<title>Node1&#45;&gt;Node7</title>
<path fill="none" stroke="midnightblue" d="M1359.6,-189.17C1259.58,-155.12 1028.13,-89.89 841,-139.5 798.72,-150.71 755.81,-179.52 731.98,-197.41"/>
<polygon fill="midnightblue" stroke="midnightblue" points="1358.55,-192.51 1369.15,-192.47 1360.83,-185.9 1358.55,-192.51"/>
</g>
<!-- Node8 -->
<g id="node8" class="node">
<title>Node8</title>
<g id="a_node8"><a xlink:href="classlocal_1_1connection__handler_1_1LocalConnectionHandler.html#a4ce11db96280d000941a91cb37df2842" target="_top" xlink:title=" ">
<polygon fill="white" stroke="black" points="844,-50 844,-91 1019,-91 1019,-50 844,-50"/>
<text text-anchor="start" x="852" y="-79" font-family="Helvetica,sans-Serif" font-size="10.00">local.connection_handler.</text>
<text text-anchor="start" x="852" y="-68" font-family="Helvetica,sans-Serif" font-size="10.00">LocalConnectionHandler.process</text>
<text text-anchor="middle" x="931.5" y="-57" font-family="Helvetica,sans-Serif" font-size="10.00">_device_identity_package</text>
</a>
</g>
</g>
<!-- Node1&#45;&gt;Node8 -->
<g id="edge21" class="edge">
<title>Node1&#45;&gt;Node8</title>
<path fill="none" stroke="midnightblue" d="M1386.87,-185.11C1360.85,-160.9 1315.68,-123.38 1269,-105.5 1188.1,-74.51 1088.71,-67.61 1019,-67.33"/>
<polygon fill="midnightblue" stroke="midnightblue" points="1384.64,-187.82 1394.31,-192.16 1389.46,-182.74 1384.64,-187.82"/>
</g>
<!-- Node13 -->
<g id="node13" class="node">
<title>Node13</title>
<g id="a_node13"><a xlink:href="classklyqa__ctl_1_1account_1_1Account.html#a5ab3a2f4382c4437255871d4296cee9a" target="_top" xlink:title=" ">
<polygon fill="white" stroke="black" points="850,-0.5 850,-30.5 1013,-30.5 1013,-0.5 850,-0.5"/>
<text text-anchor="start" x="858" y="-18.5" font-family="Helvetica,sans-Serif" font-size="10.00">klyqa_ctl.account.Account.run</text>
<text text-anchor="middle" x="931.5" y="-7.5" font-family="Helvetica,sans-Serif" font-size="10.00">_password_prompt</text>
</a>
</g>
</g>
<!-- Node1&#45;&gt;Node13 -->
<g id="edge22" class="edge">
<title>Node1&#45;&gt;Node13</title>
<path fill="none" stroke="midnightblue" d="M1393.8,-183.7C1370.72,-150.87 1324.33,-92.56 1269,-64.5 1188.58,-23.71 1084.32,-14.15 1013.31,-13.08"/>
<polygon fill="midnightblue" stroke="midnightblue" points="1391.13,-185.99 1399.68,-192.24 1396.89,-182.02 1391.13,-185.99"/>
</g>
<!-- Node16 -->
<g id="node16" class="node">
<title>Node16</title>
<g id="a_node16"><a xlink:href="classklyqa__ctl_1_1account_1_1Account.html#a4fb47c923d3a579054e8cc72480906fb" target="_top" xlink:title=" ">
<polygon fill="white" stroke="black" points="841,-148.5 841,-178.5 1022,-178.5 1022,-148.5 841,-148.5"/>
<text text-anchor="start" x="849" y="-166.5" font-family="Helvetica,sans-Serif" font-size="10.00">klyqa_ctl.account.Account.update</text>
<text text-anchor="middle" x="931.5" y="-155.5" font-family="Helvetica,sans-Serif" font-size="10.00">_device_configs</text>
</a>
</g>
</g>
<!-- Node1&#45;&gt;Node16 -->
<g id="edge24" class="edge">
<title>Node1&#45;&gt;Node16</title>
<path fill="none" stroke="midnightblue" d="M1294.76,-196.92C1211.07,-189.2 1099.26,-178.88 1022.1,-171.77"/>
<polygon fill="midnightblue" stroke="midnightblue" points="1294.54,-200.41 1304.82,-197.84 1295.18,-193.44 1294.54,-200.41"/>
</g>
<!-- Node4&#45;&gt;Node2 -->
<g id="edge4" class="edge">
<title>Node4&#45;&gt;Node2</title>
<path fill="none" stroke="midnightblue" d="M1140.49,-273.8C1114.4,-299.03 1068.56,-339.69 1022,-363.5 1014.53,-367.32 1006.4,-370.62 998.19,-373.45"/>
<polygon fill="midnightblue" stroke="midnightblue" points="1143.24,-276 1147.93,-266.5 1138.34,-271.01 1143.24,-276"/>
</g>
<!-- Node4&#45;&gt;Node3 -->
<g id="edge5" class="edge">
<title>Node4&#45;&gt;Node3</title>
<path fill="none" stroke="midnightblue" d="M1129.71,-272.11C1101.97,-288.71 1060.67,-311.52 1022,-325.5 1011.54,-329.28 1000.11,-332.42 989.02,-334.97"/>
<polygon fill="midnightblue" stroke="midnightblue" points="1131.83,-274.91 1138.57,-266.74 1128.21,-268.93 1131.83,-274.91"/>
</g>
<!-- Node4&#45;&gt;Node5 -->
<g id="edge6" class="edge">
<title>Node4&#45;&gt;Node5</title>
<path fill="none" stroke="midnightblue" d="M1082.03,-268.64C1054.76,-274.45 1024.64,-280.87 998.62,-286.41"/>
<polygon fill="midnightblue" stroke="midnightblue" points="1082.88,-272.04 1091.93,-266.53 1081.42,-265.2 1082.88,-272.04"/>
</g>
<!-- Node4&#45;&gt;Node6 -->
<g id="edge7" class="edge">
<title>Node4&#45;&gt;Node6</title>
<path fill="none" stroke="midnightblue" d="M1063.98,-234.8C1047.02,-231.92 1029.57,-228.96 1013.14,-226.17"/>
<polygon fill="midnightblue" stroke="midnightblue" points="1063.46,-238.26 1073.9,-236.48 1064.63,-231.35 1063.46,-238.26"/>
</g>
<!-- Node4&#45;&gt;Node7 -->
<g id="edge17" class="edge">
<title>Node4&#45;&gt;Node7</title>
<path fill="none" stroke="midnightblue" d="M1047.81,-250.66C986.3,-249.16 909.32,-245.61 841,-237.5 820.99,-235.12 799.42,-231.38 779.8,-227.5"/>
<polygon fill="midnightblue" stroke="midnightblue" points="1047.85,-254.16 1057.93,-250.89 1048.01,-247.16 1047.85,-254.16"/>
</g>
<!-- Node4&#45;&gt;Node8 -->
<g id="edge9" class="edge">
<title>Node4&#45;&gt;Node8</title>
<path fill="none" stroke="midnightblue" d="M1135.67,-229.9C1107.47,-207.25 1061.77,-170.68 1022,-139.5 1001.16,-123.16 977.41,-104.86 959.61,-91.22"/>
<polygon fill="midnightblue" stroke="midnightblue" points="1133.5,-232.65 1143.49,-236.18 1137.89,-227.19 1133.5,-232.65"/>
</g>
<!-- Node4&#45;&gt;Node13 -->
<g id="edge14" class="edge">
<title>Node4&#45;&gt;Node13</title>
<path fill="none" stroke="midnightblue" d="M1152.98,-226.91C1134.59,-182.69 1089.9,-89.79 1022,-40.5 1016.65,-36.61 1010.71,-33.33 1004.52,-30.56"/>
<polygon fill="midnightblue" stroke="midnightblue" points="1149.79,-228.36 1156.8,-236.31 1156.28,-225.73 1149.79,-228.36"/>
</g>
<!-- Node4&#45;&gt;Node16 -->
<g id="edge18" class="edge">
<title>Node4&#45;&gt;Node16</title>
<path fill="none" stroke="midnightblue" d="M1123.33,-232.04C1095.5,-218.69 1057.01,-201.16 1022,-188.5 1012.14,-184.93 1001.51,-181.57 991.15,-178.53"/>
<polygon fill="midnightblue" stroke="midnightblue" points="1121.82,-235.2 1132.34,-236.4 1124.86,-228.89 1121.82,-235.2"/>
</g>
<!-- Node6&#45;&gt;Node7 -->
<g id="edge8" class="edge">
<title>Node6&#45;&gt;Node7</title>
<path fill="none" stroke="midnightblue" d="M839.66,-212.5C825.59,-212.5 811.11,-212.5 797.19,-212.5"/>
<polygon fill="midnightblue" stroke="midnightblue" points="839.82,-216 849.82,-212.5 839.82,-209 839.82,-216"/>
</g>
<!-- Node9 -->
<g id="node9" class="node">
<title>Node9</title>
<g id="a_node9"><a xlink:href="classlocal_1_1connection__handler_1_1LocalConnectionHandler.html#aaa28266e241c2e30e8acd468fab06fde" target="_top" xlink:title=" ">
<polygon fill="white" stroke="black" points="624.5,-50 624.5,-91 799.5,-91 799.5,-50 624.5,-50"/>
<text text-anchor="start" x="632.5" y="-79" font-family="Helvetica,sans-Serif" font-size="10.00">local.connection_handler.</text>
<text text-anchor="start" x="632.5" y="-68" font-family="Helvetica,sans-Serif" font-size="10.00">LocalConnectionHandler.process</text>
<text text-anchor="middle" x="712" y="-57" font-family="Helvetica,sans-Serif" font-size="10.00">_tcp_package</text>
</a>
</g>
</g>
<!-- Node8&#45;&gt;Node9 -->
<g id="edge10" class="edge">
<title>Node8&#45;&gt;Node9</title>
<path fill="none" stroke="midnightblue" d="M833.59,-70.5C822.28,-70.5 810.8,-70.5 799.64,-70.5"/>
<polygon fill="midnightblue" stroke="midnightblue" points="833.91,-74 843.91,-70.5 833.91,-67 833.91,-74"/>
</g>
<!-- Node10 -->
<g id="node10" class="node">
<title>Node10</title>
<g id="a_node10"><a xlink:href="classlocal_1_1connection__handler_1_1LocalConnectionHandler.html#a900e05554022ee9ecb3ba5621369016d" target="_top" xlink:title=" ">
<polygon fill="white" stroke="black" points="412.5,-50 412.5,-91 582.5,-91 582.5,-50 412.5,-50"/>
<text text-anchor="start" x="420.5" y="-79" font-family="Helvetica,sans-Serif" font-size="10.00">local.connection_handler.</text>
<text text-anchor="start" x="420.5" y="-68" font-family="Helvetica,sans-Serif" font-size="10.00">LocalConnectionHandler.handle</text>
<text text-anchor="middle" x="497.5" y="-57" font-family="Helvetica,sans-Serif" font-size="10.00">_connection</text>
</a>
</g>
</g>
<!-- Node9&#45;&gt;Node10 -->
<g id="edge11" class="edge">
<title>Node9&#45;&gt;Node10</title>
<path fill="none" stroke="midnightblue" d="M614.19,-70.5C603.63,-70.5 592.95,-70.5 582.56,-70.5"/>
<polygon fill="midnightblue" stroke="midnightblue" points="614.26,-74 624.26,-70.5 614.26,-67 614.26,-74"/>
</g>
<!-- Node11 -->
<g id="node11" class="node">
<title>Node11</title>
<g id="a_node11"><a xlink:href="classlocal_1_1connection__handler_1_1LocalConnectionHandler.html#a0b582d0bf1523d1d0404867ab921539f" target="_top" xlink:title=" ">
<polygon fill="white" stroke="black" points="206,-50 206,-91 376,-91 376,-50 206,-50"/>
<text text-anchor="start" x="214" y="-79" font-family="Helvetica,sans-Serif" font-size="10.00">local.connection_handler.</text>
<text text-anchor="start" x="214" y="-68" font-family="Helvetica,sans-Serif" font-size="10.00">LocalConnectionHandler.device</text>
<text text-anchor="middle" x="291" y="-57" font-family="Helvetica,sans-Serif" font-size="10.00">_handle_local_tcp</text>
</a>
</g>
</g>
<!-- Node10&#45;&gt;Node11 -->
<g id="edge12" class="edge">
<title>Node10&#45;&gt;Node11</title>
<path fill="none" stroke="midnightblue" d="M402.24,-70.5C393.51,-70.5 384.7,-70.5 376.07,-70.5"/>
<polygon fill="midnightblue" stroke="midnightblue" points="402.44,-74 412.44,-70.5 402.44,-67 402.44,-74"/>
</g>
<!-- Node12 -->
<g id="node12" class="node">
<title>Node12</title>
<g id="a_node12"><a xlink:href="classlocal_1_1connection__handler_1_1LocalConnectionHandler.html#a5e9277acd0b7bfa5a1e74417e0e10d86" target="_top" xlink:title=" ">
<polygon fill="white" stroke="black" points="0,-50 0,-91 170,-91 170,-50 0,-50"/>
<text text-anchor="start" x="8" y="-79" font-family="Helvetica,sans-Serif" font-size="10.00">local.connection_handler.</text>
<text text-anchor="start" x="8" y="-68" font-family="Helvetica,sans-Serif" font-size="10.00">LocalConnectionHandler.handle</text>
<text text-anchor="middle" x="85" y="-57" font-family="Helvetica,sans-Serif" font-size="10.00">_incoming_tcp_connection</text>
</a>
</g>
</g>
<!-- Node11&#45;&gt;Node12 -->
<g id="edge13" class="edge">
<title>Node11&#45;&gt;Node12</title>
<path fill="none" stroke="midnightblue" d="M195.6,-70.5C187.15,-70.5 178.64,-70.5 170.29,-70.5"/>
<polygon fill="midnightblue" stroke="midnightblue" points="195.85,-74 205.85,-70.5 195.85,-67 195.85,-74"/>
</g>
<!-- Node14 -->
<g id="node14" class="node">
<title>Node14</title>
<g id="a_node14"><a xlink:href="classklyqa__ctl_1_1account_1_1Account.html#acbc09f2b1b4cb6b7ed771b96ea79613b" target="_top" xlink:title=" ">
<polygon fill="white" stroke="black" points="619,-0.5 619,-30.5 805,-30.5 805,-0.5 619,-0.5"/>
<text text-anchor="start" x="627" y="-18.5" font-family="Helvetica,sans-Serif" font-size="10.00">klyqa_ctl.account.Account.perform</text>
<text text-anchor="middle" x="712" y="-7.5" font-family="Helvetica,sans-Serif" font-size="10.00">_login</text>
</a>
</g>
</g>
<!-- Node13&#45;&gt;Node14 -->
<g id="edge15" class="edge">
<title>Node13&#45;&gt;Node14</title>
<path fill="none" stroke="midnightblue" d="M839.52,-15.5C828.2,-15.5 816.62,-15.5 805.28,-15.5"/>
<polygon fill="midnightblue" stroke="midnightblue" points="839.82,-19 849.82,-15.5 839.82,-12 839.82,-19"/>
</g>
<!-- Node15 -->
<g id="node15" class="node">
<title>Node15</title>
<g id="a_node15"><a xlink:href="classklyqa__ctl_1_1account_1_1Account.html#a0b171a600e4342d035ad26c39b384b38" target="_top" xlink:title=" ">
<polygon fill="white" stroke="black" points="412,-6 412,-25 583,-25 583,-6 412,-6"/>
<text text-anchor="middle" x="497.5" y="-13" font-family="Helvetica,sans-Serif" font-size="10.00">klyqa_ctl.account.Account.login</text>
</a>
</g>
</g>
<!-- Node14&#45;&gt;Node15 -->
<g id="edge16" class="edge">
<title>Node14&#45;&gt;Node15</title>
<path fill="none" stroke="midnightblue" d="M608.48,-15.5C600.06,-15.5 591.6,-15.5 583.33,-15.5"/>
<polygon fill="midnightblue" stroke="midnightblue" points="608.72,-19 618.72,-15.5 608.72,-12 608.72,-19"/>
</g>
</g>
</svg>
