<?xml version="1.0" encoding="UTF-8" standalone="no"?>
<!DOCTYPE svg PUBLIC "-//W3C//DTD SVG 1.1//EN"
 "http://www.w3.org/Graphics/SVG/1.1/DTD/svg11.dtd">
<!-- Generated by graphviz version 2.43.0 (0)
 -->
<!-- Title: local.connection_handler.LocalConnectionHandler.controller_data Pages: 1 -->
<!--zoomable 398 -->
<svg id="main" version="1.1" xmlns="http://www.w3.org/2000/svg" xmlns:xlink="http://www.w3.org/1999/xlink" xml:space="preserve" onload="init(evt)">
<style type="text/css"><![CDATA[
.edge:hover path { stroke: red; }
.edge:hover polygon { stroke: red; fill: red; }
]]></style>
<script type="text/javascript"><![CDATA[
var edges = document.getElementsByTagName('g');
if (edges && edges.length) {
  for (var i=0;i<edges.length;i++) {
    if (edges[i].id.substr(0,4)=='edge') {
      edges[i].setAttribute('class','edge');
    }
  }
}
]]></script>
        <defs>
                <circle id="rim" cx="0" cy="0" r="7"/>
                <circle id="rim2" cx="0" cy="0" r="3.5"/>
                <g id="zoomPlus">
                        <use xlink:href="#rim" fill="#404040">
                                <set attributeName="fill" to="#808080" begin="zoomplus.mouseover" end="zoomplus.mouseout"/>
                        </use>
                        <path d="M-4,0h8M0,-4v8" fill="none" stroke="white" stroke-width="1.5" pointer-events="none"/>
                </g>
                <g id="zoomMin">
                        <use xlink:href="#rim" fill="#404040">
                                <set attributeName="fill" to="#808080" begin="zoomminus.mouseover" end="zoomminus.mouseout"/>
                        </use>
                        <path d="M-4,0h8" fill="none" stroke="white" stroke-width="1.5" pointer-events="none"/>
                </g>
                <g id="dirArrow">
                        <path fill="none" stroke="white" stroke-width="1.5" d="M0,-3.0v7 M-2.5,-0.5L0,-3.0L2.5,-0.5"/>
                </g>
               <g id="resetDef">
                       <use xlink:href="#rim2" fill="#404040">
                               <set attributeName="fill" to="#808080" begin="reset.mouseover" end="reset.mouseout"/>
                       </use>
               </g>
        </defs>

<script type="text/javascript">
var viewWidth = 1524;
var viewHeight = 398;
var sectionId = 'dynsection-11';
</script>
<script xlink:href="svgpan.js"/>
<svg id="graph" class="graph">
<g id="viewport">
<title>local.connection_handler.LocalConnectionHandler.controller_data</title>
<polygon fill="white" stroke="transparent" points="-4,4 -4,-394.41 1520,-394.41 1520,4 -4,4"/>
<!-- Node1 -->
<g id="node1" class="node">
<title>Node1</title>
<g id="a_node1"><a xlink:title=" ">
<polygon fill="#bfbfbf" stroke="black" points="1305,-190.5 1305,-220.5 1516,-220.5 1516,-190.5 1305,-190.5"/>
<text text-anchor="start" x="1313" y="-208.5" font-family="Helvetica,sans-Serif" font-size="10.00">local.connection_handler.</text>
<text text-anchor="middle" x="1410.5" y="-197.5" font-family="Helvetica,sans-Serif" font-size="10.00">LocalConnectionHandler.controller_data</text>
</a>
</g>
</g>
<!-- Node2 -->
<g id="node2" class="node">
<title>Node2</title>
<g id="a_node2"><a xlink:href="classklyqa__ctl_1_1local__controller_1_1LocalController.html#ad820bb0d181aeb158a3177323ee35cdf" target="_top" xlink:title=" ">
<polygon fill="white" stroke="black" points="861,-334.5 861,-364.5 1002,-364.5 1002,-334.5 861,-334.5"/>
<text text-anchor="start" x="869" y="-352.5" font-family="Helvetica,sans-Serif" font-size="10.00">klyqa_ctl.local_controller.</text>
<text text-anchor="middle" x="931.5" y="-341.5" font-family="Helvetica,sans-Serif" font-size="10.00">LocalController.__init__</text>
</a>
</g>
</g>
<!-- Node1&#45;&gt;Node2 -->
<g id="edge1" class="edge">
<title>Node1&#45;&gt;Node2</title>
<path fill="none" stroke="midnightblue" d="M1378.77,-226.28C1351.17,-244.02 1308.96,-268.9 1269,-283.5 1179.95,-316.03 1071.47,-333.63 1002.2,-342.28"/>
<polygon fill="midnightblue" stroke="midnightblue" points="1380.72,-229.19 1387.19,-220.8 1376.9,-223.32 1380.72,-229.19"/>
</g>
<!-- Node3 -->
<g id="node3" class="node">
<title>Node3</title>
<g id="a_node3"><a xlink:href="classlocal_1_1connection__handler_1_1LocalConnectionHandler.html#ac7312a0c1fbe8ad9bcbd585e66e9e74c" target="_top" xlink:title=" ">
<polygon fill="white" stroke="black" points="1058,-190.5 1058,-220.5 1269,-220.5 1269,-190.5 1058,-190.5"/>
<text text-anchor="start" x="1066" y="-208.5" font-family="Helvetica,sans-Serif" font-size="10.00">local.connection_handler.</text>
<text text-anchor="middle" x="1163.5" y="-197.5" font-family="Helvetica,sans-Serif" font-size="10.00">LocalConnectionHandler.controller_data</text>
</a>
</g>
</g>
<!-- Node1&#45;&gt;Node3 -->
<g id="edge2" class="edge">
<title>Node1&#45;&gt;Node3</title>
<path fill="none" stroke="midnightblue" d="M1294.86,-205.5C1286.28,-205.5 1277.66,-205.5 1269.15,-205.5"/>
<polygon fill="midnightblue" stroke="midnightblue" points="1294.89,-209 1304.89,-205.5 1294.89,-202 1294.89,-209"/>
</g>
<!-- Node4 -->
<g id="node4" class="node">
<title>Node4</title>
<g id="a_node4"><a xlink:href="classcloud_1_1CloudBackend.html#a566850b368080b6ff85ee2675aa9b3e2" target="_top" xlink:title=" ">
<polygon fill="white" stroke="black" points="864.5,-285.5 864.5,-315.5 998.5,-315.5 998.5,-285.5 864.5,-285.5"/>
<text text-anchor="start" x="872.5" y="-303.5" font-family="Helvetica,sans-Serif" font-size="10.00">cloud.CloudBackend.get</text>
<text text-anchor="middle" x="931.5" y="-292.5" font-family="Helvetica,sans-Serif" font-size="10.00">_device_configs</text>
</a>
</g>
</g>
<!-- Node1&#45;&gt;Node4 -->
<g id="edge18" class="edge">
<title>Node1&#45;&gt;Node4</title>
<path fill="none" stroke="midnightblue" d="M1361.16,-224.09C1334.35,-233.78 1300.21,-245.12 1269,-252.5 1176.4,-274.4 1066.95,-287.76 998.61,-294.64"/>
<polygon fill="midnightblue" stroke="midnightblue" points="1362.5,-227.32 1370.68,-220.6 1360.09,-220.75 1362.5,-227.32"/>
</g>
<!-- Node5 -->
<g id="node5" class="node">
<title>Node5</title>
<g id="a_node5"><a xlink:href="classklyqa__ctl_1_1account_1_1Account.html#adad4d644a9bbb3633405dac89e86edd3" target="_top" xlink:title=" ">
<polygon fill="white" stroke="black" points="850,-236.5 850,-266.5 1013,-266.5 1013,-236.5 850,-236.5"/>
<text text-anchor="start" x="858" y="-254.5" font-family="Helvetica,sans-Serif" font-size="10.00">klyqa_ctl.account.Account.get</text>
<text text-anchor="middle" x="931.5" y="-243.5" font-family="Helvetica,sans-Serif" font-size="10.00">_or_create_device</text>
</a>
</g>
</g>
<!-- Node1&#45;&gt;Node5 -->
<g id="edge19" class="edge">
<title>Node1&#45;&gt;Node5</title>
<path fill="none" stroke="midnightblue" d="M1324.28,-222.27C1306.09,-225.39 1286.95,-228.35 1269,-230.5 1181.97,-240.92 1081.61,-246.34 1013.3,-249.04"/>
<polygon fill="midnightblue" stroke="midnightblue" points="1325.02,-225.69 1334.27,-220.51 1323.81,-218.79 1325.02,-225.69"/>
</g>
<!-- Node6 -->
<g id="node6" class="node">
<title>Node6</title>
<g id="a_node6"><a xlink:href="classklyqa__ctl_1_1account_1_1Account.html#a8e93f6fe918bf32c172447d4ef439d2d" target="_top" xlink:title=" ">
<polygon fill="white" stroke="black" points="627,-236.5 627,-266.5 797,-266.5 797,-236.5 627,-236.5"/>
<text text-anchor="start" x="635" y="-254.5" font-family="Helvetica,sans-Serif" font-size="10.00">klyqa_ctl.account.Account.sync</text>
<text text-anchor="middle" x="712" y="-243.5" font-family="Helvetica,sans-Serif" font-size="10.00">_acc_settings_to_controller</text>
</a>
</g>
</g>
<!-- Node1&#45;&gt;Node6 -->
<g id="edge23" class="edge">
<title>Node1&#45;&gt;Node6</title>
<path fill="none" stroke="midnightblue" d="M1389.12,-228.18C1363.7,-255 1317.62,-298.95 1269,-322.5 1168.03,-371.39 1133.58,-362.88 1022,-374.5 941.99,-382.83 915.62,-404.54 841,-374.5 786.11,-352.4 741.55,-294.26 722.71,-266.58"/>
<polygon fill="midnightblue" stroke="midnightblue" points="1391.76,-230.48 1396.02,-220.78 1386.64,-225.7 1391.76,-230.48"/>
</g>
<!-- Node7 -->
<g id="node7" class="node">
<title>Node7</title>
<g id="a_node7"><a xlink:href="classlocal_1_1connection__handler_1_1LocalConnectionHandler.html#a4ce11db96280d000941a91cb37df2842" target="_top" xlink:title=" ">
<polygon fill="white" stroke="black" points="844,-138 844,-179 1019,-179 1019,-138 844,-138"/>
<text text-anchor="start" x="852" y="-167" font-family="Helvetica,sans-Serif" font-size="10.00">local.connection_handler.</text>
<text text-anchor="start" x="852" y="-156" font-family="Helvetica,sans-Serif" font-size="10.00">LocalConnectionHandler.process</text>
<text text-anchor="middle" x="931.5" y="-145" font-family="Helvetica,sans-Serif" font-size="10.00">_device_identity_package</text>
</a>
</g>
</g>
<!-- Node1&#45;&gt;Node7 -->
<g id="edge20" class="edge">
<title>Node1&#45;&gt;Node7</title>
<path fill="none" stroke="midnightblue" d="M1319.5,-188.74C1302.76,-186.02 1285.38,-183.45 1269,-181.5 1184.4,-171.41 1087.27,-165.36 1019.17,-162.02"/>
<polygon fill="midnightblue" stroke="midnightblue" points="1319.39,-192.27 1329.83,-190.45 1320.54,-185.36 1319.39,-192.27"/>
</g>
<!-- Node12 -->
<g id="node12" class="node">
<title>Node12</title>
<g id="a_node12"><a xlink:href="classklyqa__ctl_1_1account_1_1Account.html#a5ab3a2f4382c4437255871d4296cee9a" target="_top" xlink:title=" ">
<polygon fill="white" stroke="black" points="850,-88.5 850,-118.5 1013,-118.5 1013,-88.5 850,-88.5"/>
<text text-anchor="start" x="858" y="-106.5" font-family="Helvetica,sans-Serif" font-size="10.00">klyqa_ctl.account.Account.run</text>
<text text-anchor="middle" x="931.5" y="-95.5" font-family="Helvetica,sans-Serif" font-size="10.00">_password_prompt</text>
</a>
</g>
</g>
<!-- Node1&#45;&gt;Node12 -->
<g id="edge21" class="edge">
<title>Node1&#45;&gt;Node12</title>
<path fill="none" stroke="midnightblue" d="M1359.61,-187.12C1333,-177.84 1299.53,-166.99 1269,-159.5 1182.58,-138.29 1081.69,-122.69 1013.08,-113.42"/>
<polygon fill="midnightblue" stroke="midnightblue" points="1358.49,-190.44 1369.09,-190.46 1360.82,-183.84 1358.49,-190.44"/>
</g>
<!-- Node15 -->
<g id="node15" class="node">
<title>Node15</title>
<g id="a_node15"><a xlink:href="classcloud_1_1CloudBackend.html#a8db40a99748dc3cc160e5093da0f84e8" target="_top" xlink:title=" ">
<polygon fill="white" stroke="black" points="861,-50 861,-69 1002,-69 1002,-50 861,-50"/>
<text text-anchor="middle" x="931.5" y="-57" font-family="Helvetica,sans-Serif" font-size="10.00">cloud.CloudBackend.send</text>
</a>
</g>
</g>
<!-- Node1&#45;&gt;Node15 -->
<g id="edge22" class="edge">
<title>Node1&#45;&gt;Node15</title>
<path fill="none" stroke="midnightblue" d="M1382.64,-183.86C1355.58,-163.22 1311.82,-132.92 1269,-116.5 1180.76,-82.66 1071.85,-68.86 1002.28,-63.27"/>
<polygon fill="midnightblue" stroke="midnightblue" points="1380.76,-186.83 1390.81,-190.19 1385.05,-181.3 1380.76,-186.83"/>
</g>
<!-- Node16 -->
<g id="node16" class="node">
<title>Node16</title>
<g id="a_node16"><a xlink:href="classklyqa__ctl_1_1account_1_1Account.html#a4fb47c923d3a579054e8cc72480906fb" target="_top" xlink:title=" ">
<polygon fill="white" stroke="black" points="841,-0.5 841,-30.5 1022,-30.5 1022,-0.5 841,-0.5"/>
<text text-anchor="start" x="849" y="-18.5" font-family="Helvetica,sans-Serif" font-size="10.00">klyqa_ctl.account.Account.update</text>
<text text-anchor="middle" x="931.5" y="-7.5" font-family="Helvetica,sans-Serif" font-size="10.00">_device_configs</text>
</a>
</g>
</g>
<!-- Node1&#45;&gt;Node16 -->
<g id="edge24" class="edge">
<title>Node1&#45;&gt;Node16</title>
<path fill="none" stroke="midnightblue" d="M1393.26,-181.92C1369.84,-149.97 1323.38,-93.8 1269,-66.5 1191.64,-27.67 1092.62,-16.58 1022.07,-14.2"/>
<polygon fill="midnightblue" stroke="midnightblue" points="1390.56,-184.17 1399.24,-190.24 1396.24,-180.08 1390.56,-184.17"/>
</g>
<!-- Node3&#45;&gt;Node2 -->
<g id="edge3" class="edge">
<title>Node3&#45;&gt;Node2</title>
<path fill="none" stroke="midnightblue" d="M1142.01,-228.34C1116.49,-255.41 1070.32,-300.07 1022,-325.5 1015.59,-328.87 1008.67,-331.8 1001.62,-334.33"/>
<polygon fill="midnightblue" stroke="midnightblue" points="1144.71,-230.57 1148.95,-220.87 1139.58,-225.81 1144.71,-230.57"/>
</g>
<!-- Node3&#45;&gt;Node4 -->
<g id="edge4" class="edge">
<title>Node3&#45;&gt;Node4</title>
<path fill="none" stroke="midnightblue" d="M1127.87,-225.53C1099.98,-241.04 1059.39,-262.22 1022,-276.5 1013.43,-279.77 1004.25,-282.78 995.14,-285.47"/>
<polygon fill="midnightblue" stroke="midnightblue" points="1129.81,-228.45 1136.82,-220.51 1126.39,-222.35 1129.81,-228.45"/>
</g>
<!-- Node3&#45;&gt;Node5 -->
<g id="edge5" class="edge">
<title>Node3&#45;&gt;Node5</title>
<path fill="none" stroke="midnightblue" d="M1077.17,-222.57C1054.34,-227.13 1029.83,-232.03 1007.59,-236.48"/>
<polygon fill="midnightblue" stroke="midnightblue" points="1078.07,-225.96 1087.19,-220.56 1076.7,-219.09 1078.07,-225.96"/>
</g>
<!-- Node3&#45;&gt;Node6 -->
<g id="edge16" class="edge">
<title>Node3&#45;&gt;Node6</title>
<path fill="none" stroke="midnightblue" d="M1047.83,-210.08C986.33,-213.36 909.34,-218.79 841,-227.5 822.72,-229.83 803.11,-233.11 784.86,-236.5"/>
<polygon fill="midnightblue" stroke="midnightblue" points="1048.15,-213.57 1057.95,-209.56 1047.78,-206.58 1048.15,-213.57"/>
</g>
<!-- Node3&#45;&gt;Node7 -->
<g id="edge7" class="edge">
<title>Node3&#45;&gt;Node7</title>
<path fill="none" stroke="midnightblue" d="M1079.06,-188.45C1059.61,-184.47 1038.85,-180.23 1019.26,-176.23"/>
<polygon fill="midnightblue" stroke="midnightblue" points="1078.6,-191.93 1089.09,-190.5 1080,-185.07 1078.6,-191.93"/>
</g>
<!-- Node3&#45;&gt;Node12 -->
<g id="edge12" class="edge">
<title>Node3&#45;&gt;Node12</title>
<path fill="none" stroke="midnightblue" d="M1130.44,-185.16C1102.62,-168.19 1060.82,-144.31 1022,-128.5 1013.04,-124.85 1003.36,-121.53 993.79,-118.6"/>
<polygon fill="midnightblue" stroke="midnightblue" points="1128.61,-188.14 1138.96,-190.41 1132.28,-182.18 1128.61,-188.14"/>
</g>
<!-- Node3&#45;&gt;Node15 -->
<g id="edge15" class="edge">
<title>Node3&#45;&gt;Node15</title>
<path fill="none" stroke="midnightblue" d="M1143.72,-182.23C1118.98,-153.23 1072.64,-104.36 1022,-78.5 1014.36,-74.6 1005.96,-71.5 997.46,-69.03"/>
<polygon fill="midnightblue" stroke="midnightblue" points="1141.29,-184.78 1150.39,-190.19 1146.65,-180.28 1141.29,-184.78"/>
</g>
<!-- Node3&#45;&gt;Node16 -->
<g id="edge17" class="edge">
<title>Node3&#45;&gt;Node16</title>
<path fill="none" stroke="midnightblue" d="M1148.44,-181.21C1126.24,-145.04 1079.61,-77.34 1022,-40.5 1016.02,-36.68 1009.45,-33.43 1002.67,-30.67"/>
<polygon fill="midnightblue" stroke="midnightblue" points="1145.64,-183.35 1153.8,-190.11 1151.64,-179.74 1145.64,-183.35"/>
</g>
<!-- Node5&#45;&gt;Node6 -->
<g id="edge6" class="edge">
<title>Node5&#45;&gt;Node6</title>
<path fill="none" stroke="midnightblue" d="M839.66,-251.5C825.59,-251.5 811.11,-251.5 797.19,-251.5"/>
<polygon fill="midnightblue" stroke="midnightblue" points="839.82,-255 849.82,-251.5 839.82,-248 839.82,-255"/>
</g>
<!-- Node8 -->
<g id="node8" class="node">
<title>Node8</title>
<g id="a_node8"><a xlink:href="classlocal_1_1connection__handler_1_1LocalConnectionHandler.html#aaa28266e241c2e30e8acd468fab06fde" target="_top" xlink:title=" ">
<polygon fill="white" stroke="black" points="624.5,-138 624.5,-179 799.5,-179 799.5,-138 624.5,-138"/>
<text text-anchor="start" x="632.5" y="-167" font-family="Helvetica,sans-Serif" font-size="10.00">local.connection_handler.</text>
<text text-anchor="start" x="632.5" y="-156" font-family="Helvetica,sans-Serif" font-size="10.00">LocalConnectionHandler.process</text>
<text text-anchor="middle" x="712" y="-145" font-family="Helvetica,sans-Serif" font-size="10.00">_tcp_package</text>
</a>
</g>
</g>
<!-- Node7&#45;&gt;Node8 -->
<g id="edge8" class="edge">
<title>Node7&#45;&gt;Node8</title>
<path fill="none" stroke="midnightblue" d="M833.59,-158.5C822.28,-158.5 810.8,-158.5 799.64,-158.5"/>
<polygon fill="midnightblue" stroke="midnightblue" points="833.91,-162 843.91,-158.5 833.91,-155 833.91,-162"/>
</g>
<!-- Node9 -->
<g id="node9" class="node">
<title>Node9</title>
<g id="a_node9"><a xlink:href="classlocal_1_1connection__handler_1_1LocalConnectionHandler.html#a900e05554022ee9ecb3ba5621369016d" target="_top" xlink:title=" ">
<polygon fill="white" stroke="black" points="412.5,-138 412.5,-179 582.5,-179 582.5,-138 412.5,-138"/>
<text text-anchor="start" x="420.5" y="-167" font-family="Helvetica,sans-Serif" font-size="10.00">local.connection_handler.</text>
<text text-anchor="start" x="420.5" y="-156" font-family="Helvetica,sans-Serif" font-size="10.00">LocalConnectionHandler.handle</text>
<text text-anchor="middle" x="497.5" y="-145" font-family="Helvetica,sans-Serif" font-size="10.00">_connection</text>
</a>
</g>
</g>
<!-- Node8&#45;&gt;Node9 -->
<g id="edge9" class="edge">
<title>Node8&#45;&gt;Node9</title>
<path fill="none" stroke="midnightblue" d="M614.19,-158.5C603.63,-158.5 592.95,-158.5 582.56,-158.5"/>
<polygon fill="midnightblue" stroke="midnightblue" points="614.26,-162 624.26,-158.5 614.26,-155 614.26,-162"/>
</g>
<!-- Node10 -->
<g id="node10" class="node">
<title>Node10</title>
<g id="a_node10"><a xlink:href="classlocal_1_1connection__handler_1_1LocalConnectionHandler.html#a0b582d0bf1523d1d0404867ab921539f" target="_top" xlink:title=" ">
<polygon fill="white" stroke="black" points="206,-138 206,-179 376,-179 376,-138 206,-138"/>
<text text-anchor="start" x="214" y="-167" font-family="Helvetica,sans-Serif" font-size="10.00">local.connection_handler.</text>
<text text-anchor="start" x="214" y="-156" font-family="Helvetica,sans-Serif" font-size="10.00">LocalConnectionHandler.device</text>
<text text-anchor="middle" x="291" y="-145" font-family="Helvetica,sans-Serif" font-size="10.00">_handle_local_tcp</text>
</a>
</g>
</g>
<!-- Node9&#45;&gt;Node10 -->
<g id="edge10" class="edge">
<title>Node9&#45;&gt;Node10</title>
<path fill="none" stroke="midnightblue" d="M402.24,-158.5C393.51,-158.5 384.7,-158.5 376.07,-158.5"/>
<polygon fill="midnightblue" stroke="midnightblue" points="402.44,-162 412.44,-158.5 402.44,-155 402.44,-162"/>
</g>
<!-- Node11 -->
<g id="node11" class="node">
<title>Node11</title>
<g id="a_node11"><a xlink:href="classlocal_1_1connection__handler_1_1LocalConnectionHandler.html#a5e9277acd0b7bfa5a1e74417e0e10d86" target="_top" xlink:title=" ">
<polygon fill="white" stroke="black" points="0,-138 0,-179 170,-179 170,-138 0,-138"/>
<text text-anchor="start" x="8" y="-167" font-family="Helvetica,sans-Serif" font-size="10.00">local.connection_handler.</text>
<text text-anchor="start" x="8" y="-156" font-family="Helvetica,sans-Serif" font-size="10.00">LocalConnectionHandler.handle</text>
<text text-anchor="middle" x="85" y="-145" font-family="Helvetica,sans-Serif" font-size="10.00">_incoming_tcp_connection</text>
</a>
</g>
</g>
<!-- Node10&#45;&gt;Node11 -->
<g id="edge11" class="edge">
<title>Node10&#45;&gt;Node11</title>
<path fill="none" stroke="midnightblue" d="M195.6,-158.5C187.15,-158.5 178.64,-158.5 170.29,-158.5"/>
<polygon fill="midnightblue" stroke="midnightblue" points="195.85,-162 205.85,-158.5 195.85,-155 195.85,-162"/>
</g>
<!-- Node13 -->
<g id="node13" class="node">
<title>Node13</title>
<g id="a_node13"><a xlink:href="classklyqa__ctl_1_1account_1_1Account.html#acbc09f2b1b4cb6b7ed771b96ea79613b" target="_top" xlink:title=" ">
<polygon fill="white" stroke="black" points="619,-88.5 619,-118.5 805,-118.5 805,-88.5 619,-88.5"/>
<text text-anchor="start" x="627" y="-106.5" font-family="Helvetica,sans-Serif" font-size="10.00">klyqa_ctl.account.Account.perform</text>
<text text-anchor="middle" x="712" y="-95.5" font-family="Helvetica,sans-Serif" font-size="10.00">_login</text>
</a>
</g>
</g>
<!-- Node12&#45;&gt;Node13 -->
<g id="edge13" class="edge">
<title>Node12&#45;&gt;Node13</title>
<path fill="none" stroke="midnightblue" d="M839.52,-103.5C828.2,-103.5 816.62,-103.5 805.28,-103.5"/>
<polygon fill="midnightblue" stroke="midnightblue" points="839.82,-107 849.82,-103.5 839.82,-100 839.82,-107"/>
</g>
<!-- Node14 -->
<g id="node14" class="node">
<title>Node14</title>
<g id="a_node14"><a xlink:href="classklyqa__ctl_1_1account_1_1Account.html#a0b171a600e4342d035ad26c39b384b38" target="_top" xlink:title=" ">
<polygon fill="white" stroke="black" points="412,-94 412,-113 583,-113 583,-94 412,-94"/>
<text text-anchor="middle" x="497.5" y="-101" font-family="Helvetica,sans-Serif" font-size="10.00">klyqa_ctl.account.Account.login</text>
</a>
</g>
</g>
<!-- Node13&#45;&gt;Node14 -->
<g id="edge14" class="edge">
<title>Node13&#45;&gt;Node14</title>
<path fill="none" stroke="midnightblue" d="M608.48,-103.5C600.06,-103.5 591.6,-103.5 583.33,-103.5"/>
<polygon fill="midnightblue" stroke="midnightblue" points="608.72,-107 618.72,-103.5 608.72,-100 608.72,-107"/>
</g>
</g>
</svg>
        <g id="navigator" transform="translate(0 0)" fill="#404254">
                <rect fill="#f2f5e9" fill-opacity="0.5" stroke="#606060" stroke-width=".5" x="0" y="0" width="60" height="60"/>
                <use id="zoomplus" xlink:href="#zoomPlus" x="17" y="9" onmousedown="handleZoom(evt,'in')"/>
                <use id="zoomminus" xlink:href="#zoomMin" x="42" y="9" onmousedown="handleZoom(evt,'out')"/>
                <use id="reset" xlink:href="#resetDef" x="30" y="36" onmousedown="handleReset()"/>
                <g id="arrowUp" xlink:href="#dirArrow" transform="translate(30 24)" onmousedown="handlePan(0,-1)">
                  <use xlink:href="#rim" fill="#404040">
                        <set attributeName="fill" to="#808080" begin="arrowUp.mouseover" end="arrowUp.mouseout"/>
                  </use>
                  <path fill="none" stroke="white" stroke-width="1.5" d="M0,-3.0v7 M-2.5,-0.5L0,-3.0L2.5,-0.5"/>
                </g>
                <g id="arrowRight" xlink:href="#dirArrow" transform="rotate(90) translate(36 -43)" onmousedown="handlePan(1,0)">
                  <use xlink:href="#rim" fill="#404040">
                        <set attributeName="fill" to="#808080" begin="arrowRight.mouseover" end="arrowRight.mouseout"/>
                  </use>
                  <path fill="none" stroke="white" stroke-width="1.5" d="M0,-3.0v7 M-2.5,-0.5L0,-3.0L2.5,-0.5"/>
                </g>
                <g id="arrowDown" xlink:href="#dirArrow" transform="rotate(180) translate(-30 -48)" onmousedown="handlePan(0,1)">
                  <use xlink:href="#rim" fill="#404040">
                        <set attributeName="fill" to="#808080" begin="arrowDown.mouseover" end="arrowDown.mouseout"/>
                  </use>
                  <path fill="none" stroke="white" stroke-width="1.5" d="M0,-3.0v7 M-2.5,-0.5L0,-3.0L2.5,-0.5"/>
                </g>
                <g id="arrowLeft" xlink:href="#dirArrow" transform="rotate(270) translate(-36 17)" onmousedown="handlePan(-1,0)">
                  <use xlink:href="#rim" fill="#404040">
                        <set attributeName="fill" to="#808080" begin="arrowLeft.mouseover" end="arrowLeft.mouseout"/>
                  </use>
                  <path fill="none" stroke="white" stroke-width="1.5" d="M0,-3.0v7 M-2.5,-0.5L0,-3.0L2.5,-0.5"/>
                </g>
        </g>
        <svg viewBox="0 0 15 15" width="100%" height="30px" preserveAspectRatio="xMaxYMin meet">
         <g id="arrow_out" transform="scale(0.3 0.3)">
          <a xlink:href="classlocal_1_1connection__handler_1_1LocalConnectionHandler_a8f938ae53b3c24bbdc02f377671cf263_icgraph_org.svg" target="_base">
           <rect id="button" ry="5" rx="5" y="6" x="6" height="38" width="38"
                fill="#f2f5e9" fill-opacity="0.5" stroke="#606060" stroke-width="1.0"/>
           <path id="arrow"
             d="M 11.500037,31.436501 C 11.940474,20.09759 22.043105,11.32322 32.158766,21.979434 L 37.068811,17.246167 C 37.068811,17.246167 37.088388,32 37.088388,32 L 22.160133,31.978069 C 22.160133,31.978069 26.997745,27.140456 26.997745,27.140456 C 18.528582,18.264221 13.291696,25.230495 11.500037,31.436501 z"
             style="fill:#404040;"/>
          </a>
         </g>
        </svg>
</svg>
