<?xml version="1.0" encoding="UTF-8" standalone="no"?>
<!DOCTYPE svg PUBLIC "-//W3C//DTD SVG 1.1//EN"
 "http://www.w3.org/Graphics/SVG/1.1/DTD/svg11.dtd">
<!-- Generated by graphviz version 2.43.0 (0)
 -->
<!-- Title: klyqa_ctl.devices.light.commands.FwUpdateCommand.json Pages: 1 -->
<!--zoomable 727 -->
<svg id="main" version="1.1" xmlns="http://www.w3.org/2000/svg" xmlns:xlink="http://www.w3.org/1999/xlink" xml:space="preserve" onload="init(evt)">
<style type="text/css"><![CDATA[
.edge:hover path { stroke: red; }
.edge:hover polygon { stroke: red; fill: red; }
]]></style>
<script type="text/javascript"><![CDATA[
var edges = document.getElementsByTagName('g');
if (edges && edges.length) {
  for (var i=0;i<edges.length;i++) {
    if (edges[i].id.substr(0,4)=='edge') {
      edges[i].setAttribute('class','edge');
    }
  }
}
]]></script>
        <defs>
                <circle id="rim" cx="0" cy="0" r="7"/>
                <circle id="rim2" cx="0" cy="0" r="3.5"/>
                <g id="zoomPlus">
                        <use xlink:href="#rim" fill="#404040">
                                <set attributeName="fill" to="#808080" begin="zoomplus.mouseover" end="zoomplus.mouseout"/>
                        </use>
                        <path d="M-4,0h8M0,-4v8" fill="none" stroke="white" stroke-width="1.5" pointer-events="none"/>
                </g>
                <g id="zoomMin">
                        <use xlink:href="#rim" fill="#404040">
                                <set attributeName="fill" to="#808080" begin="zoomminus.mouseover" end="zoomminus.mouseout"/>
                        </use>
                        <path d="M-4,0h8" fill="none" stroke="white" stroke-width="1.5" pointer-events="none"/>
                </g>
                <g id="dirArrow">
                        <path fill="none" stroke="white" stroke-width="1.5" d="M0,-3.0v7 M-2.5,-0.5L0,-3.0L2.5,-0.5"/>
                </g>
               <g id="resetDef">
                       <use xlink:href="#rim2" fill="#404040">
                               <set attributeName="fill" to="#808080" begin="reset.mouseover" end="reset.mouseout"/>
                       </use>
               </g>
        </defs>

<script type="text/javascript">
var viewWidth = 1476;
var viewHeight = 727;
var sectionId = 'dynsection-3';
</script>
<script xlink:href="svgpan.js"/>
<svg id="graph" class="graph">
<g id="viewport">
<title>klyqa_ctl.devices.light.commands.FwUpdateCommand.json</title>
<polygon fill="white" stroke="transparent" points="-4,4 -4,-722.64 1472,-722.64 1472,4 -4,4"/>
<!-- Node1 -->
<g id="node1" class="node">
<title>Node1</title>
<g id="a_node1"><a xlink:title=" ">
<polygon fill="#bfbfbf" stroke="black" points="1282,-240.5 1282,-270.5 1468,-270.5 1468,-240.5 1282,-240.5"/>
<text text-anchor="start" x="1290" y="-258.5" font-family="Helvetica,sans-Serif" font-size="10.00">klyqa_ctl.devices.light.commands.</text>
<text text-anchor="middle" x="1375" y="-247.5" font-family="Helvetica,sans-Serif" font-size="10.00">FwUpdateCommand.json</text>
</a>
</g>
</g>
<!-- Node2 -->
<g id="node2" class="node">
<title>Node2</title>
<g id="a_node2"><a xlink:href="classklyqa__ctl_1_1general_1_1general_1_1Command.html#a4aa9e4db12aecf5520e974204c635d38" target="_top" xlink:title=" ">
<polygon fill="white" stroke="black" points="1100,-240.5 1100,-270.5 1243,-270.5 1243,-240.5 1100,-240.5"/>
<text text-anchor="start" x="1108" y="-258.5" font-family="Helvetica,sans-Serif" font-size="10.00">klyqa_ctl.general.general.</text>
<text text-anchor="middle" x="1171.5" y="-247.5" font-family="Helvetica,sans-Serif" font-size="10.00">Command.cloud</text>
</a>
</g>
</g>
<!-- Node1&#45;&gt;Node2 -->
<g id="edge1" class="edge">
<title>Node1&#45;&gt;Node2</title>
<path fill="none" stroke="midnightblue" d="M1271.76,-255.5C1262.11,-255.5 1252.49,-255.5 1243.24,-255.5"/>
<polygon fill="midnightblue" stroke="midnightblue" points="1271.8,-259 1281.8,-255.5 1271.8,-252 1271.8,-259"/>
</g>
<!-- Node20 -->
<g id="node20" class="node">
<title>Node20</title>
<g id="a_node20"><a xlink:href="classklyqa__ctl_1_1general_1_1general_1_1CloudStateCommand.html#a6bbc8b1333f0a45ce38f1e81a6093bc1" target="_top" xlink:title=" ">
<polygon fill="white" stroke="black" points="1097,-457.5 1097,-487.5 1246,-487.5 1246,-457.5 1097,-457.5"/>
<text text-anchor="start" x="1105" y="-475.5" font-family="Helvetica,sans-Serif" font-size="10.00">klyqa_ctl.general.general.</text>
<text text-anchor="middle" x="1171.5" y="-464.5" font-family="Helvetica,sans-Serif" font-size="10.00">CloudStateCommand.cloud</text>
</a>
</g>
</g>
<!-- Node1&#45;&gt;Node20 -->
<g id="edge27" class="edge">
<title>Node1&#45;&gt;Node20</title>
<path fill="none" stroke="midnightblue" d="M1352.97,-278.15C1311.8,-322.49 1221.54,-419.69 1186.65,-457.26"/>
<polygon fill="midnightblue" stroke="midnightblue" points="1355.59,-280.47 1359.83,-270.76 1350.46,-275.71 1355.59,-280.47"/>
</g>
<!-- Node21 -->
<g id="node21" class="node">
<title>Node21</title>
<g id="a_node21"><a xlink:href="classklyqa__ctl_1_1general_1_1general_1_1Command.html#a282b2ced7b14ae00b8315e33082108ab" target="_top" xlink:title=" ">
<polygon fill="white" stroke="black" points="1100,-96.5 1100,-126.5 1243,-126.5 1243,-96.5 1100,-96.5"/>
<text text-anchor="start" x="1108" y="-114.5" font-family="Helvetica,sans-Serif" font-size="10.00">klyqa_ctl.general.general.</text>
<text text-anchor="middle" x="1171.5" y="-103.5" font-family="Helvetica,sans-Serif" font-size="10.00">Command.msg_str</text>
</a>
</g>
</g>
<!-- Node1&#45;&gt;Node21 -->
<g id="edge39" class="edge">
<title>Node1&#45;&gt;Node21</title>
<path fill="none" stroke="midnightblue" d="M1344.56,-234.46C1303.46,-205.09 1229.84,-152.48 1193.7,-126.65"/>
<polygon fill="midnightblue" stroke="midnightblue" points="1342.65,-237.39 1352.82,-240.36 1346.72,-231.7 1342.65,-237.39"/>
</g>
<!-- Node3 -->
<g id="node3" class="node">
<title>Node3</title>
<g id="a_node3"><a xlink:href="classklyqa__ctl_1_1account_1_1Account.html#a19bd2d6d0ae6a4e738c4d40453557606" target="_top" xlink:title=" ">
<polygon fill="white" stroke="black" points="870,-240.5 870,-270.5 1058,-270.5 1058,-240.5 870,-240.5"/>
<text text-anchor="start" x="878" y="-258.5" font-family="Helvetica,sans-Serif" font-size="10.00">klyqa_ctl.account.Account.backend</text>
<text text-anchor="middle" x="964" y="-247.5" font-family="Helvetica,sans-Serif" font-size="10.00">_connected</text>
</a>
</g>
</g>
<!-- Node2&#45;&gt;Node3 -->
<g id="edge2" class="edge">
<title>Node2&#45;&gt;Node3</title>
<path fill="none" stroke="midnightblue" d="M1089.63,-255.5C1079.36,-255.5 1068.79,-255.5 1058.35,-255.5"/>
<polygon fill="midnightblue" stroke="midnightblue" points="1089.78,-259 1099.78,-255.5 1089.78,-252 1089.78,-259"/>
</g>
<!-- Node4 -->
<g id="node4" class="node">
<title>Node4</title>
<g id="a_node4"><a xlink:href="classklyqa__ctl_1_1account_1_1Account.html#aa78870d05cc7fa5899d61733d124e885" target="_top" xlink:title=" ">
<polygon fill="white" stroke="black" points="209.5,-283.5 209.5,-313.5 388.5,-313.5 388.5,-283.5 209.5,-283.5"/>
<text text-anchor="start" x="217.5" y="-301.5" font-family="Helvetica,sans-Serif" font-size="10.00">klyqa_ctl.account.Account.device</text>
<text text-anchor="middle" x="299" y="-290.5" font-family="Helvetica,sans-Serif" font-size="10.00">_request_and_print</text>
</a>
</g>
</g>
<!-- Node2&#45;&gt;Node4 -->
<g id="edge5" class="edge">
<title>Node2&#45;&gt;Node4</title>
<path fill="none" stroke="midnightblue" d="M1159.05,-230.96C1142.54,-198.88 1108.72,-144.13 1061,-121.5 894.75,-42.65 825.91,-78.51 647,-121.5 513.19,-153.66 372.85,-246.54 320.91,-283.28"/>
<polygon fill="midnightblue" stroke="midnightblue" points="1156.02,-232.73 1163.61,-240.12 1162.29,-229.61 1156.02,-232.73"/>
</g>
<!-- Node5 -->
<g id="node5" class="node">
<title>Node5</title>
<g id="a_node5"><a xlink:href="classklyqa__ctl_1_1account_1_1Account.html#a0b171a600e4342d035ad26c39b384b38" target="_top" xlink:title=" ">
<polygon fill="white" stroke="black" points="0,-470 0,-489 171,-489 171,-470 0,-470"/>
<text text-anchor="middle" x="85.5" y="-477" font-family="Helvetica,sans-Serif" font-size="10.00">klyqa_ctl.account.Account.login</text>
</a>
</g>
</g>
<!-- Node2&#45;&gt;Node5 -->
<g id="edge15" class="edge">
<title>Node2&#45;&gt;Node5</title>
<path fill="none" stroke="midnightblue" d="M1155.31,-231.45C1140.27,-207.51 1116.71,-169.67 1097,-136.5 1080.52,-108.78 1088.53,-90.29 1061,-73.5 1000.04,-36.32 811.4,-59.5 740,-59.5 740,-59.5 740,-59.5 518,-59.5 274.42,-59.5 116.78,-407.42 90.42,-469.94"/>
<polygon fill="midnightblue" stroke="midnightblue" points="1152.53,-233.6 1160.82,-240.2 1158.45,-229.87 1152.53,-233.6"/>
</g>
<!-- Node6 -->
<g id="node6" class="node">
<title>Node6</title>
<g id="a_node6"><a xlink:href="classklyqa__ctl_1_1account_1_1Account.html#ad608e3ee0ba1199f509e644a11081724" target="_top" xlink:title=" ">
<polygon fill="white" stroke="black" points="882.5,-338.5 882.5,-368.5 1045.5,-368.5 1045.5,-338.5 882.5,-338.5"/>
<text text-anchor="start" x="890.5" y="-356.5" font-family="Helvetica,sans-Serif" font-size="10.00">klyqa_ctl.account.Account.get</text>
<text text-anchor="middle" x="964" y="-345.5" font-family="Helvetica,sans-Serif" font-size="10.00">_beared_request_header</text>
</a>
</g>
</g>
<!-- Node2&#45;&gt;Node6 -->
<g id="edge6" class="edge">
<title>Node2&#45;&gt;Node6</title>
<path fill="none" stroke="midnightblue" d="M1144.41,-277C1123.14,-293.54 1091.71,-315.8 1061,-329.5 1053.39,-332.89 1045.22,-335.86 1036.97,-338.45"/>
<polygon fill="midnightblue" stroke="midnightblue" points="1146.64,-279.7 1152.31,-270.75 1142.3,-274.21 1146.64,-279.7"/>
</g>
<!-- Node7 -->
<g id="node7" class="node">
<title>Node7</title>
<g id="a_node7"><a xlink:href="classklyqa__ctl_1_1account_1_1Account.html#a73506bd234f8e819e138c2bd663179b8" target="_top" xlink:title=" ">
<polygon fill="white" stroke="black" points="647,-338.5 647,-368.5 831,-368.5 831,-338.5 647,-338.5"/>
<text text-anchor="start" x="655" y="-356.5" font-family="Helvetica,sans-Serif" font-size="10.00">klyqa_ctl.account.Account.request</text>
<text text-anchor="middle" x="739" y="-345.5" font-family="Helvetica,sans-Serif" font-size="10.00">_beared</text>
</a>
</g>
</g>
<!-- Node2&#45;&gt;Node7 -->
<g id="edge19" class="edge">
<title>Node2&#45;&gt;Node7</title>
<path fill="none" stroke="midnightblue" d="M1128.13,-236.55C1065.08,-211.53 945.58,-176.65 867,-231.5 828.95,-258.06 865.32,-298.27 831,-329.5 827.25,-332.91 823.08,-335.84 818.64,-338.37"/>
<polygon fill="midnightblue" stroke="midnightblue" points="1127.17,-239.94 1137.75,-240.47 1129.81,-233.46 1127.17,-239.94"/>
</g>
<!-- Node11 -->
<g id="node11" class="node">
<title>Node11</title>
<g id="a_node11"><a xlink:href="classklyqa__ctl_1_1account_1_1Account.html#af101070a97d556e95978748475933f72" target="_top" xlink:title=" ">
<polygon fill="white" stroke="black" points="428.5,-381.5 428.5,-411.5 609.5,-411.5 609.5,-381.5 428.5,-381.5"/>
<text text-anchor="start" x="436.5" y="-399.5" font-family="Helvetica,sans-Serif" font-size="10.00">klyqa_ctl.account.Account.update</text>
<text text-anchor="middle" x="519" y="-388.5" font-family="Helvetica,sans-Serif" font-size="10.00">_account_settings</text>
</a>
</g>
</g>
<!-- Node2&#45;&gt;Node11 -->
<g id="edge26" class="edge">
<title>Node2&#45;&gt;Node11</title>
<path fill="none" stroke="midnightblue" d="M1141.03,-234.78C1119.86,-221.22 1090.05,-204.72 1061,-197.5 977.32,-176.71 951.82,-182.03 867,-197.5 764.19,-216.25 721.35,-207.06 647,-280.5 615.76,-311.36 643.78,-343.29 611,-372.5 607.22,-375.87 603.02,-378.77 598.56,-381.28"/>
<polygon fill="midnightblue" stroke="midnightblue" points="1139.27,-237.81 1149.55,-240.38 1143.11,-231.96 1139.27,-237.81"/>
</g>
<!-- Node12 -->
<g id="node12" class="node">
<title>Node12</title>
<g id="a_node12"><a xlink:href="classklyqa__ctl_1_1account_1_1Account.html#aeca1011f6c6e2f6bcdb2136ef48bc7fd" target="_top" xlink:title=" ">
<polygon fill="white" stroke="black" points="207,-381.5 207,-411.5 391,-411.5 391,-381.5 207,-381.5"/>
<text text-anchor="start" x="215" y="-399.5" font-family="Helvetica,sans-Serif" font-size="10.00">klyqa_ctl.account.Account.request</text>
<text text-anchor="middle" x="299" y="-388.5" font-family="Helvetica,sans-Serif" font-size="10.00">_account_settings_eco</text>
</a>
</g>
</g>
<!-- Node2&#45;&gt;Node12 -->
<g id="edge18" class="edge">
<title>Node2&#45;&gt;Node12</title>
<path fill="none" stroke="midnightblue" d="M1147.88,-233.53C1127.19,-215.07 1094.73,-190.06 1061,-179.5 885.2,-124.47 827.18,-161.17 647,-199.5 545.96,-220.99 510.3,-213.4 427,-274.5 405.21,-290.48 409.7,-303.99 391,-323.5 369.56,-345.87 341.24,-367.58 321.93,-381.42"/>
<polygon fill="midnightblue" stroke="midnightblue" points="1145.74,-236.31 1155.48,-240.48 1150.47,-231.15 1145.74,-236.31"/>
</g>
<!-- Node14 -->
<g id="node14" class="node">
<title>Node14</title>
<g id="a_node14"><a xlink:href="classklyqa__ctl_1_1account_1_1Account.html#acbc09f2b1b4cb6b7ed771b96ea79613b" target="_top" xlink:title=" ">
<polygon fill="white" stroke="black" points="871,-608.5 871,-638.5 1057,-638.5 1057,-608.5 871,-608.5"/>
<text text-anchor="start" x="879" y="-626.5" font-family="Helvetica,sans-Serif" font-size="10.00">klyqa_ctl.account.Account.perform</text>
<text text-anchor="middle" x="964" y="-615.5" font-family="Helvetica,sans-Serif" font-size="10.00">_login</text>
</a>
</g>
</g>
<!-- Node2&#45;&gt;Node14 -->
<g id="edge16" class="edge">
<title>Node2&#45;&gt;Node14</title>
<path fill="none" stroke="midnightblue" d="M1160.33,-279.95C1142.29,-322.54 1102.63,-412.67 1061,-484.5 1033.8,-531.44 995.78,-583.13 976.78,-608.19"/>
<polygon fill="midnightblue" stroke="midnightblue" points="1163.59,-281.23 1164.25,-270.65 1157.14,-278.51 1163.59,-281.23"/>
</g>
<!-- Node15 -->
<g id="node15" class="node">
<title>Node15</title>
<g id="a_node15"><a xlink:href="classklyqa__ctl_1_1account_1_1Account.html#a6f7d45c2ee71e0c761145bea5084dda6" target="_top" xlink:title=" ">
<polygon fill="white" stroke="black" points="872,-289.5 872,-319.5 1056,-319.5 1056,-289.5 872,-289.5"/>
<text text-anchor="start" x="880" y="-307.5" font-family="Helvetica,sans-Serif" font-size="10.00">klyqa_ctl.account.Account.request</text>
<text text-anchor="middle" x="964" y="-296.5" font-family="Helvetica,sans-Serif" font-size="10.00">_device_configs_from_acc_sets</text>
</a>
</g>
</g>
<!-- Node2&#45;&gt;Node15 -->
<g id="edge20" class="edge">
<title>Node2&#45;&gt;Node15</title>
<path fill="none" stroke="midnightblue" d="M1097.51,-272.9C1074.78,-278.32 1049.92,-284.25 1027.93,-289.49"/>
<polygon fill="midnightblue" stroke="midnightblue" points="1098.53,-276.26 1107.45,-270.53 1096.91,-269.45 1098.53,-276.26"/>
</g>
<!-- Node17 -->
<g id="node17" class="node">
<title>Node17</title>
<g id="a_node17"><a xlink:href="classklyqa__ctl_1_1klyqa__ctl_1_1Client.html#ad5c42cd8dd34ed1d6329040e164bfc2e" target="_top" xlink:title=" ">
<polygon fill="white" stroke="black" points="881,-426.5 881,-456.5 1047,-456.5 1047,-426.5 881,-426.5"/>
<text text-anchor="start" x="889" y="-444.5" font-family="Helvetica,sans-Serif" font-size="10.00">klyqa_ctl.klyqa_ctl.Client.send</text>
<text text-anchor="middle" x="964" y="-433.5" font-family="Helvetica,sans-Serif" font-size="10.00">_to_devices</text>
</a>
</g>
</g>
<!-- Node2&#45;&gt;Node17 -->
<g id="edge22" class="edge">
<title>Node2&#45;&gt;Node17</title>
<path fill="none" stroke="midnightblue" d="M1160.48,-280.25C1144.74,-315.93 1110.79,-381.4 1061,-416.5 1055.51,-420.37 1049.47,-423.64 1043.16,-426.41"/>
<polygon fill="midnightblue" stroke="midnightblue" points="1163.89,-281.18 1164.61,-270.61 1157.45,-278.42 1163.89,-281.18"/>
</g>
<!-- Node19 -->
<g id="node19" class="node">
<title>Node19</title>
<g id="a_node19"><a xlink:href="classklyqa__ctl_1_1account_1_1Account.html#af0e05ae15ad46c4b1b3bbb69b6bb7151" target="_top" xlink:title=" ">
<polygon fill="white" stroke="black" points="867,-388 867,-407 1061,-407 1061,-388 867,-388"/>
<text text-anchor="middle" x="964" y="-395" font-family="Helvetica,sans-Serif" font-size="10.00">klyqa_ctl.account.Account.shutdown</text>
</a>
</g>
</g>
<!-- Node2&#45;&gt;Node19 -->
<g id="edge25" class="edge">
<title>Node2&#45;&gt;Node19</title>
<path fill="none" stroke="midnightblue" d="M1156.19,-279.38C1137.86,-307.75 1103.33,-354.3 1061,-378.5 1054.22,-382.38 1046.77,-385.48 1039.12,-387.95"/>
<polygon fill="midnightblue" stroke="midnightblue" points="1159.19,-281.18 1161.56,-270.85 1153.27,-277.45 1159.19,-281.18"/>
</g>
<!-- Node3&#45;&gt;Node4 -->
<g id="edge3" class="edge">
<title>Node3&#45;&gt;Node4</title>
<path fill="none" stroke="midnightblue" d="M859.47,-254.54C751.26,-254.62 576.71,-257.8 427,-274.5 408.16,-276.6 387.92,-279.93 369.25,-283.45"/>
<polygon fill="midnightblue" stroke="midnightblue" points="859.73,-258.04 869.73,-254.54 859.73,-251.04 859.73,-258.04"/>
</g>
<!-- Node4&#45;&gt;Node5 -->
<g id="edge4" class="edge">
<title>Node4&#45;&gt;Node5</title>
<path fill="none" stroke="midnightblue" d="M271.08,-319.89C252.83,-334.51 228.26,-354.43 207,-372.5 165.64,-407.65 117.77,-450.97 97,-469.9"/>
<polygon fill="midnightblue" stroke="midnightblue" points="273.35,-322.55 278.98,-313.57 268.98,-317.08 273.35,-322.55"/>
</g>
<!-- Node6&#45;&gt;Node7 -->
<g id="edge7" class="edge">
<title>Node6&#45;&gt;Node7</title>
<path fill="none" stroke="midnightblue" d="M872.27,-353.5C858.78,-353.5 844.87,-353.5 831.37,-353.5"/>
<polygon fill="midnightblue" stroke="midnightblue" points="872.49,-357 882.49,-353.5 872.49,-350 872.49,-357"/>
</g>
<!-- Node8 -->
<g id="node8" class="node">
<title>Node8</title>
<g id="a_node8"><a xlink:href="classklyqa__ctl_1_1account_1_1Account.html#a748c13aed7b2a5c9c605c81234633cb8" target="_top" xlink:title=" ">
<polygon fill="white" stroke="black" points="432.5,-430.5 432.5,-460.5 605.5,-460.5 605.5,-430.5 432.5,-430.5"/>
<text text-anchor="start" x="440.5" y="-448.5" font-family="Helvetica,sans-Serif" font-size="10.00">klyqa_ctl.account.Account.cloud</text>
<text text-anchor="middle" x="519" y="-437.5" font-family="Helvetica,sans-Serif" font-size="10.00">_post_to_device</text>
</a>
</g>
</g>
<!-- Node7&#45;&gt;Node8 -->
<g id="edge8" class="edge">
<title>Node7&#45;&gt;Node8</title>
<path fill="none" stroke="midnightblue" d="M705.27,-373.78C680.21,-388.62 644.37,-408.37 611,-421.5 602.64,-424.79 593.67,-427.77 584.74,-430.43"/>
<polygon fill="midnightblue" stroke="midnightblue" points="707.21,-376.69 713.99,-368.55 703.62,-370.69 707.21,-376.69"/>
</g>
<!-- Node10 -->
<g id="node10" class="node">
<title>Node10</title>
<g id="a_node10"><a xlink:href="classklyqa__ctl_1_1account_1_1Account.html#a1450d1baa029967965be433e4efb5a6d" target="_top" xlink:title=" ">
<polygon fill="white" stroke="black" points="427,-283.5 427,-313.5 611,-313.5 611,-283.5 427,-283.5"/>
<text text-anchor="start" x="435" y="-301.5" font-family="Helvetica,sans-Serif" font-size="10.00">klyqa_ctl.account.Account.request</text>
<text text-anchor="middle" x="519" y="-290.5" font-family="Helvetica,sans-Serif" font-size="10.00">_cloud_device_state</text>
</a>
</g>
</g>
<!-- Node7&#45;&gt;Node10 -->
<g id="edge10" class="edge">
<title>Node7&#45;&gt;Node10</title>
<path fill="none" stroke="midnightblue" d="M668.49,-335.96C639.85,-328.74 607,-320.45 579.5,-313.51"/>
<polygon fill="midnightblue" stroke="midnightblue" points="667.88,-339.42 678.43,-338.47 669.59,-332.63 667.88,-339.42"/>
</g>
<!-- Node7&#45;&gt;Node11 -->
<g id="edge12" class="edge">
<title>Node7&#45;&gt;Node11</title>
<path fill="none" stroke="midnightblue" d="M651.93,-370.48C633.53,-374.11 614.21,-377.92 596.2,-381.47"/>
<polygon fill="midnightblue" stroke="midnightblue" points="652.62,-373.91 661.75,-368.54 651.27,-367.04 652.62,-373.91"/>
</g>
<!-- Node13 -->
<g id="node13" class="node">
<title>Node13</title>
<g id="a_node13"><a xlink:href="classklyqa__ctl_1_1account_1_1Account.html#a4fb47c923d3a579054e8cc72480906fb" target="_top" xlink:title=" ">
<polygon fill="white" stroke="black" points="428.5,-332.5 428.5,-362.5 609.5,-362.5 609.5,-332.5 428.5,-332.5"/>
<text text-anchor="start" x="436.5" y="-350.5" font-family="Helvetica,sans-Serif" font-size="10.00">klyqa_ctl.account.Account.update</text>
<text text-anchor="middle" x="519" y="-339.5" font-family="Helvetica,sans-Serif" font-size="10.00">_device_configs</text>
</a>
</g>
</g>
<!-- Node7&#45;&gt;Node13 -->
<g id="edge14" class="edge">
<title>Node7&#45;&gt;Node13</title>
<path fill="none" stroke="midnightblue" d="M636.71,-350.71C627.72,-350.46 618.66,-350.22 609.78,-349.97"/>
<polygon fill="midnightblue" stroke="midnightblue" points="636.72,-354.21 646.81,-350.99 636.91,-347.22 636.72,-354.21"/>
</g>
<!-- Node9 -->
<g id="node9" class="node">
<title>Node9</title>
<g id="a_node9"><a xlink:href="classklyqa__ctl_1_1account_1_1Account.html#a372d813db2141719743dfe088dbe9552" target="_top" xlink:title=" ">
<polygon fill="white" stroke="black" points="212.5,-430.5 212.5,-460.5 385.5,-460.5 385.5,-430.5 212.5,-430.5"/>
<text text-anchor="start" x="220.5" y="-448.5" font-family="Helvetica,sans-Serif" font-size="10.00">klyqa_ctl.account.Account.cloud</text>
<text text-anchor="middle" x="299" y="-437.5" font-family="Helvetica,sans-Serif" font-size="10.00">_post_command_to_dev</text>
</a>
</g>
</g>
<!-- Node8&#45;&gt;Node9 -->
<g id="edge9" class="edge">
<title>Node8&#45;&gt;Node9</title>
<path fill="none" stroke="midnightblue" d="M422.29,-445.5C410.09,-445.5 397.67,-445.5 385.64,-445.5"/>
<polygon fill="midnightblue" stroke="midnightblue" points="422.47,-449 432.47,-445.5 422.47,-442 422.47,-449"/>
</g>
<!-- Node10&#45;&gt;Node4 -->
<g id="edge11" class="edge">
<title>Node10&#45;&gt;Node4</title>
<path fill="none" stroke="midnightblue" d="M416.71,-298.5C407.37,-298.5 397.95,-298.5 388.73,-298.5"/>
<polygon fill="midnightblue" stroke="midnightblue" points="416.81,-302 426.81,-298.5 416.81,-295 416.81,-302"/>
</g>
<!-- Node11&#45;&gt;Node12 -->
<g id="edge13" class="edge">
<title>Node11&#45;&gt;Node12</title>
<path fill="none" stroke="midnightblue" d="M418.21,-396.5C409.15,-396.5 400.01,-396.5 391.03,-396.5"/>
<polygon fill="midnightblue" stroke="midnightblue" points="418.39,-400 428.39,-396.5 418.39,-393 418.39,-400"/>
</g>
<!-- Node14&#45;&gt;Node5 -->
<g id="edge17" class="edge">
<title>Node14&#45;&gt;Node5</title>
<path fill="none" stroke="midnightblue" d="M860.27,-625.83C751.64,-626.43 575.75,-622.03 427,-593.5 302.72,-569.66 161.43,-511.95 108.26,-489.07"/>
<polygon fill="midnightblue" stroke="midnightblue" points="860.59,-629.33 870.57,-625.76 860.54,-622.33 860.59,-629.33"/>
</g>
<!-- Node16 -->
<g id="node16" class="node">
<title>Node16</title>
<g id="a_node16"><a xlink:href="classklyqa__ctl_1_1account_1_1Account.html#a8e93f6fe918bf32c172447d4ef439d2d" target="_top" xlink:title=" ">
<polygon fill="white" stroke="black" points="654,-289.5 654,-319.5 824,-319.5 824,-289.5 654,-289.5"/>
<text text-anchor="start" x="662" y="-307.5" font-family="Helvetica,sans-Serif" font-size="10.00">klyqa_ctl.account.Account.sync</text>
<text text-anchor="middle" x="739" y="-296.5" font-family="Helvetica,sans-Serif" font-size="10.00">_acc_settings_to_controller</text>
</a>
</g>
</g>
<!-- Node15&#45;&gt;Node16 -->
<g id="edge21" class="edge">
<title>Node15&#45;&gt;Node16</title>
<path fill="none" stroke="midnightblue" d="M861.93,-304.5C849.34,-304.5 836.57,-304.5 824.27,-304.5"/>
<polygon fill="midnightblue" stroke="midnightblue" points="861.98,-308 871.98,-304.5 861.98,-301 861.98,-308"/>
</g>
<!-- Node17&#45;&gt;Node17 -->
<g id="edge23" class="edge">
<title>Node17&#45;&gt;Node17</title>
<path fill="none" stroke="midnightblue" d="M1000.6,-466.96C996.06,-471.68 983.86,-475 964,-475 931.41,-475 919.44,-466.06 928.1,-456.66"/>
<polygon fill="midnightblue" stroke="midnightblue" points="1004.07,-466.4 999.9,-456.66 997.09,-466.87 1004.07,-466.4"/>
</g>
<!-- Node18 -->
<g id="node18" class="node">
<title>Node18</title>
<g id="a_node18"><a xlink:href="classklyqa__ctl_1_1klyqa__ctl_1_1Client.html#a7a93bda9f242d678a4208d0962837f11" target="_top" xlink:title=" ">
<polygon fill="white" stroke="black" points="656,-426.5 656,-456.5 822,-456.5 822,-426.5 656,-426.5"/>
<text text-anchor="start" x="664" y="-444.5" font-family="Helvetica,sans-Serif" font-size="10.00">klyqa_ctl.klyqa_ctl.Client.send</text>
<text text-anchor="middle" x="739" y="-433.5" font-family="Helvetica,sans-Serif" font-size="10.00">_to_devices_wrapped</text>
</a>
</g>
</g>
<!-- Node17&#45;&gt;Node18 -->
<g id="edge24" class="edge">
<title>Node17&#45;&gt;Node18</title>
<path fill="none" stroke="midnightblue" d="M870.5,-441.5C854.51,-441.5 837.98,-441.5 822.29,-441.5"/>
<polygon fill="midnightblue" stroke="midnightblue" points="870.91,-445 880.91,-441.5 870.91,-438 870.91,-445"/>
</g>
<!-- Node20&#45;&gt;Node3 -->
<g id="edge28" class="edge">
<title>Node20&#45;&gt;Node3</title>
<path fill="none" stroke="midnightblue" d="M1163.28,-447.51C1150.05,-406.24 1117.89,-324.07 1061,-280.5 1055.94,-276.63 1050.34,-273.35 1044.46,-270.58"/>
<polygon fill="midnightblue" stroke="midnightblue" points="1160.02,-448.79 1166.32,-457.31 1166.7,-446.72 1160.02,-448.79"/>
</g>
<!-- Node20&#45;&gt;Node4 -->
<g id="edge29" class="edge">
<title>Node20&#45;&gt;Node4</title>
<path fill="none" stroke="midnightblue" d="M1140.58,-493.11C1119.41,-506.4 1089.78,-522.46 1061,-529.5 786.11,-596.76 647.16,-648.31 427,-470.5 390.9,-441.35 417.96,-410.26 391,-372.5 373.37,-347.81 345.43,-326.79 325.16,-313.53"/>
<polygon fill="midnightblue" stroke="midnightblue" points="1142.59,-495.98 1149.11,-487.63 1138.8,-490.1 1142.59,-495.98"/>
</g>
<!-- Node20&#45;&gt;Node5 -->
<g id="edge31" class="edge">
<title>Node20&#45;&gt;Node5</title>
<path fill="none" stroke="midnightblue" d="M1164.75,-497.51C1153.3,-541.08 1123.19,-630.16 1061,-671.5 941.52,-750.92 883.46,-705.5 740,-705.5 740,-705.5 740,-705.5 518,-705.5 328.57,-705.5 140.28,-532.47 96.16,-489.21"/>
<polygon fill="midnightblue" stroke="midnightblue" points="1168.17,-498.27 1167.21,-487.72 1161.38,-496.56 1168.17,-498.27"/>
</g>
<!-- Node20&#45;&gt;Node6 -->
<g id="edge30" class="edge">
<title>Node20&#45;&gt;Node6</title>
<path fill="none" stroke="midnightblue" d="M1150.27,-450.01C1129.79,-428.57 1096.19,-396.91 1061,-378.5 1053.6,-374.63 1045.56,-371.32 1037.38,-368.52"/>
<polygon fill="midnightblue" stroke="midnightblue" points="1147.81,-452.5 1157.2,-457.4 1152.92,-447.71 1147.81,-452.5"/>
</g>
<!-- Node20&#45;&gt;Node7 -->
<g id="edge34" class="edge">
<title>Node20&#45;&gt;Node7</title>
<path fill="none" stroke="midnightblue" d="M1119.11,-490.55C1055.15,-509.62 944.87,-531.06 867,-484.5 837.99,-467.15 853.43,-442.79 831,-417.5 813.06,-397.27 787.53,-380.02 768.07,-368.55"/>
<polygon fill="midnightblue" stroke="midnightblue" points="1120.43,-493.8 1128.96,-487.52 1118.38,-487.11 1120.43,-493.8"/>
</g>
<!-- Node20&#45;&gt;Node11 -->
<g id="edge38" class="edge">
<title>Node20&#45;&gt;Node11</title>
<path fill="none" stroke="midnightblue" d="M1127.88,-491.51C1107.99,-499.38 1083.73,-507.57 1061,-511.5 976.04,-526.18 952.78,-520.18 867,-511.5 767.71,-501.45 732.14,-518.57 647,-466.5 625.15,-453.14 632.39,-435.58 611,-421.5 605.12,-417.63 598.64,-414.35 591.94,-411.58"/>
<polygon fill="midnightblue" stroke="midnightblue" points="1129.33,-494.7 1137.27,-487.69 1126.69,-488.22 1129.33,-494.7"/>
</g>
<!-- Node20&#45;&gt;Node12 -->
<g id="edge33" class="edge">
<title>Node20&#45;&gt;Node12</title>
<path fill="none" stroke="midnightblue" d="M1163.6,-497.3C1150.9,-537.57 1119.6,-615.94 1061,-648.5 985.63,-690.37 953.06,-653.86 867,-648.5 670.3,-636.25 571.95,-727.03 427,-593.5 369.56,-540.58 444.49,-478.41 391,-421.5 387.41,-417.68 383.29,-414.42 378.84,-411.65"/>
<polygon fill="midnightblue" stroke="midnightblue" points="1166.96,-498.3 1166.5,-487.71 1160.25,-496.27 1166.96,-498.3"/>
</g>
<!-- Node20&#45;&gt;Node14 -->
<g id="edge32" class="edge">
<title>Node20&#45;&gt;Node14</title>
<path fill="none" stroke="midnightblue" d="M1155.1,-496.03C1136.1,-523.28 1101.31,-567.71 1061,-593.5 1051.51,-599.57 1040.71,-604.48 1029.86,-608.44"/>
<polygon fill="midnightblue" stroke="midnightblue" points="1158.18,-497.73 1160.92,-487.5 1152.39,-493.79 1158.18,-497.73"/>
</g>
<!-- Node20&#45;&gt;Node15 -->
<g id="edge35" class="edge">
<title>Node20&#45;&gt;Node15</title>
<path fill="none" stroke="midnightblue" d="M1158.48,-448.15C1141.34,-415.99 1106.8,-359.9 1061,-329.5 1055.12,-325.59 1048.66,-322.3 1041.95,-319.52"/>
<polygon fill="midnightblue" stroke="midnightblue" points="1155.52,-450.04 1163.24,-457.3 1161.73,-446.82 1155.52,-450.04"/>
</g>
<!-- Node20&#45;&gt;Node17 -->
<g id="edge36" class="edge">
<title>Node20&#45;&gt;Node17</title>
<path fill="none" stroke="midnightblue" d="M1086.95,-459.9C1073.82,-457.92 1060.26,-455.87 1047.17,-453.89"/>
<polygon fill="midnightblue" stroke="midnightblue" points="1086.48,-463.36 1096.89,-461.4 1087.52,-456.44 1086.48,-463.36"/>
</g>
<!-- Node20&#45;&gt;Node19 -->
<g id="edge37" class="edge">
<title>Node20&#45;&gt;Node19</title>
<path fill="none" stroke="midnightblue" d="M1136.33,-452.44C1115.23,-440.79 1087.25,-426.65 1061,-417.5 1048.94,-413.3 1035.71,-409.84 1023.03,-407.05"/>
<polygon fill="midnightblue" stroke="midnightblue" points="1134.79,-455.59 1145.22,-457.42 1138.21,-449.48 1134.79,-455.59"/>
</g>
<!-- Node22 -->
<g id="node22" class="node">
<title>Node22</title>
<g id="a_node22"><a xlink:href="classklyqa__ctl_1_1general_1_1general_1_1Command.html#a86ac6b91392108a0e640037ab271bbb8" target="_top" xlink:title=" ">
<polygon fill="white" stroke="black" points="892.5,-0.5 892.5,-30.5 1035.5,-30.5 1035.5,-0.5 892.5,-0.5"/>
<text text-anchor="start" x="900.5" y="-18.5" font-family="Helvetica,sans-Serif" font-size="10.00">klyqa_ctl.general.general.</text>
<text text-anchor="middle" x="964" y="-7.5" font-family="Helvetica,sans-Serif" font-size="10.00">Command.__str__</text>
</a>
</g>
</g>
<!-- Node21&#45;&gt;Node22 -->
<g id="edge40" class="edge">
<title>Node21&#45;&gt;Node22</title>
<path fill="none" stroke="midnightblue" d="M1140.77,-90.9C1119.32,-76.72 1089.29,-58.22 1061,-45.5 1048.42,-39.84 1034.46,-34.82 1021.17,-30.58"/>
<polygon fill="midnightblue" stroke="midnightblue" points="1138.86,-93.83 1149.11,-96.49 1142.75,-88.02 1138.86,-93.83"/>
</g>
</g>
</svg>
        <g id="navigator" transform="translate(0 0)" fill="#404254">
                <rect fill="#f2f5e9" fill-opacity="0.5" stroke="#606060" stroke-width=".5" x="0" y="0" width="60" height="60"/>
                <use id="zoomplus" xlink:href="#zoomPlus" x="17" y="9" onmousedown="handleZoom(evt,'in')"/>
                <use id="zoomminus" xlink:href="#zoomMin" x="42" y="9" onmousedown="handleZoom(evt,'out')"/>
                <use id="reset" xlink:href="#resetDef" x="30" y="36" onmousedown="handleReset()"/>
                <g id="arrowUp" xlink:href="#dirArrow" transform="translate(30 24)" onmousedown="handlePan(0,-1)">
                  <use xlink:href="#rim" fill="#404040">
                        <set attributeName="fill" to="#808080" begin="arrowUp.mouseover" end="arrowUp.mouseout"/>
                  </use>
                  <path fill="none" stroke="white" stroke-width="1.5" d="M0,-3.0v7 M-2.5,-0.5L0,-3.0L2.5,-0.5"/>
                </g>
                <g id="arrowRight" xlink:href="#dirArrow" transform="rotate(90) translate(36 -43)" onmousedown="handlePan(1,0)">
                  <use xlink:href="#rim" fill="#404040">
                        <set attributeName="fill" to="#808080" begin="arrowRight.mouseover" end="arrowRight.mouseout"/>
                  </use>
                  <path fill="none" stroke="white" stroke-width="1.5" d="M0,-3.0v7 M-2.5,-0.5L0,-3.0L2.5,-0.5"/>
                </g>
                <g id="arrowDown" xlink:href="#dirArrow" transform="rotate(180) translate(-30 -48)" onmousedown="handlePan(0,1)">
                  <use xlink:href="#rim" fill="#404040">
                        <set attributeName="fill" to="#808080" begin="arrowDown.mouseover" end="arrowDown.mouseout"/>
                  </use>
                  <path fill="none" stroke="white" stroke-width="1.5" d="M0,-3.0v7 M-2.5,-0.5L0,-3.0L2.5,-0.5"/>
                </g>
                <g id="arrowLeft" xlink:href="#dirArrow" transform="rotate(270) translate(-36 17)" onmousedown="handlePan(-1,0)">
                  <use xlink:href="#rim" fill="#404040">
                        <set attributeName="fill" to="#808080" begin="arrowLeft.mouseover" end="arrowLeft.mouseout"/>
                  </use>
                  <path fill="none" stroke="white" stroke-width="1.5" d="M0,-3.0v7 M-2.5,-0.5L0,-3.0L2.5,-0.5"/>
                </g>
        </g>
        <svg viewBox="0 0 15 15" width="100%" height="30px" preserveAspectRatio="xMaxYMin meet">
         <g id="arrow_out" transform="scale(0.3 0.3)">
          <a xlink:href="classklyqa__ctl_1_1devices_1_1light_1_1commands_1_1FwUpdateCommand_a9de3441c7fbba5f5a19ea914970a3db7_icgraph_org.svg" target="_base">
           <rect id="button" ry="5" rx="5" y="6" x="6" height="38" width="38"
                fill="#f2f5e9" fill-opacity="0.5" stroke="#606060" stroke-width="1.0"/>
           <path id="arrow"
             d="M 11.500037,31.436501 C 11.940474,20.09759 22.043105,11.32322 32.158766,21.979434 L 37.068811,17.246167 C 37.068811,17.246167 37.088388,32 37.088388,32 L 22.160133,31.978069 C 22.160133,31.978069 26.997745,27.140456 26.997745,27.140456 C 18.528582,18.264221 13.291696,25.230495 11.500037,31.436501 z"
             style="fill:#404040;"/>
          </a>
         </g>
        </svg>
</svg>
