<?xml version="1.0" encoding="UTF-8" standalone="no"?>
<!DOCTYPE svg PUBLIC "-//W3C//DTD SVG 1.1//EN"
 "http://www.w3.org/Graphics/SVG/1.1/DTD/svg11.dtd">
<!-- Generated by graphviz version 2.43.0 (0)
 -->
<!-- Title: local.connection_handler.LocalConnectionHandler.handle_connections_task_stop Pages: 1 -->
<svg width="399pt" height="50pt"
 viewBox="0.00 0.00 399.00 50.00" xmlns="http://www.w3.org/2000/svg" xmlns:xlink="http://www.w3.org/1999/xlink">
<g id="graph0" class="graph" transform="scale(1 1) rotate(0) translate(4 46)">
<title>local.connection_handler.LocalConnectionHandler.handle_connections_task_stop</title>
<polygon fill="white" stroke="transparent" points="-4,4 -4,-46 395,-46 395,4 -4,4"/>
<!-- Node1 -->
<g id="node1" class="node">
<title>Node1</title>
<g id="a_node1"><a xlink:title=" ">
<polygon fill="#bfbfbf" stroke="black" points="221,-0.5 221,-41.5 391,-41.5 391,-0.5 221,-0.5"/>
<text text-anchor="start" x="229" y="-29.5" font-family="Helvetica,sans-Serif" font-size="10.00">local.connection_handler.</text>
<text text-anchor="start" x="229" y="-18.5" font-family="Helvetica,sans-Serif" font-size="10.00">LocalConnectionHandler.handle</text>
<text text-anchor="middle" x="306" y="-7.5" font-family="Helvetica,sans-Serif" font-size="10.00">_connections_task_stop</text>
</a>
</g>
</g>
<!-- Node2 -->
<g id="node2" class="node">
<title>Node2</title>
<g id="a_node2"><a xlink:href="classlocal_1_1connection__handler_1_1LocalConnectionHandler.html#a3510d32dbcb1a08fcd7796e2d8d2bdd6" target="_top" xlink:title=" ">
<polygon fill="white" stroke="black" points="0,-6 0,-36 185,-36 185,-6 0,-6"/>
<text text-anchor="start" x="8" y="-24" font-family="Helvetica,sans-Serif" font-size="10.00">local.connection_handler.</text>
<text text-anchor="middle" x="92.5" y="-13" font-family="Helvetica,sans-Serif" font-size="10.00">LocalConnectionHandler.shutdown</text>
</a>
</g>
</g>
<!-- Node1&#45;&gt;Node2 -->
<g id="edge1" class="edge">
<title>Node1&#45;&gt;Node2</title>
<path fill="none" stroke="midnightblue" d="M210.53,-21C202.06,-21 193.5,-21 185.05,-21"/>
<polygon fill="midnightblue" stroke="midnightblue" points="210.8,-24.5 220.8,-21 210.8,-17.5 210.8,-24.5"/>
</g>
</g>
</svg>
