<?xml version="1.0" encoding="UTF-8" standalone="no"?>
<!DOCTYPE svg PUBLIC "-//W3C//DTD SVG 1.1//EN"
 "http://www.w3.org/Graphics/SVG/1.1/DTD/svg11.dtd">
<!-- Generated by graphviz version 2.43.0 (0)
 -->
<!-- Title: local.connection_handler.LocalConnectionHandler.shutdown Pages: 1 -->
<svg width="1053pt" height="70pt"
 viewBox="0.00 0.00 1053.00 69.50" xmlns="http://www.w3.org/2000/svg" xmlns:xlink="http://www.w3.org/1999/xlink">
<g id="graph0" class="graph" transform="scale(1 1) rotate(0) translate(4 65.5)">
<title>local.connection_handler.LocalConnectionHandler.shutdown</title>
<polygon fill="white" stroke="transparent" points="-4,4 -4,-65.5 1049,-65.5 1049,4 -4,4"/>
<!-- Node1 -->
<g id="node1" class="node">
<title>Node1</title>
<g id="a_node1"><a xlink:title=" ">
<polygon fill="#bfbfbf" stroke="black" points="0,-0.5 0,-30.5 185,-30.5 185,-0.5 0,-0.5"/>
<text text-anchor="start" x="8" y="-18.5" font-family="Helvetica,sans-Serif" font-size="10.00">local.connection_handler.</text>
<text text-anchor="middle" x="92.5" y="-7.5" font-family="Helvetica,sans-Serif" font-size="10.00">LocalConnectionHandler.shutdown</text>
</a>
</g>
</g>
<!-- Node2 -->
<g id="node2" class="node">
<title>Node2</title>
<g id="a_node2"><a xlink:href="classlocal_1_1connection__handler_1_1LocalConnectionHandler.html#aa780e39d1ce443d422a41064cc382d1f" target="_top" xlink:title=" ">
<polygon fill="white" stroke="black" points="221,-20 221,-61 391,-61 391,-20 221,-20"/>
<text text-anchor="start" x="229" y="-49" font-family="Helvetica,sans-Serif" font-size="10.00">local.connection_handler.</text>
<text text-anchor="start" x="229" y="-38" font-family="Helvetica,sans-Serif" font-size="10.00">LocalConnectionHandler.handle</text>
<text text-anchor="middle" x="306" y="-27" font-family="Helvetica,sans-Serif" font-size="10.00">_connections_task_stop</text>
</a>
</g>
</g>
<!-- Node1&#45;&gt;Node2 -->
<g id="edge1" class="edge">
<title>Node1&#45;&gt;Node2</title>
<path fill="none" stroke="midnightblue" d="M185.04,-26.32C193.62,-27.33 202.34,-28.36 210.94,-29.38"/>
<polygon fill="midnightblue" stroke="midnightblue" points="210.65,-32.87 220.99,-30.57 211.47,-25.92 210.65,-32.87"/>
</g>
<!-- Node3 -->
<g id="node3" class="node">
<title>Node3</title>
<g id="a_node3"><a xlink:href="namespaceklyqa__ctl_1_1general_1_1general.html#a1afe30a73cc28a3b65babeeab27e36c8" target="_top" xlink:title=" ">
<polygon fill="white" stroke="black" points="427,-0.5 427,-30.5 591,-30.5 591,-0.5 427,-0.5"/>
<text text-anchor="start" x="435" y="-18.5" font-family="Helvetica,sans-Serif" font-size="10.00">klyqa_ctl.general.general.task</text>
<text text-anchor="middle" x="509" y="-7.5" font-family="Helvetica,sans-Serif" font-size="10.00">_log_debug</text>
</a>
</g>
</g>
<!-- Node1&#45;&gt;Node3 -->
<g id="edge5" class="edge">
<title>Node1&#45;&gt;Node3</title>
<path fill="none" stroke="midnightblue" d="M185.07,-11.48C197.15,-11.07 209.37,-10.73 221,-10.5 296.54,-9.02 315.46,-8.89 391,-10.5 399.33,-10.68 407.99,-10.93 416.66,-11.22"/>
<polygon fill="midnightblue" stroke="midnightblue" points="416.7,-14.72 426.82,-11.58 416.95,-7.73 416.7,-14.72"/>
</g>
<!-- Node2&#45;&gt;Node3 -->
<g id="edge2" class="edge">
<title>Node2&#45;&gt;Node3</title>
<path fill="none" stroke="midnightblue" d="M391.08,-30.04C399.58,-28.98 408.25,-27.91 416.82,-26.84"/>
<polygon fill="midnightblue" stroke="midnightblue" points="417.34,-30.3 426.83,-25.6 416.48,-23.36 417.34,-30.3"/>
</g>
<!-- Node4 -->
<g id="node4" class="node">
<title>Node4</title>
<g id="a_node4"><a xlink:href="namespaceklyqa__ctl_1_1general_1_1general.html#a9df3b50dfc0fcc7c8ec991bb9be9c5ba" target="_top" xlink:title=" ">
<polygon fill="white" stroke="black" points="627,-6 627,-25 812,-25 812,-6 627,-6"/>
<text text-anchor="middle" x="719.5" y="-13" font-family="Helvetica,sans-Serif" font-size="10.00">klyqa_ctl.general.general.task_log</text>
</a>
</g>
</g>
<!-- Node3&#45;&gt;Node4 -->
<g id="edge3" class="edge">
<title>Node3&#45;&gt;Node4</title>
<path fill="none" stroke="midnightblue" d="M591.21,-15.5C599.59,-15.5 608.18,-15.5 616.75,-15.5"/>
<polygon fill="midnightblue" stroke="midnightblue" points="616.79,-19 626.79,-15.5 616.79,-12 616.79,-19"/>
</g>
<!-- Node5 -->
<g id="node5" class="node">
<title>Node5</title>
<g id="a_node5"><a xlink:href="namespaceklyqa__ctl_1_1general_1_1general.html#aea905150cafee39fa2ca211f1e60f012" target="_top" xlink:title=" ">
<polygon fill="white" stroke="black" points="848,-6 848,-25 1045,-25 1045,-6 848,-6"/>
<text text-anchor="middle" x="946.5" y="-13" font-family="Helvetica,sans-Serif" font-size="10.00">klyqa_ctl.general.general.task_name</text>
</a>
</g>
</g>
<!-- Node4&#45;&gt;Node5 -->
<g id="edge4" class="edge">
<title>Node4&#45;&gt;Node5</title>
<path fill="none" stroke="midnightblue" d="M812.02,-15.5C820.5,-15.5 829.15,-15.5 837.76,-15.5"/>
<polygon fill="midnightblue" stroke="midnightblue" points="837.83,-19 847.83,-15.5 837.83,-12 837.83,-19"/>
</g>
</g>
</svg>
