<?xml version="1.0" encoding="UTF-8" standalone="no"?>
<!DOCTYPE svg PUBLIC "-//W3C//DTD SVG 1.1//EN"
 "http://www.w3.org/Graphics/SVG/1.1/DTD/svg11.dtd">
<!-- Generated by graphviz version 2.43.0 (0)
 -->
<!-- Title: klyqa_ctl.devices.vacuum.commands.CommandType Pages: 1 -->
<svg width="211pt" height="193pt"
 viewBox="0.00 0.00 211.00 193.00" xmlns="http://www.w3.org/2000/svg" xmlns:xlink="http://www.w3.org/1999/xlink">
<g id="graph0" class="graph" transform="scale(1 1) rotate(0) translate(4 189)">
<title>klyqa_ctl.devices.vacuum.commands.CommandType</title>
<polygon fill="white" stroke="transparent" points="-4,4 -4,-189 207,-189 207,4 -4,4"/>
<!-- Node1 -->
<g id="node1" class="node">
<title>Node1</title>
<g id="a_node1"><a xlink:title=" ">
<polygon fill="#bfbfbf" stroke="black" points="0,-0.5 0,-90.5 203,-90.5 203,-0.5 0,-0.5"/>
<text text-anchor="start" x="8" y="-78.5" font-family="Helvetica,sans-Serif" font-size="10.00">klyqa_ctl.devices.vacuum.commands.</text>
<text text-anchor="middle" x="101.5" y="-67.5" font-family="Helvetica,sans-Serif" font-size="10.00">CommandType</text>
<polyline fill="none" stroke="black" points="0,-60.5 203,-60.5 "/>
<text text-anchor="start" x="8" y="-48.5" font-family="Helvetica,sans-Serif" font-size="10.00">+ int GET</text>
<text text-anchor="start" x="8" y="-37.5" font-family="Helvetica,sans-Serif" font-size="10.00">+ int SET</text>
<text text-anchor="start" x="8" y="-26.5" font-family="Helvetica,sans-Serif" font-size="10.00">+ int RESET</text>
<polyline fill="none" stroke="black" points="0,-19.5 203,-19.5 "/>
<text text-anchor="middle" x="101.5" y="-7.5" font-family="Helvetica,sans-Serif" font-size="10.00"> </text>
</a>
</g>
</g>
<!-- Node2 -->
<g id="node2" class="node">
<title>Node2</title>
<g id="a_node2"><a xlink:title=" ">
<polygon fill="white" stroke="#bfbfbf" points="79.5,-127.5 79.5,-184.5 123.5,-184.5 123.5,-127.5 79.5,-127.5"/>
<text text-anchor="middle" x="101.5" y="-172.5" font-family="Helvetica,sans-Serif" font-size="10.00">Enum</text>
<polyline fill="none" stroke="#bfbfbf" points="79.5,-165.5 123.5,-165.5 "/>
<text text-anchor="middle" x="101.5" y="-153.5" font-family="Helvetica,sans-Serif" font-size="10.00"> </text>
<polyline fill="none" stroke="#bfbfbf" points="79.5,-146.5 123.5,-146.5 "/>
<text text-anchor="middle" x="101.5" y="-134.5" font-family="Helvetica,sans-Serif" font-size="10.00"> </text>
</a>
</g>
</g>
<!-- Node2&#45;&gt;Node1 -->
<g id="edge1" class="edge">
<title>Node2&#45;&gt;Node1</title>
<path fill="none" stroke="midnightblue" d="M101.5,-117.21C101.5,-108.61 101.5,-99.39 101.5,-90.55"/>
<polygon fill="none" stroke="midnightblue" points="98,-117.34 101.5,-127.34 105,-117.34 98,-117.34"/>
</g>
</g>
</svg>
