<?xml version="1.0" encoding="UTF-8" standalone="no"?>
<!DOCTYPE svg PUBLIC "-//W3C//DTD SVG 1.1//EN"
 "http://www.w3.org/Graphics/SVG/1.1/DTD/svg11.dtd">
<!-- Generated by graphviz version 2.43.0 (0)
 -->
<!-- Title: klyqa_ctl.account.Account.update_device_configs Pages: 1 -->
<svg width="1626pt" height="676pt"
 viewBox="0.00 0.00 1626.00 676.00" xmlns="http://www.w3.org/2000/svg" xmlns:xlink="http://www.w3.org/1999/xlink">
<g id="graph0" class="graph" transform="scale(1 1) rotate(0) translate(4 672)">
<title>klyqa_ctl.account.Account.update_device_configs</title>
<polygon fill="white" stroke="transparent" points="-4,4 -4,-672 1622,-672 1622,4 -4,4"/>
<!-- Node1 -->
<g id="node1" class="node">
<title>Node1</title>
<g id="a_node1"><a xlink:title=" ">
<polygon fill="#bfbfbf" stroke="black" points="0,-339.5 0,-369.5 181,-369.5 181,-339.5 0,-339.5"/>
<text text-anchor="start" x="8" y="-357.5" font-family="Helvetica,sans-Serif" font-size="10.00">klyqa_ctl.account.Account.update</text>
<text text-anchor="middle" x="90.5" y="-346.5" font-family="Helvetica,sans-Serif" font-size="10.00">_device_configs</text>
</a>
</g>
</g>
<!-- Node2 -->
<g id="node2" class="node">
<title>Node2</title>
<g id="a_node2"><a xlink:href="classklyqa__ctl_1_1account_1_1Account.html#a7bcb9ac9804621630ea08a688abecd18" target="_top" xlink:title=" ">
<polygon fill="white" stroke="black" points="217,-493 217,-512 438,-512 438,-493 217,-493"/>
<text text-anchor="middle" x="327.5" y="-500" font-family="Helvetica,sans-Serif" font-size="10.00">klyqa_ctl.account.Account.controller_data</text>
</a>
</g>
</g>
<!-- Node1&#45;&gt;Node2 -->
<g id="edge1" class="edge">
<title>Node1&#45;&gt;Node2</title>
<path fill="none" stroke="midnightblue" d="M101.46,-369.84C120.34,-397.55 164.22,-455.65 217,-483.5 221.36,-485.8 225.93,-487.83 230.64,-489.62"/>
<polygon fill="midnightblue" stroke="midnightblue" points="229.88,-493.05 240.47,-492.97 232.13,-486.43 229.88,-493.05"/>
</g>
<!-- Node3 -->
<g id="node3" class="node">
<title>Node3</title>
<g id="a_node3"><a xlink:href="classcloud_1_1CloudBackend.html#aef174fe1ba95fff13c7901ff56354ec9" target="_top" xlink:title=" ">
<polygon fill="white" stroke="black" points="232,-455 232,-474 423,-474 423,-455 232,-455"/>
<text text-anchor="middle" x="327.5" y="-462" font-family="Helvetica,sans-Serif" font-size="10.00">cloud.CloudBackend.controller_data</text>
</a>
</g>
</g>
<!-- Node1&#45;&gt;Node3 -->
<g id="edge2" class="edge">
<title>Node1&#45;&gt;Node3</title>
<path fill="none" stroke="midnightblue" d="M107.06,-369.51C129.43,-390.15 172.87,-426.86 217,-445.5 223.21,-448.12 229.76,-450.38 236.45,-452.33"/>
<polygon fill="midnightblue" stroke="midnightblue" points="235.76,-455.77 246.33,-454.97 237.57,-449.01 235.76,-455.77"/>
</g>
<!-- Node4 -->
<g id="node4" class="node">
<title>Node4</title>
<g id="a_node4"><a xlink:href="classlocal_1_1connection__handler_1_1LocalConnectionHandler.html#a8f938ae53b3c24bbdc02f377671cf263" target="_top" xlink:title=" ">
<polygon fill="white" stroke="black" points="222,-405.5 222,-435.5 433,-435.5 433,-405.5 222,-405.5"/>
<text text-anchor="start" x="230" y="-423.5" font-family="Helvetica,sans-Serif" font-size="10.00">local.connection_handler.</text>
<text text-anchor="middle" x="327.5" y="-412.5" font-family="Helvetica,sans-Serif" font-size="10.00">LocalConnectionHandler.controller_data</text>
</a>
</g>
</g>
<!-- Node1&#45;&gt;Node4 -->
<g id="edge3" class="edge">
<title>Node1&#45;&gt;Node4</title>
<path fill="none" stroke="midnightblue" d="M134.19,-369.52C158.33,-377.74 189.17,-387.79 217,-395.5 226.44,-398.11 236.4,-400.67 246.3,-403.08"/>
<polygon fill="midnightblue" stroke="midnightblue" points="245.62,-406.52 256.16,-405.44 247.25,-399.71 245.62,-406.52"/>
</g>
<!-- Node5 -->
<g id="node5" class="node">
<title>Node5</title>
<g id="a_node5"><a xlink:href="classklyqa__ctl_1_1account_1_1Account.html#a2265c38daf6829c96c852ad4a288b42d" target="_top" xlink:title=" ">
<polygon fill="white" stroke="black" points="235,-367 235,-386 420,-386 420,-367 235,-367"/>
<text text-anchor="middle" x="327.5" y="-374" font-family="Helvetica,sans-Serif" font-size="10.00">klyqa_ctl.account.Account.devices</text>
</a>
</g>
</g>
<!-- Node1&#45;&gt;Node5 -->
<g id="edge4" class="edge">
<title>Node1&#45;&gt;Node5</title>
<path fill="none" stroke="midnightblue" d="M181.01,-362.88C195.35,-364.22 210.27,-365.62 224.86,-366.98"/>
<polygon fill="midnightblue" stroke="midnightblue" points="224.61,-370.48 234.9,-367.92 225.27,-363.51 224.61,-370.48"/>
</g>
<!-- Node6 -->
<g id="node6" class="node">
<title>Node6</title>
<g id="a_node6"><a xlink:href="classlocal_1_1connection__handler_1_1LocalConnectionHandler.html#a4d307f6bd0b66f3cb9fac3057fc87972" target="_top" xlink:title=" ">
<polygon fill="white" stroke="black" points="240,-317.5 240,-347.5 415,-347.5 415,-317.5 240,-317.5"/>
<text text-anchor="start" x="248" y="-335.5" font-family="Helvetica,sans-Serif" font-size="10.00">local.connection_handler.</text>
<text text-anchor="middle" x="327.5" y="-324.5" font-family="Helvetica,sans-Serif" font-size="10.00">LocalConnectionHandler.devices</text>
</a>
</g>
</g>
<!-- Node1&#45;&gt;Node6 -->
<g id="edge5" class="edge">
<title>Node1&#45;&gt;Node6</title>
<path fill="none" stroke="midnightblue" d="M181.01,-346.12C197.02,-344.62 213.76,-343.05 229.95,-341.54"/>
<polygon fill="midnightblue" stroke="midnightblue" points="230.32,-345.02 239.95,-340.6 229.67,-338.05 230.32,-345.02"/>
</g>
<!-- Node7 -->
<g id="node7" class="node">
<title>Node7</title>
<g id="a_node7"><a xlink:href="classklyqa__ctl_1_1controller__data_1_1ControllerData.html#adf7af423388a9a883c428cf71e217650" target="_top" xlink:title=" ">
<polygon fill="white" stroke="black" points="248.5,-268.5 248.5,-298.5 406.5,-298.5 406.5,-268.5 248.5,-268.5"/>
<text text-anchor="start" x="256.5" y="-286.5" font-family="Helvetica,sans-Serif" font-size="10.00">klyqa_ctl.controller</text>
<text text-anchor="middle" x="327.5" y="-275.5" font-family="Helvetica,sans-Serif" font-size="10.00">_data.ControllerData.devices</text>
</a>
</g>
</g>
<!-- Node1&#45;&gt;Node7 -->
<g id="edge6" class="edge">
<title>Node1&#45;&gt;Node7</title>
<path fill="none" stroke="midnightblue" d="M128.7,-339.45C153.46,-329.79 186.85,-317.43 217,-308.5 225.95,-305.85 235.38,-303.32 244.8,-300.95"/>
<polygon fill="midnightblue" stroke="midnightblue" points="245.72,-304.33 254.6,-298.54 244.05,-297.53 245.72,-304.33"/>
</g>
<!-- Node8 -->
<g id="node8" class="node">
<title>Node8</title>
<g id="a_node8"><a xlink:href="classklyqa__ctl_1_1account_1_1Account.html#a73506bd234f8e819e138c2bd663179b8" target="_top" xlink:title=" ">
<polygon fill="white" stroke="black" points="235.5,-219.5 235.5,-249.5 419.5,-249.5 419.5,-219.5 235.5,-219.5"/>
<text text-anchor="start" x="243.5" y="-237.5" font-family="Helvetica,sans-Serif" font-size="10.00">klyqa_ctl.account.Account.request</text>
<text text-anchor="middle" x="327.5" y="-226.5" font-family="Helvetica,sans-Serif" font-size="10.00">_beared</text>
</a>
</g>
</g>
<!-- Node1&#45;&gt;Node8 -->
<g id="edge7" class="edge">
<title>Node1&#45;&gt;Node8</title>
<path fill="none" stroke="midnightblue" d="M106.7,-339.5C128.97,-318.38 172.67,-280.17 217,-259.5 222.32,-257.02 227.91,-254.78 233.62,-252.75"/>
<polygon fill="midnightblue" stroke="midnightblue" points="234.93,-256 243.33,-249.54 232.73,-249.36 234.93,-256"/>
</g>
<!-- Node42 -->
<g id="node42" class="node">
<title>Node42</title>
<g id="a_node42"><a xlink:href="namespaceklyqa__ctl_1_1general_1_1general.html#a1afe30a73cc28a3b65babeeab27e36c8" target="_top" xlink:title=" ">
<polygon fill="white" stroke="black" points="245.5,-138.5 245.5,-168.5 409.5,-168.5 409.5,-138.5 245.5,-138.5"/>
<text text-anchor="start" x="253.5" y="-156.5" font-family="Helvetica,sans-Serif" font-size="10.00">klyqa_ctl.general.general.task</text>
<text text-anchor="middle" x="327.5" y="-145.5" font-family="Helvetica,sans-Serif" font-size="10.00">_log_debug</text>
</a>
</g>
</g>
<!-- Node1&#45;&gt;Node42 -->
<g id="edge60" class="edge">
<title>Node1&#45;&gt;Node42</title>
<path fill="none" stroke="midnightblue" d="M101.68,-339.24C121.26,-310.79 166.7,-248.95 217,-209.5 235.78,-194.77 259.04,-182.22 279.29,-172.77"/>
<polygon fill="midnightblue" stroke="midnightblue" points="281,-175.83 288.65,-168.51 278.1,-169.46 281,-175.83"/>
</g>
<!-- Node9 -->
<g id="node9" class="node">
<title>Node9</title>
<g id="a_node9"><a xlink:href="classklyqa__ctl_1_1account_1_1Account.html#aeb463ade6756bf093a809634f64c6ef6" target="_top" xlink:title=" ">
<polygon fill="white" stroke="black" points="707,-214 707,-233 880,-233 880,-214 707,-214"/>
<text text-anchor="middle" x="793.5" y="-221" font-family="Helvetica,sans-Serif" font-size="10.00">klyqa_ctl.account.Account.cloud</text>
</a>
</g>
</g>
<!-- Node8&#45;&gt;Node9 -->
<g id="edge8" class="edge">
<title>Node8&#45;&gt;Node9</title>
<path fill="none" stroke="midnightblue" d="M419.6,-224.38C437.61,-222.76 456.38,-221.35 474,-220.5 556.13,-216.56 576.78,-219.58 659,-220.5 671.16,-220.64 683.95,-220.84 696.59,-221.09"/>
<polygon fill="midnightblue" stroke="midnightblue" points="696.62,-224.59 706.69,-221.29 696.76,-217.59 696.62,-224.59"/>
</g>
<!-- Node10 -->
<g id="node10" class="node">
<title>Node10</title>
<g id="a_node10"><a xlink:href="classklyqa__ctl_1_1devices_1_1device_1_1Device.html#a574647293c61d5f53e153d48ddb31f65" target="_top" xlink:title=" ">
<polygon fill="white" stroke="black" points="723.5,-159.5 723.5,-189.5 863.5,-189.5 863.5,-159.5 723.5,-159.5"/>
<text text-anchor="start" x="731.5" y="-177.5" font-family="Helvetica,sans-Serif" font-size="10.00">klyqa_ctl.devices.device.</text>
<text text-anchor="middle" x="793.5" y="-166.5" font-family="Helvetica,sans-Serif" font-size="10.00">Device.cloud</text>
</a>
</g>
</g>
<!-- Node8&#45;&gt;Node10 -->
<g id="edge9" class="edge">
<title>Node8&#45;&gt;Node10</title>
<path fill="none" stroke="midnightblue" d="M419.69,-222.57C437.69,-220.22 456.44,-217.78 474,-215.5 555.48,-204.94 648.69,-192.95 713.13,-184.68"/>
<polygon fill="midnightblue" stroke="midnightblue" points="713.75,-188.13 723.22,-183.38 712.86,-181.18 713.75,-188.13"/>
</g>
<!-- Node11 -->
<g id="node11" class="node">
<title>Node11</title>
<g id="a_node11"><a xlink:href="classklyqa__ctl_1_1general_1_1general_1_1Command.html#a4aa9e4db12aecf5520e974204c635d38" target="_top" xlink:title=" ">
<polygon fill="white" stroke="black" points="722,-343.5 722,-373.5 865,-373.5 865,-343.5 722,-343.5"/>
<text text-anchor="start" x="730" y="-361.5" font-family="Helvetica,sans-Serif" font-size="10.00">klyqa_ctl.general.general.</text>
<text text-anchor="middle" x="793.5" y="-350.5" font-family="Helvetica,sans-Serif" font-size="10.00">Command.cloud</text>
</a>
</g>
</g>
<!-- Node8&#45;&gt;Node11 -->
<g id="edge10" class="edge">
<title>Node8&#45;&gt;Node11</title>
<path fill="none" stroke="midnightblue" d="M419.61,-248.42C426.18,-251.45 432.4,-255.1 438,-259.5 466.14,-281.6 444.39,-311.42 474,-331.5 543.72,-378.77 642.73,-379.48 711.79,-372.22"/>
<polygon fill="midnightblue" stroke="midnightblue" points="712.21,-375.7 721.75,-371.1 711.42,-368.74 712.21,-375.7"/>
</g>
<!-- Node39 -->
<g id="node39" class="node">
<title>Node39</title>
<g id="a_node39"><a xlink:href="classklyqa__ctl_1_1general_1_1general_1_1CloudStateCommand.html#a6bbc8b1333f0a45ce38f1e81a6093bc1" target="_top" xlink:title=" ">
<polygon fill="white" stroke="black" points="719,-294.5 719,-324.5 868,-324.5 868,-294.5 719,-294.5"/>
<text text-anchor="start" x="727" y="-312.5" font-family="Helvetica,sans-Serif" font-size="10.00">klyqa_ctl.general.general.</text>
<text text-anchor="middle" x="793.5" y="-301.5" font-family="Helvetica,sans-Serif" font-size="10.00">CloudStateCommand.cloud</text>
</a>
</g>
</g>
<!-- Node8&#45;&gt;Node39 -->
<g id="edge38" class="edge">
<title>Node8&#45;&gt;Node39</title>
<path fill="none" stroke="midnightblue" d="M417.78,-249.52C424.86,-252.3 431.7,-255.6 438,-259.5 459.48,-272.81 451.27,-292.47 474,-303.5 548.3,-339.57 644.29,-335.6 711.39,-326.03"/>
<polygon fill="midnightblue" stroke="midnightblue" points="712.12,-329.46 721.49,-324.52 711.08,-322.54 712.12,-329.46"/>
</g>
<!-- Node40 -->
<g id="node40" class="node">
<title>Node40</title>
<g id="a_node40"><a xlink:href="classklyqa__ctl_1_1klyqa__ctl_1_1Client.html#a7d8a302d936e8e1889f175bac259f565" target="_top" xlink:title=" ">
<polygon fill="white" stroke="black" points="709,-255 709,-274 878,-274 878,-255 709,-255"/>
<text text-anchor="middle" x="793.5" y="-262" font-family="Helvetica,sans-Serif" font-size="10.00">klyqa_ctl.klyqa_ctl.Client.cloud</text>
</a>
</g>
</g>
<!-- Node8&#45;&gt;Node40 -->
<g id="edge53" class="edge">
<title>Node8&#45;&gt;Node40</title>
<path fill="none" stroke="midnightblue" d="M419.71,-239.67C486.09,-243.51 578.13,-249.02 659,-254.5 671.84,-255.37 685.38,-256.33 698.7,-257.3"/>
<polygon fill="midnightblue" stroke="midnightblue" points="698.61,-260.81 708.84,-258.05 699.12,-253.82 698.61,-260.81"/>
</g>
<!-- Node41 -->
<g id="node41" class="node">
<title>Node41</title>
<g id="a_node41"><a xlink:href="classklyqa__ctl_1_1account_1_1Account.html#ad608e3ee0ba1199f509e644a11081724" target="_top" xlink:title=" ">
<polygon fill="white" stroke="black" points="485,-263.5 485,-293.5 648,-293.5 648,-263.5 485,-263.5"/>
<text text-anchor="start" x="493" y="-281.5" font-family="Helvetica,sans-Serif" font-size="10.00">klyqa_ctl.account.Account.get</text>
<text text-anchor="middle" x="566.5" y="-270.5" font-family="Helvetica,sans-Serif" font-size="10.00">_beared_request_header</text>
</a>
</g>
</g>
<!-- Node8&#45;&gt;Node41 -->
<g id="edge54" class="edge">
<title>Node8&#45;&gt;Node41</title>
<path fill="none" stroke="midnightblue" d="M409.4,-249.52C430.47,-253.43 453.31,-257.67 474.84,-261.67"/>
<polygon fill="midnightblue" stroke="midnightblue" points="474.49,-265.16 484.97,-263.55 475.77,-258.28 474.49,-265.16"/>
</g>
<!-- Node12 -->
<g id="node12" class="node">
<title>Node12</title>
<g id="a_node12"><a xlink:href="classklyqa__ctl_1_1devices_1_1light_1_1commands_1_1FwUpdateCommand.html#a9de3441c7fbba5f5a19ea914970a3db7" target="_top" xlink:title=" ">
<polygon fill="white" stroke="black" points="936.5,-637.5 936.5,-667.5 1122.5,-667.5 1122.5,-637.5 936.5,-637.5"/>
<text text-anchor="start" x="944.5" y="-655.5" font-family="Helvetica,sans-Serif" font-size="10.00">klyqa_ctl.devices.light.commands.</text>
<text text-anchor="middle" x="1029.5" y="-644.5" font-family="Helvetica,sans-Serif" font-size="10.00">FwUpdateCommand.json</text>
</a>
</g>
</g>
<!-- Node11&#45;&gt;Node12 -->
<g id="edge11" class="edge">
<title>Node11&#45;&gt;Node12</title>
<path fill="none" stroke="midnightblue" d="M797.29,-373.56C806.65,-419.58 841.31,-559.4 928,-628.5 929.58,-629.76 931.21,-630.95 932.89,-632.08"/>
<polygon fill="midnightblue" stroke="midnightblue" points="931.26,-635.19 941.66,-637.25 934.82,-629.16 931.26,-635.19"/>
</g>
<!-- Node14 -->
<g id="node14" class="node">
<title>Node14</title>
<g id="a_node14"><a xlink:href="classklyqa__ctl_1_1devices_1_1light_1_1commands_1_1TransitionCommand.html#aaf9d8431e346c86b9959102c2d7f3316" target="_top" xlink:title=" ">
<polygon fill="white" stroke="black" points="936.5,-294.5 936.5,-324.5 1122.5,-324.5 1122.5,-294.5 936.5,-294.5"/>
<text text-anchor="start" x="944.5" y="-312.5" font-family="Helvetica,sans-Serif" font-size="10.00">klyqa_ctl.devices.light.commands.</text>
<text text-anchor="middle" x="1029.5" y="-301.5" font-family="Helvetica,sans-Serif" font-size="10.00">TransitionCommand.json</text>
</a>
</g>
</g>
<!-- Node11&#45;&gt;Node14 -->
<g id="edge13" class="edge">
<title>Node11&#45;&gt;Node14</title>
<path fill="none" stroke="midnightblue" d="M865.03,-343.73C890.68,-338.36 919.89,-332.24 946.46,-326.68"/>
<polygon fill="midnightblue" stroke="midnightblue" points="947.43,-330.05 956.5,-324.58 946,-323.2 947.43,-330.05"/>
</g>
<!-- Node15 -->
<g id="node15" class="node">
<title>Node15</title>
<g id="a_node15"><a xlink:href="classklyqa__ctl_1_1devices_1_1light_1_1commands_1_1ColorCommand.html#afa8f262e4047666707237c4dfe8615c3" target="_top" xlink:title=" ">
<polygon fill="white" stroke="black" points="936.5,-588.5 936.5,-618.5 1122.5,-618.5 1122.5,-588.5 936.5,-588.5"/>
<text text-anchor="start" x="944.5" y="-606.5" font-family="Helvetica,sans-Serif" font-size="10.00">klyqa_ctl.devices.light.commands.</text>
<text text-anchor="middle" x="1029.5" y="-595.5" font-family="Helvetica,sans-Serif" font-size="10.00">ColorCommand.json</text>
</a>
</g>
</g>
<!-- Node11&#45;&gt;Node15 -->
<g id="edge14" class="edge">
<title>Node11&#45;&gt;Node15</title>
<path fill="none" stroke="midnightblue" d="M799.07,-373.67C812.03,-414.05 853.07,-524.77 928,-579.5 929.88,-580.88 931.83,-582.17 933.84,-583.4"/>
<polygon fill="midnightblue" stroke="midnightblue" points="932.5,-586.65 942.97,-588.31 935.82,-580.49 932.5,-586.65"/>
</g>
<!-- Node18 -->
<g id="node18" class="node">
<title>Node18</title>
<g id="a_node18"><a xlink:href="classklyqa__ctl_1_1devices_1_1light_1_1commands_1_1TemperatureCommand.html#aaa297cd598227ab2f33a6d111532e5e0" target="_top" xlink:title=" ">
<polygon fill="white" stroke="black" points="936.5,-539.5 936.5,-569.5 1122.5,-569.5 1122.5,-539.5 936.5,-539.5"/>
<text text-anchor="start" x="944.5" y="-557.5" font-family="Helvetica,sans-Serif" font-size="10.00">klyqa_ctl.devices.light.commands.</text>
<text text-anchor="middle" x="1029.5" y="-546.5" font-family="Helvetica,sans-Serif" font-size="10.00">TemperatureCommand.json</text>
</a>
</g>
</g>
<!-- Node11&#45;&gt;Node18 -->
<g id="edge17" class="edge">
<title>Node11&#45;&gt;Node18</title>
<path fill="none" stroke="midnightblue" d="M801.75,-373.71C818.72,-407.6 864.46,-489.54 928,-530.5 930.59,-532.17 933.29,-533.73 936.07,-535.17"/>
<polygon fill="midnightblue" stroke="midnightblue" points="934.63,-538.37 945.17,-539.44 937.6,-532.03 934.63,-538.37"/>
</g>
<!-- Node21 -->
<g id="node21" class="node">
<title>Node21</title>
<g id="a_node21"><a xlink:href="classklyqa__ctl_1_1devices_1_1light_1_1commands_1_1BrightnessCommand.html#a946e7180dd8f3bd4621c23b24e63469a" target="_top" xlink:title=" ">
<polygon fill="white" stroke="black" points="936.5,-490.5 936.5,-520.5 1122.5,-520.5 1122.5,-490.5 936.5,-490.5"/>
<text text-anchor="start" x="944.5" y="-508.5" font-family="Helvetica,sans-Serif" font-size="10.00">klyqa_ctl.devices.light.commands.</text>
<text text-anchor="middle" x="1029.5" y="-497.5" font-family="Helvetica,sans-Serif" font-size="10.00">BrightnessCommand.json</text>
</a>
</g>
</g>
<!-- Node11&#45;&gt;Node21 -->
<g id="edge20" class="edge">
<title>Node11&#45;&gt;Node21</title>
<path fill="none" stroke="midnightblue" d="M806.34,-373.61C827.72,-399.8 875.43,-453.5 928,-481.5 931.55,-483.39 935.25,-485.13 939.04,-486.74"/>
<polygon fill="midnightblue" stroke="midnightblue" points="938.05,-490.11 948.64,-490.47 940.59,-483.59 938.05,-490.11"/>
</g>
<!-- Node24 -->
<g id="node24" class="node">
<title>Node24</title>
<g id="a_node24"><a xlink:href="classklyqa__ctl_1_1devices_1_1light_1_1commands_1_1ExternalSourceCommand.html#a393710b54f709b852bfd0f3769c39ce6" target="_top" xlink:title=" ">
<polygon fill="white" stroke="black" points="936.5,-98.5 936.5,-128.5 1122.5,-128.5 1122.5,-98.5 936.5,-98.5"/>
<text text-anchor="start" x="944.5" y="-116.5" font-family="Helvetica,sans-Serif" font-size="10.00">klyqa_ctl.devices.light.commands.</text>
<text text-anchor="middle" x="1029.5" y="-105.5" font-family="Helvetica,sans-Serif" font-size="10.00">ExternalSourceCommand.json</text>
</a>
</g>
</g>
<!-- Node11&#45;&gt;Node24 -->
<g id="edge23" class="edge">
<title>Node11&#45;&gt;Node24</title>
<path fill="none" stroke="midnightblue" d="M865.34,-351.42C875.36,-347.66 884.71,-342.24 892,-334.5 953,-269.69 866.77,-202.1 928,-137.5 928.8,-136.65 929.63,-135.83 930.48,-135.04"/>
<polygon fill="midnightblue" stroke="midnightblue" points="932.97,-137.54 938.67,-128.61 928.64,-132.03 932.97,-137.54"/>
</g>
<!-- Node25 -->
<g id="node25" class="node">
<title>Node25</title>
<g id="a_node25"><a xlink:href="classklyqa__ctl_1_1devices_1_1light_1_1commands_1_1RoutineCommand.html#af3395a663a3dbdff8117ee708f80adec" target="_top" xlink:title=" ">
<polygon fill="white" stroke="black" points="936.5,-49.5 936.5,-79.5 1122.5,-79.5 1122.5,-49.5 936.5,-49.5"/>
<text text-anchor="start" x="944.5" y="-67.5" font-family="Helvetica,sans-Serif" font-size="10.00">klyqa_ctl.devices.light.commands.</text>
<text text-anchor="middle" x="1029.5" y="-56.5" font-family="Helvetica,sans-Serif" font-size="10.00">RoutineCommand.json</text>
</a>
</g>
</g>
<!-- Node11&#45;&gt;Node25 -->
<g id="edge24" class="edge">
<title>Node11&#45;&gt;Node25</title>
<path fill="none" stroke="midnightblue" d="M865.09,-351.82C875.27,-348.03 884.73,-342.5 892,-334.5 966.29,-252.71 853.42,-170.04 928,-88.5 928.66,-87.78 929.34,-87.07 930.04,-86.39"/>
<polygon fill="midnightblue" stroke="midnightblue" points="932.58,-88.83 938.08,-79.77 928.13,-83.42 932.58,-88.83"/>
</g>
<!-- Node26 -->
<g id="node26" class="node">
<title>Node26</title>
<g id="a_node26"><a xlink:href="classklyqa__ctl_1_1devices_1_1vacuum_1_1commands_1_1ProductinfoCommand.html#a23d375f048835d4b0f12602764d2a6c1" target="_top" xlink:title=" ">
<polygon fill="white" stroke="black" points="928,-392.5 928,-422.5 1131,-422.5 1131,-392.5 928,-392.5"/>
<text text-anchor="start" x="936" y="-410.5" font-family="Helvetica,sans-Serif" font-size="10.00">klyqa_ctl.devices.vacuum.commands.</text>
<text text-anchor="middle" x="1029.5" y="-399.5" font-family="Helvetica,sans-Serif" font-size="10.00">ProductinfoCommand.json</text>
</a>
</g>
</g>
<!-- Node11&#45;&gt;Node26 -->
<g id="edge25" class="edge">
<title>Node11&#45;&gt;Node26</title>
<path fill="none" stroke="midnightblue" d="M865.03,-373.27C890.68,-378.64 919.89,-384.76 946.46,-390.32"/>
<polygon fill="midnightblue" stroke="midnightblue" points="946,-393.8 956.5,-392.42 947.43,-386.95 946,-393.8"/>
</g>
<!-- Node28 -->
<g id="node28" class="node">
<title>Node28</title>
<g id="a_node28"><a xlink:href="classklyqa__ctl_1_1devices_1_1vacuum_1_1commands_1_1RequestGetCommand.html#a216966811184b718a4659bf081113f38" target="_top" xlink:title=" ">
<polygon fill="white" stroke="black" points="928,-343.5 928,-373.5 1131,-373.5 1131,-343.5 928,-343.5"/>
<text text-anchor="start" x="936" y="-361.5" font-family="Helvetica,sans-Serif" font-size="10.00">klyqa_ctl.devices.vacuum.commands.</text>
<text text-anchor="middle" x="1029.5" y="-350.5" font-family="Helvetica,sans-Serif" font-size="10.00">RequestGetCommand.json</text>
</a>
</g>
</g>
<!-- Node11&#45;&gt;Node28 -->
<g id="edge27" class="edge">
<title>Node11&#45;&gt;Node28</title>
<path fill="none" stroke="midnightblue" d="M865.03,-358.5C881.64,-358.5 899.75,-358.5 917.66,-358.5"/>
<polygon fill="midnightblue" stroke="midnightblue" points="917.87,-362 927.87,-358.5 917.87,-355 917.87,-362"/>
</g>
<!-- Node30 -->
<g id="node30" class="node">
<title>Node30</title>
<g id="a_node30"><a xlink:href="classklyqa__ctl_1_1devices_1_1vacuum_1_1commands_1_1RequestResetCommand.html#a1ac56b80427d60d9f55079ae846ae25e" target="_top" xlink:title=" ">
<polygon fill="white" stroke="black" points="928,-245.5 928,-275.5 1131,-275.5 1131,-245.5 928,-245.5"/>
<text text-anchor="start" x="936" y="-263.5" font-family="Helvetica,sans-Serif" font-size="10.00">klyqa_ctl.devices.vacuum.commands.</text>
<text text-anchor="middle" x="1029.5" y="-252.5" font-family="Helvetica,sans-Serif" font-size="10.00">RequestResetCommand.json</text>
</a>
</g>
</g>
<!-- Node11&#45;&gt;Node30 -->
<g id="edge29" class="edge">
<title>Node11&#45;&gt;Node30</title>
<path fill="none" stroke="midnightblue" d="M865.18,-347.38C874.65,-344.13 883.88,-339.93 892,-334.5 914.47,-319.48 905.55,-300.55 928,-285.5 931.09,-283.43 934.35,-281.52 937.71,-279.78"/>
<polygon fill="midnightblue" stroke="midnightblue" points="939.26,-282.92 946.84,-275.52 936.3,-276.58 939.26,-282.92"/>
</g>
<!-- Node32 -->
<g id="node32" class="node">
<title>Node32</title>
<g id="a_node32"><a xlink:href="classklyqa__ctl_1_1devices_1_1vacuum_1_1commands_1_1RequestSetCommand.html#a354b74be46f4b7d8a56811eaab910959" target="_top" xlink:title=" ">
<polygon fill="white" stroke="black" points="928,-196.5 928,-226.5 1131,-226.5 1131,-196.5 928,-196.5"/>
<text text-anchor="start" x="936" y="-214.5" font-family="Helvetica,sans-Serif" font-size="10.00">klyqa_ctl.devices.vacuum.commands.</text>
<text text-anchor="middle" x="1029.5" y="-203.5" font-family="Helvetica,sans-Serif" font-size="10.00">RequestSetCommand.json</text>
</a>
</g>
</g>
<!-- Node11&#45;&gt;Node32 -->
<g id="edge31" class="edge">
<title>Node11&#45;&gt;Node32</title>
<path fill="none" stroke="midnightblue" d="M865.24,-349.92C875.03,-346.33 884.34,-341.36 892,-334.5 926.58,-303.55 893.46,-267.49 928,-236.5 929.74,-234.94 931.56,-233.47 933.45,-232.09"/>
<polygon fill="midnightblue" stroke="midnightblue" points="935.57,-234.9 942.15,-226.6 931.83,-228.98 935.57,-234.9"/>
</g>
<!-- Node34 -->
<g id="node34" class="node">
<title>Node34</title>
<g id="a_node34"><a xlink:href="classklyqa__ctl_1_1devices_1_1vacuum_1_1commands_1_1RoutineCommand.html#a926a94c8cc5104275078e438fb301028" target="_top" xlink:title=" ">
<polygon fill="white" stroke="black" points="928,-147.5 928,-177.5 1131,-177.5 1131,-147.5 928,-147.5"/>
<text text-anchor="start" x="936" y="-165.5" font-family="Helvetica,sans-Serif" font-size="10.00">klyqa_ctl.devices.vacuum.commands.</text>
<text text-anchor="middle" x="1029.5" y="-154.5" font-family="Helvetica,sans-Serif" font-size="10.00">RoutineCommand.json</text>
</a>
</g>
</g>
<!-- Node11&#45;&gt;Node34 -->
<g id="edge33" class="edge">
<title>Node11&#45;&gt;Node34</title>
<path fill="none" stroke="midnightblue" d="M865.45,-350.86C875.33,-347.16 884.61,-341.91 892,-334.5 939.8,-286.57 880.03,-234.27 928,-186.5 928.97,-185.54 929.96,-184.61 930.99,-183.72"/>
<polygon fill="midnightblue" stroke="midnightblue" points="933.39,-186.3 939.36,-177.55 929.23,-180.67 933.39,-186.3"/>
</g>
<!-- Node36 -->
<g id="node36" class="node">
<title>Node36</title>
<g id="a_node36"><a xlink:href="classklyqa__ctl_1_1general_1_1general_1_1Command.html#a8c8ad93fedd0da0e0021f58714ec7fb5" target="_top" xlink:title=" ">
<polygon fill="white" stroke="black" points="958,-441.5 958,-471.5 1101,-471.5 1101,-441.5 958,-441.5"/>
<text text-anchor="start" x="966" y="-459.5" font-family="Helvetica,sans-Serif" font-size="10.00">klyqa_ctl.general.general.</text>
<text text-anchor="middle" x="1029.5" y="-448.5" font-family="Helvetica,sans-Serif" font-size="10.00">Command.json</text>
</a>
</g>
</g>
<!-- Node11&#45;&gt;Node36 -->
<g id="edge35" class="edge">
<title>Node11&#45;&gt;Node36</title>
<path fill="none" stroke="midnightblue" d="M817.19,-373.61C843.03,-390.19 886.99,-416.58 928,-432.5 934.35,-434.96 941.02,-437.23 947.79,-439.29"/>
<polygon fill="midnightblue" stroke="midnightblue" points="947.16,-442.75 957.74,-442.17 949.11,-436.03 947.16,-442.75"/>
</g>
<!-- Node37 -->
<g id="node37" class="node">
<title>Node37</title>
<g id="a_node37"><a xlink:href="classklyqa__ctl_1_1general_1_1general_1_1CommandTyped.html#a96dfd43912c4640f381424bdd44eebca" target="_top" xlink:title=" ">
<polygon fill="white" stroke="black" points="958,-0.5 958,-30.5 1101,-30.5 1101,-0.5 958,-0.5"/>
<text text-anchor="start" x="966" y="-18.5" font-family="Helvetica,sans-Serif" font-size="10.00">klyqa_ctl.general.general.</text>
<text text-anchor="middle" x="1029.5" y="-7.5" font-family="Helvetica,sans-Serif" font-size="10.00">CommandTyped.json</text>
</a>
</g>
</g>
<!-- Node11&#45;&gt;Node37 -->
<g id="edge36" class="edge">
<title>Node11&#45;&gt;Node37</title>
<path fill="none" stroke="midnightblue" d="M865.26,-351.97C875.41,-348.16 884.83,-342.59 892,-334.5 979.63,-235.67 840.02,-138.02 928,-39.5 933.71,-33.1 940.79,-28.26 948.53,-24.61"/>
<polygon fill="midnightblue" stroke="midnightblue" points="949.91,-27.83 957.88,-20.86 947.3,-21.34 949.91,-27.83"/>
</g>
<!-- Node13 -->
<g id="node13" class="node">
<title>Node13</title>
<g id="a_node13"><a xlink:href="classklyqa__ctl_1_1devices_1_1light_1_1commands_1_1FwUpdateCommand.html#a7dc482a4e9a65d49ce0a61671ed6868e" target="_top" xlink:title=" ">
<polygon fill="white" stroke="black" points="1183,-637.5 1183,-667.5 1369,-667.5 1369,-637.5 1183,-637.5"/>
<text text-anchor="start" x="1191" y="-655.5" font-family="Helvetica,sans-Serif" font-size="10.00">klyqa_ctl.devices.light.commands.</text>
<text text-anchor="middle" x="1276" y="-644.5" font-family="Helvetica,sans-Serif" font-size="10.00">FwUpdateCommand.url_json</text>
</a>
</g>
</g>
<!-- Node12&#45;&gt;Node13 -->
<g id="edge12" class="edge">
<title>Node12&#45;&gt;Node13</title>
<path fill="none" stroke="midnightblue" d="M1122.59,-652.5C1138.95,-652.5 1156.09,-652.5 1172.72,-652.5"/>
<polygon fill="midnightblue" stroke="midnightblue" points="1173,-656 1183,-652.5 1173,-649 1173,-656"/>
</g>
<!-- Node16 -->
<g id="node16" class="node">
<title>Node16</title>
<g id="a_node16"><a xlink:href="classklyqa__ctl_1_1devices_1_1light_1_1commands_1_1ColorCommand.html#a6ce99d7f4f232fb2f11e6efb7e85e778" target="_top" xlink:title=" ">
<polygon fill="white" stroke="black" points="1183,-588.5 1183,-618.5 1369,-618.5 1369,-588.5 1183,-588.5"/>
<text text-anchor="start" x="1191" y="-606.5" font-family="Helvetica,sans-Serif" font-size="10.00">klyqa_ctl.devices.light.commands.</text>
<text text-anchor="middle" x="1276" y="-595.5" font-family="Helvetica,sans-Serif" font-size="10.00">ColorCommand.color_json</text>
</a>
</g>
</g>
<!-- Node15&#45;&gt;Node16 -->
<g id="edge15" class="edge">
<title>Node15&#45;&gt;Node16</title>
<path fill="none" stroke="midnightblue" d="M1122.59,-603.5C1138.95,-603.5 1156.09,-603.5 1172.72,-603.5"/>
<polygon fill="midnightblue" stroke="midnightblue" points="1173,-607 1183,-603.5 1173,-600 1173,-607"/>
</g>
<!-- Node17 -->
<g id="node17" class="node">
<title>Node17</title>
<g id="a_node17"><a xlink:href="classklyqa__ctl_1_1devices_1_1light_1_1response__status_1_1ResponseStatus.html#a327c18fd6f8a38e75e1bbc2f895df592" target="_top" xlink:title=" ">
<polygon fill="white" stroke="black" points="1433,-588.5 1433,-618.5 1606,-618.5 1606,-588.5 1433,-588.5"/>
<text text-anchor="start" x="1441" y="-606.5" font-family="Helvetica,sans-Serif" font-size="10.00">klyqa_ctl.devices.light.response</text>
<text text-anchor="middle" x="1519.5" y="-595.5" font-family="Helvetica,sans-Serif" font-size="10.00">_status.ResponseStatus.color</text>
</a>
</g>
</g>
<!-- Node16&#45;&gt;Node17 -->
<g id="edge16" class="edge">
<title>Node16&#45;&gt;Node17</title>
<path fill="none" stroke="midnightblue" d="M1369.33,-603.5C1386.81,-603.5 1405.13,-603.5 1422.71,-603.5"/>
<polygon fill="midnightblue" stroke="midnightblue" points="1422.96,-607 1432.96,-603.5 1422.96,-600 1422.96,-607"/>
</g>
<!-- Node19 -->
<g id="node19" class="node">
<title>Node19</title>
<g id="a_node19"><a xlink:href="classklyqa__ctl_1_1devices_1_1light_1_1commands_1_1TemperatureCommand.html#a0b45255dc9218a36450152f1118a8280" target="_top" xlink:title=" ">
<polygon fill="white" stroke="black" points="1167,-539.5 1167,-569.5 1385,-569.5 1385,-539.5 1167,-539.5"/>
<text text-anchor="start" x="1175" y="-557.5" font-family="Helvetica,sans-Serif" font-size="10.00">klyqa_ctl.devices.light.commands.</text>
<text text-anchor="middle" x="1276" y="-546.5" font-family="Helvetica,sans-Serif" font-size="10.00">TemperatureCommand.temperature_json</text>
</a>
</g>
</g>
<!-- Node18&#45;&gt;Node19 -->
<g id="edge18" class="edge">
<title>Node18&#45;&gt;Node19</title>
<path fill="none" stroke="midnightblue" d="M1122.59,-554.5C1133.79,-554.5 1145.35,-554.5 1156.87,-554.5"/>
<polygon fill="midnightblue" stroke="midnightblue" points="1156.96,-558 1166.96,-554.5 1156.96,-551 1156.96,-558"/>
</g>
<!-- Node20 -->
<g id="node20" class="node">
<title>Node20</title>
<g id="a_node20"><a xlink:href="classklyqa__ctl_1_1devices_1_1light_1_1response__status_1_1ResponseStatus.html#a2e732c44c35f39dc3d8fe269c24aef8a" target="_top" xlink:title=" ">
<polygon fill="white" stroke="black" points="1421,-539.5 1421,-569.5 1618,-569.5 1618,-539.5 1421,-539.5"/>
<text text-anchor="start" x="1429" y="-557.5" font-family="Helvetica,sans-Serif" font-size="10.00">klyqa_ctl.devices.light.response</text>
<text text-anchor="middle" x="1519.5" y="-546.5" font-family="Helvetica,sans-Serif" font-size="10.00">_status.ResponseStatus.temperature</text>
</a>
</g>
</g>
<!-- Node19&#45;&gt;Node20 -->
<g id="edge19" class="edge">
<title>Node19&#45;&gt;Node20</title>
<path fill="none" stroke="midnightblue" d="M1385.04,-554.5C1393.61,-554.5 1402.27,-554.5 1410.85,-554.5"/>
<polygon fill="midnightblue" stroke="midnightblue" points="1410.86,-558 1420.86,-554.5 1410.86,-551 1410.86,-558"/>
</g>
<!-- Node22 -->
<g id="node22" class="node">
<title>Node22</title>
<g id="a_node22"><a xlink:href="classklyqa__ctl_1_1devices_1_1light_1_1commands_1_1BrightnessCommand.html#aba34fce7f4d8d6aae6bcbaaa61c21a8c" target="_top" xlink:title=" ">
<polygon fill="white" stroke="black" points="1177,-490.5 1177,-520.5 1375,-520.5 1375,-490.5 1177,-490.5"/>
<text text-anchor="start" x="1185" y="-508.5" font-family="Helvetica,sans-Serif" font-size="10.00">klyqa_ctl.devices.light.commands.</text>
<text text-anchor="middle" x="1276" y="-497.5" font-family="Helvetica,sans-Serif" font-size="10.00">BrightnessCommand.brightness_json</text>
</a>
</g>
</g>
<!-- Node21&#45;&gt;Node22 -->
<g id="edge21" class="edge">
<title>Node21&#45;&gt;Node22</title>
<path fill="none" stroke="midnightblue" d="M1122.59,-505.5C1136.99,-505.5 1152,-505.5 1166.73,-505.5"/>
<polygon fill="midnightblue" stroke="midnightblue" points="1166.87,-509 1176.87,-505.5 1166.87,-502 1166.87,-509"/>
</g>
<!-- Node23 -->
<g id="node23" class="node">
<title>Node23</title>
<g id="a_node23"><a xlink:href="classklyqa__ctl_1_1devices_1_1light_1_1response__status_1_1ResponseStatus.html#a762787729b726f6ad8bd5a9a3ae40a67" target="_top" xlink:title=" ">
<polygon fill="white" stroke="black" points="1426,-490.5 1426,-520.5 1613,-520.5 1613,-490.5 1426,-490.5"/>
<text text-anchor="start" x="1434" y="-508.5" font-family="Helvetica,sans-Serif" font-size="10.00">klyqa_ctl.devices.light.response</text>
<text text-anchor="middle" x="1519.5" y="-497.5" font-family="Helvetica,sans-Serif" font-size="10.00">_status.ResponseStatus.brightness</text>
</a>
</g>
</g>
<!-- Node22&#45;&gt;Node23 -->
<g id="edge22" class="edge">
<title>Node22&#45;&gt;Node23</title>
<path fill="none" stroke="midnightblue" d="M1375.23,-505.5C1388.55,-505.5 1402.25,-505.5 1415.64,-505.5"/>
<polygon fill="midnightblue" stroke="midnightblue" points="1415.82,-509 1425.82,-505.5 1415.82,-502 1415.82,-509"/>
</g>
<!-- Node27 -->
<g id="node27" class="node">
<title>Node27</title>
<g id="a_node27"><a xlink:href="classklyqa__ctl_1_1devices_1_1vacuum_1_1commands_1_1ProductinfoCommand.html#a1950a810783ab6312c31fa43dd06182c" target="_top" xlink:title=" ">
<polygon fill="white" stroke="black" points="1173,-392.5 1173,-422.5 1379,-422.5 1379,-392.5 1173,-392.5"/>
<text text-anchor="start" x="1181" y="-410.5" font-family="Helvetica,sans-Serif" font-size="10.00">klyqa_ctl.devices.vacuum.commands.</text>
<text text-anchor="middle" x="1276" y="-399.5" font-family="Helvetica,sans-Serif" font-size="10.00">ProductinfoCommand.productinfo_json</text>
</a>
</g>
</g>
<!-- Node26&#45;&gt;Node27 -->
<g id="edge26" class="edge">
<title>Node26&#45;&gt;Node27</title>
<path fill="none" stroke="midnightblue" d="M1131.01,-407.5C1141.49,-407.5 1152.19,-407.5 1162.79,-407.5"/>
<polygon fill="midnightblue" stroke="midnightblue" points="1162.91,-411 1172.91,-407.5 1162.91,-404 1162.91,-411"/>
</g>
<!-- Node29 -->
<g id="node29" class="node">
<title>Node29</title>
<g id="a_node29"><a xlink:href="classklyqa__ctl_1_1devices_1_1vacuum_1_1commands_1_1RequestGetCommand.html#a71be3cb060fa2c05f2762d13267c6144" target="_top" xlink:title=" ">
<polygon fill="white" stroke="black" points="1174.5,-343.5 1174.5,-373.5 1377.5,-373.5 1377.5,-343.5 1174.5,-343.5"/>
<text text-anchor="start" x="1182.5" y="-361.5" font-family="Helvetica,sans-Serif" font-size="10.00">klyqa_ctl.devices.vacuum.commands.</text>
<text text-anchor="middle" x="1276" y="-350.5" font-family="Helvetica,sans-Serif" font-size="10.00">RequestGetCommand.get_json</text>
</a>
</g>
</g>
<!-- Node28&#45;&gt;Node29 -->
<g id="edge28" class="edge">
<title>Node28&#45;&gt;Node29</title>
<path fill="none" stroke="midnightblue" d="M1131.01,-358.5C1142,-358.5 1153.23,-358.5 1164.34,-358.5"/>
<polygon fill="midnightblue" stroke="midnightblue" points="1164.49,-362 1174.49,-358.5 1164.49,-355 1164.49,-362"/>
</g>
<!-- Node31 -->
<g id="node31" class="node">
<title>Node31</title>
<g id="a_node31"><a xlink:href="classklyqa__ctl_1_1devices_1_1vacuum_1_1commands_1_1RequestResetCommand.html#a53de7ccfeb12e1b8f4c0ea8a82410d4e" target="_top" xlink:title=" ">
<polygon fill="white" stroke="black" points="1174.5,-245.5 1174.5,-275.5 1377.5,-275.5 1377.5,-245.5 1174.5,-245.5"/>
<text text-anchor="start" x="1182.5" y="-263.5" font-family="Helvetica,sans-Serif" font-size="10.00">klyqa_ctl.devices.vacuum.commands.</text>
<text text-anchor="middle" x="1276" y="-252.5" font-family="Helvetica,sans-Serif" font-size="10.00">RequestResetCommand.reset_json</text>
</a>
</g>
</g>
<!-- Node30&#45;&gt;Node31 -->
<g id="edge30" class="edge">
<title>Node30&#45;&gt;Node31</title>
<path fill="none" stroke="midnightblue" d="M1131.01,-260.5C1142,-260.5 1153.23,-260.5 1164.34,-260.5"/>
<polygon fill="midnightblue" stroke="midnightblue" points="1164.49,-264 1174.49,-260.5 1164.49,-257 1164.49,-264"/>
</g>
<!-- Node33 -->
<g id="node33" class="node">
<title>Node33</title>
<g id="a_node33"><a xlink:href="classklyqa__ctl_1_1devices_1_1vacuum_1_1commands_1_1RequestSetCommand.html#ac327b3b919e0d1a45ebe754e546f94f8" target="_top" xlink:title=" ">
<polygon fill="white" stroke="black" points="1174.5,-196.5 1174.5,-226.5 1377.5,-226.5 1377.5,-196.5 1174.5,-196.5"/>
<text text-anchor="start" x="1182.5" y="-214.5" font-family="Helvetica,sans-Serif" font-size="10.00">klyqa_ctl.devices.vacuum.commands.</text>
<text text-anchor="middle" x="1276" y="-203.5" font-family="Helvetica,sans-Serif" font-size="10.00">RequestSetCommand.set_json</text>
</a>
</g>
</g>
<!-- Node32&#45;&gt;Node33 -->
<g id="edge32" class="edge">
<title>Node32&#45;&gt;Node33</title>
<path fill="none" stroke="midnightblue" d="M1131.01,-211.5C1142,-211.5 1153.23,-211.5 1164.34,-211.5"/>
<polygon fill="midnightblue" stroke="midnightblue" points="1164.49,-215 1174.49,-211.5 1164.49,-208 1164.49,-215"/>
</g>
<!-- Node35 -->
<g id="node35" class="node">
<title>Node35</title>
<g id="a_node35"><a xlink:href="classklyqa__ctl_1_1devices_1_1vacuum_1_1commands_1_1RoutineCommand.html#acaf3db880f88d37bb1cf8218a309e52c" target="_top" xlink:title=" ">
<polygon fill="white" stroke="black" points="1174.5,-147.5 1174.5,-177.5 1377.5,-177.5 1377.5,-147.5 1174.5,-147.5"/>
<text text-anchor="start" x="1182.5" y="-165.5" font-family="Helvetica,sans-Serif" font-size="10.00">klyqa_ctl.devices.vacuum.commands.</text>
<text text-anchor="middle" x="1276" y="-154.5" font-family="Helvetica,sans-Serif" font-size="10.00">RoutineCommand.routine_json</text>
</a>
</g>
</g>
<!-- Node34&#45;&gt;Node35 -->
<g id="edge34" class="edge">
<title>Node34&#45;&gt;Node35</title>
<path fill="none" stroke="midnightblue" d="M1131.01,-162.5C1142,-162.5 1153.23,-162.5 1164.34,-162.5"/>
<polygon fill="midnightblue" stroke="midnightblue" points="1164.49,-166 1174.49,-162.5 1164.49,-159 1164.49,-166"/>
</g>
<!-- Node38 -->
<g id="node38" class="node">
<title>Node38</title>
<g id="a_node38"><a xlink:href="classklyqa__ctl_1_1devices_1_1response__message_1_1ResponseMessage.html#a076bcd25b3f41acdc763569b279c4545" target="_top" xlink:title=" ">
<polygon fill="white" stroke="black" points="1183.5,-0.5 1183.5,-30.5 1368.5,-30.5 1368.5,-0.5 1183.5,-0.5"/>
<text text-anchor="start" x="1191.5" y="-18.5" font-family="Helvetica,sans-Serif" font-size="10.00">klyqa_ctl.devices.response</text>
<text text-anchor="middle" x="1276" y="-7.5" font-family="Helvetica,sans-Serif" font-size="10.00">_message.ResponseMessage.type</text>
</a>
</g>
</g>
<!-- Node37&#45;&gt;Node38 -->
<g id="edge37" class="edge">
<title>Node37&#45;&gt;Node38</title>
<path fill="none" stroke="midnightblue" d="M1101.22,-15.5C1123.68,-15.5 1148.98,-15.5 1173.18,-15.5"/>
<polygon fill="midnightblue" stroke="midnightblue" points="1173.47,-19 1183.47,-15.5 1173.47,-12 1173.47,-19"/>
</g>
<!-- Node39&#45;&gt;Node12 -->
<g id="edge39" class="edge">
<title>Node39&#45;&gt;Node12</title>
<path fill="none" stroke="midnightblue" d="M868.22,-317.97C877.24,-321.82 885.54,-327.15 892,-334.5 978.88,-433.4 840.3,-530.33 928,-628.5 928.65,-629.23 929.33,-629.94 930.01,-630.63"/>
<polygon fill="midnightblue" stroke="midnightblue" points="928.07,-633.57 937.99,-637.31 932.57,-628.21 928.07,-633.57"/>
</g>
<!-- Node39&#45;&gt;Node14 -->
<g id="edge40" class="edge">
<title>Node39&#45;&gt;Node14</title>
<path fill="none" stroke="midnightblue" d="M868.22,-309.5C886.58,-309.5 906.61,-309.5 926.08,-309.5"/>
<polygon fill="midnightblue" stroke="midnightblue" points="926.21,-313 936.21,-309.5 926.21,-306 926.21,-313"/>
</g>
<!-- Node39&#45;&gt;Node15 -->
<g id="edge41" class="edge">
<title>Node39&#45;&gt;Node15</title>
<path fill="none" stroke="midnightblue" d="M868.06,-318.12C877.11,-321.94 885.45,-327.23 892,-334.5 965.63,-416.3 853.7,-498.31 928,-579.5 928.66,-580.22 929.34,-580.93 930.04,-581.61"/>
<polygon fill="midnightblue" stroke="midnightblue" points="928.14,-584.58 938.08,-588.22 932.58,-579.17 928.14,-584.58"/>
</g>
<!-- Node39&#45;&gt;Node18 -->
<g id="edge42" class="edge">
<title>Node39&#45;&gt;Node18</title>
<path fill="none" stroke="midnightblue" d="M868.31,-318.54C877.2,-322.31 885.44,-327.47 892,-334.5 952.42,-399.26 867.05,-466.24 928,-530.5 928.8,-531.35 929.63,-532.16 930.48,-532.96"/>
<polygon fill="midnightblue" stroke="midnightblue" points="928.64,-535.97 938.67,-539.39 932.97,-530.46 928.64,-535.97"/>
</g>
<!-- Node39&#45;&gt;Node21 -->
<g id="edge43" class="edge">
<title>Node39&#45;&gt;Node21</title>
<path fill="none" stroke="midnightblue" d="M868.42,-319.1C877.19,-322.8 885.36,-327.79 892,-334.5 939.3,-382.32 880.3,-434.07 928,-481.5 928.97,-482.46 929.96,-483.39 930.99,-484.28"/>
<polygon fill="midnightblue" stroke="midnightblue" points="929.24,-487.33 939.36,-490.44 933.39,-481.69 929.24,-487.33"/>
</g>
<!-- Node39&#45;&gt;Node24 -->
<g id="edge44" class="edge">
<title>Node39&#45;&gt;Node24</title>
<path fill="none" stroke="midnightblue" d="M868.44,-299.09C877.21,-295.31 885.37,-290.25 892,-283.5 938.81,-235.8 880.57,-184.58 928,-137.5 928.97,-136.54 929.96,-135.62 930.99,-134.73"/>
<polygon fill="midnightblue" stroke="midnightblue" points="933.39,-137.31 939.37,-128.56 929.24,-131.67 933.39,-137.31"/>
</g>
<!-- Node39&#45;&gt;Node25 -->
<g id="edge45" class="edge">
<title>Node39&#45;&gt;Node25</title>
<path fill="none" stroke="midnightblue" d="M868.33,-299.67C877.23,-295.81 885.46,-290.57 892,-283.5 951.84,-218.8 867.32,-152.41 928,-88.5 928.8,-87.65 929.63,-86.84 930.48,-86.04"/>
<polygon fill="midnightblue" stroke="midnightblue" points="932.97,-88.54 938.68,-79.62 928.65,-83.03 932.97,-88.54"/>
</g>
<!-- Node39&#45;&gt;Node26 -->
<g id="edge46" class="edge">
<title>Node39&#45;&gt;Node26</title>
<path fill="none" stroke="midnightblue" d="M868.23,-322.51C876.63,-325.68 884.76,-329.61 892,-334.5 914.39,-349.63 905.48,-368.56 928,-383.5 930.45,-385.13 933,-386.64 935.63,-388.06"/>
<polygon fill="midnightblue" stroke="midnightblue" points="934.29,-391.3 944.82,-392.48 937.33,-384.99 934.29,-391.3"/>
</g>
<!-- Node39&#45;&gt;Node28 -->
<g id="edge47" class="edge">
<title>Node39&#45;&gt;Node28</title>
<path fill="none" stroke="midnightblue" d="M866.3,-324.53C891.79,-329.87 920.67,-335.92 946.92,-341.42"/>
<polygon fill="midnightblue" stroke="midnightblue" points="946.33,-344.87 956.84,-343.49 947.77,-338.02 946.33,-344.87"/>
</g>
<!-- Node39&#45;&gt;Node30 -->
<g id="edge48" class="edge">
<title>Node39&#45;&gt;Node30</title>
<path fill="none" stroke="midnightblue" d="M866.3,-294.47C891.79,-289.13 920.67,-283.08 946.92,-277.58"/>
<polygon fill="midnightblue" stroke="midnightblue" points="947.77,-280.98 956.84,-275.51 946.33,-274.13 947.77,-280.98"/>
</g>
<!-- Node39&#45;&gt;Node32 -->
<g id="edge49" class="edge">
<title>Node39&#45;&gt;Node32</title>
<path fill="none" stroke="midnightblue" d="M868.15,-295.54C876.56,-292.32 884.72,-288.37 892,-283.5 913.88,-268.89 906,-250.93 928,-236.5 931.15,-234.43 934.47,-232.53 937.89,-230.79"/>
<polygon fill="midnightblue" stroke="midnightblue" points="939.54,-233.88 947.18,-226.54 936.63,-227.52 939.54,-233.88"/>
</g>
<!-- Node39&#45;&gt;Node34 -->
<g id="edge50" class="edge">
<title>Node39&#45;&gt;Node34</title>
<path fill="none" stroke="midnightblue" d="M868.24,-298.17C876.93,-294.52 885.13,-289.75 892,-283.5 926.02,-252.56 893.58,-216.99 928,-186.5 929.34,-185.31 930.73,-184.18 932.15,-183.11"/>
<polygon fill="midnightblue" stroke="midnightblue" points="934.29,-185.9 940.76,-177.51 930.47,-180.03 934.29,-185.9"/>
</g>
<!-- Node39&#45;&gt;Node36 -->
<g id="edge51" class="edge">
<title>Node39&#45;&gt;Node36</title>
<path fill="none" stroke="midnightblue" d="M868.23,-320.01C876.92,-323.58 885.13,-328.29 892,-334.5 926.43,-365.61 893.32,-401.67 928,-432.5 933.99,-437.82 940.94,-442.02 948.35,-445.32"/>
<polygon fill="midnightblue" stroke="midnightblue" points="947.34,-448.68 957.93,-449.03 949.87,-442.15 947.34,-448.68"/>
</g>
<!-- Node39&#45;&gt;Node37 -->
<g id="edge52" class="edge">
<title>Node39&#45;&gt;Node37</title>
<path fill="none" stroke="midnightblue" d="M868.09,-300.09C877.13,-296.18 885.47,-290.82 892,-283.5 964.97,-201.69 853.97,-120.34 928,-39.5 933.75,-33.22 940.81,-28.45 948.52,-24.84"/>
<polygon fill="midnightblue" stroke="midnightblue" points="949.83,-28.08 957.81,-21.11 947.22,-21.58 949.83,-28.08"/>
</g>
<!-- Node41&#45;&gt;Node9 -->
<g id="edge55" class="edge">
<title>Node41&#45;&gt;Node9</title>
<path fill="none" stroke="midnightblue" d="M623.89,-263.5C646.02,-257.72 671.67,-251.15 695,-245.5 709.11,-242.08 724.42,-238.55 738.63,-235.34"/>
<polygon fill="midnightblue" stroke="midnightblue" points="739.76,-238.67 748.75,-233.07 738.23,-231.84 739.76,-238.67"/>
</g>
<!-- Node41&#45;&gt;Node10 -->
<g id="edge56" class="edge">
<title>Node41&#45;&gt;Node10</title>
<path fill="none" stroke="midnightblue" d="M590.16,-263.21C615.03,-246.96 656.54,-221.32 695,-204.5 704.88,-200.18 715.57,-196.22 726.13,-192.69"/>
<polygon fill="midnightblue" stroke="midnightblue" points="727.33,-195.98 735.76,-189.57 725.17,-189.32 727.33,-195.98"/>
</g>
<!-- Node41&#45;&gt;Node11 -->
<g id="edge57" class="edge">
<title>Node41&#45;&gt;Node11</title>
<path fill="none" stroke="midnightblue" d="M597.83,-293.6C623.3,-305.84 660.89,-322.91 695,-334.5 701.43,-336.69 708.16,-338.76 714.96,-340.71"/>
<polygon fill="midnightblue" stroke="midnightblue" points="714.35,-344.18 724.93,-343.48 716.23,-337.43 714.35,-344.18"/>
</g>
<!-- Node41&#45;&gt;Node39 -->
<g id="edge58" class="edge">
<title>Node41&#45;&gt;Node39</title>
<path fill="none" stroke="midnightblue" d="M648.09,-289.6C667.84,-292.32 689,-295.24 708.88,-297.98"/>
<polygon fill="midnightblue" stroke="midnightblue" points="708.45,-301.45 718.84,-299.35 709.41,-294.52 708.45,-301.45"/>
</g>
<!-- Node41&#45;&gt;Node40 -->
<g id="edge59" class="edge">
<title>Node41&#45;&gt;Node40</title>
<path fill="none" stroke="midnightblue" d="M648.09,-273.49C664.38,-272.47 681.65,-271.4 698.36,-270.36"/>
<polygon fill="midnightblue" stroke="midnightblue" points="698.91,-273.83 708.67,-269.72 698.48,-266.84 698.91,-273.83"/>
</g>
<!-- Node43 -->
<g id="node43" class="node">
<title>Node43</title>
<g id="a_node43"><a xlink:href="namespaceklyqa__ctl_1_1general_1_1general.html#a9df3b50dfc0fcc7c8ec991bb9be9c5ba" target="_top" xlink:title=" ">
<polygon fill="white" stroke="black" points="474,-111 474,-130 659,-130 659,-111 474,-111"/>
<text text-anchor="middle" x="566.5" y="-118" font-family="Helvetica,sans-Serif" font-size="10.00">klyqa_ctl.general.general.task_log</text>
</a>
</g>
</g>
<!-- Node42&#45;&gt;Node43 -->
<g id="edge61" class="edge">
<title>Node42&#45;&gt;Node43</title>
<path fill="none" stroke="midnightblue" d="M409.73,-142.19C434.7,-138.71 462.12,-134.89 486.91,-131.44"/>
<polygon fill="midnightblue" stroke="midnightblue" points="487.57,-134.88 496.99,-130.04 486.6,-127.95 487.57,-134.88"/>
</g>
<!-- Node44 -->
<g id="node44" class="node">
<title>Node44</title>
<g id="a_node44"><a xlink:href="namespaceklyqa__ctl_1_1general_1_1general.html#aea905150cafee39fa2ca211f1e60f012" target="_top" xlink:title=" ">
<polygon fill="white" stroke="black" points="695,-111 695,-130 892,-130 892,-111 695,-111"/>
<text text-anchor="middle" x="793.5" y="-118" font-family="Helvetica,sans-Serif" font-size="10.00">klyqa_ctl.general.general.task_name</text>
</a>
</g>
</g>
<!-- Node43&#45;&gt;Node44 -->
<g id="edge62" class="edge">
<title>Node43&#45;&gt;Node44</title>
<path fill="none" stroke="midnightblue" d="M659.02,-120.5C667.5,-120.5 676.15,-120.5 684.76,-120.5"/>
<polygon fill="midnightblue" stroke="midnightblue" points="684.83,-124 694.83,-120.5 684.83,-117 684.83,-124"/>
</g>
</g>
</svg>
