<?xml version="1.0" encoding="UTF-8" standalone="no"?>
<!DOCTYPE svg PUBLIC "-//W3C//DTD SVG 1.1//EN"
 "http://www.w3.org/Graphics/SVG/1.1/DTD/svg11.dtd">
<!-- Generated by graphviz version 2.43.0 (0)
 -->
<!-- Title: klyqa_ctl.general.aes_key.AesKey Pages: 1 -->
<svg width="147pt" height="270pt"
 viewBox="0.00 0.00 147.00 270.00" xmlns="http://www.w3.org/2000/svg" xmlns:xlink="http://www.w3.org/1999/xlink">
<g id="graph0" class="graph" transform="scale(1 1) rotate(0) translate(4 266)">
<title>klyqa_ctl.general.aes_key.AesKey</title>
<polygon fill="white" stroke="transparent" points="-4,4 -4,-266 143,-266 143,4 -4,4"/>
<!-- Node1 -->
<g id="node1" class="node">
<title>Node1</title>
<g id="a_node1"><a xlink:title=" ">
<polygon fill="#bfbfbf" stroke="black" points="0,-0.5 0,-167.5 139,-167.5 139,-0.5 0,-0.5"/>
<text text-anchor="start" x="8" y="-155.5" font-family="Helvetica,sans-Serif" font-size="10.00">klyqa_ctl.general.aes</text>
<text text-anchor="middle" x="69.5" y="-144.5" font-family="Helvetica,sans-Serif" font-size="10.00">_key.AesKey</text>
<polyline fill="none" stroke="black" points="0,-137.5 139,-137.5 "/>
<text text-anchor="start" x="8" y="-125.5" font-family="Helvetica,sans-Serif" font-size="10.00">+ aes_key</text>
<text text-anchor="start" x="8" y="-114.5" font-family="Helvetica,sans-Serif" font-size="10.00">+ bytes</text>
<text text-anchor="start" x="8" y="-103.5" font-family="Helvetica,sans-Serif" font-size="10.00">&#45; _attr_aes_key</text>
<polyline fill="none" stroke="black" points="0,-96.5 139,-96.5 "/>
<text text-anchor="start" x="8" y="-84.5" font-family="Helvetica,sans-Serif" font-size="10.00">+ None __init__(self,</text>
<text text-anchor="start" x="8" y="-73.5" font-family="Helvetica,sans-Serif" font-size="10.00"> str|bytes aes_key=&quot;&quot;)</text>
<text text-anchor="start" x="8" y="-62.5" font-family="Helvetica,sans-Serif" font-size="10.00">+ bytes|None aes_key</text>
<text text-anchor="start" x="8" y="-51.5" font-family="Helvetica,sans-Serif" font-size="10.00">(self)</text>
<text text-anchor="start" x="8" y="-40.5" font-family="Helvetica,sans-Serif" font-size="10.00">+ None aes_key(self,</text>
<text text-anchor="start" x="8" y="-29.5" font-family="Helvetica,sans-Serif" font-size="10.00"> bytes aes_key)</text>
<text text-anchor="start" x="8" y="-18.5" font-family="Helvetica,sans-Serif" font-size="10.00">+ bytes from_string(self,</text>
<text text-anchor="start" x="8" y="-7.5" font-family="Helvetica,sans-Serif" font-size="10.00"> str aes_key)</text>
</a>
</g>
</g>
<!-- Node2 -->
<g id="node2" class="node">
<title>Node2</title>
<g id="a_node2"><a xlink:href="classbytes.html" target="_top" xlink:title=" ">
<polygon fill="white" stroke="black" points="47.5,-204.5 47.5,-261.5 91.5,-261.5 91.5,-204.5 47.5,-204.5"/>
<text text-anchor="middle" x="69.5" y="-249.5" font-family="Helvetica,sans-Serif" font-size="10.00">bytes</text>
<polyline fill="none" stroke="black" points="47.5,-242.5 91.5,-242.5 "/>
<text text-anchor="middle" x="69.5" y="-230.5" font-family="Helvetica,sans-Serif" font-size="10.00"> </text>
<polyline fill="none" stroke="black" points="47.5,-223.5 91.5,-223.5 "/>
<text text-anchor="middle" x="69.5" y="-211.5" font-family="Helvetica,sans-Serif" font-size="10.00"> </text>
</a>
</g>
</g>
<!-- Node2&#45;&gt;Node1 -->
<g id="edge1" class="edge">
<title>Node2&#45;&gt;Node1</title>
<path fill="none" stroke="midnightblue" d="M69.5,-194.35C69.5,-186.08 69.5,-177.01 69.5,-167.74"/>
<polygon fill="none" stroke="midnightblue" points="66,-194.35 69.5,-204.35 73,-194.35 66,-194.35"/>
</g>
</g>
</svg>
