<?xml version="1.0" encoding="UTF-8" standalone="no"?>
<!DOCTYPE svg PUBLIC "-//W3C//DTD SVG 1.1//EN"
 "http://www.w3.org/Graphics/SVG/1.1/DTD/svg11.dtd">
<!-- Generated by graphviz version 2.43.0 (0)
 -->
<!-- Title: local.connection_handler.LocalConnectionHandler.current_addr_connections Pages: 1 -->
<svg width="800pt" height="110pt"
 viewBox="0.00 0.00 800.00 110.30" xmlns="http://www.w3.org/2000/svg" xmlns:xlink="http://www.w3.org/1999/xlink">
<g id="graph0" class="graph" transform="scale(1 1) rotate(0) translate(4 106.3)">
<title>local.connection_handler.LocalConnectionHandler.current_addr_connections</title>
<polygon fill="white" stroke="transparent" points="-4,4 -4,-106.3 796,-106.3 796,4 -4,4"/>
<!-- Node1 -->
<g id="node1" class="node">
<title>Node1</title>
<g id="a_node1"><a xlink:title=" ">
<polygon fill="#bfbfbf" stroke="black" points="620,-17.8 620,-58.8 792,-58.8 792,-17.8 620,-17.8"/>
<text text-anchor="start" x="628" y="-46.8" font-family="Helvetica,sans-Serif" font-size="10.00">local.connection_handler.</text>
<text text-anchor="start" x="628" y="-35.8" font-family="Helvetica,sans-Serif" font-size="10.00">LocalConnectionHandler.current</text>
<text text-anchor="middle" x="706" y="-24.8" font-family="Helvetica,sans-Serif" font-size="10.00">_addr_connections</text>
</a>
</g>
</g>
<!-- Node2 -->
<g id="node2" class="node">
<title>Node2</title>
<g id="a_node2"><a xlink:href="classlocal_1_1connection__handler_1_1LocalConnectionHandler.html#a5c2443c4a93b9bfedd207119b0dbb9bc" target="_top" xlink:title=" ">
<polygon fill="white" stroke="black" points="412,-17.8 412,-58.8 584,-58.8 584,-17.8 412,-17.8"/>
<text text-anchor="start" x="420" y="-46.8" font-family="Helvetica,sans-Serif" font-size="10.00">local.connection_handler.</text>
<text text-anchor="start" x="420" y="-35.8" font-family="Helvetica,sans-Serif" font-size="10.00">LocalConnectionHandler.current</text>
<text text-anchor="middle" x="498" y="-24.8" font-family="Helvetica,sans-Serif" font-size="10.00">_addr_connections</text>
</a>
</g>
</g>
<!-- Node1&#45;&gt;Node2 -->
<g id="edge1" class="edge">
<title>Node1&#45;&gt;Node2</title>
<path fill="none" stroke="midnightblue" d="M609.49,-38.3C601.05,-38.3 592.55,-38.3 584.21,-38.3"/>
<polygon fill="midnightblue" stroke="midnightblue" points="609.72,-41.8 619.72,-38.3 609.72,-34.8 609.72,-41.8"/>
</g>
<!-- Node3 -->
<g id="node3" class="node">
<title>Node3</title>
<g id="a_node3"><a xlink:href="classlocal_1_1connection__handler_1_1LocalConnectionHandler.html#a0b582d0bf1523d1d0404867ab921539f" target="_top" xlink:title=" ">
<polygon fill="white" stroke="black" points="206,-60.8 206,-101.8 376,-101.8 376,-60.8 206,-60.8"/>
<text text-anchor="start" x="214" y="-89.8" font-family="Helvetica,sans-Serif" font-size="10.00">local.connection_handler.</text>
<text text-anchor="start" x="214" y="-78.8" font-family="Helvetica,sans-Serif" font-size="10.00">LocalConnectionHandler.device</text>
<text text-anchor="middle" x="291" y="-67.8" font-family="Helvetica,sans-Serif" font-size="10.00">_handle_local_tcp</text>
</a>
</g>
</g>
<!-- Node1&#45;&gt;Node3 -->
<g id="edge5" class="edge">
<title>Node1&#45;&gt;Node3</title>
<path fill="none" stroke="midnightblue" d="M622.11,-61.15C609.43,-63.98 596.42,-66.5 584,-68.3 514.44,-78.37 434.68,-81.35 376.12,-81.96"/>
<polygon fill="midnightblue" stroke="midnightblue" points="623.24,-64.49 632.2,-58.83 621.67,-57.66 623.24,-64.49"/>
</g>
<!-- Node4 -->
<g id="node4" class="node">
<title>Node4</title>
<g id="a_node4"><a xlink:href="classlocal_1_1connection__handler_1_1LocalConnectionHandler.html#a5e9277acd0b7bfa5a1e74417e0e10d86" target="_top" xlink:title=" ">
<polygon fill="white" stroke="black" points="0,-11.8 0,-52.8 170,-52.8 170,-11.8 0,-11.8"/>
<text text-anchor="start" x="8" y="-40.8" font-family="Helvetica,sans-Serif" font-size="10.00">local.connection_handler.</text>
<text text-anchor="start" x="8" y="-29.8" font-family="Helvetica,sans-Serif" font-size="10.00">LocalConnectionHandler.handle</text>
<text text-anchor="middle" x="85" y="-18.8" font-family="Helvetica,sans-Serif" font-size="10.00">_incoming_tcp_connection</text>
</a>
</g>
</g>
<!-- Node1&#45;&gt;Node4 -->
<g id="edge6" class="edge">
<title>Node1&#45;&gt;Node4</title>
<path fill="none" stroke="midnightblue" d="M624.38,-15.44C611,-12.47 597.18,-9.91 584,-8.3 439.22,9.38 269.28,-6.62 170.03,-19.61"/>
<polygon fill="midnightblue" stroke="midnightblue" points="623.99,-18.94 634.52,-17.78 625.56,-12.12 623.99,-18.94"/>
</g>
<!-- Node2&#45;&gt;Node3 -->
<g id="edge2" class="edge">
<title>Node2&#45;&gt;Node3</title>
<path fill="none" stroke="midnightblue" d="M401.85,-58.26C393.3,-60.05 384.68,-61.86 376.23,-63.63"/>
<polygon fill="midnightblue" stroke="midnightblue" points="402.77,-61.64 411.84,-56.17 401.34,-54.79 402.77,-61.64"/>
</g>
<!-- Node2&#45;&gt;Node4 -->
<g id="edge4" class="edge">
<title>Node2&#45;&gt;Node4</title>
<path fill="none" stroke="midnightblue" d="M401.7,-36.91C331.74,-35.89 237.59,-34.52 170.35,-33.53"/>
<polygon fill="midnightblue" stroke="midnightblue" points="401.79,-40.41 411.84,-37.06 401.89,-33.41 401.79,-40.41"/>
</g>
<!-- Node3&#45;&gt;Node4 -->
<g id="edge3" class="edge">
<title>Node3&#45;&gt;Node4</title>
<path fill="none" stroke="midnightblue" d="M195.88,-58.7C187.34,-56.64 178.73,-54.58 170.29,-52.55"/>
<polygon fill="midnightblue" stroke="midnightblue" points="195.31,-62.16 205.85,-61.09 196.94,-55.35 195.31,-62.16"/>
</g>
</g>
</svg>
