<?xml version="1.0" encoding="UTF-8" standalone="no"?>
<!DOCTYPE svg PUBLIC "-//W3C//DTD SVG 1.1//EN"
 "http://www.w3.org/Graphics/SVG/1.1/DTD/svg11.dtd">
<!-- Generated by graphviz version 2.43.0 (0)
 -->
<!-- Title: klyqa_ctl.general.general.Command Pages: 1 -->
<svg width="2755pt" height="673pt"
 viewBox="0.00 0.00 2755.00 673.00" xmlns="http://www.w3.org/2000/svg" xmlns:xlink="http://www.w3.org/1999/xlink">
<g id="graph0" class="graph" transform="scale(1 1) rotate(0) translate(4 669)">
<title>klyqa_ctl.general.general.Command</title>
<polygon fill="white" stroke="transparent" points="-4,4 -4,-669 2751,-669 2751,4 -4,4"/>
<!-- Node1 -->
<g id="node1" class="node">
<title>Node1</title>
<g id="a_node1"><a xlink:title=" ">
<polygon fill="#bfbfbf" stroke="black" points="608.5,-552.5 608.5,-664.5 751.5,-664.5 751.5,-552.5 608.5,-552.5"/>
<text text-anchor="start" x="616.5" y="-652.5" font-family="Helvetica,sans-Serif" font-size="10.00">klyqa_ctl.general.general.</text>
<text text-anchor="middle" x="680" y="-641.5" font-family="Helvetica,sans-Serif" font-size="10.00">Command</text>
<polyline fill="none" stroke="black" points="608.5,-634.5 751.5,-634.5 "/>
<text text-anchor="start" x="616.5" y="-622.5" font-family="Helvetica,sans-Serif" font-size="10.00">+ TypeJson</text>
<text text-anchor="start" x="616.5" y="-611.5" font-family="Helvetica,sans-Serif" font-size="10.00">+ default_factory</text>
<polyline fill="none" stroke="black" points="608.5,-604.5 751.5,-604.5 "/>
<text text-anchor="start" x="616.5" y="-592.5" font-family="Helvetica,sans-Serif" font-size="10.00">+ TypeJson json(self)</text>
<text text-anchor="start" x="616.5" y="-581.5" font-family="Helvetica,sans-Serif" font-size="10.00">+ TypeJson cloud(self)</text>
<text text-anchor="start" x="616.5" y="-570.5" font-family="Helvetica,sans-Serif" font-size="10.00">+ str msg_str(self)</text>
<text text-anchor="start" x="616.5" y="-559.5" font-family="Helvetica,sans-Serif" font-size="10.00">+ str __str__(self)</text>
</a>
</g>
</g>
<!-- Node2 -->
<g id="node2" class="node">
<title>Node2</title>
<g id="a_node2"><a xlink:href="classklyqa__ctl_1_1general_1_1general_1_1CloudStateCommand.html" target="_top" xlink:title=" ">
<polygon fill="white" stroke="black" points="71.5,-171.5 71.5,-239.5 214.5,-239.5 214.5,-171.5 71.5,-171.5"/>
<text text-anchor="start" x="79.5" y="-227.5" font-family="Helvetica,sans-Serif" font-size="10.00">klyqa_ctl.general.general.</text>
<text text-anchor="middle" x="143" y="-216.5" font-family="Helvetica,sans-Serif" font-size="10.00">CloudStateCommand</text>
<polyline fill="none" stroke="black" points="71.5,-209.5 214.5,-209.5 "/>
<text text-anchor="middle" x="143" y="-197.5" font-family="Helvetica,sans-Serif" font-size="10.00"> </text>
<polyline fill="none" stroke="black" points="71.5,-190.5 214.5,-190.5 "/>
<text text-anchor="start" x="79.5" y="-178.5" font-family="Helvetica,sans-Serif" font-size="10.00">+ TypeJson cloud(self)</text>
</a>
</g>
</g>
<!-- Node1&#45;&gt;Node2 -->
<g id="edge1" class="edge">
<title>Node1&#45;&gt;Node2</title>
<path fill="none" stroke="midnightblue" d="M600.33,-548C485.74,-462.43 278.22,-307.48 187.49,-239.72"/>
<polygon fill="none" stroke="midnightblue" points="598.31,-550.86 608.41,-554.04 602.49,-545.26 598.31,-550.86"/>
</g>
<!-- Node7 -->
<g id="node7" class="node">
<title>Node7</title>
<g id="a_node7"><a xlink:href="classklyqa__ctl_1_1general_1_1general_1_1CommandTyped.html" target="_top" xlink:title=" ">
<polygon fill="white" stroke="black" points="1239.5,-447.5 1239.5,-515.5 1382.5,-515.5 1382.5,-447.5 1239.5,-447.5"/>
<text text-anchor="start" x="1247.5" y="-503.5" font-family="Helvetica,sans-Serif" font-size="10.00">klyqa_ctl.general.general.</text>
<text text-anchor="middle" x="1311" y="-492.5" font-family="Helvetica,sans-Serif" font-size="10.00">CommandTyped</text>
<polyline fill="none" stroke="black" points="1239.5,-485.5 1382.5,-485.5 "/>
<text text-anchor="start" x="1247.5" y="-473.5" font-family="Helvetica,sans-Serif" font-size="10.00">+ str</text>
<polyline fill="none" stroke="black" points="1239.5,-466.5 1382.5,-466.5 "/>
<text text-anchor="start" x="1247.5" y="-454.5" font-family="Helvetica,sans-Serif" font-size="10.00">+ TypeJson json(self)</text>
</a>
</g>
</g>
<!-- Node1&#45;&gt;Node7 -->
<g id="edge6" class="edge">
<title>Node1&#45;&gt;Node7</title>
<path fill="none" stroke="midnightblue" d="M761.63,-591.33C886.04,-566.68 1121.09,-520.12 1239.3,-496.7"/>
<polygon fill="none" stroke="midnightblue" points="760.9,-587.91 751.77,-593.28 762.26,-594.77 760.9,-587.91"/>
</g>
<!-- Node3 -->
<g id="node3" class="node">
<title>Node3</title>
<g id="a_node3"><a xlink:href="classklyqa__ctl_1_1devices_1_1light_1_1commands_1_1BrightnessCommand.html" target="_top" xlink:title=" ">
<polygon fill="white" stroke="black" points="1541,-0.5 1541,-112.5 1727,-112.5 1727,-0.5 1541,-0.5"/>
<text text-anchor="start" x="1549" y="-100.5" font-family="Helvetica,sans-Serif" font-size="10.00">klyqa_ctl.devices.light.commands.</text>
<text text-anchor="middle" x="1634" y="-89.5" font-family="Helvetica,sans-Serif" font-size="10.00">BrightnessCommand</text>
<polyline fill="none" stroke="black" points="1541,-82.5 1727,-82.5 "/>
<text text-anchor="start" x="1549" y="-70.5" font-family="Helvetica,sans-Serif" font-size="10.00">+ int</text>
<polyline fill="none" stroke="black" points="1541,-63.5 1727,-63.5 "/>
<text text-anchor="start" x="1549" y="-51.5" font-family="Helvetica,sans-Serif" font-size="10.00">+ TypeJson brightness</text>
<text text-anchor="start" x="1549" y="-40.5" font-family="Helvetica,sans-Serif" font-size="10.00">_json(self)</text>
<text text-anchor="start" x="1549" y="-29.5" font-family="Helvetica,sans-Serif" font-size="10.00">+ TypeJson json(self)</text>
<text text-anchor="start" x="1549" y="-18.5" font-family="Helvetica,sans-Serif" font-size="10.00">+ bool check_values(self,</text>
<text text-anchor="start" x="1549" y="-7.5" font-family="Helvetica,sans-Serif" font-size="10.00"> Device device)</text>
</a>
</g>
</g>
<!-- Node2&#45;&gt;Node3 -->
<g id="edge2" class="edge">
<title>Node2&#45;&gt;Node3</title>
<path fill="none" stroke="midnightblue" d="M189.71,-165.55C200.09,-158.82 211.46,-152.79 223,-149 499.5,-58.29 1251,-188.63 1532,-113 1534.92,-112.21 1537.85,-111.33 1540.77,-110.36"/>
<polygon fill="none" stroke="midnightblue" points="187.53,-162.8 181.24,-171.32 191.47,-168.58 187.53,-162.8"/>
</g>
<!-- Node4 -->
<g id="node4" class="node">
<title>Node4</title>
<g id="a_node4"><a xlink:href="classklyqa__ctl_1_1devices_1_1light_1_1commands_1_1ColorCommand.html" target="_top" xlink:title=" ">
<polygon fill="white" stroke="black" points="1745,-0.5 1745,-112.5 1931,-112.5 1931,-0.5 1745,-0.5"/>
<text text-anchor="start" x="1753" y="-100.5" font-family="Helvetica,sans-Serif" font-size="10.00">klyqa_ctl.devices.light.commands.</text>
<text text-anchor="middle" x="1838" y="-89.5" font-family="Helvetica,sans-Serif" font-size="10.00">ColorCommand</text>
<polyline fill="none" stroke="black" points="1745,-82.5 1931,-82.5 "/>
<text text-anchor="start" x="1753" y="-70.5" font-family="Helvetica,sans-Serif" font-size="10.00">+ RgbColor</text>
<polyline fill="none" stroke="black" points="1745,-63.5 1931,-63.5 "/>
<text text-anchor="start" x="1753" y="-51.5" font-family="Helvetica,sans-Serif" font-size="10.00">+ TypeJson color_json</text>
<text text-anchor="start" x="1753" y="-40.5" font-family="Helvetica,sans-Serif" font-size="10.00">(self)</text>
<text text-anchor="start" x="1753" y="-29.5" font-family="Helvetica,sans-Serif" font-size="10.00">+ TypeJson json(self)</text>
<text text-anchor="start" x="1753" y="-18.5" font-family="Helvetica,sans-Serif" font-size="10.00">+ bool check_values(self,</text>
<text text-anchor="start" x="1753" y="-7.5" font-family="Helvetica,sans-Serif" font-size="10.00"> Device device)</text>
</a>
</g>
</g>
<!-- Node2&#45;&gt;Node4 -->
<g id="edge3" class="edge">
<title>Node2&#45;&gt;Node4</title>
<path fill="none" stroke="midnightblue" d="M189.7,-165.51C200.08,-158.79 211.45,-152.77 223,-149 382.88,-96.88 1573.54,-156.4 1736,-113 1738.92,-112.22 1741.85,-111.34 1744.78,-110.38"/>
<polygon fill="none" stroke="midnightblue" points="187.52,-162.76 181.23,-171.29 191.46,-168.55 187.52,-162.76"/>
</g>
<!-- Node5 -->
<g id="node5" class="node">
<title>Node5</title>
<g id="a_node5"><a xlink:href="classklyqa__ctl_1_1devices_1_1light_1_1commands_1_1PowerCommand.html" target="_top" xlink:title=" ">
<polygon fill="white" stroke="black" points="0,-22.5 0,-90.5 186,-90.5 186,-22.5 0,-22.5"/>
<text text-anchor="start" x="8" y="-78.5" font-family="Helvetica,sans-Serif" font-size="10.00">klyqa_ctl.devices.light.commands.</text>
<text text-anchor="middle" x="93" y="-67.5" font-family="Helvetica,sans-Serif" font-size="10.00">PowerCommand</text>
<polyline fill="none" stroke="black" points="0,-60.5 186,-60.5 "/>
<text text-anchor="start" x="8" y="-48.5" font-family="Helvetica,sans-Serif" font-size="10.00">+ str</text>
<polyline fill="none" stroke="black" points="0,-41.5 186,-41.5 "/>
<text text-anchor="middle" x="93" y="-29.5" font-family="Helvetica,sans-Serif" font-size="10.00"> </text>
</a>
</g>
</g>
<!-- Node2&#45;&gt;Node5 -->
<g id="edge4" class="edge">
<title>Node2&#45;&gt;Node5</title>
<path fill="none" stroke="midnightblue" d="M128.36,-161.46C120.68,-138.89 111.42,-111.65 104.3,-90.72"/>
<polygon fill="none" stroke="midnightblue" points="125.12,-162.8 131.65,-171.14 131.75,-160.55 125.12,-162.8"/>
</g>
<!-- Node6 -->
<g id="node6" class="node">
<title>Node6</title>
<g id="a_node6"><a xlink:href="classklyqa__ctl_1_1devices_1_1light_1_1commands_1_1TemperatureCommand.html" target="_top" xlink:title=" ">
<polygon fill="white" stroke="black" points="1337,-0.5 1337,-112.5 1523,-112.5 1523,-0.5 1337,-0.5"/>
<text text-anchor="start" x="1345" y="-100.5" font-family="Helvetica,sans-Serif" font-size="10.00">klyqa_ctl.devices.light.commands.</text>
<text text-anchor="middle" x="1430" y="-89.5" font-family="Helvetica,sans-Serif" font-size="10.00">TemperatureCommand</text>
<polyline fill="none" stroke="black" points="1337,-82.5 1523,-82.5 "/>
<text text-anchor="start" x="1345" y="-70.5" font-family="Helvetica,sans-Serif" font-size="10.00">+ int</text>
<polyline fill="none" stroke="black" points="1337,-63.5 1523,-63.5 "/>
<text text-anchor="start" x="1345" y="-51.5" font-family="Helvetica,sans-Serif" font-size="10.00">+ TypeJson temperature</text>
<text text-anchor="start" x="1345" y="-40.5" font-family="Helvetica,sans-Serif" font-size="10.00">_json(self)</text>
<text text-anchor="start" x="1345" y="-29.5" font-family="Helvetica,sans-Serif" font-size="10.00">+ TypeJson json(self)</text>
<text text-anchor="start" x="1345" y="-18.5" font-family="Helvetica,sans-Serif" font-size="10.00">+ bool check_values(self,</text>
<text text-anchor="start" x="1345" y="-7.5" font-family="Helvetica,sans-Serif" font-size="10.00"> Device device)</text>
</a>
</g>
</g>
<!-- Node2&#45;&gt;Node6 -->
<g id="edge5" class="edge">
<title>Node2&#45;&gt;Node6</title>
<path fill="none" stroke="midnightblue" d="M190.19,-165.76C200.47,-159.09 211.67,-153.02 223,-149 427.97,-76.24 1090.63,-61.32 1336.8,-58.28"/>
<polygon fill="none" stroke="midnightblue" points="188.1,-162.95 181.79,-171.47 192.03,-168.74 188.1,-162.95"/>
</g>
<!-- Node8 -->
<g id="node8" class="node">
<title>Node8</title>
<g id="a_node8"><a xlink:href="classklyqa__ctl_1_1devices_1_1device_1_1CommandWithCheckValues.html" target="_top" xlink:title=" ">
<polygon fill="white" stroke="black" points="1329,-315 1329,-394 1481,-394 1481,-315 1329,-315"/>
<text text-anchor="start" x="1337" y="-382" font-family="Helvetica,sans-Serif" font-size="10.00">klyqa_ctl.devices.device.</text>
<text text-anchor="middle" x="1405" y="-371" font-family="Helvetica,sans-Serif" font-size="10.00">CommandWithCheckValues</text>
<polyline fill="none" stroke="black" points="1329,-364 1481,-364 "/>
<text text-anchor="start" x="1337" y="-352" font-family="Helvetica,sans-Serif" font-size="10.00">+ bool</text>
<polyline fill="none" stroke="black" points="1329,-345 1481,-345 "/>
<text text-anchor="start" x="1337" y="-333" font-family="Helvetica,sans-Serif" font-size="10.00">+ bool check_values(self,</text>
<text text-anchor="start" x="1337" y="-322" font-family="Helvetica,sans-Serif" font-size="10.00"> Device device)</text>
</a>
</g>
</g>
<!-- Node7&#45;&gt;Node8 -->
<g id="edge7" class="edge">
<title>Node7&#45;&gt;Node8</title>
<path fill="none" stroke="midnightblue" d="M1342.18,-439.03C1353.07,-424.56 1365.23,-408.38 1375.94,-394.15"/>
<polygon fill="none" stroke="midnightblue" points="1339.16,-437.23 1335.94,-447.33 1344.75,-441.44 1339.16,-437.23"/>
</g>
<!-- Node12 -->
<g id="node12" class="node">
<title>Node12</title>
<g id="a_node12"><a xlink:href="classklyqa__ctl_1_1devices_1_1light_1_1commands_1_1FactoryResetCommand.html" target="_top" xlink:title=" ">
<polygon fill="white" stroke="black" points="1537,-315 1537,-394 1723,-394 1723,-315 1537,-315"/>
<text text-anchor="start" x="1545" y="-382" font-family="Helvetica,sans-Serif" font-size="10.00">klyqa_ctl.devices.light.commands.</text>
<text text-anchor="middle" x="1630" y="-371" font-family="Helvetica,sans-Serif" font-size="10.00">FactoryResetCommand</text>
<polyline fill="none" stroke="black" points="1537,-364 1723,-364 "/>
<text text-anchor="start" x="1545" y="-352" font-family="Helvetica,sans-Serif" font-size="10.00">+ type</text>
<polyline fill="none" stroke="black" points="1537,-345 1723,-345 "/>
<text text-anchor="start" x="1545" y="-333" font-family="Helvetica,sans-Serif" font-size="10.00">+ None __post_init__</text>
<text text-anchor="start" x="1545" y="-322" font-family="Helvetica,sans-Serif" font-size="10.00">(self)</text>
</a>
</g>
</g>
<!-- Node7&#45;&gt;Node12 -->
<g id="edge14" class="edge">
<title>Node7&#45;&gt;Node12</title>
<path fill="none" stroke="midnightblue" d="M1392.41,-457.19C1432.32,-444.92 1480.77,-428.74 1523,-411 1535.06,-405.94 1547.61,-400.04 1559.69,-394.01"/>
<polygon fill="none" stroke="midnightblue" points="1391.26,-453.88 1382.72,-460.15 1393.3,-460.58 1391.26,-453.88"/>
</g>
<!-- Node13 -->
<g id="node13" class="node">
<title>Node13</title>
<g id="a_node13"><a xlink:href="classklyqa__ctl_1_1devices_1_1light_1_1commands_1_1FwUpdateCommand.html" target="_top" xlink:title=" ">
<polygon fill="white" stroke="black" points="1741,-298.5 1741,-410.5 1927,-410.5 1927,-298.5 1741,-298.5"/>
<text text-anchor="start" x="1749" y="-398.5" font-family="Helvetica,sans-Serif" font-size="10.00">klyqa_ctl.devices.light.commands.</text>
<text text-anchor="middle" x="1834" y="-387.5" font-family="Helvetica,sans-Serif" font-size="10.00">FwUpdateCommand</text>
<polyline fill="none" stroke="black" points="1741,-380.5 1927,-380.5 "/>
<text text-anchor="start" x="1749" y="-368.5" font-family="Helvetica,sans-Serif" font-size="10.00">+ type</text>
<text text-anchor="start" x="1749" y="-357.5" font-family="Helvetica,sans-Serif" font-size="10.00">+ str</text>
<polyline fill="none" stroke="black" points="1741,-350.5 1927,-350.5 "/>
<text text-anchor="start" x="1749" y="-338.5" font-family="Helvetica,sans-Serif" font-size="10.00">+ None __post_init__</text>
<text text-anchor="start" x="1749" y="-327.5" font-family="Helvetica,sans-Serif" font-size="10.00">(self)</text>
<text text-anchor="start" x="1749" y="-316.5" font-family="Helvetica,sans-Serif" font-size="10.00">+ TypeJson url_json(self)</text>
<text text-anchor="start" x="1749" y="-305.5" font-family="Helvetica,sans-Serif" font-size="10.00">+ TypeJson json(self)</text>
</a>
</g>
</g>
<!-- Node7&#45;&gt;Node13 -->
<g id="edge15" class="edge">
<title>Node7&#45;&gt;Node13</title>
<path fill="none" stroke="midnightblue" d="M1392.8,-475.12C1479.1,-467.59 1618.11,-450.13 1732,-411 1734.96,-409.98 1737.93,-408.89 1740.9,-407.73"/>
<polygon fill="none" stroke="midnightblue" points="1392.46,-471.64 1382.8,-475.97 1393.06,-478.61 1392.46,-471.64"/>
</g>
<!-- Node14 -->
<g id="node14" class="node">
<title>Node14</title>
<g id="a_node14"><a xlink:href="classklyqa__ctl_1_1devices_1_1light_1_1commands_1_1PingCommand.html" target="_top" xlink:title=" ">
<polygon fill="white" stroke="black" points="717,-315 717,-394 903,-394 903,-315 717,-315"/>
<text text-anchor="start" x="725" y="-382" font-family="Helvetica,sans-Serif" font-size="10.00">klyqa_ctl.devices.light.commands.</text>
<text text-anchor="middle" x="810" y="-371" font-family="Helvetica,sans-Serif" font-size="10.00">PingCommand</text>
<polyline fill="none" stroke="black" points="717,-364 903,-364 "/>
<text text-anchor="start" x="725" y="-352" font-family="Helvetica,sans-Serif" font-size="10.00">+ type</text>
<polyline fill="none" stroke="black" points="717,-345 903,-345 "/>
<text text-anchor="start" x="725" y="-333" font-family="Helvetica,sans-Serif" font-size="10.00">+ None __post_init__</text>
<text text-anchor="start" x="725" y="-322" font-family="Helvetica,sans-Serif" font-size="10.00">(self)</text>
</a>
</g>
</g>
<!-- Node7&#45;&gt;Node14 -->
<g id="edge16" class="edge">
<title>Node7&#45;&gt;Node14</title>
<path fill="none" stroke="midnightblue" d="M1229.32,-474.11C1147.27,-465.88 1018.12,-447.99 912,-411 899.05,-406.49 885.79,-400.46 873.29,-394.03"/>
<polygon fill="none" stroke="midnightblue" points="1229.04,-477.59 1239.33,-475.08 1229.72,-470.63 1229.04,-477.59"/>
</g>
<!-- Node15 -->
<g id="node15" class="node">
<title>Node15</title>
<g id="a_node15"><a xlink:href="classklyqa__ctl_1_1devices_1_1light_1_1commands_1_1RebootCommand.html" target="_top" xlink:title=" ">
<polygon fill="white" stroke="black" points="921,-315 921,-394 1107,-394 1107,-315 921,-315"/>
<text text-anchor="start" x="929" y="-382" font-family="Helvetica,sans-Serif" font-size="10.00">klyqa_ctl.devices.light.commands.</text>
<text text-anchor="middle" x="1014" y="-371" font-family="Helvetica,sans-Serif" font-size="10.00">RebootCommand</text>
<polyline fill="none" stroke="black" points="921,-364 1107,-364 "/>
<text text-anchor="start" x="929" y="-352" font-family="Helvetica,sans-Serif" font-size="10.00">+ type</text>
<polyline fill="none" stroke="black" points="921,-345 1107,-345 "/>
<text text-anchor="start" x="929" y="-333" font-family="Helvetica,sans-Serif" font-size="10.00">+ None __post_init__</text>
<text text-anchor="start" x="929" y="-322" font-family="Helvetica,sans-Serif" font-size="10.00">(self)</text>
</a>
</g>
</g>
<!-- Node7&#45;&gt;Node15 -->
<g id="edge17" class="edge">
<title>Node7&#45;&gt;Node15</title>
<path fill="none" stroke="midnightblue" d="M1229.3,-454.56C1193.96,-442.52 1152.44,-427.29 1116,-411 1104.59,-405.9 1092.72,-400.01 1081.29,-394.02"/>
<polygon fill="none" stroke="midnightblue" points="1228.5,-457.98 1239.09,-457.86 1230.74,-451.35 1228.5,-457.98"/>
</g>
<!-- Node16 -->
<g id="node16" class="node">
<title>Node16</title>
<g id="a_node16"><a xlink:href="classklyqa__ctl_1_1devices_1_1light_1_1commands_1_1RequestCommand.html" target="_top" xlink:title=" ">
<polygon fill="white" stroke="black" points="1125,-315 1125,-394 1311,-394 1311,-315 1125,-315"/>
<text text-anchor="start" x="1133" y="-382" font-family="Helvetica,sans-Serif" font-size="10.00">klyqa_ctl.devices.light.commands.</text>
<text text-anchor="middle" x="1218" y="-371" font-family="Helvetica,sans-Serif" font-size="10.00">RequestCommand</text>
<polyline fill="none" stroke="black" points="1125,-364 1311,-364 "/>
<text text-anchor="start" x="1133" y="-352" font-family="Helvetica,sans-Serif" font-size="10.00">+ type</text>
<polyline fill="none" stroke="black" points="1125,-345 1311,-345 "/>
<text text-anchor="start" x="1133" y="-333" font-family="Helvetica,sans-Serif" font-size="10.00">+ None __post_init__</text>
<text text-anchor="start" x="1133" y="-322" font-family="Helvetica,sans-Serif" font-size="10.00">(self)</text>
</a>
</g>
</g>
<!-- Node7&#45;&gt;Node16 -->
<g id="edge18" class="edge">
<title>Node7&#45;&gt;Node16</title>
<path fill="none" stroke="midnightblue" d="M1280.15,-439.03C1269.38,-424.56 1257.34,-408.38 1246.75,-394.15"/>
<polygon fill="none" stroke="midnightblue" points="1277.54,-441.4 1286.32,-447.33 1283.16,-437.22 1277.54,-441.4"/>
</g>
<!-- Node26 -->
<g id="node26" class="node">
<title>Node26</title>
<g id="a_node26"><a xlink:href="classklyqa__ctl_1_1devices_1_1light_1_1commands_1_1RoutineCommand.html" target="_top" xlink:title=" ">
<polygon fill="white" stroke="black" points="2153,-155 2153,-256 2339,-256 2339,-155 2153,-155"/>
<text text-anchor="start" x="2161" y="-244" font-family="Helvetica,sans-Serif" font-size="10.00">klyqa_ctl.devices.light.commands.</text>
<text text-anchor="middle" x="2246" y="-233" font-family="Helvetica,sans-Serif" font-size="10.00">RoutineCommand</text>
<polyline fill="none" stroke="black" points="2153,-226 2339,-226 "/>
<text text-anchor="start" x="2161" y="-214" font-family="Helvetica,sans-Serif" font-size="10.00">+ type</text>
<text text-anchor="start" x="2161" y="-203" font-family="Helvetica,sans-Serif" font-size="10.00">+ str</text>
<polyline fill="none" stroke="black" points="2153,-196 2339,-196 "/>
<text text-anchor="start" x="2161" y="-184" font-family="Helvetica,sans-Serif" font-size="10.00">+ None __post_init__</text>
<text text-anchor="start" x="2161" y="-173" font-family="Helvetica,sans-Serif" font-size="10.00">(self)</text>
<text text-anchor="start" x="2161" y="-162" font-family="Helvetica,sans-Serif" font-size="10.00">+ TypeJson json(self)</text>
</a>
</g>
</g>
<!-- Node7&#45;&gt;Node26 -->
<g id="edge34" class="edge">
<title>Node7&#45;&gt;Node26</title>
<path fill="none" stroke="midnightblue" d="M1392.76,-464.88C1426.76,-454.66 1464.22,-437.99 1490,-411 1526.6,-372.68 1485.9,-330.17 1528,-298 1582.48,-256.38 2078.08,-280.84 2144,-262 2149.82,-260.34 2155.67,-258.3 2161.47,-256.01"/>
<polygon fill="none" stroke="midnightblue" points="1391.46,-461.61 1382.81,-467.73 1393.39,-468.35 1391.46,-461.61"/>
</g>
<!-- Node9 -->
<g id="node9" class="node">
<title>Node9</title>
<g id="a_node9"><a xlink:href="classklyqa__ctl_1_1devices_1_1light_1_1commands_1_1CommandWithCheckValuesLight.html" target="_top" xlink:title=" ">
<polygon fill="white" stroke="black" points="1745,-160.5 1745,-250.5 1931,-250.5 1931,-160.5 1745,-160.5"/>
<text text-anchor="start" x="1753" y="-238.5" font-family="Helvetica,sans-Serif" font-size="10.00">klyqa_ctl.devices.light.commands.</text>
<text text-anchor="middle" x="1838" y="-227.5" font-family="Helvetica,sans-Serif" font-size="10.00">CommandWithCheckValuesLight</text>
<polyline fill="none" stroke="black" points="1745,-220.5 1931,-220.5 "/>
<text text-anchor="start" x="1753" y="-208.5" font-family="Helvetica,sans-Serif" font-size="10.00">+ None</text>
<text text-anchor="start" x="1753" y="-197.5" font-family="Helvetica,sans-Serif" font-size="10.00">&#45; _light</text>
<polyline fill="none" stroke="black" points="1745,-190.5 1931,-190.5 "/>
<text text-anchor="start" x="1753" y="-178.5" font-family="Helvetica,sans-Serif" font-size="10.00">+ bool check_values(self,</text>
<text text-anchor="start" x="1753" y="-167.5" font-family="Helvetica,sans-Serif" font-size="10.00"> Device device)</text>
</a>
</g>
</g>
<!-- Node8&#45;&gt;Node9 -->
<g id="edge8" class="edge">
<title>Node8&#45;&gt;Node9</title>
<path fill="none" stroke="midnightblue" d="M1468.69,-309.97C1477.27,-305.38 1486.17,-301.23 1495,-298 1596.72,-260.82 1633.31,-296.41 1736,-262 1745.37,-258.86 1754.88,-254.89 1764.15,-250.52"/>
<polygon fill="none" stroke="midnightblue" points="1466.9,-306.96 1459.87,-314.88 1470.31,-313.07 1466.9,-306.96"/>
</g>
<!-- Node11 -->
<g id="node11" class="node">
<title>Node11</title>
<g id="a_node11"><a xlink:href="classklyqa__ctl_1_1devices_1_1light_1_1commands_1_1ExternalSourceCommand.html" target="_top" xlink:title=" ">
<polygon fill="white" stroke="black" points="1541,-155 1541,-256 1727,-256 1727,-155 1541,-155"/>
<text text-anchor="start" x="1549" y="-244" font-family="Helvetica,sans-Serif" font-size="10.00">klyqa_ctl.devices.light.commands.</text>
<text text-anchor="middle" x="1634" y="-233" font-family="Helvetica,sans-Serif" font-size="10.00">ExternalSourceCommand</text>
<polyline fill="none" stroke="black" points="1541,-226 1727,-226 "/>
<text text-anchor="start" x="1549" y="-214" font-family="Helvetica,sans-Serif" font-size="10.00">+ ExternalSourceProtocol</text>
<text text-anchor="start" x="1549" y="-203" font-family="Helvetica,sans-Serif" font-size="10.00">+ int</text>
<polyline fill="none" stroke="black" points="1541,-196 1727,-196 "/>
<text text-anchor="start" x="1549" y="-184" font-family="Helvetica,sans-Serif" font-size="10.00">+ TypeJson json(self)</text>
<text text-anchor="start" x="1549" y="-173" font-family="Helvetica,sans-Serif" font-size="10.00">+ bool check_values(self,</text>
<text text-anchor="start" x="1549" y="-162" font-family="Helvetica,sans-Serif" font-size="10.00"> Device device)</text>
</a>
</g>
</g>
<!-- Node8&#45;&gt;Node11 -->
<g id="edge13" class="edge">
<title>Node8&#45;&gt;Node11</title>
<path fill="none" stroke="midnightblue" d="M1473.85,-309.3C1499.91,-292.57 1529.75,-273.42 1556.55,-256.22"/>
<polygon fill="none" stroke="midnightblue" points="1471.69,-306.53 1465.17,-314.88 1475.47,-312.42 1471.69,-306.53"/>
</g>
<!-- Node9&#45;&gt;Node3 -->
<g id="edge9" class="edge">
<title>Node9&#45;&gt;Node3</title>
<path fill="none" stroke="midnightblue" d="M1768.59,-154.48C1749.84,-140.97 1729.45,-126.28 1710.35,-112.52"/>
<polygon fill="none" stroke="midnightblue" points="1766.63,-157.39 1776.79,-160.4 1770.73,-151.71 1766.63,-157.39"/>
</g>
<!-- Node9&#45;&gt;Node4 -->
<g id="edge10" class="edge">
<title>Node9&#45;&gt;Node4</title>
<path fill="none" stroke="midnightblue" d="M1838,-150.27C1838,-137.95 1838,-124.86 1838,-112.52"/>
<polygon fill="none" stroke="midnightblue" points="1834.5,-150.4 1838,-160.4 1841.5,-150.4 1834.5,-150.4"/>
</g>
<!-- Node9&#45;&gt;Node6 -->
<g id="edge12" class="edge">
<title>Node9&#45;&gt;Node6</title>
<path fill="none" stroke="midnightblue" d="M1754.08,-156.15C1748.06,-153.52 1741.99,-151.1 1736,-149 1649.1,-118.6 1618.9,-143.4 1532,-113 1529.05,-111.97 1526.08,-110.86 1523.11,-109.68"/>
<polygon fill="none" stroke="midnightblue" points="1752.95,-159.48 1763.5,-160.45 1755.86,-153.11 1752.95,-159.48"/>
</g>
<!-- Node10 -->
<g id="node10" class="node">
<title>Node10</title>
<g id="a_node10"><a xlink:href="classklyqa__ctl_1_1devices_1_1light_1_1commands_1_1RoutinePutCommand.html" target="_top" xlink:title=" ">
<polygon fill="white" stroke="black" points="1949,-0.5 1949,-112.5 2135,-112.5 2135,-0.5 1949,-0.5"/>
<text text-anchor="start" x="1957" y="-100.5" font-family="Helvetica,sans-Serif" font-size="10.00">klyqa_ctl.devices.light.commands.</text>
<text text-anchor="middle" x="2042" y="-89.5" font-family="Helvetica,sans-Serif" font-size="10.00">RoutinePutCommand</text>
<polyline fill="none" stroke="black" points="1949,-82.5 2135,-82.5 "/>
<text text-anchor="start" x="1957" y="-70.5" font-family="Helvetica,sans-Serif" font-size="10.00">+ action</text>
<text text-anchor="start" x="1957" y="-59.5" font-family="Helvetica,sans-Serif" font-size="10.00">+ str</text>
<polyline fill="none" stroke="black" points="1949,-52.5 2135,-52.5 "/>
<text text-anchor="start" x="1957" y="-40.5" font-family="Helvetica,sans-Serif" font-size="10.00">+ None __post_init__</text>
<text text-anchor="start" x="1957" y="-29.5" font-family="Helvetica,sans-Serif" font-size="10.00">(self)</text>
<text text-anchor="start" x="1957" y="-18.5" font-family="Helvetica,sans-Serif" font-size="10.00">+ bool check_values(self,</text>
<text text-anchor="start" x="1957" y="-7.5" font-family="Helvetica,sans-Serif" font-size="10.00"> Device device)</text>
</a>
</g>
</g>
<!-- Node9&#45;&gt;Node10 -->
<g id="edge11" class="edge">
<title>Node9&#45;&gt;Node10</title>
<path fill="none" stroke="midnightblue" d="M1907.41,-154.48C1926.16,-140.97 1946.55,-126.28 1965.65,-112.52"/>
<polygon fill="none" stroke="midnightblue" points="1905.27,-151.71 1899.21,-160.4 1909.37,-157.39 1905.27,-151.71"/>
</g>
<!-- Node16&#45;&gt;Node5 -->
<g id="edge21" class="edge">
<title>Node16&#45;&gt;Node5</title>
<path fill="none" stroke="midnightblue" d="M1148.71,-310.37C1138.08,-305.37 1126.98,-300.99 1116,-298 1059.47,-282.59 102.72,-304.13 62,-262 17.83,-216.3 49.56,-136.03 73.35,-90.85"/>
<polygon fill="none" stroke="midnightblue" points="1147.4,-313.62 1157.92,-314.9 1150.49,-307.34 1147.4,-313.62"/>
</g>
<!-- Node16&#45;&gt;Node11 -->
<g id="edge19" class="edge">
<title>Node16&#45;&gt;Node11</title>
<path fill="none" stroke="midnightblue" d="M1290.48,-310.34C1300.19,-305.68 1310.18,-301.4 1320,-298 1410.31,-266.74 1441.69,-293.26 1532,-262 1537.14,-260.22 1542.34,-258.2 1547.51,-256"/>
<polygon fill="none" stroke="midnightblue" points="1288.67,-307.34 1281.27,-314.92 1291.79,-313.6 1288.67,-307.34"/>
</g>
<!-- Node17 -->
<g id="node17" class="node">
<title>Node17</title>
<g id="a_node17"><a xlink:href="classklyqa__ctl_1_1devices_1_1light_1_1commands_1_1FadeCommand.html" target="_top" xlink:title=" ">
<polygon fill="white" stroke="black" points="1337,-171.5 1337,-239.5 1523,-239.5 1523,-171.5 1337,-171.5"/>
<text text-anchor="start" x="1345" y="-227.5" font-family="Helvetica,sans-Serif" font-size="10.00">klyqa_ctl.devices.light.commands.</text>
<text text-anchor="middle" x="1430" y="-216.5" font-family="Helvetica,sans-Serif" font-size="10.00">FadeCommand</text>
<polyline fill="none" stroke="black" points="1337,-209.5 1523,-209.5 "/>
<text text-anchor="start" x="1345" y="-197.5" font-family="Helvetica,sans-Serif" font-size="10.00">+ int</text>
<polyline fill="none" stroke="black" points="1337,-190.5 1523,-190.5 "/>
<text text-anchor="middle" x="1430" y="-178.5" font-family="Helvetica,sans-Serif" font-size="10.00"> </text>
</a>
</g>
</g>
<!-- Node16&#45;&gt;Node17 -->
<g id="edge20" class="edge">
<title>Node16&#45;&gt;Node17</title>
<path fill="none" stroke="midnightblue" d="M1282.17,-309C1314.35,-286.69 1352.66,-260.12 1382.22,-239.63"/>
<polygon fill="none" stroke="midnightblue" points="1279.92,-306.3 1273.7,-314.88 1283.91,-312.06 1279.92,-306.3"/>
</g>
<!-- Node18 -->
<g id="node18" class="node">
<title>Node18</title>
<g id="a_node18"><a xlink:href="classklyqa__ctl_1_1devices_1_1light_1_1commands_1_1TransitionCommand.html" target="_top" xlink:title=" ">
<polygon fill="white" stroke="black" points="1949,-171.5 1949,-239.5 2135,-239.5 2135,-171.5 1949,-171.5"/>
<text text-anchor="start" x="1957" y="-227.5" font-family="Helvetica,sans-Serif" font-size="10.00">klyqa_ctl.devices.light.commands.</text>
<text text-anchor="middle" x="2042" y="-216.5" font-family="Helvetica,sans-Serif" font-size="10.00">TransitionCommand</text>
<polyline fill="none" stroke="black" points="1949,-209.5 2135,-209.5 "/>
<text text-anchor="start" x="1957" y="-197.5" font-family="Helvetica,sans-Serif" font-size="10.00">+ int</text>
<polyline fill="none" stroke="black" points="1949,-190.5 2135,-190.5 "/>
<text text-anchor="start" x="1957" y="-178.5" font-family="Helvetica,sans-Serif" font-size="10.00">+ TypeJson json(self)</text>
</a>
</g>
</g>
<!-- Node16&#45;&gt;Node18 -->
<g id="edge22" class="edge">
<title>Node16&#45;&gt;Node18</title>
<path fill="none" stroke="midnightblue" d="M1287.79,-310.4C1298.28,-305.45 1309.2,-301.08 1320,-298 1585.41,-222.21 1674.59,-337.79 1940,-262 1957.74,-256.93 1975.83,-248.4 1991.75,-239.52"/>
<polygon fill="none" stroke="midnightblue" points="1286.12,-307.32 1278.7,-314.88 1289.22,-313.6 1286.12,-307.32"/>
</g>
<!-- Node21 -->
<g id="node21" class="node">
<title>Node21</title>
<g id="a_node21"><a xlink:href="classklyqa__ctl_1_1devices_1_1vacuum_1_1commands_1_1ProductinfoCommand.html" target="_top" xlink:title=" ">
<polygon fill="white" stroke="black" points="232.5,-160.5 232.5,-250.5 435.5,-250.5 435.5,-160.5 232.5,-160.5"/>
<text text-anchor="start" x="240.5" y="-238.5" font-family="Helvetica,sans-Serif" font-size="10.00">klyqa_ctl.devices.vacuum.commands.</text>
<text text-anchor="middle" x="334" y="-227.5" font-family="Helvetica,sans-Serif" font-size="10.00">ProductinfoCommand</text>
<polyline fill="none" stroke="black" points="232.5,-220.5 435.5,-220.5 "/>
<text text-anchor="middle" x="334" y="-208.5" font-family="Helvetica,sans-Serif" font-size="10.00"> </text>
<polyline fill="none" stroke="black" points="232.5,-201.5 435.5,-201.5 "/>
<text text-anchor="start" x="240.5" y="-189.5" font-family="Helvetica,sans-Serif" font-size="10.00">+ TypeJson productinfo</text>
<text text-anchor="start" x="240.5" y="-178.5" font-family="Helvetica,sans-Serif" font-size="10.00">_json(self)</text>
<text text-anchor="start" x="240.5" y="-167.5" font-family="Helvetica,sans-Serif" font-size="10.00">+ TypeJson json(self)</text>
</a>
</g>
</g>
<!-- Node16&#45;&gt;Node21 -->
<g id="edge29" class="edge">
<title>Node16&#45;&gt;Node21</title>
<path fill="none" stroke="midnightblue" d="M1148.44,-310.46C1137.88,-305.47 1126.88,-301.08 1116,-298 828.22,-216.52 733.01,-339.01 444,-262 433.25,-259.14 422.33,-255.15 411.75,-250.6"/>
<polygon fill="none" stroke="midnightblue" points="1147.07,-313.68 1157.59,-314.97 1150.17,-307.41 1147.07,-313.68"/>
</g>
<!-- Node22 -->
<g id="node22" class="node">
<title>Node22</title>
<g id="a_node22"><a xlink:href="classklyqa__ctl_1_1devices_1_1vacuum_1_1commands_1_1RequestGetCommand.html" target="_top" xlink:title=" ">
<polygon fill="white" stroke="black" points="453.5,-166 453.5,-245 656.5,-245 656.5,-166 453.5,-166"/>
<text text-anchor="start" x="461.5" y="-233" font-family="Helvetica,sans-Serif" font-size="10.00">klyqa_ctl.devices.vacuum.commands.</text>
<text text-anchor="middle" x="555" y="-222" font-family="Helvetica,sans-Serif" font-size="10.00">RequestGetCommand</text>
<polyline fill="none" stroke="black" points="453.5,-215 656.5,-215 "/>
<text text-anchor="middle" x="555" y="-203" font-family="Helvetica,sans-Serif" font-size="10.00"> </text>
<polyline fill="none" stroke="black" points="453.5,-196 656.5,-196 "/>
<text text-anchor="start" x="461.5" y="-184" font-family="Helvetica,sans-Serif" font-size="10.00">+ TypeJson get_json(self)</text>
<text text-anchor="start" x="461.5" y="-173" font-family="Helvetica,sans-Serif" font-size="10.00">+ TypeJson json(self)</text>
</a>
</g>
</g>
<!-- Node16&#45;&gt;Node22 -->
<g id="edge30" class="edge">
<title>Node16&#45;&gt;Node22</title>
<path fill="none" stroke="midnightblue" d="M1147.93,-310.51C1137.52,-305.57 1126.69,-301.18 1116,-298 923.69,-240.81 859.28,-315.85 666,-262 651.26,-257.89 636.16,-251.8 622.04,-245.13"/>
<polygon fill="none" stroke="midnightblue" points="1146.44,-313.68 1156.95,-314.97 1149.54,-307.4 1146.44,-313.68"/>
</g>
<!-- Node23 -->
<g id="node23" class="node">
<title>Node23</title>
<g id="a_node23"><a xlink:href="classklyqa__ctl_1_1devices_1_1vacuum_1_1commands_1_1RequestResetCommand.html" target="_top" xlink:title=" ">
<polygon fill="white" stroke="black" points="674.5,-160.5 674.5,-250.5 877.5,-250.5 877.5,-160.5 674.5,-160.5"/>
<text text-anchor="start" x="682.5" y="-238.5" font-family="Helvetica,sans-Serif" font-size="10.00">klyqa_ctl.devices.vacuum.commands.</text>
<text text-anchor="middle" x="776" y="-227.5" font-family="Helvetica,sans-Serif" font-size="10.00">RequestResetCommand</text>
<polyline fill="none" stroke="black" points="674.5,-220.5 877.5,-220.5 "/>
<text text-anchor="middle" x="776" y="-208.5" font-family="Helvetica,sans-Serif" font-size="10.00"> </text>
<polyline fill="none" stroke="black" points="674.5,-201.5 877.5,-201.5 "/>
<text text-anchor="start" x="682.5" y="-189.5" font-family="Helvetica,sans-Serif" font-size="10.00">+ TypeJson reset_json</text>
<text text-anchor="start" x="682.5" y="-178.5" font-family="Helvetica,sans-Serif" font-size="10.00">(self)</text>
<text text-anchor="start" x="682.5" y="-167.5" font-family="Helvetica,sans-Serif" font-size="10.00">+ TypeJson json(self)</text>
</a>
</g>
</g>
<!-- Node16&#45;&gt;Node23 -->
<g id="edge31" class="edge">
<title>Node16&#45;&gt;Node23</title>
<path fill="none" stroke="midnightblue" d="M1146.08,-310.48C1136.2,-305.73 1126.01,-301.4 1116,-298 1018.44,-264.9 985.12,-293.41 887,-262 877.15,-258.85 867.09,-254.93 857.25,-250.63"/>
<polygon fill="none" stroke="midnightblue" points="1144.53,-313.62 1155.05,-314.94 1147.65,-307.35 1144.53,-313.62"/>
</g>
<!-- Node24 -->
<g id="node24" class="node">
<title>Node24</title>
<g id="a_node24"><a xlink:href="classklyqa__ctl_1_1devices_1_1vacuum_1_1commands_1_1RequestSetCommand.html" target="_top" xlink:title=" ">
<polygon fill="white" stroke="black" points="895.5,-166 895.5,-245 1098.5,-245 1098.5,-166 895.5,-166"/>
<text text-anchor="start" x="903.5" y="-233" font-family="Helvetica,sans-Serif" font-size="10.00">klyqa_ctl.devices.vacuum.commands.</text>
<text text-anchor="middle" x="997" y="-222" font-family="Helvetica,sans-Serif" font-size="10.00">RequestSetCommand</text>
<polyline fill="none" stroke="black" points="895.5,-215 1098.5,-215 "/>
<text text-anchor="middle" x="997" y="-203" font-family="Helvetica,sans-Serif" font-size="10.00"> </text>
<polyline fill="none" stroke="black" points="895.5,-196 1098.5,-196 "/>
<text text-anchor="start" x="903.5" y="-184" font-family="Helvetica,sans-Serif" font-size="10.00">+ TypeJson set_json(self)</text>
<text text-anchor="start" x="903.5" y="-173" font-family="Helvetica,sans-Serif" font-size="10.00">+ TypeJson json(self)</text>
</a>
</g>
</g>
<!-- Node16&#45;&gt;Node24 -->
<g id="edge32" class="edge">
<title>Node16&#45;&gt;Node24</title>
<path fill="none" stroke="midnightblue" d="M1151.43,-309.22C1120.73,-288.8 1084.63,-264.79 1055.06,-245.12"/>
<polygon fill="none" stroke="midnightblue" points="1149.67,-312.25 1159.93,-314.88 1153.55,-306.42 1149.67,-312.25"/>
</g>
<!-- Node25 -->
<g id="node25" class="node">
<title>Node25</title>
<g id="a_node25"><a xlink:href="classklyqa__ctl_1_1devices_1_1vacuum_1_1commands_1_1RoutineCommand.html" target="_top" xlink:title=" ">
<polygon fill="white" stroke="black" points="1116.5,-149.5 1116.5,-261.5 1319.5,-261.5 1319.5,-149.5 1116.5,-149.5"/>
<text text-anchor="start" x="1124.5" y="-249.5" font-family="Helvetica,sans-Serif" font-size="10.00">klyqa_ctl.devices.vacuum.commands.</text>
<text text-anchor="middle" x="1218" y="-238.5" font-family="Helvetica,sans-Serif" font-size="10.00">RoutineCommand</text>
<polyline fill="none" stroke="black" points="1116.5,-231.5 1319.5,-231.5 "/>
<text text-anchor="start" x="1124.5" y="-219.5" font-family="Helvetica,sans-Serif" font-size="10.00">+ MessageCommandType</text>
<text text-anchor="start" x="1124.5" y="-208.5" font-family="Helvetica,sans-Serif" font-size="10.00">+ RoutineCommandActions</text>
<text text-anchor="start" x="1124.5" y="-197.5" font-family="Helvetica,sans-Serif" font-size="10.00">+ None</text>
<polyline fill="none" stroke="black" points="1116.5,-190.5 1319.5,-190.5 "/>
<text text-anchor="start" x="1124.5" y="-178.5" font-family="Helvetica,sans-Serif" font-size="10.00">+ TypeJson routine_json</text>
<text text-anchor="start" x="1124.5" y="-167.5" font-family="Helvetica,sans-Serif" font-size="10.00">(self)</text>
<text text-anchor="start" x="1124.5" y="-156.5" font-family="Helvetica,sans-Serif" font-size="10.00">+ TypeJson json(self)</text>
</a>
</g>
</g>
<!-- Node16&#45;&gt;Node25 -->
<g id="edge33" class="edge">
<title>Node16&#45;&gt;Node25</title>
<path fill="none" stroke="midnightblue" d="M1218,-304.65C1218,-290.89 1218,-275.83 1218,-261.72"/>
<polygon fill="none" stroke="midnightblue" points="1214.5,-304.88 1218,-314.88 1221.5,-304.88 1214.5,-304.88"/>
</g>
<!-- Node18&#45;&gt;Node3 -->
<g id="edge23" class="edge">
<title>Node18&#45;&gt;Node3</title>
<path fill="none" stroke="midnightblue" d="M1979.81,-166.56C1966.99,-159.92 1953.32,-153.66 1940,-149 1853.1,-118.6 1822.9,-143.4 1736,-113 1733.05,-111.97 1730.08,-110.86 1727.11,-109.68"/>
<polygon fill="none" stroke="midnightblue" points="1978.51,-169.83 1988.98,-171.44 1981.8,-163.65 1978.51,-169.83"/>
</g>
<!-- Node18&#45;&gt;Node4 -->
<g id="edge24" class="edge">
<title>Node18&#45;&gt;Node4</title>
<path fill="none" stroke="midnightblue" d="M1987.6,-165.3C1965.24,-149.19 1938.95,-130.24 1914.69,-112.76"/>
<polygon fill="none" stroke="midnightblue" points="1985.8,-168.32 1995.96,-171.33 1989.9,-162.64 1985.8,-168.32"/>
</g>
<!-- Node18&#45;&gt;Node6 -->
<g id="edge28" class="edge">
<title>Node18&#45;&gt;Node6</title>
<path fill="none" stroke="midnightblue" d="M1981.82,-166.52C1968.49,-159.61 1954.11,-153.26 1940,-149 1765.73,-96.39 1706.27,-165.61 1532,-113 1529.01,-112.1 1526.01,-111.1 1523,-110.02"/>
<polygon fill="none" stroke="midnightblue" points="1980.4,-169.73 1990.87,-171.37 1983.71,-163.56 1980.4,-169.73"/>
</g>
<!-- Node18&#45;&gt;Node10 -->
<g id="edge26" class="edge">
<title>Node18&#45;&gt;Node10</title>
<path fill="none" stroke="midnightblue" d="M2042,-161.01C2042,-145.85 2042,-128.62 2042,-112.64"/>
<polygon fill="none" stroke="midnightblue" points="2038.5,-161.14 2042,-171.14 2045.5,-161.14 2038.5,-161.14"/>
</g>
<!-- Node19 -->
<g id="node19" class="node">
<title>Node19</title>
<g id="a_node19"><a xlink:href="classklyqa__ctl_1_1devices_1_1light_1_1commands_1_1RoutineDeleteCommand.html" target="_top" xlink:title=" ">
<polygon fill="white" stroke="black" points="2357,-11.5 2357,-101.5 2543,-101.5 2543,-11.5 2357,-11.5"/>
<text text-anchor="start" x="2365" y="-89.5" font-family="Helvetica,sans-Serif" font-size="10.00">klyqa_ctl.devices.light.commands.</text>
<text text-anchor="middle" x="2450" y="-78.5" font-family="Helvetica,sans-Serif" font-size="10.00">RoutineDeleteCommand</text>
<polyline fill="none" stroke="black" points="2357,-71.5 2543,-71.5 "/>
<text text-anchor="start" x="2365" y="-59.5" font-family="Helvetica,sans-Serif" font-size="10.00">+ action</text>
<text text-anchor="start" x="2365" y="-48.5" font-family="Helvetica,sans-Serif" font-size="10.00">+ str</text>
<polyline fill="none" stroke="black" points="2357,-41.5 2543,-41.5 "/>
<text text-anchor="start" x="2365" y="-29.5" font-family="Helvetica,sans-Serif" font-size="10.00">+ None __post_init__</text>
<text text-anchor="start" x="2365" y="-18.5" font-family="Helvetica,sans-Serif" font-size="10.00">(self)</text>
</a>
</g>
</g>
<!-- Node18&#45;&gt;Node19 -->
<g id="edge25" class="edge">
<title>Node18&#45;&gt;Node19</title>
<path fill="none" stroke="midnightblue" d="M2104.19,-166.56C2117.01,-159.92 2130.68,-153.66 2144,-149 2230.9,-118.6 2261.1,-143.4 2348,-113 2357.13,-109.8 2366.43,-105.86 2375.5,-101.55"/>
<polygon fill="none" stroke="midnightblue" points="2102.2,-163.65 2095.02,-171.44 2105.49,-169.83 2102.2,-163.65"/>
</g>
<!-- Node20 -->
<g id="node20" class="node">
<title>Node20</title>
<g id="a_node20"><a xlink:href="classklyqa__ctl_1_1devices_1_1light_1_1commands_1_1RoutineStartCommand.html" target="_top" xlink:title=" ">
<polygon fill="white" stroke="black" points="2153,-11.5 2153,-101.5 2339,-101.5 2339,-11.5 2153,-11.5"/>
<text text-anchor="start" x="2161" y="-89.5" font-family="Helvetica,sans-Serif" font-size="10.00">klyqa_ctl.devices.light.commands.</text>
<text text-anchor="middle" x="2246" y="-78.5" font-family="Helvetica,sans-Serif" font-size="10.00">RoutineStartCommand</text>
<polyline fill="none" stroke="black" points="2153,-71.5 2339,-71.5 "/>
<text text-anchor="start" x="2161" y="-59.5" font-family="Helvetica,sans-Serif" font-size="10.00">+ action</text>
<text text-anchor="start" x="2161" y="-48.5" font-family="Helvetica,sans-Serif" font-size="10.00">+ str</text>
<polyline fill="none" stroke="black" points="2153,-41.5 2339,-41.5 "/>
<text text-anchor="start" x="2161" y="-29.5" font-family="Helvetica,sans-Serif" font-size="10.00">+ None __post_init__</text>
<text text-anchor="start" x="2161" y="-18.5" font-family="Helvetica,sans-Serif" font-size="10.00">(self)</text>
</a>
</g>
</g>
<!-- Node18&#45;&gt;Node20 -->
<g id="edge27" class="edge">
<title>Node18&#45;&gt;Node20</title>
<path fill="none" stroke="midnightblue" d="M2096.28,-165.39C2123.48,-145.78 2156.53,-121.97 2184.65,-101.7"/>
<polygon fill="none" stroke="midnightblue" points="2094.1,-162.64 2088.04,-171.33 2098.2,-168.32 2094.1,-162.64"/>
</g>
<!-- Node26&#45;&gt;Node10 -->
<g id="edge37" class="edge">
<title>Node26&#45;&gt;Node10</title>
<path fill="none" stroke="midnightblue" d="M2168.72,-148.81C2152.29,-136.97 2134.95,-124.48 2118.55,-112.66"/>
<polygon fill="none" stroke="midnightblue" points="2167.06,-151.93 2177.22,-154.94 2171.15,-146.25 2167.06,-151.93"/>
</g>
<!-- Node26&#45;&gt;Node19 -->
<g id="edge35" class="edge">
<title>Node26&#45;&gt;Node19</title>
<path fill="none" stroke="midnightblue" d="M2323.01,-149C2344.73,-133.36 2368.05,-116.55 2388.71,-101.67"/>
<polygon fill="none" stroke="midnightblue" points="2320.85,-146.25 2314.78,-154.94 2324.94,-151.93 2320.85,-146.25"/>
</g>
<!-- Node26&#45;&gt;Node20 -->
<g id="edge38" class="edge">
<title>Node26&#45;&gt;Node20</title>
<path fill="none" stroke="midnightblue" d="M2246,-144.49C2246,-130.21 2246,-115.22 2246,-101.79"/>
<polygon fill="none" stroke="midnightblue" points="2242.5,-144.73 2246,-154.73 2249.5,-144.73 2242.5,-144.73"/>
</g>
<!-- Node27 -->
<g id="node27" class="node">
<title>Node27</title>
<g id="a_node27"><a xlink:href="classklyqa__ctl_1_1devices_1_1light_1_1commands_1_1RoutineListCommand.html" target="_top" xlink:title=" ">
<polygon fill="white" stroke="black" points="2561,-17 2561,-96 2747,-96 2747,-17 2561,-17"/>
<text text-anchor="start" x="2569" y="-84" font-family="Helvetica,sans-Serif" font-size="10.00">klyqa_ctl.devices.light.commands.</text>
<text text-anchor="middle" x="2654" y="-73" font-family="Helvetica,sans-Serif" font-size="10.00">RoutineListCommand</text>
<polyline fill="none" stroke="black" points="2561,-66 2747,-66 "/>
<text text-anchor="start" x="2569" y="-54" font-family="Helvetica,sans-Serif" font-size="10.00">+ action</text>
<polyline fill="none" stroke="black" points="2561,-47 2747,-47 "/>
<text text-anchor="start" x="2569" y="-35" font-family="Helvetica,sans-Serif" font-size="10.00">+ None __post_init__</text>
<text text-anchor="start" x="2569" y="-24" font-family="Helvetica,sans-Serif" font-size="10.00">(self)</text>
</a>
</g>
</g>
<!-- Node26&#45;&gt;Node27 -->
<g id="edge36" class="edge">
<title>Node26&#45;&gt;Node27</title>
<path fill="none" stroke="midnightblue" d="M2349.02,-179.43C2409.27,-163.36 2486.17,-140.4 2552,-113 2563.82,-108.08 2576.05,-102.19 2587.76,-96.1"/>
<polygon fill="none" stroke="midnightblue" points="2347.9,-176.11 2339.12,-182.05 2349.68,-182.87 2347.9,-176.11"/>
</g>
</g>
</svg>
