<?xml version="1.0" encoding="UTF-8" standalone="no"?>
<!DOCTYPE svg PUBLIC "-//W3C//DTD SVG 1.1//EN"
 "http://www.w3.org/Graphics/SVG/1.1/DTD/svg11.dtd">
<!-- Generated by graphviz version 2.43.0 (0)
 -->
<!-- Title: klyqa_ctl.devices.light.light.Light.read_device_config Pages: 1 -->
<svg width="532pt" height="158pt"
 viewBox="0.00 0.00 532.00 157.84" xmlns="http://www.w3.org/2000/svg" xmlns:xlink="http://www.w3.org/1999/xlink">
<g id="graph0" class="graph" transform="scale(1 1) rotate(0) translate(4 153.84)">
<title>klyqa_ctl.devices.light.light.Light.read_device_config</title>
<polygon fill="white" stroke="transparent" points="-4,4 -4,-153.84 528,-153.84 528,4 -4,4"/>
<!-- Node1 -->
<g id="node1" class="node">
<title>Node1</title>
<g id="a_node1"><a xlink:title=" ">
<polygon fill="#bfbfbf" stroke="black" points="0,-73.5 0,-103.5 154,-103.5 154,-73.5 0,-73.5"/>
<text text-anchor="start" x="8" y="-91.5" font-family="Helvetica,sans-Serif" font-size="10.00">klyqa_ctl.devices.light.light.</text>
<text text-anchor="middle" x="77" y="-80.5" font-family="Helvetica,sans-Serif" font-size="10.00">Light.read_device_config</text>
</a>
</g>
</g>
<!-- Node2 -->
<g id="node2" class="node">
<title>Node2</title>
<g id="a_node2"><a xlink:href="classklyqa__ctl_1_1devices_1_1device_1_1Device.html#a70445a28c25aad39023b0b7304a5c732" target="_top" xlink:title=" ">
<polygon fill="white" stroke="black" points="384,-73.5 384,-103.5 524,-103.5 524,-73.5 384,-73.5"/>
<text text-anchor="start" x="392" y="-91.5" font-family="Helvetica,sans-Serif" font-size="10.00">klyqa_ctl.devices.device.</text>
<text text-anchor="middle" x="454" y="-80.5" font-family="Helvetica,sans-Serif" font-size="10.00">Device.ident</text>
</a>
</g>
</g>
<!-- Node1&#45;&gt;Node2 -->
<g id="edge1" class="edge">
<title>Node1&#45;&gt;Node2</title>
<path fill="none" stroke="midnightblue" d="M103.64,-103.69C125.68,-115.82 158.76,-131.84 190,-138.5 258.68,-153.13 279.5,-153.98 348,-138.5 373.62,-132.71 400.31,-119.9 420.37,-108.69"/>
<polygon fill="midnightblue" stroke="midnightblue" points="422.16,-111.7 429.1,-103.69 418.68,-105.63 422.16,-111.7"/>
</g>
<!-- Node3 -->
<g id="node3" class="node">
<title>Node3</title>
<g id="a_node3"><a xlink:href="classklyqa__ctl_1_1devices_1_1light_1_1light_1_1Light.html#af5692a637886edee63bb5b382b083f07" target="_top" xlink:title=" ">
<polygon fill="white" stroke="black" points="192,-98.5 192,-128.5 346,-128.5 346,-98.5 192,-98.5"/>
<text text-anchor="start" x="200" y="-116.5" font-family="Helvetica,sans-Serif" font-size="10.00">klyqa_ctl.devices.light.light.</text>
<text text-anchor="middle" x="269" y="-105.5" font-family="Helvetica,sans-Serif" font-size="10.00">Light.set_brightness_range</text>
</a>
</g>
</g>
<!-- Node1&#45;&gt;Node3 -->
<g id="edge2" class="edge">
<title>Node1&#45;&gt;Node3</title>
<path fill="none" stroke="midnightblue" d="M154.19,-98.52C163.28,-99.72 172.62,-100.95 181.85,-102.16"/>
<polygon fill="midnightblue" stroke="midnightblue" points="181.43,-105.64 191.8,-103.47 182.34,-98.7 181.43,-105.64"/>
</g>
<!-- Node4 -->
<g id="node4" class="node">
<title>Node4</title>
<g id="a_node4"><a xlink:href="classklyqa__ctl_1_1devices_1_1light_1_1light_1_1Light.html#a787bc2e5bed296bfff6ecd838bd42909" target="_top" xlink:title=" ">
<polygon fill="white" stroke="black" points="192,-49.5 192,-79.5 346,-79.5 346,-49.5 192,-49.5"/>
<text text-anchor="start" x="200" y="-67.5" font-family="Helvetica,sans-Serif" font-size="10.00">klyqa_ctl.devices.light.light.</text>
<text text-anchor="middle" x="269" y="-56.5" font-family="Helvetica,sans-Serif" font-size="10.00">Light.set_color_range</text>
</a>
</g>
</g>
<!-- Node1&#45;&gt;Node4 -->
<g id="edge4" class="edge">
<title>Node1&#45;&gt;Node4</title>
<path fill="none" stroke="midnightblue" d="M154.19,-78.88C163.28,-77.73 172.62,-76.55 181.85,-75.38"/>
<polygon fill="midnightblue" stroke="midnightblue" points="182.31,-78.85 191.8,-74.13 181.44,-71.91 182.31,-78.85"/>
</g>
<!-- Node5 -->
<g id="node5" class="node">
<title>Node5</title>
<g id="a_node5"><a xlink:href="classklyqa__ctl_1_1devices_1_1light_1_1light_1_1Light.html#a678cb5983ecfac6f4a45a6a7eedc05ee" target="_top" xlink:title=" ">
<polygon fill="white" stroke="black" points="190,-0.5 190,-30.5 348,-30.5 348,-0.5 190,-0.5"/>
<text text-anchor="start" x="198" y="-18.5" font-family="Helvetica,sans-Serif" font-size="10.00">klyqa_ctl.devices.light.light.</text>
<text text-anchor="middle" x="269" y="-7.5" font-family="Helvetica,sans-Serif" font-size="10.00">Light.set_temperature_range</text>
</a>
</g>
</g>
<!-- Node1&#45;&gt;Node5 -->
<g id="edge6" class="edge">
<title>Node1&#45;&gt;Node5</title>
<path fill="none" stroke="midnightblue" d="M110.99,-73.38C133.12,-63.49 163.05,-50.57 190,-40.5 196.03,-38.25 202.37,-36.01 208.72,-33.85"/>
<polygon fill="midnightblue" stroke="midnightblue" points="210.28,-37.02 218.66,-30.53 208.06,-30.38 210.28,-37.02"/>
</g>
<!-- Node3&#45;&gt;Node2 -->
<g id="edge3" class="edge">
<title>Node3&#45;&gt;Node2</title>
<path fill="none" stroke="midnightblue" d="M346.02,-103.11C355.25,-101.85 364.7,-100.56 373.97,-99.3"/>
<polygon fill="midnightblue" stroke="midnightblue" points="374.51,-102.76 383.95,-97.93 373.56,-95.82 374.51,-102.76"/>
</g>
<!-- Node4&#45;&gt;Node2 -->
<g id="edge5" class="edge">
<title>Node4&#45;&gt;Node2</title>
<path fill="none" stroke="midnightblue" d="M346.02,-74.47C355.25,-75.68 364.7,-76.92 373.97,-78.14"/>
<polygon fill="midnightblue" stroke="midnightblue" points="373.58,-81.61 383.95,-79.44 374.49,-74.67 373.58,-81.61"/>
</g>
<!-- Node5&#45;&gt;Node2 -->
<g id="edge7" class="edge">
<title>Node5&#45;&gt;Node2</title>
<path fill="none" stroke="midnightblue" d="M320.24,-30.63C329.54,-33.71 339.12,-37.06 348,-40.5 370.01,-49.02 393.98,-59.86 413.46,-69.08"/>
<polygon fill="midnightblue" stroke="midnightblue" points="412.09,-72.31 422.63,-73.46 415.11,-65.99 412.09,-72.31"/>
</g>
</g>
</svg>
