<?xml version="1.0" encoding="UTF-8" standalone="no"?>
<!DOCTYPE svg PUBLIC "-//W3C//DTD SVG 1.1//EN"
 "http://www.w3.org/Graphics/SVG/1.1/DTD/svg11.dtd">
<!-- Generated by graphviz version 2.43.0 (0)
 -->
<!-- Title: klyqa_ctl.devices.response_message.ResponseMessage.__init__ Pages: 1 -->
<svg width="404pt" height="149pt"
 viewBox="0.00 0.00 404.00 148.50" xmlns="http://www.w3.org/2000/svg" xmlns:xlink="http://www.w3.org/1999/xlink">
<g id="graph0" class="graph" transform="scale(1 1) rotate(0) translate(4 144.5)">
<title>klyqa_ctl.devices.response_message.ResponseMessage.__init__</title>
<polygon fill="white" stroke="transparent" points="-4,4 -4,-144.5 400,-144.5 400,4 -4,4"/>
<!-- Node1 -->
<g id="node1" class="node">
<title>Node1</title>
<g id="a_node1"><a xlink:title=" ">
<polygon fill="#bfbfbf" stroke="black" points="0,-44 0,-85 163,-85 163,-44 0,-44"/>
<text text-anchor="start" x="8" y="-73" font-family="Helvetica,sans-Serif" font-size="10.00">klyqa_ctl.devices.response</text>
<text text-anchor="start" x="8" y="-62" font-family="Helvetica,sans-Serif" font-size="10.00">_message.ResponseMessage.</text>
<text text-anchor="middle" x="81.5" y="-51" font-family="Helvetica,sans-Serif" font-size="10.00">__init__</text>
</a>
</g>
</g>
<!-- Node2 -->
<g id="node2" class="node">
<title>Node2</title>
<g id="a_node2"><a xlink:href="classklyqa__ctl_1_1devices_1_1response__identity__message_1_1ResponseIdentityMessage.html#abcd79774326dd47c4a0805509c09cadc" target="_top" xlink:title=" ">
<polygon fill="white" stroke="black" points="199,-99 199,-140 396,-140 396,-99 199,-99"/>
<text text-anchor="start" x="207" y="-128" font-family="Helvetica,sans-Serif" font-size="10.00">klyqa_ctl.devices.response</text>
<text text-anchor="start" x="207" y="-117" font-family="Helvetica,sans-Serif" font-size="10.00">_identity_message.ResponseIdentity</text>
<text text-anchor="middle" x="297.5" y="-106" font-family="Helvetica,sans-Serif" font-size="10.00">Message.update</text>
</a>
</g>
</g>
<!-- Node1&#45;&gt;Node2 -->
<g id="edge1" class="edge">
<title>Node1&#45;&gt;Node2</title>
<path fill="none" stroke="midnightblue" d="M162.49,-85.06C176.86,-88.75 191.93,-92.62 206.56,-96.38"/>
<polygon fill="midnightblue" stroke="midnightblue" points="206.05,-99.87 216.61,-98.97 207.79,-93.09 206.05,-99.87"/>
</g>
<!-- Node3 -->
<g id="node3" class="node">
<title>Node3</title>
<g id="a_node3"><a xlink:href="classklyqa__ctl_1_1devices_1_1response__message_1_1ResponseMessage.html#a2fe3b132a135335df05ea8492e22e73c" target="_top" xlink:title=" ">
<polygon fill="white" stroke="black" points="199,-49.5 199,-79.5 396,-79.5 396,-49.5 199,-49.5"/>
<text text-anchor="start" x="207" y="-67.5" font-family="Helvetica,sans-Serif" font-size="10.00">klyqa_ctl.devices.response</text>
<text text-anchor="middle" x="297.5" y="-56.5" font-family="Helvetica,sans-Serif" font-size="10.00">_message.ResponseMessage.update</text>
</a>
</g>
</g>
<!-- Node1&#45;&gt;Node3 -->
<g id="edge2" class="edge">
<title>Node1&#45;&gt;Node3</title>
<path fill="none" stroke="midnightblue" d="M163.1,-64.5C171.44,-64.5 180.02,-64.5 188.6,-64.5"/>
<polygon fill="midnightblue" stroke="midnightblue" points="188.67,-68 198.67,-64.5 188.67,-61 188.67,-68"/>
</g>
<!-- Node4 -->
<g id="node4" class="node">
<title>Node4</title>
<g id="a_node4"><a xlink:href="classklyqa__ctl_1_1devices_1_1vacuum_1_1response__status_1_1ResponseStatus.html#ae7f14f70e2121e36310fabed37003e1f" target="_top" xlink:title=" ">
<polygon fill="white" stroke="black" points="202,-0.5 202,-30.5 393,-30.5 393,-0.5 202,-0.5"/>
<text text-anchor="start" x="210" y="-18.5" font-family="Helvetica,sans-Serif" font-size="10.00">klyqa_ctl.devices.vacuum.response</text>
<text text-anchor="middle" x="297.5" y="-7.5" font-family="Helvetica,sans-Serif" font-size="10.00">_status.ResponseStatus.update</text>
</a>
</g>
</g>
<!-- Node1&#45;&gt;Node4 -->
<g id="edge3" class="edge">
<title>Node1&#45;&gt;Node4</title>
<path fill="none" stroke="midnightblue" d="M163.1,-46.05C182.08,-41.7 202.24,-37.08 220.99,-32.79"/>
<polygon fill="midnightblue" stroke="midnightblue" points="221.98,-36.15 230.95,-30.51 220.42,-29.33 221.98,-36.15"/>
</g>
</g>
</svg>
