<?xml version="1.0" encoding="UTF-8" standalone="no"?>
<!DOCTYPE svg PUBLIC "-//W3C//DTD SVG 1.1//EN"
 "http://www.w3.org/Graphics/SVG/1.1/DTD/svg11.dtd">
<!-- Generated by graphviz version 2.43.0 (0)
 -->
<!-- Title: local.connection_handler.LocalConnectionHandler.handle_connection Pages: 1 -->
<!--zoomable 643 -->
<svg id="main" version="1.1" xmlns="http://www.w3.org/2000/svg" xmlns:xlink="http://www.w3.org/1999/xlink" xml:space="preserve" onload="init(evt)">
<style type="text/css"><![CDATA[
.edge:hover path { stroke: red; }
.edge:hover polygon { stroke: red; fill: red; }
]]></style>
<script type="text/javascript"><![CDATA[
var edges = document.getElementsByTagName('g');
if (edges && edges.length) {
  for (var i=0;i<edges.length;i++) {
    if (edges[i].id.substr(0,4)=='edge') {
      edges[i].setAttribute('class','edge');
    }
  }
}
]]></script>
        <defs>
                <circle id="rim" cx="0" cy="0" r="7"/>
                <circle id="rim2" cx="0" cy="0" r="3.5"/>
                <g id="zoomPlus">
                        <use xlink:href="#rim" fill="#404040">
                                <set attributeName="fill" to="#808080" begin="zoomplus.mouseover" end="zoomplus.mouseout"/>
                        </use>
                        <path d="M-4,0h8M0,-4v8" fill="none" stroke="white" stroke-width="1.5" pointer-events="none"/>
                </g>
                <g id="zoomMin">
                        <use xlink:href="#rim" fill="#404040">
                                <set attributeName="fill" to="#808080" begin="zoomminus.mouseover" end="zoomminus.mouseout"/>
                        </use>
                        <path d="M-4,0h8" fill="none" stroke="white" stroke-width="1.5" pointer-events="none"/>
                </g>
                <g id="dirArrow">
                        <path fill="none" stroke="white" stroke-width="1.5" d="M0,-3.0v7 M-2.5,-0.5L0,-3.0L2.5,-0.5"/>
                </g>
               <g id="resetDef">
                       <use xlink:href="#rim2" fill="#404040">
                               <set attributeName="fill" to="#808080" begin="reset.mouseover" end="reset.mouseout"/>
                       </use>
               </g>
        </defs>

<script type="text/javascript">
var viewWidth = 1311;
var viewHeight = 643;
var sectionId = 'dynsection-23';
</script>
<script xlink:href="svgpan.js"/>
<svg id="graph" class="graph">
<g id="viewport">
<title>local.connection_handler.LocalConnectionHandler.handle_connection</title>
<polygon fill="white" stroke="transparent" points="-4,4 -4,-638.99 1307,-638.99 1307,4 -4,4"/>
<!-- Node1 -->
<g id="node1" class="node">
<title>Node1</title>
<g id="a_node1"><a xlink:title=" ">
<polygon fill="#bfbfbf" stroke="black" points="0,-84.49 0,-125.49 170,-125.49 170,-84.49 0,-84.49"/>
<text text-anchor="start" x="8" y="-113.49" font-family="Helvetica,sans-Serif" font-size="10.00">local.connection_handler.</text>
<text text-anchor="start" x="8" y="-102.49" font-family="Helvetica,sans-Serif" font-size="10.00">LocalConnectionHandler.handle</text>
<text text-anchor="middle" x="85" y="-91.49" font-family="Helvetica,sans-Serif" font-size="10.00">_connection</text>
</a>
</g>
</g>
<!-- Node2 -->
<g id="node2" class="node">
<title>Node2</title>
<g id="a_node2"><a xlink:href="classlocal_1_1connection__handler_1_1LocalConnectionHandler.html#aaa28266e241c2e30e8acd468fab06fde" target="_top" xlink:title=" ">
<polygon fill="white" stroke="black" points="206,-188.49 206,-229.49 381,-229.49 381,-188.49 206,-188.49"/>
<text text-anchor="start" x="214" y="-217.49" font-family="Helvetica,sans-Serif" font-size="10.00">local.connection_handler.</text>
<text text-anchor="start" x="214" y="-206.49" font-family="Helvetica,sans-Serif" font-size="10.00">LocalConnectionHandler.process</text>
<text text-anchor="middle" x="293.5" y="-195.49" font-family="Helvetica,sans-Serif" font-size="10.00">_tcp_package</text>
</a>
</g>
</g>
<!-- Node1&#45;&gt;Node2 -->
<g id="edge1" class="edge">
<title>Node1&#45;&gt;Node2</title>
<path fill="none" stroke="midnightblue" d="M126.8,-125.54C160.03,-142.28 207.09,-165.98 242.57,-183.85"/>
<polygon fill="midnightblue" stroke="midnightblue" points="241.28,-187.12 251.79,-188.49 244.43,-180.87 241.28,-187.12"/>
</g>
<!-- Node4 -->
<g id="node4" class="node">
<title>Node4</title>
<g id="a_node4"><a xlink:href="namespaceklyqa__ctl_1_1general_1_1general.html#a9df3b50dfc0fcc7c8ec991bb9be9c5ba" target="_top" xlink:title=" ">
<polygon fill="white" stroke="black" points="885,-169.49 885,-188.49 1070,-188.49 1070,-169.49 885,-169.49"/>
<text text-anchor="middle" x="977.5" y="-176.49" font-family="Helvetica,sans-Serif" font-size="10.00">klyqa_ctl.general.general.task_log</text>
</a>
</g>
</g>
<!-- Node1&#45;&gt;Node4 -->
<g id="edge23" class="edge">
<title>Node1&#45;&gt;Node4</title>
<path fill="none" stroke="midnightblue" d="M122.8,-84.36C145.9,-72.61 176.76,-59.06 206,-52.99 485.95,5.05 584.13,35.64 849,-71.99 897.13,-91.56 940.55,-136.42 962.13,-161.4"/>
<polygon fill="midnightblue" stroke="midnightblue" points="959.7,-163.94 968.82,-169.33 965.05,-159.43 959.7,-163.94"/>
</g>
<!-- Node16 -->
<g id="node16" class="node">
<title>Node16</title>
<g id="a_node16"><a xlink:href="classlocal_1_1connection__handler_1_1LocalConnectionHandler.html#a34b95b45332382bb830a3f1277878268" target="_top" xlink:title=" ">
<polygon fill="white" stroke="black" points="206,-112.49 206,-153.49 381,-153.49 381,-112.49 206,-112.49"/>
<text text-anchor="start" x="214" y="-141.49" font-family="Helvetica,sans-Serif" font-size="10.00">local.connection_handler.</text>
<text text-anchor="start" x="214" y="-130.49" font-family="Helvetica,sans-Serif" font-size="10.00">LocalConnectionHandler.remove</text>
<text text-anchor="middle" x="293.5" y="-119.49" font-family="Helvetica,sans-Serif" font-size="10.00">_msg_from_queue</text>
</a>
</g>
</g>
<!-- Node1&#45;&gt;Node16 -->
<g id="edge21" class="edge">
<title>Node1&#45;&gt;Node16</title>
<path fill="none" stroke="midnightblue" d="M170.29,-116.42C178.71,-117.56 187.3,-118.73 195.83,-119.89"/>
<polygon fill="midnightblue" stroke="midnightblue" points="195.42,-123.36 205.8,-121.24 196.36,-116.43 195.42,-123.36"/>
</g>
<!-- Node17 -->
<g id="node17" class="node">
<title>Node17</title>
<g id="a_node17"><a xlink:href="namespaceklyqa__ctl_1_1general_1_1general.html#ad6b753e482e539892c57f8144cf213cb" target="_top" xlink:title=" ">
<polygon fill="white" stroke="black" points="211.5,-62.99 211.5,-92.99 375.5,-92.99 375.5,-62.99 211.5,-62.99"/>
<text text-anchor="start" x="219.5" y="-80.99" font-family="Helvetica,sans-Serif" font-size="10.00">klyqa_ctl.general.general.task</text>
<text text-anchor="middle" x="293.5" y="-69.99" font-family="Helvetica,sans-Serif" font-size="10.00">_log_trace_ex</text>
</a>
</g>
</g>
<!-- Node1&#45;&gt;Node17 -->
<g id="edge24" class="edge">
<title>Node1&#45;&gt;Node17</title>
<path fill="none" stroke="midnightblue" d="M170.29,-93.97C180.49,-92.64 190.95,-91.27 201.25,-89.92"/>
<polygon fill="midnightblue" stroke="midnightblue" points="202.02,-93.35 211.48,-88.59 201.11,-86.41 202.02,-93.35"/>
</g>
<!-- Node3 -->
<g id="node3" class="node">
<title>Node3</title>
<g id="a_node3"><a xlink:href="classlocal_1_1connection__handler_1_1LocalConnectionHandler.html#ad1b4bfaedd513acfccbf1b12e36d5469" target="_top" xlink:title=" ">
<polygon fill="white" stroke="black" points="417,-248.49 417,-289.49 592,-289.49 592,-248.49 417,-248.49"/>
<text text-anchor="start" x="425" y="-277.49" font-family="Helvetica,sans-Serif" font-size="10.00">local.connection_handler.</text>
<text text-anchor="start" x="425" y="-266.49" font-family="Helvetica,sans-Serif" font-size="10.00">LocalConnectionHandler.process</text>
<text text-anchor="middle" x="504.5" y="-255.49" font-family="Helvetica,sans-Serif" font-size="10.00">_aes_initial_vector_package</text>
</a>
</g>
</g>
<!-- Node2&#45;&gt;Node3 -->
<g id="edge2" class="edge">
<title>Node2&#45;&gt;Node3</title>
<path fill="none" stroke="midnightblue" d="M366.13,-229.56C384.16,-234.73 403.65,-240.33 422.11,-245.63"/>
<polygon fill="midnightblue" stroke="midnightblue" points="421.38,-249.06 431.96,-248.46 423.31,-242.33 421.38,-249.06"/>
</g>
<!-- Node2&#45;&gt;Node4 -->
<g id="edge20" class="edge">
<title>Node2&#45;&gt;Node4</title>
<path fill="none" stroke="midnightblue" d="M365.87,-188.47C382.51,-184.53 400.26,-181.01 417,-178.99 575.74,-159.84 761.67,-165.32 874.19,-171.67"/>
<polygon fill="midnightblue" stroke="midnightblue" points="874.33,-175.18 884.51,-172.27 874.73,-168.2 874.33,-175.18"/>
</g>
<!-- Node7 -->
<g id="node7" class="node">
<title>Node7</title>
<g id="a_node7"><a xlink:href="classlocal_1_1connection__handler_1_1LocalConnectionHandler.html#a4ce11db96280d000941a91cb37df2842" target="_top" xlink:title=" ">
<polygon fill="white" stroke="black" points="417,-401.49 417,-442.49 592,-442.49 592,-401.49 417,-401.49"/>
<text text-anchor="start" x="425" y="-430.49" font-family="Helvetica,sans-Serif" font-size="10.00">local.connection_handler.</text>
<text text-anchor="start" x="425" y="-419.49" font-family="Helvetica,sans-Serif" font-size="10.00">LocalConnectionHandler.process</text>
<text text-anchor="middle" x="504.5" y="-408.49" font-family="Helvetica,sans-Serif" font-size="10.00">_device_identity_package</text>
</a>
</g>
</g>
<!-- Node2&#45;&gt;Node7 -->
<g id="edge7" class="edge">
<title>Node2&#45;&gt;Node7</title>
<path fill="none" stroke="midnightblue" d="M314.92,-229.81C352.71,-268.32 433.56,-350.72 476.08,-394.05"/>
<polygon fill="midnightblue" stroke="midnightblue" points="473.8,-396.73 483.3,-401.41 478.8,-391.82 473.8,-396.73"/>
</g>
<!-- Node15 -->
<g id="node15" class="node">
<title>Node15</title>
<g id="a_node15"><a xlink:href="classlocal_1_1connection__handler_1_1LocalConnectionHandler.html#a46f68728bc59f0e5991bc390f67f2685" target="_top" xlink:title=" ">
<polygon fill="white" stroke="black" points="417,-188.49 417,-229.49 592,-229.49 592,-188.49 417,-188.49"/>
<text text-anchor="start" x="425" y="-217.49" font-family="Helvetica,sans-Serif" font-size="10.00">local.connection_handler.</text>
<text text-anchor="start" x="425" y="-206.49" font-family="Helvetica,sans-Serif" font-size="10.00">LocalConnectionHandler.process</text>
<text text-anchor="middle" x="504.5" y="-195.49" font-family="Helvetica,sans-Serif" font-size="10.00">_message_answer_package</text>
</a>
</g>
</g>
<!-- Node2&#45;&gt;Node15 -->
<g id="edge17" class="edge">
<title>Node2&#45;&gt;Node15</title>
<path fill="none" stroke="midnightblue" d="M381.02,-208.99C389.49,-208.99 398.13,-208.99 406.7,-208.99"/>
<polygon fill="midnightblue" stroke="midnightblue" points="406.71,-212.49 416.71,-208.99 406.71,-205.49 406.71,-212.49"/>
</g>
<!-- Node3&#45;&gt;Node4 -->
<g id="edge3" class="edge">
<title>Node3&#45;&gt;Node4</title>
<path fill="none" stroke="midnightblue" d="M592.18,-254.78C661.77,-243.09 761.88,-225.63 849,-207.99 874.89,-202.75 903.59,-196.28 927.2,-190.79"/>
<polygon fill="midnightblue" stroke="midnightblue" points="928.04,-194.18 936.98,-188.5 926.44,-187.37 928.04,-194.18"/>
</g>
<!-- Node6 -->
<g id="node6" class="node">
<title>Node6</title>
<g id="a_node6"><a xlink:href="namespaceklyqa__ctl_1_1general_1_1general.html#a1afe30a73cc28a3b65babeeab27e36c8" target="_top" xlink:title=" ">
<polygon fill="white" stroke="black" points="656.5,-264.99 656.5,-294.99 820.5,-294.99 820.5,-264.99 656.5,-264.99"/>
<text text-anchor="start" x="664.5" y="-282.99" font-family="Helvetica,sans-Serif" font-size="10.00">klyqa_ctl.general.general.task</text>
<text text-anchor="middle" x="738.5" y="-271.99" font-family="Helvetica,sans-Serif" font-size="10.00">_log_debug</text>
</a>
</g>
</g>
<!-- Node3&#45;&gt;Node6 -->
<g id="edge5" class="edge">
<title>Node3&#45;&gt;Node6</title>
<path fill="none" stroke="midnightblue" d="M592.22,-273.11C609.76,-273.94 628.25,-274.81 645.94,-275.65"/>
<polygon fill="midnightblue" stroke="midnightblue" points="646.1,-279.16 656.26,-276.14 646.44,-272.17 646.1,-279.16"/>
</g>
<!-- Node5 -->
<g id="node5" class="node">
<title>Node5</title>
<g id="a_node5"><a xlink:href="namespaceklyqa__ctl_1_1general_1_1general.html#aea905150cafee39fa2ca211f1e60f012" target="_top" xlink:title=" ">
<polygon fill="white" stroke="black" points="1106,-169.49 1106,-188.49 1303,-188.49 1303,-169.49 1106,-169.49"/>
<text text-anchor="middle" x="1204.5" y="-176.49" font-family="Helvetica,sans-Serif" font-size="10.00">klyqa_ctl.general.general.task_name</text>
</a>
</g>
</g>
<!-- Node4&#45;&gt;Node5 -->
<g id="edge4" class="edge">
<title>Node4&#45;&gt;Node5</title>
<path fill="none" stroke="midnightblue" d="M1070.02,-178.99C1078.5,-178.99 1087.15,-178.99 1095.76,-178.99"/>
<polygon fill="midnightblue" stroke="midnightblue" points="1095.83,-182.49 1105.83,-178.99 1095.83,-175.49 1095.83,-182.49"/>
</g>
<!-- Node6&#45;&gt;Node4 -->
<g id="edge6" class="edge">
<title>Node6&#45;&gt;Node4</title>
<path fill="none" stroke="midnightblue" d="M804.63,-264.92C819.44,-260.73 834.95,-255.73 849,-249.99 887.27,-234.36 928.55,-209.82 953.45,-194.07"/>
<polygon fill="midnightblue" stroke="midnightblue" points="955.62,-196.84 962.16,-188.5 951.85,-190.94 955.62,-196.84"/>
</g>
<!-- Node7&#45;&gt;Node4 -->
<g id="edge15" class="edge">
<title>Node7&#45;&gt;Node4</title>
<path fill="none" stroke="midnightblue" d="M561.07,-401.4C581.86,-394.22 605.82,-386.58 628,-380.99 724.65,-356.66 763.52,-394.25 849,-342.99 908.4,-307.38 950.43,-232.91 967.72,-197.92"/>
<polygon fill="midnightblue" stroke="midnightblue" points="970.94,-199.32 972.12,-188.79 964.63,-196.28 970.94,-199.32"/>
</g>
<!-- Node7&#45;&gt;Node6 -->
<g id="edge16" class="edge">
<title>Node7&#45;&gt;Node6</title>
<path fill="none" stroke="midnightblue" d="M521.28,-401.13C542.54,-374.57 582.93,-329.23 628,-304.99 633.94,-301.8 640.28,-299.01 646.79,-296.58"/>
<polygon fill="midnightblue" stroke="midnightblue" points="648.12,-299.82 656.44,-293.26 645.85,-293.2 648.12,-299.82"/>
</g>
<!-- Node8 -->
<g id="node8" class="node">
<title>Node8</title>
<g id="a_node8"><a xlink:href="classklyqa__ctl_1_1account_1_1Account.html#a7bcb9ac9804621630ea08a688abecd18" target="_top" xlink:title=" ">
<polygon fill="white" stroke="black" points="628,-314.49 628,-333.49 849,-333.49 849,-314.49 628,-314.49"/>
<text text-anchor="middle" x="738.5" y="-321.49" font-family="Helvetica,sans-Serif" font-size="10.00">klyqa_ctl.account.Account.controller_data</text>
</a>
</g>
</g>
<!-- Node7&#45;&gt;Node8 -->
<g id="edge8" class="edge">
<title>Node7&#45;&gt;Node8</title>
<path fill="none" stroke="midnightblue" d="M533.79,-401.21C557.76,-384.53 593.61,-361.71 628,-347.99 640.32,-343.08 653.83,-339.08 667.04,-335.86"/>
<polygon fill="midnightblue" stroke="midnightblue" points="668.1,-339.21 677.05,-333.55 666.52,-332.39 668.1,-339.21"/>
</g>
<!-- Node9 -->
<g id="node9" class="node">
<title>Node9</title>
<g id="a_node9"><a xlink:href="classcloud_1_1CloudBackend.html#aef174fe1ba95fff13c7901ff56354ec9" target="_top" xlink:title=" ">
<polygon fill="white" stroke="black" points="643,-615.49 643,-634.49 834,-634.49 834,-615.49 643,-615.49"/>
<text text-anchor="middle" x="738.5" y="-622.49" font-family="Helvetica,sans-Serif" font-size="10.00">cloud.CloudBackend.controller_data</text>
</a>
</g>
</g>
<!-- Node7&#45;&gt;Node9 -->
<g id="edge9" class="edge">
<title>Node7&#45;&gt;Node9</title>
<path fill="none" stroke="midnightblue" d="M512.83,-442.59C527.83,-481.51 565.95,-565.55 628,-605.99 631,-607.95 634.14,-609.72 637.39,-611.33"/>
<polygon fill="midnightblue" stroke="midnightblue" points="636.21,-614.63 646.78,-615.42 639.01,-608.22 636.21,-614.63"/>
</g>
<!-- Node10 -->
<g id="node10" class="node">
<title>Node10</title>
<g id="a_node10"><a xlink:href="classlocal_1_1connection__handler_1_1LocalConnectionHandler.html#a8f938ae53b3c24bbdc02f377671cf263" target="_top" xlink:title=" ">
<polygon fill="white" stroke="black" points="633,-565.99 633,-595.99 844,-595.99 844,-565.99 633,-565.99"/>
<text text-anchor="start" x="641" y="-583.99" font-family="Helvetica,sans-Serif" font-size="10.00">local.connection_handler.</text>
<text text-anchor="middle" x="738.5" y="-572.99" font-family="Helvetica,sans-Serif" font-size="10.00">LocalConnectionHandler.controller_data</text>
</a>
</g>
</g>
<!-- Node7&#45;&gt;Node10 -->
<g id="edge10" class="edge">
<title>Node7&#45;&gt;Node10</title>
<path fill="none" stroke="midnightblue" d="M518.52,-442.86C538.33,-472.79 578.97,-527.44 628,-555.99 631.85,-558.23 635.88,-560.27 640.03,-562.13"/>
<polygon fill="midnightblue" stroke="midnightblue" points="638.72,-565.37 649.3,-565.91 641.36,-558.89 638.72,-565.37"/>
</g>
<!-- Node11 -->
<g id="node11" class="node">
<title>Node11</title>
<g id="a_node11"><a xlink:href="classklyqa__ctl_1_1account_1_1Account.html#a2265c38daf6829c96c852ad4a288b42d" target="_top" xlink:title=" ">
<polygon fill="white" stroke="black" points="646,-527.49 646,-546.49 831,-546.49 831,-527.49 646,-527.49"/>
<text text-anchor="middle" x="738.5" y="-534.49" font-family="Helvetica,sans-Serif" font-size="10.00">klyqa_ctl.account.Account.devices</text>
</a>
</g>
</g>
<!-- Node7&#45;&gt;Node11 -->
<g id="edge11" class="edge">
<title>Node7&#45;&gt;Node11</title>
<path fill="none" stroke="midnightblue" d="M525.49,-442.9C548.15,-465.24 587.26,-499.89 628,-517.99 633.73,-520.54 639.76,-522.75 645.94,-524.66"/>
<polygon fill="midnightblue" stroke="midnightblue" points="645.16,-528.07 655.73,-527.42 647.06,-521.34 645.16,-528.07"/>
</g>
<!-- Node12 -->
<g id="node12" class="node">
<title>Node12</title>
<g id="a_node12"><a xlink:href="classlocal_1_1connection__handler_1_1LocalConnectionHandler.html#a4d307f6bd0b66f3cb9fac3057fc87972" target="_top" xlink:title=" ">
<polygon fill="white" stroke="black" points="651,-477.99 651,-507.99 826,-507.99 826,-477.99 651,-477.99"/>
<text text-anchor="start" x="659" y="-495.99" font-family="Helvetica,sans-Serif" font-size="10.00">local.connection_handler.</text>
<text text-anchor="middle" x="738.5" y="-484.99" font-family="Helvetica,sans-Serif" font-size="10.00">LocalConnectionHandler.devices</text>
</a>
</g>
</g>
<!-- Node7&#45;&gt;Node12 -->
<g id="edge12" class="edge">
<title>Node7&#45;&gt;Node12</title>
<path fill="none" stroke="midnightblue" d="M554.09,-442.57C576.35,-451.5 603.23,-461.57 628,-468.99 635.69,-471.3 643.74,-473.48 651.84,-475.52"/>
<polygon fill="midnightblue" stroke="midnightblue" points="651.17,-478.96 661.72,-477.94 652.84,-472.17 651.17,-478.96"/>
</g>
<!-- Node13 -->
<g id="node13" class="node">
<title>Node13</title>
<g id="a_node13"><a xlink:href="classklyqa__ctl_1_1controller__data_1_1ControllerData.html#adf7af423388a9a883c428cf71e217650" target="_top" xlink:title=" ">
<polygon fill="white" stroke="black" points="659.5,-428.99 659.5,-458.99 817.5,-458.99 817.5,-428.99 659.5,-428.99"/>
<text text-anchor="start" x="667.5" y="-446.99" font-family="Helvetica,sans-Serif" font-size="10.00">klyqa_ctl.controller</text>
<text text-anchor="middle" x="738.5" y="-435.99" font-family="Helvetica,sans-Serif" font-size="10.00">_data.ControllerData.devices</text>
</a>
</g>
</g>
<!-- Node7&#45;&gt;Node13 -->
<g id="edge13" class="edge">
<title>Node7&#45;&gt;Node13</title>
<path fill="none" stroke="midnightblue" d="M592.22,-430.22C610.87,-431.99 630.61,-433.86 649.32,-435.63"/>
<polygon fill="midnightblue" stroke="midnightblue" points="649.01,-439.12 659.3,-436.58 649.67,-432.15 649.01,-439.12"/>
</g>
<!-- Node14 -->
<g id="node14" class="node">
<title>Node14</title>
<g id="a_node14"><a xlink:href="classklyqa__ctl_1_1klyqa__ctl_1_1Client.html#ab6e5eda10fb712850c3fb311fd1cd4a0" target="_top" xlink:title=" ">
<polygon fill="white" stroke="black" points="648.5,-390.49 648.5,-409.49 828.5,-409.49 828.5,-390.49 648.5,-390.49"/>
<text text-anchor="middle" x="738.5" y="-397.49" font-family="Helvetica,sans-Serif" font-size="10.00">klyqa_ctl.klyqa_ctl.Client.devices</text>
</a>
</g>
</g>
<!-- Node7&#45;&gt;Node14 -->
<g id="edge14" class="edge">
<title>Node7&#45;&gt;Node14</title>
<path fill="none" stroke="midnightblue" d="M592.22,-413.77C607.21,-412.35 622.9,-410.86 638.19,-409.41"/>
<polygon fill="midnightblue" stroke="midnightblue" points="638.55,-412.89 648.18,-408.46 637.89,-405.92 638.55,-412.89"/>
</g>
<!-- Node15&#45;&gt;Node4 -->
<g id="edge18" class="edge">
<title>Node15&#45;&gt;Node4</title>
<path fill="none" stroke="midnightblue" d="M592.16,-203.47C671.95,-198.39 790.35,-190.85 874.63,-185.48"/>
<polygon fill="midnightblue" stroke="midnightblue" points="874.98,-188.97 884.73,-184.84 874.53,-181.98 874.98,-188.97"/>
</g>
<!-- Node15&#45;&gt;Node6 -->
<g id="edge19" class="edge">
<title>Node15&#45;&gt;Node6</title>
<path fill="none" stroke="midnightblue" d="M572.6,-229.53C606.08,-239.77 646.2,-252.05 678.48,-261.93"/>
<polygon fill="midnightblue" stroke="midnightblue" points="677.65,-265.34 688.24,-264.92 679.7,-258.64 677.65,-265.34"/>
</g>
<!-- Node16&#45;&gt;Node4 -->
<g id="edge22" class="edge">
<title>Node16&#45;&gt;Node4</title>
<path fill="none" stroke="midnightblue" d="M381.12,-134.96C490.38,-138 683.96,-145.21 849,-160.99 867.86,-162.8 888.21,-165.38 907,-168.03"/>
<polygon fill="midnightblue" stroke="midnightblue" points="906.56,-171.5 916.96,-169.46 907.56,-164.57 906.56,-171.5"/>
</g>
<!-- Node18 -->
<g id="node18" class="node">
<title>Node18</title>
<g id="a_node18"><a xlink:href="namespaceklyqa__ctl_1_1general_1_1general.html#ab2f9a22e98cd16d0d284d22382cfcb02" target="_top" xlink:title=" ">
<polygon fill="white" stroke="black" points="422.5,-62.99 422.5,-92.99 586.5,-92.99 586.5,-62.99 422.5,-62.99"/>
<text text-anchor="start" x="430.5" y="-80.99" font-family="Helvetica,sans-Serif" font-size="10.00">klyqa_ctl.general.general.task</text>
<text text-anchor="middle" x="504.5" y="-69.99" font-family="Helvetica,sans-Serif" font-size="10.00">_log_trace</text>
</a>
</g>
</g>
<!-- Node17&#45;&gt;Node18 -->
<g id="edge25" class="edge">
<title>Node17&#45;&gt;Node18</title>
<path fill="none" stroke="midnightblue" d="M375.6,-77.99C387.62,-77.99 400.06,-77.99 412.26,-77.99"/>
<polygon fill="midnightblue" stroke="midnightblue" points="412.44,-81.49 422.44,-77.99 412.44,-74.49 412.44,-81.49"/>
</g>
<!-- Node18&#45;&gt;Node4 -->
<g id="edge26" class="edge">
<title>Node18&#45;&gt;Node4</title>
<path fill="none" stroke="midnightblue" d="M586.79,-75.62C657.57,-75.76 762.15,-81.36 849,-107.99 889.16,-120.31 930.79,-146.46 955.13,-163.36"/>
<polygon fill="midnightblue" stroke="midnightblue" points="953.39,-166.41 963.58,-169.33 957.43,-160.7 953.39,-166.41"/>
</g>
</g>
</svg>
        <g id="navigator" transform="translate(0 0)" fill="#404254">
                <rect fill="#f2f5e9" fill-opacity="0.5" stroke="#606060" stroke-width=".5" x="0" y="0" width="60" height="60"/>
                <use id="zoomplus" xlink:href="#zoomPlus" x="17" y="9" onmousedown="handleZoom(evt,'in')"/>
                <use id="zoomminus" xlink:href="#zoomMin" x="42" y="9" onmousedown="handleZoom(evt,'out')"/>
                <use id="reset" xlink:href="#resetDef" x="30" y="36" onmousedown="handleReset()"/>
                <g id="arrowUp" xlink:href="#dirArrow" transform="translate(30 24)" onmousedown="handlePan(0,-1)">
                  <use xlink:href="#rim" fill="#404040">
                        <set attributeName="fill" to="#808080" begin="arrowUp.mouseover" end="arrowUp.mouseout"/>
                  </use>
                  <path fill="none" stroke="white" stroke-width="1.5" d="M0,-3.0v7 M-2.5,-0.5L0,-3.0L2.5,-0.5"/>
                </g>
                <g id="arrowRight" xlink:href="#dirArrow" transform="rotate(90) translate(36 -43)" onmousedown="handlePan(1,0)">
                  <use xlink:href="#rim" fill="#404040">
                        <set attributeName="fill" to="#808080" begin="arrowRight.mouseover" end="arrowRight.mouseout"/>
                  </use>
                  <path fill="none" stroke="white" stroke-width="1.5" d="M0,-3.0v7 M-2.5,-0.5L0,-3.0L2.5,-0.5"/>
                </g>
                <g id="arrowDown" xlink:href="#dirArrow" transform="rotate(180) translate(-30 -48)" onmousedown="handlePan(0,1)">
                  <use xlink:href="#rim" fill="#404040">
                        <set attributeName="fill" to="#808080" begin="arrowDown.mouseover" end="arrowDown.mouseout"/>
                  </use>
                  <path fill="none" stroke="white" stroke-width="1.5" d="M0,-3.0v7 M-2.5,-0.5L0,-3.0L2.5,-0.5"/>
                </g>
                <g id="arrowLeft" xlink:href="#dirArrow" transform="rotate(270) translate(-36 17)" onmousedown="handlePan(-1,0)">
                  <use xlink:href="#rim" fill="#404040">
                        <set attributeName="fill" to="#808080" begin="arrowLeft.mouseover" end="arrowLeft.mouseout"/>
                  </use>
                  <path fill="none" stroke="white" stroke-width="1.5" d="M0,-3.0v7 M-2.5,-0.5L0,-3.0L2.5,-0.5"/>
                </g>
        </g>
        <svg viewBox="0 0 15 15" width="100%" height="30px" preserveAspectRatio="xMaxYMin meet">
         <g id="arrow_out" transform="scale(0.3 0.3)">
          <a xlink:href="classlocal_1_1connection__handler_1_1LocalConnectionHandler_a900e05554022ee9ecb3ba5621369016d_cgraph_org.svg" target="_base">
           <rect id="button" ry="5" rx="5" y="6" x="6" height="38" width="38"
                fill="#f2f5e9" fill-opacity="0.5" stroke="#606060" stroke-width="1.0"/>
           <path id="arrow"
             d="M 11.500037,31.436501 C 11.940474,20.09759 22.043105,11.32322 32.158766,21.979434 L 37.068811,17.246167 C 37.068811,17.246167 37.088388,32 37.088388,32 L 22.160133,31.978069 C 22.160133,31.978069 26.997745,27.140456 26.997745,27.140456 C 18.528582,18.264221 13.291696,25.230495 11.500037,31.436501 z"
             style="fill:#404040;"/>
          </a>
         </g>
        </svg>
</svg>
