<?xml version="1.0" encoding="UTF-8" standalone="no"?>
<!DOCTYPE svg PUBLIC "-//W3C//DTD SVG 1.1//EN"
 "http://www.w3.org/Graphics/SVG/1.1/DTD/svg11.dtd">
<!-- Generated by graphviz version 2.43.0 (0)
 -->
<!-- Title: klyqa_ctl.account.Account.read_acc_settings_cache Pages: 1 -->
<svg width="1053pt" height="127pt"
 viewBox="0.00 0.00 1053.00 126.50" xmlns="http://www.w3.org/2000/svg" xmlns:xlink="http://www.w3.org/1999/xlink">
<g id="graph0" class="graph" transform="scale(1 1) rotate(0) translate(4 122.5)">
<title>klyqa_ctl.account.Account.read_acc_settings_cache</title>
<polygon fill="white" stroke="transparent" points="-4,4 -4,-122.5 1049,-122.5 1049,4 -4,4"/>
<!-- Node1 -->
<g id="node1" class="node">
<title>Node1</title>
<g id="a_node1"><a xlink:title=" ">
<polygon fill="#bfbfbf" stroke="black" points="0,-39 0,-69 169,-69 169,-39 0,-39"/>
<text text-anchor="start" x="8" y="-57" font-family="Helvetica,sans-Serif" font-size="10.00">klyqa_ctl.account.Account.read</text>
<text text-anchor="middle" x="84.5" y="-46" font-family="Helvetica,sans-Serif" font-size="10.00">_acc_settings_cache</text>
</a>
</g>
</g>
<!-- Node2 -->
<g id="node2" class="node">
<title>Node2</title>
<g id="a_node2"><a xlink:href="namespaceklyqa__ctl_1_1general_1_1general.html#aa34dc716ff5492dc4f325a2ae1a73a4f" target="_top" xlink:title=" ">
<polygon fill="white" stroke="black" points="212,-88 212,-118 384,-118 384,-88 212,-88"/>
<text text-anchor="start" x="220" y="-106" font-family="Helvetica,sans-Serif" font-size="10.00">klyqa_ctl.general.general.async</text>
<text text-anchor="middle" x="298" y="-95" font-family="Helvetica,sans-Serif" font-size="10.00">_json_cache</text>
</a>
</g>
</g>
<!-- Node1&#45;&gt;Node2 -->
<g id="edge1" class="edge">
<title>Node1&#45;&gt;Node2</title>
<path fill="none" stroke="midnightblue" d="M150.39,-69.03C173.13,-74.3 198.85,-80.26 222.32,-85.7"/>
<polygon fill="midnightblue" stroke="midnightblue" points="221.7,-89.15 232.23,-87.99 223.28,-82.33 221.7,-89.15"/>
</g>
<!-- Node6 -->
<g id="node6" class="node">
<title>Node6</title>
<g id="a_node6"><a xlink:href="classklyqa__ctl_1_1account_1_1Account.html#a769e052989dfe17d0420b0a73128f309" target="_top" xlink:title=" ">
<polygon fill="white" stroke="black" points="217,-39 217,-69 379,-69 379,-39 217,-39"/>
<text text-anchor="start" x="225" y="-57" font-family="Helvetica,sans-Serif" font-size="10.00">klyqa_ctl.account.Account.set</text>
<text text-anchor="middle" x="298" y="-46" font-family="Helvetica,sans-Serif" font-size="10.00">_settings</text>
</a>
</g>
</g>
<!-- Node1&#45;&gt;Node6 -->
<g id="edge5" class="edge">
<title>Node1&#45;&gt;Node6</title>
<path fill="none" stroke="midnightblue" d="M169.09,-54C181.36,-54 194.04,-54 206.44,-54"/>
<polygon fill="midnightblue" stroke="midnightblue" points="206.78,-57.5 216.78,-54 206.78,-50.5 206.78,-57.5"/>
</g>
<!-- Node7 -->
<g id="node7" class="node">
<title>Node7</title>
<g id="a_node7"><a xlink:href="classklyqa__ctl_1_1account_1_1Account.html#a3d4ca77937552eadd9f6a1d906eaf565" target="_top" xlink:title=" ">
<polygon fill="white" stroke="black" points="205,-0.5 205,-19.5 391,-19.5 391,-0.5 205,-0.5"/>
<text text-anchor="middle" x="298" y="-7.5" font-family="Helvetica,sans-Serif" font-size="10.00">klyqa_ctl.account.Account.settings</text>
</a>
</g>
</g>
<!-- Node1&#45;&gt;Node7 -->
<g id="edge6" class="edge">
<title>Node1&#45;&gt;Node7</title>
<path fill="none" stroke="midnightblue" d="M157.69,-38.98C185.06,-33.29 215.76,-26.9 241.37,-21.57"/>
<polygon fill="midnightblue" stroke="midnightblue" points="242.2,-24.98 251.28,-19.51 240.77,-18.12 242.2,-24.98"/>
</g>
<!-- Node3 -->
<g id="node3" class="node">
<title>Node3</title>
<g id="a_node3"><a xlink:href="namespaceklyqa__ctl_1_1general_1_1general.html#ab2f9a22e98cd16d0d284d22382cfcb02" target="_top" xlink:title=" ">
<polygon fill="white" stroke="black" points="427,-88 427,-118 591,-118 591,-88 427,-88"/>
<text text-anchor="start" x="435" y="-106" font-family="Helvetica,sans-Serif" font-size="10.00">klyqa_ctl.general.general.task</text>
<text text-anchor="middle" x="509" y="-95" font-family="Helvetica,sans-Serif" font-size="10.00">_log_trace</text>
</a>
</g>
</g>
<!-- Node2&#45;&gt;Node3 -->
<g id="edge2" class="edge">
<title>Node2&#45;&gt;Node3</title>
<path fill="none" stroke="midnightblue" d="M384.01,-103C394.71,-103 405.7,-103 416.5,-103"/>
<polygon fill="midnightblue" stroke="midnightblue" points="416.78,-106.5 426.78,-103 416.78,-99.5 416.78,-106.5"/>
</g>
<!-- Node4 -->
<g id="node4" class="node">
<title>Node4</title>
<g id="a_node4"><a xlink:href="namespaceklyqa__ctl_1_1general_1_1general.html#a9df3b50dfc0fcc7c8ec991bb9be9c5ba" target="_top" xlink:title=" ">
<polygon fill="white" stroke="black" points="627,-93.5 627,-112.5 812,-112.5 812,-93.5 627,-93.5"/>
<text text-anchor="middle" x="719.5" y="-100.5" font-family="Helvetica,sans-Serif" font-size="10.00">klyqa_ctl.general.general.task_log</text>
</a>
</g>
</g>
<!-- Node3&#45;&gt;Node4 -->
<g id="edge3" class="edge">
<title>Node3&#45;&gt;Node4</title>
<path fill="none" stroke="midnightblue" d="M591.21,-103C599.59,-103 608.18,-103 616.75,-103"/>
<polygon fill="midnightblue" stroke="midnightblue" points="616.79,-106.5 626.79,-103 616.79,-99.5 616.79,-106.5"/>
</g>
<!-- Node5 -->
<g id="node5" class="node">
<title>Node5</title>
<g id="a_node5"><a xlink:href="namespaceklyqa__ctl_1_1general_1_1general.html#aea905150cafee39fa2ca211f1e60f012" target="_top" xlink:title=" ">
<polygon fill="white" stroke="black" points="848,-93.5 848,-112.5 1045,-112.5 1045,-93.5 848,-93.5"/>
<text text-anchor="middle" x="946.5" y="-100.5" font-family="Helvetica,sans-Serif" font-size="10.00">klyqa_ctl.general.general.task_name</text>
</a>
</g>
</g>
<!-- Node4&#45;&gt;Node5 -->
<g id="edge4" class="edge">
<title>Node4&#45;&gt;Node5</title>
<path fill="none" stroke="midnightblue" d="M812.02,-103C820.5,-103 829.15,-103 837.76,-103"/>
<polygon fill="midnightblue" stroke="midnightblue" points="837.83,-106.5 847.83,-103 837.83,-99.5 837.83,-106.5"/>
</g>
</g>
</svg>
