<?xml version="1.0" encoding="UTF-8" standalone="no"?>
<!DOCTYPE svg PUBLIC "-//W3C//DTD SVG 1.1//EN"
 "http://www.w3.org/Graphics/SVG/1.1/DTD/svg11.dtd">
<!-- Generated by graphviz version 2.43.0 (0)
 -->
<!-- Title: klyqa_ctl.devices.light.response_status.ResponseStatus.mode Pages: 1 -->
<svg width="390pt" height="39pt"
 viewBox="0.00 0.00 390.00 39.00" xmlns="http://www.w3.org/2000/svg" xmlns:xlink="http://www.w3.org/1999/xlink">
<g id="graph0" class="graph" transform="scale(1 1) rotate(0) translate(4 35)">
<title>klyqa_ctl.devices.light.response_status.ResponseStatus.mode</title>
<polygon fill="white" stroke="transparent" points="-4,4 -4,-35 386,-35 386,4 -4,4"/>
<!-- Node1 -->
<g id="node1" class="node">
<title>Node1</title>
<g id="a_node1"><a xlink:title=" ">
<polygon fill="#bfbfbf" stroke="black" points="209,-0.5 209,-30.5 382,-30.5 382,-0.5 209,-0.5"/>
<text text-anchor="start" x="217" y="-18.5" font-family="Helvetica,sans-Serif" font-size="10.00">klyqa_ctl.devices.light.response</text>
<text text-anchor="middle" x="295.5" y="-7.5" font-family="Helvetica,sans-Serif" font-size="10.00">_status.ResponseStatus.mode</text>
</a>
</g>
</g>
<!-- Node2 -->
<g id="node2" class="node">
<title>Node2</title>
<g id="a_node2"><a xlink:href="classklyqa__ctl_1_1devices_1_1light_1_1response__status_1_1ResponseStatus.html#ae04a37be5b5854d78126d2ce5f093e66" target="_top" xlink:title=" ">
<polygon fill="white" stroke="black" points="0,-0.5 0,-30.5 173,-30.5 173,-0.5 0,-0.5"/>
<text text-anchor="start" x="8" y="-18.5" font-family="Helvetica,sans-Serif" font-size="10.00">klyqa_ctl.devices.light.response</text>
<text text-anchor="middle" x="86.5" y="-7.5" font-family="Helvetica,sans-Serif" font-size="10.00">_status.ResponseStatus.mode</text>
</a>
</g>
</g>
<!-- Node1&#45;&gt;Node2 -->
<g id="edge1" class="edge">
<title>Node1&#45;&gt;Node2</title>
<path fill="none" stroke="midnightblue" d="M198.8,-15.5C190.24,-15.5 181.6,-15.5 173.12,-15.5"/>
<polygon fill="midnightblue" stroke="midnightblue" points="198.81,-19 208.81,-15.5 198.81,-12 198.81,-19"/>
</g>
</g>
</svg>
