<?xml version="1.0" encoding="UTF-8" standalone="no"?>
<!DOCTYPE svg PUBLIC "-//W3C//DTD SVG 1.1//EN"
 "http://www.w3.org/Graphics/SVG/1.1/DTD/svg11.dtd">
<!-- Generated by graphviz version 2.43.0 (0)
 -->
<!-- Title: klyqa_ctl.devices.device.Device.u_id Pages: 1 -->
<svg width="500pt" height="88pt"
 viewBox="0.00 0.00 500.00 88.00" xmlns="http://www.w3.org/2000/svg" xmlns:xlink="http://www.w3.org/1999/xlink">
<g id="graph0" class="graph" transform="scale(1 1) rotate(0) translate(4 84)">
<title>klyqa_ctl.devices.device.Device.u_id</title>
<polygon fill="white" stroke="transparent" points="-4,4 -4,-84 496,-84 496,4 -4,4"/>
<!-- Node1 -->
<g id="node1" class="node">
<title>Node1</title>
<g id="a_node1"><a xlink:title=" ">
<polygon fill="#bfbfbf" stroke="black" points="352,-24.5 352,-54.5 492,-54.5 492,-24.5 352,-24.5"/>
<text text-anchor="start" x="360" y="-42.5" font-family="Helvetica,sans-Serif" font-size="10.00">klyqa_ctl.devices.device.</text>
<text text-anchor="middle" x="422" y="-31.5" font-family="Helvetica,sans-Serif" font-size="10.00">Device.u_id</text>
</a>
</g>
</g>
<!-- Node2 -->
<g id="node2" class="node">
<title>Node2</title>
<g id="a_node2"><a xlink:href="classklyqa__ctl_1_1devices_1_1device_1_1Device.html#a7230c178c35cdd93a7242b150008b822" target="_top" xlink:title=" ">
<polygon fill="white" stroke="black" points="176,-49.5 176,-79.5 316,-79.5 316,-49.5 176,-49.5"/>
<text text-anchor="start" x="184" y="-67.5" font-family="Helvetica,sans-Serif" font-size="10.00">klyqa_ctl.devices.device.</text>
<text text-anchor="middle" x="246" y="-56.5" font-family="Helvetica,sans-Serif" font-size="10.00">Device.get_name</text>
</a>
</g>
</g>
<!-- Node1&#45;&gt;Node2 -->
<g id="edge1" class="edge">
<title>Node1&#45;&gt;Node2</title>
<path fill="none" stroke="midnightblue" d="M341.97,-50.86C333.38,-52.09 324.68,-53.34 316.22,-54.55"/>
<polygon fill="midnightblue" stroke="midnightblue" points="342.58,-54.3 351.98,-49.42 341.58,-47.37 342.58,-54.3"/>
</g>
<!-- Node3 -->
<g id="node3" class="node">
<title>Node3</title>
<g id="a_node3"><a xlink:href="classklyqa__ctl_1_1devices_1_1device_1_1Device.html#ad36a9e20a1af6d562671110c85edf319" target="_top" xlink:title=" ">
<polygon fill="white" stroke="black" points="176,-0.5 176,-30.5 316,-30.5 316,-0.5 176,-0.5"/>
<text text-anchor="start" x="184" y="-18.5" font-family="Helvetica,sans-Serif" font-size="10.00">klyqa_ctl.devices.device.</text>
<text text-anchor="middle" x="246" y="-7.5" font-family="Helvetica,sans-Serif" font-size="10.00">Device.send_msg</text>
</a>
</g>
</g>
<!-- Node1&#45;&gt;Node3 -->
<g id="edge2" class="edge">
<title>Node1&#45;&gt;Node3</title>
<path fill="none" stroke="midnightblue" d="M341.97,-28.6C333.38,-27.41 324.68,-26.21 316.22,-25.05"/>
<polygon fill="midnightblue" stroke="midnightblue" points="341.6,-32.08 351.98,-29.98 342.55,-25.15 341.6,-32.08"/>
</g>
<!-- Node4 -->
<g id="node4" class="node">
<title>Node4</title>
<g id="a_node4"><a xlink:href="classklyqa__ctl_1_1devices_1_1device_1_1Device.html#ae1cc52edd0ae4a6c870314953abde498" target="_top" xlink:title=" ">
<polygon fill="white" stroke="black" points="0,-0.5 0,-30.5 140,-30.5 140,-0.5 0,-0.5"/>
<text text-anchor="start" x="8" y="-18.5" font-family="Helvetica,sans-Serif" font-size="10.00">klyqa_ctl.devices.device.</text>
<text text-anchor="middle" x="70" y="-7.5" font-family="Helvetica,sans-Serif" font-size="10.00">Device.send_msg_local</text>
</a>
</g>
</g>
<!-- Node3&#45;&gt;Node4 -->
<g id="edge3" class="edge">
<title>Node3&#45;&gt;Node4</title>
<path fill="none" stroke="midnightblue" d="M165.97,-15.5C157.38,-15.5 148.68,-15.5 140.22,-15.5"/>
<polygon fill="midnightblue" stroke="midnightblue" points="165.98,-19 175.98,-15.5 165.98,-12 165.98,-19"/>
</g>
</g>
</svg>
