<?xml version="1.0" encoding="UTF-8" standalone="no"?>
<!DOCTYPE svg PUBLIC "-//W3C//DTD SVG 1.1//EN"
 "http://www.w3.org/Graphics/SVG/1.1/DTD/svg11.dtd">
<!-- Generated by graphviz version 2.43.0 (0)
 -->
<!-- Title: local.connection_handler.LocalConnectionHandler.process_tcp_package Pages: 1 -->
<svg width="1105pt" height="436pt"
 viewBox="0.00 0.00 1105.00 436.07" xmlns="http://www.w3.org/2000/svg" xmlns:xlink="http://www.w3.org/1999/xlink">
<g id="graph0" class="graph" transform="scale(1 1) rotate(0) translate(4 432.07)">
<title>local.connection_handler.LocalConnectionHandler.process_tcp_package</title>
<polygon fill="white" stroke="transparent" points="-4,4 -4,-432.07 1101,-432.07 1101,4 -4,4"/>
<!-- Node1 -->
<g id="node1" class="node">
<title>Node1</title>
<g id="a_node1"><a xlink:title=" ">
<polygon fill="#bfbfbf" stroke="black" points="0,-331 0,-372 175,-372 175,-331 0,-331"/>
<text text-anchor="start" x="8" y="-360" font-family="Helvetica,sans-Serif" font-size="10.00">local.connection_handler.</text>
<text text-anchor="start" x="8" y="-349" font-family="Helvetica,sans-Serif" font-size="10.00">LocalConnectionHandler.process</text>
<text text-anchor="middle" x="87.5" y="-338" font-family="Helvetica,sans-Serif" font-size="10.00">_tcp_package</text>
</a>
</g>
</g>
<!-- Node2 -->
<g id="node2" class="node">
<title>Node2</title>
<g id="a_node2"><a xlink:href="classlocal_1_1connection__handler_1_1LocalConnectionHandler.html#ad1b4bfaedd513acfccbf1b12e36d5469" target="_top" xlink:title=" ">
<polygon fill="white" stroke="black" points="211,-361 211,-402 386,-402 386,-361 211,-361"/>
<text text-anchor="start" x="219" y="-390" font-family="Helvetica,sans-Serif" font-size="10.00">local.connection_handler.</text>
<text text-anchor="start" x="219" y="-379" font-family="Helvetica,sans-Serif" font-size="10.00">LocalConnectionHandler.process</text>
<text text-anchor="middle" x="298.5" y="-368" font-family="Helvetica,sans-Serif" font-size="10.00">_aes_initial_vector_package</text>
</a>
</g>
</g>
<!-- Node1&#45;&gt;Node2 -->
<g id="edge1" class="edge">
<title>Node1&#45;&gt;Node2</title>
<path fill="none" stroke="midnightblue" d="M175.02,-363.92C183.49,-365.14 192.13,-366.38 200.7,-367.61"/>
<polygon fill="midnightblue" stroke="midnightblue" points="200.32,-371.09 210.71,-369.04 201.31,-364.16 200.32,-371.09"/>
</g>
<!-- Node3 -->
<g id="node3" class="node">
<title>Node3</title>
<g id="a_node3"><a xlink:href="namespaceklyqa__ctl_1_1general_1_1general.html#a9df3b50dfc0fcc7c8ec991bb9be9c5ba" target="_top" xlink:title=" ">
<polygon fill="white" stroke="black" points="679,-351 679,-370 864,-370 864,-351 679,-351"/>
<text text-anchor="middle" x="771.5" y="-358" font-family="Helvetica,sans-Serif" font-size="10.00">klyqa_ctl.general.general.task_log</text>
</a>
</g>
</g>
<!-- Node1&#45;&gt;Node3 -->
<g id="edge18" class="edge">
<title>Node1&#45;&gt;Node3</title>
<path fill="none" stroke="midnightblue" d="M120.25,-372.08C144.13,-386.28 178.24,-403.91 211,-411.5 401.5,-455.65 636.77,-399.37 729.85,-372.88"/>
<polygon fill="midnightblue" stroke="midnightblue" points="731.07,-376.17 739.71,-370.04 729.13,-369.45 731.07,-376.17"/>
</g>
<!-- Node6 -->
<g id="node6" class="node">
<title>Node6</title>
<g id="a_node6"><a xlink:href="classlocal_1_1connection__handler_1_1LocalConnectionHandler.html#a4ce11db96280d000941a91cb37df2842" target="_top" xlink:title=" ">
<polygon fill="white" stroke="black" points="211,-176 211,-217 386,-217 386,-176 211,-176"/>
<text text-anchor="start" x="219" y="-205" font-family="Helvetica,sans-Serif" font-size="10.00">local.connection_handler.</text>
<text text-anchor="start" x="219" y="-194" font-family="Helvetica,sans-Serif" font-size="10.00">LocalConnectionHandler.process</text>
<text text-anchor="middle" x="298.5" y="-183" font-family="Helvetica,sans-Serif" font-size="10.00">_device_identity_package</text>
</a>
</g>
</g>
<!-- Node1&#45;&gt;Node6 -->
<g id="edge6" class="edge">
<title>Node1&#45;&gt;Node6</title>
<path fill="none" stroke="midnightblue" d="M116.25,-330.92C153.65,-303.18 220.28,-253.77 261.49,-223.2"/>
<polygon fill="midnightblue" stroke="midnightblue" points="263.68,-225.94 269.63,-217.17 259.51,-220.31 263.68,-225.94"/>
</g>
<!-- Node13 -->
<g id="node13" class="node">
<title>Node13</title>
<g id="a_node13"><a xlink:href="classlocal_1_1connection__handler_1_1LocalConnectionHandler.html#a46f68728bc59f0e5991bc390f67f2685" target="_top" xlink:title=" ">
<polygon fill="white" stroke="black" points="211,-301 211,-342 386,-342 386,-301 211,-301"/>
<text text-anchor="start" x="219" y="-330" font-family="Helvetica,sans-Serif" font-size="10.00">local.connection_handler.</text>
<text text-anchor="start" x="219" y="-319" font-family="Helvetica,sans-Serif" font-size="10.00">LocalConnectionHandler.process</text>
<text text-anchor="middle" x="298.5" y="-308" font-family="Helvetica,sans-Serif" font-size="10.00">_message_answer_package</text>
</a>
</g>
</g>
<!-- Node1&#45;&gt;Node13 -->
<g id="edge15" class="edge">
<title>Node1&#45;&gt;Node13</title>
<path fill="none" stroke="midnightblue" d="M175.02,-339.08C183.49,-337.86 192.13,-336.62 200.7,-335.39"/>
<polygon fill="midnightblue" stroke="midnightblue" points="201.31,-338.84 210.71,-333.96 200.32,-331.91 201.31,-338.84"/>
</g>
<!-- Node2&#45;&gt;Node3 -->
<g id="edge2" class="edge">
<title>Node2&#45;&gt;Node3</title>
<path fill="none" stroke="midnightblue" d="M386.06,-381.86C455.57,-381.64 555.65,-380.17 643,-374.5 656.19,-373.64 670.12,-372.43 683.74,-371.07"/>
<polygon fill="midnightblue" stroke="midnightblue" points="684.48,-374.52 694.07,-370.01 683.77,-367.55 684.48,-374.52"/>
</g>
<!-- Node5 -->
<g id="node5" class="node">
<title>Node5</title>
<g id="a_node5"><a xlink:href="namespaceklyqa__ctl_1_1general_1_1general.html#a1afe30a73cc28a3b65babeeab27e36c8" target="_top" xlink:title=" ">
<polygon fill="white" stroke="black" points="450.5,-301.5 450.5,-331.5 614.5,-331.5 614.5,-301.5 450.5,-301.5"/>
<text text-anchor="start" x="458.5" y="-319.5" font-family="Helvetica,sans-Serif" font-size="10.00">klyqa_ctl.general.general.task</text>
<text text-anchor="middle" x="532.5" y="-308.5" font-family="Helvetica,sans-Serif" font-size="10.00">_log_debug</text>
</a>
</g>
</g>
<!-- Node2&#45;&gt;Node5 -->
<g id="edge4" class="edge">
<title>Node2&#45;&gt;Node5</title>
<path fill="none" stroke="midnightblue" d="M372.91,-360.93C403.44,-352.38 438.54,-342.54 467.95,-334.3"/>
<polygon fill="midnightblue" stroke="midnightblue" points="469.01,-337.64 477.69,-331.58 467.12,-330.9 469.01,-337.64"/>
</g>
<!-- Node4 -->
<g id="node4" class="node">
<title>Node4</title>
<g id="a_node4"><a xlink:href="namespaceklyqa__ctl_1_1general_1_1general.html#aea905150cafee39fa2ca211f1e60f012" target="_top" xlink:title=" ">
<polygon fill="white" stroke="black" points="900,-351 900,-370 1097,-370 1097,-351 900,-351"/>
<text text-anchor="middle" x="998.5" y="-358" font-family="Helvetica,sans-Serif" font-size="10.00">klyqa_ctl.general.general.task_name</text>
</a>
</g>
</g>
<!-- Node3&#45;&gt;Node4 -->
<g id="edge3" class="edge">
<title>Node3&#45;&gt;Node4</title>
<path fill="none" stroke="midnightblue" d="M864.02,-360.5C872.5,-360.5 881.15,-360.5 889.76,-360.5"/>
<polygon fill="midnightblue" stroke="midnightblue" points="889.83,-364 899.83,-360.5 889.83,-357 889.83,-364"/>
</g>
<!-- Node5&#45;&gt;Node3 -->
<g id="edge5" class="edge">
<title>Node5&#45;&gt;Node3</title>
<path fill="none" stroke="midnightblue" d="M614.4,-331.52C645.47,-337.29 680.38,-343.77 709.3,-349.14"/>
<polygon fill="midnightblue" stroke="midnightblue" points="708.79,-352.6 719.26,-350.99 710.07,-345.72 708.79,-352.6"/>
</g>
<!-- Node6&#45;&gt;Node3 -->
<g id="edge13" class="edge">
<title>Node6&#45;&gt;Node3</title>
<path fill="none" stroke="midnightblue" d="M337.09,-217.12C360.82,-229.34 392.47,-244.2 422,-253.5 517.13,-283.46 548.72,-259.96 643,-292.5 681.69,-305.85 722.85,-329.81 747.62,-345.42"/>
<polygon fill="midnightblue" stroke="midnightblue" points="745.96,-348.52 756.27,-350.96 749.74,-342.62 745.96,-348.52"/>
</g>
<!-- Node6&#45;&gt;Node5 -->
<g id="edge14" class="edge">
<title>Node6&#45;&gt;Node5</title>
<path fill="none" stroke="midnightblue" d="M322.22,-217.22C345.64,-237.55 383.99,-268.11 422,-286.5 431.35,-291.02 441.48,-294.95 451.68,-298.34"/>
<polygon fill="midnightblue" stroke="midnightblue" points="450.88,-301.76 461.47,-301.43 452.98,-295.08 450.88,-301.76"/>
</g>
<!-- Node7 -->
<g id="node7" class="node">
<title>Node7</title>
<g id="a_node7"><a xlink:href="classklyqa__ctl_1_1account_1_1Account.html#a7bcb9ac9804621630ea08a688abecd18" target="_top" xlink:title=" ">
<polygon fill="white" stroke="black" points="422,-225 422,-244 643,-244 643,-225 422,-225"/>
<text text-anchor="middle" x="532.5" y="-232" font-family="Helvetica,sans-Serif" font-size="10.00">klyqa_ctl.account.Account.controller_data</text>
</a>
</g>
</g>
<!-- Node6&#45;&gt;Node7 -->
<g id="edge7" class="edge">
<title>Node6&#45;&gt;Node7</title>
<path fill="none" stroke="midnightblue" d="M386.22,-210.7C411.67,-214.87 439.13,-219.37 463.26,-223.32"/>
<polygon fill="midnightblue" stroke="midnightblue" points="462.94,-226.82 473.38,-224.98 464.07,-219.91 462.94,-226.82"/>
</g>
<!-- Node8 -->
<g id="node8" class="node">
<title>Node8</title>
<g id="a_node8"><a xlink:href="classcloud_1_1CloudBackend.html#aef174fe1ba95fff13c7901ff56354ec9" target="_top" xlink:title=" ">
<polygon fill="white" stroke="black" points="437,-187 437,-206 628,-206 628,-187 437,-187"/>
<text text-anchor="middle" x="532.5" y="-194" font-family="Helvetica,sans-Serif" font-size="10.00">cloud.CloudBackend.controller_data</text>
</a>
</g>
</g>
<!-- Node6&#45;&gt;Node8 -->
<g id="edge8" class="edge">
<title>Node6&#45;&gt;Node8</title>
<path fill="none" stroke="midnightblue" d="M386.22,-196.5C399.35,-196.5 413.01,-196.5 426.47,-196.5"/>
<polygon fill="midnightblue" stroke="midnightblue" points="426.72,-200 436.72,-196.5 426.72,-193 426.72,-200"/>
</g>
<!-- Node9 -->
<g id="node9" class="node">
<title>Node9</title>
<g id="a_node9"><a xlink:href="classlocal_1_1connection__handler_1_1LocalConnectionHandler.html#a8f938ae53b3c24bbdc02f377671cf263" target="_top" xlink:title=" ">
<polygon fill="white" stroke="black" points="427,-137.5 427,-167.5 638,-167.5 638,-137.5 427,-137.5"/>
<text text-anchor="start" x="435" y="-155.5" font-family="Helvetica,sans-Serif" font-size="10.00">local.connection_handler.</text>
<text text-anchor="middle" x="532.5" y="-144.5" font-family="Helvetica,sans-Serif" font-size="10.00">LocalConnectionHandler.controller_data</text>
</a>
</g>
</g>
<!-- Node6&#45;&gt;Node9 -->
<g id="edge9" class="edge">
<title>Node6&#45;&gt;Node9</title>
<path fill="none" stroke="midnightblue" d="M386.22,-180.05C404.55,-176.58 423.92,-172.9 442.34,-169.41"/>
<polygon fill="midnightblue" stroke="midnightblue" points="442.99,-172.85 452.16,-167.55 441.68,-165.97 442.99,-172.85"/>
</g>
<!-- Node10 -->
<g id="node10" class="node">
<title>Node10</title>
<g id="a_node10"><a xlink:href="classklyqa__ctl_1_1account_1_1Account.html#a2265c38daf6829c96c852ad4a288b42d" target="_top" xlink:title=" ">
<polygon fill="white" stroke="black" points="440,-99 440,-118 625,-118 625,-99 440,-99"/>
<text text-anchor="middle" x="532.5" y="-106" font-family="Helvetica,sans-Serif" font-size="10.00">klyqa_ctl.account.Account.devices</text>
</a>
</g>
</g>
<!-- Node6&#45;&gt;Node10 -->
<g id="edge10" class="edge">
<title>Node6&#45;&gt;Node10</title>
<path fill="none" stroke="midnightblue" d="M329.32,-175.86C353.31,-160.22 388.43,-139.46 422,-127.5 429.84,-124.71 438.14,-122.31 446.53,-120.27"/>
<polygon fill="midnightblue" stroke="midnightblue" points="447.43,-123.66 456.4,-118.02 445.87,-116.83 447.43,-123.66"/>
</g>
<!-- Node11 -->
<g id="node11" class="node">
<title>Node11</title>
<g id="a_node11"><a xlink:href="classlocal_1_1connection__handler_1_1LocalConnectionHandler.html#a4d307f6bd0b66f3cb9fac3057fc87972" target="_top" xlink:title=" ">
<polygon fill="white" stroke="black" points="445,-49.5 445,-79.5 620,-79.5 620,-49.5 445,-49.5"/>
<text text-anchor="start" x="453" y="-67.5" font-family="Helvetica,sans-Serif" font-size="10.00">local.connection_handler.</text>
<text text-anchor="middle" x="532.5" y="-56.5" font-family="Helvetica,sans-Serif" font-size="10.00">LocalConnectionHandler.devices</text>
</a>
</g>
</g>
<!-- Node6&#45;&gt;Node11 -->
<g id="edge11" class="edge">
<title>Node6&#45;&gt;Node11</title>
<path fill="none" stroke="midnightblue" d="M317.2,-175.77C339.24,-151.33 379.23,-111.29 422,-89.5 426.66,-87.13 431.54,-84.98 436.55,-83.03"/>
<polygon fill="midnightblue" stroke="midnightblue" points="438.09,-86.2 446.32,-79.52 435.73,-79.61 438.09,-86.2"/>
</g>
<!-- Node12 -->
<g id="node12" class="node">
<title>Node12</title>
<g id="a_node12"><a xlink:href="classklyqa__ctl_1_1controller__data_1_1ControllerData.html#adf7af423388a9a883c428cf71e217650" target="_top" xlink:title=" ">
<polygon fill="white" stroke="black" points="453.5,-0.5 453.5,-30.5 611.5,-30.5 611.5,-0.5 453.5,-0.5"/>
<text text-anchor="start" x="461.5" y="-18.5" font-family="Helvetica,sans-Serif" font-size="10.00">klyqa_ctl.controller</text>
<text text-anchor="middle" x="532.5" y="-7.5" font-family="Helvetica,sans-Serif" font-size="10.00">_data.ControllerData.devices</text>
</a>
</g>
</g>
<!-- Node6&#45;&gt;Node12 -->
<g id="edge12" class="edge">
<title>Node6&#45;&gt;Node12</title>
<path fill="none" stroke="midnightblue" d="M309.48,-175.94C327.15,-141.84 367.29,-73.95 422,-39.5 428.79,-35.22 436.23,-31.7 443.95,-28.8"/>
<polygon fill="midnightblue" stroke="midnightblue" points="445.12,-32.1 453.46,-25.57 442.86,-25.48 445.12,-32.1"/>
</g>
<!-- Node13&#45;&gt;Node3 -->
<g id="edge16" class="edge">
<title>Node13&#45;&gt;Node3</title>
<path fill="none" stroke="midnightblue" d="M386.01,-336.81C398.07,-338.6 410.32,-340.23 422,-341.5 504.82,-350.49 599.2,-355.31 668.84,-357.84"/>
<polygon fill="midnightblue" stroke="midnightblue" points="668.81,-361.34 678.93,-358.19 669.06,-354.34 668.81,-361.34"/>
</g>
<!-- Node13&#45;&gt;Node5 -->
<g id="edge17" class="edge">
<title>Node13&#45;&gt;Node5</title>
<path fill="none" stroke="midnightblue" d="M386.22,-319.63C403.76,-319.25 422.25,-318.85 439.94,-318.47"/>
<polygon fill="midnightblue" stroke="midnightblue" points="440.34,-321.97 450.26,-318.25 440.19,-314.97 440.34,-321.97"/>
</g>
</g>
</svg>
