<?xml version="1.0" encoding="UTF-8" standalone="no"?>
<!DOCTYPE svg PUBLIC "-//W3C//DTD SVG 1.1//EN"
 "http://www.w3.org/Graphics/SVG/1.1/DTD/svg11.dtd">
<!-- Generated by graphviz version 2.43.0 (0)
 -->
<!-- Title: local.connection_handler.LocalConnectionHandler.controller_data Pages: 1 -->
<!--zoomable 373 -->
<svg id="main" version="1.1" xmlns="http://www.w3.org/2000/svg" xmlns:xlink="http://www.w3.org/1999/xlink" xml:space="preserve" onload="init(evt)">
<style type="text/css"><![CDATA[
.edge:hover path { stroke: red; }
.edge:hover polygon { stroke: red; fill: red; }
]]></style>
<script type="text/javascript"><![CDATA[
var edges = document.getElementsByTagName('g');
if (edges && edges.length) {
  for (var i=0;i<edges.length;i++) {
    if (edges[i].id.substr(0,4)=='edge') {
      edges[i].setAttribute('class','edge');
    }
  }
}
]]></script>
        <defs>
                <circle id="rim" cx="0" cy="0" r="7"/>
                <circle id="rim2" cx="0" cy="0" r="3.5"/>
                <g id="zoomPlus">
                        <use xlink:href="#rim" fill="#404040">
                                <set attributeName="fill" to="#808080" begin="zoomplus.mouseover" end="zoomplus.mouseout"/>
                        </use>
                        <path d="M-4,0h8M0,-4v8" fill="none" stroke="white" stroke-width="1.5" pointer-events="none"/>
                </g>
                <g id="zoomMin">
                        <use xlink:href="#rim" fill="#404040">
                                <set attributeName="fill" to="#808080" begin="zoomminus.mouseover" end="zoomminus.mouseout"/>
                        </use>
                        <path d="M-4,0h8" fill="none" stroke="white" stroke-width="1.5" pointer-events="none"/>
                </g>
                <g id="dirArrow">
                        <path fill="none" stroke="white" stroke-width="1.5" d="M0,-3.0v7 M-2.5,-0.5L0,-3.0L2.5,-0.5"/>
                </g>
               <g id="resetDef">
                       <use xlink:href="#rim2" fill="#404040">
                               <set attributeName="fill" to="#808080" begin="reset.mouseover" end="reset.mouseout"/>
                       </use>
               </g>
        </defs>

<script type="text/javascript">
var viewWidth = 1277;
var viewHeight = 373;
var sectionId = 'dynsection-13';
</script>
<script xlink:href="svgpan.js"/>
<svg id="graph" class="graph">
<g id="viewport">
<title>local.connection_handler.LocalConnectionHandler.controller_data</title>
<polygon fill="white" stroke="transparent" points="-4,4 -4,-369 1273,-369 1273,4 -4,4"/>
<!-- Node1 -->
<g id="node1" class="node">
<title>Node1</title>
<g id="a_node1"><a xlink:title=" ">
<polygon fill="#bfbfbf" stroke="black" points="1058,-175.5 1058,-205.5 1269,-205.5 1269,-175.5 1058,-175.5"/>
<text text-anchor="start" x="1066" y="-193.5" font-family="Helvetica,sans-Serif" font-size="10.00">local.connection_handler.</text>
<text text-anchor="middle" x="1163.5" y="-182.5" font-family="Helvetica,sans-Serif" font-size="10.00">LocalConnectionHandler.controller_data</text>
</a>
</g>
</g>
<!-- Node2 -->
<g id="node2" class="node">
<title>Node2</title>
<g id="a_node2"><a xlink:href="classklyqa__ctl_1_1local__controller_1_1LocalController.html#ad820bb0d181aeb158a3177323ee35cdf" target="_top" xlink:title=" ">
<polygon fill="white" stroke="black" points="861,-334.5 861,-364.5 1002,-364.5 1002,-334.5 861,-334.5"/>
<text text-anchor="start" x="869" y="-352.5" font-family="Helvetica,sans-Serif" font-size="10.00">klyqa_ctl.local_controller.</text>
<text text-anchor="middle" x="931.5" y="-341.5" font-family="Helvetica,sans-Serif" font-size="10.00">LocalController.__init__</text>
</a>
</g>
</g>
<!-- Node1&#45;&gt;Node2 -->
<g id="edge1" class="edge">
<title>Node1&#45;&gt;Node2</title>
<path fill="none" stroke="midnightblue" d="M1144.43,-213.71C1119.88,-243.67 1073.16,-295.41 1022,-324.5 1015.27,-328.33 1007.91,-331.6 1000.41,-334.39"/>
<polygon fill="midnightblue" stroke="midnightblue" points="1147.2,-215.86 1150.75,-205.87 1141.75,-211.46 1147.2,-215.86"/>
</g>
<!-- Node3 -->
<g id="node3" class="node">
<title>Node3</title>
<g id="a_node3"><a xlink:href="classcloud_1_1CloudBackend.html#a55182bd23ebf03d54d1754fffe7ca101" target="_top" xlink:title=" ">
<polygon fill="white" stroke="black" points="845,-296 845,-315 1018,-315 1018,-296 845,-296"/>
<text text-anchor="middle" x="931.5" y="-303" font-family="Helvetica,sans-Serif" font-size="10.00">cloud.CloudBackend.cloud_send</text>
</a>
</g>
</g>
<!-- Node1&#45;&gt;Node3 -->
<g id="edge2" class="edge">
<title>Node1&#45;&gt;Node3</title>
<path fill="none" stroke="midnightblue" d="M1137.49,-212.12C1110.7,-234.14 1066.06,-267.65 1022,-286.5 1012.95,-290.37 1003.03,-293.49 993.19,-295.98"/>
<polygon fill="midnightblue" stroke="midnightblue" points="1139.77,-214.78 1145.21,-205.68 1135.29,-209.4 1139.77,-214.78"/>
</g>
<!-- Node4 -->
<g id="node4" class="node">
<title>Node4</title>
<g id="a_node4"><a xlink:href="classcloud_1_1CloudBackend.html#a566850b368080b6ff85ee2675aa9b3e2" target="_top" xlink:title=" ">
<polygon fill="white" stroke="black" points="864.5,-246.5 864.5,-276.5 998.5,-276.5 998.5,-246.5 864.5,-246.5"/>
<text text-anchor="start" x="872.5" y="-264.5" font-family="Helvetica,sans-Serif" font-size="10.00">cloud.CloudBackend.get</text>
<text text-anchor="middle" x="931.5" y="-253.5" font-family="Helvetica,sans-Serif" font-size="10.00">_device_configs</text>
</a>
</g>
</g>
<!-- Node1&#45;&gt;Node4 -->
<g id="edge3" class="edge">
<title>Node1&#45;&gt;Node4</title>
<path fill="none" stroke="midnightblue" d="M1109.92,-208.93C1083.63,-217.93 1051.26,-228.69 1022,-237.5 1011.99,-240.51 1001.29,-243.54 990.9,-246.39"/>
<polygon fill="midnightblue" stroke="midnightblue" points="1111.35,-212.14 1119.67,-205.58 1109.08,-205.52 1111.35,-212.14"/>
</g>
<!-- Node5 -->
<g id="node5" class="node">
<title>Node5</title>
<g id="a_node5"><a xlink:href="classklyqa__ctl_1_1account_1_1Account.html#adad4d644a9bbb3633405dac89e86edd3" target="_top" xlink:title=" ">
<polygon fill="white" stroke="black" points="850,-197.5 850,-227.5 1013,-227.5 1013,-197.5 850,-197.5"/>
<text text-anchor="start" x="858" y="-215.5" font-family="Helvetica,sans-Serif" font-size="10.00">klyqa_ctl.account.Account.get</text>
<text text-anchor="middle" x="931.5" y="-204.5" font-family="Helvetica,sans-Serif" font-size="10.00">_or_create_device</text>
</a>
</g>
</g>
<!-- Node1&#45;&gt;Node5 -->
<g id="edge4" class="edge">
<title>Node1&#45;&gt;Node5</title>
<path fill="none" stroke="midnightblue" d="M1047.66,-201.48C1035.96,-202.6 1024.26,-203.72 1013.04,-204.8"/>
<polygon fill="midnightblue" stroke="midnightblue" points="1048.31,-204.94 1057.93,-200.5 1047.64,-197.97 1048.31,-204.94"/>
</g>
<!-- Node6 -->
<g id="node6" class="node">
<title>Node6</title>
<g id="a_node6"><a xlink:href="classklyqa__ctl_1_1account_1_1Account.html#a8e93f6fe918bf32c172447d4ef439d2d" target="_top" xlink:title=" ">
<polygon fill="white" stroke="black" points="627,-178.5 627,-208.5 797,-208.5 797,-178.5 627,-178.5"/>
<text text-anchor="start" x="635" y="-196.5" font-family="Helvetica,sans-Serif" font-size="10.00">klyqa_ctl.account.Account.sync</text>
<text text-anchor="middle" x="712" y="-185.5" font-family="Helvetica,sans-Serif" font-size="10.00">_acc_settings_to_controller</text>
</a>
</g>
</g>
<!-- Node1&#45;&gt;Node6 -->
<g id="edge14" class="edge">
<title>Node1&#45;&gt;Node6</title>
<path fill="none" stroke="midnightblue" d="M1047.78,-188.35C986.43,-187.57 909.59,-187.16 841,-188.5 826.88,-188.78 811.89,-189.22 797.33,-189.74"/>
<polygon fill="midnightblue" stroke="midnightblue" points="1047.83,-191.86 1057.88,-188.49 1047.93,-184.86 1047.83,-191.86"/>
</g>
<!-- Node7 -->
<g id="node7" class="node">
<title>Node7</title>
<g id="a_node7"><a xlink:href="classlocal_1_1connection__handler_1_1LocalConnectionHandler.html#a4ce11db96280d000941a91cb37df2842" target="_top" xlink:title=" ">
<polygon fill="white" stroke="black" points="844,-99 844,-140 1019,-140 1019,-99 844,-99"/>
<text text-anchor="start" x="852" y="-128" font-family="Helvetica,sans-Serif" font-size="10.00">local.connection_handler.</text>
<text text-anchor="start" x="852" y="-117" font-family="Helvetica,sans-Serif" font-size="10.00">LocalConnectionHandler.process</text>
<text text-anchor="middle" x="931.5" y="-106" font-family="Helvetica,sans-Serif" font-size="10.00">_device_identity_package</text>
</a>
</g>
</g>
<!-- Node1&#45;&gt;Node7 -->
<g id="edge6" class="edge">
<title>Node1&#45;&gt;Node7</title>
<path fill="none" stroke="midnightblue" d="M1104.06,-172.46C1072.06,-162.58 1032.29,-150.3 999.09,-140.06"/>
<polygon fill="midnightblue" stroke="midnightblue" points="1103.14,-175.84 1113.72,-175.44 1105.2,-169.15 1103.14,-175.84"/>
</g>
<!-- Node12 -->
<g id="node12" class="node">
<title>Node12</title>
<g id="a_node12"><a xlink:href="classklyqa__ctl_1_1account_1_1Account.html#a5ab3a2f4382c4437255871d4296cee9a" target="_top" xlink:title=" ">
<polygon fill="white" stroke="black" points="850,-49.5 850,-79.5 1013,-79.5 1013,-49.5 850,-49.5"/>
<text text-anchor="start" x="858" y="-67.5" font-family="Helvetica,sans-Serif" font-size="10.00">klyqa_ctl.account.Account.run</text>
<text text-anchor="middle" x="931.5" y="-56.5" font-family="Helvetica,sans-Serif" font-size="10.00">_password_prompt</text>
</a>
</g>
</g>
<!-- Node1&#45;&gt;Node12 -->
<g id="edge11" class="edge">
<title>Node1&#45;&gt;Node12</title>
<path fill="none" stroke="midnightblue" d="M1137.88,-168.64C1111.1,-145.91 1066.17,-110.72 1022,-89.5 1014.15,-85.73 1005.63,-82.43 997.07,-79.59"/>
<polygon fill="midnightblue" stroke="midnightblue" points="1135.73,-171.41 1145.59,-175.27 1140.29,-166.1 1135.73,-171.41"/>
</g>
<!-- Node15 -->
<g id="node15" class="node">
<title>Node15</title>
<g id="a_node15"><a xlink:href="classklyqa__ctl_1_1account_1_1Account.html#a4fb47c923d3a579054e8cc72480906fb" target="_top" xlink:title=" ">
<polygon fill="white" stroke="black" points="841,-0.5 841,-30.5 1022,-30.5 1022,-0.5 841,-0.5"/>
<text text-anchor="start" x="849" y="-18.5" font-family="Helvetica,sans-Serif" font-size="10.00">klyqa_ctl.account.Account.update</text>
<text text-anchor="middle" x="931.5" y="-7.5" font-family="Helvetica,sans-Serif" font-size="10.00">_device_configs</text>
</a>
</g>
</g>
<!-- Node1&#45;&gt;Node15 -->
<g id="edge15" class="edge">
<title>Node1&#45;&gt;Node15</title>
<path fill="none" stroke="midnightblue" d="M1146.98,-166.79C1123.81,-133.31 1076.97,-72.58 1022,-39.5 1016.35,-36.1 1010.21,-33.17 1003.89,-30.65"/>
<polygon fill="midnightblue" stroke="midnightblue" points="1144.36,-169.16 1152.87,-175.47 1150.15,-165.23 1144.36,-169.16"/>
</g>
<!-- Node5&#45;&gt;Node6 -->
<g id="edge5" class="edge">
<title>Node5&#45;&gt;Node6</title>
<path fill="none" stroke="midnightblue" d="M839.66,-204.56C825.59,-203.34 811.11,-202.07 797.19,-200.85"/>
<polygon fill="midnightblue" stroke="midnightblue" points="839.55,-208.07 849.82,-205.45 840.16,-201.1 839.55,-208.07"/>
</g>
<!-- Node8 -->
<g id="node8" class="node">
<title>Node8</title>
<g id="a_node8"><a xlink:href="classlocal_1_1connection__handler_1_1LocalConnectionHandler.html#aaa28266e241c2e30e8acd468fab06fde" target="_top" xlink:title=" ">
<polygon fill="white" stroke="black" points="624.5,-99 624.5,-140 799.5,-140 799.5,-99 624.5,-99"/>
<text text-anchor="start" x="632.5" y="-128" font-family="Helvetica,sans-Serif" font-size="10.00">local.connection_handler.</text>
<text text-anchor="start" x="632.5" y="-117" font-family="Helvetica,sans-Serif" font-size="10.00">LocalConnectionHandler.process</text>
<text text-anchor="middle" x="712" y="-106" font-family="Helvetica,sans-Serif" font-size="10.00">_tcp_package</text>
</a>
</g>
</g>
<!-- Node7&#45;&gt;Node8 -->
<g id="edge7" class="edge">
<title>Node7&#45;&gt;Node8</title>
<path fill="none" stroke="midnightblue" d="M833.59,-119.5C822.28,-119.5 810.8,-119.5 799.64,-119.5"/>
<polygon fill="midnightblue" stroke="midnightblue" points="833.91,-123 843.91,-119.5 833.91,-116 833.91,-123"/>
</g>
<!-- Node9 -->
<g id="node9" class="node">
<title>Node9</title>
<g id="a_node9"><a xlink:href="classlocal_1_1connection__handler_1_1LocalConnectionHandler.html#a900e05554022ee9ecb3ba5621369016d" target="_top" xlink:title=" ">
<polygon fill="white" stroke="black" points="412.5,-99 412.5,-140 582.5,-140 582.5,-99 412.5,-99"/>
<text text-anchor="start" x="420.5" y="-128" font-family="Helvetica,sans-Serif" font-size="10.00">local.connection_handler.</text>
<text text-anchor="start" x="420.5" y="-117" font-family="Helvetica,sans-Serif" font-size="10.00">LocalConnectionHandler.handle</text>
<text text-anchor="middle" x="497.5" y="-106" font-family="Helvetica,sans-Serif" font-size="10.00">_connection</text>
</a>
</g>
</g>
<!-- Node8&#45;&gt;Node9 -->
<g id="edge8" class="edge">
<title>Node8&#45;&gt;Node9</title>
<path fill="none" stroke="midnightblue" d="M614.19,-119.5C603.63,-119.5 592.95,-119.5 582.56,-119.5"/>
<polygon fill="midnightblue" stroke="midnightblue" points="614.26,-123 624.26,-119.5 614.26,-116 614.26,-123"/>
</g>
<!-- Node10 -->
<g id="node10" class="node">
<title>Node10</title>
<g id="a_node10"><a xlink:href="classlocal_1_1connection__handler_1_1LocalConnectionHandler.html#a0b582d0bf1523d1d0404867ab921539f" target="_top" xlink:title=" ">
<polygon fill="white" stroke="black" points="206,-99 206,-140 376,-140 376,-99 206,-99"/>
<text text-anchor="start" x="214" y="-128" font-family="Helvetica,sans-Serif" font-size="10.00">local.connection_handler.</text>
<text text-anchor="start" x="214" y="-117" font-family="Helvetica,sans-Serif" font-size="10.00">LocalConnectionHandler.device</text>
<text text-anchor="middle" x="291" y="-106" font-family="Helvetica,sans-Serif" font-size="10.00">_handle_local_tcp</text>
</a>
</g>
</g>
<!-- Node9&#45;&gt;Node10 -->
<g id="edge9" class="edge">
<title>Node9&#45;&gt;Node10</title>
<path fill="none" stroke="midnightblue" d="M402.24,-119.5C393.51,-119.5 384.7,-119.5 376.07,-119.5"/>
<polygon fill="midnightblue" stroke="midnightblue" points="402.44,-123 412.44,-119.5 402.44,-116 402.44,-123"/>
</g>
<!-- Node11 -->
<g id="node11" class="node">
<title>Node11</title>
<g id="a_node11"><a xlink:href="classlocal_1_1connection__handler_1_1LocalConnectionHandler.html#a5e9277acd0b7bfa5a1e74417e0e10d86" target="_top" xlink:title=" ">
<polygon fill="white" stroke="black" points="0,-99 0,-140 170,-140 170,-99 0,-99"/>
<text text-anchor="start" x="8" y="-128" font-family="Helvetica,sans-Serif" font-size="10.00">local.connection_handler.</text>
<text text-anchor="start" x="8" y="-117" font-family="Helvetica,sans-Serif" font-size="10.00">LocalConnectionHandler.handle</text>
<text text-anchor="middle" x="85" y="-106" font-family="Helvetica,sans-Serif" font-size="10.00">_incoming_tcp_connection</text>
</a>
</g>
</g>
<!-- Node10&#45;&gt;Node11 -->
<g id="edge10" class="edge">
<title>Node10&#45;&gt;Node11</title>
<path fill="none" stroke="midnightblue" d="M195.6,-119.5C187.15,-119.5 178.64,-119.5 170.29,-119.5"/>
<polygon fill="midnightblue" stroke="midnightblue" points="195.85,-123 205.85,-119.5 195.85,-116 195.85,-123"/>
</g>
<!-- Node13 -->
<g id="node13" class="node">
<title>Node13</title>
<g id="a_node13"><a xlink:href="classklyqa__ctl_1_1account_1_1Account.html#acbc09f2b1b4cb6b7ed771b96ea79613b" target="_top" xlink:title=" ">
<polygon fill="white" stroke="black" points="619,-49.5 619,-79.5 805,-79.5 805,-49.5 619,-49.5"/>
<text text-anchor="start" x="627" y="-67.5" font-family="Helvetica,sans-Serif" font-size="10.00">klyqa_ctl.account.Account.perform</text>
<text text-anchor="middle" x="712" y="-56.5" font-family="Helvetica,sans-Serif" font-size="10.00">_login</text>
</a>
</g>
</g>
<!-- Node12&#45;&gt;Node13 -->
<g id="edge12" class="edge">
<title>Node12&#45;&gt;Node13</title>
<path fill="none" stroke="midnightblue" d="M839.52,-64.5C828.2,-64.5 816.62,-64.5 805.28,-64.5"/>
<polygon fill="midnightblue" stroke="midnightblue" points="839.82,-68 849.82,-64.5 839.82,-61 839.82,-68"/>
</g>
<!-- Node14 -->
<g id="node14" class="node">
<title>Node14</title>
<g id="a_node14"><a xlink:href="classklyqa__ctl_1_1account_1_1Account.html#a0b171a600e4342d035ad26c39b384b38" target="_top" xlink:title=" ">
<polygon fill="white" stroke="black" points="412,-55 412,-74 583,-74 583,-55 412,-55"/>
<text text-anchor="middle" x="497.5" y="-62" font-family="Helvetica,sans-Serif" font-size="10.00">klyqa_ctl.account.Account.login</text>
</a>
</g>
</g>
<!-- Node13&#45;&gt;Node14 -->
<g id="edge13" class="edge">
<title>Node13&#45;&gt;Node14</title>
<path fill="none" stroke="midnightblue" d="M608.48,-64.5C600.06,-64.5 591.6,-64.5 583.33,-64.5"/>
<polygon fill="midnightblue" stroke="midnightblue" points="608.72,-68 618.72,-64.5 608.72,-61 608.72,-68"/>
</g>
</g>
</svg>
        <g id="navigator" transform="translate(0 0)" fill="#404254">
                <rect fill="#f2f5e9" fill-opacity="0.5" stroke="#606060" stroke-width=".5" x="0" y="0" width="60" height="60"/>
                <use id="zoomplus" xlink:href="#zoomPlus" x="17" y="9" onmousedown="handleZoom(evt,'in')"/>
                <use id="zoomminus" xlink:href="#zoomMin" x="42" y="9" onmousedown="handleZoom(evt,'out')"/>
                <use id="reset" xlink:href="#resetDef" x="30" y="36" onmousedown="handleReset()"/>
                <g id="arrowUp" xlink:href="#dirArrow" transform="translate(30 24)" onmousedown="handlePan(0,-1)">
                  <use xlink:href="#rim" fill="#404040">
                        <set attributeName="fill" to="#808080" begin="arrowUp.mouseover" end="arrowUp.mouseout"/>
                  </use>
                  <path fill="none" stroke="white" stroke-width="1.5" d="M0,-3.0v7 M-2.5,-0.5L0,-3.0L2.5,-0.5"/>
                </g>
                <g id="arrowRight" xlink:href="#dirArrow" transform="rotate(90) translate(36 -43)" onmousedown="handlePan(1,0)">
                  <use xlink:href="#rim" fill="#404040">
                        <set attributeName="fill" to="#808080" begin="arrowRight.mouseover" end="arrowRight.mouseout"/>
                  </use>
                  <path fill="none" stroke="white" stroke-width="1.5" d="M0,-3.0v7 M-2.5,-0.5L0,-3.0L2.5,-0.5"/>
                </g>
                <g id="arrowDown" xlink:href="#dirArrow" transform="rotate(180) translate(-30 -48)" onmousedown="handlePan(0,1)">
                  <use xlink:href="#rim" fill="#404040">
                        <set attributeName="fill" to="#808080" begin="arrowDown.mouseover" end="arrowDown.mouseout"/>
                  </use>
                  <path fill="none" stroke="white" stroke-width="1.5" d="M0,-3.0v7 M-2.5,-0.5L0,-3.0L2.5,-0.5"/>
                </g>
                <g id="arrowLeft" xlink:href="#dirArrow" transform="rotate(270) translate(-36 17)" onmousedown="handlePan(-1,0)">
                  <use xlink:href="#rim" fill="#404040">
                        <set attributeName="fill" to="#808080" begin="arrowLeft.mouseover" end="arrowLeft.mouseout"/>
                  </use>
                  <path fill="none" stroke="white" stroke-width="1.5" d="M0,-3.0v7 M-2.5,-0.5L0,-3.0L2.5,-0.5"/>
                </g>
        </g>
        <svg viewBox="0 0 15 15" width="100%" height="30px" preserveAspectRatio="xMaxYMin meet">
         <g id="arrow_out" transform="scale(0.3 0.3)">
          <a xlink:href="classlocal_1_1connection__handler_1_1LocalConnectionHandler_ac7312a0c1fbe8ad9bcbd585e66e9e74c_icgraph_org.svg" target="_base">
           <rect id="button" ry="5" rx="5" y="6" x="6" height="38" width="38"
                fill="#f2f5e9" fill-opacity="0.5" stroke="#606060" stroke-width="1.0"/>
           <path id="arrow"
             d="M 11.500037,31.436501 C 11.940474,20.09759 22.043105,11.32322 32.158766,21.979434 L 37.068811,17.246167 C 37.068811,17.246167 37.088388,32 37.088388,32 L 22.160133,31.978069 C 22.160133,31.978069 26.997745,27.140456 26.997745,27.140456 C 18.528582,18.264221 13.291696,25.230495 11.500037,31.436501 z"
             style="fill:#404040;"/>
          </a>
         </g>
        </svg>
</svg>
