<?xml version="1.0" encoding="UTF-8" standalone="no"?>
<!DOCTYPE svg PUBLIC "-//W3C//DTD SVG 1.1//EN"
 "http://www.w3.org/Graphics/SVG/1.1/DTD/svg11.dtd">
<!-- Generated by graphviz version 2.43.0 (0)
 -->
<!-- Title: cloud.CloudBackend.send Pages: 1 -->
<svg width="1260pt" height="240pt"
 viewBox="0.00 0.00 1260.00 239.50" xmlns="http://www.w3.org/2000/svg" xmlns:xlink="http://www.w3.org/1999/xlink">
<g id="graph0" class="graph" transform="scale(1 1) rotate(0) translate(4 235.5)">
<title>cloud.CloudBackend.send</title>
<polygon fill="white" stroke="transparent" points="-4,4 -4,-235.5 1256,-235.5 1256,4 -4,4"/>
<!-- Node1 -->
<g id="node1" class="node">
<title>Node1</title>
<g id="a_node1"><a xlink:title=" ">
<polygon fill="#bfbfbf" stroke="black" points="0,-108 0,-127 141,-127 141,-108 0,-108"/>
<text text-anchor="middle" x="70.5" y="-115" font-family="Helvetica,sans-Serif" font-size="10.00">cloud.CloudBackend.send</text>
</a>
</g>
</g>
<!-- Node2 -->
<g id="node2" class="node">
<title>Node2</title>
<g id="a_node2"><a xlink:href="classklyqa__ctl_1_1account_1_1Account.html#a7bcb9ac9804621630ea08a688abecd18" target="_top" xlink:title=" ">
<polygon fill="white" stroke="black" points="177,-212 177,-231 398,-231 398,-212 177,-212"/>
<text text-anchor="middle" x="287.5" y="-219" font-family="Helvetica,sans-Serif" font-size="10.00">klyqa_ctl.account.Account.controller_data</text>
</a>
</g>
</g>
<!-- Node1&#45;&gt;Node2 -->
<g id="edge1" class="edge">
<title>Node1&#45;&gt;Node2</title>
<path fill="none" stroke="midnightblue" d="M80.01,-127.01C96.68,-144.98 135.64,-183.78 177,-202.5 182.65,-205.06 188.61,-207.27 194.71,-209.19"/>
<polygon fill="midnightblue" stroke="midnightblue" points="193.82,-212.58 204.39,-211.97 195.75,-205.85 193.82,-212.58"/>
</g>
<!-- Node3 -->
<g id="node3" class="node">
<title>Node3</title>
<g id="a_node3"><a xlink:href="classcloud_1_1CloudBackend.html#aef174fe1ba95fff13c7901ff56354ec9" target="_top" xlink:title=" ">
<polygon fill="white" stroke="black" points="192,-174 192,-193 383,-193 383,-174 192,-174"/>
<text text-anchor="middle" x="287.5" y="-181" font-family="Helvetica,sans-Serif" font-size="10.00">cloud.CloudBackend.controller_data</text>
</a>
</g>
</g>
<!-- Node1&#45;&gt;Node3 -->
<g id="edge2" class="edge">
<title>Node1&#45;&gt;Node3</title>
<path fill="none" stroke="midnightblue" d="M89.27,-127.06C109.83,-137.72 144.97,-154.75 177,-164.5 186.41,-167.37 196.42,-169.84 206.42,-171.97"/>
<polygon fill="midnightblue" stroke="midnightblue" points="205.89,-175.44 216.38,-173.99 207.27,-168.58 205.89,-175.44"/>
</g>
<!-- Node4 -->
<g id="node4" class="node">
<title>Node4</title>
<g id="a_node4"><a xlink:href="classlocal_1_1connection__handler_1_1LocalConnectionHandler.html#a8f938ae53b3c24bbdc02f377671cf263" target="_top" xlink:title=" ">
<polygon fill="white" stroke="black" points="182,-124.5 182,-154.5 393,-154.5 393,-124.5 182,-124.5"/>
<text text-anchor="start" x="190" y="-142.5" font-family="Helvetica,sans-Serif" font-size="10.00">local.connection_handler.</text>
<text text-anchor="middle" x="287.5" y="-131.5" font-family="Helvetica,sans-Serif" font-size="10.00">LocalConnectionHandler.controller_data</text>
</a>
</g>
</g>
<!-- Node1&#45;&gt;Node4 -->
<g id="edge3" class="edge">
<title>Node1&#45;&gt;Node4</title>
<path fill="none" stroke="midnightblue" d="M141.01,-124.61C150.86,-125.62 161.21,-126.68 171.64,-127.75"/>
<polygon fill="midnightblue" stroke="midnightblue" points="171.36,-131.24 181.67,-128.77 172.07,-124.27 171.36,-131.24"/>
</g>
<!-- Node5 -->
<g id="node5" class="node">
<title>Node5</title>
<g id="a_node5"><a xlink:href="namespaceklyqa__ctl_1_1general_1_1general.html#a2c729589c8f5ab77e718bb060d26425d" target="_top" xlink:title=" ">
<polygon fill="white" stroke="black" points="189,-86 189,-105 386,-105 386,-86 189,-86"/>
<text text-anchor="middle" x="287.5" y="-93" font-family="Helvetica,sans-Serif" font-size="10.00">klyqa_ctl.general.general.format_uid</text>
</a>
</g>
</g>
<!-- Node1&#45;&gt;Node5 -->
<g id="edge4" class="edge">
<title>Node1&#45;&gt;Node5</title>
<path fill="none" stroke="midnightblue" d="M141.01,-110.39C154.43,-109.01 168.77,-107.55 183.01,-106.09"/>
<polygon fill="midnightblue" stroke="midnightblue" points="183.75,-109.53 193.35,-105.03 183.04,-102.57 183.75,-109.53"/>
</g>
<!-- Node6 -->
<g id="node6" class="node">
<title>Node6</title>
<g id="a_node6"><a xlink:href="classcloud_1_1CloudBackend.html#a890d2669fa6b9550af8e14a17413aea2" target="_top" xlink:title=" ">
<polygon fill="white" stroke="black" points="210,-48 210,-67 365,-67 365,-48 210,-48"/>
<text text-anchor="middle" x="287.5" y="-55" font-family="Helvetica,sans-Serif" font-size="10.00">cloud.CloudBackend.request</text>
</a>
</g>
</g>
<!-- Node1&#45;&gt;Node6 -->
<g id="edge5" class="edge">
<title>Node1&#45;&gt;Node6</title>
<path fill="none" stroke="midnightblue" d="M92.5,-107.91C113.49,-98.66 146.9,-84.87 177,-76.5 187.32,-73.63 198.31,-71.11 209.2,-68.93"/>
<polygon fill="midnightblue" stroke="midnightblue" points="209.99,-72.34 219.15,-67.01 208.67,-65.47 209.99,-72.34"/>
</g>
<!-- Node9 -->
<g id="node9" class="node">
<title>Node9</title>
<g id="a_node9"><a xlink:href="namespaceklyqa__ctl_1_1general_1_1general.html#ad6b753e482e539892c57f8144cf213cb" target="_top" xlink:title=" ">
<polygon fill="white" stroke="black" points="434,-0.5 434,-30.5 598,-30.5 598,-0.5 434,-0.5"/>
<text text-anchor="start" x="442" y="-18.5" font-family="Helvetica,sans-Serif" font-size="10.00">klyqa_ctl.general.general.task</text>
<text text-anchor="middle" x="516" y="-7.5" font-family="Helvetica,sans-Serif" font-size="10.00">_log_trace_ex</text>
</a>
</g>
</g>
<!-- Node1&#45;&gt;Node9 -->
<g id="edge12" class="edge">
<title>Node1&#45;&gt;Node9</title>
<path fill="none" stroke="midnightblue" d="M80.53,-107.75C97.47,-90.2 136.03,-53.71 177,-38.5 256.62,-8.95 353.96,-5.42 423.7,-7.96"/>
<polygon fill="midnightblue" stroke="midnightblue" points="423.64,-11.46 433.78,-8.37 423.93,-4.46 423.64,-11.46"/>
</g>
<!-- Node7 -->
<g id="node7" class="node">
<title>Node7</title>
<g id="a_node7"><a xlink:href="classcloud_1_1CloudBackend.html#af39d1bfe4ff58db5af7f373b7ca965a0" target="_top" xlink:title=" ">
<polygon fill="white" stroke="black" points="449,-88.5 449,-118.5 583,-118.5 583,-88.5 449,-88.5"/>
<text text-anchor="start" x="457" y="-106.5" font-family="Helvetica,sans-Serif" font-size="10.00">cloud.CloudBackend.get</text>
<text text-anchor="middle" x="516" y="-95.5" font-family="Helvetica,sans-Serif" font-size="10.00">_header_default</text>
</a>
</g>
</g>
<!-- Node6&#45;&gt;Node7 -->
<g id="edge6" class="edge">
<title>Node6&#45;&gt;Node7</title>
<path fill="none" stroke="midnightblue" d="M346.86,-67.01C363.42,-69.88 381.45,-73.16 398,-76.5 412.44,-79.42 427.83,-82.78 442.54,-86.13"/>
<polygon fill="midnightblue" stroke="midnightblue" points="442.07,-89.61 452.6,-88.43 443.63,-82.78 442.07,-89.61"/>
</g>
<!-- Node8 -->
<g id="node8" class="node">
<title>Node8</title>
<g id="a_node8"><a xlink:href="classcloud_1_1CloudBackend.html#ac4e934fc6667245f1a6fde13e5ab089e" target="_top" xlink:title=" ">
<polygon fill="white" stroke="black" points="446.5,-50 446.5,-69 585.5,-69 585.5,-50 446.5,-50"/>
<text text-anchor="middle" x="516" y="-57" font-family="Helvetica,sans-Serif" font-size="10.00">cloud.CloudBackend.host</text>
</a>
</g>
</g>
<!-- Node6&#45;&gt;Node8 -->
<g id="edge7" class="edge">
<title>Node6&#45;&gt;Node8</title>
<path fill="none" stroke="midnightblue" d="M365.18,-58.18C388.1,-58.38 413.26,-58.6 436.3,-58.81"/>
<polygon fill="midnightblue" stroke="midnightblue" points="436.35,-62.31 446.38,-58.89 436.41,-55.31 436.35,-62.31"/>
</g>
<!-- Node6&#45;&gt;Node9 -->
<g id="edge8" class="edge">
<title>Node6&#45;&gt;Node9</title>
<path fill="none" stroke="midnightblue" d="M339.9,-47.97C364.77,-43.36 395.37,-37.68 424.01,-32.37"/>
<polygon fill="midnightblue" stroke="midnightblue" points="424.85,-35.78 434.04,-30.51 423.57,-28.89 424.85,-35.78"/>
</g>
<!-- Node10 -->
<g id="node10" class="node">
<title>Node10</title>
<g id="a_node10"><a xlink:href="namespaceklyqa__ctl_1_1general_1_1general.html#ab2f9a22e98cd16d0d284d22382cfcb02" target="_top" xlink:title=" ">
<polygon fill="white" stroke="black" points="634,-0.5 634,-30.5 798,-30.5 798,-0.5 634,-0.5"/>
<text text-anchor="start" x="642" y="-18.5" font-family="Helvetica,sans-Serif" font-size="10.00">klyqa_ctl.general.general.task</text>
<text text-anchor="middle" x="716" y="-7.5" font-family="Helvetica,sans-Serif" font-size="10.00">_log_trace</text>
</a>
</g>
</g>
<!-- Node9&#45;&gt;Node10 -->
<g id="edge9" class="edge">
<title>Node9&#45;&gt;Node10</title>
<path fill="none" stroke="midnightblue" d="M598.11,-15.5C606.46,-15.5 614.99,-15.5 623.44,-15.5"/>
<polygon fill="midnightblue" stroke="midnightblue" points="623.7,-19 633.7,-15.5 623.7,-12 623.7,-19"/>
</g>
<!-- Node11 -->
<g id="node11" class="node">
<title>Node11</title>
<g id="a_node11"><a xlink:href="namespaceklyqa__ctl_1_1general_1_1general.html#a9df3b50dfc0fcc7c8ec991bb9be9c5ba" target="_top" xlink:title=" ">
<polygon fill="white" stroke="black" points="834,-6 834,-25 1019,-25 1019,-6 834,-6"/>
<text text-anchor="middle" x="926.5" y="-13" font-family="Helvetica,sans-Serif" font-size="10.00">klyqa_ctl.general.general.task_log</text>
</a>
</g>
</g>
<!-- Node10&#45;&gt;Node11 -->
<g id="edge10" class="edge">
<title>Node10&#45;&gt;Node11</title>
<path fill="none" stroke="midnightblue" d="M798.21,-15.5C806.59,-15.5 815.18,-15.5 823.75,-15.5"/>
<polygon fill="midnightblue" stroke="midnightblue" points="823.79,-19 833.79,-15.5 823.79,-12 823.79,-19"/>
</g>
<!-- Node12 -->
<g id="node12" class="node">
<title>Node12</title>
<g id="a_node12"><a xlink:href="namespaceklyqa__ctl_1_1general_1_1general.html#aea905150cafee39fa2ca211f1e60f012" target="_top" xlink:title=" ">
<polygon fill="white" stroke="black" points="1055,-6 1055,-25 1252,-25 1252,-6 1055,-6"/>
<text text-anchor="middle" x="1153.5" y="-13" font-family="Helvetica,sans-Serif" font-size="10.00">klyqa_ctl.general.general.task_name</text>
</a>
</g>
</g>
<!-- Node11&#45;&gt;Node12 -->
<g id="edge11" class="edge">
<title>Node11&#45;&gt;Node12</title>
<path fill="none" stroke="midnightblue" d="M1019.02,-15.5C1027.5,-15.5 1036.15,-15.5 1044.76,-15.5"/>
<polygon fill="midnightblue" stroke="midnightblue" points="1044.83,-19 1054.83,-15.5 1044.83,-12 1044.83,-19"/>
</g>
</g>
</svg>
