<?xml version="1.0" encoding="UTF-8" standalone="no"?>
<!DOCTYPE svg PUBLIC "-//W3C//DTD SVG 1.1//EN"
 "http://www.w3.org/Graphics/SVG/1.1/DTD/svg11.dtd">
<!-- Generated by graphviz version 2.43.0 (0)
 -->
<!-- Title: klyqa_ctl.account.Account.cloud_post_to_device Pages: 1 -->
<!--zoomable 676 -->
<svg id="main" version="1.1" xmlns="http://www.w3.org/2000/svg" xmlns:xlink="http://www.w3.org/1999/xlink" xml:space="preserve" onload="init(evt)">
<style type="text/css"><![CDATA[
.edge:hover path { stroke: red; }
.edge:hover polygon { stroke: red; fill: red; }
]]></style>
<script type="text/javascript"><![CDATA[
var edges = document.getElementsByTagName('g');
if (edges && edges.length) {
  for (var i=0;i<edges.length;i++) {
    if (edges[i].id.substr(0,4)=='edge') {
      edges[i].setAttribute('class','edge');
    }
  }
}
]]></script>
        <defs>
                <circle id="rim" cx="0" cy="0" r="7"/>
                <circle id="rim2" cx="0" cy="0" r="3.5"/>
                <g id="zoomPlus">
                        <use xlink:href="#rim" fill="#404040">
                                <set attributeName="fill" to="#808080" begin="zoomplus.mouseover" end="zoomplus.mouseout"/>
                        </use>
                        <path d="M-4,0h8M0,-4v8" fill="none" stroke="white" stroke-width="1.5" pointer-events="none"/>
                </g>
                <g id="zoomMin">
                        <use xlink:href="#rim" fill="#404040">
                                <set attributeName="fill" to="#808080" begin="zoomminus.mouseover" end="zoomminus.mouseout"/>
                        </use>
                        <path d="M-4,0h8" fill="none" stroke="white" stroke-width="1.5" pointer-events="none"/>
                </g>
                <g id="dirArrow">
                        <path fill="none" stroke="white" stroke-width="1.5" d="M0,-3.0v7 M-2.5,-0.5L0,-3.0L2.5,-0.5"/>
                </g>
               <g id="resetDef">
                       <use xlink:href="#rim2" fill="#404040">
                               <set attributeName="fill" to="#808080" begin="reset.mouseover" end="reset.mouseout"/>
                       </use>
               </g>
        </defs>

<script type="text/javascript">
var viewWidth = 1548;
var viewHeight = 676;
var sectionId = 'dynsection-12';
</script>
<script xlink:href="svgpan.js"/>
<svg id="graph" class="graph">
<g id="viewport">
<title>klyqa_ctl.account.Account.cloud_post_to_device</title>
<polygon fill="white" stroke="transparent" points="-4,4 -4,-672 1544,-672 1544,4 -4,4"/>
<!-- Node1 -->
<g id="node1" class="node">
<title>Node1</title>
<g id="a_node1"><a xlink:title=" ">
<polygon fill="#bfbfbf" stroke="black" points="0,-358.5 0,-388.5 173,-388.5 173,-358.5 0,-358.5"/>
<text text-anchor="start" x="8" y="-376.5" font-family="Helvetica,sans-Serif" font-size="10.00">klyqa_ctl.account.Account.cloud</text>
<text text-anchor="middle" x="86.5" y="-365.5" font-family="Helvetica,sans-Serif" font-size="10.00">_post_to_device</text>
</a>
</g>
</g>
<!-- Node2 -->
<g id="node2" class="node">
<title>Node2</title>
<g id="a_node2"><a xlink:href="namespaceklyqa__ctl_1_1general_1_1general.html#a2c729589c8f5ab77e718bb060d26425d" target="_top" xlink:title=" ">
<polygon fill="white" stroke="black" points="209,-386 209,-405 406,-405 406,-386 209,-386"/>
<text text-anchor="middle" x="307.5" y="-393" font-family="Helvetica,sans-Serif" font-size="10.00">klyqa_ctl.general.general.format_uid</text>
</a>
</g>
</g>
<!-- Node1&#45;&gt;Node2 -->
<g id="edge1" class="edge">
<title>Node1&#45;&gt;Node2</title>
<path fill="none" stroke="midnightblue" d="M173.11,-382.1C182.55,-383.05 192.24,-384.02 201.87,-384.99"/>
<polygon fill="midnightblue" stroke="midnightblue" points="201.59,-388.48 211.88,-386 202.28,-381.51 201.59,-388.48"/>
</g>
<!-- Node3 -->
<g id="node3" class="node">
<title>Node3</title>
<g id="a_node3"><a xlink:href="classklyqa__ctl_1_1account_1_1Account.html#a73506bd234f8e819e138c2bd663179b8" target="_top" xlink:title=" ">
<polygon fill="white" stroke="black" points="215.5,-336.5 215.5,-366.5 399.5,-366.5 399.5,-336.5 215.5,-336.5"/>
<text text-anchor="start" x="223.5" y="-354.5" font-family="Helvetica,sans-Serif" font-size="10.00">klyqa_ctl.account.Account.request</text>
<text text-anchor="middle" x="307.5" y="-343.5" font-family="Helvetica,sans-Serif" font-size="10.00">_beared</text>
</a>
</g>
</g>
<!-- Node1&#45;&gt;Node3 -->
<g id="edge2" class="edge">
<title>Node1&#45;&gt;Node3</title>
<path fill="none" stroke="midnightblue" d="M173.11,-364.9C183.57,-363.85 194.33,-362.77 204.99,-361.7"/>
<polygon fill="midnightblue" stroke="midnightblue" points="205.56,-365.16 215.16,-360.68 204.86,-358.19 205.56,-365.16"/>
</g>
<!-- Node4 -->
<g id="node4" class="node">
<title>Node4</title>
<g id="a_node4"><a xlink:href="classklyqa__ctl_1_1account_1_1Account.html#aeb463ade6756bf093a809634f64c6ef6" target="_top" xlink:title=" ">
<polygon fill="white" stroke="black" points="641,-445 641,-464 814,-464 814,-445 641,-445"/>
<text text-anchor="middle" x="727.5" y="-452" font-family="Helvetica,sans-Serif" font-size="10.00">klyqa_ctl.account.Account.cloud</text>
</a>
</g>
</g>
<!-- Node3&#45;&gt;Node4 -->
<g id="edge3" class="edge">
<title>Node3&#45;&gt;Node4</title>
<path fill="none" stroke="midnightblue" d="M386.56,-366.56C393.39,-369.33 399.98,-372.61 406,-376.5 427.51,-390.4 419.59,-409.09 442,-421.5 499.14,-453.15 572.55,-461 630.49,-461.15"/>
<polygon fill="midnightblue" stroke="midnightblue" points="630.77,-464.65 640.75,-461.1 630.73,-457.65 630.77,-464.65"/>
</g>
<!-- Node5 -->
<g id="node5" class="node">
<title>Node5</title>
<g id="a_node5"><a xlink:href="classklyqa__ctl_1_1devices_1_1device_1_1Device.html#a574647293c61d5f53e153d48ddb31f65" target="_top" xlink:title=" ">
<polygon fill="white" stroke="black" points="657.5,-394.5 657.5,-424.5 797.5,-424.5 797.5,-394.5 657.5,-394.5"/>
<text text-anchor="start" x="665.5" y="-412.5" font-family="Helvetica,sans-Serif" font-size="10.00">klyqa_ctl.devices.device.</text>
<text text-anchor="middle" x="727.5" y="-401.5" font-family="Helvetica,sans-Serif" font-size="10.00">Device.cloud</text>
</a>
</g>
</g>
<!-- Node3&#45;&gt;Node5 -->
<g id="edge4" class="edge">
<title>Node3&#45;&gt;Node5</title>
<path fill="none" stroke="midnightblue" d="M377.8,-366.54C387.42,-369.41 397.07,-372.73 406,-376.5 423.27,-383.8 424.05,-393.07 442,-398.5 509.06,-418.78 589.08,-419.97 647.14,-417"/>
<polygon fill="midnightblue" stroke="midnightblue" points="647.57,-420.48 657.36,-416.42 647.18,-413.49 647.57,-420.48"/>
</g>
<!-- Node6 -->
<g id="node6" class="node">
<title>Node6</title>
<g id="a_node6"><a xlink:href="classklyqa__ctl_1_1general_1_1general_1_1Command.html#a4aa9e4db12aecf5520e974204c635d38" target="_top" xlink:title=" ">
<polygon fill="white" stroke="black" points="656,-294.5 656,-324.5 799,-324.5 799,-294.5 656,-294.5"/>
<text text-anchor="start" x="664" y="-312.5" font-family="Helvetica,sans-Serif" font-size="10.00">klyqa_ctl.general.general.</text>
<text text-anchor="middle" x="727.5" y="-301.5" font-family="Helvetica,sans-Serif" font-size="10.00">Command.cloud</text>
</a>
</g>
</g>
<!-- Node3&#45;&gt;Node6 -->
<g id="edge5" class="edge">
<title>Node3&#45;&gt;Node6</title>
<path fill="none" stroke="midnightblue" d="M399.72,-342.33C473.1,-334.96 575.24,-324.7 645.7,-317.62"/>
<polygon fill="midnightblue" stroke="midnightblue" points="646.26,-321.08 655.86,-316.6 645.56,-314.11 646.26,-321.08"/>
</g>
<!-- Node34 -->
<g id="node34" class="node">
<title>Node34</title>
<g id="a_node34"><a xlink:href="classklyqa__ctl_1_1general_1_1general_1_1CloudStateCommand.html#a6bbc8b1333f0a45ce38f1e81a6093bc1" target="_top" xlink:title=" ">
<polygon fill="white" stroke="black" points="653,-343.5 653,-373.5 802,-373.5 802,-343.5 653,-343.5"/>
<text text-anchor="start" x="661" y="-361.5" font-family="Helvetica,sans-Serif" font-size="10.00">klyqa_ctl.general.general.</text>
<text text-anchor="middle" x="727.5" y="-350.5" font-family="Helvetica,sans-Serif" font-size="10.00">CloudStateCommand.cloud</text>
</a>
</g>
</g>
<!-- Node3&#45;&gt;Node34 -->
<g id="edge33" class="edge">
<title>Node3&#45;&gt;Node34</title>
<path fill="none" stroke="midnightblue" d="M399.7,-348.83C458.35,-347.62 536.2,-346.96 605,-349.5 617.26,-349.95 630.2,-350.66 642.88,-351.49"/>
<polygon fill="midnightblue" stroke="midnightblue" points="642.77,-354.99 652.98,-352.18 643.24,-348.01 642.77,-354.99"/>
</g>
<!-- Node35 -->
<g id="node35" class="node">
<title>Node35</title>
<g id="a_node35"><a xlink:href="classklyqa__ctl_1_1klyqa__ctl_1_1Client.html#a7d8a302d936e8e1889f175bac259f565" target="_top" xlink:title=" ">
<polygon fill="white" stroke="black" points="643,-252 643,-271 812,-271 812,-252 643,-252"/>
<text text-anchor="middle" x="727.5" y="-259" font-family="Helvetica,sans-Serif" font-size="10.00">klyqa_ctl.klyqa_ctl.Client.cloud</text>
</a>
</g>
</g>
<!-- Node3&#45;&gt;Node35 -->
<g id="edge48" class="edge">
<title>Node3&#45;&gt;Node35</title>
<path fill="none" stroke="midnightblue" d="M366.85,-336.48C390.17,-330.63 417.3,-324.02 442,-318.5 518.75,-301.33 607.7,-283.91 665.43,-272.92"/>
<polygon fill="midnightblue" stroke="midnightblue" points="666.3,-276.32 675.48,-271.01 665,-269.44 666.3,-276.32"/>
</g>
<!-- Node36 -->
<g id="node36" class="node">
<title>Node36</title>
<g id="a_node36"><a xlink:href="classklyqa__ctl_1_1account_1_1Account.html#ad608e3ee0ba1199f509e644a11081724" target="_top" xlink:title=" ">
<polygon fill="white" stroke="black" points="442,-358.5 442,-388.5 605,-388.5 605,-358.5 442,-358.5"/>
<text text-anchor="start" x="450" y="-376.5" font-family="Helvetica,sans-Serif" font-size="10.00">klyqa_ctl.account.Account.get</text>
<text text-anchor="middle" x="523.5" y="-365.5" font-family="Helvetica,sans-Serif" font-size="10.00">_beared_request_header</text>
</a>
</g>
</g>
<!-- Node3&#45;&gt;Node36 -->
<g id="edge49" class="edge">
<title>Node3&#45;&gt;Node36</title>
<path fill="none" stroke="midnightblue" d="M399.57,-360.86C410.17,-361.95 420.99,-363.06 431.59,-364.15"/>
<polygon fill="midnightblue" stroke="midnightblue" points="431.37,-367.65 441.67,-365.19 432.08,-360.69 431.37,-367.65"/>
</g>
<!-- Node7 -->
<g id="node7" class="node">
<title>Node7</title>
<g id="a_node7"><a xlink:href="classklyqa__ctl_1_1devices_1_1light_1_1commands_1_1FwUpdateCommand.html#a9de3441c7fbba5f5a19ea914970a3db7" target="_top" xlink:title=" ">
<polygon fill="white" stroke="black" points="858.5,-637.5 858.5,-667.5 1044.5,-667.5 1044.5,-637.5 858.5,-637.5"/>
<text text-anchor="start" x="866.5" y="-655.5" font-family="Helvetica,sans-Serif" font-size="10.00">klyqa_ctl.devices.light.commands.</text>
<text text-anchor="middle" x="951.5" y="-644.5" font-family="Helvetica,sans-Serif" font-size="10.00">FwUpdateCommand.json</text>
</a>
</g>
</g>
<!-- Node6&#45;&gt;Node7 -->
<g id="edge6" class="edge">
<title>Node6&#45;&gt;Node7</title>
<path fill="none" stroke="midnightblue" d="M799.04,-322.32C804.67,-325.55 809.8,-329.55 814,-334.5 899.22,-434.84 762.3,-530.33 850,-628.5 850.65,-629.23 851.33,-629.94 852.01,-630.63"/>
<polygon fill="midnightblue" stroke="midnightblue" points="850.07,-633.57 859.99,-637.31 854.57,-628.21 850.07,-633.57"/>
</g>
<!-- Node9 -->
<g id="node9" class="node">
<title>Node9</title>
<g id="a_node9"><a xlink:href="classklyqa__ctl_1_1devices_1_1light_1_1commands_1_1TransitionCommand.html#aaf9d8431e346c86b9959102c2d7f3316" target="_top" xlink:title=" ">
<polygon fill="white" stroke="black" points="858.5,-294.5 858.5,-324.5 1044.5,-324.5 1044.5,-294.5 858.5,-294.5"/>
<text text-anchor="start" x="866.5" y="-312.5" font-family="Helvetica,sans-Serif" font-size="10.00">klyqa_ctl.devices.light.commands.</text>
<text text-anchor="middle" x="951.5" y="-301.5" font-family="Helvetica,sans-Serif" font-size="10.00">TransitionCommand.json</text>
</a>
</g>
</g>
<!-- Node6&#45;&gt;Node9 -->
<g id="edge8" class="edge">
<title>Node6&#45;&gt;Node9</title>
<path fill="none" stroke="midnightblue" d="M799.05,-309.5C814.61,-309.5 831.4,-309.5 847.94,-309.5"/>
<polygon fill="midnightblue" stroke="midnightblue" points="848.19,-313 858.19,-309.5 848.19,-306 848.19,-313"/>
</g>
<!-- Node10 -->
<g id="node10" class="node">
<title>Node10</title>
<g id="a_node10"><a xlink:href="classklyqa__ctl_1_1devices_1_1light_1_1commands_1_1ColorCommand.html#afa8f262e4047666707237c4dfe8615c3" target="_top" xlink:title=" ">
<polygon fill="white" stroke="black" points="858.5,-588.5 858.5,-618.5 1044.5,-618.5 1044.5,-588.5 858.5,-588.5"/>
<text text-anchor="start" x="866.5" y="-606.5" font-family="Helvetica,sans-Serif" font-size="10.00">klyqa_ctl.devices.light.commands.</text>
<text text-anchor="middle" x="951.5" y="-595.5" font-family="Helvetica,sans-Serif" font-size="10.00">ColorCommand.json</text>
</a>
</g>
</g>
<!-- Node6&#45;&gt;Node10 -->
<g id="edge9" class="edge">
<title>Node6&#45;&gt;Node10</title>
<path fill="none" stroke="midnightblue" d="M799.32,-322.66C804.82,-325.82 809.84,-329.72 814,-334.5 886.25,-417.52 775.7,-498.31 850,-579.5 850.66,-580.22 851.34,-580.93 852.04,-581.61"/>
<polygon fill="midnightblue" stroke="midnightblue" points="850.14,-584.58 860.08,-588.22 854.58,-579.17 850.14,-584.58"/>
</g>
<!-- Node13 -->
<g id="node13" class="node">
<title>Node13</title>
<g id="a_node13"><a xlink:href="classklyqa__ctl_1_1devices_1_1light_1_1commands_1_1TemperatureCommand.html#aaa297cd598227ab2f33a6d111532e5e0" target="_top" xlink:title=" ">
<polygon fill="white" stroke="black" points="858.5,-539.5 858.5,-569.5 1044.5,-569.5 1044.5,-539.5 858.5,-539.5"/>
<text text-anchor="start" x="866.5" y="-557.5" font-family="Helvetica,sans-Serif" font-size="10.00">klyqa_ctl.devices.light.commands.</text>
<text text-anchor="middle" x="951.5" y="-546.5" font-family="Helvetica,sans-Serif" font-size="10.00">TemperatureCommand.json</text>
</a>
</g>
</g>
<!-- Node6&#45;&gt;Node13 -->
<g id="edge12" class="edge">
<title>Node6&#45;&gt;Node13</title>
<path fill="none" stroke="midnightblue" d="M799.14,-322.82C804.67,-325.95 809.75,-329.79 814,-334.5 873.33,-400.26 789.05,-466.24 850,-530.5 850.8,-531.35 851.63,-532.16 852.48,-532.96"/>
<polygon fill="midnightblue" stroke="midnightblue" points="850.64,-535.97 860.67,-539.39 854.97,-530.46 850.64,-535.97"/>
</g>
<!-- Node16 -->
<g id="node16" class="node">
<title>Node16</title>
<g id="a_node16"><a xlink:href="classklyqa__ctl_1_1devices_1_1light_1_1commands_1_1BrightnessCommand.html#a946e7180dd8f3bd4621c23b24e63469a" target="_top" xlink:title=" ">
<polygon fill="white" stroke="black" points="858.5,-490.5 858.5,-520.5 1044.5,-520.5 1044.5,-490.5 858.5,-490.5"/>
<text text-anchor="start" x="866.5" y="-508.5" font-family="Helvetica,sans-Serif" font-size="10.00">klyqa_ctl.devices.light.commands.</text>
<text text-anchor="middle" x="951.5" y="-497.5" font-family="Helvetica,sans-Serif" font-size="10.00">BrightnessCommand.json</text>
</a>
</g>
</g>
<!-- Node6&#45;&gt;Node16 -->
<g id="edge15" class="edge">
<title>Node6&#45;&gt;Node16</title>
<path fill="none" stroke="midnightblue" d="M799.26,-323.31C804.7,-326.35 809.72,-330.03 814,-334.5 860.5,-383.1 802.3,-434.07 850,-481.5 850.97,-482.46 851.96,-483.39 852.99,-484.28"/>
<polygon fill="midnightblue" stroke="midnightblue" points="851.24,-487.33 861.36,-490.44 855.39,-481.69 851.24,-487.33"/>
</g>
<!-- Node19 -->
<g id="node19" class="node">
<title>Node19</title>
<g id="a_node19"><a xlink:href="classklyqa__ctl_1_1devices_1_1light_1_1commands_1_1ExternalSourceCommand.html#a393710b54f709b852bfd0f3769c39ce6" target="_top" xlink:title=" ">
<polygon fill="white" stroke="black" points="858.5,-98.5 858.5,-128.5 1044.5,-128.5 1044.5,-98.5 858.5,-98.5"/>
<text text-anchor="start" x="866.5" y="-116.5" font-family="Helvetica,sans-Serif" font-size="10.00">klyqa_ctl.devices.light.commands.</text>
<text text-anchor="middle" x="951.5" y="-105.5" font-family="Helvetica,sans-Serif" font-size="10.00">ExternalSourceCommand.json</text>
</a>
</g>
</g>
<!-- Node6&#45;&gt;Node19 -->
<g id="edge18" class="edge">
<title>Node6&#45;&gt;Node19</title>
<path fill="none" stroke="midnightblue" d="M795.59,-294.35C802.44,-290.69 808.79,-286.14 814,-280.5 858.44,-232.33 803.38,-183.56 850,-137.5 850.97,-136.54 851.97,-135.62 853,-134.73"/>
<polygon fill="midnightblue" stroke="midnightblue" points="855.39,-137.32 861.39,-128.58 851.25,-131.67 855.39,-137.32"/>
</g>
<!-- Node20 -->
<g id="node20" class="node">
<title>Node20</title>
<g id="a_node20"><a xlink:href="classklyqa__ctl_1_1devices_1_1light_1_1commands_1_1RoutineCommand.html#af3395a663a3dbdff8117ee708f80adec" target="_top" xlink:title=" ">
<polygon fill="white" stroke="black" points="858.5,-49.5 858.5,-79.5 1044.5,-79.5 1044.5,-49.5 858.5,-49.5"/>
<text text-anchor="start" x="866.5" y="-67.5" font-family="Helvetica,sans-Serif" font-size="10.00">klyqa_ctl.devices.light.commands.</text>
<text text-anchor="middle" x="951.5" y="-56.5" font-family="Helvetica,sans-Serif" font-size="10.00">RoutineCommand.json</text>
</a>
</g>
</g>
<!-- Node6&#45;&gt;Node20 -->
<g id="edge19" class="edge">
<title>Node6&#45;&gt;Node20</title>
<path fill="none" stroke="midnightblue" d="M796.35,-294.43C802.98,-290.75 809.07,-286.18 814,-280.5 870.89,-214.92 790.13,-151.38 850,-88.5 850.8,-87.66 851.63,-86.84 852.48,-86.05"/>
<polygon fill="midnightblue" stroke="midnightblue" points="854.97,-88.55 860.69,-79.63 850.65,-83.03 854.97,-88.55"/>
</g>
<!-- Node21 -->
<g id="node21" class="node">
<title>Node21</title>
<g id="a_node21"><a xlink:href="classklyqa__ctl_1_1devices_1_1vacuum_1_1commands_1_1ProductinfoCommand.html#a23d375f048835d4b0f12602764d2a6c1" target="_top" xlink:title=" ">
<polygon fill="white" stroke="black" points="850,-392.5 850,-422.5 1053,-422.5 1053,-392.5 850,-392.5"/>
<text text-anchor="start" x="858" y="-410.5" font-family="Helvetica,sans-Serif" font-size="10.00">klyqa_ctl.devices.vacuum.commands.</text>
<text text-anchor="middle" x="951.5" y="-399.5" font-family="Helvetica,sans-Serif" font-size="10.00">ProductinfoCommand.json</text>
</a>
</g>
</g>
<!-- Node6&#45;&gt;Node21 -->
<g id="edge20" class="edge">
<title>Node6&#45;&gt;Node21</title>
<path fill="none" stroke="midnightblue" d="M795.82,-324.51C802.24,-327.3 808.43,-330.6 814,-334.5 836.14,-350 827.48,-368.56 850,-383.5 852.45,-385.13 855,-386.64 857.63,-388.06"/>
<polygon fill="midnightblue" stroke="midnightblue" points="856.29,-391.3 866.82,-392.48 859.33,-384.99 856.29,-391.3"/>
</g>
<!-- Node23 -->
<g id="node23" class="node">
<title>Node23</title>
<g id="a_node23"><a xlink:href="classklyqa__ctl_1_1devices_1_1vacuum_1_1commands_1_1RequestGetCommand.html#a216966811184b718a4659bf081113f38" target="_top" xlink:title=" ">
<polygon fill="white" stroke="black" points="850,-343.5 850,-373.5 1053,-373.5 1053,-343.5 850,-343.5"/>
<text text-anchor="start" x="858" y="-361.5" font-family="Helvetica,sans-Serif" font-size="10.00">klyqa_ctl.devices.vacuum.commands.</text>
<text text-anchor="middle" x="951.5" y="-350.5" font-family="Helvetica,sans-Serif" font-size="10.00">RequestGetCommand.json</text>
</a>
</g>
</g>
<!-- Node6&#45;&gt;Node23 -->
<g id="edge22" class="edge">
<title>Node6&#45;&gt;Node23</title>
<path fill="none" stroke="midnightblue" d="M796.62,-324.53C820.59,-329.83 847.72,-335.81 872.44,-341.27"/>
<polygon fill="midnightblue" stroke="midnightblue" points="871.99,-344.76 882.51,-343.49 873.5,-337.92 871.99,-344.76"/>
</g>
<!-- Node25 -->
<g id="node25" class="node">
<title>Node25</title>
<g id="a_node25"><a xlink:href="classklyqa__ctl_1_1devices_1_1vacuum_1_1commands_1_1RequestResetCommand.html#a1ac56b80427d60d9f55079ae846ae25e" target="_top" xlink:title=" ">
<polygon fill="white" stroke="black" points="850,-245.5 850,-275.5 1053,-275.5 1053,-245.5 850,-245.5"/>
<text text-anchor="start" x="858" y="-263.5" font-family="Helvetica,sans-Serif" font-size="10.00">klyqa_ctl.devices.vacuum.commands.</text>
<text text-anchor="middle" x="951.5" y="-252.5" font-family="Helvetica,sans-Serif" font-size="10.00">RequestResetCommand.json</text>
</a>
</g>
</g>
<!-- Node6&#45;&gt;Node25 -->
<g id="edge24" class="edge">
<title>Node6&#45;&gt;Node25</title>
<path fill="none" stroke="midnightblue" d="M796.62,-294.47C820.59,-289.17 847.72,-283.19 872.44,-277.73"/>
<polygon fill="midnightblue" stroke="midnightblue" points="873.5,-281.08 882.51,-275.51 871.99,-274.24 873.5,-281.08"/>
</g>
<!-- Node27 -->
<g id="node27" class="node">
<title>Node27</title>
<g id="a_node27"><a xlink:href="classklyqa__ctl_1_1devices_1_1vacuum_1_1commands_1_1RequestSetCommand.html#a354b74be46f4b7d8a56811eaab910959" target="_top" xlink:title=" ">
<polygon fill="white" stroke="black" points="850,-196.5 850,-226.5 1053,-226.5 1053,-196.5 850,-196.5"/>
<text text-anchor="start" x="858" y="-214.5" font-family="Helvetica,sans-Serif" font-size="10.00">klyqa_ctl.devices.vacuum.commands.</text>
<text text-anchor="middle" x="951.5" y="-203.5" font-family="Helvetica,sans-Serif" font-size="10.00">RequestSetCommand.json</text>
</a>
</g>
</g>
<!-- Node6&#45;&gt;Node27 -->
<g id="edge26" class="edge">
<title>Node6&#45;&gt;Node27</title>
<path fill="none" stroke="midnightblue" d="M787.68,-294.39C796.93,-290.66 806.04,-286.08 814,-280.5 834.97,-265.8 828.37,-249.22 850,-235.5 852.64,-233.82 855.39,-232.27 858.22,-230.82"/>
<polygon fill="midnightblue" stroke="midnightblue" points="859.87,-233.91 867.49,-226.55 856.94,-227.55 859.87,-233.91"/>
</g>
<!-- Node29 -->
<g id="node29" class="node">
<title>Node29</title>
<g id="a_node29"><a xlink:href="classklyqa__ctl_1_1devices_1_1vacuum_1_1commands_1_1RoutineCommand.html#a926a94c8cc5104275078e438fb301028" target="_top" xlink:title=" ">
<polygon fill="white" stroke="black" points="850,-147.5 850,-177.5 1053,-177.5 1053,-147.5 850,-147.5"/>
<text text-anchor="start" x="858" y="-165.5" font-family="Helvetica,sans-Serif" font-size="10.00">klyqa_ctl.devices.vacuum.commands.</text>
<text text-anchor="middle" x="951.5" y="-154.5" font-family="Helvetica,sans-Serif" font-size="10.00">RoutineCommand.json</text>
</a>
</g>
</g>
<!-- Node6&#45;&gt;Node29 -->
<g id="edge28" class="edge">
<title>Node6&#45;&gt;Node29</title>
<path fill="none" stroke="midnightblue" d="M793.66,-294.37C801.11,-290.7 808.13,-286.15 814,-280.5 846.24,-249.48 816.36,-215.99 850,-186.5 851.34,-185.32 852.74,-184.2 854.17,-183.13"/>
<polygon fill="midnightblue" stroke="midnightblue" points="856.3,-185.92 862.8,-177.56 852.5,-180.04 856.3,-185.92"/>
</g>
<!-- Node31 -->
<g id="node31" class="node">
<title>Node31</title>
<g id="a_node31"><a xlink:href="classklyqa__ctl_1_1general_1_1general_1_1Command.html#a8c8ad93fedd0da0e0021f58714ec7fb5" target="_top" xlink:title=" ">
<polygon fill="white" stroke="black" points="880,-441.5 880,-471.5 1023,-471.5 1023,-441.5 880,-441.5"/>
<text text-anchor="start" x="888" y="-459.5" font-family="Helvetica,sans-Serif" font-size="10.00">klyqa_ctl.general.general.</text>
<text text-anchor="middle" x="951.5" y="-448.5" font-family="Helvetica,sans-Serif" font-size="10.00">Command.json</text>
</a>
</g>
</g>
<!-- Node6&#45;&gt;Node31 -->
<g id="edge30" class="edge">
<title>Node6&#45;&gt;Node31</title>
<path fill="none" stroke="midnightblue" d="M799.15,-324.06C804.55,-326.94 809.59,-330.38 814,-334.5 847.9,-366.18 815.32,-401.67 850,-432.5 855.99,-437.82 862.94,-442.02 870.35,-445.32"/>
<polygon fill="midnightblue" stroke="midnightblue" points="869.34,-448.68 879.93,-449.03 871.87,-442.15 869.34,-448.68"/>
</g>
<!-- Node32 -->
<g id="node32" class="node">
<title>Node32</title>
<g id="a_node32"><a xlink:href="classklyqa__ctl_1_1general_1_1general_1_1CommandTyped.html#a96dfd43912c4640f381424bdd44eebca" target="_top" xlink:title=" ">
<polygon fill="white" stroke="black" points="880,-0.5 880,-30.5 1023,-30.5 1023,-0.5 880,-0.5"/>
<text text-anchor="start" x="888" y="-18.5" font-family="Helvetica,sans-Serif" font-size="10.00">klyqa_ctl.general.general.</text>
<text text-anchor="middle" x="951.5" y="-7.5" font-family="Helvetica,sans-Serif" font-size="10.00">CommandTyped.json</text>
</a>
</g>
</g>
<!-- Node6&#45;&gt;Node32 -->
<g id="edge31" class="edge">
<title>Node6&#45;&gt;Node32</title>
<path fill="none" stroke="midnightblue" d="M796.97,-294.38C803.41,-290.71 809.28,-286.15 814,-280.5 883.44,-197.39 776.79,-119.31 850,-39.5 855.75,-33.23 862.82,-28.46 870.53,-24.85"/>
<polygon fill="midnightblue" stroke="midnightblue" points="871.84,-28.09 879.82,-21.12 869.24,-21.59 871.84,-28.09"/>
</g>
<!-- Node8 -->
<g id="node8" class="node">
<title>Node8</title>
<g id="a_node8"><a xlink:href="classklyqa__ctl_1_1devices_1_1light_1_1commands_1_1FwUpdateCommand.html#a7dc482a4e9a65d49ce0a61671ed6868e" target="_top" xlink:title=" ">
<polygon fill="white" stroke="black" points="1105,-637.5 1105,-667.5 1291,-667.5 1291,-637.5 1105,-637.5"/>
<text text-anchor="start" x="1113" y="-655.5" font-family="Helvetica,sans-Serif" font-size="10.00">klyqa_ctl.devices.light.commands.</text>
<text text-anchor="middle" x="1198" y="-644.5" font-family="Helvetica,sans-Serif" font-size="10.00">FwUpdateCommand.url_json</text>
</a>
</g>
</g>
<!-- Node7&#45;&gt;Node8 -->
<g id="edge7" class="edge">
<title>Node7&#45;&gt;Node8</title>
<path fill="none" stroke="midnightblue" d="M1044.59,-652.5C1060.95,-652.5 1078.09,-652.5 1094.72,-652.5"/>
<polygon fill="midnightblue" stroke="midnightblue" points="1095,-656 1105,-652.5 1095,-649 1095,-656"/>
</g>
<!-- Node11 -->
<g id="node11" class="node">
<title>Node11</title>
<g id="a_node11"><a xlink:href="classklyqa__ctl_1_1devices_1_1light_1_1commands_1_1ColorCommand.html#a6ce99d7f4f232fb2f11e6efb7e85e778" target="_top" xlink:title=" ">
<polygon fill="white" stroke="black" points="1105,-588.5 1105,-618.5 1291,-618.5 1291,-588.5 1105,-588.5"/>
<text text-anchor="start" x="1113" y="-606.5" font-family="Helvetica,sans-Serif" font-size="10.00">klyqa_ctl.devices.light.commands.</text>
<text text-anchor="middle" x="1198" y="-595.5" font-family="Helvetica,sans-Serif" font-size="10.00">ColorCommand.color_json</text>
</a>
</g>
</g>
<!-- Node10&#45;&gt;Node11 -->
<g id="edge10" class="edge">
<title>Node10&#45;&gt;Node11</title>
<path fill="none" stroke="midnightblue" d="M1044.59,-603.5C1060.95,-603.5 1078.09,-603.5 1094.72,-603.5"/>
<polygon fill="midnightblue" stroke="midnightblue" points="1095,-607 1105,-603.5 1095,-600 1095,-607"/>
</g>
<!-- Node12 -->
<g id="node12" class="node">
<title>Node12</title>
<g id="a_node12"><a xlink:href="classklyqa__ctl_1_1devices_1_1light_1_1response__status_1_1ResponseStatus.html#a327c18fd6f8a38e75e1bbc2f895df592" target="_top" xlink:title=" ">
<polygon fill="white" stroke="black" points="1355,-588.5 1355,-618.5 1528,-618.5 1528,-588.5 1355,-588.5"/>
<text text-anchor="start" x="1363" y="-606.5" font-family="Helvetica,sans-Serif" font-size="10.00">klyqa_ctl.devices.light.response</text>
<text text-anchor="middle" x="1441.5" y="-595.5" font-family="Helvetica,sans-Serif" font-size="10.00">_status.ResponseStatus.color</text>
</a>
</g>
</g>
<!-- Node11&#45;&gt;Node12 -->
<g id="edge11" class="edge">
<title>Node11&#45;&gt;Node12</title>
<path fill="none" stroke="midnightblue" d="M1291.33,-603.5C1308.81,-603.5 1327.13,-603.5 1344.71,-603.5"/>
<polygon fill="midnightblue" stroke="midnightblue" points="1344.96,-607 1354.96,-603.5 1344.96,-600 1344.96,-607"/>
</g>
<!-- Node14 -->
<g id="node14" class="node">
<title>Node14</title>
<g id="a_node14"><a xlink:href="classklyqa__ctl_1_1devices_1_1light_1_1commands_1_1TemperatureCommand.html#a0b45255dc9218a36450152f1118a8280" target="_top" xlink:title=" ">
<polygon fill="white" stroke="black" points="1089,-539.5 1089,-569.5 1307,-569.5 1307,-539.5 1089,-539.5"/>
<text text-anchor="start" x="1097" y="-557.5" font-family="Helvetica,sans-Serif" font-size="10.00">klyqa_ctl.devices.light.commands.</text>
<text text-anchor="middle" x="1198" y="-546.5" font-family="Helvetica,sans-Serif" font-size="10.00">TemperatureCommand.temperature_json</text>
</a>
</g>
</g>
<!-- Node13&#45;&gt;Node14 -->
<g id="edge13" class="edge">
<title>Node13&#45;&gt;Node14</title>
<path fill="none" stroke="midnightblue" d="M1044.59,-554.5C1055.79,-554.5 1067.35,-554.5 1078.87,-554.5"/>
<polygon fill="midnightblue" stroke="midnightblue" points="1078.96,-558 1088.96,-554.5 1078.96,-551 1078.96,-558"/>
</g>
<!-- Node15 -->
<g id="node15" class="node">
<title>Node15</title>
<g id="a_node15"><a xlink:href="classklyqa__ctl_1_1devices_1_1light_1_1response__status_1_1ResponseStatus.html#a2e732c44c35f39dc3d8fe269c24aef8a" target="_top" xlink:title=" ">
<polygon fill="white" stroke="black" points="1343,-539.5 1343,-569.5 1540,-569.5 1540,-539.5 1343,-539.5"/>
<text text-anchor="start" x="1351" y="-557.5" font-family="Helvetica,sans-Serif" font-size="10.00">klyqa_ctl.devices.light.response</text>
<text text-anchor="middle" x="1441.5" y="-546.5" font-family="Helvetica,sans-Serif" font-size="10.00">_status.ResponseStatus.temperature</text>
</a>
</g>
</g>
<!-- Node14&#45;&gt;Node15 -->
<g id="edge14" class="edge">
<title>Node14&#45;&gt;Node15</title>
<path fill="none" stroke="midnightblue" d="M1307.04,-554.5C1315.61,-554.5 1324.27,-554.5 1332.85,-554.5"/>
<polygon fill="midnightblue" stroke="midnightblue" points="1332.86,-558 1342.86,-554.5 1332.86,-551 1332.86,-558"/>
</g>
<!-- Node17 -->
<g id="node17" class="node">
<title>Node17</title>
<g id="a_node17"><a xlink:href="classklyqa__ctl_1_1devices_1_1light_1_1commands_1_1BrightnessCommand.html#aba34fce7f4d8d6aae6bcbaaa61c21a8c" target="_top" xlink:title=" ">
<polygon fill="white" stroke="black" points="1099,-490.5 1099,-520.5 1297,-520.5 1297,-490.5 1099,-490.5"/>
<text text-anchor="start" x="1107" y="-508.5" font-family="Helvetica,sans-Serif" font-size="10.00">klyqa_ctl.devices.light.commands.</text>
<text text-anchor="middle" x="1198" y="-497.5" font-family="Helvetica,sans-Serif" font-size="10.00">BrightnessCommand.brightness_json</text>
</a>
</g>
</g>
<!-- Node16&#45;&gt;Node17 -->
<g id="edge16" class="edge">
<title>Node16&#45;&gt;Node17</title>
<path fill="none" stroke="midnightblue" d="M1044.59,-505.5C1058.99,-505.5 1074,-505.5 1088.73,-505.5"/>
<polygon fill="midnightblue" stroke="midnightblue" points="1088.87,-509 1098.87,-505.5 1088.87,-502 1088.87,-509"/>
</g>
<!-- Node18 -->
<g id="node18" class="node">
<title>Node18</title>
<g id="a_node18"><a xlink:href="classklyqa__ctl_1_1devices_1_1light_1_1response__status_1_1ResponseStatus.html#a762787729b726f6ad8bd5a9a3ae40a67" target="_top" xlink:title=" ">
<polygon fill="white" stroke="black" points="1348,-490.5 1348,-520.5 1535,-520.5 1535,-490.5 1348,-490.5"/>
<text text-anchor="start" x="1356" y="-508.5" font-family="Helvetica,sans-Serif" font-size="10.00">klyqa_ctl.devices.light.response</text>
<text text-anchor="middle" x="1441.5" y="-497.5" font-family="Helvetica,sans-Serif" font-size="10.00">_status.ResponseStatus.brightness</text>
</a>
</g>
</g>
<!-- Node17&#45;&gt;Node18 -->
<g id="edge17" class="edge">
<title>Node17&#45;&gt;Node18</title>
<path fill="none" stroke="midnightblue" d="M1297.23,-505.5C1310.55,-505.5 1324.25,-505.5 1337.64,-505.5"/>
<polygon fill="midnightblue" stroke="midnightblue" points="1337.82,-509 1347.82,-505.5 1337.82,-502 1337.82,-509"/>
</g>
<!-- Node22 -->
<g id="node22" class="node">
<title>Node22</title>
<g id="a_node22"><a xlink:href="classklyqa__ctl_1_1devices_1_1vacuum_1_1commands_1_1ProductinfoCommand.html#a1950a810783ab6312c31fa43dd06182c" target="_top" xlink:title=" ">
<polygon fill="white" stroke="black" points="1095,-392.5 1095,-422.5 1301,-422.5 1301,-392.5 1095,-392.5"/>
<text text-anchor="start" x="1103" y="-410.5" font-family="Helvetica,sans-Serif" font-size="10.00">klyqa_ctl.devices.vacuum.commands.</text>
<text text-anchor="middle" x="1198" y="-399.5" font-family="Helvetica,sans-Serif" font-size="10.00">ProductinfoCommand.productinfo_json</text>
</a>
</g>
</g>
<!-- Node21&#45;&gt;Node22 -->
<g id="edge21" class="edge">
<title>Node21&#45;&gt;Node22</title>
<path fill="none" stroke="midnightblue" d="M1053.01,-407.5C1063.49,-407.5 1074.19,-407.5 1084.79,-407.5"/>
<polygon fill="midnightblue" stroke="midnightblue" points="1084.91,-411 1094.91,-407.5 1084.91,-404 1084.91,-411"/>
</g>
<!-- Node24 -->
<g id="node24" class="node">
<title>Node24</title>
<g id="a_node24"><a xlink:href="classklyqa__ctl_1_1devices_1_1vacuum_1_1commands_1_1RequestGetCommand.html#a71be3cb060fa2c05f2762d13267c6144" target="_top" xlink:title=" ">
<polygon fill="white" stroke="black" points="1096.5,-343.5 1096.5,-373.5 1299.5,-373.5 1299.5,-343.5 1096.5,-343.5"/>
<text text-anchor="start" x="1104.5" y="-361.5" font-family="Helvetica,sans-Serif" font-size="10.00">klyqa_ctl.devices.vacuum.commands.</text>
<text text-anchor="middle" x="1198" y="-350.5" font-family="Helvetica,sans-Serif" font-size="10.00">RequestGetCommand.get_json</text>
</a>
</g>
</g>
<!-- Node23&#45;&gt;Node24 -->
<g id="edge23" class="edge">
<title>Node23&#45;&gt;Node24</title>
<path fill="none" stroke="midnightblue" d="M1053.01,-358.5C1064,-358.5 1075.23,-358.5 1086.34,-358.5"/>
<polygon fill="midnightblue" stroke="midnightblue" points="1086.49,-362 1096.49,-358.5 1086.49,-355 1086.49,-362"/>
</g>
<!-- Node26 -->
<g id="node26" class="node">
<title>Node26</title>
<g id="a_node26"><a xlink:href="classklyqa__ctl_1_1devices_1_1vacuum_1_1commands_1_1RequestResetCommand.html#a53de7ccfeb12e1b8f4c0ea8a82410d4e" target="_top" xlink:title=" ">
<polygon fill="white" stroke="black" points="1096.5,-245.5 1096.5,-275.5 1299.5,-275.5 1299.5,-245.5 1096.5,-245.5"/>
<text text-anchor="start" x="1104.5" y="-263.5" font-family="Helvetica,sans-Serif" font-size="10.00">klyqa_ctl.devices.vacuum.commands.</text>
<text text-anchor="middle" x="1198" y="-252.5" font-family="Helvetica,sans-Serif" font-size="10.00">RequestResetCommand.reset_json</text>
</a>
</g>
</g>
<!-- Node25&#45;&gt;Node26 -->
<g id="edge25" class="edge">
<title>Node25&#45;&gt;Node26</title>
<path fill="none" stroke="midnightblue" d="M1053.01,-260.5C1064,-260.5 1075.23,-260.5 1086.34,-260.5"/>
<polygon fill="midnightblue" stroke="midnightblue" points="1086.49,-264 1096.49,-260.5 1086.49,-257 1086.49,-264"/>
</g>
<!-- Node28 -->
<g id="node28" class="node">
<title>Node28</title>
<g id="a_node28"><a xlink:href="classklyqa__ctl_1_1devices_1_1vacuum_1_1commands_1_1RequestSetCommand.html#ac327b3b919e0d1a45ebe754e546f94f8" target="_top" xlink:title=" ">
<polygon fill="white" stroke="black" points="1096.5,-196.5 1096.5,-226.5 1299.5,-226.5 1299.5,-196.5 1096.5,-196.5"/>
<text text-anchor="start" x="1104.5" y="-214.5" font-family="Helvetica,sans-Serif" font-size="10.00">klyqa_ctl.devices.vacuum.commands.</text>
<text text-anchor="middle" x="1198" y="-203.5" font-family="Helvetica,sans-Serif" font-size="10.00">RequestSetCommand.set_json</text>
</a>
</g>
</g>
<!-- Node27&#45;&gt;Node28 -->
<g id="edge27" class="edge">
<title>Node27&#45;&gt;Node28</title>
<path fill="none" stroke="midnightblue" d="M1053.01,-211.5C1064,-211.5 1075.23,-211.5 1086.34,-211.5"/>
<polygon fill="midnightblue" stroke="midnightblue" points="1086.49,-215 1096.49,-211.5 1086.49,-208 1086.49,-215"/>
</g>
<!-- Node30 -->
<g id="node30" class="node">
<title>Node30</title>
<g id="a_node30"><a xlink:href="classklyqa__ctl_1_1devices_1_1vacuum_1_1commands_1_1RoutineCommand.html#acaf3db880f88d37bb1cf8218a309e52c" target="_top" xlink:title=" ">
<polygon fill="white" stroke="black" points="1096.5,-147.5 1096.5,-177.5 1299.5,-177.5 1299.5,-147.5 1096.5,-147.5"/>
<text text-anchor="start" x="1104.5" y="-165.5" font-family="Helvetica,sans-Serif" font-size="10.00">klyqa_ctl.devices.vacuum.commands.</text>
<text text-anchor="middle" x="1198" y="-154.5" font-family="Helvetica,sans-Serif" font-size="10.00">RoutineCommand.routine_json</text>
</a>
</g>
</g>
<!-- Node29&#45;&gt;Node30 -->
<g id="edge29" class="edge">
<title>Node29&#45;&gt;Node30</title>
<path fill="none" stroke="midnightblue" d="M1053.01,-162.5C1064,-162.5 1075.23,-162.5 1086.34,-162.5"/>
<polygon fill="midnightblue" stroke="midnightblue" points="1086.49,-166 1096.49,-162.5 1086.49,-159 1086.49,-166"/>
</g>
<!-- Node33 -->
<g id="node33" class="node">
<title>Node33</title>
<g id="a_node33"><a xlink:href="classklyqa__ctl_1_1devices_1_1response__message_1_1ResponseMessage.html#a076bcd25b3f41acdc763569b279c4545" target="_top" xlink:title=" ">
<polygon fill="white" stroke="black" points="1105.5,-0.5 1105.5,-30.5 1290.5,-30.5 1290.5,-0.5 1105.5,-0.5"/>
<text text-anchor="start" x="1113.5" y="-18.5" font-family="Helvetica,sans-Serif" font-size="10.00">klyqa_ctl.devices.response</text>
<text text-anchor="middle" x="1198" y="-7.5" font-family="Helvetica,sans-Serif" font-size="10.00">_message.ResponseMessage.type</text>
</a>
</g>
</g>
<!-- Node32&#45;&gt;Node33 -->
<g id="edge32" class="edge">
<title>Node32&#45;&gt;Node33</title>
<path fill="none" stroke="midnightblue" d="M1023.22,-15.5C1045.68,-15.5 1070.98,-15.5 1095.18,-15.5"/>
<polygon fill="midnightblue" stroke="midnightblue" points="1095.47,-19 1105.47,-15.5 1095.47,-12 1095.47,-19"/>
</g>
<!-- Node34&#45;&gt;Node7 -->
<g id="edge34" class="edge">
<title>Node34&#45;&gt;Node7</title>
<path fill="none" stroke="midnightblue" d="M799.76,-373.61C805.1,-376.85 809.96,-380.76 814,-385.5 884.83,-468.58 776.24,-548 850,-628.5 850.66,-629.22 851.34,-629.93 852.04,-630.61"/>
<polygon fill="midnightblue" stroke="midnightblue" points="850.14,-633.58 860.09,-637.22 854.58,-628.17 850.14,-633.58"/>
</g>
<!-- Node34&#45;&gt;Node9 -->
<g id="edge35" class="edge">
<title>Node34&#45;&gt;Node9</title>
<path fill="none" stroke="midnightblue" d="M796.62,-343.47C820.59,-338.17 847.72,-332.19 872.44,-326.73"/>
<polygon fill="midnightblue" stroke="midnightblue" points="873.5,-330.08 882.51,-324.51 871.99,-323.24 873.5,-330.08"/>
</g>
<!-- Node34&#45;&gt;Node10 -->
<g id="edge36" class="edge">
<title>Node34&#45;&gt;Node10</title>
<path fill="none" stroke="midnightblue" d="M799.18,-373.53C804.7,-376.78 809.77,-380.72 814,-385.5 872.1,-451.19 789.59,-515.93 850,-579.5 850.8,-580.35 851.63,-581.16 852.48,-581.95"/>
<polygon fill="midnightblue" stroke="midnightblue" points="850.65,-584.97 860.68,-588.38 854.97,-579.46 850.65,-584.97"/>
</g>
<!-- Node34&#45;&gt;Node13 -->
<g id="edge37" class="edge">
<title>Node34&#45;&gt;Node13</title>
<path fill="none" stroke="midnightblue" d="M798.47,-373.57C804.21,-376.81 809.52,-380.73 814,-385.5 859.46,-433.9 802.84,-483.76 850,-530.5 850.97,-531.46 851.97,-532.38 852.99,-533.27"/>
<polygon fill="midnightblue" stroke="midnightblue" points="851.24,-536.33 861.38,-539.43 855.39,-530.69 851.24,-536.33"/>
</g>
<!-- Node34&#45;&gt;Node16 -->
<g id="edge38" class="edge">
<title>Node34&#45;&gt;Node16</title>
<path fill="none" stroke="midnightblue" d="M797.07,-373.68C803.24,-376.9 809.03,-380.79 814,-385.5 847.06,-416.86 815.84,-451.34 850,-481.5 851.34,-482.68 852.73,-483.81 854.16,-484.89"/>
<polygon fill="midnightblue" stroke="midnightblue" points="852.48,-487.97 862.78,-490.48 856.29,-482.1 852.48,-487.97"/>
</g>
<!-- Node34&#45;&gt;Node19 -->
<g id="edge39" class="edge">
<title>Node34&#45;&gt;Node19</title>
<path fill="none" stroke="midnightblue" d="M802.32,-343.27C806.62,-340.52 810.58,-337.29 814,-333.5 873.33,-267.74 789.05,-201.76 850,-137.5 850.8,-136.65 851.63,-135.84 852.48,-135.04"/>
<polygon fill="midnightblue" stroke="midnightblue" points="854.97,-137.54 860.67,-128.61 850.64,-132.03 854.97,-137.54"/>
</g>
<!-- Node34&#45;&gt;Node20 -->
<g id="edge40" class="edge">
<title>Node34&#45;&gt;Node20</title>
<path fill="none" stroke="midnightblue" d="M802.09,-343.65C806.51,-340.82 810.55,-337.47 814,-333.5 886.25,-250.48 775.7,-169.69 850,-88.5 850.66,-87.78 851.34,-87.07 852.04,-86.39"/>
<polygon fill="midnightblue" stroke="midnightblue" points="854.58,-88.83 860.08,-79.78 850.14,-83.42 854.58,-88.83"/>
</g>
<!-- Node34&#45;&gt;Node21 -->
<g id="edge41" class="edge">
<title>Node34&#45;&gt;Node21</title>
<path fill="none" stroke="midnightblue" d="M796.62,-373.53C820.59,-378.83 847.72,-384.81 872.44,-390.27"/>
<polygon fill="midnightblue" stroke="midnightblue" points="871.99,-393.76 882.51,-392.49 873.5,-386.92 871.99,-393.76"/>
</g>
<!-- Node34&#45;&gt;Node23 -->
<g id="edge42" class="edge">
<title>Node34&#45;&gt;Node23</title>
<path fill="none" stroke="midnightblue" d="M802.11,-358.5C814.17,-358.5 826.88,-358.5 839.6,-358.5"/>
<polygon fill="midnightblue" stroke="midnightblue" points="839.78,-362 849.78,-358.5 839.78,-355 839.78,-362"/>
</g>
<!-- Node34&#45;&gt;Node25 -->
<g id="edge43" class="edge">
<title>Node34&#45;&gt;Node25</title>
<path fill="none" stroke="midnightblue" d="M795.82,-343.49C802.24,-340.7 808.43,-337.4 814,-333.5 836.14,-318 827.48,-299.44 850,-284.5 852.45,-282.87 855,-281.36 857.63,-279.94"/>
<polygon fill="midnightblue" stroke="midnightblue" points="859.33,-283.01 866.82,-275.52 856.29,-276.7 859.33,-283.01"/>
</g>
<!-- Node34&#45;&gt;Node27 -->
<g id="edge44" class="edge">
<title>Node34&#45;&gt;Node27</title>
<path fill="none" stroke="midnightblue" d="M799.98,-343.49C805.06,-340.71 809.82,-337.41 814,-333.5 847.9,-301.82 815.32,-266.33 850,-235.5 851.17,-234.46 852.38,-233.46 853.63,-232.5"/>
<polygon fill="midnightblue" stroke="midnightblue" points="855.88,-235.21 862.28,-226.76 852.01,-229.37 855.88,-235.21"/>
</g>
<!-- Node34&#45;&gt;Node29 -->
<g id="edge45" class="edge">
<title>Node34&#45;&gt;Node29</title>
<path fill="none" stroke="midnightblue" d="M801.68,-343.28C806.19,-340.53 810.37,-337.3 814,-333.5 860.5,-284.9 802.3,-233.93 850,-186.5 850.97,-185.54 851.96,-184.61 852.99,-183.72"/>
<polygon fill="midnightblue" stroke="midnightblue" points="855.39,-186.31 861.36,-177.56 851.24,-180.67 855.39,-186.31"/>
</g>
<!-- Node34&#45;&gt;Node31 -->
<g id="edge46" class="edge">
<title>Node34&#45;&gt;Node31</title>
<path fill="none" stroke="midnightblue" d="M791.78,-373.57C799.62,-376.83 807.24,-380.76 814,-385.5 835.54,-400.61 827.93,-418.17 850,-432.5 856.21,-436.53 863.02,-439.88 870.09,-442.67"/>
<polygon fill="midnightblue" stroke="midnightblue" points="869.26,-446.09 879.85,-446.14 871.6,-439.5 869.26,-446.09"/>
</g>
<!-- Node34&#45;&gt;Node32 -->
<g id="edge47" class="edge">
<title>Node34&#45;&gt;Node32</title>
<path fill="none" stroke="midnightblue" d="M802.2,-343.75C806.59,-340.89 810.6,-337.51 814,-333.5 899.22,-233.16 762.3,-137.67 850,-39.5 855.71,-33.11 862.79,-28.26 870.54,-24.61"/>
<polygon fill="midnightblue" stroke="midnightblue" points="871.91,-27.83 879.89,-20.86 869.3,-21.34 871.91,-27.83"/>
</g>
<!-- Node36&#45;&gt;Node4 -->
<g id="edge50" class="edge">
<title>Node36&#45;&gt;Node4</title>
<path fill="none" stroke="midnightblue" d="M549.1,-388.73C572.12,-402.4 607.83,-422.16 641,-434.5 649.1,-437.51 657.8,-440.17 666.44,-442.48"/>
<polygon fill="midnightblue" stroke="midnightblue" points="665.59,-445.88 676.14,-444.95 667.31,-439.09 665.59,-445.88"/>
</g>
<!-- Node36&#45;&gt;Node5 -->
<g id="edge51" class="edge">
<title>Node36&#45;&gt;Node5</title>
<path fill="none" stroke="midnightblue" d="M605.21,-387.88C619.09,-390.36 633.51,-392.93 647.35,-395.39"/>
<polygon fill="midnightblue" stroke="midnightblue" points="646.85,-398.86 657.31,-397.17 648.08,-391.97 646.85,-398.86"/>
</g>
<!-- Node36&#45;&gt;Node6 -->
<g id="edge52" class="edge">
<title>Node36&#45;&gt;Node6</title>
<path fill="none" stroke="midnightblue" d="M568.07,-358.47C589.9,-351.05 616.78,-342.09 641,-334.5 648.47,-332.16 656.33,-329.76 664.13,-327.43"/>
<polygon fill="midnightblue" stroke="midnightblue" points="665.36,-330.72 673.95,-324.52 663.37,-324.01 665.36,-330.72"/>
</g>
<!-- Node36&#45;&gt;Node34 -->
<g id="edge53" class="edge">
<title>Node36&#45;&gt;Node34</title>
<path fill="none" stroke="midnightblue" d="M605.21,-367.51C617.48,-366.6 630.18,-365.65 642.52,-364.74"/>
<polygon fill="midnightblue" stroke="midnightblue" points="643.08,-368.2 652.79,-363.97 642.56,-361.22 643.08,-368.2"/>
</g>
<!-- Node36&#45;&gt;Node35 -->
<g id="edge54" class="edge">
<title>Node36&#45;&gt;Node35</title>
<path fill="none" stroke="midnightblue" d="M540.11,-358.32C561.27,-338.54 601.04,-304.18 641,-284.5 649.49,-280.32 658.85,-276.82 668.17,-273.91"/>
<polygon fill="midnightblue" stroke="midnightblue" points="669.2,-277.25 677.82,-271.09 667.24,-270.53 669.2,-277.25"/>
</g>
</g>
</svg>
        <g id="navigator" transform="translate(0 0)" fill="#404254">
                <rect fill="#f2f5e9" fill-opacity="0.5" stroke="#606060" stroke-width=".5" x="0" y="0" width="60" height="60"/>
                <use id="zoomplus" xlink:href="#zoomPlus" x="17" y="9" onmousedown="handleZoom(evt,'in')"/>
                <use id="zoomminus" xlink:href="#zoomMin" x="42" y="9" onmousedown="handleZoom(evt,'out')"/>
                <use id="reset" xlink:href="#resetDef" x="30" y="36" onmousedown="handleReset()"/>
                <g id="arrowUp" xlink:href="#dirArrow" transform="translate(30 24)" onmousedown="handlePan(0,-1)">
                  <use xlink:href="#rim" fill="#404040">
                        <set attributeName="fill" to="#808080" begin="arrowUp.mouseover" end="arrowUp.mouseout"/>
                  </use>
                  <path fill="none" stroke="white" stroke-width="1.5" d="M0,-3.0v7 M-2.5,-0.5L0,-3.0L2.5,-0.5"/>
                </g>
                <g id="arrowRight" xlink:href="#dirArrow" transform="rotate(90) translate(36 -43)" onmousedown="handlePan(1,0)">
                  <use xlink:href="#rim" fill="#404040">
                        <set attributeName="fill" to="#808080" begin="arrowRight.mouseover" end="arrowRight.mouseout"/>
                  </use>
                  <path fill="none" stroke="white" stroke-width="1.5" d="M0,-3.0v7 M-2.5,-0.5L0,-3.0L2.5,-0.5"/>
                </g>
                <g id="arrowDown" xlink:href="#dirArrow" transform="rotate(180) translate(-30 -48)" onmousedown="handlePan(0,1)">
                  <use xlink:href="#rim" fill="#404040">
                        <set attributeName="fill" to="#808080" begin="arrowDown.mouseover" end="arrowDown.mouseout"/>
                  </use>
                  <path fill="none" stroke="white" stroke-width="1.5" d="M0,-3.0v7 M-2.5,-0.5L0,-3.0L2.5,-0.5"/>
                </g>
                <g id="arrowLeft" xlink:href="#dirArrow" transform="rotate(270) translate(-36 17)" onmousedown="handlePan(-1,0)">
                  <use xlink:href="#rim" fill="#404040">
                        <set attributeName="fill" to="#808080" begin="arrowLeft.mouseover" end="arrowLeft.mouseout"/>
                  </use>
                  <path fill="none" stroke="white" stroke-width="1.5" d="M0,-3.0v7 M-2.5,-0.5L0,-3.0L2.5,-0.5"/>
                </g>
        </g>
        <svg viewBox="0 0 15 15" width="100%" height="30px" preserveAspectRatio="xMaxYMin meet">
         <g id="arrow_out" transform="scale(0.3 0.3)">
          <a xlink:href="classklyqa__ctl_1_1account_1_1Account_a748c13aed7b2a5c9c605c81234633cb8_cgraph_org.svg" target="_base">
           <rect id="button" ry="5" rx="5" y="6" x="6" height="38" width="38"
                fill="#f2f5e9" fill-opacity="0.5" stroke="#606060" stroke-width="1.0"/>
           <path id="arrow"
             d="M 11.500037,31.436501 C 11.940474,20.09759 22.043105,11.32322 32.158766,21.979434 L 37.068811,17.246167 C 37.068811,17.246167 37.088388,32 37.088388,32 L 22.160133,31.978069 C 22.160133,31.978069 26.997745,27.140456 26.997745,27.140456 C 18.528582,18.264221 13.291696,25.230495 11.500037,31.436501 z"
             style="fill:#404040;"/>
          </a>
         </g>
        </svg>
</svg>
