<?xml version="1.0" encoding="UTF-8" standalone="no"?>
<!DOCTYPE svg PUBLIC "-//W3C//DTD SVG 1.1//EN"
 "http://www.w3.org/Graphics/SVG/1.1/DTD/svg11.dtd">
<!-- Generated by graphviz version 2.43.0 (0)
 -->
<!-- Title: klyqa_ctl.klyqa_ctl.Client.local Pages: 1 -->
<svg width="822pt" height="154pt"
 viewBox="0.00 0.00 822.00 153.50" xmlns="http://www.w3.org/2000/svg" xmlns:xlink="http://www.w3.org/1999/xlink">
<g id="graph0" class="graph" transform="scale(1 1) rotate(0) translate(4 149.5)">
<title>klyqa_ctl.klyqa_ctl.Client.local</title>
<polygon fill="white" stroke="transparent" points="-4,4 -4,-149.5 818,-149.5 818,4 -4,4"/>
<!-- Node1 -->
<g id="node1" class="node">
<title>Node1</title>
<g id="a_node1"><a xlink:title=" ">
<polygon fill="#bfbfbf" stroke="black" points="648,-57.5 648,-76.5 814,-76.5 814,-57.5 648,-57.5"/>
<text text-anchor="middle" x="731" y="-64.5" font-family="Helvetica,sans-Serif" font-size="10.00">klyqa_ctl.klyqa_ctl.Client.local</text>
</a>
</g>
</g>
<!-- Node2 -->
<g id="node2" class="node">
<title>Node2</title>
<g id="a_node2"><a xlink:href="classklyqa__ctl_1_1klyqa__ctl_1_1Client.html#aca681010a08f941d9f65888e99cd6374" target="_top" xlink:title=" ">
<polygon fill="white" stroke="black" points="428,-115 428,-145 612,-145 612,-115 428,-115"/>
<text text-anchor="start" x="436" y="-133" font-family="Helvetica,sans-Serif" font-size="10.00">klyqa_ctl.klyqa_ctl.Client.discover</text>
<text text-anchor="middle" x="520" y="-122" font-family="Helvetica,sans-Serif" font-size="10.00">_devices</text>
</a>
</g>
</g>
<!-- Node1&#45;&gt;Node2 -->
<g id="edge1" class="edge">
<title>Node1&#45;&gt;Node2</title>
<path fill="none" stroke="midnightblue" d="M688.25,-79.59C654.47,-89.77 606.79,-104.14 570.98,-114.93"/>
<polygon fill="midnightblue" stroke="midnightblue" points="689.69,-82.81 698.26,-76.57 687.67,-76.1 689.69,-82.81"/>
</g>
<!-- Node3 -->
<g id="node3" class="node">
<title>Node3</title>
<g id="a_node3"><a xlink:href="classklyqa__ctl_1_1klyqa__ctl_1_1Client.html#ad5c42cd8dd34ed1d6329040e164bfc2e" target="_top" xlink:title=" ">
<polygon fill="white" stroke="black" points="214,-77 214,-107 380,-107 380,-77 214,-77"/>
<text text-anchor="start" x="222" y="-95" font-family="Helvetica,sans-Serif" font-size="10.00">klyqa_ctl.klyqa_ctl.Client.send</text>
<text text-anchor="middle" x="297" y="-84" font-family="Helvetica,sans-Serif" font-size="10.00">_to_devices</text>
</a>
</g>
</g>
<!-- Node1&#45;&gt;Node3 -->
<g id="edge5" class="edge">
<title>Node1&#45;&gt;Node3</title>
<path fill="none" stroke="midnightblue" d="M637.88,-72.33C561.4,-76.76 453.62,-82.99 380.06,-87.25"/>
<polygon fill="midnightblue" stroke="midnightblue" points="638.2,-75.82 647.98,-71.75 637.8,-68.83 638.2,-75.82"/>
</g>
<!-- Node4 -->
<g id="node4" class="node">
<title>Node4</title>
<g id="a_node4"><a xlink:href="classklyqa__ctl_1_1klyqa__ctl_1_1Client.html#a7a93bda9f242d678a4208d0962837f11" target="_top" xlink:title=" ">
<polygon fill="white" stroke="black" points="0,-33 0,-63 166,-63 166,-33 0,-33"/>
<text text-anchor="start" x="8" y="-51" font-family="Helvetica,sans-Serif" font-size="10.00">klyqa_ctl.klyqa_ctl.Client.send</text>
<text text-anchor="middle" x="83" y="-40" font-family="Helvetica,sans-Serif" font-size="10.00">_to_devices_wrapped</text>
</a>
</g>
</g>
<!-- Node1&#45;&gt;Node4 -->
<g id="edge6" class="edge">
<title>Node1&#45;&gt;Node4</title>
<path fill="none" stroke="midnightblue" d="M637.82,-64.29C511.57,-60.58 286.8,-53.96 166.08,-50.41"/>
<polygon fill="midnightblue" stroke="midnightblue" points="637.76,-67.79 647.86,-64.58 637.96,-60.79 637.76,-67.79"/>
</g>
<!-- Node5 -->
<g id="node5" class="node">
<title>Node5</title>
<g id="a_node5"><a xlink:href="classklyqa__ctl_1_1klyqa__ctl_1_1Client.html#ac54c4bdc0dfa3897a09efe3655741bd0" target="_top" xlink:title=" ">
<polygon fill="white" stroke="black" points="202,-0.5 202,-19.5 392,-19.5 392,-0.5 202,-0.5"/>
<text text-anchor="middle" x="297" y="-7.5" font-family="Helvetica,sans-Serif" font-size="10.00">klyqa_ctl.klyqa_ctl.Client.shutdown</text>
</a>
</g>
</g>
<!-- Node1&#45;&gt;Node5 -->
<g id="edge7" class="edge">
<title>Node1&#45;&gt;Node5</title>
<path fill="none" stroke="midnightblue" d="M692.07,-54.34C669.14,-47.21 639.19,-38.79 612,-34 538.77,-21.09 454.73,-15.12 392.03,-12.37"/>
<polygon fill="midnightblue" stroke="midnightblue" points="691.16,-57.73 701.75,-57.41 693.27,-51.05 691.16,-57.73"/>
</g>
<!-- Node2&#45;&gt;Node3 -->
<g id="edge2" class="edge">
<title>Node2&#45;&gt;Node3</title>
<path fill="none" stroke="midnightblue" d="M421.61,-113.25C407.73,-110.87 393.58,-108.43 380.03,-106.11"/>
<polygon fill="midnightblue" stroke="midnightblue" points="421.21,-116.74 431.65,-114.98 422.39,-109.84 421.21,-116.74"/>
</g>
<!-- Node3&#45;&gt;Node3 -->
<g id="edge3" class="edge">
<title>Node3&#45;&gt;Node3</title>
<path fill="none" stroke="midnightblue" d="M335.03,-117.46C330.31,-122.18 317.63,-125.5 297,-125.5 263.14,-125.5 250.71,-116.56 259.71,-107.16"/>
<polygon fill="midnightblue" stroke="midnightblue" points="338.49,-116.89 334.29,-107.16 331.51,-117.38 338.49,-116.89"/>
</g>
<!-- Node3&#45;&gt;Node4 -->
<g id="edge4" class="edge">
<title>Node3&#45;&gt;Node4</title>
<path fill="none" stroke="midnightblue" d="M213.84,-74.95C194.9,-71.02 174.89,-66.86 156.4,-63.03"/>
<polygon fill="midnightblue" stroke="midnightblue" points="213.13,-78.38 223.63,-76.98 214.55,-71.52 213.13,-78.38"/>
</g>
<!-- Node5&#45;&gt;Node4 -->
<g id="edge8" class="edge">
<title>Node5&#45;&gt;Node4</title>
<path fill="none" stroke="midnightblue" d="M232.75,-21.34C211.84,-25.08 188.27,-29.31 166.17,-33.27"/>
<polygon fill="midnightblue" stroke="midnightblue" points="233.55,-24.75 242.78,-19.54 232.32,-17.86 233.55,-24.75"/>
</g>
</g>
</svg>
