<?xml version="1.0" encoding="UTF-8" standalone="no"?>
<!DOCTYPE svg PUBLIC "-//W3C//DTD SVG 1.1//EN"
 "http://www.w3.org/Graphics/SVG/1.1/DTD/svg11.dtd">
<!-- Generated by graphviz version 2.43.0 (0)
 -->
<!-- Title: local.connection_handler.LocalConnectionHandler.controller_data Pages: 1 -->
<svg width="1277pt" height="373pt"
 viewBox="0.00 0.00 1277.00 373.00" xmlns="http://www.w3.org/2000/svg" xmlns:xlink="http://www.w3.org/1999/xlink">
<g id="graph0" class="graph" transform="scale(1 1) rotate(0) translate(4 369)">
<title>local.connection_handler.LocalConnectionHandler.controller_data</title>
<polygon fill="white" stroke="transparent" points="-4,4 -4,-369 1273,-369 1273,4 -4,4"/>
<!-- Node1 -->
<g id="node1" class="node">
<title>Node1</title>
<g id="a_node1"><a xlink:title=" ">
<polygon fill="#bfbfbf" stroke="black" points="1058,-167.5 1058,-197.5 1269,-197.5 1269,-167.5 1058,-167.5"/>
<text text-anchor="start" x="1066" y="-185.5" font-family="Helvetica,sans-Serif" font-size="10.00">local.connection_handler.</text>
<text text-anchor="middle" x="1163.5" y="-174.5" font-family="Helvetica,sans-Serif" font-size="10.00">LocalConnectionHandler.controller_data</text>
</a>
</g>
</g>
<!-- Node2 -->
<g id="node2" class="node">
<title>Node2</title>
<g id="a_node2"><a xlink:href="classklyqa__ctl_1_1local__controller_1_1LocalController.html#ad820bb0d181aeb158a3177323ee35cdf" target="_top" xlink:title=" ">
<polygon fill="white" stroke="black" points="861,-334.5 861,-364.5 1002,-364.5 1002,-334.5 861,-334.5"/>
<text text-anchor="start" x="869" y="-352.5" font-family="Helvetica,sans-Serif" font-size="10.00">klyqa_ctl.local_controller.</text>
<text text-anchor="middle" x="931.5" y="-341.5" font-family="Helvetica,sans-Serif" font-size="10.00">LocalController.__init__</text>
</a>
</g>
</g>
<!-- Node1&#45;&gt;Node2 -->
<g id="edge1" class="edge">
<title>Node1&#45;&gt;Node2</title>
<path fill="none" stroke="midnightblue" d="M1145.95,-205.9C1122.18,-237.77 1075.31,-294.4 1022,-325.5 1015.89,-329.07 1009.23,-332.12 1002.4,-334.72"/>
<polygon fill="midnightblue" stroke="midnightblue" points="1148.94,-207.75 1152.03,-197.61 1143.3,-203.61 1148.94,-207.75"/>
</g>
<!-- Node3 -->
<g id="node3" class="node">
<title>Node3</title>
<g id="a_node3"><a xlink:href="classcloud_1_1CloudBackend.html#a566850b368080b6ff85ee2675aa9b3e2" target="_top" xlink:title=" ">
<polygon fill="white" stroke="black" points="864.5,-285.5 864.5,-315.5 998.5,-315.5 998.5,-285.5 864.5,-285.5"/>
<text text-anchor="start" x="872.5" y="-303.5" font-family="Helvetica,sans-Serif" font-size="10.00">cloud.CloudBackend.get</text>
<text text-anchor="middle" x="931.5" y="-292.5" font-family="Helvetica,sans-Serif" font-size="10.00">_device_configs</text>
</a>
</g>
</g>
<!-- Node1&#45;&gt;Node3 -->
<g id="edge2" class="edge">
<title>Node1&#45;&gt;Node3</title>
<path fill="none" stroke="midnightblue" d="M1135.94,-204.17C1108.8,-225.35 1064.69,-257.14 1022,-276.5 1014.53,-279.89 1006.48,-282.88 998.39,-285.5"/>
<polygon fill="midnightblue" stroke="midnightblue" points="1138.46,-206.65 1144.13,-197.7 1134.12,-201.15 1138.46,-206.65"/>
</g>
<!-- Node4 -->
<g id="node4" class="node">
<title>Node4</title>
<g id="a_node4"><a xlink:href="classklyqa__ctl_1_1account_1_1Account.html#adad4d644a9bbb3633405dac89e86edd3" target="_top" xlink:title=" ">
<polygon fill="white" stroke="black" points="850,-236.5 850,-266.5 1013,-266.5 1013,-236.5 850,-236.5"/>
<text text-anchor="start" x="858" y="-254.5" font-family="Helvetica,sans-Serif" font-size="10.00">klyqa_ctl.account.Account.get</text>
<text text-anchor="middle" x="931.5" y="-243.5" font-family="Helvetica,sans-Serif" font-size="10.00">_or_create_device</text>
</a>
</g>
</g>
<!-- Node1&#45;&gt;Node4 -->
<g id="edge3" class="edge">
<title>Node1&#45;&gt;Node4</title>
<path fill="none" stroke="midnightblue" d="M1102.57,-200.48C1065.28,-211.67 1017.87,-225.89 982.58,-236.48"/>
<polygon fill="midnightblue" stroke="midnightblue" points="1103.74,-203.78 1112.31,-197.56 1101.73,-197.08 1103.74,-203.78"/>
</g>
<!-- Node5 -->
<g id="node5" class="node">
<title>Node5</title>
<g id="a_node5"><a xlink:href="classklyqa__ctl_1_1account_1_1Account.html#a8e93f6fe918bf32c172447d4ef439d2d" target="_top" xlink:title=" ">
<polygon fill="white" stroke="black" points="627,-217.5 627,-247.5 797,-247.5 797,-217.5 627,-217.5"/>
<text text-anchor="start" x="635" y="-235.5" font-family="Helvetica,sans-Serif" font-size="10.00">klyqa_ctl.account.Account.sync</text>
<text text-anchor="middle" x="712" y="-224.5" font-family="Helvetica,sans-Serif" font-size="10.00">_acc_settings_to_controller</text>
</a>
</g>
</g>
<!-- Node1&#45;&gt;Node5 -->
<g id="edge14" class="edge">
<title>Node1&#45;&gt;Node5</title>
<path fill="none" stroke="midnightblue" d="M1047.58,-195.28C969.4,-203.98 867.7,-215.29 797.05,-223.15"/>
<polygon fill="midnightblue" stroke="midnightblue" points="1048.41,-198.71 1057.96,-194.13 1047.64,-191.76 1048.41,-198.71"/>
</g>
<!-- Node6 -->
<g id="node6" class="node">
<title>Node6</title>
<g id="a_node6"><a xlink:href="classlocal_1_1connection__handler_1_1LocalConnectionHandler.html#a4ce11db96280d000941a91cb37df2842" target="_top" xlink:title=" ">
<polygon fill="white" stroke="black" points="844,-138 844,-179 1019,-179 1019,-138 844,-138"/>
<text text-anchor="start" x="852" y="-167" font-family="Helvetica,sans-Serif" font-size="10.00">local.connection_handler.</text>
<text text-anchor="start" x="852" y="-156" font-family="Helvetica,sans-Serif" font-size="10.00">LocalConnectionHandler.process</text>
<text text-anchor="middle" x="931.5" y="-145" font-family="Helvetica,sans-Serif" font-size="10.00">_device_identity_package</text>
</a>
</g>
</g>
<!-- Node1&#45;&gt;Node6 -->
<g id="edge5" class="edge">
<title>Node1&#45;&gt;Node6</title>
<path fill="none" stroke="midnightblue" d="M1047.9,-170.54C1038.27,-169.54 1028.63,-168.53 1019.26,-167.55"/>
<polygon fill="midnightblue" stroke="midnightblue" points="1047.62,-174.03 1057.93,-171.59 1048.35,-167.07 1047.62,-174.03"/>
</g>
<!-- Node11 -->
<g id="node11" class="node">
<title>Node11</title>
<g id="a_node11"><a xlink:href="classklyqa__ctl_1_1account_1_1Account.html#a5ab3a2f4382c4437255871d4296cee9a" target="_top" xlink:title=" ">
<polygon fill="white" stroke="black" points="850,-88.5 850,-118.5 1013,-118.5 1013,-88.5 850,-88.5"/>
<text text-anchor="start" x="858" y="-106.5" font-family="Helvetica,sans-Serif" font-size="10.00">klyqa_ctl.account.Account.run</text>
<text text-anchor="middle" x="931.5" y="-95.5" font-family="Helvetica,sans-Serif" font-size="10.00">_password_prompt</text>
</a>
</g>
</g>
<!-- Node1&#45;&gt;Node11 -->
<g id="edge10" class="edge">
<title>Node1&#45;&gt;Node11</title>
<path fill="none" stroke="midnightblue" d="M1116.87,-163.7C1089.57,-152.78 1054.07,-139.11 1022,-128.5 1011.59,-125.05 1000.39,-121.67 989.56,-118.57"/>
<polygon fill="midnightblue" stroke="midnightblue" points="1115.58,-166.96 1126.16,-167.44 1118.19,-160.46 1115.58,-166.96"/>
</g>
<!-- Node14 -->
<g id="node14" class="node">
<title>Node14</title>
<g id="a_node14"><a xlink:href="classcloud_1_1CloudBackend.html#a8db40a99748dc3cc160e5093da0f84e8" target="_top" xlink:title=" ">
<polygon fill="white" stroke="black" points="861,-50 861,-69 1002,-69 1002,-50 861,-50"/>
<text text-anchor="middle" x="931.5" y="-57" font-family="Helvetica,sans-Serif" font-size="10.00">cloud.CloudBackend.send</text>
</a>
</g>
</g>
<!-- Node1&#45;&gt;Node14 -->
<g id="edge13" class="edge">
<title>Node1&#45;&gt;Node14</title>
<path fill="none" stroke="midnightblue" d="M1139.14,-160.19C1112.79,-136.3 1067.64,-99.06 1022,-78.5 1013.45,-74.65 1004.09,-71.57 994.75,-69.1"/>
<polygon fill="midnightblue" stroke="midnightblue" points="1136.96,-162.94 1146.69,-167.14 1141.7,-157.79 1136.96,-162.94"/>
</g>
<!-- Node15 -->
<g id="node15" class="node">
<title>Node15</title>
<g id="a_node15"><a xlink:href="classklyqa__ctl_1_1account_1_1Account.html#a4fb47c923d3a579054e8cc72480906fb" target="_top" xlink:title=" ">
<polygon fill="white" stroke="black" points="841,-0.5 841,-30.5 1022,-30.5 1022,-0.5 841,-0.5"/>
<text text-anchor="start" x="849" y="-18.5" font-family="Helvetica,sans-Serif" font-size="10.00">klyqa_ctl.account.Account.update</text>
<text text-anchor="middle" x="931.5" y="-7.5" font-family="Helvetica,sans-Serif" font-size="10.00">_device_configs</text>
</a>
</g>
</g>
<!-- Node1&#45;&gt;Node15 -->
<g id="edge15" class="edge">
<title>Node1&#45;&gt;Node15</title>
<path fill="none" stroke="midnightblue" d="M1145.5,-158.85C1121.51,-127.21 1074.74,-71.51 1022,-40.5 1015.46,-36.66 1008.31,-33.38 1000.99,-30.6"/>
<polygon fill="midnightblue" stroke="midnightblue" points="1142.86,-161.17 1151.64,-167.1 1148.47,-156.99 1142.86,-161.17"/>
</g>
<!-- Node4&#45;&gt;Node5 -->
<g id="edge4" class="edge">
<title>Node4&#45;&gt;Node5</title>
<path fill="none" stroke="midnightblue" d="M839.66,-243.56C825.59,-242.34 811.11,-241.07 797.19,-239.85"/>
<polygon fill="midnightblue" stroke="midnightblue" points="839.55,-247.07 849.82,-244.45 840.16,-240.1 839.55,-247.07"/>
</g>
<!-- Node7 -->
<g id="node7" class="node">
<title>Node7</title>
<g id="a_node7"><a xlink:href="classlocal_1_1connection__handler_1_1LocalConnectionHandler.html#aaa28266e241c2e30e8acd468fab06fde" target="_top" xlink:title=" ">
<polygon fill="white" stroke="black" points="624.5,-138 624.5,-179 799.5,-179 799.5,-138 624.5,-138"/>
<text text-anchor="start" x="632.5" y="-167" font-family="Helvetica,sans-Serif" font-size="10.00">local.connection_handler.</text>
<text text-anchor="start" x="632.5" y="-156" font-family="Helvetica,sans-Serif" font-size="10.00">LocalConnectionHandler.process</text>
<text text-anchor="middle" x="712" y="-145" font-family="Helvetica,sans-Serif" font-size="10.00">_tcp_package</text>
</a>
</g>
</g>
<!-- Node6&#45;&gt;Node7 -->
<g id="edge6" class="edge">
<title>Node6&#45;&gt;Node7</title>
<path fill="none" stroke="midnightblue" d="M833.59,-158.5C822.28,-158.5 810.8,-158.5 799.64,-158.5"/>
<polygon fill="midnightblue" stroke="midnightblue" points="833.91,-162 843.91,-158.5 833.91,-155 833.91,-162"/>
</g>
<!-- Node8 -->
<g id="node8" class="node">
<title>Node8</title>
<g id="a_node8"><a xlink:href="classlocal_1_1connection__handler_1_1LocalConnectionHandler.html#a900e05554022ee9ecb3ba5621369016d" target="_top" xlink:title=" ">
<polygon fill="white" stroke="black" points="412.5,-138 412.5,-179 582.5,-179 582.5,-138 412.5,-138"/>
<text text-anchor="start" x="420.5" y="-167" font-family="Helvetica,sans-Serif" font-size="10.00">local.connection_handler.</text>
<text text-anchor="start" x="420.5" y="-156" font-family="Helvetica,sans-Serif" font-size="10.00">LocalConnectionHandler.handle</text>
<text text-anchor="middle" x="497.5" y="-145" font-family="Helvetica,sans-Serif" font-size="10.00">_connection</text>
</a>
</g>
</g>
<!-- Node7&#45;&gt;Node8 -->
<g id="edge7" class="edge">
<title>Node7&#45;&gt;Node8</title>
<path fill="none" stroke="midnightblue" d="M614.19,-158.5C603.63,-158.5 592.95,-158.5 582.56,-158.5"/>
<polygon fill="midnightblue" stroke="midnightblue" points="614.26,-162 624.26,-158.5 614.26,-155 614.26,-162"/>
</g>
<!-- Node9 -->
<g id="node9" class="node">
<title>Node9</title>
<g id="a_node9"><a xlink:href="classlocal_1_1connection__handler_1_1LocalConnectionHandler.html#a0b582d0bf1523d1d0404867ab921539f" target="_top" xlink:title=" ">
<polygon fill="white" stroke="black" points="206,-138 206,-179 376,-179 376,-138 206,-138"/>
<text text-anchor="start" x="214" y="-167" font-family="Helvetica,sans-Serif" font-size="10.00">local.connection_handler.</text>
<text text-anchor="start" x="214" y="-156" font-family="Helvetica,sans-Serif" font-size="10.00">LocalConnectionHandler.device</text>
<text text-anchor="middle" x="291" y="-145" font-family="Helvetica,sans-Serif" font-size="10.00">_handle_local_tcp</text>
</a>
</g>
</g>
<!-- Node8&#45;&gt;Node9 -->
<g id="edge8" class="edge">
<title>Node8&#45;&gt;Node9</title>
<path fill="none" stroke="midnightblue" d="M402.24,-158.5C393.51,-158.5 384.7,-158.5 376.07,-158.5"/>
<polygon fill="midnightblue" stroke="midnightblue" points="402.44,-162 412.44,-158.5 402.44,-155 402.44,-162"/>
</g>
<!-- Node10 -->
<g id="node10" class="node">
<title>Node10</title>
<g id="a_node10"><a xlink:href="classlocal_1_1connection__handler_1_1LocalConnectionHandler.html#a5e9277acd0b7bfa5a1e74417e0e10d86" target="_top" xlink:title=" ">
<polygon fill="white" stroke="black" points="0,-138 0,-179 170,-179 170,-138 0,-138"/>
<text text-anchor="start" x="8" y="-167" font-family="Helvetica,sans-Serif" font-size="10.00">local.connection_handler.</text>
<text text-anchor="start" x="8" y="-156" font-family="Helvetica,sans-Serif" font-size="10.00">LocalConnectionHandler.handle</text>
<text text-anchor="middle" x="85" y="-145" font-family="Helvetica,sans-Serif" font-size="10.00">_incoming_tcp_connection</text>
</a>
</g>
</g>
<!-- Node9&#45;&gt;Node10 -->
<g id="edge9" class="edge">
<title>Node9&#45;&gt;Node10</title>
<path fill="none" stroke="midnightblue" d="M195.6,-158.5C187.15,-158.5 178.64,-158.5 170.29,-158.5"/>
<polygon fill="midnightblue" stroke="midnightblue" points="195.85,-162 205.85,-158.5 195.85,-155 195.85,-162"/>
</g>
<!-- Node12 -->
<g id="node12" class="node">
<title>Node12</title>
<g id="a_node12"><a xlink:href="classklyqa__ctl_1_1account_1_1Account.html#acbc09f2b1b4cb6b7ed771b96ea79613b" target="_top" xlink:title=" ">
<polygon fill="white" stroke="black" points="619,-88.5 619,-118.5 805,-118.5 805,-88.5 619,-88.5"/>
<text text-anchor="start" x="627" y="-106.5" font-family="Helvetica,sans-Serif" font-size="10.00">klyqa_ctl.account.Account.perform</text>
<text text-anchor="middle" x="712" y="-95.5" font-family="Helvetica,sans-Serif" font-size="10.00">_login</text>
</a>
</g>
</g>
<!-- Node11&#45;&gt;Node12 -->
<g id="edge11" class="edge">
<title>Node11&#45;&gt;Node12</title>
<path fill="none" stroke="midnightblue" d="M839.52,-103.5C828.2,-103.5 816.62,-103.5 805.28,-103.5"/>
<polygon fill="midnightblue" stroke="midnightblue" points="839.82,-107 849.82,-103.5 839.82,-100 839.82,-107"/>
</g>
<!-- Node13 -->
<g id="node13" class="node">
<title>Node13</title>
<g id="a_node13"><a xlink:href="classklyqa__ctl_1_1account_1_1Account.html#a0b171a600e4342d035ad26c39b384b38" target="_top" xlink:title=" ">
<polygon fill="white" stroke="black" points="412,-94 412,-113 583,-113 583,-94 412,-94"/>
<text text-anchor="middle" x="497.5" y="-101" font-family="Helvetica,sans-Serif" font-size="10.00">klyqa_ctl.account.Account.login</text>
</a>
</g>
</g>
<!-- Node12&#45;&gt;Node13 -->
<g id="edge12" class="edge">
<title>Node12&#45;&gt;Node13</title>
<path fill="none" stroke="midnightblue" d="M608.48,-103.5C600.06,-103.5 591.6,-103.5 583.33,-103.5"/>
<polygon fill="midnightblue" stroke="midnightblue" points="608.72,-107 618.72,-103.5 608.72,-100 608.72,-107"/>
</g>
</g>
</svg>
