<?xml version="1.0" encoding="UTF-8" standalone="no"?>
<!DOCTYPE svg PUBLIC "-//W3C//DTD SVG 1.1//EN"
 "http://www.w3.org/Graphics/SVG/1.1/DTD/svg11.dtd">
<!-- Generated by graphviz version 2.43.0 (0)
 -->
<!-- Title: klyqa_ctl.devices.light.commands.PowerCommand Pages: 1 -->
<svg width="356pt" height="447pt"
 viewBox="0.00 0.00 355.50 447.00" xmlns="http://www.w3.org/2000/svg" xmlns:xlink="http://www.w3.org/1999/xlink">
<g id="graph0" class="graph" transform="scale(1 1) rotate(0) translate(4 443)">
<title>klyqa_ctl.devices.light.commands.PowerCommand</title>
<polygon fill="white" stroke="transparent" points="-4,4 -4,-443 351.5,-443 351.5,4 -4,4"/>
<!-- Node1 -->
<g id="node1" class="node">
<title>Node1</title>
<g id="a_node1"><a xlink:title=" ">
<polygon fill="#bfbfbf" stroke="black" points="91,-0.5 91,-68.5 277,-68.5 277,-0.5 91,-0.5"/>
<text text-anchor="start" x="99" y="-56.5" font-family="Helvetica,sans-Serif" font-size="10.00">klyqa_ctl.devices.light.commands.</text>
<text text-anchor="middle" x="184" y="-45.5" font-family="Helvetica,sans-Serif" font-size="10.00">PowerCommand</text>
<polyline fill="none" stroke="black" points="91,-38.5 277,-38.5 "/>
<text text-anchor="start" x="99" y="-26.5" font-family="Helvetica,sans-Serif" font-size="10.00">+ str</text>
<polyline fill="none" stroke="black" points="91,-19.5 277,-19.5 "/>
<text text-anchor="middle" x="184" y="-7.5" font-family="Helvetica,sans-Serif" font-size="10.00"> </text>
</a>
</g>
</g>
<!-- Node2 -->
<g id="node2" class="node">
<title>Node2</title>
<g id="a_node2"><a xlink:href="classklyqa__ctl_1_1devices_1_1light_1_1commands_1_1RequestCommand.html" target="_top" xlink:title=" ">
<polygon fill="white" stroke="black" points="0,-105.5 0,-184.5 186,-184.5 186,-105.5 0,-105.5"/>
<text text-anchor="start" x="8" y="-172.5" font-family="Helvetica,sans-Serif" font-size="10.00">klyqa_ctl.devices.light.commands.</text>
<text text-anchor="middle" x="93" y="-161.5" font-family="Helvetica,sans-Serif" font-size="10.00">RequestCommand</text>
<polyline fill="none" stroke="black" points="0,-154.5 186,-154.5 "/>
<text text-anchor="start" x="8" y="-142.5" font-family="Helvetica,sans-Serif" font-size="10.00">+ type</text>
<polyline fill="none" stroke="black" points="0,-135.5 186,-135.5 "/>
<text text-anchor="start" x="8" y="-123.5" font-family="Helvetica,sans-Serif" font-size="10.00">+ None __post_init__</text>
<text text-anchor="start" x="8" y="-112.5" font-family="Helvetica,sans-Serif" font-size="10.00">(self)</text>
</a>
</g>
</g>
<!-- Node2&#45;&gt;Node1 -->
<g id="edge1" class="edge">
<title>Node2&#45;&gt;Node1</title>
<path fill="none" stroke="midnightblue" d="M131.85,-97.68C140.06,-87.88 148.58,-77.73 156.29,-68.54"/>
<polygon fill="none" stroke="midnightblue" points="129.08,-95.53 125.34,-105.44 134.45,-100.03 129.08,-95.53"/>
</g>
<!-- Node3 -->
<g id="node3" class="node">
<title>Node3</title>
<g id="a_node3"><a xlink:href="classklyqa__ctl_1_1general_1_1general_1_1CommandTyped.html" target="_top" xlink:title=" ">
<polygon fill="white" stroke="black" points="62.5,-221.5 62.5,-289.5 205.5,-289.5 205.5,-221.5 62.5,-221.5"/>
<text text-anchor="start" x="70.5" y="-277.5" font-family="Helvetica,sans-Serif" font-size="10.00">klyqa_ctl.general.general.</text>
<text text-anchor="middle" x="134" y="-266.5" font-family="Helvetica,sans-Serif" font-size="10.00">CommandTyped</text>
<polyline fill="none" stroke="black" points="62.5,-259.5 205.5,-259.5 "/>
<text text-anchor="start" x="70.5" y="-247.5" font-family="Helvetica,sans-Serif" font-size="10.00">+ str</text>
<polyline fill="none" stroke="black" points="62.5,-240.5 205.5,-240.5 "/>
<text text-anchor="start" x="70.5" y="-228.5" font-family="Helvetica,sans-Serif" font-size="10.00">+ TypeJson json(self)</text>
</a>
</g>
</g>
<!-- Node3&#45;&gt;Node2 -->
<g id="edge2" class="edge">
<title>Node3&#45;&gt;Node2</title>
<path fill="none" stroke="midnightblue" d="M117.88,-211.85C114.49,-202.88 110.94,-193.46 107.6,-184.65"/>
<polygon fill="none" stroke="midnightblue" points="114.67,-213.24 121.48,-221.36 121.22,-210.77 114.67,-213.24"/>
</g>
<!-- Node4 -->
<g id="node4" class="node">
<title>Node4</title>
<g id="a_node4"><a xlink:href="classklyqa__ctl_1_1general_1_1general_1_1Command.html" target="_top" xlink:title=" ">
<polygon fill="white" stroke="black" points="112.5,-326.5 112.5,-438.5 255.5,-438.5 255.5,-326.5 112.5,-326.5"/>
<text text-anchor="start" x="120.5" y="-426.5" font-family="Helvetica,sans-Serif" font-size="10.00">klyqa_ctl.general.general.</text>
<text text-anchor="middle" x="184" y="-415.5" font-family="Helvetica,sans-Serif" font-size="10.00">Command</text>
<polyline fill="none" stroke="black" points="112.5,-408.5 255.5,-408.5 "/>
<text text-anchor="start" x="120.5" y="-396.5" font-family="Helvetica,sans-Serif" font-size="10.00">+ TypeJson</text>
<text text-anchor="start" x="120.5" y="-385.5" font-family="Helvetica,sans-Serif" font-size="10.00">+ default_factory</text>
<polyline fill="none" stroke="black" points="112.5,-378.5 255.5,-378.5 "/>
<text text-anchor="start" x="120.5" y="-366.5" font-family="Helvetica,sans-Serif" font-size="10.00">+ TypeJson json(self)</text>
<text text-anchor="start" x="120.5" y="-355.5" font-family="Helvetica,sans-Serif" font-size="10.00">+ TypeJson cloud(self)</text>
<text text-anchor="start" x="120.5" y="-344.5" font-family="Helvetica,sans-Serif" font-size="10.00">+ str msg_str(self)</text>
<text text-anchor="start" x="120.5" y="-333.5" font-family="Helvetica,sans-Serif" font-size="10.00">+ str __str__(self)</text>
</a>
</g>
</g>
<!-- Node4&#45;&gt;Node3 -->
<g id="edge3" class="edge">
<title>Node4&#45;&gt;Node3</title>
<path fill="none" stroke="midnightblue" d="M158.14,-316.85C154.35,-307.38 150.59,-297.97 147.2,-289.51"/>
<polygon fill="none" stroke="midnightblue" points="154.96,-318.32 161.92,-326.31 161.46,-315.72 154.96,-318.32"/>
</g>
<!-- Node5 -->
<g id="node5" class="node">
<title>Node5</title>
<g id="a_node5"><a xlink:href="classklyqa__ctl_1_1general_1_1general_1_1CloudStateCommand.html" target="_top" xlink:title=" ">
<polygon fill="white" stroke="black" points="204.5,-111 204.5,-179 347.5,-179 347.5,-111 204.5,-111"/>
<text text-anchor="start" x="212.5" y="-167" font-family="Helvetica,sans-Serif" font-size="10.00">klyqa_ctl.general.general.</text>
<text text-anchor="middle" x="276" y="-156" font-family="Helvetica,sans-Serif" font-size="10.00">CloudStateCommand</text>
<polyline fill="none" stroke="black" points="204.5,-149 347.5,-149 "/>
<text text-anchor="middle" x="276" y="-137" font-family="Helvetica,sans-Serif" font-size="10.00"> </text>
<polyline fill="none" stroke="black" points="204.5,-130 347.5,-130 "/>
<text text-anchor="start" x="212.5" y="-118" font-family="Helvetica,sans-Serif" font-size="10.00">+ TypeJson cloud(self)</text>
</a>
</g>
</g>
<!-- Node4&#45;&gt;Node5 -->
<g id="edge5" class="edge">
<title>Node4&#45;&gt;Node5</title>
<path fill="none" stroke="midnightblue" d="M209.21,-316.96C226.66,-272.3 249.16,-214.7 263.08,-179.07"/>
<polygon fill="none" stroke="midnightblue" points="205.95,-315.7 205.57,-326.29 212.47,-318.24 205.95,-315.7"/>
</g>
<!-- Node5&#45;&gt;Node1 -->
<g id="edge4" class="edge">
<title>Node5&#45;&gt;Node1</title>
<path fill="none" stroke="midnightblue" d="M241.38,-103.17C231.77,-91.83 221.45,-79.66 212.25,-68.81"/>
<polygon fill="none" stroke="midnightblue" points="238.76,-105.49 247.9,-110.86 244.1,-100.97 238.76,-105.49"/>
</g>
</g>
</svg>
