<?xml version="1.0" encoding="UTF-8" standalone="no"?>
<!DOCTYPE svg PUBLIC "-//W3C//DTD SVG 1.1//EN"
 "http://www.w3.org/Graphics/SVG/1.1/DTD/svg11.dtd">
<!-- Generated by graphviz version 2.43.0 (0)
 -->
<!-- Title: klyqa_ctl.klyqa_ctl.Client.ctl_data Pages: 1 -->
<svg width="812pt" height="108pt"
 viewBox="0.00 0.00 812.00 108.29" xmlns="http://www.w3.org/2000/svg" xmlns:xlink="http://www.w3.org/1999/xlink">
<g id="graph0" class="graph" transform="scale(1 1) rotate(0) translate(4 104.29)">
<title>klyqa_ctl.klyqa_ctl.Client.ctl_data</title>
<polygon fill="white" stroke="transparent" points="-4,4 -4,-104.29 808,-104.29 808,4 -4,4"/>
<!-- Node1 -->
<g id="node1" class="node">
<title>Node1</title>
<g id="a_node1"><a xlink:title=" ">
<polygon fill="#bfbfbf" stroke="black" points="622,-14.29 622,-33.29 804,-33.29 804,-14.29 622,-14.29"/>
<text text-anchor="middle" x="713" y="-21.29" font-family="Helvetica,sans-Serif" font-size="10.00">klyqa_ctl.klyqa_ctl.Client.ctl_data</text>
</a>
</g>
</g>
<!-- Node2 -->
<g id="node2" class="node">
<title>Node2</title>
<g id="a_node2"><a xlink:href="classklyqa__ctl_1_1klyqa__ctl_1_1Client.html#aaec7befef976c0d962f191515e6f2579" target="_top" xlink:title=" ">
<polygon fill="white" stroke="black" points="404,-14.29 404,-33.29 586,-33.29 586,-14.29 404,-14.29"/>
<text text-anchor="middle" x="495" y="-21.29" font-family="Helvetica,sans-Serif" font-size="10.00">klyqa_ctl.klyqa_ctl.Client.ctl_data</text>
</a>
</g>
</g>
<!-- Node1&#45;&gt;Node2 -->
<g id="edge1" class="edge">
<title>Node1&#45;&gt;Node2</title>
<path fill="none" stroke="midnightblue" d="M611.94,-23.79C603.37,-23.79 594.73,-23.79 586.24,-23.79"/>
<polygon fill="midnightblue" stroke="midnightblue" points="611.96,-27.29 621.96,-23.79 611.96,-20.29 611.96,-27.29"/>
</g>
<!-- Node3 -->
<g id="node3" class="node">
<title>Node3</title>
<g id="a_node3"><a xlink:href="classklyqa__ctl_1_1klyqa__ctl_1_1Client.html#ad5c42cd8dd34ed1d6329040e164bfc2e" target="_top" xlink:title=" ">
<polygon fill="white" stroke="black" points="202,-51.79 202,-81.79 368,-81.79 368,-51.79 202,-51.79"/>
<text text-anchor="start" x="210" y="-69.79" font-family="Helvetica,sans-Serif" font-size="10.00">klyqa_ctl.klyqa_ctl.Client.send</text>
<text text-anchor="middle" x="285" y="-58.79" font-family="Helvetica,sans-Serif" font-size="10.00">_to_devices</text>
</a>
</g>
</g>
<!-- Node1&#45;&gt;Node3 -->
<g id="edge6" class="edge">
<title>Node1&#45;&gt;Node3</title>
<path fill="none" stroke="midnightblue" d="M644.69,-34.83C625.74,-37.7 605.09,-40.59 586,-42.79 512.55,-51.26 428.64,-57.7 368.28,-61.76"/>
<polygon fill="midnightblue" stroke="midnightblue" points="645.37,-38.27 654.72,-33.29 644.3,-31.35 645.37,-38.27"/>
</g>
<!-- Node4 -->
<g id="node4" class="node">
<title>Node4</title>
<g id="a_node4"><a xlink:href="classklyqa__ctl_1_1klyqa__ctl_1_1Client.html#a7a93bda9f242d678a4208d0962837f11" target="_top" xlink:title=" ">
<polygon fill="white" stroke="black" points="0,-7.79 0,-37.79 166,-37.79 166,-7.79 0,-7.79"/>
<text text-anchor="start" x="8" y="-25.79" font-family="Helvetica,sans-Serif" font-size="10.00">klyqa_ctl.klyqa_ctl.Client.send</text>
<text text-anchor="middle" x="83" y="-14.79" font-family="Helvetica,sans-Serif" font-size="10.00">_to_devices_wrapped</text>
</a>
</g>
</g>
<!-- Node1&#45;&gt;Node4 -->
<g id="edge7" class="edge">
<title>Node1&#45;&gt;Node4</title>
<path fill="none" stroke="midnightblue" d="M650.57,-12.65C630.1,-9.44 607.14,-6.38 586,-4.79 438.38,6.28 265.81,-5.25 166.28,-14.27"/>
<polygon fill="midnightblue" stroke="midnightblue" points="650.27,-16.14 660.7,-14.28 651.39,-9.23 650.27,-16.14"/>
</g>
<!-- Node2&#45;&gt;Node3 -->
<g id="edge2" class="edge">
<title>Node2&#45;&gt;Node3</title>
<path fill="none" stroke="midnightblue" d="M438.02,-35.36C413.59,-40.41 384.64,-46.4 358.59,-51.79"/>
<polygon fill="midnightblue" stroke="midnightblue" points="438.75,-38.79 447.84,-33.34 437.34,-31.93 438.75,-38.79"/>
</g>
<!-- Node2&#45;&gt;Node4 -->
<g id="edge5" class="edge">
<title>Node2&#45;&gt;Node4</title>
<path fill="none" stroke="midnightblue" d="M393.62,-23.55C323.68,-23.38 231.54,-23.15 166,-22.99"/>
<polygon fill="midnightblue" stroke="midnightblue" points="393.76,-27.05 403.77,-23.57 393.78,-20.05 393.76,-27.05"/>
</g>
<!-- Node3&#45;&gt;Node3 -->
<g id="edge3" class="edge">
<title>Node3&#45;&gt;Node3</title>
<path fill="none" stroke="midnightblue" d="M320.89,-92.25C316.44,-96.97 304.47,-100.29 285,-100.29 253.04,-100.29 241.31,-91.35 249.8,-81.95"/>
<polygon fill="midnightblue" stroke="midnightblue" points="324.36,-91.69 320.2,-81.95 317.38,-92.16 324.36,-91.69"/>
</g>
<!-- Node3&#45;&gt;Node4 -->
<g id="edge4" class="edge">
<title>Node3&#45;&gt;Node4</title>
<path fill="none" stroke="midnightblue" d="M205.51,-49.52C187.93,-45.66 169.42,-41.59 152.3,-37.82"/>
<polygon fill="midnightblue" stroke="midnightblue" points="205.21,-53.04 215.73,-51.77 206.72,-46.21 205.21,-53.04"/>
</g>
</g>
</svg>
