<?xml version="1.0" encoding="UTF-8" standalone="no"?>
<!DOCTYPE svg PUBLIC "-//W3C//DTD SVG 1.1//EN"
 "http://www.w3.org/Graphics/SVG/1.1/DTD/svg11.dtd">
<!-- Generated by graphviz version 2.43.0 (0)
 -->
<!-- Title: cloud.CloudBackend.host Pages: 1 -->
<svg width="763pt" height="127pt"
 viewBox="0.00 0.00 763.00 126.50" xmlns="http://www.w3.org/2000/svg" xmlns:xlink="http://www.w3.org/1999/xlink">
<g id="graph0" class="graph" transform="scale(1 1) rotate(0) translate(4 122.5)">
<title>cloud.CloudBackend.host</title>
<polygon fill="white" stroke="transparent" points="-4,4 -4,-122.5 759,-122.5 759,4 -4,4"/>
<!-- Node1 -->
<g id="node1" class="node">
<title>Node1</title>
<g id="a_node1"><a xlink:title=" ">
<polygon fill="#bfbfbf" stroke="black" points="616,-66.5 616,-85.5 755,-85.5 755,-66.5 616,-66.5"/>
<text text-anchor="middle" x="685.5" y="-73.5" font-family="Helvetica,sans-Serif" font-size="10.00">cloud.CloudBackend.host</text>
</a>
</g>
</g>
<!-- Node2 -->
<g id="node2" class="node">
<title>Node2</title>
<g id="a_node2"><a xlink:href="classcloud_1_1CloudBackend.html#a2aa84632596a773fb8d2f979138b2bda" target="_top" xlink:title=" ">
<polygon fill="white" stroke="black" points="422,-85 422,-115 580,-115 580,-85 422,-85"/>
<text text-anchor="start" x="430" y="-103" font-family="Helvetica,sans-Serif" font-size="10.00">cloud.CloudBackend.backend</text>
<text text-anchor="middle" x="501" y="-92" font-family="Helvetica,sans-Serif" font-size="10.00">_connected</text>
</a>
</g>
</g>
<!-- Node1&#45;&gt;Node2 -->
<g id="edge1" class="edge">
<title>Node1&#45;&gt;Node2</title>
<path fill="none" stroke="midnightblue" d="M605.58,-86.38C597.15,-87.49 588.58,-88.61 580.17,-89.72"/>
<polygon fill="midnightblue" stroke="midnightblue" points="606.31,-89.81 615.76,-85.04 605.39,-82.87 606.31,-89.81"/>
</g>
<!-- Node5 -->
<g id="node5" class="node">
<title>Node5</title>
<g id="a_node5"><a xlink:href="classcloud_1_1CloudBackend.html#a890d2669fa6b9550af8e14a17413aea2" target="_top" xlink:title=" ">
<polygon fill="white" stroke="black" points="423.5,-44.5 423.5,-63.5 578.5,-63.5 578.5,-44.5 423.5,-44.5"/>
<text text-anchor="middle" x="501" y="-51.5" font-family="Helvetica,sans-Serif" font-size="10.00">cloud.CloudBackend.request</text>
</a>
</g>
</g>
<!-- Node1&#45;&gt;Node5 -->
<g id="edge4" class="edge">
<title>Node1&#45;&gt;Node5</title>
<path fill="none" stroke="midnightblue" d="M605.71,-66.5C596.73,-65.42 587.58,-64.32 578.62,-63.24"/>
<polygon fill="midnightblue" stroke="midnightblue" points="605.42,-69.99 615.76,-67.71 606.26,-63.04 605.42,-69.99"/>
</g>
<!-- Node3 -->
<g id="node3" class="node">
<title>Node3</title>
<g id="a_node3"><a xlink:href="classklyqa__ctl_1_1account_1_1Account.html#aa78870d05cc7fa5899d61733d124e885" target="_top" xlink:title=" ">
<polygon fill="white" stroke="black" points="207,-88 207,-118 386,-118 386,-88 207,-88"/>
<text text-anchor="start" x="215" y="-106" font-family="Helvetica,sans-Serif" font-size="10.00">klyqa_ctl.account.Account.device</text>
<text text-anchor="middle" x="296.5" y="-95" font-family="Helvetica,sans-Serif" font-size="10.00">_request_and_print</text>
</a>
</g>
</g>
<!-- Node2&#45;&gt;Node3 -->
<g id="edge2" class="edge">
<title>Node2&#45;&gt;Node3</title>
<path fill="none" stroke="midnightblue" d="M411.76,-101.31C403.3,-101.43 394.72,-101.56 386.26,-101.69"/>
<polygon fill="midnightblue" stroke="midnightblue" points="412.05,-104.8 422,-101.16 411.95,-97.8 412.05,-104.8"/>
</g>
<!-- Node4 -->
<g id="node4" class="node">
<title>Node4</title>
<g id="a_node4"><a xlink:href="classklyqa__ctl_1_1account_1_1Account.html#a0b171a600e4342d035ad26c39b384b38" target="_top" xlink:title=" ">
<polygon fill="white" stroke="black" points="0,-93.5 0,-112.5 171,-112.5 171,-93.5 0,-93.5"/>
<text text-anchor="middle" x="85.5" y="-100.5" font-family="Helvetica,sans-Serif" font-size="10.00">klyqa_ctl.account.Account.login</text>
</a>
</g>
</g>
<!-- Node3&#45;&gt;Node4 -->
<g id="edge3" class="edge">
<title>Node3&#45;&gt;Node4</title>
<path fill="none" stroke="midnightblue" d="M196.86,-103C188.31,-103 179.71,-103 171.28,-103"/>
<polygon fill="midnightblue" stroke="midnightblue" points="196.87,-106.5 206.87,-103 196.87,-99.5 196.87,-106.5"/>
</g>
<!-- Node6 -->
<g id="node6" class="node">
<title>Node6</title>
<g id="a_node6"><a xlink:href="classcloud_1_1CloudBackend.html#a58e4bd598358583c0eb7c50fdf0c6bc1" target="_top" xlink:title=" ">
<polygon fill="white" stroke="black" points="229.5,-39 229.5,-69 363.5,-69 363.5,-39 229.5,-39"/>
<text text-anchor="start" x="237.5" y="-57" font-family="Helvetica,sans-Serif" font-size="10.00">cloud.CloudBackend.get</text>
<text text-anchor="middle" x="296.5" y="-46" font-family="Helvetica,sans-Serif" font-size="10.00">_device_config</text>
</a>
</g>
</g>
<!-- Node5&#45;&gt;Node6 -->
<g id="edge5" class="edge">
<title>Node5&#45;&gt;Node6</title>
<path fill="none" stroke="midnightblue" d="M413.18,-54C396.55,-54 379.4,-54 363.56,-54"/>
<polygon fill="midnightblue" stroke="midnightblue" points="413.44,-57.5 423.44,-54 413.44,-50.5 413.44,-57.5"/>
</g>
<!-- Node8 -->
<g id="node8" class="node">
<title>Node8</title>
<g id="a_node8"><a xlink:href="classcloud_1_1CloudBackend.html#a8db40a99748dc3cc160e5093da0f84e8" target="_top" xlink:title=" ">
<polygon fill="white" stroke="black" points="226,-0.5 226,-19.5 367,-19.5 367,-0.5 226,-0.5"/>
<text text-anchor="middle" x="296.5" y="-7.5" font-family="Helvetica,sans-Serif" font-size="10.00">cloud.CloudBackend.send</text>
</a>
</g>
</g>
<!-- Node5&#45;&gt;Node8 -->
<g id="edge7" class="edge">
<title>Node5&#45;&gt;Node8</title>
<path fill="none" stroke="midnightblue" d="M446.19,-42.31C413.43,-35.19 372.12,-26.21 341.35,-19.53"/>
<polygon fill="midnightblue" stroke="midnightblue" points="445.55,-45.75 456.06,-44.45 447.03,-38.91 445.55,-45.75"/>
</g>
<!-- Node7 -->
<g id="node7" class="node">
<title>Node7</title>
<g id="a_node7"><a xlink:href="classcloud_1_1CloudBackend.html#a566850b368080b6ff85ee2675aa9b3e2" target="_top" xlink:title=" ">
<polygon fill="white" stroke="black" points="18.5,-39 18.5,-69 152.5,-69 152.5,-39 18.5,-39"/>
<text text-anchor="start" x="26.5" y="-57" font-family="Helvetica,sans-Serif" font-size="10.00">cloud.CloudBackend.get</text>
<text text-anchor="middle" x="85.5" y="-46" font-family="Helvetica,sans-Serif" font-size="10.00">_device_configs</text>
</a>
</g>
</g>
<!-- Node6&#45;&gt;Node7 -->
<g id="edge6" class="edge">
<title>Node6&#45;&gt;Node7</title>
<path fill="none" stroke="midnightblue" d="M219.15,-54C197.32,-54 173.72,-54 152.56,-54"/>
<polygon fill="midnightblue" stroke="midnightblue" points="219.37,-57.5 229.37,-54 219.37,-50.5 219.37,-57.5"/>
</g>
</g>
</svg>
