<?xml version="1.0" encoding="UTF-8" standalone="no"?>
<!DOCTYPE svg PUBLIC "-//W3C//DTD SVG 1.1//EN"
 "http://www.w3.org/Graphics/SVG/1.1/DTD/svg11.dtd">
<!-- Generated by graphviz version 2.43.0 (0)
 -->
<!-- Title: klyqa_ctl.klyqa_ctl.Client.add_account Pages: 1 -->
<svg width="1117pt" height="676pt"
 viewBox="0.00 0.00 1117.00 676.00" xmlns="http://www.w3.org/2000/svg" xmlns:xlink="http://www.w3.org/1999/xlink">
<g id="graph0" class="graph" transform="scale(1 1) rotate(0) translate(4 672)">
<title>klyqa_ctl.klyqa_ctl.Client.add_account</title>
<polygon fill="white" stroke="transparent" points="-4,4 -4,-672 1113,-672 1113,4 -4,4"/>
<!-- Node1 -->
<g id="node1" class="node">
<title>Node1</title>
<g id="a_node1"><a xlink:title=" ">
<polygon fill="#bfbfbf" stroke="black" points="0,-367.5 0,-397.5 161,-397.5 161,-367.5 0,-367.5"/>
<text text-anchor="start" x="8" y="-385.5" font-family="Helvetica,sans-Serif" font-size="10.00">klyqa_ctl.klyqa_ctl.Client.add</text>
<text text-anchor="middle" x="80.5" y="-374.5" font-family="Helvetica,sans-Serif" font-size="10.00">_account</text>
</a>
</g>
</g>
<!-- Node2 -->
<g id="node2" class="node">
<title>Node2</title>
<g id="a_node2"><a xlink:href="classklyqa__ctl_1_1klyqa__ctl_1_1Client.html#a61a7eb1acfc9b763efe83dcda25ba552" target="_top" xlink:title=" ">
<polygon fill="white" stroke="black" points="197,-480 197,-499 383,-499 383,-480 197,-480"/>
<text text-anchor="middle" x="290" y="-487" font-family="Helvetica,sans-Serif" font-size="10.00">klyqa_ctl.klyqa_ctl.Client.accounts</text>
</a>
</g>
</g>
<!-- Node1&#45;&gt;Node2 -->
<g id="edge1" class="edge">
<title>Node1&#45;&gt;Node2</title>
<path fill="none" stroke="midnightblue" d="M96.46,-397.52C117.17,-417.41 156.62,-452.11 197,-470.5 202.42,-472.97 208.17,-475.12 214.03,-476.99"/>
<polygon fill="midnightblue" stroke="midnightblue" points="213.41,-480.46 223.99,-479.89 215.37,-473.74 213.41,-480.46"/>
</g>
<!-- Node3 -->
<g id="node3" class="node">
<title>Node3</title>
<g id="a_node3"><a xlink:href="classklyqa__ctl_1_1account_1_1Account.html#aeb463ade6756bf093a809634f64c6ef6" target="_top" xlink:title=" ">
<polygon fill="white" stroke="black" points="203.5,-442 203.5,-461 376.5,-461 376.5,-442 203.5,-442"/>
<text text-anchor="middle" x="290" y="-449" font-family="Helvetica,sans-Serif" font-size="10.00">klyqa_ctl.account.Account.cloud</text>
</a>
</g>
</g>
<!-- Node1&#45;&gt;Node3 -->
<g id="edge2" class="edge">
<title>Node1&#45;&gt;Node3</title>
<path fill="none" stroke="midnightblue" d="M111.73,-397.62C134.66,-408.59 167.21,-423.08 197,-432.5 205.57,-435.21 214.7,-437.63 223.77,-439.76"/>
<polygon fill="midnightblue" stroke="midnightblue" points="223.03,-443.18 233.55,-441.96 224.57,-436.35 223.03,-443.18"/>
</g>
<!-- Node4 -->
<g id="node4" class="node">
<title>Node4</title>
<g id="a_node4"><a xlink:href="classklyqa__ctl_1_1devices_1_1device_1_1Device.html#a574647293c61d5f53e153d48ddb31f65" target="_top" xlink:title=" ">
<polygon fill="white" stroke="black" points="220,-392.5 220,-422.5 360,-422.5 360,-392.5 220,-392.5"/>
<text text-anchor="start" x="228" y="-410.5" font-family="Helvetica,sans-Serif" font-size="10.00">klyqa_ctl.devices.device.</text>
<text text-anchor="middle" x="290" y="-399.5" font-family="Helvetica,sans-Serif" font-size="10.00">Device.cloud</text>
</a>
</g>
</g>
<!-- Node1&#45;&gt;Node4 -->
<g id="edge3" class="edge">
<title>Node1&#45;&gt;Node4</title>
<path fill="none" stroke="midnightblue" d="M161.13,-392.09C176.98,-394 193.61,-396.01 209.46,-397.92"/>
<polygon fill="midnightblue" stroke="midnightblue" points="209.39,-401.43 219.73,-399.15 210.22,-394.48 209.39,-401.43"/>
</g>
<!-- Node5 -->
<g id="node5" class="node">
<title>Node5</title>
<g id="a_node5"><a xlink:href="classklyqa__ctl_1_1general_1_1general_1_1Command.html#a4aa9e4db12aecf5520e974204c635d38" target="_top" xlink:title=" ">
<polygon fill="white" stroke="black" points="218.5,-343.5 218.5,-373.5 361.5,-373.5 361.5,-343.5 218.5,-343.5"/>
<text text-anchor="start" x="226.5" y="-361.5" font-family="Helvetica,sans-Serif" font-size="10.00">klyqa_ctl.general.general.</text>
<text text-anchor="middle" x="290" y="-350.5" font-family="Helvetica,sans-Serif" font-size="10.00">Command.cloud</text>
</a>
</g>
</g>
<!-- Node1&#45;&gt;Node5 -->
<g id="edge4" class="edge">
<title>Node1&#45;&gt;Node5</title>
<path fill="none" stroke="midnightblue" d="M161.13,-373.29C176.6,-371.5 192.83,-369.62 208.33,-367.83"/>
<polygon fill="midnightblue" stroke="midnightblue" points="208.87,-371.29 218.4,-366.67 208.06,-364.34 208.87,-371.29"/>
</g>
<!-- Node33 -->
<g id="node33" class="node">
<title>Node33</title>
<g id="a_node33"><a xlink:href="classklyqa__ctl_1_1general_1_1general_1_1CloudStateCommand.html#a6bbc8b1333f0a45ce38f1e81a6093bc1" target="_top" xlink:title=" ">
<polygon fill="white" stroke="black" points="215.5,-294.5 215.5,-324.5 364.5,-324.5 364.5,-294.5 215.5,-294.5"/>
<text text-anchor="start" x="223.5" y="-312.5" font-family="Helvetica,sans-Serif" font-size="10.00">klyqa_ctl.general.general.</text>
<text text-anchor="middle" x="290" y="-301.5" font-family="Helvetica,sans-Serif" font-size="10.00">CloudStateCommand.cloud</text>
</a>
</g>
</g>
<!-- Node1&#45;&gt;Node33 -->
<g id="edge32" class="edge">
<title>Node1&#45;&gt;Node33</title>
<path fill="none" stroke="midnightblue" d="M114.42,-367.49C137.3,-357.39 168.65,-344.2 197,-334.5 204.27,-332.01 211.92,-329.61 219.59,-327.33"/>
<polygon fill="midnightblue" stroke="midnightblue" points="220.64,-330.67 229.27,-324.53 218.69,-323.95 220.64,-330.67"/>
</g>
<!-- Node34 -->
<g id="node34" class="node">
<title>Node34</title>
<g id="a_node34"><a xlink:href="classklyqa__ctl_1_1klyqa__ctl_1_1Client.html#a7d8a302d936e8e1889f175bac259f565" target="_top" xlink:title=" ">
<polygon fill="white" stroke="black" points="205.5,-256 205.5,-275 374.5,-275 374.5,-256 205.5,-256"/>
<text text-anchor="middle" x="290" y="-263" font-family="Helvetica,sans-Serif" font-size="10.00">klyqa_ctl.klyqa_ctl.Client.cloud</text>
</a>
</g>
</g>
<!-- Node1&#45;&gt;Node34 -->
<g id="edge47" class="edge">
<title>Node1&#45;&gt;Node34</title>
<path fill="none" stroke="midnightblue" d="M94.81,-367.42C114.78,-345.79 154.69,-306.27 197,-285.5 202.78,-282.66 208.95,-280.23 215.27,-278.13"/>
<polygon fill="midnightblue" stroke="midnightblue" points="216.71,-281.36 225.27,-275.12 214.69,-274.65 216.71,-281.36"/>
</g>
<!-- Node6 -->
<g id="node6" class="node">
<title>Node6</title>
<g id="a_node6"><a xlink:href="classklyqa__ctl_1_1devices_1_1light_1_1commands_1_1FwUpdateCommand.html#a9de3441c7fbba5f5a19ea914970a3db7" target="_top" xlink:title=" ">
<polygon fill="white" stroke="black" points="427.5,-637.5 427.5,-667.5 613.5,-667.5 613.5,-637.5 427.5,-637.5"/>
<text text-anchor="start" x="435.5" y="-655.5" font-family="Helvetica,sans-Serif" font-size="10.00">klyqa_ctl.devices.light.commands.</text>
<text text-anchor="middle" x="520.5" y="-644.5" font-family="Helvetica,sans-Serif" font-size="10.00">FwUpdateCommand.json</text>
</a>
</g>
</g>
<!-- Node5&#45;&gt;Node6 -->
<g id="edge5" class="edge">
<title>Node5&#45;&gt;Node6</title>
<path fill="none" stroke="midnightblue" d="M361.82,-368.35C369.82,-372.02 377.18,-376.94 383,-383.5 456.04,-465.83 344.7,-547.31 419,-628.5 419.66,-629.22 420.34,-629.93 421.04,-630.61"/>
<polygon fill="midnightblue" stroke="midnightblue" points="419.14,-633.58 429.08,-637.22 423.58,-628.17 419.14,-633.58"/>
</g>
<!-- Node8 -->
<g id="node8" class="node">
<title>Node8</title>
<g id="a_node8"><a xlink:href="classklyqa__ctl_1_1devices_1_1light_1_1commands_1_1TransitionCommand.html#aaf9d8431e346c86b9959102c2d7f3316" target="_top" xlink:title=" ">
<polygon fill="white" stroke="black" points="427.5,-294.5 427.5,-324.5 613.5,-324.5 613.5,-294.5 427.5,-294.5"/>
<text text-anchor="start" x="435.5" y="-312.5" font-family="Helvetica,sans-Serif" font-size="10.00">klyqa_ctl.devices.light.commands.</text>
<text text-anchor="middle" x="520.5" y="-301.5" font-family="Helvetica,sans-Serif" font-size="10.00">TransitionCommand.json</text>
</a>
</g>
</g>
<!-- Node5&#45;&gt;Node8 -->
<g id="edge7" class="edge">
<title>Node5&#45;&gt;Node8</title>
<path fill="none" stroke="midnightblue" d="M361.11,-343.47C385.89,-338.15 413.95,-332.13 439.5,-326.66"/>
<polygon fill="midnightblue" stroke="midnightblue" points="440.48,-330.03 449.52,-324.51 439.01,-323.18 440.48,-330.03"/>
</g>
<!-- Node9 -->
<g id="node9" class="node">
<title>Node9</title>
<g id="a_node9"><a xlink:href="classklyqa__ctl_1_1devices_1_1light_1_1commands_1_1ColorCommand.html#afa8f262e4047666707237c4dfe8615c3" target="_top" xlink:title=" ">
<polygon fill="white" stroke="black" points="427.5,-588.5 427.5,-618.5 613.5,-618.5 613.5,-588.5 427.5,-588.5"/>
<text text-anchor="start" x="435.5" y="-606.5" font-family="Helvetica,sans-Serif" font-size="10.00">klyqa_ctl.devices.light.commands.</text>
<text text-anchor="middle" x="520.5" y="-595.5" font-family="Helvetica,sans-Serif" font-size="10.00">ColorCommand.json</text>
</a>
</g>
</g>
<!-- Node5&#45;&gt;Node9 -->
<g id="edge8" class="edge">
<title>Node5&#45;&gt;Node9</title>
<path fill="none" stroke="midnightblue" d="M361.6,-368.55C369.64,-372.19 377.06,-377.04 383,-383.5 442.95,-448.69 358.05,-515.24 419,-579.5 419.8,-580.35 420.63,-581.16 421.48,-581.96"/>
<polygon fill="midnightblue" stroke="midnightblue" points="419.64,-584.97 429.67,-588.39 423.97,-579.46 419.64,-584.97"/>
</g>
<!-- Node12 -->
<g id="node12" class="node">
<title>Node12</title>
<g id="a_node12"><a xlink:href="classklyqa__ctl_1_1devices_1_1light_1_1commands_1_1TemperatureCommand.html#aaa297cd598227ab2f33a6d111532e5e0" target="_top" xlink:title=" ">
<polygon fill="white" stroke="black" points="427.5,-539.5 427.5,-569.5 613.5,-569.5 613.5,-539.5 427.5,-539.5"/>
<text text-anchor="start" x="435.5" y="-557.5" font-family="Helvetica,sans-Serif" font-size="10.00">klyqa_ctl.devices.light.commands.</text>
<text text-anchor="middle" x="520.5" y="-546.5" font-family="Helvetica,sans-Serif" font-size="10.00">TemperatureCommand.json</text>
</a>
</g>
</g>
<!-- Node5&#45;&gt;Node12 -->
<g id="edge11" class="edge">
<title>Node5&#45;&gt;Node12</title>
<path fill="none" stroke="midnightblue" d="M361.71,-369.09C369.63,-372.65 376.99,-377.34 383,-383.5 429.96,-431.66 371.3,-483.07 419,-530.5 419.97,-531.46 420.96,-532.39 421.99,-533.28"/>
<polygon fill="midnightblue" stroke="midnightblue" points="420.24,-536.33 430.36,-539.44 424.39,-530.69 420.24,-536.33"/>
</g>
<!-- Node15 -->
<g id="node15" class="node">
<title>Node15</title>
<g id="a_node15"><a xlink:href="classklyqa__ctl_1_1devices_1_1light_1_1commands_1_1BrightnessCommand.html#a946e7180dd8f3bd4621c23b24e63469a" target="_top" xlink:title=" ">
<polygon fill="white" stroke="black" points="427.5,-490.5 427.5,-520.5 613.5,-520.5 613.5,-490.5 427.5,-490.5"/>
<text text-anchor="start" x="435.5" y="-508.5" font-family="Helvetica,sans-Serif" font-size="10.00">klyqa_ctl.devices.light.commands.</text>
<text text-anchor="middle" x="520.5" y="-497.5" font-family="Helvetica,sans-Serif" font-size="10.00">BrightnessCommand.json</text>
</a>
</g>
</g>
<!-- Node5&#45;&gt;Node15 -->
<g id="edge14" class="edge">
<title>Node5&#45;&gt;Node15</title>
<path fill="none" stroke="midnightblue" d="M361.53,-369.94C369.38,-373.37 376.78,-377.8 383,-383.5 417.2,-414.86 384.32,-450.67 419,-481.5 420.17,-482.54 421.38,-483.54 422.63,-484.5"/>
<polygon fill="midnightblue" stroke="midnightblue" points="421.01,-487.63 431.28,-490.24 424.88,-481.79 421.01,-487.63"/>
</g>
<!-- Node18 -->
<g id="node18" class="node">
<title>Node18</title>
<g id="a_node18"><a xlink:href="classklyqa__ctl_1_1devices_1_1light_1_1commands_1_1ExternalSourceCommand.html#a393710b54f709b852bfd0f3769c39ce6" target="_top" xlink:title=" ">
<polygon fill="white" stroke="black" points="427.5,-98.5 427.5,-128.5 613.5,-128.5 613.5,-98.5 427.5,-98.5"/>
<text text-anchor="start" x="435.5" y="-116.5" font-family="Helvetica,sans-Serif" font-size="10.00">klyqa_ctl.devices.light.commands.</text>
<text text-anchor="middle" x="520.5" y="-105.5" font-family="Helvetica,sans-Serif" font-size="10.00">ExternalSourceCommand.json</text>
</a>
</g>
</g>
<!-- Node5&#45;&gt;Node18 -->
<g id="edge17" class="edge">
<title>Node5&#45;&gt;Node18</title>
<path fill="none" stroke="midnightblue" d="M361.57,-349.25C369.61,-345.69 377.05,-340.91 383,-334.5 443.28,-269.61 358.35,-203.04 419,-138.5 420.23,-137.19 421.51,-135.95 422.85,-134.77"/>
<polygon fill="midnightblue" stroke="midnightblue" points="425.1,-137.45 431,-128.65 420.9,-131.85 425.1,-137.45"/>
</g>
<!-- Node19 -->
<g id="node19" class="node">
<title>Node19</title>
<g id="a_node19"><a xlink:href="classklyqa__ctl_1_1devices_1_1light_1_1commands_1_1RoutineCommand.html#af3395a663a3dbdff8117ee708f80adec" target="_top" xlink:title=" ">
<polygon fill="white" stroke="black" points="427.5,-49.5 427.5,-79.5 613.5,-79.5 613.5,-49.5 427.5,-49.5"/>
<text text-anchor="start" x="435.5" y="-67.5" font-family="Helvetica,sans-Serif" font-size="10.00">klyqa_ctl.devices.light.commands.</text>
<text text-anchor="middle" x="520.5" y="-56.5" font-family="Helvetica,sans-Serif" font-size="10.00">RoutineCommand.json</text>
</a>
</g>
</g>
<!-- Node5&#45;&gt;Node19 -->
<g id="edge18" class="edge">
<title>Node5&#45;&gt;Node19</title>
<path fill="none" stroke="midnightblue" d="M361.79,-349.45C369.8,-345.86 377.16,-341.01 383,-334.5 456.46,-252.54 345.08,-171.04 419,-89.5 420.06,-88.33 421.16,-87.22 422.3,-86.15"/>
<polygon fill="midnightblue" stroke="midnightblue" points="424.69,-88.73 430.39,-79.79 420.37,-83.22 424.69,-88.73"/>
</g>
<!-- Node20 -->
<g id="node20" class="node">
<title>Node20</title>
<g id="a_node20"><a xlink:href="classklyqa__ctl_1_1devices_1_1vacuum_1_1commands_1_1ProductinfoCommand.html#a23d375f048835d4b0f12602764d2a6c1" target="_top" xlink:title=" ">
<polygon fill="white" stroke="black" points="419,-392.5 419,-422.5 622,-422.5 622,-392.5 419,-392.5"/>
<text text-anchor="start" x="427" y="-410.5" font-family="Helvetica,sans-Serif" font-size="10.00">klyqa_ctl.devices.vacuum.commands.</text>
<text text-anchor="middle" x="520.5" y="-399.5" font-family="Helvetica,sans-Serif" font-size="10.00">ProductinfoCommand.json</text>
</a>
</g>
</g>
<!-- Node5&#45;&gt;Node20 -->
<g id="edge19" class="edge">
<title>Node5&#45;&gt;Node20</title>
<path fill="none" stroke="midnightblue" d="M361.11,-373.53C385.89,-378.85 413.95,-384.87 439.5,-390.34"/>
<polygon fill="midnightblue" stroke="midnightblue" points="439.01,-393.82 449.52,-392.49 440.48,-386.97 439.01,-393.82"/>
</g>
<!-- Node22 -->
<g id="node22" class="node">
<title>Node22</title>
<g id="a_node22"><a xlink:href="classklyqa__ctl_1_1devices_1_1vacuum_1_1commands_1_1RequestGetCommand.html#a216966811184b718a4659bf081113f38" target="_top" xlink:title=" ">
<polygon fill="white" stroke="black" points="419,-343.5 419,-373.5 622,-373.5 622,-343.5 419,-343.5"/>
<text text-anchor="start" x="427" y="-361.5" font-family="Helvetica,sans-Serif" font-size="10.00">klyqa_ctl.devices.vacuum.commands.</text>
<text text-anchor="middle" x="520.5" y="-350.5" font-family="Helvetica,sans-Serif" font-size="10.00">RequestGetCommand.json</text>
</a>
</g>
</g>
<!-- Node5&#45;&gt;Node22 -->
<g id="edge21" class="edge">
<title>Node5&#45;&gt;Node22</title>
<path fill="none" stroke="midnightblue" d="M361.73,-358.5C376.57,-358.5 392.56,-358.5 408.47,-358.5"/>
<polygon fill="midnightblue" stroke="midnightblue" points="408.89,-362 418.89,-358.5 408.89,-355 408.89,-362"/>
</g>
<!-- Node24 -->
<g id="node24" class="node">
<title>Node24</title>
<g id="a_node24"><a xlink:href="classklyqa__ctl_1_1devices_1_1vacuum_1_1commands_1_1RequestResetCommand.html#a1ac56b80427d60d9f55079ae846ae25e" target="_top" xlink:title=" ">
<polygon fill="white" stroke="black" points="419,-245.5 419,-275.5 622,-275.5 622,-245.5 419,-245.5"/>
<text text-anchor="start" x="427" y="-263.5" font-family="Helvetica,sans-Serif" font-size="10.00">klyqa_ctl.devices.vacuum.commands.</text>
<text text-anchor="middle" x="520.5" y="-252.5" font-family="Helvetica,sans-Serif" font-size="10.00">RequestResetCommand.json</text>
</a>
</g>
</g>
<!-- Node5&#45;&gt;Node24 -->
<g id="edge23" class="edge">
<title>Node5&#45;&gt;Node24</title>
<path fill="none" stroke="midnightblue" d="M361.53,-345.53C369.11,-342.57 376.44,-338.95 383,-334.5 405.36,-319.33 396.55,-300.55 419,-285.5 422.09,-283.43 425.35,-281.52 428.71,-279.78"/>
<polygon fill="midnightblue" stroke="midnightblue" points="430.26,-282.92 437.84,-275.52 427.3,-276.58 430.26,-282.92"/>
</g>
<!-- Node26 -->
<g id="node26" class="node">
<title>Node26</title>
<g id="a_node26"><a xlink:href="classklyqa__ctl_1_1devices_1_1vacuum_1_1commands_1_1RequestSetCommand.html#a354b74be46f4b7d8a56811eaab910959" target="_top" xlink:title=" ">
<polygon fill="white" stroke="black" points="419,-196.5 419,-226.5 622,-226.5 622,-196.5 419,-196.5"/>
<text text-anchor="start" x="427" y="-214.5" font-family="Helvetica,sans-Serif" font-size="10.00">klyqa_ctl.devices.vacuum.commands.</text>
<text text-anchor="middle" x="520.5" y="-203.5" font-family="Helvetica,sans-Serif" font-size="10.00">RequestSetCommand.json</text>
</a>
</g>
</g>
<!-- Node5&#45;&gt;Node26 -->
<g id="edge25" class="edge">
<title>Node5&#45;&gt;Node26</title>
<path fill="none" stroke="midnightblue" d="M361.51,-347.86C369.36,-344.51 376.77,-340.16 383,-334.5 417.36,-303.32 384.46,-267.49 419,-236.5 420.74,-234.94 422.56,-233.47 424.45,-232.09"/>
<polygon fill="midnightblue" stroke="midnightblue" points="426.57,-234.9 433.15,-226.6 422.83,-228.98 426.57,-234.9"/>
</g>
<!-- Node28 -->
<g id="node28" class="node">
<title>Node28</title>
<g id="a_node28"><a xlink:href="classklyqa__ctl_1_1devices_1_1vacuum_1_1commands_1_1RoutineCommand.html#a926a94c8cc5104275078e438fb301028" target="_top" xlink:title=" ">
<polygon fill="white" stroke="black" points="419,-147.5 419,-177.5 622,-177.5 622,-147.5 419,-147.5"/>
<text text-anchor="start" x="427" y="-165.5" font-family="Helvetica,sans-Serif" font-size="10.00">klyqa_ctl.devices.vacuum.commands.</text>
<text text-anchor="middle" x="520.5" y="-154.5" font-family="Helvetica,sans-Serif" font-size="10.00">RoutineCommand.json</text>
</a>
</g>
</g>
<!-- Node5&#45;&gt;Node28 -->
<g id="edge27" class="edge">
<title>Node5&#45;&gt;Node28</title>
<path fill="none" stroke="midnightblue" d="M361.68,-348.72C369.6,-345.24 376.98,-340.61 383,-334.5 430.2,-286.58 371.52,-235.15 419,-187.5 420.43,-186.07 421.92,-184.71 423.48,-183.43"/>
<polygon fill="midnightblue" stroke="midnightblue" points="425.57,-186.24 431.72,-177.62 421.53,-180.52 425.57,-186.24"/>
</g>
<!-- Node30 -->
<g id="node30" class="node">
<title>Node30</title>
<g id="a_node30"><a xlink:href="classklyqa__ctl_1_1general_1_1general_1_1Command.html#a8c8ad93fedd0da0e0021f58714ec7fb5" target="_top" xlink:title=" ">
<polygon fill="white" stroke="black" points="449,-441.5 449,-471.5 592,-471.5 592,-441.5 449,-441.5"/>
<text text-anchor="start" x="457" y="-459.5" font-family="Helvetica,sans-Serif" font-size="10.00">klyqa_ctl.general.general.</text>
<text text-anchor="middle" x="520.5" y="-448.5" font-family="Helvetica,sans-Serif" font-size="10.00">Command.json</text>
</a>
</g>
</g>
<!-- Node5&#45;&gt;Node30 -->
<g id="edge29" class="edge">
<title>Node5&#45;&gt;Node30</title>
<path fill="none" stroke="midnightblue" d="M361.53,-372.29C369.12,-375.32 376.45,-379.01 383,-383.5 405.28,-398.79 396.48,-417.56 419,-432.5 425.17,-436.59 431.95,-439.99 439,-442.8"/>
<polygon fill="midnightblue" stroke="midnightblue" points="438.15,-446.22 448.75,-446.3 440.52,-439.63 438.15,-446.22"/>
</g>
<!-- Node31 -->
<g id="node31" class="node">
<title>Node31</title>
<g id="a_node31"><a xlink:href="classklyqa__ctl_1_1general_1_1general_1_1CommandTyped.html#a96dfd43912c4640f381424bdd44eebca" target="_top" xlink:title=" ">
<polygon fill="white" stroke="black" points="449,-0.5 449,-30.5 592,-30.5 592,-0.5 449,-0.5"/>
<text text-anchor="start" x="457" y="-18.5" font-family="Helvetica,sans-Serif" font-size="10.00">klyqa_ctl.general.general.</text>
<text text-anchor="middle" x="520.5" y="-7.5" font-family="Helvetica,sans-Serif" font-size="10.00">CommandTyped.json</text>
</a>
</g>
</g>
<!-- Node5&#45;&gt;Node31 -->
<g id="edge30" class="edge">
<title>Node5&#45;&gt;Node31</title>
<path fill="none" stroke="midnightblue" d="M361.94,-349.58C369.92,-345.97 377.24,-341.09 383,-334.5 469.95,-235.07 331.02,-138.02 419,-39.5 424.71,-33.1 431.79,-28.26 439.53,-24.61"/>
<polygon fill="midnightblue" stroke="midnightblue" points="440.91,-27.83 448.88,-20.86 438.3,-21.34 440.91,-27.83"/>
</g>
<!-- Node7 -->
<g id="node7" class="node">
<title>Node7</title>
<g id="a_node7"><a xlink:href="classklyqa__ctl_1_1devices_1_1light_1_1commands_1_1FwUpdateCommand.html#a7dc482a4e9a65d49ce0a61671ed6868e" target="_top" xlink:title=" ">
<polygon fill="white" stroke="black" points="674,-637.5 674,-667.5 860,-667.5 860,-637.5 674,-637.5"/>
<text text-anchor="start" x="682" y="-655.5" font-family="Helvetica,sans-Serif" font-size="10.00">klyqa_ctl.devices.light.commands.</text>
<text text-anchor="middle" x="767" y="-644.5" font-family="Helvetica,sans-Serif" font-size="10.00">FwUpdateCommand.url_json</text>
</a>
</g>
</g>
<!-- Node6&#45;&gt;Node7 -->
<g id="edge6" class="edge">
<title>Node6&#45;&gt;Node7</title>
<path fill="none" stroke="midnightblue" d="M613.59,-652.5C629.95,-652.5 647.09,-652.5 663.72,-652.5"/>
<polygon fill="midnightblue" stroke="midnightblue" points="664,-656 674,-652.5 664,-649 664,-656"/>
</g>
<!-- Node10 -->
<g id="node10" class="node">
<title>Node10</title>
<g id="a_node10"><a xlink:href="classklyqa__ctl_1_1devices_1_1light_1_1commands_1_1ColorCommand.html#a6ce99d7f4f232fb2f11e6efb7e85e778" target="_top" xlink:title=" ">
<polygon fill="white" stroke="black" points="674,-588.5 674,-618.5 860,-618.5 860,-588.5 674,-588.5"/>
<text text-anchor="start" x="682" y="-606.5" font-family="Helvetica,sans-Serif" font-size="10.00">klyqa_ctl.devices.light.commands.</text>
<text text-anchor="middle" x="767" y="-595.5" font-family="Helvetica,sans-Serif" font-size="10.00">ColorCommand.color_json</text>
</a>
</g>
</g>
<!-- Node9&#45;&gt;Node10 -->
<g id="edge9" class="edge">
<title>Node9&#45;&gt;Node10</title>
<path fill="none" stroke="midnightblue" d="M613.59,-603.5C629.95,-603.5 647.09,-603.5 663.72,-603.5"/>
<polygon fill="midnightblue" stroke="midnightblue" points="664,-607 674,-603.5 664,-600 664,-607"/>
</g>
<!-- Node11 -->
<g id="node11" class="node">
<title>Node11</title>
<g id="a_node11"><a xlink:href="classklyqa__ctl_1_1devices_1_1light_1_1response__status_1_1ResponseStatus.html#a327c18fd6f8a38e75e1bbc2f895df592" target="_top" xlink:title=" ">
<polygon fill="white" stroke="black" points="924,-588.5 924,-618.5 1097,-618.5 1097,-588.5 924,-588.5"/>
<text text-anchor="start" x="932" y="-606.5" font-family="Helvetica,sans-Serif" font-size="10.00">klyqa_ctl.devices.light.response</text>
<text text-anchor="middle" x="1010.5" y="-595.5" font-family="Helvetica,sans-Serif" font-size="10.00">_status.ResponseStatus.color</text>
</a>
</g>
</g>
<!-- Node10&#45;&gt;Node11 -->
<g id="edge10" class="edge">
<title>Node10&#45;&gt;Node11</title>
<path fill="none" stroke="midnightblue" d="M860.33,-603.5C877.81,-603.5 896.13,-603.5 913.71,-603.5"/>
<polygon fill="midnightblue" stroke="midnightblue" points="913.96,-607 923.96,-603.5 913.96,-600 913.96,-607"/>
</g>
<!-- Node13 -->
<g id="node13" class="node">
<title>Node13</title>
<g id="a_node13"><a xlink:href="classklyqa__ctl_1_1devices_1_1light_1_1commands_1_1TemperatureCommand.html#a0b45255dc9218a36450152f1118a8280" target="_top" xlink:title=" ">
<polygon fill="white" stroke="black" points="658,-539.5 658,-569.5 876,-569.5 876,-539.5 658,-539.5"/>
<text text-anchor="start" x="666" y="-557.5" font-family="Helvetica,sans-Serif" font-size="10.00">klyqa_ctl.devices.light.commands.</text>
<text text-anchor="middle" x="767" y="-546.5" font-family="Helvetica,sans-Serif" font-size="10.00">TemperatureCommand.temperature_json</text>
</a>
</g>
</g>
<!-- Node12&#45;&gt;Node13 -->
<g id="edge12" class="edge">
<title>Node12&#45;&gt;Node13</title>
<path fill="none" stroke="midnightblue" d="M613.59,-554.5C624.79,-554.5 636.35,-554.5 647.87,-554.5"/>
<polygon fill="midnightblue" stroke="midnightblue" points="647.96,-558 657.96,-554.5 647.96,-551 647.96,-558"/>
</g>
<!-- Node14 -->
<g id="node14" class="node">
<title>Node14</title>
<g id="a_node14"><a xlink:href="classklyqa__ctl_1_1devices_1_1light_1_1response__status_1_1ResponseStatus.html#a2e732c44c35f39dc3d8fe269c24aef8a" target="_top" xlink:title=" ">
<polygon fill="white" stroke="black" points="912,-539.5 912,-569.5 1109,-569.5 1109,-539.5 912,-539.5"/>
<text text-anchor="start" x="920" y="-557.5" font-family="Helvetica,sans-Serif" font-size="10.00">klyqa_ctl.devices.light.response</text>
<text text-anchor="middle" x="1010.5" y="-546.5" font-family="Helvetica,sans-Serif" font-size="10.00">_status.ResponseStatus.temperature</text>
</a>
</g>
</g>
<!-- Node13&#45;&gt;Node14 -->
<g id="edge13" class="edge">
<title>Node13&#45;&gt;Node14</title>
<path fill="none" stroke="midnightblue" d="M876.04,-554.5C884.61,-554.5 893.27,-554.5 901.85,-554.5"/>
<polygon fill="midnightblue" stroke="midnightblue" points="901.86,-558 911.86,-554.5 901.86,-551 901.86,-558"/>
</g>
<!-- Node16 -->
<g id="node16" class="node">
<title>Node16</title>
<g id="a_node16"><a xlink:href="classklyqa__ctl_1_1devices_1_1light_1_1commands_1_1BrightnessCommand.html#aba34fce7f4d8d6aae6bcbaaa61c21a8c" target="_top" xlink:title=" ">
<polygon fill="white" stroke="black" points="668,-490.5 668,-520.5 866,-520.5 866,-490.5 668,-490.5"/>
<text text-anchor="start" x="676" y="-508.5" font-family="Helvetica,sans-Serif" font-size="10.00">klyqa_ctl.devices.light.commands.</text>
<text text-anchor="middle" x="767" y="-497.5" font-family="Helvetica,sans-Serif" font-size="10.00">BrightnessCommand.brightness_json</text>
</a>
</g>
</g>
<!-- Node15&#45;&gt;Node16 -->
<g id="edge15" class="edge">
<title>Node15&#45;&gt;Node16</title>
<path fill="none" stroke="midnightblue" d="M613.59,-505.5C627.99,-505.5 643,-505.5 657.73,-505.5"/>
<polygon fill="midnightblue" stroke="midnightblue" points="657.87,-509 667.87,-505.5 657.87,-502 657.87,-509"/>
</g>
<!-- Node17 -->
<g id="node17" class="node">
<title>Node17</title>
<g id="a_node17"><a xlink:href="classklyqa__ctl_1_1devices_1_1light_1_1response__status_1_1ResponseStatus.html#a762787729b726f6ad8bd5a9a3ae40a67" target="_top" xlink:title=" ">
<polygon fill="white" stroke="black" points="917,-490.5 917,-520.5 1104,-520.5 1104,-490.5 917,-490.5"/>
<text text-anchor="start" x="925" y="-508.5" font-family="Helvetica,sans-Serif" font-size="10.00">klyqa_ctl.devices.light.response</text>
<text text-anchor="middle" x="1010.5" y="-497.5" font-family="Helvetica,sans-Serif" font-size="10.00">_status.ResponseStatus.brightness</text>
</a>
</g>
</g>
<!-- Node16&#45;&gt;Node17 -->
<g id="edge16" class="edge">
<title>Node16&#45;&gt;Node17</title>
<path fill="none" stroke="midnightblue" d="M866.23,-505.5C879.55,-505.5 893.25,-505.5 906.64,-505.5"/>
<polygon fill="midnightblue" stroke="midnightblue" points="906.82,-509 916.82,-505.5 906.82,-502 906.82,-509"/>
</g>
<!-- Node21 -->
<g id="node21" class="node">
<title>Node21</title>
<g id="a_node21"><a xlink:href="classklyqa__ctl_1_1devices_1_1vacuum_1_1commands_1_1ProductinfoCommand.html#a1950a810783ab6312c31fa43dd06182c" target="_top" xlink:title=" ">
<polygon fill="white" stroke="black" points="664,-392.5 664,-422.5 870,-422.5 870,-392.5 664,-392.5"/>
<text text-anchor="start" x="672" y="-410.5" font-family="Helvetica,sans-Serif" font-size="10.00">klyqa_ctl.devices.vacuum.commands.</text>
<text text-anchor="middle" x="767" y="-399.5" font-family="Helvetica,sans-Serif" font-size="10.00">ProductinfoCommand.productinfo_json</text>
</a>
</g>
</g>
<!-- Node20&#45;&gt;Node21 -->
<g id="edge20" class="edge">
<title>Node20&#45;&gt;Node21</title>
<path fill="none" stroke="midnightblue" d="M622.01,-407.5C632.49,-407.5 643.19,-407.5 653.79,-407.5"/>
<polygon fill="midnightblue" stroke="midnightblue" points="653.91,-411 663.91,-407.5 653.91,-404 653.91,-411"/>
</g>
<!-- Node23 -->
<g id="node23" class="node">
<title>Node23</title>
<g id="a_node23"><a xlink:href="classklyqa__ctl_1_1devices_1_1vacuum_1_1commands_1_1RequestGetCommand.html#a71be3cb060fa2c05f2762d13267c6144" target="_top" xlink:title=" ">
<polygon fill="white" stroke="black" points="665.5,-343.5 665.5,-373.5 868.5,-373.5 868.5,-343.5 665.5,-343.5"/>
<text text-anchor="start" x="673.5" y="-361.5" font-family="Helvetica,sans-Serif" font-size="10.00">klyqa_ctl.devices.vacuum.commands.</text>
<text text-anchor="middle" x="767" y="-350.5" font-family="Helvetica,sans-Serif" font-size="10.00">RequestGetCommand.get_json</text>
</a>
</g>
</g>
<!-- Node22&#45;&gt;Node23 -->
<g id="edge22" class="edge">
<title>Node22&#45;&gt;Node23</title>
<path fill="none" stroke="midnightblue" d="M622.01,-358.5C633,-358.5 644.23,-358.5 655.34,-358.5"/>
<polygon fill="midnightblue" stroke="midnightblue" points="655.49,-362 665.49,-358.5 655.49,-355 655.49,-362"/>
</g>
<!-- Node25 -->
<g id="node25" class="node">
<title>Node25</title>
<g id="a_node25"><a xlink:href="classklyqa__ctl_1_1devices_1_1vacuum_1_1commands_1_1RequestResetCommand.html#a53de7ccfeb12e1b8f4c0ea8a82410d4e" target="_top" xlink:title=" ">
<polygon fill="white" stroke="black" points="665.5,-245.5 665.5,-275.5 868.5,-275.5 868.5,-245.5 665.5,-245.5"/>
<text text-anchor="start" x="673.5" y="-263.5" font-family="Helvetica,sans-Serif" font-size="10.00">klyqa_ctl.devices.vacuum.commands.</text>
<text text-anchor="middle" x="767" y="-252.5" font-family="Helvetica,sans-Serif" font-size="10.00">RequestResetCommand.reset_json</text>
</a>
</g>
</g>
<!-- Node24&#45;&gt;Node25 -->
<g id="edge24" class="edge">
<title>Node24&#45;&gt;Node25</title>
<path fill="none" stroke="midnightblue" d="M622.01,-260.5C633,-260.5 644.23,-260.5 655.34,-260.5"/>
<polygon fill="midnightblue" stroke="midnightblue" points="655.49,-264 665.49,-260.5 655.49,-257 655.49,-264"/>
</g>
<!-- Node27 -->
<g id="node27" class="node">
<title>Node27</title>
<g id="a_node27"><a xlink:href="classklyqa__ctl_1_1devices_1_1vacuum_1_1commands_1_1RequestSetCommand.html#ac327b3b919e0d1a45ebe754e546f94f8" target="_top" xlink:title=" ">
<polygon fill="white" stroke="black" points="665.5,-196.5 665.5,-226.5 868.5,-226.5 868.5,-196.5 665.5,-196.5"/>
<text text-anchor="start" x="673.5" y="-214.5" font-family="Helvetica,sans-Serif" font-size="10.00">klyqa_ctl.devices.vacuum.commands.</text>
<text text-anchor="middle" x="767" y="-203.5" font-family="Helvetica,sans-Serif" font-size="10.00">RequestSetCommand.set_json</text>
</a>
</g>
</g>
<!-- Node26&#45;&gt;Node27 -->
<g id="edge26" class="edge">
<title>Node26&#45;&gt;Node27</title>
<path fill="none" stroke="midnightblue" d="M622.01,-211.5C633,-211.5 644.23,-211.5 655.34,-211.5"/>
<polygon fill="midnightblue" stroke="midnightblue" points="655.49,-215 665.49,-211.5 655.49,-208 655.49,-215"/>
</g>
<!-- Node29 -->
<g id="node29" class="node">
<title>Node29</title>
<g id="a_node29"><a xlink:href="classklyqa__ctl_1_1devices_1_1vacuum_1_1commands_1_1RoutineCommand.html#acaf3db880f88d37bb1cf8218a309e52c" target="_top" xlink:title=" ">
<polygon fill="white" stroke="black" points="665.5,-147.5 665.5,-177.5 868.5,-177.5 868.5,-147.5 665.5,-147.5"/>
<text text-anchor="start" x="673.5" y="-165.5" font-family="Helvetica,sans-Serif" font-size="10.00">klyqa_ctl.devices.vacuum.commands.</text>
<text text-anchor="middle" x="767" y="-154.5" font-family="Helvetica,sans-Serif" font-size="10.00">RoutineCommand.routine_json</text>
</a>
</g>
</g>
<!-- Node28&#45;&gt;Node29 -->
<g id="edge28" class="edge">
<title>Node28&#45;&gt;Node29</title>
<path fill="none" stroke="midnightblue" d="M622.01,-162.5C633,-162.5 644.23,-162.5 655.34,-162.5"/>
<polygon fill="midnightblue" stroke="midnightblue" points="655.49,-166 665.49,-162.5 655.49,-159 655.49,-166"/>
</g>
<!-- Node32 -->
<g id="node32" class="node">
<title>Node32</title>
<g id="a_node32"><a xlink:href="classklyqa__ctl_1_1devices_1_1response__message_1_1ResponseMessage.html#a076bcd25b3f41acdc763569b279c4545" target="_top" xlink:title=" ">
<polygon fill="white" stroke="black" points="674.5,-0.5 674.5,-30.5 859.5,-30.5 859.5,-0.5 674.5,-0.5"/>
<text text-anchor="start" x="682.5" y="-18.5" font-family="Helvetica,sans-Serif" font-size="10.00">klyqa_ctl.devices.response</text>
<text text-anchor="middle" x="767" y="-7.5" font-family="Helvetica,sans-Serif" font-size="10.00">_message.ResponseMessage.type</text>
</a>
</g>
</g>
<!-- Node31&#45;&gt;Node32 -->
<g id="edge31" class="edge">
<title>Node31&#45;&gt;Node32</title>
<path fill="none" stroke="midnightblue" d="M592.22,-15.5C614.68,-15.5 639.98,-15.5 664.18,-15.5"/>
<polygon fill="midnightblue" stroke="midnightblue" points="664.47,-19 674.47,-15.5 664.47,-12 664.47,-19"/>
</g>
<!-- Node33&#45;&gt;Node6 -->
<g id="edge33" class="edge">
<title>Node33&#45;&gt;Node6</title>
<path fill="none" stroke="midnightblue" d="M364.65,-320.52C371.58,-324.05 377.91,-328.62 383,-334.5 469.17,-434.02 331.3,-530.33 419,-628.5 419.65,-629.23 420.33,-629.94 421.01,-630.63"/>
<polygon fill="midnightblue" stroke="midnightblue" points="419.07,-633.57 428.99,-637.31 423.57,-628.21 419.07,-633.57"/>
</g>
<!-- Node33&#45;&gt;Node8 -->
<g id="edge34" class="edge">
<title>Node33&#45;&gt;Node8</title>
<path fill="none" stroke="midnightblue" d="M364.56,-309.5C381.24,-309.5 399.26,-309.5 416.9,-309.5"/>
<polygon fill="midnightblue" stroke="midnightblue" points="417.24,-313 427.24,-309.5 417.24,-306 417.24,-313"/>
</g>
<!-- Node33&#45;&gt;Node9 -->
<g id="edge35" class="edge">
<title>Node33&#45;&gt;Node9</title>
<path fill="none" stroke="midnightblue" d="M364.51,-320.65C371.47,-324.16 377.84,-328.68 383,-334.5 456.04,-416.83 344.7,-498.31 419,-579.5 419.66,-580.22 420.34,-580.93 421.04,-581.61"/>
<polygon fill="midnightblue" stroke="midnightblue" points="419.14,-584.58 429.08,-588.22 423.58,-579.17 419.14,-584.58"/>
</g>
<!-- Node33&#45;&gt;Node12 -->
<g id="edge36" class="edge">
<title>Node33&#45;&gt;Node12</title>
<path fill="none" stroke="midnightblue" d="M364.75,-321.06C371.57,-324.5 377.85,-328.9 383,-334.5 442.95,-399.69 358.05,-466.24 419,-530.5 419.8,-531.35 420.63,-532.16 421.48,-532.96"/>
<polygon fill="midnightblue" stroke="midnightblue" points="419.64,-535.97 429.67,-539.39 423.97,-530.46 419.64,-535.97"/>
</g>
<!-- Node33&#45;&gt;Node15 -->
<g id="edge37" class="edge">
<title>Node33&#45;&gt;Node15</title>
<path fill="none" stroke="midnightblue" d="M364.87,-321.59C371.59,-324.94 377.8,-329.17 383,-334.5 429.96,-382.66 371.3,-434.07 419,-481.5 419.97,-482.46 420.96,-483.39 421.99,-484.28"/>
<polygon fill="midnightblue" stroke="midnightblue" points="420.24,-487.33 430.36,-490.44 424.39,-481.69 420.24,-487.33"/>
</g>
<!-- Node33&#45;&gt;Node18 -->
<g id="edge38" class="edge">
<title>Node33&#45;&gt;Node18</title>
<path fill="none" stroke="midnightblue" d="M364.87,-297.41C371.58,-294.06 377.8,-289.83 383,-284.5 429.7,-236.69 371.79,-185.81 419,-138.5 420.43,-137.07 421.93,-135.71 423.48,-134.43"/>
<polygon fill="midnightblue" stroke="midnightblue" points="425.57,-137.25 431.73,-128.62 421.54,-131.52 425.57,-137.25"/>
</g>
<!-- Node33&#45;&gt;Node19 -->
<g id="edge39" class="edge">
<title>Node33&#45;&gt;Node19</title>
<path fill="none" stroke="midnightblue" d="M364.75,-297.94C371.57,-294.5 377.84,-290.1 383,-284.5 442.69,-219.66 358.62,-153.7 419,-89.5 420.23,-88.19 421.51,-86.95 422.85,-85.77"/>
<polygon fill="midnightblue" stroke="midnightblue" points="425.11,-88.45 431,-79.65 420.9,-82.85 425.11,-88.45"/>
</g>
<!-- Node33&#45;&gt;Node20 -->
<g id="edge40" class="edge">
<title>Node33&#45;&gt;Node20</title>
<path fill="none" stroke="midnightblue" d="M364.84,-324.66C371.24,-327.41 377.4,-330.66 383,-334.5 405.28,-349.79 396.48,-368.56 419,-383.5 421.45,-385.13 424,-386.64 426.63,-388.06"/>
<polygon fill="midnightblue" stroke="midnightblue" points="425.29,-391.3 435.82,-392.48 428.33,-384.99 425.29,-391.3"/>
</g>
<!-- Node33&#45;&gt;Node22 -->
<g id="edge41" class="edge">
<title>Node33&#45;&gt;Node22</title>
<path fill="none" stroke="midnightblue" d="M361.11,-324.53C385.89,-329.85 413.95,-335.87 439.5,-341.34"/>
<polygon fill="midnightblue" stroke="midnightblue" points="439.01,-344.82 449.52,-343.49 440.48,-337.97 439.01,-344.82"/>
</g>
<!-- Node33&#45;&gt;Node24 -->
<g id="edge42" class="edge">
<title>Node33&#45;&gt;Node24</title>
<path fill="none" stroke="midnightblue" d="M361.11,-294.47C385.89,-289.15 413.95,-283.13 439.5,-277.66"/>
<polygon fill="midnightblue" stroke="midnightblue" points="440.48,-281.03 449.52,-275.51 439.01,-274.18 440.48,-281.03"/>
</g>
<!-- Node33&#45;&gt;Node26 -->
<g id="edge43" class="edge">
<title>Node33&#45;&gt;Node26</title>
<path fill="none" stroke="midnightblue" d="M364.33,-294.48C370.91,-291.7 377.25,-288.4 383,-284.5 405.06,-269.52 396.78,-251.24 419,-236.5 422.1,-234.44 425.36,-232.55 428.74,-230.82"/>
<polygon fill="midnightblue" stroke="midnightblue" points="430.28,-233.96 437.88,-226.58 427.34,-227.61 430.28,-233.96"/>
</g>
<!-- Node33&#45;&gt;Node28 -->
<g id="edge44" class="edge">
<title>Node33&#45;&gt;Node28</title>
<path fill="none" stroke="midnightblue" d="M364.72,-296.57C371.38,-293.38 377.62,-289.41 383,-284.5 416.95,-253.48 384.72,-218.15 419,-187.5 420.74,-185.94 422.57,-184.48 424.46,-183.1"/>
<polygon fill="midnightblue" stroke="midnightblue" points="426.57,-185.91 433.17,-177.62 422.84,-179.98 426.57,-185.91"/>
</g>
<!-- Node33&#45;&gt;Node30 -->
<g id="edge45" class="edge">
<title>Node33&#45;&gt;Node30</title>
<path fill="none" stroke="midnightblue" d="M364.74,-322.41C371.39,-325.61 377.63,-329.58 383,-334.5 417.2,-365.86 384.32,-401.67 419,-432.5 424.99,-437.82 431.94,-442.02 439.35,-445.32"/>
<polygon fill="midnightblue" stroke="midnightblue" points="438.34,-448.68 448.93,-449.03 440.87,-442.15 438.34,-448.68"/>
</g>
<!-- Node33&#45;&gt;Node31 -->
<g id="edge46" class="edge">
<title>Node33&#45;&gt;Node31</title>
<path fill="none" stroke="midnightblue" d="M364.51,-298.35C371.47,-294.84 377.84,-290.32 383,-284.5 456.04,-202.17 344.7,-120.69 419,-39.5 424.75,-33.22 431.81,-28.45 439.51,-24.83"/>
<polygon fill="midnightblue" stroke="midnightblue" points="440.83,-28.08 448.8,-21.1 438.22,-21.58 440.83,-28.08"/>
</g>
</g>
</svg>
