<?xml version="1.0" encoding="UTF-8" standalone="no"?>
<!DOCTYPE svg PUBLIC "-//W3C//DTD SVG 1.1//EN"
 "http://www.w3.org/Graphics/SVG/1.1/DTD/svg11.dtd">
<!-- Generated by graphviz version 2.43.0 (0)
 -->
<!-- Title: str Pages: 1 -->
<!--zoomable 248 -->
<svg id="main" version="1.1" xmlns="http://www.w3.org/2000/svg" xmlns:xlink="http://www.w3.org/1999/xlink" xml:space="preserve" onload="init(evt)">
<style type="text/css"><![CDATA[
.edge:hover path { stroke: red; }
.edge:hover polygon { stroke: red; fill: red; }
]]></style>
<script type="text/javascript"><![CDATA[
var edges = document.getElementsByTagName('g');
if (edges && edges.length) {
  for (var i=0;i<edges.length;i++) {
    if (edges[i].id.substr(0,4)=='edge') {
      edges[i].setAttribute('class','edge');
    }
  }
}
]]></script>
        <defs>
                <circle id="rim" cx="0" cy="0" r="7"/>
                <circle id="rim2" cx="0" cy="0" r="3.5"/>
                <g id="zoomPlus">
                        <use xlink:href="#rim" fill="#404040">
                                <set attributeName="fill" to="#808080" begin="zoomplus.mouseover" end="zoomplus.mouseout"/>
                        </use>
                        <path d="M-4,0h8M0,-4v8" fill="none" stroke="white" stroke-width="1.5" pointer-events="none"/>
                </g>
                <g id="zoomMin">
                        <use xlink:href="#rim" fill="#404040">
                                <set attributeName="fill" to="#808080" begin="zoomminus.mouseover" end="zoomminus.mouseout"/>
                        </use>
                        <path d="M-4,0h8" fill="none" stroke="white" stroke-width="1.5" pointer-events="none"/>
                </g>
                <g id="dirArrow">
                        <path fill="none" stroke="white" stroke-width="1.5" d="M0,-3.0v7 M-2.5,-0.5L0,-3.0L2.5,-0.5"/>
                </g>
               <g id="resetDef">
                       <use xlink:href="#rim2" fill="#404040">
                               <set attributeName="fill" to="#808080" begin="reset.mouseover" end="reset.mouseout"/>
                       </use>
               </g>
        </defs>

<script type="text/javascript">
var viewWidth = 1578;
var viewHeight = 248;
var sectionId = 'dynsection-0';
</script>
<script xlink:href="svgpan.js"/>
<svg id="graph" class="graph">
<g id="viewport">
<title>str</title>
<polygon fill="white" stroke="transparent" points="-4,4 -4,-244 1574,-244 1574,4 -4,4"/>
<!-- Node1 -->
<g id="node1" class="node">
<title>Node1</title>
<g id="a_node1"><a xlink:title=" ">
<polygon fill="#bfbfbf" stroke="black" points="792.5,-182.5 792.5,-239.5 821.5,-239.5 821.5,-182.5 792.5,-182.5"/>
<text text-anchor="middle" x="807" y="-227.5" font-family="Helvetica,sans-Serif" font-size="10.00">str</text>
<polyline fill="none" stroke="black" points="792.5,-220.5 821.5,-220.5 "/>
<text text-anchor="middle" x="807" y="-208.5" font-family="Helvetica,sans-Serif" font-size="10.00"> </text>
<polyline fill="none" stroke="black" points="792.5,-201.5 821.5,-201.5 "/>
<text text-anchor="middle" x="807" y="-189.5" font-family="Helvetica,sans-Serif" font-size="10.00"> </text>
</a>
</g>
</g>
<!-- Node2 -->
<g id="node2" class="node">
<title>Node2</title>
<g id="a_node2"><a xlink:href="classcloud_1_1RequestMethod.html" target="_top" xlink:title=" ">
<polygon fill="white" stroke="black" points="0,-39 0,-107 122,-107 122,-39 0,-39"/>
<text text-anchor="middle" x="61" y="-95" font-family="Helvetica,sans-Serif" font-size="10.00">cloud.RequestMethod</text>
<polyline fill="none" stroke="black" points="0,-88 122,-88 "/>
<text text-anchor="start" x="8" y="-76" font-family="Helvetica,sans-Serif" font-size="10.00">+ string POST</text>
<text text-anchor="start" x="8" y="-65" font-family="Helvetica,sans-Serif" font-size="10.00">+ string GET</text>
<polyline fill="none" stroke="black" points="0,-58 122,-58 "/>
<text text-anchor="middle" x="61" y="-46" font-family="Helvetica,sans-Serif" font-size="10.00"> </text>
</a>
</g>
</g>
<!-- Node1&#45;&gt;Node2 -->
<g id="edge1" class="edge">
<title>Node1&#45;&gt;Node2</title>
<path fill="none" stroke="midnightblue" d="M782.26,-209.92C674.91,-209.22 249.59,-202.84 131,-146 112.76,-137.26 96.68,-121.66 84.55,-107.21"/>
<polygon fill="none" stroke="midnightblue" points="782.41,-213.42 792.43,-209.97 782.45,-206.42 782.41,-213.42"/>
</g>
<!-- Node3 -->
<g id="node3" class="node">
<title>Node3</title>
<g id="a_node3"><a xlink:href="classklyqa__ctl_1_1account_1_1CLOUD__DEVICE__TARGETS.html" target="_top" xlink:title=" ">
<polygon fill="white" stroke="black" points="140,-33.5 140,-112.5 280,-112.5 280,-33.5 140,-33.5"/>
<text text-anchor="start" x="148" y="-100.5" font-family="Helvetica,sans-Serif" font-size="10.00">klyqa_ctl.account.CLOUD</text>
<text text-anchor="middle" x="210" y="-89.5" font-family="Helvetica,sans-Serif" font-size="10.00">_DEVICE_TARGETS</text>
<polyline fill="none" stroke="black" points="140,-82.5 280,-82.5 "/>
<text text-anchor="start" x="148" y="-70.5" font-family="Helvetica,sans-Serif" font-size="10.00">+ string command</text>
<text text-anchor="start" x="148" y="-59.5" font-family="Helvetica,sans-Serif" font-size="10.00">+ string state</text>
<polyline fill="none" stroke="black" points="140,-52.5 280,-52.5 "/>
<text text-anchor="middle" x="210" y="-40.5" font-family="Helvetica,sans-Serif" font-size="10.00"> </text>
</a>
</g>
</g>
<!-- Node1&#45;&gt;Node3 -->
<g id="edge2" class="edge">
<title>Node1&#45;&gt;Node3</title>
<path fill="none" stroke="midnightblue" d="M781.97,-208.91C691.02,-204.65 378.7,-187.25 289,-146 271.97,-138.17 256.08,-125.31 243.09,-112.61"/>
<polygon fill="none" stroke="midnightblue" points="782.01,-212.42 792.16,-209.38 782.33,-205.42 782.01,-212.42"/>
</g>
<!-- Node4 -->
<g id="node4" class="node">
<title>Node4</title>
<g id="a_node4"><a xlink:href="classklyqa__ctl_1_1devices_1_1light_1_1commands_1_1ExternalSourceProtocol.html" target="_top" xlink:title=" ">
<polygon fill="white" stroke="black" points="298,-22.5 298,-123.5 484,-123.5 484,-22.5 298,-22.5"/>
<text text-anchor="start" x="306" y="-111.5" font-family="Helvetica,sans-Serif" font-size="10.00">klyqa_ctl.devices.light.commands.</text>
<text text-anchor="middle" x="391" y="-100.5" font-family="Helvetica,sans-Serif" font-size="10.00">ExternalSourceProtocol</text>
<polyline fill="none" stroke="black" points="298,-93.5 484,-93.5 "/>
<text text-anchor="start" x="306" y="-81.5" font-family="Helvetica,sans-Serif" font-size="10.00">+ string EXT_OFF</text>
<text text-anchor="start" x="306" y="-70.5" font-family="Helvetica,sans-Serif" font-size="10.00">+ string EXT_UDP</text>
<text text-anchor="start" x="306" y="-59.5" font-family="Helvetica,sans-Serif" font-size="10.00">+ string EXT_E131</text>
<text text-anchor="start" x="306" y="-48.5" font-family="Helvetica,sans-Serif" font-size="10.00">+ string EXT_TPM2</text>
<polyline fill="none" stroke="black" points="298,-41.5 484,-41.5 "/>
<text text-anchor="middle" x="391" y="-29.5" font-family="Helvetica,sans-Serif" font-size="10.00"> </text>
</a>
</g>
</g>
<!-- Node1&#45;&gt;Node4 -->
<g id="edge3" class="edge">
<title>Node1&#45;&gt;Node4</title>
<path fill="none" stroke="midnightblue" d="M782.19,-208.41C727.73,-204.2 594.53,-189.87 493,-146 479.27,-140.07 465.53,-132.1 452.79,-123.63"/>
<polygon fill="none" stroke="midnightblue" points="782.06,-211.91 792.28,-209.15 782.56,-204.93 782.06,-211.91"/>
</g>
<!-- Node5 -->
<g id="node5" class="node">
<title>Node5</title>
<g id="a_node5"><a xlink:href="classklyqa__ctl_1_1devices_1_1light_1_1commands_1_1RoutineAction.html" target="_top" xlink:title=" ">
<polygon fill="white" stroke="black" points="502,-22.5 502,-123.5 688,-123.5 688,-22.5 502,-22.5"/>
<text text-anchor="start" x="510" y="-111.5" font-family="Helvetica,sans-Serif" font-size="10.00">klyqa_ctl.devices.light.commands.</text>
<text text-anchor="middle" x="595" y="-100.5" font-family="Helvetica,sans-Serif" font-size="10.00">RoutineAction</text>
<polyline fill="none" stroke="black" points="502,-93.5 688,-93.5 "/>
<text text-anchor="start" x="510" y="-81.5" font-family="Helvetica,sans-Serif" font-size="10.00">+ string LIST</text>
<text text-anchor="start" x="510" y="-70.5" font-family="Helvetica,sans-Serif" font-size="10.00">+ string PUT</text>
<text text-anchor="start" x="510" y="-59.5" font-family="Helvetica,sans-Serif" font-size="10.00">+ string START</text>
<text text-anchor="start" x="510" y="-48.5" font-family="Helvetica,sans-Serif" font-size="10.00">+ string DELETE</text>
<polyline fill="none" stroke="black" points="502,-41.5 688,-41.5 "/>
<text text-anchor="middle" x="595" y="-29.5" font-family="Helvetica,sans-Serif" font-size="10.00"> </text>
</a>
</g>
</g>
<!-- Node1&#45;&gt;Node5 -->
<g id="edge4" class="edge">
<title>Node1&#45;&gt;Node5</title>
<path fill="none" stroke="midnightblue" d="M783.31,-197.01C760.78,-184.47 726.12,-164.7 697,-146 686.06,-138.97 674.64,-131.28 663.57,-123.63"/>
<polygon fill="none" stroke="midnightblue" points="781.72,-200.13 792.16,-201.91 785.11,-194.01 781.72,-200.13"/>
</g>
<!-- Node6 -->
<g id="node6" class="node">
<title>Node6</title>
<g id="a_node6"><a xlink:href="classklyqa__ctl_1_1devices_1_1vacuum_1_1commands_1_1RoutineCommandActions.html" target="_top" xlink:title=" ">
<polygon fill="white" stroke="black" points="705.5,-11.5 705.5,-134.5 908.5,-134.5 908.5,-11.5 705.5,-11.5"/>
<text text-anchor="start" x="713.5" y="-122.5" font-family="Helvetica,sans-Serif" font-size="10.00">klyqa_ctl.devices.vacuum.commands.</text>
<text text-anchor="middle" x="807" y="-111.5" font-family="Helvetica,sans-Serif" font-size="10.00">RoutineCommandActions</text>
<polyline fill="none" stroke="black" points="705.5,-104.5 908.5,-104.5 "/>
<text text-anchor="start" x="713.5" y="-92.5" font-family="Helvetica,sans-Serif" font-size="10.00">+ string ACTION</text>
<text text-anchor="start" x="713.5" y="-81.5" font-family="Helvetica,sans-Serif" font-size="10.00">+ string COUNT</text>
<text text-anchor="start" x="713.5" y="-70.5" font-family="Helvetica,sans-Serif" font-size="10.00">+ string LIST</text>
<text text-anchor="start" x="713.5" y="-59.5" font-family="Helvetica,sans-Serif" font-size="10.00">+ string DELETE</text>
<text text-anchor="start" x="713.5" y="-48.5" font-family="Helvetica,sans-Serif" font-size="10.00">+ string START</text>
<text text-anchor="start" x="713.5" y="-37.5" font-family="Helvetica,sans-Serif" font-size="10.00">+ string PUT</text>
<polyline fill="none" stroke="black" points="705.5,-30.5 908.5,-30.5 "/>
<text text-anchor="middle" x="807" y="-18.5" font-family="Helvetica,sans-Serif" font-size="10.00"> </text>
</a>
</g>
</g>
<!-- Node1&#45;&gt;Node6 -->
<g id="edge5" class="edge">
<title>Node1&#45;&gt;Node6</title>
<path fill="none" stroke="midnightblue" d="M807,-172.24C807,-160.58 807,-147.42 807,-134.62"/>
<polygon fill="none" stroke="midnightblue" points="803.5,-172.48 807,-182.48 810.5,-172.48 803.5,-172.48"/>
</g>
<!-- Node7 -->
<g id="node7" class="node">
<title>Node7</title>
<g id="a_node7"><a xlink:href="classklyqa__ctl_1_1general_1_1general_1_1CommandType.html" target="_top" xlink:title=" ">
<polygon fill="white" stroke="black" points="926.5,-11.5 926.5,-134.5 1069.5,-134.5 1069.5,-11.5 926.5,-11.5"/>
<text text-anchor="start" x="934.5" y="-122.5" font-family="Helvetica,sans-Serif" font-size="10.00">klyqa_ctl.general.general.</text>
<text text-anchor="middle" x="998" y="-111.5" font-family="Helvetica,sans-Serif" font-size="10.00">CommandType</text>
<polyline fill="none" stroke="black" points="926.5,-104.5 1069.5,-104.5 "/>
<text text-anchor="start" x="934.5" y="-92.5" font-family="Helvetica,sans-Serif" font-size="10.00">+ string PING</text>
<text text-anchor="start" x="934.5" y="-81.5" font-family="Helvetica,sans-Serif" font-size="10.00">+ string REQUEST</text>
<text text-anchor="start" x="934.5" y="-70.5" font-family="Helvetica,sans-Serif" font-size="10.00">+ string FACTORY_RESET</text>
<text text-anchor="start" x="934.5" y="-59.5" font-family="Helvetica,sans-Serif" font-size="10.00">+ string ROUTINE</text>
<text text-anchor="start" x="934.5" y="-48.5" font-family="Helvetica,sans-Serif" font-size="10.00">+ string REBOOT</text>
<text text-anchor="start" x="934.5" y="-37.5" font-family="Helvetica,sans-Serif" font-size="10.00">+ string FW_UPDATE</text>
<polyline fill="none" stroke="black" points="926.5,-30.5 1069.5,-30.5 "/>
<text text-anchor="middle" x="998" y="-18.5" font-family="Helvetica,sans-Serif" font-size="10.00"> </text>
</a>
</g>
</g>
<!-- Node1&#45;&gt;Node7 -->
<g id="edge6" class="edge">
<title>Node1&#45;&gt;Node7</title>
<path fill="none" stroke="midnightblue" d="M830.81,-197.93C853.68,-185.93 888.82,-166.41 917,-146 921.88,-142.47 926.8,-138.69 931.68,-134.79"/>
<polygon fill="none" stroke="midnightblue" points="829.08,-194.88 821.81,-202.6 832.3,-201.1 829.08,-194.88"/>
</g>
<!-- Node8 -->
<g id="node8" class="node">
<title>Node8</title>
<g id="a_node8"><a xlink:href="classklyqa__ctl_1_1general_1_1general_1_1DeviceType.html" target="_top" xlink:title=" ">
<polygon fill="white" stroke="black" points="1087.5,-28 1087.5,-118 1230.5,-118 1230.5,-28 1087.5,-28"/>
<text text-anchor="start" x="1095.5" y="-106" font-family="Helvetica,sans-Serif" font-size="10.00">klyqa_ctl.general.general.</text>
<text text-anchor="middle" x="1159" y="-95" font-family="Helvetica,sans-Serif" font-size="10.00">DeviceType</text>
<polyline fill="none" stroke="black" points="1087.5,-88 1230.5,-88 "/>
<text text-anchor="start" x="1095.5" y="-76" font-family="Helvetica,sans-Serif" font-size="10.00">+ string CLEANER</text>
<text text-anchor="start" x="1095.5" y="-65" font-family="Helvetica,sans-Serif" font-size="10.00">+ string LIGHTING</text>
<text text-anchor="start" x="1095.5" y="-54" font-family="Helvetica,sans-Serif" font-size="10.00">+ bytes</text>
<polyline fill="none" stroke="black" points="1087.5,-47 1230.5,-47 "/>
<text text-anchor="middle" x="1159" y="-35" font-family="Helvetica,sans-Serif" font-size="10.00"> </text>
</a>
</g>
</g>
<!-- Node1&#45;&gt;Node8 -->
<g id="edge7" class="edge">
<title>Node1&#45;&gt;Node8</title>
<path fill="none" stroke="midnightblue" d="M831.87,-208.28C881.5,-204 995.28,-189.8 1079,-146 1092.74,-138.81 1105.98,-128.72 1117.6,-118.35"/>
<polygon fill="none" stroke="midnightblue" points="831.44,-204.81 821.75,-209.1 832,-211.78 831.44,-204.81"/>
</g>
<!-- Node9 -->
<g id="node9" class="node">
<title>Node9</title>
<g id="a_node9"><a xlink:href="classklyqa__ctl_1_1general_1_1unit__id_1_1UnitId.html" target="_top" xlink:title=" ">
<polygon fill="white" stroke="black" points="1248.5,-0.5 1248.5,-145.5 1379.5,-145.5 1379.5,-0.5 1248.5,-0.5"/>
<text text-anchor="start" x="1256.5" y="-133.5" font-family="Helvetica,sans-Serif" font-size="10.00">klyqa_ctl.general.unit</text>
<text text-anchor="middle" x="1314" y="-122.5" font-family="Helvetica,sans-Serif" font-size="10.00">_id.UnitId</text>
<polyline fill="none" stroke="black" points="1248.5,-115.5 1379.5,-115.5 "/>
<text text-anchor="start" x="1256.5" y="-103.5" font-family="Helvetica,sans-Serif" font-size="10.00">+ unit_id</text>
<text text-anchor="start" x="1256.5" y="-92.5" font-family="Helvetica,sans-Serif" font-size="10.00">+ None</text>
<text text-anchor="start" x="1256.5" y="-81.5" font-family="Helvetica,sans-Serif" font-size="10.00">&#45; _attr_unit_id</text>
<polyline fill="none" stroke="black" points="1248.5,-74.5 1379.5,-74.5 "/>
<text text-anchor="start" x="1256.5" y="-62.5" font-family="Helvetica,sans-Serif" font-size="10.00">+ None __post_init__</text>
<text text-anchor="start" x="1256.5" y="-51.5" font-family="Helvetica,sans-Serif" font-size="10.00">(self)</text>
<text text-anchor="start" x="1256.5" y="-40.5" font-family="Helvetica,sans-Serif" font-size="10.00">+ str|None unit_id(self)</text>
<text text-anchor="start" x="1256.5" y="-29.5" font-family="Helvetica,sans-Serif" font-size="10.00">+ None unit_id(self,</text>
<text text-anchor="start" x="1256.5" y="-18.5" font-family="Helvetica,sans-Serif" font-size="10.00"> str|None unit_id)</text>
<text text-anchor="start" x="1256.5" y="-7.5" font-family="Helvetica,sans-Serif" font-size="10.00">+ str __str__(self)</text>
</a>
</g>
</g>
<!-- Node1&#45;&gt;Node9 -->
<g id="edge8" class="edge">
<title>Node1&#45;&gt;Node9</title>
<path fill="none" stroke="midnightblue" d="M831.78,-208.34C912.52,-202.63 1166.97,-182.11 1240,-146 1242.73,-144.65 1245.43,-143.16 1248.08,-141.56"/>
<polygon fill="none" stroke="midnightblue" points="831.31,-204.86 821.58,-209.05 831.8,-211.85 831.31,-204.86"/>
</g>
<!-- Node10 -->
<g id="node10" class="node">
<title>Node10</title>
<g id="a_node10"><a xlink:href="classlocal_1_1connection_1_1AesConnectionState.html" target="_top" xlink:title=" ">
<polygon fill="white" stroke="black" points="1398,-33.5 1398,-112.5 1570,-112.5 1570,-33.5 1398,-33.5"/>
<text text-anchor="start" x="1406" y="-100.5" font-family="Helvetica,sans-Serif" font-size="10.00">local.connection.AesConnection</text>
<text text-anchor="middle" x="1484" y="-89.5" font-family="Helvetica,sans-Serif" font-size="10.00">State</text>
<polyline fill="none" stroke="black" points="1398,-82.5 1570,-82.5 "/>
<text text-anchor="start" x="1406" y="-70.5" font-family="Helvetica,sans-Serif" font-size="10.00">+ string WAIT_IV</text>
<text text-anchor="start" x="1406" y="-59.5" font-family="Helvetica,sans-Serif" font-size="10.00">+ string CONNECTED</text>
<polyline fill="none" stroke="black" points="1398,-52.5 1570,-52.5 "/>
<text text-anchor="middle" x="1484" y="-40.5" font-family="Helvetica,sans-Serif" font-size="10.00"> </text>
</a>
</g>
</g>
<!-- Node1&#45;&gt;Node10 -->
<g id="edge9" class="edge">
<title>Node1&#45;&gt;Node10</title>
<path fill="none" stroke="midnightblue" d="M831.78,-209.03C929.12,-204.94 1285,-187.42 1389,-146 1408.42,-138.27 1427.3,-125.43 1443.05,-112.72"/>
<polygon fill="none" stroke="midnightblue" points="831.56,-205.53 821.71,-209.44 831.84,-212.53 831.56,-205.53"/>
</g>
</g>
</svg>
        <g id="navigator" transform="translate(0 0)" fill="#404254">
                <rect fill="#f2f5e9" fill-opacity="0.5" stroke="#606060" stroke-width=".5" x="0" y="0" width="60" height="60"/>
                <use id="zoomplus" xlink:href="#zoomPlus" x="17" y="9" onmousedown="handleZoom(evt,'in')"/>
                <use id="zoomminus" xlink:href="#zoomMin" x="42" y="9" onmousedown="handleZoom(evt,'out')"/>
                <use id="reset" xlink:href="#resetDef" x="30" y="36" onmousedown="handleReset()"/>
                <g id="arrowUp" xlink:href="#dirArrow" transform="translate(30 24)" onmousedown="handlePan(0,-1)">
                  <use xlink:href="#rim" fill="#404040">
                        <set attributeName="fill" to="#808080" begin="arrowUp.mouseover" end="arrowUp.mouseout"/>
                  </use>
                  <path fill="none" stroke="white" stroke-width="1.5" d="M0,-3.0v7 M-2.5,-0.5L0,-3.0L2.5,-0.5"/>
                </g>
                <g id="arrowRight" xlink:href="#dirArrow" transform="rotate(90) translate(36 -43)" onmousedown="handlePan(1,0)">
                  <use xlink:href="#rim" fill="#404040">
                        <set attributeName="fill" to="#808080" begin="arrowRight.mouseover" end="arrowRight.mouseout"/>
                  </use>
                  <path fill="none" stroke="white" stroke-width="1.5" d="M0,-3.0v7 M-2.5,-0.5L0,-3.0L2.5,-0.5"/>
                </g>
                <g id="arrowDown" xlink:href="#dirArrow" transform="rotate(180) translate(-30 -48)" onmousedown="handlePan(0,1)">
                  <use xlink:href="#rim" fill="#404040">
                        <set attributeName="fill" to="#808080" begin="arrowDown.mouseover" end="arrowDown.mouseout"/>
                  </use>
                  <path fill="none" stroke="white" stroke-width="1.5" d="M0,-3.0v7 M-2.5,-0.5L0,-3.0L2.5,-0.5"/>
                </g>
                <g id="arrowLeft" xlink:href="#dirArrow" transform="rotate(270) translate(-36 17)" onmousedown="handlePan(-1,0)">
                  <use xlink:href="#rim" fill="#404040">
                        <set attributeName="fill" to="#808080" begin="arrowLeft.mouseover" end="arrowLeft.mouseout"/>
                  </use>
                  <path fill="none" stroke="white" stroke-width="1.5" d="M0,-3.0v7 M-2.5,-0.5L0,-3.0L2.5,-0.5"/>
                </g>
        </g>
        <svg viewBox="0 0 15 15" width="100%" height="30px" preserveAspectRatio="xMaxYMin meet">
         <g id="arrow_out" transform="scale(0.3 0.3)">
          <a xlink:href="classstr__inherit__graph_org.svg" target="_base">
           <rect id="button" ry="5" rx="5" y="6" x="6" height="38" width="38"
                fill="#f2f5e9" fill-opacity="0.5" stroke="#606060" stroke-width="1.0"/>
           <path id="arrow"
             d="M 11.500037,31.436501 C 11.940474,20.09759 22.043105,11.32322 32.158766,21.979434 L 37.068811,17.246167 C 37.068811,17.246167 37.088388,32 37.088388,32 L 22.160133,31.978069 C 22.160133,31.978069 26.997745,27.140456 26.997745,27.140456 C 18.528582,18.264221 13.291696,25.230495 11.500037,31.436501 z"
             style="fill:#404040;"/>
          </a>
         </g>
        </svg>
</svg>
