<?xml version="1.0" encoding="UTF-8" standalone="no"?>
<!DOCTYPE svg PUBLIC "-//W3C//DTD SVG 1.1//EN"
 "http://www.w3.org/Graphics/SVG/1.1/DTD/svg11.dtd">
<!-- Generated by graphviz version 2.43.0 (0)
 -->
<!-- Title: local.connection.DeviceTcpReturn Pages: 1 -->
<svg width="157pt" height="380pt"
 viewBox="0.00 0.00 157.00 380.00" xmlns="http://www.w3.org/2000/svg" xmlns:xlink="http://www.w3.org/1999/xlink">
<g id="graph0" class="graph" transform="scale(1 1) rotate(0) translate(4 376)">
<title>local.connection.DeviceTcpReturn</title>
<polygon fill="white" stroke="transparent" points="-4,4 -4,-376 153,-376 153,4 -4,4"/>
<!-- Node1 -->
<g id="node1" class="node">
<title>Node1</title>
<g id="a_node1"><a xlink:title=" ">
<polygon fill="#bfbfbf" stroke="black" points="0,-0.5 0,-277.5 149,-277.5 149,-0.5 0,-0.5"/>
<text text-anchor="start" x="8" y="-265.5" font-family="Helvetica,sans-Serif" font-size="10.00">local.connection.DeviceTcp</text>
<text text-anchor="middle" x="74.5" y="-254.5" font-family="Helvetica,sans-Serif" font-size="10.00">Return</text>
<polyline fill="none" stroke="black" points="0,-247.5 149,-247.5 "/>
<text text-anchor="start" x="8" y="-235.5" font-family="Helvetica,sans-Serif" font-size="10.00">+ NO_ERROR</text>
<text text-anchor="start" x="8" y="-224.5" font-family="Helvetica,sans-Serif" font-size="10.00">+ SENT</text>
<text text-anchor="start" x="8" y="-213.5" font-family="Helvetica,sans-Serif" font-size="10.00">+ ANSWERED</text>
<text text-anchor="start" x="8" y="-202.5" font-family="Helvetica,sans-Serif" font-size="10.00">+ WRONG_UNIT_ID</text>
<text text-anchor="start" x="8" y="-191.5" font-family="Helvetica,sans-Serif" font-size="10.00">+ NO_UNIT_ID</text>
<text text-anchor="start" x="8" y="-180.5" font-family="Helvetica,sans-Serif" font-size="10.00">+ WRONG_AES</text>
<text text-anchor="start" x="8" y="-169.5" font-family="Helvetica,sans-Serif" font-size="10.00">+ TCP_ERROR</text>
<text text-anchor="start" x="8" y="-158.5" font-family="Helvetica,sans-Serif" font-size="10.00">+ TCP_SOCKET_CLOSED</text>
<text text-anchor="start" x="8" y="-147.5" font-family="Helvetica,sans-Serif" font-size="10.00">_UNEXPECTEDLY</text>
<text text-anchor="start" x="8" y="-136.5" font-family="Helvetica,sans-Serif" font-size="10.00">+ UNKNOWN_ERROR</text>
<text text-anchor="start" x="8" y="-125.5" font-family="Helvetica,sans-Serif" font-size="10.00">+ SOCKET_TIMEOUT</text>
<text text-anchor="start" x="8" y="-114.5" font-family="Helvetica,sans-Serif" font-size="10.00">+ NOTHING_DONE</text>
<text text-anchor="start" x="8" y="-103.5" font-family="Helvetica,sans-Serif" font-size="10.00">+ SENT_ERROR</text>
<text text-anchor="start" x="8" y="-92.5" font-family="Helvetica,sans-Serif" font-size="10.00">+ NO_MESSAGE_TO_SEND</text>
<text text-anchor="start" x="8" y="-81.5" font-family="Helvetica,sans-Serif" font-size="10.00">+ DEVICE_LOCK_TIMEOUT</text>
<text text-anchor="start" x="8" y="-70.5" font-family="Helvetica,sans-Serif" font-size="10.00">+ ERROR_LOCAL_IV</text>
<text text-anchor="start" x="8" y="-59.5" font-family="Helvetica,sans-Serif" font-size="10.00">+ MISSING_AES_KEY</text>
<text text-anchor="start" x="8" y="-48.5" font-family="Helvetica,sans-Serif" font-size="10.00">+ RESPONSE_ERROR</text>
<text text-anchor="start" x="8" y="-37.5" font-family="Helvetica,sans-Serif" font-size="10.00">+ SEND_ERROR</text>
<text text-anchor="start" x="8" y="-26.5" font-family="Helvetica,sans-Serif" font-size="10.00">+ SOCKET_ERROR</text>
<polyline fill="none" stroke="black" points="0,-19.5 149,-19.5 "/>
<text text-anchor="middle" x="74.5" y="-7.5" font-family="Helvetica,sans-Serif" font-size="10.00"> </text>
</a>
</g>
</g>
<!-- Node2 -->
<g id="node2" class="node">
<title>Node2</title>
<g id="a_node2"><a xlink:title=" ">
<polygon fill="white" stroke="#bfbfbf" points="52.5,-314.5 52.5,-371.5 96.5,-371.5 96.5,-314.5 52.5,-314.5"/>
<text text-anchor="middle" x="74.5" y="-359.5" font-family="Helvetica,sans-Serif" font-size="10.00">Enum</text>
<polyline fill="none" stroke="#bfbfbf" points="52.5,-352.5 96.5,-352.5 "/>
<text text-anchor="middle" x="74.5" y="-340.5" font-family="Helvetica,sans-Serif" font-size="10.00"> </text>
<polyline fill="none" stroke="#bfbfbf" points="52.5,-333.5 96.5,-333.5 "/>
<text text-anchor="middle" x="74.5" y="-321.5" font-family="Helvetica,sans-Serif" font-size="10.00"> </text>
</a>
</g>
</g>
<!-- Node2&#45;&gt;Node1 -->
<g id="edge1" class="edge">
<title>Node2&#45;&gt;Node1</title>
<path fill="none" stroke="midnightblue" d="M74.5,-304.27C74.5,-296.18 74.5,-287.19 74.5,-277.7"/>
<polygon fill="none" stroke="midnightblue" points="71,-304.34 74.5,-314.34 78,-304.34 71,-304.34"/>
</g>
</g>
</svg>
