<?xml version="1.0" encoding="UTF-8" standalone="no"?>
<!DOCTYPE svg PUBLIC "-//W3C//DTD SVG 1.1//EN"
 "http://www.w3.org/Graphics/SVG/1.1/DTD/svg11.dtd">
<!-- Generated by graphviz version 2.43.0 (0)
 -->
<!-- Title: klyqa_ctl.klyqa_ctl.Client.accounts Pages: 1 -->
<svg width="844pt" height="147pt"
 viewBox="0.00 0.00 844.00 147.00" xmlns="http://www.w3.org/2000/svg" xmlns:xlink="http://www.w3.org/1999/xlink">
<g id="graph0" class="graph" transform="scale(1 1) rotate(0) translate(4 143)">
<title>klyqa_ctl.klyqa_ctl.Client.accounts</title>
<polygon fill="white" stroke="transparent" points="-4,4 -4,-143 840,-143 840,4 -4,4"/>
<!-- Node1 -->
<g id="node1" class="node">
<title>Node1</title>
<g id="a_node1"><a xlink:title=" ">
<polygon fill="#bfbfbf" stroke="black" points="650,-59 650,-78 836,-78 836,-59 650,-59"/>
<text text-anchor="middle" x="743" y="-66" font-family="Helvetica,sans-Serif" font-size="10.00">klyqa_ctl.klyqa_ctl.Client.accounts</text>
</a>
</g>
</g>
<!-- Node2 -->
<g id="node2" class="node">
<title>Node2</title>
<g id="a_node2"><a xlink:href="classklyqa__ctl_1_1klyqa__ctl_1_1Client.html#af3198f7c13e93b4da93d04fbb2c46532" target="_top" xlink:title=" ">
<polygon fill="white" stroke="black" points="428,-78 428,-97 614,-97 614,-78 428,-78"/>
<text text-anchor="middle" x="521" y="-85" font-family="Helvetica,sans-Serif" font-size="10.00">klyqa_ctl.klyqa_ctl.Client.accounts</text>
</a>
</g>
</g>
<!-- Node1&#45;&gt;Node2 -->
<g id="edge1" class="edge">
<title>Node1&#45;&gt;Node2</title>
<path fill="none" stroke="midnightblue" d="M639.89,-77.32C631.25,-78.06 622.56,-78.82 614.01,-79.55"/>
<polygon fill="midnightblue" stroke="midnightblue" points="640.31,-80.8 649.97,-76.45 639.71,-73.82 640.31,-80.8"/>
</g>
<!-- Node3 -->
<g id="node3" class="node">
<title>Node3</title>
<g id="a_node3"><a xlink:href="classklyqa__ctl_1_1klyqa__ctl_1_1Client.html#ab129f0608f5651109b893aed3671e00e" target="_top" xlink:title=" ">
<polygon fill="white" stroke="black" points="216.5,-108.5 216.5,-138.5 377.5,-138.5 377.5,-108.5 216.5,-108.5"/>
<text text-anchor="start" x="224.5" y="-126.5" font-family="Helvetica,sans-Serif" font-size="10.00">klyqa_ctl.klyqa_ctl.Client.add</text>
<text text-anchor="middle" x="297" y="-115.5" font-family="Helvetica,sans-Serif" font-size="10.00">_account</text>
</a>
</g>
</g>
<!-- Node1&#45;&gt;Node3 -->
<g id="edge8" class="edge">
<title>Node1&#45;&gt;Node3</title>
<path fill="none" stroke="midnightblue" d="M706.87,-81.36C681.45,-90.07 646.06,-100.96 614,-106.5 534.42,-120.26 442.04,-123.82 377.8,-124.36"/>
<polygon fill="midnightblue" stroke="midnightblue" points="708.15,-84.62 716.44,-78.03 705.84,-78.01 708.15,-84.62"/>
</g>
<!-- Node4 -->
<g id="node4" class="node">
<title>Node4</title>
<g id="a_node4"><a xlink:href="classklyqa__ctl_1_1klyqa__ctl_1_1Client.html#ad5c42cd8dd34ed1d6329040e164bfc2e" target="_top" xlink:title=" ">
<polygon fill="white" stroke="black" points="214,-0.5 214,-30.5 380,-30.5 380,-0.5 214,-0.5"/>
<text text-anchor="start" x="222" y="-18.5" font-family="Helvetica,sans-Serif" font-size="10.00">klyqa_ctl.klyqa_ctl.Client.send</text>
<text text-anchor="middle" x="297" y="-7.5" font-family="Helvetica,sans-Serif" font-size="10.00">_to_devices</text>
</a>
</g>
</g>
<!-- Node1&#45;&gt;Node4 -->
<g id="edge9" class="edge">
<title>Node1&#45;&gt;Node4</title>
<path fill="none" stroke="midnightblue" d="M652.36,-57.8C572.83,-48.31 457.6,-34.55 380.35,-25.33"/>
<polygon fill="midnightblue" stroke="midnightblue" points="652.02,-61.28 662.37,-58.99 652.85,-54.33 652.02,-61.28"/>
</g>
<!-- Node6 -->
<g id="node6" class="node">
<title>Node6</title>
<g id="a_node6"><a xlink:href="classklyqa__ctl_1_1klyqa__ctl_1_1Client.html#ac54c4bdc0dfa3897a09efe3655741bd0" target="_top" xlink:title=" ">
<polygon fill="white" stroke="black" points="202,-68 202,-87 392,-87 392,-68 202,-68"/>
<text text-anchor="middle" x="297" y="-75" font-family="Helvetica,sans-Serif" font-size="10.00">klyqa_ctl.klyqa_ctl.Client.shutdown</text>
</a>
</g>
</g>
<!-- Node1&#45;&gt;Node6 -->
<g id="edge10" class="edge">
<title>Node1&#45;&gt;Node6</title>
<path fill="none" stroke="midnightblue" d="M639.83,-66.72C578.42,-66.09 498.7,-66.06 428,-68.5 416.36,-68.9 404.14,-69.51 392.04,-70.22"/>
<polygon fill="midnightblue" stroke="midnightblue" points="639.88,-70.22 649.92,-66.83 639.95,-63.22 639.88,-70.22"/>
</g>
<!-- Node2&#45;&gt;Node3 -->
<g id="edge2" class="edge">
<title>Node2&#45;&gt;Node3</title>
<path fill="none" stroke="midnightblue" d="M451.27,-98.65C428.03,-102.41 401.89,-106.65 377.86,-110.55"/>
<polygon fill="midnightblue" stroke="midnightblue" points="452.07,-102.06 461.38,-97.01 450.95,-95.15 452.07,-102.06"/>
</g>
<!-- Node2&#45;&gt;Node4 -->
<g id="edge3" class="edge">
<title>Node2&#45;&gt;Node4</title>
<path fill="none" stroke="midnightblue" d="M480.82,-74.79C442.79,-62.46 385.04,-43.73 344.65,-30.63"/>
<polygon fill="midnightblue" stroke="midnightblue" points="479.93,-78.18 490.52,-77.94 482.09,-71.52 479.93,-78.18"/>
</g>
<!-- Node2&#45;&gt;Node6 -->
<g id="edge6" class="edge">
<title>Node2&#45;&gt;Node6</title>
<path fill="none" stroke="midnightblue" d="M417.77,-82.9C409.21,-82.51 400.58,-82.12 392.08,-81.74"/>
<polygon fill="midnightblue" stroke="midnightblue" points="417.63,-86.39 427.78,-83.35 417.95,-79.4 417.63,-86.39"/>
</g>
<!-- Node4&#45;&gt;Node4 -->
<g id="edge4" class="edge">
<title>Node4&#45;&gt;Node4</title>
<path fill="none" stroke="midnightblue" d="M335.03,-40.96C330.31,-45.68 317.63,-49 297,-49 263.14,-49 250.71,-40.06 259.71,-30.66"/>
<polygon fill="midnightblue" stroke="midnightblue" points="338.49,-40.39 334.29,-30.66 331.51,-40.88 338.49,-40.39"/>
</g>
<!-- Node5 -->
<g id="node5" class="node">
<title>Node5</title>
<g id="a_node5"><a xlink:href="classklyqa__ctl_1_1klyqa__ctl_1_1Client.html#a7a93bda9f242d678a4208d0962837f11" target="_top" xlink:title=" ">
<polygon fill="white" stroke="black" points="0,-31.5 0,-61.5 166,-61.5 166,-31.5 0,-31.5"/>
<text text-anchor="start" x="8" y="-49.5" font-family="Helvetica,sans-Serif" font-size="10.00">klyqa_ctl.klyqa_ctl.Client.send</text>
<text text-anchor="middle" x="83" y="-38.5" font-family="Helvetica,sans-Serif" font-size="10.00">_to_devices_wrapped</text>
</a>
</g>
</g>
<!-- Node4&#45;&gt;Node5 -->
<g id="edge5" class="edge">
<title>Node4&#45;&gt;Node5</title>
<path fill="none" stroke="midnightblue" d="M203.78,-28.99C191.28,-30.81 178.53,-32.68 166.22,-34.48"/>
<polygon fill="midnightblue" stroke="midnightblue" points="204.34,-32.44 213.73,-27.53 203.33,-25.51 204.34,-32.44"/>
</g>
<!-- Node6&#45;&gt;Node5 -->
<g id="edge7" class="edge">
<title>Node6&#45;&gt;Node5</title>
<path fill="none" stroke="midnightblue" d="M220.71,-66.49C203.04,-63.91 184.13,-61.14 166.18,-58.52"/>
<polygon fill="midnightblue" stroke="midnightblue" points="220.55,-70 230.95,-67.99 221.56,-63.08 220.55,-70"/>
</g>
</g>
</svg>
