<?xml version="1.0" encoding="UTF-8" standalone="no"?>
<!DOCTYPE svg PUBLIC "-//W3C//DTD SVG 1.1//EN"
 "http://www.w3.org/Graphics/SVG/1.1/DTD/svg11.dtd">
<!-- Generated by graphviz version 2.43.0 (0)
 -->
<!-- Title: klyqa_ctl.klyqa_ctl.Client.select_device Pages: 1 -->
<svg width="596pt" height="176pt"
 viewBox="0.00 0.00 596.00 175.50" xmlns="http://www.w3.org/2000/svg" xmlns:xlink="http://www.w3.org/1999/xlink">
<g id="graph0" class="graph" transform="scale(1 1) rotate(0) translate(4 171.5)">
<title>klyqa_ctl.klyqa_ctl.Client.select_device</title>
<polygon fill="white" stroke="transparent" points="-4,4 -4,-171.5 592,-171.5 592,4 -4,4"/>
<!-- Node1 -->
<g id="node1" class="node">
<title>Node1</title>
<g id="a_node1"><a xlink:title=" ">
<polygon fill="#bfbfbf" stroke="black" points="0,-73.5 0,-103.5 172,-103.5 172,-73.5 0,-73.5"/>
<text text-anchor="start" x="8" y="-91.5" font-family="Helvetica,sans-Serif" font-size="10.00">klyqa_ctl.klyqa_ctl.Client.select</text>
<text text-anchor="middle" x="86" y="-80.5" font-family="Helvetica,sans-Serif" font-size="10.00">_device</text>
</a>
</g>
</g>
<!-- Node2 -->
<g id="node2" class="node">
<title>Node2</title>
<g id="a_node2"><a xlink:href="classklyqa__ctl_1_1account_1_1Account.html#a2265c38daf6829c96c852ad4a288b42d" target="_top" xlink:title=" ">
<polygon fill="white" stroke="black" points="208,-148 208,-167 393,-167 393,-148 208,-148"/>
<text text-anchor="middle" x="300.5" y="-155" font-family="Helvetica,sans-Serif" font-size="10.00">klyqa_ctl.account.Account.devices</text>
</a>
</g>
</g>
<!-- Node1&#45;&gt;Node2 -->
<g id="edge1" class="edge">
<title>Node1&#45;&gt;Node2</title>
<path fill="none" stroke="midnightblue" d="M118.75,-103.54C142.82,-114.47 176.93,-128.95 208,-138.5 216.66,-141.16 225.89,-143.57 235.03,-145.7"/>
<polygon fill="midnightblue" stroke="midnightblue" points="234.36,-149.13 244.89,-147.9 235.89,-142.3 234.36,-149.13"/>
</g>
<!-- Node3 -->
<g id="node3" class="node">
<title>Node3</title>
<g id="a_node3"><a xlink:href="classlocal_1_1connection__handler_1_1LocalConnectionHandler.html#a4d307f6bd0b66f3cb9fac3057fc87972" target="_top" xlink:title=" ">
<polygon fill="white" stroke="black" points="213,-98.5 213,-128.5 388,-128.5 388,-98.5 213,-98.5"/>
<text text-anchor="start" x="221" y="-116.5" font-family="Helvetica,sans-Serif" font-size="10.00">local.connection_handler.</text>
<text text-anchor="middle" x="300.5" y="-105.5" font-family="Helvetica,sans-Serif" font-size="10.00">LocalConnectionHandler.devices</text>
</a>
</g>
</g>
<!-- Node1&#45;&gt;Node3 -->
<g id="edge2" class="edge">
<title>Node1&#45;&gt;Node3</title>
<path fill="none" stroke="midnightblue" d="M172.21,-98.52C182.25,-99.71 192.56,-100.92 202.75,-102.12"/>
<polygon fill="midnightblue" stroke="midnightblue" points="202.55,-105.62 212.89,-103.31 203.36,-98.67 202.55,-105.62"/>
</g>
<!-- Node4 -->
<g id="node4" class="node">
<title>Node4</title>
<g id="a_node4"><a xlink:href="classklyqa__ctl_1_1controller__data_1_1ControllerData.html#adf7af423388a9a883c428cf71e217650" target="_top" xlink:title=" ">
<polygon fill="white" stroke="black" points="221.5,-49.5 221.5,-79.5 379.5,-79.5 379.5,-49.5 221.5,-49.5"/>
<text text-anchor="start" x="229.5" y="-67.5" font-family="Helvetica,sans-Serif" font-size="10.00">klyqa_ctl.controller</text>
<text text-anchor="middle" x="300.5" y="-56.5" font-family="Helvetica,sans-Serif" font-size="10.00">_data.ControllerData.devices</text>
</a>
</g>
</g>
<!-- Node1&#45;&gt;Node4 -->
<g id="edge3" class="edge">
<title>Node1&#45;&gt;Node4</title>
<path fill="none" stroke="midnightblue" d="M172.21,-78.88C185.05,-77.43 198.33,-75.93 211.24,-74.47"/>
<polygon fill="midnightblue" stroke="midnightblue" points="211.95,-77.91 221.5,-73.31 211.17,-70.95 211.95,-77.91"/>
</g>
<!-- Node5 -->
<g id="node5" class="node">
<title>Node5</title>
<g id="a_node5"><a xlink:href="namespaceklyqa__ctl_1_1general_1_1general.html#a478a761c65763ffa478642d11af1eade" target="_top" xlink:title=" ">
<polygon fill="white" stroke="black" points="221,-0.5 221,-30.5 380,-30.5 380,-0.5 221,-0.5"/>
<text text-anchor="start" x="229" y="-18.5" font-family="Helvetica,sans-Serif" font-size="10.00">klyqa_ctl.general.general.get</text>
<text text-anchor="middle" x="300.5" y="-7.5" font-family="Helvetica,sans-Serif" font-size="10.00">_obj_attrs_as_string</text>
</a>
</g>
</g>
<!-- Node1&#45;&gt;Node5 -->
<g id="edge4" class="edge">
<title>Node1&#45;&gt;Node5</title>
<path fill="none" stroke="midnightblue" d="M121.83,-73.49C145.81,-63.46 178.52,-50.34 208,-40.5 215.36,-38.04 223.11,-35.64 230.85,-33.37"/>
<polygon fill="midnightblue" stroke="midnightblue" points="232,-36.68 240.63,-30.55 230.06,-29.95 232,-36.68"/>
</g>
<!-- Node6 -->
<g id="node6" class="node">
<title>Node6</title>
<g id="a_node6"><a xlink:href="namespaceklyqa__ctl_1_1general_1_1general.html#a59231019cd9e7c0089ff0471363c039a" target="_top" xlink:title=" ">
<polygon fill="white" stroke="black" points="429,-0.5 429,-30.5 588,-30.5 588,-0.5 429,-0.5"/>
<text text-anchor="start" x="437" y="-18.5" font-family="Helvetica,sans-Serif" font-size="10.00">klyqa_ctl.general.general.get</text>
<text text-anchor="middle" x="508.5" y="-7.5" font-family="Helvetica,sans-Serif" font-size="10.00">_fields</text>
</a>
</g>
</g>
<!-- Node5&#45;&gt;Node6 -->
<g id="edge5" class="edge">
<title>Node5&#45;&gt;Node6</title>
<path fill="none" stroke="midnightblue" d="M380.26,-15.5C392.81,-15.5 405.87,-15.5 418.63,-15.5"/>
<polygon fill="midnightblue" stroke="midnightblue" points="418.78,-19 428.78,-15.5 418.78,-12 418.78,-19"/>
</g>
</g>
</svg>
