<?xml version="1.0" encoding="UTF-8" standalone="no"?>
<!DOCTYPE svg PUBLIC "-//W3C//DTD SVG 1.1//EN"
 "http://www.w3.org/Graphics/SVG/1.1/DTD/svg11.dtd">
<!-- Generated by graphviz version 2.43.0 (0)
 -->
<!-- Title: klyqa_ctl.account.Account.get_beared_request_header Pages: 1 -->
<!--zoomable 676 -->
<svg id="main" version="1.1" xmlns="http://www.w3.org/2000/svg" xmlns:xlink="http://www.w3.org/1999/xlink" xml:space="preserve" onload="init(evt)">
<style type="text/css"><![CDATA[
.edge:hover path { stroke: red; }
.edge:hover polygon { stroke: red; fill: red; }
]]></style>
<script type="text/javascript"><![CDATA[
var edges = document.getElementsByTagName('g');
if (edges && edges.length) {
  for (var i=0;i<edges.length;i++) {
    if (edges[i].id.substr(0,4)=='edge') {
      edges[i].setAttribute('class','edge');
    }
  }
}
]]></script>
        <defs>
                <circle id="rim" cx="0" cy="0" r="7"/>
                <circle id="rim2" cx="0" cy="0" r="3.5"/>
                <g id="zoomPlus">
                        <use xlink:href="#rim" fill="#404040">
                                <set attributeName="fill" to="#808080" begin="zoomplus.mouseover" end="zoomplus.mouseout"/>
                        </use>
                        <path d="M-4,0h8M0,-4v8" fill="none" stroke="white" stroke-width="1.5" pointer-events="none"/>
                </g>
                <g id="zoomMin">
                        <use xlink:href="#rim" fill="#404040">
                                <set attributeName="fill" to="#808080" begin="zoomminus.mouseover" end="zoomminus.mouseout"/>
                        </use>
                        <path d="M-4,0h8" fill="none" stroke="white" stroke-width="1.5" pointer-events="none"/>
                </g>
                <g id="dirArrow">
                        <path fill="none" stroke="white" stroke-width="1.5" d="M0,-3.0v7 M-2.5,-0.5L0,-3.0L2.5,-0.5"/>
                </g>
               <g id="resetDef">
                       <use xlink:href="#rim2" fill="#404040">
                               <set attributeName="fill" to="#808080" begin="reset.mouseover" end="reset.mouseout"/>
                       </use>
               </g>
        </defs>

<script type="text/javascript">
var viewWidth = 1106;
var viewHeight = 676;
var sectionId = 'dynsection-20';
</script>
<script xlink:href="svgpan.js"/>
<svg id="graph" class="graph">
<g id="viewport">
<title>klyqa_ctl.account.Account.get_beared_request_header</title>
<polygon fill="white" stroke="transparent" points="-4,4 -4,-672 1102,-672 1102,4 -4,4"/>
<!-- Node1 -->
<g id="node1" class="node">
<title>Node1</title>
<g id="a_node1"><a xlink:title=" ">
<polygon fill="#bfbfbf" stroke="black" points="0,-343.5 0,-373.5 163,-373.5 163,-343.5 0,-343.5"/>
<text text-anchor="start" x="8" y="-361.5" font-family="Helvetica,sans-Serif" font-size="10.00">klyqa_ctl.account.Account.get</text>
<text text-anchor="middle" x="81.5" y="-350.5" font-family="Helvetica,sans-Serif" font-size="10.00">_beared_request_header</text>
</a>
</g>
</g>
<!-- Node2 -->
<g id="node2" class="node">
<title>Node2</title>
<g id="a_node2"><a xlink:href="classklyqa__ctl_1_1account_1_1Account.html#aeb463ade6756bf093a809634f64c6ef6" target="_top" xlink:title=" ">
<polygon fill="white" stroke="black" points="199,-442 199,-461 372,-461 372,-442 199,-442"/>
<text text-anchor="middle" x="285.5" y="-449" font-family="Helvetica,sans-Serif" font-size="10.00">klyqa_ctl.account.Account.cloud</text>
</a>
</g>
</g>
<!-- Node1&#45;&gt;Node2 -->
<g id="edge1" class="edge">
<title>Node1&#45;&gt;Node2</title>
<path fill="none" stroke="midnightblue" d="M101.54,-373.57C123.71,-390.37 162.02,-417.2 199,-432.5 205.23,-435.08 211.87,-437.33 218.58,-439.3"/>
<polygon fill="midnightblue" stroke="midnightblue" points="217.88,-442.73 228.44,-441.98 219.71,-435.98 217.88,-442.73"/>
</g>
<!-- Node3 -->
<g id="node3" class="node">
<title>Node3</title>
<g id="a_node3"><a xlink:href="classklyqa__ctl_1_1devices_1_1device_1_1Device.html#a574647293c61d5f53e153d48ddb31f65" target="_top" xlink:title=" ">
<polygon fill="white" stroke="black" points="215.5,-392.5 215.5,-422.5 355.5,-422.5 355.5,-392.5 215.5,-392.5"/>
<text text-anchor="start" x="223.5" y="-410.5" font-family="Helvetica,sans-Serif" font-size="10.00">klyqa_ctl.devices.device.</text>
<text text-anchor="middle" x="285.5" y="-399.5" font-family="Helvetica,sans-Serif" font-size="10.00">Device.cloud</text>
</a>
</g>
</g>
<!-- Node1&#45;&gt;Node3 -->
<g id="edge2" class="edge">
<title>Node1&#45;&gt;Node3</title>
<path fill="none" stroke="midnightblue" d="M144.48,-373.53C166.1,-378.78 190.54,-384.71 212.87,-390.13"/>
<polygon fill="midnightblue" stroke="midnightblue" points="212.09,-393.54 222.64,-392.49 213.74,-386.74 212.09,-393.54"/>
</g>
<!-- Node4 -->
<g id="node4" class="node">
<title>Node4</title>
<g id="a_node4"><a xlink:href="classklyqa__ctl_1_1general_1_1general_1_1Command.html#a4aa9e4db12aecf5520e974204c635d38" target="_top" xlink:title=" ">
<polygon fill="white" stroke="black" points="214,-294.5 214,-324.5 357,-324.5 357,-294.5 214,-294.5"/>
<text text-anchor="start" x="222" y="-312.5" font-family="Helvetica,sans-Serif" font-size="10.00">klyqa_ctl.general.general.</text>
<text text-anchor="middle" x="285.5" y="-301.5" font-family="Helvetica,sans-Serif" font-size="10.00">Command.cloud</text>
</a>
</g>
</g>
<!-- Node1&#45;&gt;Node4 -->
<g id="edge3" class="edge">
<title>Node1&#45;&gt;Node4</title>
<path fill="none" stroke="midnightblue" d="M144.48,-343.47C166.1,-338.22 190.54,-332.29 212.87,-326.87"/>
<polygon fill="midnightblue" stroke="midnightblue" points="213.74,-330.26 222.64,-324.51 212.09,-323.46 213.74,-330.26"/>
</g>
<!-- Node32 -->
<g id="node32" class="node">
<title>Node32</title>
<g id="a_node32"><a xlink:href="classklyqa__ctl_1_1general_1_1general_1_1CloudStateCommand.html#a6bbc8b1333f0a45ce38f1e81a6093bc1" target="_top" xlink:title=" ">
<polygon fill="white" stroke="black" points="211,-343.5 211,-373.5 360,-373.5 360,-343.5 211,-343.5"/>
<text text-anchor="start" x="219" y="-361.5" font-family="Helvetica,sans-Serif" font-size="10.00">klyqa_ctl.general.general.</text>
<text text-anchor="middle" x="285.5" y="-350.5" font-family="Helvetica,sans-Serif" font-size="10.00">CloudStateCommand.cloud</text>
</a>
</g>
</g>
<!-- Node1&#45;&gt;Node32 -->
<g id="edge31" class="edge">
<title>Node1&#45;&gt;Node32</title>
<path fill="none" stroke="midnightblue" d="M163.21,-358.5C175.48,-358.5 188.18,-358.5 200.52,-358.5"/>
<polygon fill="midnightblue" stroke="midnightblue" points="200.79,-362 210.79,-358.5 200.79,-355 200.79,-362"/>
</g>
<!-- Node33 -->
<g id="node33" class="node">
<title>Node33</title>
<g id="a_node33"><a xlink:href="classklyqa__ctl_1_1klyqa__ctl_1_1Client.html#a7d8a302d936e8e1889f175bac259f565" target="_top" xlink:title=" ">
<polygon fill="white" stroke="black" points="201,-256 201,-275 370,-275 370,-256 201,-256"/>
<text text-anchor="middle" x="285.5" y="-263" font-family="Helvetica,sans-Serif" font-size="10.00">klyqa_ctl.klyqa_ctl.Client.cloud</text>
</a>
</g>
</g>
<!-- Node1&#45;&gt;Node33 -->
<g id="edge46" class="edge">
<title>Node1&#45;&gt;Node33</title>
<path fill="none" stroke="midnightblue" d="M102.01,-343.43C124.3,-326.91 162.43,-300.74 199,-285.5 206.12,-282.53 213.77,-279.96 221.46,-277.73"/>
<polygon fill="midnightblue" stroke="midnightblue" points="222.45,-281.09 231.19,-275.1 220.62,-274.33 222.45,-281.09"/>
</g>
<!-- Node5 -->
<g id="node5" class="node">
<title>Node5</title>
<g id="a_node5"><a xlink:href="classklyqa__ctl_1_1devices_1_1light_1_1commands_1_1FwUpdateCommand.html#a9de3441c7fbba5f5a19ea914970a3db7" target="_top" xlink:title=" ">
<polygon fill="white" stroke="black" points="416.5,-637.5 416.5,-667.5 602.5,-667.5 602.5,-637.5 416.5,-637.5"/>
<text text-anchor="start" x="424.5" y="-655.5" font-family="Helvetica,sans-Serif" font-size="10.00">klyqa_ctl.devices.light.commands.</text>
<text text-anchor="middle" x="509.5" y="-644.5" font-family="Helvetica,sans-Serif" font-size="10.00">FwUpdateCommand.json</text>
</a>
</g>
</g>
<!-- Node4&#45;&gt;Node5 -->
<g id="edge4" class="edge">
<title>Node4&#45;&gt;Node5</title>
<path fill="none" stroke="midnightblue" d="M357.04,-322.32C362.67,-325.55 367.8,-329.55 372,-334.5 457.22,-434.84 320.3,-530.33 408,-628.5 408.65,-629.23 409.33,-629.94 410.01,-630.63"/>
<polygon fill="midnightblue" stroke="midnightblue" points="408.07,-633.57 417.99,-637.31 412.57,-628.21 408.07,-633.57"/>
</g>
<!-- Node7 -->
<g id="node7" class="node">
<title>Node7</title>
<g id="a_node7"><a xlink:href="classklyqa__ctl_1_1devices_1_1light_1_1commands_1_1TransitionCommand.html#aaf9d8431e346c86b9959102c2d7f3316" target="_top" xlink:title=" ">
<polygon fill="white" stroke="black" points="416.5,-294.5 416.5,-324.5 602.5,-324.5 602.5,-294.5 416.5,-294.5"/>
<text text-anchor="start" x="424.5" y="-312.5" font-family="Helvetica,sans-Serif" font-size="10.00">klyqa_ctl.devices.light.commands.</text>
<text text-anchor="middle" x="509.5" y="-301.5" font-family="Helvetica,sans-Serif" font-size="10.00">TransitionCommand.json</text>
</a>
</g>
</g>
<!-- Node4&#45;&gt;Node7 -->
<g id="edge6" class="edge">
<title>Node4&#45;&gt;Node7</title>
<path fill="none" stroke="midnightblue" d="M357.05,-309.5C372.61,-309.5 389.4,-309.5 405.94,-309.5"/>
<polygon fill="midnightblue" stroke="midnightblue" points="406.19,-313 416.19,-309.5 406.19,-306 406.19,-313"/>
</g>
<!-- Node8 -->
<g id="node8" class="node">
<title>Node8</title>
<g id="a_node8"><a xlink:href="classklyqa__ctl_1_1devices_1_1light_1_1commands_1_1ColorCommand.html#afa8f262e4047666707237c4dfe8615c3" target="_top" xlink:title=" ">
<polygon fill="white" stroke="black" points="416.5,-588.5 416.5,-618.5 602.5,-618.5 602.5,-588.5 416.5,-588.5"/>
<text text-anchor="start" x="424.5" y="-606.5" font-family="Helvetica,sans-Serif" font-size="10.00">klyqa_ctl.devices.light.commands.</text>
<text text-anchor="middle" x="509.5" y="-595.5" font-family="Helvetica,sans-Serif" font-size="10.00">ColorCommand.json</text>
</a>
</g>
</g>
<!-- Node4&#45;&gt;Node8 -->
<g id="edge7" class="edge">
<title>Node4&#45;&gt;Node8</title>
<path fill="none" stroke="midnightblue" d="M357.32,-322.66C362.82,-325.82 367.84,-329.72 372,-334.5 444.25,-417.52 333.7,-498.31 408,-579.5 408.66,-580.22 409.34,-580.93 410.04,-581.61"/>
<polygon fill="midnightblue" stroke="midnightblue" points="408.14,-584.58 418.08,-588.22 412.58,-579.17 408.14,-584.58"/>
</g>
<!-- Node11 -->
<g id="node11" class="node">
<title>Node11</title>
<g id="a_node11"><a xlink:href="classklyqa__ctl_1_1devices_1_1light_1_1commands_1_1TemperatureCommand.html#aaa297cd598227ab2f33a6d111532e5e0" target="_top" xlink:title=" ">
<polygon fill="white" stroke="black" points="416.5,-539.5 416.5,-569.5 602.5,-569.5 602.5,-539.5 416.5,-539.5"/>
<text text-anchor="start" x="424.5" y="-557.5" font-family="Helvetica,sans-Serif" font-size="10.00">klyqa_ctl.devices.light.commands.</text>
<text text-anchor="middle" x="509.5" y="-546.5" font-family="Helvetica,sans-Serif" font-size="10.00">TemperatureCommand.json</text>
</a>
</g>
</g>
<!-- Node4&#45;&gt;Node11 -->
<g id="edge10" class="edge">
<title>Node4&#45;&gt;Node11</title>
<path fill="none" stroke="midnightblue" d="M357.14,-322.82C362.67,-325.95 367.75,-329.79 372,-334.5 431.33,-400.26 347.05,-466.24 408,-530.5 408.8,-531.35 409.63,-532.16 410.48,-532.96"/>
<polygon fill="midnightblue" stroke="midnightblue" points="408.64,-535.97 418.67,-539.39 412.97,-530.46 408.64,-535.97"/>
</g>
<!-- Node14 -->
<g id="node14" class="node">
<title>Node14</title>
<g id="a_node14"><a xlink:href="classklyqa__ctl_1_1devices_1_1light_1_1commands_1_1BrightnessCommand.html#a946e7180dd8f3bd4621c23b24e63469a" target="_top" xlink:title=" ">
<polygon fill="white" stroke="black" points="416.5,-490.5 416.5,-520.5 602.5,-520.5 602.5,-490.5 416.5,-490.5"/>
<text text-anchor="start" x="424.5" y="-508.5" font-family="Helvetica,sans-Serif" font-size="10.00">klyqa_ctl.devices.light.commands.</text>
<text text-anchor="middle" x="509.5" y="-497.5" font-family="Helvetica,sans-Serif" font-size="10.00">BrightnessCommand.json</text>
</a>
</g>
</g>
<!-- Node4&#45;&gt;Node14 -->
<g id="edge13" class="edge">
<title>Node4&#45;&gt;Node14</title>
<path fill="none" stroke="midnightblue" d="M357.26,-323.31C362.7,-326.35 367.72,-330.03 372,-334.5 418.5,-383.1 360.3,-434.07 408,-481.5 408.97,-482.46 409.96,-483.39 410.99,-484.28"/>
<polygon fill="midnightblue" stroke="midnightblue" points="409.24,-487.33 419.36,-490.44 413.39,-481.69 409.24,-487.33"/>
</g>
<!-- Node17 -->
<g id="node17" class="node">
<title>Node17</title>
<g id="a_node17"><a xlink:href="classklyqa__ctl_1_1devices_1_1light_1_1commands_1_1ExternalSourceCommand.html#a393710b54f709b852bfd0f3769c39ce6" target="_top" xlink:title=" ">
<polygon fill="white" stroke="black" points="416.5,-98.5 416.5,-128.5 602.5,-128.5 602.5,-98.5 416.5,-98.5"/>
<text text-anchor="start" x="424.5" y="-116.5" font-family="Helvetica,sans-Serif" font-size="10.00">klyqa_ctl.devices.light.commands.</text>
<text text-anchor="middle" x="509.5" y="-105.5" font-family="Helvetica,sans-Serif" font-size="10.00">ExternalSourceCommand.json</text>
</a>
</g>
</g>
<!-- Node4&#45;&gt;Node17 -->
<g id="edge16" class="edge">
<title>Node4&#45;&gt;Node17</title>
<path fill="none" stroke="midnightblue" d="M357.25,-295.68C362.69,-292.65 367.72,-288.97 372,-284.5 418.24,-236.24 360.79,-185.81 408,-138.5 409.43,-137.07 410.93,-135.71 412.48,-134.43"/>
<polygon fill="midnightblue" stroke="midnightblue" points="414.57,-137.25 420.73,-128.62 410.54,-131.52 414.57,-137.25"/>
</g>
<!-- Node18 -->
<g id="node18" class="node">
<title>Node18</title>
<g id="a_node18"><a xlink:href="classklyqa__ctl_1_1devices_1_1light_1_1commands_1_1RoutineCommand.html#af3395a663a3dbdff8117ee708f80adec" target="_top" xlink:title=" ">
<polygon fill="white" stroke="black" points="416.5,-49.5 416.5,-79.5 602.5,-79.5 602.5,-49.5 416.5,-49.5"/>
<text text-anchor="start" x="424.5" y="-67.5" font-family="Helvetica,sans-Serif" font-size="10.00">klyqa_ctl.devices.light.commands.</text>
<text text-anchor="middle" x="509.5" y="-56.5" font-family="Helvetica,sans-Serif" font-size="10.00">RoutineCommand.json</text>
</a>
</g>
</g>
<!-- Node4&#45;&gt;Node18 -->
<g id="edge17" class="edge">
<title>Node4&#45;&gt;Node18</title>
<path fill="none" stroke="midnightblue" d="M357.13,-296.18C362.67,-293.05 367.75,-289.21 372,-284.5 431.06,-219.09 347.62,-153.7 408,-89.5 409.23,-88.19 410.51,-86.95 411.85,-85.77"/>
<polygon fill="midnightblue" stroke="midnightblue" points="414.11,-88.45 420,-79.65 409.9,-82.85 414.11,-88.45"/>
</g>
<!-- Node19 -->
<g id="node19" class="node">
<title>Node19</title>
<g id="a_node19"><a xlink:href="classklyqa__ctl_1_1devices_1_1vacuum_1_1commands_1_1ProductinfoCommand.html#a23d375f048835d4b0f12602764d2a6c1" target="_top" xlink:title=" ">
<polygon fill="white" stroke="black" points="408,-392.5 408,-422.5 611,-422.5 611,-392.5 408,-392.5"/>
<text text-anchor="start" x="416" y="-410.5" font-family="Helvetica,sans-Serif" font-size="10.00">klyqa_ctl.devices.vacuum.commands.</text>
<text text-anchor="middle" x="509.5" y="-399.5" font-family="Helvetica,sans-Serif" font-size="10.00">ProductinfoCommand.json</text>
</a>
</g>
</g>
<!-- Node4&#45;&gt;Node19 -->
<g id="edge18" class="edge">
<title>Node4&#45;&gt;Node19</title>
<path fill="none" stroke="midnightblue" d="M353.82,-324.51C360.24,-327.3 366.43,-330.6 372,-334.5 394.14,-350 385.48,-368.56 408,-383.5 410.45,-385.13 413,-386.64 415.63,-388.06"/>
<polygon fill="midnightblue" stroke="midnightblue" points="414.29,-391.3 424.82,-392.48 417.33,-384.99 414.29,-391.3"/>
</g>
<!-- Node21 -->
<g id="node21" class="node">
<title>Node21</title>
<g id="a_node21"><a xlink:href="classklyqa__ctl_1_1devices_1_1vacuum_1_1commands_1_1RequestGetCommand.html#a216966811184b718a4659bf081113f38" target="_top" xlink:title=" ">
<polygon fill="white" stroke="black" points="408,-343.5 408,-373.5 611,-373.5 611,-343.5 408,-343.5"/>
<text text-anchor="start" x="416" y="-361.5" font-family="Helvetica,sans-Serif" font-size="10.00">klyqa_ctl.devices.vacuum.commands.</text>
<text text-anchor="middle" x="509.5" y="-350.5" font-family="Helvetica,sans-Serif" font-size="10.00">RequestGetCommand.json</text>
</a>
</g>
</g>
<!-- Node4&#45;&gt;Node21 -->
<g id="edge20" class="edge">
<title>Node4&#45;&gt;Node21</title>
<path fill="none" stroke="midnightblue" d="M354.62,-324.53C378.59,-329.83 405.72,-335.81 430.44,-341.27"/>
<polygon fill="midnightblue" stroke="midnightblue" points="429.99,-344.76 440.51,-343.49 431.5,-337.92 429.99,-344.76"/>
</g>
<!-- Node23 -->
<g id="node23" class="node">
<title>Node23</title>
<g id="a_node23"><a xlink:href="classklyqa__ctl_1_1devices_1_1vacuum_1_1commands_1_1RequestResetCommand.html#a1ac56b80427d60d9f55079ae846ae25e" target="_top" xlink:title=" ">
<polygon fill="white" stroke="black" points="408,-245.5 408,-275.5 611,-275.5 611,-245.5 408,-245.5"/>
<text text-anchor="start" x="416" y="-263.5" font-family="Helvetica,sans-Serif" font-size="10.00">klyqa_ctl.devices.vacuum.commands.</text>
<text text-anchor="middle" x="509.5" y="-252.5" font-family="Helvetica,sans-Serif" font-size="10.00">RequestResetCommand.json</text>
</a>
</g>
</g>
<!-- Node4&#45;&gt;Node23 -->
<g id="edge22" class="edge">
<title>Node4&#45;&gt;Node23</title>
<path fill="none" stroke="midnightblue" d="M354.62,-294.47C378.59,-289.17 405.72,-283.19 430.44,-277.73"/>
<polygon fill="midnightblue" stroke="midnightblue" points="431.5,-281.08 440.51,-275.51 429.99,-274.24 431.5,-281.08"/>
</g>
<!-- Node25 -->
<g id="node25" class="node">
<title>Node25</title>
<g id="a_node25"><a xlink:href="classklyqa__ctl_1_1devices_1_1vacuum_1_1commands_1_1RequestSetCommand.html#a354b74be46f4b7d8a56811eaab910959" target="_top" xlink:title=" ">
<polygon fill="white" stroke="black" points="408,-196.5 408,-226.5 611,-226.5 611,-196.5 408,-196.5"/>
<text text-anchor="start" x="416" y="-214.5" font-family="Helvetica,sans-Serif" font-size="10.00">klyqa_ctl.devices.vacuum.commands.</text>
<text text-anchor="middle" x="509.5" y="-203.5" font-family="Helvetica,sans-Serif" font-size="10.00">RequestSetCommand.json</text>
</a>
</g>
</g>
<!-- Node4&#45;&gt;Node25 -->
<g id="edge24" class="edge">
<title>Node4&#45;&gt;Node25</title>
<path fill="none" stroke="midnightblue" d="M353.78,-294.43C360.21,-291.66 366.41,-288.38 372,-284.5 393.92,-269.31 385.78,-251.24 408,-236.5 411.1,-234.44 414.36,-232.55 417.74,-230.82"/>
<polygon fill="midnightblue" stroke="midnightblue" points="419.28,-233.96 426.88,-226.58 416.34,-227.61 419.28,-233.96"/>
</g>
<!-- Node27 -->
<g id="node27" class="node">
<title>Node27</title>
<g id="a_node27"><a xlink:href="classklyqa__ctl_1_1devices_1_1vacuum_1_1commands_1_1RoutineCommand.html#a926a94c8cc5104275078e438fb301028" target="_top" xlink:title=" ">
<polygon fill="white" stroke="black" points="408,-147.5 408,-177.5 611,-177.5 611,-147.5 408,-147.5"/>
<text text-anchor="start" x="416" y="-165.5" font-family="Helvetica,sans-Serif" font-size="10.00">klyqa_ctl.devices.vacuum.commands.</text>
<text text-anchor="middle" x="509.5" y="-154.5" font-family="Helvetica,sans-Serif" font-size="10.00">RoutineCommand.json</text>
</a>
</g>
</g>
<!-- Node4&#45;&gt;Node27 -->
<g id="edge26" class="edge">
<title>Node4&#45;&gt;Node27</title>
<path fill="none" stroke="midnightblue" d="M357.14,-294.93C362.53,-292.05 367.59,-288.61 372,-284.5 405.65,-253.16 373.72,-218.15 408,-187.5 409.74,-185.94 411.57,-184.48 413.46,-183.1"/>
<polygon fill="midnightblue" stroke="midnightblue" points="415.57,-185.91 422.17,-177.62 411.84,-179.98 415.57,-185.91"/>
</g>
<!-- Node29 -->
<g id="node29" class="node">
<title>Node29</title>
<g id="a_node29"><a xlink:href="classklyqa__ctl_1_1general_1_1general_1_1Command.html#a8c8ad93fedd0da0e0021f58714ec7fb5" target="_top" xlink:title=" ">
<polygon fill="white" stroke="black" points="438,-441.5 438,-471.5 581,-471.5 581,-441.5 438,-441.5"/>
<text text-anchor="start" x="446" y="-459.5" font-family="Helvetica,sans-Serif" font-size="10.00">klyqa_ctl.general.general.</text>
<text text-anchor="middle" x="509.5" y="-448.5" font-family="Helvetica,sans-Serif" font-size="10.00">Command.json</text>
</a>
</g>
</g>
<!-- Node4&#45;&gt;Node29 -->
<g id="edge28" class="edge">
<title>Node4&#45;&gt;Node29</title>
<path fill="none" stroke="midnightblue" d="M357.15,-324.06C362.55,-326.94 367.59,-330.38 372,-334.5 405.9,-366.18 373.32,-401.67 408,-432.5 413.99,-437.82 420.94,-442.02 428.35,-445.32"/>
<polygon fill="midnightblue" stroke="midnightblue" points="427.34,-448.68 437.93,-449.03 429.87,-442.15 427.34,-448.68"/>
</g>
<!-- Node30 -->
<g id="node30" class="node">
<title>Node30</title>
<g id="a_node30"><a xlink:href="classklyqa__ctl_1_1general_1_1general_1_1CommandTyped.html#a96dfd43912c4640f381424bdd44eebca" target="_top" xlink:title=" ">
<polygon fill="white" stroke="black" points="438,-0.5 438,-30.5 581,-30.5 581,-0.5 438,-0.5"/>
<text text-anchor="start" x="446" y="-18.5" font-family="Helvetica,sans-Serif" font-size="10.00">klyqa_ctl.general.general.</text>
<text text-anchor="middle" x="509.5" y="-7.5" font-family="Helvetica,sans-Serif" font-size="10.00">CommandTyped.json</text>
</a>
</g>
</g>
<!-- Node4&#45;&gt;Node30 -->
<g id="edge29" class="edge">
<title>Node4&#45;&gt;Node30</title>
<path fill="none" stroke="midnightblue" d="M357.32,-296.34C362.82,-293.18 367.84,-289.28 372,-284.5 444.25,-201.48 333.7,-120.69 408,-39.5 413.75,-33.22 420.81,-28.45 428.51,-24.83"/>
<polygon fill="midnightblue" stroke="midnightblue" points="429.83,-28.08 437.8,-21.1 427.22,-21.58 429.83,-28.08"/>
</g>
<!-- Node6 -->
<g id="node6" class="node">
<title>Node6</title>
<g id="a_node6"><a xlink:href="classklyqa__ctl_1_1devices_1_1light_1_1commands_1_1FwUpdateCommand.html#a7dc482a4e9a65d49ce0a61671ed6868e" target="_top" xlink:title=" ">
<polygon fill="white" stroke="black" points="663,-637.5 663,-667.5 849,-667.5 849,-637.5 663,-637.5"/>
<text text-anchor="start" x="671" y="-655.5" font-family="Helvetica,sans-Serif" font-size="10.00">klyqa_ctl.devices.light.commands.</text>
<text text-anchor="middle" x="756" y="-644.5" font-family="Helvetica,sans-Serif" font-size="10.00">FwUpdateCommand.url_json</text>
</a>
</g>
</g>
<!-- Node5&#45;&gt;Node6 -->
<g id="edge5" class="edge">
<title>Node5&#45;&gt;Node6</title>
<path fill="none" stroke="midnightblue" d="M602.59,-652.5C618.95,-652.5 636.09,-652.5 652.72,-652.5"/>
<polygon fill="midnightblue" stroke="midnightblue" points="653,-656 663,-652.5 653,-649 653,-656"/>
</g>
<!-- Node9 -->
<g id="node9" class="node">
<title>Node9</title>
<g id="a_node9"><a xlink:href="classklyqa__ctl_1_1devices_1_1light_1_1commands_1_1ColorCommand.html#a6ce99d7f4f232fb2f11e6efb7e85e778" target="_top" xlink:title=" ">
<polygon fill="white" stroke="black" points="663,-588.5 663,-618.5 849,-618.5 849,-588.5 663,-588.5"/>
<text text-anchor="start" x="671" y="-606.5" font-family="Helvetica,sans-Serif" font-size="10.00">klyqa_ctl.devices.light.commands.</text>
<text text-anchor="middle" x="756" y="-595.5" font-family="Helvetica,sans-Serif" font-size="10.00">ColorCommand.color_json</text>
</a>
</g>
</g>
<!-- Node8&#45;&gt;Node9 -->
<g id="edge8" class="edge">
<title>Node8&#45;&gt;Node9</title>
<path fill="none" stroke="midnightblue" d="M602.59,-603.5C618.95,-603.5 636.09,-603.5 652.72,-603.5"/>
<polygon fill="midnightblue" stroke="midnightblue" points="653,-607 663,-603.5 653,-600 653,-607"/>
</g>
<!-- Node10 -->
<g id="node10" class="node">
<title>Node10</title>
<g id="a_node10"><a xlink:href="classklyqa__ctl_1_1devices_1_1light_1_1response__status_1_1ResponseStatus.html#a327c18fd6f8a38e75e1bbc2f895df592" target="_top" xlink:title=" ">
<polygon fill="white" stroke="black" points="913,-588.5 913,-618.5 1086,-618.5 1086,-588.5 913,-588.5"/>
<text text-anchor="start" x="921" y="-606.5" font-family="Helvetica,sans-Serif" font-size="10.00">klyqa_ctl.devices.light.response</text>
<text text-anchor="middle" x="999.5" y="-595.5" font-family="Helvetica,sans-Serif" font-size="10.00">_status.ResponseStatus.color</text>
</a>
</g>
</g>
<!-- Node9&#45;&gt;Node10 -->
<g id="edge9" class="edge">
<title>Node9&#45;&gt;Node10</title>
<path fill="none" stroke="midnightblue" d="M849.33,-603.5C866.81,-603.5 885.13,-603.5 902.71,-603.5"/>
<polygon fill="midnightblue" stroke="midnightblue" points="902.96,-607 912.96,-603.5 902.96,-600 902.96,-607"/>
</g>
<!-- Node12 -->
<g id="node12" class="node">
<title>Node12</title>
<g id="a_node12"><a xlink:href="classklyqa__ctl_1_1devices_1_1light_1_1commands_1_1TemperatureCommand.html#a0b45255dc9218a36450152f1118a8280" target="_top" xlink:title=" ">
<polygon fill="white" stroke="black" points="647,-539.5 647,-569.5 865,-569.5 865,-539.5 647,-539.5"/>
<text text-anchor="start" x="655" y="-557.5" font-family="Helvetica,sans-Serif" font-size="10.00">klyqa_ctl.devices.light.commands.</text>
<text text-anchor="middle" x="756" y="-546.5" font-family="Helvetica,sans-Serif" font-size="10.00">TemperatureCommand.temperature_json</text>
</a>
</g>
</g>
<!-- Node11&#45;&gt;Node12 -->
<g id="edge11" class="edge">
<title>Node11&#45;&gt;Node12</title>
<path fill="none" stroke="midnightblue" d="M602.59,-554.5C613.79,-554.5 625.35,-554.5 636.87,-554.5"/>
<polygon fill="midnightblue" stroke="midnightblue" points="636.96,-558 646.96,-554.5 636.96,-551 636.96,-558"/>
</g>
<!-- Node13 -->
<g id="node13" class="node">
<title>Node13</title>
<g id="a_node13"><a xlink:href="classklyqa__ctl_1_1devices_1_1light_1_1response__status_1_1ResponseStatus.html#a2e732c44c35f39dc3d8fe269c24aef8a" target="_top" xlink:title=" ">
<polygon fill="white" stroke="black" points="901,-539.5 901,-569.5 1098,-569.5 1098,-539.5 901,-539.5"/>
<text text-anchor="start" x="909" y="-557.5" font-family="Helvetica,sans-Serif" font-size="10.00">klyqa_ctl.devices.light.response</text>
<text text-anchor="middle" x="999.5" y="-546.5" font-family="Helvetica,sans-Serif" font-size="10.00">_status.ResponseStatus.temperature</text>
</a>
</g>
</g>
<!-- Node12&#45;&gt;Node13 -->
<g id="edge12" class="edge">
<title>Node12&#45;&gt;Node13</title>
<path fill="none" stroke="midnightblue" d="M865.04,-554.5C873.61,-554.5 882.27,-554.5 890.85,-554.5"/>
<polygon fill="midnightblue" stroke="midnightblue" points="890.86,-558 900.86,-554.5 890.86,-551 890.86,-558"/>
</g>
<!-- Node15 -->
<g id="node15" class="node">
<title>Node15</title>
<g id="a_node15"><a xlink:href="classklyqa__ctl_1_1devices_1_1light_1_1commands_1_1BrightnessCommand.html#aba34fce7f4d8d6aae6bcbaaa61c21a8c" target="_top" xlink:title=" ">
<polygon fill="white" stroke="black" points="657,-490.5 657,-520.5 855,-520.5 855,-490.5 657,-490.5"/>
<text text-anchor="start" x="665" y="-508.5" font-family="Helvetica,sans-Serif" font-size="10.00">klyqa_ctl.devices.light.commands.</text>
<text text-anchor="middle" x="756" y="-497.5" font-family="Helvetica,sans-Serif" font-size="10.00">BrightnessCommand.brightness_json</text>
</a>
</g>
</g>
<!-- Node14&#45;&gt;Node15 -->
<g id="edge14" class="edge">
<title>Node14&#45;&gt;Node15</title>
<path fill="none" stroke="midnightblue" d="M602.59,-505.5C616.99,-505.5 632,-505.5 646.73,-505.5"/>
<polygon fill="midnightblue" stroke="midnightblue" points="646.87,-509 656.87,-505.5 646.87,-502 646.87,-509"/>
</g>
<!-- Node16 -->
<g id="node16" class="node">
<title>Node16</title>
<g id="a_node16"><a xlink:href="classklyqa__ctl_1_1devices_1_1light_1_1response__status_1_1ResponseStatus.html#a762787729b726f6ad8bd5a9a3ae40a67" target="_top" xlink:title=" ">
<polygon fill="white" stroke="black" points="906,-490.5 906,-520.5 1093,-520.5 1093,-490.5 906,-490.5"/>
<text text-anchor="start" x="914" y="-508.5" font-family="Helvetica,sans-Serif" font-size="10.00">klyqa_ctl.devices.light.response</text>
<text text-anchor="middle" x="999.5" y="-497.5" font-family="Helvetica,sans-Serif" font-size="10.00">_status.ResponseStatus.brightness</text>
</a>
</g>
</g>
<!-- Node15&#45;&gt;Node16 -->
<g id="edge15" class="edge">
<title>Node15&#45;&gt;Node16</title>
<path fill="none" stroke="midnightblue" d="M855.23,-505.5C868.55,-505.5 882.25,-505.5 895.64,-505.5"/>
<polygon fill="midnightblue" stroke="midnightblue" points="895.82,-509 905.82,-505.5 895.82,-502 895.82,-509"/>
</g>
<!-- Node20 -->
<g id="node20" class="node">
<title>Node20</title>
<g id="a_node20"><a xlink:href="classklyqa__ctl_1_1devices_1_1vacuum_1_1commands_1_1ProductinfoCommand.html#a1950a810783ab6312c31fa43dd06182c" target="_top" xlink:title=" ">
<polygon fill="white" stroke="black" points="653,-392.5 653,-422.5 859,-422.5 859,-392.5 653,-392.5"/>
<text text-anchor="start" x="661" y="-410.5" font-family="Helvetica,sans-Serif" font-size="10.00">klyqa_ctl.devices.vacuum.commands.</text>
<text text-anchor="middle" x="756" y="-399.5" font-family="Helvetica,sans-Serif" font-size="10.00">ProductinfoCommand.productinfo_json</text>
</a>
</g>
</g>
<!-- Node19&#45;&gt;Node20 -->
<g id="edge19" class="edge">
<title>Node19&#45;&gt;Node20</title>
<path fill="none" stroke="midnightblue" d="M611.01,-407.5C621.49,-407.5 632.19,-407.5 642.79,-407.5"/>
<polygon fill="midnightblue" stroke="midnightblue" points="642.91,-411 652.91,-407.5 642.91,-404 642.91,-411"/>
</g>
<!-- Node22 -->
<g id="node22" class="node">
<title>Node22</title>
<g id="a_node22"><a xlink:href="classklyqa__ctl_1_1devices_1_1vacuum_1_1commands_1_1RequestGetCommand.html#a71be3cb060fa2c05f2762d13267c6144" target="_top" xlink:title=" ">
<polygon fill="white" stroke="black" points="654.5,-343.5 654.5,-373.5 857.5,-373.5 857.5,-343.5 654.5,-343.5"/>
<text text-anchor="start" x="662.5" y="-361.5" font-family="Helvetica,sans-Serif" font-size="10.00">klyqa_ctl.devices.vacuum.commands.</text>
<text text-anchor="middle" x="756" y="-350.5" font-family="Helvetica,sans-Serif" font-size="10.00">RequestGetCommand.get_json</text>
</a>
</g>
</g>
<!-- Node21&#45;&gt;Node22 -->
<g id="edge21" class="edge">
<title>Node21&#45;&gt;Node22</title>
<path fill="none" stroke="midnightblue" d="M611.01,-358.5C622,-358.5 633.23,-358.5 644.34,-358.5"/>
<polygon fill="midnightblue" stroke="midnightblue" points="644.49,-362 654.49,-358.5 644.49,-355 644.49,-362"/>
</g>
<!-- Node24 -->
<g id="node24" class="node">
<title>Node24</title>
<g id="a_node24"><a xlink:href="classklyqa__ctl_1_1devices_1_1vacuum_1_1commands_1_1RequestResetCommand.html#a53de7ccfeb12e1b8f4c0ea8a82410d4e" target="_top" xlink:title=" ">
<polygon fill="white" stroke="black" points="654.5,-245.5 654.5,-275.5 857.5,-275.5 857.5,-245.5 654.5,-245.5"/>
<text text-anchor="start" x="662.5" y="-263.5" font-family="Helvetica,sans-Serif" font-size="10.00">klyqa_ctl.devices.vacuum.commands.</text>
<text text-anchor="middle" x="756" y="-252.5" font-family="Helvetica,sans-Serif" font-size="10.00">RequestResetCommand.reset_json</text>
</a>
</g>
</g>
<!-- Node23&#45;&gt;Node24 -->
<g id="edge23" class="edge">
<title>Node23&#45;&gt;Node24</title>
<path fill="none" stroke="midnightblue" d="M611.01,-260.5C622,-260.5 633.23,-260.5 644.34,-260.5"/>
<polygon fill="midnightblue" stroke="midnightblue" points="644.49,-264 654.49,-260.5 644.49,-257 644.49,-264"/>
</g>
<!-- Node26 -->
<g id="node26" class="node">
<title>Node26</title>
<g id="a_node26"><a xlink:href="classklyqa__ctl_1_1devices_1_1vacuum_1_1commands_1_1RequestSetCommand.html#ac327b3b919e0d1a45ebe754e546f94f8" target="_top" xlink:title=" ">
<polygon fill="white" stroke="black" points="654.5,-196.5 654.5,-226.5 857.5,-226.5 857.5,-196.5 654.5,-196.5"/>
<text text-anchor="start" x="662.5" y="-214.5" font-family="Helvetica,sans-Serif" font-size="10.00">klyqa_ctl.devices.vacuum.commands.</text>
<text text-anchor="middle" x="756" y="-203.5" font-family="Helvetica,sans-Serif" font-size="10.00">RequestSetCommand.set_json</text>
</a>
</g>
</g>
<!-- Node25&#45;&gt;Node26 -->
<g id="edge25" class="edge">
<title>Node25&#45;&gt;Node26</title>
<path fill="none" stroke="midnightblue" d="M611.01,-211.5C622,-211.5 633.23,-211.5 644.34,-211.5"/>
<polygon fill="midnightblue" stroke="midnightblue" points="644.49,-215 654.49,-211.5 644.49,-208 644.49,-215"/>
</g>
<!-- Node28 -->
<g id="node28" class="node">
<title>Node28</title>
<g id="a_node28"><a xlink:href="classklyqa__ctl_1_1devices_1_1vacuum_1_1commands_1_1RoutineCommand.html#acaf3db880f88d37bb1cf8218a309e52c" target="_top" xlink:title=" ">
<polygon fill="white" stroke="black" points="654.5,-147.5 654.5,-177.5 857.5,-177.5 857.5,-147.5 654.5,-147.5"/>
<text text-anchor="start" x="662.5" y="-165.5" font-family="Helvetica,sans-Serif" font-size="10.00">klyqa_ctl.devices.vacuum.commands.</text>
<text text-anchor="middle" x="756" y="-154.5" font-family="Helvetica,sans-Serif" font-size="10.00">RoutineCommand.routine_json</text>
</a>
</g>
</g>
<!-- Node27&#45;&gt;Node28 -->
<g id="edge27" class="edge">
<title>Node27&#45;&gt;Node28</title>
<path fill="none" stroke="midnightblue" d="M611.01,-162.5C622,-162.5 633.23,-162.5 644.34,-162.5"/>
<polygon fill="midnightblue" stroke="midnightblue" points="644.49,-166 654.49,-162.5 644.49,-159 644.49,-166"/>
</g>
<!-- Node31 -->
<g id="node31" class="node">
<title>Node31</title>
<g id="a_node31"><a xlink:href="classklyqa__ctl_1_1devices_1_1response__message_1_1ResponseMessage.html#a076bcd25b3f41acdc763569b279c4545" target="_top" xlink:title=" ">
<polygon fill="white" stroke="black" points="663.5,-0.5 663.5,-30.5 848.5,-30.5 848.5,-0.5 663.5,-0.5"/>
<text text-anchor="start" x="671.5" y="-18.5" font-family="Helvetica,sans-Serif" font-size="10.00">klyqa_ctl.devices.response</text>
<text text-anchor="middle" x="756" y="-7.5" font-family="Helvetica,sans-Serif" font-size="10.00">_message.ResponseMessage.type</text>
</a>
</g>
</g>
<!-- Node30&#45;&gt;Node31 -->
<g id="edge30" class="edge">
<title>Node30&#45;&gt;Node31</title>
<path fill="none" stroke="midnightblue" d="M581.22,-15.5C603.68,-15.5 628.98,-15.5 653.18,-15.5"/>
<polygon fill="midnightblue" stroke="midnightblue" points="653.47,-19 663.47,-15.5 653.47,-12 653.47,-19"/>
</g>
<!-- Node32&#45;&gt;Node5 -->
<g id="edge32" class="edge">
<title>Node32&#45;&gt;Node5</title>
<path fill="none" stroke="midnightblue" d="M360.09,-373.35C364.51,-376.18 368.55,-379.53 372,-383.5 444.25,-466.52 333.7,-547.31 408,-628.5 408.66,-629.22 409.34,-629.93 410.04,-630.61"/>
<polygon fill="midnightblue" stroke="midnightblue" points="408.14,-633.58 418.08,-637.22 412.58,-628.17 408.14,-633.58"/>
</g>
<!-- Node32&#45;&gt;Node7 -->
<g id="edge33" class="edge">
<title>Node32&#45;&gt;Node7</title>
<path fill="none" stroke="midnightblue" d="M354.62,-343.47C378.59,-338.17 405.72,-332.19 430.44,-326.73"/>
<polygon fill="midnightblue" stroke="midnightblue" points="431.5,-330.08 440.51,-324.51 429.99,-323.24 431.5,-330.08"/>
</g>
<!-- Node32&#45;&gt;Node8 -->
<g id="edge34" class="edge">
<title>Node32&#45;&gt;Node8</title>
<path fill="none" stroke="midnightblue" d="M360.32,-373.73C364.62,-376.48 368.58,-379.71 372,-383.5 431.33,-449.26 347.05,-515.24 408,-579.5 408.8,-580.35 409.63,-581.16 410.48,-581.96"/>
<polygon fill="midnightblue" stroke="midnightblue" points="408.64,-584.97 418.67,-588.39 412.97,-579.46 408.64,-584.97"/>
</g>
<!-- Node32&#45;&gt;Node11 -->
<g id="edge35" class="edge">
<title>Node32&#45;&gt;Node11</title>
<path fill="none" stroke="midnightblue" d="M359.68,-373.72C364.19,-376.47 368.37,-379.7 372,-383.5 418.5,-432.1 360.3,-483.07 408,-530.5 408.97,-531.46 409.96,-532.39 410.99,-533.28"/>
<polygon fill="midnightblue" stroke="midnightblue" points="409.24,-536.33 419.36,-539.44 413.39,-530.69 409.24,-536.33"/>
</g>
<!-- Node32&#45;&gt;Node14 -->
<g id="edge36" class="edge">
<title>Node32&#45;&gt;Node14</title>
<path fill="none" stroke="midnightblue" d="M357.98,-373.51C363.06,-376.29 367.82,-379.59 372,-383.5 405.9,-415.18 373.32,-450.67 408,-481.5 409.17,-482.54 410.38,-483.54 411.63,-484.5"/>
<polygon fill="midnightblue" stroke="midnightblue" points="410.01,-487.63 420.28,-490.24 413.88,-481.79 410.01,-487.63"/>
</g>
<!-- Node32&#45;&gt;Node17 -->
<g id="edge37" class="edge">
<title>Node32&#45;&gt;Node17</title>
<path fill="none" stroke="midnightblue" d="M360.3,-344.15C364.61,-341.45 368.57,-338.26 372,-334.5 431.68,-269.06 347.35,-203.04 408,-138.5 409.23,-137.19 410.51,-135.95 411.85,-134.77"/>
<polygon fill="midnightblue" stroke="midnightblue" points="414.1,-137.45 420,-128.65 409.9,-131.85 414.1,-137.45"/>
</g>
<!-- Node32&#45;&gt;Node18 -->
<g id="edge38" class="edge">
<title>Node32&#45;&gt;Node18</title>
<path fill="none" stroke="midnightblue" d="M360.06,-344.54C364.49,-341.75 368.54,-338.44 372,-334.5 444.7,-251.87 334.08,-171.04 408,-89.5 409.06,-88.33 410.16,-87.22 411.3,-86.15"/>
<polygon fill="midnightblue" stroke="midnightblue" points="413.69,-88.73 419.39,-79.79 409.37,-83.22 413.69,-88.73"/>
</g>
<!-- Node32&#45;&gt;Node19 -->
<g id="edge39" class="edge">
<title>Node32&#45;&gt;Node19</title>
<path fill="none" stroke="midnightblue" d="M354.62,-373.53C378.59,-378.83 405.72,-384.81 430.44,-390.27"/>
<polygon fill="midnightblue" stroke="midnightblue" points="429.99,-393.76 440.51,-392.49 431.5,-386.92 429.99,-393.76"/>
</g>
<!-- Node32&#45;&gt;Node21 -->
<g id="edge40" class="edge">
<title>Node32&#45;&gt;Node21</title>
<path fill="none" stroke="midnightblue" d="M360.11,-358.5C372.17,-358.5 384.88,-358.5 397.6,-358.5"/>
<polygon fill="midnightblue" stroke="midnightblue" points="397.78,-362 407.78,-358.5 397.78,-355 397.78,-362"/>
</g>
<!-- Node32&#45;&gt;Node23 -->
<g id="edge41" class="edge">
<title>Node32&#45;&gt;Node23</title>
<path fill="none" stroke="midnightblue" d="M355.99,-343.38C361.63,-340.86 367.06,-337.92 372,-334.5 394.22,-319.12 385.55,-300.55 408,-285.5 411.09,-283.43 414.35,-281.52 417.71,-279.78"/>
<polygon fill="midnightblue" stroke="midnightblue" points="419.26,-282.92 426.84,-275.52 416.3,-276.58 419.26,-282.92"/>
</g>
<!-- Node32&#45;&gt;Node25 -->
<g id="edge42" class="edge">
<title>Node32&#45;&gt;Node25</title>
<path fill="none" stroke="midnightblue" d="M359.6,-343.46C364.07,-340.92 368.26,-337.95 372,-334.5 406.07,-303 373.46,-267.49 408,-236.5 409.74,-234.94 411.56,-233.47 413.45,-232.09"/>
<polygon fill="midnightblue" stroke="midnightblue" points="415.57,-234.9 422.15,-226.6 411.83,-228.98 415.57,-234.9"/>
</g>
<!-- Node32&#45;&gt;Node27 -->
<g id="edge43" class="edge">
<title>Node32&#45;&gt;Node27</title>
<path fill="none" stroke="midnightblue" d="M360.05,-343.92C364.42,-341.27 368.46,-338.16 372,-334.5 418.76,-286.15 360.52,-235.15 408,-187.5 409.43,-186.07 410.92,-184.71 412.48,-183.43"/>
<polygon fill="midnightblue" stroke="midnightblue" points="414.57,-186.24 420.72,-177.62 410.53,-180.52 414.57,-186.24"/>
</g>
<!-- Node32&#45;&gt;Node29 -->
<g id="edge44" class="edge">
<title>Node32&#45;&gt;Node29</title>
<path fill="none" stroke="midnightblue" d="M353.82,-373.51C360.24,-376.3 366.43,-379.6 372,-383.5 394.14,-399 385.48,-417.56 408,-432.5 414.17,-436.59 420.95,-439.99 428,-442.8"/>
<polygon fill="midnightblue" stroke="midnightblue" points="427.15,-446.22 437.75,-446.3 429.52,-439.63 427.15,-446.22"/>
</g>
<!-- Node32&#45;&gt;Node30 -->
<g id="edge45" class="edge">
<title>Node32&#45;&gt;Node30</title>
<path fill="none" stroke="midnightblue" d="M360.17,-344.63C364.57,-341.82 368.59,-338.48 372,-334.5 458.03,-234.27 320.02,-138.02 408,-39.5 413.71,-33.1 420.79,-28.26 428.53,-24.61"/>
<polygon fill="midnightblue" stroke="midnightblue" points="429.91,-27.83 437.88,-20.86 427.3,-21.34 429.91,-27.83"/>
</g>
</g>
</svg>
        <g id="navigator" transform="translate(0 0)" fill="#404254">
                <rect fill="#f2f5e9" fill-opacity="0.5" stroke="#606060" stroke-width=".5" x="0" y="0" width="60" height="60"/>
                <use id="zoomplus" xlink:href="#zoomPlus" x="17" y="9" onmousedown="handleZoom(evt,'in')"/>
                <use id="zoomminus" xlink:href="#zoomMin" x="42" y="9" onmousedown="handleZoom(evt,'out')"/>
                <use id="reset" xlink:href="#resetDef" x="30" y="36" onmousedown="handleReset()"/>
                <g id="arrowUp" xlink:href="#dirArrow" transform="translate(30 24)" onmousedown="handlePan(0,-1)">
                  <use xlink:href="#rim" fill="#404040">
                        <set attributeName="fill" to="#808080" begin="arrowUp.mouseover" end="arrowUp.mouseout"/>
                  </use>
                  <path fill="none" stroke="white" stroke-width="1.5" d="M0,-3.0v7 M-2.5,-0.5L0,-3.0L2.5,-0.5"/>
                </g>
                <g id="arrowRight" xlink:href="#dirArrow" transform="rotate(90) translate(36 -43)" onmousedown="handlePan(1,0)">
                  <use xlink:href="#rim" fill="#404040">
                        <set attributeName="fill" to="#808080" begin="arrowRight.mouseover" end="arrowRight.mouseout"/>
                  </use>
                  <path fill="none" stroke="white" stroke-width="1.5" d="M0,-3.0v7 M-2.5,-0.5L0,-3.0L2.5,-0.5"/>
                </g>
                <g id="arrowDown" xlink:href="#dirArrow" transform="rotate(180) translate(-30 -48)" onmousedown="handlePan(0,1)">
                  <use xlink:href="#rim" fill="#404040">
                        <set attributeName="fill" to="#808080" begin="arrowDown.mouseover" end="arrowDown.mouseout"/>
                  </use>
                  <path fill="none" stroke="white" stroke-width="1.5" d="M0,-3.0v7 M-2.5,-0.5L0,-3.0L2.5,-0.5"/>
                </g>
                <g id="arrowLeft" xlink:href="#dirArrow" transform="rotate(270) translate(-36 17)" onmousedown="handlePan(-1,0)">
                  <use xlink:href="#rim" fill="#404040">
                        <set attributeName="fill" to="#808080" begin="arrowLeft.mouseover" end="arrowLeft.mouseout"/>
                  </use>
                  <path fill="none" stroke="white" stroke-width="1.5" d="M0,-3.0v7 M-2.5,-0.5L0,-3.0L2.5,-0.5"/>
                </g>
        </g>
        <svg viewBox="0 0 15 15" width="100%" height="30px" preserveAspectRatio="xMaxYMin meet">
         <g id="arrow_out" transform="scale(0.3 0.3)">
          <a xlink:href="classklyqa__ctl_1_1account_1_1Account_ad608e3ee0ba1199f509e644a11081724_cgraph_org.svg" target="_base">
           <rect id="button" ry="5" rx="5" y="6" x="6" height="38" width="38"
                fill="#f2f5e9" fill-opacity="0.5" stroke="#606060" stroke-width="1.0"/>
           <path id="arrow"
             d="M 11.500037,31.436501 C 11.940474,20.09759 22.043105,11.32322 32.158766,21.979434 L 37.068811,17.246167 C 37.068811,17.246167 37.088388,32 37.088388,32 L 22.160133,31.978069 C 22.160133,31.978069 26.997745,27.140456 26.997745,27.140456 C 18.528582,18.264221 13.291696,25.230495 11.500037,31.436501 z"
             style="fill:#404040;"/>
          </a>
         </g>
        </svg>
</svg>
