<?xml version="1.0" encoding="UTF-8" standalone="no"?>
<!DOCTYPE svg PUBLIC "-//W3C//DTD SVG 1.1//EN"
 "http://www.w3.org/Graphics/SVG/1.1/DTD/svg11.dtd">
<!-- Generated by graphviz version 2.43.0 (0)
 -->
<!-- Title: local.connection_handler.LocalConnectionHandler.send_message Pages: 1 -->
<svg width="1471pt" height="297pt"
 viewBox="0.00 0.00 1471.00 296.50" xmlns="http://www.w3.org/2000/svg" xmlns:xlink="http://www.w3.org/1999/xlink">
<g id="graph0" class="graph" transform="scale(1 1) rotate(0) translate(4 292.5)">
<title>local.connection_handler.LocalConnectionHandler.send_message</title>
<polygon fill="white" stroke="transparent" points="-4,4 -4,-292.5 1467,-292.5 1467,4 -4,4"/>
<!-- Node1 -->
<g id="node1" class="node">
<title>Node1</title>
<g id="a_node1"><a xlink:title=" ">
<polygon fill="#bfbfbf" stroke="black" points="0,-198 0,-239 161,-239 161,-198 0,-198"/>
<text text-anchor="start" x="8" y="-227" font-family="Helvetica,sans-Serif" font-size="10.00">local.connection_handler.</text>
<text text-anchor="start" x="8" y="-216" font-family="Helvetica,sans-Serif" font-size="10.00">LocalConnectionHandler.send</text>
<text text-anchor="middle" x="80.5" y="-205" font-family="Helvetica,sans-Serif" font-size="10.00">_message</text>
</a>
</g>
</g>
<!-- Node2 -->
<g id="node2" class="node">
<title>Node2</title>
<g id="a_node2"><a xlink:href="classlocal_1_1connection__handler_1_1LocalConnectionHandler.html#ae9be93d47c973e3c8afeed1b27fc7a4d" target="_top" xlink:title=" ">
<polygon fill="white" stroke="black" points="197,-247 197,-288 367,-288 367,-247 197,-247"/>
<text text-anchor="start" x="205" y="-276" font-family="Helvetica,sans-Serif" font-size="10.00">local.connection_handler.</text>
<text text-anchor="start" x="205" y="-265" font-family="Helvetica,sans-Serif" font-size="10.00">LocalConnectionHandler.search</text>
<text text-anchor="middle" x="282" y="-254" font-family="Helvetica,sans-Serif" font-size="10.00">_and_send_loop_task_alive</text>
</a>
</g>
</g>
<!-- Node1&#45;&gt;Node2 -->
<g id="edge1" class="edge">
<title>Node1&#45;&gt;Node2</title>
<path fill="none" stroke="midnightblue" d="M161.21,-238.08C169.88,-240.21 178.77,-242.39 187.59,-244.56"/>
<polygon fill="midnightblue" stroke="midnightblue" points="186.95,-248 197.5,-246.99 188.62,-241.21 186.95,-248"/>
</g>
<!-- Node3 -->
<g id="node3" class="node">
<title>Node3</title>
<g id="a_node3"><a xlink:href="classlocal_1_1connection__handler_1_1LocalConnectionHandler.html#a69a2aabf1a7bc94f925f914df5ceae10" target="_top" xlink:title=" ">
<polygon fill="white" stroke="black" points="201.5,-124 201.5,-165 362.5,-165 362.5,-124 201.5,-124"/>
<text text-anchor="start" x="209.5" y="-153" font-family="Helvetica,sans-Serif" font-size="10.00">local.connection_handler.</text>
<text text-anchor="start" x="209.5" y="-142" font-family="Helvetica,sans-Serif" font-size="10.00">LocalConnectionHandler.send</text>
<text text-anchor="middle" x="282" y="-131" font-family="Helvetica,sans-Serif" font-size="10.00">_udp_broadcast</text>
</a>
</g>
</g>
<!-- Node1&#45;&gt;Node3 -->
<g id="edge2" class="edge">
<title>Node1&#45;&gt;Node3</title>
<path fill="none" stroke="midnightblue" d="M136.81,-197.99C161.35,-188.88 190.4,-178.11 215.97,-168.62"/>
<polygon fill="midnightblue" stroke="midnightblue" points="217.43,-171.81 225.59,-165.05 214.99,-165.25 217.43,-171.81"/>
</g>
<!-- Node11 -->
<g id="node11" class="node">
<title>Node11</title>
<g id="a_node11"><a xlink:href="namespaceklyqa__ctl_1_1general_1_1general.html#ab2f9a22e98cd16d0d284d22382cfcb02" target="_top" xlink:title=" ">
<polygon fill="white" stroke="black" points="845,-159.5 845,-189.5 1009,-189.5 1009,-159.5 845,-159.5"/>
<text text-anchor="start" x="853" y="-177.5" font-family="Helvetica,sans-Serif" font-size="10.00">klyqa_ctl.general.general.task</text>
<text text-anchor="middle" x="927" y="-166.5" font-family="Helvetica,sans-Serif" font-size="10.00">_log_trace</text>
</a>
</g>
</g>
<!-- Node1&#45;&gt;Node11 -->
<g id="edge14" class="edge">
<title>Node1&#45;&gt;Node11</title>
<path fill="none" stroke="midnightblue" d="M161.24,-221.2C295.47,-224.68 574.86,-227.33 809,-199.5 824.31,-197.68 840.58,-194.81 855.97,-191.66"/>
<polygon fill="midnightblue" stroke="midnightblue" points="856.87,-195.05 865.93,-189.55 855.42,-188.2 856.87,-195.05"/>
</g>
<!-- Node4 -->
<g id="node4" class="node">
<title>Node4</title>
<g id="a_node4"><a xlink:href="classlocal_1_1connection__handler_1_1LocalConnectionHandler.html#a28f05e11005dfc83e537f9e2e85f54d5" target="_top" xlink:title=" ">
<polygon fill="white" stroke="black" points="403,-104.5 403,-134.5 591,-134.5 591,-104.5 403,-104.5"/>
<text text-anchor="start" x="411" y="-122.5" font-family="Helvetica,sans-Serif" font-size="10.00">local.connection_handler.</text>
<text text-anchor="middle" x="497" y="-111.5" font-family="Helvetica,sans-Serif" font-size="10.00">LocalConnectionHandler.bind_ports</text>
</a>
</g>
</g>
<!-- Node3&#45;&gt;Node4 -->
<g id="edge3" class="edge">
<title>Node3&#45;&gt;Node4</title>
<path fill="none" stroke="midnightblue" d="M362.62,-135.16C372.45,-134 382.62,-132.81 392.74,-131.62"/>
<polygon fill="midnightblue" stroke="midnightblue" points="393.32,-135.08 402.84,-130.43 392.5,-128.12 393.32,-135.08"/>
</g>
<!-- Node7 -->
<g id="node7" class="node">
<title>Node7</title>
<g id="a_node7"><a xlink:href="namespaceklyqa__ctl_1_1general_1_1general.html#a1afe30a73cc28a3b65babeeab27e36c8" target="_top" xlink:title=" ">
<polygon fill="white" stroke="black" points="636,-0.5 636,-30.5 800,-30.5 800,-0.5 636,-0.5"/>
<text text-anchor="start" x="644" y="-18.5" font-family="Helvetica,sans-Serif" font-size="10.00">klyqa_ctl.general.general.task</text>
<text text-anchor="middle" x="718" y="-7.5" font-family="Helvetica,sans-Serif" font-size="10.00">_log_debug</text>
</a>
</g>
</g>
<!-- Node3&#45;&gt;Node7 -->
<g id="edge12" class="edge">
<title>Node3&#45;&gt;Node7</title>
<path fill="none" stroke="midnightblue" d="M329.17,-123.9C351.25,-114.5 378.21,-103.68 403,-95.5 481.1,-69.74 572.39,-47.32 636.34,-32.82"/>
<polygon fill="midnightblue" stroke="midnightblue" points="637.38,-36.17 646.36,-30.56 635.84,-29.34 637.38,-36.17"/>
</g>
<!-- Node10 -->
<g id="node10" class="node">
<title>Node10</title>
<g id="a_node10"><a xlink:href="namespaceklyqa__ctl_1_1general_1_1general.html#ad6b753e482e539892c57f8144cf213cb" target="_top" xlink:title=" ">
<polygon fill="white" stroke="black" points="636,-159.5 636,-189.5 800,-189.5 800,-159.5 636,-159.5"/>
<text text-anchor="start" x="644" y="-177.5" font-family="Helvetica,sans-Serif" font-size="10.00">klyqa_ctl.general.general.task</text>
<text text-anchor="middle" x="718" y="-166.5" font-family="Helvetica,sans-Serif" font-size="10.00">_log_trace_ex</text>
</a>
</g>
</g>
<!-- Node3&#45;&gt;Node10 -->
<g id="edge13" class="edge">
<title>Node3&#45;&gt;Node10</title>
<path fill="none" stroke="midnightblue" d="M362.6,-150C436.84,-155.13 547.53,-162.79 625.41,-168.17"/>
<polygon fill="midnightblue" stroke="midnightblue" points="625.48,-171.68 635.69,-168.88 625.96,-164.7 625.48,-171.68"/>
</g>
<!-- Node5 -->
<g id="node5" class="node">
<title>Node5</title>
<g id="a_node5"><a xlink:href="classlocal_1_1connection__handler_1_1LocalConnectionHandler.html#a159e60e3f78301ef89df33d9adaebbde" target="_top" xlink:title=" ">
<polygon fill="white" stroke="black" points="629.5,-99 629.5,-140 806.5,-140 806.5,-99 629.5,-99"/>
<text text-anchor="start" x="637.5" y="-128" font-family="Helvetica,sans-Serif" font-size="10.00">local.connection_handler.</text>
<text text-anchor="start" x="637.5" y="-117" font-family="Helvetica,sans-Serif" font-size="10.00">LocalConnectionHandler.network</text>
<text text-anchor="middle" x="718" y="-106" font-family="Helvetica,sans-Serif" font-size="10.00">_interface</text>
</a>
</g>
</g>
<!-- Node4&#45;&gt;Node5 -->
<g id="edge4" class="edge">
<title>Node4&#45;&gt;Node5</title>
<path fill="none" stroke="midnightblue" d="M591.19,-119.5C600.51,-119.5 609.99,-119.5 619.36,-119.5"/>
<polygon fill="midnightblue" stroke="midnightblue" points="619.46,-123 629.46,-119.5 619.46,-116 619.46,-123"/>
</g>
<!-- Node6 -->
<g id="node6" class="node">
<title>Node6</title>
<g id="a_node6"><a xlink:href="classlocal_1_1connection__handler_1_1LocalConnectionHandler.html#ab8a8460610614f6230bbf346fc532269" target="_top" xlink:title=" ">
<polygon fill="white" stroke="black" points="627,-49.5 627,-79.5 809,-79.5 809,-49.5 627,-49.5"/>
<text text-anchor="start" x="635" y="-67.5" font-family="Helvetica,sans-Serif" font-size="10.00">local.connection_handler.</text>
<text text-anchor="middle" x="718" y="-56.5" font-family="Helvetica,sans-Serif" font-size="10.00">LocalConnectionHandler.server_ip</text>
</a>
</g>
</g>
<!-- Node4&#45;&gt;Node6 -->
<g id="edge5" class="edge">
<title>Node4&#45;&gt;Node6</title>
<path fill="none" stroke="midnightblue" d="M557.84,-104.47C585.48,-97.53 618.48,-89.24 647.25,-82.02"/>
<polygon fill="midnightblue" stroke="midnightblue" points="648.38,-85.34 657.23,-79.51 646.68,-78.55 648.38,-85.34"/>
</g>
<!-- Node4&#45;&gt;Node7 -->
<g id="edge6" class="edge">
<title>Node4&#45;&gt;Node7</title>
<path fill="none" stroke="midnightblue" d="M521.63,-104.32C555.77,-82.47 616.02,-44.24 627,-39.5 631.7,-37.47 636.62,-35.57 641.63,-33.81"/>
<polygon fill="midnightblue" stroke="midnightblue" points="642.95,-37.06 651.34,-30.58 640.74,-30.41 642.95,-37.06"/>
</g>
<!-- Node4&#45;&gt;Node10 -->
<g id="edge9" class="edge">
<title>Node4&#45;&gt;Node10</title>
<path fill="none" stroke="midnightblue" d="M557.84,-134.53C585.48,-141.47 618.48,-149.76 647.25,-156.98"/>
<polygon fill="midnightblue" stroke="midnightblue" points="646.68,-160.45 657.23,-159.49 648.38,-153.66 646.68,-160.45"/>
</g>
<!-- Node8 -->
<g id="node8" class="node">
<title>Node8</title>
<g id="a_node8"><a xlink:href="namespaceklyqa__ctl_1_1general_1_1general.html#a9df3b50dfc0fcc7c8ec991bb9be9c5ba" target="_top" xlink:title=" ">
<polygon fill="white" stroke="black" points="1045,-86 1045,-105 1230,-105 1230,-86 1045,-86"/>
<text text-anchor="middle" x="1137.5" y="-93" font-family="Helvetica,sans-Serif" font-size="10.00">klyqa_ctl.general.general.task_log</text>
</a>
</g>
</g>
<!-- Node7&#45;&gt;Node8 -->
<g id="edge7" class="edge">
<title>Node7&#45;&gt;Node8</title>
<path fill="none" stroke="midnightblue" d="M797.53,-30.55C878.63,-46.09 1003.4,-70 1076.79,-84.06"/>
<polygon fill="midnightblue" stroke="midnightblue" points="1076.32,-87.53 1086.8,-85.98 1077.64,-80.66 1076.32,-87.53"/>
</g>
<!-- Node9 -->
<g id="node9" class="node">
<title>Node9</title>
<g id="a_node9"><a xlink:href="namespaceklyqa__ctl_1_1general_1_1general.html#aea905150cafee39fa2ca211f1e60f012" target="_top" xlink:title=" ">
<polygon fill="white" stroke="black" points="1266,-86 1266,-105 1463,-105 1463,-86 1266,-86"/>
<text text-anchor="middle" x="1364.5" y="-93" font-family="Helvetica,sans-Serif" font-size="10.00">klyqa_ctl.general.general.task_name</text>
</a>
</g>
</g>
<!-- Node8&#45;&gt;Node9 -->
<g id="edge8" class="edge">
<title>Node8&#45;&gt;Node9</title>
<path fill="none" stroke="midnightblue" d="M1230.02,-95.5C1238.5,-95.5 1247.15,-95.5 1255.76,-95.5"/>
<polygon fill="midnightblue" stroke="midnightblue" points="1255.83,-99 1265.83,-95.5 1255.83,-92 1255.83,-99"/>
</g>
<!-- Node10&#45;&gt;Node11 -->
<g id="edge10" class="edge">
<title>Node10&#45;&gt;Node11</title>
<path fill="none" stroke="midnightblue" d="M800.22,-174.5C811.52,-174.5 823.19,-174.5 834.66,-174.5"/>
<polygon fill="midnightblue" stroke="midnightblue" points="834.68,-178 844.68,-174.5 834.68,-171 834.68,-178"/>
</g>
<!-- Node11&#45;&gt;Node8 -->
<g id="edge11" class="edge">
<title>Node11&#45;&gt;Node8</title>
<path fill="none" stroke="midnightblue" d="M967.71,-159.45C1006.54,-144.74 1065.06,-122.57 1102,-108.57"/>
<polygon fill="midnightblue" stroke="midnightblue" points="1103.24,-111.84 1111.35,-105.03 1100.76,-105.3 1103.24,-111.84"/>
</g>
</g>
</svg>
