<?xml version="1.0" encoding="UTF-8" standalone="no"?>
<!DOCTYPE svg PUBLIC "-//W3C//DTD SVG 1.1//EN"
 "http://www.w3.org/Graphics/SVG/1.1/DTD/svg11.dtd">
<!-- Generated by graphviz version 2.43.0 (0)
 -->
<!-- Title: klyqa_ctl.devices.vacuum.general.VcSuctionStrengths Pages: 1 -->
<svg width="194pt" height="226pt"
 viewBox="0.00 0.00 194.00 226.00" xmlns="http://www.w3.org/2000/svg" xmlns:xlink="http://www.w3.org/1999/xlink">
<g id="graph0" class="graph" transform="scale(1 1) rotate(0) translate(4 222)">
<title>klyqa_ctl.devices.vacuum.general.VcSuctionStrengths</title>
<polygon fill="white" stroke="transparent" points="-4,4 -4,-222 190,-222 190,4 -4,4"/>
<!-- Node1 -->
<g id="node1" class="node">
<title>Node1</title>
<g id="a_node1"><a xlink:title=" ">
<polygon fill="#bfbfbf" stroke="black" points="0,-0.5 0,-68.5 186,-68.5 186,-0.5 0,-0.5"/>
<text text-anchor="start" x="8" y="-56.5" font-family="Helvetica,sans-Serif" font-size="10.00">klyqa_ctl.devices.vacuum.general.</text>
<text text-anchor="middle" x="93" y="-45.5" font-family="Helvetica,sans-Serif" font-size="10.00">VcSuctionStrengths</text>
<polyline fill="none" stroke="black" points="0,-38.5 186,-38.5 "/>
<text text-anchor="middle" x="93" y="-26.5" font-family="Helvetica,sans-Serif" font-size="10.00"> </text>
<polyline fill="none" stroke="black" points="0,-19.5 186,-19.5 "/>
<text text-anchor="middle" x="93" y="-7.5" font-family="Helvetica,sans-Serif" font-size="10.00"> </text>
</a>
</g>
</g>
<!-- Node2 -->
<g id="node2" class="node">
<title>Node2</title>
<g id="a_node2"><a xlink:title=" ">
<polygon fill="white" stroke="#bfbfbf" points="44,-160.5 44,-217.5 88,-217.5 88,-160.5 44,-160.5"/>
<text text-anchor="middle" x="66" y="-205.5" font-family="Helvetica,sans-Serif" font-size="10.00">Enum</text>
<polyline fill="none" stroke="#bfbfbf" points="44,-198.5 88,-198.5 "/>
<text text-anchor="middle" x="66" y="-186.5" font-family="Helvetica,sans-Serif" font-size="10.00"> </text>
<polyline fill="none" stroke="#bfbfbf" points="44,-179.5 88,-179.5 "/>
<text text-anchor="middle" x="66" y="-167.5" font-family="Helvetica,sans-Serif" font-size="10.00"> </text>
</a>
</g>
</g>
<!-- Node2&#45;&gt;Node1 -->
<g id="edge1" class="edge">
<title>Node2&#45;&gt;Node1</title>
<path fill="none" stroke="midnightblue" d="M72.64,-150.51C77.07,-125.48 82.84,-92.86 87.11,-68.76"/>
<polygon fill="none" stroke="midnightblue" points="69.19,-149.93 70.89,-160.38 76.08,-151.15 69.19,-149.93"/>
</g>
<!-- Node3 -->
<g id="node3" class="node">
<title>Node3</title>
<g id="a_node3"><a xlink:title=" ">
<polygon fill="white" stroke="#bfbfbf" points="106.5,-160.5 106.5,-217.5 135.5,-217.5 135.5,-160.5 106.5,-160.5"/>
<text text-anchor="middle" x="121" y="-205.5" font-family="Helvetica,sans-Serif" font-size="10.00">int</text>
<polyline fill="none" stroke="#bfbfbf" points="106.5,-198.5 135.5,-198.5 "/>
<text text-anchor="middle" x="121" y="-186.5" font-family="Helvetica,sans-Serif" font-size="10.00"> </text>
<polyline fill="none" stroke="#bfbfbf" points="106.5,-179.5 135.5,-179.5 "/>
<text text-anchor="middle" x="121" y="-167.5" font-family="Helvetica,sans-Serif" font-size="10.00"> </text>
</a>
</g>
</g>
<!-- Node3&#45;&gt;Node1 -->
<g id="edge2" class="edge">
<title>Node3&#45;&gt;Node1</title>
<path fill="none" stroke="#404040" d="M115.93,-160.38C111.85,-138.15 106.03,-106.46 101.27,-80.56"/>
<polygon fill="none" stroke="#404040" points="101.27,-80.56 96.26,-75.38 99.11,-68.76 104.12,-73.94 101.27,-80.56"/>
<text text-anchor="middle" x="137" y="-134" font-family="Helvetica,sans-Serif" font-size="10.00"> +MAX</text>
<text text-anchor="middle" x="137" y="-123" font-family="Helvetica,sans-Serif" font-size="10.00">+NORMAL</text>
<text text-anchor="middle" x="137" y="-112" font-family="Helvetica,sans-Serif" font-size="10.00">+NULL</text>
<text text-anchor="middle" x="137" y="-101" font-family="Helvetica,sans-Serif" font-size="10.00">+SMALL</text>
<text text-anchor="middle" x="137" y="-90" font-family="Helvetica,sans-Serif" font-size="10.00">+STRONG</text>
</g>
</g>
</svg>
