<?xml version="1.0" encoding="UTF-8" standalone="no"?>
<!DOCTYPE svg PUBLIC "-//W3C//DTD SVG 1.1//EN"
 "http://www.w3.org/Graphics/SVG/1.1/DTD/svg11.dtd">
<!-- Generated by graphviz version 2.43.0 (0)
 -->
<!-- Title: local.connection_handler.LocalConnectionHandler.handle_connections Pages: 1 -->
<svg width="1471pt" height="231pt"
 viewBox="0.00 0.00 1471.00 230.50" xmlns="http://www.w3.org/2000/svg" xmlns:xlink="http://www.w3.org/1999/xlink">
<g id="graph0" class="graph" transform="scale(1 1) rotate(0) translate(4 226.5)">
<title>local.connection_handler.LocalConnectionHandler.handle_connections</title>
<polygon fill="white" stroke="transparent" points="-4,4 -4,-226.5 1467,-226.5 1467,4 -4,4"/>
<!-- Node1 -->
<g id="node1" class="node">
<title>Node1</title>
<g id="a_node1"><a xlink:title=" ">
<polygon fill="#bfbfbf" stroke="black" points="0,-72 0,-113 170,-113 170,-72 0,-72"/>
<text text-anchor="start" x="8" y="-101" font-family="Helvetica,sans-Serif" font-size="10.00">local.connection_handler.</text>
<text text-anchor="start" x="8" y="-90" font-family="Helvetica,sans-Serif" font-size="10.00">LocalConnectionHandler.handle</text>
<text text-anchor="middle" x="85" y="-79" font-family="Helvetica,sans-Serif" font-size="10.00">_connections</text>
</a>
</g>
</g>
<!-- Node2 -->
<g id="node2" class="node">
<title>Node2</title>
<g id="a_node2"><a xlink:href="classlocal_1_1connection__handler_1_1LocalConnectionHandler.html#a28f05e11005dfc83e537f9e2e85f54d5" target="_top" xlink:title=" ">
<polygon fill="white" stroke="black" points="403,-126.5 403,-156.5 591,-156.5 591,-126.5 403,-126.5"/>
<text text-anchor="start" x="411" y="-144.5" font-family="Helvetica,sans-Serif" font-size="10.00">local.connection_handler.</text>
<text text-anchor="middle" x="497" y="-133.5" font-family="Helvetica,sans-Serif" font-size="10.00">LocalConnectionHandler.bind_ports</text>
</a>
</g>
</g>
<!-- Node1&#45;&gt;Node2 -->
<g id="edge1" class="edge">
<title>Node1&#45;&gt;Node2</title>
<path fill="none" stroke="midnightblue" d="M159.19,-113.01C174.55,-116.69 190.72,-120.11 206,-122.5 267.48,-132.12 337.02,-136.88 392.6,-139.23"/>
<polygon fill="midnightblue" stroke="midnightblue" points="392.67,-142.74 402.8,-139.64 392.95,-135.74 392.67,-142.74"/>
</g>
<!-- Node10 -->
<g id="node10" class="node">
<title>Node10</title>
<g id="a_node10"><a xlink:href="classlocal_1_1connection__handler_1_1LocalConnectionHandler.html#a69a2aabf1a7bc94f925f914df5ceae10" target="_top" xlink:title=" ">
<polygon fill="white" stroke="black" points="206,-72 206,-113 367,-113 367,-72 206,-72"/>
<text text-anchor="start" x="214" y="-101" font-family="Helvetica,sans-Serif" font-size="10.00">local.connection_handler.</text>
<text text-anchor="start" x="214" y="-90" font-family="Helvetica,sans-Serif" font-size="10.00">LocalConnectionHandler.send</text>
<text text-anchor="middle" x="286.5" y="-79" font-family="Helvetica,sans-Serif" font-size="10.00">_udp_broadcast</text>
</a>
</g>
</g>
<!-- Node1&#45;&gt;Node10 -->
<g id="edge10" class="edge">
<title>Node1&#45;&gt;Node10</title>
<path fill="none" stroke="midnightblue" d="M170.03,-92.5C178.43,-92.5 186.99,-92.5 195.45,-92.5"/>
<polygon fill="midnightblue" stroke="midnightblue" points="195.71,-96 205.71,-92.5 195.71,-89 195.71,-96"/>
</g>
<!-- Node11 -->
<g id="node11" class="node">
<title>Node11</title>
<g id="a_node11"><a xlink:href="classlocal_1_1connection__handler_1_1LocalConnectionHandler.html#aed3640a60ff23b9532ca91ebd2a9d01a" target="_top" xlink:title=" ">
<polygon fill="white" stroke="black" points="409,-0.5 409,-30.5 585,-30.5 585,-0.5 409,-0.5"/>
<text text-anchor="start" x="417" y="-18.5" font-family="Helvetica,sans-Serif" font-size="10.00">local.connection_handler.</text>
<text text-anchor="middle" x="497" y="-7.5" font-family="Helvetica,sans-Serif" font-size="10.00">LocalConnectionHandler.standby</text>
</a>
</g>
</g>
<!-- Node1&#45;&gt;Node11 -->
<g id="edge14" class="edge">
<title>Node1&#45;&gt;Node11</title>
<path fill="none" stroke="midnightblue" d="M164.21,-71.94C178.08,-68.58 192.43,-65.29 206,-62.5 269.86,-49.37 342.25,-37.63 398.73,-29.17"/>
<polygon fill="midnightblue" stroke="midnightblue" points="399.35,-32.62 408.72,-27.68 398.32,-25.69 399.35,-32.62"/>
</g>
<!-- Node3 -->
<g id="node3" class="node">
<title>Node3</title>
<g id="a_node3"><a xlink:href="classlocal_1_1connection__handler_1_1LocalConnectionHandler.html#a159e60e3f78301ef89df33d9adaebbde" target="_top" xlink:title=" ">
<polygon fill="white" stroke="black" points="629.5,-181 629.5,-222 806.5,-222 806.5,-181 629.5,-181"/>
<text text-anchor="start" x="637.5" y="-210" font-family="Helvetica,sans-Serif" font-size="10.00">local.connection_handler.</text>
<text text-anchor="start" x="637.5" y="-199" font-family="Helvetica,sans-Serif" font-size="10.00">LocalConnectionHandler.network</text>
<text text-anchor="middle" x="718" y="-188" font-family="Helvetica,sans-Serif" font-size="10.00">_interface</text>
</a>
</g>
</g>
<!-- Node2&#45;&gt;Node3 -->
<g id="edge2" class="edge">
<title>Node2&#45;&gt;Node3</title>
<path fill="none" stroke="midnightblue" d="M552.98,-156.56C577.02,-163.15 605.76,-171.02 632.42,-178.33"/>
<polygon fill="midnightblue" stroke="midnightblue" points="631.56,-181.72 642.13,-180.99 633.41,-174.97 631.56,-181.72"/>
</g>
<!-- Node4 -->
<g id="node4" class="node">
<title>Node4</title>
<g id="a_node4"><a xlink:href="classlocal_1_1connection__handler_1_1LocalConnectionHandler.html#ab8a8460610614f6230bbf346fc532269" target="_top" xlink:title=" ">
<polygon fill="white" stroke="black" points="627,-131.5 627,-161.5 809,-161.5 809,-131.5 627,-131.5"/>
<text text-anchor="start" x="635" y="-149.5" font-family="Helvetica,sans-Serif" font-size="10.00">local.connection_handler.</text>
<text text-anchor="middle" x="718" y="-138.5" font-family="Helvetica,sans-Serif" font-size="10.00">LocalConnectionHandler.server_ip</text>
</a>
</g>
</g>
<!-- Node2&#45;&gt;Node4 -->
<g id="edge3" class="edge">
<title>Node2&#45;&gt;Node4</title>
<path fill="none" stroke="midnightblue" d="M591.19,-143.63C599.55,-143.82 608.04,-144.01 616.46,-144.2"/>
<polygon fill="midnightblue" stroke="midnightblue" points="616.6,-147.71 626.68,-144.44 616.76,-140.71 616.6,-147.71"/>
</g>
<!-- Node5 -->
<g id="node5" class="node">
<title>Node5</title>
<g id="a_node5"><a xlink:href="namespaceklyqa__ctl_1_1general_1_1general.html#a1afe30a73cc28a3b65babeeab27e36c8" target="_top" xlink:title=" ">
<polygon fill="white" stroke="black" points="636,-33.5 636,-63.5 800,-63.5 800,-33.5 636,-33.5"/>
<text text-anchor="start" x="644" y="-51.5" font-family="Helvetica,sans-Serif" font-size="10.00">klyqa_ctl.general.general.task</text>
<text text-anchor="middle" x="718" y="-40.5" font-family="Helvetica,sans-Serif" font-size="10.00">_log_debug</text>
</a>
</g>
</g>
<!-- Node2&#45;&gt;Node5 -->
<g id="edge4" class="edge">
<title>Node2&#45;&gt;Node5</title>
<path fill="none" stroke="midnightblue" d="M522.93,-126.29C548.37,-111.28 589.35,-88.45 627,-73.5 633.18,-71.05 639.68,-68.74 646.25,-66.59"/>
<polygon fill="midnightblue" stroke="midnightblue" points="647.41,-69.9 655.9,-63.56 645.31,-63.22 647.41,-69.9"/>
</g>
<!-- Node8 -->
<g id="node8" class="node">
<title>Node8</title>
<g id="a_node8"><a xlink:href="namespaceklyqa__ctl_1_1general_1_1general.html#ad6b753e482e539892c57f8144cf213cb" target="_top" xlink:title=" ">
<polygon fill="white" stroke="black" points="636,-82.5 636,-112.5 800,-112.5 800,-82.5 636,-82.5"/>
<text text-anchor="start" x="644" y="-100.5" font-family="Helvetica,sans-Serif" font-size="10.00">klyqa_ctl.general.general.task</text>
<text text-anchor="middle" x="718" y="-89.5" font-family="Helvetica,sans-Serif" font-size="10.00">_log_trace_ex</text>
</a>
</g>
</g>
<!-- Node2&#45;&gt;Node8 -->
<g id="edge7" class="edge">
<title>Node2&#45;&gt;Node8</title>
<path fill="none" stroke="midnightblue" d="M572.75,-126.48C591.94,-122.63 612.72,-118.45 632.36,-114.5"/>
<polygon fill="midnightblue" stroke="midnightblue" points="633.1,-117.93 642.21,-112.53 631.72,-111.06 633.1,-117.93"/>
</g>
<!-- Node6 -->
<g id="node6" class="node">
<title>Node6</title>
<g id="a_node6"><a xlink:href="namespaceklyqa__ctl_1_1general_1_1general.html#a9df3b50dfc0fcc7c8ec991bb9be9c5ba" target="_top" xlink:title=" ">
<polygon fill="white" stroke="black" points="1045,-63 1045,-82 1230,-82 1230,-63 1045,-63"/>
<text text-anchor="middle" x="1137.5" y="-70" font-family="Helvetica,sans-Serif" font-size="10.00">klyqa_ctl.general.general.task_log</text>
</a>
</g>
</g>
<!-- Node5&#45;&gt;Node6 -->
<g id="edge5" class="edge">
<title>Node5&#45;&gt;Node6</title>
<path fill="none" stroke="midnightblue" d="M800.49,-53.18C867.46,-57.03 962.7,-62.51 1034.69,-66.65"/>
<polygon fill="midnightblue" stroke="midnightblue" points="1034.5,-70.14 1044.69,-67.22 1034.9,-63.15 1034.5,-70.14"/>
</g>
<!-- Node7 -->
<g id="node7" class="node">
<title>Node7</title>
<g id="a_node7"><a xlink:href="namespaceklyqa__ctl_1_1general_1_1general.html#aea905150cafee39fa2ca211f1e60f012" target="_top" xlink:title=" ">
<polygon fill="white" stroke="black" points="1266,-63 1266,-82 1463,-82 1463,-63 1266,-63"/>
<text text-anchor="middle" x="1364.5" y="-70" font-family="Helvetica,sans-Serif" font-size="10.00">klyqa_ctl.general.general.task_name</text>
</a>
</g>
</g>
<!-- Node6&#45;&gt;Node7 -->
<g id="edge6" class="edge">
<title>Node6&#45;&gt;Node7</title>
<path fill="none" stroke="midnightblue" d="M1230.02,-72.5C1238.5,-72.5 1247.15,-72.5 1255.76,-72.5"/>
<polygon fill="midnightblue" stroke="midnightblue" points="1255.83,-76 1265.83,-72.5 1255.83,-69 1255.83,-76"/>
</g>
<!-- Node9 -->
<g id="node9" class="node">
<title>Node9</title>
<g id="a_node9"><a xlink:href="namespaceklyqa__ctl_1_1general_1_1general.html#ab2f9a22e98cd16d0d284d22382cfcb02" target="_top" xlink:title=" ">
<polygon fill="white" stroke="black" points="845,-80.5 845,-110.5 1009,-110.5 1009,-80.5 845,-80.5"/>
<text text-anchor="start" x="853" y="-98.5" font-family="Helvetica,sans-Serif" font-size="10.00">klyqa_ctl.general.general.task</text>
<text text-anchor="middle" x="927" y="-87.5" font-family="Helvetica,sans-Serif" font-size="10.00">_log_trace</text>
</a>
</g>
</g>
<!-- Node8&#45;&gt;Node9 -->
<g id="edge8" class="edge">
<title>Node8&#45;&gt;Node9</title>
<path fill="none" stroke="midnightblue" d="M800.22,-96.72C811.52,-96.61 823.19,-96.49 834.66,-96.38"/>
<polygon fill="midnightblue" stroke="midnightblue" points="834.71,-99.88 844.68,-96.29 834.64,-92.88 834.71,-99.88"/>
</g>
<!-- Node9&#45;&gt;Node6 -->
<g id="edge9" class="edge">
<title>Node9&#45;&gt;Node6</title>
<path fill="none" stroke="midnightblue" d="M1009.21,-86.54C1019.43,-85.41 1029.97,-84.25 1040.4,-83.1"/>
<polygon fill="midnightblue" stroke="midnightblue" points="1040.79,-86.58 1050.35,-82 1040.02,-79.62 1040.79,-86.58"/>
</g>
<!-- Node10&#45;&gt;Node2 -->
<g id="edge11" class="edge">
<title>Node10&#45;&gt;Node2</title>
<path fill="none" stroke="midnightblue" d="M367.22,-111.23C385.09,-115.44 403.99,-119.88 421.63,-124.02"/>
<polygon fill="midnightblue" stroke="midnightblue" points="421.33,-127.55 431.86,-126.43 422.93,-120.73 421.33,-127.55"/>
</g>
<!-- Node10&#45;&gt;Node5 -->
<g id="edge12" class="edge">
<title>Node10&#45;&gt;Node5</title>
<path fill="none" stroke="midnightblue" d="M367.03,-84.35C440.25,-76.85 548.82,-65.73 625.59,-57.86"/>
<polygon fill="midnightblue" stroke="midnightblue" points="626.14,-61.33 635.73,-56.83 625.42,-54.36 626.14,-61.33"/>
</g>
<!-- Node10&#45;&gt;Node8 -->
<g id="edge13" class="edge">
<title>Node10&#45;&gt;Node8</title>
<path fill="none" stroke="midnightblue" d="M367.03,-93.43C440.25,-94.28 548.82,-95.54 625.59,-96.44"/>
<polygon fill="midnightblue" stroke="midnightblue" points="625.69,-99.94 635.73,-96.55 625.77,-92.94 625.69,-99.94"/>
</g>
<!-- Node11&#45;&gt;Node5 -->
<g id="edge15" class="edge">
<title>Node11&#45;&gt;Node5</title>
<path fill="none" stroke="midnightblue" d="M585.18,-28.64C598.49,-30.64 612.26,-32.72 625.65,-34.74"/>
<polygon fill="midnightblue" stroke="midnightblue" points="625.4,-38.24 635.81,-36.27 626.44,-31.31 625.4,-38.24"/>
</g>
</g>
</svg>
