<?xml version="1.0" encoding="UTF-8" standalone="no"?>
<!DOCTYPE svg PUBLIC "-//W3C//DTD SVG 1.1//EN"
 "http://www.w3.org/Graphics/SVG/1.1/DTD/svg11.dtd">
<!-- Generated by graphviz version 2.43.0 (0)
 -->
<!-- Title: klyqa_ctl.account_control.AccountControl.__init__ Pages: 1 -->
<svg width="373pt" height="187pt"
 viewBox="0.00 0.00 373.00 187.00" xmlns="http://www.w3.org/2000/svg" xmlns:xlink="http://www.w3.org/1999/xlink">
<g id="graph0" class="graph" transform="scale(1 1) rotate(0) translate(4 183)">
<title>klyqa_ctl.account_control.AccountControl.__init__</title>
<polygon fill="white" stroke="transparent" points="-4,4 -4,-183 369,-183 369,4 -4,4"/>
<!-- Node1 -->
<g id="node1" class="node">
<title>Node1</title>
<g id="a_node1"><a xlink:title=" ">
<polygon fill="#bfbfbf" stroke="black" points="0,-85 0,-115 144,-115 144,-85 0,-85"/>
<text text-anchor="start" x="8" y="-103" font-family="Helvetica,sans-Serif" font-size="10.00">klyqa_ctl.account_control.</text>
<text text-anchor="middle" x="72" y="-92" font-family="Helvetica,sans-Serif" font-size="10.00">AccountControl.__init__</text>
</a>
</g>
</g>
<!-- Node2 -->
<g id="node2" class="node">
<title>Node2</title>
<g id="a_node2"><a xlink:href="classklyqa__ctl_1_1account_1_1Account.html#a2265c38daf6829c96c852ad4a288b42d" target="_top" xlink:title=" ">
<polygon fill="white" stroke="black" points="180,-159.5 180,-178.5 365,-178.5 365,-159.5 180,-159.5"/>
<text text-anchor="middle" x="272.5" y="-166.5" font-family="Helvetica,sans-Serif" font-size="10.00">klyqa_ctl.account.Account.devices</text>
</a>
</g>
</g>
<!-- Node1&#45;&gt;Node2 -->
<g id="edge1" class="edge">
<title>Node1&#45;&gt;Node2</title>
<path fill="none" stroke="midnightblue" d="M100.87,-115.22C122.05,-126.23 152.18,-140.75 180,-150 188.17,-152.71 196.88,-155.12 205.55,-157.23"/>
<polygon fill="midnightblue" stroke="midnightblue" points="204.78,-160.64 215.31,-159.48 206.35,-153.82 204.78,-160.64"/>
</g>
<!-- Node3 -->
<g id="node3" class="node">
<title>Node3</title>
<g id="a_node3"><a xlink:href="classlocal_1_1connection__handler_1_1LocalConnectionHandler.html#a4d307f6bd0b66f3cb9fac3057fc87972" target="_top" xlink:title=" ">
<polygon fill="white" stroke="black" points="185,-110 185,-140 360,-140 360,-110 185,-110"/>
<text text-anchor="start" x="193" y="-128" font-family="Helvetica,sans-Serif" font-size="10.00">local.connection_handler.</text>
<text text-anchor="middle" x="272.5" y="-117" font-family="Helvetica,sans-Serif" font-size="10.00">LocalConnectionHandler.devices</text>
</a>
</g>
</g>
<!-- Node1&#45;&gt;Node3 -->
<g id="edge2" class="edge">
<title>Node1&#45;&gt;Node3</title>
<path fill="none" stroke="midnightblue" d="M144.1,-108.95C154.13,-110.22 164.58,-111.53 174.99,-112.85"/>
<polygon fill="midnightblue" stroke="midnightblue" points="174.59,-116.32 184.95,-114.1 175.46,-109.38 174.59,-116.32"/>
</g>
<!-- Node4 -->
<g id="node4" class="node">
<title>Node4</title>
<g id="a_node4"><a xlink:href="classklyqa__ctl_1_1controller__data_1_1ControllerData.html#adf7af423388a9a883c428cf71e217650" target="_top" xlink:title=" ">
<polygon fill="white" stroke="black" points="193.5,-61 193.5,-91 351.5,-91 351.5,-61 193.5,-61"/>
<text text-anchor="start" x="201.5" y="-79" font-family="Helvetica,sans-Serif" font-size="10.00">klyqa_ctl.controller</text>
<text text-anchor="middle" x="272.5" y="-68" font-family="Helvetica,sans-Serif" font-size="10.00">_data.ControllerData.devices</text>
</a>
</g>
</g>
<!-- Node1&#45;&gt;Node4 -->
<g id="edge3" class="edge">
<title>Node1&#45;&gt;Node4</title>
<path fill="none" stroke="midnightblue" d="M144.1,-91.4C156.87,-89.86 170.31,-88.23 183.49,-86.64"/>
<polygon fill="midnightblue" stroke="midnightblue" points="183.99,-90.11 193.49,-85.43 183.14,-83.16 183.99,-90.11"/>
</g>
<!-- Node5 -->
<g id="node5" class="node">
<title>Node5</title>
<g id="a_node5"><a xlink:href="classklyqa__ctl_1_1controller__data_1_1ControllerData.html#a4db20468ab1574d0198a02bf2e05b1ec" target="_top" xlink:title=" ">
<polygon fill="white" stroke="black" points="186,-0.5 186,-41.5 359,-41.5 359,-0.5 186,-0.5"/>
<text text-anchor="start" x="194" y="-29.5" font-family="Helvetica,sans-Serif" font-size="10.00">klyqa_ctl.controller</text>
<text text-anchor="start" x="194" y="-18.5" font-family="Helvetica,sans-Serif" font-size="10.00">_data.ControllerData.interactive</text>
<text text-anchor="middle" x="272.5" y="-7.5" font-family="Helvetica,sans-Serif" font-size="10.00">_prompts</text>
</a>
</g>
</g>
<!-- Node1&#45;&gt;Node5 -->
<g id="edge4" class="edge">
<title>Node1&#45;&gt;Node5</title>
<path fill="none" stroke="midnightblue" d="M104.5,-84.92C125.64,-75.03 154.23,-62.12 180,-52 185.94,-49.67 192.14,-47.34 198.39,-45.07"/>
<polygon fill="midnightblue" stroke="midnightblue" points="199.97,-48.23 208.21,-41.57 197.62,-41.63 199.97,-48.23"/>
</g>
</g>
</svg>
