<?xml version="1.0" encoding="UTF-8" standalone="no"?>
<!DOCTYPE svg PUBLIC "-//W3C//DTD SVG 1.1//EN"
 "http://www.w3.org/Graphics/SVG/1.1/DTD/svg11.dtd">
<!-- Generated by graphviz version 2.43.0 (0)
 -->
<!-- Title: klyqa_ctl.account.Account.get_or_create_device Pages: 1 -->
<svg width="428pt" height="291pt"
 viewBox="0.00 0.00 428.00 291.00" xmlns="http://www.w3.org/2000/svg" xmlns:xlink="http://www.w3.org/1999/xlink">
<g id="graph0" class="graph" transform="scale(1 1) rotate(0) translate(4 287)">
<title>klyqa_ctl.account.Account.get_or_create_device</title>
<polygon fill="white" stroke="transparent" points="-4,4 -4,-287 424,-287 424,4 -4,4"/>
<!-- Node1 -->
<g id="node1" class="node">
<title>Node1</title>
<g id="a_node1"><a xlink:title=" ">
<polygon fill="#bfbfbf" stroke="black" points="0,-132 0,-162 163,-162 163,-132 0,-132"/>
<text text-anchor="start" x="8" y="-150" font-family="Helvetica,sans-Serif" font-size="10.00">klyqa_ctl.account.Account.get</text>
<text text-anchor="middle" x="81.5" y="-139" font-family="Helvetica,sans-Serif" font-size="10.00">_or_create_device</text>
</a>
</g>
</g>
<!-- Node2 -->
<g id="node2" class="node">
<title>Node2</title>
<g id="a_node2"><a xlink:href="classklyqa__ctl_1_1account_1_1Account.html#a7bcb9ac9804621630ea08a688abecd18" target="_top" xlink:title=" ">
<polygon fill="white" stroke="black" points="199,-263.5 199,-282.5 420,-282.5 420,-263.5 199,-263.5"/>
<text text-anchor="middle" x="309.5" y="-270.5" font-family="Helvetica,sans-Serif" font-size="10.00">klyqa_ctl.account.Account.controller_data</text>
</a>
</g>
</g>
<!-- Node1&#45;&gt;Node2 -->
<g id="edge1" class="edge">
<title>Node1&#45;&gt;Node2</title>
<path fill="none" stroke="midnightblue" d="M94.2,-162.34C113.31,-186.17 153.66,-231.69 199,-254 203.92,-256.42 209.1,-258.54 214.42,-260.39"/>
<polygon fill="midnightblue" stroke="midnightblue" points="213.53,-263.78 224.12,-263.45 215.64,-257.11 213.53,-263.78"/>
</g>
<!-- Node3 -->
<g id="node3" class="node">
<title>Node3</title>
<g id="a_node3"><a xlink:href="classcloud_1_1CloudBackend.html#aef174fe1ba95fff13c7901ff56354ec9" target="_top" xlink:title=" ">
<polygon fill="white" stroke="black" points="214,-225.5 214,-244.5 405,-244.5 405,-225.5 214,-225.5"/>
<text text-anchor="middle" x="309.5" y="-232.5" font-family="Helvetica,sans-Serif" font-size="10.00">cloud.CloudBackend.controller_data</text>
</a>
</g>
</g>
<!-- Node1&#45;&gt;Node3 -->
<g id="edge2" class="edge">
<title>Node1&#45;&gt;Node3</title>
<path fill="none" stroke="midnightblue" d="M102.81,-162.16C125.19,-178.1 162.83,-202.66 199,-216 206.53,-218.78 214.5,-221.15 222.58,-223.18"/>
<polygon fill="midnightblue" stroke="midnightblue" points="221.92,-226.62 232.45,-225.5 223.51,-219.81 221.92,-226.62"/>
</g>
<!-- Node4 -->
<g id="node4" class="node">
<title>Node4</title>
<g id="a_node4"><a xlink:href="classlocal_1_1connection__handler_1_1LocalConnectionHandler.html#a8f938ae53b3c24bbdc02f377671cf263" target="_top" xlink:title=" ">
<polygon fill="white" stroke="black" points="204,-176 204,-206 415,-206 415,-176 204,-176"/>
<text text-anchor="start" x="212" y="-194" font-family="Helvetica,sans-Serif" font-size="10.00">local.connection_handler.</text>
<text text-anchor="middle" x="309.5" y="-183" font-family="Helvetica,sans-Serif" font-size="10.00">LocalConnectionHandler.controller_data</text>
</a>
</g>
</g>
<!-- Node1&#45;&gt;Node4 -->
<g id="edge3" class="edge">
<title>Node1&#45;&gt;Node4</title>
<path fill="none" stroke="midnightblue" d="M159.64,-162.02C179.53,-165.89 201.08,-170.09 221.43,-174.05"/>
<polygon fill="midnightblue" stroke="midnightblue" points="220.84,-177.5 231.32,-175.97 222.17,-170.63 220.84,-177.5"/>
</g>
<!-- Node5 -->
<g id="node5" class="node">
<title>Node5</title>
<g id="a_node5"><a xlink:href="classklyqa__ctl_1_1account_1_1Account.html#a2265c38daf6829c96c852ad4a288b42d" target="_top" xlink:title=" ">
<polygon fill="white" stroke="black" points="217,-137.5 217,-156.5 402,-156.5 402,-137.5 217,-137.5"/>
<text text-anchor="middle" x="309.5" y="-144.5" font-family="Helvetica,sans-Serif" font-size="10.00">klyqa_ctl.account.Account.devices</text>
</a>
</g>
</g>
<!-- Node1&#45;&gt;Node5 -->
<g id="edge4" class="edge">
<title>Node1&#45;&gt;Node5</title>
<path fill="none" stroke="midnightblue" d="M163.13,-147C177.24,-147 192.09,-147 206.69,-147"/>
<polygon fill="midnightblue" stroke="midnightblue" points="206.74,-150.5 216.74,-147 206.74,-143.5 206.74,-150.5"/>
</g>
<!-- Node6 -->
<g id="node6" class="node">
<title>Node6</title>
<g id="a_node6"><a xlink:href="classlocal_1_1connection__handler_1_1LocalConnectionHandler.html#a4d307f6bd0b66f3cb9fac3057fc87972" target="_top" xlink:title=" ">
<polygon fill="white" stroke="black" points="222,-88 222,-118 397,-118 397,-88 222,-88"/>
<text text-anchor="start" x="230" y="-106" font-family="Helvetica,sans-Serif" font-size="10.00">local.connection_handler.</text>
<text text-anchor="middle" x="309.5" y="-95" font-family="Helvetica,sans-Serif" font-size="10.00">LocalConnectionHandler.devices</text>
</a>
</g>
</g>
<!-- Node1&#45;&gt;Node6 -->
<g id="edge5" class="edge">
<title>Node1&#45;&gt;Node6</title>
<path fill="none" stroke="midnightblue" d="M159.64,-131.98C179.53,-128.11 201.08,-123.91 221.43,-119.95"/>
<polygon fill="midnightblue" stroke="midnightblue" points="222.17,-123.37 231.32,-118.03 220.84,-116.5 222.17,-123.37"/>
</g>
<!-- Node7 -->
<g id="node7" class="node">
<title>Node7</title>
<g id="a_node7"><a xlink:href="classklyqa__ctl_1_1controller__data_1_1ControllerData.html#adf7af423388a9a883c428cf71e217650" target="_top" xlink:title=" ">
<polygon fill="white" stroke="black" points="230.5,-39 230.5,-69 388.5,-69 388.5,-39 230.5,-39"/>
<text text-anchor="start" x="238.5" y="-57" font-family="Helvetica,sans-Serif" font-size="10.00">klyqa_ctl.controller</text>
<text text-anchor="middle" x="309.5" y="-46" font-family="Helvetica,sans-Serif" font-size="10.00">_data.ControllerData.devices</text>
</a>
</g>
</g>
<!-- Node1&#45;&gt;Node7 -->
<g id="edge6" class="edge">
<title>Node1&#45;&gt;Node7</title>
<path fill="none" stroke="midnightblue" d="M103.82,-131.87C126.44,-116.47 163.72,-92.95 199,-79 205.94,-76.26 213.24,-73.78 220.65,-71.54"/>
<polygon fill="midnightblue" stroke="midnightblue" points="221.79,-74.86 230.44,-68.74 219.86,-68.13 221.79,-74.86"/>
</g>
<!-- Node8 -->
<g id="node8" class="node">
<title>Node8</title>
<g id="a_node8"><a xlink:href="classklyqa__ctl_1_1klyqa__ctl_1_1Client.html#ab6e5eda10fb712850c3fb311fd1cd4a0" target="_top" xlink:title=" ">
<polygon fill="white" stroke="black" points="219.5,-0.5 219.5,-19.5 399.5,-19.5 399.5,-0.5 219.5,-0.5"/>
<text text-anchor="middle" x="309.5" y="-7.5" font-family="Helvetica,sans-Serif" font-size="10.00">klyqa_ctl.klyqa_ctl.Client.devices</text>
</a>
</g>
</g>
<!-- Node1&#45;&gt;Node8 -->
<g id="edge7" class="edge">
<title>Node1&#45;&gt;Node8</title>
<path fill="none" stroke="midnightblue" d="M92.7,-131.93C110.83,-106.42 151.3,-55.08 199,-30 204.31,-27.21 209.95,-24.79 215.76,-22.72"/>
<polygon fill="midnightblue" stroke="midnightblue" points="217.21,-25.92 225.65,-19.52 215.06,-19.26 217.21,-25.92"/>
</g>
</g>
</svg>
