<?xml version="1.0" encoding="UTF-8" standalone="no"?>
<!DOCTYPE svg PUBLIC "-//W3C//DTD SVG 1.1//EN"
 "http://www.w3.org/Graphics/SVG/1.1/DTD/svg11.dtd">
<!-- Generated by graphviz version 2.43.0 (0)
 -->
<!-- Title: klyqa_ctl.account.Account.get_or_create_device Pages: 1 -->
<svg width="428pt" height="253pt"
 viewBox="0.00 0.00 428.00 252.50" xmlns="http://www.w3.org/2000/svg" xmlns:xlink="http://www.w3.org/1999/xlink">
<g id="graph0" class="graph" transform="scale(1 1) rotate(0) translate(4 248.5)">
<title>klyqa_ctl.account.Account.get_or_create_device</title>
<polygon fill="white" stroke="transparent" points="-4,4 -4,-248.5 424,-248.5 424,4 -4,4"/>
<!-- Node1 -->
<g id="node1" class="node">
<title>Node1</title>
<g id="a_node1"><a xlink:title=" ">
<polygon fill="#bfbfbf" stroke="black" points="0,-115.5 0,-145.5 163,-145.5 163,-115.5 0,-115.5"/>
<text text-anchor="start" x="8" y="-133.5" font-family="Helvetica,sans-Serif" font-size="10.00">klyqa_ctl.account.Account.get</text>
<text text-anchor="middle" x="81.5" y="-122.5" font-family="Helvetica,sans-Serif" font-size="10.00">_or_create_device</text>
</a>
</g>
</g>
<!-- Node2 -->
<g id="node2" class="node">
<title>Node2</title>
<g id="a_node2"><a xlink:href="classklyqa__ctl_1_1account_1_1Account.html#a7bcb9ac9804621630ea08a688abecd18" target="_top" xlink:title=" ">
<polygon fill="white" stroke="black" points="199,-225 199,-244 420,-244 420,-225 199,-225"/>
<text text-anchor="middle" x="309.5" y="-232" font-family="Helvetica,sans-Serif" font-size="10.00">klyqa_ctl.account.Account.controller_data</text>
</a>
</g>
</g>
<!-- Node1&#45;&gt;Node2 -->
<g id="edge1" class="edge">
<title>Node1&#45;&gt;Node2</title>
<path fill="none" stroke="midnightblue" d="M97.99,-145.51C119.03,-164.96 158.66,-198.39 199,-215.5 205.21,-218.13 211.76,-220.4 218.44,-222.35"/>
<polygon fill="midnightblue" stroke="midnightblue" points="217.75,-225.79 228.32,-225 219.56,-219.03 217.75,-225.79"/>
</g>
<!-- Node3 -->
<g id="node3" class="node">
<title>Node3</title>
<g id="a_node3"><a xlink:href="classcloud_1_1CloudBackend.html#aef174fe1ba95fff13c7901ff56354ec9" target="_top" xlink:title=" ">
<polygon fill="white" stroke="black" points="214,-187 214,-206 405,-206 405,-187 214,-187"/>
<text text-anchor="middle" x="309.5" y="-194" font-family="Helvetica,sans-Serif" font-size="10.00">cloud.CloudBackend.controller_data</text>
</a>
</g>
</g>
<!-- Node1&#45;&gt;Node3 -->
<g id="edge2" class="edge">
<title>Node1&#45;&gt;Node3</title>
<path fill="none" stroke="midnightblue" d="M114.5,-145.55C137.55,-155.86 169.64,-169.13 199,-177.5 208.98,-180.35 219.61,-182.83 230.16,-184.99"/>
<polygon fill="midnightblue" stroke="midnightblue" points="229.75,-188.48 240.24,-186.96 231.09,-181.61 229.75,-188.48"/>
</g>
<!-- Node4 -->
<g id="node4" class="node">
<title>Node4</title>
<g id="a_node4"><a xlink:href="classlocal_1_1connection__handler_1_1LocalConnectionHandler.html#a8f938ae53b3c24bbdc02f377671cf263" target="_top" xlink:title=" ">
<polygon fill="white" stroke="black" points="204,-137.5 204,-167.5 415,-167.5 415,-137.5 204,-137.5"/>
<text text-anchor="start" x="212" y="-155.5" font-family="Helvetica,sans-Serif" font-size="10.00">local.connection_handler.</text>
<text text-anchor="middle" x="309.5" y="-144.5" font-family="Helvetica,sans-Serif" font-size="10.00">LocalConnectionHandler.controller_data</text>
</a>
</g>
</g>
<!-- Node1&#45;&gt;Node4 -->
<g id="edge3" class="edge">
<title>Node1&#45;&gt;Node4</title>
<path fill="none" stroke="midnightblue" d="M163.13,-138.35C173.02,-139.31 183.27,-140.31 193.54,-141.31"/>
<polygon fill="midnightblue" stroke="midnightblue" points="193.51,-144.82 203.81,-142.31 194.19,-137.86 193.51,-144.82"/>
</g>
<!-- Node5 -->
<g id="node5" class="node">
<title>Node5</title>
<g id="a_node5"><a xlink:href="classklyqa__ctl_1_1account_1_1Account.html#a2265c38daf6829c96c852ad4a288b42d" target="_top" xlink:title=" ">
<polygon fill="white" stroke="black" points="217,-99 217,-118 402,-118 402,-99 217,-99"/>
<text text-anchor="middle" x="309.5" y="-106" font-family="Helvetica,sans-Serif" font-size="10.00">klyqa_ctl.account.Account.devices</text>
</a>
</g>
</g>
<!-- Node1&#45;&gt;Node5 -->
<g id="edge4" class="edge">
<title>Node1&#45;&gt;Node5</title>
<path fill="none" stroke="midnightblue" d="M163.13,-122.65C177.24,-121.28 192.09,-119.83 206.69,-118.41"/>
<polygon fill="midnightblue" stroke="midnightblue" points="207.12,-121.89 216.74,-117.43 206.44,-114.92 207.12,-121.89"/>
</g>
<!-- Node6 -->
<g id="node6" class="node">
<title>Node6</title>
<g id="a_node6"><a xlink:href="classlocal_1_1connection__handler_1_1LocalConnectionHandler.html#a4d307f6bd0b66f3cb9fac3057fc87972" target="_top" xlink:title=" ">
<polygon fill="white" stroke="black" points="222,-49.5 222,-79.5 397,-79.5 397,-49.5 222,-49.5"/>
<text text-anchor="start" x="230" y="-67.5" font-family="Helvetica,sans-Serif" font-size="10.00">local.connection_handler.</text>
<text text-anchor="middle" x="309.5" y="-56.5" font-family="Helvetica,sans-Serif" font-size="10.00">LocalConnectionHandler.devices</text>
</a>
</g>
</g>
<!-- Node1&#45;&gt;Node6 -->
<g id="edge5" class="edge">
<title>Node1&#45;&gt;Node6</title>
<path fill="none" stroke="midnightblue" d="M121.77,-115.42C144.19,-107.13 172.94,-97.03 199,-89.5 208.11,-86.87 217.7,-84.33 227.28,-81.95"/>
<polygon fill="midnightblue" stroke="midnightblue" points="228.33,-85.3 237.22,-79.53 226.68,-78.5 228.33,-85.3"/>
</g>
<!-- Node7 -->
<g id="node7" class="node">
<title>Node7</title>
<g id="a_node7"><a xlink:href="classklyqa__ctl_1_1controller__data_1_1ControllerData.html#adf7af423388a9a883c428cf71e217650" target="_top" xlink:title=" ">
<polygon fill="white" stroke="black" points="230.5,-0.5 230.5,-30.5 388.5,-30.5 388.5,-0.5 230.5,-0.5"/>
<text text-anchor="start" x="238.5" y="-18.5" font-family="Helvetica,sans-Serif" font-size="10.00">klyqa_ctl.controller</text>
<text text-anchor="middle" x="309.5" y="-7.5" font-family="Helvetica,sans-Serif" font-size="10.00">_data.ControllerData.devices</text>
</a>
</g>
</g>
<!-- Node1&#45;&gt;Node7 -->
<g id="edge6" class="edge">
<title>Node1&#45;&gt;Node7</title>
<path fill="none" stroke="midnightblue" d="M97.6,-115.25C118.51,-95.04 158.32,-59.71 199,-40.5 205.73,-37.32 212.88,-34.54 220.19,-32.1"/>
<polygon fill="midnightblue" stroke="midnightblue" points="221.71,-35.29 230.22,-28.98 219.63,-28.61 221.71,-35.29"/>
</g>
</g>
</svg>
