<?xml version="1.0" encoding="UTF-8" standalone="no"?>
<!DOCTYPE svg PUBLIC "-//W3C//DTD SVG 1.1//EN"
 "http://www.w3.org/Graphics/SVG/1.1/DTD/svg11.dtd">
<!-- Generated by graphviz version 2.43.0 (0)
 -->
<!-- Title: klyqa_ctl.account_control.AccountControl.update_device_configs Pages: 1 -->
<!--zoomable 256 -->
<svg id="main" version="1.1" xmlns="http://www.w3.org/2000/svg" xmlns:xlink="http://www.w3.org/1999/xlink" xml:space="preserve" onload="init(evt)">
<style type="text/css"><![CDATA[
.edge:hover path { stroke: red; }
.edge:hover polygon { stroke: red; fill: red; }
]]></style>
<script type="text/javascript"><![CDATA[
var edges = document.getElementsByTagName('g');
if (edges && edges.length) {
  for (var i=0;i<edges.length;i++) {
    if (edges[i].id.substr(0,4)=='edge') {
      edges[i].setAttribute('class','edge');
    }
  }
}
]]></script>
        <defs>
                <circle id="rim" cx="0" cy="0" r="7"/>
                <circle id="rim2" cx="0" cy="0" r="3.5"/>
                <g id="zoomPlus">
                        <use xlink:href="#rim" fill="#404040">
                                <set attributeName="fill" to="#808080" begin="zoomplus.mouseover" end="zoomplus.mouseout"/>
                        </use>
                        <path d="M-4,0h8M0,-4v8" fill="none" stroke="white" stroke-width="1.5" pointer-events="none"/>
                </g>
                <g id="zoomMin">
                        <use xlink:href="#rim" fill="#404040">
                                <set attributeName="fill" to="#808080" begin="zoomminus.mouseover" end="zoomminus.mouseout"/>
                        </use>
                        <path d="M-4,0h8" fill="none" stroke="white" stroke-width="1.5" pointer-events="none"/>
                </g>
                <g id="dirArrow">
                        <path fill="none" stroke="white" stroke-width="1.5" d="M0,-3.0v7 M-2.5,-0.5L0,-3.0L2.5,-0.5"/>
                </g>
               <g id="resetDef">
                       <use xlink:href="#rim2" fill="#404040">
                               <set attributeName="fill" to="#808080" begin="reset.mouseover" end="reset.mouseout"/>
                       </use>
               </g>
        </defs>

<script type="text/javascript">
var viewWidth = 1048;
var viewHeight = 256;
var sectionId = 'dynsection-7';
</script>
<script xlink:href="svgpan.js"/>
<svg id="graph" class="graph">
<g id="viewport">
<title>klyqa_ctl.account_control.AccountControl.update_device_configs</title>
<polygon fill="white" stroke="transparent" points="-4,4 -4,-251.5 1044,-251.5 1044,4 -4,4"/>
<!-- Node1 -->
<g id="node1" class="node">
<title>Node1</title>
<g id="a_node1"><a xlink:title=" ">
<polygon fill="#bfbfbf" stroke="black" points="0,-102 0,-143 165,-143 165,-102 0,-102"/>
<text text-anchor="start" x="8" y="-131" font-family="Helvetica,sans-Serif" font-size="10.00">klyqa_ctl.account_control.</text>
<text text-anchor="start" x="8" y="-120" font-family="Helvetica,sans-Serif" font-size="10.00">AccountControl.update_device</text>
<text text-anchor="middle" x="82.5" y="-109" font-family="Helvetica,sans-Serif" font-size="10.00">_configs</text>
</a>
</g>
</g>
<!-- Node2 -->
<g id="node2" class="node">
<title>Node2</title>
<g id="a_node2"><a xlink:href="classklyqa__ctl_1_1account_1_1Account.html#a2265c38daf6829c96c852ad4a288b42d" target="_top" xlink:title=" ">
<polygon fill="white" stroke="black" points="201,-228 201,-247 386,-247 386,-228 201,-228"/>
<text text-anchor="middle" x="293.5" y="-235" font-family="Helvetica,sans-Serif" font-size="10.00">klyqa_ctl.account.Account.devices</text>
</a>
</g>
</g>
<!-- Node1&#45;&gt;Node2 -->
<g id="edge1" class="edge">
<title>Node1&#45;&gt;Node2</title>
<path fill="none" stroke="midnightblue" d="M102.61,-143.18C124.3,-165.32 161.77,-199.79 201,-218.5 206.25,-221 211.83,-223.18 217.54,-225.07"/>
<polygon fill="midnightblue" stroke="midnightblue" points="216.65,-228.46 227.24,-227.99 218.67,-221.76 216.65,-228.46"/>
</g>
<!-- Node3 -->
<g id="node3" class="node">
<title>Node3</title>
<g id="a_node3"><a xlink:href="classlocal_1_1connection__handler_1_1LocalConnectionHandler.html#a4d307f6bd0b66f3cb9fac3057fc87972" target="_top" xlink:title=" ">
<polygon fill="white" stroke="black" points="206,-178.5 206,-208.5 381,-208.5 381,-178.5 206,-178.5"/>
<text text-anchor="start" x="214" y="-196.5" font-family="Helvetica,sans-Serif" font-size="10.00">local.connection_handler.</text>
<text text-anchor="middle" x="293.5" y="-185.5" font-family="Helvetica,sans-Serif" font-size="10.00">LocalConnectionHandler.devices</text>
</a>
</g>
</g>
<!-- Node1&#45;&gt;Node3 -->
<g id="edge2" class="edge">
<title>Node1&#45;&gt;Node3</title>
<path fill="none" stroke="midnightblue" d="M131.03,-143.07C152.22,-151.83 177.63,-161.79 201,-169.5 207.39,-171.61 214.08,-173.66 220.81,-175.61"/>
<polygon fill="midnightblue" stroke="midnightblue" points="220.1,-179.04 230.67,-178.4 222,-172.31 220.1,-179.04"/>
</g>
<!-- Node4 -->
<g id="node4" class="node">
<title>Node4</title>
<g id="a_node4"><a xlink:href="classklyqa__ctl_1_1controller__data_1_1ControllerData.html#adf7af423388a9a883c428cf71e217650" target="_top" xlink:title=" ">
<polygon fill="white" stroke="black" points="214.5,-129.5 214.5,-159.5 372.5,-159.5 372.5,-129.5 214.5,-129.5"/>
<text text-anchor="start" x="222.5" y="-147.5" font-family="Helvetica,sans-Serif" font-size="10.00">klyqa_ctl.controller</text>
<text text-anchor="middle" x="293.5" y="-136.5" font-family="Helvetica,sans-Serif" font-size="10.00">_data.ControllerData.devices</text>
</a>
</g>
</g>
<!-- Node1&#45;&gt;Node4 -->
<g id="edge3" class="edge">
<title>Node1&#45;&gt;Node4</title>
<path fill="none" stroke="midnightblue" d="M165.2,-131.1C177.94,-132.44 191.15,-133.83 204.03,-135.19"/>
<polygon fill="midnightblue" stroke="midnightblue" points="203.96,-138.7 214.28,-136.27 204.7,-131.74 203.96,-138.7"/>
</g>
<!-- Node5 -->
<g id="node5" class="node">
<title>Node5</title>
<g id="a_node5"><a xlink:href="classklyqa__ctl_1_1klyqa__ctl_1_1Client.html#ab6e5eda10fb712850c3fb311fd1cd4a0" target="_top" xlink:title=" ">
<polygon fill="white" stroke="black" points="203.5,-91 203.5,-110 383.5,-110 383.5,-91 203.5,-91"/>
<text text-anchor="middle" x="293.5" y="-98" font-family="Helvetica,sans-Serif" font-size="10.00">klyqa_ctl.klyqa_ctl.Client.devices</text>
</a>
</g>
</g>
<!-- Node1&#45;&gt;Node5 -->
<g id="edge4" class="edge">
<title>Node1&#45;&gt;Node5</title>
<path fill="none" stroke="midnightblue" d="M165.2,-113.9C174.37,-112.94 183.78,-111.94 193.13,-110.96"/>
<polygon fill="midnightblue" stroke="midnightblue" points="193.67,-114.42 203.25,-109.89 192.94,-107.46 193.67,-114.42"/>
</g>
<!-- Node6 -->
<g id="node6" class="node">
<title>Node6</title>
<g id="a_node6"><a xlink:href="namespaceklyqa__ctl_1_1general_1_1general.html#a1afe30a73cc28a3b65babeeab27e36c8" target="_top" xlink:title=" ">
<polygon fill="white" stroke="black" points="422,-49.5 422,-79.5 586,-79.5 586,-49.5 422,-49.5"/>
<text text-anchor="start" x="430" y="-67.5" font-family="Helvetica,sans-Serif" font-size="10.00">klyqa_ctl.general.general.task</text>
<text text-anchor="middle" x="504" y="-56.5" font-family="Helvetica,sans-Serif" font-size="10.00">_log_debug</text>
</a>
</g>
</g>
<!-- Node1&#45;&gt;Node6 -->
<g id="edge5" class="edge">
<title>Node1&#45;&gt;Node6</title>
<path fill="none" stroke="midnightblue" d="M132.67,-101.9C153.4,-94.13 178.01,-86.06 201,-81.5 270.75,-67.65 351.21,-63.7 411.53,-63.05"/>
<polygon fill="midnightblue" stroke="midnightblue" points="411.82,-66.54 421.8,-62.96 411.77,-59.54 411.82,-66.54"/>
</g>
<!-- Node9 -->
<g id="node9" class="node">
<title>Node9</title>
<g id="a_node9"><a xlink:href="namespaceklyqa__ctl_1_1general_1_1general.html#ad6b753e482e539892c57f8144cf213cb" target="_top" xlink:title=" ">
<polygon fill="white" stroke="black" points="211.5,-2.5 211.5,-32.5 375.5,-32.5 375.5,-2.5 211.5,-2.5"/>
<text text-anchor="start" x="219.5" y="-20.5" font-family="Helvetica,sans-Serif" font-size="10.00">klyqa_ctl.general.general.task</text>
<text text-anchor="middle" x="293.5" y="-9.5" font-family="Helvetica,sans-Serif" font-size="10.00">_log_trace_ex</text>
</a>
</g>
</g>
<!-- Node1&#45;&gt;Node9 -->
<g id="edge8" class="edge">
<title>Node1&#45;&gt;Node9</title>
<path fill="none" stroke="midnightblue" d="M111.86,-101.96C135.01,-85.87 169,-63.73 201,-48.5 210.53,-43.97 220.89,-39.79 231.12,-36.06"/>
<polygon fill="midnightblue" stroke="midnightblue" points="232.57,-39.26 240.84,-32.64 230.24,-32.66 232.57,-39.26"/>
</g>
<!-- Node7 -->
<g id="node7" class="node">
<title>Node7</title>
<g id="a_node7"><a xlink:href="namespaceklyqa__ctl_1_1general_1_1general.html#a9df3b50dfc0fcc7c8ec991bb9be9c5ba" target="_top" xlink:title=" ">
<polygon fill="white" stroke="black" points="622,-30 622,-49 807,-49 807,-30 622,-30"/>
<text text-anchor="middle" x="714.5" y="-37" font-family="Helvetica,sans-Serif" font-size="10.00">klyqa_ctl.general.general.task_log</text>
</a>
</g>
</g>
<!-- Node6&#45;&gt;Node7 -->
<g id="edge6" class="edge">
<title>Node6&#45;&gt;Node7</title>
<path fill="none" stroke="midnightblue" d="M586.21,-54.76C598.66,-53.27 611.57,-51.72 624.19,-50.21"/>
<polygon fill="midnightblue" stroke="midnightblue" points="624.71,-53.67 634.22,-49.01 623.88,-46.72 624.71,-53.67"/>
</g>
<!-- Node8 -->
<g id="node8" class="node">
<title>Node8</title>
<g id="a_node8"><a xlink:href="namespaceklyqa__ctl_1_1general_1_1general.html#aea905150cafee39fa2ca211f1e60f012" target="_top" xlink:title=" ">
<polygon fill="white" stroke="black" points="843,-30 843,-49 1040,-49 1040,-30 843,-30"/>
<text text-anchor="middle" x="941.5" y="-37" font-family="Helvetica,sans-Serif" font-size="10.00">klyqa_ctl.general.general.task_name</text>
</a>
</g>
</g>
<!-- Node7&#45;&gt;Node8 -->
<g id="edge7" class="edge">
<title>Node7&#45;&gt;Node8</title>
<path fill="none" stroke="midnightblue" d="M807.02,-39.5C815.5,-39.5 824.15,-39.5 832.76,-39.5"/>
<polygon fill="midnightblue" stroke="midnightblue" points="832.83,-43 842.83,-39.5 832.83,-36 832.83,-43"/>
</g>
<!-- Node10 -->
<g id="node10" class="node">
<title>Node10</title>
<g id="a_node10"><a xlink:href="namespaceklyqa__ctl_1_1general_1_1general.html#ab2f9a22e98cd16d0d284d22382cfcb02" target="_top" xlink:title=" ">
<polygon fill="white" stroke="black" points="422,-0.5 422,-30.5 586,-30.5 586,-0.5 422,-0.5"/>
<text text-anchor="start" x="430" y="-18.5" font-family="Helvetica,sans-Serif" font-size="10.00">klyqa_ctl.general.general.task</text>
<text text-anchor="middle" x="504" y="-7.5" font-family="Helvetica,sans-Serif" font-size="10.00">_log_trace</text>
</a>
</g>
</g>
<!-- Node9&#45;&gt;Node10 -->
<g id="edge9" class="edge">
<title>Node9&#45;&gt;Node10</title>
<path fill="none" stroke="midnightblue" d="M375.71,-16.72C387.38,-16.61 399.46,-16.49 411.32,-16.38"/>
<polygon fill="midnightblue" stroke="midnightblue" points="411.7,-19.88 421.67,-16.28 411.64,-12.88 411.7,-19.88"/>
</g>
<!-- Node10&#45;&gt;Node7 -->
<g id="edge10" class="edge">
<title>Node10&#45;&gt;Node7</title>
<path fill="none" stroke="midnightblue" d="M586.21,-24.85C597.53,-26.15 609.23,-27.5 620.74,-28.82"/>
<polygon fill="midnightblue" stroke="midnightblue" points="620.46,-32.31 630.8,-29.98 621.26,-25.36 620.46,-32.31"/>
</g>
</g>
</svg>
        <g id="navigator" transform="translate(0 0)" fill="#404254">
                <rect fill="#f2f5e9" fill-opacity="0.5" stroke="#606060" stroke-width=".5" x="0" y="0" width="60" height="60"/>
                <use id="zoomplus" xlink:href="#zoomPlus" x="17" y="9" onmousedown="handleZoom(evt,'in')"/>
                <use id="zoomminus" xlink:href="#zoomMin" x="42" y="9" onmousedown="handleZoom(evt,'out')"/>
                <use id="reset" xlink:href="#resetDef" x="30" y="36" onmousedown="handleReset()"/>
                <g id="arrowUp" xlink:href="#dirArrow" transform="translate(30 24)" onmousedown="handlePan(0,-1)">
                  <use xlink:href="#rim" fill="#404040">
                        <set attributeName="fill" to="#808080" begin="arrowUp.mouseover" end="arrowUp.mouseout"/>
                  </use>
                  <path fill="none" stroke="white" stroke-width="1.5" d="M0,-3.0v7 M-2.5,-0.5L0,-3.0L2.5,-0.5"/>
                </g>
                <g id="arrowRight" xlink:href="#dirArrow" transform="rotate(90) translate(36 -43)" onmousedown="handlePan(1,0)">
                  <use xlink:href="#rim" fill="#404040">
                        <set attributeName="fill" to="#808080" begin="arrowRight.mouseover" end="arrowRight.mouseout"/>
                  </use>
                  <path fill="none" stroke="white" stroke-width="1.5" d="M0,-3.0v7 M-2.5,-0.5L0,-3.0L2.5,-0.5"/>
                </g>
                <g id="arrowDown" xlink:href="#dirArrow" transform="rotate(180) translate(-30 -48)" onmousedown="handlePan(0,1)">
                  <use xlink:href="#rim" fill="#404040">
                        <set attributeName="fill" to="#808080" begin="arrowDown.mouseover" end="arrowDown.mouseout"/>
                  </use>
                  <path fill="none" stroke="white" stroke-width="1.5" d="M0,-3.0v7 M-2.5,-0.5L0,-3.0L2.5,-0.5"/>
                </g>
                <g id="arrowLeft" xlink:href="#dirArrow" transform="rotate(270) translate(-36 17)" onmousedown="handlePan(-1,0)">
                  <use xlink:href="#rim" fill="#404040">
                        <set attributeName="fill" to="#808080" begin="arrowLeft.mouseover" end="arrowLeft.mouseout"/>
                  </use>
                  <path fill="none" stroke="white" stroke-width="1.5" d="M0,-3.0v7 M-2.5,-0.5L0,-3.0L2.5,-0.5"/>
                </g>
        </g>
        <svg viewBox="0 0 15 15" width="100%" height="30px" preserveAspectRatio="xMaxYMin meet">
         <g id="arrow_out" transform="scale(0.3 0.3)">
          <a xlink:href="classklyqa__ctl_1_1account__control_1_1AccountControl_a46d51f33622ad0e952a66d0d1b91eb12_cgraph_org.svg" target="_base">
           <rect id="button" ry="5" rx="5" y="6" x="6" height="38" width="38"
                fill="#f2f5e9" fill-opacity="0.5" stroke="#606060" stroke-width="1.0"/>
           <path id="arrow"
             d="M 11.500037,31.436501 C 11.940474,20.09759 22.043105,11.32322 32.158766,21.979434 L 37.068811,17.246167 C 37.068811,17.246167 37.088388,32 37.088388,32 L 22.160133,31.978069 C 22.160133,31.978069 26.997745,27.140456 26.997745,27.140456 C 18.528582,18.264221 13.291696,25.230495 11.500037,31.436501 z"
             style="fill:#404040;"/>
          </a>
         </g>
        </svg>
</svg>
