<?xml version="1.0" encoding="UTF-8" standalone="no"?>
<!DOCTYPE svg PUBLIC "-//W3C//DTD SVG 1.1//EN"
 "http://www.w3.org/Graphics/SVG/1.1/DTD/svg11.dtd">
<!-- Generated by graphviz version 2.43.0 (0)
 -->
<!-- Title: klyqa_ctl.general.general.CommandType Pages: 1 -->
<svg width="214pt" height="237pt"
 viewBox="0.00 0.00 213.50 237.00" xmlns="http://www.w3.org/2000/svg" xmlns:xlink="http://www.w3.org/1999/xlink">
<g id="graph0" class="graph" transform="scale(1 1) rotate(0) translate(4 233)">
<title>klyqa_ctl.general.general.CommandType</title>
<polygon fill="white" stroke="transparent" points="-4,4 -4,-233 209.5,-233 209.5,4 -4,4"/>
<!-- Node1 -->
<g id="node1" class="node">
<title>Node1</title>
<g id="a_node1"><a xlink:title=" ">
<polygon fill="#bfbfbf" stroke="black" points="0,-0.5 0,-68.5 143,-68.5 143,-0.5 0,-0.5"/>
<text text-anchor="start" x="8" y="-56.5" font-family="Helvetica,sans-Serif" font-size="10.00">klyqa_ctl.general.general.</text>
<text text-anchor="middle" x="71.5" y="-45.5" font-family="Helvetica,sans-Serif" font-size="10.00">CommandType</text>
<polyline fill="none" stroke="black" points="0,-38.5 143,-38.5 "/>
<text text-anchor="middle" x="71.5" y="-26.5" font-family="Helvetica,sans-Serif" font-size="10.00"> </text>
<polyline fill="none" stroke="black" points="0,-19.5 143,-19.5 "/>
<text text-anchor="middle" x="71.5" y="-7.5" font-family="Helvetica,sans-Serif" font-size="10.00"> </text>
</a>
</g>
</g>
<!-- Node2 -->
<g id="node2" class="node">
<title>Node2</title>
<g id="a_node2"><a xlink:href="classstr.html" target="_top" xlink:title=" ">
<polygon fill="white" stroke="black" points="2,-171.5 2,-228.5 31,-228.5 31,-171.5 2,-171.5"/>
<text text-anchor="middle" x="16.5" y="-216.5" font-family="Helvetica,sans-Serif" font-size="10.00">str</text>
<polyline fill="none" stroke="black" points="2,-209.5 31,-209.5 "/>
<text text-anchor="middle" x="16.5" y="-197.5" font-family="Helvetica,sans-Serif" font-size="10.00"> </text>
<polyline fill="none" stroke="black" points="2,-190.5 31,-190.5 "/>
<text text-anchor="middle" x="16.5" y="-178.5" font-family="Helvetica,sans-Serif" font-size="10.00"> </text>
</a>
</g>
</g>
<!-- Node2&#45;&gt;Node1 -->
<g id="edge1" class="edge">
<title>Node2&#45;&gt;Node1</title>
<path fill="none" stroke="midnightblue" d="M29.13,-161.44C38.54,-133.47 51.27,-95.62 60.32,-68.74"/>
<polygon fill="none" stroke="midnightblue" points="25.7,-160.67 25.83,-171.26 32.34,-162.9 25.7,-160.67"/>
</g>
<!-- Node3 -->
<g id="node3" class="node">
<title>Node3</title>
<g id="a_node3"><a xlink:title=" ">
<polygon fill="white" stroke="#bfbfbf" points="49.5,-171.5 49.5,-228.5 93.5,-228.5 93.5,-171.5 49.5,-171.5"/>
<text text-anchor="middle" x="71.5" y="-216.5" font-family="Helvetica,sans-Serif" font-size="10.00">Enum</text>
<polyline fill="none" stroke="#bfbfbf" points="49.5,-209.5 93.5,-209.5 "/>
<text text-anchor="middle" x="71.5" y="-197.5" font-family="Helvetica,sans-Serif" font-size="10.00"> </text>
<polyline fill="none" stroke="#bfbfbf" points="49.5,-190.5 93.5,-190.5 "/>
<text text-anchor="middle" x="71.5" y="-178.5" font-family="Helvetica,sans-Serif" font-size="10.00"> </text>
</a>
</g>
</g>
<!-- Node3&#45;&gt;Node1 -->
<g id="edge2" class="edge">
<title>Node3&#45;&gt;Node1</title>
<path fill="none" stroke="midnightblue" d="M71.5,-161.07C71.5,-133.14 71.5,-95.51 71.5,-68.74"/>
<polygon fill="none" stroke="midnightblue" points="68,-161.26 71.5,-171.26 75,-161.26 68,-161.26"/>
</g>
<!-- Node4 -->
<g id="node4" class="node">
<title>Node4</title>
<g id="a_node4"><a xlink:title=" ">
<polygon fill="white" stroke="#bfbfbf" points="111.5,-171.5 111.5,-228.5 155.5,-228.5 155.5,-171.5 111.5,-171.5"/>
<text text-anchor="middle" x="133.5" y="-216.5" font-family="Helvetica,sans-Serif" font-size="10.00">string</text>
<polyline fill="none" stroke="#bfbfbf" points="111.5,-209.5 155.5,-209.5 "/>
<text text-anchor="middle" x="133.5" y="-197.5" font-family="Helvetica,sans-Serif" font-size="10.00"> </text>
<polyline fill="none" stroke="#bfbfbf" points="111.5,-190.5 155.5,-190.5 "/>
<text text-anchor="middle" x="133.5" y="-178.5" font-family="Helvetica,sans-Serif" font-size="10.00"> </text>
</a>
</g>
</g>
<!-- Node4&#45;&gt;Node1 -->
<g id="edge3" class="edge">
<title>Node4&#45;&gt;Node1</title>
<path fill="none" stroke="#404040" d="M122.98,-171.26C113.54,-146.36 99.51,-109.35 88.47,-80.26"/>
<polygon fill="none" stroke="#404040" points="88.36,-79.96 82.49,-75.77 84.11,-68.74 89.97,-72.93 88.36,-79.96"/>
<text text-anchor="middle" x="160" y="-145" font-family="Helvetica,sans-Serif" font-size="10.00"> +FACTORY_RESET</text>
<text text-anchor="middle" x="160" y="-134" font-family="Helvetica,sans-Serif" font-size="10.00">+FW_UPDATE</text>
<text text-anchor="middle" x="160" y="-123" font-family="Helvetica,sans-Serif" font-size="10.00">+PING</text>
<text text-anchor="middle" x="160" y="-112" font-family="Helvetica,sans-Serif" font-size="10.00">+REBOOT</text>
<text text-anchor="middle" x="160" y="-101" font-family="Helvetica,sans-Serif" font-size="10.00">+REQUEST</text>
<text text-anchor="middle" x="160" y="-90" font-family="Helvetica,sans-Serif" font-size="10.00">+ROUTINE</text>
</g>
</g>
</svg>
