<?xml version="1.0" encoding="UTF-8" standalone="no"?>
<!DOCTYPE svg PUBLIC "-//W3C//DTD SVG 1.1//EN"
 "http://www.w3.org/Graphics/SVG/1.1/DTD/svg11.dtd">
<!-- Generated by graphviz version 2.43.0 (0)
 -->
<!-- Title: local.connection_handler.LocalConnectionHandler.process_tcp_package Pages: 1 -->
<!--zoomable 475 -->
<svg id="main" version="1.1" xmlns="http://www.w3.org/2000/svg" xmlns:xlink="http://www.w3.org/1999/xlink" xml:space="preserve" onload="init(evt)">
<style type="text/css"><![CDATA[
.edge:hover path { stroke: red; }
.edge:hover polygon { stroke: red; fill: red; }
]]></style>
<script type="text/javascript"><![CDATA[
var edges = document.getElementsByTagName('g');
if (edges && edges.length) {
  for (var i=0;i<edges.length;i++) {
    if (edges[i].id.substr(0,4)=='edge') {
      edges[i].setAttribute('class','edge');
    }
  }
}
]]></script>
        <defs>
                <circle id="rim" cx="0" cy="0" r="7"/>
                <circle id="rim2" cx="0" cy="0" r="3.5"/>
                <g id="zoomPlus">
                        <use xlink:href="#rim" fill="#404040">
                                <set attributeName="fill" to="#808080" begin="zoomplus.mouseover" end="zoomplus.mouseout"/>
                        </use>
                        <path d="M-4,0h8M0,-4v8" fill="none" stroke="white" stroke-width="1.5" pointer-events="none"/>
                </g>
                <g id="zoomMin">
                        <use xlink:href="#rim" fill="#404040">
                                <set attributeName="fill" to="#808080" begin="zoomminus.mouseover" end="zoomminus.mouseout"/>
                        </use>
                        <path d="M-4,0h8" fill="none" stroke="white" stroke-width="1.5" pointer-events="none"/>
                </g>
                <g id="dirArrow">
                        <path fill="none" stroke="white" stroke-width="1.5" d="M0,-3.0v7 M-2.5,-0.5L0,-3.0L2.5,-0.5"/>
                </g>
               <g id="resetDef">
                       <use xlink:href="#rim2" fill="#404040">
                               <set attributeName="fill" to="#808080" begin="reset.mouseover" end="reset.mouseout"/>
                       </use>
               </g>
        </defs>

<script type="text/javascript">
var viewWidth = 1105;
var viewHeight = 475;
var sectionId = 'dynsection-44';
</script>
<script xlink:href="svgpan.js"/>
<svg id="graph" class="graph">
<g id="viewport">
<title>local.connection_handler.LocalConnectionHandler.process_tcp_package</title>
<polygon fill="white" stroke="transparent" points="-4,4 -4,-470.57 1101,-470.57 1101,4 -4,4"/>
<!-- Node1 -->
<g id="node1" class="node">
<title>Node1</title>
<g id="a_node1"><a xlink:title=" ">
<polygon fill="#bfbfbf" stroke="black" points="0,-369.5 0,-410.5 175,-410.5 175,-369.5 0,-369.5"/>
<text text-anchor="start" x="8" y="-398.5" font-family="Helvetica,sans-Serif" font-size="10.00">local.connection_handler.</text>
<text text-anchor="start" x="8" y="-387.5" font-family="Helvetica,sans-Serif" font-size="10.00">LocalConnectionHandler.process</text>
<text text-anchor="middle" x="87.5" y="-376.5" font-family="Helvetica,sans-Serif" font-size="10.00">_tcp_package</text>
</a>
</g>
</g>
<!-- Node2 -->
<g id="node2" class="node">
<title>Node2</title>
<g id="a_node2"><a xlink:href="classlocal_1_1connection__handler_1_1LocalConnectionHandler.html#ad1b4bfaedd513acfccbf1b12e36d5469" target="_top" xlink:title=" ">
<polygon fill="white" stroke="black" points="211,-339.5 211,-380.5 386,-380.5 386,-339.5 211,-339.5"/>
<text text-anchor="start" x="219" y="-368.5" font-family="Helvetica,sans-Serif" font-size="10.00">local.connection_handler.</text>
<text text-anchor="start" x="219" y="-357.5" font-family="Helvetica,sans-Serif" font-size="10.00">LocalConnectionHandler.process</text>
<text text-anchor="middle" x="298.5" y="-346.5" font-family="Helvetica,sans-Serif" font-size="10.00">_aes_initial_vector_package</text>
</a>
</g>
</g>
<!-- Node1&#45;&gt;Node2 -->
<g id="edge1" class="edge">
<title>Node1&#45;&gt;Node2</title>
<path fill="none" stroke="midnightblue" d="M175.02,-377.58C183.49,-376.36 192.13,-375.12 200.7,-373.89"/>
<polygon fill="midnightblue" stroke="midnightblue" points="201.31,-377.34 210.71,-372.46 200.32,-370.41 201.31,-377.34"/>
</g>
<!-- Node3 -->
<g id="node3" class="node">
<title>Node3</title>
<g id="a_node3"><a xlink:href="namespaceklyqa__ctl_1_1general_1_1general.html#a9df3b50dfc0fcc7c8ec991bb9be9c5ba" target="_top" xlink:title=" ">
<polygon fill="white" stroke="black" points="679,-389.5 679,-408.5 864,-408.5 864,-389.5 679,-389.5"/>
<text text-anchor="middle" x="771.5" y="-396.5" font-family="Helvetica,sans-Serif" font-size="10.00">klyqa_ctl.general.general.task_log</text>
</a>
</g>
</g>
<!-- Node1&#45;&gt;Node3 -->
<g id="edge19" class="edge">
<title>Node1&#45;&gt;Node3</title>
<path fill="none" stroke="midnightblue" d="M120.25,-410.58C144.13,-424.78 178.24,-442.41 211,-450 401.5,-494.15 636.77,-437.87 729.85,-411.38"/>
<polygon fill="midnightblue" stroke="midnightblue" points="731.07,-414.67 739.71,-408.54 729.13,-407.95 731.07,-414.67"/>
</g>
<!-- Node6 -->
<g id="node6" class="node">
<title>Node6</title>
<g id="a_node6"><a xlink:href="classlocal_1_1connection__handler_1_1LocalConnectionHandler.html#a4ce11db96280d000941a91cb37df2842" target="_top" xlink:title=" ">
<polygon fill="white" stroke="black" points="211,-180.5 211,-221.5 386,-221.5 386,-180.5 211,-180.5"/>
<text text-anchor="start" x="219" y="-209.5" font-family="Helvetica,sans-Serif" font-size="10.00">local.connection_handler.</text>
<text text-anchor="start" x="219" y="-198.5" font-family="Helvetica,sans-Serif" font-size="10.00">LocalConnectionHandler.process</text>
<text text-anchor="middle" x="298.5" y="-187.5" font-family="Helvetica,sans-Serif" font-size="10.00">_device_identity_package</text>
</a>
</g>
</g>
<!-- Node1&#45;&gt;Node6 -->
<g id="edge6" class="edge">
<title>Node1&#45;&gt;Node6</title>
<path fill="none" stroke="midnightblue" d="M111.26,-369.41C149.11,-335.19 224.99,-266.57 267.28,-228.33"/>
<polygon fill="midnightblue" stroke="midnightblue" points="269.69,-230.86 274.76,-221.56 265,-225.67 269.69,-230.86"/>
</g>
<!-- Node14 -->
<g id="node14" class="node">
<title>Node14</title>
<g id="a_node14"><a xlink:href="classlocal_1_1connection__handler_1_1LocalConnectionHandler.html#a46f68728bc59f0e5991bc390f67f2685" target="_top" xlink:title=" ">
<polygon fill="white" stroke="black" points="211,-399.5 211,-440.5 386,-440.5 386,-399.5 211,-399.5"/>
<text text-anchor="start" x="219" y="-428.5" font-family="Helvetica,sans-Serif" font-size="10.00">local.connection_handler.</text>
<text text-anchor="start" x="219" y="-417.5" font-family="Helvetica,sans-Serif" font-size="10.00">LocalConnectionHandler.process</text>
<text text-anchor="middle" x="298.5" y="-406.5" font-family="Helvetica,sans-Serif" font-size="10.00">_message_answer_package</text>
</a>
</g>
</g>
<!-- Node1&#45;&gt;Node14 -->
<g id="edge16" class="edge">
<title>Node1&#45;&gt;Node14</title>
<path fill="none" stroke="midnightblue" d="M175.02,-402.42C183.49,-403.64 192.13,-404.88 200.7,-406.11"/>
<polygon fill="midnightblue" stroke="midnightblue" points="200.32,-409.59 210.71,-407.54 201.31,-402.66 200.32,-409.59"/>
</g>
<!-- Node2&#45;&gt;Node3 -->
<g id="edge2" class="edge">
<title>Node2&#45;&gt;Node3</title>
<path fill="none" stroke="midnightblue" d="M386.01,-375.31C398.07,-377.1 410.32,-378.73 422,-380 504.82,-388.99 599.2,-393.81 668.84,-396.34"/>
<polygon fill="midnightblue" stroke="midnightblue" points="668.81,-399.84 678.93,-396.69 669.06,-392.84 668.81,-399.84"/>
</g>
<!-- Node5 -->
<g id="node5" class="node">
<title>Node5</title>
<g id="a_node5"><a xlink:href="namespaceklyqa__ctl_1_1general_1_1general.html#a1afe30a73cc28a3b65babeeab27e36c8" target="_top" xlink:title=" ">
<polygon fill="white" stroke="black" points="450.5,-340 450.5,-370 614.5,-370 614.5,-340 450.5,-340"/>
<text text-anchor="start" x="458.5" y="-358" font-family="Helvetica,sans-Serif" font-size="10.00">klyqa_ctl.general.general.task</text>
<text text-anchor="middle" x="532.5" y="-347" font-family="Helvetica,sans-Serif" font-size="10.00">_log_debug</text>
</a>
</g>
</g>
<!-- Node2&#45;&gt;Node5 -->
<g id="edge4" class="edge">
<title>Node2&#45;&gt;Node5</title>
<path fill="none" stroke="midnightblue" d="M386.22,-358.13C403.76,-357.75 422.25,-357.35 439.94,-356.97"/>
<polygon fill="midnightblue" stroke="midnightblue" points="440.34,-360.47 450.26,-356.75 440.19,-353.47 440.34,-360.47"/>
</g>
<!-- Node4 -->
<g id="node4" class="node">
<title>Node4</title>
<g id="a_node4"><a xlink:href="namespaceklyqa__ctl_1_1general_1_1general.html#aea905150cafee39fa2ca211f1e60f012" target="_top" xlink:title=" ">
<polygon fill="white" stroke="black" points="900,-389.5 900,-408.5 1097,-408.5 1097,-389.5 900,-389.5"/>
<text text-anchor="middle" x="998.5" y="-396.5" font-family="Helvetica,sans-Serif" font-size="10.00">klyqa_ctl.general.general.task_name</text>
</a>
</g>
</g>
<!-- Node3&#45;&gt;Node4 -->
<g id="edge3" class="edge">
<title>Node3&#45;&gt;Node4</title>
<path fill="none" stroke="midnightblue" d="M864.02,-399C872.5,-399 881.15,-399 889.76,-399"/>
<polygon fill="midnightblue" stroke="midnightblue" points="889.83,-402.5 899.83,-399 889.83,-395.5 889.83,-402.5"/>
</g>
<!-- Node5&#45;&gt;Node3 -->
<g id="edge5" class="edge">
<title>Node5&#45;&gt;Node3</title>
<path fill="none" stroke="midnightblue" d="M614.4,-370.02C645.47,-375.79 680.38,-382.27 709.3,-387.64"/>
<polygon fill="midnightblue" stroke="midnightblue" points="708.79,-391.1 719.26,-389.49 710.07,-384.22 708.79,-391.1"/>
</g>
<!-- Node6&#45;&gt;Node3 -->
<g id="edge14" class="edge">
<title>Node6&#45;&gt;Node3</title>
<path fill="none" stroke="midnightblue" d="M320.55,-221.54C343.52,-242.69 382.34,-274.91 422,-292 513.6,-331.46 548.72,-298.46 643,-331 681.69,-344.35 722.85,-368.31 747.62,-383.92"/>
<polygon fill="midnightblue" stroke="midnightblue" points="745.96,-387.02 756.27,-389.46 749.74,-381.12 745.96,-387.02"/>
</g>
<!-- Node6&#45;&gt;Node5 -->
<g id="edge15" class="edge">
<title>Node6&#45;&gt;Node5</title>
<path fill="none" stroke="midnightblue" d="M314.44,-221.88C335.37,-249.58 376.03,-298.1 422,-325 429.6,-329.45 437.89,-333.26 446.38,-336.52"/>
<polygon fill="midnightblue" stroke="midnightblue" points="445.45,-339.9 456.04,-339.96 447.8,-333.31 445.45,-339.9"/>
</g>
<!-- Node7 -->
<g id="node7" class="node">
<title>Node7</title>
<g id="a_node7"><a xlink:href="classklyqa__ctl_1_1account_1_1Account.html#a7bcb9ac9804621630ea08a688abecd18" target="_top" xlink:title=" ">
<polygon fill="white" stroke="black" points="422,-38.5 422,-57.5 643,-57.5 643,-38.5 422,-38.5"/>
<text text-anchor="middle" x="532.5" y="-45.5" font-family="Helvetica,sans-Serif" font-size="10.00">klyqa_ctl.account.Account.controller_data</text>
</a>
</g>
</g>
<!-- Node6&#45;&gt;Node7 -->
<g id="edge7" class="edge">
<title>Node6&#45;&gt;Node7</title>
<path fill="none" stroke="midnightblue" d="M312,-180.29C331.44,-150.04 371.96,-94.4 422,-67 426.17,-64.72 430.55,-62.7 435.07,-60.91"/>
<polygon fill="midnightblue" stroke="midnightblue" points="436.24,-64.21 444.49,-57.56 433.9,-57.61 436.24,-64.21"/>
</g>
<!-- Node8 -->
<g id="node8" class="node">
<title>Node8</title>
<g id="a_node8"><a xlink:href="classcloud_1_1CloudBackend.html#aef174fe1ba95fff13c7901ff56354ec9" target="_top" xlink:title=" ">
<polygon fill="white" stroke="black" points="437,-0.5 437,-19.5 628,-19.5 628,-0.5 437,-0.5"/>
<text text-anchor="middle" x="532.5" y="-7.5" font-family="Helvetica,sans-Serif" font-size="10.00">cloud.CloudBackend.controller_data</text>
</a>
</g>
</g>
<!-- Node6&#45;&gt;Node8 -->
<g id="edge8" class="edge">
<title>Node6&#45;&gt;Node8</title>
<path fill="none" stroke="midnightblue" d="M307.85,-180.29C323.92,-143.28 362.9,-66.21 422,-29 425.21,-26.98 428.57,-25.16 432.04,-23.51"/>
<polygon fill="midnightblue" stroke="midnightblue" points="433.59,-26.66 441.46,-19.57 430.89,-20.2 433.59,-26.66"/>
</g>
<!-- Node9 -->
<g id="node9" class="node">
<title>Node9</title>
<g id="a_node9"><a xlink:href="classlocal_1_1connection__handler_1_1LocalConnectionHandler.html#a8f938ae53b3c24bbdc02f377671cf263" target="_top" xlink:title=" ">
<polygon fill="white" stroke="black" points="427,-252 427,-282 638,-282 638,-252 427,-252"/>
<text text-anchor="start" x="435" y="-270" font-family="Helvetica,sans-Serif" font-size="10.00">local.connection_handler.</text>
<text text-anchor="middle" x="532.5" y="-259" font-family="Helvetica,sans-Serif" font-size="10.00">LocalConnectionHandler.controller_data</text>
</a>
</g>
</g>
<!-- Node6&#45;&gt;Node9 -->
<g id="edge9" class="edge">
<title>Node6&#45;&gt;Node9</title>
<path fill="none" stroke="midnightblue" d="M357.09,-221.58C377.46,-228.51 400.62,-236 422,-242 431.36,-244.63 441.23,-247.18 451.06,-249.59"/>
<polygon fill="midnightblue" stroke="midnightblue" points="450.31,-253.01 460.85,-251.95 451.95,-246.2 450.31,-253.01"/>
</g>
<!-- Node10 -->
<g id="node10" class="node">
<title>Node10</title>
<g id="a_node10"><a xlink:href="classklyqa__ctl_1_1account_1_1Account.html#a2265c38daf6829c96c852ad4a288b42d" target="_top" xlink:title=" ">
<polygon fill="white" stroke="black" points="440,-213.5 440,-232.5 625,-232.5 625,-213.5 440,-213.5"/>
<text text-anchor="middle" x="532.5" y="-220.5" font-family="Helvetica,sans-Serif" font-size="10.00">klyqa_ctl.account.Account.devices</text>
</a>
</g>
</g>
<!-- Node6&#45;&gt;Node10 -->
<g id="edge10" class="edge">
<title>Node6&#45;&gt;Node10</title>
<path fill="none" stroke="midnightblue" d="M386.22,-209.22C400.44,-210.57 415.29,-211.98 429.83,-213.36"/>
<polygon fill="midnightblue" stroke="midnightblue" points="429.56,-216.85 439.84,-214.31 430.22,-209.88 429.56,-216.85"/>
</g>
<!-- Node11 -->
<g id="node11" class="node">
<title>Node11</title>
<g id="a_node11"><a xlink:href="classlocal_1_1connection__handler_1_1LocalConnectionHandler.html#a4d307f6bd0b66f3cb9fac3057fc87972" target="_top" xlink:title=" ">
<polygon fill="white" stroke="black" points="445,-164 445,-194 620,-194 620,-164 445,-164"/>
<text text-anchor="start" x="453" y="-182" font-family="Helvetica,sans-Serif" font-size="10.00">local.connection_handler.</text>
<text text-anchor="middle" x="532.5" y="-171" font-family="Helvetica,sans-Serif" font-size="10.00">LocalConnectionHandler.devices</text>
</a>
</g>
</g>
<!-- Node6&#45;&gt;Node11 -->
<g id="edge11" class="edge">
<title>Node6&#45;&gt;Node11</title>
<path fill="none" stroke="midnightblue" d="M386.22,-192.78C402.1,-191.27 418.76,-189.69 434.91,-188.16"/>
<polygon fill="midnightblue" stroke="midnightblue" points="435.26,-191.64 444.89,-187.21 434.6,-184.67 435.26,-191.64"/>
</g>
<!-- Node12 -->
<g id="node12" class="node">
<title>Node12</title>
<g id="a_node12"><a xlink:href="classklyqa__ctl_1_1controller__data_1_1ControllerData.html#adf7af423388a9a883c428cf71e217650" target="_top" xlink:title=" ">
<polygon fill="white" stroke="black" points="453.5,-115 453.5,-145 611.5,-145 611.5,-115 453.5,-115"/>
<text text-anchor="start" x="461.5" y="-133" font-family="Helvetica,sans-Serif" font-size="10.00">klyqa_ctl.controller</text>
<text text-anchor="middle" x="532.5" y="-122" font-family="Helvetica,sans-Serif" font-size="10.00">_data.ControllerData.devices</text>
</a>
</g>
</g>
<!-- Node6&#45;&gt;Node12 -->
<g id="edge12" class="edge">
<title>Node6&#45;&gt;Node12</title>
<path fill="none" stroke="midnightblue" d="M348.09,-180.42C370.35,-171.5 397.23,-161.42 422,-154 429.69,-151.7 437.74,-149.51 445.84,-147.47"/>
<polygon fill="midnightblue" stroke="midnightblue" points="446.84,-150.83 455.72,-145.05 445.17,-144.03 446.84,-150.83"/>
</g>
<!-- Node13 -->
<g id="node13" class="node">
<title>Node13</title>
<g id="a_node13"><a xlink:href="classklyqa__ctl_1_1klyqa__ctl_1_1Client.html#ab6e5eda10fb712850c3fb311fd1cd4a0" target="_top" xlink:title=" ">
<polygon fill="white" stroke="black" points="442.5,-76.5 442.5,-95.5 622.5,-95.5 622.5,-76.5 442.5,-76.5"/>
<text text-anchor="middle" x="532.5" y="-83.5" font-family="Helvetica,sans-Serif" font-size="10.00">klyqa_ctl.klyqa_ctl.Client.devices</text>
</a>
</g>
</g>
<!-- Node6&#45;&gt;Node13 -->
<g id="edge13" class="edge">
<title>Node6&#45;&gt;Node13</title>
<path fill="none" stroke="midnightblue" d="M319.49,-180.1C342.15,-157.75 381.26,-123.11 422,-105 427.73,-102.45 433.76,-100.25 439.94,-98.34"/>
<polygon fill="midnightblue" stroke="midnightblue" points="441.06,-101.66 449.73,-95.57 439.16,-94.92 441.06,-101.66"/>
</g>
<!-- Node14&#45;&gt;Node3 -->
<g id="edge17" class="edge">
<title>Node14&#45;&gt;Node3</title>
<path fill="none" stroke="midnightblue" d="M386.06,-420.36C455.57,-420.14 555.65,-418.67 643,-413 656.19,-412.14 670.12,-410.93 683.74,-409.57"/>
<polygon fill="midnightblue" stroke="midnightblue" points="684.48,-413.02 694.07,-408.51 683.77,-406.05 684.48,-413.02"/>
</g>
<!-- Node14&#45;&gt;Node5 -->
<g id="edge18" class="edge">
<title>Node14&#45;&gt;Node5</title>
<path fill="none" stroke="midnightblue" d="M372.91,-399.43C403.44,-390.88 438.54,-381.04 467.95,-372.8"/>
<polygon fill="midnightblue" stroke="midnightblue" points="469.01,-376.14 477.69,-370.08 467.12,-369.4 469.01,-376.14"/>
</g>
</g>
</svg>
        <g id="navigator" transform="translate(0 0)" fill="#404254">
                <rect fill="#f2f5e9" fill-opacity="0.5" stroke="#606060" stroke-width=".5" x="0" y="0" width="60" height="60"/>
                <use id="zoomplus" xlink:href="#zoomPlus" x="17" y="9" onmousedown="handleZoom(evt,'in')"/>
                <use id="zoomminus" xlink:href="#zoomMin" x="42" y="9" onmousedown="handleZoom(evt,'out')"/>
                <use id="reset" xlink:href="#resetDef" x="30" y="36" onmousedown="handleReset()"/>
                <g id="arrowUp" xlink:href="#dirArrow" transform="translate(30 24)" onmousedown="handlePan(0,-1)">
                  <use xlink:href="#rim" fill="#404040">
                        <set attributeName="fill" to="#808080" begin="arrowUp.mouseover" end="arrowUp.mouseout"/>
                  </use>
                  <path fill="none" stroke="white" stroke-width="1.5" d="M0,-3.0v7 M-2.5,-0.5L0,-3.0L2.5,-0.5"/>
                </g>
                <g id="arrowRight" xlink:href="#dirArrow" transform="rotate(90) translate(36 -43)" onmousedown="handlePan(1,0)">
                  <use xlink:href="#rim" fill="#404040">
                        <set attributeName="fill" to="#808080" begin="arrowRight.mouseover" end="arrowRight.mouseout"/>
                  </use>
                  <path fill="none" stroke="white" stroke-width="1.5" d="M0,-3.0v7 M-2.5,-0.5L0,-3.0L2.5,-0.5"/>
                </g>
                <g id="arrowDown" xlink:href="#dirArrow" transform="rotate(180) translate(-30 -48)" onmousedown="handlePan(0,1)">
                  <use xlink:href="#rim" fill="#404040">
                        <set attributeName="fill" to="#808080" begin="arrowDown.mouseover" end="arrowDown.mouseout"/>
                  </use>
                  <path fill="none" stroke="white" stroke-width="1.5" d="M0,-3.0v7 M-2.5,-0.5L0,-3.0L2.5,-0.5"/>
                </g>
                <g id="arrowLeft" xlink:href="#dirArrow" transform="rotate(270) translate(-36 17)" onmousedown="handlePan(-1,0)">
                  <use xlink:href="#rim" fill="#404040">
                        <set attributeName="fill" to="#808080" begin="arrowLeft.mouseover" end="arrowLeft.mouseout"/>
                  </use>
                  <path fill="none" stroke="white" stroke-width="1.5" d="M0,-3.0v7 M-2.5,-0.5L0,-3.0L2.5,-0.5"/>
                </g>
        </g>
        <svg viewBox="0 0 15 15" width="100%" height="30px" preserveAspectRatio="xMaxYMin meet">
         <g id="arrow_out" transform="scale(0.3 0.3)">
          <a xlink:href="classlocal_1_1connection__handler_1_1LocalConnectionHandler_aaa28266e241c2e30e8acd468fab06fde_cgraph_org.svg" target="_base">
           <rect id="button" ry="5" rx="5" y="6" x="6" height="38" width="38"
                fill="#f2f5e9" fill-opacity="0.5" stroke="#606060" stroke-width="1.0"/>
           <path id="arrow"
             d="M 11.500037,31.436501 C 11.940474,20.09759 22.043105,11.32322 32.158766,21.979434 L 37.068811,17.246167 C 37.068811,17.246167 37.088388,32 37.088388,32 L 22.160133,31.978069 C 22.160133,31.978069 26.997745,27.140456 26.997745,27.140456 C 18.528582,18.264221 13.291696,25.230495 11.500037,31.436501 z"
             style="fill:#404040;"/>
          </a>
         </g>
        </svg>
</svg>
