<?xml version="1.0" encoding="UTF-8" standalone="no"?>
<!DOCTYPE svg PUBLIC "-//W3C//DTD SVG 1.1//EN"
 "http://www.w3.org/Graphics/SVG/1.1/DTD/svg11.dtd">
<!-- Generated by graphviz version 2.43.0 (0)
 -->
<!-- Title: klyqa_ctl.devices.vacuum.commands.CommandType Pages: 1 -->
<svg width="211pt" height="204pt"
 viewBox="0.00 0.00 211.00 204.00" xmlns="http://www.w3.org/2000/svg" xmlns:xlink="http://www.w3.org/1999/xlink">
<g id="graph0" class="graph" transform="scale(1 1) rotate(0) translate(4 200)">
<title>klyqa_ctl.devices.vacuum.commands.CommandType</title>
<polygon fill="white" stroke="transparent" points="-4,4 -4,-200 207,-200 207,4 -4,4"/>
<!-- Node1 -->
<g id="node1" class="node">
<title>Node1</title>
<g id="a_node1"><a xlink:title=" ">
<polygon fill="#bfbfbf" stroke="black" points="0,-0.5 0,-68.5 203,-68.5 203,-0.5 0,-0.5"/>
<text text-anchor="start" x="8" y="-56.5" font-family="Helvetica,sans-Serif" font-size="10.00">klyqa_ctl.devices.vacuum.commands.</text>
<text text-anchor="middle" x="101.5" y="-45.5" font-family="Helvetica,sans-Serif" font-size="10.00">CommandType</text>
<polyline fill="none" stroke="black" points="0,-38.5 203,-38.5 "/>
<text text-anchor="middle" x="101.5" y="-26.5" font-family="Helvetica,sans-Serif" font-size="10.00"> </text>
<polyline fill="none" stroke="black" points="0,-19.5 203,-19.5 "/>
<text text-anchor="middle" x="101.5" y="-7.5" font-family="Helvetica,sans-Serif" font-size="10.00"> </text>
</a>
</g>
</g>
<!-- Node2 -->
<g id="node2" class="node">
<title>Node2</title>
<g id="a_node2"><a xlink:title=" ">
<polygon fill="white" stroke="#bfbfbf" points="52.5,-138.5 52.5,-195.5 96.5,-195.5 96.5,-138.5 52.5,-138.5"/>
<text text-anchor="middle" x="74.5" y="-183.5" font-family="Helvetica,sans-Serif" font-size="10.00">Enum</text>
<polyline fill="none" stroke="#bfbfbf" points="52.5,-176.5 96.5,-176.5 "/>
<text text-anchor="middle" x="74.5" y="-164.5" font-family="Helvetica,sans-Serif" font-size="10.00"> </text>
<polyline fill="none" stroke="#bfbfbf" points="52.5,-157.5 96.5,-157.5 "/>
<text text-anchor="middle" x="74.5" y="-145.5" font-family="Helvetica,sans-Serif" font-size="10.00"> </text>
</a>
</g>
</g>
<!-- Node2&#45;&gt;Node1 -->
<g id="edge1" class="edge">
<title>Node2&#45;&gt;Node1</title>
<path fill="none" stroke="midnightblue" d="M82.3,-128.3C86.2,-109.45 90.87,-86.86 94.63,-68.68"/>
<polygon fill="none" stroke="midnightblue" points="78.82,-127.82 80.23,-138.32 85.68,-129.24 78.82,-127.82"/>
</g>
<!-- Node3 -->
<g id="node3" class="node">
<title>Node3</title>
<g id="a_node3"><a xlink:title=" ">
<polygon fill="white" stroke="#bfbfbf" points="115,-138.5 115,-195.5 144,-195.5 144,-138.5 115,-138.5"/>
<text text-anchor="middle" x="129.5" y="-183.5" font-family="Helvetica,sans-Serif" font-size="10.00">int</text>
<polyline fill="none" stroke="#bfbfbf" points="115,-176.5 144,-176.5 "/>
<text text-anchor="middle" x="129.5" y="-164.5" font-family="Helvetica,sans-Serif" font-size="10.00"> </text>
<polyline fill="none" stroke="#bfbfbf" points="115,-157.5 144,-157.5 "/>
<text text-anchor="middle" x="129.5" y="-145.5" font-family="Helvetica,sans-Serif" font-size="10.00"> </text>
</a>
</g>
</g>
<!-- Node3&#45;&gt;Node1 -->
<g id="edge2" class="edge">
<title>Node3&#45;&gt;Node1</title>
<path fill="none" stroke="#404040" d="M123.56,-138.32C119.96,-121.55 115.29,-99.75 111.16,-80.55"/>
<polygon fill="none" stroke="#404040" points="111.14,-80.42 105.97,-75.39 108.62,-68.68 113.79,-73.71 111.14,-80.42"/>
<text text-anchor="middle" x="138.5" y="-112" font-family="Helvetica,sans-Serif" font-size="10.00"> +GET</text>
<text text-anchor="middle" x="138.5" y="-101" font-family="Helvetica,sans-Serif" font-size="10.00">+RESET</text>
<text text-anchor="middle" x="138.5" y="-90" font-family="Helvetica,sans-Serif" font-size="10.00">+SET</text>
</g>
</g>
</svg>
