<?xml version="1.0" encoding="UTF-8" standalone="no"?>
<!DOCTYPE svg PUBLIC "-//W3C//DTD SVG 1.1//EN"
 "http://www.w3.org/Graphics/SVG/1.1/DTD/svg11.dtd">
<!-- Generated by graphviz version 2.43.0 (0)
 -->
<!-- Title: local.data_package.DataPackage.data Pages: 1 -->
<svg width="703pt" height="47pt"
 viewBox="0.00 0.00 703.00 47.00" xmlns="http://www.w3.org/2000/svg" xmlns:xlink="http://www.w3.org/1999/xlink">
<g id="graph0" class="graph" transform="scale(1 1) rotate(0) translate(4 43)">
<title>local.data_package.DataPackage.data</title>
<polygon fill="white" stroke="transparent" points="-4,4 -4,-43 699,-43 699,4 -4,4"/>
<!-- Node1 -->
<g id="node1" class="node">
<title>Node1</title>
<g id="a_node1"><a xlink:title=" ">
<polygon fill="#bfbfbf" stroke="black" points="494,-0.5 494,-19.5 695,-19.5 695,-0.5 494,-0.5"/>
<text text-anchor="middle" x="594.5" y="-7.5" font-family="Helvetica,sans-Serif" font-size="10.00">local.data_package.DataPackage.data</text>
</a>
</g>
</g>
<!-- Node2 -->
<g id="node2" class="node">
<title>Node2</title>
<g id="a_node2"><a xlink:href="classlocal_1_1data__package_1_1DataPackage.html#aedf33a5b967c8d177c5c7122c3dc7eaf" target="_top" xlink:title=" ">
<polygon fill="white" stroke="black" points="257,-19.5 257,-38.5 458,-38.5 458,-19.5 257,-19.5"/>
<text text-anchor="middle" x="357.5" y="-26.5" font-family="Helvetica,sans-Serif" font-size="10.00">local.data_package.DataPackage.data</text>
</a>
</g>
</g>
<!-- Node1&#45;&gt;Node2 -->
<g id="edge1" class="edge">
<title>Node1&#45;&gt;Node2</title>
<path fill="none" stroke="midnightblue" d="M483.87,-18.86C475.35,-19.55 466.77,-20.25 458.32,-20.93"/>
<polygon fill="midnightblue" stroke="midnightblue" points="484.15,-22.35 493.84,-18.06 483.59,-15.38 484.15,-22.35"/>
</g>
<!-- Node3 -->
<g id="node3" class="node">
<title>Node3</title>
<g id="a_node3"><a xlink:href="classlocal_1_1data__package_1_1DataPackage.html#ac478113a6fa61199e9957442c1fb2c85" target="_top" xlink:title=" ">
<polygon fill="white" stroke="black" points="0,-0.5 0,-19.5 221,-19.5 221,-0.5 0,-0.5"/>
<text text-anchor="middle" x="110.5" y="-7.5" font-family="Helvetica,sans-Serif" font-size="10.00">local.data_package.DataPackage.serialize</text>
</a>
</g>
</g>
<!-- Node1&#45;&gt;Node3 -->
<g id="edge3" class="edge">
<title>Node1&#45;&gt;Node3</title>
<path fill="none" stroke="midnightblue" d="M483.5,-10C404.88,-10 299.54,-10 221.03,-10"/>
<polygon fill="midnightblue" stroke="midnightblue" points="483.92,-13.5 493.92,-10 483.92,-6.5 483.92,-13.5"/>
</g>
<!-- Node2&#45;&gt;Node3 -->
<g id="edge2" class="edge">
<title>Node2&#45;&gt;Node3</title>
<path fill="none" stroke="midnightblue" d="M246.84,-20.5C238.27,-19.83 229.62,-19.16 221.06,-18.5"/>
<polygon fill="midnightblue" stroke="midnightblue" points="246.61,-23.99 256.85,-21.27 247.15,-17.01 246.61,-23.99"/>
</g>
</g>
</svg>
