<?xml version="1.0" encoding="UTF-8" standalone="no"?>
<!DOCTYPE svg PUBLIC "-//W3C//DTD SVG 1.1//EN"
 "http://www.w3.org/Graphics/SVG/1.1/DTD/svg11.dtd">
<!-- Generated by graphviz version 2.43.0 (0)
 -->
<!-- Title: klyqa_ctl.general.general.RgbColor.g Pages: 1 -->
<svg width="509pt" height="61pt"
 viewBox="0.00 0.00 509.00 61.00" xmlns="http://www.w3.org/2000/svg" xmlns:xlink="http://www.w3.org/1999/xlink">
<g id="graph0" class="graph" transform="scale(1 1) rotate(0) translate(4 57)">
<title>klyqa_ctl.general.general.RgbColor.g</title>
<polygon fill="white" stroke="transparent" points="-4,4 -4,-57 505,-57 505,4 -4,4"/>
<!-- Node1 -->
<g id="node1" class="node">
<title>Node1</title>
<g id="a_node1"><a xlink:title=" ">
<polygon fill="#bfbfbf" stroke="black" points="358,-22.5 358,-52.5 501,-52.5 501,-22.5 358,-22.5"/>
<text text-anchor="start" x="366" y="-40.5" font-family="Helvetica,sans-Serif" font-size="10.00">klyqa_ctl.general.general.</text>
<text text-anchor="middle" x="429.5" y="-29.5" font-family="Helvetica,sans-Serif" font-size="10.00">RgbColor.g</text>
</a>
</g>
</g>
<!-- Node2 -->
<g id="node2" class="node">
<title>Node2</title>
<g id="a_node2"><a xlink:href="classklyqa__ctl_1_1general_1_1general_1_1RgbColor.html#a47efa8d378514bb43f1adb1f6d512105" target="_top" xlink:title=" ">
<polygon fill="white" stroke="black" points="0,-22.5 0,-52.5 143,-52.5 143,-22.5 0,-22.5"/>
<text text-anchor="start" x="8" y="-40.5" font-family="Helvetica,sans-Serif" font-size="10.00">klyqa_ctl.general.general.</text>
<text text-anchor="middle" x="71.5" y="-29.5" font-family="Helvetica,sans-Serif" font-size="10.00">RgbColor.__str__</text>
</a>
</g>
</g>
<!-- Node1&#45;&gt;Node2 -->
<g id="edge1" class="edge">
<title>Node1&#45;&gt;Node2</title>
<path fill="none" stroke="midnightblue" d="M347.63,-40.02C338.98,-40.21 330.31,-40.38 322,-40.5 258.45,-41.39 242.55,-41.39 179,-40.5 167.44,-40.34 155.18,-40.08 143.24,-39.77"/>
<polygon fill="midnightblue" stroke="midnightblue" points="347.84,-43.51 357.76,-39.77 347.67,-36.51 347.84,-43.51"/>
</g>
<!-- Node3 -->
<g id="node3" class="node">
<title>Node3</title>
<g id="a_node3"><a xlink:href="classklyqa__ctl_1_1general_1_1general_1_1RgbColor.html#aae3c91dacabd2e47d22e5f53699035f7" target="_top" xlink:title=" ">
<polygon fill="white" stroke="black" points="179,-0.5 179,-30.5 322,-30.5 322,-0.5 179,-0.5"/>
<text text-anchor="start" x="187" y="-18.5" font-family="Helvetica,sans-Serif" font-size="10.00">klyqa_ctl.general.general.</text>
<text text-anchor="middle" x="250.5" y="-7.5" font-family="Helvetica,sans-Serif" font-size="10.00">RgbColor.g</text>
</a>
</g>
</g>
<!-- Node1&#45;&gt;Node3 -->
<g id="edge2" class="edge">
<title>Node1&#45;&gt;Node3</title>
<path fill="none" stroke="midnightblue" d="M347.79,-27.47C339.22,-26.4 330.55,-25.33 322.11,-24.28"/>
<polygon fill="midnightblue" stroke="midnightblue" points="347.43,-30.95 357.78,-28.71 348.29,-24 347.43,-30.95"/>
</g>
<!-- Node3&#45;&gt;Node2 -->
<g id="edge3" class="edge">
<title>Node3&#45;&gt;Node2</title>
<path fill="none" stroke="midnightblue" d="M168.79,-25.53C160.22,-26.6 151.55,-27.67 143.11,-28.72"/>
<polygon fill="midnightblue" stroke="midnightblue" points="169.29,-29 178.78,-24.29 168.43,-22.05 169.29,-29"/>
</g>
</g>
</svg>
