<?xml version="1.0" encoding="UTF-8" standalone="no"?>
<!DOCTYPE svg PUBLIC "-//W3C//DTD SVG 1.1//EN"
 "http://www.w3.org/Graphics/SVG/1.1/DTD/svg11.dtd">
<!-- Generated by graphviz version 2.43.0 (0)
 -->
<!-- Title: klyqa_ctl.account.Account.password Pages: 1 -->
<svg width="836pt" height="103pt"
 viewBox="0.00 0.00 836.00 103.29" xmlns="http://www.w3.org/2000/svg" xmlns:xlink="http://www.w3.org/1999/xlink">
<g id="graph0" class="graph" transform="scale(1 1) rotate(0) translate(4 99.29)">
<title>klyqa_ctl.account.Account.password</title>
<polygon fill="white" stroke="transparent" points="-4,4 -4,-99.29 832,-99.29 832,4 -4,4"/>
<!-- Node1 -->
<g id="node1" class="node">
<title>Node1</title>
<g id="a_node1"><a xlink:title=" ">
<polygon fill="#bfbfbf" stroke="black" points="634,-55 634,-74 828,-74 828,-55 634,-55"/>
<text text-anchor="middle" x="731" y="-62" font-family="Helvetica,sans-Serif" font-size="10.00">klyqa_ctl.account.Account.password</text>
</a>
</g>
</g>
<!-- Node2 -->
<g id="node2" class="node">
<title>Node2</title>
<g id="a_node2"><a xlink:href="classklyqa__ctl_1_1account_1_1Account.html#acbc09f2b1b4cb6b7ed771b96ea79613b" target="_top" xlink:title=" ">
<polygon fill="white" stroke="black" points="207,-46.5 207,-76.5 393,-76.5 393,-46.5 207,-46.5"/>
<text text-anchor="start" x="215" y="-64.5" font-family="Helvetica,sans-Serif" font-size="10.00">klyqa_ctl.account.Account.perform</text>
<text text-anchor="middle" x="300" y="-53.5" font-family="Helvetica,sans-Serif" font-size="10.00">_login</text>
</a>
</g>
</g>
<!-- Node1&#45;&gt;Node2 -->
<g id="edge1" class="edge">
<title>Node1&#45;&gt;Node2</title>
<path fill="none" stroke="midnightblue" d="M680.58,-76.13C655.92,-81.35 625.55,-86.91 598,-89.5 523.22,-96.52 503.68,-97.57 429,-89.5 405.25,-86.93 379.45,-81.76 357.28,-76.55"/>
<polygon fill="midnightblue" stroke="midnightblue" points="681.39,-79.54 690.42,-74 679.91,-72.7 681.39,-79.54"/>
</g>
<!-- Node4 -->
<g id="node4" class="node">
<title>Node4</title>
<g id="a_node4"><a xlink:href="classklyqa__ctl_1_1account_1_1Account.html#af365113f9fdd0cf5e66f6e9ab427df78" target="_top" xlink:title=" ">
<polygon fill="white" stroke="black" points="429,-49.5 429,-79.5 598,-79.5 598,-49.5 429,-49.5"/>
<text text-anchor="start" x="437" y="-67.5" font-family="Helvetica,sans-Serif" font-size="10.00">klyqa_ctl.account.Account.read</text>
<text text-anchor="middle" x="513.5" y="-56.5" font-family="Helvetica,sans-Serif" font-size="10.00">_acc_settings_cache</text>
</a>
</g>
</g>
<!-- Node1&#45;&gt;Node4 -->
<g id="edge3" class="edge">
<title>Node1&#45;&gt;Node4</title>
<path fill="none" stroke="midnightblue" d="M623.84,-64.5C615.24,-64.5 606.63,-64.5 598.23,-64.5"/>
<polygon fill="midnightblue" stroke="midnightblue" points="623.91,-68 633.91,-64.5 623.91,-61 623.91,-68"/>
</g>
<!-- Node5 -->
<g id="node5" class="node">
<title>Node5</title>
<g id="a_node5"><a xlink:href="classklyqa__ctl_1_1account_1_1Account.html#a5ab3a2f4382c4437255871d4296cee9a" target="_top" xlink:title=" ">
<polygon fill="white" stroke="black" points="432,-0.5 432,-30.5 595,-30.5 595,-0.5 432,-0.5"/>
<text text-anchor="start" x="440" y="-18.5" font-family="Helvetica,sans-Serif" font-size="10.00">klyqa_ctl.account.Account.run</text>
<text text-anchor="middle" x="513.5" y="-7.5" font-family="Helvetica,sans-Serif" font-size="10.00">_password_prompt</text>
</a>
</g>
</g>
<!-- Node1&#45;&gt;Node5 -->
<g id="edge4" class="edge">
<title>Node1&#45;&gt;Node5</title>
<path fill="none" stroke="midnightblue" d="M678.19,-52.72C648.95,-46.07 612.11,-37.69 580.78,-30.57"/>
<polygon fill="midnightblue" stroke="midnightblue" points="677.67,-56.19 688.19,-54.99 679.22,-49.36 677.67,-56.19"/>
</g>
<!-- Node3 -->
<g id="node3" class="node">
<title>Node3</title>
<g id="a_node3"><a xlink:href="classklyqa__ctl_1_1account_1_1Account.html#a0b171a600e4342d035ad26c39b384b38" target="_top" xlink:title=" ">
<polygon fill="white" stroke="black" points="0,-52 0,-71 171,-71 171,-52 0,-52"/>
<text text-anchor="middle" x="85.5" y="-59" font-family="Helvetica,sans-Serif" font-size="10.00">klyqa_ctl.account.Account.login</text>
</a>
</g>
</g>
<!-- Node2&#45;&gt;Node3 -->
<g id="edge2" class="edge">
<title>Node2&#45;&gt;Node3</title>
<path fill="none" stroke="midnightblue" d="M196.48,-61.5C188.06,-61.5 179.6,-61.5 171.33,-61.5"/>
<polygon fill="midnightblue" stroke="midnightblue" points="196.72,-65 206.72,-61.5 196.72,-58 196.72,-65"/>
</g>
<!-- Node5&#45;&gt;Node2 -->
<g id="edge5" class="edge">
<title>Node5&#45;&gt;Node2</title>
<path fill="none" stroke="midnightblue" d="M433.47,-32.69C412.63,-37.22 390.31,-42.07 370.05,-46.48"/>
<polygon fill="midnightblue" stroke="midnightblue" points="434.22,-36.11 443.25,-30.56 432.73,-29.27 434.22,-36.11"/>
</g>
</g>
</svg>
