<?xml version="1.0" encoding="UTF-8" standalone="no"?>
<!DOCTYPE svg PUBLIC "-//W3C//DTD SVG 1.1//EN"
 "http://www.w3.org/Graphics/SVG/1.1/DTD/svg11.dtd">
<!-- Generated by graphviz version 2.43.0 (0)
 -->
<!-- Title: klyqa_ctl.devices.device.Device.ident Pages: 1 -->
<svg width="714pt" height="295pt"
 viewBox="0.00 0.00 714.00 295.46" xmlns="http://www.w3.org/2000/svg" xmlns:xlink="http://www.w3.org/1999/xlink">
<g id="graph0" class="graph" transform="scale(1 1) rotate(0) translate(4 291.46)">
<title>klyqa_ctl.devices.device.Device.ident</title>
<polygon fill="white" stroke="transparent" points="-4,4 -4,-291.46 710,-291.46 710,4 -4,4"/>
<!-- Node1 -->
<g id="node1" class="node">
<title>Node1</title>
<g id="a_node1"><a xlink:title=" ">
<polygon fill="#bfbfbf" stroke="black" points="566,-142.5 566,-172.5 706,-172.5 706,-142.5 566,-142.5"/>
<text text-anchor="start" x="574" y="-160.5" font-family="Helvetica,sans-Serif" font-size="10.00">klyqa_ctl.devices.device.</text>
<text text-anchor="middle" x="636" y="-149.5" font-family="Helvetica,sans-Serif" font-size="10.00">Device.ident</text>
</a>
</g>
</g>
<!-- Node2 -->
<g id="node2" class="node">
<title>Node2</title>
<g id="a_node2"><a xlink:href="classklyqa__ctl_1_1devices_1_1device_1_1Device.html#a146ecdc1f4fbd22e822c36bc6647209b" target="_top" xlink:title=" ">
<polygon fill="white" stroke="black" points="390,-142.5 390,-172.5 530,-172.5 530,-142.5 390,-142.5"/>
<text text-anchor="start" x="398" y="-160.5" font-family="Helvetica,sans-Serif" font-size="10.00">klyqa_ctl.devices.device.</text>
<text text-anchor="middle" x="460" y="-149.5" font-family="Helvetica,sans-Serif" font-size="10.00">Device.ident</text>
</a>
</g>
</g>
<!-- Node1&#45;&gt;Node2 -->
<g id="edge1" class="edge">
<title>Node1&#45;&gt;Node2</title>
<path fill="none" stroke="midnightblue" d="M555.97,-157.5C547.38,-157.5 538.68,-157.5 530.22,-157.5"/>
<polygon fill="midnightblue" stroke="midnightblue" points="555.98,-161 565.98,-157.5 555.98,-154 555.98,-161"/>
</g>
<!-- Node3 -->
<g id="node3" class="node">
<title>Node3</title>
<g id="a_node3"><a xlink:href="classklyqa__ctl_1_1devices_1_1light_1_1light_1_1Light.html#ae6c452a2f72194841574cdf7c52bd384" target="_top" xlink:title=" ">
<polygon fill="white" stroke="black" points="0,-186.5 0,-216.5 154,-216.5 154,-186.5 0,-186.5"/>
<text text-anchor="start" x="8" y="-204.5" font-family="Helvetica,sans-Serif" font-size="10.00">klyqa_ctl.devices.light.light.</text>
<text text-anchor="middle" x="77" y="-193.5" font-family="Helvetica,sans-Serif" font-size="10.00">Light.read_device_config</text>
</a>
</g>
</g>
<!-- Node1&#45;&gt;Node3 -->
<g id="edge11" class="edge">
<title>Node1&#45;&gt;Node3</title>
<path fill="none" stroke="midnightblue" d="M609.86,-179.27C589.55,-195.81 559.58,-217.95 530,-231.5 456.69,-265.07 434.03,-265.65 354,-275.5 281.66,-284.41 259.8,-296.48 190,-275.5 151.83,-264.03 114.68,-234.87 94.22,-216.76"/>
<polygon fill="midnightblue" stroke="midnightblue" points="612.21,-181.87 617.67,-172.79 607.74,-176.48 612.21,-181.87"/>
</g>
<!-- Node4 -->
<g id="node4" class="node">
<title>Node4</title>
<g id="a_node4"><a xlink:href="classklyqa__ctl_1_1devices_1_1device_1_1Device.html#aa24f94bc4cb0e5b9fee79360aca8819e" target="_top" xlink:title=" ">
<polygon fill="white" stroke="black" points="190,-49.5 190,-79.5 354,-79.5 354,-49.5 190,-49.5"/>
<text text-anchor="start" x="198" y="-67.5" font-family="Helvetica,sans-Serif" font-size="10.00">klyqa_ctl.devices.device.</text>
<text text-anchor="middle" x="272" y="-56.5" font-family="Helvetica,sans-Serif" font-size="10.00">Device.save_device_message</text>
</a>
</g>
</g>
<!-- Node1&#45;&gt;Node4 -->
<g id="edge12" class="edge">
<title>Node1&#45;&gt;Node4</title>
<path fill="none" stroke="midnightblue" d="M593.67,-138.37C574.6,-130.12 551.47,-120.92 530,-114.5 472.19,-97.22 405.22,-84.42 354.15,-76.09"/>
<polygon fill="midnightblue" stroke="midnightblue" points="592.4,-141.64 602.96,-142.45 595.21,-135.23 592.4,-141.64"/>
</g>
<!-- Node5 -->
<g id="node5" class="node">
<title>Node5</title>
<g id="a_node5"><a xlink:href="classklyqa__ctl_1_1devices_1_1light_1_1light_1_1Light.html#af5692a637886edee63bb5b382b083f07" target="_top" xlink:title=" ">
<polygon fill="white" stroke="black" points="195,-235.5 195,-265.5 349,-265.5 349,-235.5 195,-235.5"/>
<text text-anchor="start" x="203" y="-253.5" font-family="Helvetica,sans-Serif" font-size="10.00">klyqa_ctl.devices.light.light.</text>
<text text-anchor="middle" x="272" y="-242.5" font-family="Helvetica,sans-Serif" font-size="10.00">Light.set_brightness_range</text>
</a>
</g>
</g>
<!-- Node1&#45;&gt;Node5 -->
<g id="edge13" class="edge">
<title>Node1&#45;&gt;Node5</title>
<path fill="none" stroke="midnightblue" d="M595.75,-176.76C576.34,-185.65 552.34,-195.72 530,-202.5 470.39,-220.6 400.83,-233.09 349.12,-240.78"/>
<polygon fill="midnightblue" stroke="midnightblue" points="597.29,-179.91 604.88,-172.51 594.34,-173.56 597.29,-179.91"/>
</g>
<!-- Node6 -->
<g id="node6" class="node">
<title>Node6</title>
<g id="a_node6"><a xlink:href="classklyqa__ctl_1_1devices_1_1light_1_1light_1_1Light.html#a787bc2e5bed296bfff6ecd838bd42909" target="_top" xlink:title=" ">
<polygon fill="white" stroke="black" points="195,-186.5 195,-216.5 349,-216.5 349,-186.5 195,-186.5"/>
<text text-anchor="start" x="203" y="-204.5" font-family="Helvetica,sans-Serif" font-size="10.00">klyqa_ctl.devices.light.light.</text>
<text text-anchor="middle" x="272" y="-193.5" font-family="Helvetica,sans-Serif" font-size="10.00">Light.set_color_range</text>
</a>
</g>
</g>
<!-- Node1&#45;&gt;Node6 -->
<g id="edge14" class="edge">
<title>Node1&#45;&gt;Node6</title>
<path fill="none" stroke="midnightblue" d="M566.19,-174.75C554.18,-177.32 541.77,-179.71 530,-181.5 469.61,-190.7 400.55,-195.78 349.24,-198.51"/>
<polygon fill="midnightblue" stroke="midnightblue" points="567.14,-178.12 576.15,-172.55 565.63,-171.29 567.14,-178.12"/>
</g>
<!-- Node7 -->
<g id="node7" class="node">
<title>Node7</title>
<g id="a_node7"><a xlink:href="classklyqa__ctl_1_1devices_1_1light_1_1light_1_1Light.html#a1eee2c62b0293eab05cf6eeaff3a4278" target="_top" xlink:title=" ">
<polygon fill="white" stroke="black" points="195,-0.5 195,-30.5 349,-30.5 349,-0.5 195,-0.5"/>
<text text-anchor="start" x="203" y="-18.5" font-family="Helvetica,sans-Serif" font-size="10.00">klyqa_ctl.devices.light.light.</text>
<text text-anchor="middle" x="272" y="-7.5" font-family="Helvetica,sans-Serif" font-size="10.00">Light.set_temperature</text>
</a>
</g>
</g>
<!-- Node1&#45;&gt;Node7 -->
<g id="edge15" class="edge">
<title>Node1&#45;&gt;Node7</title>
<path fill="none" stroke="midnightblue" d="M611.15,-135.42C590.95,-117.86 560.5,-93.91 530,-79.5 472.32,-52.24 401.67,-35.73 349.05,-26.32"/>
<polygon fill="midnightblue" stroke="midnightblue" points="609.08,-138.27 618.88,-142.28 613.72,-133.03 609.08,-138.27"/>
</g>
<!-- Node8 -->
<g id="node8" class="node">
<title>Node8</title>
<g id="a_node8"><a xlink:href="classklyqa__ctl_1_1devices_1_1light_1_1light_1_1Light.html#a678cb5983ecfac6f4a45a6a7eedc05ee" target="_top" xlink:title=" ">
<polygon fill="white" stroke="black" points="193,-98.5 193,-128.5 351,-128.5 351,-98.5 193,-98.5"/>
<text text-anchor="start" x="201" y="-116.5" font-family="Helvetica,sans-Serif" font-size="10.00">klyqa_ctl.devices.light.light.</text>
<text text-anchor="middle" x="272" y="-105.5" font-family="Helvetica,sans-Serif" font-size="10.00">Light.set_temperature_range</text>
</a>
</g>
</g>
<!-- Node1&#45;&gt;Node8 -->
<g id="edge16" class="edge">
<title>Node1&#45;&gt;Node8</title>
<path fill="none" stroke="midnightblue" d="M569.41,-140.18C556.42,-137.24 542.84,-134.49 530,-132.5 470.42,-123.27 402.36,-118.49 351.25,-116.04"/>
<polygon fill="midnightblue" stroke="midnightblue" points="568.67,-143.6 579.2,-142.46 570.26,-136.79 568.67,-143.6"/>
</g>
<!-- Node2&#45;&gt;Node3 -->
<g id="edge2" class="edge">
<title>Node2&#45;&gt;Node3</title>
<path fill="none" stroke="midnightblue" d="M379.74,-160.54C326,-163.3 253.47,-168.38 190,-177.5 173.96,-179.8 156.78,-183.07 140.81,-186.46"/>
<polygon fill="midnightblue" stroke="midnightblue" points="380.08,-164.03 389.89,-160.03 379.73,-157.04 380.08,-164.03"/>
</g>
<!-- Node2&#45;&gt;Node4 -->
<g id="edge3" class="edge">
<title>Node2&#45;&gt;Node4</title>
<path fill="none" stroke="midnightblue" d="M431.68,-136.32C411.22,-121.28 382.04,-101.52 354,-88.5 346.82,-85.16 339.06,-82.17 331.29,-79.52"/>
<polygon fill="midnightblue" stroke="midnightblue" points="429.78,-139.27 439.89,-142.44 433.97,-133.66 429.78,-139.27"/>
</g>
<!-- Node2&#45;&gt;Node5 -->
<g id="edge4" class="edge">
<title>Node2&#45;&gt;Node5</title>
<path fill="none" stroke="midnightblue" d="M431.68,-178.68C411.22,-193.72 382.04,-213.48 354,-226.5 346.82,-229.84 339.06,-232.83 331.29,-235.48"/>
<polygon fill="midnightblue" stroke="midnightblue" points="433.97,-181.34 439.89,-172.56 429.78,-175.73 433.97,-181.34"/>
</g>
<!-- Node2&#45;&gt;Node6 -->
<g id="edge6" class="edge">
<title>Node2&#45;&gt;Node6</title>
<path fill="none" stroke="midnightblue" d="M385.54,-174.88C369.33,-178.71 352.3,-182.74 336.52,-186.47"/>
<polygon fill="midnightblue" stroke="midnightblue" points="386.58,-178.23 395.51,-172.52 384.97,-171.42 386.58,-178.23"/>
</g>
<!-- Node2&#45;&gt;Node7 -->
<g id="edge8" class="edge">
<title>Node2&#45;&gt;Node7</title>
<path fill="none" stroke="midnightblue" d="M444.1,-134.02C425.96,-107.3 392.89,-64.2 354,-39.5 348.68,-36.12 342.86,-33.2 336.86,-30.67"/>
<polygon fill="midnightblue" stroke="midnightblue" points="441.21,-136 449.66,-142.4 447.05,-132.13 441.21,-136"/>
</g>
<!-- Node2&#45;&gt;Node8 -->
<g id="edge9" class="edge">
<title>Node2&#45;&gt;Node8</title>
<path fill="none" stroke="midnightblue" d="M385.54,-140.12C369.33,-136.29 352.3,-132.26 336.52,-128.53"/>
<polygon fill="midnightblue" stroke="midnightblue" points="384.97,-143.58 395.51,-142.48 386.58,-136.77 384.97,-143.58"/>
</g>
<!-- Node5&#45;&gt;Node3 -->
<g id="edge5" class="edge">
<title>Node5&#45;&gt;Node3</title>
<path fill="none" stroke="midnightblue" d="M201.88,-232.95C180.68,-227.57 157.57,-221.7 137.11,-216.51"/>
<polygon fill="midnightblue" stroke="midnightblue" points="201.23,-236.4 211.78,-235.47 202.95,-229.61 201.23,-236.4"/>
</g>
<!-- Node6&#45;&gt;Node3 -->
<g id="edge7" class="edge">
<title>Node6&#45;&gt;Node3</title>
<path fill="none" stroke="midnightblue" d="M184.86,-201.5C174.66,-201.5 164.3,-201.5 154.25,-201.5"/>
<polygon fill="midnightblue" stroke="midnightblue" points="185,-205 195,-201.5 185,-198 185,-205"/>
</g>
<!-- Node8&#45;&gt;Node3 -->
<g id="edge10" class="edge">
<title>Node8&#45;&gt;Node3</title>
<path fill="none" stroke="midnightblue" d="M217.72,-132.17C208.4,-135.74 198.86,-139.58 190,-143.5 160.16,-156.69 127.11,-174.18 104.7,-186.49"/>
<polygon fill="midnightblue" stroke="midnightblue" points="219.18,-135.36 227.31,-128.56 216.72,-128.81 219.18,-135.36"/>
</g>
</g>
</svg>
