<?xml version="1.0" encoding="UTF-8" standalone="no"?>
<!DOCTYPE svg PUBLIC "-//W3C//DTD SVG 1.1//EN"
 "http://www.w3.org/Graphics/SVG/1.1/DTD/svg11.dtd">
<!-- Generated by graphviz version 2.43.0 (0)
 -->
<!-- Title: local.connection.TcpConnection.socket Pages: 1 -->
<svg width="697pt" height="95pt"
 viewBox="0.00 0.00 697.00 95.00" xmlns="http://www.w3.org/2000/svg" xmlns:xlink="http://www.w3.org/1999/xlink">
<g id="graph0" class="graph" transform="scale(1 1) rotate(0) translate(4 91)">
<title>local.connection.TcpConnection.socket</title>
<polygon fill="white" stroke="transparent" points="-4,4 -4,-91 693,-91 693,4 -4,4"/>
<!-- Node1 -->
<g id="node1" class="node">
<title>Node1</title>
<g id="a_node1"><a xlink:title=" ">
<polygon fill="#bfbfbf" stroke="black" points="485,-31 485,-50 689,-50 689,-31 485,-31"/>
<text text-anchor="middle" x="587" y="-38" font-family="Helvetica,sans-Serif" font-size="10.00">local.connection.TcpConnection.socket</text>
</a>
</g>
</g>
<!-- Node2 -->
<g id="node2" class="node">
<title>Node2</title>
<g id="a_node2"><a xlink:href="classlocal_1_1connection_1_1TcpConnection.html#a305b3adb5bd8041bbaa53f47d1c23e81" target="_top" xlink:title=" ">
<polygon fill="white" stroke="black" points="0,-56.5 0,-86.5 209,-86.5 209,-56.5 0,-56.5"/>
<text text-anchor="start" x="8" y="-74.5" font-family="Helvetica,sans-Serif" font-size="10.00">local.connection.TcpConnection.encrypt</text>
<text text-anchor="middle" x="104.5" y="-63.5" font-family="Helvetica,sans-Serif" font-size="10.00">_and_send_msg</text>
</a>
</g>
</g>
<!-- Node1&#45;&gt;Node2 -->
<g id="edge1" class="edge">
<title>Node1&#45;&gt;Node2</title>
<path fill="none" stroke="midnightblue" d="M517.03,-51.48C495.31,-54.55 471.2,-57.58 449,-59.5 368.59,-66.46 277.27,-69.42 209.01,-70.66"/>
<polygon fill="midnightblue" stroke="midnightblue" points="517.75,-54.91 527.15,-50.02 516.75,-47.98 517.75,-54.91"/>
</g>
<!-- Node3 -->
<g id="node3" class="node">
<title>Node3</title>
<g id="a_node3"><a xlink:href="classlocal_1_1connection_1_1TcpConnection.html#a65ab7164f0d09f1380e3837905a602b7" target="_top" xlink:title=" ">
<polygon fill="white" stroke="black" points="7.5,-0.5 7.5,-30.5 201.5,-30.5 201.5,-0.5 7.5,-0.5"/>
<text text-anchor="start" x="15.5" y="-18.5" font-family="Helvetica,sans-Serif" font-size="10.00">local.connection.TcpConnection.read</text>
<text text-anchor="middle" x="104.5" y="-7.5" font-family="Helvetica,sans-Serif" font-size="10.00">_local_tcp_socket</text>
</a>
</g>
</g>
<!-- Node1&#45;&gt;Node3 -->
<g id="edge2" class="edge">
<title>Node1&#45;&gt;Node3</title>
<path fill="none" stroke="midnightblue" d="M518.55,-29.5C496.45,-26.34 471.73,-23.27 449,-21.5 365.6,-15.01 270.48,-13.83 201.52,-14.09"/>
<polygon fill="midnightblue" stroke="midnightblue" points="518.11,-32.97 528.51,-30.96 519.12,-26.05 518.11,-32.97"/>
</g>
<!-- Node4 -->
<g id="node4" class="node">
<title>Node4</title>
<g id="a_node4"><a xlink:href="classlocal_1_1connection_1_1TcpConnection.html#a4611e0483aef05cdd079a70651fa6aef" target="_top" xlink:title=" ">
<polygon fill="white" stroke="black" points="245,-31 245,-50 449,-50 449,-31 245,-31"/>
<text text-anchor="middle" x="347" y="-38" font-family="Helvetica,sans-Serif" font-size="10.00">local.connection.TcpConnection.socket</text>
</a>
</g>
</g>
<!-- Node1&#45;&gt;Node4 -->
<g id="edge3" class="edge">
<title>Node1&#45;&gt;Node4</title>
<path fill="none" stroke="midnightblue" d="M474.47,-40.5C466.04,-40.5 457.55,-40.5 449.19,-40.5"/>
<polygon fill="midnightblue" stroke="midnightblue" points="474.72,-44 484.72,-40.5 474.72,-37 474.72,-44"/>
</g>
<!-- Node4&#45;&gt;Node2 -->
<g id="edge4" class="edge">
<title>Node4&#45;&gt;Node2</title>
<path fill="none" stroke="midnightblue" d="M262.27,-51.29C245.16,-53.5 226.96,-55.84 209.25,-58.13"/>
<polygon fill="midnightblue" stroke="midnightblue" points="262.74,-54.76 272.21,-50.01 261.84,-47.82 262.74,-54.76"/>
</g>
<!-- Node4&#45;&gt;Node3 -->
<g id="edge5" class="edge">
<title>Node4&#45;&gt;Node3</title>
<path fill="none" stroke="midnightblue" d="M244.2,-29.92C230.09,-28.45 215.65,-26.95 201.65,-25.49"/>
<polygon fill="midnightblue" stroke="midnightblue" points="244.08,-33.42 254.39,-30.98 244.81,-26.46 244.08,-33.42"/>
</g>
</g>
</svg>
