<?xml version="1.0" encoding="UTF-8" standalone="no"?>
<!DOCTYPE svg PUBLIC "-//W3C//DTD SVG 1.1//EN"
 "http://www.w3.org/Graphics/SVG/1.1/DTD/svg11.dtd">
<!-- Generated by graphviz version 2.43.0 (0)
 -->
<!-- Title: local.connection.TcpConnection.started Pages: 1 -->
<svg width="645pt" height="53pt"
 viewBox="0.00 0.00 645.00 52.50" xmlns="http://www.w3.org/2000/svg" xmlns:xlink="http://www.w3.org/1999/xlink">
<g id="graph0" class="graph" transform="scale(1 1) rotate(0) translate(4 48.5)">
<title>local.connection.TcpConnection.started</title>
<polygon fill="white" stroke="transparent" points="-4,4 -4,-48.5 641,-48.5 641,4 -4,4"/>
<!-- Node1 -->
<g id="node1" class="node">
<title>Node1</title>
<g id="a_node1"><a xlink:title=" ">
<polygon fill="#bfbfbf" stroke="black" points="430,-19.5 430,-38.5 637,-38.5 637,-19.5 430,-19.5"/>
<text text-anchor="middle" x="533.5" y="-26.5" font-family="Helvetica,sans-Serif" font-size="10.00">local.connection.TcpConnection.started</text>
</a>
</g>
</g>
<!-- Node2 -->
<g id="node2" class="node">
<title>Node2</title>
<g id="a_node2"><a xlink:href="classklyqa__ctl_1_1general_1_1message_1_1Message.html#a670561cf07691d77ef03db5705ddea75" target="_top" xlink:title=" ">
<polygon fill="white" stroke="black" points="0,-14 0,-44 151,-44 151,-14 0,-14"/>
<text text-anchor="start" x="8" y="-32" font-family="Helvetica,sans-Serif" font-size="10.00">klyqa_ctl.general.message.</text>
<text text-anchor="middle" x="75.5" y="-21" font-family="Helvetica,sans-Serif" font-size="10.00">Message.check_msg_ttl</text>
</a>
</g>
</g>
<!-- Node1&#45;&gt;Node2 -->
<g id="edge1" class="edge">
<title>Node1&#45;&gt;Node2</title>
<path fill="none" stroke="midnightblue" d="M419.81,-29C336.01,-29 224.01,-29 151.08,-29"/>
<polygon fill="midnightblue" stroke="midnightblue" points="419.88,-32.5 429.88,-29 419.88,-25.5 419.88,-32.5"/>
</g>
<!-- Node3 -->
<g id="node3" class="node">
<title>Node3</title>
<g id="a_node3"><a xlink:href="classlocal_1_1connection_1_1TcpConnection.html#a2c76c5da17903abd1dac9e28906e42f9" target="_top" xlink:title=" ">
<polygon fill="white" stroke="black" points="187,-0.5 187,-19.5 394,-19.5 394,-0.5 187,-0.5"/>
<text text-anchor="middle" x="290.5" y="-7.5" font-family="Helvetica,sans-Serif" font-size="10.00">local.connection.TcpConnection.started</text>
</a>
</g>
</g>
<!-- Node1&#45;&gt;Node3 -->
<g id="edge2" class="edge">
<title>Node1&#45;&gt;Node3</title>
<path fill="none" stroke="midnightblue" d="M419.95,-20.13C411.41,-19.45 402.82,-18.78 394.35,-18.11"/>
<polygon fill="midnightblue" stroke="midnightblue" points="419.7,-23.62 429.94,-20.91 420.25,-16.64 419.7,-23.62"/>
</g>
<!-- Node3&#45;&gt;Node2 -->
<g id="edge3" class="edge">
<title>Node3&#45;&gt;Node2</title>
<path fill="none" stroke="midnightblue" d="M176.6,-20.07C167.97,-20.84 159.39,-21.61 151.1,-22.35"/>
<polygon fill="midnightblue" stroke="midnightblue" points="177.09,-23.54 186.74,-19.17 176.47,-16.57 177.09,-23.54"/>
</g>
</g>
</svg>
