<?xml version="1.0" encoding="UTF-8" standalone="no"?>
<!DOCTYPE svg PUBLIC "-//W3C//DTD SVG 1.1//EN"
 "http://www.w3.org/Graphics/SVG/1.1/DTD/svg11.dtd">
<!-- Generated by graphviz version 2.43.0 (0)
 -->
<!-- Title: klyqa_ctl.devices.response_identity_message.ResponseIdentityMessage.unit_id Pages: 1 -->
<svg width="596pt" height="74pt"
 viewBox="0.00 0.00 596.00 74.00" xmlns="http://www.w3.org/2000/svg" xmlns:xlink="http://www.w3.org/1999/xlink">
<g id="graph0" class="graph" transform="scale(1 1) rotate(0) translate(4 70)">
<title>klyqa_ctl.devices.response_identity_message.ResponseIdentityMessage.unit_id</title>
<polygon fill="white" stroke="transparent" points="-4,4 -4,-70 592,-70 592,4 -4,4"/>
<!-- Node1 -->
<g id="node1" class="node">
<title>Node1</title>
<g id="a_node1"><a xlink:title=" ">
<polygon fill="#bfbfbf" stroke="black" points="391,-24.5 391,-65.5 588,-65.5 588,-24.5 391,-24.5"/>
<text text-anchor="start" x="399" y="-53.5" font-family="Helvetica,sans-Serif" font-size="10.00">klyqa_ctl.devices.response</text>
<text text-anchor="start" x="399" y="-42.5" font-family="Helvetica,sans-Serif" font-size="10.00">_identity_message.ResponseIdentity</text>
<text text-anchor="middle" x="489.5" y="-31.5" font-family="Helvetica,sans-Serif" font-size="10.00">Message.unit_id</text>
</a>
</g>
</g>
<!-- Node2 -->
<g id="node2" class="node">
<title>Node2</title>
<g id="a_node2"><a xlink:href="classklyqa__ctl_1_1general_1_1unit__id_1_1UnitId.html#a333fecd43aa5e812a0d1e0f8721ed27d" target="_top" xlink:title=" ">
<polygon fill="white" stroke="black" points="0,-30 0,-60 122,-60 122,-30 0,-30"/>
<text text-anchor="start" x="8" y="-48" font-family="Helvetica,sans-Serif" font-size="10.00">klyqa_ctl.general.unit</text>
<text text-anchor="middle" x="61" y="-37" font-family="Helvetica,sans-Serif" font-size="10.00">_id.UnitId.__str__</text>
</a>
</g>
</g>
<!-- Node1&#45;&gt;Node2 -->
<g id="edge1" class="edge">
<title>Node1&#45;&gt;Node2</title>
<path fill="none" stroke="midnightblue" d="M380.63,-50.26C371.96,-50.56 363.34,-50.81 355,-51 267.47,-52.97 245.51,-53.73 158,-51 146.4,-50.64 134.02,-50.03 122.15,-49.34"/>
<polygon fill="midnightblue" stroke="midnightblue" points="380.95,-53.75 390.82,-49.9 380.7,-46.76 380.95,-53.75"/>
</g>
<!-- Node3 -->
<g id="node3" class="node">
<title>Node3</title>
<g id="a_node3"><a xlink:href="classklyqa__ctl_1_1devices_1_1response__identity__message_1_1ResponseIdentityMessage.html#ab8f621ee59d0b61044fae3e48d1740d0" target="_top" xlink:title=" ">
<polygon fill="white" stroke="black" points="158,-0.5 158,-41.5 355,-41.5 355,-0.5 158,-0.5"/>
<text text-anchor="start" x="166" y="-29.5" font-family="Helvetica,sans-Serif" font-size="10.00">klyqa_ctl.devices.response</text>
<text text-anchor="start" x="166" y="-18.5" font-family="Helvetica,sans-Serif" font-size="10.00">_identity_message.ResponseIdentity</text>
<text text-anchor="middle" x="256.5" y="-7.5" font-family="Helvetica,sans-Serif" font-size="10.00">Message.unit_id</text>
</a>
</g>
</g>
<!-- Node1&#45;&gt;Node3 -->
<g id="edge2" class="edge">
<title>Node1&#45;&gt;Node3</title>
<path fill="none" stroke="midnightblue" d="M380.85,-33.82C372.28,-32.92 363.65,-32.03 355.15,-31.15"/>
<polygon fill="midnightblue" stroke="midnightblue" points="380.56,-37.3 390.87,-34.86 381.29,-30.34 380.56,-37.3"/>
</g>
<!-- Node3&#45;&gt;Node2 -->
<g id="edge3" class="edge">
<title>Node3&#45;&gt;Node2</title>
<path fill="none" stroke="midnightblue" d="M147.9,-34.35C139.08,-35.44 130.38,-36.52 122.1,-37.55"/>
<polygon fill="midnightblue" stroke="midnightblue" points="148.41,-37.81 157.9,-33.11 147.54,-30.86 148.41,-37.81"/>
</g>
</g>
</svg>
