<?xml version="1.0" encoding="UTF-8" standalone="no"?>
<!DOCTYPE svg PUBLIC "-//W3C//DTD SVG 1.1//EN"
 "http://www.w3.org/Graphics/SVG/1.1/DTD/svg11.dtd">
<!-- Generated by graphviz version 2.43.0 (0)
 -->
<!-- Title: klyqa_ctl.devices.light.response_status.ResponseStatus.status Pages: 1 -->
<svg width="590pt" height="61pt"
 viewBox="0.00 0.00 590.00 61.00" xmlns="http://www.w3.org/2000/svg" xmlns:xlink="http://www.w3.org/1999/xlink">
<g id="graph0" class="graph" transform="scale(1 1) rotate(0) translate(4 57)">
<title>klyqa_ctl.devices.light.response_status.ResponseStatus.status</title>
<polygon fill="white" stroke="transparent" points="-4,4 -4,-57 586,-57 586,4 -4,4"/>
<!-- Node1 -->
<g id="node1" class="node">
<title>Node1</title>
<g id="a_node1"><a xlink:title=" ">
<polygon fill="#bfbfbf" stroke="black" points="409,-22.5 409,-52.5 582,-52.5 582,-22.5 409,-22.5"/>
<text text-anchor="start" x="417" y="-40.5" font-family="Helvetica,sans-Serif" font-size="10.00">klyqa_ctl.devices.light.response</text>
<text text-anchor="middle" x="495.5" y="-29.5" font-family="Helvetica,sans-Serif" font-size="10.00">_status.ResponseStatus.status</text>
</a>
</g>
</g>
<!-- Node2 -->
<g id="node2" class="node">
<title>Node2</title>
<g id="a_node2"><a xlink:href="classklyqa__ctl_1_1devices_1_1device_1_1Device.html#aa24f94bc4cb0e5b9fee79360aca8819e" target="_top" xlink:title=" ">
<polygon fill="white" stroke="black" points="0,-22.5 0,-52.5 164,-52.5 164,-22.5 0,-22.5"/>
<text text-anchor="start" x="8" y="-40.5" font-family="Helvetica,sans-Serif" font-size="10.00">klyqa_ctl.devices.device.</text>
<text text-anchor="middle" x="82" y="-29.5" font-family="Helvetica,sans-Serif" font-size="10.00">Device.save_device_message</text>
</a>
</g>
</g>
<!-- Node1&#45;&gt;Node2 -->
<g id="edge1" class="edge">
<title>Node1&#45;&gt;Node2</title>
<path fill="none" stroke="midnightblue" d="M398.69,-40.09C390,-40.25 381.34,-40.4 373,-40.5 296.12,-41.45 276.88,-41.49 200,-40.5 188.42,-40.35 176.19,-40.12 164.19,-39.85"/>
<polygon fill="midnightblue" stroke="midnightblue" points="398.95,-43.58 408.88,-39.88 398.81,-36.58 398.95,-43.58"/>
</g>
<!-- Node3 -->
<g id="node3" class="node">
<title>Node3</title>
<g id="a_node3"><a xlink:href="classklyqa__ctl_1_1devices_1_1light_1_1response__status_1_1ResponseStatus.html#ae5a2cf533509a99bd54e5f0494bd26d7" target="_top" xlink:title=" ">
<polygon fill="white" stroke="black" points="200,-0.5 200,-30.5 373,-30.5 373,-0.5 200,-0.5"/>
<text text-anchor="start" x="208" y="-18.5" font-family="Helvetica,sans-Serif" font-size="10.00">klyqa_ctl.devices.light.response</text>
<text text-anchor="middle" x="286.5" y="-7.5" font-family="Helvetica,sans-Serif" font-size="10.00">_status.ResponseStatus.status</text>
</a>
</g>
</g>
<!-- Node1&#45;&gt;Node3 -->
<g id="edge2" class="edge">
<title>Node1&#45;&gt;Node3</title>
<path fill="none" stroke="midnightblue" d="M398.8,-27.33C390.24,-26.42 381.6,-25.5 373.12,-24.6"/>
<polygon fill="midnightblue" stroke="midnightblue" points="398.5,-30.82 408.81,-28.39 399.24,-23.86 398.5,-30.82"/>
</g>
<!-- Node3&#45;&gt;Node2 -->
<g id="edge3" class="edge">
<title>Node3&#45;&gt;Node2</title>
<path fill="none" stroke="midnightblue" d="M189.84,-25.89C181.23,-26.83 172.56,-27.77 164.09,-28.69"/>
<polygon fill="midnightblue" stroke="midnightblue" points="190.35,-29.36 199.92,-24.8 189.6,-22.4 190.35,-29.36"/>
</g>
</g>
</svg>
