<?xml version="1.0" encoding="UTF-8" standalone="no"?>
<!DOCTYPE svg PUBLIC "-//W3C//DTD SVG 1.1//EN"
 "http://www.w3.org/Graphics/SVG/1.1/DTD/svg11.dtd">
<!-- Generated by graphviz version 2.43.0 (0)
 -->
<!-- Title: local.connection_handler.LocalConnectionHandler.send_udp_broadcast Pages: 1 -->
<svg width="1265pt" height="198pt"
 viewBox="0.00 0.00 1265.00 197.50" xmlns="http://www.w3.org/2000/svg" xmlns:xlink="http://www.w3.org/1999/xlink">
<g id="graph0" class="graph" transform="scale(1 1) rotate(0) translate(4 193.5)">
<title>local.connection_handler.LocalConnectionHandler.send_udp_broadcast</title>
<polygon fill="white" stroke="transparent" points="-4,4 -4,-193.5 1261,-193.5 1261,4 -4,4"/>
<!-- Node1 -->
<g id="node1" class="node">
<title>Node1</title>
<g id="a_node1"><a xlink:title=" ">
<polygon fill="#bfbfbf" stroke="black" points="0,-41 0,-82 161,-82 161,-41 0,-41"/>
<text text-anchor="start" x="8" y="-70" font-family="Helvetica,sans-Serif" font-size="10.00">local.connection_handler.</text>
<text text-anchor="start" x="8" y="-59" font-family="Helvetica,sans-Serif" font-size="10.00">LocalConnectionHandler.send</text>
<text text-anchor="middle" x="80.5" y="-48" font-family="Helvetica,sans-Serif" font-size="10.00">_udp_broadcast</text>
</a>
</g>
</g>
<!-- Node2 -->
<g id="node2" class="node">
<title>Node2</title>
<g id="a_node2"><a xlink:href="classlocal_1_1connection__handler_1_1LocalConnectionHandler.html#a28f05e11005dfc83e537f9e2e85f54d5" target="_top" xlink:title=" ">
<polygon fill="white" stroke="black" points="197,-90.5 197,-120.5 385,-120.5 385,-90.5 197,-90.5"/>
<text text-anchor="start" x="205" y="-108.5" font-family="Helvetica,sans-Serif" font-size="10.00">local.connection_handler.</text>
<text text-anchor="middle" x="291" y="-97.5" font-family="Helvetica,sans-Serif" font-size="10.00">LocalConnectionHandler.bind_ports</text>
</a>
</g>
</g>
<!-- Node1&#45;&gt;Node2 -->
<g id="edge1" class="edge">
<title>Node1&#45;&gt;Node2</title>
<path fill="none" stroke="midnightblue" d="M161.22,-78.32C176.78,-81.61 193.11,-85.05 208.72,-88.35"/>
<polygon fill="midnightblue" stroke="midnightblue" points="208.35,-91.85 218.86,-90.49 209.8,-85 208.35,-91.85"/>
</g>
<!-- Node5 -->
<g id="node5" class="node">
<title>Node5</title>
<g id="a_node5"><a xlink:href="namespaceklyqa__ctl_1_1general_1_1general.html#a1afe30a73cc28a3b65babeeab27e36c8" target="_top" xlink:title=" ">
<polygon fill="white" stroke="black" points="430,-49.5 430,-79.5 594,-79.5 594,-49.5 430,-49.5"/>
<text text-anchor="start" x="438" y="-67.5" font-family="Helvetica,sans-Serif" font-size="10.00">klyqa_ctl.general.general.task</text>
<text text-anchor="middle" x="512" y="-56.5" font-family="Helvetica,sans-Serif" font-size="10.00">_log_debug</text>
</a>
</g>
</g>
<!-- Node1&#45;&gt;Node5 -->
<g id="edge10" class="edge">
<title>Node1&#45;&gt;Node5</title>
<path fill="none" stroke="midnightblue" d="M161.03,-62.06C234.25,-62.57 342.82,-63.33 419.59,-63.86"/>
<polygon fill="midnightblue" stroke="midnightblue" points="419.7,-67.36 429.73,-63.93 419.75,-60.36 419.7,-67.36"/>
</g>
<!-- Node8 -->
<g id="node8" class="node">
<title>Node8</title>
<g id="a_node8"><a xlink:href="namespaceklyqa__ctl_1_1general_1_1general.html#ad6b753e482e539892c57f8144cf213cb" target="_top" xlink:title=" ">
<polygon fill="white" stroke="black" points="430,-0.5 430,-30.5 594,-30.5 594,-0.5 430,-0.5"/>
<text text-anchor="start" x="438" y="-18.5" font-family="Helvetica,sans-Serif" font-size="10.00">klyqa_ctl.general.general.task</text>
<text text-anchor="middle" x="512" y="-7.5" font-family="Helvetica,sans-Serif" font-size="10.00">_log_trace_ex</text>
</a>
</g>
</g>
<!-- Node1&#45;&gt;Node8 -->
<g id="edge11" class="edge">
<title>Node1&#45;&gt;Node8</title>
<path fill="none" stroke="midnightblue" d="M161.03,-52.98C234.25,-45.14 342.82,-33.51 419.59,-25.29"/>
<polygon fill="midnightblue" stroke="midnightblue" points="420.16,-28.75 429.73,-24.2 419.41,-21.79 420.16,-28.75"/>
</g>
<!-- Node3 -->
<g id="node3" class="node">
<title>Node3</title>
<g id="a_node3"><a xlink:href="classlocal_1_1connection__handler_1_1LocalConnectionHandler.html#a159e60e3f78301ef89df33d9adaebbde" target="_top" xlink:title=" ">
<polygon fill="white" stroke="black" points="423.5,-148 423.5,-189 600.5,-189 600.5,-148 423.5,-148"/>
<text text-anchor="start" x="431.5" y="-177" font-family="Helvetica,sans-Serif" font-size="10.00">local.connection_handler.</text>
<text text-anchor="start" x="431.5" y="-166" font-family="Helvetica,sans-Serif" font-size="10.00">LocalConnectionHandler.network</text>
<text text-anchor="middle" x="512" y="-155" font-family="Helvetica,sans-Serif" font-size="10.00">_interface</text>
</a>
</g>
</g>
<!-- Node2&#45;&gt;Node3 -->
<g id="edge2" class="edge">
<title>Node2&#45;&gt;Node3</title>
<path fill="none" stroke="midnightblue" d="M344.18,-120.51C369.64,-127.84 400.86,-136.82 429.38,-145.02"/>
<polygon fill="midnightblue" stroke="midnightblue" points="428.77,-148.49 439.35,-147.89 430.7,-141.76 428.77,-148.49"/>
</g>
<!-- Node4 -->
<g id="node4" class="node">
<title>Node4</title>
<g id="a_node4"><a xlink:href="classlocal_1_1connection__handler_1_1LocalConnectionHandler.html#ab8a8460610614f6230bbf346fc532269" target="_top" xlink:title=" ">
<polygon fill="white" stroke="black" points="421,-98.5 421,-128.5 603,-128.5 603,-98.5 421,-98.5"/>
<text text-anchor="start" x="429" y="-116.5" font-family="Helvetica,sans-Serif" font-size="10.00">local.connection_handler.</text>
<text text-anchor="middle" x="512" y="-105.5" font-family="Helvetica,sans-Serif" font-size="10.00">LocalConnectionHandler.server_ip</text>
</a>
</g>
</g>
<!-- Node2&#45;&gt;Node4 -->
<g id="edge3" class="edge">
<title>Node2&#45;&gt;Node4</title>
<path fill="none" stroke="midnightblue" d="M385.19,-108.9C393.55,-109.21 402.04,-109.52 410.46,-109.83"/>
<polygon fill="midnightblue" stroke="midnightblue" points="410.56,-113.33 420.68,-110.2 410.81,-106.34 410.56,-113.33"/>
</g>
<!-- Node2&#45;&gt;Node5 -->
<g id="edge4" class="edge">
<title>Node2&#45;&gt;Node5</title>
<path fill="none" stroke="midnightblue" d="M372.3,-90.47C388.07,-87.51 404.72,-84.4 420.79,-81.39"/>
<polygon fill="midnightblue" stroke="midnightblue" points="421.52,-84.81 430.71,-79.53 420.23,-77.93 421.52,-84.81"/>
</g>
<!-- Node2&#45;&gt;Node8 -->
<g id="edge7" class="edge">
<title>Node2&#45;&gt;Node8</title>
<path fill="none" stroke="midnightblue" d="M317.99,-90.5C343.56,-76.2 384.04,-54.79 421,-40.5 427.3,-38.06 433.93,-35.76 440.62,-33.61"/>
<polygon fill="midnightblue" stroke="midnightblue" points="441.92,-36.87 450.44,-30.57 439.85,-30.18 441.92,-36.87"/>
</g>
<!-- Node6 -->
<g id="node6" class="node">
<title>Node6</title>
<g id="a_node6"><a xlink:href="namespaceklyqa__ctl_1_1general_1_1general.html#a9df3b50dfc0fcc7c8ec991bb9be9c5ba" target="_top" xlink:title=" ">
<polygon fill="white" stroke="black" points="839,-30 839,-49 1024,-49 1024,-30 839,-30"/>
<text text-anchor="middle" x="931.5" y="-37" font-family="Helvetica,sans-Serif" font-size="10.00">klyqa_ctl.general.general.task_log</text>
</a>
</g>
</g>
<!-- Node5&#45;&gt;Node6 -->
<g id="edge5" class="edge">
<title>Node5&#45;&gt;Node6</title>
<path fill="none" stroke="midnightblue" d="M594.49,-59.62C661.46,-55.61 756.7,-49.91 828.69,-45.6"/>
<polygon fill="midnightblue" stroke="midnightblue" points="828.91,-49.09 838.69,-45 828.49,-42.1 828.91,-49.09"/>
</g>
<!-- Node7 -->
<g id="node7" class="node">
<title>Node7</title>
<g id="a_node7"><a xlink:href="namespaceklyqa__ctl_1_1general_1_1general.html#aea905150cafee39fa2ca211f1e60f012" target="_top" xlink:title=" ">
<polygon fill="white" stroke="black" points="1060,-30 1060,-49 1257,-49 1257,-30 1060,-30"/>
<text text-anchor="middle" x="1158.5" y="-37" font-family="Helvetica,sans-Serif" font-size="10.00">klyqa_ctl.general.general.task_name</text>
</a>
</g>
</g>
<!-- Node6&#45;&gt;Node7 -->
<g id="edge6" class="edge">
<title>Node6&#45;&gt;Node7</title>
<path fill="none" stroke="midnightblue" d="M1024.02,-39.5C1032.5,-39.5 1041.15,-39.5 1049.76,-39.5"/>
<polygon fill="midnightblue" stroke="midnightblue" points="1049.83,-43 1059.83,-39.5 1049.83,-36 1049.83,-43"/>
</g>
<!-- Node9 -->
<g id="node9" class="node">
<title>Node9</title>
<g id="a_node9"><a xlink:href="namespaceklyqa__ctl_1_1general_1_1general.html#ab2f9a22e98cd16d0d284d22382cfcb02" target="_top" xlink:title=" ">
<polygon fill="white" stroke="black" points="639,-2.5 639,-32.5 803,-32.5 803,-2.5 639,-2.5"/>
<text text-anchor="start" x="647" y="-20.5" font-family="Helvetica,sans-Serif" font-size="10.00">klyqa_ctl.general.general.task</text>
<text text-anchor="middle" x="721" y="-9.5" font-family="Helvetica,sans-Serif" font-size="10.00">_log_trace</text>
</a>
</g>
</g>
<!-- Node8&#45;&gt;Node9 -->
<g id="edge8" class="edge">
<title>Node8&#45;&gt;Node9</title>
<path fill="none" stroke="midnightblue" d="M594.22,-16.28C605.52,-16.39 617.19,-16.51 628.66,-16.62"/>
<polygon fill="midnightblue" stroke="midnightblue" points="628.64,-20.12 638.68,-16.71 628.71,-13.12 628.64,-20.12"/>
</g>
<!-- Node9&#45;&gt;Node6 -->
<g id="edge9" class="edge">
<title>Node9&#45;&gt;Node6</title>
<path fill="none" stroke="midnightblue" d="M803.21,-26.07C812.01,-27 821.05,-27.95 830.05,-28.9"/>
<polygon fill="midnightblue" stroke="midnightblue" points="829.87,-32.4 840.18,-29.97 830.6,-25.44 829.87,-32.4"/>
</g>
</g>
</svg>
