<?xml version="1.0" encoding="UTF-8" standalone="no"?>
<!DOCTYPE svg PUBLIC "-//W3C//DTD SVG 1.1//EN"
 "http://www.w3.org/Graphics/SVG/1.1/DTD/svg11.dtd">
<!-- Generated by graphviz version 2.43.0 (0)
 -->
<!-- Title: klyqa_ctl.devices.light.commands.TransitionCommand Pages: 1 -->
<svg width="1214pt" height="596pt"
 viewBox="0.00 0.00 1214.00 596.00" xmlns="http://www.w3.org/2000/svg" xmlns:xlink="http://www.w3.org/1999/xlink">
<g id="graph0" class="graph" transform="scale(1 1) rotate(0) translate(4 592)">
<title>klyqa_ctl.devices.light.commands.TransitionCommand</title>
<polygon fill="white" stroke="transparent" points="-4,4 -4,-592 1210,-592 1210,4 -4,4"/>
<!-- Node1 -->
<g id="node1" class="node">
<title>Node1</title>
<g id="a_node1"><a xlink:title=" ">
<polygon fill="#bfbfbf" stroke="black" points="510,-149.5 510,-217.5 696,-217.5 696,-149.5 510,-149.5"/>
<text text-anchor="start" x="518" y="-205.5" font-family="Helvetica,sans-Serif" font-size="10.00">klyqa_ctl.devices.light.commands.</text>
<text text-anchor="middle" x="603" y="-194.5" font-family="Helvetica,sans-Serif" font-size="10.00">TransitionCommand</text>
<polyline fill="none" stroke="black" points="510,-187.5 696,-187.5 "/>
<text text-anchor="start" x="518" y="-175.5" font-family="Helvetica,sans-Serif" font-size="10.00">+ int</text>
<polyline fill="none" stroke="black" points="510,-168.5 696,-168.5 "/>
<text text-anchor="start" x="518" y="-156.5" font-family="Helvetica,sans-Serif" font-size="10.00">+ TypeJson json(self)</text>
</a>
</g>
</g>
<!-- Node5 -->
<g id="node5" class="node">
<title>Node5</title>
<g id="a_node5"><a xlink:href="classklyqa__ctl_1_1devices_1_1light_1_1commands_1_1BrightnessCommand.html" target="_top" xlink:title=" ">
<polygon fill="white" stroke="black" points="0,-0.5 0,-112.5 186,-112.5 186,-0.5 0,-0.5"/>
<text text-anchor="start" x="8" y="-100.5" font-family="Helvetica,sans-Serif" font-size="10.00">klyqa_ctl.devices.light.commands.</text>
<text text-anchor="middle" x="93" y="-89.5" font-family="Helvetica,sans-Serif" font-size="10.00">BrightnessCommand</text>
<polyline fill="none" stroke="black" points="0,-82.5 186,-82.5 "/>
<text text-anchor="start" x="8" y="-70.5" font-family="Helvetica,sans-Serif" font-size="10.00">+ int</text>
<polyline fill="none" stroke="black" points="0,-63.5 186,-63.5 "/>
<text text-anchor="start" x="8" y="-51.5" font-family="Helvetica,sans-Serif" font-size="10.00">+ TypeJson brightness</text>
<text text-anchor="start" x="8" y="-40.5" font-family="Helvetica,sans-Serif" font-size="10.00">_json(self)</text>
<text text-anchor="start" x="8" y="-29.5" font-family="Helvetica,sans-Serif" font-size="10.00">+ TypeJson json(self)</text>
<text text-anchor="start" x="8" y="-18.5" font-family="Helvetica,sans-Serif" font-size="10.00">+ bool check_values(self,</text>
<text text-anchor="start" x="8" y="-7.5" font-family="Helvetica,sans-Serif" font-size="10.00"> Device device)</text>
</a>
</g>
</g>
<!-- Node1&#45;&gt;Node5 -->
<g id="edge4" class="edge">
<title>Node1&#45;&gt;Node5</title>
<path fill="none" stroke="midnightblue" d="M499.64,-174.37C415.73,-165.54 295.31,-147.75 195,-113 192.05,-111.98 189.08,-110.87 186.11,-109.71"/>
<polygon fill="none" stroke="midnightblue" points="499.38,-177.86 509.69,-175.4 500.1,-170.9 499.38,-177.86"/>
</g>
<!-- Node6 -->
<g id="node6" class="node">
<title>Node6</title>
<g id="a_node6"><a xlink:href="classklyqa__ctl_1_1devices_1_1light_1_1commands_1_1ColorCommand.html" target="_top" xlink:title=" ">
<polygon fill="white" stroke="black" points="204,-0.5 204,-112.5 390,-112.5 390,-0.5 204,-0.5"/>
<text text-anchor="start" x="212" y="-100.5" font-family="Helvetica,sans-Serif" font-size="10.00">klyqa_ctl.devices.light.commands.</text>
<text text-anchor="middle" x="297" y="-89.5" font-family="Helvetica,sans-Serif" font-size="10.00">ColorCommand</text>
<polyline fill="none" stroke="black" points="204,-82.5 390,-82.5 "/>
<text text-anchor="start" x="212" y="-70.5" font-family="Helvetica,sans-Serif" font-size="10.00">+ RgbColor</text>
<polyline fill="none" stroke="black" points="204,-63.5 390,-63.5 "/>
<text text-anchor="start" x="212" y="-51.5" font-family="Helvetica,sans-Serif" font-size="10.00">+ TypeJson color_json</text>
<text text-anchor="start" x="212" y="-40.5" font-family="Helvetica,sans-Serif" font-size="10.00">(self)</text>
<text text-anchor="start" x="212" y="-29.5" font-family="Helvetica,sans-Serif" font-size="10.00">+ TypeJson json(self)</text>
<text text-anchor="start" x="212" y="-18.5" font-family="Helvetica,sans-Serif" font-size="10.00">+ bool check_values(self,</text>
<text text-anchor="start" x="212" y="-7.5" font-family="Helvetica,sans-Serif" font-size="10.00"> Device device)</text>
</a>
</g>
</g>
<!-- Node1&#45;&gt;Node6 -->
<g id="edge5" class="edge">
<title>Node1&#45;&gt;Node6</title>
<path fill="none" stroke="midnightblue" d="M500.22,-151.27C467.42,-140.31 431.28,-127.16 399,-113 396.05,-111.7 393.06,-110.35 390.07,-108.96"/>
<polygon fill="none" stroke="midnightblue" points="499.23,-154.63 509.83,-154.45 501.43,-147.99 499.23,-154.63"/>
</g>
<!-- Node7 -->
<g id="node7" class="node">
<title>Node7</title>
<g id="a_node7"><a xlink:href="classklyqa__ctl_1_1devices_1_1light_1_1commands_1_1RoutineDeleteCommand.html" target="_top" xlink:title=" ">
<polygon fill="white" stroke="black" points="408,-11.5 408,-101.5 594,-101.5 594,-11.5 408,-11.5"/>
<text text-anchor="start" x="416" y="-89.5" font-family="Helvetica,sans-Serif" font-size="10.00">klyqa_ctl.devices.light.commands.</text>
<text text-anchor="middle" x="501" y="-78.5" font-family="Helvetica,sans-Serif" font-size="10.00">RoutineDeleteCommand</text>
<polyline fill="none" stroke="black" points="408,-71.5 594,-71.5 "/>
<text text-anchor="start" x="416" y="-59.5" font-family="Helvetica,sans-Serif" font-size="10.00">+ action</text>
<text text-anchor="start" x="416" y="-48.5" font-family="Helvetica,sans-Serif" font-size="10.00">+ str</text>
<polyline fill="none" stroke="black" points="408,-41.5 594,-41.5 "/>
<text text-anchor="start" x="416" y="-29.5" font-family="Helvetica,sans-Serif" font-size="10.00">+ None __post_init__</text>
<text text-anchor="start" x="416" y="-18.5" font-family="Helvetica,sans-Serif" font-size="10.00">(self)</text>
</a>
</g>
</g>
<!-- Node1&#45;&gt;Node7 -->
<g id="edge6" class="edge">
<title>Node1&#45;&gt;Node7</title>
<path fill="none" stroke="midnightblue" d="M569.6,-141.57C559.18,-128.8 547.63,-114.65 537.03,-101.66"/>
<polygon fill="none" stroke="midnightblue" points="566.9,-143.8 575.93,-149.33 572.32,-139.37 566.9,-143.8"/>
</g>
<!-- Node8 -->
<g id="node8" class="node">
<title>Node8</title>
<g id="a_node8"><a xlink:href="classklyqa__ctl_1_1devices_1_1light_1_1commands_1_1RoutinePutCommand.html" target="_top" xlink:title=" ">
<polygon fill="white" stroke="black" points="612,-0.5 612,-112.5 798,-112.5 798,-0.5 612,-0.5"/>
<text text-anchor="start" x="620" y="-100.5" font-family="Helvetica,sans-Serif" font-size="10.00">klyqa_ctl.devices.light.commands.</text>
<text text-anchor="middle" x="705" y="-89.5" font-family="Helvetica,sans-Serif" font-size="10.00">RoutinePutCommand</text>
<polyline fill="none" stroke="black" points="612,-82.5 798,-82.5 "/>
<text text-anchor="start" x="620" y="-70.5" font-family="Helvetica,sans-Serif" font-size="10.00">+ action</text>
<text text-anchor="start" x="620" y="-59.5" font-family="Helvetica,sans-Serif" font-size="10.00">+ str</text>
<polyline fill="none" stroke="black" points="612,-52.5 798,-52.5 "/>
<text text-anchor="start" x="620" y="-40.5" font-family="Helvetica,sans-Serif" font-size="10.00">+ None __post_init__</text>
<text text-anchor="start" x="620" y="-29.5" font-family="Helvetica,sans-Serif" font-size="10.00">(self)</text>
<text text-anchor="start" x="620" y="-18.5" font-family="Helvetica,sans-Serif" font-size="10.00">+ bool check_values(self,</text>
<text text-anchor="start" x="620" y="-7.5" font-family="Helvetica,sans-Serif" font-size="10.00"> Device device)</text>
</a>
</g>
</g>
<!-- Node1&#45;&gt;Node8 -->
<g id="edge7" class="edge">
<title>Node1&#45;&gt;Node8</title>
<path fill="none" stroke="midnightblue" d="M636.51,-141.43C644.04,-132.21 652.14,-122.28 660.05,-112.59"/>
<polygon fill="none" stroke="midnightblue" points="633.68,-139.37 630.07,-149.33 639.1,-143.8 633.68,-139.37"/>
</g>
<!-- Node9 -->
<g id="node9" class="node">
<title>Node9</title>
<g id="a_node9"><a xlink:href="classklyqa__ctl_1_1devices_1_1light_1_1commands_1_1RoutineStartCommand.html" target="_top" xlink:title=" ">
<polygon fill="white" stroke="black" points="816,-11.5 816,-101.5 1002,-101.5 1002,-11.5 816,-11.5"/>
<text text-anchor="start" x="824" y="-89.5" font-family="Helvetica,sans-Serif" font-size="10.00">klyqa_ctl.devices.light.commands.</text>
<text text-anchor="middle" x="909" y="-78.5" font-family="Helvetica,sans-Serif" font-size="10.00">RoutineStartCommand</text>
<polyline fill="none" stroke="black" points="816,-71.5 1002,-71.5 "/>
<text text-anchor="start" x="824" y="-59.5" font-family="Helvetica,sans-Serif" font-size="10.00">+ action</text>
<text text-anchor="start" x="824" y="-48.5" font-family="Helvetica,sans-Serif" font-size="10.00">+ str</text>
<polyline fill="none" stroke="black" points="816,-41.5 1002,-41.5 "/>
<text text-anchor="start" x="824" y="-29.5" font-family="Helvetica,sans-Serif" font-size="10.00">+ None __post_init__</text>
<text text-anchor="start" x="824" y="-18.5" font-family="Helvetica,sans-Serif" font-size="10.00">(self)</text>
</a>
</g>
</g>
<!-- Node1&#45;&gt;Node9 -->
<g id="edge8" class="edge">
<title>Node1&#45;&gt;Node9</title>
<path fill="none" stroke="midnightblue" d="M705.78,-151.27C738.58,-140.31 774.72,-127.16 807,-113 814.94,-109.52 823.09,-105.64 831.15,-101.6"/>
<polygon fill="none" stroke="midnightblue" points="704.57,-147.99 696.17,-154.45 706.77,-154.63 704.57,-147.99"/>
</g>
<!-- Node10 -->
<g id="node10" class="node">
<title>Node10</title>
<g id="a_node10"><a xlink:href="classklyqa__ctl_1_1devices_1_1light_1_1commands_1_1TemperatureCommand.html" target="_top" xlink:title=" ">
<polygon fill="white" stroke="black" points="1020,-0.5 1020,-112.5 1206,-112.5 1206,-0.5 1020,-0.5"/>
<text text-anchor="start" x="1028" y="-100.5" font-family="Helvetica,sans-Serif" font-size="10.00">klyqa_ctl.devices.light.commands.</text>
<text text-anchor="middle" x="1113" y="-89.5" font-family="Helvetica,sans-Serif" font-size="10.00">TemperatureCommand</text>
<polyline fill="none" stroke="black" points="1020,-82.5 1206,-82.5 "/>
<text text-anchor="start" x="1028" y="-70.5" font-family="Helvetica,sans-Serif" font-size="10.00">+ int</text>
<polyline fill="none" stroke="black" points="1020,-63.5 1206,-63.5 "/>
<text text-anchor="start" x="1028" y="-51.5" font-family="Helvetica,sans-Serif" font-size="10.00">+ TypeJson temperature</text>
<text text-anchor="start" x="1028" y="-40.5" font-family="Helvetica,sans-Serif" font-size="10.00">_json(self)</text>
<text text-anchor="start" x="1028" y="-29.5" font-family="Helvetica,sans-Serif" font-size="10.00">+ TypeJson json(self)</text>
<text text-anchor="start" x="1028" y="-18.5" font-family="Helvetica,sans-Serif" font-size="10.00">+ bool check_values(self,</text>
<text text-anchor="start" x="1028" y="-7.5" font-family="Helvetica,sans-Serif" font-size="10.00"> Device device)</text>
</a>
</g>
</g>
<!-- Node1&#45;&gt;Node10 -->
<g id="edge9" class="edge">
<title>Node1&#45;&gt;Node10</title>
<path fill="none" stroke="midnightblue" d="M706.36,-174.37C790.27,-165.54 910.69,-147.75 1011,-113 1013.95,-111.98 1016.92,-110.87 1019.89,-109.71"/>
<polygon fill="none" stroke="midnightblue" points="705.9,-170.9 696.31,-175.4 706.62,-177.86 705.9,-170.9"/>
</g>
<!-- Node2 -->
<g id="node2" class="node">
<title>Node2</title>
<g id="a_node2"><a xlink:href="classklyqa__ctl_1_1devices_1_1light_1_1commands_1_1RequestCommand.html" target="_top" xlink:title=" ">
<polygon fill="white" stroke="black" points="510,-254.5 510,-333.5 696,-333.5 696,-254.5 510,-254.5"/>
<text text-anchor="start" x="518" y="-321.5" font-family="Helvetica,sans-Serif" font-size="10.00">klyqa_ctl.devices.light.commands.</text>
<text text-anchor="middle" x="603" y="-310.5" font-family="Helvetica,sans-Serif" font-size="10.00">RequestCommand</text>
<polyline fill="none" stroke="black" points="510,-303.5 696,-303.5 "/>
<text text-anchor="start" x="518" y="-291.5" font-family="Helvetica,sans-Serif" font-size="10.00">+ type</text>
<polyline fill="none" stroke="black" points="510,-284.5 696,-284.5 "/>
<text text-anchor="start" x="518" y="-272.5" font-family="Helvetica,sans-Serif" font-size="10.00">+ None __post_init__</text>
<text text-anchor="start" x="518" y="-261.5" font-family="Helvetica,sans-Serif" font-size="10.00">(self)</text>
</a>
</g>
</g>
<!-- Node2&#45;&gt;Node1 -->
<g id="edge1" class="edge">
<title>Node2&#45;&gt;Node1</title>
<path fill="none" stroke="midnightblue" d="M603,-244.35C603,-235.28 603,-226 603,-217.54"/>
<polygon fill="none" stroke="midnightblue" points="599.5,-244.44 603,-254.44 606.5,-244.44 599.5,-244.44"/>
</g>
<!-- Node3 -->
<g id="node3" class="node">
<title>Node3</title>
<g id="a_node3"><a xlink:href="classklyqa__ctl_1_1general_1_1general_1_1CommandTyped.html" target="_top" xlink:title=" ">
<polygon fill="white" stroke="black" points="531.5,-370.5 531.5,-438.5 674.5,-438.5 674.5,-370.5 531.5,-370.5"/>
<text text-anchor="start" x="539.5" y="-426.5" font-family="Helvetica,sans-Serif" font-size="10.00">klyqa_ctl.general.general.</text>
<text text-anchor="middle" x="603" y="-415.5" font-family="Helvetica,sans-Serif" font-size="10.00">CommandTyped</text>
<polyline fill="none" stroke="black" points="531.5,-408.5 674.5,-408.5 "/>
<text text-anchor="start" x="539.5" y="-396.5" font-family="Helvetica,sans-Serif" font-size="10.00">+ str</text>
<polyline fill="none" stroke="black" points="531.5,-389.5 674.5,-389.5 "/>
<text text-anchor="start" x="539.5" y="-377.5" font-family="Helvetica,sans-Serif" font-size="10.00">+ TypeJson json(self)</text>
</a>
</g>
</g>
<!-- Node3&#45;&gt;Node2 -->
<g id="edge2" class="edge">
<title>Node3&#45;&gt;Node2</title>
<path fill="none" stroke="midnightblue" d="M603,-360.27C603,-351.48 603,-342.28 603,-333.65"/>
<polygon fill="none" stroke="midnightblue" points="599.5,-360.36 603,-370.36 606.5,-360.36 599.5,-360.36"/>
</g>
<!-- Node4 -->
<g id="node4" class="node">
<title>Node4</title>
<g id="a_node4"><a xlink:href="classklyqa__ctl_1_1general_1_1general_1_1Command.html" target="_top" xlink:title=" ">
<polygon fill="white" stroke="black" points="531.5,-475.5 531.5,-587.5 674.5,-587.5 674.5,-475.5 531.5,-475.5"/>
<text text-anchor="start" x="539.5" y="-575.5" font-family="Helvetica,sans-Serif" font-size="10.00">klyqa_ctl.general.general.</text>
<text text-anchor="middle" x="603" y="-564.5" font-family="Helvetica,sans-Serif" font-size="10.00">Command</text>
<polyline fill="none" stroke="black" points="531.5,-557.5 674.5,-557.5 "/>
<text text-anchor="start" x="539.5" y="-545.5" font-family="Helvetica,sans-Serif" font-size="10.00">+ TypeJson</text>
<text text-anchor="start" x="539.5" y="-534.5" font-family="Helvetica,sans-Serif" font-size="10.00">+ default_factory</text>
<polyline fill="none" stroke="black" points="531.5,-527.5 674.5,-527.5 "/>
<text text-anchor="start" x="539.5" y="-515.5" font-family="Helvetica,sans-Serif" font-size="10.00">+ TypeJson json(self)</text>
<text text-anchor="start" x="539.5" y="-504.5" font-family="Helvetica,sans-Serif" font-size="10.00">+ TypeJson cloud(self)</text>
<text text-anchor="start" x="539.5" y="-493.5" font-family="Helvetica,sans-Serif" font-size="10.00">+ str msg_str(self)</text>
<text text-anchor="start" x="539.5" y="-482.5" font-family="Helvetica,sans-Serif" font-size="10.00">+ str __str__(self)</text>
</a>
</g>
</g>
<!-- Node4&#45;&gt;Node3 -->
<g id="edge3" class="edge">
<title>Node4&#45;&gt;Node3</title>
<path fill="none" stroke="midnightblue" d="M603,-465.26C603,-455.99 603,-446.8 603,-438.51"/>
<polygon fill="none" stroke="midnightblue" points="599.5,-465.31 603,-475.31 606.5,-465.31 599.5,-465.31"/>
</g>
</g>
</svg>
