<?xml version="1.0" encoding="UTF-8" standalone="no"?>
<!DOCTYPE svg PUBLIC "-//W3C//DTD SVG 1.1//EN"
 "http://www.w3.org/Graphics/SVG/1.1/DTD/svg11.dtd">
<!-- Generated by graphviz version 2.43.0 (0)
 -->
<!-- Title: local.connection_handler.LocalConnectionHandler.process_device_identity_package Pages: 1 -->
<svg width="894pt" height="379pt"
 viewBox="0.00 0.00 894.00 378.50" xmlns="http://www.w3.org/2000/svg" xmlns:xlink="http://www.w3.org/1999/xlink">
<g id="graph0" class="graph" transform="scale(1 1) rotate(0) translate(4 374.5)">
<title>local.connection_handler.LocalConnectionHandler.process_device_identity_package</title>
<polygon fill="white" stroke="transparent" points="-4,4 -4,-374.5 890,-374.5 890,4 -4,4"/>
<!-- Node1 -->
<g id="node1" class="node">
<title>Node1</title>
<g id="a_node1"><a xlink:title=" ">
<polygon fill="#bfbfbf" stroke="black" points="0,-170 0,-211 175,-211 175,-170 0,-170"/>
<text text-anchor="start" x="8" y="-199" font-family="Helvetica,sans-Serif" font-size="10.00">local.connection_handler.</text>
<text text-anchor="start" x="8" y="-188" font-family="Helvetica,sans-Serif" font-size="10.00">LocalConnectionHandler.process</text>
<text text-anchor="middle" x="87.5" y="-177" font-family="Helvetica,sans-Serif" font-size="10.00">_device_identity_package</text>
</a>
</g>
</g>
<!-- Node2 -->
<g id="node2" class="node">
<title>Node2</title>
<g id="a_node2"><a xlink:href="classklyqa__ctl_1_1account_1_1Account.html#a7bcb9ac9804621630ea08a688abecd18" target="_top" xlink:title=" ">
<polygon fill="white" stroke="black" points="211,-351 211,-370 432,-370 432,-351 211,-351"/>
<text text-anchor="middle" x="321.5" y="-358" font-family="Helvetica,sans-Serif" font-size="10.00">klyqa_ctl.account.Account.controller_data</text>
</a>
</g>
</g>
<!-- Node1&#45;&gt;Node2 -->
<g id="edge1" class="edge">
<title>Node1&#45;&gt;Node2</title>
<path fill="none" stroke="midnightblue" d="M98.82,-211.07C116.72,-244.41 156.84,-309.73 211,-341.5 214.7,-343.67 218.58,-345.6 222.58,-347.33"/>
<polygon fill="midnightblue" stroke="midnightblue" points="221.53,-350.68 232.12,-350.99 224.04,-344.14 221.53,-350.68"/>
</g>
<!-- Node3 -->
<g id="node3" class="node">
<title>Node3</title>
<g id="a_node3"><a xlink:href="classcloud_1_1CloudBackend.html#aef174fe1ba95fff13c7901ff56354ec9" target="_top" xlink:title=" ">
<polygon fill="white" stroke="black" points="226,-313 226,-332 417,-332 417,-313 226,-313"/>
<text text-anchor="middle" x="321.5" y="-320" font-family="Helvetica,sans-Serif" font-size="10.00">cloud.CloudBackend.controller_data</text>
</a>
</g>
</g>
<!-- Node1&#45;&gt;Node3 -->
<g id="edge2" class="edge">
<title>Node1&#45;&gt;Node3</title>
<path fill="none" stroke="midnightblue" d="M104.63,-211.45C125.95,-237.53 166.11,-281.35 211,-303.5 215.92,-305.93 221.1,-308.05 226.42,-309.91"/>
<polygon fill="midnightblue" stroke="midnightblue" points="225.53,-313.3 236.12,-312.97 227.63,-306.62 225.53,-313.3"/>
</g>
<!-- Node4 -->
<g id="node4" class="node">
<title>Node4</title>
<g id="a_node4"><a xlink:href="classlocal_1_1connection__handler_1_1LocalConnectionHandler.html#a8f938ae53b3c24bbdc02f377671cf263" target="_top" xlink:title=" ">
<polygon fill="white" stroke="black" points="216,-263.5 216,-293.5 427,-293.5 427,-263.5 216,-263.5"/>
<text text-anchor="start" x="224" y="-281.5" font-family="Helvetica,sans-Serif" font-size="10.00">local.connection_handler.</text>
<text text-anchor="middle" x="321.5" y="-270.5" font-family="Helvetica,sans-Serif" font-size="10.00">LocalConnectionHandler.controller_data</text>
</a>
</g>
</g>
<!-- Node1&#45;&gt;Node4 -->
<g id="edge3" class="edge">
<title>Node1&#45;&gt;Node4</title>
<path fill="none" stroke="midnightblue" d="M122.82,-211.11C146.82,-224.77 180,-242.19 211,-253.5 218.28,-256.15 225.93,-258.59 233.67,-260.8"/>
<polygon fill="midnightblue" stroke="midnightblue" points="232.93,-264.23 243.5,-263.49 234.78,-257.48 232.93,-264.23"/>
</g>
<!-- Node5 -->
<g id="node5" class="node">
<title>Node5</title>
<g id="a_node5"><a xlink:href="classklyqa__ctl_1_1account_1_1Account.html#a2265c38daf6829c96c852ad4a288b42d" target="_top" xlink:title=" ">
<polygon fill="white" stroke="black" points="229,-225 229,-244 414,-244 414,-225 229,-225"/>
<text text-anchor="middle" x="321.5" y="-232" font-family="Helvetica,sans-Serif" font-size="10.00">klyqa_ctl.account.Account.devices</text>
</a>
</g>
</g>
<!-- Node1&#45;&gt;Node5 -->
<g id="edge4" class="edge">
<title>Node1&#45;&gt;Node5</title>
<path fill="none" stroke="midnightblue" d="M175.1,-208.51C187.15,-210.91 199.38,-213.31 211,-215.5 224.73,-218.09 239.46,-220.74 253.51,-223.2"/>
<polygon fill="midnightblue" stroke="midnightblue" points="253.16,-226.69 263.61,-224.96 254.36,-219.79 253.16,-226.69"/>
</g>
<!-- Node6 -->
<g id="node6" class="node">
<title>Node6</title>
<g id="a_node6"><a xlink:href="classlocal_1_1connection__handler_1_1LocalConnectionHandler.html#a4d307f6bd0b66f3cb9fac3057fc87972" target="_top" xlink:title=" ">
<polygon fill="white" stroke="black" points="234,-175.5 234,-205.5 409,-205.5 409,-175.5 234,-175.5"/>
<text text-anchor="start" x="242" y="-193.5" font-family="Helvetica,sans-Serif" font-size="10.00">local.connection_handler.</text>
<text text-anchor="middle" x="321.5" y="-182.5" font-family="Helvetica,sans-Serif" font-size="10.00">LocalConnectionHandler.devices</text>
</a>
</g>
</g>
<!-- Node1&#45;&gt;Node6 -->
<g id="edge5" class="edge">
<title>Node1&#45;&gt;Node6</title>
<path fill="none" stroke="midnightblue" d="M175.22,-190.5C190.95,-190.5 207.45,-190.5 223.45,-190.5"/>
<polygon fill="midnightblue" stroke="midnightblue" points="223.89,-194 233.89,-190.5 223.89,-187 223.89,-194"/>
</g>
<!-- Node7 -->
<g id="node7" class="node">
<title>Node7</title>
<g id="a_node7"><a xlink:href="classklyqa__ctl_1_1controller__data_1_1ControllerData.html#adf7af423388a9a883c428cf71e217650" target="_top" xlink:title=" ">
<polygon fill="white" stroke="black" points="242.5,-126.5 242.5,-156.5 400.5,-156.5 400.5,-126.5 242.5,-126.5"/>
<text text-anchor="start" x="250.5" y="-144.5" font-family="Helvetica,sans-Serif" font-size="10.00">klyqa_ctl.controller</text>
<text text-anchor="middle" x="321.5" y="-133.5" font-family="Helvetica,sans-Serif" font-size="10.00">_data.ControllerData.devices</text>
</a>
</g>
</g>
<!-- Node1&#45;&gt;Node7 -->
<g id="edge6" class="edge">
<title>Node1&#45;&gt;Node7</title>
<path fill="none" stroke="midnightblue" d="M175.22,-172.18C196.23,-167.75 218.62,-163.02 239.37,-158.64"/>
<polygon fill="midnightblue" stroke="midnightblue" points="240.34,-162.01 249.41,-156.52 238.9,-155.16 240.34,-162.01"/>
</g>
<!-- Node8 -->
<g id="node8" class="node">
<title>Node8</title>
<g id="a_node8"><a xlink:href="classklyqa__ctl_1_1klyqa__ctl_1_1Client.html#ab6e5eda10fb712850c3fb311fd1cd4a0" target="_top" xlink:title=" ">
<polygon fill="white" stroke="black" points="231.5,-88 231.5,-107 411.5,-107 411.5,-88 231.5,-88"/>
<text text-anchor="middle" x="321.5" y="-95" font-family="Helvetica,sans-Serif" font-size="10.00">klyqa_ctl.klyqa_ctl.Client.devices</text>
</a>
</g>
</g>
<!-- Node1&#45;&gt;Node8 -->
<g id="edge7" class="edge">
<title>Node1&#45;&gt;Node8</title>
<path fill="none" stroke="midnightblue" d="M116.71,-169.69C140.63,-153.06 176.46,-130.46 211,-117.5 219.5,-114.31 228.58,-111.61 237.72,-109.34"/>
<polygon fill="midnightblue" stroke="midnightblue" points="238.7,-112.71 247.65,-107.04 237.12,-105.89 238.7,-112.71"/>
</g>
<!-- Node9 -->
<g id="node9" class="node">
<title>Node9</title>
<g id="a_node9"><a xlink:href="namespaceklyqa__ctl_1_1general_1_1general.html#a9df3b50dfc0fcc7c8ec991bb9be9c5ba" target="_top" xlink:title=" ">
<polygon fill="white" stroke="black" points="468,-28 468,-47 653,-47 653,-28 468,-28"/>
<text text-anchor="middle" x="560.5" y="-35" font-family="Helvetica,sans-Serif" font-size="10.00">klyqa_ctl.general.general.task_log</text>
</a>
</g>
</g>
<!-- Node1&#45;&gt;Node9 -->
<g id="edge8" class="edge">
<title>Node1&#45;&gt;Node9</title>
<path fill="none" stroke="midnightblue" d="M104.12,-169.81C125.2,-143.6 165.4,-99.35 211,-78.5 253.63,-59 370.97,-48.13 457.77,-42.56"/>
<polygon fill="midnightblue" stroke="midnightblue" points="458.17,-46.04 467.93,-41.92 457.73,-39.06 458.17,-46.04"/>
</g>
<!-- Node11 -->
<g id="node11" class="node">
<title>Node11</title>
<g id="a_node11"><a xlink:href="namespaceklyqa__ctl_1_1general_1_1general.html#a1afe30a73cc28a3b65babeeab27e36c8" target="_top" xlink:title=" ">
<polygon fill="white" stroke="black" points="239.5,-0.5 239.5,-30.5 403.5,-30.5 403.5,-0.5 239.5,-0.5"/>
<text text-anchor="start" x="247.5" y="-18.5" font-family="Helvetica,sans-Serif" font-size="10.00">klyqa_ctl.general.general.task</text>
<text text-anchor="middle" x="321.5" y="-7.5" font-family="Helvetica,sans-Serif" font-size="10.00">_log_debug</text>
</a>
</g>
</g>
<!-- Node1&#45;&gt;Node11 -->
<g id="edge10" class="edge">
<title>Node1&#45;&gt;Node11</title>
<path fill="none" stroke="midnightblue" d="M100.3,-169.77C119.42,-138.11 160.17,-77.96 211,-45.5 217.85,-41.13 225.33,-37.38 233.07,-34.18"/>
<polygon fill="midnightblue" stroke="midnightblue" points="234.51,-37.37 242.61,-30.53 232.02,-30.84 234.51,-37.37"/>
</g>
<!-- Node10 -->
<g id="node10" class="node">
<title>Node10</title>
<g id="a_node10"><a xlink:href="namespaceklyqa__ctl_1_1general_1_1general.html#aea905150cafee39fa2ca211f1e60f012" target="_top" xlink:title=" ">
<polygon fill="white" stroke="black" points="689,-28 689,-47 886,-47 886,-28 689,-28"/>
<text text-anchor="middle" x="787.5" y="-35" font-family="Helvetica,sans-Serif" font-size="10.00">klyqa_ctl.general.general.task_name</text>
</a>
</g>
</g>
<!-- Node9&#45;&gt;Node10 -->
<g id="edge9" class="edge">
<title>Node9&#45;&gt;Node10</title>
<path fill="none" stroke="midnightblue" d="M653.02,-37.5C661.5,-37.5 670.15,-37.5 678.76,-37.5"/>
<polygon fill="midnightblue" stroke="midnightblue" points="678.83,-41 688.83,-37.5 678.83,-34 678.83,-41"/>
</g>
<!-- Node11&#45;&gt;Node9 -->
<g id="edge11" class="edge">
<title>Node11&#45;&gt;Node9</title>
<path fill="none" stroke="midnightblue" d="M403.73,-23.04C421.14,-24.66 439.75,-26.38 457.82,-28.06"/>
<polygon fill="midnightblue" stroke="midnightblue" points="457.52,-31.55 467.8,-28.99 458.16,-24.58 457.52,-31.55"/>
</g>
</g>
</svg>
