<?xml version="1.0" encoding="UTF-8" standalone="no"?>
<!DOCTYPE svg PUBLIC "-//W3C//DTD SVG 1.1//EN"
 "http://www.w3.org/Graphics/SVG/1.1/DTD/svg11.dtd">
<!-- Generated by graphviz version 2.43.0 (0)
 -->
<!-- Title: cloud.CloudBackend.cloud_send Pages: 1 -->
<svg width="1292pt" height="240pt"
 viewBox="0.00 0.00 1292.00 239.50" xmlns="http://www.w3.org/2000/svg" xmlns:xlink="http://www.w3.org/1999/xlink">
<g id="graph0" class="graph" transform="scale(1 1) rotate(0) translate(4 235.5)">
<title>cloud.CloudBackend.cloud_send</title>
<polygon fill="white" stroke="transparent" points="-4,4 -4,-235.5 1288,-235.5 1288,4 -4,4"/>
<!-- Node1 -->
<g id="node1" class="node">
<title>Node1</title>
<g id="a_node1"><a xlink:title=" ">
<polygon fill="#bfbfbf" stroke="black" points="0,-108 0,-127 173,-127 173,-108 0,-108"/>
<text text-anchor="middle" x="86.5" y="-115" font-family="Helvetica,sans-Serif" font-size="10.00">cloud.CloudBackend.cloud_send</text>
</a>
</g>
</g>
<!-- Node2 -->
<g id="node2" class="node">
<title>Node2</title>
<g id="a_node2"><a xlink:href="classklyqa__ctl_1_1account_1_1Account.html#a7bcb9ac9804621630ea08a688abecd18" target="_top" xlink:title=" ">
<polygon fill="white" stroke="black" points="209,-212 209,-231 430,-231 430,-212 209,-212"/>
<text text-anchor="middle" x="319.5" y="-219" font-family="Helvetica,sans-Serif" font-size="10.00">klyqa_ctl.account.Account.controller_data</text>
</a>
</g>
</g>
<!-- Node1&#45;&gt;Node2 -->
<g id="edge1" class="edge">
<title>Node1&#45;&gt;Node2</title>
<path fill="none" stroke="midnightblue" d="M97.92,-127.25C117.81,-145.27 163.31,-183.66 209,-202.5 215.35,-205.12 222.06,-207.38 228.89,-209.32"/>
<polygon fill="midnightblue" stroke="midnightblue" points="228.41,-212.82 238.97,-211.96 230.18,-206.04 228.41,-212.82"/>
</g>
<!-- Node3 -->
<g id="node3" class="node">
<title>Node3</title>
<g id="a_node3"><a xlink:href="classcloud_1_1CloudBackend.html#aef174fe1ba95fff13c7901ff56354ec9" target="_top" xlink:title=" ">
<polygon fill="white" stroke="black" points="224,-174 224,-193 415,-193 415,-174 224,-174"/>
<text text-anchor="middle" x="319.5" y="-181" font-family="Helvetica,sans-Serif" font-size="10.00">cloud.CloudBackend.controller_data</text>
</a>
</g>
</g>
<!-- Node1&#45;&gt;Node3 -->
<g id="edge2" class="edge">
<title>Node1&#45;&gt;Node3</title>
<path fill="none" stroke="midnightblue" d="M108.58,-127.12C132.47,-137.69 172.82,-154.47 209,-164.5 219.32,-167.36 230.31,-169.88 241.2,-172.06"/>
<polygon fill="midnightblue" stroke="midnightblue" points="240.67,-175.52 251.15,-173.97 241.99,-168.64 240.67,-175.52"/>
</g>
<!-- Node4 -->
<g id="node4" class="node">
<title>Node4</title>
<g id="a_node4"><a xlink:href="classlocal_1_1connection__handler_1_1LocalConnectionHandler.html#a8f938ae53b3c24bbdc02f377671cf263" target="_top" xlink:title=" ">
<polygon fill="white" stroke="black" points="214,-124.5 214,-154.5 425,-154.5 425,-124.5 214,-124.5"/>
<text text-anchor="start" x="222" y="-142.5" font-family="Helvetica,sans-Serif" font-size="10.00">local.connection_handler.</text>
<text text-anchor="middle" x="319.5" y="-131.5" font-family="Helvetica,sans-Serif" font-size="10.00">LocalConnectionHandler.controller_data</text>
</a>
</g>
</g>
<!-- Node1&#45;&gt;Node4 -->
<g id="edge3" class="edge">
<title>Node1&#45;&gt;Node4</title>
<path fill="none" stroke="midnightblue" d="M173.19,-125.66C183.11,-126.61 193.34,-127.58 203.57,-128.55"/>
<polygon fill="midnightblue" stroke="midnightblue" points="203.49,-132.06 213.78,-129.53 204.16,-125.09 203.49,-132.06"/>
</g>
<!-- Node5 -->
<g id="node5" class="node">
<title>Node5</title>
<g id="a_node5"><a xlink:href="namespaceklyqa__ctl_1_1general_1_1general.html#a2c729589c8f5ab77e718bb060d26425d" target="_top" xlink:title=" ">
<polygon fill="white" stroke="black" points="221,-86 221,-105 418,-105 418,-86 221,-86"/>
<text text-anchor="middle" x="319.5" y="-93" font-family="Helvetica,sans-Serif" font-size="10.00">klyqa_ctl.general.general.format_uid</text>
</a>
</g>
</g>
<!-- Node1&#45;&gt;Node5 -->
<g id="edge4" class="edge">
<title>Node1&#45;&gt;Node5</title>
<path fill="none" stroke="midnightblue" d="M173.19,-109.34C185.45,-108.17 198.19,-106.96 210.8,-105.76"/>
<polygon fill="midnightblue" stroke="midnightblue" points="211.26,-109.23 220.88,-104.8 210.59,-102.26 211.26,-109.23"/>
</g>
<!-- Node6 -->
<g id="node6" class="node">
<title>Node6</title>
<g id="a_node6"><a xlink:href="classcloud_1_1CloudBackend.html#a890d2669fa6b9550af8e14a17413aea2" target="_top" xlink:title=" ">
<polygon fill="white" stroke="black" points="242,-48 242,-67 397,-67 397,-48 242,-48"/>
<text text-anchor="middle" x="319.5" y="-55" font-family="Helvetica,sans-Serif" font-size="10.00">cloud.CloudBackend.request</text>
</a>
</g>
</g>
<!-- Node1&#45;&gt;Node6 -->
<g id="edge5" class="edge">
<title>Node1&#45;&gt;Node6</title>
<path fill="none" stroke="midnightblue" d="M112.3,-107.88C136.62,-98.74 174.91,-85.16 209,-76.5 220.14,-73.67 232.02,-71.13 243.7,-68.9"/>
<polygon fill="midnightblue" stroke="midnightblue" points="244.68,-72.28 253.88,-67.02 243.41,-65.39 244.68,-72.28"/>
</g>
<!-- Node9 -->
<g id="node9" class="node">
<title>Node9</title>
<g id="a_node9"><a xlink:href="namespaceklyqa__ctl_1_1general_1_1general.html#ad6b753e482e539892c57f8144cf213cb" target="_top" xlink:title=" ">
<polygon fill="white" stroke="black" points="466,-0.5 466,-30.5 630,-30.5 630,-0.5 466,-0.5"/>
<text text-anchor="start" x="474" y="-18.5" font-family="Helvetica,sans-Serif" font-size="10.00">klyqa_ctl.general.general.task</text>
<text text-anchor="middle" x="548" y="-7.5" font-family="Helvetica,sans-Serif" font-size="10.00">_log_trace_ex</text>
</a>
</g>
</g>
<!-- Node1&#45;&gt;Node9 -->
<g id="edge12" class="edge">
<title>Node1&#45;&gt;Node9</title>
<path fill="none" stroke="midnightblue" d="M98.21,-107.75C118.22,-90.2 163.42,-53.72 209,-38.5 289.43,-11.65 386.46,-7.75 455.88,-9.46"/>
<polygon fill="midnightblue" stroke="midnightblue" points="455.83,-12.96 465.92,-9.75 456.03,-5.96 455.83,-12.96"/>
</g>
<!-- Node7 -->
<g id="node7" class="node">
<title>Node7</title>
<g id="a_node7"><a xlink:href="classcloud_1_1CloudBackend.html#af39d1bfe4ff58db5af7f373b7ca965a0" target="_top" xlink:title=" ">
<polygon fill="white" stroke="black" points="481,-88.5 481,-118.5 615,-118.5 615,-88.5 481,-88.5"/>
<text text-anchor="start" x="489" y="-106.5" font-family="Helvetica,sans-Serif" font-size="10.00">cloud.CloudBackend.get</text>
<text text-anchor="middle" x="548" y="-95.5" font-family="Helvetica,sans-Serif" font-size="10.00">_header_default</text>
</a>
</g>
</g>
<!-- Node6&#45;&gt;Node7 -->
<g id="edge6" class="edge">
<title>Node6&#45;&gt;Node7</title>
<path fill="none" stroke="midnightblue" d="M378.86,-67.01C395.42,-69.88 413.45,-73.16 430,-76.5 444.44,-79.42 459.83,-82.78 474.54,-86.13"/>
<polygon fill="midnightblue" stroke="midnightblue" points="474.07,-89.61 484.6,-88.43 475.63,-82.78 474.07,-89.61"/>
</g>
<!-- Node8 -->
<g id="node8" class="node">
<title>Node8</title>
<g id="a_node8"><a xlink:href="classcloud_1_1CloudBackend.html#ac4e934fc6667245f1a6fde13e5ab089e" target="_top" xlink:title=" ">
<polygon fill="white" stroke="black" points="478.5,-50 478.5,-69 617.5,-69 617.5,-50 478.5,-50"/>
<text text-anchor="middle" x="548" y="-57" font-family="Helvetica,sans-Serif" font-size="10.00">cloud.CloudBackend.host</text>
</a>
</g>
</g>
<!-- Node6&#45;&gt;Node8 -->
<g id="edge7" class="edge">
<title>Node6&#45;&gt;Node8</title>
<path fill="none" stroke="midnightblue" d="M397.18,-58.18C420.1,-58.38 445.26,-58.6 468.3,-58.81"/>
<polygon fill="midnightblue" stroke="midnightblue" points="468.35,-62.31 478.38,-58.89 468.41,-55.31 468.35,-62.31"/>
</g>
<!-- Node6&#45;&gt;Node9 -->
<g id="edge8" class="edge">
<title>Node6&#45;&gt;Node9</title>
<path fill="none" stroke="midnightblue" d="M371.9,-47.97C396.77,-43.36 427.37,-37.68 456.01,-32.37"/>
<polygon fill="midnightblue" stroke="midnightblue" points="456.85,-35.78 466.04,-30.51 455.57,-28.89 456.85,-35.78"/>
</g>
<!-- Node10 -->
<g id="node10" class="node">
<title>Node10</title>
<g id="a_node10"><a xlink:href="namespaceklyqa__ctl_1_1general_1_1general.html#ab2f9a22e98cd16d0d284d22382cfcb02" target="_top" xlink:title=" ">
<polygon fill="white" stroke="black" points="666,-0.5 666,-30.5 830,-30.5 830,-0.5 666,-0.5"/>
<text text-anchor="start" x="674" y="-18.5" font-family="Helvetica,sans-Serif" font-size="10.00">klyqa_ctl.general.general.task</text>
<text text-anchor="middle" x="748" y="-7.5" font-family="Helvetica,sans-Serif" font-size="10.00">_log_trace</text>
</a>
</g>
</g>
<!-- Node9&#45;&gt;Node10 -->
<g id="edge9" class="edge">
<title>Node9&#45;&gt;Node10</title>
<path fill="none" stroke="midnightblue" d="M630.11,-15.5C638.46,-15.5 646.99,-15.5 655.44,-15.5"/>
<polygon fill="midnightblue" stroke="midnightblue" points="655.7,-19 665.7,-15.5 655.7,-12 655.7,-19"/>
</g>
<!-- Node11 -->
<g id="node11" class="node">
<title>Node11</title>
<g id="a_node11"><a xlink:href="namespaceklyqa__ctl_1_1general_1_1general.html#a9df3b50dfc0fcc7c8ec991bb9be9c5ba" target="_top" xlink:title=" ">
<polygon fill="white" stroke="black" points="866,-6 866,-25 1051,-25 1051,-6 866,-6"/>
<text text-anchor="middle" x="958.5" y="-13" font-family="Helvetica,sans-Serif" font-size="10.00">klyqa_ctl.general.general.task_log</text>
</a>
</g>
</g>
<!-- Node10&#45;&gt;Node11 -->
<g id="edge10" class="edge">
<title>Node10&#45;&gt;Node11</title>
<path fill="none" stroke="midnightblue" d="M830.21,-15.5C838.59,-15.5 847.18,-15.5 855.75,-15.5"/>
<polygon fill="midnightblue" stroke="midnightblue" points="855.79,-19 865.79,-15.5 855.79,-12 855.79,-19"/>
</g>
<!-- Node12 -->
<g id="node12" class="node">
<title>Node12</title>
<g id="a_node12"><a xlink:href="namespaceklyqa__ctl_1_1general_1_1general.html#aea905150cafee39fa2ca211f1e60f012" target="_top" xlink:title=" ">
<polygon fill="white" stroke="black" points="1087,-6 1087,-25 1284,-25 1284,-6 1087,-6"/>
<text text-anchor="middle" x="1185.5" y="-13" font-family="Helvetica,sans-Serif" font-size="10.00">klyqa_ctl.general.general.task_name</text>
</a>
</g>
</g>
<!-- Node11&#45;&gt;Node12 -->
<g id="edge11" class="edge">
<title>Node11&#45;&gt;Node12</title>
<path fill="none" stroke="midnightblue" d="M1051.02,-15.5C1059.5,-15.5 1068.15,-15.5 1076.76,-15.5"/>
<polygon fill="midnightblue" stroke="midnightblue" points="1076.83,-19 1086.83,-15.5 1076.83,-12 1076.83,-19"/>
</g>
</g>
</svg>
