<?xml version="1.0" encoding="UTF-8" standalone="no"?>
<!DOCTYPE svg PUBLIC "-//W3C//DTD SVG 1.1//EN"
 "http://www.w3.org/Graphics/SVG/1.1/DTD/svg11.dtd">
<!-- Generated by graphviz version 2.43.0 (0)
 -->
<!-- Title: klyqa_ctl.devices.cloud_state.DeviceCloudState.connected Pages: 1 -->
<svg width="651pt" height="61pt"
 viewBox="0.00 0.00 651.00 61.00" xmlns="http://www.w3.org/2000/svg" xmlns:xlink="http://www.w3.org/1999/xlink">
<g id="graph0" class="graph" transform="scale(1 1) rotate(0) translate(4 57)">
<title>klyqa_ctl.devices.cloud_state.DeviceCloudState.connected</title>
<polygon fill="white" stroke="transparent" points="-4,4 -4,-57 647,-57 647,4 -4,4"/>
<!-- Node1 -->
<g id="node1" class="node">
<title>Node1</title>
<g id="a_node1"><a xlink:title=" ">
<polygon fill="#bfbfbf" stroke="black" points="453,-22.5 453,-52.5 643,-52.5 643,-22.5 453,-22.5"/>
<text text-anchor="start" x="461" y="-40.5" font-family="Helvetica,sans-Serif" font-size="10.00">klyqa_ctl.devices.cloud</text>
<text text-anchor="middle" x="548" y="-29.5" font-family="Helvetica,sans-Serif" font-size="10.00">_state.DeviceCloudState.connected</text>
</a>
</g>
</g>
<!-- Node2 -->
<g id="node2" class="node">
<title>Node2</title>
<g id="a_node2"><a xlink:href="classklyqa__ctl_1_1devices_1_1vacuum_1_1response__status_1_1ResponseStatus.html#ae51c559746d7c53de2920374a1d8e7df" target="_top" xlink:title=" ">
<polygon fill="white" stroke="black" points="0,-22.5 0,-52.5 191,-52.5 191,-22.5 0,-22.5"/>
<text text-anchor="start" x="8" y="-40.5" font-family="Helvetica,sans-Serif" font-size="10.00">klyqa_ctl.devices.vacuum.response</text>
<text text-anchor="middle" x="95.5" y="-29.5" font-family="Helvetica,sans-Serif" font-size="10.00">_status.ResponseStatus.__init__</text>
</a>
</g>
</g>
<!-- Node1&#45;&gt;Node2 -->
<g id="edge1" class="edge">
<title>Node1&#45;&gt;Node2</title>
<path fill="none" stroke="midnightblue" d="M442.71,-40.12C434.01,-40.27 425.36,-40.4 417,-40.5 332.56,-41.47 311.44,-41.47 227,-40.5 215.44,-40.37 203.31,-40.17 191.29,-39.93"/>
<polygon fill="midnightblue" stroke="midnightblue" points="442.99,-43.61 452.92,-39.93 442.86,-36.62 442.99,-43.61"/>
</g>
<!-- Node3 -->
<g id="node3" class="node">
<title>Node3</title>
<g id="a_node3"><a xlink:href="classklyqa__ctl_1_1devices_1_1cloud__state_1_1DeviceCloudState.html#abb28bd22c9e7885d2ad5057ec29fbc3b" target="_top" xlink:title=" ">
<polygon fill="white" stroke="black" points="227,-0.5 227,-30.5 417,-30.5 417,-0.5 227,-0.5"/>
<text text-anchor="start" x="235" y="-18.5" font-family="Helvetica,sans-Serif" font-size="10.00">klyqa_ctl.devices.cloud</text>
<text text-anchor="middle" x="322" y="-7.5" font-family="Helvetica,sans-Serif" font-size="10.00">_state.DeviceCloudState.connected</text>
</a>
</g>
</g>
<!-- Node1&#45;&gt;Node3 -->
<g id="edge2" class="edge">
<title>Node1&#45;&gt;Node3</title>
<path fill="none" stroke="midnightblue" d="M442.92,-27.28C434.32,-26.43 425.66,-25.58 417.14,-24.75"/>
<polygon fill="midnightblue" stroke="midnightblue" points="442.68,-30.77 452.98,-28.27 443.37,-23.8 442.68,-30.77"/>
</g>
<!-- Node3&#45;&gt;Node2 -->
<g id="edge3" class="edge">
<title>Node3&#45;&gt;Node2</title>
<path fill="none" stroke="midnightblue" d="M216.79,-25.71C208.26,-26.55 199.67,-27.39 191.21,-28.22"/>
<polygon fill="midnightblue" stroke="midnightblue" points="217.16,-29.19 226.77,-24.73 216.47,-22.23 217.16,-29.19"/>
</g>
</g>
</svg>
