<?xml version="1.0" encoding="UTF-8" standalone="no"?>
<!DOCTYPE svg PUBLIC "-//W3C//DTD SVG 1.1//EN"
 "http://www.w3.org/Graphics/SVG/1.1/DTD/svg11.dtd">
<!-- Generated by graphviz version 2.43.0 (0)
 -->
<!-- Title: local.connection_handler.LocalConnectionHandler.device_handle_local_tcp Pages: 1 -->
<!--zoomable 755 -->
<svg id="main" version="1.1" xmlns="http://www.w3.org/2000/svg" xmlns:xlink="http://www.w3.org/1999/xlink" xml:space="preserve" onload="init(evt)">
<style type="text/css"><![CDATA[
.edge:hover path { stroke: red; }
.edge:hover polygon { stroke: red; fill: red; }
]]></style>
<script type="text/javascript"><![CDATA[
var edges = document.getElementsByTagName('g');
if (edges && edges.length) {
  for (var i=0;i<edges.length;i++) {
    if (edges[i].id.substr(0,4)=='edge') {
      edges[i].setAttribute('class','edge');
    }
  }
}
]]></script>
        <defs>
                <circle id="rim" cx="0" cy="0" r="7"/>
                <circle id="rim2" cx="0" cy="0" r="3.5"/>
                <g id="zoomPlus">
                        <use xlink:href="#rim" fill="#404040">
                                <set attributeName="fill" to="#808080" begin="zoomplus.mouseover" end="zoomplus.mouseout"/>
                        </use>
                        <path d="M-4,0h8M0,-4v8" fill="none" stroke="white" stroke-width="1.5" pointer-events="none"/>
                </g>
                <g id="zoomMin">
                        <use xlink:href="#rim" fill="#404040">
                                <set attributeName="fill" to="#808080" begin="zoomminus.mouseover" end="zoomminus.mouseout"/>
                        </use>
                        <path d="M-4,0h8" fill="none" stroke="white" stroke-width="1.5" pointer-events="none"/>
                </g>
                <g id="dirArrow">
                        <path fill="none" stroke="white" stroke-width="1.5" d="M0,-3.0v7 M-2.5,-0.5L0,-3.0L2.5,-0.5"/>
                </g>
               <g id="resetDef">
                       <use xlink:href="#rim2" fill="#404040">
                               <set attributeName="fill" to="#808080" begin="reset.mouseover" end="reset.mouseout"/>
                       </use>
               </g>
        </defs>

<script type="text/javascript">
var viewWidth = 1519;
var viewHeight = 755;
var sectionId = 'dynsection-17';
</script>
<script xlink:href="svgpan.js"/>
<svg id="graph" class="graph">
<g id="viewport">
<title>local.connection_handler.LocalConnectionHandler.device_handle_local_tcp</title>
<polygon fill="white" stroke="transparent" points="-4,4 -4,-750.5 1515,-750.5 1515,4 -4,4"/>
<!-- Node1 -->
<g id="node1" class="node">
<title>Node1</title>
<g id="a_node1"><a xlink:title=" ">
<polygon fill="#bfbfbf" stroke="black" points="0,-317 0,-358 170,-358 170,-317 0,-317"/>
<text text-anchor="start" x="8" y="-346" font-family="Helvetica,sans-Serif" font-size="10.00">local.connection_handler.</text>
<text text-anchor="start" x="8" y="-335" font-family="Helvetica,sans-Serif" font-size="10.00">LocalConnectionHandler.device</text>
<text text-anchor="middle" x="85" y="-324" font-family="Helvetica,sans-Serif" font-size="10.00">_handle_local_tcp</text>
</a>
</g>
</g>
<!-- Node2 -->
<g id="node2" class="node">
<title>Node2</title>
<g id="a_node2"><a xlink:href="classlocal_1_1connection__handler_1_1LocalConnectionHandler.html#a7e5e94d8da70d86c87eba78bcde9ff42" target="_top" xlink:title=" ">
<polygon fill="white" stroke="black" points="206,-705 206,-746 378,-746 378,-705 206,-705"/>
<text text-anchor="start" x="214" y="-734" font-family="Helvetica,sans-Serif" font-size="10.00">local.connection_handler.</text>
<text text-anchor="start" x="214" y="-723" font-family="Helvetica,sans-Serif" font-size="10.00">LocalConnectionHandler.current</text>
<text text-anchor="middle" x="292" y="-712" font-family="Helvetica,sans-Serif" font-size="10.00">_addr_connections</text>
</a>
</g>
</g>
<!-- Node1&#45;&gt;Node2 -->
<g id="edge1" class="edge">
<title>Node1&#45;&gt;Node2</title>
<path fill="none" stroke="midnightblue" d="M87.25,-358.42C91.91,-418.18 113.17,-591.64 206,-690.5 208.95,-693.64 212.22,-696.51 215.72,-699.13"/>
<polygon fill="midnightblue" stroke="midnightblue" points="213.96,-702.16 224.23,-704.79 217.84,-696.34 213.96,-702.16"/>
</g>
<!-- Node3 -->
<g id="node3" class="node">
<title>Node3</title>
<g id="a_node3"><a xlink:href="classklyqa__ctl_1_1account_1_1Account.html#a2265c38daf6829c96c852ad4a288b42d" target="_top" xlink:title=" ">
<polygon fill="white" stroke="black" points="854,-717 854,-736 1039,-736 1039,-717 854,-717"/>
<text text-anchor="middle" x="946.5" y="-724" font-family="Helvetica,sans-Serif" font-size="10.00">klyqa_ctl.account.Account.devices</text>
</a>
</g>
</g>
<!-- Node1&#45;&gt;Node3 -->
<g id="edge2" class="edge">
<title>Node1&#45;&gt;Node3</title>
<path fill="none" stroke="midnightblue" d="M92.98,-358.16C107.55,-398.25 145.03,-486.89 206,-535.5 394.76,-686.01 689.07,-719.04 843.32,-725.57"/>
<polygon fill="midnightblue" stroke="midnightblue" points="843.6,-729.08 853.73,-725.98 843.87,-722.09 843.6,-729.08"/>
</g>
<!-- Node4 -->
<g id="node4" class="node">
<title>Node4</title>
<g id="a_node4"><a xlink:href="classlocal_1_1connection__handler_1_1LocalConnectionHandler.html#a4d307f6bd0b66f3cb9fac3057fc87972" target="_top" xlink:title=" ">
<polygon fill="white" stroke="black" points="859,-667.5 859,-697.5 1034,-697.5 1034,-667.5 859,-667.5"/>
<text text-anchor="start" x="867" y="-685.5" font-family="Helvetica,sans-Serif" font-size="10.00">local.connection_handler.</text>
<text text-anchor="middle" x="946.5" y="-674.5" font-family="Helvetica,sans-Serif" font-size="10.00">LocalConnectionHandler.devices</text>
</a>
</g>
</g>
<!-- Node1&#45;&gt;Node4 -->
<g id="edge3" class="edge">
<title>Node1&#45;&gt;Node4</title>
<path fill="none" stroke="midnightblue" d="M97.71,-358.23C116.63,-390 156.81,-450.79 206,-486.5 309.07,-561.31 672.72,-634.03 848.69,-665.81"/>
<polygon fill="midnightblue" stroke="midnightblue" points="848.26,-669.29 858.72,-667.61 849.5,-662.4 848.26,-669.29"/>
</g>
<!-- Node5 -->
<g id="node5" class="node">
<title>Node5</title>
<g id="a_node5"><a xlink:href="classklyqa__ctl_1_1controller__data_1_1ControllerData.html#adf7af423388a9a883c428cf71e217650" target="_top" xlink:title=" ">
<polygon fill="white" stroke="black" points="867.5,-618.5 867.5,-648.5 1025.5,-648.5 1025.5,-618.5 867.5,-618.5"/>
<text text-anchor="start" x="875.5" y="-636.5" font-family="Helvetica,sans-Serif" font-size="10.00">klyqa_ctl.controller</text>
<text text-anchor="middle" x="946.5" y="-625.5" font-family="Helvetica,sans-Serif" font-size="10.00">_data.ControllerData.devices</text>
</a>
</g>
</g>
<!-- Node1&#45;&gt;Node5 -->
<g id="edge4" class="edge">
<title>Node1&#45;&gt;Node5</title>
<path fill="none" stroke="midnightblue" d="M107.99,-358.39C131.02,-379.43 168.92,-411.81 206,-433.5 419.29,-558.26 712.49,-607.27 857.27,-624.77"/>
<polygon fill="midnightblue" stroke="midnightblue" points="857.09,-628.28 867.44,-625.98 857.92,-621.33 857.09,-628.28"/>
</g>
<!-- Node6 -->
<g id="node6" class="node">
<title>Node6</title>
<g id="a_node6"><a xlink:href="classklyqa__ctl_1_1klyqa__ctl_1_1Client.html#ab6e5eda10fb712850c3fb311fd1cd4a0" target="_top" xlink:title=" ">
<polygon fill="white" stroke="black" points="856.5,-580 856.5,-599 1036.5,-599 1036.5,-580 856.5,-580"/>
<text text-anchor="middle" x="946.5" y="-587" font-family="Helvetica,sans-Serif" font-size="10.00">klyqa_ctl.klyqa_ctl.Client.devices</text>
</a>
</g>
</g>
<!-- Node1&#45;&gt;Node6 -->
<g id="edge5" class="edge">
<title>Node1&#45;&gt;Node6</title>
<path fill="none" stroke="midnightblue" d="M138.23,-358.09C159.26,-366.35 183.77,-375.93 206,-384.5 391.84,-456.15 432.14,-493.72 625,-543.5 697.98,-562.34 782.43,-574.06 846.31,-580.96"/>
<polygon fill="midnightblue" stroke="midnightblue" points="846.07,-584.45 856.38,-582.02 846.81,-577.49 846.07,-584.45"/>
</g>
<!-- Node7 -->
<g id="node7" class="node">
<title>Node7</title>
<g id="a_node7"><a xlink:href="classconnection__handler_1_1ConnectionHandler.html#aace4dd2e9f17d3fbb198e81fbf2019dd" target="_top" xlink:title=" ">
<polygon fill="white" stroke="black" points="207.5,-0.5 207.5,-30.5 376.5,-30.5 376.5,-0.5 207.5,-0.5"/>
<text text-anchor="start" x="215.5" y="-18.5" font-family="Helvetica,sans-Serif" font-size="10.00">connection_handler.Connection</text>
<text text-anchor="middle" x="292" y="-7.5" font-family="Helvetica,sans-Serif" font-size="10.00">Handler.handle_connection</text>
</a>
</g>
</g>
<!-- Node1&#45;&gt;Node7 -->
<g id="edge6" class="edge">
<title>Node1&#45;&gt;Node7</title>
<path fill="none" stroke="midnightblue" d="M88.64,-316.95C96.47,-264.28 124.37,-123.1 206,-45.5 210.04,-41.66 214.6,-38.31 219.46,-35.38"/>
<polygon fill="midnightblue" stroke="midnightblue" points="221.31,-38.36 228.48,-30.56 218.02,-32.18 221.31,-38.36"/>
</g>
<!-- Node8 -->
<g id="node8" class="node">
<title>Node8</title>
<g id="a_node8"><a xlink:href="classlocal_1_1connection__handler_1_1LocalConnectionHandler.html#a900e05554022ee9ecb3ba5621369016d" target="_top" xlink:title=" ">
<polygon fill="white" stroke="black" points="207,-236 207,-277 377,-277 377,-236 207,-236"/>
<text text-anchor="start" x="215" y="-265" font-family="Helvetica,sans-Serif" font-size="10.00">local.connection_handler.</text>
<text text-anchor="start" x="215" y="-254" font-family="Helvetica,sans-Serif" font-size="10.00">LocalConnectionHandler.handle</text>
<text text-anchor="middle" x="292" y="-243" font-family="Helvetica,sans-Serif" font-size="10.00">_connection</text>
</a>
</g>
</g>
<!-- Node1&#45;&gt;Node8 -->
<g id="edge7" class="edge">
<title>Node1&#45;&gt;Node8</title>
<path fill="none" stroke="midnightblue" d="M138,-316.96C165.81,-305.97 200.24,-292.36 229.39,-280.84"/>
<polygon fill="midnightblue" stroke="midnightblue" points="231.05,-283.95 239.06,-277.02 228.47,-277.44 231.05,-283.95"/>
</g>
<!-- Node11 -->
<g id="node11" class="node">
<title>Node11</title>
<g id="a_node11"><a xlink:href="namespaceklyqa__ctl_1_1general_1_1general.html#a9df3b50dfc0fcc7c8ec991bb9be9c5ba" target="_top" xlink:title=" ">
<polygon fill="white" stroke="black" points="1093,-233 1093,-252 1278,-252 1278,-233 1093,-233"/>
<text text-anchor="middle" x="1185.5" y="-240" font-family="Helvetica,sans-Serif" font-size="10.00">klyqa_ctl.general.general.task_log</text>
</a>
</g>
</g>
<!-- Node1&#45;&gt;Node11 -->
<g id="edge35" class="edge">
<title>Node1&#45;&gt;Node11</title>
<path fill="none" stroke="midnightblue" d="M89.36,-316.85C98.41,-268.61 128.08,-148.47 206,-93.5 313.67,-17.55 368.74,-59.5 500.5,-59.5 500.5,-59.5 500.5,-59.5 713.5,-59.5 866.57,-59.5 921.39,-13.51 1057,-84.5 1116.97,-115.89 1158.72,-189.1 1175.83,-223.72"/>
<polygon fill="midnightblue" stroke="midnightblue" points="1172.69,-225.27 1180.17,-232.77 1179,-222.24 1172.69,-225.27"/>
</g>
<!-- Node13 -->
<g id="node13" class="node">
<title>Node13</title>
<g id="a_node13"><a xlink:href="namespaceklyqa__ctl_1_1general_1_1general.html#a1afe30a73cc28a3b65babeeab27e36c8" target="_top" xlink:title=" ">
<polygon fill="white" stroke="black" points="864.5,-366.5 864.5,-396.5 1028.5,-396.5 1028.5,-366.5 864.5,-366.5"/>
<text text-anchor="start" x="872.5" y="-384.5" font-family="Helvetica,sans-Serif" font-size="10.00">klyqa_ctl.general.general.task</text>
<text text-anchor="middle" x="946.5" y="-373.5" font-family="Helvetica,sans-Serif" font-size="10.00">_log_debug</text>
</a>
</g>
</g>
<!-- Node1&#45;&gt;Node13 -->
<g id="edge36" class="edge">
<title>Node1&#45;&gt;Node13</title>
<path fill="none" stroke="midnightblue" d="M170.26,-353.31C303.72,-376.47 571.98,-415.33 800,-400.5 817.7,-399.35 836.53,-397.42 854.56,-395.22"/>
<polygon fill="midnightblue" stroke="midnightblue" points="855.01,-398.69 864.49,-393.97 854.13,-391.75 855.01,-398.69"/>
</g>
<!-- Node19 -->
<g id="node19" class="node">
<title>Node19</title>
<g id="a_node19"><a xlink:href="classlocal_1_1connection__handler_1_1LocalConnectionHandler.html#a34b95b45332382bb830a3f1277878268" target="_top" xlink:title=" ">
<polygon fill="white" stroke="black" points="414,-187 414,-228 589,-228 589,-187 414,-187"/>
<text text-anchor="start" x="422" y="-216" font-family="Helvetica,sans-Serif" font-size="10.00">local.connection_handler.</text>
<text text-anchor="start" x="422" y="-205" font-family="Helvetica,sans-Serif" font-size="10.00">LocalConnectionHandler.remove</text>
<text text-anchor="middle" x="501.5" y="-194" font-family="Helvetica,sans-Serif" font-size="10.00">_msg_from_queue</text>
</a>
</g>
</g>
<!-- Node1&#45;&gt;Node19 -->
<g id="edge34" class="edge">
<title>Node1&#45;&gt;Node19</title>
<path fill="none" stroke="midnightblue" d="M101.08,-316.62C121.49,-290.26 160.62,-245.98 206,-226.5 268.09,-199.85 344.35,-195.62 403.72,-197.77"/>
<polygon fill="midnightblue" stroke="midnightblue" points="403.7,-201.28 413.85,-198.21 404.01,-194.28 403.7,-201.28"/>
</g>
<!-- Node20 -->
<g id="node20" class="node">
<title>Node20</title>
<g id="a_node20"><a xlink:href="namespaceklyqa__ctl_1_1general_1_1general.html#ad6b753e482e539892c57f8144cf213cb" target="_top" xlink:title=" ">
<polygon fill="white" stroke="black" points="419.5,-137.5 419.5,-167.5 583.5,-167.5 583.5,-137.5 419.5,-137.5"/>
<text text-anchor="start" x="427.5" y="-155.5" font-family="Helvetica,sans-Serif" font-size="10.00">klyqa_ctl.general.general.task</text>
<text text-anchor="middle" x="501.5" y="-144.5" font-family="Helvetica,sans-Serif" font-size="10.00">_log_trace_ex</text>
</a>
</g>
</g>
<!-- Node1&#45;&gt;Node20 -->
<g id="edge39" class="edge">
<title>Node1&#45;&gt;Node20</title>
<path fill="none" stroke="midnightblue" d="M96.52,-316.74C114.23,-284.17 153.3,-221.79 206,-192.5 267.95,-158.07 348.2,-149.07 409.28,-148.13"/>
<polygon fill="midnightblue" stroke="midnightblue" points="409.33,-151.63 419.3,-148.04 409.27,-144.63 409.33,-151.63"/>
</g>
<!-- Node22 -->
<g id="node22" class="node">
<title>Node22</title>
<g id="a_node22"><a xlink:href="namespaceklyqa__ctl_1_1general_1_1general.html#abab49b300927a080244615ee3ab494e3" target="_top" xlink:title=" ">
<polygon fill="white" stroke="black" points="419.5,-88.5 419.5,-118.5 583.5,-118.5 583.5,-88.5 419.5,-88.5"/>
<text text-anchor="start" x="427.5" y="-106.5" font-family="Helvetica,sans-Serif" font-size="10.00">klyqa_ctl.general.general.task</text>
<text text-anchor="middle" x="501.5" y="-95.5" font-family="Helvetica,sans-Serif" font-size="10.00">_log_error</text>
</a>
</g>
</g>
<!-- Node1&#45;&gt;Node22 -->
<g id="edge37" class="edge">
<title>Node1&#45;&gt;Node22</title>
<path fill="none" stroke="midnightblue" d="M92.35,-316.8C105.94,-276.37 141.92,-187.2 206,-145.5 265.97,-106.47 347.28,-97.39 409.27,-97.26"/>
<polygon fill="midnightblue" stroke="midnightblue" points="409.41,-100.76 419.43,-97.32 409.46,-93.76 409.41,-100.76"/>
</g>
<!-- Node9 -->
<g id="node9" class="node">
<title>Node9</title>
<g id="a_node9"><a xlink:href="classlocal_1_1connection__handler_1_1LocalConnectionHandler.html#aaa28266e241c2e30e8acd468fab06fde" target="_top" xlink:title=" ">
<polygon fill="white" stroke="black" points="414,-290 414,-331 589,-331 589,-290 414,-290"/>
<text text-anchor="start" x="422" y="-319" font-family="Helvetica,sans-Serif" font-size="10.00">local.connection_handler.</text>
<text text-anchor="start" x="422" y="-308" font-family="Helvetica,sans-Serif" font-size="10.00">LocalConnectionHandler.process</text>
<text text-anchor="middle" x="501.5" y="-297" font-family="Helvetica,sans-Serif" font-size="10.00">_tcp_package</text>
</a>
</g>
</g>
<!-- Node8&#45;&gt;Node9 -->
<g id="edge8" class="edge">
<title>Node8&#45;&gt;Node9</title>
<path fill="none" stroke="midnightblue" d="M372.04,-277.07C385,-280.44 398.5,-283.96 411.68,-287.39"/>
<polygon fill="midnightblue" stroke="midnightblue" points="411.12,-290.86 421.68,-289.99 412.88,-284.08 411.12,-290.86"/>
</g>
<!-- Node8&#45;&gt;Node11 -->
<g id="edge30" class="edge">
<title>Node8&#45;&gt;Node11</title>
<path fill="none" stroke="midnightblue" d="M377.17,-253.25C483.89,-249.31 673.57,-242.89 836,-240.5 934.21,-239.05 958.78,-239.73 1057,-240.5 1065.35,-240.57 1074.01,-240.66 1082.71,-240.76"/>
<polygon fill="midnightblue" stroke="midnightblue" points="1082.88,-244.26 1092.92,-240.89 1082.97,-237.26 1082.88,-244.26"/>
</g>
<!-- Node8&#45;&gt;Node19 -->
<g id="edge28" class="edge">
<title>Node8&#45;&gt;Node19</title>
<path fill="none" stroke="midnightblue" d="M377.1,-236.64C386.01,-234.54 395.12,-232.38 404.16,-230.25"/>
<polygon fill="midnightblue" stroke="midnightblue" points="404.99,-233.65 413.92,-227.95 403.38,-226.84 404.99,-233.65"/>
</g>
<!-- Node8&#45;&gt;Node20 -->
<g id="edge31" class="edge">
<title>Node8&#45;&gt;Node20</title>
<path fill="none" stroke="midnightblue" d="M319.52,-235.85C343.18,-218.26 379.34,-193.39 414,-177.5 419.06,-175.18 424.39,-173.02 429.81,-171.02"/>
<polygon fill="midnightblue" stroke="midnightblue" points="431.34,-174.2 439.64,-167.6 429.04,-167.58 431.34,-174.2"/>
</g>
<!-- Node10 -->
<g id="node10" class="node">
<title>Node10</title>
<g id="a_node10"><a xlink:href="classlocal_1_1connection__handler_1_1LocalConnectionHandler.html#ad1b4bfaedd513acfccbf1b12e36d5469" target="_top" xlink:title=" ">
<polygon fill="white" stroke="black" points="625,-290 625,-331 800,-331 800,-290 625,-290"/>
<text text-anchor="start" x="633" y="-319" font-family="Helvetica,sans-Serif" font-size="10.00">local.connection_handler.</text>
<text text-anchor="start" x="633" y="-308" font-family="Helvetica,sans-Serif" font-size="10.00">LocalConnectionHandler.process</text>
<text text-anchor="middle" x="712.5" y="-297" font-family="Helvetica,sans-Serif" font-size="10.00">_aes_initial_vector_package</text>
</a>
</g>
</g>
<!-- Node9&#45;&gt;Node10 -->
<g id="edge9" class="edge">
<title>Node9&#45;&gt;Node10</title>
<path fill="none" stroke="midnightblue" d="M589.02,-310.5C597.49,-310.5 606.13,-310.5 614.7,-310.5"/>
<polygon fill="midnightblue" stroke="midnightblue" points="614.71,-314 624.71,-310.5 614.71,-307 614.71,-314"/>
</g>
<!-- Node9&#45;&gt;Node11 -->
<g id="edge27" class="edge">
<title>Node9&#45;&gt;Node11</title>
<path fill="none" stroke="midnightblue" d="M577.56,-289.96C593.15,-286.3 609.53,-282.9 625,-280.5 783.6,-255.88 969.95,-247.21 1082.54,-244.16"/>
<polygon fill="midnightblue" stroke="midnightblue" points="1082.97,-247.65 1092.87,-243.89 1082.78,-240.65 1082.97,-247.65"/>
</g>
<!-- Node14 -->
<g id="node14" class="node">
<title>Node14</title>
<g id="a_node14"><a xlink:href="classlocal_1_1connection__handler_1_1LocalConnectionHandler.html#a4ce11db96280d000941a91cb37df2842" target="_top" xlink:title=" ">
<polygon fill="white" stroke="black" points="625,-493 625,-534 800,-534 800,-493 625,-493"/>
<text text-anchor="start" x="633" y="-522" font-family="Helvetica,sans-Serif" font-size="10.00">local.connection_handler.</text>
<text text-anchor="start" x="633" y="-511" font-family="Helvetica,sans-Serif" font-size="10.00">LocalConnectionHandler.process</text>
<text text-anchor="middle" x="712.5" y="-500" font-family="Helvetica,sans-Serif" font-size="10.00">_device_identity_package</text>
</a>
</g>
</g>
<!-- Node9&#45;&gt;Node14 -->
<g id="edge14" class="edge">
<title>Node9&#45;&gt;Node14</title>
<path fill="none" stroke="midnightblue" d="M523.69,-331.08C561.48,-367.79 640.51,-444.55 683.01,-485.83"/>
<polygon fill="midnightblue" stroke="midnightblue" points="680.64,-488.41 690.25,-492.86 685.52,-483.39 680.64,-488.41"/>
</g>
<!-- Node18 -->
<g id="node18" class="node">
<title>Node18</title>
<g id="a_node18"><a xlink:href="classlocal_1_1connection__handler_1_1LocalConnectionHandler.html#a46f68728bc59f0e5991bc390f67f2685" target="_top" xlink:title=" ">
<polygon fill="white" stroke="black" points="625,-350 625,-391 800,-391 800,-350 625,-350"/>
<text text-anchor="start" x="633" y="-379" font-family="Helvetica,sans-Serif" font-size="10.00">local.connection_handler.</text>
<text text-anchor="start" x="633" y="-368" font-family="Helvetica,sans-Serif" font-size="10.00">LocalConnectionHandler.process</text>
<text text-anchor="middle" x="712.5" y="-357" font-family="Helvetica,sans-Serif" font-size="10.00">_message_answer_package</text>
</a>
</g>
</g>
<!-- Node9&#45;&gt;Node18 -->
<g id="edge24" class="edge">
<title>Node9&#45;&gt;Node18</title>
<path fill="none" stroke="midnightblue" d="M574.13,-331.06C592.16,-336.24 611.65,-341.83 630.11,-347.14"/>
<polygon fill="midnightblue" stroke="midnightblue" points="629.38,-350.57 639.96,-349.96 631.31,-343.84 629.38,-350.57"/>
</g>
<!-- Node10&#45;&gt;Node11 -->
<g id="edge10" class="edge">
<title>Node10&#45;&gt;Node11</title>
<path fill="none" stroke="midnightblue" d="M800.12,-305.33C869.88,-300.28 970.27,-291.05 1057,-275.5 1086.18,-270.27 1118.5,-261.87 1143.3,-254.86"/>
<polygon fill="midnightblue" stroke="midnightblue" points="1144.45,-258.17 1153.09,-252.05 1142.52,-251.44 1144.45,-258.17"/>
</g>
<!-- Node10&#45;&gt;Node13 -->
<g id="edge12" class="edge">
<title>Node10&#45;&gt;Node13</title>
<path fill="none" stroke="midnightblue" d="M780.6,-331.04C814.08,-341.28 854.2,-353.56 886.48,-363.44"/>
<polygon fill="midnightblue" stroke="midnightblue" points="885.65,-366.84 896.24,-366.42 887.7,-360.15 885.65,-366.84"/>
</g>
<!-- Node12 -->
<g id="node12" class="node">
<title>Node12</title>
<g id="a_node12"><a xlink:href="namespaceklyqa__ctl_1_1general_1_1general.html#aea905150cafee39fa2ca211f1e60f012" target="_top" xlink:title=" ">
<polygon fill="white" stroke="black" points="1314,-233 1314,-252 1511,-252 1511,-233 1314,-233"/>
<text text-anchor="middle" x="1412.5" y="-240" font-family="Helvetica,sans-Serif" font-size="10.00">klyqa_ctl.general.general.task_name</text>
</a>
</g>
</g>
<!-- Node11&#45;&gt;Node12 -->
<g id="edge11" class="edge">
<title>Node11&#45;&gt;Node12</title>
<path fill="none" stroke="midnightblue" d="M1278.02,-242.5C1286.5,-242.5 1295.15,-242.5 1303.76,-242.5"/>
<polygon fill="midnightblue" stroke="midnightblue" points="1303.83,-246 1313.83,-242.5 1303.83,-239 1303.83,-246"/>
</g>
<!-- Node13&#45;&gt;Node11 -->
<g id="edge13" class="edge">
<title>Node13&#45;&gt;Node11</title>
<path fill="none" stroke="midnightblue" d="M1020.21,-366.43C1032.85,-362.46 1045.59,-357.55 1057,-351.5 1102.8,-327.22 1146.56,-284 1168.96,-259.93"/>
<polygon fill="midnightblue" stroke="midnightblue" points="1171.8,-262.01 1175.97,-252.27 1166.64,-257.28 1171.8,-262.01"/>
</g>
<!-- Node14&#45;&gt;Node3 -->
<g id="edge18" class="edge">
<title>Node14&#45;&gt;Node3</title>
<path fill="none" stroke="midnightblue" d="M725.32,-534.26C752.68,-581.99 819.28,-696.31 836,-707.5 838.94,-709.46 842.01,-711.24 845.19,-712.86"/>
<polygon fill="midnightblue" stroke="midnightblue" points="843.85,-716.09 854.4,-716.97 846.7,-709.7 843.85,-716.09"/>
</g>
<!-- Node14&#45;&gt;Node4 -->
<g id="edge19" class="edge">
<title>Node14&#45;&gt;Node4</title>
<path fill="none" stroke="midnightblue" d="M729.63,-534.03C759.67,-572.04 822.38,-650.29 836,-658.5 840.21,-661.04 844.65,-663.3 849.23,-665.33"/>
<polygon fill="midnightblue" stroke="midnightblue" points="848.25,-668.71 858.83,-669.18 850.85,-662.21 848.25,-668.71"/>
</g>
<!-- Node14&#45;&gt;Node5 -->
<g id="edge20" class="edge">
<title>Node14&#45;&gt;Node5</title>
<path fill="none" stroke="midnightblue" d="M737.4,-534.06C766.69,-558.89 815.02,-598.57 836,-608.5 842.94,-611.78 850.34,-614.65 857.88,-617.15"/>
<polygon fill="midnightblue" stroke="midnightblue" points="856.91,-620.51 867.5,-620.12 858.98,-613.82 856.91,-620.51"/>
</g>
<!-- Node14&#45;&gt;Node6 -->
<g id="edge21" class="edge">
<title>Node14&#45;&gt;Node6</title>
<path fill="none" stroke="midnightblue" d="M768.09,-534C778.81,-538.47 789.87,-543.4 800,-548.5 816.75,-556.93 818.45,-563.89 836,-570.5 843.3,-573.25 851.03,-575.6 858.86,-577.62"/>
<polygon fill="midnightblue" stroke="midnightblue" points="858.28,-581.08 868.82,-580 859.9,-574.27 858.28,-581.08"/>
</g>
<!-- Node14&#45;&gt;Node11 -->
<g id="edge22" class="edge">
<title>Node14&#45;&gt;Node11</title>
<path fill="none" stroke="midnightblue" d="M743.87,-492.88C767.87,-477.54 802.76,-457.29 836,-445.5 930.01,-412.17 971.57,-457.98 1057,-406.5 1116.32,-370.75 1158.39,-296.35 1175.71,-261.4"/>
<polygon fill="midnightblue" stroke="midnightblue" points="1178.92,-262.81 1180.11,-252.28 1172.61,-259.77 1178.92,-262.81"/>
</g>
<!-- Node14&#45;&gt;Node13 -->
<g id="edge23" class="edge">
<title>Node14&#45;&gt;Node13</title>
<path fill="none" stroke="midnightblue" d="M732.77,-492.84C755.38,-469.77 795.02,-432.88 836,-411.5 844.72,-406.95 854.19,-403.04 863.8,-399.68"/>
<polygon fill="midnightblue" stroke="midnightblue" points="865.03,-402.96 873.43,-396.51 862.84,-396.32 865.03,-402.96"/>
</g>
<!-- Node15 -->
<g id="node15" class="node">
<title>Node15</title>
<g id="a_node15"><a xlink:href="classklyqa__ctl_1_1account_1_1Account.html#a7bcb9ac9804621630ea08a688abecd18" target="_top" xlink:title=" ">
<polygon fill="white" stroke="black" points="836,-542 836,-561 1057,-561 1057,-542 836,-542"/>
<text text-anchor="middle" x="946.5" y="-549" font-family="Helvetica,sans-Serif" font-size="10.00">klyqa_ctl.account.Account.controller_data</text>
</a>
</g>
</g>
<!-- Node14&#45;&gt;Node15 -->
<g id="edge15" class="edge">
<title>Node14&#45;&gt;Node15</title>
<path fill="none" stroke="midnightblue" d="M800.22,-527.7C825.67,-531.87 853.13,-536.37 877.26,-540.32"/>
<polygon fill="midnightblue" stroke="midnightblue" points="876.94,-543.82 887.38,-541.98 878.07,-536.91 876.94,-543.82"/>
</g>
<!-- Node16 -->
<g id="node16" class="node">
<title>Node16</title>
<g id="a_node16"><a xlink:href="classcloud_1_1CloudBackend.html#aef174fe1ba95fff13c7901ff56354ec9" target="_top" xlink:title=" ">
<polygon fill="white" stroke="black" points="851,-504 851,-523 1042,-523 1042,-504 851,-504"/>
<text text-anchor="middle" x="946.5" y="-511" font-family="Helvetica,sans-Serif" font-size="10.00">cloud.CloudBackend.controller_data</text>
</a>
</g>
</g>
<!-- Node14&#45;&gt;Node16 -->
<g id="edge16" class="edge">
<title>Node14&#45;&gt;Node16</title>
<path fill="none" stroke="midnightblue" d="M800.22,-513.5C813.35,-513.5 827.01,-513.5 840.47,-513.5"/>
<polygon fill="midnightblue" stroke="midnightblue" points="840.72,-517 850.72,-513.5 840.72,-510 840.72,-517"/>
</g>
<!-- Node17 -->
<g id="node17" class="node">
<title>Node17</title>
<g id="a_node17"><a xlink:href="classlocal_1_1connection__handler_1_1LocalConnectionHandler.html#a8f938ae53b3c24bbdc02f377671cf263" target="_top" xlink:title=" ">
<polygon fill="white" stroke="black" points="841,-454.5 841,-484.5 1052,-484.5 1052,-454.5 841,-454.5"/>
<text text-anchor="start" x="849" y="-472.5" font-family="Helvetica,sans-Serif" font-size="10.00">local.connection_handler.</text>
<text text-anchor="middle" x="946.5" y="-461.5" font-family="Helvetica,sans-Serif" font-size="10.00">LocalConnectionHandler.controller_data</text>
</a>
</g>
</g>
<!-- Node14&#45;&gt;Node17 -->
<g id="edge17" class="edge">
<title>Node14&#45;&gt;Node17</title>
<path fill="none" stroke="midnightblue" d="M800.22,-497.05C818.55,-493.58 837.92,-489.9 856.34,-486.41"/>
<polygon fill="midnightblue" stroke="midnightblue" points="856.99,-489.85 866.16,-484.55 855.68,-482.97 856.99,-489.85"/>
</g>
<!-- Node18&#45;&gt;Node11 -->
<g id="edge25" class="edge">
<title>Node18&#45;&gt;Node11</title>
<path fill="none" stroke="midnightblue" d="M800.04,-359.35C870.42,-348.88 971.67,-330.55 1057,-302.5 1093.68,-290.44 1133.6,-270.44 1158.82,-256.88"/>
<polygon fill="midnightblue" stroke="midnightblue" points="1160.62,-259.89 1167.72,-252.03 1157.27,-253.74 1160.62,-259.89"/>
</g>
<!-- Node18&#45;&gt;Node13 -->
<g id="edge26" class="edge">
<title>Node18&#45;&gt;Node13</title>
<path fill="none" stroke="midnightblue" d="M800.22,-374.61C817.76,-375.44 836.25,-376.32 853.94,-377.16"/>
<polygon fill="midnightblue" stroke="midnightblue" points="854.1,-380.67 864.26,-377.65 854.44,-373.68 854.1,-380.67"/>
</g>
<!-- Node19&#45;&gt;Node11 -->
<g id="edge29" class="edge">
<title>Node19&#45;&gt;Node11</title>
<path fill="none" stroke="midnightblue" d="M589.38,-201.15C698.92,-194.68 892.78,-188.29 1057,-209.5 1087.49,-213.44 1121.13,-222.34 1146.2,-229.91"/>
<polygon fill="midnightblue" stroke="midnightblue" points="1145.45,-233.35 1156.04,-232.95 1147.51,-226.66 1145.45,-233.35"/>
</g>
<!-- Node21 -->
<g id="node21" class="node">
<title>Node21</title>
<g id="a_node21"><a xlink:href="namespaceklyqa__ctl_1_1general_1_1general.html#ab2f9a22e98cd16d0d284d22382cfcb02" target="_top" xlink:title=" ">
<polygon fill="white" stroke="black" points="630.5,-126.5 630.5,-156.5 794.5,-156.5 794.5,-126.5 630.5,-126.5"/>
<text text-anchor="start" x="638.5" y="-144.5" font-family="Helvetica,sans-Serif" font-size="10.00">klyqa_ctl.general.general.task</text>
<text text-anchor="middle" x="712.5" y="-133.5" font-family="Helvetica,sans-Serif" font-size="10.00">_log_trace</text>
</a>
</g>
</g>
<!-- Node20&#45;&gt;Node21 -->
<g id="edge32" class="edge">
<title>Node20&#45;&gt;Node21</title>
<path fill="none" stroke="midnightblue" d="M583.6,-148.23C595.62,-147.6 608.06,-146.94 620.26,-146.3"/>
<polygon fill="midnightblue" stroke="midnightblue" points="620.64,-149.79 630.44,-145.77 620.27,-142.8 620.64,-149.79"/>
</g>
<!-- Node21&#45;&gt;Node11 -->
<g id="edge33" class="edge">
<title>Node21&#45;&gt;Node11</title>
<path fill="none" stroke="midnightblue" d="M794.79,-139.12C865.57,-139.26 970.15,-144.86 1057,-171.5 1097.16,-183.82 1138.79,-209.97 1163.13,-226.86"/>
<polygon fill="midnightblue" stroke="midnightblue" points="1161.39,-229.92 1171.58,-232.83 1165.43,-224.2 1161.39,-229.92"/>
</g>
<!-- Node22&#45;&gt;Node11 -->
<g id="edge38" class="edge">
<title>Node22&#45;&gt;Node11</title>
<path fill="none" stroke="midnightblue" d="M583.59,-92.44C694.84,-80.71 898.98,-71.64 1057,-135.5 1105.17,-154.97 1148.57,-199.87 1170.14,-224.88"/>
<polygon fill="midnightblue" stroke="midnightblue" points="1167.71,-227.43 1176.83,-232.82 1173.06,-222.92 1167.71,-227.43"/>
</g>
</g>
</svg>
        <g id="navigator" transform="translate(0 0)" fill="#404254">
                <rect fill="#f2f5e9" fill-opacity="0.5" stroke="#606060" stroke-width=".5" x="0" y="0" width="60" height="60"/>
                <use id="zoomplus" xlink:href="#zoomPlus" x="17" y="9" onmousedown="handleZoom(evt,'in')"/>
                <use id="zoomminus" xlink:href="#zoomMin" x="42" y="9" onmousedown="handleZoom(evt,'out')"/>
                <use id="reset" xlink:href="#resetDef" x="30" y="36" onmousedown="handleReset()"/>
                <g id="arrowUp" xlink:href="#dirArrow" transform="translate(30 24)" onmousedown="handlePan(0,-1)">
                  <use xlink:href="#rim" fill="#404040">
                        <set attributeName="fill" to="#808080" begin="arrowUp.mouseover" end="arrowUp.mouseout"/>
                  </use>
                  <path fill="none" stroke="white" stroke-width="1.5" d="M0,-3.0v7 M-2.5,-0.5L0,-3.0L2.5,-0.5"/>
                </g>
                <g id="arrowRight" xlink:href="#dirArrow" transform="rotate(90) translate(36 -43)" onmousedown="handlePan(1,0)">
                  <use xlink:href="#rim" fill="#404040">
                        <set attributeName="fill" to="#808080" begin="arrowRight.mouseover" end="arrowRight.mouseout"/>
                  </use>
                  <path fill="none" stroke="white" stroke-width="1.5" d="M0,-3.0v7 M-2.5,-0.5L0,-3.0L2.5,-0.5"/>
                </g>
                <g id="arrowDown" xlink:href="#dirArrow" transform="rotate(180) translate(-30 -48)" onmousedown="handlePan(0,1)">
                  <use xlink:href="#rim" fill="#404040">
                        <set attributeName="fill" to="#808080" begin="arrowDown.mouseover" end="arrowDown.mouseout"/>
                  </use>
                  <path fill="none" stroke="white" stroke-width="1.5" d="M0,-3.0v7 M-2.5,-0.5L0,-3.0L2.5,-0.5"/>
                </g>
                <g id="arrowLeft" xlink:href="#dirArrow" transform="rotate(270) translate(-36 17)" onmousedown="handlePan(-1,0)">
                  <use xlink:href="#rim" fill="#404040">
                        <set attributeName="fill" to="#808080" begin="arrowLeft.mouseover" end="arrowLeft.mouseout"/>
                  </use>
                  <path fill="none" stroke="white" stroke-width="1.5" d="M0,-3.0v7 M-2.5,-0.5L0,-3.0L2.5,-0.5"/>
                </g>
        </g>
        <svg viewBox="0 0 15 15" width="100%" height="30px" preserveAspectRatio="xMaxYMin meet">
         <g id="arrow_out" transform="scale(0.3 0.3)">
          <a xlink:href="classlocal_1_1connection__handler_1_1LocalConnectionHandler_a0b582d0bf1523d1d0404867ab921539f_cgraph_org.svg" target="_base">
           <rect id="button" ry="5" rx="5" y="6" x="6" height="38" width="38"
                fill="#f2f5e9" fill-opacity="0.5" stroke="#606060" stroke-width="1.0"/>
           <path id="arrow"
             d="M 11.500037,31.436501 C 11.940474,20.09759 22.043105,11.32322 32.158766,21.979434 L 37.068811,17.246167 C 37.068811,17.246167 37.088388,32 37.088388,32 L 22.160133,31.978069 C 22.160133,31.978069 26.997745,27.140456 26.997745,27.140456 C 18.528582,18.264221 13.291696,25.230495 11.500037,31.436501 z"
             style="fill:#404040;"/>
          </a>
         </g>
        </svg>
</svg>
