<?xml version="1.0" encoding="UTF-8" standalone="no"?>
<!DOCTYPE svg PUBLIC "-//W3C//DTD SVG 1.1//EN"
 "http://www.w3.org/Graphics/SVG/1.1/DTD/svg11.dtd">
<!-- Generated by graphviz version 2.43.0 (0)
 -->
<!-- Title: klyqa_ctl.klyqa_ctl.Client.select_device Pages: 1 -->
<svg width="596pt" height="215pt"
 viewBox="0.00 0.00 596.00 214.50" xmlns="http://www.w3.org/2000/svg" xmlns:xlink="http://www.w3.org/1999/xlink">
<g id="graph0" class="graph" transform="scale(1 1) rotate(0) translate(4 210.5)">
<title>klyqa_ctl.klyqa_ctl.Client.select_device</title>
<polygon fill="white" stroke="transparent" points="-4,4 -4,-210.5 592,-210.5 592,4 -4,4"/>
<!-- Node1 -->
<g id="node1" class="node">
<title>Node1</title>
<g id="a_node1"><a xlink:title=" ">
<polygon fill="#bfbfbf" stroke="black" points="0,-88.5 0,-118.5 172,-118.5 172,-88.5 0,-88.5"/>
<text text-anchor="start" x="8" y="-106.5" font-family="Helvetica,sans-Serif" font-size="10.00">klyqa_ctl.klyqa_ctl.Client.select</text>
<text text-anchor="middle" x="86" y="-95.5" font-family="Helvetica,sans-Serif" font-size="10.00">_device</text>
</a>
</g>
</g>
<!-- Node2 -->
<g id="node2" class="node">
<title>Node2</title>
<g id="a_node2"><a xlink:href="classklyqa__ctl_1_1account_1_1Account.html#a2265c38daf6829c96c852ad4a288b42d" target="_top" xlink:title=" ">
<polygon fill="white" stroke="black" points="208,-187 208,-206 393,-206 393,-187 208,-187"/>
<text text-anchor="middle" x="300.5" y="-194" font-family="Helvetica,sans-Serif" font-size="10.00">klyqa_ctl.account.Account.devices</text>
</a>
</g>
</g>
<!-- Node1&#45;&gt;Node2 -->
<g id="edge1" class="edge">
<title>Node1&#45;&gt;Node2</title>
<path fill="none" stroke="midnightblue" d="M106.84,-118.63C129.92,-135.49 169.76,-162.37 208,-177.5 214.64,-180.13 221.7,-182.41 228.84,-184.4"/>
<polygon fill="midnightblue" stroke="midnightblue" points="228.03,-187.8 238.59,-186.92 229.78,-181.02 228.03,-187.8"/>
</g>
<!-- Node3 -->
<g id="node3" class="node">
<title>Node3</title>
<g id="a_node3"><a xlink:href="classlocal_1_1connection__handler_1_1LocalConnectionHandler.html#a4d307f6bd0b66f3cb9fac3057fc87972" target="_top" xlink:title=" ">
<polygon fill="white" stroke="black" points="213,-137.5 213,-167.5 388,-167.5 388,-137.5 213,-137.5"/>
<text text-anchor="start" x="221" y="-155.5" font-family="Helvetica,sans-Serif" font-size="10.00">local.connection_handler.</text>
<text text-anchor="middle" x="300.5" y="-144.5" font-family="Helvetica,sans-Serif" font-size="10.00">LocalConnectionHandler.devices</text>
</a>
</g>
</g>
<!-- Node1&#45;&gt;Node3 -->
<g id="edge2" class="edge">
<title>Node1&#45;&gt;Node3</title>
<path fill="none" stroke="midnightblue" d="M152.2,-118.53C175.05,-123.8 200.88,-129.76 224.47,-135.2"/>
<polygon fill="midnightblue" stroke="midnightblue" points="223.89,-138.66 234.42,-137.49 225.46,-131.84 223.89,-138.66"/>
</g>
<!-- Node4 -->
<g id="node4" class="node">
<title>Node4</title>
<g id="a_node4"><a xlink:href="classklyqa__ctl_1_1controller__data_1_1ControllerData.html#adf7af423388a9a883c428cf71e217650" target="_top" xlink:title=" ">
<polygon fill="white" stroke="black" points="221.5,-88.5 221.5,-118.5 379.5,-118.5 379.5,-88.5 221.5,-88.5"/>
<text text-anchor="start" x="229.5" y="-106.5" font-family="Helvetica,sans-Serif" font-size="10.00">klyqa_ctl.controller</text>
<text text-anchor="middle" x="300.5" y="-95.5" font-family="Helvetica,sans-Serif" font-size="10.00">_data.ControllerData.devices</text>
</a>
</g>
</g>
<!-- Node1&#45;&gt;Node4 -->
<g id="edge3" class="edge">
<title>Node1&#45;&gt;Node4</title>
<path fill="none" stroke="midnightblue" d="M172.21,-103.5C185.05,-103.5 198.33,-103.5 211.24,-103.5"/>
<polygon fill="midnightblue" stroke="midnightblue" points="211.5,-107 221.5,-103.5 211.5,-100 211.5,-107"/>
</g>
<!-- Node5 -->
<g id="node5" class="node">
<title>Node5</title>
<g id="a_node5"><a xlink:href="classklyqa__ctl_1_1klyqa__ctl_1_1Client.html#ab6e5eda10fb712850c3fb311fd1cd4a0" target="_top" xlink:title=" ">
<polygon fill="white" stroke="black" points="210.5,-50 210.5,-69 390.5,-69 390.5,-50 210.5,-50"/>
<text text-anchor="middle" x="300.5" y="-57" font-family="Helvetica,sans-Serif" font-size="10.00">klyqa_ctl.klyqa_ctl.Client.devices</text>
</a>
</g>
</g>
<!-- Node1&#45;&gt;Node5 -->
<g id="edge4" class="edge">
<title>Node1&#45;&gt;Node5</title>
<path fill="none" stroke="midnightblue" d="M159.54,-88.48C187.03,-82.79 217.88,-76.4 243.6,-71.07"/>
<polygon fill="midnightblue" stroke="midnightblue" points="244.48,-74.47 253.56,-69.01 243.06,-67.61 244.48,-74.47"/>
</g>
<!-- Node6 -->
<g id="node6" class="node">
<title>Node6</title>
<g id="a_node6"><a xlink:href="namespaceklyqa__ctl_1_1general_1_1general.html#a478a761c65763ffa478642d11af1eade" target="_top" xlink:title=" ">
<polygon fill="white" stroke="black" points="221,-0.5 221,-30.5 380,-30.5 380,-0.5 221,-0.5"/>
<text text-anchor="start" x="229" y="-18.5" font-family="Helvetica,sans-Serif" font-size="10.00">klyqa_ctl.general.general.get</text>
<text text-anchor="middle" x="300.5" y="-7.5" font-family="Helvetica,sans-Serif" font-size="10.00">_obj_attrs_as_string</text>
</a>
</g>
</g>
<!-- Node1&#45;&gt;Node6 -->
<g id="edge5" class="edge">
<title>Node1&#45;&gt;Node6</title>
<path fill="none" stroke="midnightblue" d="M112.22,-88.34C136.19,-74.42 173.6,-53.98 208,-40.5 214.28,-38.04 220.9,-35.72 227.58,-33.57"/>
<polygon fill="midnightblue" stroke="midnightblue" points="228.87,-36.84 237.39,-30.54 226.8,-30.15 228.87,-36.84"/>
</g>
<!-- Node7 -->
<g id="node7" class="node">
<title>Node7</title>
<g id="a_node7"><a xlink:href="namespaceklyqa__ctl_1_1general_1_1general.html#a59231019cd9e7c0089ff0471363c039a" target="_top" xlink:title=" ">
<polygon fill="white" stroke="black" points="429,-0.5 429,-30.5 588,-30.5 588,-0.5 429,-0.5"/>
<text text-anchor="start" x="437" y="-18.5" font-family="Helvetica,sans-Serif" font-size="10.00">klyqa_ctl.general.general.get</text>
<text text-anchor="middle" x="508.5" y="-7.5" font-family="Helvetica,sans-Serif" font-size="10.00">_fields</text>
</a>
</g>
</g>
<!-- Node6&#45;&gt;Node7 -->
<g id="edge6" class="edge">
<title>Node6&#45;&gt;Node7</title>
<path fill="none" stroke="midnightblue" d="M380.26,-15.5C392.81,-15.5 405.87,-15.5 418.63,-15.5"/>
<polygon fill="midnightblue" stroke="midnightblue" points="418.78,-19 428.78,-15.5 418.78,-12 418.78,-19"/>
</g>
</g>
</svg>
