<?xml version="1.0" encoding="UTF-8" standalone="no"?>
<!DOCTYPE svg PUBLIC "-//W3C//DTD SVG 1.1//EN"
 "http://www.w3.org/Graphics/SVG/1.1/DTD/svg11.dtd">
<!-- Generated by graphviz version 2.43.0 (0)
 -->
<!-- Title: local.connection_handler.LocalConnectionHandler.handle_incoming_tcp_connection Pages: 1 -->
<!--zoomable 727 -->
<svg id="main" version="1.1" xmlns="http://www.w3.org/2000/svg" xmlns:xlink="http://www.w3.org/1999/xlink" xml:space="preserve" onload="init(evt)">
<style type="text/css"><![CDATA[
.edge:hover path { stroke: red; }
.edge:hover polygon { stroke: red; fill: red; }
]]></style>
<script type="text/javascript"><![CDATA[
var edges = document.getElementsByTagName('g');
if (edges && edges.length) {
  for (var i=0;i<edges.length;i++) {
    if (edges[i].id.substr(0,4)=='edge') {
      edges[i].setAttribute('class','edge');
    }
  }
}
]]></script>
        <defs>
                <circle id="rim" cx="0" cy="0" r="7"/>
                <circle id="rim2" cx="0" cy="0" r="3.5"/>
                <g id="zoomPlus">
                        <use xlink:href="#rim" fill="#404040">
                                <set attributeName="fill" to="#808080" begin="zoomplus.mouseover" end="zoomplus.mouseout"/>
                        </use>
                        <path d="M-4,0h8M0,-4v8" fill="none" stroke="white" stroke-width="1.5" pointer-events="none"/>
                </g>
                <g id="zoomMin">
                        <use xlink:href="#rim" fill="#404040">
                                <set attributeName="fill" to="#808080" begin="zoomminus.mouseover" end="zoomminus.mouseout"/>
                        </use>
                        <path d="M-4,0h8" fill="none" stroke="white" stroke-width="1.5" pointer-events="none"/>
                </g>
                <g id="dirArrow">
                        <path fill="none" stroke="white" stroke-width="1.5" d="M0,-3.0v7 M-2.5,-0.5L0,-3.0L2.5,-0.5"/>
                </g>
               <g id="resetDef">
                       <use xlink:href="#rim2" fill="#404040">
                               <set attributeName="fill" to="#808080" begin="reset.mouseover" end="reset.mouseout"/>
                       </use>
               </g>
        </defs>

<script type="text/javascript">
var viewWidth = 1725;
var viewHeight = 727;
var sectionId = 'dynsection-32';
</script>
<script xlink:href="svgpan.js"/>
<svg id="graph" class="graph">
<g id="viewport">
<title>local.connection_handler.LocalConnectionHandler.handle_incoming_tcp_connection</title>
<polygon fill="white" stroke="transparent" points="-4,4 -4,-722.98 1721,-722.98 1721,4 -4,4"/>
<!-- Node1 -->
<g id="node1" class="node">
<title>Node1</title>
<g id="a_node1"><a xlink:title=" ">
<polygon fill="#bfbfbf" stroke="black" points="0,-635.08 0,-676.08 170,-676.08 170,-635.08 0,-635.08"/>
<text text-anchor="start" x="8" y="-664.08" font-family="Helvetica,sans-Serif" font-size="10.00">local.connection_handler.</text>
<text text-anchor="start" x="8" y="-653.08" font-family="Helvetica,sans-Serif" font-size="10.00">LocalConnectionHandler.handle</text>
<text text-anchor="middle" x="85" y="-642.08" font-family="Helvetica,sans-Serif" font-size="10.00">_incoming_tcp_connection</text>
</a>
</g>
</g>
<!-- Node2 -->
<g id="node2" class="node">
<title>Node2</title>
<g id="a_node2"><a xlink:href="classlocal_1_1connection__handler_1_1LocalConnectionHandler.html#a7e5e94d8da70d86c87eba78bcde9ff42" target="_top" xlink:title=" ">
<polygon fill="white" stroke="black" points="412,-635.08 412,-676.08 584,-676.08 584,-635.08 412,-635.08"/>
<text text-anchor="start" x="420" y="-664.08" font-family="Helvetica,sans-Serif" font-size="10.00">local.connection_handler.</text>
<text text-anchor="start" x="420" y="-653.08" font-family="Helvetica,sans-Serif" font-size="10.00">LocalConnectionHandler.current</text>
<text text-anchor="middle" x="498" y="-642.08" font-family="Helvetica,sans-Serif" font-size="10.00">_addr_connections</text>
</a>
</g>
</g>
<!-- Node1&#45;&gt;Node2 -->
<g id="edge1" class="edge">
<title>Node1&#45;&gt;Node2</title>
<path fill="none" stroke="midnightblue" d="M170.16,-655.58C237.43,-655.58 331.71,-655.58 401.74,-655.58"/>
<polygon fill="midnightblue" stroke="midnightblue" points="401.89,-659.08 411.89,-655.58 401.89,-652.08 401.89,-659.08"/>
</g>
<!-- Node3 -->
<g id="node3" class="node">
<title>Node3</title>
<g id="a_node3"><a xlink:href="classlocal_1_1connection__handler_1_1LocalConnectionHandler.html#a0b582d0bf1523d1d0404867ab921539f" target="_top" xlink:title=" ">
<polygon fill="white" stroke="black" points="206,-336.08 206,-377.08 376,-377.08 376,-336.08 206,-336.08"/>
<text text-anchor="start" x="214" y="-365.08" font-family="Helvetica,sans-Serif" font-size="10.00">local.connection_handler.</text>
<text text-anchor="start" x="214" y="-354.08" font-family="Helvetica,sans-Serif" font-size="10.00">LocalConnectionHandler.device</text>
<text text-anchor="middle" x="291" y="-343.08" font-family="Helvetica,sans-Serif" font-size="10.00">_handle_local_tcp</text>
</a>
</g>
</g>
<!-- Node1&#45;&gt;Node3 -->
<g id="edge2" class="edge">
<title>Node1&#45;&gt;Node3</title>
<path fill="none" stroke="midnightblue" d="M100.02,-635.02C135.54,-582.96 229.15,-445.76 270.22,-385.57"/>
<polygon fill="midnightblue" stroke="midnightblue" points="273.14,-387.5 275.88,-377.27 267.35,-383.56 273.14,-387.5"/>
</g>
<!-- Node14 -->
<g id="node14" class="node">
<title>Node14</title>
<g id="a_node14"><a xlink:href="namespaceklyqa__ctl_1_1general_1_1general.html#a1afe30a73cc28a3b65babeeab27e36c8" target="_top" xlink:title=" ">
<polygon fill="white" stroke="black" points="1070.5,-297.58 1070.5,-327.58 1234.5,-327.58 1234.5,-297.58 1070.5,-297.58"/>
<text text-anchor="start" x="1078.5" y="-315.58" font-family="Helvetica,sans-Serif" font-size="10.00">klyqa_ctl.general.general.task</text>
<text text-anchor="middle" x="1152.5" y="-304.58" font-family="Helvetica,sans-Serif" font-size="10.00">_log_debug</text>
</a>
</g>
</g>
<!-- Node1&#45;&gt;Node14 -->
<g id="edge42" class="edge">
<title>Node1&#45;&gt;Node14</title>
<path fill="none" stroke="midnightblue" d="M145.86,-676.19C242.65,-705.89 437.48,-750.44 584,-685.58 733.32,-619.47 693.66,-501.92 831,-413.58 899.68,-369.4 931.05,-390.01 1006,-357.58 1022.8,-350.31 1024.91,-344.12 1042,-337.58 1048.82,-334.96 1055.99,-332.58 1063.27,-330.41"/>
<polygon fill="midnightblue" stroke="midnightblue" points="1064.55,-333.69 1073.22,-327.59 1062.65,-326.95 1064.55,-333.69"/>
</g>
<!-- Node3&#45;&gt;Node2 -->
<g id="edge3" class="edge">
<title>Node3&#45;&gt;Node2</title>
<path fill="none" stroke="midnightblue" d="M296,-377.44C306.41,-426.42 338.8,-549.97 412,-620.58 415.48,-623.93 419.32,-626.98 423.4,-629.75"/>
<polygon fill="midnightblue" stroke="midnightblue" points="421.69,-632.81 432.05,-635.06 425.35,-626.85 421.69,-632.81"/>
</g>
<!-- Node4 -->
<g id="node4" class="node">
<title>Node4</title>
<g id="a_node4"><a xlink:href="classklyqa__ctl_1_1account_1_1Account.html#a2265c38daf6829c96c852ad4a288b42d" target="_top" xlink:title=" ">
<polygon fill="white" stroke="black" points="1060,-647.08 1060,-666.08 1245,-666.08 1245,-647.08 1060,-647.08"/>
<text text-anchor="middle" x="1152.5" y="-654.08" font-family="Helvetica,sans-Serif" font-size="10.00">klyqa_ctl.account.Account.devices</text>
</a>
</g>
</g>
<!-- Node3&#45;&gt;Node4 -->
<g id="edge4" class="edge">
<title>Node3&#45;&gt;Node4</title>
<path fill="none" stroke="midnightblue" d="M304.12,-377.22C323.16,-407.79 363,-464.8 412,-495.58 613.22,-621.96 899.18,-650.13 1049.74,-655.77"/>
<polygon fill="midnightblue" stroke="midnightblue" points="1049.79,-659.28 1059.91,-656.13 1050.03,-652.28 1049.79,-659.28"/>
</g>
<!-- Node5 -->
<g id="node5" class="node">
<title>Node5</title>
<g id="a_node5"><a xlink:href="classlocal_1_1connection__handler_1_1LocalConnectionHandler.html#a4d307f6bd0b66f3cb9fac3057fc87972" target="_top" xlink:title=" ">
<polygon fill="white" stroke="black" points="1065,-597.58 1065,-627.58 1240,-627.58 1240,-597.58 1065,-597.58"/>
<text text-anchor="start" x="1073" y="-615.58" font-family="Helvetica,sans-Serif" font-size="10.00">local.connection_handler.</text>
<text text-anchor="middle" x="1152.5" y="-604.58" font-family="Helvetica,sans-Serif" font-size="10.00">LocalConnectionHandler.devices</text>
</a>
</g>
</g>
<!-- Node3&#45;&gt;Node5 -->
<g id="edge5" class="edge">
<title>Node3&#45;&gt;Node5</title>
<path fill="none" stroke="midnightblue" d="M311.26,-377.12C333.47,-399.62 372.07,-435.2 412,-455.58 523.81,-512.64 881.41,-572.08 1055.06,-598.49"/>
<polygon fill="midnightblue" stroke="midnightblue" points="1054.55,-601.95 1064.96,-599.99 1055.6,-595.03 1054.55,-601.95"/>
</g>
<!-- Node6 -->
<g id="node6" class="node">
<title>Node6</title>
<g id="a_node6"><a xlink:href="classklyqa__ctl_1_1controller__data_1_1ControllerData.html#adf7af423388a9a883c428cf71e217650" target="_top" xlink:title=" ">
<polygon fill="white" stroke="black" points="1073.5,-548.58 1073.5,-578.58 1231.5,-578.58 1231.5,-548.58 1073.5,-548.58"/>
<text text-anchor="start" x="1081.5" y="-566.58" font-family="Helvetica,sans-Serif" font-size="10.00">klyqa_ctl.controller</text>
<text text-anchor="middle" x="1152.5" y="-555.58" font-family="Helvetica,sans-Serif" font-size="10.00">_data.ControllerData.devices</text>
</a>
</g>
</g>
<!-- Node3&#45;&gt;Node6 -->
<g id="edge6" class="edge">
<title>Node3&#45;&gt;Node6</title>
<path fill="none" stroke="midnightblue" d="M326.64,-377.2C350.06,-390.38 382.05,-406.93 412,-417.58 639.04,-498.32 922.08,-538.45 1063.08,-554.61"/>
<polygon fill="midnightblue" stroke="midnightblue" points="1063.07,-558.13 1073.4,-555.78 1063.85,-551.17 1063.07,-558.13"/>
</g>
<!-- Node7 -->
<g id="node7" class="node">
<title>Node7</title>
<g id="a_node7"><a xlink:href="classklyqa__ctl_1_1klyqa__ctl_1_1Client.html#ab6e5eda10fb712850c3fb311fd1cd4a0" target="_top" xlink:title=" ">
<polygon fill="white" stroke="black" points="1062.5,-510.08 1062.5,-529.08 1242.5,-529.08 1242.5,-510.08 1062.5,-510.08"/>
<text text-anchor="middle" x="1152.5" y="-517.08" font-family="Helvetica,sans-Serif" font-size="10.00">klyqa_ctl.klyqa_ctl.Client.devices</text>
</a>
</g>
</g>
<!-- Node3&#45;&gt;Node7 -->
<g id="edge7" class="edge">
<title>Node3&#45;&gt;Node7</title>
<path fill="none" stroke="midnightblue" d="M376.12,-376.78C481.86,-401.73 669.14,-444.43 831,-473.58 909.51,-487.71 999.46,-500.31 1064.05,-508.73"/>
<polygon fill="midnightblue" stroke="midnightblue" points="1063.82,-512.23 1074.19,-510.05 1064.72,-505.29 1063.82,-512.23"/>
</g>
<!-- Node8 -->
<g id="node8" class="node">
<title>Node8</title>
<g id="a_node8"><a xlink:href="classconnection__handler_1_1ConnectionHandler.html#aace4dd2e9f17d3fbb198e81fbf2019dd" target="_top" xlink:title=" ">
<polygon fill="white" stroke="black" points="413.5,-172.58 413.5,-202.58 582.5,-202.58 582.5,-172.58 413.5,-172.58"/>
<text text-anchor="start" x="421.5" y="-190.58" font-family="Helvetica,sans-Serif" font-size="10.00">connection_handler.Connection</text>
<text text-anchor="middle" x="498" y="-179.58" font-family="Helvetica,sans-Serif" font-size="10.00">Handler.handle_connection</text>
</a>
</g>
</g>
<!-- Node3&#45;&gt;Node8 -->
<g id="edge8" class="edge">
<title>Node3&#45;&gt;Node8</title>
<path fill="none" stroke="midnightblue" d="M304.92,-335.65C324.53,-305.51 364.6,-249.93 412,-217.58 418.04,-213.45 424.71,-209.83 431.58,-206.67"/>
<polygon fill="midnightblue" stroke="midnightblue" points="433.2,-209.79 441.03,-202.64 430.45,-203.35 433.2,-209.79"/>
</g>
<!-- Node9 -->
<g id="node9" class="node">
<title>Node9</title>
<g id="a_node9"><a xlink:href="classlocal_1_1connection__handler_1_1LocalConnectionHandler.html#a900e05554022ee9ecb3ba5621369016d" target="_top" xlink:title=" ">
<polygon fill="white" stroke="black" points="413,-260.08 413,-301.08 583,-301.08 583,-260.08 413,-260.08"/>
<text text-anchor="start" x="421" y="-289.08" font-family="Helvetica,sans-Serif" font-size="10.00">local.connection_handler.</text>
<text text-anchor="start" x="421" y="-278.08" font-family="Helvetica,sans-Serif" font-size="10.00">LocalConnectionHandler.handle</text>
<text text-anchor="middle" x="498" y="-267.08" font-family="Helvetica,sans-Serif" font-size="10.00">_connection</text>
</a>
</g>
</g>
<!-- Node3&#45;&gt;Node9 -->
<g id="edge9" class="edge">
<title>Node3&#45;&gt;Node9</title>
<path fill="none" stroke="midnightblue" d="M347.48,-336.01C373.57,-326.34 404.85,-314.74 432.05,-304.66"/>
<polygon fill="midnightblue" stroke="midnightblue" points="433.32,-307.92 441.48,-301.16 430.89,-301.35 433.32,-307.92"/>
</g>
<!-- Node12 -->
<g id="node12" class="node">
<title>Node12</title>
<g id="a_node12"><a xlink:href="namespaceklyqa__ctl_1_1general_1_1general.html#a9df3b50dfc0fcc7c8ec991bb9be9c5ba" target="_top" xlink:title=" ">
<polygon fill="white" stroke="black" points="1299,-202.08 1299,-221.08 1484,-221.08 1484,-202.08 1299,-202.08"/>
<text text-anchor="middle" x="1391.5" y="-209.08" font-family="Helvetica,sans-Serif" font-size="10.00">klyqa_ctl.general.general.task_log</text>
</a>
</g>
</g>
<!-- Node3&#45;&gt;Node12 -->
<g id="edge37" class="edge">
<title>Node3&#45;&gt;Node12</title>
<path fill="none" stroke="midnightblue" d="M295.32,-335.73C304.26,-287.03 333.72,-165.67 412,-109.58 519.23,-32.74 574.58,-72.58 706.5,-72.58 706.5,-72.58 706.5,-72.58 919.5,-72.58 1072.96,-72.58 1121.24,-48.82 1263,-107.58 1310.21,-127.14 1353.71,-170.15 1375.62,-194.29"/>
<polygon fill="midnightblue" stroke="midnightblue" points="1373.18,-196.81 1382.44,-201.96 1378.42,-192.16 1373.18,-196.81"/>
</g>
<!-- Node3&#45;&gt;Node14 -->
<g id="edge38" class="edge">
<title>Node3&#45;&gt;Node14</title>
<path fill="none" stroke="midnightblue" d="M376.06,-358.23C509.79,-360 779.09,-359.97 1006,-337.58 1025.64,-335.64 1046.62,-332.6 1066.37,-329.31"/>
<polygon fill="midnightblue" stroke="midnightblue" points="1066.99,-332.75 1076.26,-327.62 1065.82,-325.85 1066.99,-332.75"/>
</g>
<!-- Node20 -->
<g id="node20" class="node">
<title>Node20</title>
<g id="a_node20"><a xlink:href="classlocal_1_1connection__handler_1_1LocalConnectionHandler.html#a34b95b45332382bb830a3f1277878268" target="_top" xlink:title=" ">
<polygon fill="white" stroke="black" points="620,-151.08 620,-192.08 795,-192.08 795,-151.08 620,-151.08"/>
<text text-anchor="start" x="628" y="-180.08" font-family="Helvetica,sans-Serif" font-size="10.00">local.connection_handler.</text>
<text text-anchor="start" x="628" y="-169.08" font-family="Helvetica,sans-Serif" font-size="10.00">LocalConnectionHandler.remove</text>
<text text-anchor="middle" x="707.5" y="-158.08" font-family="Helvetica,sans-Serif" font-size="10.00">_msg_from_queue</text>
</a>
</g>
</g>
<!-- Node3&#45;&gt;Node20 -->
<g id="edge36" class="edge">
<title>Node3&#45;&gt;Node20</title>
<path fill="none" stroke="midnightblue" d="M309.27,-335.98C330.78,-311.71 369.88,-272 412,-250.58 481.78,-215.09 508.55,-233.47 584,-212.58 602.14,-207.55 621.56,-201.41 639.47,-195.43"/>
<polygon fill="midnightblue" stroke="midnightblue" points="640.89,-198.65 649.24,-192.13 638.65,-192.01 640.89,-198.65"/>
</g>
<!-- Node21 -->
<g id="node21" class="node">
<title>Node21</title>
<g id="a_node21"><a xlink:href="namespaceklyqa__ctl_1_1general_1_1general.html#ad6b753e482e539892c57f8144cf213cb" target="_top" xlink:title=" ">
<polygon fill="white" stroke="black" points="625.5,-101.58 625.5,-131.58 789.5,-131.58 789.5,-101.58 625.5,-101.58"/>
<text text-anchor="start" x="633.5" y="-119.58" font-family="Helvetica,sans-Serif" font-size="10.00">klyqa_ctl.general.general.task</text>
<text text-anchor="middle" x="707.5" y="-108.58" font-family="Helvetica,sans-Serif" font-size="10.00">_log_trace_ex</text>
</a>
</g>
</g>
<!-- Node3&#45;&gt;Node21 -->
<g id="edge41" class="edge">
<title>Node3&#45;&gt;Node21</title>
<path fill="none" stroke="midnightblue" d="M298.38,-335.86C312.02,-295.39 348.08,-206.04 412,-163.58 471.75,-123.88 553.07,-113.39 615.13,-112.11"/>
<polygon fill="midnightblue" stroke="midnightblue" points="615.35,-115.61 625.3,-111.98 615.26,-108.61 615.35,-115.61"/>
</g>
<!-- Node23 -->
<g id="node23" class="node">
<title>Node23</title>
<g id="a_node23"><a xlink:href="namespaceklyqa__ctl_1_1general_1_1general.html#abab49b300927a080244615ee3ab494e3" target="_top" xlink:title=" ">
<polygon fill="white" stroke="black" points="625.5,-13.58 625.5,-43.58 789.5,-43.58 789.5,-13.58 625.5,-13.58"/>
<text text-anchor="start" x="633.5" y="-31.58" font-family="Helvetica,sans-Serif" font-size="10.00">klyqa_ctl.general.general.task</text>
<text text-anchor="middle" x="707.5" y="-20.58" font-family="Helvetica,sans-Serif" font-size="10.00">_log_error</text>
</a>
</g>
</g>
<!-- Node3&#45;&gt;Node23 -->
<g id="edge39" class="edge">
<title>Node3&#45;&gt;Node23</title>
<path fill="none" stroke="midnightblue" d="M293.33,-336.03C298.11,-280.71 319.5,-128.13 412,-58.58 469.39,-15.42 551.86,-10.44 614.94,-14.81"/>
<polygon fill="midnightblue" stroke="midnightblue" points="615.05,-18.33 625.29,-15.62 615.59,-11.35 615.05,-18.33"/>
</g>
<!-- Node10 -->
<g id="node10" class="node">
<title>Node10</title>
<g id="a_node10"><a xlink:href="classlocal_1_1connection__handler_1_1LocalConnectionHandler.html#aaa28266e241c2e30e8acd468fab06fde" target="_top" xlink:title=" ">
<polygon fill="white" stroke="black" points="620,-287.08 620,-328.08 795,-328.08 795,-287.08 620,-287.08"/>
<text text-anchor="start" x="628" y="-316.08" font-family="Helvetica,sans-Serif" font-size="10.00">local.connection_handler.</text>
<text text-anchor="start" x="628" y="-305.08" font-family="Helvetica,sans-Serif" font-size="10.00">LocalConnectionHandler.process</text>
<text text-anchor="middle" x="707.5" y="-294.08" font-family="Helvetica,sans-Serif" font-size="10.00">_tcp_package</text>
</a>
</g>
</g>
<!-- Node9&#45;&gt;Node10 -->
<g id="edge10" class="edge">
<title>Node9&#45;&gt;Node10</title>
<path fill="none" stroke="midnightblue" d="M583.1,-291.52C591.91,-292.67 600.93,-293.84 609.87,-295"/>
<polygon fill="midnightblue" stroke="midnightblue" points="609.55,-298.49 619.92,-296.31 610.45,-291.55 609.55,-298.49"/>
</g>
<!-- Node9&#45;&gt;Node12 -->
<g id="edge32" class="edge">
<title>Node9&#45;&gt;Node12</title>
<path fill="none" stroke="midnightblue" d="M583,-260.37C649.77,-245.35 745.77,-226.05 831,-217.58 990.12,-201.75 1175.94,-203.8 1288.33,-207.27"/>
<polygon fill="midnightblue" stroke="midnightblue" points="1288.54,-210.78 1298.64,-207.6 1288.76,-203.79 1288.54,-210.78"/>
</g>
<!-- Node9&#45;&gt;Node20 -->
<g id="edge30" class="edge">
<title>Node9&#45;&gt;Node20</title>
<path fill="none" stroke="midnightblue" d="M558.36,-260.06C567.3,-255.87 576.14,-251.05 584,-245.58 603.36,-232.1 600.6,-219.99 620,-206.58 625.16,-203.01 630.74,-199.72 636.49,-196.71"/>
<polygon fill="midnightblue" stroke="midnightblue" points="638.21,-199.76 645.63,-192.2 635.12,-193.48 638.21,-199.76"/>
</g>
<!-- Node9&#45;&gt;Node21 -->
<g id="edge33" class="edge">
<title>Node9&#45;&gt;Node21</title>
<path fill="none" stroke="midnightblue" d="M530.87,-260.07C548.15,-247.81 568.98,-231.05 584,-212.58 606.32,-185.13 592.75,-164.14 620,-141.58 622.05,-139.88 624.22,-138.29 626.47,-136.81"/>
<polygon fill="midnightblue" stroke="midnightblue" points="628.59,-139.63 635.53,-131.63 625.12,-133.56 628.59,-139.63"/>
</g>
<!-- Node11 -->
<g id="node11" class="node">
<title>Node11</title>
<g id="a_node11"><a xlink:href="classlocal_1_1connection__handler_1_1LocalConnectionHandler.html#ad1b4bfaedd513acfccbf1b12e36d5469" target="_top" xlink:title=" ">
<polygon fill="white" stroke="black" points="831,-287.08 831,-328.08 1006,-328.08 1006,-287.08 831,-287.08"/>
<text text-anchor="start" x="839" y="-316.08" font-family="Helvetica,sans-Serif" font-size="10.00">local.connection_handler.</text>
<text text-anchor="start" x="839" y="-305.08" font-family="Helvetica,sans-Serif" font-size="10.00">LocalConnectionHandler.process</text>
<text text-anchor="middle" x="918.5" y="-294.08" font-family="Helvetica,sans-Serif" font-size="10.00">_aes_initial_vector_package</text>
</a>
</g>
</g>
<!-- Node10&#45;&gt;Node11 -->
<g id="edge11" class="edge">
<title>Node10&#45;&gt;Node11</title>
<path fill="none" stroke="midnightblue" d="M795.02,-307.58C803.49,-307.58 812.13,-307.58 820.7,-307.58"/>
<polygon fill="midnightblue" stroke="midnightblue" points="820.71,-311.08 830.71,-307.58 820.71,-304.08 820.71,-311.08"/>
</g>
<!-- Node10&#45;&gt;Node12 -->
<g id="edge29" class="edge">
<title>Node10&#45;&gt;Node12</title>
<path fill="none" stroke="midnightblue" d="M721.21,-328.4C782.78,-426.78 1055.57,-833.7 1263,-675.58 1336.62,-619.46 1378.32,-312.81 1388.2,-231.42"/>
<polygon fill="midnightblue" stroke="midnightblue" points="1391.72,-231.44 1389.43,-221.1 1384.77,-230.62 1391.72,-231.44"/>
</g>
<!-- Node15 -->
<g id="node15" class="node">
<title>Node15</title>
<g id="a_node15"><a xlink:href="classlocal_1_1connection__handler_1_1LocalConnectionHandler.html#a4ce11db96280d000941a91cb37df2842" target="_top" xlink:title=" ">
<polygon fill="white" stroke="black" points="831,-423.08 831,-464.08 1006,-464.08 1006,-423.08 831,-423.08"/>
<text text-anchor="start" x="839" y="-452.08" font-family="Helvetica,sans-Serif" font-size="10.00">local.connection_handler.</text>
<text text-anchor="start" x="839" y="-441.08" font-family="Helvetica,sans-Serif" font-size="10.00">LocalConnectionHandler.process</text>
<text text-anchor="middle" x="918.5" y="-430.08" font-family="Helvetica,sans-Serif" font-size="10.00">_device_identity_package</text>
</a>
</g>
</g>
<!-- Node10&#45;&gt;Node15 -->
<g id="edge16" class="edge">
<title>Node10&#45;&gt;Node15</title>
<path fill="none" stroke="midnightblue" d="M740.24,-328.23C776.95,-352.12 837.42,-391.47 877.36,-417.46"/>
<polygon fill="midnightblue" stroke="midnightblue" points="875.51,-420.43 885.8,-422.95 879.33,-414.56 875.51,-420.43"/>
</g>
<!-- Node19 -->
<g id="node19" class="node">
<title>Node19</title>
<g id="a_node19"><a xlink:href="classlocal_1_1connection__handler_1_1LocalConnectionHandler.html#a46f68728bc59f0e5991bc390f67f2685" target="_top" xlink:title=" ">
<polygon fill="white" stroke="black" points="831,-227.08 831,-268.08 1006,-268.08 1006,-227.08 831,-227.08"/>
<text text-anchor="start" x="839" y="-256.08" font-family="Helvetica,sans-Serif" font-size="10.00">local.connection_handler.</text>
<text text-anchor="start" x="839" y="-245.08" font-family="Helvetica,sans-Serif" font-size="10.00">LocalConnectionHandler.process</text>
<text text-anchor="middle" x="918.5" y="-234.08" font-family="Helvetica,sans-Serif" font-size="10.00">_message_answer_package</text>
</a>
</g>
</g>
<!-- Node10&#45;&gt;Node19 -->
<g id="edge26" class="edge">
<title>Node10&#45;&gt;Node19</title>
<path fill="none" stroke="midnightblue" d="M780.13,-287.01C798.16,-281.84 817.65,-276.24 836.11,-270.94"/>
<polygon fill="midnightblue" stroke="midnightblue" points="837.31,-274.24 845.96,-268.11 835.38,-267.51 837.31,-274.24"/>
</g>
<!-- Node11&#45;&gt;Node12 -->
<g id="edge12" class="edge">
<title>Node11&#45;&gt;Node12</title>
<path fill="none" stroke="midnightblue" d="M1006.26,-292.94C1075.89,-280.82 1176.03,-262.57 1263,-243.58 1290.31,-237.61 1320.68,-230.03 1344.93,-223.74"/>
<polygon fill="midnightblue" stroke="midnightblue" points="1346.12,-227.04 1354.92,-221.13 1344.36,-220.27 1346.12,-227.04"/>
</g>
<!-- Node11&#45;&gt;Node14 -->
<g id="edge14" class="edge">
<title>Node11&#45;&gt;Node14</title>
<path fill="none" stroke="midnightblue" d="M1006.22,-309.45C1023.76,-309.82 1042.25,-310.22 1059.94,-310.6"/>
<polygon fill="midnightblue" stroke="midnightblue" points="1060.19,-314.11 1070.26,-310.83 1060.34,-307.11 1060.19,-314.11"/>
</g>
<!-- Node13 -->
<g id="node13" class="node">
<title>Node13</title>
<g id="a_node13"><a xlink:href="namespaceklyqa__ctl_1_1general_1_1general.html#aea905150cafee39fa2ca211f1e60f012" target="_top" xlink:title=" ">
<polygon fill="white" stroke="black" points="1520,-202.08 1520,-221.08 1717,-221.08 1717,-202.08 1520,-202.08"/>
<text text-anchor="middle" x="1618.5" y="-209.08" font-family="Helvetica,sans-Serif" font-size="10.00">klyqa_ctl.general.general.task_name</text>
</a>
</g>
</g>
<!-- Node12&#45;&gt;Node13 -->
<g id="edge13" class="edge">
<title>Node12&#45;&gt;Node13</title>
<path fill="none" stroke="midnightblue" d="M1484.02,-211.58C1492.5,-211.58 1501.15,-211.58 1509.76,-211.58"/>
<polygon fill="midnightblue" stroke="midnightblue" points="1509.83,-215.08 1519.83,-211.58 1509.83,-208.08 1509.83,-215.08"/>
</g>
<!-- Node14&#45;&gt;Node12 -->
<g id="edge15" class="edge">
<title>Node14&#45;&gt;Node12</title>
<path fill="none" stroke="midnightblue" d="M1218.63,-297.5C1233.44,-293.32 1248.95,-288.32 1263,-282.58 1301.27,-266.95 1342.55,-242.4 1367.45,-226.65"/>
<polygon fill="midnightblue" stroke="midnightblue" points="1369.62,-229.42 1376.16,-221.08 1365.85,-223.52 1369.62,-229.42"/>
</g>
<!-- Node15&#45;&gt;Node4 -->
<g id="edge20" class="edge">
<title>Node15&#45;&gt;Node4</title>
<path fill="none" stroke="midnightblue" d="M931.32,-464.34C958.68,-512.07 1025.28,-626.39 1042,-637.58 1044.94,-639.54 1048.01,-641.32 1051.19,-642.93"/>
<polygon fill="midnightblue" stroke="midnightblue" points="1049.85,-646.17 1060.4,-647.05 1052.7,-639.77 1049.85,-646.17"/>
</g>
<!-- Node15&#45;&gt;Node5 -->
<g id="edge21" class="edge">
<title>Node15&#45;&gt;Node5</title>
<path fill="none" stroke="midnightblue" d="M935.63,-464.11C965.67,-502.12 1028.38,-580.37 1042,-588.58 1046.21,-591.11 1050.65,-593.38 1055.23,-595.41"/>
<polygon fill="midnightblue" stroke="midnightblue" points="1054.25,-598.79 1064.83,-599.25 1056.85,-592.29 1054.25,-598.79"/>
</g>
<!-- Node15&#45;&gt;Node6 -->
<g id="edge22" class="edge">
<title>Node15&#45;&gt;Node6</title>
<path fill="none" stroke="midnightblue" d="M943.4,-464.13C972.69,-488.96 1021.02,-528.65 1042,-538.58 1048.94,-541.86 1056.34,-544.73 1063.88,-547.22"/>
<polygon fill="midnightblue" stroke="midnightblue" points="1062.91,-550.59 1073.5,-550.2 1064.98,-543.9 1062.91,-550.59"/>
</g>
<!-- Node15&#45;&gt;Node7 -->
<g id="edge23" class="edge">
<title>Node15&#45;&gt;Node7</title>
<path fill="none" stroke="midnightblue" d="M971.85,-464.2C983.16,-468.81 995.02,-473.77 1006,-478.58 1022.21,-485.68 1025.25,-489.87 1042,-495.58 1056.14,-500.4 1071.65,-504.48 1086.44,-507.85"/>
<polygon fill="midnightblue" stroke="midnightblue" points="1086.01,-511.34 1096.53,-510.06 1087.51,-504.5 1086.01,-511.34"/>
</g>
<!-- Node15&#45;&gt;Node12 -->
<g id="edge24" class="edge">
<title>Node15&#45;&gt;Node12</title>
<path fill="none" stroke="midnightblue" d="M972.92,-464.09C1044.65,-487.96 1173.41,-517.56 1263,-462.58 1348.41,-410.16 1378.79,-280.71 1387.51,-231.23"/>
<polygon fill="midnightblue" stroke="midnightblue" points="1390.99,-231.64 1389.16,-221.2 1384.08,-230.5 1390.99,-231.64"/>
</g>
<!-- Node15&#45;&gt;Node14 -->
<g id="edge25" class="edge">
<title>Node15&#45;&gt;Node14</title>
<path fill="none" stroke="midnightblue" d="M985.36,-422.94C992.82,-418.92 999.92,-414.17 1006,-408.58 1032.06,-384.64 1014.12,-359.35 1042,-337.58 1047.76,-333.08 1054.18,-329.36 1060.94,-326.3"/>
<polygon fill="midnightblue" stroke="midnightblue" points="1062.38,-329.49 1070.34,-322.5 1059.76,-323 1062.38,-329.49"/>
</g>
<!-- Node16 -->
<g id="node16" class="node">
<title>Node16</title>
<g id="a_node16"><a xlink:href="classklyqa__ctl_1_1account_1_1Account.html#a7bcb9ac9804621630ea08a688abecd18" target="_top" xlink:title=" ">
<polygon fill="white" stroke="black" points="1042,-434.08 1042,-453.08 1263,-453.08 1263,-434.08 1042,-434.08"/>
<text text-anchor="middle" x="1152.5" y="-441.08" font-family="Helvetica,sans-Serif" font-size="10.00">klyqa_ctl.account.Account.controller_data</text>
</a>
</g>
</g>
<!-- Node15&#45;&gt;Node16 -->
<g id="edge17" class="edge">
<title>Node15&#45;&gt;Node16</title>
<path fill="none" stroke="midnightblue" d="M1006.22,-443.58C1014.54,-443.58 1023.08,-443.58 1031.65,-443.58"/>
<polygon fill="midnightblue" stroke="midnightblue" points="1031.71,-447.08 1041.71,-443.58 1031.71,-440.08 1031.71,-447.08"/>
</g>
<!-- Node17 -->
<g id="node17" class="node">
<title>Node17</title>
<g id="a_node17"><a xlink:href="classcloud_1_1CloudBackend.html#aef174fe1ba95fff13c7901ff56354ec9" target="_top" xlink:title=" ">
<polygon fill="white" stroke="black" points="1057,-396.08 1057,-415.08 1248,-415.08 1248,-396.08 1057,-396.08"/>
<text text-anchor="middle" x="1152.5" y="-403.08" font-family="Helvetica,sans-Serif" font-size="10.00">cloud.CloudBackend.controller_data</text>
</a>
</g>
</g>
<!-- Node15&#45;&gt;Node17 -->
<g id="edge18" class="edge">
<title>Node15&#45;&gt;Node17</title>
<path fill="none" stroke="midnightblue" d="M1006.22,-429.37C1031.67,-425.2 1059.13,-420.71 1083.26,-416.75"/>
<polygon fill="midnightblue" stroke="midnightblue" points="1084.07,-420.17 1093.38,-415.1 1082.94,-413.26 1084.07,-420.17"/>
</g>
<!-- Node18 -->
<g id="node18" class="node">
<title>Node18</title>
<g id="a_node18"><a xlink:href="classlocal_1_1connection__handler_1_1LocalConnectionHandler.html#a8f938ae53b3c24bbdc02f377671cf263" target="_top" xlink:title=" ">
<polygon fill="white" stroke="black" points="1047,-346.58 1047,-376.58 1258,-376.58 1258,-346.58 1047,-346.58"/>
<text text-anchor="start" x="1055" y="-364.58" font-family="Helvetica,sans-Serif" font-size="10.00">local.connection_handler.</text>
<text text-anchor="middle" x="1152.5" y="-353.58" font-family="Helvetica,sans-Serif" font-size="10.00">LocalConnectionHandler.controller_data</text>
</a>
</g>
</g>
<!-- Node15&#45;&gt;Node18 -->
<g id="edge19" class="edge">
<title>Node15&#45;&gt;Node18</title>
<path fill="none" stroke="midnightblue" d="M974.09,-423.07C984.81,-418.61 995.87,-413.68 1006,-408.58 1022.75,-400.14 1024.63,-393.64 1042,-386.58 1048.31,-384.01 1054.94,-381.68 1061.68,-379.56"/>
<polygon fill="midnightblue" stroke="midnightblue" points="1063.02,-382.82 1071.61,-376.62 1061.03,-376.1 1063.02,-382.82"/>
</g>
<!-- Node19&#45;&gt;Node12 -->
<g id="edge27" class="edge">
<title>Node19&#45;&gt;Node12</title>
<path fill="none" stroke="midnightblue" d="M1006.16,-240.95C1085.95,-234.85 1204.35,-225.8 1288.63,-219.36"/>
<polygon fill="midnightblue" stroke="midnightblue" points="1289.03,-222.84 1298.73,-218.59 1288.5,-215.86 1289.03,-222.84"/>
</g>
<!-- Node19&#45;&gt;Node14 -->
<g id="edge28" class="edge">
<title>Node19&#45;&gt;Node14</title>
<path fill="none" stroke="midnightblue" d="M992.91,-268.14C1023.44,-276.7 1058.54,-286.53 1087.95,-294.77"/>
<polygon fill="midnightblue" stroke="midnightblue" points="1087.12,-298.17 1097.69,-297.5 1089.01,-291.43 1087.12,-298.17"/>
</g>
<!-- Node20&#45;&gt;Node12 -->
<g id="edge31" class="edge">
<title>Node20&#45;&gt;Node12</title>
<path fill="none" stroke="midnightblue" d="M795.41,-166.25C904.98,-161.01 1098.87,-156.63 1263,-178.58 1293.28,-182.63 1326.68,-191.44 1351.69,-198.93"/>
<polygon fill="midnightblue" stroke="midnightblue" points="1350.94,-202.36 1361.53,-201.94 1352.99,-195.67 1350.94,-202.36"/>
</g>
<!-- Node22 -->
<g id="node22" class="node">
<title>Node22</title>
<g id="a_node22"><a xlink:href="namespaceklyqa__ctl_1_1general_1_1general.html#ab2f9a22e98cd16d0d284d22382cfcb02" target="_top" xlink:title=" ">
<polygon fill="white" stroke="black" points="836.5,-101.58 836.5,-131.58 1000.5,-131.58 1000.5,-101.58 836.5,-101.58"/>
<text text-anchor="start" x="844.5" y="-119.58" font-family="Helvetica,sans-Serif" font-size="10.00">klyqa_ctl.general.general.task</text>
<text text-anchor="middle" x="918.5" y="-108.58" font-family="Helvetica,sans-Serif" font-size="10.00">_log_trace</text>
</a>
</g>
</g>
<!-- Node21&#45;&gt;Node22 -->
<g id="edge34" class="edge">
<title>Node21&#45;&gt;Node22</title>
<path fill="none" stroke="midnightblue" d="M789.6,-116.58C801.62,-116.58 814.06,-116.58 826.26,-116.58"/>
<polygon fill="midnightblue" stroke="midnightblue" points="826.44,-120.08 836.44,-116.58 826.44,-113.08 826.44,-120.08"/>
</g>
<!-- Node22&#45;&gt;Node12 -->
<g id="edge35" class="edge">
<title>Node22&#45;&gt;Node12</title>
<path fill="none" stroke="midnightblue" d="M1000.74,-112.42C1071.48,-111.09 1176.04,-114.73 1263,-140.58 1303.27,-152.55 1344.86,-178.8 1369.17,-195.81"/>
<polygon fill="midnightblue" stroke="midnightblue" points="1367.43,-198.86 1377.6,-201.83 1371.5,-193.17 1367.43,-198.86"/>
</g>
<!-- Node23&#45;&gt;Node12 -->
<g id="edge40" class="edge">
<title>Node23&#45;&gt;Node12</title>
<path fill="none" stroke="midnightblue" d="M789.8,-13.66C902.62,2.91 1110.05,18.17 1263,-58.58 1321.82,-88.09 1363.65,-158.28 1381.24,-192.35"/>
<polygon fill="midnightblue" stroke="midnightblue" points="1378.31,-194.31 1385.92,-201.69 1384.57,-191.18 1378.31,-194.31"/>
</g>
</g>
</svg>
        <g id="navigator" transform="translate(0 0)" fill="#404254">
                <rect fill="#f2f5e9" fill-opacity="0.5" stroke="#606060" stroke-width=".5" x="0" y="0" width="60" height="60"/>
                <use id="zoomplus" xlink:href="#zoomPlus" x="17" y="9" onmousedown="handleZoom(evt,'in')"/>
                <use id="zoomminus" xlink:href="#zoomMin" x="42" y="9" onmousedown="handleZoom(evt,'out')"/>
                <use id="reset" xlink:href="#resetDef" x="30" y="36" onmousedown="handleReset()"/>
                <g id="arrowUp" xlink:href="#dirArrow" transform="translate(30 24)" onmousedown="handlePan(0,-1)">
                  <use xlink:href="#rim" fill="#404040">
                        <set attributeName="fill" to="#808080" begin="arrowUp.mouseover" end="arrowUp.mouseout"/>
                  </use>
                  <path fill="none" stroke="white" stroke-width="1.5" d="M0,-3.0v7 M-2.5,-0.5L0,-3.0L2.5,-0.5"/>
                </g>
                <g id="arrowRight" xlink:href="#dirArrow" transform="rotate(90) translate(36 -43)" onmousedown="handlePan(1,0)">
                  <use xlink:href="#rim" fill="#404040">
                        <set attributeName="fill" to="#808080" begin="arrowRight.mouseover" end="arrowRight.mouseout"/>
                  </use>
                  <path fill="none" stroke="white" stroke-width="1.5" d="M0,-3.0v7 M-2.5,-0.5L0,-3.0L2.5,-0.5"/>
                </g>
                <g id="arrowDown" xlink:href="#dirArrow" transform="rotate(180) translate(-30 -48)" onmousedown="handlePan(0,1)">
                  <use xlink:href="#rim" fill="#404040">
                        <set attributeName="fill" to="#808080" begin="arrowDown.mouseover" end="arrowDown.mouseout"/>
                  </use>
                  <path fill="none" stroke="white" stroke-width="1.5" d="M0,-3.0v7 M-2.5,-0.5L0,-3.0L2.5,-0.5"/>
                </g>
                <g id="arrowLeft" xlink:href="#dirArrow" transform="rotate(270) translate(-36 17)" onmousedown="handlePan(-1,0)">
                  <use xlink:href="#rim" fill="#404040">
                        <set attributeName="fill" to="#808080" begin="arrowLeft.mouseover" end="arrowLeft.mouseout"/>
                  </use>
                  <path fill="none" stroke="white" stroke-width="1.5" d="M0,-3.0v7 M-2.5,-0.5L0,-3.0L2.5,-0.5"/>
                </g>
        </g>
        <svg viewBox="0 0 15 15" width="100%" height="30px" preserveAspectRatio="xMaxYMin meet">
         <g id="arrow_out" transform="scale(0.3 0.3)">
          <a xlink:href="classlocal_1_1connection__handler_1_1LocalConnectionHandler_a5e9277acd0b7bfa5a1e74417e0e10d86_cgraph_org.svg" target="_base">
           <rect id="button" ry="5" rx="5" y="6" x="6" height="38" width="38"
                fill="#f2f5e9" fill-opacity="0.5" stroke="#606060" stroke-width="1.0"/>
           <path id="arrow"
             d="M 11.500037,31.436501 C 11.940474,20.09759 22.043105,11.32322 32.158766,21.979434 L 37.068811,17.246167 C 37.068811,17.246167 37.088388,32 37.088388,32 L 22.160133,31.978069 C 22.160133,31.978069 26.997745,27.140456 26.997745,27.140456 C 18.528582,18.264221 13.291696,25.230495 11.500037,31.436501 z"
             style="fill:#404040;"/>
          </a>
         </g>
        </svg>
</svg>
