<?xml version="1.0" encoding="UTF-8" standalone="no"?>
<!DOCTYPE svg PUBLIC "-//W3C//DTD SVG 1.1//EN"
 "http://www.w3.org/Graphics/SVG/1.1/DTD/svg11.dtd">
<!-- Generated by graphviz version 2.43.0 (0)
 -->
<!-- Title: klyqa_ctl.account.Account._settings_loaded_ts Pages: 1 -->
<svg width="558pt" height="61pt"
 viewBox="0.00 0.00 558.00 61.00" xmlns="http://www.w3.org/2000/svg" xmlns:xlink="http://www.w3.org/1999/xlink">
<g id="graph0" class="graph" transform="scale(1 1) rotate(0) translate(4 57)">
<title>klyqa_ctl.account.Account._settings_loaded_ts</title>
<polygon fill="white" stroke="transparent" points="-4,4 -4,-57 554,-57 554,4 -4,4"/>
<!-- Node1 -->
<g id="node1" class="node">
<title>Node1</title>
<g id="a_node1"><a xlink:title=" ">
<polygon fill="#bfbfbf" stroke="black" points="403,-0.5 403,-30.5 550,-30.5 550,-0.5 403,-0.5"/>
<text text-anchor="start" x="411" y="-18.5" font-family="Helvetica,sans-Serif" font-size="10.00">klyqa_ctl.account.Account.</text>
<text text-anchor="middle" x="476.5" y="-7.5" font-family="Helvetica,sans-Serif" font-size="10.00">_settings_loaded_ts</text>
</a>
</g>
</g>
<!-- Node2 -->
<g id="node2" class="node">
<title>Node2</title>
<g id="a_node2"><a xlink:href="classklyqa__ctl_1_1account_1_1Account.html#af0575ef9bdf5304a26661f4a893b0c53" target="_top" xlink:title=" ">
<polygon fill="white" stroke="black" points="220,-22.5 220,-52.5 367,-52.5 367,-22.5 220,-22.5"/>
<text text-anchor="start" x="228" y="-40.5" font-family="Helvetica,sans-Serif" font-size="10.00">klyqa_ctl.account.Account.</text>
<text text-anchor="middle" x="293.5" y="-29.5" font-family="Helvetica,sans-Serif" font-size="10.00">_settings_loaded_ts</text>
</a>
</g>
</g>
<!-- Node1&#45;&gt;Node2 -->
<g id="edge1" class="edge">
<title>Node1&#45;&gt;Node2</title>
<path fill="none" stroke="midnightblue" d="M392.88,-25.54C384.28,-26.59 375.58,-27.65 367.09,-28.68"/>
<polygon fill="midnightblue" stroke="midnightblue" points="393.42,-29 402.92,-24.32 392.57,-22.05 393.42,-29"/>
</g>
<!-- Node3 -->
<g id="node3" class="node">
<title>Node3</title>
<g id="a_node3"><a xlink:href="classklyqa__ctl_1_1account_1_1Account.html#aeca1011f6c6e2f6bcdb2136ef48bc7fd" target="_top" xlink:title=" ">
<polygon fill="white" stroke="black" points="0,-0.5 0,-30.5 184,-30.5 184,-0.5 0,-0.5"/>
<text text-anchor="start" x="8" y="-18.5" font-family="Helvetica,sans-Serif" font-size="10.00">klyqa_ctl.account.Account.request</text>
<text text-anchor="middle" x="92" y="-7.5" font-family="Helvetica,sans-Serif" font-size="10.00">_account_settings_eco</text>
</a>
</g>
</g>
<!-- Node1&#45;&gt;Node3 -->
<g id="edge3" class="edge">
<title>Node1&#45;&gt;Node3</title>
<path fill="none" stroke="midnightblue" d="M392.69,-13.82C384.01,-13.69 375.33,-13.58 367,-13.5 301.67,-12.9 285.33,-12.99 220,-13.5 208.42,-13.59 196.25,-13.73 184.22,-13.89"/>
<polygon fill="midnightblue" stroke="midnightblue" points="392.79,-17.32 402.84,-13.98 392.9,-10.32 392.79,-17.32"/>
</g>
<!-- Node2&#45;&gt;Node3 -->
<g id="edge2" class="edge">
<title>Node2&#45;&gt;Node3</title>
<path fill="none" stroke="midnightblue" d="M209.75,-28.37C201.33,-27.45 192.75,-26.5 184.26,-25.56"/>
<polygon fill="midnightblue" stroke="midnightblue" points="209.59,-31.88 219.91,-29.5 210.36,-24.92 209.59,-31.88"/>
</g>
</g>
</svg>
