<?xml version="1.0" encoding="UTF-8" standalone="no"?>
<!DOCTYPE svg PUBLIC "-//W3C//DTD SVG 1.1//EN"
 "http://www.w3.org/Graphics/SVG/1.1/DTD/svg11.dtd">
<!-- Generated by graphviz version 2.43.0 (0)
 -->
<!-- Title: local.connection.TcpConnection.read_local_tcp_socket Pages: 1 -->
<svg width="1096pt" height="165pt"
 viewBox="0.00 0.00 1096.00 164.50" xmlns="http://www.w3.org/2000/svg" xmlns:xlink="http://www.w3.org/1999/xlink">
<g id="graph0" class="graph" transform="scale(1 1) rotate(0) translate(4 160.5)">
<title>local.connection.TcpConnection.read_local_tcp_socket</title>
<polygon fill="white" stroke="transparent" points="-4,4 -4,-160.5 1092,-160.5 1092,4 -4,4"/>
<!-- Node1 -->
<g id="node1" class="node">
<title>Node1</title>
<g id="a_node1"><a xlink:title=" ">
<polygon fill="#bfbfbf" stroke="black" points="0,-74.5 0,-104.5 194,-104.5 194,-74.5 0,-74.5"/>
<text text-anchor="start" x="8" y="-92.5" font-family="Helvetica,sans-Serif" font-size="10.00">local.connection.TcpConnection.read</text>
<text text-anchor="middle" x="97" y="-81.5" font-family="Helvetica,sans-Serif" font-size="10.00">_local_tcp_socket</text>
</a>
</g>
</g>
<!-- Node2 -->
<g id="node2" class="node">
<title>Node2</title>
<g id="a_node2"><a xlink:href="classlocal_1_1connection_1_1TcpConnection.html#abbbb7415b2c8a01af2e84d618895f855" target="_top" xlink:title=" ">
<polygon fill="white" stroke="black" points="230,-137 230,-156 434,-156 434,-137 230,-137"/>
<text text-anchor="middle" x="332" y="-144" font-family="Helvetica,sans-Serif" font-size="10.00">local.connection.TcpConnection.socket</text>
</a>
</g>
</g>
<!-- Node1&#45;&gt;Node2 -->
<g id="edge1" class="edge">
<title>Node1&#45;&gt;Node2</title>
<path fill="none" stroke="midnightblue" d="M157.43,-104.51C180.12,-110.21 206.25,-116.71 230,-122.5 246.39,-126.49 264.29,-130.78 280.41,-134.6"/>
<polygon fill="midnightblue" stroke="midnightblue" points="279.65,-138.02 290.19,-136.92 281.26,-131.21 279.65,-138.02"/>
</g>
<!-- Node3 -->
<g id="node3" class="node">
<title>Node3</title>
<g id="a_node3"><a xlink:href="namespaceklyqa__ctl_1_1general_1_1general.html#a9df3b50dfc0fcc7c8ec991bb9be9c5ba" target="_top" xlink:title=" ">
<polygon fill="white" stroke="black" points="670,-55 670,-74 855,-74 855,-55 670,-55"/>
<text text-anchor="middle" x="762.5" y="-62" font-family="Helvetica,sans-Serif" font-size="10.00">klyqa_ctl.general.general.task_log</text>
</a>
</g>
</g>
<!-- Node1&#45;&gt;Node3 -->
<g id="edge2" class="edge">
<title>Node1&#45;&gt;Node3</title>
<path fill="none" stroke="midnightblue" d="M194.14,-95.22C301.63,-100.3 480.75,-104.77 634,-89.5 660.42,-86.87 689.49,-81.37 713.2,-76.2"/>
<polygon fill="midnightblue" stroke="midnightblue" points="714,-79.61 723,-74.02 712.48,-72.78 714,-79.61"/>
</g>
<!-- Node5 -->
<g id="node5" class="node">
<title>Node5</title>
<g id="a_node5"><a xlink:href="namespaceklyqa__ctl_1_1general_1_1general.html#a1afe30a73cc28a3b65babeeab27e36c8" target="_top" xlink:title=" ">
<polygon fill="white" stroke="black" points="470,-49.5 470,-79.5 634,-79.5 634,-49.5 470,-49.5"/>
<text text-anchor="start" x="478" y="-67.5" font-family="Helvetica,sans-Serif" font-size="10.00">klyqa_ctl.general.general.task</text>
<text text-anchor="middle" x="552" y="-56.5" font-family="Helvetica,sans-Serif" font-size="10.00">_log_debug</text>
</a>
</g>
</g>
<!-- Node1&#45;&gt;Node5 -->
<g id="edge4" class="edge">
<title>Node1&#45;&gt;Node5</title>
<path fill="none" stroke="midnightblue" d="M194.07,-84.2C272.49,-79.87 382.55,-73.8 459.66,-69.54"/>
<polygon fill="midnightblue" stroke="midnightblue" points="460.05,-73.02 469.84,-68.98 459.66,-66.04 460.05,-73.02"/>
</g>
<!-- Node6 -->
<g id="node6" class="node">
<title>Node6</title>
<g id="a_node6"><a xlink:href="namespaceklyqa__ctl_1_1general_1_1general.html#ad6b753e482e539892c57f8144cf213cb" target="_top" xlink:title=" ">
<polygon fill="white" stroke="black" points="250,-6.5 250,-36.5 414,-36.5 414,-6.5 250,-6.5"/>
<text text-anchor="start" x="258" y="-24.5" font-family="Helvetica,sans-Serif" font-size="10.00">klyqa_ctl.general.general.task</text>
<text text-anchor="middle" x="332" y="-13.5" font-family="Helvetica,sans-Serif" font-size="10.00">_log_trace_ex</text>
</a>
</g>
</g>
<!-- Node1&#45;&gt;Node6 -->
<g id="edge6" class="edge">
<title>Node1&#45;&gt;Node6</title>
<path fill="none" stroke="midnightblue" d="M149.42,-74.49C184.85,-64.15 232.11,-50.36 269.53,-39.44"/>
<polygon fill="midnightblue" stroke="midnightblue" points="270.69,-42.75 279.31,-36.59 268.73,-36.03 270.69,-42.75"/>
</g>
<!-- Node4 -->
<g id="node4" class="node">
<title>Node4</title>
<g id="a_node4"><a xlink:href="namespaceklyqa__ctl_1_1general_1_1general.html#aea905150cafee39fa2ca211f1e60f012" target="_top" xlink:title=" ">
<polygon fill="white" stroke="black" points="891,-55 891,-74 1088,-74 1088,-55 891,-55"/>
<text text-anchor="middle" x="989.5" y="-62" font-family="Helvetica,sans-Serif" font-size="10.00">klyqa_ctl.general.general.task_name</text>
</a>
</g>
</g>
<!-- Node3&#45;&gt;Node4 -->
<g id="edge3" class="edge">
<title>Node3&#45;&gt;Node4</title>
<path fill="none" stroke="midnightblue" d="M855.02,-64.5C863.5,-64.5 872.15,-64.5 880.76,-64.5"/>
<polygon fill="midnightblue" stroke="midnightblue" points="880.83,-68 890.83,-64.5 880.83,-61 880.83,-68"/>
</g>
<!-- Node5&#45;&gt;Node3 -->
<g id="edge5" class="edge">
<title>Node5&#45;&gt;Node3</title>
<path fill="none" stroke="midnightblue" d="M634.21,-64.5C642.59,-64.5 651.18,-64.5 659.75,-64.5"/>
<polygon fill="midnightblue" stroke="midnightblue" points="659.79,-68 669.79,-64.5 659.79,-61 659.79,-68"/>
</g>
<!-- Node7 -->
<g id="node7" class="node">
<title>Node7</title>
<g id="a_node7"><a xlink:href="namespaceklyqa__ctl_1_1general_1_1general.html#ab2f9a22e98cd16d0d284d22382cfcb02" target="_top" xlink:title=" ">
<polygon fill="white" stroke="black" points="470,-0.5 470,-30.5 634,-30.5 634,-0.5 470,-0.5"/>
<text text-anchor="start" x="478" y="-18.5" font-family="Helvetica,sans-Serif" font-size="10.00">klyqa_ctl.general.general.task</text>
<text text-anchor="middle" x="552" y="-7.5" font-family="Helvetica,sans-Serif" font-size="10.00">_log_trace</text>
</a>
</g>
</g>
<!-- Node6&#45;&gt;Node7 -->
<g id="edge7" class="edge">
<title>Node6&#45;&gt;Node7</title>
<path fill="none" stroke="midnightblue" d="M414.18,-19.27C428.93,-18.86 444.41,-18.43 459.44,-18.02"/>
<polygon fill="midnightblue" stroke="midnightblue" points="459.86,-21.51 469.76,-17.74 459.66,-14.51 459.86,-21.51"/>
</g>
<!-- Node7&#45;&gt;Node3 -->
<g id="edge8" class="edge">
<title>Node7&#45;&gt;Node3</title>
<path fill="none" stroke="midnightblue" d="M616.97,-30.53C647.15,-37.63 682.64,-45.97 710.9,-52.61"/>
<polygon fill="midnightblue" stroke="midnightblue" points="710.42,-56.09 720.96,-54.97 712.02,-49.28 710.42,-56.09"/>
</g>
</g>
</svg>
