<?xml version="1.0" encoding="UTF-8" standalone="no"?>
<!DOCTYPE svg PUBLIC "-//W3C//DTD SVG 1.1//EN"
 "http://www.w3.org/Graphics/SVG/1.1/DTD/svg11.dtd">
<!-- Generated by graphviz version 2.43.0 (0)
 -->
<!-- Title: local.connection_handler.LocalConnectionHandler.tcp Pages: 1 -->
<svg width="1002pt" height="247pt"
 viewBox="0.00 0.00 1002.00 246.50" xmlns="http://www.w3.org/2000/svg" xmlns:xlink="http://www.w3.org/1999/xlink">
<g id="graph0" class="graph" transform="scale(1 1) rotate(0) translate(4 242.5)">
<title>local.connection_handler.LocalConnectionHandler.tcp</title>
<polygon fill="white" stroke="transparent" points="-4,4 -4,-242.5 998,-242.5 998,4 -4,4"/>
<!-- Node1 -->
<g id="node1" class="node">
<title>Node1</title>
<g id="a_node1"><a xlink:title=" ">
<polygon fill="#bfbfbf" stroke="black" points="842,-104.5 842,-134.5 994,-134.5 994,-104.5 842,-104.5"/>
<text text-anchor="start" x="850" y="-122.5" font-family="Helvetica,sans-Serif" font-size="10.00">local.connection_handler.</text>
<text text-anchor="middle" x="918" y="-111.5" font-family="Helvetica,sans-Serif" font-size="10.00">LocalConnectionHandler.tcp</text>
</a>
</g>
</g>
<!-- Node2 -->
<g id="node2" class="node">
<title>Node2</title>
<g id="a_node2"><a xlink:href="classlocal_1_1connection__handler_1_1LocalConnectionHandler.html#a28f05e11005dfc83e537f9e2e85f54d5" target="_top" xlink:title=" ">
<polygon fill="white" stroke="black" points="618,-148.5 618,-178.5 806,-178.5 806,-148.5 618,-148.5"/>
<text text-anchor="start" x="626" y="-166.5" font-family="Helvetica,sans-Serif" font-size="10.00">local.connection_handler.</text>
<text text-anchor="middle" x="712" y="-155.5" font-family="Helvetica,sans-Serif" font-size="10.00">LocalConnectionHandler.bind_ports</text>
</a>
</g>
</g>
<!-- Node1&#45;&gt;Node2 -->
<g id="edge1" class="edge">
<title>Node1&#45;&gt;Node2</title>
<path fill="none" stroke="midnightblue" d="M837.44,-136.66C819.36,-140.56 800.3,-144.67 782.67,-148.47"/>
<polygon fill="midnightblue" stroke="midnightblue" points="838.33,-140.05 847.37,-134.52 836.85,-133.21 838.33,-140.05"/>
</g>
<!-- Node3 -->
<g id="node3" class="node">
<title>Node3</title>
<g id="a_node3"><a xlink:href="classlocal_1_1connection__handler_1_1LocalConnectionHandler.html#aa5d34422c7cb1784e408fef186a0b585" target="_top" xlink:title=" ">
<polygon fill="white" stroke="black" points="215,-197 215,-238 385,-238 385,-197 215,-197"/>
<text text-anchor="start" x="223" y="-226" font-family="Helvetica,sans-Serif" font-size="10.00">local.connection_handler.</text>
<text text-anchor="start" x="223" y="-215" font-family="Helvetica,sans-Serif" font-size="10.00">LocalConnectionHandler.handle</text>
<text text-anchor="middle" x="300" y="-204" font-family="Helvetica,sans-Serif" font-size="10.00">_connections</text>
</a>
</g>
</g>
<!-- Node1&#45;&gt;Node3 -->
<g id="edge8" class="edge">
<title>Node1&#45;&gt;Node3</title>
<path fill="none" stroke="midnightblue" d="M890.29,-140.79C868.82,-156.71 837.18,-177.54 806,-188.5 664.75,-238.16 487.64,-234.53 385.1,-226.57"/>
<polygon fill="midnightblue" stroke="midnightblue" points="892.42,-143.57 898.28,-134.75 888.2,-137.99 892.42,-143.57"/>
</g>
<!-- Node4 -->
<g id="node4" class="node">
<title>Node4</title>
<g id="a_node4"><a xlink:href="classlocal_1_1connection__handler_1_1LocalConnectionHandler.html#aa6b6ea4bb56f4c18b6906bab38c971a7" target="_top" xlink:title=" ">
<polygon fill="white" stroke="black" points="422,-83 422,-124 581,-124 581,-83 422,-83"/>
<text text-anchor="start" x="430" y="-112" font-family="Helvetica,sans-Serif" font-size="10.00">local.connection_handler.</text>
<text text-anchor="start" x="430" y="-101" font-family="Helvetica,sans-Serif" font-size="10.00">LocalConnectionHandler.read</text>
<text text-anchor="middle" x="501.5" y="-90" font-family="Helvetica,sans-Serif" font-size="10.00">_incoming_tcp_con_task</text>
</a>
</g>
</g>
<!-- Node1&#45;&gt;Node4 -->
<g id="edge10" class="edge">
<title>Node1&#45;&gt;Node4</title>
<path fill="none" stroke="midnightblue" d="M831.78,-116.21C758.23,-113.37 652.83,-109.3 581.23,-106.54"/>
<polygon fill="midnightblue" stroke="midnightblue" points="831.81,-119.71 841.94,-116.6 832.08,-112.72 831.81,-119.71"/>
</g>
<!-- Node8 -->
<g id="node8" class="node">
<title>Node8</title>
<g id="a_node8"><a xlink:href="classlocal_1_1connection__handler_1_1LocalConnectionHandler.html#a5e9277acd0b7bfa5a1e74417e0e10d86" target="_top" xlink:title=" ">
<polygon fill="white" stroke="black" points="627,-50 627,-91 797,-91 797,-50 627,-50"/>
<text text-anchor="start" x="635" y="-79" font-family="Helvetica,sans-Serif" font-size="10.00">local.connection_handler.</text>
<text text-anchor="start" x="635" y="-68" font-family="Helvetica,sans-Serif" font-size="10.00">LocalConnectionHandler.handle</text>
<text text-anchor="middle" x="712" y="-57" font-family="Helvetica,sans-Serif" font-size="10.00">_incoming_tcp_connection</text>
</a>
</g>
</g>
<!-- Node1&#45;&gt;Node8 -->
<g id="edge9" class="edge">
<title>Node1&#45;&gt;Node8</title>
<path fill="none" stroke="midnightblue" d="M844.51,-102.09C829.22,-98.42 812.95,-94.51 797.27,-90.74"/>
<polygon fill="midnightblue" stroke="midnightblue" points="843.87,-105.53 854.41,-104.47 845.5,-98.73 843.87,-105.53"/>
</g>
<!-- Node9 -->
<g id="node9" class="node">
<title>Node9</title>
<g id="a_node9"><a xlink:href="classlocal_1_1connection__handler_1_1LocalConnectionHandler.html#a3510d32dbcb1a08fcd7796e2d8d2bdd6" target="_top" xlink:title=" ">
<polygon fill="white" stroke="black" points="619.5,-0.5 619.5,-30.5 804.5,-30.5 804.5,-0.5 619.5,-0.5"/>
<text text-anchor="start" x="627.5" y="-18.5" font-family="Helvetica,sans-Serif" font-size="10.00">local.connection_handler.</text>
<text text-anchor="middle" x="712" y="-7.5" font-family="Helvetica,sans-Serif" font-size="10.00">LocalConnectionHandler.shutdown</text>
</a>
</g>
</g>
<!-- Node1&#45;&gt;Node9 -->
<g id="edge11" class="edge">
<title>Node1&#45;&gt;Node9</title>
<path fill="none" stroke="midnightblue" d="M892.11,-97.81C870.62,-80.11 838.06,-55.62 806,-40.5 797.99,-36.72 789.3,-33.44 780.57,-30.6"/>
<polygon fill="midnightblue" stroke="midnightblue" points="889.87,-100.5 899.78,-104.24 894.36,-95.13 889.87,-100.5"/>
</g>
<!-- Node2&#45;&gt;Node3 -->
<g id="edge2" class="edge">
<title>Node2&#45;&gt;Node3</title>
<path fill="none" stroke="midnightblue" d="M644.29,-180.93C624.37,-185.62 602.4,-190.27 582,-193.5 516.35,-203.88 441.31,-210 385.3,-213.46"/>
<polygon fill="midnightblue" stroke="midnightblue" points="645.28,-184.29 654.19,-178.56 643.65,-177.49 645.28,-184.29"/>
</g>
<!-- Node2&#45;&gt;Node4 -->
<g id="edge3" class="edge">
<title>Node2&#45;&gt;Node4</title>
<path fill="none" stroke="midnightblue" d="M648.77,-145.59C625.18,-138.8 598.14,-131.02 573.78,-124.01"/>
<polygon fill="midnightblue" stroke="midnightblue" points="648.08,-149.03 658.66,-148.44 650.01,-142.31 648.08,-149.03"/>
</g>
<!-- Node5 -->
<g id="node5" class="node">
<title>Node5</title>
<g id="a_node5"><a xlink:href="classlocal_1_1connection__handler_1_1LocalConnectionHandler.html#a69a2aabf1a7bc94f925f914df5ceae10" target="_top" xlink:title=" ">
<polygon fill="white" stroke="black" points="421,-143 421,-184 582,-184 582,-143 421,-143"/>
<text text-anchor="start" x="429" y="-172" font-family="Helvetica,sans-Serif" font-size="10.00">local.connection_handler.</text>
<text text-anchor="start" x="429" y="-161" font-family="Helvetica,sans-Serif" font-size="10.00">LocalConnectionHandler.send</text>
<text text-anchor="middle" x="501.5" y="-150" font-family="Helvetica,sans-Serif" font-size="10.00">_udp_broadcast</text>
</a>
</g>
</g>
<!-- Node2&#45;&gt;Node5 -->
<g id="edge4" class="edge">
<title>Node2&#45;&gt;Node5</title>
<path fill="none" stroke="midnightblue" d="M607.72,-163.5C599.19,-163.5 590.64,-163.5 582.32,-163.5"/>
<polygon fill="midnightblue" stroke="midnightblue" points="607.73,-167 617.73,-163.5 607.73,-160 607.73,-167"/>
</g>
<!-- Node5&#45;&gt;Node3 -->
<g id="edge5" class="edge">
<title>Node5&#45;&gt;Node3</title>
<path fill="none" stroke="midnightblue" d="M414.52,-186.77C401.96,-190.17 389.11,-193.65 376.78,-196.99"/>
<polygon fill="midnightblue" stroke="midnightblue" points="415.77,-190.06 424.51,-184.07 413.94,-183.3 415.77,-190.06"/>
</g>
<!-- Node6 -->
<g id="node6" class="node">
<title>Node6</title>
<g id="a_node6"><a xlink:href="classlocal_1_1connection__handler_1_1LocalConnectionHandler.html#aae9d106df606f3c68a146e0af7f60bba" target="_top" xlink:title=" ">
<polygon fill="white" stroke="black" points="219.5,-137 219.5,-178 380.5,-178 380.5,-137 219.5,-137"/>
<text text-anchor="start" x="227.5" y="-166" font-family="Helvetica,sans-Serif" font-size="10.00">local.connection_handler.</text>
<text text-anchor="start" x="227.5" y="-155" font-family="Helvetica,sans-Serif" font-size="10.00">LocalConnectionHandler.send</text>
<text text-anchor="middle" x="300" y="-144" font-family="Helvetica,sans-Serif" font-size="10.00">_message</text>
</a>
</g>
</g>
<!-- Node5&#45;&gt;Node6 -->
<g id="edge6" class="edge">
<title>Node5&#45;&gt;Node6</title>
<path fill="none" stroke="midnightblue" d="M410.78,-160.8C400.72,-160.5 390.51,-160.19 380.58,-159.89"/>
<polygon fill="midnightblue" stroke="midnightblue" points="410.69,-164.3 420.79,-161.1 410.9,-157.3 410.69,-164.3"/>
</g>
<!-- Node7 -->
<g id="node7" class="node">
<title>Node7</title>
<g id="a_node7"><a xlink:href="classlocal_1_1connection__handler_1_1LocalConnectionHandler.html#af714f4a1c0791c62d2d3990990a42cf4" target="_top" xlink:title=" ">
<polygon fill="white" stroke="black" points="0,-137 0,-178 179,-178 179,-137 0,-137"/>
<text text-anchor="start" x="8" y="-166" font-family="Helvetica,sans-Serif" font-size="10.00">local.connection_handler.</text>
<text text-anchor="start" x="8" y="-155" font-family="Helvetica,sans-Serif" font-size="10.00">LocalConnectionHandler.discover</text>
<text text-anchor="middle" x="89.5" y="-144" font-family="Helvetica,sans-Serif" font-size="10.00">_devices</text>
</a>
</g>
</g>
<!-- Node6&#45;&gt;Node7 -->
<g id="edge7" class="edge">
<title>Node6&#45;&gt;Node7</title>
<path fill="none" stroke="midnightblue" d="M209.05,-157.5C199.16,-157.5 189.09,-157.5 179.21,-157.5"/>
<polygon fill="midnightblue" stroke="midnightblue" points="209.28,-161 219.28,-157.5 209.28,-154 209.28,-161"/>
</g>
</g>
</svg>
