<?xml version="1.0" encoding="UTF-8" standalone="no"?>
<!DOCTYPE svg PUBLIC "-//W3C//DTD SVG 1.1//EN"
 "http://www.w3.org/Graphics/SVG/1.1/DTD/svg11.dtd">
<!-- Generated by graphviz version 2.43.0 (0)
 -->
<!-- Title: klyqa_ctl.devices.light.commands.RoutinePutCommand.check_values Pages: 1 -->
<svg width="710pt" height="61pt"
 viewBox="0.00 0.00 710.00 61.00" xmlns="http://www.w3.org/2000/svg" xmlns:xlink="http://www.w3.org/1999/xlink">
<g id="graph0" class="graph" transform="scale(1 1) rotate(0) translate(4 57)">
<title>klyqa_ctl.devices.light.commands.RoutinePutCommand.check_values</title>
<polygon fill="white" stroke="transparent" points="-4,4 -4,-57 706,-57 706,4 -4,4"/>
<!-- Node1 -->
<g id="node1" class="node">
<title>Node1</title>
<g id="a_node1"><a xlink:title=" ">
<polygon fill="#bfbfbf" stroke="black" points="0,-22.5 0,-52.5 189,-52.5 189,-22.5 0,-22.5"/>
<text text-anchor="start" x="8" y="-40.5" font-family="Helvetica,sans-Serif" font-size="10.00">klyqa_ctl.devices.light.commands.</text>
<text text-anchor="middle" x="94.5" y="-29.5" font-family="Helvetica,sans-Serif" font-size="10.00">RoutinePutCommand.check_values</text>
</a>
</g>
</g>
<!-- Node2 -->
<g id="node2" class="node">
<title>Node2</title>
<g id="a_node2"><a xlink:href="namespaceklyqa__ctl_1_1devices_1_1light_1_1commands.html#abb5f7e9390b622da97654771e70c196d" target="_top" xlink:title=" ">
<polygon fill="white" stroke="black" points="485,-22.5 485,-52.5 702,-52.5 702,-22.5 485,-22.5"/>
<text text-anchor="start" x="493" y="-40.5" font-family="Helvetica,sans-Serif" font-size="10.00">klyqa_ctl.devices.light.commands.forced</text>
<text text-anchor="middle" x="593.5" y="-29.5" font-family="Helvetica,sans-Serif" font-size="10.00">_continue</text>
</a>
</g>
</g>
<!-- Node1&#45;&gt;Node2 -->
<g id="edge1" class="edge">
<title>Node1&#45;&gt;Node2</title>
<path fill="none" stroke="midnightblue" d="M189.22,-39.93C201.26,-40.16 213.42,-40.37 225,-40.5 324.55,-41.65 349.45,-41.54 449,-40.5 457.33,-40.41 465.93,-40.3 474.58,-40.16"/>
<polygon fill="midnightblue" stroke="midnightblue" points="474.82,-43.66 484.76,-40 474.71,-36.66 474.82,-43.66"/>
</g>
<!-- Node3 -->
<g id="node3" class="node">
<title>Node3</title>
<g id="a_node3"><a xlink:href="namespaceklyqa__ctl_1_1devices_1_1light_1_1commands.html#ae8e079eb20d1dc31176135131c4161f5" target="_top" xlink:title=" ">
<polygon fill="white" stroke="black" points="225,-0.5 225,-30.5 449,-30.5 449,-0.5 225,-0.5"/>
<text text-anchor="start" x="233" y="-18.5" font-family="Helvetica,sans-Serif" font-size="10.00">klyqa_ctl.devices.light.commands.missing</text>
<text text-anchor="middle" x="337" y="-7.5" font-family="Helvetica,sans-Serif" font-size="10.00">_config</text>
</a>
</g>
</g>
<!-- Node1&#45;&gt;Node3 -->
<g id="edge2" class="edge">
<title>Node1&#45;&gt;Node3</title>
<path fill="none" stroke="midnightblue" d="M189.17,-28.93C197.61,-28.16 206.23,-27.37 214.86,-26.58"/>
<polygon fill="midnightblue" stroke="midnightblue" points="215.34,-30.05 224.98,-25.66 214.7,-23.08 215.34,-30.05"/>
</g>
<!-- Node3&#45;&gt;Node2 -->
<g id="edge3" class="edge">
<title>Node3&#45;&gt;Node2</title>
<path fill="none" stroke="midnightblue" d="M449.26,-25.12C457.63,-25.84 466.09,-26.57 474.49,-27.3"/>
<polygon fill="midnightblue" stroke="midnightblue" points="474.45,-30.81 484.71,-28.18 475.05,-23.83 474.45,-30.81"/>
</g>
</g>
</svg>
