<?xml version="1.0" encoding="UTF-8" standalone="no"?>
<!DOCTYPE svg PUBLIC "-//W3C//DTD SVG 1.1//EN"
 "http://www.w3.org/Graphics/SVG/1.1/DTD/svg11.dtd">
<!-- Generated by graphviz version 2.43.0 (0)
 -->
<!-- Title: klyqa_ctl.general.general.Command.cloud Pages: 1 -->
<!--zoomable 676 -->
<svg id="main" version="1.1" xmlns="http://www.w3.org/2000/svg" xmlns:xlink="http://www.w3.org/1999/xlink" xml:space="preserve" onload="init(evt)">
<style type="text/css"><![CDATA[
.edge:hover path { stroke: red; }
.edge:hover polygon { stroke: red; fill: red; }
]]></style>
<script type="text/javascript"><![CDATA[
var edges = document.getElementsByTagName('g');
if (edges && edges.length) {
  for (var i=0;i<edges.length;i++) {
    if (edges[i].id.substr(0,4)=='edge') {
      edges[i].setAttribute('class','edge');
    }
  }
}
]]></script>
        <defs>
                <circle id="rim" cx="0" cy="0" r="7"/>
                <circle id="rim2" cx="0" cy="0" r="3.5"/>
                <g id="zoomPlus">
                        <use xlink:href="#rim" fill="#404040">
                                <set attributeName="fill" to="#808080" begin="zoomplus.mouseover" end="zoomplus.mouseout"/>
                        </use>
                        <path d="M-4,0h8M0,-4v8" fill="none" stroke="white" stroke-width="1.5" pointer-events="none"/>
                </g>
                <g id="zoomMin">
                        <use xlink:href="#rim" fill="#404040">
                                <set attributeName="fill" to="#808080" begin="zoomminus.mouseover" end="zoomminus.mouseout"/>
                        </use>
                        <path d="M-4,0h8" fill="none" stroke="white" stroke-width="1.5" pointer-events="none"/>
                </g>
                <g id="dirArrow">
                        <path fill="none" stroke="white" stroke-width="1.5" d="M0,-3.0v7 M-2.5,-0.5L0,-3.0L2.5,-0.5"/>
                </g>
               <g id="resetDef">
                       <use xlink:href="#rim2" fill="#404040">
                               <set attributeName="fill" to="#808080" begin="reset.mouseover" end="reset.mouseout"/>
                       </use>
               </g>
        </defs>

<script type="text/javascript">
var viewWidth = 877;
var viewHeight = 676;
var sectionId = 'dynsection-3';
</script>
<script xlink:href="svgpan.js"/>
<svg id="graph" class="graph">
<g id="viewport">
<title>klyqa_ctl.general.general.Command.cloud</title>
<polygon fill="white" stroke="transparent" points="-4,4 -4,-672 873,-672 873,4 -4,4"/>
<!-- Node1 -->
<g id="node1" class="node">
<title>Node1</title>
<g id="a_node1"><a xlink:title=" ">
<polygon fill="#bfbfbf" stroke="black" points="0,-318.5 0,-348.5 143,-348.5 143,-318.5 0,-318.5"/>
<text text-anchor="start" x="8" y="-336.5" font-family="Helvetica,sans-Serif" font-size="10.00">klyqa_ctl.general.general.</text>
<text text-anchor="middle" x="71.5" y="-325.5" font-family="Helvetica,sans-Serif" font-size="10.00">Command.cloud</text>
</a>
</g>
</g>
<!-- Node2 -->
<g id="node2" class="node">
<title>Node2</title>
<g id="a_node2"><a xlink:href="classklyqa__ctl_1_1devices_1_1light_1_1commands_1_1FwUpdateCommand.html#a9de3441c7fbba5f5a19ea914970a3db7" target="_top" xlink:title=" ">
<polygon fill="white" stroke="black" points="187.5,-637.5 187.5,-667.5 373.5,-667.5 373.5,-637.5 187.5,-637.5"/>
<text text-anchor="start" x="195.5" y="-655.5" font-family="Helvetica,sans-Serif" font-size="10.00">klyqa_ctl.devices.light.commands.</text>
<text text-anchor="middle" x="280.5" y="-644.5" font-family="Helvetica,sans-Serif" font-size="10.00">FwUpdateCommand.json</text>
</a>
</g>
</g>
<!-- Node1&#45;&gt;Node2 -->
<g id="edge1" class="edge">
<title>Node1&#45;&gt;Node2</title>
<path fill="none" stroke="midnightblue" d="M73.16,-348.79C76.15,-397.6 92.32,-551.03 179,-628.5 180.17,-629.55 181.38,-630.55 182.62,-631.51"/>
<polygon fill="midnightblue" stroke="midnightblue" points="180.99,-634.63 191.26,-637.26 184.87,-628.81 180.99,-634.63"/>
</g>
<!-- Node4 -->
<g id="node4" class="node">
<title>Node4</title>
<g id="a_node4"><a xlink:href="classklyqa__ctl_1_1devices_1_1light_1_1commands_1_1TransitionCommand.html#aaf9d8431e346c86b9959102c2d7f3316" target="_top" xlink:title=" ">
<polygon fill="white" stroke="black" points="187.5,-588.5 187.5,-618.5 373.5,-618.5 373.5,-588.5 187.5,-588.5"/>
<text text-anchor="start" x="195.5" y="-606.5" font-family="Helvetica,sans-Serif" font-size="10.00">klyqa_ctl.devices.light.commands.</text>
<text text-anchor="middle" x="280.5" y="-595.5" font-family="Helvetica,sans-Serif" font-size="10.00">TransitionCommand.json</text>
</a>
</g>
</g>
<!-- Node1&#45;&gt;Node4 -->
<g id="edge3" class="edge">
<title>Node1&#45;&gt;Node4</title>
<path fill="none" stroke="midnightblue" d="M74.37,-348.7C80.55,-391.98 104.32,-516.81 179,-579.5 180.37,-580.65 181.79,-581.75 183.24,-582.79"/>
<polygon fill="midnightblue" stroke="midnightblue" points="181.64,-585.92 191.98,-588.24 185.35,-579.98 181.64,-585.92"/>
</g>
<!-- Node5 -->
<g id="node5" class="node">
<title>Node5</title>
<g id="a_node5"><a xlink:href="classklyqa__ctl_1_1devices_1_1light_1_1commands_1_1ColorCommand.html#afa8f262e4047666707237c4dfe8615c3" target="_top" xlink:title=" ">
<polygon fill="white" stroke="black" points="187.5,-539.5 187.5,-569.5 373.5,-569.5 373.5,-539.5 187.5,-539.5"/>
<text text-anchor="start" x="195.5" y="-557.5" font-family="Helvetica,sans-Serif" font-size="10.00">klyqa_ctl.devices.light.commands.</text>
<text text-anchor="middle" x="280.5" y="-546.5" font-family="Helvetica,sans-Serif" font-size="10.00">ColorCommand.json</text>
</a>
</g>
</g>
<!-- Node1&#45;&gt;Node5 -->
<g id="edge4" class="edge">
<title>Node1&#45;&gt;Node5</title>
<path fill="none" stroke="midnightblue" d="M76.11,-348.6C85.81,-385.78 116.09,-482.2 179,-530.5 180.79,-531.88 182.65,-533.17 184.57,-534.4"/>
<polygon fill="midnightblue" stroke="midnightblue" points="182.86,-537.45 193.29,-539.32 186.3,-531.36 182.86,-537.45"/>
</g>
<!-- Node8 -->
<g id="node8" class="node">
<title>Node8</title>
<g id="a_node8"><a xlink:href="classklyqa__ctl_1_1devices_1_1light_1_1commands_1_1TemperatureCommand.html#aaa297cd598227ab2f33a6d111532e5e0" target="_top" xlink:title=" ">
<polygon fill="white" stroke="black" points="187.5,-490.5 187.5,-520.5 373.5,-520.5 373.5,-490.5 187.5,-490.5"/>
<text text-anchor="start" x="195.5" y="-508.5" font-family="Helvetica,sans-Serif" font-size="10.00">klyqa_ctl.devices.light.commands.</text>
<text text-anchor="middle" x="280.5" y="-497.5" font-family="Helvetica,sans-Serif" font-size="10.00">TemperatureCommand.json</text>
</a>
</g>
</g>
<!-- Node1&#45;&gt;Node8 -->
<g id="edge7" class="edge">
<title>Node1&#45;&gt;Node8</title>
<path fill="none" stroke="midnightblue" d="M79.03,-348.85C92.77,-379.24 127.73,-447.12 179,-481.5 181.41,-483.12 183.92,-484.62 186.5,-486.03"/>
<polygon fill="midnightblue" stroke="midnightblue" points="185.01,-489.2 195.53,-490.43 188.07,-482.9 185.01,-489.2"/>
</g>
<!-- Node11 -->
<g id="node11" class="node">
<title>Node11</title>
<g id="a_node11"><a xlink:href="classklyqa__ctl_1_1devices_1_1light_1_1commands_1_1BrightnessCommand.html#a946e7180dd8f3bd4621c23b24e63469a" target="_top" xlink:title=" ">
<polygon fill="white" stroke="black" points="187.5,-441.5 187.5,-471.5 373.5,-471.5 373.5,-441.5 187.5,-441.5"/>
<text text-anchor="start" x="195.5" y="-459.5" font-family="Helvetica,sans-Serif" font-size="10.00">klyqa_ctl.devices.light.commands.</text>
<text text-anchor="middle" x="280.5" y="-448.5" font-family="Helvetica,sans-Serif" font-size="10.00">BrightnessCommand.json</text>
</a>
</g>
</g>
<!-- Node1&#45;&gt;Node11 -->
<g id="edge10" class="edge">
<title>Node1&#45;&gt;Node11</title>
<path fill="none" stroke="midnightblue" d="M84.49,-348.82C102.56,-370.82 138.94,-411.05 179,-432.5 182.55,-434.4 186.24,-436.15 190.03,-437.76"/>
<polygon fill="midnightblue" stroke="midnightblue" points="189.04,-441.13 199.63,-441.5 191.58,-434.61 189.04,-441.13"/>
</g>
<!-- Node14 -->
<g id="node14" class="node">
<title>Node14</title>
<g id="a_node14"><a xlink:href="classklyqa__ctl_1_1devices_1_1light_1_1commands_1_1ExternalSourceCommand.html#a393710b54f709b852bfd0f3769c39ce6" target="_top" xlink:title=" ">
<polygon fill="white" stroke="black" points="187.5,-392.5 187.5,-422.5 373.5,-422.5 373.5,-392.5 187.5,-392.5"/>
<text text-anchor="start" x="195.5" y="-410.5" font-family="Helvetica,sans-Serif" font-size="10.00">klyqa_ctl.devices.light.commands.</text>
<text text-anchor="middle" x="280.5" y="-399.5" font-family="Helvetica,sans-Serif" font-size="10.00">ExternalSourceCommand.json</text>
</a>
</g>
</g>
<!-- Node1&#45;&gt;Node14 -->
<g id="edge13" class="edge">
<title>Node1&#45;&gt;Node14</title>
<path fill="none" stroke="midnightblue" d="M100.76,-348.71C121.85,-359.58 151.62,-373.92 179,-383.5 185.31,-385.71 191.92,-387.78 198.6,-389.72"/>
<polygon fill="midnightblue" stroke="midnightblue" points="197.84,-393.14 208.42,-392.45 199.72,-386.4 197.84,-393.14"/>
</g>
<!-- Node15 -->
<g id="node15" class="node">
<title>Node15</title>
<g id="a_node15"><a xlink:href="classklyqa__ctl_1_1devices_1_1light_1_1commands_1_1RoutineCommand.html#af3395a663a3dbdff8117ee708f80adec" target="_top" xlink:title=" ">
<polygon fill="white" stroke="black" points="187.5,-343.5 187.5,-373.5 373.5,-373.5 373.5,-343.5 187.5,-343.5"/>
<text text-anchor="start" x="195.5" y="-361.5" font-family="Helvetica,sans-Serif" font-size="10.00">klyqa_ctl.devices.light.commands.</text>
<text text-anchor="middle" x="280.5" y="-350.5" font-family="Helvetica,sans-Serif" font-size="10.00">RoutineCommand.json</text>
</a>
</g>
</g>
<!-- Node1&#45;&gt;Node15 -->
<g id="edge14" class="edge">
<title>Node1&#45;&gt;Node15</title>
<path fill="none" stroke="midnightblue" d="M143.16,-342.03C154.12,-343.36 165.63,-344.75 177.12,-346.14"/>
<polygon fill="midnightblue" stroke="midnightblue" points="176.85,-349.63 187.2,-347.35 177.69,-342.68 176.85,-349.63"/>
</g>
<!-- Node16 -->
<g id="node16" class="node">
<title>Node16</title>
<g id="a_node16"><a xlink:href="classklyqa__ctl_1_1devices_1_1vacuum_1_1commands_1_1ProductinfoCommand.html#a23d375f048835d4b0f12602764d2a6c1" target="_top" xlink:title=" ">
<polygon fill="white" stroke="black" points="179,-294.5 179,-324.5 382,-324.5 382,-294.5 179,-294.5"/>
<text text-anchor="start" x="187" y="-312.5" font-family="Helvetica,sans-Serif" font-size="10.00">klyqa_ctl.devices.vacuum.commands.</text>
<text text-anchor="middle" x="280.5" y="-301.5" font-family="Helvetica,sans-Serif" font-size="10.00">ProductinfoCommand.json</text>
</a>
</g>
</g>
<!-- Node1&#45;&gt;Node16 -->
<g id="edge15" class="edge">
<title>Node1&#45;&gt;Node16</title>
<path fill="none" stroke="midnightblue" d="M143.16,-325.31C151.41,-324.35 159.97,-323.36 168.6,-322.36"/>
<polygon fill="midnightblue" stroke="midnightblue" points="169.21,-325.81 178.75,-321.18 168.41,-318.86 169.21,-325.81"/>
</g>
<!-- Node18 -->
<g id="node18" class="node">
<title>Node18</title>
<g id="a_node18"><a xlink:href="classklyqa__ctl_1_1devices_1_1vacuum_1_1commands_1_1RequestGetCommand.html#a216966811184b718a4659bf081113f38" target="_top" xlink:title=" ">
<polygon fill="white" stroke="black" points="179,-245.5 179,-275.5 382,-275.5 382,-245.5 179,-245.5"/>
<text text-anchor="start" x="187" y="-263.5" font-family="Helvetica,sans-Serif" font-size="10.00">klyqa_ctl.devices.vacuum.commands.</text>
<text text-anchor="middle" x="280.5" y="-252.5" font-family="Helvetica,sans-Serif" font-size="10.00">RequestGetCommand.json</text>
</a>
</g>
</g>
<!-- Node1&#45;&gt;Node18 -->
<g id="edge17" class="edge">
<title>Node1&#45;&gt;Node18</title>
<path fill="none" stroke="midnightblue" d="M101.25,-318.4C122.32,-307.79 151.88,-293.88 179,-284.5 185.38,-282.29 192.05,-280.22 198.8,-278.28"/>
<polygon fill="midnightblue" stroke="midnightblue" points="200,-281.58 208.71,-275.55 198.14,-274.84 200,-281.58"/>
</g>
<!-- Node20 -->
<g id="node20" class="node">
<title>Node20</title>
<g id="a_node20"><a xlink:href="classklyqa__ctl_1_1devices_1_1vacuum_1_1commands_1_1RequestResetCommand.html#a1ac56b80427d60d9f55079ae846ae25e" target="_top" xlink:title=" ">
<polygon fill="white" stroke="black" points="179,-196.5 179,-226.5 382,-226.5 382,-196.5 179,-196.5"/>
<text text-anchor="start" x="187" y="-214.5" font-family="Helvetica,sans-Serif" font-size="10.00">klyqa_ctl.devices.vacuum.commands.</text>
<text text-anchor="middle" x="280.5" y="-203.5" font-family="Helvetica,sans-Serif" font-size="10.00">RequestResetCommand.json</text>
</a>
</g>
</g>
<!-- Node1&#45;&gt;Node20 -->
<g id="edge19" class="edge">
<title>Node1&#45;&gt;Node20</title>
<path fill="none" stroke="midnightblue" d="M84.53,-318.34C102.64,-296.57 139.08,-256.75 179,-235.5 182.55,-233.61 186.25,-231.87 190.05,-230.26"/>
<polygon fill="midnightblue" stroke="midnightblue" points="191.59,-233.42 199.65,-226.54 189.06,-226.89 191.59,-233.42"/>
</g>
<!-- Node22 -->
<g id="node22" class="node">
<title>Node22</title>
<g id="a_node22"><a xlink:href="classklyqa__ctl_1_1devices_1_1vacuum_1_1commands_1_1RequestSetCommand.html#a354b74be46f4b7d8a56811eaab910959" target="_top" xlink:title=" ">
<polygon fill="white" stroke="black" points="179,-147.5 179,-177.5 382,-177.5 382,-147.5 179,-147.5"/>
<text text-anchor="start" x="187" y="-165.5" font-family="Helvetica,sans-Serif" font-size="10.00">klyqa_ctl.devices.vacuum.commands.</text>
<text text-anchor="middle" x="280.5" y="-154.5" font-family="Helvetica,sans-Serif" font-size="10.00">RequestSetCommand.json</text>
</a>
</g>
</g>
<!-- Node1&#45;&gt;Node22 -->
<g id="edge21" class="edge">
<title>Node1&#45;&gt;Node22</title>
<path fill="none" stroke="midnightblue" d="M79.06,-318.25C92.86,-288.06 127.91,-220.65 179,-186.5 181.41,-184.89 183.92,-183.38 186.5,-181.98"/>
<polygon fill="midnightblue" stroke="midnightblue" points="188.08,-185.11 195.54,-177.59 185.02,-178.81 188.08,-185.11"/>
</g>
<!-- Node24 -->
<g id="node24" class="node">
<title>Node24</title>
<g id="a_node24"><a xlink:href="classklyqa__ctl_1_1devices_1_1vacuum_1_1commands_1_1RoutineCommand.html#a926a94c8cc5104275078e438fb301028" target="_top" xlink:title=" ">
<polygon fill="white" stroke="black" points="179,-98.5 179,-128.5 382,-128.5 382,-98.5 179,-98.5"/>
<text text-anchor="start" x="187" y="-116.5" font-family="Helvetica,sans-Serif" font-size="10.00">klyqa_ctl.devices.vacuum.commands.</text>
<text text-anchor="middle" x="280.5" y="-105.5" font-family="Helvetica,sans-Serif" font-size="10.00">RoutineCommand.json</text>
</a>
</g>
</g>
<!-- Node1&#45;&gt;Node24 -->
<g id="edge23" class="edge">
<title>Node1&#45;&gt;Node24</title>
<path fill="none" stroke="midnightblue" d="M76.13,-318.47C85.89,-281.48 116.29,-185.55 179,-137.5 180.79,-136.13 182.65,-134.83 184.57,-133.61"/>
<polygon fill="midnightblue" stroke="midnightblue" points="186.3,-136.65 193.29,-128.69 182.86,-130.55 186.3,-136.65"/>
</g>
<!-- Node26 -->
<g id="node26" class="node">
<title>Node26</title>
<g id="a_node26"><a xlink:href="classklyqa__ctl_1_1general_1_1general_1_1Command.html#a8c8ad93fedd0da0e0021f58714ec7fb5" target="_top" xlink:title=" ">
<polygon fill="white" stroke="black" points="209,-49.5 209,-79.5 352,-79.5 352,-49.5 209,-49.5"/>
<text text-anchor="start" x="217" y="-67.5" font-family="Helvetica,sans-Serif" font-size="10.00">klyqa_ctl.general.general.</text>
<text text-anchor="middle" x="280.5" y="-56.5" font-family="Helvetica,sans-Serif" font-size="10.00">Command.json</text>
</a>
</g>
</g>
<!-- Node1&#45;&gt;Node26 -->
<g id="edge25" class="edge">
<title>Node1&#45;&gt;Node26</title>
<path fill="none" stroke="midnightblue" d="M74.39,-318.36C80.62,-275.25 104.53,-150.92 179,-88.5 185.04,-83.44 191.97,-79.4 199.3,-76.2"/>
<polygon fill="midnightblue" stroke="midnightblue" points="200.69,-79.41 208.77,-72.56 198.18,-72.88 200.69,-79.41"/>
</g>
<!-- Node27 -->
<g id="node27" class="node">
<title>Node27</title>
<g id="a_node27"><a xlink:href="classklyqa__ctl_1_1general_1_1general_1_1CommandTyped.html#a96dfd43912c4640f381424bdd44eebca" target="_top" xlink:title=" ">
<polygon fill="white" stroke="black" points="209,-0.5 209,-30.5 352,-30.5 352,-0.5 209,-0.5"/>
<text text-anchor="start" x="217" y="-18.5" font-family="Helvetica,sans-Serif" font-size="10.00">klyqa_ctl.general.general.</text>
<text text-anchor="middle" x="280.5" y="-7.5" font-family="Helvetica,sans-Serif" font-size="10.00">CommandTyped.json</text>
</a>
</g>
</g>
<!-- Node1&#45;&gt;Node27 -->
<g id="edge26" class="edge">
<title>Node1&#45;&gt;Node27</title>
<path fill="none" stroke="midnightblue" d="M73.18,-318.26C76.22,-269.62 92.54,-116.69 179,-39.5 184.97,-34.17 191.92,-29.96 199.32,-26.66"/>
<polygon fill="midnightblue" stroke="midnightblue" points="200.84,-29.82 208.9,-22.93 198.31,-23.3 200.84,-29.82"/>
</g>
<!-- Node3 -->
<g id="node3" class="node">
<title>Node3</title>
<g id="a_node3"><a xlink:href="classklyqa__ctl_1_1devices_1_1light_1_1commands_1_1FwUpdateCommand.html#a7dc482a4e9a65d49ce0a61671ed6868e" target="_top" xlink:title=" ">
<polygon fill="white" stroke="black" points="434,-637.5 434,-667.5 620,-667.5 620,-637.5 434,-637.5"/>
<text text-anchor="start" x="442" y="-655.5" font-family="Helvetica,sans-Serif" font-size="10.00">klyqa_ctl.devices.light.commands.</text>
<text text-anchor="middle" x="527" y="-644.5" font-family="Helvetica,sans-Serif" font-size="10.00">FwUpdateCommand.url_json</text>
</a>
</g>
</g>
<!-- Node2&#45;&gt;Node3 -->
<g id="edge2" class="edge">
<title>Node2&#45;&gt;Node3</title>
<path fill="none" stroke="midnightblue" d="M373.59,-652.5C389.95,-652.5 407.09,-652.5 423.72,-652.5"/>
<polygon fill="midnightblue" stroke="midnightblue" points="424,-656 434,-652.5 424,-649 424,-656"/>
</g>
<!-- Node6 -->
<g id="node6" class="node">
<title>Node6</title>
<g id="a_node6"><a xlink:href="classklyqa__ctl_1_1devices_1_1light_1_1commands_1_1ColorCommand.html#a6ce99d7f4f232fb2f11e6efb7e85e778" target="_top" xlink:title=" ">
<polygon fill="white" stroke="black" points="434,-539.5 434,-569.5 620,-569.5 620,-539.5 434,-539.5"/>
<text text-anchor="start" x="442" y="-557.5" font-family="Helvetica,sans-Serif" font-size="10.00">klyqa_ctl.devices.light.commands.</text>
<text text-anchor="middle" x="527" y="-546.5" font-family="Helvetica,sans-Serif" font-size="10.00">ColorCommand.color_json</text>
</a>
</g>
</g>
<!-- Node5&#45;&gt;Node6 -->
<g id="edge5" class="edge">
<title>Node5&#45;&gt;Node6</title>
<path fill="none" stroke="midnightblue" d="M373.59,-554.5C389.95,-554.5 407.09,-554.5 423.72,-554.5"/>
<polygon fill="midnightblue" stroke="midnightblue" points="424,-558 434,-554.5 424,-551 424,-558"/>
</g>
<!-- Node7 -->
<g id="node7" class="node">
<title>Node7</title>
<g id="a_node7"><a xlink:href="classklyqa__ctl_1_1devices_1_1light_1_1response__status_1_1ResponseStatus.html#a327c18fd6f8a38e75e1bbc2f895df592" target="_top" xlink:title=" ">
<polygon fill="white" stroke="black" points="684,-539.5 684,-569.5 857,-569.5 857,-539.5 684,-539.5"/>
<text text-anchor="start" x="692" y="-557.5" font-family="Helvetica,sans-Serif" font-size="10.00">klyqa_ctl.devices.light.response</text>
<text text-anchor="middle" x="770.5" y="-546.5" font-family="Helvetica,sans-Serif" font-size="10.00">_status.ResponseStatus.color</text>
</a>
</g>
</g>
<!-- Node6&#45;&gt;Node7 -->
<g id="edge6" class="edge">
<title>Node6&#45;&gt;Node7</title>
<path fill="none" stroke="midnightblue" d="M620.33,-554.5C637.81,-554.5 656.13,-554.5 673.71,-554.5"/>
<polygon fill="midnightblue" stroke="midnightblue" points="673.96,-558 683.96,-554.5 673.96,-551 673.96,-558"/>
</g>
<!-- Node9 -->
<g id="node9" class="node">
<title>Node9</title>
<g id="a_node9"><a xlink:href="classklyqa__ctl_1_1devices_1_1light_1_1commands_1_1TemperatureCommand.html#a0b45255dc9218a36450152f1118a8280" target="_top" xlink:title=" ">
<polygon fill="white" stroke="black" points="418,-490.5 418,-520.5 636,-520.5 636,-490.5 418,-490.5"/>
<text text-anchor="start" x="426" y="-508.5" font-family="Helvetica,sans-Serif" font-size="10.00">klyqa_ctl.devices.light.commands.</text>
<text text-anchor="middle" x="527" y="-497.5" font-family="Helvetica,sans-Serif" font-size="10.00">TemperatureCommand.temperature_json</text>
</a>
</g>
</g>
<!-- Node8&#45;&gt;Node9 -->
<g id="edge8" class="edge">
<title>Node8&#45;&gt;Node9</title>
<path fill="none" stroke="midnightblue" d="M373.59,-505.5C384.79,-505.5 396.35,-505.5 407.87,-505.5"/>
<polygon fill="midnightblue" stroke="midnightblue" points="407.96,-509 417.96,-505.5 407.96,-502 407.96,-509"/>
</g>
<!-- Node10 -->
<g id="node10" class="node">
<title>Node10</title>
<g id="a_node10"><a xlink:href="classklyqa__ctl_1_1devices_1_1light_1_1response__status_1_1ResponseStatus.html#a2e732c44c35f39dc3d8fe269c24aef8a" target="_top" xlink:title=" ">
<polygon fill="white" stroke="black" points="672,-490.5 672,-520.5 869,-520.5 869,-490.5 672,-490.5"/>
<text text-anchor="start" x="680" y="-508.5" font-family="Helvetica,sans-Serif" font-size="10.00">klyqa_ctl.devices.light.response</text>
<text text-anchor="middle" x="770.5" y="-497.5" font-family="Helvetica,sans-Serif" font-size="10.00">_status.ResponseStatus.temperature</text>
</a>
</g>
</g>
<!-- Node9&#45;&gt;Node10 -->
<g id="edge9" class="edge">
<title>Node9&#45;&gt;Node10</title>
<path fill="none" stroke="midnightblue" d="M636.04,-505.5C644.61,-505.5 653.27,-505.5 661.85,-505.5"/>
<polygon fill="midnightblue" stroke="midnightblue" points="661.86,-509 671.86,-505.5 661.86,-502 661.86,-509"/>
</g>
<!-- Node12 -->
<g id="node12" class="node">
<title>Node12</title>
<g id="a_node12"><a xlink:href="classklyqa__ctl_1_1devices_1_1light_1_1commands_1_1BrightnessCommand.html#aba34fce7f4d8d6aae6bcbaaa61c21a8c" target="_top" xlink:title=" ">
<polygon fill="white" stroke="black" points="428,-441.5 428,-471.5 626,-471.5 626,-441.5 428,-441.5"/>
<text text-anchor="start" x="436" y="-459.5" font-family="Helvetica,sans-Serif" font-size="10.00">klyqa_ctl.devices.light.commands.</text>
<text text-anchor="middle" x="527" y="-448.5" font-family="Helvetica,sans-Serif" font-size="10.00">BrightnessCommand.brightness_json</text>
</a>
</g>
</g>
<!-- Node11&#45;&gt;Node12 -->
<g id="edge11" class="edge">
<title>Node11&#45;&gt;Node12</title>
<path fill="none" stroke="midnightblue" d="M373.59,-456.5C387.99,-456.5 403,-456.5 417.73,-456.5"/>
<polygon fill="midnightblue" stroke="midnightblue" points="417.87,-460 427.87,-456.5 417.87,-453 417.87,-460"/>
</g>
<!-- Node13 -->
<g id="node13" class="node">
<title>Node13</title>
<g id="a_node13"><a xlink:href="classklyqa__ctl_1_1devices_1_1light_1_1response__status_1_1ResponseStatus.html#a762787729b726f6ad8bd5a9a3ae40a67" target="_top" xlink:title=" ">
<polygon fill="white" stroke="black" points="677,-441.5 677,-471.5 864,-471.5 864,-441.5 677,-441.5"/>
<text text-anchor="start" x="685" y="-459.5" font-family="Helvetica,sans-Serif" font-size="10.00">klyqa_ctl.devices.light.response</text>
<text text-anchor="middle" x="770.5" y="-448.5" font-family="Helvetica,sans-Serif" font-size="10.00">_status.ResponseStatus.brightness</text>
</a>
</g>
</g>
<!-- Node12&#45;&gt;Node13 -->
<g id="edge12" class="edge">
<title>Node12&#45;&gt;Node13</title>
<path fill="none" stroke="midnightblue" d="M626.23,-456.5C639.55,-456.5 653.25,-456.5 666.64,-456.5"/>
<polygon fill="midnightblue" stroke="midnightblue" points="666.82,-460 676.82,-456.5 666.82,-453 666.82,-460"/>
</g>
<!-- Node17 -->
<g id="node17" class="node">
<title>Node17</title>
<g id="a_node17"><a xlink:href="classklyqa__ctl_1_1devices_1_1vacuum_1_1commands_1_1ProductinfoCommand.html#a1950a810783ab6312c31fa43dd06182c" target="_top" xlink:title=" ">
<polygon fill="white" stroke="black" points="424,-294.5 424,-324.5 630,-324.5 630,-294.5 424,-294.5"/>
<text text-anchor="start" x="432" y="-312.5" font-family="Helvetica,sans-Serif" font-size="10.00">klyqa_ctl.devices.vacuum.commands.</text>
<text text-anchor="middle" x="527" y="-301.5" font-family="Helvetica,sans-Serif" font-size="10.00">ProductinfoCommand.productinfo_json</text>
</a>
</g>
</g>
<!-- Node16&#45;&gt;Node17 -->
<g id="edge16" class="edge">
<title>Node16&#45;&gt;Node17</title>
<path fill="none" stroke="midnightblue" d="M382.01,-309.5C392.49,-309.5 403.19,-309.5 413.79,-309.5"/>
<polygon fill="midnightblue" stroke="midnightblue" points="413.91,-313 423.91,-309.5 413.91,-306 413.91,-313"/>
</g>
<!-- Node19 -->
<g id="node19" class="node">
<title>Node19</title>
<g id="a_node19"><a xlink:href="classklyqa__ctl_1_1devices_1_1vacuum_1_1commands_1_1RequestGetCommand.html#a71be3cb060fa2c05f2762d13267c6144" target="_top" xlink:title=" ">
<polygon fill="white" stroke="black" points="425.5,-245.5 425.5,-275.5 628.5,-275.5 628.5,-245.5 425.5,-245.5"/>
<text text-anchor="start" x="433.5" y="-263.5" font-family="Helvetica,sans-Serif" font-size="10.00">klyqa_ctl.devices.vacuum.commands.</text>
<text text-anchor="middle" x="527" y="-252.5" font-family="Helvetica,sans-Serif" font-size="10.00">RequestGetCommand.get_json</text>
</a>
</g>
</g>
<!-- Node18&#45;&gt;Node19 -->
<g id="edge18" class="edge">
<title>Node18&#45;&gt;Node19</title>
<path fill="none" stroke="midnightblue" d="M382.01,-260.5C393,-260.5 404.23,-260.5 415.34,-260.5"/>
<polygon fill="midnightblue" stroke="midnightblue" points="415.49,-264 425.49,-260.5 415.49,-257 415.49,-264"/>
</g>
<!-- Node21 -->
<g id="node21" class="node">
<title>Node21</title>
<g id="a_node21"><a xlink:href="classklyqa__ctl_1_1devices_1_1vacuum_1_1commands_1_1RequestResetCommand.html#a53de7ccfeb12e1b8f4c0ea8a82410d4e" target="_top" xlink:title=" ">
<polygon fill="white" stroke="black" points="425.5,-196.5 425.5,-226.5 628.5,-226.5 628.5,-196.5 425.5,-196.5"/>
<text text-anchor="start" x="433.5" y="-214.5" font-family="Helvetica,sans-Serif" font-size="10.00">klyqa_ctl.devices.vacuum.commands.</text>
<text text-anchor="middle" x="527" y="-203.5" font-family="Helvetica,sans-Serif" font-size="10.00">RequestResetCommand.reset_json</text>
</a>
</g>
</g>
<!-- Node20&#45;&gt;Node21 -->
<g id="edge20" class="edge">
<title>Node20&#45;&gt;Node21</title>
<path fill="none" stroke="midnightblue" d="M382.01,-211.5C393,-211.5 404.23,-211.5 415.34,-211.5"/>
<polygon fill="midnightblue" stroke="midnightblue" points="415.49,-215 425.49,-211.5 415.49,-208 415.49,-215"/>
</g>
<!-- Node23 -->
<g id="node23" class="node">
<title>Node23</title>
<g id="a_node23"><a xlink:href="classklyqa__ctl_1_1devices_1_1vacuum_1_1commands_1_1RequestSetCommand.html#ac327b3b919e0d1a45ebe754e546f94f8" target="_top" xlink:title=" ">
<polygon fill="white" stroke="black" points="425.5,-147.5 425.5,-177.5 628.5,-177.5 628.5,-147.5 425.5,-147.5"/>
<text text-anchor="start" x="433.5" y="-165.5" font-family="Helvetica,sans-Serif" font-size="10.00">klyqa_ctl.devices.vacuum.commands.</text>
<text text-anchor="middle" x="527" y="-154.5" font-family="Helvetica,sans-Serif" font-size="10.00">RequestSetCommand.set_json</text>
</a>
</g>
</g>
<!-- Node22&#45;&gt;Node23 -->
<g id="edge22" class="edge">
<title>Node22&#45;&gt;Node23</title>
<path fill="none" stroke="midnightblue" d="M382.01,-162.5C393,-162.5 404.23,-162.5 415.34,-162.5"/>
<polygon fill="midnightblue" stroke="midnightblue" points="415.49,-166 425.49,-162.5 415.49,-159 415.49,-166"/>
</g>
<!-- Node25 -->
<g id="node25" class="node">
<title>Node25</title>
<g id="a_node25"><a xlink:href="classklyqa__ctl_1_1devices_1_1vacuum_1_1commands_1_1RoutineCommand.html#acaf3db880f88d37bb1cf8218a309e52c" target="_top" xlink:title=" ">
<polygon fill="white" stroke="black" points="425.5,-98.5 425.5,-128.5 628.5,-128.5 628.5,-98.5 425.5,-98.5"/>
<text text-anchor="start" x="433.5" y="-116.5" font-family="Helvetica,sans-Serif" font-size="10.00">klyqa_ctl.devices.vacuum.commands.</text>
<text text-anchor="middle" x="527" y="-105.5" font-family="Helvetica,sans-Serif" font-size="10.00">RoutineCommand.routine_json</text>
</a>
</g>
</g>
<!-- Node24&#45;&gt;Node25 -->
<g id="edge24" class="edge">
<title>Node24&#45;&gt;Node25</title>
<path fill="none" stroke="midnightblue" d="M382.01,-113.5C393,-113.5 404.23,-113.5 415.34,-113.5"/>
<polygon fill="midnightblue" stroke="midnightblue" points="415.49,-117 425.49,-113.5 415.49,-110 415.49,-117"/>
</g>
<!-- Node28 -->
<g id="node28" class="node">
<title>Node28</title>
<g id="a_node28"><a xlink:href="classklyqa__ctl_1_1devices_1_1response__message_1_1ResponseMessage.html#a076bcd25b3f41acdc763569b279c4545" target="_top" xlink:title=" ">
<polygon fill="white" stroke="black" points="434.5,-0.5 434.5,-30.5 619.5,-30.5 619.5,-0.5 434.5,-0.5"/>
<text text-anchor="start" x="442.5" y="-18.5" font-family="Helvetica,sans-Serif" font-size="10.00">klyqa_ctl.devices.response</text>
<text text-anchor="middle" x="527" y="-7.5" font-family="Helvetica,sans-Serif" font-size="10.00">_message.ResponseMessage.type</text>
</a>
</g>
</g>
<!-- Node27&#45;&gt;Node28 -->
<g id="edge27" class="edge">
<title>Node27&#45;&gt;Node28</title>
<path fill="none" stroke="midnightblue" d="M352.22,-15.5C374.68,-15.5 399.98,-15.5 424.18,-15.5"/>
<polygon fill="midnightblue" stroke="midnightblue" points="424.47,-19 434.47,-15.5 424.47,-12 424.47,-19"/>
</g>
</g>
</svg>
        <g id="navigator" transform="translate(0 0)" fill="#404254">
                <rect fill="#f2f5e9" fill-opacity="0.5" stroke="#606060" stroke-width=".5" x="0" y="0" width="60" height="60"/>
                <use id="zoomplus" xlink:href="#zoomPlus" x="17" y="9" onmousedown="handleZoom(evt,'in')"/>
                <use id="zoomminus" xlink:href="#zoomMin" x="42" y="9" onmousedown="handleZoom(evt,'out')"/>
                <use id="reset" xlink:href="#resetDef" x="30" y="36" onmousedown="handleReset()"/>
                <g id="arrowUp" xlink:href="#dirArrow" transform="translate(30 24)" onmousedown="handlePan(0,-1)">
                  <use xlink:href="#rim" fill="#404040">
                        <set attributeName="fill" to="#808080" begin="arrowUp.mouseover" end="arrowUp.mouseout"/>
                  </use>
                  <path fill="none" stroke="white" stroke-width="1.5" d="M0,-3.0v7 M-2.5,-0.5L0,-3.0L2.5,-0.5"/>
                </g>
                <g id="arrowRight" xlink:href="#dirArrow" transform="rotate(90) translate(36 -43)" onmousedown="handlePan(1,0)">
                  <use xlink:href="#rim" fill="#404040">
                        <set attributeName="fill" to="#808080" begin="arrowRight.mouseover" end="arrowRight.mouseout"/>
                  </use>
                  <path fill="none" stroke="white" stroke-width="1.5" d="M0,-3.0v7 M-2.5,-0.5L0,-3.0L2.5,-0.5"/>
                </g>
                <g id="arrowDown" xlink:href="#dirArrow" transform="rotate(180) translate(-30 -48)" onmousedown="handlePan(0,1)">
                  <use xlink:href="#rim" fill="#404040">
                        <set attributeName="fill" to="#808080" begin="arrowDown.mouseover" end="arrowDown.mouseout"/>
                  </use>
                  <path fill="none" stroke="white" stroke-width="1.5" d="M0,-3.0v7 M-2.5,-0.5L0,-3.0L2.5,-0.5"/>
                </g>
                <g id="arrowLeft" xlink:href="#dirArrow" transform="rotate(270) translate(-36 17)" onmousedown="handlePan(-1,0)">
                  <use xlink:href="#rim" fill="#404040">
                        <set attributeName="fill" to="#808080" begin="arrowLeft.mouseover" end="arrowLeft.mouseout"/>
                  </use>
                  <path fill="none" stroke="white" stroke-width="1.5" d="M0,-3.0v7 M-2.5,-0.5L0,-3.0L2.5,-0.5"/>
                </g>
        </g>
        <svg viewBox="0 0 15 15" width="100%" height="30px" preserveAspectRatio="xMaxYMin meet">
         <g id="arrow_out" transform="scale(0.3 0.3)">
          <a xlink:href="classklyqa__ctl_1_1general_1_1general_1_1Command_a4aa9e4db12aecf5520e974204c635d38_cgraph_org.svg" target="_base">
           <rect id="button" ry="5" rx="5" y="6" x="6" height="38" width="38"
                fill="#f2f5e9" fill-opacity="0.5" stroke="#606060" stroke-width="1.0"/>
           <path id="arrow"
             d="M 11.500037,31.436501 C 11.940474,20.09759 22.043105,11.32322 32.158766,21.979434 L 37.068811,17.246167 C 37.068811,17.246167 37.088388,32 37.088388,32 L 22.160133,31.978069 C 22.160133,31.978069 26.997745,27.140456 26.997745,27.140456 C 18.528582,18.264221 13.291696,25.230495 11.500037,31.436501 z"
             style="fill:#404040;"/>
          </a>
         </g>
        </svg>
</svg>
