<?xml version="1.0" encoding="UTF-8" standalone="no"?>
<!DOCTYPE svg PUBLIC "-//W3C//DTD SVG 1.1//EN"
 "http://www.w3.org/Graphics/SVG/1.1/DTD/svg11.dtd">
<!-- Generated by graphviz version 2.43.0 (0)
 -->
<!-- Title: klyqa_ctl.account_control.AccountControl.login_cache Pages: 1 -->
<svg width="1023pt" height="100pt"
 viewBox="0.00 0.00 1023.00 99.50" xmlns="http://www.w3.org/2000/svg" xmlns:xlink="http://www.w3.org/1999/xlink">
<g id="graph0" class="graph" transform="scale(1 1) rotate(0) translate(4 95.5)">
<title>klyqa_ctl.account_control.AccountControl.login_cache</title>
<polygon fill="white" stroke="transparent" points="-4,4 -4,-95.5 1019,-95.5 1019,4 -4,4"/>
<!-- Node1 -->
<g id="node1" class="node">
<title>Node1</title>
<g id="a_node1"><a xlink:title=" ">
<polygon fill="#bfbfbf" stroke="black" points="0,-33 0,-63 152,-63 152,-33 0,-33"/>
<text text-anchor="start" x="8" y="-51" font-family="Helvetica,sans-Serif" font-size="10.00">klyqa_ctl.account_control.</text>
<text text-anchor="middle" x="76" y="-40" font-family="Helvetica,sans-Serif" font-size="10.00">AccountControl.login_cache</text>
</a>
</g>
</g>
<!-- Node2 -->
<g id="node2" class="node">
<title>Node2</title>
<g id="a_node2"><a xlink:href="namespaceklyqa__ctl_1_1general_1_1general.html#aa34dc716ff5492dc4f325a2ae1a73a4f" target="_top" xlink:title=" ">
<polygon fill="white" stroke="black" points="188.5,-61 188.5,-91 360.5,-91 360.5,-61 188.5,-61"/>
<text text-anchor="start" x="196.5" y="-79" font-family="Helvetica,sans-Serif" font-size="10.00">klyqa_ctl.general.general.async</text>
<text text-anchor="middle" x="274.5" y="-68" font-family="Helvetica,sans-Serif" font-size="10.00">_json_cache</text>
</a>
</g>
</g>
<!-- Node1&#45;&gt;Node2 -->
<g id="edge1" class="edge">
<title>Node1&#45;&gt;Node2</title>
<path fill="none" stroke="midnightblue" d="M152.13,-58.71C160.71,-59.93 169.54,-61.19 178.34,-62.44"/>
<polygon fill="midnightblue" stroke="midnightblue" points="177.85,-65.91 188.24,-63.85 178.83,-58.98 177.85,-65.91"/>
</g>
<!-- Node6 -->
<g id="node6" class="node">
<title>Node6</title>
<g id="a_node6"><a xlink:href="classklyqa__ctl_1_1controller__data_1_1ControllerData.html#a4db20468ab1574d0198a02bf2e05b1ec" target="_top" xlink:title=" ">
<polygon fill="white" stroke="black" points="188,-0.5 188,-41.5 361,-41.5 361,-0.5 188,-0.5"/>
<text text-anchor="start" x="196" y="-29.5" font-family="Helvetica,sans-Serif" font-size="10.00">klyqa_ctl.controller</text>
<text text-anchor="start" x="196" y="-18.5" font-family="Helvetica,sans-Serif" font-size="10.00">_data.ControllerData.interactive</text>
<text text-anchor="middle" x="274.5" y="-7.5" font-family="Helvetica,sans-Serif" font-size="10.00">_prompts</text>
</a>
</g>
</g>
<!-- Node1&#45;&gt;Node6 -->
<g id="edge5" class="edge">
<title>Node1&#45;&gt;Node6</title>
<path fill="none" stroke="midnightblue" d="M152.13,-37.68C160.54,-36.52 169.19,-35.33 177.81,-34.15"/>
<polygon fill="midnightblue" stroke="midnightblue" points="178.48,-37.59 187.91,-32.76 177.53,-30.65 178.48,-37.59"/>
</g>
<!-- Node3 -->
<g id="node3" class="node">
<title>Node3</title>
<g id="a_node3"><a xlink:href="namespaceklyqa__ctl_1_1general_1_1general.html#ab2f9a22e98cd16d0d284d22382cfcb02" target="_top" xlink:title=" ">
<polygon fill="white" stroke="black" points="397,-61 397,-91 561,-91 561,-61 397,-61"/>
<text text-anchor="start" x="405" y="-79" font-family="Helvetica,sans-Serif" font-size="10.00">klyqa_ctl.general.general.task</text>
<text text-anchor="middle" x="479" y="-68" font-family="Helvetica,sans-Serif" font-size="10.00">_log_trace</text>
</a>
</g>
</g>
<!-- Node2&#45;&gt;Node3 -->
<g id="edge2" class="edge">
<title>Node2&#45;&gt;Node3</title>
<path fill="none" stroke="midnightblue" d="M360.79,-76C369.34,-76 378.04,-76 386.64,-76"/>
<polygon fill="midnightblue" stroke="midnightblue" points="386.69,-79.5 396.69,-76 386.69,-72.5 386.69,-79.5"/>
</g>
<!-- Node4 -->
<g id="node4" class="node">
<title>Node4</title>
<g id="a_node4"><a xlink:href="namespaceklyqa__ctl_1_1general_1_1general.html#a9df3b50dfc0fcc7c8ec991bb9be9c5ba" target="_top" xlink:title=" ">
<polygon fill="white" stroke="black" points="597,-66.5 597,-85.5 782,-85.5 782,-66.5 597,-66.5"/>
<text text-anchor="middle" x="689.5" y="-73.5" font-family="Helvetica,sans-Serif" font-size="10.00">klyqa_ctl.general.general.task_log</text>
</a>
</g>
</g>
<!-- Node3&#45;&gt;Node4 -->
<g id="edge3" class="edge">
<title>Node3&#45;&gt;Node4</title>
<path fill="none" stroke="midnightblue" d="M561.21,-76C569.59,-76 578.18,-76 586.75,-76"/>
<polygon fill="midnightblue" stroke="midnightblue" points="586.79,-79.5 596.79,-76 586.79,-72.5 586.79,-79.5"/>
</g>
<!-- Node5 -->
<g id="node5" class="node">
<title>Node5</title>
<g id="a_node5"><a xlink:href="namespaceklyqa__ctl_1_1general_1_1general.html#aea905150cafee39fa2ca211f1e60f012" target="_top" xlink:title=" ">
<polygon fill="white" stroke="black" points="818,-66.5 818,-85.5 1015,-85.5 1015,-66.5 818,-66.5"/>
<text text-anchor="middle" x="916.5" y="-73.5" font-family="Helvetica,sans-Serif" font-size="10.00">klyqa_ctl.general.general.task_name</text>
</a>
</g>
</g>
<!-- Node4&#45;&gt;Node5 -->
<g id="edge4" class="edge">
<title>Node4&#45;&gt;Node5</title>
<path fill="none" stroke="midnightblue" d="M782.02,-76C790.5,-76 799.15,-76 807.76,-76"/>
<polygon fill="midnightblue" stroke="midnightblue" points="807.83,-79.5 817.83,-76 807.83,-72.5 807.83,-79.5"/>
</g>
</g>
</svg>
