<?xml version="1.0" encoding="UTF-8" standalone="no"?>
<!DOCTYPE svg PUBLIC "-//W3C//DTD SVG 1.1//EN"
 "http://www.w3.org/Graphics/SVG/1.1/DTD/svg11.dtd">
<!-- Generated by graphviz version 2.43.0 (0)
 -->
<!-- Title: Graphical Class Hierarchy Pages: 1 -->
<svg width="401pt" height="149pt"
 viewBox="0.00 0.00 401.00 149.00" xmlns="http://www.w3.org/2000/svg" xmlns:xlink="http://www.w3.org/1999/xlink">
<g id="graph0" class="graph" transform="scale(1 1) rotate(0) translate(4 145)">
<title>Graphical Class Hierarchy</title>
<polygon fill="white" stroke="transparent" points="-4,4 -4,-145 397,-145 397,4 -4,4"/>
<!-- Node0 -->
<g id="node1" class="node">
<title>Node0</title>
<g id="a_node1"><a xlink:href="classklyqa__ctl_1_1devices_1_1response__message_1_1ResponseMessage.html" target="_top" xlink:title=" ">
<polygon fill="white" stroke="black" points="0,-55.5 0,-85.5 160,-85.5 160,-55.5 0,-55.5"/>
<text text-anchor="start" x="8" y="-73.5" font-family="Helvetica,sans-Serif" font-size="10.00">klyqa_ctl.devices.response</text>
<text text-anchor="middle" x="80" y="-62.5" font-family="Helvetica,sans-Serif" font-size="10.00">_message.ResponseMessage</text>
</a>
</g>
</g>
<!-- Node1 -->
<g id="node2" class="node">
<title>Node1</title>
<g id="a_node2"><a xlink:href="classklyqa__ctl_1_1devices_1_1light_1_1response__status_1_1ResponseStatus.html" target="_top" xlink:title=" ">
<polygon fill="white" stroke="black" points="208,-110.5 208,-140.5 381,-140.5 381,-110.5 208,-110.5"/>
<text text-anchor="start" x="216" y="-128.5" font-family="Helvetica,sans-Serif" font-size="10.00">klyqa_ctl.devices.light.response</text>
<text text-anchor="middle" x="294.5" y="-117.5" font-family="Helvetica,sans-Serif" font-size="10.00">_status.ResponseStatus</text>
</a>
</g>
</g>
<!-- Node0&#45;&gt;Node1 -->
<g id="edge1" class="edge">
<title>Node0&#45;&gt;Node1</title>
<path fill="none" stroke="midnightblue" d="M148.42,-88.14C164.04,-92.21 180.6,-96.52 196,-100.5 208.52,-103.74 221.95,-107.19 234.71,-110.47"/>
<polygon fill="midnightblue" stroke="midnightblue" points="148.87,-84.64 138.31,-85.5 147.11,-91.41 148.87,-84.64"/>
</g>
<!-- Node2 -->
<g id="node3" class="node">
<title>Node2</title>
<g id="a_node3"><a xlink:href="classklyqa__ctl_1_1devices_1_1response__identity__message_1_1ResponseIdentityMessage.html" target="_top" xlink:title=" ">
<polygon fill="white" stroke="black" points="196,-50 196,-91 393,-91 393,-50 196,-50"/>
<text text-anchor="start" x="204" y="-79" font-family="Helvetica,sans-Serif" font-size="10.00">klyqa_ctl.devices.response</text>
<text text-anchor="start" x="204" y="-68" font-family="Helvetica,sans-Serif" font-size="10.00">_identity_message.ResponseIdentity</text>
<text text-anchor="middle" x="294.5" y="-57" font-family="Helvetica,sans-Serif" font-size="10.00">Message</text>
</a>
</g>
</g>
<!-- Node0&#45;&gt;Node2 -->
<g id="edge2" class="edge">
<title>Node0&#45;&gt;Node2</title>
<path fill="none" stroke="midnightblue" d="M170.36,-70.5C178.82,-70.5 187.43,-70.5 195.96,-70.5"/>
<polygon fill="midnightblue" stroke="midnightblue" points="170.13,-67 160.13,-70.5 170.13,-74 170.13,-67"/>
</g>
<!-- Node3 -->
<g id="node4" class="node">
<title>Node3</title>
<g id="a_node4"><a xlink:href="classklyqa__ctl_1_1devices_1_1vacuum_1_1response__status_1_1ResponseStatus.html" target="_top" xlink:title=" ">
<polygon fill="white" stroke="black" points="199,-0.5 199,-30.5 390,-30.5 390,-0.5 199,-0.5"/>
<text text-anchor="start" x="207" y="-18.5" font-family="Helvetica,sans-Serif" font-size="10.00">klyqa_ctl.devices.vacuum.response</text>
<text text-anchor="middle" x="294.5" y="-7.5" font-family="Helvetica,sans-Serif" font-size="10.00">_status.ResponseStatus</text>
</a>
</g>
</g>
<!-- Node0&#45;&gt;Node3 -->
<g id="edge3" class="edge">
<title>Node0&#45;&gt;Node3</title>
<path fill="none" stroke="midnightblue" d="M148.42,-52.86C164.04,-48.79 180.6,-44.48 196,-40.5 208.52,-37.26 221.95,-33.81 234.71,-30.53"/>
<polygon fill="midnightblue" stroke="midnightblue" points="147.11,-49.59 138.31,-55.5 148.87,-56.36 147.11,-49.59"/>
</g>
</g>
</svg>
