<?xml version="1.0" encoding="UTF-8" standalone="no"?>
<!DOCTYPE svg PUBLIC "-//W3C//DTD SVG 1.1//EN"
 "http://www.w3.org/Graphics/SVG/1.1/DTD/svg11.dtd">
<!-- Generated by graphviz version 2.43.0 (0)
 -->
<!-- Title: Graphical Class Hierarchy Pages: 1 -->
<svg width="1013pt" height="568pt"
 viewBox="0.00 0.00 1013.00 568.00" xmlns="http://www.w3.org/2000/svg" xmlns:xlink="http://www.w3.org/1999/xlink">
<g id="graph0" class="graph" transform="scale(1 1) rotate(0) translate(4 564)">
<title>Graphical Class Hierarchy</title>
<polygon fill="white" stroke="transparent" points="-4,4 -4,-564 1009,-564 1009,4 -4,4"/>
<!-- Node0 -->
<g id="node1" class="node">
<title>Node0</title>
<g id="a_node1"><a xlink:href="classklyqa__ctl_1_1general_1_1general_1_1Command.html" target="_top" xlink:title=" ">
<polygon fill="white" stroke="black" points="0,-429.5 0,-459.5 143,-459.5 143,-429.5 0,-429.5"/>
<text text-anchor="start" x="8" y="-447.5" font-family="Helvetica,sans-Serif" font-size="10.00">klyqa_ctl.general.general.</text>
<text text-anchor="middle" x="71.5" y="-436.5" font-family="Helvetica,sans-Serif" font-size="10.00">Command</text>
</a>
</g>
</g>
<!-- Node1 -->
<g id="node2" class="node">
<title>Node1</title>
<g id="a_node2"><a xlink:href="classklyqa__ctl_1_1general_1_1general_1_1CloudStateCommand.html" target="_top" xlink:title=" ">
<polygon fill="white" stroke="black" points="610,-529.5 610,-559.5 753,-559.5 753,-529.5 610,-529.5"/>
<text text-anchor="start" x="618" y="-547.5" font-family="Helvetica,sans-Serif" font-size="10.00">klyqa_ctl.general.general.</text>
<text text-anchor="middle" x="681.5" y="-536.5" font-family="Helvetica,sans-Serif" font-size="10.00">CloudStateCommand</text>
</a>
</g>
</g>
<!-- Node0&#45;&gt;Node1 -->
<g id="edge1" class="edge">
<title>Node0&#45;&gt;Node1</title>
<path fill="none" stroke="midnightblue" d="M127.94,-462.55C184.98,-480.34 276.72,-506.78 358,-520.5 443.95,-535.01 544.26,-540.75 609.9,-543.02"/>
<polygon fill="midnightblue" stroke="midnightblue" points="128.99,-459.21 118.4,-459.55 126.89,-465.89 128.99,-459.21"/>
</g>
<!-- Node6 -->
<g id="node7" class="node">
<title>Node6</title>
<g id="a_node7"><a xlink:href="classklyqa__ctl_1_1general_1_1general_1_1CommandTyped.html" target="_top" xlink:title=" ">
<polygon fill="white" stroke="black" points="179,-358.5 179,-388.5 322,-388.5 322,-358.5 179,-358.5"/>
<text text-anchor="start" x="187" y="-376.5" font-family="Helvetica,sans-Serif" font-size="10.00">klyqa_ctl.general.general.</text>
<text text-anchor="middle" x="250.5" y="-365.5" font-family="Helvetica,sans-Serif" font-size="10.00">CommandTyped</text>
</a>
</g>
</g>
<!-- Node0&#45;&gt;Node6 -->
<g id="edge6" class="edge">
<title>Node0&#45;&gt;Node6</title>
<path fill="none" stroke="midnightblue" d="M119.53,-425.63C148.47,-414.03 185.04,-399.36 212.02,-388.54"/>
<polygon fill="midnightblue" stroke="midnightblue" points="118.02,-422.47 110.04,-429.44 120.62,-428.97 118.02,-422.47"/>
</g>
<!-- Node2 -->
<g id="node3" class="node">
<title>Node2</title>
<g id="a_node3"><a xlink:href="classklyqa__ctl_1_1devices_1_1light_1_1commands_1_1BrightnessCommand.html" target="_top" xlink:title=" ">
<polygon fill="white" stroke="black" points="819,-480.5 819,-510.5 1005,-510.5 1005,-480.5 819,-480.5"/>
<text text-anchor="start" x="827" y="-498.5" font-family="Helvetica,sans-Serif" font-size="10.00">klyqa_ctl.devices.light.commands.</text>
<text text-anchor="middle" x="912" y="-487.5" font-family="Helvetica,sans-Serif" font-size="10.00">BrightnessCommand</text>
</a>
</g>
</g>
<!-- Node1&#45;&gt;Node2 -->
<g id="edge2" class="edge">
<title>Node1&#45;&gt;Node2</title>
<path fill="none" stroke="midnightblue" d="M762.64,-527.31C788.19,-521.84 816.25,-515.82 841.02,-510.51"/>
<polygon fill="midnightblue" stroke="midnightblue" points="761.65,-523.95 752.61,-529.47 763.12,-530.79 761.65,-523.95"/>
</g>
<!-- Node3 -->
<g id="node4" class="node">
<title>Node3</title>
<g id="a_node4"><a xlink:href="classklyqa__ctl_1_1devices_1_1light_1_1commands_1_1ColorCommand.html" target="_top" xlink:title=" ">
<polygon fill="white" stroke="black" points="819,-431.5 819,-461.5 1005,-461.5 1005,-431.5 819,-431.5"/>
<text text-anchor="start" x="827" y="-449.5" font-family="Helvetica,sans-Serif" font-size="10.00">klyqa_ctl.devices.light.commands.</text>
<text text-anchor="middle" x="912" y="-438.5" font-family="Helvetica,sans-Serif" font-size="10.00">ColorCommand</text>
</a>
</g>
</g>
<!-- Node1&#45;&gt;Node3 -->
<g id="edge3" class="edge">
<title>Node1&#45;&gt;Node3</title>
<path fill="none" stroke="midnightblue" d="M763,-530.8C770.05,-527.99 776.83,-524.59 783,-520.5 805.52,-505.56 796.72,-486.79 819,-471.5 824.6,-467.66 830.76,-464.41 837.16,-461.66"/>
<polygon fill="midnightblue" stroke="midnightblue" points="761.48,-527.63 753.25,-534.3 763.85,-534.22 761.48,-527.63"/>
</g>
<!-- Node4 -->
<g id="node5" class="node">
<title>Node4</title>
<g id="a_node5"><a xlink:href="classklyqa__ctl_1_1devices_1_1light_1_1commands_1_1PowerCommand.html" target="_top" xlink:title=" ">
<polygon fill="white" stroke="black" points="819,-529.5 819,-559.5 1005,-559.5 1005,-529.5 819,-529.5"/>
<text text-anchor="start" x="827" y="-547.5" font-family="Helvetica,sans-Serif" font-size="10.00">klyqa_ctl.devices.light.commands.</text>
<text text-anchor="middle" x="912" y="-536.5" font-family="Helvetica,sans-Serif" font-size="10.00">PowerCommand</text>
</a>
</g>
</g>
<!-- Node1&#45;&gt;Node4 -->
<g id="edge4" class="edge">
<title>Node1&#45;&gt;Node4</title>
<path fill="none" stroke="midnightblue" d="M763.34,-544.5C781.27,-544.5 800.39,-544.5 818.73,-544.5"/>
<polygon fill="midnightblue" stroke="midnightblue" points="763.23,-541 753.23,-544.5 763.23,-548 763.23,-541"/>
</g>
<!-- Node5 -->
<g id="node6" class="node">
<title>Node5</title>
<g id="a_node6"><a xlink:href="classklyqa__ctl_1_1devices_1_1light_1_1commands_1_1TemperatureCommand.html" target="_top" xlink:title=" ">
<polygon fill="white" stroke="black" points="819,-382.5 819,-412.5 1005,-412.5 1005,-382.5 819,-382.5"/>
<text text-anchor="start" x="827" y="-400.5" font-family="Helvetica,sans-Serif" font-size="10.00">klyqa_ctl.devices.light.commands.</text>
<text text-anchor="middle" x="912" y="-389.5" font-family="Helvetica,sans-Serif" font-size="10.00">TemperatureCommand</text>
</a>
</g>
</g>
<!-- Node1&#45;&gt;Node5 -->
<g id="edge5" class="edge">
<title>Node1&#45;&gt;Node5</title>
<path fill="none" stroke="midnightblue" d="M762.65,-533.32C770.06,-530.02 777.01,-525.82 783,-520.5 817.68,-489.67 784.8,-453.86 819,-422.5 823.15,-418.7 827.82,-415.46 832.8,-412.71"/>
<polygon fill="midnightblue" stroke="midnightblue" points="761.13,-530.15 753.07,-537.03 763.66,-536.68 761.13,-530.15"/>
</g>
<!-- Node7 -->
<g id="node8" class="node">
<title>Node7</title>
<g id="a_node8"><a xlink:href="classklyqa__ctl_1_1devices_1_1device_1_1CommandWithCheckValues.html" target="_top" xlink:title=" ">
<polygon fill="white" stroke="black" points="375,-480.5 375,-510.5 527,-510.5 527,-480.5 375,-480.5"/>
<text text-anchor="start" x="383" y="-498.5" font-family="Helvetica,sans-Serif" font-size="10.00">klyqa_ctl.devices.device.</text>
<text text-anchor="middle" x="451" y="-487.5" font-family="Helvetica,sans-Serif" font-size="10.00">CommandWithCheckValues</text>
</a>
</g>
</g>
<!-- Node6&#45;&gt;Node7 -->
<g id="edge7" class="edge">
<title>Node6&#45;&gt;Node7</title>
<path fill="none" stroke="midnightblue" d="M270.19,-396.25C289.8,-418.65 322.64,-452.21 358,-471.5 364.23,-474.9 370.96,-477.83 377.85,-480.36"/>
<polygon fill="midnightblue" stroke="midnightblue" points="272.76,-393.86 263.59,-388.56 267.45,-398.42 272.76,-393.86"/>
</g>
<!-- Node11 -->
<g id="node12" class="node">
<title>Node11</title>
<g id="a_node12"><a xlink:href="classklyqa__ctl_1_1devices_1_1light_1_1commands_1_1FactoryResetCommand.html" target="_top" xlink:title=" ">
<polygon fill="white" stroke="black" points="358,-431.5 358,-461.5 544,-461.5 544,-431.5 358,-431.5"/>
<text text-anchor="start" x="366" y="-449.5" font-family="Helvetica,sans-Serif" font-size="10.00">klyqa_ctl.devices.light.commands.</text>
<text text-anchor="middle" x="451" y="-438.5" font-family="Helvetica,sans-Serif" font-size="10.00">FactoryResetCommand</text>
</a>
</g>
</g>
<!-- Node6&#45;&gt;Node11 -->
<g id="edge14" class="edge">
<title>Node6&#45;&gt;Node11</title>
<path fill="none" stroke="midnightblue" d="M289.84,-393.13C309.81,-402.84 334.84,-414.22 358,-422.5 367.02,-425.72 376.67,-428.72 386.21,-431.42"/>
<polygon fill="midnightblue" stroke="midnightblue" points="291.27,-389.93 280.76,-388.66 288.18,-396.22 291.27,-389.93"/>
</g>
<!-- Node12 -->
<g id="node13" class="node">
<title>Node12</title>
<g id="a_node13"><a xlink:href="classklyqa__ctl_1_1devices_1_1light_1_1commands_1_1FwUpdateCommand.html" target="_top" xlink:title=" ">
<polygon fill="white" stroke="black" points="358,-382.5 358,-412.5 544,-412.5 544,-382.5 358,-382.5"/>
<text text-anchor="start" x="366" y="-400.5" font-family="Helvetica,sans-Serif" font-size="10.00">klyqa_ctl.devices.light.commands.</text>
<text text-anchor="middle" x="451" y="-389.5" font-family="Helvetica,sans-Serif" font-size="10.00">FwUpdateCommand</text>
</a>
</g>
</g>
<!-- Node6&#45;&gt;Node12 -->
<g id="edge15" class="edge">
<title>Node6&#45;&gt;Node12</title>
<path fill="none" stroke="midnightblue" d="M332.22,-383.26C340.65,-384.28 349.27,-385.32 357.81,-386.35"/>
<polygon fill="midnightblue" stroke="midnightblue" points="332.39,-379.75 322.04,-382.03 331.55,-386.7 332.39,-379.75"/>
</g>
<!-- Node13 -->
<g id="node14" class="node">
<title>Node13</title>
<g id="a_node14"><a xlink:href="classklyqa__ctl_1_1devices_1_1light_1_1commands_1_1PingCommand.html" target="_top" xlink:title=" ">
<polygon fill="white" stroke="black" points="358,-333.5 358,-363.5 544,-363.5 544,-333.5 358,-333.5"/>
<text text-anchor="start" x="366" y="-351.5" font-family="Helvetica,sans-Serif" font-size="10.00">klyqa_ctl.devices.light.commands.</text>
<text text-anchor="middle" x="451" y="-340.5" font-family="Helvetica,sans-Serif" font-size="10.00">PingCommand</text>
</a>
</g>
</g>
<!-- Node6&#45;&gt;Node13 -->
<g id="edge16" class="edge">
<title>Node6&#45;&gt;Node13</title>
<path fill="none" stroke="midnightblue" d="M332.22,-363.33C340.65,-362.27 349.27,-361.19 357.81,-360.11"/>
<polygon fill="midnightblue" stroke="midnightblue" points="331.53,-359.89 322.04,-364.62 332.4,-366.84 331.53,-359.89"/>
</g>
<!-- Node14 -->
<g id="node15" class="node">
<title>Node14</title>
<g id="a_node15"><a xlink:href="classklyqa__ctl_1_1devices_1_1light_1_1commands_1_1RebootCommand.html" target="_top" xlink:title=" ">
<polygon fill="white" stroke="black" points="358,-284.5 358,-314.5 544,-314.5 544,-284.5 358,-284.5"/>
<text text-anchor="start" x="366" y="-302.5" font-family="Helvetica,sans-Serif" font-size="10.00">klyqa_ctl.devices.light.commands.</text>
<text text-anchor="middle" x="451" y="-291.5" font-family="Helvetica,sans-Serif" font-size="10.00">RebootCommand</text>
</a>
</g>
</g>
<!-- Node6&#45;&gt;Node14 -->
<g id="edge17" class="edge">
<title>Node6&#45;&gt;Node14</title>
<path fill="none" stroke="midnightblue" d="M289.87,-353.97C309.85,-344.28 334.88,-332.89 358,-324.5 367.8,-320.94 378.35,-317.62 388.69,-314.64"/>
<polygon fill="midnightblue" stroke="midnightblue" points="288.22,-350.88 280.79,-358.43 291.31,-357.16 288.22,-350.88"/>
</g>
<!-- Node15 -->
<g id="node16" class="node">
<title>Node15</title>
<g id="a_node16"><a xlink:href="classklyqa__ctl_1_1devices_1_1light_1_1commands_1_1RequestCommand.html" target="_top" xlink:title=" ">
<polygon fill="white" stroke="black" points="358,-235.5 358,-265.5 544,-265.5 544,-235.5 358,-235.5"/>
<text text-anchor="start" x="366" y="-253.5" font-family="Helvetica,sans-Serif" font-size="10.00">klyqa_ctl.devices.light.commands.</text>
<text text-anchor="middle" x="451" y="-242.5" font-family="Helvetica,sans-Serif" font-size="10.00">RequestCommand</text>
</a>
</g>
</g>
<!-- Node6&#45;&gt;Node15 -->
<g id="edge18" class="edge">
<title>Node6&#45;&gt;Node15</title>
<path fill="none" stroke="midnightblue" d="M270.24,-350.82C289.88,-328.49 322.74,-294.97 358,-275.5 364.95,-271.66 372.54,-268.38 380.26,-265.59"/>
<polygon fill="midnightblue" stroke="midnightblue" points="267.5,-348.64 263.62,-358.5 272.8,-353.21 267.5,-348.64"/>
</g>
<!-- Node25 -->
<g id="node26" class="node">
<title>Node25</title>
<g id="a_node26"><a xlink:href="classklyqa__ctl_1_1devices_1_1light_1_1commands_1_1RoutineCommand.html" target="_top" xlink:title=" ">
<polygon fill="white" stroke="black" points="588.5,-0.5 588.5,-30.5 774.5,-30.5 774.5,-0.5 588.5,-0.5"/>
<text text-anchor="start" x="596.5" y="-18.5" font-family="Helvetica,sans-Serif" font-size="10.00">klyqa_ctl.devices.light.commands.</text>
<text text-anchor="middle" x="681.5" y="-7.5" font-family="Helvetica,sans-Serif" font-size="10.00">RoutineCommand</text>
</a>
</g>
</g>
<!-- Node6&#45;&gt;Node25 -->
<g id="edge34" class="edge">
<title>Node6&#45;&gt;Node25</title>
<path fill="none" stroke="midnightblue" d="M266.09,-349.81C285.26,-319.58 320.86,-266.46 358,-226.5 445.83,-132.01 464.82,-97.61 580,-39.5 586.81,-36.07 594.12,-33.11 601.59,-30.57"/>
<polygon fill="midnightblue" stroke="midnightblue" points="263.04,-348.08 260.69,-358.41 268.97,-351.8 263.04,-348.08"/>
</g>
<!-- Node8 -->
<g id="node9" class="node">
<title>Node8</title>
<g id="a_node9"><a xlink:href="classklyqa__ctl_1_1devices_1_1light_1_1commands_1_1CommandWithCheckValuesLight.html" target="_top" xlink:title=" ">
<polygon fill="white" stroke="black" points="588.5,-480.5 588.5,-510.5 774.5,-510.5 774.5,-480.5 588.5,-480.5"/>
<text text-anchor="start" x="596.5" y="-498.5" font-family="Helvetica,sans-Serif" font-size="10.00">klyqa_ctl.devices.light.commands.</text>
<text text-anchor="middle" x="681.5" y="-487.5" font-family="Helvetica,sans-Serif" font-size="10.00">CommandWithCheckValuesLight</text>
</a>
</g>
</g>
<!-- Node7&#45;&gt;Node8 -->
<g id="edge8" class="edge">
<title>Node7&#45;&gt;Node8</title>
<path fill="none" stroke="midnightblue" d="M537.34,-495.5C553.92,-495.5 571.38,-495.5 588.17,-495.5"/>
<polygon fill="midnightblue" stroke="midnightblue" points="537.14,-492 527.14,-495.5 537.14,-499 537.14,-492"/>
</g>
<!-- Node10 -->
<g id="node11" class="node">
<title>Node10</title>
<g id="a_node11"><a xlink:href="classklyqa__ctl_1_1devices_1_1light_1_1commands_1_1ExternalSourceCommand.html" target="_top" xlink:title=" ">
<polygon fill="white" stroke="black" points="588.5,-431.5 588.5,-461.5 774.5,-461.5 774.5,-431.5 588.5,-431.5"/>
<text text-anchor="start" x="596.5" y="-449.5" font-family="Helvetica,sans-Serif" font-size="10.00">klyqa_ctl.devices.light.commands.</text>
<text text-anchor="middle" x="681.5" y="-438.5" font-family="Helvetica,sans-Serif" font-size="10.00">ExternalSourceCommand</text>
</a>
</g>
</g>
<!-- Node7&#45;&gt;Node10 -->
<g id="edge13" class="edge">
<title>Node7&#45;&gt;Node10</title>
<path fill="none" stroke="midnightblue" d="M532.14,-478.31C557.69,-472.84 585.75,-466.82 610.52,-461.51"/>
<polygon fill="midnightblue" stroke="midnightblue" points="531.15,-474.95 522.11,-480.47 532.62,-481.79 531.15,-474.95"/>
</g>
<!-- Node8&#45;&gt;Node2 -->
<g id="edge9" class="edge">
<title>Node8&#45;&gt;Node2</title>
<path fill="none" stroke="midnightblue" d="M785.04,-495.5C796.27,-495.5 807.65,-495.5 818.75,-495.5"/>
<polygon fill="midnightblue" stroke="midnightblue" points="784.78,-492 774.78,-495.5 784.78,-499 784.78,-492"/>
</g>
<!-- Node8&#45;&gt;Node3 -->
<g id="edge10" class="edge">
<title>Node8&#45;&gt;Node3</title>
<path fill="none" stroke="midnightblue" d="M762.64,-478.31C788.19,-472.84 816.25,-466.82 841.02,-461.51"/>
<polygon fill="midnightblue" stroke="midnightblue" points="761.65,-474.95 752.61,-480.47 763.12,-481.79 761.65,-474.95"/>
</g>
<!-- Node8&#45;&gt;Node5 -->
<g id="edge12" class="edge">
<title>Node8&#45;&gt;Node5</title>
<path fill="none" stroke="midnightblue" d="M775.37,-476.06C778,-474.64 780.55,-473.13 783,-471.5 805.52,-456.56 796.72,-437.79 819,-422.5 824.6,-418.66 830.76,-415.41 837.16,-412.66"/>
<polygon fill="midnightblue" stroke="midnightblue" points="773.67,-472.99 766.18,-480.48 776.71,-479.3 773.67,-472.99"/>
</g>
<!-- Node9 -->
<g id="node10" class="node">
<title>Node9</title>
<g id="a_node10"><a xlink:href="classklyqa__ctl_1_1devices_1_1light_1_1commands_1_1RoutinePutCommand.html" target="_top" xlink:title=" ">
<polygon fill="white" stroke="black" points="819,-294.5 819,-324.5 1005,-324.5 1005,-294.5 819,-294.5"/>
<text text-anchor="start" x="827" y="-312.5" font-family="Helvetica,sans-Serif" font-size="10.00">klyqa_ctl.devices.light.commands.</text>
<text text-anchor="middle" x="912" y="-301.5" font-family="Helvetica,sans-Serif" font-size="10.00">RoutinePutCommand</text>
</a>
</g>
</g>
<!-- Node8&#45;&gt;Node9 -->
<g id="edge11" class="edge">
<title>Node8&#45;&gt;Node9</title>
<path fill="none" stroke="midnightblue" d="M779.37,-474.5C780.62,-473.54 781.83,-472.54 783,-471.5 817.68,-440.67 790.64,-410.23 819,-373.5 835.17,-352.56 860.13,-335.8 879.97,-324.7"/>
<polygon fill="midnightblue" stroke="midnightblue" points="777.12,-471.79 770.72,-480.24 780.99,-477.63 777.12,-471.79"/>
</g>
<!-- Node15&#45;&gt;Node4 -->
<g id="edge21" class="edge">
<title>Node15&#45;&gt;Node4</title>
<path fill="none" stroke="midnightblue" d="M538.76,-271.07C540.59,-272.46 542.34,-273.93 544,-275.5 580.77,-310.25 541.94,-350.16 580,-383.5 649.1,-444.04 712.99,-363.01 783,-422.5 818.36,-452.54 784.64,-489.32 819,-520.5 822.79,-523.94 827.01,-526.9 831.5,-529.44"/>
<polygon fill="midnightblue" stroke="midnightblue" points="540.62,-268.11 530.34,-265.57 536.8,-273.97 540.62,-268.11"/>
</g>
<!-- Node15&#45;&gt;Node10 -->
<g id="edge19" class="edge">
<title>Node15&#45;&gt;Node10</title>
<path fill="none" stroke="midnightblue" d="M539.47,-271.37C541.05,-272.66 542.56,-274.04 544,-275.5 589.38,-321.58 535.19,-369.86 580,-416.5 585.8,-422.54 592.77,-427.38 600.28,-431.25"/>
<polygon fill="midnightblue" stroke="midnightblue" points="541.28,-268.36 531.08,-265.5 537.27,-274.1 541.28,-268.36"/>
</g>
<!-- Node16 -->
<g id="node17" class="node">
<title>Node16</title>
<g id="a_node17"><a xlink:href="classklyqa__ctl_1_1devices_1_1light_1_1commands_1_1FadeCommand.html" target="_top" xlink:title=" ">
<polygon fill="white" stroke="black" points="588.5,-343.5 588.5,-373.5 774.5,-373.5 774.5,-343.5 588.5,-343.5"/>
<text text-anchor="start" x="596.5" y="-361.5" font-family="Helvetica,sans-Serif" font-size="10.00">klyqa_ctl.devices.light.commands.</text>
<text text-anchor="middle" x="681.5" y="-350.5" font-family="Helvetica,sans-Serif" font-size="10.00">FadeCommand</text>
</a>
</g>
</g>
<!-- Node15&#45;&gt;Node16 -->
<g id="edge20" class="edge">
<title>Node15&#45;&gt;Node16</title>
<path fill="none" stroke="midnightblue" d="M536.14,-270.28C538.87,-271.89 541.5,-273.62 544,-275.5 568.56,-293.95 555.15,-316.44 580,-334.5 584.64,-337.88 589.7,-340.78 594.98,-343.28"/>
<polygon fill="midnightblue" stroke="midnightblue" points="537.6,-267.1 527.12,-265.58 534.37,-273.31 537.6,-267.1"/>
</g>
<!-- Node17 -->
<g id="node18" class="node">
<title>Node17</title>
<g id="a_node18"><a xlink:href="classklyqa__ctl_1_1devices_1_1light_1_1commands_1_1TransitionCommand.html" target="_top" xlink:title=" ">
<polygon fill="white" stroke="black" points="588.5,-294.5 588.5,-324.5 774.5,-324.5 774.5,-294.5 588.5,-294.5"/>
<text text-anchor="start" x="596.5" y="-312.5" font-family="Helvetica,sans-Serif" font-size="10.00">klyqa_ctl.devices.light.commands.</text>
<text text-anchor="middle" x="681.5" y="-301.5" font-family="Helvetica,sans-Serif" font-size="10.00">TransitionCommand</text>
</a>
</g>
</g>
<!-- Node15&#45;&gt;Node17 -->
<g id="edge22" class="edge">
<title>Node15&#45;&gt;Node17</title>
<path fill="none" stroke="midnightblue" d="M517.18,-268.16C526.19,-270.62 535.33,-273.12 544,-275.5 560.01,-279.9 563.92,-281.35 580,-285.5 591.64,-288.5 604.07,-291.58 616.08,-294.48"/>
<polygon fill="midnightblue" stroke="midnightblue" points="518.04,-264.77 507.47,-265.52 516.2,-271.52 518.04,-264.77"/>
</g>
<!-- Node20 -->
<g id="node21" class="node">
<title>Node20</title>
<g id="a_node21"><a xlink:href="classklyqa__ctl_1_1devices_1_1vacuum_1_1commands_1_1ProductinfoCommand.html" target="_top" xlink:title=" ">
<polygon fill="white" stroke="black" points="580,-245.5 580,-275.5 783,-275.5 783,-245.5 580,-245.5"/>
<text text-anchor="start" x="588" y="-263.5" font-family="Helvetica,sans-Serif" font-size="10.00">klyqa_ctl.devices.vacuum.commands.</text>
<text text-anchor="middle" x="681.5" y="-252.5" font-family="Helvetica,sans-Serif" font-size="10.00">ProductinfoCommand</text>
</a>
</g>
</g>
<!-- Node15&#45;&gt;Node20 -->
<g id="edge29" class="edge">
<title>Node15&#45;&gt;Node20</title>
<path fill="none" stroke="midnightblue" d="M554.44,-254.98C562.82,-255.35 571.28,-255.72 579.65,-256.09"/>
<polygon fill="midnightblue" stroke="midnightblue" points="554.42,-251.48 544.28,-254.54 554.12,-258.47 554.42,-251.48"/>
</g>
<!-- Node21 -->
<g id="node22" class="node">
<title>Node21</title>
<g id="a_node22"><a xlink:href="classklyqa__ctl_1_1devices_1_1vacuum_1_1commands_1_1RequestGetCommand.html" target="_top" xlink:title=" ">
<polygon fill="white" stroke="black" points="580,-196.5 580,-226.5 783,-226.5 783,-196.5 580,-196.5"/>
<text text-anchor="start" x="588" y="-214.5" font-family="Helvetica,sans-Serif" font-size="10.00">klyqa_ctl.devices.vacuum.commands.</text>
<text text-anchor="middle" x="681.5" y="-203.5" font-family="Helvetica,sans-Serif" font-size="10.00">RequestGetCommand</text>
</a>
</g>
</g>
<!-- Node15&#45;&gt;Node21 -->
<g id="edge30" class="edge">
<title>Node15&#45;&gt;Node21</title>
<path fill="none" stroke="midnightblue" d="M550.19,-233.74C564.27,-231.34 578.67,-228.88 592.53,-226.51"/>
<polygon fill="midnightblue" stroke="midnightblue" points="549.29,-230.34 540.02,-235.48 550.46,-237.24 549.29,-230.34"/>
</g>
<!-- Node22 -->
<g id="node23" class="node">
<title>Node22</title>
<g id="a_node23"><a xlink:href="classklyqa__ctl_1_1devices_1_1vacuum_1_1commands_1_1RequestResetCommand.html" target="_top" xlink:title=" ">
<polygon fill="white" stroke="black" points="580,-147.5 580,-177.5 783,-177.5 783,-147.5 580,-147.5"/>
<text text-anchor="start" x="588" y="-165.5" font-family="Helvetica,sans-Serif" font-size="10.00">klyqa_ctl.devices.vacuum.commands.</text>
<text text-anchor="middle" x="681.5" y="-154.5" font-family="Helvetica,sans-Serif" font-size="10.00">RequestResetCommand</text>
</a>
</g>
</g>
<!-- Node15&#45;&gt;Node22 -->
<g id="edge31" class="edge">
<title>Node15&#45;&gt;Node22</title>
<path fill="none" stroke="midnightblue" d="M487.54,-230.44C512.74,-216.87 547.68,-199.32 580,-187.5 590.13,-183.79 601.03,-180.45 611.79,-177.51"/>
<polygon fill="midnightblue" stroke="midnightblue" points="485.83,-227.39 478.72,-235.25 489.18,-233.54 485.83,-227.39"/>
</g>
<!-- Node23 -->
<g id="node24" class="node">
<title>Node23</title>
<g id="a_node24"><a xlink:href="classklyqa__ctl_1_1devices_1_1vacuum_1_1commands_1_1RequestSetCommand.html" target="_top" xlink:title=" ">
<polygon fill="white" stroke="black" points="580,-98.5 580,-128.5 783,-128.5 783,-98.5 580,-98.5"/>
<text text-anchor="start" x="588" y="-116.5" font-family="Helvetica,sans-Serif" font-size="10.00">klyqa_ctl.devices.vacuum.commands.</text>
<text text-anchor="middle" x="681.5" y="-105.5" font-family="Helvetica,sans-Serif" font-size="10.00">RequestSetCommand</text>
</a>
</g>
</g>
<!-- Node15&#45;&gt;Node23 -->
<g id="edge32" class="edge">
<title>Node15&#45;&gt;Node23</title>
<path fill="none" stroke="midnightblue" d="M471.83,-227.55C495.17,-202 536.31,-161.32 580,-138.5 587.41,-134.63 595.44,-131.34 603.63,-128.55"/>
<polygon fill="midnightblue" stroke="midnightblue" points="468.98,-225.49 464.9,-235.27 474.19,-230.17 468.98,-225.49"/>
</g>
<!-- Node24 -->
<g id="node25" class="node">
<title>Node24</title>
<g id="a_node25"><a xlink:href="classklyqa__ctl_1_1devices_1_1vacuum_1_1commands_1_1RoutineCommand.html" target="_top" xlink:title=" ">
<polygon fill="white" stroke="black" points="580,-49.5 580,-79.5 783,-79.5 783,-49.5 580,-49.5"/>
<text text-anchor="start" x="588" y="-67.5" font-family="Helvetica,sans-Serif" font-size="10.00">klyqa_ctl.devices.vacuum.commands.</text>
<text text-anchor="middle" x="681.5" y="-56.5" font-family="Helvetica,sans-Serif" font-size="10.00">RoutineCommand</text>
</a>
</g>
</g>
<!-- Node15&#45;&gt;Node24 -->
<g id="edge33" class="edge">
<title>Node15&#45;&gt;Node24</title>
<path fill="none" stroke="midnightblue" d="M469.17,-227.25C500.62,-184.93 565.56,-98.78 580,-89.5 586.05,-85.61 592.66,-82.33 599.51,-79.55"/>
<polygon fill="midnightblue" stroke="midnightblue" points="466.32,-225.22 463.18,-235.33 471.94,-229.39 466.32,-225.22"/>
</g>
<!-- Node17&#45;&gt;Node2 -->
<g id="edge23" class="edge">
<title>Node17&#45;&gt;Node2</title>
<path fill="none" stroke="midnightblue" d="M778.49,-330.46C780.05,-331.73 781.56,-333.08 783,-334.5 827.81,-378.72 774.44,-427.02 819,-471.5 822.39,-474.88 826.19,-477.81 830.27,-480.33"/>
<polygon fill="midnightblue" stroke="midnightblue" points="780.41,-327.54 770.21,-324.69 776.41,-333.28 780.41,-327.54"/>
</g>
<!-- Node17&#45;&gt;Node3 -->
<g id="edge24" class="edge">
<title>Node17&#45;&gt;Node3</title>
<path fill="none" stroke="midnightblue" d="M776.83,-329.73C778.98,-331.22 781.04,-332.8 783,-334.5 814.96,-362.15 787.2,-394.67 819,-422.5 822.85,-425.87 827.12,-428.78 831.64,-431.28"/>
<polygon fill="midnightblue" stroke="midnightblue" points="778.58,-326.7 768.21,-324.52 774.96,-332.69 778.58,-326.7"/>
</g>
<!-- Node17&#45;&gt;Node5 -->
<g id="edge28" class="edge">
<title>Node17&#45;&gt;Node5</title>
<path fill="none" stroke="midnightblue" d="M761.06,-327.31C768.54,-329.52 775.96,-331.92 783,-334.5 819.29,-347.77 858.88,-368.26 884.28,-382.25"/>
<polygon fill="midnightblue" stroke="midnightblue" points="761.79,-323.88 751.21,-324.51 759.87,-330.61 761.79,-323.88"/>
</g>
<!-- Node17&#45;&gt;Node9 -->
<g id="edge26" class="edge">
<title>Node17&#45;&gt;Node9</title>
<path fill="none" stroke="midnightblue" d="M785.04,-309.5C796.27,-309.5 807.65,-309.5 818.75,-309.5"/>
<polygon fill="midnightblue" stroke="midnightblue" points="784.78,-306 774.78,-309.5 784.78,-313 784.78,-306"/>
</g>
<!-- Node18 -->
<g id="node19" class="node">
<title>Node18</title>
<g id="a_node19"><a xlink:href="classklyqa__ctl_1_1devices_1_1light_1_1commands_1_1RoutineDeleteCommand.html" target="_top" xlink:title=" ">
<polygon fill="white" stroke="black" points="819,-208.5 819,-238.5 1005,-238.5 1005,-208.5 819,-208.5"/>
<text text-anchor="start" x="827" y="-226.5" font-family="Helvetica,sans-Serif" font-size="10.00">klyqa_ctl.devices.light.commands.</text>
<text text-anchor="middle" x="912" y="-215.5" font-family="Helvetica,sans-Serif" font-size="10.00">RoutineDeleteCommand</text>
</a>
</g>
</g>
<!-- Node17&#45;&gt;Node18 -->
<g id="edge25" class="edge">
<title>Node17&#45;&gt;Node18</title>
<path fill="none" stroke="midnightblue" d="M763.61,-291.75C770.22,-289.81 776.76,-287.73 783,-285.5 819.28,-272.55 858.87,-252.36 884.27,-238.56"/>
<polygon fill="midnightblue" stroke="midnightblue" points="762.57,-288.4 753.89,-294.48 764.47,-295.14 762.57,-288.4"/>
</g>
<!-- Node19 -->
<g id="node20" class="node">
<title>Node19</title>
<g id="a_node20"><a xlink:href="classklyqa__ctl_1_1devices_1_1light_1_1commands_1_1RoutineStartCommand.html" target="_top" xlink:title=" ">
<polygon fill="white" stroke="black" points="819,-86.5 819,-116.5 1005,-116.5 1005,-86.5 819,-86.5"/>
<text text-anchor="start" x="827" y="-104.5" font-family="Helvetica,sans-Serif" font-size="10.00">klyqa_ctl.devices.light.commands.</text>
<text text-anchor="middle" x="912" y="-93.5" font-family="Helvetica,sans-Serif" font-size="10.00">RoutineStartCommand</text>
</a>
</g>
</g>
<!-- Node17&#45;&gt;Node19 -->
<g id="edge27" class="edge">
<title>Node17&#45;&gt;Node19</title>
<path fill="none" stroke="midnightblue" d="M778.78,-288.82C780.23,-287.76 781.64,-286.66 783,-285.5 814.57,-258.67 796.46,-234.27 819,-199.5 840.33,-166.6 873.28,-134.68 893.42,-116.62"/>
<polygon fill="midnightblue" stroke="midnightblue" points="776.67,-286.01 770.07,-294.3 780.4,-291.93 776.67,-286.01"/>
</g>
<!-- Node25&#45;&gt;Node9 -->
<g id="edge37" class="edge">
<title>Node25&#45;&gt;Node9</title>
<path fill="none" stroke="midnightblue" d="M780.54,-37.03C781.38,-37.83 782.2,-38.65 783,-39.5 847.49,-108.24 767.51,-169.55 819,-248.5 832.4,-269.05 855.4,-284.3 875.05,-294.41"/>
<polygon fill="midnightblue" stroke="midnightblue" points="782.39,-34.03 772.37,-30.57 778.04,-39.52 782.39,-34.03"/>
</g>
<!-- Node25&#45;&gt;Node18 -->
<g id="edge35" class="edge">
<title>Node25&#45;&gt;Node18</title>
<path fill="none" stroke="midnightblue" d="M778.79,-36.18C780.23,-37.23 781.64,-38.34 783,-39.5 814.83,-66.66 796.22,-91.4 819,-126.5 840.1,-159.01 872.82,-190.39 893.02,-208.27"/>
<polygon fill="midnightblue" stroke="midnightblue" points="780.41,-33.06 770.09,-30.68 776.67,-38.98 780.41,-33.06"/>
</g>
<!-- Node25&#45;&gt;Node19 -->
<g id="edge38" class="edge">
<title>Node25&#45;&gt;Node19</title>
<path fill="none" stroke="midnightblue" d="M763.61,-33.25C770.22,-35.19 776.76,-37.27 783,-39.5 819.28,-52.45 858.87,-72.64 884.27,-86.44"/>
<polygon fill="midnightblue" stroke="midnightblue" points="764.47,-29.86 753.89,-30.52 762.57,-36.6 764.47,-29.86"/>
</g>
<!-- Node26 -->
<g id="node27" class="node">
<title>Node26</title>
<g id="a_node27"><a xlink:href="classklyqa__ctl_1_1devices_1_1light_1_1commands_1_1RoutineListCommand.html" target="_top" xlink:title=" ">
<polygon fill="white" stroke="black" points="819,-0.5 819,-30.5 1005,-30.5 1005,-0.5 819,-0.5"/>
<text text-anchor="start" x="827" y="-18.5" font-family="Helvetica,sans-Serif" font-size="10.00">klyqa_ctl.devices.light.commands.</text>
<text text-anchor="middle" x="912" y="-7.5" font-family="Helvetica,sans-Serif" font-size="10.00">RoutineListCommand</text>
</a>
</g>
</g>
<!-- Node25&#45;&gt;Node26 -->
<g id="edge36" class="edge">
<title>Node25&#45;&gt;Node26</title>
<path fill="none" stroke="midnightblue" d="M785.04,-15.5C796.27,-15.5 807.65,-15.5 818.75,-15.5"/>
<polygon fill="midnightblue" stroke="midnightblue" points="784.78,-12 774.78,-15.5 784.78,-19 784.78,-12"/>
</g>
</g>
</svg>
