<?xml version="1.0" encoding="UTF-8" standalone="no"?>
<!DOCTYPE svg PUBLIC "-//W3C//DTD SVG 1.1//EN"
 "http://www.w3.org/Graphics/SVG/1.1/DTD/svg11.dtd">
<!-- Generated by graphviz version 2.43.0 (0)
 -->
<!-- Title: Graphical Class Hierarchy Pages: 1 -->
<svg width="291pt" height="754pt"
 viewBox="0.00 0.00 291.00 754.00" xmlns="http://www.w3.org/2000/svg" xmlns:xlink="http://www.w3.org/1999/xlink">
<g id="graph0" class="graph" transform="scale(1 1) rotate(0) translate(4 750)">
<title>Graphical Class Hierarchy</title>
<polygon fill="white" stroke="transparent" points="-4,4 -4,-750 287,-750 287,4 -4,4"/>
<!-- Node0 -->
<g id="node1" class="node">
<title>Node0</title>
<g id="a_node1"><a xlink:href="classstr.html" target="_top" xlink:title=" ">
<polygon fill="white" stroke="black" points="7.5,-525 7.5,-544 36.5,-544 36.5,-525 7.5,-525"/>
<text text-anchor="middle" x="22" y="-532" font-family="Helvetica,sans-Serif" font-size="10.00">str</text>
</a>
</g>
</g>
<!-- Node1 -->
<g id="node2" class="node">
<title>Node1</title>
<g id="a_node2"><a xlink:href="classcloud_1_1RequestMethod.html" target="_top" xlink:title=" ">
<polygon fill="white" stroke="black" points="120.5,-383 120.5,-402 242.5,-402 242.5,-383 120.5,-383"/>
<text text-anchor="middle" x="181.5" y="-390" font-family="Helvetica,sans-Serif" font-size="10.00">cloud.RequestMethod</text>
</a>
</g>
</g>
<!-- Node0&#45;&gt;Node1 -->
<g id="edge1" class="edge">
<title>Node0&#45;&gt;Node1</title>
<path fill="none" stroke="midnightblue" d="M26.49,-514.77C32.42,-487.36 47.18,-438.24 80,-412.5 91.55,-403.44 106.09,-398.15 120.5,-395.13"/>
<polygon fill="midnightblue" stroke="midnightblue" points="23.02,-514.25 24.52,-524.74 29.89,-515.61 23.02,-514.25"/>
</g>
<!-- Node2 -->
<g id="node3" class="node">
<title>Node2</title>
<g id="a_node3"><a xlink:href="classklyqa__ctl_1_1account_1_1CLOUD__DEVICE__TARGETS.html" target="_top" xlink:title=" ">
<polygon fill="white" stroke="black" points="111.5,-333.5 111.5,-363.5 251.5,-363.5 251.5,-333.5 111.5,-333.5"/>
<text text-anchor="start" x="119.5" y="-351.5" font-family="Helvetica,sans-Serif" font-size="10.00">klyqa_ctl.account.CLOUD</text>
<text text-anchor="middle" x="181.5" y="-340.5" font-family="Helvetica,sans-Serif" font-size="10.00">_DEVICE_TARGETS</text>
</a>
</g>
</g>
<!-- Node0&#45;&gt;Node2 -->
<g id="edge2" class="edge">
<title>Node0&#45;&gt;Node2</title>
<path fill="none" stroke="midnightblue" d="M24.16,-514.75C27.25,-480.73 38.58,-411.11 80,-373.5 88.85,-365.46 99.89,-359.91 111.37,-356.1"/>
<polygon fill="midnightblue" stroke="midnightblue" points="20.66,-514.59 23.39,-524.83 27.64,-515.12 20.66,-514.59"/>
</g>
<!-- Node3 -->
<g id="node4" class="node">
<title>Node3</title>
<g id="a_node4"><a xlink:href="classklyqa__ctl_1_1devices_1_1light_1_1commands_1_1ExternalSourceProtocol.html" target="_top" xlink:title=" ">
<polygon fill="white" stroke="black" points="88.5,-666.5 88.5,-696.5 274.5,-696.5 274.5,-666.5 88.5,-666.5"/>
<text text-anchor="start" x="96.5" y="-684.5" font-family="Helvetica,sans-Serif" font-size="10.00">klyqa_ctl.devices.light.commands.</text>
<text text-anchor="middle" x="181.5" y="-673.5" font-family="Helvetica,sans-Serif" font-size="10.00">ExternalSourceProtocol</text>
</a>
</g>
</g>
<!-- Node0&#45;&gt;Node3 -->
<g id="edge3" class="edge">
<title>Node0&#45;&gt;Node3</title>
<path fill="none" stroke="midnightblue" d="M26.58,-554.22C32.61,-581.64 47.5,-630.91 80,-657.5 84.17,-660.91 88.73,-663.85 93.56,-666.38"/>
<polygon fill="midnightblue" stroke="midnightblue" points="29.97,-553.35 24.56,-544.24 23.11,-554.74 29.97,-553.35"/>
</g>
<!-- Node4 -->
<g id="node5" class="node">
<title>Node4</title>
<g id="a_node5"><a xlink:href="classklyqa__ctl_1_1devices_1_1light_1_1commands_1_1RoutineAction.html" target="_top" xlink:title=" ">
<polygon fill="white" stroke="black" points="88.5,-617.5 88.5,-647.5 274.5,-647.5 274.5,-617.5 88.5,-617.5"/>
<text text-anchor="start" x="96.5" y="-635.5" font-family="Helvetica,sans-Serif" font-size="10.00">klyqa_ctl.devices.light.commands.</text>
<text text-anchor="middle" x="181.5" y="-624.5" font-family="Helvetica,sans-Serif" font-size="10.00">RoutineAction</text>
</a>
</g>
</g>
<!-- Node0&#45;&gt;Node4 -->
<g id="edge4" class="edge">
<title>Node0&#45;&gt;Node4</title>
<path fill="none" stroke="midnightblue" d="M32.52,-553.16C42.17,-570.18 58.72,-594.73 80,-608.5 85.35,-611.96 91.14,-614.92 97.16,-617.46"/>
<polygon fill="midnightblue" stroke="midnightblue" points="35.48,-551.27 27.64,-544.14 29.32,-554.6 35.48,-551.27"/>
</g>
<!-- Node5 -->
<g id="node6" class="node">
<title>Node5</title>
<g id="a_node6"><a xlink:href="classklyqa__ctl_1_1devices_1_1vacuum_1_1commands_1_1RoutineCommandActions.html" target="_top" xlink:title=" ">
<polygon fill="white" stroke="black" points="80,-568.5 80,-598.5 283,-598.5 283,-568.5 80,-568.5"/>
<text text-anchor="start" x="88" y="-586.5" font-family="Helvetica,sans-Serif" font-size="10.00">klyqa_ctl.devices.vacuum.commands.</text>
<text text-anchor="middle" x="181.5" y="-575.5" font-family="Helvetica,sans-Serif" font-size="10.00">RoutineCommandActions</text>
</a>
</g>
</g>
<!-- Node0&#45;&gt;Node5 -->
<g id="edge5" class="edge">
<title>Node0&#45;&gt;Node5</title>
<path fill="none" stroke="midnightblue" d="M45.88,-545.66C56.15,-550.37 68.51,-555.64 80,-559.5 89.69,-562.75 100.05,-565.75 110.3,-568.44"/>
<polygon fill="midnightblue" stroke="midnightblue" points="47.32,-542.46 36.78,-541.38 44.34,-548.8 47.32,-542.46"/>
</g>
<!-- Node6 -->
<g id="node7" class="node">
<title>Node6</title>
<g id="a_node7"><a xlink:href="classklyqa__ctl_1_1general_1_1general_1_1CommandType.html" target="_top" xlink:title=" ">
<polygon fill="white" stroke="black" points="110,-519.5 110,-549.5 253,-549.5 253,-519.5 110,-519.5"/>
<text text-anchor="start" x="118" y="-537.5" font-family="Helvetica,sans-Serif" font-size="10.00">klyqa_ctl.general.general.</text>
<text text-anchor="middle" x="181.5" y="-526.5" font-family="Helvetica,sans-Serif" font-size="10.00">CommandType</text>
</a>
</g>
</g>
<!-- Node0&#45;&gt;Node6 -->
<g id="edge6" class="edge">
<title>Node0&#45;&gt;Node6</title>
<path fill="none" stroke="midnightblue" d="M46.75,-534.5C63.64,-534.5 87.27,-534.5 109.98,-534.5"/>
<polygon fill="midnightblue" stroke="midnightblue" points="46.7,-531 36.7,-534.5 46.7,-538 46.7,-531"/>
</g>
<!-- Node7 -->
<g id="node8" class="node">
<title>Node7</title>
<g id="a_node8"><a xlink:href="classklyqa__ctl_1_1general_1_1general_1_1DeviceType.html" target="_top" xlink:title=" ">
<polygon fill="white" stroke="black" points="110,-470.5 110,-500.5 253,-500.5 253,-470.5 110,-470.5"/>
<text text-anchor="start" x="118" y="-488.5" font-family="Helvetica,sans-Serif" font-size="10.00">klyqa_ctl.general.general.</text>
<text text-anchor="middle" x="181.5" y="-477.5" font-family="Helvetica,sans-Serif" font-size="10.00">DeviceType</text>
</a>
</g>
</g>
<!-- Node0&#45;&gt;Node7 -->
<g id="edge7" class="edge">
<title>Node0&#45;&gt;Node7</title>
<path fill="none" stroke="midnightblue" d="M46.26,-523.74C56.47,-519.27 68.69,-514.26 80,-510.5 90.83,-506.9 102.48,-503.54 113.86,-500.53"/>
<polygon fill="midnightblue" stroke="midnightblue" points="44.52,-520.69 36.82,-527.97 47.38,-527.08 44.52,-520.69"/>
</g>
<!-- Node8 -->
<g id="node9" class="node">
<title>Node8</title>
<g id="a_node9"><a xlink:href="classklyqa__ctl_1_1general_1_1unit__id_1_1UnitId.html" target="_top" xlink:title=" ">
<polygon fill="white" stroke="black" points="120.5,-715.5 120.5,-745.5 242.5,-745.5 242.5,-715.5 120.5,-715.5"/>
<text text-anchor="start" x="128.5" y="-733.5" font-family="Helvetica,sans-Serif" font-size="10.00">klyqa_ctl.general.unit</text>
<text text-anchor="middle" x="181.5" y="-722.5" font-family="Helvetica,sans-Serif" font-size="10.00">_id.UnitId</text>
</a>
</g>
</g>
<!-- Node0&#45;&gt;Node8 -->
<g id="edge8" class="edge">
<title>Node0&#45;&gt;Node8</title>
<path fill="none" stroke="midnightblue" d="M23.62,-554.62C25.86,-590.6 35.88,-666 80,-706.5 91.1,-716.69 105.74,-722.78 120.39,-726.36"/>
<polygon fill="midnightblue" stroke="midnightblue" points="27.1,-554.24 23.13,-544.41 20.11,-554.57 27.1,-554.24"/>
</g>
<!-- Node9 -->
<g id="node10" class="node">
<title>Node9</title>
<g id="a_node10"><a xlink:href="classlocal_1_1connection_1_1AesConnectionState.html" target="_top" xlink:title=" ">
<polygon fill="white" stroke="black" points="95.5,-421.5 95.5,-451.5 267.5,-451.5 267.5,-421.5 95.5,-421.5"/>
<text text-anchor="start" x="103.5" y="-439.5" font-family="Helvetica,sans-Serif" font-size="10.00">local.connection.AesConnection</text>
<text text-anchor="middle" x="181.5" y="-428.5" font-family="Helvetica,sans-Serif" font-size="10.00">State</text>
</a>
</g>
</g>
<!-- Node0&#45;&gt;Node9 -->
<g id="edge9" class="edge">
<title>Node0&#45;&gt;Node9</title>
<path fill="none" stroke="midnightblue" d="M32.76,-515.87C42.51,-499.12 59.03,-475.11 80,-461.5 85.96,-457.63 92.47,-454.36 99.22,-451.6"/>
<polygon fill="midnightblue" stroke="midnightblue" points="29.62,-514.32 27.83,-524.76 35.74,-517.72 29.62,-514.32"/>
</g>
<!-- Node78 -->
<g id="node11" class="node">
<title>Node78</title>
<g id="a_node11"><a xlink:title=" ">
<polygon fill="white" stroke="#bfbfbf" points="0,-339 0,-358 44,-358 44,-339 0,-339"/>
<text text-anchor="middle" x="22" y="-346" font-family="Helvetica,sans-Serif" font-size="10.00">Enum</text>
</a>
</g>
</g>
<!-- Node78&#45;&gt;Node1 -->
<g id="edge10" class="edge">
<title>Node78&#45;&gt;Node1</title>
<path fill="none" stroke="midnightblue" d="M51.14,-362.35C60.19,-366.39 70.37,-370.52 80,-373.5 92.89,-377.49 106.99,-380.78 120.43,-383.45"/>
<polygon fill="midnightblue" stroke="midnightblue" points="52.39,-359.07 41.85,-358.06 49.46,-365.43 52.39,-359.07"/>
</g>
<!-- Node78&#45;&gt;Node2 -->
<g id="edge11" class="edge">
<title>Node78&#45;&gt;Node2</title>
<path fill="none" stroke="midnightblue" d="M54.3,-348.5C70.64,-348.5 91.33,-348.5 111.2,-348.5"/>
<polygon fill="midnightblue" stroke="midnightblue" points="54.24,-345 44.24,-348.5 54.24,-352 54.24,-345"/>
</g>
<!-- Node78&#45;&gt;Node3 -->
<g id="edge12" class="edge">
<title>Node78&#45;&gt;Node3</title>
<path fill="none" stroke="midnightblue" d="M25.41,-368.45C33.42,-433.47 59.85,-636.27 80,-657.5 83.21,-660.88 86.81,-663.83 90.68,-666.38"/>
<polygon fill="midnightblue" stroke="midnightblue" points="28.85,-367.8 24.17,-358.3 21.91,-368.65 28.85,-367.8"/>
</g>
<!-- Node78&#45;&gt;Node4 -->
<g id="edge13" class="edge">
<title>Node78&#45;&gt;Node4</title>
<path fill="none" stroke="midnightblue" d="M24.66,-368.36C29.64,-423.05 46.23,-574.09 80,-608.5 83.27,-611.83 86.91,-614.73 90.81,-617.25"/>
<polygon fill="midnightblue" stroke="midnightblue" points="28.13,-367.88 23.77,-358.23 21.16,-368.49 28.13,-367.88"/>
</g>
<!-- Node78&#45;&gt;Node5 -->
<g id="edge15" class="edge">
<title>Node78&#45;&gt;Node5</title>
<path fill="none" stroke="midnightblue" d="M22.15,-368.38C21.5,-410.12 26.25,-507.31 80,-559.5 83.47,-562.87 87.33,-565.8 91.46,-568.34"/>
<polygon fill="midnightblue" stroke="midnightblue" points="25.65,-368.26 22.43,-358.16 18.65,-368.06 25.65,-368.26"/>
</g>
<!-- Node78&#45;&gt;Node6 -->
<g id="edge19" class="edge">
<title>Node78&#45;&gt;Node6</title>
<path fill="none" stroke="midnightblue" d="M24.08,-368.41C27.06,-402.7 38.21,-472.84 80,-510.5 88.46,-518.13 98.91,-523.44 109.84,-527.13"/>
<polygon fill="midnightblue" stroke="midnightblue" points="27.56,-367.98 23.35,-358.25 20.58,-368.48 27.56,-367.98"/>
</g>
<!-- Node78&#45;&gt;Node7 -->
<g id="edge20" class="edge">
<title>Node78&#45;&gt;Node7</title>
<path fill="none" stroke="midnightblue" d="M27.44,-368.08C34.26,-393.56 49.82,-437.64 80,-461.5 88.72,-468.4 99.12,-473.36 109.86,-476.93"/>
<polygon fill="midnightblue" stroke="midnightblue" points="30.77,-366.98 24.97,-358.11 23.98,-368.66 30.77,-366.98"/>
</g>
<!-- Node78&#45;&gt;Node9 -->
<g id="edge22" class="edge">
<title>Node78&#45;&gt;Node9</title>
<path fill="none" stroke="midnightblue" d="M34.95,-366.79C45.22,-381.07 61.32,-400.31 80,-411.5 86.48,-415.38 93.54,-418.66 100.81,-421.43"/>
<polygon fill="midnightblue" stroke="midnightblue" points="37.62,-364.5 29.07,-358.25 31.86,-368.47 37.62,-364.5"/>
</g>
<!-- Node79 -->
<g id="node12" class="node">
<title>Node79</title>
<g id="a_node12"><a xlink:href="classklyqa__ctl_1_1devices_1_1vacuum_1_1commands_1_1CommandType.html" target="_top" xlink:title=" ">
<polygon fill="white" stroke="black" points="80,-0.5 80,-30.5 283,-30.5 283,-0.5 80,-0.5"/>
<text text-anchor="start" x="88" y="-18.5" font-family="Helvetica,sans-Serif" font-size="10.00">klyqa_ctl.devices.vacuum.commands.</text>
<text text-anchor="middle" x="181.5" y="-7.5" font-family="Helvetica,sans-Serif" font-size="10.00">CommandType</text>
</a>
</g>
</g>
<!-- Node78&#45;&gt;Node79 -->
<g id="edge14" class="edge">
<title>Node78&#45;&gt;Node79</title>
<path fill="none" stroke="midnightblue" d="M23.93,-328.74C27.23,-267.52 40.35,-82.64 80,-40.5 83.57,-36.7 87.63,-33.44 92.01,-30.65"/>
<polygon fill="midnightblue" stroke="midnightblue" points="20.43,-328.79 23.42,-338.96 27.42,-329.15 20.43,-328.79"/>
</g>
<!-- Node80 -->
<g id="node13" class="node">
<title>Node80</title>
<g id="a_node13"><a xlink:href="classklyqa__ctl_1_1devices_1_1vacuum_1_1general_1_1VcSuctionStrengths.html" target="_top" xlink:title=" ">
<polygon fill="white" stroke="black" points="88.5,-284.5 88.5,-314.5 274.5,-314.5 274.5,-284.5 88.5,-284.5"/>
<text text-anchor="start" x="96.5" y="-302.5" font-family="Helvetica,sans-Serif" font-size="10.00">klyqa_ctl.devices.vacuum.general.</text>
<text text-anchor="middle" x="181.5" y="-291.5" font-family="Helvetica,sans-Serif" font-size="10.00">VcSuctionStrengths</text>
</a>
</g>
</g>
<!-- Node78&#45;&gt;Node80 -->
<g id="edge16" class="edge">
<title>Node78&#45;&gt;Node80</title>
<path fill="none" stroke="midnightblue" d="M52.87,-334.9C61.52,-331.24 71.04,-327.48 80,-324.5 90.83,-320.9 102.48,-317.54 113.86,-314.53"/>
<polygon fill="midnightblue" stroke="midnightblue" points="51.33,-331.75 43.55,-338.94 54.12,-338.17 51.33,-331.75"/>
</g>
<!-- Node81 -->
<g id="node14" class="node">
<title>Node81</title>
<g id="a_node14"><a xlink:href="classklyqa__ctl_1_1devices_1_1vacuum_1_1general_1_1VcWorkingMode.html" target="_top" xlink:title=" ">
<polygon fill="white" stroke="black" points="88.5,-235.5 88.5,-265.5 274.5,-265.5 274.5,-235.5 88.5,-235.5"/>
<text text-anchor="start" x="96.5" y="-253.5" font-family="Helvetica,sans-Serif" font-size="10.00">klyqa_ctl.devices.vacuum.general.</text>
<text text-anchor="middle" x="181.5" y="-242.5" font-family="Helvetica,sans-Serif" font-size="10.00">VcWorkingMode</text>
</a>
</g>
</g>
<!-- Node78&#45;&gt;Node81 -->
<g id="edge17" class="edge">
<title>Node78&#45;&gt;Node81</title>
<path fill="none" stroke="midnightblue" d="M32.76,-329.87C42.51,-313.12 59.03,-289.11 80,-275.5 85.96,-271.63 92.47,-268.36 99.22,-265.6"/>
<polygon fill="midnightblue" stroke="midnightblue" points="29.62,-328.32 27.83,-338.76 35.74,-331.72 29.62,-328.32"/>
</g>
<!-- Node82 -->
<g id="node15" class="node">
<title>Node82</title>
<g id="a_node15"><a xlink:href="classklyqa__ctl_1_1devices_1_1vacuum_1_1general_1_1VcWorkingStatus.html" target="_top" xlink:title=" ">
<polygon fill="white" stroke="black" points="88.5,-186.5 88.5,-216.5 274.5,-216.5 274.5,-186.5 88.5,-186.5"/>
<text text-anchor="start" x="96.5" y="-204.5" font-family="Helvetica,sans-Serif" font-size="10.00">klyqa_ctl.devices.vacuum.general.</text>
<text text-anchor="middle" x="181.5" y="-193.5" font-family="Helvetica,sans-Serif" font-size="10.00">VcWorkingStatus</text>
</a>
</g>
</g>
<!-- Node78&#45;&gt;Node82 -->
<g id="edge18" class="edge">
<title>Node78&#45;&gt;Node82</title>
<path fill="none" stroke="midnightblue" d="M26.66,-328.98C32.8,-301.83 47.8,-253.01 80,-226.5 84.72,-222.61 89.96,-219.32 95.49,-216.53"/>
<polygon fill="midnightblue" stroke="midnightblue" points="23.22,-328.35 24.61,-338.86 30.07,-329.78 23.22,-328.35"/>
</g>
<!-- Node83 -->
<g id="node16" class="node">
<title>Node83</title>
<g id="a_node16"><a xlink:href="classklyqa__ctl_1_1general_1_1message_1_1MessageState.html" target="_top" xlink:title=" ">
<polygon fill="white" stroke="black" points="106,-137.5 106,-167.5 257,-167.5 257,-137.5 106,-137.5"/>
<text text-anchor="start" x="114" y="-155.5" font-family="Helvetica,sans-Serif" font-size="10.00">klyqa_ctl.general.message.</text>
<text text-anchor="middle" x="181.5" y="-144.5" font-family="Helvetica,sans-Serif" font-size="10.00">MessageState</text>
</a>
</g>
</g>
<!-- Node78&#45;&gt;Node83 -->
<g id="edge21" class="edge">
<title>Node78&#45;&gt;Node83</title>
<path fill="none" stroke="midnightblue" d="M23.69,-328.54C26.05,-292.82 36.26,-217.96 80,-177.5 87.39,-170.66 96.36,-165.62 105.86,-161.92"/>
<polygon fill="midnightblue" stroke="midnightblue" points="20.19,-328.5 23.17,-338.66 27.18,-328.86 20.19,-328.5"/>
</g>
<!-- Node84 -->
<g id="node17" class="node">
<title>Node84</title>
<g id="a_node17"><a xlink:href="classlocal_1_1connection_1_1DeviceTcpReturn.html" target="_top" xlink:title=" ">
<polygon fill="white" stroke="black" points="107,-88.5 107,-118.5 256,-118.5 256,-88.5 107,-88.5"/>
<text text-anchor="start" x="115" y="-106.5" font-family="Helvetica,sans-Serif" font-size="10.00">local.connection.DeviceTcp</text>
<text text-anchor="middle" x="181.5" y="-95.5" font-family="Helvetica,sans-Serif" font-size="10.00">Return</text>
</a>
</g>
</g>
<!-- Node78&#45;&gt;Node84 -->
<g id="edge23" class="edge">
<title>Node78&#45;&gt;Node84</title>
<path fill="none" stroke="midnightblue" d="M25.55,-328.56C32.16,-279.87 51.39,-156.84 80,-128.5 87.54,-121.04 96.94,-115.68 106.94,-111.87"/>
<polygon fill="midnightblue" stroke="midnightblue" points="22.04,-328.38 24.2,-338.75 28.98,-329.29 22.04,-328.38"/>
</g>
<!-- Node85 -->
<g id="node18" class="node">
<title>Node85</title>
<g id="a_node18"><a xlink:href="classlocal_1_1data__package_1_1PackageType.html" target="_top" xlink:title=" ">
<polygon fill="white" stroke="black" points="93.5,-50 93.5,-69 269.5,-69 269.5,-50 93.5,-50"/>
<text text-anchor="middle" x="181.5" y="-57" font-family="Helvetica,sans-Serif" font-size="10.00">local.data_package.PackageType</text>
</a>
</g>
</g>
<!-- Node78&#45;&gt;Node85 -->
<g id="edge24" class="edge">
<title>Node78&#45;&gt;Node85</title>
<path fill="none" stroke="midnightblue" d="M24.38,-328.91C28.72,-272.88 44.05,-113.7 80,-78.5 83.93,-74.65 88.39,-71.45 93.18,-68.81"/>
<polygon fill="midnightblue" stroke="midnightblue" points="20.88,-328.72 23.63,-338.95 27.86,-329.24 20.88,-328.72"/>
</g>
</g>
</svg>
