<?xml version="1.0" encoding="UTF-8" standalone="no"?>
<!DOCTYPE svg PUBLIC "-//W3C//DTD SVG 1.1//EN"
 "http://www.w3.org/Graphics/SVG/1.1/DTD/svg11.dtd">
<!-- Generated by graphviz version 2.43.0 (0)
 -->
<!-- Title: klyqa_ctl.general.general.get_fields Pages: 1 -->
<svg width="993pt" height="137pt"
 viewBox="0.00 0.00 993.00 137.00" xmlns="http://www.w3.org/2000/svg" xmlns:xlink="http://www.w3.org/1999/xlink">
<g id="graph0" class="graph" transform="scale(1 1) rotate(0) translate(4 133)">
<title>klyqa_ctl.general.general.get_fields</title>
<polygon fill="white" stroke="transparent" points="-4,4 -4,-133 989,-133 989,4 -4,4"/>
<!-- Node1 -->
<g id="node1" class="node">
<title>Node1</title>
<g id="a_node1"><a xlink:title=" ">
<polygon fill="#bfbfbf" stroke="black" points="826,-24.5 826,-54.5 985,-54.5 985,-24.5 826,-24.5"/>
<text text-anchor="start" x="834" y="-42.5" font-family="Helvetica,sans-Serif" font-size="10.00">klyqa_ctl.general.general.get</text>
<text text-anchor="middle" x="905.5" y="-31.5" font-family="Helvetica,sans-Serif" font-size="10.00">_fields</text>
</a>
</g>
</g>
<!-- Node2 -->
<g id="node2" class="node">
<title>Node2</title>
<g id="a_node2"><a xlink:href="namespaceklyqa__ctl_1_1general_1_1general.html#a1760fa3fc6c355d2f804d6feb8f9b23c" target="_top" xlink:title=" ">
<polygon fill="white" stroke="black" points="631,-49.5 631,-79.5 790,-79.5 790,-49.5 631,-49.5"/>
<text text-anchor="start" x="639" y="-67.5" font-family="Helvetica,sans-Serif" font-size="10.00">klyqa_ctl.general.general.get</text>
<text text-anchor="middle" x="710.5" y="-56.5" font-family="Helvetica,sans-Serif" font-size="10.00">_obj_attr_values_as_string</text>
</a>
</g>
</g>
<!-- Node1&#45;&gt;Node2 -->
<g id="edge1" class="edge">
<title>Node1&#45;&gt;Node2</title>
<path fill="none" stroke="midnightblue" d="M815.98,-50.97C807.39,-52.08 798.72,-53.2 790.24,-54.3"/>
<polygon fill="midnightblue" stroke="midnightblue" points="816.53,-54.42 826,-49.67 815.63,-47.48 816.53,-54.42"/>
</g>
<!-- Node5 -->
<g id="node5" class="node">
<title>Node5</title>
<g id="a_node5"><a xlink:href="namespaceklyqa__ctl_1_1general_1_1general.html#a478a761c65763ffa478642d11af1eade" target="_top" xlink:title=" ">
<polygon fill="white" stroke="black" points="631,-0.5 631,-30.5 790,-30.5 790,-0.5 631,-0.5"/>
<text text-anchor="start" x="639" y="-18.5" font-family="Helvetica,sans-Serif" font-size="10.00">klyqa_ctl.general.general.get</text>
<text text-anchor="middle" x="710.5" y="-7.5" font-family="Helvetica,sans-Serif" font-size="10.00">_obj_attrs_as_string</text>
</a>
</g>
</g>
<!-- Node1&#45;&gt;Node5 -->
<g id="edge4" class="edge">
<title>Node1&#45;&gt;Node5</title>
<path fill="none" stroke="midnightblue" d="M815.98,-28.49C807.39,-27.42 798.72,-26.35 790.24,-25.29"/>
<polygon fill="midnightblue" stroke="midnightblue" points="815.64,-31.98 826,-29.74 816.51,-25.03 815.64,-31.98"/>
</g>
<!-- Node3 -->
<g id="node3" class="node">
<title>Node3</title>
<g id="a_node3"><a xlink:href="classklyqa__ctl_1_1devices_1_1light_1_1response__status_1_1ResponseStatus.html#a6a0514d93c06be2198153da647cc04ac" target="_top" xlink:title=" ">
<polygon fill="white" stroke="black" points="413,-98.5 413,-128.5 586,-128.5 586,-98.5 413,-98.5"/>
<text text-anchor="start" x="421" y="-116.5" font-family="Helvetica,sans-Serif" font-size="10.00">klyqa_ctl.devices.light.response</text>
<text text-anchor="middle" x="499.5" y="-105.5" font-family="Helvetica,sans-Serif" font-size="10.00">_status.ResponseStatus.__str__</text>
</a>
</g>
</g>
<!-- Node2&#45;&gt;Node3 -->
<g id="edge2" class="edge">
<title>Node2&#45;&gt;Node3</title>
<path fill="none" stroke="midnightblue" d="M635.58,-81.83C612.37,-87.27 586.96,-93.23 564.51,-98.49"/>
<polygon fill="midnightblue" stroke="midnightblue" points="636.44,-85.22 645.37,-79.53 634.84,-78.41 636.44,-85.22"/>
</g>
<!-- Node4 -->
<g id="node4" class="node">
<title>Node4</title>
<g id="a_node4"><a xlink:href="classklyqa__ctl_1_1devices_1_1vacuum_1_1response__status_1_1ResponseStatus.html#a75a56e16c9405a8f1473a162620f9d91" target="_top" xlink:title=" ">
<polygon fill="white" stroke="black" points="404,-49.5 404,-79.5 595,-79.5 595,-49.5 404,-49.5"/>
<text text-anchor="start" x="412" y="-67.5" font-family="Helvetica,sans-Serif" font-size="10.00">klyqa_ctl.devices.vacuum.response</text>
<text text-anchor="middle" x="499.5" y="-56.5" font-family="Helvetica,sans-Serif" font-size="10.00">_status.ResponseStatus.__str__</text>
</a>
</g>
</g>
<!-- Node2&#45;&gt;Node4 -->
<g id="edge3" class="edge">
<title>Node2&#45;&gt;Node4</title>
<path fill="none" stroke="midnightblue" d="M620.65,-64.5C612.28,-64.5 603.76,-64.5 595.34,-64.5"/>
<polygon fill="midnightblue" stroke="midnightblue" points="620.78,-68 630.78,-64.5 620.78,-61 620.78,-68"/>
</g>
<!-- Node6 -->
<g id="node6" class="node">
<title>Node6</title>
<g id="a_node6"><a xlink:href="classklyqa__ctl_1_1klyqa__ctl_1_1Client.html#a40aba5774804e631745f63c3c91ec049" target="_top" xlink:title=" ">
<polygon fill="white" stroke="black" points="413.5,-0.5 413.5,-30.5 585.5,-30.5 585.5,-0.5 413.5,-0.5"/>
<text text-anchor="start" x="421.5" y="-18.5" font-family="Helvetica,sans-Serif" font-size="10.00">klyqa_ctl.klyqa_ctl.Client.select</text>
<text text-anchor="middle" x="499.5" y="-7.5" font-family="Helvetica,sans-Serif" font-size="10.00">_device</text>
</a>
</g>
</g>
<!-- Node5&#45;&gt;Node6 -->
<g id="edge5" class="edge">
<title>Node5&#45;&gt;Node6</title>
<path fill="none" stroke="midnightblue" d="M620.7,-15.5C609.13,-15.5 597.3,-15.5 585.78,-15.5"/>
<polygon fill="midnightblue" stroke="midnightblue" points="620.78,-19 630.78,-15.5 620.78,-12 620.78,-19"/>
</g>
<!-- Node7 -->
<g id="node7" class="node">
<title>Node7</title>
<g id="a_node7"><a xlink:href="classklyqa__ctl_1_1klyqa__ctl_1_1Client.html#ad5c42cd8dd34ed1d6329040e164bfc2e" target="_top" xlink:title=" ">
<polygon fill="white" stroke="black" points="202,-0.5 202,-30.5 368,-30.5 368,-0.5 202,-0.5"/>
<text text-anchor="start" x="210" y="-18.5" font-family="Helvetica,sans-Serif" font-size="10.00">klyqa_ctl.klyqa_ctl.Client.send</text>
<text text-anchor="middle" x="285" y="-7.5" font-family="Helvetica,sans-Serif" font-size="10.00">_to_devices</text>
</a>
</g>
</g>
<!-- Node6&#45;&gt;Node7 -->
<g id="edge6" class="edge">
<title>Node6&#45;&gt;Node7</title>
<path fill="none" stroke="midnightblue" d="M403.09,-15.5C391.42,-15.5 379.57,-15.5 368.12,-15.5"/>
<polygon fill="midnightblue" stroke="midnightblue" points="403.29,-19 413.29,-15.5 403.29,-12 403.29,-19"/>
</g>
<!-- Node7&#45;&gt;Node7 -->
<g id="edge7" class="edge">
<title>Node7&#45;&gt;Node7</title>
<path fill="none" stroke="midnightblue" d="M320.89,-40.96C316.44,-45.68 304.47,-49 285,-49 253.04,-49 241.31,-40.06 249.8,-30.66"/>
<polygon fill="midnightblue" stroke="midnightblue" points="324.36,-40.4 320.2,-30.66 317.38,-40.87 324.36,-40.4"/>
</g>
<!-- Node8 -->
<g id="node8" class="node">
<title>Node8</title>
<g id="a_node8"><a xlink:href="classklyqa__ctl_1_1klyqa__ctl_1_1Client.html#a7a93bda9f242d678a4208d0962837f11" target="_top" xlink:title=" ">
<polygon fill="white" stroke="black" points="0,-0.5 0,-30.5 166,-30.5 166,-0.5 0,-0.5"/>
<text text-anchor="start" x="8" y="-18.5" font-family="Helvetica,sans-Serif" font-size="10.00">klyqa_ctl.klyqa_ctl.Client.send</text>
<text text-anchor="middle" x="83" y="-7.5" font-family="Helvetica,sans-Serif" font-size="10.00">_to_devices_wrapped</text>
</a>
</g>
</g>
<!-- Node7&#45;&gt;Node8 -->
<g id="edge8" class="edge">
<title>Node7&#45;&gt;Node8</title>
<path fill="none" stroke="midnightblue" d="M191.53,-15.5C183.09,-15.5 174.57,-15.5 166.22,-15.5"/>
<polygon fill="midnightblue" stroke="midnightblue" points="191.79,-19 201.79,-15.5 191.79,-12 191.79,-19"/>
</g>
</g>
</svg>
