<?xml version="1.0" encoding="UTF-8" standalone="no"?>
<!DOCTYPE svg PUBLIC "-//W3C//DTD SVG 1.1//EN"
 "http://www.w3.org/Graphics/SVG/1.1/DTD/svg11.dtd">
<!-- Generated by graphviz version 2.43.0 (0)
 -->
<!-- Title: klyqa_ctl.vc1_vapp.set_up_sockets Pages: 1 -->
<svg width="327pt" height="351pt"
 viewBox="0.00 0.00 327.00 351.00" xmlns="http://www.w3.org/2000/svg" xmlns:xlink="http://www.w3.org/1999/xlink">
<g id="graph0" class="graph" transform="scale(1 1) rotate(0) translate(4 347)">
<title>klyqa_ctl.vc1_vapp.set_up_sockets</title>
<polygon fill="white" stroke="transparent" points="-4,4 -4,-347 323,-347 323,4 -4,4"/>
<!-- Node1 -->
<g id="node1" class="node">
<title>Node1</title>
<g id="a_node1"><a xlink:title=" ">
<polygon fill="#bfbfbf" stroke="black" points="191,-161.5 191,-191.5 319,-191.5 319,-161.5 191,-161.5"/>
<text text-anchor="start" x="199" y="-179.5" font-family="Helvetica,sans-Serif" font-size="10.00">klyqa_ctl.vc1_vapp.set</text>
<text text-anchor="middle" x="255" y="-168.5" font-family="Helvetica,sans-Serif" font-size="10.00">_up_sockets</text>
</a>
</g>
</g>
<!-- Node2 -->
<g id="node2" class="node">
<title>Node2</title>
<g id="a_node2"><a xlink:href="namespaceklyqa__ctl_1_1vc1__vapp.html#ad79fa7f723e22959ec9e2274cd5e6377" target="_top" xlink:title=" ">
<polygon fill="white" stroke="black" points="13.5,-312.5 13.5,-342.5 141.5,-342.5 141.5,-312.5 13.5,-312.5"/>
<text text-anchor="start" x="21.5" y="-330.5" font-family="Helvetica,sans-Serif" font-size="10.00">klyqa_ctl.vc1_vapp.set</text>
<text text-anchor="middle" x="77.5" y="-319.5" font-family="Helvetica,sans-Serif" font-size="10.00">_factory_reset</text>
</a>
</g>
</g>
<!-- Node1&#45;&gt;Node2 -->
<g id="edge1" class="edge">
<title>Node1&#45;&gt;Node2</title>
<path fill="none" stroke="midnightblue" d="M241.05,-200.53C224.62,-228.83 193.71,-275.43 155,-302.5 149.5,-306.34 143.38,-309.63 137.06,-312.42"/>
<polygon fill="midnightblue" stroke="midnightblue" points="244.18,-202.11 246.06,-191.68 238.09,-198.66 244.18,-202.11"/>
</g>
<!-- Node3 -->
<g id="node3" class="node">
<title>Node3</title>
<g id="a_node3"><a xlink:href="namespaceklyqa__ctl_1_1vc1__vapp.html#a64afe8e6060ae2ae29950f783e5072e7" target="_top" xlink:title=" ">
<polygon fill="white" stroke="black" points="3,-274 3,-293 152,-293 152,-274 3,-274"/>
<text text-anchor="middle" x="77.5" y="-281" font-family="Helvetica,sans-Serif" font-size="10.00">klyqa_ctl.vc1_vapp.set_ota</text>
</a>
</g>
</g>
<!-- Node1&#45;&gt;Node3 -->
<g id="edge2" class="edge">
<title>Node1&#45;&gt;Node3</title>
<path fill="none" stroke="midnightblue" d="M234.47,-199.22C215.98,-219.31 186.43,-247.94 155,-264.5 147.62,-268.39 139.41,-271.51 131.19,-274"/>
<polygon fill="midnightblue" stroke="midnightblue" points="237.14,-201.49 241.23,-191.72 231.94,-196.81 237.14,-201.49"/>
</g>
<!-- Node4 -->
<g id="node4" class="node">
<title>Node4</title>
<g id="a_node4"><a xlink:href="namespaceklyqa__ctl_1_1vc1__vapp.html#a04744bf3e8d20e132b14e401809a369c" target="_top" xlink:title=" ">
<polygon fill="white" stroke="black" points="0,-236 0,-255 155,-255 155,-236 0,-236"/>
<text text-anchor="middle" x="77.5" y="-243" font-family="Helvetica,sans-Serif" font-size="10.00">klyqa_ctl.vc1_vapp.set_ping</text>
</a>
</g>
</g>
<!-- Node1&#45;&gt;Node4 -->
<g id="edge3" class="edge">
<title>Node1&#45;&gt;Node4</title>
<path fill="none" stroke="midnightblue" d="M219.27,-196.45C200.67,-206.52 177.08,-218.3 155,-226.5 145.25,-230.12 134.55,-233.27 124.32,-235.9"/>
<polygon fill="midnightblue" stroke="midnightblue" points="221.17,-199.41 228.25,-191.52 217.8,-193.27 221.17,-199.41"/>
</g>
<!-- Node5 -->
<g id="node5" class="node">
<title>Node5</title>
<g id="a_node5"><a xlink:href="namespaceklyqa__ctl_1_1vc1__vapp.html#a9b0b73e30ee39c0874ac60c35af8a834" target="_top" xlink:title=" ">
<polygon fill="white" stroke="black" points="13.5,-186.5 13.5,-216.5 141.5,-216.5 141.5,-186.5 13.5,-186.5"/>
<text text-anchor="start" x="21.5" y="-204.5" font-family="Helvetica,sans-Serif" font-size="10.00">klyqa_ctl.vc1_vapp.set</text>
<text text-anchor="middle" x="77.5" y="-193.5" font-family="Helvetica,sans-Serif" font-size="10.00">_reboot</text>
</a>
</g>
</g>
<!-- Node1&#45;&gt;Node5 -->
<g id="edge4" class="edge">
<title>Node1&#45;&gt;Node5</title>
<path fill="none" stroke="midnightblue" d="M180.44,-186.98C167.59,-188.81 154.31,-190.7 141.77,-192.49"/>
<polygon fill="midnightblue" stroke="midnightblue" points="181.23,-190.4 190.64,-185.53 180.25,-183.47 181.23,-190.4"/>
</g>
<!-- Node6 -->
<g id="node6" class="node">
<title>Node6</title>
<g id="a_node6"><a xlink:href="namespaceklyqa__ctl_1_1vc1__vapp.html#ac6422283b3923894ff4d650288d2028e" target="_top" xlink:title=" ">
<polygon fill="white" stroke="black" points="13.5,-137.5 13.5,-167.5 141.5,-167.5 141.5,-137.5 13.5,-137.5"/>
<text text-anchor="start" x="21.5" y="-155.5" font-family="Helvetica,sans-Serif" font-size="10.00">klyqa_ctl.vc1_vapp.set</text>
<text text-anchor="middle" x="77.5" y="-144.5" font-family="Helvetica,sans-Serif" font-size="10.00">_reset</text>
</a>
</g>
</g>
<!-- Node1&#45;&gt;Node6 -->
<g id="edge5" class="edge">
<title>Node1&#45;&gt;Node6</title>
<path fill="none" stroke="midnightblue" d="M180.44,-166.44C167.59,-164.68 154.31,-162.87 141.77,-161.15"/>
<polygon fill="midnightblue" stroke="midnightblue" points="180.26,-169.95 190.64,-167.84 181.21,-163.01 180.26,-169.95"/>
</g>
<!-- Node7 -->
<g id="node7" class="node">
<title>Node7</title>
<g id="a_node7"><a xlink:href="namespaceklyqa__ctl_1_1vc1__vapp.html#a04ed7df3ebac24f4905fe799b8e5ca05" target="_top" xlink:title=" ">
<polygon fill="white" stroke="black" points="3,-99 3,-118 152,-118 152,-99 3,-99"/>
<text text-anchor="middle" x="77.5" y="-106" font-family="Helvetica,sans-Serif" font-size="10.00">klyqa_ctl.vc1_vapp.set_set</text>
</a>
</g>
</g>
<!-- Node1&#45;&gt;Node7 -->
<g id="edge6" class="edge">
<title>Node1&#45;&gt;Node7</title>
<path fill="none" stroke="midnightblue" d="M217.57,-156.71C199.18,-147.28 176.31,-136.36 155,-128.5 144.18,-124.51 132.23,-120.98 121.05,-118.05"/>
<polygon fill="midnightblue" stroke="midnightblue" points="215.99,-159.84 226.47,-161.35 219.22,-153.63 215.99,-159.84"/>
</g>
<!-- Node8 -->
<g id="node8" class="node">
<title>Node8</title>
<g id="a_node8"><a xlink:href="namespaceklyqa__ctl_1_1vc1__vapp.html#a228923aa3b661c10d836a9b8f74658ed" target="_top" xlink:title=" ">
<polygon fill="white" stroke="black" points="13.5,-49.5 13.5,-79.5 141.5,-79.5 141.5,-49.5 13.5,-49.5"/>
<text text-anchor="start" x="21.5" y="-67.5" font-family="Helvetica,sans-Serif" font-size="10.00">klyqa_ctl.vc1_vapp.set</text>
<text text-anchor="middle" x="77.5" y="-56.5" font-family="Helvetica,sans-Serif" font-size="10.00">_state_request</text>
</a>
</g>
</g>
<!-- Node1&#45;&gt;Node8 -->
<g id="edge7" class="edge">
<title>Node1&#45;&gt;Node8</title>
<path fill="none" stroke="midnightblue" d="M233.48,-153.9C214.73,-134.44 185.35,-106.82 155,-89.5 148.45,-85.76 141.25,-82.49 133.98,-79.65"/>
<polygon fill="midnightblue" stroke="midnightblue" points="230.96,-156.32 240.37,-161.18 236.04,-151.51 230.96,-156.32"/>
</g>
<!-- Node9 -->
<g id="node9" class="node">
<title>Node9</title>
<g id="a_node9"><a xlink:href="namespaceklyqa__ctl_1_1vc1__vapp.html#a8dc197c937cae6b5e717c350c178d013" target="_top" xlink:title=" ">
<polygon fill="white" stroke="black" points="13.5,-0.5 13.5,-30.5 141.5,-30.5 141.5,-0.5 13.5,-0.5"/>
<text text-anchor="start" x="21.5" y="-18.5" font-family="Helvetica,sans-Serif" font-size="10.00">klyqa_ctl.vc1_vapp.set</text>
<text text-anchor="middle" x="77.5" y="-7.5" font-family="Helvetica,sans-Serif" font-size="10.00">_thingsboard</text>
</a>
</g>
</g>
<!-- Node1&#45;&gt;Node9 -->
<g id="edge8" class="edge">
<title>Node1&#45;&gt;Node9</title>
<path fill="none" stroke="midnightblue" d="M242.48,-152.38C226.8,-122.02 195.92,-70.26 155,-40.5 149.69,-36.64 143.75,-33.35 137.59,-30.56"/>
<polygon fill="midnightblue" stroke="midnightblue" points="239.41,-154.07 247.03,-161.43 245.67,-150.93 239.41,-154.07"/>
</g>
</g>
</svg>
