<?xml version="1.0" encoding="UTF-8" standalone="no"?>
<!DOCTYPE svg PUBLIC "-//W3C//DTD SVG 1.1//EN"
 "http://www.w3.org/Graphics/SVG/1.1/DTD/svg11.dtd">
<!-- Generated by graphviz version 2.43.0 (0)
 -->
<!-- Title: klyqa_ctl.devices.light.commands.discover_devices Pages: 1 -->
<svg width="475pt" height="137pt"
 viewBox="0.00 0.00 475.00 137.00" xmlns="http://www.w3.org/2000/svg" xmlns:xlink="http://www.w3.org/1999/xlink">
<g id="graph0" class="graph" transform="scale(1 1) rotate(0) translate(4 133)">
<title>klyqa_ctl.devices.light.commands.discover_devices</title>
<polygon fill="white" stroke="transparent" points="-4,4 -4,-133 471,-133 471,4 -4,4"/>
<!-- Node1 -->
<g id="node1" class="node">
<title>Node1</title>
<g id="a_node1"><a xlink:title=" ">
<polygon fill="#bfbfbf" stroke="black" points="0,-49.5 0,-79.5 227,-79.5 227,-49.5 0,-49.5"/>
<text text-anchor="start" x="8" y="-67.5" font-family="Helvetica,sans-Serif" font-size="10.00">klyqa_ctl.devices.light.commands.discover</text>
<text text-anchor="middle" x="113.5" y="-56.5" font-family="Helvetica,sans-Serif" font-size="10.00">_devices</text>
</a>
</g>
</g>
<!-- Node2 -->
<g id="node2" class="node">
<title>Node2</title>
<g id="a_node2"><a xlink:href="namespaceklyqa__ctl_1_1devices_1_1light_1_1commands.html#a9a2f224816a4dab65a2d877cd38b657b" target="_top" xlink:title=" ">
<polygon fill="white" stroke="black" points="263,-98.5 263,-128.5 467,-128.5 467,-98.5 263,-98.5"/>
<text text-anchor="start" x="271" y="-116.5" font-family="Helvetica,sans-Serif" font-size="10.00">klyqa_ctl.devices.light.commands.add</text>
<text text-anchor="middle" x="365" y="-105.5" font-family="Helvetica,sans-Serif" font-size="10.00">_command_args_bulb</text>
</a>
</g>
</g>
<!-- Node1&#45;&gt;Node2 -->
<g id="edge1" class="edge">
<title>Node1&#45;&gt;Node2</title>
<path fill="none" stroke="midnightblue" d="M191.05,-79.53C218.48,-84.92 249.57,-91.03 277.75,-96.56"/>
<polygon fill="midnightblue" stroke="midnightblue" points="277.1,-100 287.59,-98.49 278.45,-93.13 277.1,-100"/>
</g>
<!-- Node3 -->
<g id="node3" class="node">
<title>Node3</title>
<g id="a_node3"><a xlink:href="namespaceklyqa__ctl_1_1general_1_1parameters.html#a4d4508f84ab7a6044c74575f197f852b" target="_top" xlink:title=" ">
<polygon fill="white" stroke="black" points="274.5,-49.5 274.5,-79.5 455.5,-79.5 455.5,-49.5 274.5,-49.5"/>
<text text-anchor="start" x="282.5" y="-67.5" font-family="Helvetica,sans-Serif" font-size="10.00">klyqa_ctl.general.parameters.add</text>
<text text-anchor="middle" x="365" y="-56.5" font-family="Helvetica,sans-Serif" font-size="10.00">_config_args</text>
</a>
</g>
</g>
<!-- Node1&#45;&gt;Node3 -->
<g id="edge2" class="edge">
<title>Node1&#45;&gt;Node3</title>
<path fill="none" stroke="midnightblue" d="M227.21,-64.5C239.51,-64.5 251.98,-64.5 264.12,-64.5"/>
<polygon fill="midnightblue" stroke="midnightblue" points="264.23,-68 274.23,-64.5 264.23,-61 264.23,-68"/>
</g>
<!-- Node4 -->
<g id="node4" class="node">
<title>Node4</title>
<g id="a_node4"><a xlink:href="namespaceklyqa__ctl_1_1general_1_1parameters.html#a38b90c6125a60eeabd89d4addab053b4" target="_top" xlink:title=" ">
<polygon fill="white" stroke="black" points="275.5,-0.5 275.5,-30.5 454.5,-30.5 454.5,-0.5 275.5,-0.5"/>
<text text-anchor="start" x="283.5" y="-18.5" font-family="Helvetica,sans-Serif" font-size="10.00">klyqa_ctl.general.parameters.get</text>
<text text-anchor="middle" x="365" y="-7.5" font-family="Helvetica,sans-Serif" font-size="10.00">_description_parser</text>
</a>
</g>
</g>
<!-- Node1&#45;&gt;Node4 -->
<g id="edge3" class="edge">
<title>Node1&#45;&gt;Node4</title>
<path fill="none" stroke="midnightblue" d="M191.05,-49.47C218.48,-44.08 249.57,-37.97 277.75,-32.44"/>
<polygon fill="midnightblue" stroke="midnightblue" points="278.45,-35.87 287.59,-30.51 277.1,-29 278.45,-35.87"/>
</g>
</g>
</svg>
