<?xml version="1.0" encoding="UTF-8" standalone="no"?>
<!DOCTYPE svg PUBLIC "-//W3C//DTD SVG 1.1//EN"
 "http://www.w3.org/Graphics/SVG/1.1/DTD/svg11.dtd">
<!-- Generated by graphviz version 2.43.0 (0)
 -->
<!-- Title: klyqa_ctl.general.parameters.add_config_args Pages: 1 -->
<svg width="654pt" height="145pt"
 viewBox="0.00 0.00 654.00 145.00" xmlns="http://www.w3.org/2000/svg" xmlns:xlink="http://www.w3.org/1999/xlink">
<g id="graph0" class="graph" transform="scale(1 1) rotate(0) translate(4 141)">
<title>klyqa_ctl.general.parameters.add_config_args</title>
<polygon fill="white" stroke="transparent" points="-4,4 -4,-141 650,-141 650,4 -4,4"/>
<!-- Node1 -->
<g id="node1" class="node">
<title>Node1</title>
<g id="a_node1"><a xlink:title=" ">
<polygon fill="#bfbfbf" stroke="black" points="465,-62.5 465,-92.5 646,-92.5 646,-62.5 465,-62.5"/>
<text text-anchor="start" x="473" y="-80.5" font-family="Helvetica,sans-Serif" font-size="10.00">klyqa_ctl.general.parameters.add</text>
<text text-anchor="middle" x="555.5" y="-69.5" font-family="Helvetica,sans-Serif" font-size="10.00">_config_args</text>
</a>
</g>
</g>
<!-- Node2 -->
<g id="node2" class="node">
<title>Node2</title>
<g id="a_node2"><a xlink:href="namespaceklyqa__ctl_1_1devices_1_1light_1_1commands.html#a09a73cff59e95502adefbee0333c3008" target="_top" xlink:title=" ">
<polygon fill="white" stroke="black" points="202,-106.5 202,-136.5 429,-136.5 429,-106.5 202,-106.5"/>
<text text-anchor="start" x="210" y="-124.5" font-family="Helvetica,sans-Serif" font-size="10.00">klyqa_ctl.devices.light.commands.discover</text>
<text text-anchor="middle" x="315.5" y="-113.5" font-family="Helvetica,sans-Serif" font-size="10.00">_devices</text>
</a>
</g>
</g>
<!-- Node1&#45;&gt;Node2 -->
<g id="edge1" class="edge">
<title>Node1&#45;&gt;Node2</title>
<path fill="none" stroke="midnightblue" d="M463.14,-94.39C441.62,-98.37 418.82,-102.58 397.78,-106.47"/>
<polygon fill="midnightblue" stroke="midnightblue" points="464.06,-97.78 473.26,-92.52 462.79,-90.9 464.06,-97.78"/>
</g>
<!-- Node3 -->
<g id="node3" class="node">
<title>Node3</title>
<g id="a_node3"><a xlink:href="namespaceklyqa__ctl_1_1klyqa__ctl.html#afe1b8490f9810b885e4048d7bef472a7" target="_top" xlink:title=" ">
<polygon fill="white" stroke="black" points="247.5,-68 247.5,-87 383.5,-87 383.5,-68 247.5,-68"/>
<text text-anchor="middle" x="315.5" y="-75" font-family="Helvetica,sans-Serif" font-size="10.00">klyqa_ctl.klyqa_ctl.main</text>
</a>
</g>
</g>
<!-- Node1&#45;&gt;Node3 -->
<g id="edge2" class="edge">
<title>Node1&#45;&gt;Node3</title>
<path fill="none" stroke="midnightblue" d="M454.69,-77.5C430.79,-77.5 405.82,-77.5 383.79,-77.5"/>
<polygon fill="midnightblue" stroke="midnightblue" points="454.86,-81 464.86,-77.5 454.86,-74 454.86,-81"/>
</g>
<!-- Node4 -->
<g id="node4" class="node">
<title>Node4</title>
<g id="a_node4"><a xlink:href="classklyqa__ctl_1_1klyqa__ctl_1_1Client.html#ad5c42cd8dd34ed1d6329040e164bfc2e" target="_top" xlink:title=" ">
<polygon fill="white" stroke="black" points="232.5,-0.5 232.5,-30.5 398.5,-30.5 398.5,-0.5 232.5,-0.5"/>
<text text-anchor="start" x="240.5" y="-18.5" font-family="Helvetica,sans-Serif" font-size="10.00">klyqa_ctl.klyqa_ctl.Client.send</text>
<text text-anchor="middle" x="315.5" y="-7.5" font-family="Helvetica,sans-Serif" font-size="10.00">_to_devices</text>
</a>
</g>
</g>
<!-- Node1&#45;&gt;Node4 -->
<g id="edge3" class="edge">
<title>Node1&#45;&gt;Node4</title>
<path fill="none" stroke="midnightblue" d="M487.08,-59.94C451.55,-50.68 408.41,-39.44 374.41,-30.59"/>
<polygon fill="midnightblue" stroke="midnightblue" points="486.33,-63.36 496.89,-62.49 488.09,-56.58 486.33,-63.36"/>
</g>
<!-- Node4&#45;&gt;Node4 -->
<g id="edge4" class="edge">
<title>Node4&#45;&gt;Node4</title>
<path fill="none" stroke="midnightblue" d="M357.1,-40.59C352.31,-45.51 338.44,-49 315.5,-49 278.8,-49 265.32,-40.06 275.07,-30.66"/>
<polygon fill="midnightblue" stroke="midnightblue" points="360.58,-40.18 355.93,-30.66 353.62,-41 360.58,-40.18"/>
</g>
<!-- Node5 -->
<g id="node5" class="node">
<title>Node5</title>
<g id="a_node5"><a xlink:href="classklyqa__ctl_1_1klyqa__ctl_1_1Client.html#a7a93bda9f242d678a4208d0962837f11" target="_top" xlink:title=" ">
<polygon fill="white" stroke="black" points="0,-0.5 0,-30.5 166,-30.5 166,-0.5 0,-0.5"/>
<text text-anchor="start" x="8" y="-18.5" font-family="Helvetica,sans-Serif" font-size="10.00">klyqa_ctl.klyqa_ctl.Client.send</text>
<text text-anchor="middle" x="83" y="-7.5" font-family="Helvetica,sans-Serif" font-size="10.00">_to_devices_wrapped</text>
</a>
</g>
</g>
<!-- Node4&#45;&gt;Node5 -->
<g id="edge5" class="edge">
<title>Node4&#45;&gt;Node5</title>
<path fill="none" stroke="midnightblue" d="M222.09,-15.5C203.61,-15.5 184.32,-15.5 166.21,-15.5"/>
<polygon fill="midnightblue" stroke="midnightblue" points="222.26,-19 232.26,-15.5 222.26,-12 222.26,-19"/>
</g>
</g>
</svg>
