<?xml version="1.0" encoding="UTF-8" standalone="no"?>
<!DOCTYPE svg PUBLIC "-//W3C//DTD SVG 1.1//EN"
 "http://www.w3.org/Graphics/SVG/1.1/DTD/svg11.dtd">
<!-- Generated by graphviz version 2.43.0 (0)
 -->
<!-- Title: klyqa_ctl.general.general.async_json_cache Pages: 1 -->
<svg width="639pt" height="372pt"
 viewBox="0.00 0.00 639.00 372.00" xmlns="http://www.w3.org/2000/svg" xmlns:xlink="http://www.w3.org/1999/xlink">
<g id="graph0" class="graph" transform="scale(1 1) rotate(0) translate(4 368)">
<title>klyqa_ctl.general.general.async_json_cache</title>
<polygon fill="white" stroke="transparent" points="-4,4 -4,-368 635,-368 635,4 -4,4"/>
<!-- Node1 -->
<g id="node1" class="node">
<title>Node1</title>
<g id="a_node1"><a xlink:title=" ">
<polygon fill="#bfbfbf" stroke="black" points="459,-169.5 459,-199.5 631,-199.5 631,-169.5 459,-169.5"/>
<text text-anchor="start" x="467" y="-187.5" font-family="Helvetica,sans-Serif" font-size="10.00">klyqa_ctl.general.general.async</text>
<text text-anchor="middle" x="545" y="-176.5" font-family="Helvetica,sans-Serif" font-size="10.00">_json_cache</text>
</a>
</g>
</g>
<!-- Node2 -->
<g id="node2" class="node">
<title>Node2</title>
<g id="a_node2"><a xlink:href="classcloud_1_1CloudBackend.html#a566850b368080b6ff85ee2675aa9b3e2" target="_top" xlink:title=" ">
<polygon fill="white" stroke="black" points="254.5,-333.5 254.5,-363.5 388.5,-363.5 388.5,-333.5 254.5,-333.5"/>
<text text-anchor="start" x="262.5" y="-351.5" font-family="Helvetica,sans-Serif" font-size="10.00">cloud.CloudBackend.get</text>
<text text-anchor="middle" x="321.5" y="-340.5" font-family="Helvetica,sans-Serif" font-size="10.00">_device_configs</text>
</a>
</g>
</g>
<!-- Node1&#45;&gt;Node2 -->
<g id="edge1" class="edge">
<title>Node1&#45;&gt;Node2</title>
<path fill="none" stroke="midnightblue" d="M529.98,-208.55C510.24,-240.18 471.22,-295.18 423,-324.5 412.58,-330.84 400.6,-335.5 388.63,-338.93"/>
<polygon fill="midnightblue" stroke="midnightblue" points="533.03,-210.27 535.25,-199.91 527.05,-206.62 533.03,-210.27"/>
</g>
<!-- Node3 -->
<g id="node3" class="node">
<title>Node3</title>
<g id="a_node3"><a xlink:href="classklyqa__ctl_1_1controller__data_1_1ControllerData.html#ac09ff4824e78b0347afa7af30a825e68" target="_top" xlink:title=" ">
<polygon fill="white" stroke="black" points="253,-284.5 253,-314.5 390,-314.5 390,-284.5 253,-284.5"/>
<text text-anchor="start" x="261" y="-302.5" font-family="Helvetica,sans-Serif" font-size="10.00">klyqa_ctl.controller</text>
<text text-anchor="middle" x="321.5" y="-291.5" font-family="Helvetica,sans-Serif" font-size="10.00">_data.ControllerData.init</text>
</a>
</g>
</g>
<!-- Node1&#45;&gt;Node3 -->
<g id="edge2" class="edge">
<title>Node1&#45;&gt;Node3</title>
<path fill="none" stroke="midnightblue" d="M520.66,-206.75C497.6,-227.52 460.45,-257.89 423,-275.5 412.69,-280.35 401.31,-284.27 390.03,-287.42"/>
<polygon fill="midnightblue" stroke="midnightblue" points="523.19,-209.17 528.2,-199.84 518.46,-204.01 523.19,-209.17"/>
</g>
<!-- Node4 -->
<g id="node4" class="node">
<title>Node4</title>
<g id="a_node4"><a xlink:href="classklyqa__ctl_1_1account__control_1_1AccountControl.html#afa68c76beee57c491239d9184cd32167" target="_top" xlink:title=" ">
<polygon fill="white" stroke="black" points="220,-235.5 220,-265.5 423,-265.5 423,-235.5 220,-235.5"/>
<text text-anchor="start" x="228" y="-253.5" font-family="Helvetica,sans-Serif" font-size="10.00">klyqa_ctl.account_control.</text>
<text text-anchor="middle" x="321.5" y="-242.5" font-family="Helvetica,sans-Serif" font-size="10.00">AccountControl.load_username_cache</text>
</a>
</g>
</g>
<!-- Node1&#45;&gt;Node4 -->
<g id="edge3" class="edge">
<title>Node1&#45;&gt;Node4</title>
<path fill="none" stroke="midnightblue" d="M492.72,-202.92C471.3,-210.35 446.07,-218.73 423,-225.5 411.18,-228.97 398.49,-232.37 386.24,-235.49"/>
<polygon fill="midnightblue" stroke="midnightblue" points="493.98,-206.19 502.27,-199.59 491.68,-199.58 493.98,-206.19"/>
</g>
<!-- Node5 -->
<g id="node5" class="node">
<title>Node5</title>
<g id="a_node5"><a xlink:href="classklyqa__ctl_1_1account_1_1Account.html#a0b171a600e4342d035ad26c39b384b38" target="_top" xlink:title=" ">
<polygon fill="white" stroke="black" points="236,-197 236,-216 407,-216 407,-197 236,-197"/>
<text text-anchor="middle" x="321.5" y="-204" font-family="Helvetica,sans-Serif" font-size="10.00">klyqa_ctl.account.Account.login</text>
</a>
</g>
</g>
<!-- Node1&#45;&gt;Node5 -->
<g id="edge4" class="edge">
<title>Node1&#45;&gt;Node5</title>
<path fill="none" stroke="midnightblue" d="M448.97,-193.94C435.11,-195.31 420.92,-196.72 407.28,-198.08"/>
<polygon fill="midnightblue" stroke="midnightblue" points="449.39,-197.41 459,-192.94 448.7,-190.45 449.39,-197.41"/>
</g>
<!-- Node6 -->
<g id="node6" class="node">
<title>Node6</title>
<g id="a_node6"><a xlink:href="classklyqa__ctl_1_1account__control_1_1AccountControl.html#abec04a28ae718f252e846b0c05645e65" target="_top" xlink:title=" ">
<polygon fill="white" stroke="black" points="245.5,-147.5 245.5,-177.5 397.5,-177.5 397.5,-147.5 245.5,-147.5"/>
<text text-anchor="start" x="253.5" y="-165.5" font-family="Helvetica,sans-Serif" font-size="10.00">klyqa_ctl.account_control.</text>
<text text-anchor="middle" x="321.5" y="-154.5" font-family="Helvetica,sans-Serif" font-size="10.00">AccountControl.login_cache</text>
</a>
</g>
</g>
<!-- Node1&#45;&gt;Node6 -->
<g id="edge5" class="edge">
<title>Node1&#45;&gt;Node6</title>
<path fill="none" stroke="midnightblue" d="M448.94,-175.06C431.75,-173.35 414.03,-171.59 397.51,-169.95"/>
<polygon fill="midnightblue" stroke="midnightblue" points="448.7,-178.55 459,-176.06 449.39,-171.59 448.7,-178.55"/>
</g>
<!-- Node7 -->
<g id="node7" class="node">
<title>Node7</title>
<g id="a_node7"><a xlink:href="classklyqa__ctl_1_1account_1_1Account.html#af365113f9fdd0cf5e66f6e9ab427df78" target="_top" xlink:title=" ">
<polygon fill="white" stroke="black" points="237,-98.5 237,-128.5 406,-128.5 406,-98.5 237,-98.5"/>
<text text-anchor="start" x="245" y="-116.5" font-family="Helvetica,sans-Serif" font-size="10.00">klyqa_ctl.account.Account.read</text>
<text text-anchor="middle" x="321.5" y="-105.5" font-family="Helvetica,sans-Serif" font-size="10.00">_acc_settings_cache</text>
</a>
</g>
</g>
<!-- Node1&#45;&gt;Node7 -->
<g id="edge6" class="edge">
<title>Node1&#45;&gt;Node7</title>
<path fill="none" stroke="midnightblue" d="M498.56,-165.75C476.05,-156.84 448.33,-146.44 423,-138.5 411.68,-134.95 399.51,-131.57 387.69,-128.51"/>
<polygon fill="midnightblue" stroke="midnightblue" points="497.28,-169.01 507.86,-169.46 499.87,-162.5 497.28,-169.01"/>
</g>
<!-- Node8 -->
<g id="node8" class="node">
<title>Node8</title>
<g id="a_node8"><a xlink:href="classklyqa__ctl_1_1account_1_1Account.html#acba85b49678b6d37567985738f7becf3" target="_top" xlink:title=" ">
<polygon fill="white" stroke="black" points="237,-49.5 237,-79.5 406,-79.5 406,-49.5 237,-49.5"/>
<text text-anchor="start" x="245" y="-67.5" font-family="Helvetica,sans-Serif" font-size="10.00">klyqa_ctl.account.Account.read</text>
<text text-anchor="middle" x="321.5" y="-56.5" font-family="Helvetica,sans-Serif" font-size="10.00">_username_cache</text>
</a>
</g>
</g>
<!-- Node1&#45;&gt;Node8 -->
<g id="edge7" class="edge">
<title>Node1&#45;&gt;Node8</title>
<path fill="none" stroke="midnightblue" d="M521.58,-162.04C498.69,-140.37 461.21,-108.18 423,-89.5 415.09,-85.63 406.52,-82.33 397.84,-79.51"/>
<polygon fill="midnightblue" stroke="midnightblue" points="519.41,-164.82 529.04,-169.23 524.27,-159.77 519.41,-164.82"/>
</g>
<!-- Node9 -->
<g id="node9" class="node">
<title>Node9</title>
<g id="a_node9"><a xlink:href="classklyqa__ctl_1_1account_1_1Account.html#af101070a97d556e95978748475933f72" target="_top" xlink:title=" ">
<polygon fill="white" stroke="black" points="231,-0.5 231,-30.5 412,-30.5 412,-0.5 231,-0.5"/>
<text text-anchor="start" x="239" y="-18.5" font-family="Helvetica,sans-Serif" font-size="10.00">klyqa_ctl.account.Account.update</text>
<text text-anchor="middle" x="321.5" y="-7.5" font-family="Helvetica,sans-Serif" font-size="10.00">_account_settings</text>
</a>
</g>
</g>
<!-- Node1&#45;&gt;Node9 -->
<g id="edge8" class="edge">
<title>Node1&#45;&gt;Node9</title>
<path fill="none" stroke="midnightblue" d="M530.41,-160.33C510.92,-127.95 471.92,-71.02 423,-40.5 416.75,-36.6 409.92,-33.3 402.86,-30.52"/>
<polygon fill="midnightblue" stroke="midnightblue" points="527.51,-162.31 535.6,-169.15 533.55,-158.76 527.51,-162.31"/>
</g>
<!-- Node10 -->
<g id="node10" class="node">
<title>Node10</title>
<g id="a_node10"><a xlink:href="classklyqa__ctl_1_1account_1_1Account.html#aeca1011f6c6e2f6bcdb2136ef48bc7fd" target="_top" xlink:title=" ">
<polygon fill="white" stroke="black" points="0,-0.5 0,-30.5 184,-30.5 184,-0.5 0,-0.5"/>
<text text-anchor="start" x="8" y="-18.5" font-family="Helvetica,sans-Serif" font-size="10.00">klyqa_ctl.account.Account.request</text>
<text text-anchor="middle" x="92" y="-7.5" font-family="Helvetica,sans-Serif" font-size="10.00">_account_settings_eco</text>
</a>
</g>
</g>
<!-- Node9&#45;&gt;Node10 -->
<g id="edge9" class="edge">
<title>Node9&#45;&gt;Node10</title>
<path fill="none" stroke="midnightblue" d="M220.8,-15.5C208.69,-15.5 196.36,-15.5 184.37,-15.5"/>
<polygon fill="midnightblue" stroke="midnightblue" points="220.91,-19 230.91,-15.5 220.91,-12 220.91,-19"/>
</g>
</g>
</svg>
