<?xml version="1.0" encoding="UTF-8" standalone="no"?>
<!DOCTYPE svg PUBLIC "-//W3C//DTD SVG 1.1//EN"
 "http://www.w3.org/Graphics/SVG/1.1/DTD/svg11.dtd">
<!-- Generated by graphviz version 2.43.0 (0)
 -->
<!-- Title: klyqa_ctl.devices.vacuum.commands.create_device_message Pages: 1 -->
<svg width="516pt" height="176pt"
 viewBox="0.00 0.00 516.00 176.00" xmlns="http://www.w3.org/2000/svg" xmlns:xlink="http://www.w3.org/1999/xlink">
<g id="graph0" class="graph" transform="scale(1 1) rotate(0) translate(4 172)">
<title>klyqa_ctl.devices.vacuum.commands.create_device_message</title>
<polygon fill="white" stroke="transparent" points="-4,4 -4,-172 512,-172 512,4 -4,4"/>
<!-- Node1 -->
<g id="node1" class="node">
<title>Node1</title>
<g id="a_node1"><a xlink:title=" ">
<polygon fill="#bfbfbf" stroke="black" points="0,-66.5 0,-96.5 234,-96.5 234,-66.5 0,-66.5"/>
<text text-anchor="start" x="8" y="-84.5" font-family="Helvetica,sans-Serif" font-size="10.00">klyqa_ctl.devices.vacuum.commands.create</text>
<text text-anchor="middle" x="117" y="-73.5" font-family="Helvetica,sans-Serif" font-size="10.00">_device_message</text>
</a>
</g>
</g>
<!-- Node2 -->
<g id="node2" class="node">
<title>Node2</title>
<g id="a_node2"><a xlink:href="namespaceklyqa__ctl_1_1devices_1_1vacuum_1_1commands.html#a99f69e0d3e804e35aad5bd4ca32d6dbc" target="_top" xlink:title=" ">
<polygon fill="white" stroke="black" points="279.5,-137.5 279.5,-167.5 498.5,-167.5 498.5,-137.5 279.5,-137.5"/>
<text text-anchor="start" x="287.5" y="-155.5" font-family="Helvetica,sans-Serif" font-size="10.00">klyqa_ctl.devices.vacuum.commands.get</text>
<text text-anchor="middle" x="389" y="-144.5" font-family="Helvetica,sans-Serif" font-size="10.00">_command</text>
</a>
</g>
</g>
<!-- Node1&#45;&gt;Node2 -->
<g id="edge1" class="edge">
<title>Node1&#45;&gt;Node2</title>
<path fill="none" stroke="midnightblue" d="M162.56,-96.56C192.68,-106.42 233.47,-119.16 270,-128.5 279.17,-130.84 288.79,-133.11 298.41,-135.25"/>
<polygon fill="midnightblue" stroke="midnightblue" points="297.9,-138.72 308.41,-137.44 299.39,-131.88 297.9,-138.72"/>
</g>
<!-- Node3 -->
<g id="node3" class="node">
<title>Node3</title>
<g id="a_node3"><a xlink:href="namespaceklyqa__ctl_1_1devices_1_1vacuum_1_1commands.html#a74272728025b52147d143a61b2fcc7dc" target="_top" xlink:title=" ">
<polygon fill="white" stroke="black" points="275,-88.5 275,-118.5 503,-118.5 503,-88.5 275,-88.5"/>
<text text-anchor="start" x="283" y="-106.5" font-family="Helvetica,sans-Serif" font-size="10.00">klyqa_ctl.devices.vacuum.commands.reset</text>
<text text-anchor="middle" x="389" y="-95.5" font-family="Helvetica,sans-Serif" font-size="10.00">_command</text>
</a>
</g>
</g>
<!-- Node1&#45;&gt;Node3 -->
<g id="edge2" class="edge">
<title>Node1&#45;&gt;Node3</title>
<path fill="none" stroke="midnightblue" d="M234.07,-90.96C244.15,-91.78 254.37,-92.61 264.5,-93.44"/>
<polygon fill="midnightblue" stroke="midnightblue" points="264.34,-96.94 274.6,-94.26 264.91,-89.96 264.34,-96.94"/>
</g>
<!-- Node4 -->
<g id="node4" class="node">
<title>Node4</title>
<g id="a_node4"><a xlink:href="namespaceklyqa__ctl_1_1devices_1_1vacuum_1_1commands.html#a1f05c06ff82538b4c287966541aa8cbc" target="_top" xlink:title=" ">
<polygon fill="white" stroke="black" points="270,-50 270,-69 508,-69 508,-50 270,-50"/>
<text text-anchor="middle" x="389" y="-57" font-family="Helvetica,sans-Serif" font-size="10.00">klyqa_ctl.devices.vacuum.commands.routine</text>
</a>
</g>
</g>
<!-- Node1&#45;&gt;Node4 -->
<g id="edge3" class="edge">
<title>Node1&#45;&gt;Node4</title>
<path fill="none" stroke="midnightblue" d="M234.07,-72.04C243,-71.31 252.05,-70.58 261.04,-69.84"/>
<polygon fill="midnightblue" stroke="midnightblue" points="261.49,-73.32 271.17,-69.02 260.92,-66.34 261.49,-73.32"/>
</g>
<!-- Node5 -->
<g id="node5" class="node">
<title>Node5</title>
<g id="a_node5"><a xlink:href="namespaceklyqa__ctl_1_1devices_1_1vacuum_1_1commands.html#a2a270417950dd1a725bfbdf08c8815d6" target="_top" xlink:title=" ">
<polygon fill="white" stroke="black" points="280,-0.5 280,-30.5 498,-30.5 498,-0.5 280,-0.5"/>
<text text-anchor="start" x="288" y="-18.5" font-family="Helvetica,sans-Serif" font-size="10.00">klyqa_ctl.devices.vacuum.commands.set</text>
<text text-anchor="middle" x="389" y="-7.5" font-family="Helvetica,sans-Serif" font-size="10.00">_command</text>
</a>
</g>
</g>
<!-- Node1&#45;&gt;Node5 -->
<g id="edge4" class="edge">
<title>Node1&#45;&gt;Node5</title>
<path fill="none" stroke="midnightblue" d="M170.93,-66.46C200.06,-58.38 236.92,-48.46 270,-40.5 280.94,-37.87 292.49,-35.24 303.92,-32.73"/>
<polygon fill="midnightblue" stroke="midnightblue" points="304.87,-36.1 313.9,-30.55 303.38,-29.26 304.87,-36.1"/>
</g>
</g>
</svg>
