<?xml version="1.0" encoding="UTF-8" standalone="no"?>
<!DOCTYPE svg PUBLIC "-//W3C//DTD SVG 1.1//EN"
 "http://www.w3.org/Graphics/SVG/1.1/DTD/svg11.dtd">
<!-- Generated by graphviz version 2.43.0 (0)
 -->
<!-- Title: klyqa_ctl.general.general.get_obj_attr_values_as_string Pages: 1 -->
<svg width="394pt" height="88pt"
 viewBox="0.00 0.00 394.00 88.00" xmlns="http://www.w3.org/2000/svg" xmlns:xlink="http://www.w3.org/1999/xlink">
<g id="graph0" class="graph" transform="scale(1 1) rotate(0) translate(4 84)">
<title>klyqa_ctl.general.general.get_obj_attr_values_as_string</title>
<polygon fill="white" stroke="transparent" points="-4,4 -4,-84 390,-84 390,4 -4,4"/>
<!-- Node1 -->
<g id="node1" class="node">
<title>Node1</title>
<g id="a_node1"><a xlink:title=" ">
<polygon fill="#bfbfbf" stroke="black" points="227,-24.5 227,-54.5 386,-54.5 386,-24.5 227,-24.5"/>
<text text-anchor="start" x="235" y="-42.5" font-family="Helvetica,sans-Serif" font-size="10.00">klyqa_ctl.general.general.get</text>
<text text-anchor="middle" x="306.5" y="-31.5" font-family="Helvetica,sans-Serif" font-size="10.00">_obj_attr_values_as_string</text>
</a>
</g>
</g>
<!-- Node2 -->
<g id="node2" class="node">
<title>Node2</title>
<g id="a_node2"><a xlink:href="classklyqa__ctl_1_1devices_1_1light_1_1response__status_1_1ResponseStatus.html#a6a0514d93c06be2198153da647cc04ac" target="_top" xlink:title=" ">
<polygon fill="white" stroke="black" points="9,-49.5 9,-79.5 182,-79.5 182,-49.5 9,-49.5"/>
<text text-anchor="start" x="17" y="-67.5" font-family="Helvetica,sans-Serif" font-size="10.00">klyqa_ctl.devices.light.response</text>
<text text-anchor="middle" x="95.5" y="-56.5" font-family="Helvetica,sans-Serif" font-size="10.00">_status.ResponseStatus.__str__</text>
</a>
</g>
</g>
<!-- Node1&#45;&gt;Node2 -->
<g id="edge1" class="edge">
<title>Node1&#45;&gt;Node2</title>
<path fill="none" stroke="midnightblue" d="M216.78,-50.11C205.3,-51.49 193.56,-52.89 182.14,-54.26"/>
<polygon fill="midnightblue" stroke="midnightblue" points="217.27,-53.58 226.78,-48.92 216.44,-46.63 217.27,-53.58"/>
</g>
<!-- Node3 -->
<g id="node3" class="node">
<title>Node3</title>
<g id="a_node3"><a xlink:href="classklyqa__ctl_1_1devices_1_1vacuum_1_1response__status_1_1ResponseStatus.html#a75a56e16c9405a8f1473a162620f9d91" target="_top" xlink:title=" ">
<polygon fill="white" stroke="black" points="0,-0.5 0,-30.5 191,-30.5 191,-0.5 0,-0.5"/>
<text text-anchor="start" x="8" y="-18.5" font-family="Helvetica,sans-Serif" font-size="10.00">klyqa_ctl.devices.vacuum.response</text>
<text text-anchor="middle" x="95.5" y="-7.5" font-family="Helvetica,sans-Serif" font-size="10.00">_status.ResponseStatus.__str__</text>
</a>
</g>
</g>
<!-- Node1&#45;&gt;Node3 -->
<g id="edge2" class="edge">
<title>Node1&#45;&gt;Node3</title>
<path fill="none" stroke="midnightblue" d="M216.65,-29.3C208.28,-28.34 199.76,-27.36 191.34,-26.39"/>
<polygon fill="midnightblue" stroke="midnightblue" points="216.45,-32.8 226.78,-30.46 217.25,-25.84 216.45,-32.8"/>
</g>
</g>
</svg>
