<?xml version="1.0" encoding="UTF-8" standalone="no"?>
<!DOCTYPE svg PUBLIC "-//W3C//DTD SVG 1.1//EN"
 "http://www.w3.org/Graphics/SVG/1.1/DTD/svg11.dtd">
<!-- Generated by graphviz version 2.43.0 (0)
 -->
<!-- Title: klyqa_ctl.devices.light.commands.add_command_args_bulb Pages: 1 -->
<svg width="475pt" height="78pt"
 viewBox="0.00 0.00 475.00 77.50" xmlns="http://www.w3.org/2000/svg" xmlns:xlink="http://www.w3.org/1999/xlink">
<g id="graph0" class="graph" transform="scale(1 1) rotate(0) translate(4 73.5)">
<title>klyqa_ctl.devices.light.commands.add_command_args_bulb</title>
<polygon fill="white" stroke="transparent" points="-4,4 -4,-73.5 471,-73.5 471,4 -4,4"/>
<!-- Node1 -->
<g id="node1" class="node">
<title>Node1</title>
<g id="a_node1"><a xlink:title=" ">
<polygon fill="#bfbfbf" stroke="black" points="263,-17 263,-47 467,-47 467,-17 263,-17"/>
<text text-anchor="start" x="271" y="-35" font-family="Helvetica,sans-Serif" font-size="10.00">klyqa_ctl.devices.light.commands.add</text>
<text text-anchor="middle" x="365" y="-24" font-family="Helvetica,sans-Serif" font-size="10.00">_command_args_bulb</text>
</a>
</g>
</g>
<!-- Node2 -->
<g id="node2" class="node">
<title>Node2</title>
<g id="a_node2"><a xlink:href="namespaceklyqa__ctl_1_1devices_1_1light_1_1commands.html#a09a73cff59e95502adefbee0333c3008" target="_top" xlink:title=" ">
<polygon fill="white" stroke="black" points="0,-39 0,-69 227,-69 227,-39 0,-39"/>
<text text-anchor="start" x="8" y="-57" font-family="Helvetica,sans-Serif" font-size="10.00">klyqa_ctl.devices.light.commands.discover</text>
<text text-anchor="middle" x="113.5" y="-46" font-family="Helvetica,sans-Serif" font-size="10.00">_devices</text>
</a>
</g>
</g>
<!-- Node1&#45;&gt;Node2 -->
<g id="edge1" class="edge">
<title>Node1&#45;&gt;Node2</title>
<path fill="none" stroke="midnightblue" d="M252.9,-41.8C244.36,-42.55 235.74,-43.31 227.19,-44.06"/>
<polygon fill="midnightblue" stroke="midnightblue" points="253.22,-45.28 262.88,-40.92 252.61,-38.31 253.22,-45.28"/>
</g>
<!-- Node3 -->
<g id="node3" class="node">
<title>Node3</title>
<g id="a_node3"><a xlink:href="namespaceklyqa__ctl_1_1klyqa__ctl.html#afe1b8490f9810b885e4048d7bef472a7" target="_top" xlink:title=" ">
<polygon fill="white" stroke="black" points="45.5,-0.5 45.5,-19.5 181.5,-19.5 181.5,-0.5 45.5,-0.5"/>
<text text-anchor="middle" x="113.5" y="-7.5" font-family="Helvetica,sans-Serif" font-size="10.00">klyqa_ctl.klyqa_ctl.main</text>
</a>
</g>
</g>
<!-- Node1&#45;&gt;Node3 -->
<g id="edge2" class="edge">
<title>Node1&#45;&gt;Node3</title>
<path fill="none" stroke="midnightblue" d="M252.91,-22.2C228.66,-20.07 203.72,-17.87 181.81,-15.93"/>
<polygon fill="midnightblue" stroke="midnightblue" points="252.61,-25.69 262.88,-23.08 253.22,-18.72 252.61,-25.69"/>
</g>
</g>
</svg>
