<?xml version="1.0" encoding="UTF-8" standalone="no"?>
<!DOCTYPE svg PUBLIC "-//W3C//DTD SVG 1.1//EN"
 "http://www.w3.org/Graphics/SVG/1.1/DTD/svg11.dtd">
<!-- Generated by graphviz version 2.43.0 (0)
 -->
<!-- Title: klyqa_ctl.devices.light.commands.add_device_command_to_queue Pages: 1 -->
<svg width="488pt" height="225pt"
 viewBox="0.00 0.00 488.00 225.00" xmlns="http://www.w3.org/2000/svg" xmlns:xlink="http://www.w3.org/1999/xlink">
<g id="graph0" class="graph" transform="scale(1 1) rotate(0) translate(4 221)">
<title>klyqa_ctl.devices.light.commands.add_device_command_to_queue</title>
<polygon fill="white" stroke="transparent" points="-4,4 -4,-221 484,-221 484,4 -4,4"/>
<!-- Node1 -->
<g id="node1" class="node">
<title>Node1</title>
<g id="a_node1"><a xlink:title=" ">
<polygon fill="#bfbfbf" stroke="black" points="0,-88.5 0,-118.5 204,-118.5 204,-88.5 0,-88.5"/>
<text text-anchor="start" x="8" y="-106.5" font-family="Helvetica,sans-Serif" font-size="10.00">klyqa_ctl.devices.light.commands.add</text>
<text text-anchor="middle" x="102" y="-95.5" font-family="Helvetica,sans-Serif" font-size="10.00">_device_command_to_queue</text>
</a>
</g>
</g>
<!-- Node2 -->
<g id="node2" class="node">
<title>Node2</title>
<g id="a_node2"><a xlink:href="namespaceklyqa__ctl_1_1devices_1_1light_1_1commands.html#a277af033cb7643026a8d6c40c31dadc7" target="_top" xlink:title=" ">
<polygon fill="white" stroke="black" points="242.5,-186.5 242.5,-216.5 477.5,-216.5 477.5,-186.5 242.5,-186.5"/>
<text text-anchor="start" x="250.5" y="-204.5" font-family="Helvetica,sans-Serif" font-size="10.00">klyqa_ctl.devices.light.commands.command</text>
<text text-anchor="middle" x="360" y="-193.5" font-family="Helvetica,sans-Serif" font-size="10.00">_brightness</text>
</a>
</g>
</g>
<!-- Node1&#45;&gt;Node2 -->
<g id="edge1" class="edge">
<title>Node1&#45;&gt;Node2</title>
<path fill="none" stroke="midnightblue" d="M125.77,-118.54C152.18,-135.33 197.55,-162.14 240,-177.5 246.32,-179.79 252.92,-181.88 259.63,-183.79"/>
<polygon fill="midnightblue" stroke="midnightblue" points="258.94,-187.23 269.5,-186.45 260.76,-180.47 258.94,-187.23"/>
</g>
<!-- Node3 -->
<g id="node3" class="node">
<title>Node3</title>
<g id="a_node3"><a xlink:href="namespaceklyqa__ctl_1_1devices_1_1light_1_1commands.html#aad49b95001375441b25d985c2b0f076b" target="_top" xlink:title=" ">
<polygon fill="white" stroke="black" points="242.5,-137.5 242.5,-167.5 477.5,-167.5 477.5,-137.5 242.5,-137.5"/>
<text text-anchor="start" x="250.5" y="-155.5" font-family="Helvetica,sans-Serif" font-size="10.00">klyqa_ctl.devices.light.commands.command</text>
<text text-anchor="middle" x="360" y="-144.5" font-family="Helvetica,sans-Serif" font-size="10.00">_color</text>
</a>
</g>
</g>
<!-- Node1&#45;&gt;Node3 -->
<g id="edge2" class="edge">
<title>Node1&#45;&gt;Node3</title>
<path fill="none" stroke="midnightblue" d="M181.55,-118.53C209.68,-123.92 241.59,-130.03 270.51,-135.56"/>
<polygon fill="midnightblue" stroke="midnightblue" points="270.12,-139.05 280.6,-137.49 271.44,-132.18 270.12,-139.05"/>
</g>
<!-- Node4 -->
<g id="node4" class="node">
<title>Node4</title>
<g id="a_node4"><a xlink:href="namespaceklyqa__ctl_1_1devices_1_1light_1_1commands.html#af1bb9573cf151a581c7ee6e02612d7b8" target="_top" xlink:title=" ">
<polygon fill="white" stroke="black" points="240,-88.5 240,-118.5 480,-118.5 480,-88.5 240,-88.5"/>
<text text-anchor="start" x="248" y="-106.5" font-family="Helvetica,sans-Serif" font-size="10.00">klyqa_ctl.devices.light.commands.commands</text>
<text text-anchor="middle" x="360" y="-95.5" font-family="Helvetica,sans-Serif" font-size="10.00">_select</text>
</a>
</g>
</g>
<!-- Node1&#45;&gt;Node4 -->
<g id="edge3" class="edge">
<title>Node1&#45;&gt;Node4</title>
<path fill="none" stroke="midnightblue" d="M204.18,-103.5C212.62,-103.5 221.22,-103.5 229.82,-103.5"/>
<polygon fill="midnightblue" stroke="midnightblue" points="229.92,-107 239.92,-103.5 229.92,-100 229.92,-107"/>
</g>
<!-- Node5 -->
<g id="node5" class="node">
<title>Node5</title>
<g id="a_node5"><a xlink:href="namespaceklyqa__ctl_1_1devices_1_1light_1_1commands.html#a0040ed2bfdedb53610f55b08161f363e" target="_top" xlink:title=" ">
<polygon fill="white" stroke="black" points="243,-50 243,-69 477,-69 477,-50 243,-50"/>
<text text-anchor="middle" x="360" y="-57" font-family="Helvetica,sans-Serif" font-size="10.00">klyqa_ctl.devices.light.commands.enable_tb</text>
</a>
</g>
</g>
<!-- Node1&#45;&gt;Node5 -->
<g id="edge4" class="edge">
<title>Node1&#45;&gt;Node5</title>
<path fill="none" stroke="midnightblue" d="M188.12,-88.49C205.29,-85.49 223.22,-82.38 240,-79.5 256.67,-76.64 274.66,-73.59 291.49,-70.76"/>
<polygon fill="midnightblue" stroke="midnightblue" points="292.51,-74.14 301.79,-69.03 291.35,-67.24 292.51,-74.14"/>
</g>
<!-- Node6 -->
<g id="node6" class="node">
<title>Node6</title>
<g id="a_node6"><a xlink:href="namespaceklyqa__ctl_1_1devices_1_1light_1_1commands.html#aedc0439a3e96ab685cdad76257a1d85a" target="_top" xlink:title=" ">
<polygon fill="white" stroke="black" points="249.5,-0.5 249.5,-30.5 470.5,-30.5 470.5,-0.5 249.5,-0.5"/>
<text text-anchor="start" x="257.5" y="-18.5" font-family="Helvetica,sans-Serif" font-size="10.00">klyqa_ctl.devices.light.commands.routine</text>
<text text-anchor="middle" x="360" y="-7.5" font-family="Helvetica,sans-Serif" font-size="10.00">_scene</text>
</a>
</g>
</g>
<!-- Node1&#45;&gt;Node6 -->
<g id="edge5" class="edge">
<title>Node1&#45;&gt;Node6</title>
<path fill="none" stroke="midnightblue" d="M130.85,-88.44C158.02,-74.3 200.85,-53.43 240,-40.5 248.23,-37.78 256.88,-35.29 265.6,-33.03"/>
<polygon fill="midnightblue" stroke="midnightblue" points="266.61,-36.38 275.47,-30.57 264.92,-29.59 266.61,-36.38"/>
</g>
</g>
</svg>
