<?xml version="1.0" encoding="UTF-8" standalone="no"?>
<!DOCTYPE svg PUBLIC "-//W3C//DTD SVG 1.1//EN"
 "http://www.w3.org/Graphics/SVG/1.1/DTD/svg11.dtd">
<!-- Generated by graphviz version 2.43.0 (0)
 -->
<!-- Title: klyqa_ctl.general.general.task_log_trace Pages: 1 -->
<!--zoomable 916 -->
<svg id="main" version="1.1" xmlns="http://www.w3.org/2000/svg" xmlns:xlink="http://www.w3.org/1999/xlink" xml:space="preserve" onload="init(evt)">
<style type="text/css"><![CDATA[
.edge:hover path { stroke: red; }
.edge:hover polygon { stroke: red; fill: red; }
]]></style>
<script type="text/javascript"><![CDATA[
var edges = document.getElementsByTagName('g');
if (edges && edges.length) {
  for (var i=0;i<edges.length;i++) {
    if (edges[i].id.substr(0,4)=='edge') {
      edges[i].setAttribute('class','edge');
    }
  }
}
]]></script>
        <defs>
                <circle id="rim" cx="0" cy="0" r="7"/>
                <circle id="rim2" cx="0" cy="0" r="3.5"/>
                <g id="zoomPlus">
                        <use xlink:href="#rim" fill="#404040">
                                <set attributeName="fill" to="#808080" begin="zoomplus.mouseover" end="zoomplus.mouseout"/>
                        </use>
                        <path d="M-4,0h8M0,-4v8" fill="none" stroke="white" stroke-width="1.5" pointer-events="none"/>
                </g>
                <g id="zoomMin">
                        <use xlink:href="#rim" fill="#404040">
                                <set attributeName="fill" to="#808080" begin="zoomminus.mouseover" end="zoomminus.mouseout"/>
                        </use>
                        <path d="M-4,0h8" fill="none" stroke="white" stroke-width="1.5" pointer-events="none"/>
                </g>
                <g id="dirArrow">
                        <path fill="none" stroke="white" stroke-width="1.5" d="M0,-3.0v7 M-2.5,-0.5L0,-3.0L2.5,-0.5"/>
                </g>
               <g id="resetDef">
                       <use xlink:href="#rim2" fill="#404040">
                               <set attributeName="fill" to="#808080" begin="reset.mouseover" end="reset.mouseout"/>
                       </use>
               </g>
        </defs>

<script type="text/javascript">
var viewWidth = 1260;
var viewHeight = 916;
var sectionId = 'dynsection-16';
</script>
<script xlink:href="svgpan.js"/>
<svg id="graph" class="graph">
<g id="viewport">
<title>klyqa_ctl.general.general.task_log_trace</title>
<polygon fill="white" stroke="transparent" points="-4,4 -4,-911.67 1256,-911.67 1256,4 -4,4"/>
<!-- Node1 -->
<g id="node1" class="node">
<title>Node1</title>
<g id="a_node1"><a xlink:title=" ">
<polygon fill="#bfbfbf" stroke="black" points="1088,-277.67 1088,-307.67 1252,-307.67 1252,-277.67 1088,-277.67"/>
<text text-anchor="start" x="1096" y="-295.67" font-family="Helvetica,sans-Serif" font-size="10.00">klyqa_ctl.general.general.task</text>
<text text-anchor="middle" x="1170" y="-284.67" font-family="Helvetica,sans-Serif" font-size="10.00">_log_trace</text>
</a>
</g>
</g>
<!-- Node2 -->
<g id="node2" class="node">
<title>Node2</title>
<g id="a_node2"><a xlink:href="namespaceklyqa__ctl_1_1general_1_1general.html#aa34dc716ff5492dc4f325a2ae1a73a4f" target="_top" xlink:title=" ">
<polygon fill="white" stroke="black" points="880,-715.67 880,-745.67 1052,-745.67 1052,-715.67 880,-715.67"/>
<text text-anchor="start" x="888" y="-733.67" font-family="Helvetica,sans-Serif" font-size="10.00">klyqa_ctl.general.general.async</text>
<text text-anchor="middle" x="966" y="-722.67" font-family="Helvetica,sans-Serif" font-size="10.00">_json_cache</text>
</a>
</g>
</g>
<!-- Node1&#45;&gt;Node2 -->
<g id="edge1" class="edge">
<title>Node1&#45;&gt;Node2</title>
<path fill="none" stroke="midnightblue" d="M1157.76,-317.05C1120.79,-397.2 1003.67,-651.15 973.92,-715.65"/>
<polygon fill="midnightblue" stroke="midnightblue" points="1161.04,-318.29 1162.05,-307.74 1154.68,-315.36 1161.04,-318.29"/>
</g>
<!-- Node11 -->
<g id="node11" class="node">
<title>Node11</title>
<g id="a_node11"><a xlink:href="classlocal_1_1connection__handler_1_1LocalConnectionHandler.html#aae9d106df606f3c68a146e0af7f60bba" target="_top" xlink:title=" ">
<polygon fill="white" stroke="black" points="219.5,-38.17 219.5,-79.17 380.5,-79.17 380.5,-38.17 219.5,-38.17"/>
<text text-anchor="start" x="227.5" y="-67.17" font-family="Helvetica,sans-Serif" font-size="10.00">local.connection_handler.</text>
<text text-anchor="start" x="227.5" y="-56.17" font-family="Helvetica,sans-Serif" font-size="10.00">LocalConnectionHandler.send</text>
<text text-anchor="middle" x="300" y="-45.17" font-family="Helvetica,sans-Serif" font-size="10.00">_message</text>
</a>
</g>
</g>
<!-- Node1&#45;&gt;Node11 -->
<g id="edge10" class="edge">
<title>Node1&#45;&gt;Node11</title>
<path fill="none" stroke="midnightblue" d="M1150.61,-269.56C1105.46,-214.94 982.67,-78.75 844,-29.67 682.7,27.42 477.61,-10.86 371.59,-38.09"/>
<polygon fill="midnightblue" stroke="midnightblue" points="1148.14,-272.07 1157.18,-277.6 1153.56,-267.65 1148.14,-272.07"/>
</g>
<!-- Node13 -->
<g id="node13" class="node">
<title>Node13</title>
<g id="a_node13"><a xlink:href="namespaceklyqa__ctl_1_1general_1_1general.html#ad6b753e482e539892c57f8144cf213cb" target="_top" xlink:title=" ">
<polygon fill="white" stroke="black" points="884,-277.67 884,-307.67 1048,-307.67 1048,-277.67 884,-277.67"/>
<text text-anchor="start" x="892" y="-295.67" font-family="Helvetica,sans-Serif" font-size="10.00">klyqa_ctl.general.general.task</text>
<text text-anchor="middle" x="966" y="-284.67" font-family="Helvetica,sans-Serif" font-size="10.00">_log_trace_ex</text>
</a>
</g>
</g>
<!-- Node1&#45;&gt;Node13 -->
<g id="edge12" class="edge">
<title>Node1&#45;&gt;Node13</title>
<path fill="none" stroke="midnightblue" d="M1077.55,-292.67C1067.73,-292.67 1057.8,-292.67 1048.12,-292.67"/>
<polygon fill="midnightblue" stroke="midnightblue" points="1077.71,-296.17 1087.71,-292.67 1077.71,-289.17 1077.71,-296.17"/>
</g>
<!-- Node3 -->
<g id="node3" class="node">
<title>Node3</title>
<g id="a_node3"><a xlink:href="classcloud_1_1CloudBackend.html#a566850b368080b6ff85ee2675aa9b3e2" target="_top" xlink:title=" ">
<polygon fill="white" stroke="black" points="233,-590.67 233,-620.67 367,-620.67 367,-590.67 233,-590.67"/>
<text text-anchor="start" x="241" y="-608.67" font-family="Helvetica,sans-Serif" font-size="10.00">cloud.CloudBackend.get</text>
<text text-anchor="middle" x="300" y="-597.67" font-family="Helvetica,sans-Serif" font-size="10.00">_device_configs</text>
</a>
</g>
</g>
<!-- Node2&#45;&gt;Node3 -->
<g id="edge2" class="edge">
<title>Node2&#45;&gt;Node3</title>
<path fill="none" stroke="midnightblue" d="M945.14,-707.97C923.09,-684.56 885.15,-649.33 844,-633.67 681.67,-571.89 472.17,-584.45 367.17,-596.41"/>
<polygon fill="midnightblue" stroke="midnightblue" points="942.65,-710.42 951.99,-715.41 947.8,-705.68 942.65,-710.42"/>
</g>
<!-- Node4 -->
<g id="node4" class="node">
<title>Node4</title>
<g id="a_node4"><a xlink:href="classklyqa__ctl_1_1account__control_1_1AccountControl.html#afa68c76beee57c491239d9184cd32167" target="_top" xlink:title=" ">
<polygon fill="white" stroke="black" points="641,-642.67 641,-672.67 844,-672.67 844,-642.67 641,-642.67"/>
<text text-anchor="start" x="649" y="-660.67" font-family="Helvetica,sans-Serif" font-size="10.00">klyqa_ctl.account_control.</text>
<text text-anchor="middle" x="742.5" y="-649.67" font-family="Helvetica,sans-Serif" font-size="10.00">AccountControl.load_username_cache</text>
</a>
</g>
</g>
<!-- Node2&#45;&gt;Node4 -->
<g id="edge3" class="edge">
<title>Node2&#45;&gt;Node4</title>
<path fill="none" stroke="midnightblue" d="M921.37,-711.72C898.58,-702.24 870.08,-691.04 844,-682.67 832.87,-679.09 820.92,-675.72 809.27,-672.68"/>
<polygon fill="midnightblue" stroke="midnightblue" points="920.19,-715.02 930.76,-715.66 922.9,-708.57 920.19,-715.02"/>
</g>
<!-- Node5 -->
<g id="node5" class="node">
<title>Node5</title>
<g id="a_node5"><a xlink:href="classklyqa__ctl_1_1account_1_1Account.html#a0b171a600e4342d035ad26c39b384b38" target="_top" xlink:title=" ">
<polygon fill="white" stroke="black" points="657,-888.17 657,-907.17 828,-907.17 828,-888.17 657,-888.17"/>
<text text-anchor="middle" x="742.5" y="-895.17" font-family="Helvetica,sans-Serif" font-size="10.00">klyqa_ctl.account.Account.login</text>
</a>
</g>
</g>
<!-- Node2&#45;&gt;Node5 -->
<g id="edge4" class="edge">
<title>Node2&#45;&gt;Node5</title>
<path fill="none" stroke="midnightblue" d="M952.41,-754.89C933.62,-788.46 894.9,-848.42 844,-878.67 837.51,-882.52 830.41,-885.62 823.07,-888.11"/>
<polygon fill="midnightblue" stroke="midnightblue" points="955.67,-756.23 957.39,-745.77 949.53,-752.87 955.67,-756.23"/>
</g>
<!-- Node6 -->
<g id="node6" class="node">
<title>Node6</title>
<g id="a_node6"><a xlink:href="classklyqa__ctl_1_1account__control_1_1AccountControl.html#abec04a28ae718f252e846b0c05645e65" target="_top" xlink:title=" ">
<polygon fill="white" stroke="black" points="666.5,-838.67 666.5,-868.67 818.5,-868.67 818.5,-838.67 666.5,-838.67"/>
<text text-anchor="start" x="674.5" y="-856.67" font-family="Helvetica,sans-Serif" font-size="10.00">klyqa_ctl.account_control.</text>
<text text-anchor="middle" x="742.5" y="-845.67" font-family="Helvetica,sans-Serif" font-size="10.00">AccountControl.login_cache</text>
</a>
</g>
</g>
<!-- Node2&#45;&gt;Node6 -->
<g id="edge5" class="edge">
<title>Node2&#45;&gt;Node6</title>
<path fill="none" stroke="midnightblue" d="M943.86,-753.13C921.26,-775.81 883.33,-810.18 844,-829.67 836.04,-833.61 827.41,-836.93 818.65,-839.71"/>
<polygon fill="midnightblue" stroke="midnightblue" points="946.42,-755.52 950.91,-745.93 941.42,-750.62 946.42,-755.52"/>
</g>
<!-- Node7 -->
<g id="node7" class="node">
<title>Node7</title>
<g id="a_node7"><a xlink:href="classklyqa__ctl_1_1account_1_1Account.html#af365113f9fdd0cf5e66f6e9ab427df78" target="_top" xlink:title=" ">
<polygon fill="white" stroke="black" points="658,-789.67 658,-819.67 827,-819.67 827,-789.67 658,-789.67"/>
<text text-anchor="start" x="666" y="-807.67" font-family="Helvetica,sans-Serif" font-size="10.00">klyqa_ctl.account.Account.read</text>
<text text-anchor="middle" x="742.5" y="-796.67" font-family="Helvetica,sans-Serif" font-size="10.00">_acc_settings_cache</text>
</a>
</g>
</g>
<!-- Node2&#45;&gt;Node7 -->
<g id="edge6" class="edge">
<title>Node2&#45;&gt;Node7</title>
<path fill="none" stroke="midnightblue" d="M922.95,-749.96C899.95,-760.02 870.77,-772 844,-780.67 834.02,-783.9 823.35,-786.91 812.83,-789.63"/>
<polygon fill="midnightblue" stroke="midnightblue" points="924.67,-753.03 932.4,-745.78 921.84,-746.62 924.67,-753.03"/>
</g>
<!-- Node8 -->
<g id="node8" class="node">
<title>Node8</title>
<g id="a_node8"><a xlink:href="classklyqa__ctl_1_1account_1_1Account.html#acba85b49678b6d37567985738f7becf3" target="_top" xlink:title=" ">
<polygon fill="white" stroke="black" points="658,-740.67 658,-770.67 827,-770.67 827,-740.67 658,-740.67"/>
<text text-anchor="start" x="666" y="-758.67" font-family="Helvetica,sans-Serif" font-size="10.00">klyqa_ctl.account.Account.read</text>
<text text-anchor="middle" x="742.5" y="-747.67" font-family="Helvetica,sans-Serif" font-size="10.00">_username_cache</text>
</a>
</g>
</g>
<!-- Node2&#45;&gt;Node8 -->
<g id="edge7" class="edge">
<title>Node2&#45;&gt;Node8</title>
<path fill="none" stroke="midnightblue" d="M869.76,-741.42C855.59,-743.02 841.08,-744.65 827.18,-746.22"/>
<polygon fill="midnightblue" stroke="midnightblue" points="870.45,-744.86 880,-740.26 869.67,-737.91 870.45,-744.86"/>
</g>
<!-- Node9 -->
<g id="node9" class="node">
<title>Node9</title>
<g id="a_node9"><a xlink:href="classklyqa__ctl_1_1account_1_1Account.html#af101070a97d556e95978748475933f72" target="_top" xlink:title=" ">
<polygon fill="white" stroke="black" points="652,-691.67 652,-721.67 833,-721.67 833,-691.67 652,-691.67"/>
<text text-anchor="start" x="660" y="-709.67" font-family="Helvetica,sans-Serif" font-size="10.00">klyqa_ctl.account.Account.update</text>
<text text-anchor="middle" x="742.5" y="-698.67" font-family="Helvetica,sans-Serif" font-size="10.00">_account_settings</text>
</a>
</g>
</g>
<!-- Node2&#45;&gt;Node9 -->
<g id="edge8" class="edge">
<title>Node2&#45;&gt;Node9</title>
<path fill="none" stroke="midnightblue" d="M869.82,-720.35C857.62,-719.03 845.16,-717.68 833.05,-716.37"/>
<polygon fill="midnightblue" stroke="midnightblue" points="869.68,-723.86 880,-721.46 870.43,-716.9 869.68,-723.86"/>
</g>
<!-- Node10 -->
<g id="node10" class="node">
<title>Node10</title>
<g id="a_node10"><a xlink:href="classklyqa__ctl_1_1account_1_1Account.html#aeca1011f6c6e2f6bcdb2136ef48bc7fd" target="_top" xlink:title=" ">
<polygon fill="white" stroke="black" points="421,-691.67 421,-721.67 605,-721.67 605,-691.67 421,-691.67"/>
<text text-anchor="start" x="429" y="-709.67" font-family="Helvetica,sans-Serif" font-size="10.00">klyqa_ctl.account.Account.request</text>
<text text-anchor="middle" x="513" y="-698.67" font-family="Helvetica,sans-Serif" font-size="10.00">_account_settings_eco</text>
</a>
</g>
</g>
<!-- Node9&#45;&gt;Node10 -->
<g id="edge9" class="edge">
<title>Node9&#45;&gt;Node10</title>
<path fill="none" stroke="midnightblue" d="M641.8,-706.67C629.69,-706.67 617.36,-706.67 605.37,-706.67"/>
<polygon fill="midnightblue" stroke="midnightblue" points="641.91,-710.17 651.91,-706.67 641.91,-703.17 641.91,-710.17"/>
</g>
<!-- Node12 -->
<g id="node12" class="node">
<title>Node12</title>
<g id="a_node12"><a xlink:href="classlocal_1_1connection__handler_1_1LocalConnectionHandler.html#af714f4a1c0791c62d2d3990990a42cf4" target="_top" xlink:title=" ">
<polygon fill="white" stroke="black" points="0,-38.17 0,-79.17 179,-79.17 179,-38.17 0,-38.17"/>
<text text-anchor="start" x="8" y="-67.17" font-family="Helvetica,sans-Serif" font-size="10.00">local.connection_handler.</text>
<text text-anchor="start" x="8" y="-56.17" font-family="Helvetica,sans-Serif" font-size="10.00">LocalConnectionHandler.discover</text>
<text text-anchor="middle" x="89.5" y="-45.17" font-family="Helvetica,sans-Serif" font-size="10.00">_devices</text>
</a>
</g>
</g>
<!-- Node11&#45;&gt;Node12 -->
<g id="edge11" class="edge">
<title>Node11&#45;&gt;Node12</title>
<path fill="none" stroke="midnightblue" d="M209.05,-58.67C199.16,-58.67 189.09,-58.67 179.21,-58.67"/>
<polygon fill="midnightblue" stroke="midnightblue" points="209.28,-62.17 219.28,-58.67 209.28,-55.17 209.28,-62.17"/>
</g>
<!-- Node14 -->
<g id="node14" class="node">
<title>Node14</title>
<g id="a_node14"><a xlink:href="classlocal_1_1connection__handler_1_1LocalConnectionHandler.html#a28f05e11005dfc83e537f9e2e85f54d5" target="_top" xlink:title=" ">
<polygon fill="white" stroke="black" points="648.5,-176.67 648.5,-206.67 836.5,-206.67 836.5,-176.67 648.5,-176.67"/>
<text text-anchor="start" x="656.5" y="-194.67" font-family="Helvetica,sans-Serif" font-size="10.00">local.connection_handler.</text>
<text text-anchor="middle" x="742.5" y="-183.67" font-family="Helvetica,sans-Serif" font-size="10.00">LocalConnectionHandler.bind_ports</text>
</a>
</g>
</g>
<!-- Node13&#45;&gt;Node14 -->
<g id="edge13" class="edge">
<title>Node13&#45;&gt;Node14</title>
<path fill="none" stroke="midnightblue" d="M934.52,-272C910.68,-256.53 876.28,-235.71 844,-221.67 830.89,-215.97 816.37,-210.94 802.54,-206.71"/>
<polygon fill="midnightblue" stroke="midnightblue" points="932.83,-275.07 943.11,-277.64 936.67,-269.22 932.83,-275.07"/>
</g>
<!-- Node16 -->
<g id="node16" class="node">
<title>Node16</title>
<g id="a_node16"><a xlink:href="classlocal_1_1connection__handler_1_1LocalConnectionHandler.html#aa6b6ea4bb56f4c18b6906bab38c971a7" target="_top" xlink:title=" ">
<polygon fill="white" stroke="black" points="433.5,-217.17 433.5,-258.17 592.5,-258.17 592.5,-217.17 433.5,-217.17"/>
<text text-anchor="start" x="441.5" y="-246.17" font-family="Helvetica,sans-Serif" font-size="10.00">local.connection_handler.</text>
<text text-anchor="start" x="441.5" y="-235.17" font-family="Helvetica,sans-Serif" font-size="10.00">LocalConnectionHandler.read</text>
<text text-anchor="middle" x="513" y="-224.17" font-family="Helvetica,sans-Serif" font-size="10.00">_incoming_tcp_con_task</text>
</a>
</g>
</g>
<!-- Node13&#45;&gt;Node16 -->
<g id="edge23" class="edge">
<title>Node13&#45;&gt;Node16</title>
<path fill="none" stroke="midnightblue" d="M873.73,-281.54C791.2,-271.47 670.96,-256.81 592.61,-247.25"/>
<polygon fill="midnightblue" stroke="midnightblue" points="873.5,-285.04 883.85,-282.77 874.35,-278.09 873.5,-285.04"/>
</g>
<!-- Node17 -->
<g id="node17" class="node">
<title>Node17</title>
<g id="a_node17"><a xlink:href="classlocal_1_1connection__handler_1_1LocalConnectionHandler.html#a69a2aabf1a7bc94f925f914df5ceae10" target="_top" xlink:title=" ">
<polygon fill="white" stroke="black" points="432.5,-119.17 432.5,-160.17 593.5,-160.17 593.5,-119.17 432.5,-119.17"/>
<text text-anchor="start" x="440.5" y="-148.17" font-family="Helvetica,sans-Serif" font-size="10.00">local.connection_handler.</text>
<text text-anchor="start" x="440.5" y="-137.17" font-family="Helvetica,sans-Serif" font-size="10.00">LocalConnectionHandler.send</text>
<text text-anchor="middle" x="513" y="-126.17" font-family="Helvetica,sans-Serif" font-size="10.00">_udp_broadcast</text>
</a>
</g>
</g>
<!-- Node13&#45;&gt;Node17 -->
<g id="edge35" class="edge">
<title>Node13&#45;&gt;Node17</title>
<path fill="none" stroke="midnightblue" d="M950.38,-269.14C930.43,-239.39 891.66,-189.32 844,-166.67 764.95,-129.1 663.21,-126.67 593.72,-130.87"/>
<polygon fill="midnightblue" stroke="midnightblue" points="947.55,-271.21 955.96,-277.67 953.41,-267.38 947.55,-271.21"/>
</g>
<!-- Node18 -->
<g id="node18" class="node">
<title>Node18</title>
<g id="a_node18"><a xlink:href="classlocal_1_1connection__handler_1_1LocalConnectionHandler.html#a0b582d0bf1523d1d0404867ab921539f" target="_top" xlink:title=" ">
<polygon fill="white" stroke="black" points="428,-514.17 428,-555.17 598,-555.17 598,-514.17 428,-514.17"/>
<text text-anchor="start" x="436" y="-543.17" font-family="Helvetica,sans-Serif" font-size="10.00">local.connection_handler.</text>
<text text-anchor="start" x="436" y="-532.17" font-family="Helvetica,sans-Serif" font-size="10.00">LocalConnectionHandler.device</text>
<text text-anchor="middle" x="513" y="-521.17" font-family="Helvetica,sans-Serif" font-size="10.00">_handle_local_tcp</text>
</a>
</g>
</g>
<!-- Node13&#45;&gt;Node18 -->
<g id="edge19" class="edge">
<title>Node13&#45;&gt;Node18</title>
<path fill="none" stroke="midnightblue" d="M962.26,-317.86C954.78,-372.73 928.53,-502.42 844,-556.67 758.34,-611.63 633.1,-579.94 564.15,-555.24"/>
<polygon fill="midnightblue" stroke="midnightblue" points="965.73,-318.29 963.52,-307.93 958.79,-317.41 965.73,-318.29"/>
</g>
<!-- Node20 -->
<g id="node20" class="node">
<title>Node20</title>
<g id="a_node20"><a xlink:href="classlocal_1_1connection__handler_1_1LocalConnectionHandler.html#a900e05554022ee9ecb3ba5621369016d" target="_top" xlink:title=" ">
<polygon fill="white" stroke="black" points="657.5,-506.17 657.5,-547.17 827.5,-547.17 827.5,-506.17 657.5,-506.17"/>
<text text-anchor="start" x="665.5" y="-535.17" font-family="Helvetica,sans-Serif" font-size="10.00">local.connection_handler.</text>
<text text-anchor="start" x="665.5" y="-524.17" font-family="Helvetica,sans-Serif" font-size="10.00">LocalConnectionHandler.handle</text>
<text text-anchor="middle" x="742.5" y="-513.17" font-family="Helvetica,sans-Serif" font-size="10.00">_connection</text>
</a>
</g>
</g>
<!-- Node13&#45;&gt;Node20 -->
<g id="edge21" class="edge">
<title>Node13&#45;&gt;Node20</title>
<path fill="none" stroke="midnightblue" d="M956.44,-317.22C940.66,-358.96 903.12,-443.88 844,-491.67 837.03,-497.3 829.1,-502.06 820.81,-506.06"/>
<polygon fill="midnightblue" stroke="midnightblue" points="959.73,-318.41 959.89,-307.82 953.16,-315.99 959.73,-318.41"/>
</g>
<!-- Node21 -->
<g id="node21" class="node">
<title>Node21</title>
<g id="a_node21"><a xlink:href="classlocal_1_1connection_1_1TcpConnection.html#a65ab7164f0d09f1380e3837905a602b7" target="_top" xlink:title=" ">
<polygon fill="white" stroke="black" points="645.5,-88.67 645.5,-118.67 839.5,-118.67 839.5,-88.67 645.5,-88.67"/>
<text text-anchor="start" x="653.5" y="-106.67" font-family="Helvetica,sans-Serif" font-size="10.00">local.connection.TcpConnection.read</text>
<text text-anchor="middle" x="742.5" y="-95.67" font-family="Helvetica,sans-Serif" font-size="10.00">_local_tcp_socket</text>
</a>
</g>
</g>
<!-- Node13&#45;&gt;Node21 -->
<g id="edge24" class="edge">
<title>Node13&#45;&gt;Node21</title>
<path fill="none" stroke="midnightblue" d="M952.94,-268.38C934.34,-233.42 895.37,-169.2 844,-133.67 835.16,-127.56 825.06,-122.67 814.75,-118.76"/>
<polygon fill="midnightblue" stroke="midnightblue" points="949.92,-270.16 957.64,-277.42 956.13,-266.93 949.92,-270.16"/>
</g>
<!-- Node22 -->
<g id="node22" class="node">
<title>Node22</title>
<g id="a_node22"><a xlink:href="classklyqa__ctl_1_1general_1_1general_1_1AsyncIoLock.html#a25fbc33880c976000ef3b6e70c7691c9" target="_top" xlink:title=" ">
<polygon fill="white" stroke="black" points="653.5,-39.67 653.5,-69.67 831.5,-69.67 831.5,-39.67 653.5,-39.67"/>
<text text-anchor="start" x="661.5" y="-57.67" font-family="Helvetica,sans-Serif" font-size="10.00">klyqa_ctl.general.general.</text>
<text text-anchor="middle" x="742.5" y="-46.67" font-family="Helvetica,sans-Serif" font-size="10.00">AsyncIoLock.release_within_task</text>
</a>
</g>
</g>
<!-- Node13&#45;&gt;Node22 -->
<g id="edge25" class="edge">
<title>Node13&#45;&gt;Node22</title>
<path fill="none" stroke="midnightblue" d="M958.09,-267.56C944.32,-222.4 909.03,-127.62 844,-78.67 839.41,-75.22 834.4,-72.25 829.15,-69.71"/>
<polygon fill="midnightblue" stroke="midnightblue" points="954.81,-268.81 960.99,-277.42 961.53,-266.84 954.81,-268.81"/>
</g>
<!-- Node23 -->
<g id="node23" class="node">
<title>Node23</title>
<g id="a_node23"><a xlink:href="classcloud_1_1CloudBackend.html#a890d2669fa6b9550af8e14a17413aea2" target="_top" xlink:title=" ">
<polygon fill="white" stroke="black" points="665,-302.17 665,-321.17 820,-321.17 820,-302.17 665,-302.17"/>
<text text-anchor="middle" x="742.5" y="-309.17" font-family="Helvetica,sans-Serif" font-size="10.00">cloud.CloudBackend.request</text>
</a>
</g>
</g>
<!-- Node13&#45;&gt;Node23 -->
<g id="edge26" class="edge">
<title>Node13&#45;&gt;Node23</title>
<path fill="none" stroke="midnightblue" d="M873.46,-300.52C855.79,-302.04 837.44,-303.61 820.29,-305.08"/>
<polygon fill="midnightblue" stroke="midnightblue" points="874.12,-303.98 883.78,-299.63 873.52,-297 874.12,-303.98"/>
</g>
<!-- Node25 -->
<g id="node25" class="node">
<title>Node25</title>
<g id="a_node25"><a xlink:href="classcloud_1_1CloudBackend.html#a8db40a99748dc3cc160e5093da0f84e8" target="_top" xlink:title=" ">
<polygon fill="white" stroke="black" points="442.5,-289.17 442.5,-308.17 583.5,-308.17 583.5,-289.17 442.5,-289.17"/>
<text text-anchor="middle" x="513" y="-296.17" font-family="Helvetica,sans-Serif" font-size="10.00">cloud.CloudBackend.send</text>
</a>
</g>
</g>
<!-- Node13&#45;&gt;Node25 -->
<g id="edge30" class="edge">
<title>Node13&#45;&gt;Node25</title>
<path fill="none" stroke="midnightblue" d="M873.56,-291.52C808.65,-290.98 719.47,-290.82 641,-292.67 622.35,-293.11 602.18,-293.91 583.52,-294.79"/>
<polygon fill="midnightblue" stroke="midnightblue" points="873.73,-295.02 883.76,-291.61 873.79,-288.02 873.73,-295.02"/>
</g>
<!-- Node26 -->
<g id="node26" class="node">
<title>Node26</title>
<g id="a_node26"><a xlink:href="classklyqa__ctl_1_1klyqa__ctl_1_1Client.html#ad5c42cd8dd34ed1d6329040e164bfc2e" target="_top" xlink:title=" ">
<polygon fill="white" stroke="black" points="659.5,-400.67 659.5,-430.67 825.5,-430.67 825.5,-400.67 659.5,-400.67"/>
<text text-anchor="start" x="667.5" y="-418.67" font-family="Helvetica,sans-Serif" font-size="10.00">klyqa_ctl.klyqa_ctl.Client.send</text>
<text text-anchor="middle" x="742.5" y="-407.67" font-family="Helvetica,sans-Serif" font-size="10.00">_to_devices</text>
</a>
</g>
</g>
<!-- Node13&#45;&gt;Node26 -->
<g id="edge31" class="edge">
<title>Node13&#45;&gt;Node26</title>
<path fill="none" stroke="midnightblue" d="M943.77,-314.82C921.11,-337.2 883.13,-371.17 844,-390.67 836.28,-394.52 827.91,-397.8 819.43,-400.6"/>
<polygon fill="midnightblue" stroke="midnightblue" points="946.28,-317.27 950.85,-307.71 941.32,-312.33 946.28,-317.27"/>
</g>
<!-- Node27 -->
<g id="node27" class="node">
<title>Node27</title>
<g id="a_node27"><a xlink:href="classklyqa__ctl_1_1klyqa__ctl_1_1Client.html#a7a93bda9f242d678a4208d0962837f11" target="_top" xlink:title=" ">
<polygon fill="white" stroke="black" points="430,-428.67 430,-458.67 596,-458.67 596,-428.67 430,-428.67"/>
<text text-anchor="start" x="438" y="-446.67" font-family="Helvetica,sans-Serif" font-size="10.00">klyqa_ctl.klyqa_ctl.Client.send</text>
<text text-anchor="middle" x="513" y="-435.67" font-family="Helvetica,sans-Serif" font-size="10.00">_to_devices_wrapped</text>
</a>
</g>
</g>
<!-- Node13&#45;&gt;Node27 -->
<g id="edge34" class="edge">
<title>Node13&#45;&gt;Node27</title>
<path fill="none" stroke="midnightblue" d="M955.64,-317.15C939.51,-355.41 902.47,-428.04 844,-457.67 751.55,-504.52 625.14,-478.23 558.81,-458.73"/>
<polygon fill="midnightblue" stroke="midnightblue" points="958.93,-318.36 959.46,-307.77 952.45,-315.71 958.93,-318.36"/>
</g>
<!-- Node28 -->
<g id="node28" class="node">
<title>Node28</title>
<g id="a_node28"><a xlink:href="classklyqa__ctl_1_1account__control_1_1AccountControl.html#a46d51f33622ad0e952a66d0d1b91eb12" target="_top" xlink:title=" ">
<polygon fill="white" stroke="black" points="660,-340.17 660,-381.17 825,-381.17 825,-340.17 660,-340.17"/>
<text text-anchor="start" x="668" y="-369.17" font-family="Helvetica,sans-Serif" font-size="10.00">klyqa_ctl.account_control.</text>
<text text-anchor="start" x="668" y="-358.17" font-family="Helvetica,sans-Serif" font-size="10.00">AccountControl.update_device</text>
<text text-anchor="middle" x="742.5" y="-347.17" font-family="Helvetica,sans-Serif" font-size="10.00">_configs</text>
</a>
</g>
</g>
<!-- Node13&#45;&gt;Node28 -->
<g id="edge36" class="edge">
<title>Node13&#45;&gt;Node28</title>
<path fill="none" stroke="midnightblue" d="M907.97,-310.76C887.78,-317.12 864.9,-324.27 844,-330.67 833.9,-333.76 823.22,-336.99 812.74,-340.14"/>
<polygon fill="midnightblue" stroke="midnightblue" points="909.15,-314.06 917.64,-307.71 907.05,-307.38 909.15,-314.06"/>
</g>
<!-- Node15 -->
<g id="node15" class="node">
<title>Node15</title>
<g id="a_node15"><a xlink:href="classlocal_1_1connection__handler_1_1LocalConnectionHandler.html#aa5d34422c7cb1784e408fef186a0b585" target="_top" xlink:title=" ">
<polygon fill="white" stroke="black" points="215,-144.17 215,-185.17 385,-185.17 385,-144.17 215,-144.17"/>
<text text-anchor="start" x="223" y="-173.17" font-family="Helvetica,sans-Serif" font-size="10.00">local.connection_handler.</text>
<text text-anchor="start" x="223" y="-162.17" font-family="Helvetica,sans-Serif" font-size="10.00">LocalConnectionHandler.handle</text>
<text text-anchor="middle" x="300" y="-151.17" font-family="Helvetica,sans-Serif" font-size="10.00">_connections</text>
</a>
</g>
</g>
<!-- Node14&#45;&gt;Node15 -->
<g id="edge14" class="edge">
<title>Node14&#45;&gt;Node15</title>
<path fill="none" stroke="midnightblue" d="M638.14,-185.33C561.06,-180.61 457.09,-174.24 385.08,-169.82"/>
<polygon fill="midnightblue" stroke="midnightblue" points="638.16,-188.84 648.35,-185.96 638.58,-181.85 638.16,-188.84"/>
</g>
<!-- Node14&#45;&gt;Node16 -->
<g id="edge15" class="edge">
<title>Node14&#45;&gt;Node16</title>
<path fill="none" stroke="midnightblue" d="M657.09,-208.73C635.97,-213.01 613.4,-217.57 592.57,-221.78"/>
<polygon fill="midnightblue" stroke="midnightblue" points="657.9,-212.14 667.01,-206.73 656.51,-205.28 657.9,-212.14"/>
</g>
<!-- Node14&#45;&gt;Node17 -->
<g id="edge16" class="edge">
<title>Node14&#45;&gt;Node17</title>
<path fill="none" stroke="midnightblue" d="M665.93,-174.39C642.76,-169.1 617.21,-163.26 593.77,-157.9"/>
<polygon fill="midnightblue" stroke="midnightblue" points="665.17,-177.81 675.7,-176.63 666.73,-170.99 665.17,-177.81"/>
</g>
<!-- Node17&#45;&gt;Node11 -->
<g id="edge18" class="edge">
<title>Node17&#45;&gt;Node11</title>
<path fill="none" stroke="midnightblue" d="M448.92,-115.45C418.83,-103.9 383.2,-90.23 354.46,-79.19"/>
<polygon fill="midnightblue" stroke="midnightblue" points="447.89,-118.81 458.48,-119.12 450.4,-112.27 447.89,-118.81"/>
</g>
<!-- Node17&#45;&gt;Node15 -->
<g id="edge17" class="edge">
<title>Node17&#45;&gt;Node15</title>
<path fill="none" stroke="midnightblue" d="M422.02,-150.33C409.78,-151.78 397.24,-153.26 385.1,-154.7"/>
<polygon fill="midnightblue" stroke="midnightblue" points="422.71,-153.77 432.23,-149.12 421.89,-146.82 422.71,-153.77"/>
</g>
<!-- Node19 -->
<g id="node19" class="node">
<title>Node19</title>
<g id="a_node19"><a xlink:href="classlocal_1_1connection__handler_1_1LocalConnectionHandler.html#a5e9277acd0b7bfa5a1e74417e0e10d86" target="_top" xlink:title=" ">
<polygon fill="white" stroke="black" points="215,-514.17 215,-555.17 385,-555.17 385,-514.17 215,-514.17"/>
<text text-anchor="start" x="223" y="-543.17" font-family="Helvetica,sans-Serif" font-size="10.00">local.connection_handler.</text>
<text text-anchor="start" x="223" y="-532.17" font-family="Helvetica,sans-Serif" font-size="10.00">LocalConnectionHandler.handle</text>
<text text-anchor="middle" x="300" y="-521.17" font-family="Helvetica,sans-Serif" font-size="10.00">_incoming_tcp_connection</text>
</a>
</g>
</g>
<!-- Node18&#45;&gt;Node19 -->
<g id="edge20" class="edge">
<title>Node18&#45;&gt;Node19</title>
<path fill="none" stroke="midnightblue" d="M417.45,-534.67C406.69,-534.67 395.78,-534.67 385.17,-534.67"/>
<polygon fill="midnightblue" stroke="midnightblue" points="417.7,-538.17 427.7,-534.67 417.7,-531.17 417.7,-538.17"/>
</g>
<!-- Node20&#45;&gt;Node18 -->
<g id="edge22" class="edge">
<title>Node20&#45;&gt;Node18</title>
<path fill="none" stroke="midnightblue" d="M647.35,-529.98C631.02,-530.55 614.14,-531.15 598.1,-531.71"/>
<polygon fill="midnightblue" stroke="midnightblue" points="647.56,-533.47 657.43,-529.62 647.32,-526.48 647.56,-533.47"/>
</g>
<!-- Node24 -->
<g id="node24" class="node">
<title>Node24</title>
<g id="a_node24"><a xlink:href="classcloud_1_1CloudBackend.html#a58e4bd598358583c0eb7c50fdf0c6bc1" target="_top" xlink:title=" ">
<polygon fill="white" stroke="black" points="446,-367.67 446,-397.67 580,-397.67 580,-367.67 446,-367.67"/>
<text text-anchor="start" x="454" y="-385.67" font-family="Helvetica,sans-Serif" font-size="10.00">cloud.CloudBackend.get</text>
<text text-anchor="middle" x="513" y="-374.67" font-family="Helvetica,sans-Serif" font-size="10.00">_device_config</text>
</a>
</g>
</g>
<!-- Node23&#45;&gt;Node24 -->
<g id="edge27" class="edge">
<title>Node23&#45;&gt;Node24</title>
<path fill="none" stroke="midnightblue" d="M670.51,-323.23C660.53,-325.39 650.45,-327.87 641,-330.67 607.65,-340.54 571.03,-356.06 545.72,-367.58"/>
<polygon fill="midnightblue" stroke="midnightblue" points="671.36,-326.63 680.44,-321.17 669.94,-319.77 671.36,-326.63"/>
</g>
<!-- Node23&#45;&gt;Node25 -->
<g id="edge29" class="edge">
<title>Node23&#45;&gt;Node25</title>
<path fill="none" stroke="midnightblue" d="M654.54,-306.7C631.16,-305.36 606.18,-303.94 583.86,-302.66"/>
<polygon fill="midnightblue" stroke="midnightblue" points="654.61,-310.21 664.8,-307.28 655.01,-303.22 654.61,-310.21"/>
</g>
<!-- Node24&#45;&gt;Node3 -->
<g id="edge28" class="edge">
<title>Node24&#45;&gt;Node3</title>
<path fill="none" stroke="midnightblue" d="M441.05,-402.57C433.55,-406.93 426.62,-412.23 421,-418.67 377.04,-469 426.98,-512.67 385,-564.67 375.83,-576.03 362.72,-584.47 349.58,-590.64"/>
<polygon fill="midnightblue" stroke="midnightblue" points="442.82,-405.6 450.08,-397.88 439.59,-399.39 442.82,-405.6"/>
</g>
<!-- Node26&#45;&gt;Node26 -->
<g id="edge32" class="edge">
<title>Node26&#45;&gt;Node26</title>
<path fill="none" stroke="midnightblue" d="M781.95,-441.13C777.05,-445.85 763.9,-449.17 742.5,-449.17 707.38,-449.17 694.48,-440.22 703.81,-430.83"/>
<polygon fill="midnightblue" stroke="midnightblue" points="785.41,-440.54 781.19,-430.83 778.43,-441.06 785.41,-440.54"/>
</g>
<!-- Node26&#45;&gt;Node27 -->
<g id="edge33" class="edge">
<title>Node26&#45;&gt;Node27</title>
<path fill="none" stroke="midnightblue" d="M649.11,-427.04C631.53,-429.2 613.24,-431.45 596.01,-433.57"/>
<polygon fill="midnightblue" stroke="midnightblue" points="649.87,-430.47 659.37,-425.78 649.01,-423.52 649.87,-430.47"/>
</g>
</g>
</svg>
        <g id="navigator" transform="translate(0 0)" fill="#404254">
                <rect fill="#f2f5e9" fill-opacity="0.5" stroke="#606060" stroke-width=".5" x="0" y="0" width="60" height="60"/>
                <use id="zoomplus" xlink:href="#zoomPlus" x="17" y="9" onmousedown="handleZoom(evt,'in')"/>
                <use id="zoomminus" xlink:href="#zoomMin" x="42" y="9" onmousedown="handleZoom(evt,'out')"/>
                <use id="reset" xlink:href="#resetDef" x="30" y="36" onmousedown="handleReset()"/>
                <g id="arrowUp" xlink:href="#dirArrow" transform="translate(30 24)" onmousedown="handlePan(0,-1)">
                  <use xlink:href="#rim" fill="#404040">
                        <set attributeName="fill" to="#808080" begin="arrowUp.mouseover" end="arrowUp.mouseout"/>
                  </use>
                  <path fill="none" stroke="white" stroke-width="1.5" d="M0,-3.0v7 M-2.5,-0.5L0,-3.0L2.5,-0.5"/>
                </g>
                <g id="arrowRight" xlink:href="#dirArrow" transform="rotate(90) translate(36 -43)" onmousedown="handlePan(1,0)">
                  <use xlink:href="#rim" fill="#404040">
                        <set attributeName="fill" to="#808080" begin="arrowRight.mouseover" end="arrowRight.mouseout"/>
                  </use>
                  <path fill="none" stroke="white" stroke-width="1.5" d="M0,-3.0v7 M-2.5,-0.5L0,-3.0L2.5,-0.5"/>
                </g>
                <g id="arrowDown" xlink:href="#dirArrow" transform="rotate(180) translate(-30 -48)" onmousedown="handlePan(0,1)">
                  <use xlink:href="#rim" fill="#404040">
                        <set attributeName="fill" to="#808080" begin="arrowDown.mouseover" end="arrowDown.mouseout"/>
                  </use>
                  <path fill="none" stroke="white" stroke-width="1.5" d="M0,-3.0v7 M-2.5,-0.5L0,-3.0L2.5,-0.5"/>
                </g>
                <g id="arrowLeft" xlink:href="#dirArrow" transform="rotate(270) translate(-36 17)" onmousedown="handlePan(-1,0)">
                  <use xlink:href="#rim" fill="#404040">
                        <set attributeName="fill" to="#808080" begin="arrowLeft.mouseover" end="arrowLeft.mouseout"/>
                  </use>
                  <path fill="none" stroke="white" stroke-width="1.5" d="M0,-3.0v7 M-2.5,-0.5L0,-3.0L2.5,-0.5"/>
                </g>
        </g>
        <svg viewBox="0 0 15 15" width="100%" height="30px" preserveAspectRatio="xMaxYMin meet">
         <g id="arrow_out" transform="scale(0.3 0.3)">
          <a xlink:href="namespaceklyqa__ctl_1_1general_1_1general_ab2f9a22e98cd16d0d284d22382cfcb02_icgraph_org.svg" target="_base">
           <rect id="button" ry="5" rx="5" y="6" x="6" height="38" width="38"
                fill="#f2f5e9" fill-opacity="0.5" stroke="#606060" stroke-width="1.0"/>
           <path id="arrow"
             d="M 11.500037,31.436501 C 11.940474,20.09759 22.043105,11.32322 32.158766,21.979434 L 37.068811,17.246167 C 37.068811,17.246167 37.088388,32 37.088388,32 L 22.160133,31.978069 C 22.160133,31.978069 26.997745,27.140456 26.997745,27.140456 C 18.528582,18.264221 13.291696,25.230495 11.500037,31.436501 z"
             style="fill:#404040;"/>
          </a>
         </g>
        </svg>
</svg>
