<?xml version="1.0" encoding="UTF-8" standalone="no"?>
<!DOCTYPE svg PUBLIC "-//W3C//DTD SVG 1.1//EN"
 "http://www.w3.org/Graphics/SVG/1.1/DTD/svg11.dtd">
<!-- Generated by graphviz version 2.43.0 (0)
 -->
<!-- Title: klyqa_ctl.general.general.task_log_trace_ex Pages: 1 -->
<!--zoomable 571 -->
<svg id="main" version="1.1" xmlns="http://www.w3.org/2000/svg" xmlns:xlink="http://www.w3.org/1999/xlink" xml:space="preserve" onload="init(evt)">
<style type="text/css"><![CDATA[
.edge:hover path { stroke: red; }
.edge:hover polygon { stroke: red; fill: red; }
]]></style>
<script type="text/javascript"><![CDATA[
var edges = document.getElementsByTagName('g');
if (edges && edges.length) {
  for (var i=0;i<edges.length;i++) {
    if (edges[i].id.substr(0,4)=='edge') {
      edges[i].setAttribute('class','edge');
    }
  }
}
]]></script>
        <defs>
                <circle id="rim" cx="0" cy="0" r="7"/>
                <circle id="rim2" cx="0" cy="0" r="3.5"/>
                <g id="zoomPlus">
                        <use xlink:href="#rim" fill="#404040">
                                <set attributeName="fill" to="#808080" begin="zoomplus.mouseover" end="zoomplus.mouseout"/>
                        </use>
                        <path d="M-4,0h8M0,-4v8" fill="none" stroke="white" stroke-width="1.5" pointer-events="none"/>
                </g>
                <g id="zoomMin">
                        <use xlink:href="#rim" fill="#404040">
                                <set attributeName="fill" to="#808080" begin="zoomminus.mouseover" end="zoomminus.mouseout"/>
                        </use>
                        <path d="M-4,0h8" fill="none" stroke="white" stroke-width="1.5" pointer-events="none"/>
                </g>
                <g id="dirArrow">
                        <path fill="none" stroke="white" stroke-width="1.5" d="M0,-3.0v7 M-2.5,-0.5L0,-3.0L2.5,-0.5"/>
                </g>
               <g id="resetDef">
                       <use xlink:href="#rim2" fill="#404040">
                               <set attributeName="fill" to="#808080" begin="reset.mouseover" end="reset.mouseout"/>
                       </use>
               </g>
        </defs>

<script type="text/javascript">
var viewWidth = 1029;
var viewHeight = 571;
var sectionId = 'dynsection-18';
</script>
<script xlink:href="svgpan.js"/>
<svg id="graph" class="graph">
<g id="viewport">
<title>klyqa_ctl.general.general.task_log_trace_ex</title>
<polygon fill="white" stroke="transparent" points="-4,4 -4,-567 1025,-567 1025,4 -4,4"/>
<!-- Node1 -->
<g id="node1" class="node">
<title>Node1</title>
<g id="a_node1"><a xlink:title=" ">
<polygon fill="#bfbfbf" stroke="black" points="857,-267 857,-297 1021,-297 1021,-267 857,-267"/>
<text text-anchor="start" x="865" y="-285" font-family="Helvetica,sans-Serif" font-size="10.00">klyqa_ctl.general.general.task</text>
<text text-anchor="middle" x="939" y="-274" font-family="Helvetica,sans-Serif" font-size="10.00">_log_trace_ex</text>
</a>
</g>
</g>
<!-- Node2 -->
<g id="node2" class="node">
<title>Node2</title>
<g id="a_node2"><a xlink:href="classlocal_1_1connection__handler_1_1LocalConnectionHandler.html#a28f05e11005dfc83e537f9e2e85f54d5" target="_top" xlink:title=" ">
<polygon fill="white" stroke="black" points="630,-478 630,-508 818,-508 818,-478 630,-478"/>
<text text-anchor="start" x="638" y="-496" font-family="Helvetica,sans-Serif" font-size="10.00">local.connection_handler.</text>
<text text-anchor="middle" x="724" y="-485" font-family="Helvetica,sans-Serif" font-size="10.00">LocalConnectionHandler.bind_ports</text>
</a>
</g>
</g>
<!-- Node1&#45;&gt;Node2 -->
<g id="edge1" class="edge">
<title>Node1&#45;&gt;Node2</title>
<path fill="none" stroke="midnightblue" d="M928.58,-306.69C912.48,-345.64 875.96,-421.22 821,-463 812.94,-469.13 803.6,-474.02 793.98,-477.92"/>
<polygon fill="midnightblue" stroke="midnightblue" points="931.93,-307.76 932.41,-297.17 925.43,-305.14 931.93,-307.76"/>
</g>
<!-- Node4 -->
<g id="node4" class="node">
<title>Node4</title>
<g id="a_node4"><a xlink:href="classlocal_1_1connection__handler_1_1LocalConnectionHandler.html#aa6b6ea4bb56f4c18b6906bab38c971a7" target="_top" xlink:title=" ">
<polygon fill="white" stroke="black" points="426.5,-521.5 426.5,-562.5 585.5,-562.5 585.5,-521.5 426.5,-521.5"/>
<text text-anchor="start" x="434.5" y="-550.5" font-family="Helvetica,sans-Serif" font-size="10.00">local.connection_handler.</text>
<text text-anchor="start" x="434.5" y="-539.5" font-family="Helvetica,sans-Serif" font-size="10.00">LocalConnectionHandler.read</text>
<text text-anchor="middle" x="506" y="-528.5" font-family="Helvetica,sans-Serif" font-size="10.00">_incoming_tcp_con_task</text>
</a>
</g>
</g>
<!-- Node1&#45;&gt;Node4 -->
<g id="edge12" class="edge">
<title>Node1&#45;&gt;Node4</title>
<path fill="none" stroke="midnightblue" d="M933.86,-307.18C924.17,-357.1 895,-468.09 821,-518 751.88,-564.62 653.68,-564.22 585.58,-556.27"/>
<polygon fill="midnightblue" stroke="midnightblue" points="937.32,-307.7 935.68,-297.23 930.44,-306.43 937.32,-307.7"/>
</g>
<!-- Node5 -->
<g id="node5" class="node">
<title>Node5</title>
<g id="a_node5"><a xlink:href="classlocal_1_1connection__handler_1_1LocalConnectionHandler.html#a69a2aabf1a7bc94f925f914df5ceae10" target="_top" xlink:title=" ">
<polygon fill="white" stroke="black" points="425.5,-423.5 425.5,-464.5 586.5,-464.5 586.5,-423.5 425.5,-423.5"/>
<text text-anchor="start" x="433.5" y="-452.5" font-family="Helvetica,sans-Serif" font-size="10.00">local.connection_handler.</text>
<text text-anchor="start" x="433.5" y="-441.5" font-family="Helvetica,sans-Serif" font-size="10.00">LocalConnectionHandler.send</text>
<text text-anchor="middle" x="506" y="-430.5" font-family="Helvetica,sans-Serif" font-size="10.00">_udp_broadcast</text>
</a>
</g>
</g>
<!-- Node1&#45;&gt;Node5 -->
<g id="edge24" class="edge">
<title>Node1&#45;&gt;Node5</title>
<path fill="none" stroke="midnightblue" d="M924.59,-306.04C905.86,-337 868.74,-389.72 821,-414 747.9,-451.17 652.88,-455.12 586.59,-451.99"/>
<polygon fill="midnightblue" stroke="midnightblue" points="927.75,-307.57 929.8,-297.18 921.71,-304.02 927.75,-307.57"/>
</g>
<!-- Node8 -->
<g id="node8" class="node">
<title>Node8</title>
<g id="a_node8"><a xlink:href="classlocal_1_1connection__handler_1_1LocalConnectionHandler.html#a0b582d0bf1523d1d0404867ab921539f" target="_top" xlink:title=" ">
<polygon fill="white" stroke="black" points="421,-346.5 421,-387.5 591,-387.5 591,-346.5 421,-346.5"/>
<text text-anchor="start" x="429" y="-375.5" font-family="Helvetica,sans-Serif" font-size="10.00">local.connection_handler.</text>
<text text-anchor="start" x="429" y="-364.5" font-family="Helvetica,sans-Serif" font-size="10.00">LocalConnectionHandler.device</text>
<text text-anchor="middle" x="506" y="-353.5" font-family="Helvetica,sans-Serif" font-size="10.00">_handle_local_tcp</text>
</a>
</g>
</g>
<!-- Node1&#45;&gt;Node8 -->
<g id="edge8" class="edge">
<title>Node1&#45;&gt;Node8</title>
<path fill="none" stroke="midnightblue" d="M922.05,-305.16C902.04,-331.94 864.97,-374.58 821,-392 738.13,-424.84 633.49,-405.72 568.4,-387.5"/>
<polygon fill="midnightblue" stroke="midnightblue" points="924.88,-307.22 927.93,-297.07 919.22,-303.1 924.88,-307.22"/>
</g>
<!-- Node10 -->
<g id="node10" class="node">
<title>Node10</title>
<g id="a_node10"><a xlink:href="classlocal_1_1connection__handler_1_1LocalConnectionHandler.html#a900e05554022ee9ecb3ba5621369016d" target="_top" xlink:title=" ">
<polygon fill="white" stroke="black" points="639,-341.5 639,-382.5 809,-382.5 809,-341.5 639,-341.5"/>
<text text-anchor="start" x="647" y="-370.5" font-family="Helvetica,sans-Serif" font-size="10.00">local.connection_handler.</text>
<text text-anchor="start" x="647" y="-359.5" font-family="Helvetica,sans-Serif" font-size="10.00">LocalConnectionHandler.handle</text>
<text text-anchor="middle" x="724" y="-348.5" font-family="Helvetica,sans-Serif" font-size="10.00">_connection</text>
</a>
</g>
</g>
<!-- Node1&#45;&gt;Node10 -->
<g id="edge10" class="edge">
<title>Node1&#45;&gt;Node10</title>
<path fill="none" stroke="midnightblue" d="M895.91,-301.21C873.82,-310.97 846.18,-322.71 821,-332 812.24,-335.23 802.94,-338.42 793.72,-341.45"/>
<polygon fill="midnightblue" stroke="midnightblue" points="897.61,-304.28 905.32,-297.01 894.77,-297.89 897.61,-304.28"/>
</g>
<!-- Node11 -->
<g id="node11" class="node">
<title>Node11</title>
<g id="a_node11"><a xlink:href="classlocal_1_1connection_1_1TcpConnection.html#a65ab7164f0d09f1380e3837905a602b7" target="_top" xlink:title=" ">
<polygon fill="white" stroke="black" points="627,-292 627,-322 821,-322 821,-292 627,-292"/>
<text text-anchor="start" x="635" y="-310" font-family="Helvetica,sans-Serif" font-size="10.00">local.connection.TcpConnection.read</text>
<text text-anchor="middle" x="724" y="-299" font-family="Helvetica,sans-Serif" font-size="10.00">_local_tcp_socket</text>
</a>
</g>
</g>
<!-- Node1&#45;&gt;Node11 -->
<g id="edge13" class="edge">
<title>Node1&#45;&gt;Node11</title>
<path fill="none" stroke="midnightblue" d="M846.68,-292.72C838.26,-293.71 829.72,-294.71 821.26,-295.7"/>
<polygon fill="midnightblue" stroke="midnightblue" points="847.34,-296.16 856.87,-291.52 846.53,-289.21 847.34,-296.16"/>
</g>
<!-- Node12 -->
<g id="node12" class="node">
<title>Node12</title>
<g id="a_node12"><a xlink:href="classklyqa__ctl_1_1general_1_1general_1_1AsyncIoLock.html#a25fbc33880c976000ef3b6e70c7691c9" target="_top" xlink:title=" ">
<polygon fill="white" stroke="black" points="635,-243 635,-273 813,-273 813,-243 635,-243"/>
<text text-anchor="start" x="643" y="-261" font-family="Helvetica,sans-Serif" font-size="10.00">klyqa_ctl.general.general.</text>
<text text-anchor="middle" x="724" y="-250" font-family="Helvetica,sans-Serif" font-size="10.00">AsyncIoLock.release_within_task</text>
</a>
</g>
</g>
<!-- Node1&#45;&gt;Node12 -->
<g id="edge14" class="edge">
<title>Node1&#45;&gt;Node12</title>
<path fill="none" stroke="midnightblue" d="M846.69,-271.71C835.52,-270.45 824.12,-269.17 813.01,-267.92"/>
<polygon fill="midnightblue" stroke="midnightblue" points="846.54,-275.22 856.87,-272.86 847.32,-268.26 846.54,-275.22"/>
</g>
<!-- Node13 -->
<g id="node13" class="node">
<title>Node13</title>
<g id="a_node13"><a xlink:href="classcloud_1_1CloudBackend.html#a890d2669fa6b9550af8e14a17413aea2" target="_top" xlink:title=" ">
<polygon fill="white" stroke="black" points="646.5,-204.5 646.5,-223.5 801.5,-223.5 801.5,-204.5 646.5,-204.5"/>
<text text-anchor="middle" x="724" y="-211.5" font-family="Helvetica,sans-Serif" font-size="10.00">cloud.CloudBackend.request</text>
</a>
</g>
</g>
<!-- Node1&#45;&gt;Node13 -->
<g id="edge15" class="edge">
<title>Node1&#45;&gt;Node13</title>
<path fill="none" stroke="midnightblue" d="M896.41,-262.75C874.36,-253.11 846.6,-241.85 821,-234 807.73,-229.93 793.18,-226.43 779.51,-223.54"/>
<polygon fill="midnightblue" stroke="midnightblue" points="895.24,-266.06 905.8,-266.91 898.08,-259.66 895.24,-266.06"/>
</g>
<!-- Node16 -->
<g id="node16" class="node">
<title>Node16</title>
<g id="a_node16"><a xlink:href="classcloud_1_1CloudBackend.html#a8db40a99748dc3cc160e5093da0f84e8" target="_top" xlink:title=" ">
<polygon fill="white" stroke="black" points="435.5,-166.5 435.5,-185.5 576.5,-185.5 576.5,-166.5 435.5,-166.5"/>
<text text-anchor="middle" x="506" y="-173.5" font-family="Helvetica,sans-Serif" font-size="10.00">cloud.CloudBackend.send</text>
</a>
</g>
</g>
<!-- Node1&#45;&gt;Node16 -->
<g id="edge19" class="edge">
<title>Node1&#45;&gt;Node16</title>
<path fill="none" stroke="midnightblue" d="M916.43,-259.75C894.57,-238.84 858.7,-208.76 821,-195 740.97,-165.79 641.87,-165.13 576.67,-169.06"/>
<polygon fill="midnightblue" stroke="midnightblue" points="914.23,-262.5 923.82,-266.99 919.13,-257.5 914.23,-262.5"/>
</g>
<!-- Node17 -->
<g id="node17" class="node">
<title>Node17</title>
<g id="a_node17"><a xlink:href="classklyqa__ctl_1_1klyqa__ctl_1_1Client.html#ad5c42cd8dd34ed1d6329040e164bfc2e" target="_top" xlink:title=" ">
<polygon fill="white" stroke="black" points="641,-99 641,-129 807,-129 807,-99 641,-99"/>
<text text-anchor="start" x="649" y="-117" font-family="Helvetica,sans-Serif" font-size="10.00">klyqa_ctl.klyqa_ctl.Client.send</text>
<text text-anchor="middle" x="724" y="-106" font-family="Helvetica,sans-Serif" font-size="10.00">_to_devices</text>
</a>
</g>
</g>
<!-- Node1&#45;&gt;Node17 -->
<g id="edge20" class="edge">
<title>Node1&#45;&gt;Node17</title>
<path fill="none" stroke="midnightblue" d="M919.61,-258.93C898.04,-232.96 860.22,-190.65 821,-162 802.94,-148.81 780.72,-137.44 762.21,-129.08"/>
<polygon fill="midnightblue" stroke="midnightblue" points="916.98,-261.24 926.02,-266.76 922.39,-256.8 916.98,-261.24"/>
</g>
<!-- Node18 -->
<g id="node18" class="node">
<title>Node18</title>
<g id="a_node18"><a xlink:href="classklyqa__ctl_1_1klyqa__ctl_1_1Client.html#a7a93bda9f242d678a4208d0962837f11" target="_top" xlink:title=" ">
<polygon fill="white" stroke="black" points="423,-77 423,-107 589,-107 589,-77 423,-77"/>
<text text-anchor="start" x="431" y="-95" font-family="Helvetica,sans-Serif" font-size="10.00">klyqa_ctl.klyqa_ctl.Client.send</text>
<text text-anchor="middle" x="506" y="-84" font-family="Helvetica,sans-Serif" font-size="10.00">_to_devices_wrapped</text>
</a>
</g>
</g>
<!-- Node1&#45;&gt;Node18 -->
<g id="edge23" class="edge">
<title>Node1&#45;&gt;Node18</title>
<path fill="none" stroke="midnightblue" d="M931.49,-256.99C918.68,-213.58 885.66,-125.41 821,-89 738.35,-42.45 622.99,-60.57 557.57,-76.95"/>
<polygon fill="midnightblue" stroke="midnightblue" points="928.16,-258.09 934.25,-266.77 934.9,-256.19 928.16,-258.09"/>
</g>
<!-- Node19 -->
<g id="node19" class="node">
<title>Node19</title>
<g id="a_node19"><a xlink:href="classklyqa__ctl_1_1account__control_1_1AccountControl.html#a46d51f33622ad0e952a66d0d1b91eb12" target="_top" xlink:title=" ">
<polygon fill="white" stroke="black" points="641.5,-0.5 641.5,-41.5 806.5,-41.5 806.5,-0.5 641.5,-0.5"/>
<text text-anchor="start" x="649.5" y="-29.5" font-family="Helvetica,sans-Serif" font-size="10.00">klyqa_ctl.account_control.</text>
<text text-anchor="start" x="649.5" y="-18.5" font-family="Helvetica,sans-Serif" font-size="10.00">AccountControl.update_device</text>
<text text-anchor="middle" x="724" y="-7.5" font-family="Helvetica,sans-Serif" font-size="10.00">_configs</text>
</a>
</g>
</g>
<!-- Node1&#45;&gt;Node19 -->
<g id="edge25" class="edge">
<title>Node1&#45;&gt;Node19</title>
<path fill="none" stroke="midnightblue" d="M931.67,-257.22C918.68,-211.18 884.71,-112.03 821,-56 814.61,-50.38 807.23,-45.63 799.48,-41.63"/>
<polygon fill="midnightblue" stroke="midnightblue" points="928.32,-258.24 934.33,-266.97 935.07,-256.4 928.32,-258.24"/>
</g>
<!-- Node3 -->
<g id="node3" class="node">
<title>Node3</title>
<g id="a_node3"><a xlink:href="classlocal_1_1connection__handler_1_1LocalConnectionHandler.html#aa5d34422c7cb1784e408fef186a0b585" target="_top" xlink:title=" ">
<polygon fill="white" stroke="black" points="215,-472.5 215,-513.5 385,-513.5 385,-472.5 215,-472.5"/>
<text text-anchor="start" x="223" y="-501.5" font-family="Helvetica,sans-Serif" font-size="10.00">local.connection_handler.</text>
<text text-anchor="start" x="223" y="-490.5" font-family="Helvetica,sans-Serif" font-size="10.00">LocalConnectionHandler.handle</text>
<text text-anchor="middle" x="300" y="-479.5" font-family="Helvetica,sans-Serif" font-size="10.00">_connections</text>
</a>
</g>
</g>
<!-- Node2&#45;&gt;Node3 -->
<g id="edge2" class="edge">
<title>Node2&#45;&gt;Node3</title>
<path fill="none" stroke="midnightblue" d="M619.86,-493C547.81,-493 452.81,-493 385.3,-493"/>
<polygon fill="midnightblue" stroke="midnightblue" points="619.87,-496.5 629.87,-493 619.87,-489.5 619.87,-496.5"/>
</g>
<!-- Node2&#45;&gt;Node4 -->
<g id="edge3" class="edge">
<title>Node2&#45;&gt;Node4</title>
<path fill="none" stroke="midnightblue" d="M646.83,-510.28C627.01,-514.78 605.62,-519.63 585.68,-524.15"/>
<polygon fill="midnightblue" stroke="midnightblue" points="647.75,-513.66 656.72,-508.03 646.2,-506.83 647.75,-513.66"/>
</g>
<!-- Node2&#45;&gt;Node5 -->
<g id="edge4" class="edge">
<title>Node2&#45;&gt;Node5</title>
<path fill="none" stroke="midnightblue" d="M646.73,-475.7C627.32,-471.3 606.42,-466.55 586.84,-462.11"/>
<polygon fill="midnightblue" stroke="midnightblue" points="646.2,-479.17 656.72,-477.97 647.75,-472.34 646.2,-479.17"/>
</g>
<!-- Node5&#45;&gt;Node3 -->
<g id="edge5" class="edge">
<title>Node5&#45;&gt;Node3</title>
<path fill="none" stroke="midnightblue" d="M415.28,-465.55C405.24,-467.96 395.03,-470.41 385.07,-472.81"/>
<polygon fill="midnightblue" stroke="midnightblue" points="416.35,-468.89 425.25,-463.16 414.71,-462.09 416.35,-468.89"/>
</g>
<!-- Node6 -->
<g id="node6" class="node">
<title>Node6</title>
<g id="a_node6"><a xlink:href="classlocal_1_1connection__handler_1_1LocalConnectionHandler.html#aae9d106df606f3c68a146e0af7f60bba" target="_top" xlink:title=" ">
<polygon fill="white" stroke="black" points="219.5,-412.5 219.5,-453.5 380.5,-453.5 380.5,-412.5 219.5,-412.5"/>
<text text-anchor="start" x="227.5" y="-441.5" font-family="Helvetica,sans-Serif" font-size="10.00">local.connection_handler.</text>
<text text-anchor="start" x="227.5" y="-430.5" font-family="Helvetica,sans-Serif" font-size="10.00">LocalConnectionHandler.send</text>
<text text-anchor="middle" x="300" y="-419.5" font-family="Helvetica,sans-Serif" font-size="10.00">_message</text>
</a>
</g>
</g>
<!-- Node5&#45;&gt;Node6 -->
<g id="edge6" class="edge">
<title>Node5&#45;&gt;Node6</title>
<path fill="none" stroke="midnightblue" d="M415.22,-439.16C403.72,-438.54 392.01,-437.91 380.69,-437.3"/>
<polygon fill="midnightblue" stroke="midnightblue" points="415.08,-442.66 425.25,-439.7 415.45,-435.67 415.08,-442.66"/>
</g>
<!-- Node7 -->
<g id="node7" class="node">
<title>Node7</title>
<g id="a_node7"><a xlink:href="classlocal_1_1connection__handler_1_1LocalConnectionHandler.html#af714f4a1c0791c62d2d3990990a42cf4" target="_top" xlink:title=" ">
<polygon fill="white" stroke="black" points="0,-412.5 0,-453.5 179,-453.5 179,-412.5 0,-412.5"/>
<text text-anchor="start" x="8" y="-441.5" font-family="Helvetica,sans-Serif" font-size="10.00">local.connection_handler.</text>
<text text-anchor="start" x="8" y="-430.5" font-family="Helvetica,sans-Serif" font-size="10.00">LocalConnectionHandler.discover</text>
<text text-anchor="middle" x="89.5" y="-419.5" font-family="Helvetica,sans-Serif" font-size="10.00">_devices</text>
</a>
</g>
</g>
<!-- Node6&#45;&gt;Node7 -->
<g id="edge7" class="edge">
<title>Node6&#45;&gt;Node7</title>
<path fill="none" stroke="midnightblue" d="M209.05,-433C199.16,-433 189.09,-433 179.21,-433"/>
<polygon fill="midnightblue" stroke="midnightblue" points="209.28,-436.5 219.28,-433 209.28,-429.5 209.28,-436.5"/>
</g>
<!-- Node9 -->
<g id="node9" class="node">
<title>Node9</title>
<g id="a_node9"><a xlink:href="classlocal_1_1connection__handler_1_1LocalConnectionHandler.html#a5e9277acd0b7bfa5a1e74417e0e10d86" target="_top" xlink:title=" ">
<polygon fill="white" stroke="black" points="215,-346.5 215,-387.5 385,-387.5 385,-346.5 215,-346.5"/>
<text text-anchor="start" x="223" y="-375.5" font-family="Helvetica,sans-Serif" font-size="10.00">local.connection_handler.</text>
<text text-anchor="start" x="223" y="-364.5" font-family="Helvetica,sans-Serif" font-size="10.00">LocalConnectionHandler.handle</text>
<text text-anchor="middle" x="300" y="-353.5" font-family="Helvetica,sans-Serif" font-size="10.00">_incoming_tcp_connection</text>
</a>
</g>
</g>
<!-- Node8&#45;&gt;Node9 -->
<g id="edge9" class="edge">
<title>Node8&#45;&gt;Node9</title>
<path fill="none" stroke="midnightblue" d="M410.6,-367C402.15,-367 393.64,-367 385.29,-367"/>
<polygon fill="midnightblue" stroke="midnightblue" points="410.85,-370.5 420.85,-367 410.85,-363.5 410.85,-370.5"/>
</g>
<!-- Node10&#45;&gt;Node8 -->
<g id="edge11" class="edge">
<title>Node10&#45;&gt;Node8</title>
<path fill="none" stroke="midnightblue" d="M628.52,-364.19C616.12,-364.47 603.47,-364.77 591.26,-365.05"/>
<polygon fill="midnightblue" stroke="midnightblue" points="628.95,-367.68 638.87,-363.95 628.79,-360.68 628.95,-367.68"/>
</g>
<!-- Node14 -->
<g id="node14" class="node">
<title>Node14</title>
<g id="a_node14"><a xlink:href="classcloud_1_1CloudBackend.html#a58e4bd598358583c0eb7c50fdf0c6bc1" target="_top" xlink:title=" ">
<polygon fill="white" stroke="black" points="439,-205 439,-235 573,-235 573,-205 439,-205"/>
<text text-anchor="start" x="447" y="-223" font-family="Helvetica,sans-Serif" font-size="10.00">cloud.CloudBackend.get</text>
<text text-anchor="middle" x="506" y="-212" font-family="Helvetica,sans-Serif" font-size="10.00">_device_config</text>
</a>
</g>
</g>
<!-- Node13&#45;&gt;Node14 -->
<g id="edge16" class="edge">
<title>Node13&#45;&gt;Node14</title>
<path fill="none" stroke="midnightblue" d="M636.04,-216.42C615.06,-217 592.98,-217.61 573.13,-218.16"/>
<polygon fill="midnightblue" stroke="midnightblue" points="636.34,-219.91 646.24,-216.13 636.14,-212.91 636.34,-219.91"/>
</g>
<!-- Node13&#45;&gt;Node16 -->
<g id="edge18" class="edge">
<title>Node13&#45;&gt;Node16</title>
<path fill="none" stroke="midnightblue" d="M658.91,-202.72C627.83,-197.26 590.91,-190.76 561.25,-185.54"/>
<polygon fill="midnightblue" stroke="midnightblue" points="658.32,-206.17 668.77,-204.46 659.53,-199.28 658.32,-206.17"/>
</g>
<!-- Node15 -->
<g id="node15" class="node">
<title>Node15</title>
<g id="a_node15"><a xlink:href="classcloud_1_1CloudBackend.html#a566850b368080b6ff85ee2675aa9b3e2" target="_top" xlink:title=" ">
<polygon fill="white" stroke="black" points="233,-205 233,-235 367,-235 367,-205 233,-205"/>
<text text-anchor="start" x="241" y="-223" font-family="Helvetica,sans-Serif" font-size="10.00">cloud.CloudBackend.get</text>
<text text-anchor="middle" x="300" y="-212" font-family="Helvetica,sans-Serif" font-size="10.00">_device_configs</text>
</a>
</g>
</g>
<!-- Node14&#45;&gt;Node15 -->
<g id="edge17" class="edge">
<title>Node14&#45;&gt;Node15</title>
<path fill="none" stroke="midnightblue" d="M428.67,-220C408.48,-220 386.86,-220 367.25,-220"/>
<polygon fill="midnightblue" stroke="midnightblue" points="428.77,-223.5 438.77,-220 428.77,-216.5 428.77,-223.5"/>
</g>
<!-- Node17&#45;&gt;Node17 -->
<g id="edge21" class="edge">
<title>Node17&#45;&gt;Node17</title>
<path fill="none" stroke="midnightblue" d="M762.03,-139.46C757.31,-144.18 744.63,-147.5 724,-147.5 690.14,-147.5 677.71,-138.56 686.71,-129.16"/>
<polygon fill="midnightblue" stroke="midnightblue" points="765.49,-138.89 761.29,-129.16 758.51,-139.38 765.49,-138.89"/>
</g>
<!-- Node17&#45;&gt;Node18 -->
<g id="edge22" class="edge">
<title>Node17&#45;&gt;Node18</title>
<path fill="none" stroke="midnightblue" d="M630.71,-104.6C616.87,-103.19 602.66,-101.74 589.05,-100.36"/>
<polygon fill="midnightblue" stroke="midnightblue" points="630.42,-108.09 640.72,-105.62 631.13,-101.12 630.42,-108.09"/>
</g>
</g>
</svg>
        <g id="navigator" transform="translate(0 0)" fill="#404254">
                <rect fill="#f2f5e9" fill-opacity="0.5" stroke="#606060" stroke-width=".5" x="0" y="0" width="60" height="60"/>
                <use id="zoomplus" xlink:href="#zoomPlus" x="17" y="9" onmousedown="handleZoom(evt,'in')"/>
                <use id="zoomminus" xlink:href="#zoomMin" x="42" y="9" onmousedown="handleZoom(evt,'out')"/>
                <use id="reset" xlink:href="#resetDef" x="30" y="36" onmousedown="handleReset()"/>
                <g id="arrowUp" xlink:href="#dirArrow" transform="translate(30 24)" onmousedown="handlePan(0,-1)">
                  <use xlink:href="#rim" fill="#404040">
                        <set attributeName="fill" to="#808080" begin="arrowUp.mouseover" end="arrowUp.mouseout"/>
                  </use>
                  <path fill="none" stroke="white" stroke-width="1.5" d="M0,-3.0v7 M-2.5,-0.5L0,-3.0L2.5,-0.5"/>
                </g>
                <g id="arrowRight" xlink:href="#dirArrow" transform="rotate(90) translate(36 -43)" onmousedown="handlePan(1,0)">
                  <use xlink:href="#rim" fill="#404040">
                        <set attributeName="fill" to="#808080" begin="arrowRight.mouseover" end="arrowRight.mouseout"/>
                  </use>
                  <path fill="none" stroke="white" stroke-width="1.5" d="M0,-3.0v7 M-2.5,-0.5L0,-3.0L2.5,-0.5"/>
                </g>
                <g id="arrowDown" xlink:href="#dirArrow" transform="rotate(180) translate(-30 -48)" onmousedown="handlePan(0,1)">
                  <use xlink:href="#rim" fill="#404040">
                        <set attributeName="fill" to="#808080" begin="arrowDown.mouseover" end="arrowDown.mouseout"/>
                  </use>
                  <path fill="none" stroke="white" stroke-width="1.5" d="M0,-3.0v7 M-2.5,-0.5L0,-3.0L2.5,-0.5"/>
                </g>
                <g id="arrowLeft" xlink:href="#dirArrow" transform="rotate(270) translate(-36 17)" onmousedown="handlePan(-1,0)">
                  <use xlink:href="#rim" fill="#404040">
                        <set attributeName="fill" to="#808080" begin="arrowLeft.mouseover" end="arrowLeft.mouseout"/>
                  </use>
                  <path fill="none" stroke="white" stroke-width="1.5" d="M0,-3.0v7 M-2.5,-0.5L0,-3.0L2.5,-0.5"/>
                </g>
        </g>
        <svg viewBox="0 0 15 15" width="100%" height="30px" preserveAspectRatio="xMaxYMin meet">
         <g id="arrow_out" transform="scale(0.3 0.3)">
          <a xlink:href="namespaceklyqa__ctl_1_1general_1_1general_ad6b753e482e539892c57f8144cf213cb_icgraph_org.svg" target="_base">
           <rect id="button" ry="5" rx="5" y="6" x="6" height="38" width="38"
                fill="#f2f5e9" fill-opacity="0.5" stroke="#606060" stroke-width="1.0"/>
           <path id="arrow"
             d="M 11.500037,31.436501 C 11.940474,20.09759 22.043105,11.32322 32.158766,21.979434 L 37.068811,17.246167 C 37.068811,17.246167 37.088388,32 37.088388,32 L 22.160133,31.978069 C 22.160133,31.978069 26.997745,27.140456 26.997745,27.140456 C 18.528582,18.264221 13.291696,25.230495 11.500037,31.436501 z"
             style="fill:#404040;"/>
          </a>
         </g>
        </svg>
</svg>
