<?xml version="1.0" encoding="UTF-8" standalone="no"?>
<!DOCTYPE svg PUBLIC "-//W3C//DTD SVG 1.1//EN"
 "http://www.w3.org/Graphics/SVG/1.1/DTD/svg11.dtd">
<!-- Generated by graphviz version 2.43.0 (0)
 -->
<!-- Title: klyqa_ctl.devices.light.commands.command_color Pages: 1 -->
<svg width="483pt" height="39pt"
 viewBox="0.00 0.00 483.00 39.00" xmlns="http://www.w3.org/2000/svg" xmlns:xlink="http://www.w3.org/1999/xlink">
<g id="graph0" class="graph" transform="scale(1 1) rotate(0) translate(4 35)">
<title>klyqa_ctl.devices.light.commands.command_color</title>
<polygon fill="white" stroke="transparent" points="-4,4 -4,-35 479,-35 479,4 -4,4"/>
<!-- Node1 -->
<g id="node1" class="node">
<title>Node1</title>
<g id="a_node1"><a xlink:title=" ">
<polygon fill="#bfbfbf" stroke="black" points="240,-0.5 240,-30.5 475,-30.5 475,-0.5 240,-0.5"/>
<text text-anchor="start" x="248" y="-18.5" font-family="Helvetica,sans-Serif" font-size="10.00">klyqa_ctl.devices.light.commands.command</text>
<text text-anchor="middle" x="357.5" y="-7.5" font-family="Helvetica,sans-Serif" font-size="10.00">_color</text>
</a>
</g>
</g>
<!-- Node2 -->
<g id="node2" class="node">
<title>Node2</title>
<g id="a_node2"><a xlink:href="namespaceklyqa__ctl_1_1devices_1_1light_1_1commands.html#aff98bf7ababf8435cade44d35a76b211" target="_top" xlink:title=" ">
<polygon fill="white" stroke="black" points="0,-0.5 0,-30.5 204,-30.5 204,-0.5 0,-0.5"/>
<text text-anchor="start" x="8" y="-18.5" font-family="Helvetica,sans-Serif" font-size="10.00">klyqa_ctl.devices.light.commands.add</text>
<text text-anchor="middle" x="102" y="-7.5" font-family="Helvetica,sans-Serif" font-size="10.00">_device_command_to_queue</text>
</a>
</g>
</g>
<!-- Node1&#45;&gt;Node2 -->
<g id="edge1" class="edge">
<title>Node1&#45;&gt;Node2</title>
<path fill="none" stroke="midnightblue" d="M229.49,-15.5C221.06,-15.5 212.63,-15.5 204.36,-15.5"/>
<polygon fill="midnightblue" stroke="midnightblue" points="229.77,-19 239.77,-15.5 229.77,-12 229.77,-19"/>
</g>
</g>
</svg>
