<?xml version="1.0" encoding="UTF-8" standalone="no"?>
<!DOCTYPE svg PUBLIC "-//W3C//DTD SVG 1.1//EN"
 "http://www.w3.org/Graphics/SVG/1.1/DTD/svg11.dtd">
<!-- Generated by graphviz version 2.43.0 (0)
 -->
<!-- Title: klyqa_ctl.vc1_vapp.sendMsg Pages: 1 -->
<svg width="529pt" height="351pt"
 viewBox="0.00 0.00 529.00 351.00" xmlns="http://www.w3.org/2000/svg" xmlns:xlink="http://www.w3.org/1999/xlink">
<g id="graph0" class="graph" transform="scale(1 1) rotate(0) translate(4 347)">
<title>klyqa_ctl.vc1_vapp.sendMsg</title>
<polygon fill="white" stroke="transparent" points="-4,4 -4,-347 525,-347 525,4 -4,4"/>
<!-- Node1 -->
<g id="node1" class="node">
<title>Node1</title>
<g id="a_node1"><a xlink:title=" ">
<polygon fill="#bfbfbf" stroke="black" points="364,-167 364,-186 521,-186 521,-167 364,-167"/>
<text text-anchor="middle" x="442.5" y="-174" font-family="Helvetica,sans-Serif" font-size="10.00">klyqa_ctl.vc1_vapp.sendMsg</text>
</a>
</g>
</g>
<!-- Node2 -->
<g id="node2" class="node">
<title>Node2</title>
<g id="a_node2"><a xlink:href="namespaceklyqa__ctl_1_1vc1__vapp.html#af9bbad307e93e45d52b2cc509c4b5e47" target="_top" xlink:title=" ">
<polygon fill="white" stroke="black" points="191,-161.5 191,-191.5 328,-191.5 328,-161.5 191,-161.5"/>
<text text-anchor="start" x="199" y="-179.5" font-family="Helvetica,sans-Serif" font-size="10.00">klyqa_ctl.vc1_vapp.send</text>
<text text-anchor="middle" x="259.5" y="-168.5" font-family="Helvetica,sans-Serif" font-size="10.00">_message_queue</text>
</a>
</g>
</g>
<!-- Node1&#45;&gt;Node2 -->
<g id="edge1" class="edge">
<title>Node1&#45;&gt;Node2</title>
<path fill="none" stroke="midnightblue" d="M353.86,-176.5C345.23,-176.5 336.57,-176.5 328.19,-176.5"/>
<polygon fill="midnightblue" stroke="midnightblue" points="353.95,-180 363.95,-176.5 353.95,-173 353.95,-180"/>
</g>
<!-- Node3 -->
<g id="node3" class="node">
<title>Node3</title>
<g id="a_node3"><a xlink:href="namespaceklyqa__ctl_1_1vc1__vapp.html#ad79fa7f723e22959ec9e2274cd5e6377" target="_top" xlink:title=" ">
<polygon fill="white" stroke="black" points="13.5,-312.5 13.5,-342.5 141.5,-342.5 141.5,-312.5 13.5,-312.5"/>
<text text-anchor="start" x="21.5" y="-330.5" font-family="Helvetica,sans-Serif" font-size="10.00">klyqa_ctl.vc1_vapp.set</text>
<text text-anchor="middle" x="77.5" y="-319.5" font-family="Helvetica,sans-Serif" font-size="10.00">_factory_reset</text>
</a>
</g>
</g>
<!-- Node2&#45;&gt;Node3 -->
<g id="edge2" class="edge">
<title>Node2&#45;&gt;Node3</title>
<path fill="none" stroke="midnightblue" d="M244.7,-200.51C227.26,-228.8 194.69,-275.38 155,-302.5 149.35,-306.36 143.06,-309.66 136.58,-312.47"/>
<polygon fill="midnightblue" stroke="midnightblue" points="247.86,-202.04 250.02,-191.67 241.86,-198.43 247.86,-202.04"/>
</g>
<!-- Node4 -->
<g id="node4" class="node">
<title>Node4</title>
<g id="a_node4"><a xlink:href="namespaceklyqa__ctl_1_1vc1__vapp.html#a64afe8e6060ae2ae29950f783e5072e7" target="_top" xlink:title=" ">
<polygon fill="white" stroke="black" points="3,-274 3,-293 152,-293 152,-274 3,-274"/>
<text text-anchor="middle" x="77.5" y="-281" font-family="Helvetica,sans-Serif" font-size="10.00">klyqa_ctl.vc1_vapp.set_ota</text>
</a>
</g>
</g>
<!-- Node2&#45;&gt;Node4 -->
<g id="edge3" class="edge">
<title>Node2&#45;&gt;Node4</title>
<path fill="none" stroke="midnightblue" d="M237.88,-199.19C218.4,-219.26 187.42,-247.87 155,-264.5 147.45,-268.37 139.07,-271.48 130.71,-273.98"/>
<polygon fill="midnightblue" stroke="midnightblue" points="240.65,-201.36 245,-191.7 235.58,-196.53 240.65,-201.36"/>
</g>
<!-- Node5 -->
<g id="node5" class="node">
<title>Node5</title>
<g id="a_node5"><a xlink:href="namespaceklyqa__ctl_1_1vc1__vapp.html#a04744bf3e8d20e132b14e401809a369c" target="_top" xlink:title=" ">
<polygon fill="white" stroke="black" points="0,-236 0,-255 155,-255 155,-236 0,-236"/>
<text text-anchor="middle" x="77.5" y="-243" font-family="Helvetica,sans-Serif" font-size="10.00">klyqa_ctl.vc1_vapp.set_ping</text>
</a>
</g>
</g>
<!-- Node2&#45;&gt;Node5 -->
<g id="edge4" class="edge">
<title>Node2&#45;&gt;Node5</title>
<path fill="none" stroke="midnightblue" d="M221.95,-196.45C202.49,-206.48 177.9,-218.22 155,-226.5 144.96,-230.13 133.94,-233.31 123.46,-235.98"/>
<polygon fill="midnightblue" stroke="midnightblue" points="223.82,-199.42 231.06,-191.69 220.58,-193.22 223.82,-199.42"/>
</g>
<!-- Node6 -->
<g id="node6" class="node">
<title>Node6</title>
<g id="a_node6"><a xlink:href="namespaceklyqa__ctl_1_1vc1__vapp.html#a9b0b73e30ee39c0874ac60c35af8a834" target="_top" xlink:title=" ">
<polygon fill="white" stroke="black" points="13.5,-186.5 13.5,-216.5 141.5,-216.5 141.5,-186.5 13.5,-186.5"/>
<text text-anchor="start" x="21.5" y="-204.5" font-family="Helvetica,sans-Serif" font-size="10.00">klyqa_ctl.vc1_vapp.set</text>
<text text-anchor="middle" x="77.5" y="-193.5" font-family="Helvetica,sans-Serif" font-size="10.00">_reboot</text>
</a>
</g>
</g>
<!-- Node2&#45;&gt;Node6 -->
<g id="edge5" class="edge">
<title>Node2&#45;&gt;Node6</title>
<path fill="none" stroke="midnightblue" d="M181.01,-187.26C167.87,-189.09 154.37,-190.96 141.65,-192.73"/>
<polygon fill="midnightblue" stroke="midnightblue" points="181.54,-190.72 190.96,-185.88 180.58,-183.79 181.54,-190.72"/>
</g>
<!-- Node7 -->
<g id="node7" class="node">
<title>Node7</title>
<g id="a_node7"><a xlink:href="namespaceklyqa__ctl_1_1vc1__vapp.html#ac6422283b3923894ff4d650288d2028e" target="_top" xlink:title=" ">
<polygon fill="white" stroke="black" points="13.5,-137.5 13.5,-167.5 141.5,-167.5 141.5,-137.5 13.5,-137.5"/>
<text text-anchor="start" x="21.5" y="-155.5" font-family="Helvetica,sans-Serif" font-size="10.00">klyqa_ctl.vc1_vapp.set</text>
<text text-anchor="middle" x="77.5" y="-144.5" font-family="Helvetica,sans-Serif" font-size="10.00">_reset</text>
</a>
</g>
</g>
<!-- Node2&#45;&gt;Node7 -->
<g id="edge6" class="edge">
<title>Node2&#45;&gt;Node7</title>
<path fill="none" stroke="midnightblue" d="M181.01,-166.17C167.87,-164.42 154.37,-162.62 141.65,-160.92"/>
<polygon fill="midnightblue" stroke="midnightblue" points="180.59,-169.64 190.96,-167.5 181.51,-162.7 180.59,-169.64"/>
</g>
<!-- Node8 -->
<g id="node8" class="node">
<title>Node8</title>
<g id="a_node8"><a xlink:href="namespaceklyqa__ctl_1_1vc1__vapp.html#a04ed7df3ebac24f4905fe799b8e5ca05" target="_top" xlink:title=" ">
<polygon fill="white" stroke="black" points="3,-99 3,-118 152,-118 152,-99 3,-99"/>
<text text-anchor="middle" x="77.5" y="-106" font-family="Helvetica,sans-Serif" font-size="10.00">klyqa_ctl.vc1_vapp.set_set</text>
</a>
</g>
</g>
<!-- Node2&#45;&gt;Node8 -->
<g id="edge7" class="edge">
<title>Node2&#45;&gt;Node8</title>
<path fill="none" stroke="midnightblue" d="M220.58,-156.93C201.29,-147.49 177.27,-136.5 155,-128.5 144.02,-124.55 131.9,-121.02 120.6,-118.07"/>
<polygon fill="midnightblue" stroke="midnightblue" points="219.13,-160.12 229.64,-161.42 222.23,-153.84 219.13,-160.12"/>
</g>
<!-- Node9 -->
<g id="node9" class="node">
<title>Node9</title>
<g id="a_node9"><a xlink:href="namespaceklyqa__ctl_1_1vc1__vapp.html#a228923aa3b661c10d836a9b8f74658ed" target="_top" xlink:title=" ">
<polygon fill="white" stroke="black" points="13.5,-49.5 13.5,-79.5 141.5,-79.5 141.5,-49.5 13.5,-49.5"/>
<text text-anchor="start" x="21.5" y="-67.5" font-family="Helvetica,sans-Serif" font-size="10.00">klyqa_ctl.vc1_vapp.set</text>
<text text-anchor="middle" x="77.5" y="-56.5" font-family="Helvetica,sans-Serif" font-size="10.00">_state_request</text>
</a>
</g>
</g>
<!-- Node2&#45;&gt;Node9 -->
<g id="edge8" class="edge">
<title>Node2&#45;&gt;Node9</title>
<path fill="none" stroke="midnightblue" d="M236.86,-153.95C217.12,-134.52 186.33,-106.92 155,-89.5 148.28,-85.77 140.92,-82.48 133.5,-79.63"/>
<polygon fill="midnightblue" stroke="midnightblue" points="234.57,-156.61 244.11,-161.22 239.52,-151.67 234.57,-156.61"/>
</g>
<!-- Node10 -->
<g id="node10" class="node">
<title>Node10</title>
<g id="a_node10"><a xlink:href="namespaceklyqa__ctl_1_1vc1__vapp.html#a8dc197c937cae6b5e717c350c178d013" target="_top" xlink:title=" ">
<polygon fill="white" stroke="black" points="13.5,-0.5 13.5,-30.5 141.5,-30.5 141.5,-0.5 13.5,-0.5"/>
<text text-anchor="start" x="21.5" y="-18.5" font-family="Helvetica,sans-Serif" font-size="10.00">klyqa_ctl.vc1_vapp.set</text>
<text text-anchor="middle" x="77.5" y="-7.5" font-family="Helvetica,sans-Serif" font-size="10.00">_thingsboard</text>
</a>
</g>
</g>
<!-- Node2&#45;&gt;Node10 -->
<g id="edge9" class="edge">
<title>Node2&#45;&gt;Node10</title>
<path fill="none" stroke="midnightblue" d="M246.18,-152.39C229.49,-122.04 196.89,-70.29 155,-40.5 149.65,-36.69 143.68,-33.44 137.51,-30.67"/>
<polygon fill="midnightblue" stroke="midnightblue" points="243.22,-154.28 251.03,-161.44 249.39,-150.97 243.22,-154.28"/>
</g>
</g>
</svg>
