<?xml version="1.0" encoding="UTF-8" standalone="no"?>
<!DOCTYPE svg PUBLIC "-//W3C//DTD SVG 1.1//EN"
 "http://www.w3.org/Graphics/SVG/1.1/DTD/svg11.dtd">
<!-- Generated by graphviz version 2.43.0 (0)
 -->
<!-- Title: klyqa_ctl.general.general.task_log_error Pages: 1 -->
<svg width="592pt" height="198pt"
 viewBox="0.00 0.00 592.00 197.50" xmlns="http://www.w3.org/2000/svg" xmlns:xlink="http://www.w3.org/1999/xlink">
<g id="graph0" class="graph" transform="scale(1 1) rotate(0) translate(4 193.5)">
<title>klyqa_ctl.general.general.task_log_error</title>
<polygon fill="white" stroke="transparent" points="-4,4 -4,-193.5 588,-193.5 588,4 -4,4"/>
<!-- Node1 -->
<g id="node1" class="node">
<title>Node1</title>
<g id="a_node1"><a xlink:title=" ">
<polygon fill="#bfbfbf" stroke="black" points="420,-73.5 420,-103.5 584,-103.5 584,-73.5 420,-73.5"/>
<text text-anchor="start" x="428" y="-91.5" font-family="Helvetica,sans-Serif" font-size="10.00">klyqa_ctl.general.general.task</text>
<text text-anchor="middle" x="502" y="-80.5" font-family="Helvetica,sans-Serif" font-size="10.00">_log_error</text>
</a>
</g>
</g>
<!-- Node2 -->
<g id="node2" class="node">
<title>Node2</title>
<g id="a_node2"><a xlink:href="classlocal_1_1connection__handler_1_1LocalConnectionHandler.html#a0b582d0bf1523d1d0404867ab921539f" target="_top" xlink:title=" ">
<polygon fill="white" stroke="black" points="210,-148 210,-189 380,-189 380,-148 210,-148"/>
<text text-anchor="start" x="218" y="-177" font-family="Helvetica,sans-Serif" font-size="10.00">local.connection_handler.</text>
<text text-anchor="start" x="218" y="-166" font-family="Helvetica,sans-Serif" font-size="10.00">LocalConnectionHandler.device</text>
<text text-anchor="middle" x="295" y="-155" font-family="Helvetica,sans-Serif" font-size="10.00">_handle_local_tcp</text>
</a>
</g>
</g>
<!-- Node1&#45;&gt;Node2 -->
<g id="edge1" class="edge">
<title>Node1&#45;&gt;Node2</title>
<path fill="none" stroke="midnightblue" d="M458.33,-107.65C436.3,-117.3 408.88,-128.96 384,-138.5 375.71,-141.68 366.92,-144.88 358.23,-147.94"/>
<polygon fill="midnightblue" stroke="midnightblue" points="459.99,-110.74 467.74,-103.51 457.17,-104.34 459.99,-110.74"/>
</g>
<!-- Node4 -->
<g id="node4" class="node">
<title>Node4</title>
<g id="a_node4"><a xlink:href="classklyqa__ctl_1_1devices_1_1onboard_1_1Onboard.html#af28b551caec339826e2b209a20b88207" target="_top" xlink:title=" ">
<polygon fill="white" stroke="black" points="221.5,-98.5 221.5,-128.5 368.5,-128.5 368.5,-98.5 221.5,-98.5"/>
<text text-anchor="start" x="229.5" y="-116.5" font-family="Helvetica,sans-Serif" font-size="10.00">klyqa_ctl.devices.onboard.</text>
<text text-anchor="middle" x="295" y="-105.5" font-family="Helvetica,sans-Serif" font-size="10.00">Onboard.Onboard_receive</text>
</a>
</g>
</g>
<!-- Node1&#45;&gt;Node4 -->
<g id="edge3" class="edge">
<title>Node1&#45;&gt;Node4</title>
<path fill="none" stroke="midnightblue" d="M410,-99.6C396.2,-101.28 382.13,-103 368.78,-104.62"/>
<polygon fill="midnightblue" stroke="midnightblue" points="410.48,-103.07 419.98,-98.38 409.63,-96.12 410.48,-103.07"/>
</g>
<!-- Node5 -->
<g id="node5" class="node">
<title>Node5</title>
<g id="a_node5"><a xlink:href="classklyqa__ctl_1_1devices_1_1onboard_1_1Onboard.html#a04ff72b185dd79eb70ded5f29d7cc61c" target="_top" xlink:title=" ">
<polygon fill="white" stroke="black" points="218.5,-49.5 218.5,-79.5 371.5,-79.5 371.5,-49.5 218.5,-49.5"/>
<text text-anchor="start" x="226.5" y="-67.5" font-family="Helvetica,sans-Serif" font-size="10.00">klyqa_ctl.devices.onboard.</text>
<text text-anchor="middle" x="295" y="-56.5" font-family="Helvetica,sans-Serif" font-size="10.00">Onboard.onboarding_device</text>
</a>
</g>
</g>
<!-- Node1&#45;&gt;Node5 -->
<g id="edge4" class="edge">
<title>Node1&#45;&gt;Node5</title>
<path fill="none" stroke="midnightblue" d="M409.84,-77.83C397.12,-76.34 384.16,-74.82 371.76,-73.37"/>
<polygon fill="midnightblue" stroke="midnightblue" points="409.64,-81.33 419.98,-79.01 410.45,-74.38 409.64,-81.33"/>
</g>
<!-- Node6 -->
<g id="node6" class="node">
<title>Node6</title>
<g id="a_node6"><a xlink:href="classklyqa__ctl_1_1general_1_1general_1_1AsyncIoLock.html#a25fbc33880c976000ef3b6e70c7691c9" target="_top" xlink:title=" ">
<polygon fill="white" stroke="black" points="206,-0.5 206,-30.5 384,-30.5 384,-0.5 206,-0.5"/>
<text text-anchor="start" x="214" y="-18.5" font-family="Helvetica,sans-Serif" font-size="10.00">klyqa_ctl.general.general.</text>
<text text-anchor="middle" x="295" y="-7.5" font-family="Helvetica,sans-Serif" font-size="10.00">AsyncIoLock.release_within_task</text>
</a>
</g>
</g>
<!-- Node1&#45;&gt;Node6 -->
<g id="edge5" class="edge">
<title>Node1&#45;&gt;Node6</title>
<path fill="none" stroke="midnightblue" d="M457.74,-69.39C435.86,-60.08 408.76,-49.07 384,-40.5 373.94,-37.02 363.12,-33.65 352.63,-30.57"/>
<polygon fill="midnightblue" stroke="midnightblue" points="456.52,-72.67 467.09,-73.4 459.28,-66.24 456.52,-72.67"/>
</g>
<!-- Node3 -->
<g id="node3" class="node">
<title>Node3</title>
<g id="a_node3"><a xlink:href="classlocal_1_1connection__handler_1_1LocalConnectionHandler.html#a5e9277acd0b7bfa5a1e74417e0e10d86" target="_top" xlink:title=" ">
<polygon fill="white" stroke="black" points="0,-148 0,-189 170,-189 170,-148 0,-148"/>
<text text-anchor="start" x="8" y="-177" font-family="Helvetica,sans-Serif" font-size="10.00">local.connection_handler.</text>
<text text-anchor="start" x="8" y="-166" font-family="Helvetica,sans-Serif" font-size="10.00">LocalConnectionHandler.handle</text>
<text text-anchor="middle" x="85" y="-155" font-family="Helvetica,sans-Serif" font-size="10.00">_incoming_tcp_connection</text>
</a>
</g>
</g>
<!-- Node2&#45;&gt;Node3 -->
<g id="edge2" class="edge">
<title>Node2&#45;&gt;Node3</title>
<path fill="none" stroke="midnightblue" d="M199.81,-168.5C189.98,-168.5 180.03,-168.5 170.32,-168.5"/>
<polygon fill="midnightblue" stroke="midnightblue" points="200,-172 210,-168.5 200,-165 200,-172"/>
</g>
</g>
</svg>
