<?xml version="1.0" encoding="UTF-8" standalone="no"?>
<!DOCTYPE svg PUBLIC "-//W3C//DTD SVG 1.1//EN"
 "http://www.w3.org/Graphics/SVG/1.1/DTD/svg11.dtd">
<!-- Generated by graphviz version 2.43.0 (0)
 -->
<!-- Title: klyqa_ctl.vc1_vapp.set_state_request Pages: 1 -->
<svg width="517pt" height="137pt"
 viewBox="0.00 0.00 517.00 137.00" xmlns="http://www.w3.org/2000/svg" xmlns:xlink="http://www.w3.org/1999/xlink">
<g id="graph0" class="graph" transform="scale(1 1) rotate(0) translate(4 133)">
<title>klyqa_ctl.vc1_vapp.set_state_request</title>
<polygon fill="white" stroke="transparent" points="-4,4 -4,-133 513,-133 513,4 -4,4"/>
<!-- Node1 -->
<g id="node1" class="node">
<title>Node1</title>
<g id="a_node1"><a xlink:title=" ">
<polygon fill="#bfbfbf" stroke="black" points="0,-49.5 0,-79.5 128,-79.5 128,-49.5 0,-49.5"/>
<text text-anchor="start" x="8" y="-67.5" font-family="Helvetica,sans-Serif" font-size="10.00">klyqa_ctl.vc1_vapp.set</text>
<text text-anchor="middle" x="64" y="-56.5" font-family="Helvetica,sans-Serif" font-size="10.00">_state_request</text>
</a>
</g>
</g>
<!-- Node2 -->
<g id="node2" class="node">
<title>Node2</title>
<g id="a_node2"><a xlink:href="namespaceklyqa__ctl_1_1vc1__vapp.html#aae537b913e2d9ad4c757dea27b5f9dd5" target="_top" xlink:title=" ">
<polygon fill="white" stroke="black" points="164,-98.5 164,-128.5 316,-128.5 316,-98.5 164,-98.5"/>
<text text-anchor="start" x="172" y="-116.5" font-family="Helvetica,sans-Serif" font-size="10.00">klyqa_ctl.vc1_vapp.connect</text>
<text text-anchor="middle" x="240" y="-105.5" font-family="Helvetica,sans-Serif" font-size="10.00">_sockets</text>
</a>
</g>
</g>
<!-- Node1&#45;&gt;Node2 -->
<g id="edge1" class="edge">
<title>Node1&#45;&gt;Node2</title>
<path fill="none" stroke="midnightblue" d="M118.63,-79.6C136.74,-84.7 157.12,-90.44 175.9,-95.73"/>
<polygon fill="midnightblue" stroke="midnightblue" points="174.98,-99.11 185.55,-98.45 176.87,-92.37 174.98,-99.11"/>
</g>
<!-- Node3 -->
<g id="node3" class="node">
<title>Node3</title>
<g id="a_node3"><a xlink:href="namespaceklyqa__ctl_1_1vc1__vapp.html#af9bbad307e93e45d52b2cc509c4b5e47" target="_top" xlink:title=" ">
<polygon fill="white" stroke="black" points="171.5,-49.5 171.5,-79.5 308.5,-79.5 308.5,-49.5 171.5,-49.5"/>
<text text-anchor="start" x="179.5" y="-67.5" font-family="Helvetica,sans-Serif" font-size="10.00">klyqa_ctl.vc1_vapp.send</text>
<text text-anchor="middle" x="240" y="-56.5" font-family="Helvetica,sans-Serif" font-size="10.00">_message_queue</text>
</a>
</g>
</g>
<!-- Node1&#45;&gt;Node3 -->
<g id="edge2" class="edge">
<title>Node1&#45;&gt;Node3</title>
<path fill="none" stroke="midnightblue" d="M128.31,-64.5C139.02,-64.5 150.25,-64.5 161.29,-64.5"/>
<polygon fill="midnightblue" stroke="midnightblue" points="161.34,-68 171.34,-64.5 161.34,-61 161.34,-68"/>
</g>
<!-- Node5 -->
<g id="node5" class="node">
<title>Node5</title>
<g id="a_node5"><a xlink:href="namespaceklyqa__ctl_1_1vc1__vapp.html#a7a932787ca69397d4525614b4f99c60e" target="_top" xlink:title=" ">
<polygon fill="white" stroke="black" points="176,-0.5 176,-30.5 304,-30.5 304,-0.5 176,-0.5"/>
<text text-anchor="start" x="184" y="-18.5" font-family="Helvetica,sans-Serif" font-size="10.00">klyqa_ctl.vc1_vapp.set</text>
<text text-anchor="middle" x="240" y="-7.5" font-family="Helvetica,sans-Serif" font-size="10.00">_up_sockets</text>
</a>
</g>
</g>
<!-- Node1&#45;&gt;Node5 -->
<g id="edge4" class="edge">
<title>Node1&#45;&gt;Node5</title>
<path fill="none" stroke="midnightblue" d="M118.63,-49.4C136.74,-44.3 157.12,-38.56 175.9,-33.27"/>
<polygon fill="midnightblue" stroke="midnightblue" points="176.87,-36.63 185.55,-30.55 174.98,-29.89 176.87,-36.63"/>
</g>
<!-- Node4 -->
<g id="node4" class="node">
<title>Node4</title>
<g id="a_node4"><a xlink:href="namespaceklyqa__ctl_1_1vc1__vapp.html#aa2408173ac895e73b8238a3fa449fd24" target="_top" xlink:title=" ">
<polygon fill="white" stroke="black" points="352,-55 352,-74 509,-74 509,-55 352,-55"/>
<text text-anchor="middle" x="430.5" y="-62" font-family="Helvetica,sans-Serif" font-size="10.00">klyqa_ctl.vc1_vapp.sendMsg</text>
</a>
</g>
</g>
<!-- Node3&#45;&gt;Node4 -->
<g id="edge3" class="edge">
<title>Node3&#45;&gt;Node4</title>
<path fill="none" stroke="midnightblue" d="M308.52,-64.5C319.28,-64.5 330.54,-64.5 341.68,-64.5"/>
<polygon fill="midnightblue" stroke="midnightblue" points="341.87,-68 351.87,-64.5 341.87,-61 341.87,-68"/>
</g>
</g>
</svg>
