<?xml version="1.0" encoding="UTF-8" standalone="no"?>
<!DOCTYPE svg PUBLIC "-//W3C//DTD SVG 1.1//EN"
 "http://www.w3.org/Graphics/SVG/1.1/DTD/svg11.dtd">
<!-- Generated by graphviz version 2.43.0 (0)
 -->
<!-- Title: klyqa_ctl.general.general.set_debug_logger Pages: 1 -->
<svg width="570pt" height="96pt"
 viewBox="0.00 0.00 570.00 95.50" xmlns="http://www.w3.org/2000/svg" xmlns:xlink="http://www.w3.org/1999/xlink">
<g id="graph0" class="graph" transform="scale(1 1) rotate(0) translate(4 91.5)">
<title>klyqa_ctl.general.general.set_debug_logger</title>
<polygon fill="white" stroke="transparent" points="-4,4 -4,-91.5 566,-91.5 566,4 -4,4"/>
<!-- Node1 -->
<g id="node1" class="node">
<title>Node1</title>
<g id="a_node1"><a xlink:title=" ">
<polygon fill="#bfbfbf" stroke="black" points="404,-31.5 404,-61.5 562,-61.5 562,-31.5 404,-31.5"/>
<text text-anchor="start" x="412" y="-49.5" font-family="Helvetica,sans-Serif" font-size="10.00">klyqa_ctl.general.general.set</text>
<text text-anchor="middle" x="483" y="-38.5" font-family="Helvetica,sans-Serif" font-size="10.00">_debug_logger</text>
</a>
</g>
</g>
<!-- Node2 -->
<g id="node2" class="node">
<title>Node2</title>
<g id="a_node2"><a xlink:href="namespaceklyqa__ctl_1_1klyqa__ctl.html#afe1b8490f9810b885e4048d7bef472a7" target="_top" xlink:title=" ">
<polygon fill="white" stroke="black" points="217,-68 217,-87 353,-87 353,-68 217,-68"/>
<text text-anchor="middle" x="285" y="-75" font-family="Helvetica,sans-Serif" font-size="10.00">klyqa_ctl.klyqa_ctl.main</text>
</a>
</g>
</g>
<!-- Node1&#45;&gt;Node2 -->
<g id="edge1" class="edge">
<title>Node1&#45;&gt;Node2</title>
<path fill="none" stroke="midnightblue" d="M393.99,-60.42C377.84,-62.97 361.34,-65.58 346.24,-67.97"/>
<polygon fill="midnightblue" stroke="midnightblue" points="394.64,-63.86 403.97,-58.84 393.55,-56.95 394.64,-63.86"/>
</g>
<!-- Node3 -->
<g id="node3" class="node">
<title>Node3</title>
<g id="a_node3"><a xlink:href="classklyqa__ctl_1_1klyqa__ctl_1_1Client.html#ad5c42cd8dd34ed1d6329040e164bfc2e" target="_top" xlink:title=" ">
<polygon fill="white" stroke="black" points="202,-0.5 202,-30.5 368,-30.5 368,-0.5 202,-0.5"/>
<text text-anchor="start" x="210" y="-18.5" font-family="Helvetica,sans-Serif" font-size="10.00">klyqa_ctl.klyqa_ctl.Client.send</text>
<text text-anchor="middle" x="285" y="-7.5" font-family="Helvetica,sans-Serif" font-size="10.00">_to_devices</text>
</a>
</g>
</g>
<!-- Node1&#45;&gt;Node3 -->
<g id="edge2" class="edge">
<title>Node1&#45;&gt;Node3</title>
<path fill="none" stroke="midnightblue" d="M393.99,-32.58C385.42,-31.23 376.76,-29.85 368.26,-28.51"/>
<polygon fill="midnightblue" stroke="midnightblue" points="393.55,-36.05 403.97,-34.16 394.64,-29.14 393.55,-36.05"/>
</g>
<!-- Node3&#45;&gt;Node3 -->
<g id="edge3" class="edge">
<title>Node3&#45;&gt;Node3</title>
<path fill="none" stroke="midnightblue" d="M320.18,-40.96C315.82,-45.68 304.09,-49 285,-49 253.68,-49 242.17,-40.06 250.49,-30.66"/>
<polygon fill="midnightblue" stroke="midnightblue" points="323.65,-40.41 319.51,-30.66 316.67,-40.87 323.65,-40.41"/>
</g>
<!-- Node4 -->
<g id="node4" class="node">
<title>Node4</title>
<g id="a_node4"><a xlink:href="classklyqa__ctl_1_1klyqa__ctl_1_1Client.html#a7a93bda9f242d678a4208d0962837f11" target="_top" xlink:title=" ">
<polygon fill="white" stroke="black" points="0,-0.5 0,-30.5 166,-30.5 166,-0.5 0,-0.5"/>
<text text-anchor="start" x="8" y="-18.5" font-family="Helvetica,sans-Serif" font-size="10.00">klyqa_ctl.klyqa_ctl.Client.send</text>
<text text-anchor="middle" x="83" y="-7.5" font-family="Helvetica,sans-Serif" font-size="10.00">_to_devices_wrapped</text>
</a>
</g>
</g>
<!-- Node3&#45;&gt;Node4 -->
<g id="edge4" class="edge">
<title>Node3&#45;&gt;Node4</title>
<path fill="none" stroke="midnightblue" d="M191.53,-15.5C183.09,-15.5 174.57,-15.5 166.22,-15.5"/>
<polygon fill="midnightblue" stroke="midnightblue" points="191.79,-19 201.79,-15.5 191.79,-12 191.79,-19"/>
</g>
</g>
</svg>
