<?xml version="1.0" encoding="UTF-8" standalone="no"?>
<!DOCTYPE svg PUBLIC "-//W3C//DTD SVG 1.1//EN"
 "http://www.w3.org/Graphics/SVG/1.1/DTD/svg11.dtd">
<!-- Generated by graphviz version 2.43.0 (0)
 -->
<!-- Title: klyqa_ctl.klyqa_ctl.main Pages: 1 -->
<svg width="855pt" height="284pt"
 viewBox="0.00 0.00 855.00 284.00" xmlns="http://www.w3.org/2000/svg" xmlns:xlink="http://www.w3.org/1999/xlink">
<g id="graph0" class="graph" transform="scale(1 1) rotate(0) translate(4 280)">
<title>klyqa_ctl.klyqa_ctl.main</title>
<polygon fill="white" stroke="transparent" points="-4,4 -4,-280 851,-280 851,4 -4,4"/>
<!-- Node1 -->
<g id="node1" class="node">
<title>Node1</title>
<g id="a_node1"><a xlink:title=" ">
<polygon fill="#bfbfbf" stroke="black" points="0,-128 0,-147 136,-147 136,-128 0,-128"/>
<text text-anchor="middle" x="68" y="-135" font-family="Helvetica,sans-Serif" font-size="10.00">klyqa_ctl.klyqa_ctl.main</text>
</a>
</g>
</g>
<!-- Node2 -->
<g id="node2" class="node">
<title>Node2</title>
<g id="a_node2"><a xlink:href="namespaceklyqa__ctl_1_1devices_1_1light_1_1commands.html#a9a2f224816a4dab65a2d877cd38b657b" target="_top" xlink:title=" ">
<polygon fill="white" stroke="black" points="180.5,-245.5 180.5,-275.5 384.5,-275.5 384.5,-245.5 180.5,-245.5"/>
<text text-anchor="start" x="188.5" y="-263.5" font-family="Helvetica,sans-Serif" font-size="10.00">klyqa_ctl.devices.light.commands.add</text>
<text text-anchor="middle" x="282.5" y="-252.5" font-family="Helvetica,sans-Serif" font-size="10.00">_command_args_bulb</text>
</a>
</g>
</g>
<!-- Node1&#45;&gt;Node2 -->
<g id="edge1" class="edge">
<title>Node1&#45;&gt;Node2</title>
<path fill="none" stroke="midnightblue" d="M76.02,-147.18C91.14,-167.26 128.9,-213.48 172,-236.5 175.52,-238.38 179.18,-240.11 182.93,-241.71"/>
<polygon fill="midnightblue" stroke="midnightblue" points="181.84,-245.04 192.43,-245.41 184.38,-238.52 181.84,-245.04"/>
</g>
<!-- Node3 -->
<g id="node3" class="node">
<title>Node3</title>
<g id="a_node3"><a xlink:href="namespaceklyqa__ctl_1_1devices_1_1vacuum_1_1commands.html#ad486c28adf7b9c4ed9672fc04dfde7ef" target="_top" xlink:title=" ">
<polygon fill="white" stroke="black" points="172,-196.5 172,-226.5 393,-226.5 393,-196.5 172,-196.5"/>
<text text-anchor="start" x="180" y="-214.5" font-family="Helvetica,sans-Serif" font-size="10.00">klyqa_ctl.devices.vacuum.commands.add</text>
<text text-anchor="middle" x="282.5" y="-203.5" font-family="Helvetica,sans-Serif" font-size="10.00">_command_args_cleaner</text>
</a>
</g>
</g>
<!-- Node1&#45;&gt;Node3 -->
<g id="edge2" class="edge">
<title>Node1&#45;&gt;Node3</title>
<path fill="none" stroke="midnightblue" d="M85.61,-147.09C105.54,-158.23 140.26,-176.49 172,-187.5 178.49,-189.75 185.26,-191.83 192.13,-193.76"/>
<polygon fill="midnightblue" stroke="midnightblue" points="191.66,-197.26 202.23,-196.46 193.47,-190.49 191.66,-197.26"/>
</g>
<!-- Node4 -->
<g id="node4" class="node">
<title>Node4</title>
<g id="a_node4"><a xlink:href="namespaceklyqa__ctl_1_1general_1_1parameters.html#a4d4508f84ab7a6044c74575f197f852b" target="_top" xlink:title=" ">
<polygon fill="white" stroke="black" points="192,-147.5 192,-177.5 373,-177.5 373,-147.5 192,-147.5"/>
<text text-anchor="start" x="200" y="-165.5" font-family="Helvetica,sans-Serif" font-size="10.00">klyqa_ctl.general.parameters.add</text>
<text text-anchor="middle" x="282.5" y="-154.5" font-family="Helvetica,sans-Serif" font-size="10.00">_config_args</text>
</a>
</g>
</g>
<!-- Node1&#45;&gt;Node4 -->
<g id="edge3" class="edge">
<title>Node1&#45;&gt;Node4</title>
<path fill="none" stroke="midnightblue" d="M136.24,-145.41C150.7,-147.11 166.28,-148.94 181.68,-150.76"/>
<polygon fill="midnightblue" stroke="midnightblue" points="181.43,-154.25 191.77,-151.94 182.24,-147.3 181.43,-154.25"/>
</g>
<!-- Node5 -->
<g id="node5" class="node">
<title>Node5</title>
<g id="a_node5"><a xlink:href="namespaceklyqa__ctl_1_1general_1_1parameters.html#a38b90c6125a60eeabd89d4addab053b4" target="_top" xlink:title=" ">
<polygon fill="white" stroke="black" points="193,-98.5 193,-128.5 372,-128.5 372,-98.5 193,-98.5"/>
<text text-anchor="start" x="201" y="-116.5" font-family="Helvetica,sans-Serif" font-size="10.00">klyqa_ctl.general.parameters.get</text>
<text text-anchor="middle" x="282.5" y="-105.5" font-family="Helvetica,sans-Serif" font-size="10.00">_description_parser</text>
</a>
</g>
</g>
<!-- Node1&#45;&gt;Node5 -->
<g id="edge4" class="edge">
<title>Node1&#45;&gt;Node5</title>
<path fill="none" stroke="midnightblue" d="M136.24,-129.91C151,-128.24 166.93,-126.44 182.64,-124.67"/>
<polygon fill="midnightblue" stroke="midnightblue" points="183.38,-128.1 192.92,-123.5 182.59,-121.15 183.38,-128.1"/>
</g>
<!-- Node6 -->
<g id="node6" class="node">
<title>Node6</title>
<g id="a_node6"><a xlink:href="namespaceklyqa__ctl_1_1general_1_1general.html#a6e74b8cc4bae98fa55902e4b875af67e" target="_top" xlink:title=" ">
<polygon fill="white" stroke="black" points="203.5,-49.5 203.5,-79.5 361.5,-79.5 361.5,-49.5 203.5,-49.5"/>
<text text-anchor="start" x="211.5" y="-67.5" font-family="Helvetica,sans-Serif" font-size="10.00">klyqa_ctl.general.general.set</text>
<text text-anchor="middle" x="282.5" y="-56.5" font-family="Helvetica,sans-Serif" font-size="10.00">_debug_logger</text>
</a>
</g>
</g>
<!-- Node1&#45;&gt;Node6 -->
<g id="edge5" class="edge">
<title>Node1&#45;&gt;Node6</title>
<path fill="none" stroke="midnightblue" d="M86.75,-127.81C106.91,-117.15 141.02,-100.12 172,-89.5 179.82,-86.82 188.06,-84.34 196.35,-82.07"/>
<polygon fill="midnightblue" stroke="midnightblue" points="197.32,-85.43 206.1,-79.5 195.54,-78.66 197.32,-85.43"/>
</g>
<!-- Node7 -->
<g id="node7" class="node">
<title>Node7</title>
<g id="a_node7"><a xlink:href="namespaceklyqa__ctl_1_1general_1_1general.html#a1afe30a73cc28a3b65babeeab27e36c8" target="_top" xlink:title=" ">
<polygon fill="white" stroke="black" points="200.5,-0.5 200.5,-30.5 364.5,-30.5 364.5,-0.5 200.5,-0.5"/>
<text text-anchor="start" x="208.5" y="-18.5" font-family="Helvetica,sans-Serif" font-size="10.00">klyqa_ctl.general.general.task</text>
<text text-anchor="middle" x="282.5" y="-7.5" font-family="Helvetica,sans-Serif" font-size="10.00">_log_debug</text>
</a>
</g>
</g>
<!-- Node1&#45;&gt;Node7 -->
<g id="edge6" class="edge">
<title>Node1&#45;&gt;Node7</title>
<path fill="none" stroke="midnightblue" d="M76.32,-127.75C91.71,-107.98 129.52,-63.16 172,-40.5 177.95,-37.32 184.3,-34.55 190.82,-32.13"/>
<polygon fill="midnightblue" stroke="midnightblue" points="192.15,-35.37 200.47,-28.83 189.88,-28.75 192.15,-35.37"/>
</g>
<!-- Node8 -->
<g id="node8" class="node">
<title>Node8</title>
<g id="a_node8"><a xlink:href="namespaceklyqa__ctl_1_1general_1_1general.html#a9df3b50dfc0fcc7c8ec991bb9be9c5ba" target="_top" xlink:title=" ">
<polygon fill="white" stroke="black" points="429,-6 429,-25 614,-25 614,-6 429,-6"/>
<text text-anchor="middle" x="521.5" y="-13" font-family="Helvetica,sans-Serif" font-size="10.00">klyqa_ctl.general.general.task_log</text>
</a>
</g>
</g>
<!-- Node7&#45;&gt;Node8 -->
<g id="edge7" class="edge">
<title>Node7&#45;&gt;Node8</title>
<path fill="none" stroke="midnightblue" d="M364.73,-15.5C382.06,-15.5 400.58,-15.5 418.57,-15.5"/>
<polygon fill="midnightblue" stroke="midnightblue" points="418.8,-19 428.8,-15.5 418.8,-12 418.8,-19"/>
</g>
<!-- Node9 -->
<g id="node9" class="node">
<title>Node9</title>
<g id="a_node9"><a xlink:href="namespaceklyqa__ctl_1_1general_1_1general.html#aea905150cafee39fa2ca211f1e60f012" target="_top" xlink:title=" ">
<polygon fill="white" stroke="black" points="650,-6 650,-25 847,-25 847,-6 650,-6"/>
<text text-anchor="middle" x="748.5" y="-13" font-family="Helvetica,sans-Serif" font-size="10.00">klyqa_ctl.general.general.task_name</text>
</a>
</g>
</g>
<!-- Node8&#45;&gt;Node9 -->
<g id="edge8" class="edge">
<title>Node8&#45;&gt;Node9</title>
<path fill="none" stroke="midnightblue" d="M614.02,-15.5C622.5,-15.5 631.15,-15.5 639.76,-15.5"/>
<polygon fill="midnightblue" stroke="midnightblue" points="639.83,-19 649.83,-15.5 639.83,-12 639.83,-19"/>
</g>
</g>
</svg>
