<?xml version="1.0" encoding="UTF-8" standalone="no"?>
<!DOCTYPE svg PUBLIC "-//W3C//DTD SVG 1.1//EN"
 "http://www.w3.org/Graphics/SVG/1.1/DTD/svg11.dtd">
<!-- Generated by graphviz version 2.43.0 (0)
 -->
<!-- Title: klyqa_ctl.general.general.format_uid Pages: 1 -->
<svg width="623pt" height="127pt"
 viewBox="0.00 0.00 623.00 127.00" xmlns="http://www.w3.org/2000/svg" xmlns:xlink="http://www.w3.org/1999/xlink">
<g id="graph0" class="graph" transform="scale(1 1) rotate(0) translate(4 123)">
<title>klyqa_ctl.general.general.format_uid</title>
<polygon fill="white" stroke="transparent" points="-4,4 -4,-123 619,-123 619,4 -4,4"/>
<!-- Node1 -->
<g id="node1" class="node">
<title>Node1</title>
<g id="a_node1"><a xlink:title=" ">
<polygon fill="#bfbfbf" stroke="black" points="418,-50 418,-69 615,-69 615,-50 418,-50"/>
<text text-anchor="middle" x="516.5" y="-57" font-family="Helvetica,sans-Serif" font-size="10.00">klyqa_ctl.general.general.format_uid</text>
</a>
</g>
</g>
<!-- Node2 -->
<g id="node2" class="node">
<title>Node2</title>
<g id="a_node2"><a xlink:href="classklyqa__ctl_1_1account_1_1Account.html#a748c13aed7b2a5c9c605c81234633cb8" target="_top" xlink:title=" ">
<polygon fill="white" stroke="black" points="209,-88.5 209,-118.5 382,-118.5 382,-88.5 209,-88.5"/>
<text text-anchor="start" x="217" y="-106.5" font-family="Helvetica,sans-Serif" font-size="10.00">klyqa_ctl.account.Account.cloud</text>
<text text-anchor="middle" x="295.5" y="-95.5" font-family="Helvetica,sans-Serif" font-size="10.00">_post_to_device</text>
</a>
</g>
</g>
<!-- Node1&#45;&gt;Node2 -->
<g id="edge1" class="edge">
<title>Node1&#45;&gt;Node2</title>
<path fill="none" stroke="midnightblue" d="M458.11,-71.03C431.62,-76.35 399.83,-82.74 371.48,-88.43"/>
<polygon fill="midnightblue" stroke="midnightblue" points="458.87,-74.45 467.98,-69.05 457.49,-67.59 458.87,-74.45"/>
</g>
<!-- Node4 -->
<g id="node4" class="node">
<title>Node4</title>
<g id="a_node4"><a xlink:href="classcloud_1_1CloudBackend.html#a8db40a99748dc3cc160e5093da0f84e8" target="_top" xlink:title=" ">
<polygon fill="white" stroke="black" points="225,-50 225,-69 366,-69 366,-50 225,-50"/>
<text text-anchor="middle" x="295.5" y="-57" font-family="Helvetica,sans-Serif" font-size="10.00">cloud.CloudBackend.send</text>
</a>
</g>
</g>
<!-- Node1&#45;&gt;Node4 -->
<g id="edge3" class="edge">
<title>Node1&#45;&gt;Node4</title>
<path fill="none" stroke="midnightblue" d="M407.59,-59.5C393.47,-59.5 379.32,-59.5 366.08,-59.5"/>
<polygon fill="midnightblue" stroke="midnightblue" points="407.85,-63 417.85,-59.5 407.85,-56 407.85,-63"/>
</g>
<!-- Node5 -->
<g id="node5" class="node">
<title>Node5</title>
<g id="a_node5"><a xlink:href="classklyqa__ctl_1_1account_1_1Account.html#a8e93f6fe918bf32c172447d4ef439d2d" target="_top" xlink:title=" ">
<polygon fill="white" stroke="black" points="210.5,-0.5 210.5,-30.5 380.5,-30.5 380.5,-0.5 210.5,-0.5"/>
<text text-anchor="start" x="218.5" y="-18.5" font-family="Helvetica,sans-Serif" font-size="10.00">klyqa_ctl.account.Account.sync</text>
<text text-anchor="middle" x="295.5" y="-7.5" font-family="Helvetica,sans-Serif" font-size="10.00">_acc_settings_to_controller</text>
</a>
</g>
</g>
<!-- Node1&#45;&gt;Node5 -->
<g id="edge4" class="edge">
<title>Node1&#45;&gt;Node5</title>
<path fill="none" stroke="midnightblue" d="M458.11,-47.97C431.62,-42.65 399.83,-36.26 371.48,-30.57"/>
<polygon fill="midnightblue" stroke="midnightblue" points="457.49,-51.41 467.98,-49.95 458.87,-44.55 457.49,-51.41"/>
</g>
<!-- Node3 -->
<g id="node3" class="node">
<title>Node3</title>
<g id="a_node3"><a xlink:href="classklyqa__ctl_1_1account_1_1Account.html#a372d813db2141719743dfe088dbe9552" target="_top" xlink:title=" ">
<polygon fill="white" stroke="black" points="0,-88.5 0,-118.5 173,-118.5 173,-88.5 0,-88.5"/>
<text text-anchor="start" x="8" y="-106.5" font-family="Helvetica,sans-Serif" font-size="10.00">klyqa_ctl.account.Account.cloud</text>
<text text-anchor="middle" x="86.5" y="-95.5" font-family="Helvetica,sans-Serif" font-size="10.00">_post_command_to_dev</text>
</a>
</g>
</g>
<!-- Node2&#45;&gt;Node3 -->
<g id="edge2" class="edge">
<title>Node2&#45;&gt;Node3</title>
<path fill="none" stroke="midnightblue" d="M198.8,-103.5C190.24,-103.5 181.6,-103.5 173.12,-103.5"/>
<polygon fill="midnightblue" stroke="midnightblue" points="198.81,-107 208.81,-103.5 198.81,-100 198.81,-107"/>
</g>
</g>
</svg>
