<?xml version="1.0" encoding="UTF-8" standalone="no"?>
<!DOCTYPE svg PUBLIC "-//W3C//DTD SVG 1.1//EN"
 "http://www.w3.org/Graphics/SVG/1.1/DTD/svg11.dtd">
<!-- Generated by graphviz version 2.43.0 (0)
 -->
<!-- Title: klyqa_ctl.devices.light.commands.forced_continue Pages: 1 -->
<svg width="718pt" height="193pt"
 viewBox="0.00 0.00 718.00 193.00" xmlns="http://www.w3.org/2000/svg" xmlns:xlink="http://www.w3.org/1999/xlink">
<g id="graph0" class="graph" transform="scale(1 1) rotate(0) translate(4 189)">
<title>klyqa_ctl.devices.light.commands.forced_continue</title>
<polygon fill="white" stroke="transparent" points="-4,4 -4,-189 714,-189 714,4 -4,4"/>
<!-- Node1 -->
<g id="node1" class="node">
<title>Node1</title>
<g id="a_node1"><a xlink:title=" ">
<polygon fill="#bfbfbf" stroke="black" points="493,-74.5 493,-104.5 710,-104.5 710,-74.5 493,-74.5"/>
<text text-anchor="start" x="501" y="-92.5" font-family="Helvetica,sans-Serif" font-size="10.00">klyqa_ctl.devices.light.commands.forced</text>
<text text-anchor="middle" x="601.5" y="-81.5" font-family="Helvetica,sans-Serif" font-size="10.00">_continue</text>
</a>
</g>
</g>
<!-- Node2 -->
<g id="node2" class="node">
<title>Node2</title>
<g id="a_node2"><a xlink:href="classklyqa__ctl_1_1devices_1_1light_1_1commands_1_1ColorCommand.html#a398df61cf2d815c4d338ef0131482c6d" target="_top" xlink:title=" ">
<polygon fill="white" stroke="black" points="5.5,-154.5 5.5,-184.5 191.5,-184.5 191.5,-154.5 5.5,-154.5"/>
<text text-anchor="start" x="13.5" y="-172.5" font-family="Helvetica,sans-Serif" font-size="10.00">klyqa_ctl.devices.light.commands.</text>
<text text-anchor="middle" x="98.5" y="-161.5" font-family="Helvetica,sans-Serif" font-size="10.00">ColorCommand.check_values</text>
</a>
</g>
</g>
<!-- Node1&#45;&gt;Node2 -->
<g id="edge1" class="edge">
<title>Node1&#45;&gt;Node2</title>
<path fill="none" stroke="midnightblue" d="M548.4,-107.69C521.43,-116.45 487.78,-126.35 457,-132.5 367.82,-150.31 264.3,-159.84 191.68,-164.73"/>
<polygon fill="midnightblue" stroke="midnightblue" points="549.61,-110.98 558.02,-104.52 547.43,-104.33 549.61,-110.98"/>
</g>
<!-- Node3 -->
<g id="node3" class="node">
<title>Node3</title>
<g id="a_node3"><a xlink:href="classklyqa__ctl_1_1devices_1_1light_1_1commands_1_1TemperatureCommand.html#a34847a5ef38a13569bc640791d11508b" target="_top" xlink:title=" ">
<polygon fill="white" stroke="black" points="0,-104.5 0,-134.5 197,-134.5 197,-104.5 0,-104.5"/>
<text text-anchor="start" x="8" y="-122.5" font-family="Helvetica,sans-Serif" font-size="10.00">klyqa_ctl.devices.light.commands.</text>
<text text-anchor="middle" x="98.5" y="-111.5" font-family="Helvetica,sans-Serif" font-size="10.00">TemperatureCommand.check_values</text>
</a>
</g>
</g>
<!-- Node1&#45;&gt;Node3 -->
<g id="edge2" class="edge">
<title>Node1&#45;&gt;Node3</title>
<path fill="none" stroke="midnightblue" d="M517.54,-106.25C497.78,-109.6 476.71,-112.66 457,-114.5 369.4,-122.69 269.2,-123.34 197.21,-122.3"/>
<polygon fill="midnightblue" stroke="midnightblue" points="518.18,-109.69 527.43,-104.53 516.98,-102.8 518.18,-109.69"/>
</g>
<!-- Node4 -->
<g id="node4" class="node">
<title>Node4</title>
<g id="a_node4"><a xlink:href="classklyqa__ctl_1_1devices_1_1light_1_1commands_1_1BrightnessCommand.html#ab63f32fce3e15998369f6b058810906b" target="_top" xlink:title=" ">
<polygon fill="white" stroke="black" points="4.5,-53.5 4.5,-83.5 192.5,-83.5 192.5,-53.5 4.5,-53.5"/>
<text text-anchor="start" x="12.5" y="-71.5" font-family="Helvetica,sans-Serif" font-size="10.00">klyqa_ctl.devices.light.commands.</text>
<text text-anchor="middle" x="98.5" y="-60.5" font-family="Helvetica,sans-Serif" font-size="10.00">BrightnessCommand.check_values</text>
</a>
</g>
</g>
<!-- Node1&#45;&gt;Node4 -->
<g id="edge3" class="edge">
<title>Node1&#45;&gt;Node4</title>
<path fill="none" stroke="midnightblue" d="M515.32,-72.87C496.21,-69.8 475.97,-67.08 457,-65.5 357.79,-57.26 332.55,-64.38 233,-65.5 220.02,-65.65 206.33,-65.87 192.86,-66.13"/>
<polygon fill="midnightblue" stroke="midnightblue" points="514.77,-76.32 525.2,-74.5 515.91,-69.42 514.77,-76.32"/>
</g>
<!-- Node5 -->
<g id="node5" class="node">
<title>Node5</title>
<g id="a_node5"><a xlink:href="classklyqa__ctl_1_1devices_1_1light_1_1commands_1_1RoutinePutCommand.html#a3e37b57fa082d61d47bb370f39217874" target="_top" xlink:title=" ">
<polygon fill="white" stroke="black" points="4,-0.5 4,-30.5 193,-30.5 193,-0.5 4,-0.5"/>
<text text-anchor="start" x="12" y="-18.5" font-family="Helvetica,sans-Serif" font-size="10.00">klyqa_ctl.devices.light.commands.</text>
<text text-anchor="middle" x="98.5" y="-7.5" font-family="Helvetica,sans-Serif" font-size="10.00">RoutinePutCommand.check_values</text>
</a>
</g>
</g>
<!-- Node1&#45;&gt;Node5 -->
<g id="edge4" class="edge">
<title>Node1&#45;&gt;Node5</title>
<path fill="none" stroke="midnightblue" d="M529.63,-72.19C506.57,-66.96 480.78,-61.54 457,-57.5 367.97,-42.38 265.55,-30.95 193.21,-23.86"/>
<polygon fill="midnightblue" stroke="midnightblue" points="529.14,-75.66 539.67,-74.49 530.71,-68.84 529.14,-75.66"/>
</g>
<!-- Node6 -->
<g id="node6" class="node">
<title>Node6</title>
<g id="a_node6"><a xlink:href="namespaceklyqa__ctl_1_1devices_1_1light_1_1commands.html#ae8e079eb20d1dc31176135131c4161f5" target="_top" xlink:title=" ">
<polygon fill="white" stroke="black" points="233,-74.5 233,-104.5 457,-104.5 457,-74.5 233,-74.5"/>
<text text-anchor="start" x="241" y="-92.5" font-family="Helvetica,sans-Serif" font-size="10.00">klyqa_ctl.devices.light.commands.missing</text>
<text text-anchor="middle" x="345" y="-81.5" font-family="Helvetica,sans-Serif" font-size="10.00">_config</text>
</a>
</g>
</g>
<!-- Node1&#45;&gt;Node6 -->
<g id="edge5" class="edge">
<title>Node1&#45;&gt;Node6</title>
<path fill="none" stroke="midnightblue" d="M482.93,-89.5C474.38,-89.5 465.77,-89.5 457.26,-89.5"/>
<polygon fill="midnightblue" stroke="midnightblue" points="482.94,-93 492.94,-89.5 482.94,-86 482.94,-93"/>
</g>
<!-- Node6&#45;&gt;Node2 -->
<g id="edge6" class="edge">
<title>Node6&#45;&gt;Node2</title>
<path fill="none" stroke="midnightblue" d="M297.85,-108.22C269.11,-119.51 231.21,-133.75 197,-144.5 185.83,-148.01 173.83,-151.4 162.2,-154.48"/>
<polygon fill="midnightblue" stroke="midnightblue" points="299.21,-111.44 307.23,-104.51 296.64,-104.93 299.21,-111.44"/>
</g>
<!-- Node6&#45;&gt;Node3 -->
<g id="edge7" class="edge">
<title>Node6&#45;&gt;Node3</title>
<path fill="none" stroke="midnightblue" d="M222.81,-104.37C214.26,-105.42 205.7,-106.47 197.3,-107.5"/>
<polygon fill="midnightblue" stroke="midnightblue" points="223.34,-107.83 232.84,-103.14 222.49,-100.88 223.34,-107.83"/>
</g>
<!-- Node6&#45;&gt;Node4 -->
<g id="edge8" class="edge">
<title>Node6&#45;&gt;Node4</title>
<path fill="none" stroke="midnightblue" d="M222.79,-79.09C212.72,-78.22 202.65,-77.36 192.84,-76.52"/>
<polygon fill="midnightblue" stroke="midnightblue" points="222.58,-82.58 232.84,-79.95 223.18,-75.61 222.58,-82.58"/>
</g>
<!-- Node6&#45;&gt;Node5 -->
<g id="edge9" class="edge">
<title>Node6&#45;&gt;Node5</title>
<path fill="none" stroke="midnightblue" d="M285.38,-71.44C258.47,-63.18 226.13,-53.29 197,-44.5 181.87,-39.93 165.4,-35.02 150.38,-30.55"/>
<polygon fill="midnightblue" stroke="midnightblue" points="284.44,-74.81 295.03,-74.4 286.5,-68.12 284.44,-74.81"/>
</g>
</g>
</svg>
