<?xml version="1.0" encoding="UTF-8" standalone="no"?>
<!DOCTYPE svg PUBLIC "-//W3C//DTD SVG 1.1//EN"
 "http://www.w3.org/Graphics/SVG/1.1/DTD/svg11.dtd">
<!-- Generated by graphviz version 2.43.0 (0)
 -->
<!-- Title: klyqa_ctl.general.general.task_log_trace Pages: 1 -->
<svg width="1260pt" height="986pt"
 viewBox="0.00 0.00 1260.00 985.74" xmlns="http://www.w3.org/2000/svg" xmlns:xlink="http://www.w3.org/1999/xlink">
<g id="graph0" class="graph" transform="scale(1 1) rotate(0) translate(4 981.74)">
<title>klyqa_ctl.general.general.task_log_trace</title>
<polygon fill="white" stroke="transparent" points="-4,4 -4,-981.74 1256,-981.74 1256,4 -4,4"/>
<!-- Node1 -->
<g id="node1" class="node">
<title>Node1</title>
<g id="a_node1"><a xlink:title=" ">
<polygon fill="#bfbfbf" stroke="black" points="1088,-317.24 1088,-347.24 1252,-347.24 1252,-317.24 1088,-317.24"/>
<text text-anchor="start" x="1096" y="-335.24" font-family="Helvetica,sans-Serif" font-size="10.00">klyqa_ctl.general.general.task</text>
<text text-anchor="middle" x="1170" y="-324.24" font-family="Helvetica,sans-Serif" font-size="10.00">_log_trace</text>
</a>
</g>
</g>
<!-- Node2 -->
<g id="node2" class="node">
<title>Node2</title>
<g id="a_node2"><a xlink:href="namespaceklyqa__ctl_1_1general_1_1general.html#aa34dc716ff5492dc4f325a2ae1a73a4f" target="_top" xlink:title=" ">
<polygon fill="white" stroke="black" points="880,-772.24 880,-802.24 1052,-802.24 1052,-772.24 880,-772.24"/>
<text text-anchor="start" x="888" y="-790.24" font-family="Helvetica,sans-Serif" font-size="10.00">klyqa_ctl.general.general.async</text>
<text text-anchor="middle" x="966" y="-779.24" font-family="Helvetica,sans-Serif" font-size="10.00">_json_cache</text>
</a>
</g>
</g>
<!-- Node1&#45;&gt;Node2 -->
<g id="edge1" class="edge">
<title>Node1&#45;&gt;Node2</title>
<path fill="none" stroke="midnightblue" d="M1158.14,-356.71C1121.53,-439.18 1003.3,-705.47 973.75,-772.05"/>
<polygon fill="midnightblue" stroke="midnightblue" points="1161.42,-357.94 1162.28,-347.38 1155.02,-355.1 1161.42,-357.94"/>
</g>
<!-- Node12 -->
<g id="node12" class="node">
<title>Node12</title>
<g id="a_node12"><a xlink:href="classlocal_1_1connection__handler_1_1LocalConnectionHandler.html#aae9d106df606f3c68a146e0af7f60bba" target="_top" xlink:title=" ">
<polygon fill="white" stroke="black" points="219.5,-158.74 219.5,-199.74 380.5,-199.74 380.5,-158.74 219.5,-158.74"/>
<text text-anchor="start" x="227.5" y="-187.74" font-family="Helvetica,sans-Serif" font-size="10.00">local.connection_handler.</text>
<text text-anchor="start" x="227.5" y="-176.74" font-family="Helvetica,sans-Serif" font-size="10.00">LocalConnectionHandler.send</text>
<text text-anchor="middle" x="300" y="-165.74" font-family="Helvetica,sans-Serif" font-size="10.00">_message</text>
</a>
</g>
</g>
<!-- Node1&#45;&gt;Node12 -->
<g id="edge11" class="edge">
<title>Node1&#45;&gt;Node12</title>
<path fill="none" stroke="midnightblue" d="M1152.21,-309.08C1108.98,-251.69 987.12,-103.68 844,-50.24 667.52,15.65 578.96,25.41 421,-77.24 394.92,-94.19 407.82,-116.11 385,-137.24 375.91,-145.66 364.81,-152.78 353.7,-158.64"/>
<polygon fill="midnightblue" stroke="midnightblue" points="1149.46,-311.25 1158.24,-317.18 1155.07,-307.07 1149.46,-311.25"/>
</g>
<!-- Node14 -->
<g id="node14" class="node">
<title>Node14</title>
<g id="a_node14"><a xlink:href="namespaceklyqa__ctl_1_1general_1_1general.html#ad6b753e482e539892c57f8144cf213cb" target="_top" xlink:title=" ">
<polygon fill="white" stroke="black" points="884,-317.24 884,-347.24 1048,-347.24 1048,-317.24 884,-317.24"/>
<text text-anchor="start" x="892" y="-335.24" font-family="Helvetica,sans-Serif" font-size="10.00">klyqa_ctl.general.general.task</text>
<text text-anchor="middle" x="966" y="-324.24" font-family="Helvetica,sans-Serif" font-size="10.00">_log_trace_ex</text>
</a>
</g>
</g>
<!-- Node1&#45;&gt;Node14 -->
<g id="edge13" class="edge">
<title>Node1&#45;&gt;Node14</title>
<path fill="none" stroke="midnightblue" d="M1077.55,-332.24C1067.73,-332.24 1057.8,-332.24 1048.12,-332.24"/>
<polygon fill="midnightblue" stroke="midnightblue" points="1077.71,-335.74 1087.71,-332.24 1077.71,-328.74 1077.71,-335.74"/>
</g>
<!-- Node3 -->
<g id="node3" class="node">
<title>Node3</title>
<g id="a_node3"><a xlink:href="classcloud_1_1CloudBackend.html#a566850b368080b6ff85ee2675aa9b3e2" target="_top" xlink:title=" ">
<polygon fill="white" stroke="black" points="233,-723.24 233,-753.24 367,-753.24 367,-723.24 233,-723.24"/>
<text text-anchor="start" x="241" y="-741.24" font-family="Helvetica,sans-Serif" font-size="10.00">cloud.CloudBackend.get</text>
<text text-anchor="middle" x="300" y="-730.24" font-family="Helvetica,sans-Serif" font-size="10.00">_device_configs</text>
</a>
</g>
</g>
<!-- Node2&#45;&gt;Node3 -->
<g id="edge2" class="edge">
<title>Node2&#45;&gt;Node3</title>
<path fill="none" stroke="midnightblue" d="M948.42,-810.83C927.64,-838.11 889.21,-881.53 844,-899.24 759.99,-932.15 729.03,-919.03 641,-899.24 512.92,-870.45 376.37,-787.62 323.6,-753.36"/>
<polygon fill="midnightblue" stroke="midnightblue" points="951.38,-812.71 954.53,-802.59 945.76,-808.54 951.38,-812.71"/>
</g>
<!-- Node4 -->
<g id="node4" class="node">
<title>Node4</title>
<g id="a_node4"><a xlink:href="classklyqa__ctl_1_1controller__data_1_1ControllerData.html#ac09ff4824e78b0347afa7af30a825e68" target="_top" xlink:title=" ">
<polygon fill="white" stroke="black" points="674,-625.24 674,-655.24 811,-655.24 811,-625.24 674,-625.24"/>
<text text-anchor="start" x="682" y="-643.24" font-family="Helvetica,sans-Serif" font-size="10.00">klyqa_ctl.controller</text>
<text text-anchor="middle" x="742.5" y="-632.24" font-family="Helvetica,sans-Serif" font-size="10.00">_data.ControllerData.init</text>
</a>
</g>
</g>
<!-- Node2&#45;&gt;Node4 -->
<g id="edge3" class="edge">
<title>Node2&#45;&gt;Node4</title>
<path fill="none" stroke="midnightblue" d="M948,-763.49C926.82,-735.68 888,-690.24 844,-665.24 833.92,-659.51 822.53,-655.08 811.15,-651.66"/>
<polygon fill="midnightblue" stroke="midnightblue" points="945.46,-765.93 954.24,-771.85 951.07,-761.75 945.46,-765.93"/>
</g>
<!-- Node5 -->
<g id="node5" class="node">
<title>Node5</title>
<g id="a_node5"><a xlink:href="classklyqa__ctl_1_1account__control_1_1AccountControl.html#afa68c76beee57c491239d9184cd32167" target="_top" xlink:title=" ">
<polygon fill="white" stroke="black" points="641,-947.24 641,-977.24 844,-977.24 844,-947.24 641,-947.24"/>
<text text-anchor="start" x="649" y="-965.24" font-family="Helvetica,sans-Serif" font-size="10.00">klyqa_ctl.account_control.</text>
<text text-anchor="middle" x="742.5" y="-954.24" font-family="Helvetica,sans-Serif" font-size="10.00">AccountControl.load_username_cache</text>
</a>
</g>
</g>
<!-- Node2&#45;&gt;Node5 -->
<g id="edge4" class="edge">
<title>Node2&#45;&gt;Node5</title>
<path fill="none" stroke="midnightblue" d="M951.24,-811.25C931.56,-843.49 892.34,-900.38 844,-932.24 834.73,-938.35 824.17,-943.26 813.46,-947.18"/>
<polygon fill="midnightblue" stroke="midnightblue" points="954.36,-812.86 956.49,-802.48 948.36,-809.26 954.36,-812.86"/>
</g>
<!-- Node6 -->
<g id="node6" class="node">
<title>Node6</title>
<g id="a_node6"><a xlink:href="classklyqa__ctl_1_1account_1_1Account.html#a0b171a600e4342d035ad26c39b384b38" target="_top" xlink:title=" ">
<polygon fill="white" stroke="black" points="657,-870.74 657,-889.74 828,-889.74 828,-870.74 657,-870.74"/>
<text text-anchor="middle" x="742.5" y="-877.74" font-family="Helvetica,sans-Serif" font-size="10.00">klyqa_ctl.account.Account.login</text>
</a>
</g>
</g>
<!-- Node2&#45;&gt;Node6 -->
<g id="edge5" class="edge">
<title>Node2&#45;&gt;Node6</title>
<path fill="none" stroke="midnightblue" d="M937.07,-808.39C913.48,-825.22 878.17,-848.07 844,-861.24 833.98,-865.1 823.08,-868.2 812.28,-870.68"/>
<polygon fill="midnightblue" stroke="midnightblue" points="939.17,-811.2 945.21,-802.49 935.06,-805.53 939.17,-811.2"/>
</g>
<!-- Node7 -->
<g id="node7" class="node">
<title>Node7</title>
<g id="a_node7"><a xlink:href="classklyqa__ctl_1_1account__control_1_1AccountControl.html#abec04a28ae718f252e846b0c05645e65" target="_top" xlink:title=" ">
<polygon fill="white" stroke="black" points="666.5,-821.24 666.5,-851.24 818.5,-851.24 818.5,-821.24 666.5,-821.24"/>
<text text-anchor="start" x="674.5" y="-839.24" font-family="Helvetica,sans-Serif" font-size="10.00">klyqa_ctl.account_control.</text>
<text text-anchor="middle" x="742.5" y="-828.24" font-family="Helvetica,sans-Serif" font-size="10.00">AccountControl.login_cache</text>
</a>
</g>
</g>
<!-- Node2&#45;&gt;Node7 -->
<g id="edge6" class="edge">
<title>Node2&#45;&gt;Node7</title>
<path fill="none" stroke="midnightblue" d="M886.99,-804.5C862.31,-809.96 835.24,-815.95 811.33,-821.23"/>
<polygon fill="midnightblue" stroke="midnightblue" points="888.03,-807.85 897.04,-802.28 886.52,-801.02 888.03,-807.85"/>
</g>
<!-- Node8 -->
<g id="node8" class="node">
<title>Node8</title>
<g id="a_node8"><a xlink:href="classklyqa__ctl_1_1account_1_1Account.html#af365113f9fdd0cf5e66f6e9ab427df78" target="_top" xlink:title=" ">
<polygon fill="white" stroke="black" points="658,-772.24 658,-802.24 827,-802.24 827,-772.24 658,-772.24"/>
<text text-anchor="start" x="666" y="-790.24" font-family="Helvetica,sans-Serif" font-size="10.00">klyqa_ctl.account.Account.read</text>
<text text-anchor="middle" x="742.5" y="-779.24" font-family="Helvetica,sans-Serif" font-size="10.00">_acc_settings_cache</text>
</a>
</g>
</g>
<!-- Node2&#45;&gt;Node8 -->
<g id="edge7" class="edge">
<title>Node2&#45;&gt;Node8</title>
<path fill="none" stroke="midnightblue" d="M869.76,-787.24C855.59,-787.24 841.08,-787.24 827.18,-787.24"/>
<polygon fill="midnightblue" stroke="midnightblue" points="870,-790.74 880,-787.24 870,-783.74 870,-790.74"/>
</g>
<!-- Node9 -->
<g id="node9" class="node">
<title>Node9</title>
<g id="a_node9"><a xlink:href="classklyqa__ctl_1_1account_1_1Account.html#acba85b49678b6d37567985738f7becf3" target="_top" xlink:title=" ">
<polygon fill="white" stroke="black" points="658,-723.24 658,-753.24 827,-753.24 827,-723.24 658,-723.24"/>
<text text-anchor="start" x="666" y="-741.24" font-family="Helvetica,sans-Serif" font-size="10.00">klyqa_ctl.account.Account.read</text>
<text text-anchor="middle" x="742.5" y="-730.24" font-family="Helvetica,sans-Serif" font-size="10.00">_username_cache</text>
</a>
</g>
</g>
<!-- Node2&#45;&gt;Node9 -->
<g id="edge8" class="edge">
<title>Node2&#45;&gt;Node9</title>
<path fill="none" stroke="midnightblue" d="M886.99,-769.98C862.31,-764.52 835.24,-758.54 811.33,-753.25"/>
<polygon fill="midnightblue" stroke="midnightblue" points="886.52,-773.46 897.04,-772.21 888.03,-766.63 886.52,-773.46"/>
</g>
<!-- Node10 -->
<g id="node10" class="node">
<title>Node10</title>
<g id="a_node10"><a xlink:href="classklyqa__ctl_1_1account_1_1Account.html#af101070a97d556e95978748475933f72" target="_top" xlink:title=" ">
<polygon fill="white" stroke="black" points="652,-674.24 652,-704.24 833,-704.24 833,-674.24 652,-674.24"/>
<text text-anchor="start" x="660" y="-692.24" font-family="Helvetica,sans-Serif" font-size="10.00">klyqa_ctl.account.Account.update</text>
<text text-anchor="middle" x="742.5" y="-681.24" font-family="Helvetica,sans-Serif" font-size="10.00">_account_settings</text>
</a>
</g>
</g>
<!-- Node2&#45;&gt;Node10 -->
<g id="edge9" class="edge">
<title>Node2&#45;&gt;Node10</title>
<path fill="none" stroke="midnightblue" d="M935.65,-766.1C911.93,-749.87 877.15,-728 844,-714.24 834.87,-710.45 825.02,-707.14 815.18,-704.27"/>
<polygon fill="midnightblue" stroke="midnightblue" points="933.96,-769.18 944.18,-772.01 937.95,-763.43 933.96,-769.18"/>
</g>
<!-- Node11 -->
<g id="node11" class="node">
<title>Node11</title>
<g id="a_node11"><a xlink:href="classklyqa__ctl_1_1account_1_1Account.html#aeca1011f6c6e2f6bcdb2136ef48bc7fd" target="_top" xlink:title=" ">
<polygon fill="white" stroke="black" points="421,-674.24 421,-704.24 605,-704.24 605,-674.24 421,-674.24"/>
<text text-anchor="start" x="429" y="-692.24" font-family="Helvetica,sans-Serif" font-size="10.00">klyqa_ctl.account.Account.request</text>
<text text-anchor="middle" x="513" y="-681.24" font-family="Helvetica,sans-Serif" font-size="10.00">_account_settings_eco</text>
</a>
</g>
</g>
<!-- Node10&#45;&gt;Node11 -->
<g id="edge10" class="edge">
<title>Node10&#45;&gt;Node11</title>
<path fill="none" stroke="midnightblue" d="M641.8,-689.24C629.69,-689.24 617.36,-689.24 605.37,-689.24"/>
<polygon fill="midnightblue" stroke="midnightblue" points="641.91,-692.74 651.91,-689.24 641.91,-685.74 641.91,-692.74"/>
</g>
<!-- Node13 -->
<g id="node13" class="node">
<title>Node13</title>
<g id="a_node13"><a xlink:href="classlocal_1_1connection__handler_1_1LocalConnectionHandler.html#af714f4a1c0791c62d2d3990990a42cf4" target="_top" xlink:title=" ">
<polygon fill="white" stroke="black" points="0,-158.74 0,-199.74 179,-199.74 179,-158.74 0,-158.74"/>
<text text-anchor="start" x="8" y="-187.74" font-family="Helvetica,sans-Serif" font-size="10.00">local.connection_handler.</text>
<text text-anchor="start" x="8" y="-176.74" font-family="Helvetica,sans-Serif" font-size="10.00">LocalConnectionHandler.discover</text>
<text text-anchor="middle" x="89.5" y="-165.74" font-family="Helvetica,sans-Serif" font-size="10.00">_devices</text>
</a>
</g>
</g>
<!-- Node12&#45;&gt;Node13 -->
<g id="edge12" class="edge">
<title>Node12&#45;&gt;Node13</title>
<path fill="none" stroke="midnightblue" d="M209.05,-179.24C199.16,-179.24 189.09,-179.24 179.21,-179.24"/>
<polygon fill="midnightblue" stroke="midnightblue" points="209.28,-182.74 219.28,-179.24 209.28,-175.74 209.28,-182.74"/>
</g>
<!-- Node15 -->
<g id="node15" class="node">
<title>Node15</title>
<g id="a_node15"><a xlink:href="classlocal_1_1connection__handler_1_1LocalConnectionHandler.html#a28f05e11005dfc83e537f9e2e85f54d5" target="_top" xlink:title=" ">
<polygon fill="white" stroke="black" points="648.5,-295.24 648.5,-325.24 836.5,-325.24 836.5,-295.24 648.5,-295.24"/>
<text text-anchor="start" x="656.5" y="-313.24" font-family="Helvetica,sans-Serif" font-size="10.00">local.connection_handler.</text>
<text text-anchor="middle" x="742.5" y="-302.24" font-family="Helvetica,sans-Serif" font-size="10.00">LocalConnectionHandler.bind_ports</text>
</a>
</g>
</g>
<!-- Node14&#45;&gt;Node15 -->
<g id="edge14" class="edge">
<title>Node14&#45;&gt;Node15</title>
<path fill="none" stroke="midnightblue" d="M873.63,-323.17C861.44,-321.96 848.92,-320.71 836.7,-319.5"/>
<polygon fill="midnightblue" stroke="midnightblue" points="873.48,-326.67 883.78,-324.17 874.17,-319.7 873.48,-326.67"/>
</g>
<!-- Node17 -->
<g id="node17" class="node">
<title>Node17</title>
<g id="a_node17"><a xlink:href="classlocal_1_1connection__handler_1_1LocalConnectionHandler.html#aa6b6ea4bb56f4c18b6906bab38c971a7" target="_top" xlink:title=" ">
<polygon fill="white" stroke="black" points="433.5,-336.74 433.5,-377.74 592.5,-377.74 592.5,-336.74 433.5,-336.74"/>
<text text-anchor="start" x="441.5" y="-365.74" font-family="Helvetica,sans-Serif" font-size="10.00">local.connection_handler.</text>
<text text-anchor="start" x="441.5" y="-354.74" font-family="Helvetica,sans-Serif" font-size="10.00">LocalConnectionHandler.read</text>
<text text-anchor="middle" x="513" y="-343.74" font-family="Helvetica,sans-Serif" font-size="10.00">_incoming_tcp_con_task</text>
</a>
</g>
</g>
<!-- Node14&#45;&gt;Node17 -->
<g id="edge25" class="edge">
<title>Node14&#45;&gt;Node17</title>
<path fill="none" stroke="midnightblue" d="M873.73,-337.3C791.2,-341.88 670.96,-348.54 592.61,-352.88"/>
<polygon fill="midnightblue" stroke="midnightblue" points="874.06,-340.79 883.85,-336.74 873.67,-333.8 874.06,-340.79"/>
</g>
<!-- Node18 -->
<g id="node18" class="node">
<title>Node18</title>
<g id="a_node18"><a xlink:href="classlocal_1_1connection__handler_1_1LocalConnectionHandler.html#a69a2aabf1a7bc94f925f914df5ceae10" target="_top" xlink:title=" ">
<polygon fill="white" stroke="black" points="432.5,-238.74 432.5,-279.74 593.5,-279.74 593.5,-238.74 432.5,-238.74"/>
<text text-anchor="start" x="440.5" y="-267.74" font-family="Helvetica,sans-Serif" font-size="10.00">local.connection_handler.</text>
<text text-anchor="start" x="440.5" y="-256.74" font-family="Helvetica,sans-Serif" font-size="10.00">LocalConnectionHandler.send</text>
<text text-anchor="middle" x="513" y="-245.74" font-family="Helvetica,sans-Serif" font-size="10.00">_udp_broadcast</text>
</a>
</g>
</g>
<!-- Node14&#45;&gt;Node18 -->
<g id="edge36" class="edge">
<title>Node14&#45;&gt;Node18</title>
<path fill="none" stroke="midnightblue" d="M924.26,-312.98C901.22,-302.97 871.59,-291.54 844,-285.24 759.96,-266.05 661.11,-260.42 593.65,-259.05"/>
<polygon fill="midnightblue" stroke="midnightblue" points="923.14,-316.31 933.7,-317.16 925.98,-309.91 923.14,-316.31"/>
</g>
<!-- Node19 -->
<g id="node19" class="node">
<title>Node19</title>
<g id="a_node19"><a xlink:href="classcloud_1_1CloudBackend.html#a55182bd23ebf03d54d1754fffe7ca101" target="_top" xlink:title=" ">
<polygon fill="white" stroke="black" points="426.5,-589.74 426.5,-608.74 599.5,-608.74 599.5,-589.74 426.5,-589.74"/>
<text text-anchor="middle" x="513" y="-596.74" font-family="Helvetica,sans-Serif" font-size="10.00">cloud.CloudBackend.cloud_send</text>
</a>
</g>
</g>
<!-- Node14&#45;&gt;Node19 -->
<g id="edge20" class="edge">
<title>Node14&#45;&gt;Node19</title>
<path fill="none" stroke="midnightblue" d="M960.99,-357.38C951.32,-408.78 921.5,-525.43 844,-577.24 805.4,-603.05 683.83,-605.03 599.56,-602.99"/>
<polygon fill="midnightblue" stroke="midnightblue" points="964.45,-357.91 962.76,-347.45 957.56,-356.68 964.45,-357.91"/>
</g>
<!-- Node20 -->
<g id="node20" class="node">
<title>Node20</title>
<g id="a_node20"><a xlink:href="classlocal_1_1connection__handler_1_1LocalConnectionHandler.html#a0b582d0bf1523d1d0404867ab921539f" target="_top" xlink:title=" ">
<polygon fill="white" stroke="black" points="428,-86.74 428,-127.74 598,-127.74 598,-86.74 428,-86.74"/>
<text text-anchor="start" x="436" y="-115.74" font-family="Helvetica,sans-Serif" font-size="10.00">local.connection_handler.</text>
<text text-anchor="start" x="436" y="-104.74" font-family="Helvetica,sans-Serif" font-size="10.00">LocalConnectionHandler.device</text>
<text text-anchor="middle" x="513" y="-93.74" font-family="Helvetica,sans-Serif" font-size="10.00">_handle_local_tcp</text>
</a>
</g>
</g>
<!-- Node14&#45;&gt;Node20 -->
<g id="edge21" class="edge">
<title>Node14&#45;&gt;Node20</title>
<path fill="none" stroke="midnightblue" d="M936.94,-311.24C913.27,-294.44 877.92,-271.42 844,-257.24 758.36,-221.45 724.4,-248.97 641,-208.24 598.73,-187.59 557.56,-150.9 534.05,-127.89"/>
<polygon fill="midnightblue" stroke="midnightblue" points="934.94,-314.12 945.1,-317.12 939.03,-308.44 934.94,-314.12"/>
</g>
<!-- Node22 -->
<g id="node22" class="node">
<title>Node22</title>
<g id="a_node22"><a xlink:href="classlocal_1_1connection__handler_1_1LocalConnectionHandler.html#a900e05554022ee9ecb3ba5621369016d" target="_top" xlink:title=" ">
<polygon fill="white" stroke="black" points="657.5,-59.74 657.5,-100.74 827.5,-100.74 827.5,-59.74 657.5,-59.74"/>
<text text-anchor="start" x="665.5" y="-88.74" font-family="Helvetica,sans-Serif" font-size="10.00">local.connection_handler.</text>
<text text-anchor="start" x="665.5" y="-77.74" font-family="Helvetica,sans-Serif" font-size="10.00">LocalConnectionHandler.handle</text>
<text text-anchor="middle" x="742.5" y="-66.74" font-family="Helvetica,sans-Serif" font-size="10.00">_connection</text>
</a>
</g>
</g>
<!-- Node14&#45;&gt;Node22 -->
<g id="edge23" class="edge">
<title>Node14&#45;&gt;Node22</title>
<path fill="none" stroke="midnightblue" d="M958.28,-307.2C944.65,-261.21 909.34,-163.18 844,-110.24 839.05,-106.23 833.57,-102.75 827.81,-99.74"/>
<polygon fill="midnightblue" stroke="midnightblue" points="954.96,-308.3 961.08,-316.95 961.69,-306.37 954.96,-308.3"/>
</g>
<!-- Node23 -->
<g id="node23" class="node">
<title>Node23</title>
<g id="a_node23"><a xlink:href="classlocal_1_1connection_1_1TcpConnection.html#a65ab7164f0d09f1380e3837905a602b7" target="_top" xlink:title=" ">
<polygon fill="white" stroke="black" points="645.5,-169.24 645.5,-199.24 839.5,-199.24 839.5,-169.24 645.5,-169.24"/>
<text text-anchor="start" x="653.5" y="-187.24" font-family="Helvetica,sans-Serif" font-size="10.00">local.connection.TcpConnection.read</text>
<text text-anchor="middle" x="742.5" y="-176.24" font-family="Helvetica,sans-Serif" font-size="10.00">_local_tcp_socket</text>
</a>
</g>
</g>
<!-- Node14&#45;&gt;Node23 -->
<g id="edge26" class="edge">
<title>Node14&#45;&gt;Node23</title>
<path fill="none" stroke="midnightblue" d="M947.29,-309.2C925.67,-282.61 886.68,-239.33 844,-214.24 833.72,-208.2 822.12,-203.28 810.55,-199.31"/>
<polygon fill="midnightblue" stroke="midnightblue" points="944.7,-311.58 953.68,-317.21 950.17,-307.21 944.7,-311.58"/>
</g>
<!-- Node24 -->
<g id="node24" class="node">
<title>Node24</title>
<g id="a_node24"><a xlink:href="classklyqa__ctl_1_1general_1_1general_1_1AsyncIoLock.html#a25fbc33880c976000ef3b6e70c7691c9" target="_top" xlink:title=" ">
<polygon fill="white" stroke="black" points="653.5,-120.24 653.5,-150.24 831.5,-150.24 831.5,-120.24 653.5,-120.24"/>
<text text-anchor="start" x="661.5" y="-138.24" font-family="Helvetica,sans-Serif" font-size="10.00">klyqa_ctl.general.general.</text>
<text text-anchor="middle" x="742.5" y="-127.24" font-family="Helvetica,sans-Serif" font-size="10.00">AsyncIoLock.release_within_task</text>
</a>
</g>
</g>
<!-- Node14&#45;&gt;Node24 -->
<g id="edge27" class="edge">
<title>Node14&#45;&gt;Node24</title>
<path fill="none" stroke="midnightblue" d="M954.92,-307.92C937.89,-269.99 899.77,-197.19 844,-159.24 838.96,-155.81 833.48,-152.87 827.78,-150.34"/>
<polygon fill="midnightblue" stroke="midnightblue" points="951.76,-309.44 958.97,-317.2 958.18,-306.64 951.76,-309.44"/>
</g>
<!-- Node25 -->
<g id="node25" class="node">
<title>Node25</title>
<g id="a_node25"><a xlink:href="classcloud_1_1CloudBackend.html#a890d2669fa6b9550af8e14a17413aea2" target="_top" xlink:title=" ">
<polygon fill="white" stroke="black" points="665,-548.74 665,-567.74 820,-567.74 820,-548.74 665,-548.74"/>
<text text-anchor="middle" x="742.5" y="-555.74" font-family="Helvetica,sans-Serif" font-size="10.00">cloud.CloudBackend.request</text>
</a>
</g>
</g>
<!-- Node14&#45;&gt;Node25 -->
<g id="edge28" class="edge">
<title>Node14&#45;&gt;Node25</title>
<path fill="none" stroke="midnightblue" d="M957.96,-357.16C944.07,-401.47 908.71,-493.59 844,-539.24 836.82,-544.31 828.66,-548.13 820.16,-550.99"/>
<polygon fill="midnightblue" stroke="midnightblue" points="961.35,-358.06 960.89,-347.47 954.65,-356.03 961.35,-358.06"/>
</g>
<!-- Node27 -->
<g id="node27" class="node">
<title>Node27</title>
<g id="a_node27"><a xlink:href="classklyqa__ctl_1_1klyqa__ctl_1_1Client.html#ad5c42cd8dd34ed1d6329040e164bfc2e" target="_top" xlink:title=" ">
<polygon fill="white" stroke="black" points="659.5,-383.24 659.5,-413.24 825.5,-413.24 825.5,-383.24 659.5,-383.24"/>
<text text-anchor="start" x="667.5" y="-401.24" font-family="Helvetica,sans-Serif" font-size="10.00">klyqa_ctl.klyqa_ctl.Client.send</text>
<text text-anchor="middle" x="742.5" y="-390.24" font-family="Helvetica,sans-Serif" font-size="10.00">_to_devices</text>
</a>
</g>
</g>
<!-- Node14&#45;&gt;Node27 -->
<g id="edge32" class="edge">
<title>Node14&#45;&gt;Node27</title>
<path fill="none" stroke="midnightblue" d="M904.48,-350.27C869.89,-360.58 827.01,-373.36 794.2,-383.13"/>
<polygon fill="midnightblue" stroke="midnightblue" points="905.88,-353.51 914.46,-347.3 903.88,-346.8 905.88,-353.51"/>
</g>
<!-- Node28 -->
<g id="node28" class="node">
<title>Node28</title>
<g id="a_node28"><a xlink:href="classklyqa__ctl_1_1klyqa__ctl_1_1Client.html#a7a93bda9f242d678a4208d0962837f11" target="_top" xlink:title=" ">
<polygon fill="white" stroke="black" points="430,-422.24 430,-452.24 596,-452.24 596,-422.24 430,-422.24"/>
<text text-anchor="start" x="438" y="-440.24" font-family="Helvetica,sans-Serif" font-size="10.00">klyqa_ctl.klyqa_ctl.Client.send</text>
<text text-anchor="middle" x="513" y="-429.24" font-family="Helvetica,sans-Serif" font-size="10.00">_to_devices_wrapped</text>
</a>
</g>
</g>
<!-- Node14&#45;&gt;Node28 -->
<g id="edge35" class="edge">
<title>Node14&#45;&gt;Node28</title>
<path fill="none" stroke="midnightblue" d="M947.88,-355.43C926.83,-381.78 888.39,-423.31 844,-440.24 759.02,-472.65 652.53,-463.71 583.89,-452.24"/>
<polygon fill="midnightblue" stroke="midnightblue" points="950.71,-357.5 954.09,-347.46 945.18,-353.2 950.71,-357.5"/>
</g>
<!-- Node29 -->
<g id="node29" class="node">
<title>Node29</title>
<g id="a_node29"><a xlink:href="classklyqa__ctl_1_1account__control_1_1AccountControl.html#a46d51f33622ad0e952a66d0d1b91eb12" target="_top" xlink:title=" ">
<polygon fill="white" stroke="black" points="660,-488.74 660,-529.74 825,-529.74 825,-488.74 660,-488.74"/>
<text text-anchor="start" x="668" y="-517.74" font-family="Helvetica,sans-Serif" font-size="10.00">klyqa_ctl.account_control.</text>
<text text-anchor="start" x="668" y="-506.74" font-family="Helvetica,sans-Serif" font-size="10.00">AccountControl.update_device</text>
<text text-anchor="middle" x="742.5" y="-495.74" font-family="Helvetica,sans-Serif" font-size="10.00">_configs</text>
</a>
</g>
</g>
<!-- Node14&#45;&gt;Node29 -->
<g id="edge37" class="edge">
<title>Node14&#45;&gt;Node29</title>
<path fill="none" stroke="midnightblue" d="M950.6,-355.93C930.44,-387.22 890.95,-442.11 844,-474.24 835.84,-479.82 826.71,-484.6 817.35,-488.67"/>
<polygon fill="midnightblue" stroke="midnightblue" points="953.61,-357.72 956,-347.39 947.69,-353.98 953.61,-357.72"/>
</g>
<!-- Node16 -->
<g id="node16" class="node">
<title>Node16</title>
<g id="a_node16"><a xlink:href="classlocal_1_1connection__handler_1_1LocalConnectionHandler.html#aa5d34422c7cb1784e408fef186a0b585" target="_top" xlink:title=" ">
<polygon fill="white" stroke="black" points="215,-273.74 215,-314.74 385,-314.74 385,-273.74 215,-273.74"/>
<text text-anchor="start" x="223" y="-302.74" font-family="Helvetica,sans-Serif" font-size="10.00">local.connection_handler.</text>
<text text-anchor="start" x="223" y="-291.74" font-family="Helvetica,sans-Serif" font-size="10.00">LocalConnectionHandler.handle</text>
<text text-anchor="middle" x="300" y="-280.74" font-family="Helvetica,sans-Serif" font-size="10.00">_connections</text>
</a>
</g>
</g>
<!-- Node15&#45;&gt;Node16 -->
<g id="edge15" class="edge">
<title>Node15&#45;&gt;Node16</title>
<path fill="none" stroke="midnightblue" d="M638.14,-306.49C561.06,-303.69 457.09,-299.91 385.08,-297.3"/>
<polygon fill="midnightblue" stroke="midnightblue" points="638.23,-309.99 648.35,-306.86 638.48,-303 638.23,-309.99"/>
</g>
<!-- Node15&#45;&gt;Node17 -->
<g id="edge16" class="edge">
<title>Node15&#45;&gt;Node17</title>
<path fill="none" stroke="midnightblue" d="M659.06,-327.27C637.39,-331.75 614.07,-336.57 592.6,-341"/>
<polygon fill="midnightblue" stroke="midnightblue" points="659.81,-330.69 668.89,-325.24 658.39,-323.84 659.81,-330.69"/>
</g>
<!-- Node15&#45;&gt;Node18 -->
<g id="edge17" class="edge">
<title>Node15&#45;&gt;Node18</title>
<path fill="none" stroke="midnightblue" d="M664.52,-292.98C641.74,-287.88 616.75,-282.28 593.8,-277.13"/>
<polygon fill="midnightblue" stroke="midnightblue" points="663.95,-296.44 674.47,-295.22 665.48,-289.61 663.95,-296.44"/>
</g>
<!-- Node18&#45;&gt;Node12 -->
<g id="edge19" class="edge">
<title>Node18&#45;&gt;Node12</title>
<path fill="none" stroke="midnightblue" d="M448.22,-235.06C418.51,-223.8 383.55,-210.54 355.15,-199.77"/>
<polygon fill="midnightblue" stroke="midnightblue" points="447.07,-238.37 457.66,-238.64 449.55,-231.82 447.07,-238.37"/>
</g>
<!-- Node18&#45;&gt;Node16 -->
<g id="edge18" class="edge">
<title>Node18&#45;&gt;Node16</title>
<path fill="none" stroke="midnightblue" d="M422.02,-274.17C409.78,-276.2 397.24,-278.28 385.1,-280.29"/>
<polygon fill="midnightblue" stroke="midnightblue" points="422.94,-277.56 432.23,-272.47 421.79,-270.66 422.94,-277.56"/>
</g>
<!-- Node21 -->
<g id="node21" class="node">
<title>Node21</title>
<g id="a_node21"><a xlink:href="classlocal_1_1connection__handler_1_1LocalConnectionHandler.html#a5e9277acd0b7bfa5a1e74417e0e10d86" target="_top" xlink:title=" ">
<polygon fill="white" stroke="black" points="215,-86.74 215,-127.74 385,-127.74 385,-86.74 215,-86.74"/>
<text text-anchor="start" x="223" y="-115.74" font-family="Helvetica,sans-Serif" font-size="10.00">local.connection_handler.</text>
<text text-anchor="start" x="223" y="-104.74" font-family="Helvetica,sans-Serif" font-size="10.00">LocalConnectionHandler.handle</text>
<text text-anchor="middle" x="300" y="-93.74" font-family="Helvetica,sans-Serif" font-size="10.00">_incoming_tcp_connection</text>
</a>
</g>
</g>
<!-- Node20&#45;&gt;Node21 -->
<g id="edge22" class="edge">
<title>Node20&#45;&gt;Node21</title>
<path fill="none" stroke="midnightblue" d="M417.45,-107.24C406.69,-107.24 395.78,-107.24 385.17,-107.24"/>
<polygon fill="midnightblue" stroke="midnightblue" points="417.7,-110.74 427.7,-107.24 417.7,-103.74 417.7,-110.74"/>
</g>
<!-- Node22&#45;&gt;Node20 -->
<g id="edge24" class="edge">
<title>Node22&#45;&gt;Node20</title>
<path fill="none" stroke="midnightblue" d="M647.35,-91.41C631.02,-93.35 614.14,-95.36 598.1,-97.26"/>
<polygon fill="midnightblue" stroke="midnightblue" points="647.92,-94.87 657.43,-90.22 647.09,-87.92 647.92,-94.87"/>
</g>
<!-- Node25&#45;&gt;Node19 -->
<g id="edge29" class="edge">
<title>Node25&#45;&gt;Node19</title>
<path fill="none" stroke="midnightblue" d="M678.59,-569.58C643.48,-575.91 600.23,-583.7 566.87,-589.71"/>
<polygon fill="midnightblue" stroke="midnightblue" points="679.51,-572.97 688.74,-567.75 678.27,-566.08 679.51,-572.97"/>
</g>
<!-- Node26 -->
<g id="node26" class="node">
<title>Node26</title>
<g id="a_node26"><a xlink:href="classcloud_1_1CloudBackend.html#a58e4bd598358583c0eb7c50fdf0c6bc1" target="_top" xlink:title=" ">
<polygon fill="white" stroke="black" points="446,-540.24 446,-570.24 580,-570.24 580,-540.24 446,-540.24"/>
<text text-anchor="start" x="454" y="-558.24" font-family="Helvetica,sans-Serif" font-size="10.00">cloud.CloudBackend.get</text>
<text text-anchor="middle" x="513" y="-547.24" font-family="Helvetica,sans-Serif" font-size="10.00">_device_config</text>
</a>
</g>
</g>
<!-- Node25&#45;&gt;Node26 -->
<g id="edge30" class="edge">
<title>Node25&#45;&gt;Node26</title>
<path fill="none" stroke="midnightblue" d="M654.69,-557.1C629.94,-556.77 603.4,-556.42 580.11,-556.11"/>
<polygon fill="midnightblue" stroke="midnightblue" points="654.75,-560.6 664.8,-557.23 654.84,-553.6 654.75,-560.6"/>
</g>
<!-- Node26&#45;&gt;Node3 -->
<g id="edge31" class="edge">
<title>Node26&#45;&gt;Node3</title>
<path fill="none" stroke="midnightblue" d="M435.97,-571.92C430.72,-574.33 425.67,-577.09 421,-580.24 364.79,-618.26 324.03,-691.33 308.23,-722.99"/>
<polygon fill="midnightblue" stroke="midnightblue" points="437.69,-574.99 445.6,-567.94 435.02,-568.52 437.69,-574.99"/>
</g>
<!-- Node27&#45;&gt;Node27 -->
<g id="edge33" class="edge">
<title>Node27&#45;&gt;Node27</title>
<path fill="none" stroke="midnightblue" d="M781.95,-423.7C777.05,-428.42 763.9,-431.74 742.5,-431.74 707.38,-431.74 694.48,-422.8 703.81,-413.4"/>
<polygon fill="midnightblue" stroke="midnightblue" points="785.41,-423.12 781.19,-413.4 778.43,-423.63 785.41,-423.12"/>
</g>
<!-- Node27&#45;&gt;Node28 -->
<g id="edge34" class="edge">
<title>Node27&#45;&gt;Node28</title>
<path fill="none" stroke="midnightblue" d="M649.11,-414.08C631.53,-417.09 613.24,-420.23 596.01,-423.18"/>
<polygon fill="midnightblue" stroke="midnightblue" points="650.1,-417.46 659.37,-412.32 648.92,-410.56 650.1,-417.46"/>
</g>
</g>
</svg>
