<?xml version="1.0" encoding="UTF-8" standalone="no"?>
<!DOCTYPE svg PUBLIC "-//W3C//DTD SVG 1.1//EN"
 "http://www.w3.org/Graphics/SVG/1.1/DTD/svg11.dtd">
<!-- Generated by graphviz version 2.43.0 (0)
 -->
<!-- Title: klyqa_ctl.vc1_vapp.connect_sockets Pages: 1 -->
<svg width="351pt" height="351pt"
 viewBox="0.00 0.00 351.00 351.00" xmlns="http://www.w3.org/2000/svg" xmlns:xlink="http://www.w3.org/1999/xlink">
<g id="graph0" class="graph" transform="scale(1 1) rotate(0) translate(4 347)">
<title>klyqa_ctl.vc1_vapp.connect_sockets</title>
<polygon fill="white" stroke="transparent" points="-4,4 -4,-347 347,-347 347,4 -4,4"/>
<!-- Node1 -->
<g id="node1" class="node">
<title>Node1</title>
<g id="a_node1"><a xlink:title=" ">
<polygon fill="#bfbfbf" stroke="black" points="191,-161.5 191,-191.5 343,-191.5 343,-161.5 191,-161.5"/>
<text text-anchor="start" x="199" y="-179.5" font-family="Helvetica,sans-Serif" font-size="10.00">klyqa_ctl.vc1_vapp.connect</text>
<text text-anchor="middle" x="267" y="-168.5" font-family="Helvetica,sans-Serif" font-size="10.00">_sockets</text>
</a>
</g>
</g>
<!-- Node2 -->
<g id="node2" class="node">
<title>Node2</title>
<g id="a_node2"><a xlink:href="namespaceklyqa__ctl_1_1vc1__vapp.html#ad79fa7f723e22959ec9e2274cd5e6377" target="_top" xlink:title=" ">
<polygon fill="white" stroke="black" points="13.5,-312.5 13.5,-342.5 141.5,-342.5 141.5,-312.5 13.5,-312.5"/>
<text text-anchor="start" x="21.5" y="-330.5" font-family="Helvetica,sans-Serif" font-size="10.00">klyqa_ctl.vc1_vapp.set</text>
<text text-anchor="middle" x="77.5" y="-319.5" font-family="Helvetica,sans-Serif" font-size="10.00">_factory_reset</text>
</a>
</g>
</g>
<!-- Node1&#45;&gt;Node2 -->
<g id="edge1" class="edge">
<title>Node1&#45;&gt;Node2</title>
<path fill="none" stroke="midnightblue" d="M251.03,-200.11C231.99,-228.33 196.53,-275.16 155,-302.5 149.16,-306.34 142.69,-309.64 136.05,-312.45"/>
<polygon fill="midnightblue" stroke="midnightblue" points="254.03,-201.92 256.63,-191.65 248.19,-198.06 254.03,-201.92"/>
</g>
<!-- Node3 -->
<g id="node3" class="node">
<title>Node3</title>
<g id="a_node3"><a xlink:href="namespaceklyqa__ctl_1_1vc1__vapp.html#a64afe8e6060ae2ae29950f783e5072e7" target="_top" xlink:title=" ">
<polygon fill="white" stroke="black" points="3,-274 3,-293 152,-293 152,-274 3,-274"/>
<text text-anchor="middle" x="77.5" y="-281" font-family="Helvetica,sans-Serif" font-size="10.00">klyqa_ctl.vc1_vapp.set_ota</text>
</a>
</g>
</g>
<!-- Node1&#45;&gt;Node3 -->
<g id="edge2" class="edge">
<title>Node1&#45;&gt;Node3</title>
<path fill="none" stroke="midnightblue" d="M243.85,-198.86C222.76,-218.91 189.25,-247.67 155,-264.5 147.14,-268.36 138.43,-271.48 129.78,-273.99"/>
<polygon fill="midnightblue" stroke="midnightblue" points="246.54,-201.12 251.29,-191.65 241.68,-196.09 246.54,-201.12"/>
</g>
<!-- Node4 -->
<g id="node4" class="node">
<title>Node4</title>
<g id="a_node4"><a xlink:href="namespaceklyqa__ctl_1_1vc1__vapp.html#a04744bf3e8d20e132b14e401809a369c" target="_top" xlink:title=" ">
<polygon fill="white" stroke="black" points="0,-236 0,-255 155,-255 155,-236 0,-236"/>
<text text-anchor="middle" x="77.5" y="-243" font-family="Helvetica,sans-Serif" font-size="10.00">klyqa_ctl.vc1_vapp.set_ping</text>
</a>
</g>
</g>
<!-- Node1&#45;&gt;Node4 -->
<g id="edge3" class="edge">
<title>Node1&#45;&gt;Node4</title>
<path fill="none" stroke="midnightblue" d="M227.21,-196.04C206.21,-206.09 179.59,-217.98 155,-226.5 144.65,-230.08 133.3,-233.28 122.59,-235.99"/>
<polygon fill="midnightblue" stroke="midnightblue" points="228.97,-199.08 236.44,-191.57 225.92,-192.78 228.97,-199.08"/>
</g>
<!-- Node5 -->
<g id="node5" class="node">
<title>Node5</title>
<g id="a_node5"><a xlink:href="namespaceklyqa__ctl_1_1vc1__vapp.html#a9b0b73e30ee39c0874ac60c35af8a834" target="_top" xlink:title=" ">
<polygon fill="white" stroke="black" points="13.5,-186.5 13.5,-216.5 141.5,-216.5 141.5,-186.5 13.5,-186.5"/>
<text text-anchor="start" x="21.5" y="-204.5" font-family="Helvetica,sans-Serif" font-size="10.00">klyqa_ctl.vc1_vapp.set</text>
<text text-anchor="middle" x="77.5" y="-193.5" font-family="Helvetica,sans-Serif" font-size="10.00">_reboot</text>
</a>
</g>
</g>
<!-- Node1&#45;&gt;Node5 -->
<g id="edge4" class="edge">
<title>Node1&#45;&gt;Node5</title>
<path fill="none" stroke="midnightblue" d="M180.8,-187.86C167.63,-189.62 154.23,-191.4 141.65,-193.08"/>
<polygon fill="midnightblue" stroke="midnightblue" points="181.37,-191.32 190.82,-186.52 180.44,-184.38 181.37,-191.32"/>
</g>
<!-- Node6 -->
<g id="node6" class="node">
<title>Node6</title>
<g id="a_node6"><a xlink:href="namespaceklyqa__ctl_1_1vc1__vapp.html#ac6422283b3923894ff4d650288d2028e" target="_top" xlink:title=" ">
<polygon fill="white" stroke="black" points="13.5,-137.5 13.5,-167.5 141.5,-167.5 141.5,-137.5 13.5,-137.5"/>
<text text-anchor="start" x="21.5" y="-155.5" font-family="Helvetica,sans-Serif" font-size="10.00">klyqa_ctl.vc1_vapp.set</text>
<text text-anchor="middle" x="77.5" y="-144.5" font-family="Helvetica,sans-Serif" font-size="10.00">_reset</text>
</a>
</g>
</g>
<!-- Node1&#45;&gt;Node6 -->
<g id="edge5" class="edge">
<title>Node1&#45;&gt;Node6</title>
<path fill="none" stroke="midnightblue" d="M180.8,-165.59C167.63,-163.91 154.23,-162.19 141.65,-160.58"/>
<polygon fill="midnightblue" stroke="midnightblue" points="180.45,-169.08 190.82,-166.88 181.34,-162.14 180.45,-169.08"/>
</g>
<!-- Node7 -->
<g id="node7" class="node">
<title>Node7</title>
<g id="a_node7"><a xlink:href="namespaceklyqa__ctl_1_1vc1__vapp.html#a04ed7df3ebac24f4905fe799b8e5ca05" target="_top" xlink:title=" ">
<polygon fill="white" stroke="black" points="3,-99 3,-118 152,-118 152,-99 3,-99"/>
<text text-anchor="middle" x="77.5" y="-106" font-family="Helvetica,sans-Serif" font-size="10.00">klyqa_ctl.vc1_vapp.set_set</text>
</a>
</g>
</g>
<!-- Node1&#45;&gt;Node7 -->
<g id="edge6" class="edge">
<title>Node1&#45;&gt;Node7</title>
<path fill="none" stroke="midnightblue" d="M225.3,-157.13C204.56,-147.71 178.75,-136.69 155,-128.5 143.71,-124.61 131.26,-121.05 119.74,-118.05"/>
<polygon fill="midnightblue" stroke="midnightblue" points="223.9,-160.34 234.45,-161.32 226.82,-153.97 223.9,-160.34"/>
</g>
<!-- Node8 -->
<g id="node8" class="node">
<title>Node8</title>
<g id="a_node8"><a xlink:href="namespaceklyqa__ctl_1_1vc1__vapp.html#a228923aa3b661c10d836a9b8f74658ed" target="_top" xlink:title=" ">
<polygon fill="white" stroke="black" points="13.5,-49.5 13.5,-79.5 141.5,-79.5 141.5,-49.5 13.5,-49.5"/>
<text text-anchor="start" x="21.5" y="-67.5" font-family="Helvetica,sans-Serif" font-size="10.00">klyqa_ctl.vc1_vapp.set</text>
<text text-anchor="middle" x="77.5" y="-56.5" font-family="Helvetica,sans-Serif" font-size="10.00">_state_request</text>
</a>
</g>
</g>
<!-- Node1&#45;&gt;Node8 -->
<g id="edge7" class="edge">
<title>Node1&#45;&gt;Node8</title>
<path fill="none" stroke="midnightblue" d="M242.77,-154.3C221.42,-134.92 188.13,-107.19 155,-89.5 147.97,-85.75 140.28,-82.43 132.57,-79.54"/>
<polygon fill="midnightblue" stroke="midnightblue" points="240.62,-157.08 250.35,-161.28 245.37,-151.93 240.62,-157.08"/>
</g>
<!-- Node9 -->
<g id="node9" class="node">
<title>Node9</title>
<g id="a_node9"><a xlink:href="namespaceklyqa__ctl_1_1vc1__vapp.html#a8dc197c937cae6b5e717c350c178d013" target="_top" xlink:title=" ">
<polygon fill="white" stroke="black" points="13.5,-0.5 13.5,-30.5 141.5,-30.5 141.5,-0.5 13.5,-0.5"/>
<text text-anchor="start" x="21.5" y="-18.5" font-family="Helvetica,sans-Serif" font-size="10.00">klyqa_ctl.vc1_vapp.set</text>
<text text-anchor="middle" x="77.5" y="-7.5" font-family="Helvetica,sans-Serif" font-size="10.00">_thingsboard</text>
</a>
</g>
</g>
<!-- Node1&#45;&gt;Node9 -->
<g id="edge8" class="edge">
<title>Node1&#45;&gt;Node9</title>
<path fill="none" stroke="midnightblue" d="M252.59,-152.81C234.3,-122.54 198.74,-70.49 155,-40.5 149.35,-36.63 143.07,-33.32 136.59,-30.51"/>
<polygon fill="midnightblue" stroke="midnightblue" points="249.6,-154.63 257.71,-161.45 255.63,-151.07 249.6,-154.63"/>
</g>
</g>
</svg>
