<?xml version="1.0" encoding="UTF-8" standalone="no"?>
<!DOCTYPE svg PUBLIC "-//W3C//DTD SVG 1.1//EN"
 "http://www.w3.org/Graphics/SVG/1.1/DTD/svg11.dtd">
<!-- Generated by graphviz version 2.43.0 (0)
 -->
<!-- Title: klyqa_ctl.vc1_vapp.set_ping Pages: 1 -->
<!--zoomable 137 -->
<svg id="main" version="1.1" xmlns="http://www.w3.org/2000/svg" xmlns:xlink="http://www.w3.org/1999/xlink" xml:space="preserve" onload="init(evt)">
<style type="text/css"><![CDATA[
.edge:hover path { stroke: red; }
.edge:hover polygon { stroke: red; fill: red; }
]]></style>
<script type="text/javascript"><![CDATA[
var edges = document.getElementsByTagName('g');
if (edges && edges.length) {
  for (var i=0;i<edges.length;i++) {
    if (edges[i].id.substr(0,4)=='edge') {
      edges[i].setAttribute('class','edge');
    }
  }
}
]]></script>
        <defs>
                <circle id="rim" cx="0" cy="0" r="7"/>
                <circle id="rim2" cx="0" cy="0" r="3.5"/>
                <g id="zoomPlus">
                        <use xlink:href="#rim" fill="#404040">
                                <set attributeName="fill" to="#808080" begin="zoomplus.mouseover" end="zoomplus.mouseout"/>
                        </use>
                        <path d="M-4,0h8M0,-4v8" fill="none" stroke="white" stroke-width="1.5" pointer-events="none"/>
                </g>
                <g id="zoomMin">
                        <use xlink:href="#rim" fill="#404040">
                                <set attributeName="fill" to="#808080" begin="zoomminus.mouseover" end="zoomminus.mouseout"/>
                        </use>
                        <path d="M-4,0h8" fill="none" stroke="white" stroke-width="1.5" pointer-events="none"/>
                </g>
                <g id="dirArrow">
                        <path fill="none" stroke="white" stroke-width="1.5" d="M0,-3.0v7 M-2.5,-0.5L0,-3.0L2.5,-0.5"/>
                </g>
               <g id="resetDef">
                       <use xlink:href="#rim2" fill="#404040">
                               <set attributeName="fill" to="#808080" begin="reset.mouseover" end="reset.mouseout"/>
                       </use>
               </g>
        </defs>

<script type="text/javascript">
var viewWidth = 544;
var viewHeight = 137;
var sectionId = 'dynsection-6';
</script>
<script xlink:href="svgpan.js"/>
<svg id="graph" class="graph">
<g id="viewport">
<title>klyqa_ctl.vc1_vapp.set_ping</title>
<polygon fill="white" stroke="transparent" points="-4,4 -4,-133 540,-133 540,4 -4,4"/>
<!-- Node1 -->
<g id="node1" class="node">
<title>Node1</title>
<g id="a_node1"><a xlink:title=" ">
<polygon fill="#bfbfbf" stroke="black" points="0,-55 0,-74 155,-74 155,-55 0,-55"/>
<text text-anchor="middle" x="77.5" y="-62" font-family="Helvetica,sans-Serif" font-size="10.00">klyqa_ctl.vc1_vapp.set_ping</text>
</a>
</g>
</g>
<!-- Node2 -->
<g id="node2" class="node">
<title>Node2</title>
<g id="a_node2"><a xlink:href="namespaceklyqa__ctl_1_1vc1__vapp.html#aae537b913e2d9ad4c757dea27b5f9dd5" target="_top" xlink:title=" ">
<polygon fill="white" stroke="black" points="191,-98.5 191,-128.5 343,-128.5 343,-98.5 191,-98.5"/>
<text text-anchor="start" x="199" y="-116.5" font-family="Helvetica,sans-Serif" font-size="10.00">klyqa_ctl.vc1_vapp.connect</text>
<text text-anchor="middle" x="267" y="-105.5" font-family="Helvetica,sans-Serif" font-size="10.00">_sockets</text>
</a>
</g>
</g>
<!-- Node1&#45;&gt;Node2 -->
<g id="edge1" class="edge">
<title>Node1&#45;&gt;Node2</title>
<path fill="none" stroke="midnightblue" d="M115.1,-74.06C138.84,-80.27 170.48,-88.54 198.66,-95.9"/>
<polygon fill="midnightblue" stroke="midnightblue" points="197.9,-99.32 208.46,-98.46 199.67,-92.55 197.9,-99.32"/>
</g>
<!-- Node3 -->
<g id="node3" class="node">
<title>Node3</title>
<g id="a_node3"><a xlink:href="namespaceklyqa__ctl_1_1vc1__vapp.html#af9bbad307e93e45d52b2cc509c4b5e47" target="_top" xlink:title=" ">
<polygon fill="white" stroke="black" points="198.5,-49.5 198.5,-79.5 335.5,-79.5 335.5,-49.5 198.5,-49.5"/>
<text text-anchor="start" x="206.5" y="-67.5" font-family="Helvetica,sans-Serif" font-size="10.00">klyqa_ctl.vc1_vapp.send</text>
<text text-anchor="middle" x="267" y="-56.5" font-family="Helvetica,sans-Serif" font-size="10.00">_message_queue</text>
</a>
</g>
</g>
<!-- Node1&#45;&gt;Node3 -->
<g id="edge2" class="edge">
<title>Node1&#45;&gt;Node3</title>
<path fill="none" stroke="midnightblue" d="M155.03,-64.5C166.04,-64.5 177.38,-64.5 188.41,-64.5"/>
<polygon fill="midnightblue" stroke="midnightblue" points="188.43,-68 198.43,-64.5 188.43,-61 188.43,-68"/>
</g>
<!-- Node5 -->
<g id="node5" class="node">
<title>Node5</title>
<g id="a_node5"><a xlink:href="namespaceklyqa__ctl_1_1vc1__vapp.html#a7a932787ca69397d4525614b4f99c60e" target="_top" xlink:title=" ">
<polygon fill="white" stroke="black" points="203,-0.5 203,-30.5 331,-30.5 331,-0.5 203,-0.5"/>
<text text-anchor="start" x="211" y="-18.5" font-family="Helvetica,sans-Serif" font-size="10.00">klyqa_ctl.vc1_vapp.set</text>
<text text-anchor="middle" x="267" y="-7.5" font-family="Helvetica,sans-Serif" font-size="10.00">_up_sockets</text>
</a>
</g>
</g>
<!-- Node1&#45;&gt;Node5 -->
<g id="edge4" class="edge">
<title>Node1&#45;&gt;Node5</title>
<path fill="none" stroke="midnightblue" d="M115.1,-54.94C138.84,-48.73 170.48,-40.46 198.66,-33.1"/>
<polygon fill="midnightblue" stroke="midnightblue" points="199.67,-36.45 208.46,-30.54 197.9,-29.68 199.67,-36.45"/>
</g>
<!-- Node4 -->
<g id="node4" class="node">
<title>Node4</title>
<g id="a_node4"><a xlink:href="namespaceklyqa__ctl_1_1vc1__vapp.html#aa2408173ac895e73b8238a3fa449fd24" target="_top" xlink:title=" ">
<polygon fill="white" stroke="black" points="379,-55 379,-74 536,-74 536,-55 379,-55"/>
<text text-anchor="middle" x="457.5" y="-62" font-family="Helvetica,sans-Serif" font-size="10.00">klyqa_ctl.vc1_vapp.sendMsg</text>
</a>
</g>
</g>
<!-- Node3&#45;&gt;Node4 -->
<g id="edge3" class="edge">
<title>Node3&#45;&gt;Node4</title>
<path fill="none" stroke="midnightblue" d="M335.52,-64.5C346.28,-64.5 357.54,-64.5 368.68,-64.5"/>
<polygon fill="midnightblue" stroke="midnightblue" points="368.87,-68 378.87,-64.5 368.87,-61 368.87,-68"/>
</g>
</g>
</svg>
        <g id="navigator" transform="translate(0 0)" fill="#404254">
                <rect fill="#f2f5e9" fill-opacity="0.5" stroke="#606060" stroke-width=".5" x="0" y="0" width="60" height="60"/>
                <use id="zoomplus" xlink:href="#zoomPlus" x="17" y="9" onmousedown="handleZoom(evt,'in')"/>
                <use id="zoomminus" xlink:href="#zoomMin" x="42" y="9" onmousedown="handleZoom(evt,'out')"/>
                <use id="reset" xlink:href="#resetDef" x="30" y="36" onmousedown="handleReset()"/>
                <g id="arrowUp" xlink:href="#dirArrow" transform="translate(30 24)" onmousedown="handlePan(0,-1)">
                  <use xlink:href="#rim" fill="#404040">
                        <set attributeName="fill" to="#808080" begin="arrowUp.mouseover" end="arrowUp.mouseout"/>
                  </use>
                  <path fill="none" stroke="white" stroke-width="1.5" d="M0,-3.0v7 M-2.5,-0.5L0,-3.0L2.5,-0.5"/>
                </g>
                <g id="arrowRight" xlink:href="#dirArrow" transform="rotate(90) translate(36 -43)" onmousedown="handlePan(1,0)">
                  <use xlink:href="#rim" fill="#404040">
                        <set attributeName="fill" to="#808080" begin="arrowRight.mouseover" end="arrowRight.mouseout"/>
                  </use>
                  <path fill="none" stroke="white" stroke-width="1.5" d="M0,-3.0v7 M-2.5,-0.5L0,-3.0L2.5,-0.5"/>
                </g>
                <g id="arrowDown" xlink:href="#dirArrow" transform="rotate(180) translate(-30 -48)" onmousedown="handlePan(0,1)">
                  <use xlink:href="#rim" fill="#404040">
                        <set attributeName="fill" to="#808080" begin="arrowDown.mouseover" end="arrowDown.mouseout"/>
                  </use>
                  <path fill="none" stroke="white" stroke-width="1.5" d="M0,-3.0v7 M-2.5,-0.5L0,-3.0L2.5,-0.5"/>
                </g>
                <g id="arrowLeft" xlink:href="#dirArrow" transform="rotate(270) translate(-36 17)" onmousedown="handlePan(-1,0)">
                  <use xlink:href="#rim" fill="#404040">
                        <set attributeName="fill" to="#808080" begin="arrowLeft.mouseover" end="arrowLeft.mouseout"/>
                  </use>
                  <path fill="none" stroke="white" stroke-width="1.5" d="M0,-3.0v7 M-2.5,-0.5L0,-3.0L2.5,-0.5"/>
                </g>
        </g>
        <svg viewBox="0 0 15 15" width="100%" height="30px" preserveAspectRatio="xMaxYMin meet">
         <g id="arrow_out" transform="scale(0.3 0.3)">
          <a xlink:href="namespaceklyqa__ctl_1_1vc1__vapp_a04744bf3e8d20e132b14e401809a369c_cgraph_org.svg" target="_base">
           <rect id="button" ry="5" rx="5" y="6" x="6" height="38" width="38"
                fill="#f2f5e9" fill-opacity="0.5" stroke="#606060" stroke-width="1.0"/>
           <path id="arrow"
             d="M 11.500037,31.436501 C 11.940474,20.09759 22.043105,11.32322 32.158766,21.979434 L 37.068811,17.246167 C 37.068811,17.246167 37.088388,32 37.088388,32 L 22.160133,31.978069 C 22.160133,31.978069 26.997745,27.140456 26.997745,27.140456 C 18.528582,18.264221 13.291696,25.230495 11.500037,31.436501 z"
             style="fill:#404040;"/>
          </a>
         </g>
        </svg>
</svg>
