<?xml version="1.0" encoding="UTF-8" standalone="no"?>
<!DOCTYPE svg PUBLIC "-//W3C//DTD SVG 1.1//EN"
 "http://www.w3.org/Graphics/SVG/1.1/DTD/svg11.dtd">
<!-- Generated by graphviz version 2.43.0 (0)
 -->
<!-- Title: klyqa_ctl.vc1_vapp.set_set Pages: 1 -->
<svg width="538pt" height="137pt"
 viewBox="0.00 0.00 538.00 137.00" xmlns="http://www.w3.org/2000/svg" xmlns:xlink="http://www.w3.org/1999/xlink">
<g id="graph0" class="graph" transform="scale(1 1) rotate(0) translate(4 133)">
<title>klyqa_ctl.vc1_vapp.set_set</title>
<polygon fill="white" stroke="transparent" points="-4,4 -4,-133 534,-133 534,4 -4,4"/>
<!-- Node1 -->
<g id="node1" class="node">
<title>Node1</title>
<g id="a_node1"><a xlink:title=" ">
<polygon fill="#bfbfbf" stroke="black" points="0,-55 0,-74 149,-74 149,-55 0,-55"/>
<text text-anchor="middle" x="74.5" y="-62" font-family="Helvetica,sans-Serif" font-size="10.00">klyqa_ctl.vc1_vapp.set_set</text>
</a>
</g>
</g>
<!-- Node2 -->
<g id="node2" class="node">
<title>Node2</title>
<g id="a_node2"><a xlink:href="namespaceklyqa__ctl_1_1vc1__vapp.html#aae537b913e2d9ad4c757dea27b5f9dd5" target="_top" xlink:title=" ">
<polygon fill="white" stroke="black" points="185,-98.5 185,-128.5 337,-128.5 337,-98.5 185,-98.5"/>
<text text-anchor="start" x="193" y="-116.5" font-family="Helvetica,sans-Serif" font-size="10.00">klyqa_ctl.vc1_vapp.connect</text>
<text text-anchor="middle" x="261" y="-105.5" font-family="Helvetica,sans-Serif" font-size="10.00">_sockets</text>
</a>
</g>
</g>
<!-- Node1&#45;&gt;Node2 -->
<g id="edge1" class="edge">
<title>Node1&#45;&gt;Node2</title>
<path fill="none" stroke="midnightblue" d="M111.51,-74.06C134.77,-80.24 165.74,-88.46 193.37,-95.8"/>
<polygon fill="midnightblue" stroke="midnightblue" points="192.82,-99.28 203.38,-98.46 194.61,-92.51 192.82,-99.28"/>
</g>
<!-- Node3 -->
<g id="node3" class="node">
<title>Node3</title>
<g id="a_node3"><a xlink:href="namespaceklyqa__ctl_1_1vc1__vapp.html#af9bbad307e93e45d52b2cc509c4b5e47" target="_top" xlink:title=" ">
<polygon fill="white" stroke="black" points="192.5,-49.5 192.5,-79.5 329.5,-79.5 329.5,-49.5 192.5,-49.5"/>
<text text-anchor="start" x="200.5" y="-67.5" font-family="Helvetica,sans-Serif" font-size="10.00">klyqa_ctl.vc1_vapp.send</text>
<text text-anchor="middle" x="261" y="-56.5" font-family="Helvetica,sans-Serif" font-size="10.00">_message_queue</text>
</a>
</g>
</g>
<!-- Node1&#45;&gt;Node3 -->
<g id="edge2" class="edge">
<title>Node1&#45;&gt;Node3</title>
<path fill="none" stroke="midnightblue" d="M149.21,-64.5C160.02,-64.5 171.17,-64.5 182.05,-64.5"/>
<polygon fill="midnightblue" stroke="midnightblue" points="182.38,-68 192.38,-64.5 182.38,-61 182.38,-68"/>
</g>
<!-- Node5 -->
<g id="node5" class="node">
<title>Node5</title>
<g id="a_node5"><a xlink:href="namespaceklyqa__ctl_1_1vc1__vapp.html#a7a932787ca69397d4525614b4f99c60e" target="_top" xlink:title=" ">
<polygon fill="white" stroke="black" points="197,-0.5 197,-30.5 325,-30.5 325,-0.5 197,-0.5"/>
<text text-anchor="start" x="205" y="-18.5" font-family="Helvetica,sans-Serif" font-size="10.00">klyqa_ctl.vc1_vapp.set</text>
<text text-anchor="middle" x="261" y="-7.5" font-family="Helvetica,sans-Serif" font-size="10.00">_up_sockets</text>
</a>
</g>
</g>
<!-- Node1&#45;&gt;Node5 -->
<g id="edge4" class="edge">
<title>Node1&#45;&gt;Node5</title>
<path fill="none" stroke="midnightblue" d="M111.51,-54.94C134.77,-48.76 165.74,-40.54 193.37,-33.2"/>
<polygon fill="midnightblue" stroke="midnightblue" points="194.61,-36.49 203.38,-30.54 192.82,-29.72 194.61,-36.49"/>
</g>
<!-- Node4 -->
<g id="node4" class="node">
<title>Node4</title>
<g id="a_node4"><a xlink:href="namespaceklyqa__ctl_1_1vc1__vapp.html#aa2408173ac895e73b8238a3fa449fd24" target="_top" xlink:title=" ">
<polygon fill="white" stroke="black" points="373,-55 373,-74 530,-74 530,-55 373,-55"/>
<text text-anchor="middle" x="451.5" y="-62" font-family="Helvetica,sans-Serif" font-size="10.00">klyqa_ctl.vc1_vapp.sendMsg</text>
</a>
</g>
</g>
<!-- Node3&#45;&gt;Node4 -->
<g id="edge3" class="edge">
<title>Node3&#45;&gt;Node4</title>
<path fill="none" stroke="midnightblue" d="M329.52,-64.5C340.28,-64.5 351.54,-64.5 362.68,-64.5"/>
<polygon fill="midnightblue" stroke="midnightblue" points="362.87,-68 372.87,-64.5 362.87,-61 362.87,-68"/>
</g>
</g>
</svg>
