<?xml version="1.0" encoding="UTF-8" standalone="no"?>
<!DOCTYPE svg PUBLIC "-//W3C//DTD SVG 1.1//EN"
 "http://www.w3.org/Graphics/SVG/1.1/DTD/svg11.dtd">
<!-- Generated by graphviz version 2.43.0 (0)
 -->
<!-- Title: klyqa_ctl.general.general.task_log_debug Pages: 1 -->
<svg width="1265pt" height="1609pt"
 viewBox="0.00 0.00 1265.00 1608.50" xmlns="http://www.w3.org/2000/svg" xmlns:xlink="http://www.w3.org/1999/xlink">
<g id="graph0" class="graph" transform="scale(1 1) rotate(0) translate(4 1604.5)">
<title>klyqa_ctl.general.general.task_log_debug</title>
<polygon fill="white" stroke="transparent" points="-4,4 -4,-1604.5 1261,-1604.5 1261,4 -4,4"/>
<!-- Node1 -->
<g id="node1" class="node">
<title>Node1</title>
<g id="a_node1"><a xlink:title=" ">
<polygon fill="#bfbfbf" stroke="black" points="1093,-781 1093,-811 1257,-811 1257,-781 1093,-781"/>
<text text-anchor="start" x="1101" y="-799" font-family="Helvetica,sans-Serif" font-size="10.00">klyqa_ctl.general.general.task</text>
<text text-anchor="middle" x="1175" y="-788" font-family="Helvetica,sans-Serif" font-size="10.00">_log_debug</text>
</a>
</g>
</g>
<!-- Node2 -->
<g id="node2" class="node">
<title>Node2</title>
<g id="a_node2"><a xlink:href="classklyqa__ctl_1_1devices_1_1vacuum_1_1response__status_1_1ResponseStatus.html#ae51c559746d7c53de2920374a1d8e7df" target="_top" xlink:title=" ">
<polygon fill="white" stroke="black" points="857,-1570 857,-1600 1048,-1600 1048,-1570 857,-1570"/>
<text text-anchor="start" x="865" y="-1588" font-family="Helvetica,sans-Serif" font-size="10.00">klyqa_ctl.devices.vacuum.response</text>
<text text-anchor="middle" x="952.5" y="-1577" font-family="Helvetica,sans-Serif" font-size="10.00">_status.ResponseStatus.__init__</text>
</a>
</g>
</g>
<!-- Node1&#45;&gt;Node2 -->
<g id="edge1" class="edge">
<title>Node1&#45;&gt;Node2</title>
<path fill="none" stroke="midnightblue" d="M1173.8,-821.32C1172.31,-941.12 1159.95,-1449.9 1057,-1561 1053.87,-1564.38 1050.36,-1567.33 1046.58,-1569.9"/>
<polygon fill="midnightblue" stroke="midnightblue" points="1177.3,-821.3 1173.91,-811.26 1170.3,-821.22 1177.3,-821.3"/>
</g>
<!-- Node3 -->
<g id="node3" class="node">
<title>Node3</title>
<g id="a_node3"><a xlink:href="classklyqa__ctl_1_1general_1_1general_1_1AsyncIoLock.html#a871a28c7421aecc1cd55f0dc9c6fa166" target="_top" xlink:title=" ">
<polygon fill="white" stroke="black" points="863.5,-1521 863.5,-1551 1041.5,-1551 1041.5,-1521 863.5,-1521"/>
<text text-anchor="start" x="871.5" y="-1539" font-family="Helvetica,sans-Serif" font-size="10.00">klyqa_ctl.general.general.</text>
<text text-anchor="middle" x="952.5" y="-1528" font-family="Helvetica,sans-Serif" font-size="10.00">AsyncIoLock.acquire_within_task</text>
</a>
</g>
</g>
<!-- Node1&#45;&gt;Node3 -->
<g id="edge2" class="edge">
<title>Node1&#45;&gt;Node3</title>
<path fill="none" stroke="midnightblue" d="M1173.33,-821.54C1169.81,-936.08 1149.9,-1401.35 1057,-1506 1051.66,-1512.02 1045.19,-1516.86 1038.13,-1520.75"/>
<polygon fill="midnightblue" stroke="midnightblue" points="1176.83,-821.39 1173.63,-811.29 1169.84,-821.19 1176.83,-821.39"/>
</g>
<!-- Node4 -->
<g id="node4" class="node">
<title>Node4</title>
<g id="a_node4"><a xlink:href="classlocal_1_1connection__handler_1_1LocalConnectionHandler.html#a28f05e11005dfc83e537f9e2e85f54d5" target="_top" xlink:title=" ">
<polygon fill="white" stroke="black" points="858.5,-1395 858.5,-1425 1046.5,-1425 1046.5,-1395 858.5,-1395"/>
<text text-anchor="start" x="866.5" y="-1413" font-family="Helvetica,sans-Serif" font-size="10.00">local.connection_handler.</text>
<text text-anchor="middle" x="952.5" y="-1402" font-family="Helvetica,sans-Serif" font-size="10.00">LocalConnectionHandler.bind_ports</text>
</a>
</g>
</g>
<!-- Node1&#45;&gt;Node4 -->
<g id="edge3" class="edge">
<title>Node1&#45;&gt;Node4</title>
<path fill="none" stroke="midnightblue" d="M1172.35,-821.42C1165.26,-922.7 1134.22,-1295.97 1057,-1380 1051.37,-1386.13 1044.56,-1391.04 1037.17,-1394.96"/>
<polygon fill="midnightblue" stroke="midnightblue" points="1175.85,-821.42 1173.04,-811.21 1168.87,-820.95 1175.85,-821.42"/>
</g>
<!-- Node6 -->
<g id="node6" class="node">
<title>Node6</title>
<g id="a_node6"><a xlink:href="classlocal_1_1connection__handler_1_1LocalConnectionHandler.html#aa6b6ea4bb56f4c18b6906bab38c971a7" target="_top" xlink:title=" ">
<polygon fill="white" stroke="black" points="640,-1350.5 640,-1391.5 799,-1391.5 799,-1350.5 640,-1350.5"/>
<text text-anchor="start" x="648" y="-1379.5" font-family="Helvetica,sans-Serif" font-size="10.00">local.connection_handler.</text>
<text text-anchor="start" x="648" y="-1368.5" font-family="Helvetica,sans-Serif" font-size="10.00">LocalConnectionHandler.read</text>
<text text-anchor="middle" x="719.5" y="-1357.5" font-family="Helvetica,sans-Serif" font-size="10.00">_incoming_tcp_con_task</text>
</a>
</g>
</g>
<!-- Node1&#45;&gt;Node6 -->
<g id="edge41" class="edge">
<title>Node1&#45;&gt;Node6</title>
<path fill="none" stroke="midnightblue" d="M1172.46,-821.14C1165.9,-918.86 1136.98,-1271.45 1057,-1342 1020.06,-1374.58 886.69,-1376.89 799.36,-1374.63"/>
<polygon fill="midnightblue" stroke="midnightblue" points="1175.96,-821.22 1173.12,-811.01 1168.97,-820.76 1175.96,-821.22"/>
</g>
<!-- Node7 -->
<g id="node7" class="node">
<title>Node7</title>
<g id="a_node7"><a xlink:href="classlocal_1_1connection__handler_1_1LocalConnectionHandler.html#a69a2aabf1a7bc94f925f914df5ceae10" target="_top" xlink:title=" ">
<polygon fill="white" stroke="black" points="639,-1498.5 639,-1539.5 800,-1539.5 800,-1498.5 639,-1498.5"/>
<text text-anchor="start" x="647" y="-1527.5" font-family="Helvetica,sans-Serif" font-size="10.00">local.connection_handler.</text>
<text text-anchor="start" x="647" y="-1516.5" font-family="Helvetica,sans-Serif" font-size="10.00">LocalConnectionHandler.send</text>
<text text-anchor="middle" x="719.5" y="-1505.5" font-family="Helvetica,sans-Serif" font-size="10.00">_udp_broadcast</text>
</a>
</g>
</g>
<!-- Node1&#45;&gt;Node7 -->
<g id="edge47" class="edge">
<title>Node1&#45;&gt;Node7</title>
<path fill="none" stroke="midnightblue" d="M1173.35,-821.39C1169.97,-932.26 1150.75,-1372.56 1057,-1465 1038.94,-1482.81 894.06,-1500.99 800.38,-1511.06"/>
<polygon fill="midnightblue" stroke="midnightblue" points="1176.86,-821.26 1173.64,-811.16 1169.86,-821.05 1176.86,-821.26"/>
</g>
<!-- Node9 -->
<g id="node9" class="node">
<title>Node9</title>
<g id="a_node9"><a xlink:href="classlocal_1_1connection__handler_1_1LocalConnectionHandler.html#af714f4a1c0791c62d2d3990990a42cf4" target="_top" xlink:title=" ">
<polygon fill="white" stroke="black" points="206,-1399.5 206,-1440.5 385,-1440.5 385,-1399.5 206,-1399.5"/>
<text text-anchor="start" x="214" y="-1428.5" font-family="Helvetica,sans-Serif" font-size="10.00">local.connection_handler.</text>
<text text-anchor="start" x="214" y="-1417.5" font-family="Helvetica,sans-Serif" font-size="10.00">LocalConnectionHandler.discover</text>
<text text-anchor="middle" x="295.5" y="-1406.5" font-family="Helvetica,sans-Serif" font-size="10.00">_devices</text>
</a>
</g>
</g>
<!-- Node1&#45;&gt;Node9 -->
<g id="edge20" class="edge">
<title>Node1&#45;&gt;Node9</title>
<path fill="none" stroke="midnightblue" d="M1172.11,-821.17C1164.5,-915.21 1132.77,-1243.82 1057,-1309 1020.68,-1340.24 674.34,-1333.63 627,-1341 536.5,-1355.09 434.22,-1381.14 367.73,-1399.47"/>
<polygon fill="midnightblue" stroke="midnightblue" points="1175.6,-821.38 1172.9,-811.14 1168.63,-820.83 1175.6,-821.38"/>
</g>
<!-- Node10 -->
<g id="node10" class="node">
<title>Node10</title>
<g id="a_node10"><a xlink:href="classlocal_1_1connection__handler_1_1LocalConnectionHandler.html#a8b85c27ecdc845a205a4f36c38554ec8" target="_top" xlink:title=" ">
<polygon fill="white" stroke="black" points="869.5,-1258.5 869.5,-1299.5 1035.5,-1299.5 1035.5,-1258.5 869.5,-1258.5"/>
<text text-anchor="start" x="877.5" y="-1287.5" font-family="Helvetica,sans-Serif" font-size="10.00">local.connection_handler.</text>
<text text-anchor="start" x="877.5" y="-1276.5" font-family="Helvetica,sans-Serif" font-size="10.00">LocalConnectionHandler.check</text>
<text text-anchor="middle" x="952.5" y="-1265.5" font-family="Helvetica,sans-Serif" font-size="10.00">_messages_time_to_live</text>
</a>
</g>
</g>
<!-- Node1&#45;&gt;Node10 -->
<g id="edge10" class="edge">
<title>Node1&#45;&gt;Node10</title>
<path fill="none" stroke="midnightblue" d="M1170.76,-821.39C1159.3,-907.43 1118.05,-1186.13 1057,-1249 1050.87,-1255.31 1043.51,-1260.31 1035.57,-1264.28"/>
<polygon fill="midnightblue" stroke="midnightblue" points="1174.24,-821.81 1172.07,-811.44 1167.3,-820.89 1174.24,-821.81"/>
</g>
<!-- Node11 -->
<g id="node11" class="node">
<title>Node11</title>
<g id="a_node11"><a xlink:href="classklyqa__ctl_1_1general_1_1message_1_1Message.html#a670561cf07691d77ef03db5705ddea75" target="_top" xlink:title=" ">
<polygon fill="white" stroke="black" points="877,-1209 877,-1239 1028,-1239 1028,-1209 877,-1209"/>
<text text-anchor="start" x="885" y="-1227" font-family="Helvetica,sans-Serif" font-size="10.00">klyqa_ctl.general.message.</text>
<text text-anchor="middle" x="952.5" y="-1216" font-family="Helvetica,sans-Serif" font-size="10.00">Message.check_msg_ttl</text>
</a>
</g>
</g>
<!-- Node1&#45;&gt;Node11 -->
<g id="edge11" class="edge">
<title>Node1&#45;&gt;Node11</title>
<path fill="none" stroke="midnightblue" d="M1174.82,-821.41C1175.65,-892.52 1167.7,-1095.13 1057,-1200 1048.9,-1207.67 1038.85,-1213.06 1028.22,-1216.82"/>
<polygon fill="midnightblue" stroke="midnightblue" points="1178.32,-821.1 1174.63,-811.17 1171.32,-821.23 1178.32,-821.1"/>
</g>
<!-- Node12 -->
<g id="node12" class="node">
<title>Node12</title>
<g id="a_node12"><a xlink:href="classklyqa__ctl_1_1account_1_1Account.html#a372d813db2141719743dfe088dbe9552" target="_top" xlink:title=" ">
<polygon fill="white" stroke="black" points="866,-1160 866,-1190 1039,-1190 1039,-1160 866,-1160"/>
<text text-anchor="start" x="874" y="-1178" font-family="Helvetica,sans-Serif" font-size="10.00">klyqa_ctl.account.Account.cloud</text>
<text text-anchor="middle" x="952.5" y="-1167" font-family="Helvetica,sans-Serif" font-size="10.00">_post_command_to_dev</text>
</a>
</g>
</g>
<!-- Node1&#45;&gt;Node12 -->
<g id="edge12" class="edge">
<title>Node1&#45;&gt;Node12</title>
<path fill="none" stroke="midnightblue" d="M1173.56,-821.27C1171.01,-886.16 1154.89,-1059.84 1057,-1150 1051.7,-1154.88 1045.61,-1158.86 1039.09,-1162.09"/>
<polygon fill="midnightblue" stroke="midnightblue" points="1177.07,-821.25 1173.88,-811.14 1170.07,-821.02 1177.07,-821.25"/>
</g>
<!-- Node13 -->
<g id="node13" class="node">
<title>Node13</title>
<g id="a_node13"><a xlink:href="classlocal_1_1connection__handler_1_1LocalConnectionHandler.html#aefd29b1e670e7076b749f7f21b0dc290" target="_top" xlink:title=" ">
<polygon fill="white" stroke="black" points="857,-1099.5 857,-1140.5 1048,-1140.5 1048,-1099.5 857,-1099.5"/>
<text text-anchor="start" x="865" y="-1128.5" font-family="Helvetica,sans-Serif" font-size="10.00">local.connection_handler.</text>
<text text-anchor="start" x="865" y="-1117.5" font-family="Helvetica,sans-Serif" font-size="10.00">LocalConnectionHandler.connection</text>
<text text-anchor="middle" x="952.5" y="-1106.5" font-family="Helvetica,sans-Serif" font-size="10.00">_tasks_time_to_live</text>
</a>
</g>
</g>
<!-- Node1&#45;&gt;Node13 -->
<g id="edge13" class="edge">
<title>Node1&#45;&gt;Node13</title>
<path fill="none" stroke="midnightblue" d="M1171.35,-821.32C1164.04,-878.03 1138.41,-1016.1 1057,-1090 1053.12,-1093.52 1048.85,-1096.63 1044.33,-1099.38"/>
<polygon fill="midnightblue" stroke="midnightblue" points="1174.86,-821.45 1172.58,-811.1 1167.91,-820.61 1174.86,-821.45"/>
</g>
<!-- Node14 -->
<g id="node14" class="node">
<title>Node14</title>
<g id="a_node14"><a xlink:href="classlocal_1_1connection__handler_1_1LocalConnectionHandler.html#a0b582d0bf1523d1d0404867ab921539f" target="_top" xlink:title=" ">
<polygon fill="white" stroke="black" points="210.5,-881.5 210.5,-922.5 380.5,-922.5 380.5,-881.5 210.5,-881.5"/>
<text text-anchor="start" x="218.5" y="-910.5" font-family="Helvetica,sans-Serif" font-size="10.00">local.connection_handler.</text>
<text text-anchor="start" x="218.5" y="-899.5" font-family="Helvetica,sans-Serif" font-size="10.00">LocalConnectionHandler.device</text>
<text text-anchor="middle" x="295.5" y="-888.5" font-family="Helvetica,sans-Serif" font-size="10.00">_handle_local_tcp</text>
</a>
</g>
</g>
<!-- Node1&#45;&gt;Node14 -->
<g id="edge14" class="edge">
<title>Node1&#45;&gt;Node14</title>
<path fill="none" stroke="midnightblue" d="M1147.5,-817.45C1124.93,-834.33 1090.86,-856.69 1057,-867 820.41,-939.08 523.36,-924.48 380.65,-911.41"/>
<polygon fill="midnightblue" stroke="midnightblue" points="1149.75,-820.13 1155.57,-811.28 1145.5,-814.57 1149.75,-820.13"/>
</g>
<!-- Node15 -->
<g id="node15" class="node">
<title>Node15</title>
<g id="a_node15"><a xlink:href="classlocal_1_1connection__handler_1_1LocalConnectionHandler.html#a5e9277acd0b7bfa5a1e74417e0e10d86" target="_top" xlink:title=" ">
<polygon fill="white" stroke="black" points="0,-856.5 0,-897.5 170,-897.5 170,-856.5 0,-856.5"/>
<text text-anchor="start" x="8" y="-885.5" font-family="Helvetica,sans-Serif" font-size="10.00">local.connection_handler.</text>
<text text-anchor="start" x="8" y="-874.5" font-family="Helvetica,sans-Serif" font-size="10.00">LocalConnectionHandler.handle</text>
<text text-anchor="middle" x="85" y="-863.5" font-family="Helvetica,sans-Serif" font-size="10.00">_incoming_tcp_connection</text>
</a>
</g>
</g>
<!-- Node1&#45;&gt;Node15 -->
<g id="edge26" class="edge">
<title>Node1&#45;&gt;Node15</title>
<path fill="none" stroke="midnightblue" d="M1090.17,-812.91C999.45,-829.72 850.33,-853 720.5,-853 720.5,-853 720.5,-853 505,-853 388.78,-853 254.73,-862.32 170.19,-869.34"/>
<polygon fill="midnightblue" stroke="midnightblue" points="1090.94,-816.33 1100.12,-811.05 1089.65,-809.45 1090.94,-816.33"/>
</g>
<!-- Node16 -->
<g id="node16" class="node">
<title>Node16</title>
<g id="a_node16"><a xlink:href="classklyqa__ctl_1_1klyqa__ctl_1_1Client.html#aca681010a08f941d9f65888e99cd6374" target="_top" xlink:title=" ">
<polygon fill="white" stroke="black" points="860.5,-718 860.5,-748 1044.5,-748 1044.5,-718 860.5,-718"/>
<text text-anchor="start" x="868.5" y="-736" font-family="Helvetica,sans-Serif" font-size="10.00">klyqa_ctl.klyqa_ctl.Client.discover</text>
<text text-anchor="middle" x="952.5" y="-725" font-family="Helvetica,sans-Serif" font-size="10.00">_devices</text>
</a>
</g>
</g>
<!-- Node1&#45;&gt;Node16 -->
<g id="edge16" class="edge">
<title>Node1&#45;&gt;Node16</title>
<path fill="none" stroke="midnightblue" d="M1111.81,-778.23C1078.45,-768.7 1037.78,-757.08 1006.01,-748"/>
<polygon fill="midnightblue" stroke="midnightblue" points="1110.89,-781.61 1121.46,-780.99 1112.81,-774.88 1110.89,-781.61"/>
</g>
<!-- Node17 -->
<g id="node17" class="node">
<title>Node17</title>
<g id="a_node17"><a xlink:href="classklyqa__ctl_1_1klyqa__ctl_1_1Client.html#ad5c42cd8dd34ed1d6329040e164bfc2e" target="_top" xlink:title=" ">
<polygon fill="white" stroke="black" points="636.5,-738 636.5,-768 802.5,-768 802.5,-738 636.5,-738"/>
<text text-anchor="start" x="644.5" y="-756" font-family="Helvetica,sans-Serif" font-size="10.00">klyqa_ctl.klyqa_ctl.Client.send</text>
<text text-anchor="middle" x="719.5" y="-745" font-family="Helvetica,sans-Serif" font-size="10.00">_to_devices</text>
</a>
</g>
</g>
<!-- Node1&#45;&gt;Node17 -->
<g id="edge45" class="edge">
<title>Node1&#45;&gt;Node17</title>
<path fill="none" stroke="midnightblue" d="M1082.88,-787.36C1001,-779.6 881.83,-768.3 802.79,-760.8"/>
<polygon fill="midnightblue" stroke="midnightblue" points="1082.64,-790.85 1092.92,-788.31 1083.3,-783.88 1082.64,-790.85"/>
</g>
<!-- Node18 -->
<g id="node18" class="node">
<title>Node18</title>
<g id="a_node18"><a xlink:href="classklyqa__ctl_1_1klyqa__ctl_1_1Client.html#a7a93bda9f242d678a4208d0962837f11" target="_top" xlink:title=" ">
<polygon fill="white" stroke="black" points="423,-766 423,-796 589,-796 589,-766 423,-766"/>
<text text-anchor="start" x="431" y="-784" font-family="Helvetica,sans-Serif" font-size="10.00">klyqa_ctl.klyqa_ctl.Client.send</text>
<text text-anchor="middle" x="506" y="-773" font-family="Helvetica,sans-Serif" font-size="10.00">_to_devices_wrapped</text>
</a>
</g>
</g>
<!-- Node1&#45;&gt;Node18 -->
<g id="edge46" class="edge">
<title>Node1&#45;&gt;Node18</title>
<path fill="none" stroke="midnightblue" d="M1082.54,-799.47C973.83,-802.79 787,-805.96 627,-796 614.74,-795.24 601.82,-794.04 589.18,-792.65"/>
<polygon fill="midnightblue" stroke="midnightblue" points="1082.92,-802.96 1092.81,-799.15 1082.71,-795.96 1082.92,-802.96"/>
</g>
<!-- Node19 -->
<g id="node19" class="node">
<title>Node19</title>
<g id="a_node19"><a xlink:href="classlocal_1_1connection_1_1TcpConnection.html#a305b3adb5bd8041bbaa53f47d1c23e81" target="_top" xlink:title=" ">
<polygon fill="white" stroke="black" points="848,-669 848,-699 1057,-699 1057,-669 848,-669"/>
<text text-anchor="start" x="856" y="-687" font-family="Helvetica,sans-Serif" font-size="10.00">local.connection.TcpConnection.encrypt</text>
<text text-anchor="middle" x="952.5" y="-676" font-family="Helvetica,sans-Serif" font-size="10.00">_and_send_msg</text>
</a>
</g>
</g>
<!-- Node1&#45;&gt;Node19 -->
<g id="edge21" class="edge">
<title>Node1&#45;&gt;Node19</title>
<path fill="none" stroke="midnightblue" d="M1150.31,-773.82C1127.91,-754.02 1092.52,-725.64 1057,-709 1048.8,-705.16 1039.94,-701.87 1030.99,-699.06"/>
<polygon fill="midnightblue" stroke="midnightblue" points="1148.18,-776.61 1157.95,-780.69 1152.86,-771.4 1148.18,-776.61"/>
</g>
<!-- Node20 -->
<g id="node20" class="node">
<title>Node20</title>
<g id="a_node20"><a xlink:href="classcloud_1_1CloudBackend.html#a58e4bd598358583c0eb7c50fdf0c6bc1" target="_top" xlink:title=" ">
<polygon fill="white" stroke="black" points="652.5,-594 652.5,-624 786.5,-624 786.5,-594 652.5,-594"/>
<text text-anchor="start" x="660.5" y="-612" font-family="Helvetica,sans-Serif" font-size="10.00">cloud.CloudBackend.get</text>
<text text-anchor="middle" x="719.5" y="-601" font-family="Helvetica,sans-Serif" font-size="10.00">_device_config</text>
</a>
</g>
</g>
<!-- Node1&#45;&gt;Node20 -->
<g id="edge22" class="edge">
<title>Node1&#45;&gt;Node20</title>
<path fill="none" stroke="midnightblue" d="M1160.57,-771.64C1141.81,-740.19 1104.67,-686.37 1057,-660 1033.83,-647.18 878.13,-627.31 786.85,-616.55"/>
<polygon fill="midnightblue" stroke="midnightblue" points="1157.74,-773.74 1165.79,-780.63 1163.79,-770.23 1157.74,-773.74"/>
</g>
<!-- Node22 -->
<g id="node22" class="node">
<title>Node22</title>
<g id="a_node22"><a xlink:href="classlocal_1_1connection__handler_1_1LocalConnectionHandler.html#aa780e39d1ce443d422a41064cc382d1f" target="_top" xlink:title=" ">
<polygon fill="white" stroke="black" points="867.5,-482.5 867.5,-523.5 1037.5,-523.5 1037.5,-482.5 867.5,-482.5"/>
<text text-anchor="start" x="875.5" y="-511.5" font-family="Helvetica,sans-Serif" font-size="10.00">local.connection_handler.</text>
<text text-anchor="start" x="875.5" y="-500.5" font-family="Helvetica,sans-Serif" font-size="10.00">LocalConnectionHandler.handle</text>
<text text-anchor="middle" x="952.5" y="-489.5" font-family="Helvetica,sans-Serif" font-size="10.00">_connections_task_stop</text>
</a>
</g>
</g>
<!-- Node1&#45;&gt;Node22 -->
<g id="edge24" class="edge">
<title>Node1&#45;&gt;Node22</title>
<path fill="none" stroke="midnightblue" d="M1169.52,-770.83C1159.1,-719.62 1128.49,-602.7 1057,-538 1050.74,-532.34 1043.53,-527.58 1035.89,-523.6"/>
<polygon fill="midnightblue" stroke="midnightblue" points="1166.1,-771.57 1171.44,-780.72 1172.97,-770.23 1166.1,-771.57"/>
</g>
<!-- Node23 -->
<g id="node23" class="node">
<title>Node23</title>
<g id="a_node23"><a xlink:href="classlocal_1_1connection__handler_1_1LocalConnectionHandler.html#a3510d32dbcb1a08fcd7796e2d8d2bdd6" target="_top" xlink:title=" ">
<polygon fill="white" stroke="black" points="627,-523 627,-553 812,-553 812,-523 627,-523"/>
<text text-anchor="start" x="635" y="-541" font-family="Helvetica,sans-Serif" font-size="10.00">local.connection_handler.</text>
<text text-anchor="middle" x="719.5" y="-530" font-family="Helvetica,sans-Serif" font-size="10.00">LocalConnectionHandler.shutdown</text>
</a>
</g>
</g>
<!-- Node1&#45;&gt;Node23 -->
<g id="edge49" class="edge">
<title>Node1&#45;&gt;Node23</title>
<path fill="none" stroke="midnightblue" d="M1169.03,-770.88C1158.13,-723.08 1127.26,-619.56 1057,-572 1018.34,-545.83 897.9,-539.05 812.17,-537.67"/>
<polygon fill="midnightblue" stroke="midnightblue" points="1165.63,-771.7 1171.17,-780.72 1172.47,-770.21 1165.63,-771.7"/>
</g>
<!-- Node24 -->
<g id="node24" class="node">
<title>Node24</title>
<g id="a_node24"><a xlink:href="classklyqa__ctl_1_1devices_1_1onboard_1_1Onboard.html#ab324155b854711966deaa05c26eea973" target="_top" xlink:title=" ">
<polygon fill="white" stroke="black" points="879,-433 879,-463 1026,-463 1026,-433 879,-433"/>
<text text-anchor="start" x="887" y="-451" font-family="Helvetica,sans-Serif" font-size="10.00">klyqa_ctl.devices.onboard.</text>
<text text-anchor="middle" x="952.5" y="-440" font-family="Helvetica,sans-Serif" font-size="10.00">Onboard.Lamp_typ</text>
</a>
</g>
</g>
<!-- Node1&#45;&gt;Node24 -->
<g id="edge27" class="edge">
<title>Node1&#45;&gt;Node24</title>
<path fill="none" stroke="midnightblue" d="M1172.62,-770.47C1167.9,-709.34 1147.15,-553.7 1057,-473 1048.25,-465.17 1037.48,-459.69 1026.22,-455.87"/>
<polygon fill="midnightblue" stroke="midnightblue" points="1169.15,-771.01 1173.33,-780.74 1176.13,-770.52 1169.15,-771.01"/>
</g>
<!-- Node25 -->
<g id="node25" class="node">
<title>Node25</title>
<g id="a_node25"><a xlink:href="classcloud_1_1CloudBackend.html#a85f7e46764602842576d0a96ca804ea4" target="_top" xlink:title=" ">
<polygon fill="white" stroke="black" points="883,-581 883,-611 1022,-611 1022,-581 883,-581"/>
<text text-anchor="start" x="891" y="-599" font-family="Helvetica,sans-Serif" font-size="10.00">cloud.CloudBackend.load</text>
<text text-anchor="middle" x="952.5" y="-588" font-family="Helvetica,sans-Serif" font-size="10.00">_http_response</text>
</a>
</g>
</g>
<!-- Node1&#45;&gt;Node25 -->
<g id="edge28" class="edge">
<title>Node1&#45;&gt;Node25</title>
<path fill="none" stroke="midnightblue" d="M1163.68,-771.38C1146.85,-734.26 1109.98,-664.23 1057,-626 1046.61,-618.5 1034.37,-612.87 1022.01,-608.64"/>
<polygon fill="midnightblue" stroke="midnightblue" points="1160.65,-773.19 1167.89,-780.93 1167.05,-770.36 1160.65,-773.19"/>
</g>
<!-- Node26 -->
<g id="node26" class="node">
<title>Node26</title>
<g id="a_node26"><a xlink:href="namespaceklyqa__ctl_1_1klyqa__ctl.html#afe1b8490f9810b885e4048d7bef472a7" target="_top" xlink:title=" ">
<polygon fill="white" stroke="black" points="884.5,-394.5 884.5,-413.5 1020.5,-413.5 1020.5,-394.5 884.5,-394.5"/>
<text text-anchor="middle" x="952.5" y="-401.5" font-family="Helvetica,sans-Serif" font-size="10.00">klyqa_ctl.klyqa_ctl.main</text>
</a>
</g>
</g>
<!-- Node1&#45;&gt;Node26 -->
<g id="edge30" class="edge">
<title>Node1&#45;&gt;Node26</title>
<path fill="none" stroke="midnightblue" d="M1174.35,-770.44C1173.78,-702.47 1162.22,-516.07 1057,-423 1046.87,-414.04 1033.95,-408.68 1020.7,-405.57"/>
<polygon fill="midnightblue" stroke="midnightblue" points="1170.85,-770.66 1174.35,-780.66 1177.85,-770.66 1170.85,-770.66"/>
</g>
<!-- Node27 -->
<g id="node27" class="node">
<title>Node27</title>
<g id="a_node27"><a xlink:href="classklyqa__ctl_1_1devices_1_1onboard_1_1Onboard.html#af28b551caec339826e2b209a20b88207" target="_top" xlink:title=" ">
<polygon fill="white" stroke="black" points="879,-345 879,-375 1026,-375 1026,-345 879,-345"/>
<text text-anchor="start" x="887" y="-363" font-family="Helvetica,sans-Serif" font-size="10.00">klyqa_ctl.devices.onboard.</text>
<text text-anchor="middle" x="952.5" y="-352" font-family="Helvetica,sans-Serif" font-size="10.00">Onboard.Onboard_receive</text>
</a>
</g>
</g>
<!-- Node1&#45;&gt;Node27 -->
<g id="edge31" class="edge">
<title>Node1&#45;&gt;Node27</title>
<path fill="none" stroke="midnightblue" d="M1170.11,-770.27C1157.33,-688.98 1114.11,-439.85 1057,-385 1048.4,-376.74 1037.56,-371.06 1026.16,-367.17"/>
<polygon fill="midnightblue" stroke="midnightblue" points="1166.72,-771.24 1171.71,-780.59 1173.64,-770.17 1166.72,-771.24"/>
</g>
<!-- Node28 -->
<g id="node28" class="node">
<title>Node28</title>
<g id="a_node28"><a xlink:href="classklyqa__ctl_1_1devices_1_1onboard_1_1Onboard.html#a04ff72b185dd79eb70ded5f29d7cc61c" target="_top" xlink:title=" ">
<polygon fill="white" stroke="black" points="876,-296 876,-326 1029,-326 1029,-296 876,-296"/>
<text text-anchor="start" x="884" y="-314" font-family="Helvetica,sans-Serif" font-size="10.00">klyqa_ctl.devices.onboard.</text>
<text text-anchor="middle" x="952.5" y="-303" font-family="Helvetica,sans-Serif" font-size="10.00">Onboard.onboarding_device</text>
</a>
</g>
</g>
<!-- Node1&#45;&gt;Node28 -->
<g id="edge32" class="edge">
<title>Node1&#45;&gt;Node28</title>
<path fill="none" stroke="midnightblue" d="M1171.03,-770.63C1160.29,-683.36 1120.78,-397.48 1057,-335 1049.23,-327.38 1039.54,-322 1029.23,-318.23"/>
<polygon fill="midnightblue" stroke="midnightblue" points="1167.57,-771.2 1172.25,-780.7 1174.52,-770.35 1167.57,-771.2"/>
</g>
<!-- Node29 -->
<g id="node29" class="node">
<title>Node29</title>
<g id="a_node29"><a xlink:href="classlocal_1_1connection__handler_1_1LocalConnectionHandler.html#ad1b4bfaedd513acfccbf1b12e36d5469" target="_top" xlink:title=" ">
<polygon fill="white" stroke="black" points="865,-919.5 865,-960.5 1040,-960.5 1040,-919.5 865,-919.5"/>
<text text-anchor="start" x="873" y="-948.5" font-family="Helvetica,sans-Serif" font-size="10.00">local.connection_handler.</text>
<text text-anchor="start" x="873" y="-937.5" font-family="Helvetica,sans-Serif" font-size="10.00">LocalConnectionHandler.process</text>
<text text-anchor="middle" x="952.5" y="-926.5" font-family="Helvetica,sans-Serif" font-size="10.00">_aes_initial_vector_package</text>
</a>
</g>
</g>
<!-- Node1&#45;&gt;Node29 -->
<g id="edge33" class="edge">
<title>Node1&#45;&gt;Node29</title>
<path fill="none" stroke="midnightblue" d="M1154.84,-818.89C1133.3,-843.3 1096.19,-881.61 1057,-905 1047.72,-910.54 1037.43,-915.35 1027.06,-919.48"/>
<polygon fill="midnightblue" stroke="midnightblue" points="1157.62,-821.03 1161.53,-811.18 1152.33,-816.44 1157.62,-821.03"/>
</g>
<!-- Node32 -->
<g id="node32" class="node">
<title>Node32</title>
<g id="a_node32"><a xlink:href="classlocal_1_1connection__handler_1_1LocalConnectionHandler.html#a4ce11db96280d000941a91cb37df2842" target="_top" xlink:title=" ">
<polygon fill="white" stroke="black" points="865,-1039.5 865,-1080.5 1040,-1080.5 1040,-1039.5 865,-1039.5"/>
<text text-anchor="start" x="873" y="-1068.5" font-family="Helvetica,sans-Serif" font-size="10.00">local.connection_handler.</text>
<text text-anchor="start" x="873" y="-1057.5" font-family="Helvetica,sans-Serif" font-size="10.00">LocalConnectionHandler.process</text>
<text text-anchor="middle" x="952.5" y="-1046.5" font-family="Helvetica,sans-Serif" font-size="10.00">_device_identity_package</text>
</a>
</g>
</g>
<!-- Node1&#45;&gt;Node32 -->
<g id="edge37" class="edge">
<title>Node1&#45;&gt;Node32</title>
<path fill="none" stroke="midnightblue" d="M1168.54,-821.07C1156.77,-868.98 1124.48,-973.78 1057,-1030 1051.9,-1034.25 1046.22,-1037.9 1040.22,-1041.03"/>
<polygon fill="midnightblue" stroke="midnightblue" points="1171.97,-821.75 1170.86,-811.22 1165.16,-820.15 1171.97,-821.75"/>
</g>
<!-- Node33 -->
<g id="node33" class="node">
<title>Node33</title>
<g id="a_node33"><a xlink:href="classlocal_1_1connection__handler_1_1LocalConnectionHandler.html#a46f68728bc59f0e5991bc390f67f2685" target="_top" xlink:title=" ">
<polygon fill="white" stroke="black" points="865,-979.5 865,-1020.5 1040,-1020.5 1040,-979.5 865,-979.5"/>
<text text-anchor="start" x="873" y="-1008.5" font-family="Helvetica,sans-Serif" font-size="10.00">local.connection_handler.</text>
<text text-anchor="start" x="873" y="-997.5" font-family="Helvetica,sans-Serif" font-size="10.00">LocalConnectionHandler.process</text>
<text text-anchor="middle" x="952.5" y="-986.5" font-family="Helvetica,sans-Serif" font-size="10.00">_message_answer_package</text>
</a>
</g>
</g>
<!-- Node1&#45;&gt;Node33 -->
<g id="edge39" class="edge">
<title>Node1&#45;&gt;Node33</title>
<path fill="none" stroke="midnightblue" d="M1164.17,-820.43C1147.71,-858.22 1110.98,-930.6 1057,-970 1051.79,-973.81 1046.1,-977.13 1040.16,-980.03"/>
<polygon fill="midnightblue" stroke="midnightblue" points="1167.41,-821.75 1168.1,-811.17 1160.97,-819.01 1167.41,-821.75"/>
</g>
<!-- Node34 -->
<g id="node34" class="node">
<title>Node34</title>
<g id="a_node34"><a xlink:href="classlocal_1_1connection_1_1TcpConnection.html#a65ab7164f0d09f1380e3837905a602b7" target="_top" xlink:title=" ">
<polygon fill="white" stroke="black" points="855.5,-247 855.5,-277 1049.5,-277 1049.5,-247 855.5,-247"/>
<text text-anchor="start" x="863.5" y="-265" font-family="Helvetica,sans-Serif" font-size="10.00">local.connection.TcpConnection.read</text>
<text text-anchor="middle" x="952.5" y="-254" font-family="Helvetica,sans-Serif" font-size="10.00">_local_tcp_socket</text>
</a>
</g>
</g>
<!-- Node1&#45;&gt;Node34 -->
<g id="edge42" class="edge">
<title>Node1&#45;&gt;Node34</title>
<path fill="none" stroke="midnightblue" d="M1171.7,-770.74C1162.73,-677.74 1127.05,-356.22 1057,-286 1053.61,-282.6 1049.85,-279.65 1045.81,-277.09"/>
<polygon fill="midnightblue" stroke="midnightblue" points="1168.24,-771.29 1172.66,-780.91 1175.21,-770.63 1168.24,-771.29"/>
</g>
<!-- Node35 -->
<g id="node35" class="node">
<title>Node35</title>
<g id="a_node35"><a xlink:href="classklyqa__ctl_1_1general_1_1general_1_1AsyncIoLock.html#a25fbc33880c976000ef3b6e70c7691c9" target="_top" xlink:title=" ">
<polygon fill="white" stroke="black" points="863.5,-198 863.5,-228 1041.5,-228 1041.5,-198 863.5,-198"/>
<text text-anchor="start" x="871.5" y="-216" font-family="Helvetica,sans-Serif" font-size="10.00">klyqa_ctl.general.general.</text>
<text text-anchor="middle" x="952.5" y="-205" font-family="Helvetica,sans-Serif" font-size="10.00">AsyncIoLock.release_within_task</text>
</a>
</g>
</g>
<!-- Node1&#45;&gt;Node35 -->
<g id="edge43" class="edge">
<title>Node1&#45;&gt;Node35</title>
<path fill="none" stroke="midnightblue" d="M1172.24,-770.6C1164.87,-671.82 1133.29,-314.95 1057,-237 1052.48,-232.39 1047.27,-228.59 1041.63,-225.46"/>
<polygon fill="midnightblue" stroke="midnightblue" points="1168.77,-771.12 1172.98,-780.84 1175.75,-770.61 1168.77,-771.12"/>
</g>
<!-- Node36 -->
<g id="node36" class="node">
<title>Node36</title>
<g id="a_node36"><a xlink:href="classklyqa__ctl_1_1devices_1_1device_1_1Device.html#aa24f94bc4cb0e5b9fee79360aca8819e" target="_top" xlink:title=" ">
<polygon fill="white" stroke="black" points="870.5,-149 870.5,-179 1034.5,-179 1034.5,-149 870.5,-149"/>
<text text-anchor="start" x="878.5" y="-167" font-family="Helvetica,sans-Serif" font-size="10.00">klyqa_ctl.devices.device.</text>
<text text-anchor="middle" x="952.5" y="-156" font-family="Helvetica,sans-Serif" font-size="10.00">Device.save_device_message</text>
</a>
</g>
</g>
<!-- Node1&#45;&gt;Node36 -->
<g id="edge44" class="edge">
<title>Node1&#45;&gt;Node36</title>
<path fill="none" stroke="midnightblue" d="M1172.71,-770.76C1166.89,-666.89 1139.64,-273.82 1057,-188 1050.67,-181.42 1042.91,-176.49 1034.52,-172.82"/>
<polygon fill="midnightblue" stroke="midnightblue" points="1169.23,-771.14 1173.26,-780.94 1176.22,-770.76 1169.23,-771.14"/>
</g>
<!-- Node37 -->
<g id="node37" class="node">
<title>Node37</title>
<g id="a_node37"><a xlink:href="classklyqa__ctl_1_1account_1_1Account.html#af0e05ae15ad46c4b1b3bbb69b6bb7151" target="_top" xlink:title=" ">
<polygon fill="white" stroke="black" points="855.5,-110.5 855.5,-129.5 1049.5,-129.5 1049.5,-110.5 855.5,-110.5"/>
<text text-anchor="middle" x="952.5" y="-117.5" font-family="Helvetica,sans-Serif" font-size="10.00">klyqa_ctl.account.Account.shutdown</text>
</a>
</g>
</g>
<!-- Node1&#45;&gt;Node37 -->
<g id="edge48" class="edge">
<title>Node1&#45;&gt;Node37</title>
<path fill="none" stroke="midnightblue" d="M1173.21,-770.76C1169.28,-661.49 1148.14,-230.62 1057,-139 1053.39,-135.37 1049.34,-132.31 1044.97,-129.74"/>
<polygon fill="midnightblue" stroke="midnightblue" points="1169.72,-770.98 1173.56,-780.85 1176.72,-770.74 1169.72,-770.98"/>
</g>
<!-- Node38 -->
<g id="node38" class="node">
<title>Node38</title>
<g id="a_node38"><a xlink:href="classlocal_1_1connection__handler_1_1LocalConnectionHandler.html#aed3640a60ff23b9532ca91ebd2a9d01a" target="_top" xlink:title=" ">
<polygon fill="white" stroke="black" points="631.5,-1449 631.5,-1479 807.5,-1479 807.5,-1449 631.5,-1449"/>
<text text-anchor="start" x="639.5" y="-1467" font-family="Helvetica,sans-Serif" font-size="10.00">local.connection_handler.</text>
<text text-anchor="middle" x="719.5" y="-1456" font-family="Helvetica,sans-Serif" font-size="10.00">LocalConnectionHandler.standby</text>
</a>
</g>
</g>
<!-- Node1&#45;&gt;Node38 -->
<g id="edge50" class="edge">
<title>Node1&#45;&gt;Node38</title>
<path fill="none" stroke="midnightblue" d="M1173.29,-821.45C1169.7,-929.75 1149.89,-1350.55 1057,-1435 1021.69,-1467.1 895.28,-1470.1 807.86,-1468.04"/>
<polygon fill="midnightblue" stroke="midnightblue" points="1176.8,-821.26 1173.61,-811.15 1169.8,-821.04 1176.8,-821.26"/>
</g>
<!-- Node39 -->
<g id="node39" class="node">
<title>Node39</title>
<g id="a_node39"><a xlink:href="classklyqa__ctl_1_1account_1_1Account.html#a4fb47c923d3a579054e8cc72480906fb" target="_top" xlink:title=" ">
<polygon fill="white" stroke="black" points="862,-61 862,-91 1043,-91 1043,-61 862,-61"/>
<text text-anchor="start" x="870" y="-79" font-family="Helvetica,sans-Serif" font-size="10.00">klyqa_ctl.account.Account.update</text>
<text text-anchor="middle" x="952.5" y="-68" font-family="Helvetica,sans-Serif" font-size="10.00">_device_configs</text>
</a>
</g>
</g>
<!-- Node1&#45;&gt;Node39 -->
<g id="edge52" class="edge">
<title>Node1&#45;&gt;Node39</title>
<path fill="none" stroke="midnightblue" d="M1173.35,-770.9C1169.95,-658.33 1150.46,-201.26 1057,-101 1052.97,-96.67 1048.32,-93.04 1043.29,-89.99"/>
<polygon fill="midnightblue" stroke="midnightblue" points="1169.86,-771.07 1173.64,-780.97 1176.86,-770.87 1169.86,-771.07"/>
</g>
<!-- Node40 -->
<g id="node40" class="node">
<title>Node40</title>
<g id="a_node40"><a xlink:href="classklyqa__ctl_1_1account__control_1_1AccountControl.html#a46d51f33622ad0e952a66d0d1b91eb12" target="_top" xlink:title=" ">
<polygon fill="white" stroke="black" points="870,-0.5 870,-41.5 1035,-41.5 1035,-0.5 870,-0.5"/>
<text text-anchor="start" x="878" y="-29.5" font-family="Helvetica,sans-Serif" font-size="10.00">klyqa_ctl.account_control.</text>
<text text-anchor="start" x="878" y="-18.5" font-family="Helvetica,sans-Serif" font-size="10.00">AccountControl.update_device</text>
<text text-anchor="middle" x="952.5" y="-7.5" font-family="Helvetica,sans-Serif" font-size="10.00">_configs</text>
</a>
</g>
</g>
<!-- Node1&#45;&gt;Node40 -->
<g id="edge53" class="edge">
<title>Node1&#45;&gt;Node40</title>
<path fill="none" stroke="midnightblue" d="M1173.55,-770.72C1170.96,-653.23 1154.36,-161.51 1057,-51 1050.94,-44.12 1043.41,-38.78 1035.19,-34.63"/>
<polygon fill="midnightblue" stroke="midnightblue" points="1170.06,-770.97 1173.76,-780.9 1177.05,-770.83 1170.06,-770.97"/>
</g>
<!-- Node5 -->
<g id="node5" class="node">
<title>Node5</title>
<g id="a_node5"><a xlink:href="classlocal_1_1connection__handler_1_1LocalConnectionHandler.html#aa5d34422c7cb1784e408fef186a0b585" target="_top" xlink:title=" ">
<polygon fill="white" stroke="black" points="421,-1438.5 421,-1479.5 591,-1479.5 591,-1438.5 421,-1438.5"/>
<text text-anchor="start" x="429" y="-1467.5" font-family="Helvetica,sans-Serif" font-size="10.00">local.connection_handler.</text>
<text text-anchor="start" x="429" y="-1456.5" font-family="Helvetica,sans-Serif" font-size="10.00">LocalConnectionHandler.handle</text>
<text text-anchor="middle" x="506" y="-1445.5" font-family="Helvetica,sans-Serif" font-size="10.00">_connections</text>
</a>
</g>
</g>
<!-- Node4&#45;&gt;Node5 -->
<g id="edge4" class="edge">
<title>Node4&#45;&gt;Node5</title>
<path fill="none" stroke="midnightblue" d="M848.23,-1417.83C784.38,-1423.09 700.8,-1430.76 627,-1440 615.38,-1441.45 603.16,-1443.17 591.15,-1444.97"/>
<polygon fill="midnightblue" stroke="midnightblue" points="848.63,-1421.31 858.31,-1417 848.06,-1414.33 848.63,-1421.31"/>
</g>
<!-- Node4&#45;&gt;Node6 -->
<g id="edge5" class="edge">
<title>Node4&#45;&gt;Node6</title>
<path fill="none" stroke="midnightblue" d="M852.18,-1393.23C834.48,-1390.24 816.27,-1387.17 799.25,-1384.3"/>
<polygon fill="midnightblue" stroke="midnightblue" points="852.08,-1396.76 862.52,-1394.98 853.24,-1389.86 852.08,-1396.76"/>
</g>
<!-- Node4&#45;&gt;Node7 -->
<g id="edge6" class="edge">
<title>Node4&#45;&gt;Node7</title>
<path fill="none" stroke="midnightblue" d="M919.58,-1430.5C891.9,-1447.68 850.36,-1472.05 812,-1489 804.51,-1492.31 796.53,-1495.45 788.53,-1498.37"/>
<polygon fill="midnightblue" stroke="midnightblue" points="921.44,-1433.47 928.06,-1425.19 917.72,-1427.53 921.44,-1433.47"/>
</g>
<!-- Node7&#45;&gt;Node5 -->
<g id="edge7" class="edge">
<title>Node7&#45;&gt;Node5</title>
<path fill="none" stroke="midnightblue" d="M636.3,-1495.68C617.53,-1490.36 597.72,-1484.74 579.4,-1479.54"/>
<polygon fill="midnightblue" stroke="midnightblue" points="635.43,-1499.07 646.01,-1498.44 637.34,-1492.34 635.43,-1499.07"/>
</g>
<!-- Node8 -->
<g id="node8" class="node">
<title>Node8</title>
<g id="a_node8"><a xlink:href="classlocal_1_1connection__handler_1_1LocalConnectionHandler.html#aae9d106df606f3c68a146e0af7f60bba" target="_top" xlink:title=" ">
<polygon fill="white" stroke="black" points="425.5,-1498.5 425.5,-1539.5 586.5,-1539.5 586.5,-1498.5 425.5,-1498.5"/>
<text text-anchor="start" x="433.5" y="-1527.5" font-family="Helvetica,sans-Serif" font-size="10.00">local.connection_handler.</text>
<text text-anchor="start" x="433.5" y="-1516.5" font-family="Helvetica,sans-Serif" font-size="10.00">LocalConnectionHandler.send</text>
<text text-anchor="middle" x="506" y="-1505.5" font-family="Helvetica,sans-Serif" font-size="10.00">_message</text>
</a>
</g>
</g>
<!-- Node7&#45;&gt;Node8 -->
<g id="edge8" class="edge">
<title>Node7&#45;&gt;Node8</title>
<path fill="none" stroke="midnightblue" d="M628.73,-1519C614.73,-1519 600.34,-1519 586.59,-1519"/>
<polygon fill="midnightblue" stroke="midnightblue" points="628.84,-1522.5 638.84,-1519 628.84,-1515.5 628.84,-1522.5"/>
</g>
<!-- Node8&#45;&gt;Node9 -->
<g id="edge9" class="edge">
<title>Node8&#45;&gt;Node9</title>
<path fill="none" stroke="midnightblue" d="M434.21,-1494.66C429.71,-1492.83 425.27,-1490.93 421,-1489 389.25,-1474.65 354.71,-1455.17 330.08,-1440.57"/>
<polygon fill="midnightblue" stroke="midnightblue" points="432.93,-1497.92 443.52,-1498.36 435.51,-1491.41 432.93,-1497.92"/>
</g>
<!-- Node14&#45;&gt;Node15 -->
<g id="edge15" class="edge">
<title>Node14&#45;&gt;Node15</title>
<path fill="none" stroke="midnightblue" d="M200.31,-890.71C190.27,-889.5 180.1,-888.28 170.18,-887.09"/>
<polygon fill="midnightblue" stroke="midnightblue" points="199.95,-894.19 210.3,-891.9 200.78,-887.24 199.95,-894.19"/>
</g>
<!-- Node16&#45;&gt;Node17 -->
<g id="edge17" class="edge">
<title>Node16&#45;&gt;Node17</title>
<path fill="none" stroke="midnightblue" d="M849.86,-741.8C834.03,-743.17 817.84,-744.57 802.52,-745.9"/>
<polygon fill="midnightblue" stroke="midnightblue" points="850.54,-745.25 860.2,-740.9 849.94,-738.28 850.54,-745.25"/>
</g>
<!-- Node17&#45;&gt;Node17 -->
<g id="edge18" class="edge">
<title>Node17&#45;&gt;Node17</title>
<path fill="none" stroke="midnightblue" d="M757.17,-778.46C752.49,-783.18 739.94,-786.5 719.5,-786.5 685.96,-786.5 673.65,-777.56 682.55,-768.16"/>
<polygon fill="midnightblue" stroke="midnightblue" points="760.64,-777.89 756.45,-768.16 753.66,-778.38 760.64,-777.89"/>
</g>
<!-- Node17&#45;&gt;Node18 -->
<g id="edge19" class="edge">
<title>Node17&#45;&gt;Node18</title>
<path fill="none" stroke="midnightblue" d="M626.5,-765.18C614.03,-766.83 601.3,-768.52 589.03,-770.14"/>
<polygon fill="midnightblue" stroke="midnightblue" points="626.97,-768.65 636.43,-763.87 626.05,-761.71 626.97,-768.65"/>
</g>
<!-- Node21 -->
<g id="node21" class="node">
<title>Node21</title>
<g id="a_node21"><a xlink:href="classcloud_1_1CloudBackend.html#a566850b368080b6ff85ee2675aa9b3e2" target="_top" xlink:title=" ">
<polygon fill="white" stroke="black" points="439,-594 439,-624 573,-624 573,-594 439,-594"/>
<text text-anchor="start" x="447" y="-612" font-family="Helvetica,sans-Serif" font-size="10.00">cloud.CloudBackend.get</text>
<text text-anchor="middle" x="506" y="-601" font-family="Helvetica,sans-Serif" font-size="10.00">_device_configs</text>
</a>
</g>
</g>
<!-- Node20&#45;&gt;Node21 -->
<g id="edge23" class="edge">
<title>Node20&#45;&gt;Node21</title>
<path fill="none" stroke="midnightblue" d="M642.24,-609C619.67,-609 595.16,-609 573.28,-609"/>
<polygon fill="midnightblue" stroke="midnightblue" points="642.45,-612.5 652.45,-609 642.45,-605.5 642.45,-612.5"/>
</g>
<!-- Node22&#45;&gt;Node23 -->
<g id="edge25" class="edge">
<title>Node22&#45;&gt;Node23</title>
<path fill="none" stroke="midnightblue" d="M857.26,-517.28C842.41,-519.53 827.08,-521.85 812.29,-524.09"/>
<polygon fill="midnightblue" stroke="midnightblue" points="858.09,-520.69 867.45,-515.73 857.04,-513.77 858.09,-520.69"/>
</g>
<!-- Node25&#45;&gt;Node20 -->
<g id="edge29" class="edge">
<title>Node25&#45;&gt;Node20</title>
<path fill="none" stroke="midnightblue" d="M872.65,-600.44C844.62,-602.01 813.38,-603.77 786.54,-605.28"/>
<polygon fill="midnightblue" stroke="midnightblue" points="873.03,-603.92 882.82,-599.87 872.64,-596.93 873.03,-603.92"/>
</g>
<!-- Node30 -->
<g id="node30" class="node">
<title>Node30</title>
<g id="a_node30"><a xlink:href="classlocal_1_1connection__handler_1_1LocalConnectionHandler.html#aaa28266e241c2e30e8acd468fab06fde" target="_top" xlink:title=" ">
<polygon fill="white" stroke="black" points="632,-964.5 632,-1005.5 807,-1005.5 807,-964.5 632,-964.5"/>
<text text-anchor="start" x="640" y="-993.5" font-family="Helvetica,sans-Serif" font-size="10.00">local.connection_handler.</text>
<text text-anchor="start" x="640" y="-982.5" font-family="Helvetica,sans-Serif" font-size="10.00">LocalConnectionHandler.process</text>
<text text-anchor="middle" x="719.5" y="-971.5" font-family="Helvetica,sans-Serif" font-size="10.00">_tcp_package</text>
</a>
</g>
</g>
<!-- Node29&#45;&gt;Node30 -->
<g id="edge34" class="edge">
<title>Node29&#45;&gt;Node30</title>
<path fill="none" stroke="midnightblue" d="M854.59,-958.88C838.89,-961.94 822.72,-965.09 807.27,-968.1"/>
<polygon fill="midnightblue" stroke="midnightblue" points="855.68,-962.23 864.83,-956.88 854.34,-955.36 855.68,-962.23"/>
</g>
<!-- Node31 -->
<g id="node31" class="node">
<title>Node31</title>
<g id="a_node31"><a xlink:href="classlocal_1_1connection__handler_1_1LocalConnectionHandler.html#a900e05554022ee9ecb3ba5621369016d" target="_top" xlink:title=" ">
<polygon fill="white" stroke="black" points="421,-934.5 421,-975.5 591,-975.5 591,-934.5 421,-934.5"/>
<text text-anchor="start" x="429" y="-963.5" font-family="Helvetica,sans-Serif" font-size="10.00">local.connection_handler.</text>
<text text-anchor="start" x="429" y="-952.5" font-family="Helvetica,sans-Serif" font-size="10.00">LocalConnectionHandler.handle</text>
<text text-anchor="middle" x="506" y="-941.5" font-family="Helvetica,sans-Serif" font-size="10.00">_connection</text>
</a>
</g>
</g>
<!-- Node30&#45;&gt;Node31 -->
<g id="edge35" class="edge">
<title>Node30&#45;&gt;Node31</title>
<path fill="none" stroke="midnightblue" d="M621.7,-971.27C611.49,-969.82 601.16,-968.36 591.11,-966.93"/>
<polygon fill="midnightblue" stroke="midnightblue" points="621.47,-974.77 631.86,-972.71 622.46,-967.84 621.47,-974.77"/>
</g>
<!-- Node31&#45;&gt;Node14 -->
<g id="edge36" class="edge">
<title>Node31&#45;&gt;Node14</title>
<path fill="none" stroke="midnightblue" d="M414.3,-931.94C402.01,-928.82 389.47,-925.63 377.36,-922.56"/>
<polygon fill="midnightblue" stroke="midnightblue" points="413.54,-935.36 424.09,-934.43 415.26,-928.58 413.54,-935.36"/>
</g>
<!-- Node32&#45;&gt;Node30 -->
<g id="edge38" class="edge">
<title>Node32&#45;&gt;Node30</title>
<path fill="none" stroke="midnightblue" d="M868.98,-1036.54C861.87,-1034.38 854.8,-1032.18 848,-1030 824.42,-1022.43 798.62,-1013.46 776.44,-1005.52"/>
<polygon fill="midnightblue" stroke="midnightblue" points="868.09,-1039.93 878.68,-1039.46 870.11,-1033.23 868.09,-1039.93"/>
</g>
<!-- Node33&#45;&gt;Node30 -->
<g id="edge40" class="edge">
<title>Node33&#45;&gt;Node30</title>
<path fill="none" stroke="midnightblue" d="M854.59,-993.71C838.89,-992.69 822.72,-991.64 807.27,-990.63"/>
<polygon fill="midnightblue" stroke="midnightblue" points="854.62,-997.22 864.83,-994.37 855.07,-990.23 854.62,-997.22"/>
</g>
<!-- Node38&#45;&gt;Node5 -->
<g id="edge51" class="edge">
<title>Node38&#45;&gt;Node5</title>
<path fill="none" stroke="midnightblue" d="M620.98,-1461.69C611.07,-1461.46 601.07,-1461.22 591.32,-1460.99"/>
<polygon fill="midnightblue" stroke="midnightblue" points="621.17,-1465.2 631.25,-1461.94 621.34,-1458.2 621.17,-1465.2"/>
</g>
</g>
</svg>
